<?xml version="1.0" encoding="UTF-8" standalone="no"?>
<!DOCTYPE svg PUBLIC "-//W3C//DTD SVG 1.1//EN"
 "http://www.w3.org/Graphics/SVG/1.1/DTD/svg11.dtd">
<!-- Generated by graphviz version 2.43.0 (0)
 -->
<!-- Title: features/test/frames/ActuatorControlWidget.cpp Pages: 1 -->
<svg width="649pt" height="148pt"
 viewBox="0.00 0.00 649.00 148.00" xmlns="http://www.w3.org/2000/svg" xmlns:xlink="http://www.w3.org/1999/xlink">
<g id="graph0" class="graph" transform="scale(1 1) rotate(0) translate(4 144)">
<title>features/test/frames/ActuatorControlWidget.cpp</title>
<!-- Node1 -->
<g id="Node000001" class="node">
<title>Node1</title>
<g id="a_Node000001"><a xlink:title=" ">
<polygon fill="#999999" stroke="#666666" points="421,-140 270,-140 270,-110 421,-110 421,-140"/>
<text text-anchor="start" x="278" y="-128" font-family="Helvetica,sans-Serif" font-size="10.00">features/test/frames</text>
<text text-anchor="middle" x="345.5" y="-117" font-family="Helvetica,sans-Serif" font-size="10.00">/ActuatorControlWidget.cpp</text>
</a>
</g>
</g>
<!-- Node2 -->
<g id="Node000002" class="node">
<title>Node2</title>
<g id="a_Node000002"><a xlink:title=" ">
<polygon fill="#e0e0e0" stroke="#999999" points="83,-74 0,-74 0,-55 83,-55 83,-74"/>
<text text-anchor="middle" x="41.5" y="-62" font-family="Helvetica,sans-Serif" font-size="10.00">QVBoxLayout</text>
</a>
</g>
</g>
<!-- Node1&#45;&gt;Node2 -->
<g id="edge1_Node000001_Node000002" class="edge">
<title>Node1&#45;&gt;Node2</title>
<g id="a_edge1_Node000001_Node000002"><a xlink:title=" ">
<path fill="none" stroke="#63b8ff" d="M272.68,-109.99C217.42,-99.35 142.78,-84.99 93.44,-75.5"/>
<polygon fill="#63b8ff" stroke="#63b8ff" points="93.8,-72 83.32,-73.55 92.47,-78.87 93.8,-72"/>
</a>
</g>
</g>
<!-- Node3 -->
<g id="Node000003" class="node">
<title>Node3</title>
<g id="a_Node000003"><a xlink:title=" ">
<polygon fill="#e0e0e0" stroke="#999999" points="199.5,-74 101.5,-74 101.5,-55 199.5,-55 199.5,-74"/>
<text text-anchor="middle" x="150.5" y="-62" font-family="Helvetica,sans-Serif" font-size="10.00">QDoubleSpinBox</text>
</a>
</g>
</g>
<!-- Node1&#45;&gt;Node3 -->
<g id="edge2_Node000001_Node000003" class="edge">
<title>Node1&#45;&gt;Node3</title>
<g id="a_edge2_Node000001_Node000003"><a xlink:title=" ">
<path fill="none" stroke="#63b8ff" d="M298.79,-109.99C265.14,-99.89 220.29,-86.44 188.75,-76.98"/>
<polygon fill="#63b8ff" stroke="#63b8ff" points="189.6,-73.57 179.01,-74.05 187.58,-80.28 189.6,-73.57"/>
</a>
</g>
</g>
<!-- Node4 -->
<g id="Node000004" class="node">
<title>Node4</title>
<g id="a_Node000004"><a xlink:title=" ">
<polygon fill="#e0e0e0" stroke="#999999" points="301.5,-74 217.5,-74 217.5,-55 301.5,-55 301.5,-74"/>
<text text-anchor="middle" x="259.5" y="-62" font-family="Helvetica,sans-Serif" font-size="10.00">QRadioButton</text>
</a>
</g>
</g>
<!-- Node1&#45;&gt;Node4 -->
<g id="edge3_Node000001_Node000004" class="edge">
<title>Node1&#45;&gt;Node4</title>
<g id="a_edge3_Node000001_Node000004"><a xlink:title=" ">
<path fill="none" stroke="#63b8ff" d="M324.68,-109.84C311.35,-100.77 294.11,-89.04 280.71,-79.92"/>
<polygon fill="#63b8ff" stroke="#63b8ff" points="282.37,-76.83 272.13,-74.09 278.43,-82.61 282.37,-76.83"/>
</a>
</g>
</g>
<!-- Node5 -->
<g id="Node000005" class="node">
<title>Node5</title>
<g id="a_Node000005"><a xlink:title=" ">
<polygon fill="#e0e0e0" stroke="#999999" points="371.5,-74 319.5,-74 319.5,-55 371.5,-55 371.5,-74"/>
<text text-anchor="middle" x="345.5" y="-62" font-family="Helvetica,sans-Serif" font-size="10.00">QSlider</text>
</a>
</g>
</g>
<!-- Node1&#45;&gt;Node5 -->
<g id="edge4_Node000001_Node000005" class="edge">
<title>Node1&#45;&gt;Node5</title>
<g id="a_edge4_Node000001_Node000005"><a xlink:title=" ">
<path fill="none" stroke="#63b8ff" d="M345.5,-109.84C345.5,-102.21 345.5,-92.7 345.5,-84.45"/>
<polygon fill="#63b8ff" stroke="#63b8ff" points="349,-84.27 345.5,-74.27 342,-84.27 349,-84.27"/>
</a>
</g>
</g>
<!-- Node6 -->
<g id="Node000006" class="node">
<title>Node6</title>
<g id="a_Node000006"><a xlink:title=" ">
<polygon fill="#e0e0e0" stroke="#999999" points="469.5,-19 419.5,-19 419.5,0 469.5,0 469.5,-19"/>
<text text-anchor="middle" x="444.5" y="-7" font-family="Helvetica,sans-Serif" font-size="10.00">QLabel</text>
</a>
</g>
</g>
<!-- Node1&#45;&gt;Node6 -->
<g id="edge5_Node000001_Node000006" class="edge">
<title>Node1&#45;&gt;Node6</title>
<g id="a_edge5_Node000001_Node000006"><a xlink:title=" ">
<path fill="none" stroke="#63b8ff" d="M358.04,-109.63C376.49,-88.47 410.87,-49.05 430.26,-26.83"/>
<polygon fill="#63b8ff" stroke="#63b8ff" points="432.95,-29.07 436.89,-19.23 427.67,-24.46 432.95,-29.07"/>
</a>
</g>
</g>
<!-- Node7 -->
<g id="Node000007" class="node">
<title>Node7</title>
<g id="a_Node000007"><a xlink:title=" ">
<polygon fill="#e0e0e0" stroke="#999999" points="485.5,-74 427.5,-74 427.5,-55 485.5,-55 485.5,-74"/>
<text text-anchor="middle" x="456.5" y="-62" font-family="Helvetica,sans-Serif" font-size="10.00">QPainter</text>
</a>
</g>
</g>
<!-- Node1&#45;&gt;Node7 -->
<g id="edge6_Node000001_Node000007" class="edge">
<title>Node1&#45;&gt;Node7</title>
<g id="a_edge6_Node000001_Node000007"><a xlink:title=" ">
<path fill="none" stroke="#63b8ff" d="M372.09,-109.99C389.95,-100.58 413.34,-88.24 430.98,-78.95"/>
<polygon fill="#63b8ff" stroke="#63b8ff" points="432.89,-81.9 440.11,-74.14 429.63,-75.71 432.89,-81.9"/>
</a>
</g>
</g>
<!-- Node8 -->
<g id="Node000008" class="node">
<title>Node8</title>
<g id="a_Node000008"><a xlink:href="ActuatorControlWidget_8h.html" target="_top" xlink:title=" ">
<polygon fill="white" stroke="#666666" points="641,-74 504,-74 504,-55 641,-55 641,-74"/>
<text text-anchor="middle" x="572.5" y="-62" font-family="Helvetica,sans-Serif" font-size="10.00">ActuatorControlWidget.h</text>
</a>
</g>
</g>
<!-- Node1&#45;&gt;Node8 -->
<g id="edge7_Node000001_Node000008" class="edge">
<title>Node1&#45;&gt;Node8</title>
<g id="a_edge7_Node000001_Node000008"><a xlink:title=" ">
<path fill="none" stroke="#63b8ff" d="M399.87,-109.99C439.56,-99.76 492.62,-86.09 529.39,-76.61"/>
<polygon fill="#63b8ff" stroke="#63b8ff" points="530.5,-79.94 539.31,-74.05 528.75,-73.16 530.5,-79.94"/>
</a>
</g>
</g>
<!-- Node8&#45;&gt;Node6 -->
<g id="edge9_Node000008_Node000006" class="edge">
<title>Node8&#45;&gt;Node6</title>
<g id="a_edge9_Node000008_Node000006"><a xlink:title=" ">
<path fill="none" stroke="#63b8ff" d="M551.93,-54.98C531.07,-46.34 498.53,-32.87 474.73,-23.02"/>
<polygon fill="#63b8ff" stroke="#63b8ff" points="476.02,-19.76 465.44,-19.17 473.34,-26.23 476.02,-19.76"/>
</a>
</g>
</g>
<!-- Node9 -->
<g id="Node000009" class="node">
<title>Node9</title>
<g id="a_Node000009"><a xlink:title=" ">
<polygon fill="#e0e0e0" stroke="#999999" points="612.5,-19 532.5,-19 532.5,0 612.5,0 612.5,-19"/>
<text text-anchor="middle" x="572.5" y="-7" font-family="Helvetica,sans-Serif" font-size="10.00">QPushButton</text>
</a>
</g>
</g>
<!-- Node8&#45;&gt;Node9 -->
<g id="edge8_Node000008_Node000009" class="edge">
<title>Node8&#45;&gt;Node9</title>
<g id="a_edge8_Node000008_Node000009"><a xlink:title=" ">
<path fill="none" stroke="#63b8ff" d="M572.5,-54.75C572.5,-47.8 572.5,-37.85 572.5,-29.13"/>
<polygon fill="#63b8ff" stroke="#63b8ff" points="576,-29.09 572.5,-19.09 569,-29.09 576,-29.09"/>
</a>
</g>
</g>
</g>
</svg>
