<?xml version="1.0" encoding="UTF-8" standalone="no"?>
<!DOCTYPE svg PUBLIC "-//W3C//DTD SVG 1.1//EN"
 "http://www.w3.org/Graphics/SVG/1.1/DTD/svg11.dtd">
<!-- Generated by graphviz version 2.43.0 (0)
 -->
<!-- Title: features/pid/actuator/ActuatorSwitchViewModel.cpp Pages: 1 -->
<!--zoomable 401 -->

<svg id="main" version="1.1" xmlns="http://www.w3.org/2000/svg" xmlns:xlink="http://www.w3.org/1999/xlink" xml:space="preserve" onload="init(evt)">
<style type="text/css"><![CDATA[
.node, .edge {opacity: 0.7;}
.node.selected, .edge.selected {opacity: 1;}
.edge:hover path { stroke: red; }
.edge:hover polygon { stroke: red; fill: red; }
]]></style>

<defs>
  <circle id="rim" cx="0" cy="0" r="7"/>
  <circle id="rim2" cx="0" cy="0" r="3.5"/>
  <g id="zoomPlus">
    <use xlink:href="#rim" fill="#404040"><set attributeName="fill" to="#808080" begin="zoomplus.mouseover" end="zoomplus.mouseout"/></use>
    <path d="M-4,0h8M0,-4v8" fill="none" stroke="white" stroke-width="1.5" pointer-events="none"/>
  </g>
  <g id="zoomMin">
    <use xlink:href="#rim" fill="#404040"><set attributeName="fill" to="#808080" begin="zoomminus.mouseover" end="zoomminus.mouseout"/></use>
    <path d="M-4,0h8" fill="none" stroke="white" stroke-width="1.5" pointer-events="none"/>
  </g>
  <g id="arrowUp" transform="translate(30 24)">
    <use xlink:href="#rim"/>
    <path pointer-events="none" fill="none" stroke="white" stroke-width="1.5" d="M0,-3.0v7 M-2.5,-0.5L0,-3.0L2.5,-0.5"/>
  </g>
  <g id="arrowRight" transform="rotate(90) translate(36 -43)">
    <use xlink:href="#rim"/>
    <path pointer-events="none" fill="none" stroke="white" stroke-width="1.5" d="M0,-3.0v7 M-2.5,-0.5L0,-3.0L2.5,-0.5"/>
  </g>
  <g id="arrowDown" transform="rotate(180) translate(-30 -48)">
    <use xlink:href="#rim"/>
    <path pointer-events="none" fill="none" stroke="white" stroke-width="1.5" d="M0,-3.0v7 M-2.5,-0.5L0,-3.0L2.5,-0.5"/>
  </g>
  <g id="arrowLeft" transform="rotate(270) translate(-36 17)">
    <use xlink:href="#rim"/>
    <path pointer-events="none" fill="none" stroke="white" stroke-width="1.5" d="M0,-3.0v7 M-2.5,-0.5L0,-3.0L2.5,-0.5"/>
  </g>
  <g id="resetDef">
    <use xlink:href="#rim2" fill="#404040"><set attributeName="fill" to="#808080" begin="reset.mouseover" end="reset.mouseout"/></use>
  </g>
</defs>
<script type="application/ecmascript">
var viewWidth = 1003;
var viewHeight = 401;
var sectionId = 'dynsection-0';
</script>
<script type="application/ecmascript" xlink:href="svg.min.js"/>
<svg id="graph" class="graph">
<g id="viewport">
<title>features/pid/actuator/ActuatorSwitchViewModel.cpp</title>
<!-- Node1 -->
<g id="Node000001" class="node">
<title>Node1</title>
<g id="a_Node000001"><a xlink:title=" ">
<polygon fill="#999999" stroke="#666666" points="859.1,-393 692.1,-393 692.1,-363 859.1,-363 859.1,-393"/>
<text text-anchor="start" x="700.1" y="-381" font-family="Helvetica,sans-Serif" font-size="10.00">features/pid/actuator</text>
<text text-anchor="middle" x="775.6" y="-370" font-family="Helvetica,sans-Serif" font-size="10.00">/ActuatorSwitchViewModel.cpp</text>
</a>
</g>
</g>
<!-- Node2 -->
<g id="Node000002" class="node">
<title>Node2</title>
<g id="a_Node000002"><a xlink:href="ActuatorSwitchViewModel_8h.html" target="_top" xlink:title=" ">
<polygon fill="white" stroke="#666666" points="995.1,-79.5 842.1,-79.5 842.1,-60.5 995.1,-60.5 995.1,-79.5"/>
<text text-anchor="middle" x="918.6" y="-67.5" font-family="Helvetica,sans-Serif" font-size="10.00">ActuatorSwitchViewModel.h</text>
</a>
</g>
</g>
<!-- Node1&#45;&gt;Node2 -->
<g id="edge1_Node000001_Node000002" class="edge">
<title>Node1&#45;&gt;Node2</title>
<g id="a_edge1_Node000001_Node000002"><a xlink:title=" ">
<path fill="none" stroke="#63b8ff" d="M791.72,-362.65C814.03,-341.12 851.6,-298.08 851.6,-252.5 851.6,-252.5 851.6,-252.5 851.6,-195.5 851.6,-152.19 883.44,-109.43 903.22,-87.04"/>
<polygon fill="#63b8ff" stroke="#63b8ff" points="905.95,-89.24 910.12,-79.5 900.78,-84.52 905.95,-89.24"/>
</a>
</g>
</g>
<!-- Node4 -->
<g id="Node000004" class="node">
<title>Node4</title>
<g id="a_Node000004"><a xlink:href="UdpChannel_8h.html" target="_top" xlink:title="UDP Communicaton channel between the microcontroler and the HMI.">
<polygon fill="white" stroke="#666666" points="724.1,-327 571.1,-327 571.1,-297 724.1,-297 724.1,-327"/>
<text text-anchor="start" x="579.1" y="-315" font-family="Helvetica,sans-Serif" font-size="10.00">src/features/communication</text>
<text text-anchor="middle" x="647.6" y="-304" font-family="Helvetica,sans-Serif" font-size="10.00">/udp/UdpChannel.h</text>
</a>
</g>
</g>
<!-- Node1&#45;&gt;Node4 -->
<g id="edge3_Node000001_Node000004" class="edge">
<title>Node1&#45;&gt;Node4</title>
<g id="a_edge3_Node000001_Node000004"><a xlink:title=" ">
<path fill="none" stroke="#63b8ff" d="M747.51,-362.95C729.09,-353.74 704.79,-341.6 684.78,-331.59"/>
<polygon fill="#63b8ff" stroke="#63b8ff" points="686.14,-328.35 675.63,-327.01 683.01,-334.61 686.14,-328.35"/>
</a>
</g>
</g>
<!-- Node17 -->
<g id="Node000017" class="node">
<title>Node17</title>
<g id="a_Node000017"><a xlink:title=" ">
<polygon fill="#e0e0e0" stroke="#999999" points="73.6,-145.5 17.6,-145.5 17.6,-126.5 73.6,-126.5 73.6,-145.5"/>
<text text-anchor="middle" x="45.6" y="-133.5" font-family="Helvetica,sans-Serif" font-size="10.00">QDebug</text>
</a>
</g>
</g>
<!-- Node1&#45;&gt;Node17 -->
<g id="edge43_Node000001_Node000017" class="edge">
<title>Node1&#45;&gt;Node17</title>
<g id="a_edge43_Node000001_Node000017"><a xlink:title=" ">
<path fill="none" stroke="#63b8ff" d="M691.86,-366.14C579.8,-350.2 375.8,-316.22 208.6,-261 153.66,-242.85 134.31,-243.91 90.6,-206 74.28,-191.84 61.54,-170.35 53.85,-155.12"/>
<polygon fill="#63b8ff" stroke="#63b8ff" points="56.83,-153.25 49.35,-145.75 50.52,-156.28 56.83,-153.25"/>
</a>
</g>
</g>
<!-- Node27 -->
<g id="Node000027" class="node">
<title>Node27</title>
<g id="a_Node000027"><a xlink:href="TestBenchModel_8h.html" target="_top" xlink:title=" ">
<polygon fill="white" stroke="#666666" points="765.1,-151 616.1,-151 616.1,-121 765.1,-121 765.1,-151"/>
<text text-anchor="start" x="624.1" y="-139" font-family="Helvetica,sans-Serif" font-size="10.00">src/features/test/TestBench</text>
<text text-anchor="middle" x="690.6" y="-128" font-family="Helvetica,sans-Serif" font-size="10.00">Model.h</text>
</a>
</g>
</g>
<!-- Node1&#45;&gt;Node27 -->
<g id="edge37_Node000001_Node000027" class="edge">
<title>Node1&#45;&gt;Node27</title>
<g id="a_edge37_Node000001_Node000027"><a xlink:title=" ">
<path fill="none" stroke="#63b8ff" d="M775.54,-362.73C775,-337.57 771.96,-284.01 756.6,-242 745.28,-211.03 723.89,-179.55 708.53,-159.24"/>
<polygon fill="#63b8ff" stroke="#63b8ff" points="711.24,-157.03 702.36,-151.25 705.7,-161.31 711.24,-157.03"/>
</a>
</g>
</g>
<!-- Node28 -->
<g id="Node000028" class="node">
<title>Node28</title>
<g id="a_Node000028"><a xlink:href="Timer_8h.html" target="_top" xlink:title=" ">
<polygon fill="white" stroke="#666666" points="985.6,-327 879.6,-327 879.6,-297 985.6,-297 985.6,-327"/>
<text text-anchor="start" x="887.6" y="-315" font-family="Helvetica,sans-Serif" font-size="10.00">src/services/Timer</text>
<text text-anchor="middle" x="932.6" y="-304" font-family="Helvetica,sans-Serif" font-size="10.00">/Timer.h</text>
</a>
</g>
</g>
<!-- Node1&#45;&gt;Node28 -->
<g id="edge41_Node000001_Node000028" class="edge">
<title>Node1&#45;&gt;Node28</title>
<g id="a_edge41_Node000001_Node000028"><a xlink:title=" ">
<path fill="none" stroke="#63b8ff" d="M810.06,-362.95C833.17,-353.53 863.8,-341.04 888.66,-330.91"/>
<polygon fill="#63b8ff" stroke="#63b8ff" points="890.29,-334.03 898.23,-327.01 887.65,-327.55 890.29,-334.03"/>
</a>
</g>
</g>
<!-- Node3 -->
<g id="Node000003" class="node">
<title>Node3</title>
<g id="a_Node000003"><a xlink:title=" ">
<polygon fill="#e0e0e0" stroke="#999999" points="853.6,-19 797.6,-19 797.6,0 853.6,0 853.6,-19"/>
<text text-anchor="middle" x="825.6" y="-7" font-family="Helvetica,sans-Serif" font-size="10.00">QObject</text>
</a>
</g>
</g>
<!-- Node2&#45;&gt;Node3 -->
<g id="edge2_Node000002_Node000003" class="edge">
<title>Node2&#45;&gt;Node3</title>
<g id="a_edge2_Node000002_Node000003"><a xlink:title=" ">
<path fill="none" stroke="#63b8ff" d="M904.88,-60.37C889.91,-50.95 865.71,-35.73 847.98,-24.58"/>
<polygon fill="#63b8ff" stroke="#63b8ff" points="849.71,-21.53 839.38,-19.17 845.98,-27.45 849.71,-21.53"/>
</a>
</g>
</g>
<!-- Node4&#45;&gt;Node3 -->
<g id="edge4_Node000004_Node000003" class="edge">
<title>Node4&#45;&gt;Node3</title>
<g id="a_edge4_Node000004_Node000003"><a xlink:title=" ">
<path fill="none" stroke="#63b8ff" d="M705.66,-296.91C753.53,-281.42 813.6,-251.26 813.6,-197.5 813.6,-197.5 813.6,-197.5 813.6,-135 813.6,-97.32 819.12,-53.52 822.67,-29.21"/>
<polygon fill="#63b8ff" stroke="#63b8ff" points="826.14,-29.64 824.18,-19.23 819.22,-28.59 826.14,-29.64"/>
</a>
</g>
</g>
<!-- Node5 -->
<g id="Node000005" class="node">
<title>Node5</title>
<g id="a_Node000005"><a xlink:title=" ">
<polygon fill="#e0e0e0" stroke="#999999" points="653.6,-261 595.6,-261 595.6,-242 653.6,-242 653.6,-261"/>
<text text-anchor="middle" x="624.6" y="-249" font-family="Helvetica,sans-Serif" font-size="10.00">QThread</text>
</a>
</g>
</g>
<!-- Node4&#45;&gt;Node5 -->
<g id="edge5_Node000004_Node000005" class="edge">
<title>Node4&#45;&gt;Node5</title>
<g id="a_edge5_Node000004_Node000005"><a xlink:title=" ">
<path fill="none" stroke="#63b8ff" d="M642.03,-296.84C638.93,-288.95 635.04,-279.05 631.72,-270.61"/>
<polygon fill="#63b8ff" stroke="#63b8ff" points="634.97,-269.29 628.05,-261.27 628.45,-271.85 634.97,-269.29"/>
</a>
</g>
</g>
<!-- Node6 -->
<g id="Node000006" class="node">
<title>Node6</title>
<g id="a_Node000006"><a xlink:title=" ">
<polygon fill="#e0e0e0" stroke="#999999" points="747.6,-261 671.6,-261 671.6,-242 747.6,-242 747.6,-261"/>
<text text-anchor="middle" x="709.6" y="-249" font-family="Helvetica,sans-Serif" font-size="10.00">QUdpSocket</text>
</a>
</g>
</g>
<!-- Node4&#45;&gt;Node6 -->
<g id="edge6_Node000004_Node000006" class="edge">
<title>Node4&#45;&gt;Node6</title>
<g id="a_edge6_Node000004_Node000006"><a xlink:title=" ">
<path fill="none" stroke="#63b8ff" d="M662.61,-296.84C671.79,-288.17 683.56,-277.08 693.02,-268.15"/>
<polygon fill="#63b8ff" stroke="#63b8ff" points="695.44,-270.67 700.31,-261.27 690.64,-265.58 695.44,-270.67"/>
</a>
</g>
</g>
<!-- Node7 -->
<g id="Node000007" class="node">
<title>Node7</title>
<g id="a_Node000007"><a xlink:href="Messages_8h.html" target="_top" xlink:title=" ">
<polygon fill="white" stroke="#666666" points="653.1,-85 550.1,-85 550.1,-55 653.1,-55 653.1,-85"/>
<text text-anchor="start" x="558.1" y="-73" font-family="Helvetica,sans-Serif" font-size="10.00">src/core/Protocols</text>
<text text-anchor="middle" x="601.6" y="-62" font-family="Helvetica,sans-Serif" font-size="10.00">/Messages.h</text>
</a>
</g>
</g>
<!-- Node4&#45;&gt;Node7 -->
<g id="edge7_Node000004_Node000007" class="edge">
<title>Node4&#45;&gt;Node7</title>
<g id="a_edge7_Node000004_Node000007"><a xlink:title=" ">
<path fill="none" stroke="#63b8ff" d="M621.15,-296.86C608.17,-288.36 593.81,-276.22 586.6,-261 560.59,-206.05 579.64,-132.11 592.47,-94.74"/>
<polygon fill="#63b8ff" stroke="#63b8ff" points="595.81,-95.81 595.88,-85.22 589.22,-93.45 595.81,-95.81"/>
</a>
</g>
</g>
<!-- Node15 -->
<g id="Node000015" class="node">
<title>Node15</title>
<g id="a_Node000015"><a xlink:href="UdpLogger_8h.html" target="_top" xlink:title=" ">
<polygon fill="white" stroke="#666666" points="369.1,-261 218.1,-261 218.1,-242 369.1,-242 369.1,-261"/>
<text text-anchor="middle" x="293.6" y="-249" font-family="Helvetica,sans-Serif" font-size="10.00">frames_logger/UdpLogger.h</text>
</a>
</g>
</g>
<!-- Node4&#45;&gt;Node15 -->
<g id="edge16_Node000004_Node000015" class="edge">
<title>Node4&#45;&gt;Node15</title>
<g id="a_edge16_Node000004_Node000015"><a xlink:title=" ">
<path fill="none" stroke="#63b8ff" d="M570.79,-298.31C506.2,-287.63 415.07,-272.57 355.19,-262.68"/>
<polygon fill="#63b8ff" stroke="#63b8ff" points="355.56,-259.19 345.12,-261.01 354.42,-266.1 355.56,-259.19"/>
</a>
</g>
</g>
<!-- Node7&#45;&gt;Node3 -->
<g id="edge14_Node000007_Node000003" class="edge">
<title>Node7&#45;&gt;Node3</title>
<g id="a_edge14_Node000007_Node000003"><a xlink:title=" ">
<path fill="none" stroke="#63b8ff" d="M653.27,-55.51C694.25,-44.8 750.6,-30.09 787.54,-20.44"/>
<polygon fill="#63b8ff" stroke="#63b8ff" points="788.62,-23.77 797.41,-17.86 786.85,-17 788.62,-23.77"/>
</a>
</g>
</g>
<!-- Node8 -->
<g id="Node000008" class="node">
<title>Node8</title>
<g id="a_Node000008"><a xlink:title=" ">
<polygon fill="#e0e0e0" stroke="#999999" points="550.1,-19 499.1,-19 499.1,0 550.1,0 550.1,-19"/>
<text text-anchor="middle" x="524.6" y="-7" font-family="Helvetica,sans-Serif" font-size="10.00">variant</text>
</a>
</g>
</g>
<!-- Node7&#45;&gt;Node8 -->
<g id="edge8_Node000007_Node000008" class="edge">
<title>Node7&#45;&gt;Node8</title>
<g id="a_edge8_Node000007_Node000008"><a xlink:title=" ">
<path fill="none" stroke="#63b8ff" d="M582.96,-54.84C571.22,-45.91 556.07,-34.41 544.15,-25.35"/>
<polygon fill="#63b8ff" stroke="#63b8ff" points="546.22,-22.53 536.14,-19.27 541.99,-28.1 546.22,-22.53"/>
</a>
</g>
</g>
<!-- Node9 -->
<g id="Node000009" class="node">
<title>Node9</title>
<g id="a_Node000009"><a xlink:title=" ">
<polygon fill="#e0e0e0" stroke="#999999" points="316.6,-19 266.6,-19 266.6,0 316.6,0 316.6,-19"/>
<text text-anchor="middle" x="291.6" y="-7" font-family="Helvetica,sans-Serif" font-size="10.00">cstdint</text>
</a>
</g>
</g>
<!-- Node7&#45;&gt;Node9 -->
<g id="edge9_Node000007_Node000009" class="edge">
<title>Node7&#45;&gt;Node9</title>
<g id="a_edge9_Node000007_Node000009"><a xlink:title=" ">
<path fill="none" stroke="#63b8ff" d="M550.06,-59.27C486.82,-47.34 381.29,-27.43 326.7,-17.12"/>
<polygon fill="#63b8ff" stroke="#63b8ff" points="327.28,-13.67 316.81,-15.26 325.98,-20.55 327.28,-13.67"/>
</a>
</g>
</g>
<!-- Node10 -->
<g id="Node000010" class="node">
<title>Node10</title>
<g id="a_Node000010"><a xlink:title=" ">
<polygon fill="#e0e0e0" stroke="#999999" points="417.6,-19 373.6,-19 373.6,0 417.6,0 417.6,-19"/>
<text text-anchor="middle" x="395.6" y="-7" font-family="Helvetica,sans-Serif" font-size="10.00">string</text>
</a>
</g>
</g>
<!-- Node7&#45;&gt;Node10 -->
<g id="edge10_Node000007_Node000010" class="edge">
<title>Node7&#45;&gt;Node10</title>
<g id="a_edge10_Node000007_Node000010"><a xlink:title=" ">
<path fill="none" stroke="#63b8ff" d="M552.26,-54.99C513.53,-43.99 460.77,-29.01 427.44,-19.54"/>
<polygon fill="#63b8ff" stroke="#63b8ff" points="428.34,-16.16 417.76,-16.79 426.43,-22.89 428.34,-16.16"/>
</a>
</g>
</g>
<!-- Node11 -->
<g id="Node000011" class="node">
<title>Node11</title>
<g id="a_Node000011"><a xlink:title=" ">
<polygon fill="#e0e0e0" stroke="#999999" points="641.1,-19 568.1,-19 568.1,0 641.1,0 641.1,-19"/>
<text text-anchor="middle" x="604.6" y="-7" font-family="Helvetica,sans-Serif" font-size="10.00">QByteArray</text>
</a>
</g>
</g>
<!-- Node7&#45;&gt;Node11 -->
<g id="edge11_Node000007_Node000011" class="edge">
<title>Node7&#45;&gt;Node11</title>
<g id="a_edge11_Node000007_Node000011"><a xlink:title=" ">
<path fill="none" stroke="#63b8ff" d="M602.33,-54.84C602.72,-47.21 603.21,-37.7 603.63,-29.45"/>
<polygon fill="#63b8ff" stroke="#63b8ff" points="607.14,-29.43 604.15,-19.27 600.15,-29.07 607.14,-29.43"/>
</a>
</g>
</g>
<!-- Node12 -->
<g id="Node000012" class="node">
<title>Node12</title>
<g id="a_Node000012"><a xlink:title=" ">
<polygon fill="#e0e0e0" stroke="#999999" points="708.1,-19 659.1,-19 659.1,0 708.1,0 708.1,-19"/>
<text text-anchor="middle" x="683.6" y="-7" font-family="Helvetica,sans-Serif" font-size="10.00">QHash</text>
</a>
</g>
</g>
<!-- Node7&#45;&gt;Node12 -->
<g id="edge12_Node000007_Node000012" class="edge">
<title>Node7&#45;&gt;Node12</title>
<g id="a_edge12_Node000007_Node000012"><a xlink:title=" ">
<path fill="none" stroke="#63b8ff" d="M621.45,-54.84C634.08,-45.83 650.4,-34.18 663.15,-25.09"/>
<polygon fill="#63b8ff" stroke="#63b8ff" points="665.21,-27.92 671.32,-19.27 661.14,-22.22 665.21,-27.92"/>
</a>
</g>
</g>
<!-- Node13 -->
<g id="Node000013" class="node">
<title>Node13</title>
<g id="a_Node000013"><a xlink:title=" ">
<polygon fill="#e0e0e0" stroke="#999999" points="779.1,-19 726.1,-19 726.1,0 779.1,0 779.1,-19"/>
<text text-anchor="middle" x="752.6" y="-7" font-family="Helvetica,sans-Serif" font-size="10.00">QString</text>
</a>
</g>
</g>
<!-- Node7&#45;&gt;Node13 -->
<g id="edge13_Node000007_Node000013" class="edge">
<title>Node7&#45;&gt;Node13</title>
<g id="a_edge13_Node000007_Node000013"><a xlink:title=" ">
<path fill="none" stroke="#63b8ff" d="M637.77,-54.99C663.08,-45.18 696.56,-32.21 720.84,-22.81"/>
<polygon fill="#63b8ff" stroke="#63b8ff" points="722.24,-26.02 730.3,-19.14 719.71,-19.49 722.24,-26.02"/>
</a>
</g>
</g>
<!-- Node14 -->
<g id="Node000014" class="node">
<title>Node14</title>
<g id="a_Node000014"><a xlink:title=" ">
<polygon fill="#e0e0e0" stroke="#999999" points="481.1,-19 436.1,-19 436.1,0 481.1,0 481.1,-19"/>
<text text-anchor="middle" x="458.6" y="-7" font-family="Helvetica,sans-Serif" font-size="10.00">QMap</text>
</a>
</g>
</g>
<!-- Node7&#45;&gt;Node14 -->
<g id="edge15_Node000007_Node000014" class="edge">
<title>Node7&#45;&gt;Node14</title>
<g id="a_edge15_Node000007_Node000014"><a xlink:title=" ">
<path fill="none" stroke="#63b8ff" d="M567.35,-54.99C543.49,-45.23 511.96,-32.33 488.99,-22.93"/>
<polygon fill="#63b8ff" stroke="#63b8ff" points="490.3,-19.69 479.72,-19.14 487.65,-26.17 490.3,-19.69"/>
</a>
</g>
</g>
<!-- Node15&#45;&gt;Node9 -->
<g id="edge32_Node000015_Node000009" class="edge">
<title>Node15&#45;&gt;Node9</title>
<g id="a_edge32_Node000015_Node000009"><a xlink:title=" ">
<path fill="none" stroke="#63b8ff" d="M224.9,-242C184.62,-235.42 133.41,-224.27 90.6,-206 50.24,-188.78 29.25,-189.72 8.6,-151 -44.37,-51.69 169.39,-21.31 256.33,-13.17"/>
<polygon fill="#63b8ff" stroke="#63b8ff" points="256.86,-16.64 266.51,-12.26 256.24,-9.66 256.86,-16.64"/>
</a>
</g>
</g>
<!-- Node16 -->
<g id="Node000016" class="node">
<title>Node16</title>
<g id="a_Node000016"><a xlink:href="RingBuffer_8h.html" target="_top" xlink:title=" ">
<polygon fill="white" stroke="#666666" points="250.6,-206 174.6,-206 174.6,-187 250.6,-187 250.6,-206"/>
<text text-anchor="middle" x="212.6" y="-194" font-family="Helvetica,sans-Serif" font-size="10.00">RingBuffer.h</text>
</a>
</g>
</g>
<!-- Node15&#45;&gt;Node16 -->
<g id="edge17_Node000015_Node000016" class="edge">
<title>Node15&#45;&gt;Node16</title>
<g id="a_edge17_Node000015_Node000016"><a xlink:title=" ">
<path fill="none" stroke="#63b8ff" d="M280.59,-241.98C268.14,-233.84 249.15,-221.41 234.39,-211.76"/>
<polygon fill="#63b8ff" stroke="#63b8ff" points="236.14,-208.72 225.85,-206.17 232.3,-214.57 236.14,-208.72"/>
</a>
</g>
</g>
<!-- Node19 -->
<g id="Node000019" class="node">
<title>Node19</title>
<g id="a_Node000019"><a xlink:title=" ">
<polygon fill="#e0e0e0" stroke="#999999" points="141.6,-145.5 91.6,-145.5 91.6,-126.5 141.6,-126.5 141.6,-145.5"/>
<text text-anchor="middle" x="116.6" y="-133.5" font-family="Helvetica,sans-Serif" font-size="10.00">atomic</text>
</a>
</g>
</g>
<!-- Node15&#45;&gt;Node19 -->
<g id="edge31_Node000015_Node000019" class="edge">
<title>Node15&#45;&gt;Node19</title>
<g id="a_edge31_Node000015_Node000019"><a xlink:title=" ">
<path fill="none" stroke="#63b8ff" d="M217.93,-242.81C170.07,-236.21 114.51,-224.72 99.6,-206 87.87,-191.28 96.16,-169.59 104.78,-154.48"/>
<polygon fill="#63b8ff" stroke="#63b8ff" points="107.97,-155.97 110.28,-145.63 102.03,-152.27 107.97,-155.97"/>
</a>
</g>
</g>
<!-- Node21 -->
<g id="Node000021" class="node">
<title>Node21</title>
<g id="a_Node000021"><a xlink:href="Logger_8h.html" target="_top" xlink:title=" ">
<polygon fill="white" stroke="#666666" points="539.6,-151 429.6,-151 429.6,-121 539.6,-121 539.6,-151"/>
<text text-anchor="start" x="437.6" y="-139" font-family="Helvetica,sans-Serif" font-size="10.00">src/services/Logger</text>
<text text-anchor="middle" x="484.6" y="-128" font-family="Helvetica,sans-Serif" font-size="10.00">/Logger.h</text>
</a>
</g>
</g>
<!-- Node15&#45;&gt;Node21 -->
<g id="edge36_Node000015_Node000021" class="edge">
<title>Node15&#45;&gt;Node21</title>
<g id="a_edge36_Node000015_Node000021"><a xlink:title=" ">
<path fill="none" stroke="#63b8ff" d="M353.9,-241.97C397.92,-234.53 452.59,-222.35 468.6,-206 480.09,-194.26 483.95,-175.99 485.01,-161.19"/>
<polygon fill="#63b8ff" stroke="#63b8ff" points="488.51,-161.29 485.36,-151.18 481.51,-161.05 488.51,-161.29"/>
</a>
</g>
</g>
<!-- Node23 -->
<g id="Node000023" class="node">
<title>Node23</title>
<g id="a_Node000023"><a xlink:href="Writer_8h.html" target="_top" xlink:title=" ">
<polygon fill="white" stroke="#666666" points="460.1,-206 405.1,-206 405.1,-187 460.1,-187 460.1,-206"/>
<text text-anchor="middle" x="432.6" y="-194" font-family="Helvetica,sans-Serif" font-size="10.00">Writer.h</text>
</a>
</g>
</g>
<!-- Node15&#45;&gt;Node23 -->
<g id="edge26_Node000015_Node000023" class="edge">
<title>Node15&#45;&gt;Node23</title>
<g id="a_edge26_Node000015_Node000023"><a xlink:title=" ">
<path fill="none" stroke="#63b8ff" d="M315.94,-241.98C338.8,-233.27 374.56,-219.63 400.46,-209.75"/>
<polygon fill="#63b8ff" stroke="#63b8ff" points="401.77,-213 409.86,-206.17 399.27,-206.46 401.77,-213"/>
</a>
</g>
</g>
<!-- Node24 -->
<g id="Node000024" class="node">
<title>Node24</title>
<g id="a_Node000024"><a xlink:title=" ">
<polygon fill="#e0e0e0" stroke="#999999" points="156.6,-206 108.6,-206 108.6,-187 156.6,-187 156.6,-206"/>
<text text-anchor="middle" x="132.6" y="-194" font-family="Helvetica,sans-Serif" font-size="10.00">thread</text>
</a>
</g>
</g>
<!-- Node15&#45;&gt;Node24 -->
<g id="edge33_Node000015_Node000024" class="edge">
<title>Node15&#45;&gt;Node24</title>
<g id="a_edge33_Node000015_Node000024"><a xlink:title=" ">
<path fill="none" stroke="#63b8ff" d="M267.73,-241.98C240.26,-232.94 196.72,-218.61 166.51,-208.66"/>
<polygon fill="#63b8ff" stroke="#63b8ff" points="167.42,-205.28 156.83,-205.47 165.23,-211.93 167.42,-205.28"/>
</a>
</g>
</g>
<!-- Node25 -->
<g id="Node000025" class="node">
<title>Node25</title>
<g id="a_Node000025"><a xlink:title=" ">
<polygon fill="#e0e0e0" stroke="#999999" points="318.6,-206 268.6,-206 268.6,-187 318.6,-187 318.6,-206"/>
<text text-anchor="middle" x="293.6" y="-194" font-family="Helvetica,sans-Serif" font-size="10.00">chrono</text>
</a>
</g>
</g>
<!-- Node15&#45;&gt;Node25 -->
<g id="edge34_Node000015_Node000025" class="edge">
<title>Node15&#45;&gt;Node25</title>
<g id="a_edge34_Node000015_Node000025"><a xlink:title=" ">
<path fill="none" stroke="#63b8ff" d="M293.6,-241.75C293.6,-234.8 293.6,-224.85 293.6,-216.13"/>
<polygon fill="#63b8ff" stroke="#63b8ff" points="297.1,-216.09 293.6,-206.09 290.1,-216.09 297.1,-216.09"/>
</a>
</g>
</g>
<!-- Node26 -->
<g id="Node000026" class="node">
<title>Node26</title>
<g id="a_Node000026"><a xlink:title=" ">
<polygon fill="#e0e0e0" stroke="#999999" points="386.6,-206 336.6,-206 336.6,-187 386.6,-187 386.6,-206"/>
<text text-anchor="middle" x="361.6" y="-194" font-family="Helvetica,sans-Serif" font-size="10.00">format</text>
</a>
</g>
</g>
<!-- Node15&#45;&gt;Node26 -->
<g id="edge35_Node000015_Node000026" class="edge">
<title>Node15&#45;&gt;Node26</title>
<g id="a_edge35_Node000015_Node000026"><a xlink:title=" ">
<path fill="none" stroke="#63b8ff" d="M304.53,-241.98C314.68,-234.07 330.02,-222.11 342.25,-212.58"/>
<polygon fill="#63b8ff" stroke="#63b8ff" points="344.74,-215.08 350.48,-206.17 340.44,-209.56 344.74,-215.08"/>
</a>
</g>
</g>
<!-- Node16&#45;&gt;Node9 -->
<g id="edge19_Node000016_Node000009" class="edge">
<title>Node16&#45;&gt;Node9</title>
<g id="a_edge19_Node000016_Node000009"><a xlink:title=" ">
<path fill="none" stroke="#63b8ff" d="M216.5,-187C220.58,-178.06 227.13,-163.58 232.6,-151 251.6,-107.28 273.08,-55.51 284.14,-28.67"/>
<polygon fill="#63b8ff" stroke="#63b8ff" points="287.52,-29.66 288.08,-19.08 281.04,-27 287.52,-29.66"/>
</a>
</g>
</g>
<!-- Node16&#45;&gt;Node17 -->
<g id="edge18_Node000016_Node000017" class="edge">
<title>Node16&#45;&gt;Node17</title>
<g id="a_edge18_Node000016_Node000017"><a xlink:title=" ">
<path fill="none" stroke="#63b8ff" d="M186.62,-186.88C160.32,-178.08 118.51,-163.94 82.6,-151 80.96,-150.41 79.28,-149.8 77.58,-149.17"/>
<polygon fill="#63b8ff" stroke="#63b8ff" points="78.46,-145.76 67.86,-145.56 76.01,-152.32 78.46,-145.76"/>
</a>
</g>
</g>
<!-- Node18 -->
<g id="Node000018" class="node">
<title>Node18</title>
<g id="a_Node000018"><a xlink:title=" ">
<polygon fill="#e0e0e0" stroke="#999999" points="335.1,-145.5 280.1,-145.5 280.1,-126.5 335.1,-126.5 335.1,-145.5"/>
<text text-anchor="middle" x="307.6" y="-133.5" font-family="Helvetica,sans-Serif" font-size="10.00">fstream</text>
</a>
</g>
</g>
<!-- Node16&#45;&gt;Node18 -->
<g id="edge20_Node000016_Node000018" class="edge">
<title>Node16&#45;&gt;Node18</title>
<g id="a_edge20_Node000016_Node000018"><a xlink:title=" ">
<path fill="none" stroke="#63b8ff" d="M226.62,-186.87C241.92,-177.45 266.63,-162.23 284.74,-151.08"/>
<polygon fill="#63b8ff" stroke="#63b8ff" points="286.85,-153.89 293.53,-145.67 283.18,-147.93 286.85,-153.89"/>
</a>
</g>
</g>
<!-- Node16&#45;&gt;Node19 -->
<g id="edge21_Node000016_Node000019" class="edge">
<title>Node16&#45;&gt;Node19</title>
<g id="a_edge21_Node000016_Node000019"><a xlink:title=" ">
<path fill="none" stroke="#63b8ff" d="M198.44,-186.87C182.91,-177.41 157.77,-162.09 139.45,-150.92"/>
<polygon fill="#63b8ff" stroke="#63b8ff" points="141.19,-147.88 130.83,-145.67 137.54,-153.86 141.19,-147.88"/>
</a>
</g>
</g>
<!-- Node20 -->
<g id="Node000020" class="node">
<title>Node20</title>
<g id="a_Node000020"><a xlink:title=" ">
<polygon fill="#e0e0e0" stroke="#999999" points="223.6,-145.5 159.6,-145.5 159.6,-126.5 223.6,-126.5 223.6,-145.5"/>
<text text-anchor="middle" x="191.6" y="-133.5" font-family="Helvetica,sans-Serif" font-size="10.00">algorithm</text>
</a>
</g>
</g>
<!-- Node16&#45;&gt;Node20 -->
<g id="edge22_Node000016_Node000020" class="edge">
<title>Node16&#45;&gt;Node20</title>
<g id="a_edge22_Node000016_Node000020"><a xlink:title=" ">
<path fill="none" stroke="#63b8ff" d="M209.5,-186.87C206.53,-178.57 201.93,-165.78 198.14,-155.22"/>
<polygon fill="#63b8ff" stroke="#63b8ff" points="201.39,-153.9 194.71,-145.67 194.8,-156.26 201.39,-153.9"/>
</a>
</g>
</g>
<!-- Node16&#45;&gt;Node21 -->
<g id="edge23_Node000016_Node000021" class="edge">
<title>Node16&#45;&gt;Node21</title>
<g id="a_edge23_Node000016_Node000021"><a xlink:title=" ">
<path fill="none" stroke="#63b8ff" d="M250.71,-187.3C294.46,-177.9 366.95,-162.3 419.66,-150.97"/>
<polygon fill="#63b8ff" stroke="#63b8ff" points="420.55,-154.36 429.59,-148.83 419.07,-147.51 420.55,-154.36"/>
</a>
</g>
</g>
<!-- Node21&#45;&gt;Node7 -->
<g id="edge25_Node000021_Node000007" class="edge">
<title>Node21&#45;&gt;Node7</title>
<g id="a_edge25_Node000021_Node000007"><a xlink:title=" ">
<path fill="none" stroke="#63b8ff" d="M510.28,-120.95C526.89,-111.87 548.72,-99.93 566.88,-90"/>
<polygon fill="#63b8ff" stroke="#63b8ff" points="568.89,-92.88 575.99,-85.01 565.53,-86.74 568.89,-92.88"/>
</a>
</g>
</g>
<!-- Node22 -->
<g id="Node000022" class="node">
<title>Node22</title>
<g id="a_Node000022"><a xlink:title=" ">
<polygon fill="#e0e0e0" stroke="#999999" points="493.1,-79.5 434.1,-79.5 434.1,-60.5 493.1,-60.5 493.1,-79.5"/>
<text text-anchor="middle" x="463.6" y="-67.5" font-family="Helvetica,sans-Serif" font-size="10.00">QWidget</text>
</a>
</g>
</g>
<!-- Node21&#45;&gt;Node22 -->
<g id="edge24_Node000021_Node000022" class="edge">
<title>Node21&#45;&gt;Node22</title>
<g id="a_edge24_Node000021_Node000022"><a xlink:title=" ">
<path fill="none" stroke="#63b8ff" d="M479.94,-120.8C476.92,-111.6 472.96,-99.53 469.7,-89.58"/>
<polygon fill="#63b8ff" stroke="#63b8ff" points="472.95,-88.25 466.5,-79.84 466.3,-90.44 472.95,-88.25"/>
</a>
</g>
</g>
<!-- Node23&#45;&gt;Node9 -->
<g id="edge27_Node000023_Node000009" class="edge">
<title>Node23&#45;&gt;Node9</title>
<g id="a_edge27_Node000023_Node000009"><a xlink:title=" ">
<path fill="none" stroke="#63b8ff" d="M425.8,-186.58C403.7,-157.58 333.64,-65.66 304.51,-27.43"/>
<polygon fill="#63b8ff" stroke="#63b8ff" points="307.18,-25.17 298.33,-19.33 301.61,-29.41 307.18,-25.17"/>
</a>
</g>
</g>
<!-- Node23&#45;&gt;Node10 -->
<g id="edge29_Node000023_Node000010" class="edge">
<title>Node23&#45;&gt;Node10</title>
<g id="a_edge29_Node000023_Node000010"><a xlink:title=" ">
<path fill="none" stroke="#63b8ff" d="M429.98,-186.69C427.38,-177.75 423.39,-163.49 420.6,-151 410.92,-107.63 402.53,-56.06 398.38,-29.07"/>
<polygon fill="#63b8ff" stroke="#63b8ff" points="401.83,-28.47 396.87,-19.1 394.91,-29.52 401.83,-28.47"/>
</a>
</g>
</g>
<!-- Node23&#45;&gt;Node18 -->
<g id="edge28_Node000023_Node000018" class="edge">
<title>Node23&#45;&gt;Node18</title>
<g id="a_edge28_Node000023_Node000018"><a xlink:title=" ">
<path fill="none" stroke="#63b8ff" d="M414.43,-186.99C393.6,-177.25 359.24,-161.16 335.12,-149.88"/>
<polygon fill="#63b8ff" stroke="#63b8ff" points="336.34,-146.59 325.8,-145.52 333.37,-152.93 336.34,-146.59"/>
</a>
</g>
</g>
<!-- Node23&#45;&gt;Node21 -->
<g id="edge30_Node000023_Node000021" class="edge">
<title>Node23&#45;&gt;Node21</title>
<g id="a_edge30_Node000023_Node000021"><a xlink:title=" ">
<path fill="none" stroke="#63b8ff" d="M440.28,-186.87C446.87,-179.44 456.68,-168.42 465.39,-158.62"/>
<polygon fill="#63b8ff" stroke="#63b8ff" points="468.03,-160.91 472.06,-151.11 462.8,-156.26 468.03,-160.91"/>
</a>
</g>
</g>
<!-- Node27&#45;&gt;Node3 -->
<g id="edge38_Node000027_Node000003" class="edge">
<title>Node27&#45;&gt;Node3</title>
<g id="a_edge38_Node000027_Node000003"><a xlink:title=" ">
<path fill="none" stroke="#63b8ff" d="M705.83,-120.96C731.32,-97.45 782.46,-50.29 808.91,-25.9"/>
<polygon fill="#63b8ff" stroke="#63b8ff" points="811.29,-28.46 816.27,-19.11 806.54,-23.32 811.29,-28.46"/>
</a>
</g>
</g>
<!-- Node27&#45;&gt;Node7 -->
<g id="edge40_Node000027_Node000007" class="edge">
<title>Node27&#45;&gt;Node7</title>
<g id="a_edge40_Node000027_Node000007"><a xlink:title=" ">
<path fill="none" stroke="#63b8ff" d="M670.85,-120.8C658.75,-112.1 643.07,-100.82 629.7,-91.2"/>
<polygon fill="#63b8ff" stroke="#63b8ff" points="631.46,-88.16 621.3,-85.16 627.37,-93.84 631.46,-88.16"/>
</a>
</g>
</g>
<!-- Node27&#45;&gt;Node10 -->
<g id="edge39_Node000027_Node000010" class="edge">
<title>Node27&#45;&gt;Node10</title>
<g id="a_edge39_Node000027_Node000010"><a xlink:title=" ">
<path fill="none" stroke="#63b8ff" d="M633.92,-120.96C605.04,-112.62 569.93,-100.59 540.6,-85 521.29,-74.73 520.51,-65.99 501.6,-55 477.92,-41.23 449.16,-29.43 427.57,-21.45"/>
<polygon fill="#63b8ff" stroke="#63b8ff" points="428.5,-18.07 417.91,-17.96 426.12,-24.65 428.5,-18.07"/>
</a>
</g>
</g>
<!-- Node29 -->
<g id="Node000029" class="node">
<title>Node29</title>
<g id="a_Node000029"><a xlink:title=" ">
<polygon fill="#e0e0e0" stroke="#999999" points="959.1,-261 906.1,-261 906.1,-242 959.1,-242 959.1,-261"/>
<text text-anchor="middle" x="932.6" y="-249" font-family="Helvetica,sans-Serif" font-size="10.00">QTimer</text>
</a>
</g>
</g>
<!-- Node28&#45;&gt;Node29 -->
<g id="edge42_Node000028_Node000029" class="edge">
<title>Node28&#45;&gt;Node29</title>
<g id="a_edge42_Node000028_Node000029"><a xlink:title=" ">
<path fill="none" stroke="#63b8ff" d="M932.6,-296.84C932.6,-289.21 932.6,-279.7 932.6,-271.45"/>
<polygon fill="#63b8ff" stroke="#63b8ff" points="936.1,-271.27 932.6,-261.27 929.1,-271.27 936.1,-271.27"/>
</a>
</g>
</g>
</g>
</svg>

<g id="navigator" transform="translate(0 0)" fill="#404254">
  <rect fill="#f2f5e9" fill-opacity="0.5" stroke="#606060" stroke-width=".5" x="0" y="0" width="60" height="60"/>
  <use id="zoomplus" xlink:href="#zoomPlus" x="17" y="9" onmousedown="handleZoom(evt,'in')"/>
  <use id="zoomminus" xlink:href="#zoomMin" x="42" y="9" onmousedown="handleZoom(evt,'out')"/>
  <use id="reset" xlink:href="#resetDef" x="30" y="36" onmousedown="handleReset()"/>
   <use id="arrowup" xlink:href="#arrowUp" x="0" y="0" onmousedown="handlePan(0,-1)"/>
  <use id="arrowright" xlink:href="#arrowRight" x="0" y="0" onmousedown="handlePan(1,0)"/>
  <use id="arrowdown" xlink:href="#arrowDown" x="0" y="0" onmousedown="handlePan(0,1)"/>
  <use id="arrowleft" xlink:href="#arrowLeft" x="0" y="0" onmousedown="handlePan(-1,0)"/>
</g>
<svg viewBox="0 0 15 15" width="100%" height="30px" preserveAspectRatio="xMaxYMin meet">
 <g id="arrow_out" transform="scale(0.3 0.3)">
  <a xlink:href="ActuatorSwitchViewModel_8cpp__incl_org.svg" target="_base">
   <rect id="button" ry="5" rx="5" y="6" x="6" height="38" width="38"
        fill="#f2f5e9" fill-opacity="0.5" stroke="#606060" stroke-width="1.0"/>
   <path id="arrow"
     d="M 11.500037,31.436501 C 11.940474,20.09759 22.043105,11.32322 32.158766,21.979434 L 37.068811,17.246167 C 37.068811,17.246167 37.088388,32 37.088388,32 L 22.160133,31.978069 C 22.160133,31.978069 26.997745,27.140456 26.997745,27.140456 C 18.528582,18.264221 13.291696,25.230495 11.500037,31.436501 z"
     style="fill:#404040;"/>
  </a>
 </g>
</svg>

<style type='text/css'>
<![CDATA[
[data-mouse-over-selected='false'] { opacity: 0.7; }
[data-mouse-over-selected='true']  { opacity: 1.0; }
]]>
</style>
<script type="application/ecmascript"><![CDATA[
document.addEventListener('DOMContentLoaded', (event) => {
  highlightEdges();
  highlightAdjacentNodes();
});
]]></script>
</svg>
