<?xml version="1.0" encoding="UTF-8" standalone="no"?>
<!DOCTYPE svg PUBLIC "-//W3C//DTD SVG 1.1//EN"
 "http://www.w3.org/Graphics/SVG/1.1/DTD/svg11.dtd">
<!-- Generated by graphviz version 2.43.0 (0)
 -->
<!-- Title: features/pid/actuator/ActuatorSwitchViewModel.cpp Pages: 1 -->
<svg width="966pt" height="401pt"
 viewBox="0.00 0.00 965.90 401.00" xmlns="http://www.w3.org/2000/svg" xmlns:xlink="http://www.w3.org/1999/xlink">
<g id="graph0" class="graph" transform="scale(1 1) rotate(0) translate(4 397)">
<title>features/pid/actuator/ActuatorSwitchViewModel.cpp</title>
<!-- Node1 -->
<g id="Node000001" class="node">
<title>Node1</title>
<g id="a_Node000001"><a xlink:title=" ">
<polygon fill="#999999" stroke="#666666" points="718.9,-393 551.9,-393 551.9,-363 718.9,-363 718.9,-393"/>
<text text-anchor="start" x="559.9" y="-381" font-family="Helvetica,sans-Serif" font-size="10.00">features/pid/actuator</text>
<text text-anchor="middle" x="635.4" y="-370" font-family="Helvetica,sans-Serif" font-size="10.00">/ActuatorSwitchViewModel.cpp</text>
</a>
</g>
</g>
<!-- Node2 -->
<g id="Node000002" class="node">
<title>Node2</title>
<g id="a_Node000002"><a xlink:href="ActuatorSwitchViewModel_8h.html" target="_top" xlink:title=" ">
<polygon fill="white" stroke="#666666" points="957.9,-79.5 804.9,-79.5 804.9,-60.5 957.9,-60.5 957.9,-79.5"/>
<text text-anchor="middle" x="881.4" y="-67.5" font-family="Helvetica,sans-Serif" font-size="10.00">ActuatorSwitchViewModel.h</text>
</a>
</g>
</g>
<!-- Node1&#45;&gt;Node2 -->
<g id="edge1_Node000001_Node000002" class="edge">
<title>Node1&#45;&gt;Node2</title>
<g id="a_edge1_Node000001_Node000002"><a xlink:title=" ">
<path fill="none" stroke="#63b8ff" d="M693.02,-362.85C745.35,-346.14 814.4,-312.69 814.4,-252.5 814.4,-252.5 814.4,-252.5 814.4,-195.5 814.4,-152.19 846.23,-109.43 866.01,-87.04"/>
<polygon fill="#63b8ff" stroke="#63b8ff" points="868.74,-89.24 872.91,-79.5 863.58,-84.52 868.74,-89.24"/>
</a>
</g>
</g>
<!-- Node4 -->
<g id="Node000004" class="node">
<title>Node4</title>
<g id="a_Node000004"><a xlink:href="UdpChannel_8h.html" target="_top" xlink:title="UDP communication channel between the microcontroller and the HMI.">
<polygon fill="white" stroke="#666666" points="711.9,-327 558.9,-327 558.9,-297 711.9,-297 711.9,-327"/>
<text text-anchor="start" x="566.9" y="-315" font-family="Helvetica,sans-Serif" font-size="10.00">src/features/communication</text>
<text text-anchor="middle" x="635.4" y="-304" font-family="Helvetica,sans-Serif" font-size="10.00">/udp/UdpChannel.h</text>
</a>
</g>
</g>
<!-- Node1&#45;&gt;Node4 -->
<g id="edge3_Node000001_Node000004" class="edge">
<title>Node1&#45;&gt;Node4</title>
<g id="a_edge3_Node000001_Node000004"><a xlink:title=" ">
<path fill="none" stroke="#63b8ff" d="M635.4,-362.8C635.4,-355.34 635.4,-345.99 635.4,-337.41"/>
<polygon fill="#63b8ff" stroke="#63b8ff" points="638.9,-337.16 635.4,-327.16 631.9,-337.16 638.9,-337.16"/>
</a>
</g>
</g>
<!-- Node19 -->
<g id="Node000019" class="node">
<title>Node19</title>
<g id="a_Node000019"><a xlink:title=" ">
<polygon fill="#e0e0e0" stroke="#999999" points="74.4,-145.5 18.4,-145.5 18.4,-126.5 74.4,-126.5 74.4,-145.5"/>
<text text-anchor="middle" x="46.4" y="-133.5" font-family="Helvetica,sans-Serif" font-size="10.00">QDebug</text>
</a>
</g>
</g>
<!-- Node1&#45;&gt;Node19 -->
<g id="edge40_Node000001_Node000019" class="edge">
<title>Node1&#45;&gt;Node19</title>
<g id="a_edge40_Node000001_Node000019"><a xlink:title=" ">
<path fill="none" stroke="#63b8ff" d="M551.79,-368.39C456.7,-355.82 299.13,-326.37 179.4,-261 128.11,-233 81.47,-180.68 59.56,-153.83"/>
<polygon fill="#63b8ff" stroke="#63b8ff" points="62.09,-151.39 53.1,-145.78 56.62,-155.77 62.09,-151.39"/>
</a>
</g>
</g>
<!-- Node25 -->
<g id="Node000025" class="node">
<title>Node25</title>
<g id="a_Node000025"><a xlink:href="TestBenchModel_8h.html" target="_top" xlink:title=" ">
<polygon fill="white" stroke="#666666" points="744.9,-151 595.9,-151 595.9,-121 744.9,-121 744.9,-151"/>
<text text-anchor="start" x="603.9" y="-139" font-family="Helvetica,sans-Serif" font-size="10.00">src/features/test/TestBench</text>
<text text-anchor="middle" x="670.4" y="-128" font-family="Helvetica,sans-Serif" font-size="10.00">Model.h</text>
</a>
</g>
</g>
<!-- Node1&#45;&gt;Node25 -->
<g id="edge34_Node000001_Node000025" class="edge">
<title>Node1&#45;&gt;Node25</title>
<g id="a_edge34_Node000001_Node000025"><a xlink:title=" ">
<path fill="none" stroke="#63b8ff" d="M592.63,-362.83C576.08,-355.01 558.87,-343.47 549.4,-327 542.75,-315.44 545.43,-309.73 549.4,-297 567.39,-239.32 616.57,-186.33 646.4,-158.17"/>
<polygon fill="#63b8ff" stroke="#63b8ff" points="648.94,-160.59 653.9,-151.23 644.18,-155.45 648.94,-160.59"/>
</a>
</g>
</g>
<!-- Node26 -->
<g id="Node000026" class="node">
<title>Node26</title>
<g id="a_Node000026"><a xlink:href="Timer_8h.html" target="_top" xlink:title=" ">
<polygon fill="white" stroke="#666666" points="948.4,-327 842.4,-327 842.4,-297 948.4,-297 948.4,-327"/>
<text text-anchor="start" x="850.4" y="-315" font-family="Helvetica,sans-Serif" font-size="10.00">src/services/Timer</text>
<text text-anchor="middle" x="895.4" y="-304" font-family="Helvetica,sans-Serif" font-size="10.00">/Timer.h</text>
</a>
</g>
</g>
<!-- Node1&#45;&gt;Node26 -->
<g id="edge38_Node000001_Node000026" class="edge">
<title>Node1&#45;&gt;Node26</title>
<g id="a_edge38_Node000001_Node000026"><a xlink:title=" ">
<path fill="none" stroke="#63b8ff" d="M692.45,-362.95C733.78,-352.78 789.65,-339.03 832.3,-328.53"/>
<polygon fill="#63b8ff" stroke="#63b8ff" points="833.15,-331.93 842.02,-326.14 831.47,-325.13 833.15,-331.93"/>
</a>
</g>
</g>
<!-- Node3 -->
<g id="Node000003" class="node">
<title>Node3</title>
<g id="a_Node000003"><a xlink:title=" ">
<polygon fill="#e0e0e0" stroke="#999999" points="784.4,-19 728.4,-19 728.4,0 784.4,0 784.4,-19"/>
<text text-anchor="middle" x="756.4" y="-7" font-family="Helvetica,sans-Serif" font-size="10.00">QObject</text>
</a>
</g>
</g>
<!-- Node2&#45;&gt;Node3 -->
<g id="edge2_Node000002_Node000003" class="edge">
<title>Node2&#45;&gt;Node3</title>
<g id="a_edge2_Node000002_Node000003"><a xlink:title=" ">
<path fill="none" stroke="#63b8ff" d="M863.22,-60.49C842.39,-50.75 808.03,-34.66 783.92,-23.38"/>
<polygon fill="#63b8ff" stroke="#63b8ff" points="785.13,-20.09 774.59,-19.02 782.17,-26.43 785.13,-20.09"/>
</a>
</g>
</g>
<!-- Node4&#45;&gt;Node3 -->
<g id="edge4_Node000004_Node000003" class="edge">
<title>Node4&#45;&gt;Node3</title>
<g id="a_edge4_Node000004_Node000003"><a xlink:title=" ">
<path fill="none" stroke="#63b8ff" d="M698.65,-296.94C719.83,-289.41 741.95,-278.05 757.4,-261 777.18,-239.17 776.4,-226.96 776.4,-197.5 776.4,-197.5 776.4,-197.5 776.4,-135 776.4,-97.01 767.21,-53.32 761.29,-29.11"/>
<polygon fill="#63b8ff" stroke="#63b8ff" points="764.62,-28.01 758.77,-19.18 757.83,-29.73 764.62,-28.01"/>
</a>
</g>
</g>
<!-- Node5 -->
<g id="Node000005" class="node">
<title>Node5</title>
<g id="a_Node000005"><a xlink:title=" ">
<polygon fill="#e0e0e0" stroke="#999999" points="654.4,-261 596.4,-261 596.4,-242 654.4,-242 654.4,-261"/>
<text text-anchor="middle" x="625.4" y="-249" font-family="Helvetica,sans-Serif" font-size="10.00">QThread</text>
</a>
</g>
</g>
<!-- Node4&#45;&gt;Node5 -->
<g id="edge5_Node000004_Node000005" class="edge">
<title>Node4&#45;&gt;Node5</title>
<g id="a_edge5_Node000004_Node000005"><a xlink:title=" ">
<path fill="none" stroke="#63b8ff" d="M632.98,-296.84C631.66,-289.13 630.01,-279.49 628.59,-271.17"/>
<polygon fill="#63b8ff" stroke="#63b8ff" points="632.03,-270.53 626.89,-261.27 625.13,-271.71 632.03,-270.53"/>
</a>
</g>
</g>
<!-- Node6 -->
<g id="Node000006" class="node">
<title>Node6</title>
<g id="a_Node000006"><a xlink:title=" ">
<polygon fill="#e0e0e0" stroke="#999999" points="748.4,-261 672.4,-261 672.4,-242 748.4,-242 748.4,-261"/>
<text text-anchor="middle" x="710.4" y="-249" font-family="Helvetica,sans-Serif" font-size="10.00">QUdpSocket</text>
</a>
</g>
</g>
<!-- Node4&#45;&gt;Node6 -->
<g id="edge6_Node000004_Node000006" class="edge">
<title>Node4&#45;&gt;Node6</title>
<g id="a_edge6_Node000004_Node000006"><a xlink:title=" ">
<path fill="none" stroke="#63b8ff" d="M653.55,-296.84C664.88,-288 679.46,-276.63 691.01,-267.62"/>
<polygon fill="#63b8ff" stroke="#63b8ff" points="693.43,-270.18 699.16,-261.27 689.12,-264.66 693.43,-270.18"/>
</a>
</g>
</g>
<!-- Node7 -->
<g id="Node000007" class="node">
<title>Node7</title>
<g id="a_Node000007"><a xlink:href="Messages_8h.html" target="_top" xlink:title=" ">
<polygon fill="white" stroke="#666666" points="572.9,-85 469.9,-85 469.9,-55 572.9,-55 572.9,-85"/>
<text text-anchor="start" x="477.9" y="-73" font-family="Helvetica,sans-Serif" font-size="10.00">src/core/Protocols</text>
<text text-anchor="middle" x="521.4" y="-62" font-family="Helvetica,sans-Serif" font-size="10.00">/Messages.h</text>
</a>
</g>
</g>
<!-- Node4&#45;&gt;Node7 -->
<g id="edge7_Node000004_Node000007" class="edge">
<title>Node4&#45;&gt;Node7</title>
<g id="a_edge7_Node000004_Node000007"><a xlink:title=" ">
<path fill="none" stroke="#63b8ff" d="M618.36,-296.7C608.2,-287.41 595.69,-274.54 587.4,-261 554.02,-206.53 534.64,-132.88 526.3,-95.28"/>
<polygon fill="#63b8ff" stroke="#63b8ff" points="529.67,-94.3 524.15,-85.25 522.82,-95.77 529.67,-94.3"/>
</a>
</g>
</g>
<!-- Node15 -->
<g id="Node000015" class="node">
<title>Node15</title>
<g id="a_Node000015"><a xlink:href="UdpLogger_8h.html" target="_top" xlink:title="High&#45;frequency binary logger for UDP telemetry frames.">
<polygon fill="white" stroke="#666666" points="339.9,-261 188.9,-261 188.9,-242 339.9,-242 339.9,-261"/>
<text text-anchor="middle" x="264.4" y="-249" font-family="Helvetica,sans-Serif" font-size="10.00">frames_logger/UdpLogger.h</text>
</a>
</g>
</g>
<!-- Node4&#45;&gt;Node15 -->
<g id="edge16_Node000004_Node000015" class="edge">
<title>Node4&#45;&gt;Node15</title>
<g id="a_edge16_Node000004_Node000015"><a xlink:title=" ">
<path fill="none" stroke="#63b8ff" d="M558.52,-298.88C490.43,-288.14 392.18,-272.65 328.31,-262.58"/>
<polygon fill="#63b8ff" stroke="#63b8ff" points="328.78,-259.11 318.36,-261.01 327.69,-266.02 328.78,-259.11"/>
</a>
</g>
</g>
<!-- Node7&#45;&gt;Node3 -->
<g id="edge14_Node000007_Node000003" class="edge">
<title>Node7&#45;&gt;Node3</title>
<g id="a_edge14_Node000007_Node000003"><a xlink:title=" ">
<path fill="none" stroke="#63b8ff" d="M572.97,-56.16C616.84,-45.24 678.85,-29.8 718.34,-19.97"/>
<polygon fill="#63b8ff" stroke="#63b8ff" points="719.25,-23.35 728.11,-17.54 717.56,-16.56 719.25,-23.35"/>
</a>
</g>
</g>
<!-- Node8 -->
<g id="Node000008" class="node">
<title>Node8</title>
<g id="a_Node000008"><a xlink:title=" ">
<polygon fill="#e0e0e0" stroke="#999999" points="468.9,-19 417.9,-19 417.9,0 468.9,0 468.9,-19"/>
<text text-anchor="middle" x="443.4" y="-7" font-family="Helvetica,sans-Serif" font-size="10.00">variant</text>
</a>
</g>
</g>
<!-- Node7&#45;&gt;Node8 -->
<g id="edge8_Node000007_Node000008" class="edge">
<title>Node7&#45;&gt;Node8</title>
<g id="a_edge8_Node000007_Node000008"><a xlink:title=" ">
<path fill="none" stroke="#63b8ff" d="M502.51,-54.84C490.61,-45.91 475.27,-34.41 463.2,-25.35"/>
<polygon fill="#63b8ff" stroke="#63b8ff" points="465.18,-22.47 455.08,-19.27 460.98,-28.07 465.18,-22.47"/>
</a>
</g>
</g>
<!-- Node9 -->
<g id="Node000009" class="node">
<title>Node9</title>
<g id="a_Node000009"><a xlink:title=" ">
<polygon fill="#e0e0e0" stroke="#999999" points="230.4,-19 180.4,-19 180.4,0 230.4,0 230.4,-19"/>
<text text-anchor="middle" x="205.4" y="-7" font-family="Helvetica,sans-Serif" font-size="10.00">cstdint</text>
</a>
</g>
</g>
<!-- Node7&#45;&gt;Node9 -->
<g id="edge9_Node000007_Node000009" class="edge">
<title>Node7&#45;&gt;Node9</title>
<g id="a_edge9_Node000007_Node000009"><a xlink:title=" ">
<path fill="none" stroke="#63b8ff" d="M469.85,-56.97C466.66,-56.29 463.48,-55.62 460.4,-55 382.21,-39.22 289.88,-23.93 240.59,-16.04"/>
<polygon fill="#63b8ff" stroke="#63b8ff" points="240.88,-12.54 230.45,-14.42 239.78,-19.45 240.88,-12.54"/>
</a>
</g>
</g>
<!-- Node10 -->
<g id="Node000010" class="node">
<title>Node10</title>
<g id="a_Node000010"><a xlink:title=" ">
<polygon fill="#e0e0e0" stroke="#999999" points="689.4,-19 645.4,-19 645.4,0 689.4,0 689.4,-19"/>
<text text-anchor="middle" x="667.4" y="-7" font-family="Helvetica,sans-Serif" font-size="10.00">string</text>
</a>
</g>
</g>
<!-- Node7&#45;&gt;Node10 -->
<g id="edge10_Node000007_Node000010" class="edge">
<title>Node7&#45;&gt;Node10</title>
<g id="a_edge10_Node000007_Node000010"><a xlink:title=" ">
<path fill="none" stroke="#63b8ff" d="M556.37,-54.99C580.73,-45.23 612.92,-32.33 636.37,-22.93"/>
<polygon fill="#63b8ff" stroke="#63b8ff" points="637.85,-26.11 645.83,-19.14 635.25,-19.61 637.85,-26.11"/>
</a>
</g>
</g>
<!-- Node11 -->
<g id="Node000011" class="node">
<title>Node11</title>
<g id="a_Node000011"><a xlink:title=" ">
<polygon fill="#e0e0e0" stroke="#999999" points="559.9,-19 486.9,-19 486.9,0 559.9,0 559.9,-19"/>
<text text-anchor="middle" x="523.4" y="-7" font-family="Helvetica,sans-Serif" font-size="10.00">QByteArray</text>
</a>
</g>
</g>
<!-- Node7&#45;&gt;Node11 -->
<g id="edge11_Node000007_Node000011" class="edge">
<title>Node7&#45;&gt;Node11</title>
<g id="a_edge11_Node000007_Node000011"><a xlink:title=" ">
<path fill="none" stroke="#63b8ff" d="M521.88,-54.84C522.14,-47.21 522.47,-37.7 522.75,-29.45"/>
<polygon fill="#63b8ff" stroke="#63b8ff" points="526.25,-29.38 523.1,-19.27 519.26,-29.14 526.25,-29.38"/>
</a>
</g>
</g>
<!-- Node12 -->
<g id="Node000012" class="node">
<title>Node12</title>
<g id="a_Node000012"><a xlink:title=" ">
<polygon fill="#e0e0e0" stroke="#999999" points="626.9,-19 577.9,-19 577.9,0 626.9,0 626.9,-19"/>
<text text-anchor="middle" x="602.4" y="-7" font-family="Helvetica,sans-Serif" font-size="10.00">QHash</text>
</a>
</g>
</g>
<!-- Node7&#45;&gt;Node12 -->
<g id="edge12_Node000007_Node000012" class="edge">
<title>Node7&#45;&gt;Node12</title>
<g id="a_edge12_Node000007_Node000012"><a xlink:title=" ">
<path fill="none" stroke="#63b8ff" d="M541,-54.84C553.36,-45.91 569.29,-34.41 581.83,-25.35"/>
<polygon fill="#63b8ff" stroke="#63b8ff" points="584.2,-27.96 590.26,-19.27 580.1,-22.28 584.2,-27.96"/>
</a>
</g>
</g>
<!-- Node13 -->
<g id="Node000013" class="node">
<title>Node13</title>
<g id="a_Node000013"><a xlink:title=" ">
<polygon fill="#e0e0e0" stroke="#999999" points="336.9,-19 283.9,-19 283.9,0 336.9,0 336.9,-19"/>
<text text-anchor="middle" x="310.4" y="-7" font-family="Helvetica,sans-Serif" font-size="10.00">QString</text>
</a>
</g>
</g>
<!-- Node7&#45;&gt;Node13 -->
<g id="edge13_Node000007_Node000013" class="edge">
<title>Node7&#45;&gt;Node13</title>
<g id="a_edge13_Node000007_Node000013"><a xlink:title=" ">
<path fill="none" stroke="#63b8ff" d="M470.86,-54.99C432.74,-44.42 381.34,-30.17 347.09,-20.67"/>
<polygon fill="#63b8ff" stroke="#63b8ff" points="347.62,-17.19 337.05,-17.89 345.75,-23.93 347.62,-17.19"/>
</a>
</g>
</g>
<!-- Node14 -->
<g id="Node000014" class="node">
<title>Node14</title>
<g id="a_Node000014"><a xlink:title=" ">
<polygon fill="#e0e0e0" stroke="#999999" points="399.9,-19 354.9,-19 354.9,0 399.9,0 399.9,-19"/>
<text text-anchor="middle" x="377.4" y="-7" font-family="Helvetica,sans-Serif" font-size="10.00">QMap</text>
</a>
</g>
</g>
<!-- Node7&#45;&gt;Node14 -->
<g id="edge15_Node000007_Node000014" class="edge">
<title>Node7&#45;&gt;Node14</title>
<g id="a_edge15_Node000007_Node000014"><a xlink:title=" ">
<path fill="none" stroke="#63b8ff" d="M486.9,-54.99C462.88,-45.23 431.12,-32.33 408,-22.93"/>
<polygon fill="#63b8ff" stroke="#63b8ff" points="409.24,-19.66 398.66,-19.14 406.61,-26.15 409.24,-19.66"/>
</a>
</g>
</g>
<!-- Node15&#45;&gt;Node9 -->
<g id="edge18_Node000015_Node000009" class="edge">
<title>Node15&#45;&gt;Node9</title>
<g id="a_edge18_Node000015_Node000009"><a xlink:title=" ">
<path fill="none" stroke="#63b8ff" d="M188.63,-243.47C128.9,-233.5 49.27,-209.37 9.4,-151 -36.88,-83.26 102.5,-36.91 170.45,-18.89"/>
<polygon fill="#63b8ff" stroke="#63b8ff" points="171.51,-22.23 180.32,-16.34 169.76,-15.45 171.51,-22.23"/>
</a>
</g>
</g>
<!-- Node16 -->
<g id="Node000016" class="node">
<title>Node16</title>
<g id="a_Node000016"><a xlink:title=" ">
<polygon fill="#e0e0e0" stroke="#999999" points="142.4,-145.5 92.4,-145.5 92.4,-126.5 142.4,-126.5 142.4,-145.5"/>
<text text-anchor="middle" x="117.4" y="-133.5" font-family="Helvetica,sans-Serif" font-size="10.00">atomic</text>
</a>
</g>
</g>
<!-- Node15&#45;&gt;Node16 -->
<g id="edge17_Node000015_Node000016" class="edge">
<title>Node15&#45;&gt;Node16</title>
<g id="a_edge17_Node000015_Node000016"><a xlink:title=" ">
<path fill="none" stroke="#63b8ff" d="M245.07,-241.95C227.99,-233.93 202.86,-220.95 183.4,-206 163.18,-190.47 143.43,-168.69 130.88,-153.78"/>
<polygon fill="#63b8ff" stroke="#63b8ff" points="133.44,-151.38 124.38,-145.89 128.04,-155.84 133.44,-151.38"/>
</a>
</g>
</g>
<!-- Node17 -->
<g id="Node000017" class="node">
<title>Node17</title>
<g id="a_Node000017"><a xlink:title=" ">
<polygon fill="#e0e0e0" stroke="#999999" points="433.4,-206 385.4,-206 385.4,-187 433.4,-187 433.4,-206"/>
<text text-anchor="middle" x="409.4" y="-194" font-family="Helvetica,sans-Serif" font-size="10.00">thread</text>
</a>
</g>
</g>
<!-- Node15&#45;&gt;Node17 -->
<g id="edge19_Node000015_Node000017" class="edge">
<title>Node15&#45;&gt;Node17</title>
<g id="a_edge19_Node000015_Node000017"><a xlink:title=" ">
<path fill="none" stroke="#63b8ff" d="M287.69,-241.98C311.65,-233.23 349.18,-219.51 376.23,-209.62"/>
<polygon fill="#63b8ff" stroke="#63b8ff" points="377.48,-212.89 385.68,-206.17 375.08,-206.32 377.48,-212.89"/>
</a>
</g>
</g>
<!-- Node18 -->
<g id="Node000018" class="node">
<title>Node18</title>
<g id="a_Node000018"><a xlink:href="RingBuffer_8h.html" target="_top" xlink:title=" ">
<polygon fill="white" stroke="#666666" points="268.4,-206 192.4,-206 192.4,-187 268.4,-187 268.4,-206"/>
<text text-anchor="middle" x="230.4" y="-194" font-family="Helvetica,sans-Serif" font-size="10.00">RingBuffer.h</text>
</a>
</g>
</g>
<!-- Node15&#45;&gt;Node18 -->
<g id="edge20_Node000015_Node000018" class="edge">
<title>Node15&#45;&gt;Node18</title>
<g id="a_edge20_Node000015_Node000018"><a xlink:title=" ">
<path fill="none" stroke="#63b8ff" d="M258.78,-241.75C254.08,-234.42 247.22,-223.73 241.43,-214.7"/>
<polygon fill="#63b8ff" stroke="#63b8ff" points="244.25,-212.62 235.91,-206.09 238.36,-216.4 244.25,-212.62"/>
</a>
</g>
</g>
<!-- Node24 -->
<g id="Node000024" class="node">
<title>Node24</title>
<g id="a_Node000024"><a xlink:href="Writer_8h.html" target="_top" xlink:title=" ">
<polygon fill="white" stroke="#666666" points="366.9,-206 311.9,-206 311.9,-187 366.9,-187 366.9,-206"/>
<text text-anchor="middle" x="339.4" y="-194" font-family="Helvetica,sans-Serif" font-size="10.00">Writer.h</text>
</a>
</g>
</g>
<!-- Node15&#45;&gt;Node24 -->
<g id="edge29_Node000015_Node000024" class="edge">
<title>Node15&#45;&gt;Node24</title>
<g id="a_edge29_Node000015_Node000024"><a xlink:title=" ">
<path fill="none" stroke="#63b8ff" d="M276.45,-241.98C287.86,-233.92 305.23,-221.65 318.83,-212.03"/>
<polygon fill="#63b8ff" stroke="#63b8ff" points="320.98,-214.8 327.13,-206.17 316.94,-209.08 320.98,-214.8"/>
</a>
</g>
</g>
<!-- Node18&#45;&gt;Node9 -->
<g id="edge22_Node000018_Node000009" class="edge">
<title>Node18&#45;&gt;Node9</title>
<g id="a_edge22_Node000018_Node000009"><a xlink:title=" ">
<path fill="none" stroke="#63b8ff" d="M218.47,-186.8C208.57,-178.77 195.2,-165.87 189.4,-151 173.16,-109.41 188.07,-56.01 198.06,-28.56"/>
<polygon fill="#63b8ff" stroke="#63b8ff" points="201.38,-29.68 201.7,-19.09 194.85,-27.17 201.38,-29.68"/>
</a>
</g>
</g>
<!-- Node18&#45;&gt;Node16 -->
<g id="edge24_Node000018_Node000016" class="edge">
<title>Node18&#45;&gt;Node16</title>
<g id="a_edge24_Node000018_Node000016"><a xlink:title=" ">
<path fill="none" stroke="#63b8ff" d="M213.72,-186.87C195.11,-177.23 164.77,-161.53 143.12,-150.31"/>
<polygon fill="#63b8ff" stroke="#63b8ff" points="144.63,-147.16 134.14,-145.67 141.41,-153.37 144.63,-147.16"/>
</a>
</g>
</g>
<!-- Node18&#45;&gt;Node19 -->
<g id="edge21_Node000018_Node000019" class="edge">
<title>Node18&#45;&gt;Node19</title>
<g id="a_edge21_Node000018_Node000019"><a xlink:title=" ">
<path fill="none" stroke="#63b8ff" d="M200.08,-186.97C170.22,-178.42 123.41,-164.61 83.4,-151 81.54,-150.37 79.64,-149.71 77.73,-149.02"/>
<polygon fill="#63b8ff" stroke="#63b8ff" points="78.81,-145.69 68.22,-145.54 76.4,-152.27 78.81,-145.69"/>
</a>
</g>
</g>
<!-- Node20 -->
<g id="Node000020" class="node">
<title>Node20</title>
<g id="a_Node000020"><a xlink:title=" ">
<polygon fill="#e0e0e0" stroke="#999999" points="335.9,-145.5 280.9,-145.5 280.9,-126.5 335.9,-126.5 335.9,-145.5"/>
<text text-anchor="middle" x="308.4" y="-133.5" font-family="Helvetica,sans-Serif" font-size="10.00">fstream</text>
</a>
</g>
</g>
<!-- Node18&#45;&gt;Node20 -->
<g id="edge23_Node000018_Node000020" class="edge">
<title>Node18&#45;&gt;Node20</title>
<g id="a_edge23_Node000018_Node000020"><a xlink:title=" ">
<path fill="none" stroke="#63b8ff" d="M241.91,-186.87C254.23,-177.62 274.02,-162.78 288.8,-151.69"/>
<polygon fill="#63b8ff" stroke="#63b8ff" points="290.94,-154.47 296.84,-145.67 286.74,-148.87 290.94,-154.47"/>
</a>
</g>
</g>
<!-- Node21 -->
<g id="Node000021" class="node">
<title>Node21</title>
<g id="a_Node000021"><a xlink:title=" ">
<polygon fill="#e0e0e0" stroke="#999999" points="262.4,-145.5 198.4,-145.5 198.4,-126.5 262.4,-126.5 262.4,-145.5"/>
<text text-anchor="middle" x="230.4" y="-133.5" font-family="Helvetica,sans-Serif" font-size="10.00">algorithm</text>
</a>
</g>
</g>
<!-- Node18&#45;&gt;Node21 -->
<g id="edge25_Node000018_Node000021" class="edge">
<title>Node18&#45;&gt;Node21</title>
<g id="a_edge25_Node000018_Node000021"><a xlink:title=" ">
<path fill="none" stroke="#63b8ff" d="M230.4,-186.87C230.4,-178.75 230.4,-166.31 230.4,-155.89"/>
<polygon fill="#63b8ff" stroke="#63b8ff" points="233.9,-155.67 230.4,-145.67 226.9,-155.67 233.9,-155.67"/>
</a>
</g>
</g>
<!-- Node22 -->
<g id="Node000022" class="node">
<title>Node22</title>
<g id="a_Node000022"><a xlink:href="Logger_8h.html" target="_top" xlink:title=" ">
<polygon fill="white" stroke="#666666" points="502.4,-151 392.4,-151 392.4,-121 502.4,-121 502.4,-151"/>
<text text-anchor="start" x="400.4" y="-139" font-family="Helvetica,sans-Serif" font-size="10.00">src/services/Logger</text>
<text text-anchor="middle" x="447.4" y="-128" font-family="Helvetica,sans-Serif" font-size="10.00">/Logger.h</text>
</a>
</g>
</g>
<!-- Node18&#45;&gt;Node22 -->
<g id="edge26_Node000018_Node000022" class="edge">
<title>Node18&#45;&gt;Node22</title>
<g id="a_edge26_Node000018_Node000022"><a xlink:title=" ">
<path fill="none" stroke="#63b8ff" d="M261.95,-186.99C294.2,-178.3 345.14,-164.57 385.48,-153.69"/>
<polygon fill="#63b8ff" stroke="#63b8ff" points="386.48,-157.05 395.23,-151.06 384.66,-150.29 386.48,-157.05"/>
</a>
</g>
</g>
<!-- Node22&#45;&gt;Node7 -->
<g id="edge28_Node000022_Node000007" class="edge">
<title>Node22&#45;&gt;Node7</title>
<g id="a_edge28_Node000022_Node000007"><a xlink:title=" ">
<path fill="none" stroke="#63b8ff" d="M463.82,-120.8C473.69,-112.26 486.42,-101.25 497.4,-91.75"/>
<polygon fill="#63b8ff" stroke="#63b8ff" points="499.74,-94.35 505.02,-85.16 495.17,-89.06 499.74,-94.35"/>
</a>
</g>
</g>
<!-- Node23 -->
<g id="Node000023" class="node">
<title>Node23</title>
<g id="a_Node000023"><a xlink:title=" ">
<polygon fill="#e0e0e0" stroke="#999999" points="451.9,-79.5 392.9,-79.5 392.9,-60.5 451.9,-60.5 451.9,-79.5"/>
<text text-anchor="middle" x="422.4" y="-67.5" font-family="Helvetica,sans-Serif" font-size="10.00">QWidget</text>
</a>
</g>
</g>
<!-- Node22&#45;&gt;Node23 -->
<g id="edge27_Node000022_Node000023" class="edge">
<title>Node22&#45;&gt;Node23</title>
<g id="a_edge27_Node000022_Node000023"><a xlink:title=" ">
<path fill="none" stroke="#63b8ff" d="M441.85,-120.8C438.22,-111.5 433.44,-99.27 429.53,-89.26"/>
<polygon fill="#63b8ff" stroke="#63b8ff" points="432.75,-87.89 425.85,-79.84 426.23,-90.43 432.75,-87.89"/>
</a>
</g>
</g>
<!-- Node24&#45;&gt;Node9 -->
<g id="edge30_Node000024_Node000009" class="edge">
<title>Node24&#45;&gt;Node9</title>
<g id="a_edge30_Node000024_Node000009"><a xlink:title=" ">
<path fill="none" stroke="#63b8ff" d="M342.66,-186.71C347.49,-172.2 354.87,-142.72 344.4,-121 321.66,-73.87 267.96,-40.66 234.36,-23.63"/>
<polygon fill="#63b8ff" stroke="#63b8ff" points="235.56,-20.32 225.04,-19.06 232.48,-26.61 235.56,-20.32"/>
</a>
</g>
</g>
<!-- Node24&#45;&gt;Node10 -->
<g id="edge32_Node000024_Node000010" class="edge">
<title>Node24&#45;&gt;Node10</title>
<g id="a_edge32_Node000024_Node000010"><a xlink:title=" ">
<path fill="none" stroke="#63b8ff" d="M367.01,-189.12C412.31,-178.53 498.66,-157.84 511.4,-151 572.47,-118.18 628.91,-56.56 653.89,-27.06"/>
<polygon fill="#63b8ff" stroke="#63b8ff" points="656.62,-29.24 660.34,-19.32 651.25,-24.76 656.62,-29.24"/>
</a>
</g>
</g>
<!-- Node24&#45;&gt;Node20 -->
<g id="edge31_Node000024_Node000020" class="edge">
<title>Node24&#45;&gt;Node20</title>
<g id="a_edge31_Node000024_Node000020"><a xlink:title=" ">
<path fill="none" stroke="#63b8ff" d="M334.82,-186.87C330.33,-178.4 323.36,-165.24 317.7,-154.57"/>
<polygon fill="#63b8ff" stroke="#63b8ff" points="320.76,-152.86 312.99,-145.67 314.58,-156.14 320.76,-152.86"/>
</a>
</g>
</g>
<!-- Node24&#45;&gt;Node22 -->
<g id="edge33_Node000024_Node000022" class="edge">
<title>Node24&#45;&gt;Node22</title>
<g id="a_edge33_Node000024_Node000022"><a xlink:title=" ">
<path fill="none" stroke="#63b8ff" d="M355.33,-186.87C370.33,-178.75 393.28,-166.31 412.52,-155.89"/>
<polygon fill="#63b8ff" stroke="#63b8ff" points="414.21,-158.96 421.34,-151.11 410.88,-152.8 414.21,-158.96"/>
</a>
</g>
</g>
<!-- Node25&#45;&gt;Node3 -->
<g id="edge35_Node000025_Node000003" class="edge">
<title>Node25&#45;&gt;Node3</title>
<g id="a_edge35_Node000025_Node000003"><a xlink:title=" ">
<path fill="none" stroke="#63b8ff" d="M680.26,-120.72C696.22,-97.61 727.64,-52.13 744.7,-27.43"/>
<polygon fill="#63b8ff" stroke="#63b8ff" points="747.67,-29.29 750.48,-19.07 741.91,-25.31 747.67,-29.29"/>
</a>
</g>
</g>
<!-- Node25&#45;&gt;Node7 -->
<g id="edge37_Node000025_Node000007" class="edge">
<title>Node25&#45;&gt;Node7</title>
<g id="a_edge37_Node000025_Node000007"><a xlink:title=" ">
<path fill="none" stroke="#63b8ff" d="M637.7,-120.95C615.86,-111.58 586.95,-99.16 563.41,-89.05"/>
<polygon fill="#63b8ff" stroke="#63b8ff" points="564.59,-85.74 554.02,-85.01 561.83,-92.17 564.59,-85.74"/>
</a>
</g>
</g>
<!-- Node25&#45;&gt;Node10 -->
<g id="edge36_Node000025_Node000010" class="edge">
<title>Node25&#45;&gt;Node10</title>
<g id="a_edge36_Node000025_Node000010"><a xlink:title=" ">
<path fill="none" stroke="#63b8ff" d="M670.05,-120.72C669.51,-98.12 668.45,-54.12 667.84,-29.09"/>
<polygon fill="#63b8ff" stroke="#63b8ff" points="671.34,-28.98 667.6,-19.07 664.34,-29.15 671.34,-28.98"/>
</a>
</g>
</g>
<!-- Node27 -->
<g id="Node000027" class="node">
<title>Node27</title>
<g id="a_Node000027"><a xlink:title=" ">
<polygon fill="#e0e0e0" stroke="#999999" points="921.9,-261 868.9,-261 868.9,-242 921.9,-242 921.9,-261"/>
<text text-anchor="middle" x="895.4" y="-249" font-family="Helvetica,sans-Serif" font-size="10.00">QTimer</text>
</a>
</g>
</g>
<!-- Node26&#45;&gt;Node27 -->
<g id="edge39_Node000026_Node000027" class="edge">
<title>Node26&#45;&gt;Node27</title>
<g id="a_edge39_Node000026_Node000027"><a xlink:title=" ">
<path fill="none" stroke="#63b8ff" d="M895.4,-296.84C895.4,-289.21 895.4,-279.7 895.4,-271.45"/>
<polygon fill="#63b8ff" stroke="#63b8ff" points="898.9,-271.27 895.4,-261.27 891.9,-271.27 898.9,-271.27"/>
</a>
</g>
</g>
</g>
</svg>
