<?xml version="1.0" encoding="UTF-8" standalone="no"?>
<!DOCTYPE svg PUBLIC "-//W3C//DTD SVG 1.1//EN"
 "http://www.w3.org/Graphics/SVG/1.1/DTD/svg11.dtd">
<!-- Generated by graphviz version 2.43.0 (0)
 -->
<!-- Title: features/test/frames/ActuatorControlWidget.h Pages: 1 -->
<svg width="159pt" height="93pt"
 viewBox="0.00 0.00 159.00 93.00" xmlns="http://www.w3.org/2000/svg" xmlns:xlink="http://www.w3.org/1999/xlink">
<g id="graph0" class="graph" transform="scale(1 1) rotate(0) translate(4 89)">
<title>features/test/frames/ActuatorControlWidget.h</title>
<!-- Node1 -->
<g id="Node000001" class="node">
<title>Node1</title>
<g id="a_Node000001"><a xlink:title=" ">
<polygon fill="#999999" stroke="#666666" points="151,-85 11,-85 11,-55 151,-55 151,-85"/>
<text text-anchor="start" x="19" y="-73" font-family="Helvetica,sans-Serif" font-size="10.00">features/test/frames</text>
<text text-anchor="middle" x="81" y="-62" font-family="Helvetica,sans-Serif" font-size="10.00">/ActuatorControlWidget.h</text>
</a>
</g>
</g>
<!-- Node2 -->
<g id="Node000002" class="node">
<title>Node2</title>
<g id="a_Node000002"><a xlink:title=" ">
<polygon fill="#e0e0e0" stroke="#999999" points="80,-19 0,-19 0,0 80,0 80,-19"/>
<text text-anchor="middle" x="40" y="-7" font-family="Helvetica,sans-Serif" font-size="10.00">QPushButton</text>
</a>
</g>
</g>
<!-- Node1&#45;&gt;Node2 -->
<g id="edge1_Node000001_Node000002" class="edge">
<title>Node1&#45;&gt;Node2</title>
<g id="a_edge1_Node000001_Node000002"><a xlink:title=" ">
<path fill="none" stroke="#63b8ff" d="M71.08,-54.84C65.31,-46.61 58,-36.18 51.92,-27.51"/>
<polygon fill="#63b8ff" stroke="#63b8ff" points="54.75,-25.45 46.14,-19.27 49.02,-29.46 54.75,-25.45"/>
</a>
</g>
</g>
<!-- Node3 -->
<g id="Node000003" class="node">
<title>Node3</title>
<g id="a_Node000003"><a xlink:title=" ">
<polygon fill="#e0e0e0" stroke="#999999" points="148,-19 98,-19 98,0 148,0 148,-19"/>
<text text-anchor="middle" x="123" y="-7" font-family="Helvetica,sans-Serif" font-size="10.00">QLabel</text>
</a>
</g>
</g>
<!-- Node1&#45;&gt;Node3 -->
<g id="edge2_Node000001_Node000003" class="edge">
<title>Node1&#45;&gt;Node3</title>
<g id="a_edge2_Node000001_Node000003"><a xlink:title=" ">
<path fill="none" stroke="#63b8ff" d="M91.17,-54.84C97.08,-46.61 104.56,-36.18 110.79,-27.51"/>
<polygon fill="#63b8ff" stroke="#63b8ff" points="113.72,-29.43 116.71,-19.27 108.03,-25.35 113.72,-29.43"/>
</a>
</g>
</g>
</g>
</svg>
