<?xml version="1.0" encoding="UTF-8" standalone="no"?>
<!DOCTYPE svg PUBLIC "-//W3C//DTD SVG 1.1//EN"
 "http://www.w3.org/Graphics/SVG/1.1/DTD/svg11.dtd">
<!-- Generated by graphviz version 2.43.0 (0)
 -->
<!-- Title: mvvm/models/AppModels.cpp Pages: 1 -->
<svg width="1206pt" height="390pt"
 viewBox="0.00 0.00 1205.50 390.00" xmlns="http://www.w3.org/2000/svg" xmlns:xlink="http://www.w3.org/1999/xlink">
<g id="graph0" class="graph" transform="scale(1 1) rotate(0) translate(4 386)">
<title>mvvm/models/AppModels.cpp</title>
<!-- Node1 -->
<g id="Node000001" class="node">
<title>Node1</title>
<g id="a_Node000001"><a xlink:title=" ">
<polygon fill="#999999" stroke="#666666" points="354,-382 190,-382 190,-363 354,-363 354,-382"/>
<text text-anchor="middle" x="272" y="-370" font-family="Helvetica,sans-Serif" font-size="10.00">mvvm/models/AppModels.cpp</text>
</a>
</g>
</g>
<!-- Node2 -->
<g id="Node000002" class="node">
<title>Node2</title>
<g id="a_Node000002"><a xlink:href="AppModels_8h.html" target="_top" xlink:title=" ">
<polygon fill="white" stroke="#666666" points="80,-321.5 0,-321.5 0,-302.5 80,-302.5 80,-321.5"/>
<text text-anchor="middle" x="40" y="-309.5" font-family="Helvetica,sans-Serif" font-size="10.00">AppModels.h</text>
</a>
</g>
</g>
<!-- Node1&#45;&gt;Node2 -->
<g id="edge1_Node000001_Node000002" class="edge">
<title>Node1&#45;&gt;Node2</title>
<g id="a_edge1_Node000001_Node000002"><a xlink:title=" ">
<path fill="none" stroke="#63b8ff" d="M235.09,-362.98C198.05,-354.32 139.42,-340.33 89,-327 85.79,-326.15 82.47,-325.25 79.14,-324.33"/>
<polygon fill="#63b8ff" stroke="#63b8ff" points="79.8,-320.88 69.23,-321.56 77.91,-327.62 79.8,-320.88"/>
</a>
</g>
</g>
<!-- Node5 -->
<g id="Node000005" class="node">
<title>Node5</title>
<g id="a_Node000005"><a xlink:href="TestBenchModel_8h.html" target="_top" xlink:title=" ">
<polygon fill="white" stroke="#666666" points="626.5,-151 477.5,-151 477.5,-121 626.5,-121 626.5,-151"/>
<text text-anchor="start" x="485.5" y="-139" font-family="Helvetica,sans-Serif" font-size="10.00">src/features/test/TestBench</text>
<text text-anchor="middle" x="552" y="-128" font-family="Helvetica,sans-Serif" font-size="10.00">Model.h</text>
</a>
</g>
</g>
<!-- Node1&#45;&gt;Node5 -->
<g id="edge4_Node000001_Node000005" class="edge">
<title>Node1&#45;&gt;Node5</title>
<g id="a_edge4_Node000001_Node000005"><a xlink:title=" ">
<path fill="none" stroke="#63b8ff" d="M347.29,-362.97C402.08,-355.56 470.59,-343.43 494,-327 547.39,-289.54 553.55,-203.75 553.12,-161.47"/>
<polygon fill="#63b8ff" stroke="#63b8ff" points="556.62,-161.16 552.88,-151.24 549.62,-161.32 556.62,-161.16"/>
</a>
</g>
</g>
<!-- Node14 -->
<g id="Node000014" class="node">
<title>Node14</title>
<g id="a_Node000014"><a xlink:href="PressureTanksModel_8h.html" target="_top" xlink:title=" ">
<polygon fill="white" stroke="#666666" points="443,-85 243,-85 243,-55 443,-55 443,-85"/>
<text text-anchor="start" x="251" y="-73" font-family="Helvetica,sans-Serif" font-size="10.00">src/features/test/frames</text>
<text text-anchor="middle" x="343" y="-62" font-family="Helvetica,sans-Serif" font-size="10.00">/tank_pressure/PressureTanksModel.h</text>
</a>
</g>
</g>
<!-- Node1&#45;&gt;Node14 -->
<g id="edge16_Node000001_Node000014" class="edge">
<title>Node1&#45;&gt;Node14</title>
<g id="a_edge16_Node000001_Node000014"><a xlink:title=" ">
<path fill="none" stroke="#63b8ff" d="M274.05,-362.83C283.44,-323.08 322.56,-157.49 337.33,-95.01"/>
<polygon fill="#63b8ff" stroke="#63b8ff" points="340.74,-95.78 339.63,-85.24 333.93,-94.17 340.74,-95.78"/>
</a>
</g>
</g>
<!-- Node15 -->
<g id="Node000015" class="node">
<title>Node15</title>
<g id="a_Node000015"><a xlink:href="AppServices_8h.html" target="_top" xlink:title=" ">
<polygon fill="white" stroke="#666666" points="244,-321.5 98,-321.5 98,-302.5 244,-302.5 244,-321.5"/>
<text text-anchor="middle" x="171" y="-309.5" font-family="Helvetica,sans-Serif" font-size="10.00">src/services/AppServices.h</text>
</a>
</g>
</g>
<!-- Node1&#45;&gt;Node15 -->
<g id="edge19_Node000001_Node000015" class="edge">
<title>Node1&#45;&gt;Node15</title>
<g id="a_edge19_Node000001_Node000015"><a xlink:title=" ">
<path fill="none" stroke="#63b8ff" d="M257.1,-362.87C240.69,-353.36 214.07,-337.95 194.77,-326.77"/>
<polygon fill="#63b8ff" stroke="#63b8ff" points="196.37,-323.65 185.96,-321.67 192.86,-329.71 196.37,-323.65"/>
</a>
</g>
</g>
<!-- Node16 -->
<g id="Node000016" class="node">
<title>Node16</title>
<g id="a_Node000016"><a xlink:href="UdpChannel_8h.html" target="_top" xlink:title="UDP communication channel between the microcontroller and the HMI.">
<polygon fill="white" stroke="#666666" points="484.5,-327 331.5,-327 331.5,-297 484.5,-297 484.5,-327"/>
<text text-anchor="start" x="339.5" y="-315" font-family="Helvetica,sans-Serif" font-size="10.00">src/features/communication</text>
<text text-anchor="middle" x="408" y="-304" font-family="Helvetica,sans-Serif" font-size="10.00">/udp/UdpChannel.h</text>
</a>
</g>
</g>
<!-- Node1&#45;&gt;Node16 -->
<g id="edge22_Node000001_Node000016" class="edge">
<title>Node1&#45;&gt;Node16</title>
<g id="a_edge22_Node000001_Node000016"><a xlink:title=" ">
<path fill="none" stroke="#63b8ff" d="M291.78,-362.99C311.09,-354.68 341.1,-341.78 365.79,-331.16"/>
<polygon fill="#63b8ff" stroke="#63b8ff" points="367.5,-334.23 375.3,-327.06 364.73,-327.8 367.5,-334.23"/>
</a>
</g>
</g>
<!-- Node3 -->
<g id="Node000003" class="node">
<title>Node3</title>
<g id="a_Node000003"><a xlink:title=" ">
<polygon fill="#e0e0e0" stroke="#999999" points="273,-19 217,-19 217,0 273,0 273,-19"/>
<text text-anchor="middle" x="245" y="-7" font-family="Helvetica,sans-Serif" font-size="10.00">QObject</text>
</a>
</g>
</g>
<!-- Node2&#45;&gt;Node3 -->
<g id="edge2_Node000002_Node000003" class="edge">
<title>Node2&#45;&gt;Node3</title>
<g id="a_edge2_Node000002_Node000003"><a xlink:title=" ">
<path fill="none" stroke="#63b8ff" d="M40.51,-302.46C41.58,-283.56 44,-236.74 44,-197.5 44,-197.5 44,-197.5 44,-135 44,-59.3 148.32,-28.05 206.65,-16.5"/>
<polygon fill="#63b8ff" stroke="#63b8ff" points="207.45,-19.91 216.63,-14.63 206.15,-13.03 207.45,-19.91"/>
</a>
</g>
</g>
<!-- Node4 -->
<g id="Node000004" class="node">
<title>Node4</title>
<g id="a_Node000004"><a xlink:title=" ">
<polygon fill="#e0e0e0" stroke="#999999" points="141.5,-261 76.5,-261 76.5,-242 141.5,-242 141.5,-261"/>
<text text-anchor="middle" x="109" y="-249" font-family="Helvetica,sans-Serif" font-size="10.00">typeindex</text>
</a>
</g>
</g>
<!-- Node2&#45;&gt;Node4 -->
<g id="edge3_Node000002_Node000004" class="edge">
<title>Node2&#45;&gt;Node4</title>
<g id="a_edge3_Node000002_Node000004"><a xlink:title=" ">
<path fill="none" stroke="#63b8ff" d="M50.18,-302.37C60.88,-293.3 77.94,-278.84 90.93,-267.82"/>
<polygon fill="#63b8ff" stroke="#63b8ff" points="93.41,-270.3 98.78,-261.17 88.89,-264.96 93.41,-270.3"/>
</a>
</g>
</g>
<!-- Node5&#45;&gt;Node3 -->
<g id="edge5_Node000005_Node000003" class="edge">
<title>Node5&#45;&gt;Node3</title>
<g id="a_edge5_Node000005_Node000003"><a xlink:title=" ">
<path fill="none" stroke="#63b8ff" d="M534.71,-120.82C507.34,-98.44 456.67,-57.22 452,-55 422.56,-41.03 334.62,-25.06 283.33,-16.57"/>
<polygon fill="#63b8ff" stroke="#63b8ff" points="283.71,-13.09 273.28,-14.92 282.58,-20 283.71,-13.09"/>
</a>
</g>
</g>
<!-- Node6 -->
<g id="Node000006" class="node">
<title>Node6</title>
<g id="a_Node000006"><a xlink:title=" ">
<polygon fill="#e0e0e0" stroke="#999999" points="726,-19 682,-19 682,0 726,0 726,-19"/>
<text text-anchor="middle" x="704" y="-7" font-family="Helvetica,sans-Serif" font-size="10.00">string</text>
</a>
</g>
</g>
<!-- Node5&#45;&gt;Node6 -->
<g id="edge6_Node000005_Node000006" class="edge">
<title>Node5&#45;&gt;Node6</title>
<g id="a_edge6_Node000005_Node000006"><a xlink:title=" ">
<path fill="none" stroke="#63b8ff" d="M569.14,-120.96C597.97,-97.35 655.92,-49.88 685.59,-25.58"/>
<polygon fill="#63b8ff" stroke="#63b8ff" points="687.97,-28.15 693.49,-19.11 683.53,-22.74 687.97,-28.15"/>
</a>
</g>
</g>
<!-- Node7 -->
<g id="Node000007" class="node">
<title>Node7</title>
<g id="a_Node000007"><a xlink:href="Messages_8h.html" target="_top" xlink:title=" ">
<polygon fill="white" stroke="#666666" points="602.5,-85 499.5,-85 499.5,-55 602.5,-55 602.5,-85"/>
<text text-anchor="start" x="507.5" y="-73" font-family="Helvetica,sans-Serif" font-size="10.00">src/core/Protocols</text>
<text text-anchor="middle" x="551" y="-62" font-family="Helvetica,sans-Serif" font-size="10.00">/Messages.h</text>
</a>
</g>
</g>
<!-- Node5&#45;&gt;Node7 -->
<g id="edge7_Node000005_Node000007" class="edge">
<title>Node5&#45;&gt;Node7</title>
<g id="a_edge7_Node000005_Node000007"><a xlink:title=" ">
<path fill="none" stroke="#63b8ff" d="M551.78,-120.8C551.66,-113.34 551.52,-103.99 551.38,-95.41"/>
<polygon fill="#63b8ff" stroke="#63b8ff" points="554.88,-95.11 551.22,-85.16 547.88,-95.22 554.88,-95.11"/>
</a>
</g>
</g>
<!-- Node7&#45;&gt;Node3 -->
<g id="edge14_Node000007_Node000003" class="edge">
<title>Node7&#45;&gt;Node3</title>
<g id="a_edge14_Node000007_Node000003"><a xlink:title=" ">
<path fill="none" stroke="#63b8ff" d="M499.15,-57.87C494.37,-56.88 489.6,-55.91 485,-55 413.9,-40.87 330.66,-25.75 283.25,-17.28"/>
<polygon fill="#63b8ff" stroke="#63b8ff" points="283.59,-13.78 273.13,-15.47 282.36,-20.68 283.59,-13.78"/>
</a>
</g>
</g>
<!-- Node7&#45;&gt;Node6 -->
<g id="edge10_Node000007_Node000006" class="edge">
<title>Node7&#45;&gt;Node6</title>
<g id="a_edge10_Node000007_Node000006"><a xlink:title=" ">
<path fill="none" stroke="#63b8ff" d="M587.65,-54.99C613.44,-45.12 647.63,-32.05 672.26,-22.64"/>
<polygon fill="#63b8ff" stroke="#63b8ff" points="673.76,-25.81 681.85,-18.97 671.26,-19.27 673.76,-25.81"/>
</a>
</g>
</g>
<!-- Node8 -->
<g id="Node000008" class="node">
<title>Node8</title>
<g id="a_Node000008"><a xlink:title=" ">
<polygon fill="#e0e0e0" stroke="#999999" points="572.5,-19 521.5,-19 521.5,0 572.5,0 572.5,-19"/>
<text text-anchor="middle" x="547" y="-7" font-family="Helvetica,sans-Serif" font-size="10.00">variant</text>
</a>
</g>
</g>
<!-- Node7&#45;&gt;Node8 -->
<g id="edge8_Node000007_Node000008" class="edge">
<title>Node7&#45;&gt;Node8</title>
<g id="a_edge8_Node000007_Node000008"><a xlink:title=" ">
<path fill="none" stroke="#63b8ff" d="M550.03,-54.84C549.51,-47.21 548.86,-37.7 548.3,-29.45"/>
<polygon fill="#63b8ff" stroke="#63b8ff" points="551.77,-29 547.6,-19.27 544.79,-29.48 551.77,-29"/>
</a>
</g>
</g>
<!-- Node9 -->
<g id="Node000009" class="node">
<title>Node9</title>
<g id="a_Node000009"><a xlink:title=" ">
<polygon fill="#e0e0e0" stroke="#999999" points="994,-19 944,-19 944,0 994,0 994,-19"/>
<text text-anchor="middle" x="969" y="-7" font-family="Helvetica,sans-Serif" font-size="10.00">cstdint</text>
</a>
</g>
</g>
<!-- Node7&#45;&gt;Node9 -->
<g id="edge9_Node000007_Node000009" class="edge">
<title>Node7&#45;&gt;Node9</title>
<g id="a_edge9_Node000007_Node000009"><a xlink:title=" ">
<path fill="none" stroke="#63b8ff" d="M602.67,-61.77C688.87,-49.71 859.79,-25.78 933.64,-15.45"/>
<polygon fill="#63b8ff" stroke="#63b8ff" points="934.4,-18.88 943.81,-14.02 933.43,-11.94 934.4,-18.88"/>
</a>
</g>
</g>
<!-- Node10 -->
<g id="Node000010" class="node">
<title>Node10</title>
<g id="a_Node000010"><a xlink:title=" ">
<polygon fill="#e0e0e0" stroke="#999999" points="663.5,-19 590.5,-19 590.5,0 663.5,0 663.5,-19"/>
<text text-anchor="middle" x="627" y="-7" font-family="Helvetica,sans-Serif" font-size="10.00">QByteArray</text>
</a>
</g>
</g>
<!-- Node7&#45;&gt;Node10 -->
<g id="edge11_Node000007_Node000010" class="edge">
<title>Node7&#45;&gt;Node10</title>
<g id="a_edge11_Node000007_Node000010"><a xlink:title=" ">
<path fill="none" stroke="#63b8ff" d="M569.4,-54.84C580.88,-46 595.65,-34.63 607.36,-25.62"/>
<polygon fill="#63b8ff" stroke="#63b8ff" points="609.82,-28.14 615.61,-19.27 605.55,-22.59 609.82,-28.14"/>
</a>
</g>
</g>
<!-- Node11 -->
<g id="Node000011" class="node">
<title>Node11</title>
<g id="a_Node000011"><a xlink:title=" ">
<polygon fill="#e0e0e0" stroke="#999999" points="432.5,-19 383.5,-19 383.5,0 432.5,0 432.5,-19"/>
<text text-anchor="middle" x="408" y="-7" font-family="Helvetica,sans-Serif" font-size="10.00">QHash</text>
</a>
</g>
</g>
<!-- Node7&#45;&gt;Node11 -->
<g id="edge12_Node000007_Node000011" class="edge">
<title>Node7&#45;&gt;Node11</title>
<g id="a_edge12_Node000007_Node000011"><a xlink:title=" ">
<path fill="none" stroke="#63b8ff" d="M516.75,-54.99C492.89,-45.23 461.35,-32.33 438.39,-22.93"/>
<polygon fill="#63b8ff" stroke="#63b8ff" points="439.7,-19.69 429.12,-19.14 437.05,-26.17 439.7,-19.69"/>
</a>
</g>
</g>
<!-- Node12 -->
<g id="Node000012" class="node">
<title>Node12</title>
<g id="a_Node000012"><a xlink:title=" ">
<polygon fill="#e0e0e0" stroke="#999999" points="503.5,-19 450.5,-19 450.5,0 503.5,0 503.5,-19"/>
<text text-anchor="middle" x="477" y="-7" font-family="Helvetica,sans-Serif" font-size="10.00">QString</text>
</a>
</g>
</g>
<!-- Node7&#45;&gt;Node12 -->
<g id="edge13_Node000007_Node000012" class="edge">
<title>Node7&#45;&gt;Node12</title>
<g id="a_edge13_Node000007_Node000012"><a xlink:title=" ">
<path fill="none" stroke="#63b8ff" d="M533.09,-54.84C521.91,-46 507.52,-34.63 496.12,-25.62"/>
<polygon fill="#63b8ff" stroke="#63b8ff" points="498.1,-22.72 488.09,-19.27 493.76,-28.21 498.1,-22.72"/>
</a>
</g>
</g>
<!-- Node13 -->
<g id="Node000013" class="node">
<title>Node13</title>
<g id="a_Node000013"><a xlink:title=" ">
<polygon fill="#e0e0e0" stroke="#999999" points="365.5,-19 320.5,-19 320.5,0 365.5,0 365.5,-19"/>
<text text-anchor="middle" x="343" y="-7" font-family="Helvetica,sans-Serif" font-size="10.00">QMap</text>
</a>
</g>
</g>
<!-- Node7&#45;&gt;Node13 -->
<g id="edge15_Node000007_Node000013" class="edge">
<title>Node7&#45;&gt;Node13</title>
<g id="a_edge15_Node000007_Node000013"><a xlink:title=" ">
<path fill="none" stroke="#63b8ff" d="M501.18,-54.99C462.19,-44.02 409.1,-29.09 375.43,-19.62"/>
<polygon fill="#63b8ff" stroke="#63b8ff" points="376.22,-16.21 365.64,-16.87 374.32,-22.95 376.22,-16.21"/>
</a>
</g>
</g>
<!-- Node14&#45;&gt;Node3 -->
<g id="edge17_Node000014_Node000003" class="edge">
<title>Node14&#45;&gt;Node3</title>
<g id="a_edge17_Node000014_Node000003"><a xlink:title=" ">
<path fill="none" stroke="#63b8ff" d="M319.28,-54.84C303.8,-45.6 283.68,-33.59 268.29,-24.4"/>
<polygon fill="#63b8ff" stroke="#63b8ff" points="269.78,-21.21 259.4,-19.09 266.19,-27.23 269.78,-21.21"/>
</a>
</g>
</g>
<!-- Node14&#45;&gt;Node13 -->
<g id="edge18_Node000014_Node000013" class="edge">
<title>Node14&#45;&gt;Node13</title>
<g id="a_edge18_Node000014_Node000013"><a xlink:title=" ">
<path fill="none" stroke="#63b8ff" d="M343,-54.84C343,-47.21 343,-37.7 343,-29.45"/>
<polygon fill="#63b8ff" stroke="#63b8ff" points="346.5,-29.27 343,-19.27 339.5,-29.27 346.5,-29.27"/>
</a>
</g>
</g>
<!-- Node15&#45;&gt;Node3 -->
<g id="edge20_Node000015_Node000003" class="edge">
<title>Node15&#45;&gt;Node3</title>
<g id="a_edge20_Node000015_Node000003"><a xlink:title=" ">
<path fill="none" stroke="#63b8ff" d="M171.13,-302.46C171.4,-283.55 172,-236.71 172,-197.5 172,-197.5 172,-197.5 172,-135 172,-97.18 180.79,-86.97 201,-55 207.93,-44.03 217.98,-33.61 226.72,-25.62"/>
<polygon fill="#63b8ff" stroke="#63b8ff" points="229.04,-28.23 234.25,-19.01 224.42,-22.97 229.04,-28.23"/>
</a>
</g>
</g>
<!-- Node15&#45;&gt;Node4 -->
<g id="edge21_Node000015_Node000004" class="edge">
<title>Node15&#45;&gt;Node4</title>
<g id="a_edge21_Node000015_Node000004"><a xlink:title=" ">
<path fill="none" stroke="#63b8ff" d="M161.85,-302.37C152.33,-293.38 137.2,-279.11 125.57,-268.14"/>
<polygon fill="#63b8ff" stroke="#63b8ff" points="127.86,-265.48 118.19,-261.17 123.06,-270.58 127.86,-265.48"/>
</a>
</g>
</g>
<!-- Node16&#45;&gt;Node3 -->
<g id="edge23_Node000016_Node000003" class="edge">
<title>Node16&#45;&gt;Node3</title>
<g id="a_edge23_Node000016_Node000003"><a xlink:title=" ">
<path fill="none" stroke="#63b8ff" d="M376.35,-296.87C359.81,-288.3 340.13,-276.09 326,-261 265.68,-196.57 255.05,-170.72 234,-85 229.38,-66.2 233.79,-44.23 238.32,-29.04"/>
<polygon fill="#63b8ff" stroke="#63b8ff" points="241.72,-29.91 241.52,-19.32 235.07,-27.73 241.72,-29.91"/>
</a>
</g>
</g>
<!-- Node16&#45;&gt;Node7 -->
<g id="edge26_Node000016_Node000007" class="edge">
<title>Node16&#45;&gt;Node7</title>
<g id="a_edge26_Node000016_Node000007"><a xlink:title=" ">
<path fill="none" stroke="#63b8ff" d="M411.94,-296.78C423.59,-255.12 457.7,-135.36 469,-121 479.15,-108.1 493.62,-97.73 507.59,-89.85"/>
<polygon fill="#63b8ff" stroke="#63b8ff" points="509.46,-92.82 516.64,-85.03 506.17,-86.64 509.46,-92.82"/>
</a>
</g>
</g>
<!-- Node17 -->
<g id="Node000017" class="node">
<title>Node17</title>
<g id="a_Node000017"><a xlink:title=" ">
<polygon fill="#e0e0e0" stroke="#999999" points="525,-261 467,-261 467,-242 525,-242 525,-261"/>
<text text-anchor="middle" x="496" y="-249" font-family="Helvetica,sans-Serif" font-size="10.00">QThread</text>
</a>
</g>
</g>
<!-- Node16&#45;&gt;Node17 -->
<g id="edge24_Node000016_Node000017" class="edge">
<title>Node16&#45;&gt;Node17</title>
<g id="a_edge24_Node000016_Node000017"><a xlink:title=" ">
<path fill="none" stroke="#63b8ff" d="M429.3,-296.84C443.07,-287.68 460.93,-275.82 474.7,-266.66"/>
<polygon fill="#63b8ff" stroke="#63b8ff" points="476.68,-269.55 483.07,-261.09 472.81,-263.72 476.68,-269.55"/>
</a>
</g>
</g>
<!-- Node18 -->
<g id="Node000018" class="node">
<title>Node18</title>
<g id="a_Node000018"><a xlink:title=" ">
<polygon fill="#e0e0e0" stroke="#999999" points="411,-261 335,-261 335,-242 411,-242 411,-261"/>
<text text-anchor="middle" x="373" y="-249" font-family="Helvetica,sans-Serif" font-size="10.00">QUdpSocket</text>
</a>
</g>
</g>
<!-- Node16&#45;&gt;Node18 -->
<g id="edge25_Node000016_Node000018" class="edge">
<title>Node16&#45;&gt;Node18</title>
<g id="a_edge25_Node000016_Node000018"><a xlink:title=" ">
<path fill="none" stroke="#63b8ff" d="M399.53,-296.84C394.71,-288.78 388.63,-278.62 383.5,-270.06"/>
<polygon fill="#63b8ff" stroke="#63b8ff" points="386.38,-268.05 378.24,-261.27 380.38,-271.64 386.38,-268.05"/>
</a>
</g>
</g>
<!-- Node19 -->
<g id="Node000019" class="node">
<title>Node19</title>
<g id="a_Node000019"><a xlink:href="UdpLogger_8h.html" target="_top" xlink:title="High&#45;frequency binary logger for UDP telemetry frames.">
<polygon fill="white" stroke="#666666" points="1098.5,-261 947.5,-261 947.5,-242 1098.5,-242 1098.5,-261"/>
<text text-anchor="middle" x="1023" y="-249" font-family="Helvetica,sans-Serif" font-size="10.00">frames_logger/UdpLogger.h</text>
</a>
</g>
</g>
<!-- Node16&#45;&gt;Node19 -->
<g id="edge27_Node000016_Node000019" class="edge">
<title>Node16&#45;&gt;Node19</title>
<g id="a_edge27_Node000016_Node000019"><a xlink:title=" ">
<path fill="none" stroke="#63b8ff" d="M484.65,-303.71C599.79,-292.76 816.68,-272.13 937.05,-260.68"/>
<polygon fill="#63b8ff" stroke="#63b8ff" points="937.7,-264.13 947.32,-259.7 937.03,-257.16 937.7,-264.13"/>
</a>
</g>
</g>
<!-- Node19&#45;&gt;Node9 -->
<g id="edge29_Node000019_Node000009" class="edge">
<title>Node19&#45;&gt;Node9</title>
<g id="a_edge29_Node000019_Node000009"><a xlink:title=" ">
<path fill="none" stroke="#63b8ff" d="M1054.63,-241.94C1112.68,-224.56 1227.04,-181.56 1190,-121 1149.48,-54.75 1055.76,-26.94 1004.34,-16.34"/>
<polygon fill="#63b8ff" stroke="#63b8ff" points="1004.83,-12.87 994.34,-14.38 1003.48,-19.74 1004.83,-12.87"/>
</a>
</g>
</g>
<!-- Node20 -->
<g id="Node000020" class="node">
<title>Node20</title>
<g id="a_Node000020"><a xlink:title=" ">
<polygon fill="#e0e0e0" stroke="#999999" points="1181,-145.5 1131,-145.5 1131,-126.5 1181,-126.5 1181,-145.5"/>
<text text-anchor="middle" x="1156" y="-133.5" font-family="Helvetica,sans-Serif" font-size="10.00">atomic</text>
</a>
</g>
</g>
<!-- Node19&#45;&gt;Node20 -->
<g id="edge28_Node000019_Node000020" class="edge">
<title>Node19&#45;&gt;Node20</title>
<g id="a_edge28_Node000019_Node000020"><a xlink:title=" ">
<path fill="none" stroke="#63b8ff" d="M1040.21,-241.96C1055.67,-233.86 1078.54,-220.75 1096,-206 1114.48,-190.39 1132.22,-168.92 1143.55,-154.09"/>
<polygon fill="#63b8ff" stroke="#63b8ff" points="1146.54,-155.94 1149.73,-145.83 1140.94,-151.74 1146.54,-155.94"/>
</a>
</g>
</g>
<!-- Node21 -->
<g id="Node000021" class="node">
<title>Node21</title>
<g id="a_Node000021"><a xlink:title=" ">
<polygon fill="#e0e0e0" stroke="#999999" points="1087,-206 1039,-206 1039,-187 1087,-187 1087,-206"/>
<text text-anchor="middle" x="1063" y="-194" font-family="Helvetica,sans-Serif" font-size="10.00">thread</text>
</a>
</g>
</g>
<!-- Node19&#45;&gt;Node21 -->
<g id="edge30_Node000019_Node000021" class="edge">
<title>Node19&#45;&gt;Node21</title>
<g id="a_edge30_Node000019_Node000021"><a xlink:title=" ">
<path fill="none" stroke="#63b8ff" d="M1029.61,-241.75C1035.26,-234.26 1043.54,-223.28 1050.45,-214.13"/>
<polygon fill="#63b8ff" stroke="#63b8ff" points="1053.29,-216.18 1056.52,-206.09 1047.7,-211.96 1053.29,-216.18"/>
</a>
</g>
</g>
<!-- Node22 -->
<g id="Node000022" class="node">
<title>Node22</title>
<g id="a_Node000022"><a xlink:href="RingBuffer_8h.html" target="_top" xlink:title=" ">
<polygon fill="white" stroke="#666666" points="1021,-206 945,-206 945,-187 1021,-187 1021,-206"/>
<text text-anchor="middle" x="983" y="-194" font-family="Helvetica,sans-Serif" font-size="10.00">RingBuffer.h</text>
</a>
</g>
</g>
<!-- Node19&#45;&gt;Node22 -->
<g id="edge31_Node000019_Node000022" class="edge">
<title>Node19&#45;&gt;Node22</title>
<g id="a_edge31_Node000019_Node000022"><a xlink:title=" ">
<path fill="none" stroke="#63b8ff" d="M1016.39,-241.75C1010.74,-234.26 1002.46,-223.28 995.55,-214.13"/>
<polygon fill="#63b8ff" stroke="#63b8ff" points="998.3,-211.96 989.48,-206.09 992.71,-216.18 998.3,-211.96"/>
</a>
</g>
</g>
<!-- Node28 -->
<g id="Node000028" class="node">
<title>Node28</title>
<g id="a_Node000028"><a xlink:href="Writer_8h.html" target="_top" xlink:title=" ">
<polygon fill="white" stroke="#666666" points="862.5,-206 807.5,-206 807.5,-187 862.5,-187 862.5,-206"/>
<text text-anchor="middle" x="835" y="-194" font-family="Helvetica,sans-Serif" font-size="10.00">Writer.h</text>
</a>
</g>
</g>
<!-- Node19&#45;&gt;Node28 -->
<g id="edge40_Node000019_Node000028" class="edge">
<title>Node19&#45;&gt;Node28</title>
<g id="a_edge40_Node000019_Node000028"><a xlink:title=" ">
<path fill="none" stroke="#63b8ff" d="M992.79,-241.98C960.11,-232.77 907.94,-218.06 872.61,-208.1"/>
<polygon fill="#63b8ff" stroke="#63b8ff" points="873.25,-204.65 862.68,-205.3 871.36,-211.39 873.25,-204.65"/>
</a>
</g>
</g>
<!-- Node22&#45;&gt;Node9 -->
<g id="edge33_Node000022_Node000009" class="edge">
<title>Node22&#45;&gt;Node9</title>
<g id="a_edge33_Node000022_Node000009"><a xlink:title=" ">
<path fill="none" stroke="#63b8ff" d="M1021.15,-189.27C1043.56,-183.44 1070.13,-172.27 1084,-151 1091.28,-139.83 1089.23,-133.27 1084,-121 1065.48,-77.52 1020.52,-42.89 992.62,-24.64"/>
<polygon fill="#63b8ff" stroke="#63b8ff" points="994.2,-21.5 983.88,-19.1 990.45,-27.41 994.2,-21.5"/>
</a>
</g>
</g>
<!-- Node22&#45;&gt;Node20 -->
<g id="edge35_Node000022_Node000020" class="edge">
<title>Node22&#45;&gt;Node20</title>
<g id="a_edge35_Node000022_Node000020"><a xlink:title=" ">
<path fill="none" stroke="#63b8ff" d="M1009.25,-186.99C1036.31,-178.17 1079.7,-163.89 1117,-151 1118.89,-150.35 1120.82,-149.67 1122.78,-148.99"/>
<polygon fill="#63b8ff" stroke="#63b8ff" points="1124.27,-152.17 1132.52,-145.53 1121.93,-145.57 1124.27,-152.17"/>
</a>
</g>
</g>
<!-- Node23 -->
<g id="Node000023" class="node">
<title>Node23</title>
<g id="a_Node000023"><a xlink:title=" ">
<polygon fill="#e0e0e0" stroke="#999999" points="1075,-145.5 1019,-145.5 1019,-126.5 1075,-126.5 1075,-145.5"/>
<text text-anchor="middle" x="1047" y="-133.5" font-family="Helvetica,sans-Serif" font-size="10.00">QDebug</text>
</a>
</g>
</g>
<!-- Node22&#45;&gt;Node23 -->
<g id="edge32_Node000022_Node000023" class="edge">
<title>Node22&#45;&gt;Node23</title>
<g id="a_edge32_Node000022_Node000023"><a xlink:title=" ">
<path fill="none" stroke="#63b8ff" d="M992.44,-186.87C1002.27,-177.88 1017.89,-163.61 1029.89,-152.64"/>
<polygon fill="#63b8ff" stroke="#63b8ff" points="1032.5,-155 1037.52,-145.67 1027.78,-149.83 1032.5,-155"/>
</a>
</g>
</g>
<!-- Node24 -->
<g id="Node000024" class="node">
<title>Node24</title>
<g id="a_Node000024"><a xlink:title=" ">
<polygon fill="#e0e0e0" stroke="#999999" points="918.5,-145.5 863.5,-145.5 863.5,-126.5 918.5,-126.5 918.5,-145.5"/>
<text text-anchor="middle" x="891" y="-133.5" font-family="Helvetica,sans-Serif" font-size="10.00">fstream</text>
</a>
</g>
</g>
<!-- Node22&#45;&gt;Node24 -->
<g id="edge34_Node000022_Node000024" class="edge">
<title>Node22&#45;&gt;Node24</title>
<g id="a_edge34_Node000022_Node000024"><a xlink:title=" ">
<path fill="none" stroke="#63b8ff" d="M969.43,-186.87C954.61,-177.45 930.67,-162.23 913.14,-151.08"/>
<polygon fill="#63b8ff" stroke="#63b8ff" points="914.95,-148.08 904.63,-145.67 911.19,-153.99 914.95,-148.08"/>
</a>
</g>
</g>
<!-- Node25 -->
<g id="Node000025" class="node">
<title>Node25</title>
<g id="a_Node000025"><a xlink:title=" ">
<polygon fill="#e0e0e0" stroke="#999999" points="1001,-145.5 937,-145.5 937,-126.5 1001,-126.5 1001,-145.5"/>
<text text-anchor="middle" x="969" y="-133.5" font-family="Helvetica,sans-Serif" font-size="10.00">algorithm</text>
</a>
</g>
</g>
<!-- Node22&#45;&gt;Node25 -->
<g id="edge36_Node000022_Node000025" class="edge">
<title>Node22&#45;&gt;Node25</title>
<g id="a_edge36_Node000022_Node000025"><a xlink:title=" ">
<path fill="none" stroke="#63b8ff" d="M980.93,-186.87C978.97,-178.66 975.95,-166.04 973.44,-155.55"/>
<polygon fill="#63b8ff" stroke="#63b8ff" points="976.81,-154.58 971.07,-145.67 970,-156.21 976.81,-154.58"/>
</a>
</g>
</g>
<!-- Node26 -->
<g id="Node000026" class="node">
<title>Node26</title>
<g id="a_Node000026"><a xlink:href="Logger_8h.html" target="_top" xlink:title=" ">
<polygon fill="white" stroke="#666666" points="807,-151 697,-151 697,-121 807,-121 807,-151"/>
<text text-anchor="start" x="705" y="-139" font-family="Helvetica,sans-Serif" font-size="10.00">src/services/Logger</text>
<text text-anchor="middle" x="752" y="-128" font-family="Helvetica,sans-Serif" font-size="10.00">/Logger.h</text>
</a>
</g>
</g>
<!-- Node22&#45;&gt;Node26 -->
<g id="edge37_Node000022_Node000026" class="edge">
<title>Node22&#45;&gt;Node26</title>
<g id="a_edge37_Node000022_Node000026"><a xlink:title=" ">
<path fill="none" stroke="#63b8ff" d="M949.41,-186.99C914.82,-178.23 860.02,-164.36 816.93,-153.44"/>
<polygon fill="#63b8ff" stroke="#63b8ff" points="817.64,-150.01 807.09,-150.95 815.92,-156.8 817.64,-150.01"/>
</a>
</g>
</g>
<!-- Node26&#45;&gt;Node7 -->
<g id="edge39_Node000026_Node000007" class="edge">
<title>Node26&#45;&gt;Node7</title>
<g id="a_edge39_Node000026_Node000007"><a xlink:title=" ">
<path fill="none" stroke="#63b8ff" d="M707.89,-120.95C677.52,-111.28 636.99,-98.38 604.73,-88.11"/>
<polygon fill="#63b8ff" stroke="#63b8ff" points="605.6,-84.71 595.01,-85.01 603.47,-91.38 605.6,-84.71"/>
</a>
</g>
</g>
<!-- Node27 -->
<g id="Node000027" class="node">
<title>Node27</title>
<g id="a_Node000027"><a xlink:title=" ">
<polygon fill="#e0e0e0" stroke="#999999" points="781.5,-79.5 722.5,-79.5 722.5,-60.5 781.5,-60.5 781.5,-79.5"/>
<text text-anchor="middle" x="752" y="-67.5" font-family="Helvetica,sans-Serif" font-size="10.00">QWidget</text>
</a>
</g>
</g>
<!-- Node26&#45;&gt;Node27 -->
<g id="edge38_Node000026_Node000027" class="edge">
<title>Node26&#45;&gt;Node27</title>
<g id="a_edge38_Node000026_Node000027"><a xlink:title=" ">
<path fill="none" stroke="#63b8ff" d="M752,-120.8C752,-111.7 752,-99.79 752,-89.9"/>
<polygon fill="#63b8ff" stroke="#63b8ff" points="755.5,-89.84 752,-79.84 748.5,-89.84 755.5,-89.84"/>
</a>
</g>
</g>
<!-- Node28&#45;&gt;Node6 -->
<g id="edge43_Node000028_Node000006" class="edge">
<title>Node28&#45;&gt;Node6</title>
<g id="a_edge43_Node000028_Node000006"><a xlink:title=" ">
<path fill="none" stroke="#63b8ff" d="M807.33,-196.18C772.96,-195.34 715.49,-188.04 688,-151 660.9,-114.48 681.4,-57.24 694.8,-28.39"/>
<polygon fill="#63b8ff" stroke="#63b8ff" points="698.07,-29.66 699.31,-19.14 691.78,-26.59 698.07,-29.66"/>
</a>
</g>
</g>
<!-- Node28&#45;&gt;Node9 -->
<g id="edge41_Node000028_Node000009" class="edge">
<title>Node28&#45;&gt;Node9</title>
<g id="a_edge41_Node000028_Node000009"><a xlink:title=" ">
<path fill="none" stroke="#63b8ff" d="M835.84,-186.65C837.54,-172.07 842.37,-142.47 855,-121 879,-80.19 922.11,-44.4 947.88,-25.27"/>
<polygon fill="#63b8ff" stroke="#63b8ff" points="950.18,-27.92 956.22,-19.21 946.07,-22.26 950.18,-27.92"/>
</a>
</g>
</g>
<!-- Node28&#45;&gt;Node24 -->
<g id="edge42_Node000028_Node000024" class="edge">
<title>Node28&#45;&gt;Node24</title>
<g id="a_edge42_Node000028_Node000024"><a xlink:title=" ">
<path fill="none" stroke="#63b8ff" d="M843.26,-186.87C851.78,-177.97 865.26,-163.89 875.73,-152.95"/>
<polygon fill="#63b8ff" stroke="#63b8ff" points="878.32,-155.31 882.7,-145.67 873.26,-150.47 878.32,-155.31"/>
</a>
</g>
</g>
<!-- Node28&#45;&gt;Node26 -->
<g id="edge44_Node000028_Node000026" class="edge">
<title>Node28&#45;&gt;Node26</title>
<g id="a_edge44_Node000028_Node000026"><a xlink:title=" ">
<path fill="none" stroke="#63b8ff" d="M822.75,-186.87C811.6,-179 794.7,-167.09 780.21,-156.89"/>
<polygon fill="#63b8ff" stroke="#63b8ff" points="782.22,-154.01 772.03,-151.11 778.18,-159.74 782.22,-154.01"/>
</a>
</g>
</g>
</g>
</svg>
