<?xml version="1.0" encoding="UTF-8" standalone="no"?>
<!DOCTYPE svg PUBLIC "-//W3C//DTD SVG 1.1//EN"
 "http://www.w3.org/Graphics/SVG/1.1/DTD/svg11.dtd">
<!-- Generated by graphviz version 2.43.0 (0)
 -->
<!-- Title: mvvm/models/AppModels.cpp Pages: 1 -->
<svg width="1138pt" height="390pt"
 viewBox="0.00 0.00 1138.00 390.00" xmlns="http://www.w3.org/2000/svg" xmlns:xlink="http://www.w3.org/1999/xlink">
<g id="graph0" class="graph" transform="scale(1 1) rotate(0) translate(4 386)">
<title>mvvm/models/AppModels.cpp</title>
<!-- Node1 -->
<g id="Node000001" class="node">
<title>Node1</title>
<g id="a_Node000001"><a xlink:title=" ">
<polygon fill="#999999" stroke="#666666" points="354,-382 190,-382 190,-363 354,-363 354,-382"/>
<text text-anchor="middle" x="272" y="-370" font-family="Helvetica,sans-Serif" font-size="10.00">mvvm/models/AppModels.cpp</text>
</a>
</g>
</g>
<!-- Node2 -->
<g id="Node000002" class="node">
<title>Node2</title>
<g id="a_Node000002"><a xlink:href="AppModels_8h.html" target="_top" xlink:title=" ">
<polygon fill="white" stroke="#666666" points="244,-321.5 164,-321.5 164,-302.5 244,-302.5 244,-321.5"/>
<text text-anchor="middle" x="204" y="-309.5" font-family="Helvetica,sans-Serif" font-size="10.00">AppModels.h</text>
</a>
</g>
</g>
<!-- Node1&#45;&gt;Node2 -->
<g id="edge1_Node000001_Node000002" class="edge">
<title>Node1&#45;&gt;Node2</title>
<g id="a_edge1_Node000001_Node000002"><a xlink:title=" ">
<path fill="none" stroke="#63b8ff" d="M261.97,-362.87C251.42,-353.8 234.61,-339.34 221.81,-328.32"/>
<polygon fill="#63b8ff" stroke="#63b8ff" points="223.94,-325.54 214.07,-321.67 219.37,-330.84 223.94,-325.54"/>
</a>
</g>
</g>
<!-- Node5 -->
<g id="Node000005" class="node">
<title>Node5</title>
<g id="a_Node000005"><a xlink:href="TestBenchModel_8h.html" target="_top" xlink:title=" ">
<polygon fill="white" stroke="#666666" points="448.5,-151 299.5,-151 299.5,-121 448.5,-121 448.5,-151"/>
<text text-anchor="start" x="307.5" y="-139" font-family="Helvetica,sans-Serif" font-size="10.00">src/features/test/TestBench</text>
<text text-anchor="middle" x="374" y="-128" font-family="Helvetica,sans-Serif" font-size="10.00">Model.h</text>
</a>
</g>
</g>
<!-- Node1&#45;&gt;Node5 -->
<g id="edge4_Node000001_Node000005" class="edge">
<title>Node1&#45;&gt;Node5</title>
<g id="a_edge4_Node000001_Node000005"><a xlink:title=" ">
<path fill="none" stroke="#63b8ff" d="M275.75,-362.88C290.07,-329.95 341.6,-211.48 363.76,-160.55"/>
<polygon fill="#63b8ff" stroke="#63b8ff" points="367,-161.87 367.78,-151.31 360.58,-159.08 367,-161.87"/>
</a>
</g>
</g>
<!-- Node14 -->
<g id="Node000014" class="node">
<title>Node14</title>
<g id="a_Node000014"><a xlink:href="PressureTanksModel_8h.html" target="_top" xlink:title=" ">
<polygon fill="white" stroke="#666666" points="462,-85 262,-85 262,-55 462,-55 462,-85"/>
<text text-anchor="start" x="270" y="-73" font-family="Helvetica,sans-Serif" font-size="10.00">src/features/test/frames</text>
<text text-anchor="middle" x="362" y="-62" font-family="Helvetica,sans-Serif" font-size="10.00">/tank_pressure/PressureTanksModel.h</text>
</a>
</g>
</g>
<!-- Node1&#45;&gt;Node14 -->
<g id="edge16_Node000001_Node000014" class="edge">
<title>Node1&#45;&gt;Node14</title>
<g id="a_edge16_Node000001_Node000014"><a xlink:title=" ">
<path fill="none" stroke="#63b8ff" d="M272,-362.84C272,-343.21 272,-293.82 272,-252.5 272,-252.5 272,-252.5 272,-195.5 272,-161.33 271.61,-149.14 291,-121 299.47,-108.71 312,-98.45 324.19,-90.49"/>
<polygon fill="#63b8ff" stroke="#63b8ff" points="326.26,-93.32 332.94,-85.1 322.59,-87.36 326.26,-93.32"/>
</a>
</g>
</g>
<!-- Node15 -->
<g id="Node000015" class="node">
<title>Node15</title>
<g id="a_Node000015"><a xlink:href="AppServices_8h.html" target="_top" xlink:title=" ">
<polygon fill="white" stroke="#666666" points="146,-321.5 0,-321.5 0,-302.5 146,-302.5 146,-321.5"/>
<text text-anchor="middle" x="73" y="-309.5" font-family="Helvetica,sans-Serif" font-size="10.00">src/services/AppServices.h</text>
</a>
</g>
</g>
<!-- Node1&#45;&gt;Node15 -->
<g id="edge19_Node000001_Node000015" class="edge">
<title>Node1&#45;&gt;Node15</title>
<g id="a_edge19_Node000001_Node000015"><a xlink:title=" ">
<path fill="none" stroke="#63b8ff" d="M243.06,-362.99C208.43,-352.81 150.3,-335.72 111.79,-324.4"/>
<polygon fill="#63b8ff" stroke="#63b8ff" points="112.55,-320.98 101.97,-321.52 110.58,-327.7 112.55,-320.98"/>
</a>
</g>
</g>
<!-- Node16 -->
<g id="Node000016" class="node">
<title>Node16</title>
<g id="a_Node000016"><a xlink:href="UdpChannel_8h.html" target="_top" xlink:title="UDP Communicaton channel between the microcontroler and the HMI.">
<polygon fill="white" stroke="#666666" points="581.5,-327 428.5,-327 428.5,-297 581.5,-297 581.5,-327"/>
<text text-anchor="start" x="436.5" y="-315" font-family="Helvetica,sans-Serif" font-size="10.00">src/features/communication</text>
<text text-anchor="middle" x="505" y="-304" font-family="Helvetica,sans-Serif" font-size="10.00">/udp/UdpChannel.h</text>
</a>
</g>
</g>
<!-- Node1&#45;&gt;Node16 -->
<g id="edge22_Node000001_Node000016" class="edge">
<title>Node1&#45;&gt;Node16</title>
<g id="a_edge22_Node000001_Node000016"><a xlink:title=" ">
<path fill="none" stroke="#63b8ff" d="M305.88,-362.99C340.66,-354.26 395.67,-340.45 439.07,-329.55"/>
<polygon fill="#63b8ff" stroke="#63b8ff" points="440.14,-332.89 448.98,-327.06 438.43,-326.1 440.14,-332.89"/>
</a>
</g>
</g>
<!-- Node3 -->
<g id="Node000003" class="node">
<title>Node3</title>
<g id="a_Node000003"><a xlink:title=" ">
<polygon fill="#e0e0e0" stroke="#999999" points="292,-19 236,-19 236,0 292,0 292,-19"/>
<text text-anchor="middle" x="264" y="-7" font-family="Helvetica,sans-Serif" font-size="10.00">QObject</text>
</a>
</g>
</g>
<!-- Node2&#45;&gt;Node3 -->
<g id="edge2_Node000002_Node000003" class="edge">
<title>Node2&#45;&gt;Node3</title>
<g id="a_edge2_Node000002_Node000003"><a xlink:title=" ">
<path fill="none" stroke="#63b8ff" d="M202.99,-302.47C200.83,-283.59 196,-236.81 196,-197.5 196,-197.5 196,-197.5 196,-135 196,-97.88 201.05,-86.92 220,-55 226.54,-43.98 236.39,-33.68 245.11,-25.76"/>
<polygon fill="#63b8ff" stroke="#63b8ff" points="247.41,-28.4 252.68,-19.21 242.83,-23.11 247.41,-28.4"/>
</a>
</g>
</g>
<!-- Node4 -->
<g id="Node000004" class="node">
<title>Node4</title>
<g id="a_Node000004"><a xlink:title=" ">
<polygon fill="#e0e0e0" stroke="#999999" points="167.5,-261 102.5,-261 102.5,-242 167.5,-242 167.5,-261"/>
<text text-anchor="middle" x="135" y="-249" font-family="Helvetica,sans-Serif" font-size="10.00">typeindex</text>
</a>
</g>
</g>
<!-- Node2&#45;&gt;Node4 -->
<g id="edge3_Node000002_Node000004" class="edge">
<title>Node2&#45;&gt;Node4</title>
<g id="a_edge3_Node000002_Node000004"><a xlink:title=" ">
<path fill="none" stroke="#63b8ff" d="M193.82,-302.37C183.12,-293.3 166.06,-278.84 153.07,-267.82"/>
<polygon fill="#63b8ff" stroke="#63b8ff" points="155.11,-264.96 145.22,-261.17 150.59,-270.3 155.11,-264.96"/>
</a>
</g>
</g>
<!-- Node5&#45;&gt;Node3 -->
<g id="edge5_Node000005_Node000003" class="edge">
<title>Node5&#45;&gt;Node3</title>
<g id="a_edge5_Node000005_Node000003"><a xlink:title=" ">
<path fill="none" stroke="#63b8ff" d="M414.62,-120.88C450.11,-106.32 492.81,-82 471,-55 460.43,-41.91 359.08,-24.78 302.22,-16.09"/>
<polygon fill="#63b8ff" stroke="#63b8ff" points="302.57,-12.6 292.15,-14.56 301.52,-19.52 302.57,-12.6"/>
</a>
</g>
</g>
<!-- Node6 -->
<g id="Node000006" class="node">
<title>Node6</title>
<g id="a_Node000006"><a xlink:title=" ">
<polygon fill="#e0e0e0" stroke="#999999" points="749,-19 705,-19 705,0 749,0 749,-19"/>
<text text-anchor="middle" x="727" y="-7" font-family="Helvetica,sans-Serif" font-size="10.00">string</text>
</a>
</g>
</g>
<!-- Node5&#45;&gt;Node6 -->
<g id="edge6_Node000005_Node000006" class="edge">
<title>Node5&#45;&gt;Node6</title>
<g id="a_edge6_Node000005_Node000006"><a xlink:title=" ">
<path fill="none" stroke="#63b8ff" d="M448.71,-124.4C512.6,-114.62 599.13,-99.46 631,-85 662.99,-70.48 693.97,-43.34 711.73,-26.13"/>
<polygon fill="#63b8ff" stroke="#63b8ff" points="714.28,-28.53 718.92,-19 709.35,-23.56 714.28,-28.53"/>
</a>
</g>
</g>
<!-- Node7 -->
<g id="Node000007" class="node">
<title>Node7</title>
<g id="a_Node000007"><a xlink:href="Messages_8h.html" target="_top" xlink:title=" ">
<polygon fill="white" stroke="#666666" points="621.5,-85 518.5,-85 518.5,-55 621.5,-55 621.5,-85"/>
<text text-anchor="start" x="526.5" y="-73" font-family="Helvetica,sans-Serif" font-size="10.00">src/core/Protocols</text>
<text text-anchor="middle" x="570" y="-62" font-family="Helvetica,sans-Serif" font-size="10.00">/Messages.h</text>
</a>
</g>
</g>
<!-- Node5&#45;&gt;Node7 -->
<g id="edge7_Node000005_Node000007" class="edge">
<title>Node5&#45;&gt;Node7</title>
<g id="a_edge7_Node000005_Node000007"><a xlink:title=" ">
<path fill="none" stroke="#63b8ff" d="M417.01,-120.95C446.5,-111.33 485.81,-98.49 517.2,-88.24"/>
<polygon fill="#63b8ff" stroke="#63b8ff" points="518.67,-91.44 527.09,-85.01 516.49,-84.79 518.67,-91.44"/>
</a>
</g>
</g>
<!-- Node7&#45;&gt;Node3 -->
<g id="edge14_Node000007_Node000003" class="edge">
<title>Node7&#45;&gt;Node3</title>
<g id="a_edge14_Node000007_Node000003"><a xlink:title=" ">
<path fill="none" stroke="#63b8ff" d="M518.15,-57.87C513.37,-56.88 508.6,-55.91 504,-55 432.9,-40.87 349.66,-25.75 302.25,-17.28"/>
<polygon fill="#63b8ff" stroke="#63b8ff" points="302.59,-13.78 292.13,-15.47 301.36,-20.68 302.59,-13.78"/>
</a>
</g>
</g>
<!-- Node7&#45;&gt;Node6 -->
<g id="edge10_Node000007_Node000006" class="edge">
<title>Node7&#45;&gt;Node6</title>
<g id="a_edge10_Node000007_Node000006"><a xlink:title=" ">
<path fill="none" stroke="#63b8ff" d="M607.61,-54.99C634.35,-45.02 669.89,-31.78 695.22,-22.34"/>
<polygon fill="#63b8ff" stroke="#63b8ff" points="696.58,-25.57 704.73,-18.8 694.14,-19.01 696.58,-25.57"/>
</a>
</g>
</g>
<!-- Node8 -->
<g id="Node000008" class="node">
<title>Node8</title>
<g id="a_Node000008"><a xlink:title=" ">
<polygon fill="#e0e0e0" stroke="#999999" points="595.5,-19 544.5,-19 544.5,0 595.5,0 595.5,-19"/>
<text text-anchor="middle" x="570" y="-7" font-family="Helvetica,sans-Serif" font-size="10.00">variant</text>
</a>
</g>
</g>
<!-- Node7&#45;&gt;Node8 -->
<g id="edge8_Node000007_Node000008" class="edge">
<title>Node7&#45;&gt;Node8</title>
<g id="a_edge8_Node000007_Node000008"><a xlink:title=" ">
<path fill="none" stroke="#63b8ff" d="M570,-54.84C570,-47.21 570,-37.7 570,-29.45"/>
<polygon fill="#63b8ff" stroke="#63b8ff" points="573.5,-29.27 570,-19.27 566.5,-29.27 573.5,-29.27"/>
</a>
</g>
</g>
<!-- Node9 -->
<g id="Node000009" class="node">
<title>Node9</title>
<g id="a_Node000009"><a xlink:title=" ">
<polygon fill="#e0e0e0" stroke="#999999" points="929,-19 879,-19 879,0 929,0 929,-19"/>
<text text-anchor="middle" x="904" y="-7" font-family="Helvetica,sans-Serif" font-size="10.00">cstdint</text>
</a>
</g>
</g>
<!-- Node7&#45;&gt;Node9 -->
<g id="edge9_Node000007_Node000009" class="edge">
<title>Node7&#45;&gt;Node9</title>
<g id="a_edge9_Node000007_Node000009"><a xlink:title=" ">
<path fill="none" stroke="#63b8ff" d="M621.82,-59.92C690.44,-47.9 809.66,-27.02 868.73,-16.68"/>
<polygon fill="#63b8ff" stroke="#63b8ff" points="869.45,-20.1 878.7,-14.93 868.24,-13.21 869.45,-20.1"/>
</a>
</g>
</g>
<!-- Node10 -->
<g id="Node000010" class="node">
<title>Node10</title>
<g id="a_Node000010"><a xlink:title=" ">
<polygon fill="#e0e0e0" stroke="#999999" points="686.5,-19 613.5,-19 613.5,0 686.5,0 686.5,-19"/>
<text text-anchor="middle" x="650" y="-7" font-family="Helvetica,sans-Serif" font-size="10.00">QByteArray</text>
</a>
</g>
</g>
<!-- Node7&#45;&gt;Node10 -->
<g id="edge11_Node000007_Node000010" class="edge">
<title>Node7&#45;&gt;Node10</title>
<g id="a_edge11_Node000007_Node000010"><a xlink:title=" ">
<path fill="none" stroke="#63b8ff" d="M589.37,-54.84C601.57,-45.91 617.31,-34.41 629.69,-25.35"/>
<polygon fill="#63b8ff" stroke="#63b8ff" points="632.01,-27.99 638.01,-19.27 627.87,-22.34 632.01,-27.99"/>
</a>
</g>
</g>
<!-- Node11 -->
<g id="Node000011" class="node">
<title>Node11</title>
<g id="a_Node000011"><a xlink:title=" ">
<polygon fill="#e0e0e0" stroke="#999999" points="455.5,-19 406.5,-19 406.5,0 455.5,0 455.5,-19"/>
<text text-anchor="middle" x="431" y="-7" font-family="Helvetica,sans-Serif" font-size="10.00">QHash</text>
</a>
</g>
</g>
<!-- Node7&#45;&gt;Node11 -->
<g id="edge12_Node000007_Node000011" class="edge">
<title>Node7&#45;&gt;Node11</title>
<g id="a_edge12_Node000007_Node000011"><a xlink:title=" ">
<path fill="none" stroke="#63b8ff" d="M536.71,-54.99C513.62,-45.27 483.13,-32.44 460.84,-23.06"/>
<polygon fill="#63b8ff" stroke="#63b8ff" points="462.1,-19.79 451.53,-19.14 459.39,-26.24 462.1,-19.79"/>
</a>
</g>
</g>
<!-- Node12 -->
<g id="Node000012" class="node">
<title>Node12</title>
<g id="a_Node000012"><a xlink:title=" ">
<polygon fill="#e0e0e0" stroke="#999999" points="526.5,-19 473.5,-19 473.5,0 526.5,0 526.5,-19"/>
<text text-anchor="middle" x="500" y="-7" font-family="Helvetica,sans-Serif" font-size="10.00">QString</text>
</a>
</g>
</g>
<!-- Node7&#45;&gt;Node12 -->
<g id="edge13_Node000007_Node000012" class="edge">
<title>Node7&#45;&gt;Node12</title>
<g id="a_edge13_Node000007_Node000012"><a xlink:title=" ">
<path fill="none" stroke="#63b8ff" d="M553.05,-54.84C542.58,-46.09 529.14,-34.85 518.41,-25.88"/>
<polygon fill="#63b8ff" stroke="#63b8ff" points="520.41,-22.99 510.49,-19.27 515.92,-28.36 520.41,-22.99"/>
</a>
</g>
</g>
<!-- Node13 -->
<g id="Node000013" class="node">
<title>Node13</title>
<g id="a_Node000013"><a xlink:title=" ">
<polygon fill="#e0e0e0" stroke="#999999" points="386.5,-19 341.5,-19 341.5,0 386.5,0 386.5,-19"/>
<text text-anchor="middle" x="364" y="-7" font-family="Helvetica,sans-Serif" font-size="10.00">QMap</text>
</a>
</g>
</g>
<!-- Node7&#45;&gt;Node13 -->
<g id="edge15_Node000007_Node000013" class="edge">
<title>Node7&#45;&gt;Node13</title>
<g id="a_edge15_Node000007_Node000013"><a xlink:title=" ">
<path fill="none" stroke="#63b8ff" d="M520.66,-54.99C482.15,-44.05 429.75,-29.17 396.4,-19.7"/>
<polygon fill="#63b8ff" stroke="#63b8ff" points="397.27,-16.31 386.7,-16.95 395.36,-23.04 397.27,-16.31"/>
</a>
</g>
</g>
<!-- Node14&#45;&gt;Node3 -->
<g id="edge17_Node000014_Node000003" class="edge">
<title>Node14&#45;&gt;Node3</title>
<g id="a_edge17_Node000014_Node000003"><a xlink:title=" ">
<path fill="none" stroke="#63b8ff" d="M338.28,-54.84C322.8,-45.6 302.68,-33.59 287.29,-24.4"/>
<polygon fill="#63b8ff" stroke="#63b8ff" points="288.78,-21.21 278.4,-19.09 285.19,-27.23 288.78,-21.21"/>
</a>
</g>
</g>
<!-- Node14&#45;&gt;Node13 -->
<g id="edge18_Node000014_Node000013" class="edge">
<title>Node14&#45;&gt;Node13</title>
<g id="a_edge18_Node000014_Node000013"><a xlink:title=" ">
<path fill="none" stroke="#63b8ff" d="M362.48,-54.84C362.74,-47.21 363.07,-37.7 363.35,-29.45"/>
<polygon fill="#63b8ff" stroke="#63b8ff" points="366.86,-29.38 363.7,-19.27 359.86,-29.14 366.86,-29.38"/>
</a>
</g>
</g>
<!-- Node15&#45;&gt;Node3 -->
<g id="edge20_Node000015_Node000003" class="edge">
<title>Node15&#45;&gt;Node3</title>
<g id="a_edge20_Node000015_Node000003"><a xlink:title=" ">
<path fill="none" stroke="#63b8ff" d="M73,-302.46C73,-283.55 73,-236.71 73,-197.5 73,-197.5 73,-197.5 73,-135 73,-62.71 170.21,-30.2 225.93,-17.5"/>
<polygon fill="#63b8ff" stroke="#63b8ff" points="226.79,-20.9 235.82,-15.36 225.3,-14.06 226.79,-20.9"/>
</a>
</g>
</g>
<!-- Node15&#45;&gt;Node4 -->
<g id="edge21_Node000015_Node000004" class="edge">
<title>Node15&#45;&gt;Node4</title>
<g id="a_edge21_Node000015_Node000004"><a xlink:title=" ">
<path fill="none" stroke="#63b8ff" d="M82.15,-302.37C91.67,-293.38 106.8,-279.11 118.43,-268.14"/>
<polygon fill="#63b8ff" stroke="#63b8ff" points="120.94,-270.58 125.81,-261.17 116.14,-265.48 120.94,-270.58"/>
</a>
</g>
</g>
<!-- Node16&#45;&gt;Node3 -->
<g id="edge23_Node000016_Node000003" class="edge">
<title>Node16&#45;&gt;Node3</title>
<g id="a_edge23_Node000016_Node000003"><a xlink:title=" ">
<path fill="none" stroke="#63b8ff" d="M479.97,-296.94C437.16,-271.95 348.87,-216.24 291,-151 268.54,-125.68 261.74,-117.7 253,-85 248,-66.3 252.46,-44.31 257.12,-29.09"/>
<polygon fill="#63b8ff" stroke="#63b8ff" points="260.52,-29.94 260.4,-19.35 253.89,-27.7 260.52,-29.94"/>
</a>
</g>
</g>
<!-- Node16&#45;&gt;Node7 -->
<g id="edge26_Node000016_Node000007" class="edge">
<title>Node16&#45;&gt;Node7</title>
<g id="a_edge26_Node000016_Node000007"><a xlink:title=" ">
<path fill="none" stroke="#63b8ff" d="M499.48,-296.56C487.7,-263.28 463.67,-179.54 495,-121 501.89,-108.12 513.73,-97.99 525.99,-90.31"/>
<polygon fill="#63b8ff" stroke="#63b8ff" points="528.02,-93.18 534.93,-85.15 524.52,-87.12 528.02,-93.18"/>
</a>
</g>
</g>
<!-- Node17 -->
<g id="Node000017" class="node">
<title>Node17</title>
<g id="a_Node000017"><a xlink:title=" ">
<polygon fill="#e0e0e0" stroke="#999999" points="562,-261 504,-261 504,-242 562,-242 562,-261"/>
<text text-anchor="middle" x="533" y="-249" font-family="Helvetica,sans-Serif" font-size="10.00">QThread</text>
</a>
</g>
</g>
<!-- Node16&#45;&gt;Node17 -->
<g id="edge24_Node000016_Node000017" class="edge">
<title>Node16&#45;&gt;Node17</title>
<g id="a_edge24_Node000016_Node000017"><a xlink:title=" ">
<path fill="none" stroke="#63b8ff" d="M511.78,-296.84C515.59,-288.87 520.39,-278.84 524.46,-270.33"/>
<polygon fill="#63b8ff" stroke="#63b8ff" points="527.64,-271.8 528.8,-261.27 521.33,-268.77 527.64,-271.8"/>
</a>
</g>
</g>
<!-- Node18 -->
<g id="Node000018" class="node">
<title>Node18</title>
<g id="a_Node000018"><a xlink:title=" ">
<polygon fill="#e0e0e0" stroke="#999999" points="656,-261 580,-261 580,-242 656,-242 656,-261"/>
<text text-anchor="middle" x="618" y="-249" font-family="Helvetica,sans-Serif" font-size="10.00">QUdpSocket</text>
</a>
</g>
</g>
<!-- Node16&#45;&gt;Node18 -->
<g id="edge25_Node000016_Node000018" class="edge">
<title>Node16&#45;&gt;Node18</title>
<g id="a_edge25_Node000016_Node000018"><a xlink:title=" ">
<path fill="none" stroke="#63b8ff" d="M532.07,-296.99C550.25,-287.58 574.07,-275.24 592.02,-265.95"/>
<polygon fill="#63b8ff" stroke="#63b8ff" points="594.04,-268.84 601.31,-261.14 590.82,-262.63 594.04,-268.84"/>
</a>
</g>
</g>
<!-- Node19 -->
<g id="Node000019" class="node">
<title>Node19</title>
<g id="a_Node000019"><a xlink:href="UdpLogger_8h.html" target="_top" xlink:title=" ">
<polygon fill="white" stroke="#666666" points="831.5,-261 680.5,-261 680.5,-242 831.5,-242 831.5,-261"/>
<text text-anchor="middle" x="756" y="-249" font-family="Helvetica,sans-Serif" font-size="10.00">frames_logger/UdpLogger.h</text>
</a>
</g>
</g>
<!-- Node16&#45;&gt;Node19 -->
<g id="edge27_Node000016_Node000019" class="edge">
<title>Node16&#45;&gt;Node19</title>
<g id="a_edge27_Node000016_Node000019"><a xlink:title=" ">
<path fill="none" stroke="#63b8ff" d="M565.12,-296.99C609.38,-286.67 668.68,-272.85 709.37,-263.37"/>
<polygon fill="#63b8ff" stroke="#63b8ff" points="710.36,-266.73 719.3,-261.05 708.77,-259.91 710.36,-266.73"/>
</a>
</g>
</g>
<!-- Node19&#45;&gt;Node9 -->
<g id="edge43_Node000019_Node000009" class="edge">
<title>Node19&#45;&gt;Node9</title>
<g id="a_edge43_Node000019_Node000009"><a xlink:title=" ">
<path fill="none" stroke="#63b8ff" d="M831.62,-246.44C894.46,-238.37 978.9,-215.37 1013,-151 1032.97,-113.3 1036.79,-90.42 1013,-55 996.67,-30.69 964.48,-19.66 939.3,-14.65"/>
<polygon fill="#63b8ff" stroke="#63b8ff" points="939.8,-11.18 929.35,-12.9 938.59,-18.08 939.8,-11.18"/>
</a>
</g>
</g>
<!-- Node20 -->
<g id="Node000020" class="node">
<title>Node20</title>
<g id="a_Node000020"><a xlink:href="RingBuffer_8h.html" target="_top" xlink:title=" ">
<polygon fill="white" stroke="#666666" points="794,-206 718,-206 718,-187 794,-187 794,-206"/>
<text text-anchor="middle" x="756" y="-194" font-family="Helvetica,sans-Serif" font-size="10.00">RingBuffer.h</text>
</a>
</g>
</g>
<!-- Node19&#45;&gt;Node20 -->
<g id="edge28_Node000019_Node000020" class="edge">
<title>Node19&#45;&gt;Node20</title>
<g id="a_edge28_Node000019_Node000020"><a xlink:title=" ">
<path fill="none" stroke="#63b8ff" d="M756,-241.75C756,-234.8 756,-224.85 756,-216.13"/>
<polygon fill="#63b8ff" stroke="#63b8ff" points="759.5,-216.09 756,-206.09 752.5,-216.09 759.5,-216.09"/>
</a>
</g>
</g>
<!-- Node23 -->
<g id="Node000023" class="node">
<title>Node23</title>
<g id="a_Node000023"><a xlink:title=" ">
<polygon fill="#e0e0e0" stroke="#999999" points="554,-145.5 504,-145.5 504,-126.5 554,-126.5 554,-145.5"/>
<text text-anchor="middle" x="529" y="-133.5" font-family="Helvetica,sans-Serif" font-size="10.00">atomic</text>
</a>
</g>
</g>
<!-- Node19&#45;&gt;Node23 -->
<g id="edge42_Node000019_Node000023" class="edge">
<title>Node19&#45;&gt;Node23</title>
<g id="a_edge42_Node000019_Node000023"><a xlink:title=" ">
<path fill="none" stroke="#63b8ff" d="M746.74,-241.98C731.81,-228.64 701.04,-202.7 671,-187 626.16,-163.56 610.42,-168.64 563,-151 561.58,-150.47 560.13,-149.92 558.67,-149.36"/>
<polygon fill="#63b8ff" stroke="#63b8ff" points="559.63,-145.97 549.05,-145.52 557.04,-152.47 559.63,-145.97"/>
</a>
</g>
</g>
<!-- Node25 -->
<g id="Node000025" class="node">
<title>Node25</title>
<g id="a_Node000025"><a xlink:href="Logger_8h.html" target="_top" xlink:title=" ">
<polygon fill="white" stroke="#666666" points="950,-151 840,-151 840,-121 950,-121 950,-151"/>
<text text-anchor="start" x="848" y="-139" font-family="Helvetica,sans-Serif" font-size="10.00">src/services/Logger</text>
<text text-anchor="middle" x="895" y="-128" font-family="Helvetica,sans-Serif" font-size="10.00">/Logger.h</text>
</a>
</g>
</g>
<!-- Node19&#45;&gt;Node25 -->
<g id="edge47_Node000019_Node000025" class="edge">
<title>Node19&#45;&gt;Node25</title>
<g id="a_edge47_Node000019_Node000025"><a xlink:title=" ">
<path fill="none" stroke="#63b8ff" d="M766.45,-241.97C788.24,-224.17 839.07,-182.67 869.89,-157.51"/>
<polygon fill="#63b8ff" stroke="#63b8ff" points="872.1,-160.22 877.63,-151.18 867.67,-154.79 872.1,-160.22"/>
</a>
</g>
</g>
<!-- Node27 -->
<g id="Node000027" class="node">
<title>Node27</title>
<g id="a_Node000027"><a xlink:href="Writer_8h.html" target="_top" xlink:title=" ">
<polygon fill="white" stroke="#666666" points="922.5,-206 867.5,-206 867.5,-187 922.5,-187 922.5,-206"/>
<text text-anchor="middle" x="895" y="-194" font-family="Helvetica,sans-Serif" font-size="10.00">Writer.h</text>
</a>
</g>
</g>
<!-- Node19&#45;&gt;Node27 -->
<g id="edge37_Node000019_Node000027" class="edge">
<title>Node19&#45;&gt;Node27</title>
<g id="a_edge37_Node000019_Node000027"><a xlink:title=" ">
<path fill="none" stroke="#63b8ff" d="M778.33,-241.98C801.2,-233.27 836.96,-219.63 862.86,-209.75"/>
<polygon fill="#63b8ff" stroke="#63b8ff" points="864.16,-213 872.26,-206.17 861.67,-206.46 864.16,-213"/>
</a>
</g>
</g>
<!-- Node28 -->
<g id="Node000028" class="node">
<title>Node28</title>
<g id="a_Node000028"><a xlink:title=" ">
<polygon fill="#e0e0e0" stroke="#999999" points="1130,-206 1082,-206 1082,-187 1130,-187 1130,-206"/>
<text text-anchor="middle" x="1106" y="-194" font-family="Helvetica,sans-Serif" font-size="10.00">thread</text>
</a>
</g>
</g>
<!-- Node19&#45;&gt;Node28 -->
<g id="edge44_Node000019_Node000028" class="edge">
<title>Node19&#45;&gt;Node28</title>
<g id="a_edge44_Node000019_Node000028"><a xlink:title=" ">
<path fill="none" stroke="#63b8ff" d="M826.89,-242C890.29,-234.01 985.65,-221.06 1068,-206 1069.27,-205.77 1070.57,-205.52 1071.87,-205.27"/>
<polygon fill="#63b8ff" stroke="#63b8ff" points="1072.85,-208.64 1081.94,-203.18 1071.43,-201.78 1072.85,-208.64"/>
</a>
</g>
</g>
<!-- Node29 -->
<g id="Node000029" class="node">
<title>Node29</title>
<g id="a_Node000029"><a xlink:title=" ">
<polygon fill="#e0e0e0" stroke="#999999" points="594,-206 544,-206 544,-187 594,-187 594,-206"/>
<text text-anchor="middle" x="569" y="-194" font-family="Helvetica,sans-Serif" font-size="10.00">chrono</text>
</a>
</g>
</g>
<!-- Node19&#45;&gt;Node29 -->
<g id="edge45_Node000019_Node000029" class="edge">
<title>Node19&#45;&gt;Node29</title>
<g id="a_edge45_Node000019_Node000029"><a xlink:title=" ">
<path fill="none" stroke="#63b8ff" d="M725.96,-241.98C692.69,-232.56 639.14,-217.38 604,-207.42"/>
<polygon fill="#63b8ff" stroke="#63b8ff" points="604.75,-203.99 594.17,-204.63 602.84,-210.73 604.75,-203.99"/>
</a>
</g>
</g>
<!-- Node30 -->
<g id="Node000030" class="node">
<title>Node30</title>
<g id="a_Node000030"><a xlink:title=" ">
<polygon fill="#e0e0e0" stroke="#999999" points="662,-206 612,-206 612,-187 662,-187 662,-206"/>
<text text-anchor="middle" x="637" y="-194" font-family="Helvetica,sans-Serif" font-size="10.00">format</text>
</a>
</g>
</g>
<!-- Node19&#45;&gt;Node30 -->
<g id="edge46_Node000019_Node000030" class="edge">
<title>Node19&#45;&gt;Node30</title>
<g id="a_edge46_Node000019_Node000030"><a xlink:title=" ">
<path fill="none" stroke="#63b8ff" d="M736.88,-241.98C717.65,-233.42 687.77,-220.11 665.69,-210.28"/>
<polygon fill="#63b8ff" stroke="#63b8ff" points="667.03,-207.04 656.47,-206.17 664.18,-213.44 667.03,-207.04"/>
</a>
</g>
</g>
<!-- Node20&#45;&gt;Node9 -->
<g id="edge30_Node000020_Node000009" class="edge">
<title>Node20&#45;&gt;Node9</title>
<g id="a_edge30_Node000020_Node000009"><a xlink:title=" ">
<path fill="none" stroke="#63b8ff" d="M753.9,-186.64C750.93,-172.03 747,-142.4 758,-121 782.64,-73.06 838.69,-40.15 873.73,-23.39"/>
<polygon fill="#63b8ff" stroke="#63b8ff" points="875.41,-26.47 883.02,-19.09 872.47,-20.12 875.41,-26.47"/>
</a>
</g>
</g>
<!-- Node21 -->
<g id="Node000021" class="node">
<title>Node21</title>
<g id="a_Node000021"><a xlink:title=" ">
<polygon fill="#e0e0e0" stroke="#999999" points="628,-145.5 572,-145.5 572,-126.5 628,-126.5 628,-145.5"/>
<text text-anchor="middle" x="600" y="-133.5" font-family="Helvetica,sans-Serif" font-size="10.00">QDebug</text>
</a>
</g>
</g>
<!-- Node20&#45;&gt;Node21 -->
<g id="edge29_Node000020_Node000021" class="edge">
<title>Node20&#45;&gt;Node21</title>
<g id="a_edge29_Node000020_Node000021"><a xlink:title=" ">
<path fill="none" stroke="#63b8ff" d="M733.18,-187C709.21,-178.06 670.44,-163.58 637,-151 635.41,-150.4 633.78,-149.79 632.13,-149.17"/>
<polygon fill="#63b8ff" stroke="#63b8ff" points="633.28,-145.86 622.69,-145.6 630.81,-152.41 633.28,-145.86"/>
</a>
</g>
</g>
<!-- Node22 -->
<g id="Node000022" class="node">
<title>Node22</title>
<g id="a_Node000022"><a xlink:title=" ">
<polygon fill="#e0e0e0" stroke="#999999" points="821.5,-145.5 766.5,-145.5 766.5,-126.5 821.5,-126.5 821.5,-145.5"/>
<text text-anchor="middle" x="794" y="-133.5" font-family="Helvetica,sans-Serif" font-size="10.00">fstream</text>
</a>
</g>
</g>
<!-- Node20&#45;&gt;Node22 -->
<g id="edge31_Node000020_Node000022" class="edge">
<title>Node20&#45;&gt;Node22</title>
<g id="a_edge31_Node000020_Node000022"><a xlink:title=" ">
<path fill="none" stroke="#63b8ff" d="M761.61,-186.87C767.16,-178.31 775.83,-164.97 782.8,-154.24"/>
<polygon fill="#63b8ff" stroke="#63b8ff" points="785.86,-155.96 788.37,-145.67 779.99,-152.15 785.86,-155.96"/>
</a>
</g>
</g>
<!-- Node20&#45;&gt;Node23 -->
<g id="edge32_Node000020_Node000023" class="edge">
<title>Node20&#45;&gt;Node23</title>
<g id="a_edge32_Node000020_Node000023"><a xlink:title=" ">
<path fill="none" stroke="#63b8ff" d="M717.78,-188.61C678.48,-181.08 615.75,-167.82 563,-151 561.33,-150.47 559.62,-149.89 557.91,-149.28"/>
<polygon fill="#63b8ff" stroke="#63b8ff" points="558.81,-145.87 548.21,-145.55 556.3,-152.41 558.81,-145.87"/>
</a>
</g>
</g>
<!-- Node24 -->
<g id="Node000024" class="node">
<title>Node24</title>
<g id="a_Node000024"><a xlink:title=" ">
<polygon fill="#e0e0e0" stroke="#999999" points="710,-145.5 646,-145.5 646,-126.5 710,-126.5 710,-145.5"/>
<text text-anchor="middle" x="678" y="-133.5" font-family="Helvetica,sans-Serif" font-size="10.00">algorithm</text>
</a>
</g>
</g>
<!-- Node20&#45;&gt;Node24 -->
<g id="edge33_Node000020_Node000024" class="edge">
<title>Node20&#45;&gt;Node24</title>
<g id="a_edge33_Node000020_Node000024"><a xlink:title=" ">
<path fill="none" stroke="#63b8ff" d="M744.49,-186.87C732.16,-177.62 712.38,-162.78 697.59,-151.69"/>
<polygon fill="#63b8ff" stroke="#63b8ff" points="699.66,-148.87 689.56,-145.67 695.46,-154.47 699.66,-148.87"/>
</a>
</g>
</g>
<!-- Node20&#45;&gt;Node25 -->
<g id="edge34_Node000020_Node000025" class="edge">
<title>Node20&#45;&gt;Node25</title>
<g id="a_edge34_Node000020_Node000025"><a xlink:title=" ">
<path fill="none" stroke="#63b8ff" d="M776.21,-186.99C796.04,-178.65 826.9,-165.66 852.19,-155.02"/>
<polygon fill="#63b8ff" stroke="#63b8ff" points="853.72,-158.17 861.58,-151.06 851.01,-151.72 853.72,-158.17"/>
</a>
</g>
</g>
<!-- Node25&#45;&gt;Node7 -->
<g id="edge36_Node000025_Node000007" class="edge">
<title>Node25&#45;&gt;Node7</title>
<g id="a_edge36_Node000025_Node000007"><a xlink:title=" ">
<path fill="none" stroke="#63b8ff" d="M839.86,-122.84C836.87,-122.21 833.9,-121.59 831,-121 762.85,-107.02 684.44,-92.16 631.49,-82.31"/>
<polygon fill="#63b8ff" stroke="#63b8ff" points="632.05,-78.86 621.58,-80.47 630.77,-85.74 632.05,-78.86"/>
</a>
</g>
</g>
<!-- Node26 -->
<g id="Node000026" class="node">
<title>Node26</title>
<g id="a_Node000026"><a xlink:title=" ">
<polygon fill="#e0e0e0" stroke="#999999" points="924.5,-79.5 865.5,-79.5 865.5,-60.5 924.5,-60.5 924.5,-79.5"/>
<text text-anchor="middle" x="895" y="-67.5" font-family="Helvetica,sans-Serif" font-size="10.00">QWidget</text>
</a>
</g>
</g>
<!-- Node25&#45;&gt;Node26 -->
<g id="edge35_Node000025_Node000026" class="edge">
<title>Node25&#45;&gt;Node26</title>
<g id="a_edge35_Node000025_Node000026"><a xlink:title=" ">
<path fill="none" stroke="#63b8ff" d="M895,-120.8C895,-111.7 895,-99.79 895,-89.9"/>
<polygon fill="#63b8ff" stroke="#63b8ff" points="898.5,-89.84 895,-79.84 891.5,-89.84 898.5,-89.84"/>
</a>
</g>
</g>
<!-- Node27&#45;&gt;Node6 -->
<g id="edge40_Node000027_Node000006" class="edge">
<title>Node27&#45;&gt;Node6</title>
<g id="a_edge40_Node000027_Node000006"><a xlink:title=" ">
<path fill="none" stroke="#63b8ff" d="M916.79,-186.87C931.64,-179.69 950.16,-167.91 959,-151 979.42,-111.93 967.43,-83.75 934,-55 908.11,-32.74 810.78,-19.35 759.33,-13.68"/>
<polygon fill="#63b8ff" stroke="#63b8ff" points="759.41,-10.17 749.09,-12.59 758.66,-17.13 759.41,-10.17"/>
</a>
</g>
</g>
<!-- Node27&#45;&gt;Node9 -->
<g id="edge38_Node000027_Node000009" class="edge">
<title>Node27&#45;&gt;Node9</title>
<g id="a_edge38_Node000027_Node000009"><a xlink:title=" ">
<path fill="none" stroke="#63b8ff" d="M922.95,-191.07C945.86,-185.8 976.89,-174.55 992,-151 1015.04,-115.09 1014.35,-91.35 992,-55 980.39,-36.12 958.03,-24.96 938.75,-18.53"/>
<polygon fill="#63b8ff" stroke="#63b8ff" points="939.61,-15.14 929.02,-15.59 937.58,-21.84 939.61,-15.14"/>
</a>
</g>
</g>
<!-- Node27&#45;&gt;Node22 -->
<g id="edge39_Node000027_Node000022" class="edge">
<title>Node27&#45;&gt;Node22</title>
<g id="a_edge39_Node000027_Node000022"><a xlink:title=" ">
<path fill="none" stroke="#63b8ff" d="M880.1,-186.87C863.69,-177.36 837.07,-161.95 817.77,-150.77"/>
<polygon fill="#63b8ff" stroke="#63b8ff" points="819.37,-147.65 808.96,-145.67 815.86,-153.71 819.37,-147.65"/>
</a>
</g>
</g>
<!-- Node27&#45;&gt;Node25 -->
<g id="edge41_Node000027_Node000025" class="edge">
<title>Node27&#45;&gt;Node25</title>
<g id="a_edge41_Node000027_Node000025"><a xlink:title=" ">
<path fill="none" stroke="#63b8ff" d="M895,-186.87C895,-180.11 895,-170.35 895,-161.26"/>
<polygon fill="#63b8ff" stroke="#63b8ff" points="898.5,-161.11 895,-151.11 891.5,-161.11 898.5,-161.11"/>
</a>
</g>
</g>
</g>
</svg>
