<?xml version="1.0" encoding="UTF-8" standalone="no"?>
<!DOCTYPE svg PUBLIC "-//W3C//DTD SVG 1.1//EN"
 "http://www.w3.org/Graphics/SVG/1.1/DTD/svg11.dtd">
<!-- Generated by graphviz version 2.43.0 (0)
 -->
<!-- Title: services/AppServices.cpp Pages: 1 -->
<!--zoomable 390 -->

<svg id="main" version="1.1" xmlns="http://www.w3.org/2000/svg" xmlns:xlink="http://www.w3.org/1999/xlink" xml:space="preserve" onload="init(evt)">
<style type="text/css"><![CDATA[
.node, .edge {opacity: 0.7;}
.node.selected, .edge.selected {opacity: 1;}
.edge:hover path { stroke: red; }
.edge:hover polygon { stroke: red; fill: red; }
]]></style>

<defs>
  <circle id="rim" cx="0" cy="0" r="7"/>
  <circle id="rim2" cx="0" cy="0" r="3.5"/>
  <g id="zoomPlus">
    <use xlink:href="#rim" fill="#404040"><set attributeName="fill" to="#808080" begin="zoomplus.mouseover" end="zoomplus.mouseout"/></use>
    <path d="M-4,0h8M0,-4v8" fill="none" stroke="white" stroke-width="1.5" pointer-events="none"/>
  </g>
  <g id="zoomMin">
    <use xlink:href="#rim" fill="#404040"><set attributeName="fill" to="#808080" begin="zoomminus.mouseover" end="zoomminus.mouseout"/></use>
    <path d="M-4,0h8" fill="none" stroke="white" stroke-width="1.5" pointer-events="none"/>
  </g>
  <g id="arrowUp" transform="translate(30 24)">
    <use xlink:href="#rim"/>
    <path pointer-events="none" fill="none" stroke="white" stroke-width="1.5" d="M0,-3.0v7 M-2.5,-0.5L0,-3.0L2.5,-0.5"/>
  </g>
  <g id="arrowRight" transform="rotate(90) translate(36 -43)">
    <use xlink:href="#rim"/>
    <path pointer-events="none" fill="none" stroke="white" stroke-width="1.5" d="M0,-3.0v7 M-2.5,-0.5L0,-3.0L2.5,-0.5"/>
  </g>
  <g id="arrowDown" transform="rotate(180) translate(-30 -48)">
    <use xlink:href="#rim"/>
    <path pointer-events="none" fill="none" stroke="white" stroke-width="1.5" d="M0,-3.0v7 M-2.5,-0.5L0,-3.0L2.5,-0.5"/>
  </g>
  <g id="arrowLeft" transform="rotate(270) translate(-36 17)">
    <use xlink:href="#rim"/>
    <path pointer-events="none" fill="none" stroke="white" stroke-width="1.5" d="M0,-3.0v7 M-2.5,-0.5L0,-3.0L2.5,-0.5"/>
  </g>
  <g id="resetDef">
    <use xlink:href="#rim2" fill="#404040"><set attributeName="fill" to="#808080" begin="reset.mouseover" end="reset.mouseout"/></use>
  </g>
</defs>
<script type="application/ecmascript">
var viewWidth = 1101;
var viewHeight = 390;
var sectionId = 'dynsection-0';
</script>
<script type="application/ecmascript" xlink:href="svg.min.js"/>
<svg id="graph" class="graph">
<g id="viewport">
<title>services/AppServices.cpp</title>
<!-- Node1 -->
<g id="Node000001" class="node">
<title>Node1</title>
<g id="a_Node000001"><a xlink:title=" ">
<polygon fill="#999999" stroke="#666666" points="859.33,-382 719.33,-382 719.33,-363 859.33,-363 859.33,-382"/>
<text text-anchor="middle" x="789.33" y="-370" font-family="Helvetica,sans-Serif" font-size="10.00">services/AppServices.cpp</text>
</a>
</g>
</g>
<!-- Node2 -->
<g id="Node000002" class="node">
<title>Node2</title>
<g id="a_Node000002"><a xlink:href="AppServices_8h.html" target="_top" xlink:title=" ">
<polygon fill="white" stroke="#666666" points="832.33,-321.5 746.33,-321.5 746.33,-302.5 832.33,-302.5 832.33,-321.5"/>
<text text-anchor="middle" x="789.33" y="-309.5" font-family="Helvetica,sans-Serif" font-size="10.00">AppServices.h</text>
</a>
</g>
</g>
<!-- Node1&#45;&gt;Node2 -->
<g id="edge1_Node000001_Node000002" class="edge">
<title>Node1&#45;&gt;Node2</title>
<g id="a_edge1_Node000001_Node000002"><a xlink:title=" ">
<path fill="none" stroke="#63b8ff" d="M789.33,-362.87C789.33,-354.75 789.33,-342.31 789.33,-331.89"/>
<polygon fill="#63b8ff" stroke="#63b8ff" points="792.83,-331.67 789.33,-321.67 785.83,-331.67 792.83,-331.67"/>
</a>
</g>
</g>
<!-- Node5 -->
<g id="Node000005" class="node">
<title>Node5</title>
<g id="a_Node000005"><a xlink:href="UdpChannel_8h.html" target="_top" xlink:title="UDP Communicaton channel between the microcontroler and the HMI.">
<polygon fill="white" stroke="#666666" points="619.83,-327 466.83,-327 466.83,-297 619.83,-297 619.83,-327"/>
<text text-anchor="start" x="474.83" y="-315" font-family="Helvetica,sans-Serif" font-size="10.00">src/features/communication</text>
<text text-anchor="middle" x="543.33" y="-304" font-family="Helvetica,sans-Serif" font-size="10.00">/udp/UdpChannel.h</text>
</a>
</g>
</g>
<!-- Node1&#45;&gt;Node5 -->
<g id="edge4_Node000001_Node000005" class="edge">
<title>Node1&#45;&gt;Node5</title>
<g id="a_edge4_Node000001_Node000005"><a xlink:title=" ">
<path fill="none" stroke="#63b8ff" d="M753.56,-362.99C716.69,-354.23 658.27,-340.33 612.37,-329.42"/>
<polygon fill="#63b8ff" stroke="#63b8ff" points="613.02,-325.97 602.48,-327.06 611.4,-332.78 613.02,-325.97"/>
</a>
</g>
</g>
<!-- Node22 -->
<g id="Node000022" class="node">
<title>Node22</title>
<g id="a_Node000022"><a xlink:href="Logger_8h.html" target="_top" xlink:title=" ">
<polygon fill="white" stroke="#666666" points="496.33,-151 386.33,-151 386.33,-121 496.33,-121 496.33,-151"/>
<text text-anchor="start" x="394.33" y="-139" font-family="Helvetica,sans-Serif" font-size="10.00">src/services/Logger</text>
<text text-anchor="middle" x="441.33" y="-128" font-family="Helvetica,sans-Serif" font-size="10.00">/Logger.h</text>
</a>
</g>
</g>
<!-- Node1&#45;&gt;Node22 -->
<g id="edge38_Node000001_Node000022" class="edge">
<title>Node1&#45;&gt;Node22</title>
<g id="a_edge38_Node000001_Node000022"><a xlink:title=" ">
<path fill="none" stroke="#63b8ff" d="M775.77,-362.95C762.08,-354.21 740.43,-340.1 722.33,-327 672.85,-291.18 664.54,-276.8 614.33,-242 567.68,-209.66 511.01,-176.32 475.55,-156.12"/>
<polygon fill="#63b8ff" stroke="#63b8ff" points="477,-152.92 466.57,-151.03 473.54,-159.01 477,-152.92"/>
</a>
</g>
</g>
<!-- Node28 -->
<g id="Node000028" class="node">
<title>Node28</title>
<g id="a_Node000028"><a xlink:href="TxtParser_8h.html" target="_top" xlink:title=" ">
<polygon fill="white" stroke="#666666" points="802.83,-145.5 661.83,-145.5 661.83,-126.5 802.83,-126.5 802.83,-145.5"/>
<text text-anchor="middle" x="732.33" y="-133.5" font-family="Helvetica,sans-Serif" font-size="10.00">./TXTManager/TxtParser.h</text>
</a>
</g>
</g>
<!-- Node1&#45;&gt;Node28 -->
<g id="edge39_Node000001_Node000028" class="edge">
<title>Node1&#45;&gt;Node28</title>
<g id="a_edge39_Node000001_Node000028"><a xlink:title=" ">
<path fill="none" stroke="#63b8ff" d="M774.36,-362.98C762.25,-355.24 745.87,-342.65 737.33,-327 706.83,-271.06 719.5,-191.41 727.57,-155.64"/>
<polygon fill="#63b8ff" stroke="#63b8ff" points="731.03,-156.2 729.96,-145.66 724.23,-154.56 731.03,-156.2"/>
</a>
</g>
</g>
<!-- Node29 -->
<g id="Node000029" class="node">
<title>Node29</title>
<g id="a_Node000029"><a xlink:href="CsvExporter_8h.html" target="_top" xlink:title=" ">
<polygon fill="white" stroke="#666666" points="931.83,-85 802.83,-85 802.83,-55 931.83,-55 931.83,-85"/>
<text text-anchor="start" x="810.83" y="-73" font-family="Helvetica,sans-Serif" font-size="10.00">src/features/file_export</text>
<text text-anchor="middle" x="867.33" y="-62" font-family="Helvetica,sans-Serif" font-size="10.00">/csv/CsvExporter.h</text>
</a>
</g>
</g>
<!-- Node1&#45;&gt;Node29 -->
<g id="edge42_Node000001_Node000029" class="edge">
<title>Node1&#45;&gt;Node29</title>
<g id="a_edge42_Node000001_Node000029"><a xlink:title=" ">
<path fill="none" stroke="#63b8ff" d="M802.98,-362.76C814.58,-354.71 830.97,-341.79 841.33,-327 861.63,-298.03 869.33,-287.87 869.33,-252.5 869.33,-252.5 869.33,-252.5 869.33,-195.5 869.33,-160.66 868.54,-120.35 867.95,-95.26"/>
<polygon fill="#63b8ff" stroke="#63b8ff" points="871.45,-95.1 867.71,-85.19 864.45,-95.27 871.45,-95.1"/>
</a>
</g>
</g>
<!-- Node31 -->
<g id="Node000031" class="node">
<title>Node31</title>
<g id="a_Node000031"><a xlink:href="FileSystem_8h.html" target="_top" xlink:title=" ">
<polygon fill="white" stroke="#666666" points="1092.83,-79.5 949.83,-79.5 949.83,-60.5 1092.83,-60.5 1092.83,-79.5"/>
<text text-anchor="middle" x="1021.33" y="-67.5" font-family="Helvetica,sans-Serif" font-size="10.00">./FileSystem/FileSystem.h</text>
</a>
</g>
</g>
<!-- Node1&#45;&gt;Node31 -->
<g id="edge46_Node000001_Node000031" class="edge">
<title>Node1&#45;&gt;Node31</title>
<g id="a_edge46_Node000001_Node000031"><a xlink:title=" ">
<path fill="none" stroke="#63b8ff" d="M810.36,-362.88C826.85,-355.32 849.57,-343.02 865.33,-327 891.99,-299.9 907.33,-290.51 907.33,-252.5 907.33,-252.5 907.33,-252.5 907.33,-195.5 907.33,-143.8 961.47,-104.23 995.13,-84.63"/>
<polygon fill="#63b8ff" stroke="#63b8ff" points="997.02,-87.58 1004.02,-79.63 993.59,-81.48 997.02,-87.58"/>
</a>
</g>
</g>
<!-- Node32 -->
<g id="Node000032" class="node">
<title>Node32</title>
<g id="a_Node000032"><a xlink:href="Timer_8h.html" target="_top" xlink:title=" ">
<polygon fill="white" stroke="#666666" points="1026.83,-321.5 935.83,-321.5 935.83,-302.5 1026.83,-302.5 1026.83,-321.5"/>
<text text-anchor="middle" x="981.33" y="-309.5" font-family="Helvetica,sans-Serif" font-size="10.00">./Timer/Timer.h</text>
</a>
</g>
</g>
<!-- Node1&#45;&gt;Node32 -->
<g id="edge48_Node000001_Node000032" class="edge">
<title>Node1&#45;&gt;Node32</title>
<g id="a_edge48_Node000001_Node000032"><a xlink:title=" ">
<path fill="none" stroke="#63b8ff" d="M817.25,-362.99C850.53,-352.86 906.28,-335.87 943.43,-324.55"/>
<polygon fill="#63b8ff" stroke="#63b8ff" points="944.84,-327.78 953.38,-321.52 942.8,-321.08 944.84,-327.78"/>
</a>
</g>
</g>
<!-- Node3 -->
<g id="Node000003" class="node">
<title>Node3</title>
<g id="a_Node000003"><a xlink:title=" ">
<polygon fill="#e0e0e0" stroke="#999999" points="789.33,-19 733.33,-19 733.33,0 789.33,0 789.33,-19"/>
<text text-anchor="middle" x="761.33" y="-7" font-family="Helvetica,sans-Serif" font-size="10.00">QObject</text>
</a>
</g>
</g>
<!-- Node2&#45;&gt;Node3 -->
<g id="edge2_Node000002_Node000003" class="edge">
<title>Node2&#45;&gt;Node3</title>
<g id="a_edge2_Node000002_Node000003"><a xlink:title=" ">
<path fill="none" stroke="#63b8ff" d="M794.58,-302.17C800.01,-292.46 808.13,-276.22 811.33,-261 824.14,-200.11 825.63,-181.56 811.33,-121 807.22,-103.59 800.87,-101.23 793.33,-85 784.47,-65.91 775.05,-43.71 768.74,-28.54"/>
<polygon fill="#63b8ff" stroke="#63b8ff" points="771.97,-27.19 764.92,-19.29 765.5,-29.87 771.97,-27.19"/>
</a>
</g>
</g>
<!-- Node4 -->
<g id="Node000004" class="node">
<title>Node4</title>
<g id="a_Node000004"><a xlink:title=" ">
<polygon fill="#e0e0e0" stroke="#999999" points="802.83,-261 737.83,-261 737.83,-242 802.83,-242 802.83,-261"/>
<text text-anchor="middle" x="770.33" y="-249" font-family="Helvetica,sans-Serif" font-size="10.00">typeindex</text>
</a>
</g>
</g>
<!-- Node2&#45;&gt;Node4 -->
<g id="edge3_Node000002_Node000004" class="edge">
<title>Node2&#45;&gt;Node4</title>
<g id="a_edge3_Node000002_Node000004"><a xlink:title=" ">
<path fill="none" stroke="#63b8ff" d="M786.53,-302.37C783.84,-294.07 779.68,-281.28 776.25,-270.72"/>
<polygon fill="#63b8ff" stroke="#63b8ff" points="779.57,-269.6 773.15,-261.17 772.91,-271.76 779.57,-269.6"/>
</a>
</g>
</g>
<!-- Node5&#45;&gt;Node3 -->
<g id="edge5_Node000005_Node000003" class="edge">
<title>Node5&#45;&gt;Node3</title>
<g id="a_edge5_Node000005_Node000003"><a xlink:title=" ">
<path fill="none" stroke="#63b8ff" d="M571.79,-296.93C586.41,-288.38 603.41,-276.17 614.33,-261 631.55,-237.09 633.33,-226.96 633.33,-197.5 633.33,-197.5 633.33,-197.5 633.33,-135 633.33,-80.42 693.89,-42.02 731.7,-23.37"/>
<polygon fill="#63b8ff" stroke="#63b8ff" points="733.24,-26.51 740.77,-19.05 730.24,-20.19 733.24,-26.51"/>
</a>
</g>
</g>
<!-- Node6 -->
<g id="Node000006" class="node">
<title>Node6</title>
<g id="a_Node000006"><a xlink:title=" ">
<polygon fill="#e0e0e0" stroke="#999999" points="605.33,-261 547.33,-261 547.33,-242 605.33,-242 605.33,-261"/>
<text text-anchor="middle" x="576.33" y="-249" font-family="Helvetica,sans-Serif" font-size="10.00">QThread</text>
</a>
</g>
</g>
<!-- Node5&#45;&gt;Node6 -->
<g id="edge6_Node000005_Node000006" class="edge">
<title>Node5&#45;&gt;Node6</title>
<g id="a_edge6_Node000005_Node000006"><a xlink:title=" ">
<path fill="none" stroke="#63b8ff" d="M551.32,-296.84C555.87,-288.78 561.6,-278.62 566.43,-270.06"/>
<polygon fill="#63b8ff" stroke="#63b8ff" points="569.52,-271.7 571.39,-261.27 563.43,-268.26 569.52,-271.7"/>
</a>
</g>
</g>
<!-- Node7 -->
<g id="Node000007" class="node">
<title>Node7</title>
<g id="a_Node000007"><a xlink:title=" ">
<polygon fill="#e0e0e0" stroke="#999999" points="491.33,-261 415.33,-261 415.33,-242 491.33,-242 491.33,-261"/>
<text text-anchor="middle" x="453.33" y="-249" font-family="Helvetica,sans-Serif" font-size="10.00">QUdpSocket</text>
</a>
</g>
</g>
<!-- Node5&#45;&gt;Node7 -->
<g id="edge7_Node000005_Node000007" class="edge">
<title>Node5&#45;&gt;Node7</title>
<g id="a_edge7_Node000005_Node000007"><a xlink:title=" ">
<path fill="none" stroke="#63b8ff" d="M521.55,-296.84C507.47,-287.68 489.21,-275.82 475.12,-266.66"/>
<polygon fill="#63b8ff" stroke="#63b8ff" points="476.85,-263.61 466.56,-261.09 473.03,-269.48 476.85,-263.61"/>
</a>
</g>
</g>
<!-- Node8 -->
<g id="Node000008" class="node">
<title>Node8</title>
<g id="a_Node000008"><a xlink:href="Messages_8h.html" target="_top" xlink:title=" ">
<polygon fill="white" stroke="#666666" points="566.83,-85 463.83,-85 463.83,-55 566.83,-55 566.83,-85"/>
<text text-anchor="start" x="471.83" y="-73" font-family="Helvetica,sans-Serif" font-size="10.00">src/core/Protocols</text>
<text text-anchor="middle" x="515.33" y="-62" font-family="Helvetica,sans-Serif" font-size="10.00">/Messages.h</text>
</a>
</g>
</g>
<!-- Node5&#45;&gt;Node8 -->
<g id="edge8_Node000005_Node000008" class="edge">
<title>Node5&#45;&gt;Node8</title>
<g id="a_edge8_Node000005_Node000008"><a xlink:title=" ">
<path fill="none" stroke="#63b8ff" d="M541.67,-296.71C537.04,-257.02 523.98,-145.14 518.18,-95.39"/>
<polygon fill="#63b8ff" stroke="#63b8ff" points="521.63,-94.75 516.99,-85.22 514.68,-95.56 521.63,-94.75"/>
</a>
</g>
</g>
<!-- Node16 -->
<g id="Node000016" class="node">
<title>Node16</title>
<g id="a_Node000016"><a xlink:href="UdpLogger_8h.html" target="_top" xlink:title=" ">
<polygon fill="white" stroke="#666666" points="312.83,-261 161.83,-261 161.83,-242 312.83,-242 312.83,-261"/>
<text text-anchor="middle" x="237.33" y="-249" font-family="Helvetica,sans-Serif" font-size="10.00">frames_logger/UdpLogger.h</text>
</a>
</g>
</g>
<!-- Node5&#45;&gt;Node16 -->
<g id="edge17_Node000005_Node000016" class="edge">
<title>Node5&#45;&gt;Node16</title>
<g id="a_edge17_Node000005_Node000016"><a xlink:title=" ">
<path fill="none" stroke="#63b8ff" d="M470.04,-296.99C415.29,-286.52 341.64,-272.44 291.98,-262.95"/>
<polygon fill="#63b8ff" stroke="#63b8ff" points="292.56,-259.49 282.08,-261.05 291.24,-266.37 292.56,-259.49"/>
</a>
</g>
</g>
<!-- Node8&#45;&gt;Node3 -->
<g id="edge15_Node000008_Node000003" class="edge">
<title>Node8&#45;&gt;Node3</title>
<g id="a_edge15_Node000008_Node000003"><a xlink:title=" ">
<path fill="none" stroke="#63b8ff" d="M566.9,-56.74C613.63,-45.62 681.4,-29.51 723.35,-19.53"/>
<polygon fill="#63b8ff" stroke="#63b8ff" points="724.26,-22.92 733.17,-17.2 722.64,-16.11 724.26,-22.92"/>
</a>
</g>
</g>
<!-- Node9 -->
<g id="Node000009" class="node">
<title>Node9</title>
<g id="a_Node000009"><a xlink:title=" ">
<polygon fill="#e0e0e0" stroke="#999999" points="408.83,-19 357.83,-19 357.83,0 408.83,0 408.83,-19"/>
<text text-anchor="middle" x="383.33" y="-7" font-family="Helvetica,sans-Serif" font-size="10.00">variant</text>
</a>
</g>
</g>
<!-- Node8&#45;&gt;Node9 -->
<g id="edge9_Node000008_Node000009" class="edge">
<title>Node8&#45;&gt;Node9</title>
<g id="a_edge9_Node000008_Node000009"><a xlink:title=" ">
<path fill="none" stroke="#63b8ff" d="M483.72,-54.99C461.99,-45.36 433.36,-32.67 412.24,-23.31"/>
<polygon fill="#63b8ff" stroke="#63b8ff" points="413.39,-19.99 402.83,-19.14 410.55,-26.39 413.39,-19.99"/>
</a>
</g>
</g>
<!-- Node10 -->
<g id="Node000010" class="node">
<title>Node10</title>
<g id="a_Node000010"><a xlink:title=" ">
<polygon fill="#e0e0e0" stroke="#999999" points="209.33,-19 159.33,-19 159.33,0 209.33,0 209.33,-19"/>
<text text-anchor="middle" x="184.33" y="-7" font-family="Helvetica,sans-Serif" font-size="10.00">cstdint</text>
</a>
</g>
</g>
<!-- Node8&#45;&gt;Node10 -->
<g id="edge10_Node000008_Node000010" class="edge">
<title>Node8&#45;&gt;Node10</title>
<g id="a_edge10_Node000008_Node000010"><a xlink:title=" ">
<path fill="none" stroke="#63b8ff" d="M463.8,-56.93C460.6,-56.26 457.43,-55.61 454.33,-55 370.39,-38.47 270.93,-23.17 219.33,-15.56"/>
<polygon fill="#63b8ff" stroke="#63b8ff" points="219.77,-12.08 209.37,-14.09 218.75,-19.01 219.77,-12.08"/>
</a>
</g>
</g>
<!-- Node11 -->
<g id="Node000011" class="node">
<title>Node11</title>
<g id="a_Node000011"><a xlink:title=" ">
<polygon fill="#e0e0e0" stroke="#999999" points="700.33,-19 656.33,-19 656.33,0 700.33,0 700.33,-19"/>
<text text-anchor="middle" x="678.33" y="-7" font-family="Helvetica,sans-Serif" font-size="10.00">string</text>
</a>
</g>
</g>
<!-- Node8&#45;&gt;Node11 -->
<g id="edge11_Node000008_Node000011" class="edge">
<title>Node8&#45;&gt;Node11</title>
<g id="a_edge11_Node000008_Node000011"><a xlink:title=" ">
<path fill="none" stroke="#63b8ff" d="M554.38,-54.99C582.61,-44.86 620.26,-31.34 646.63,-21.88"/>
<polygon fill="#63b8ff" stroke="#63b8ff" points="647.92,-25.14 656.15,-18.46 645.55,-18.55 647.92,-25.14"/>
</a>
</g>
</g>
<!-- Node12 -->
<g id="Node000012" class="node">
<title>Node12</title>
<g id="a_Node000012"><a xlink:title=" ">
<polygon fill="#e0e0e0" stroke="#999999" points="499.83,-19 426.83,-19 426.83,0 499.83,0 499.83,-19"/>
<text text-anchor="middle" x="463.33" y="-7" font-family="Helvetica,sans-Serif" font-size="10.00">QByteArray</text>
</a>
</g>
</g>
<!-- Node8&#45;&gt;Node12 -->
<g id="edge12_Node000008_Node000012" class="edge">
<title>Node8&#45;&gt;Node12</title>
<g id="a_edge12_Node000008_Node000012"><a xlink:title=" ">
<path fill="none" stroke="#63b8ff" d="M502.75,-54.84C495.28,-46.43 485.77,-35.74 477.97,-26.96"/>
<polygon fill="#63b8ff" stroke="#63b8ff" points="480.39,-24.41 471.13,-19.27 475.15,-29.07 480.39,-24.41"/>
</a>
</g>
</g>
<!-- Node13 -->
<g id="Node000013" class="node">
<title>Node13</title>
<g id="a_Node000013"><a xlink:title=" ">
<polygon fill="#e0e0e0" stroke="#999999" points="566.83,-19 517.83,-19 517.83,0 566.83,0 566.83,-19"/>
<text text-anchor="middle" x="542.33" y="-7" font-family="Helvetica,sans-Serif" font-size="10.00">QHash</text>
</a>
</g>
</g>
<!-- Node8&#45;&gt;Node13 -->
<g id="edge13_Node000008_Node000013" class="edge">
<title>Node8&#45;&gt;Node13</title>
<g id="a_edge13_Node000008_Node000013"><a xlink:title=" ">
<path fill="none" stroke="#63b8ff" d="M521.87,-54.84C525.51,-46.95 530.08,-37.05 533.98,-28.61"/>
<polygon fill="#63b8ff" stroke="#63b8ff" points="537.28,-29.81 538.29,-19.27 530.92,-26.88 537.28,-29.81"/>
</a>
</g>
</g>
<!-- Node14 -->
<g id="Node000014" class="node">
<title>Node14</title>
<g id="a_Node000014"><a xlink:title=" ">
<polygon fill="#e0e0e0" stroke="#999999" points="637.83,-19 584.83,-19 584.83,0 637.83,0 637.83,-19"/>
<text text-anchor="middle" x="611.33" y="-7" font-family="Helvetica,sans-Serif" font-size="10.00">QString</text>
</a>
</g>
</g>
<!-- Node8&#45;&gt;Node14 -->
<g id="edge14_Node000008_Node000014" class="edge">
<title>Node8&#45;&gt;Node14</title>
<g id="a_edge14_Node000008_Node000014"><a xlink:title=" ">
<path fill="none" stroke="#63b8ff" d="M538.57,-54.84C553.74,-45.6 573.44,-33.59 588.52,-24.4"/>
<polygon fill="#63b8ff" stroke="#63b8ff" points="590.51,-27.29 597.23,-19.09 586.87,-21.31 590.51,-27.29"/>
</a>
</g>
</g>
<!-- Node15 -->
<g id="Node000015" class="node">
<title>Node15</title>
<g id="a_Node000015"><a xlink:title=" ">
<polygon fill="#e0e0e0" stroke="#999999" points="339.83,-19 294.83,-19 294.83,0 339.83,0 339.83,-19"/>
<text text-anchor="middle" x="317.33" y="-7" font-family="Helvetica,sans-Serif" font-size="10.00">QMap</text>
</a>
</g>
</g>
<!-- Node8&#45;&gt;Node15 -->
<g id="edge16_Node000008_Node000015" class="edge">
<title>Node8&#45;&gt;Node15</title>
<g id="a_edge16_Node000008_Node000015"><a xlink:title=" ">
<path fill="none" stroke="#63b8ff" d="M467.91,-54.99C431.36,-44.19 381.81,-29.55 349.7,-20.06"/>
<polygon fill="#63b8ff" stroke="#63b8ff" points="350.51,-16.65 339.93,-17.18 348.53,-23.37 350.51,-16.65"/>
</a>
</g>
</g>
<!-- Node16&#45;&gt;Node10 -->
<g id="edge33_Node000016_Node000010" class="edge">
<title>Node16&#45;&gt;Node10</title>
<g id="a_edge33_Node000016_Node000010"><a xlink:title=" ">
<path fill="none" stroke="#63b8ff" d="M161.38,-246.94C122.05,-241.93 74.95,-230.69 39.33,-206 15.32,-189.36 11.68,-179 3.33,-151 -18.16,-78.9 90.91,-36.64 149.35,-19.49"/>
<polygon fill="#63b8ff" stroke="#63b8ff" points="150.62,-22.77 159.29,-16.67 148.71,-16.03 150.62,-22.77"/>
</a>
</g>
</g>
<!-- Node17 -->
<g id="Node000017" class="node">
<title>Node17</title>
<g id="a_Node000017"><a xlink:href="RingBuffer_8h.html" target="_top" xlink:title=" ">
<polygon fill="white" stroke="#666666" points="275.33,-206 199.33,-206 199.33,-187 275.33,-187 275.33,-206"/>
<text text-anchor="middle" x="237.33" y="-194" font-family="Helvetica,sans-Serif" font-size="10.00">RingBuffer.h</text>
</a>
</g>
</g>
<!-- Node16&#45;&gt;Node17 -->
<g id="edge18_Node000016_Node000017" class="edge">
<title>Node16&#45;&gt;Node17</title>
<g id="a_edge18_Node000016_Node000017"><a xlink:title=" ">
<path fill="none" stroke="#63b8ff" d="M237.33,-241.75C237.33,-234.8 237.33,-224.85 237.33,-216.13"/>
<polygon fill="#63b8ff" stroke="#63b8ff" points="240.83,-216.09 237.33,-206.09 233.83,-216.09 240.83,-216.09"/>
</a>
</g>
</g>
<!-- Node20 -->
<g id="Node000020" class="node">
<title>Node20</title>
<g id="a_Node000020"><a xlink:title=" ">
<polygon fill="#e0e0e0" stroke="#999999" points="62.33,-145.5 12.33,-145.5 12.33,-126.5 62.33,-126.5 62.33,-145.5"/>
<text text-anchor="middle" x="37.33" y="-133.5" font-family="Helvetica,sans-Serif" font-size="10.00">atomic</text>
</a>
</g>
</g>
<!-- Node16&#45;&gt;Node20 -->
<g id="edge32_Node000016_Node000020" class="edge">
<title>Node16&#45;&gt;Node20</title>
<g id="a_edge32_Node000016_Node000020"><a xlink:title=" ">
<path fill="none" stroke="#63b8ff" d="M172.47,-241.94C126.82,-234.62 71.01,-222.62 54.33,-206 41.12,-192.82 37.58,-171.12 36.91,-155.58"/>
<polygon fill="#63b8ff" stroke="#63b8ff" points="40.41,-155.52 36.82,-145.55 33.41,-155.58 40.41,-155.52"/>
</a>
</g>
</g>
<!-- Node16&#45;&gt;Node22 -->
<g id="edge37_Node000016_Node000022" class="edge">
<title>Node16&#45;&gt;Node22</title>
<g id="a_edge37_Node000016_Node000022"><a xlink:title=" ">
<path fill="none" stroke="#63b8ff" d="M304.57,-241.97C351.03,-234.72 407.4,-222.81 424.33,-206 436.03,-194.39 440.15,-176.11 441.42,-161.28"/>
<polygon fill="#63b8ff" stroke="#63b8ff" points="444.91,-161.4 441.9,-151.24 437.92,-161.06 444.91,-161.4"/>
</a>
</g>
</g>
<!-- Node24 -->
<g id="Node000024" class="node">
<title>Node24</title>
<g id="a_Node000024"><a xlink:href="Writer_8h.html" target="_top" xlink:title=" ">
<polygon fill="white" stroke="#666666" points="348.83,-206 293.83,-206 293.83,-187 348.83,-187 348.83,-206"/>
<text text-anchor="middle" x="321.33" y="-194" font-family="Helvetica,sans-Serif" font-size="10.00">Writer.h</text>
</a>
</g>
</g>
<!-- Node16&#45;&gt;Node24 -->
<g id="edge27_Node000016_Node000024" class="edge">
<title>Node16&#45;&gt;Node24</title>
<g id="a_edge27_Node000016_Node000024"><a xlink:title=" ">
<path fill="none" stroke="#63b8ff" d="M250.83,-241.98C263.74,-233.84 283.44,-221.41 298.74,-211.76"/>
<polygon fill="#63b8ff" stroke="#63b8ff" points="301,-214.47 307.59,-206.17 297.27,-208.55 301,-214.47"/>
</a>
</g>
</g>
<!-- Node25 -->
<g id="Node000025" class="node">
<title>Node25</title>
<g id="a_Node000025"><a xlink:title=" ">
<polygon fill="#e0e0e0" stroke="#999999" points="415.33,-206 367.33,-206 367.33,-187 415.33,-187 415.33,-206"/>
<text text-anchor="middle" x="391.33" y="-194" font-family="Helvetica,sans-Serif" font-size="10.00">thread</text>
</a>
</g>
</g>
<!-- Node16&#45;&gt;Node25 -->
<g id="edge34_Node000016_Node000025" class="edge">
<title>Node16&#45;&gt;Node25</title>
<g id="a_edge34_Node000016_Node000025"><a xlink:title=" ">
<path fill="none" stroke="#63b8ff" d="M262.08,-241.98C287.94,-233.09 328.68,-219.06 357.51,-209.14"/>
<polygon fill="#63b8ff" stroke="#63b8ff" points="358.84,-212.38 367.16,-205.82 356.57,-205.76 358.84,-212.38"/>
</a>
</g>
</g>
<!-- Node26 -->
<g id="Node000026" class="node">
<title>Node26</title>
<g id="a_Node000026"><a xlink:title=" ">
<polygon fill="#e0e0e0" stroke="#999999" points="113.33,-206 63.33,-206 63.33,-187 113.33,-187 113.33,-206"/>
<text text-anchor="middle" x="88.33" y="-194" font-family="Helvetica,sans-Serif" font-size="10.00">chrono</text>
</a>
</g>
</g>
<!-- Node16&#45;&gt;Node26 -->
<g id="edge35_Node000016_Node000026" class="edge">
<title>Node16&#45;&gt;Node26</title>
<g id="a_edge35_Node000016_Node000026"><a xlink:title=" ">
<path fill="none" stroke="#63b8ff" d="M213.4,-241.98C188.78,-233.23 150.22,-219.51 122.42,-209.62"/>
<polygon fill="#63b8ff" stroke="#63b8ff" points="123.3,-206.22 112.71,-206.17 120.96,-212.82 123.3,-206.22"/>
</a>
</g>
</g>
<!-- Node27 -->
<g id="Node000027" class="node">
<title>Node27</title>
<g id="a_Node000027"><a xlink:title=" ">
<polygon fill="#e0e0e0" stroke="#999999" points="181.33,-206 131.33,-206 131.33,-187 181.33,-187 181.33,-206"/>
<text text-anchor="middle" x="156.33" y="-194" font-family="Helvetica,sans-Serif" font-size="10.00">format</text>
</a>
</g>
</g>
<!-- Node16&#45;&gt;Node27 -->
<g id="edge36_Node000016_Node000027" class="edge">
<title>Node16&#45;&gt;Node27</title>
<g id="a_edge36_Node000016_Node000027"><a xlink:title=" ">
<path fill="none" stroke="#63b8ff" d="M224.32,-241.98C211.88,-233.84 192.88,-221.41 178.13,-211.76"/>
<polygon fill="#63b8ff" stroke="#63b8ff" points="179.87,-208.72 169.59,-206.17 176.04,-214.57 179.87,-208.72"/>
</a>
</g>
</g>
<!-- Node17&#45;&gt;Node10 -->
<g id="edge20_Node000017_Node000010" class="edge">
<title>Node17&#45;&gt;Node10</title>
<g id="a_edge20_Node000017_Node000010"><a xlink:title=" ">
<path fill="none" stroke="#63b8ff" d="M199.19,-187.36C165.46,-179.29 120,-166 109.33,-151 79.16,-108.57 133.95,-52.54 165.04,-25.88"/>
<polygon fill="#63b8ff" stroke="#63b8ff" points="167.65,-28.26 173.09,-19.17 163.17,-22.88 167.65,-28.26"/>
</a>
</g>
</g>
<!-- Node18 -->
<g id="Node000018" class="node">
<title>Node18</title>
<g id="a_Node000018"><a xlink:title=" ">
<polygon fill="#e0e0e0" stroke="#999999" points="256.33,-145.5 200.33,-145.5 200.33,-126.5 256.33,-126.5 256.33,-145.5"/>
<text text-anchor="middle" x="228.33" y="-133.5" font-family="Helvetica,sans-Serif" font-size="10.00">QDebug</text>
</a>
</g>
</g>
<!-- Node17&#45;&gt;Node18 -->
<g id="edge19_Node000017_Node000018" class="edge">
<title>Node17&#45;&gt;Node18</title>
<g id="a_edge19_Node000017_Node000018"><a xlink:title=" ">
<path fill="none" stroke="#63b8ff" d="M236.01,-186.87C234.74,-178.66 232.8,-166.04 231.19,-155.55"/>
<polygon fill="#63b8ff" stroke="#63b8ff" points="234.65,-155.02 229.67,-145.67 227.73,-156.08 234.65,-155.02"/>
</a>
</g>
</g>
<!-- Node19 -->
<g id="Node000019" class="node">
<title>Node19</title>
<g id="a_Node000019"><a xlink:title=" ">
<polygon fill="#e0e0e0" stroke="#999999" points="329.83,-145.5 274.83,-145.5 274.83,-126.5 329.83,-126.5 329.83,-145.5"/>
<text text-anchor="middle" x="302.33" y="-133.5" font-family="Helvetica,sans-Serif" font-size="10.00">fstream</text>
</a>
</g>
</g>
<!-- Node17&#45;&gt;Node19 -->
<g id="edge21_Node000017_Node000019" class="edge">
<title>Node17&#45;&gt;Node19</title>
<g id="a_edge21_Node000017_Node000019"><a xlink:title=" ">
<path fill="none" stroke="#63b8ff" d="M246.93,-186.87C256.91,-177.88 272.77,-163.61 284.96,-152.64"/>
<polygon fill="#63b8ff" stroke="#63b8ff" points="287.61,-154.96 292.7,-145.67 282.93,-149.76 287.61,-154.96"/>
</a>
</g>
</g>
<!-- Node17&#45;&gt;Node20 -->
<g id="edge22_Node000017_Node000020" class="edge">
<title>Node17&#45;&gt;Node20</title>
<g id="a_edge22_Node000017_Node000020"><a xlink:title=" ">
<path fill="none" stroke="#63b8ff" d="M203.51,-186.94C170.78,-178.47 119.87,-164.81 76.33,-151 74.22,-150.33 72.04,-149.62 69.86,-148.88"/>
<polygon fill="#63b8ff" stroke="#63b8ff" points="70.93,-145.55 60.33,-145.58 68.64,-152.16 70.93,-145.55"/>
</a>
</g>
</g>
<!-- Node21 -->
<g id="Node000021" class="node">
<title>Node21</title>
<g id="a_Node000021"><a xlink:title=" ">
<polygon fill="#e0e0e0" stroke="#999999" points="182.33,-145.5 118.33,-145.5 118.33,-126.5 182.33,-126.5 182.33,-145.5"/>
<text text-anchor="middle" x="150.33" y="-133.5" font-family="Helvetica,sans-Serif" font-size="10.00">algorithm</text>
</a>
</g>
</g>
<!-- Node17&#45;&gt;Node21 -->
<g id="edge23_Node000017_Node000021" class="edge">
<title>Node17&#45;&gt;Node21</title>
<g id="a_edge23_Node000017_Node000021"><a xlink:title=" ">
<path fill="none" stroke="#63b8ff" d="M224.5,-186.87C210.62,-177.54 188.27,-162.51 171.73,-151.38"/>
<polygon fill="#63b8ff" stroke="#63b8ff" points="173.48,-148.34 163.22,-145.67 169.57,-154.15 173.48,-148.34"/>
</a>
</g>
</g>
<!-- Node17&#45;&gt;Node22 -->
<g id="edge24_Node000017_Node000022" class="edge">
<title>Node17&#45;&gt;Node22</title>
<g id="a_edge24_Node000017_Node000022"><a xlink:title=" ">
<path fill="none" stroke="#63b8ff" d="M267,-186.99C297.13,-178.35 344.6,-164.74 382.41,-153.9"/>
<polygon fill="#63b8ff" stroke="#63b8ff" points="383.64,-157.19 392.29,-151.06 381.71,-150.46 383.64,-157.19"/>
</a>
</g>
</g>
<!-- Node22&#45;&gt;Node8 -->
<g id="edge26_Node000022_Node000008" class="edge">
<title>Node22&#45;&gt;Node8</title>
<g id="a_edge26_Node000022_Node000008"><a xlink:title=" ">
<path fill="none" stroke="#63b8ff" d="M457.76,-120.8C467.63,-112.26 480.36,-101.25 491.34,-91.75"/>
<polygon fill="#63b8ff" stroke="#63b8ff" points="493.68,-94.35 498.96,-85.16 489.1,-89.06 493.68,-94.35"/>
</a>
</g>
</g>
<!-- Node23 -->
<g id="Node000023" class="node">
<title>Node23</title>
<g id="a_Node000023"><a xlink:title=" ">
<polygon fill="#e0e0e0" stroke="#999999" points="445.83,-79.5 386.83,-79.5 386.83,-60.5 445.83,-60.5 445.83,-79.5"/>
<text text-anchor="middle" x="416.33" y="-67.5" font-family="Helvetica,sans-Serif" font-size="10.00">QWidget</text>
</a>
</g>
</g>
<!-- Node22&#45;&gt;Node23 -->
<g id="edge25_Node000022_Node000023" class="edge">
<title>Node22&#45;&gt;Node23</title>
<g id="a_edge25_Node000022_Node000023"><a xlink:title=" ">
<path fill="none" stroke="#63b8ff" d="M435.79,-120.8C432.16,-111.5 427.38,-99.27 423.47,-89.26"/>
<polygon fill="#63b8ff" stroke="#63b8ff" points="426.69,-87.89 419.79,-79.84 420.17,-90.43 426.69,-87.89"/>
</a>
</g>
</g>
<!-- Node24&#45;&gt;Node10 -->
<g id="edge28_Node000024_Node000010" class="edge">
<title>Node24&#45;&gt;Node10</title>
<g id="a_edge28_Node000024_Node000010"><a xlink:title=" ">
<path fill="none" stroke="#63b8ff" d="M326.98,-186.76C335.52,-172.33 349.6,-142.95 338.33,-121 312.95,-71.55 254.03,-39.25 216.87,-23"/>
<polygon fill="#63b8ff" stroke="#63b8ff" points="218.04,-19.69 207.47,-19.02 215.31,-26.14 218.04,-19.69"/>
</a>
</g>
</g>
<!-- Node24&#45;&gt;Node11 -->
<g id="edge30_Node000024_Node000011" class="edge">
<title>Node24&#45;&gt;Node11</title>
<g id="a_edge30_Node000024_Node000011"><a xlink:title=" ">
<path fill="none" stroke="#63b8ff" d="M349.03,-188.97C399.54,-177.05 501.81,-152.79 505.33,-151 564.43,-121.08 567.54,-96.29 619.33,-55 632.13,-44.8 646.81,-33.72 658.33,-25.17"/>
<polygon fill="#63b8ff" stroke="#63b8ff" points="660.48,-27.94 666.44,-19.18 656.32,-22.31 660.48,-27.94"/>
</a>
</g>
</g>
<!-- Node24&#45;&gt;Node19 -->
<g id="edge29_Node000024_Node000019" class="edge">
<title>Node24&#45;&gt;Node19</title>
<g id="a_edge29_Node000024_Node000019"><a xlink:title=" ">
<path fill="none" stroke="#63b8ff" d="M318.53,-186.87C315.84,-178.57 311.68,-165.78 308.25,-155.22"/>
<polygon fill="#63b8ff" stroke="#63b8ff" points="311.57,-154.1 305.15,-145.67 304.91,-156.26 311.57,-154.1"/>
</a>
</g>
</g>
<!-- Node24&#45;&gt;Node22 -->
<g id="edge31_Node000024_Node000022" class="edge">
<title>Node24&#45;&gt;Node22</title>
<g id="a_edge31_Node000024_Node000022"><a xlink:title=" ">
<path fill="none" stroke="#63b8ff" d="M338.78,-186.99C355.54,-178.82 381.43,-166.2 403,-155.69"/>
<polygon fill="#63b8ff" stroke="#63b8ff" points="404.8,-158.71 412.25,-151.18 401.73,-152.41 404.8,-158.71"/>
</a>
</g>
</g>
<!-- Node28&#45;&gt;Node3 -->
<g id="edge40_Node000028_Node000003" class="edge">
<title>Node28&#45;&gt;Node3</title>
<g id="a_edge40_Node000028_Node000003"><a xlink:title=" ">
<path fill="none" stroke="#63b8ff" d="M734.33,-126.44C738.98,-106.45 750.66,-56.32 757.03,-28.98"/>
<polygon fill="#63b8ff" stroke="#63b8ff" points="760.47,-29.65 759.33,-19.12 753.65,-28.06 760.47,-29.65"/>
</a>
</g>
</g>
<!-- Node28&#45;&gt;Node8 -->
<g id="edge41_Node000028_Node000008" class="edge">
<title>Node28&#45;&gt;Node8</title>
<g id="a_edge41_Node000028_Node000008"><a xlink:title=" ">
<path fill="none" stroke="#63b8ff" d="M703.07,-126.37C669.87,-116.58 614.9,-100.37 573,-88.01"/>
<polygon fill="#63b8ff" stroke="#63b8ff" points="573.78,-84.59 563.2,-85.12 571.8,-91.3 573.78,-84.59"/>
</a>
</g>
</g>
<!-- Node29&#45;&gt;Node3 -->
<g id="edge45_Node000029_Node000003" class="edge">
<title>Node29&#45;&gt;Node3</title>
<g id="a_edge45_Node000029_Node000003"><a xlink:title=" ">
<path fill="none" stroke="#63b8ff" d="M841.95,-54.99C825.05,-45.66 802.96,-33.47 786.18,-24.21"/>
<polygon fill="#63b8ff" stroke="#63b8ff" points="787.44,-20.91 776.99,-19.14 784.05,-27.04 787.44,-20.91"/>
</a>
</g>
</g>
<!-- Node29&#45;&gt;Node11 -->
<g id="edge43_Node000029_Node000011" class="edge">
<title>Node29&#45;&gt;Node11</title>
<g id="a_edge43_Node000029_Node000011"><a xlink:title=" ">
<path fill="none" stroke="#63b8ff" d="M822.06,-54.99C787.53,-44.3 740.82,-29.84 710.15,-20.35"/>
<polygon fill="#63b8ff" stroke="#63b8ff" points="711,-16.95 700.41,-17.33 708.93,-23.63 711,-16.95"/>
</a>
</g>
</g>
<!-- Node30 -->
<g id="Node000030" class="node">
<title>Node30</title>
<g id="a_Node000030"><a xlink:title=" ">
<polygon fill="#e0e0e0" stroke="#999999" points="890.83,-19 843.83,-19 843.83,0 890.83,0 890.83,-19"/>
<text text-anchor="middle" x="867.33" y="-7" font-family="Helvetica,sans-Serif" font-size="10.00">vector</text>
</a>
</g>
</g>
<!-- Node29&#45;&gt;Node30 -->
<g id="edge44_Node000029_Node000030" class="edge">
<title>Node29&#45;&gt;Node30</title>
<g id="a_edge44_Node000029_Node000030"><a xlink:title=" ">
<path fill="none" stroke="#63b8ff" d="M867.33,-54.84C867.33,-47.21 867.33,-37.7 867.33,-29.45"/>
<polygon fill="#63b8ff" stroke="#63b8ff" points="870.83,-29.27 867.33,-19.27 863.83,-29.27 870.83,-29.27"/>
</a>
</g>
</g>
<!-- Node31&#45;&gt;Node3 -->
<g id="edge47_Node000031_Node000003" class="edge">
<title>Node31&#45;&gt;Node3</title>
<g id="a_edge47_Node000031_Node000003"><a xlink:title=" ">
<path fill="none" stroke="#63b8ff" d="M983.53,-60.49C934.35,-49.43 848.91,-30.21 799.54,-19.1"/>
<polygon fill="#63b8ff" stroke="#63b8ff" points="800.1,-15.64 789.58,-16.85 798.57,-22.46 800.1,-15.64"/>
</a>
</g>
</g>
<!-- Node33 -->
<g id="Node000033" class="node">
<title>Node33</title>
<g id="a_Node000033"><a xlink:title=" ">
<polygon fill="#e0e0e0" stroke="#999999" points="1007.83,-261 954.83,-261 954.83,-242 1007.83,-242 1007.83,-261"/>
<text text-anchor="middle" x="981.33" y="-249" font-family="Helvetica,sans-Serif" font-size="10.00">QTimer</text>
</a>
</g>
</g>
<!-- Node32&#45;&gt;Node33 -->
<g id="edge49_Node000032_Node000033" class="edge">
<title>Node32&#45;&gt;Node33</title>
<g id="a_edge49_Node000032_Node000033"><a xlink:title=" ">
<path fill="none" stroke="#63b8ff" d="M981.33,-302.37C981.33,-294.25 981.33,-281.81 981.33,-271.39"/>
<polygon fill="#63b8ff" stroke="#63b8ff" points="984.83,-271.17 981.33,-261.17 977.83,-271.17 984.83,-271.17"/>
</a>
</g>
</g>
</g>
</svg>

<g id="navigator" transform="translate(0 0)" fill="#404254">
  <rect fill="#f2f5e9" fill-opacity="0.5" stroke="#606060" stroke-width=".5" x="0" y="0" width="60" height="60"/>
  <use id="zoomplus" xlink:href="#zoomPlus" x="17" y="9" onmousedown="handleZoom(evt,'in')"/>
  <use id="zoomminus" xlink:href="#zoomMin" x="42" y="9" onmousedown="handleZoom(evt,'out')"/>
  <use id="reset" xlink:href="#resetDef" x="30" y="36" onmousedown="handleReset()"/>
   <use id="arrowup" xlink:href="#arrowUp" x="0" y="0" onmousedown="handlePan(0,-1)"/>
  <use id="arrowright" xlink:href="#arrowRight" x="0" y="0" onmousedown="handlePan(1,0)"/>
  <use id="arrowdown" xlink:href="#arrowDown" x="0" y="0" onmousedown="handlePan(0,1)"/>
  <use id="arrowleft" xlink:href="#arrowLeft" x="0" y="0" onmousedown="handlePan(-1,0)"/>
</g>
<svg viewBox="0 0 15 15" width="100%" height="30px" preserveAspectRatio="xMaxYMin meet">
 <g id="arrow_out" transform="scale(0.3 0.3)">
  <a xlink:href="AppServices_8cpp__incl_org.svg" target="_base">
   <rect id="button" ry="5" rx="5" y="6" x="6" height="38" width="38"
        fill="#f2f5e9" fill-opacity="0.5" stroke="#606060" stroke-width="1.0"/>
   <path id="arrow"
     d="M 11.500037,31.436501 C 11.940474,20.09759 22.043105,11.32322 32.158766,21.979434 L 37.068811,17.246167 C 37.068811,17.246167 37.088388,32 37.088388,32 L 22.160133,31.978069 C 22.160133,31.978069 26.997745,27.140456 26.997745,27.140456 C 18.528582,18.264221 13.291696,25.230495 11.500037,31.436501 z"
     style="fill:#404040;"/>
  </a>
 </g>
</svg>

<style type='text/css'>
<![CDATA[
[data-mouse-over-selected='false'] { opacity: 0.7; }
[data-mouse-over-selected='true']  { opacity: 1.0; }
]]>
</style>
<script type="application/ecmascript"><![CDATA[
document.addEventListener('DOMContentLoaded', (event) => {
  highlightEdges();
  highlightAdjacentNodes();
});
]]></script>
</svg>
