<?xml version="1.0" encoding="UTF-8" standalone="no"?>
<!DOCTYPE svg PUBLIC "-//W3C//DTD SVG 1.1//EN"
 "http://www.w3.org/Graphics/SVG/1.1/DTD/svg11.dtd">
<!-- Generated by graphviz version 2.43.0 (0)
 -->
<!-- Title: services/AppServices.cpp Pages: 1 -->
<!--zoomable 390 -->

<svg id="main" version="1.1" xmlns="http://www.w3.org/2000/svg" xmlns:xlink="http://www.w3.org/1999/xlink" xml:space="preserve" onload="init(evt)">
<style type="text/css"><![CDATA[
.node, .edge {opacity: 0.7;}
.node.selected, .edge.selected {opacity: 1;}
.edge:hover path { stroke: red; }
.edge:hover polygon { stroke: red; fill: red; }
]]></style>

<defs>
  <circle id="rim" cx="0" cy="0" r="7"/>
  <circle id="rim2" cx="0" cy="0" r="3.5"/>
  <g id="zoomPlus">
    <use xlink:href="#rim" fill="#404040"><set attributeName="fill" to="#808080" begin="zoomplus.mouseover" end="zoomplus.mouseout"/></use>
    <path d="M-4,0h8M0,-4v8" fill="none" stroke="white" stroke-width="1.5" pointer-events="none"/>
  </g>
  <g id="zoomMin">
    <use xlink:href="#rim" fill="#404040"><set attributeName="fill" to="#808080" begin="zoomminus.mouseover" end="zoomminus.mouseout"/></use>
    <path d="M-4,0h8" fill="none" stroke="white" stroke-width="1.5" pointer-events="none"/>
  </g>
  <g id="arrowUp" transform="translate(30 24)">
    <use xlink:href="#rim"/>
    <path pointer-events="none" fill="none" stroke="white" stroke-width="1.5" d="M0,-3.0v7 M-2.5,-0.5L0,-3.0L2.5,-0.5"/>
  </g>
  <g id="arrowRight" transform="rotate(90) translate(36 -43)">
    <use xlink:href="#rim"/>
    <path pointer-events="none" fill="none" stroke="white" stroke-width="1.5" d="M0,-3.0v7 M-2.5,-0.5L0,-3.0L2.5,-0.5"/>
  </g>
  <g id="arrowDown" transform="rotate(180) translate(-30 -48)">
    <use xlink:href="#rim"/>
    <path pointer-events="none" fill="none" stroke="white" stroke-width="1.5" d="M0,-3.0v7 M-2.5,-0.5L0,-3.0L2.5,-0.5"/>
  </g>
  <g id="arrowLeft" transform="rotate(270) translate(-36 17)">
    <use xlink:href="#rim"/>
    <path pointer-events="none" fill="none" stroke="white" stroke-width="1.5" d="M0,-3.0v7 M-2.5,-0.5L0,-3.0L2.5,-0.5"/>
  </g>
  <g id="resetDef">
    <use xlink:href="#rim2" fill="#404040"><set attributeName="fill" to="#808080" begin="reset.mouseover" end="reset.mouseout"/></use>
  </g>
</defs>
<script type="application/ecmascript">
var viewWidth = 1025;
var viewHeight = 390;
var sectionId = 'dynsection-0';
</script>
<script type="application/ecmascript" xlink:href="svg.min.js"/>
<svg id="graph" class="graph">
<g id="viewport">
<title>services/AppServices.cpp</title>
<!-- Node1 -->
<g id="Node000001" class="node">
<title>Node1</title>
<g id="a_Node000001"><a xlink:title=" ">
<polygon fill="#999999" stroke="#666666" points="488.5,-382 348.5,-382 348.5,-363 488.5,-363 488.5,-382"/>
<text text-anchor="middle" x="418.5" y="-370" font-family="Helvetica,sans-Serif" font-size="10.00">services/AppServices.cpp</text>
</a>
</g>
</g>
<!-- Node2 -->
<g id="Node000002" class="node">
<title>Node2</title>
<g id="a_Node000002"><a xlink:href="AppServices_8h.html" target="_top" xlink:title=" ">
<polygon fill="white" stroke="#666666" points="225.5,-321.5 139.5,-321.5 139.5,-302.5 225.5,-302.5 225.5,-321.5"/>
<text text-anchor="middle" x="182.5" y="-309.5" font-family="Helvetica,sans-Serif" font-size="10.00">AppServices.h</text>
</a>
</g>
</g>
<!-- Node1&#45;&gt;Node2 -->
<g id="edge1_Node000001_Node000002" class="edge">
<title>Node1&#45;&gt;Node2</title>
<g id="a_edge1_Node000001_Node000002"><a xlink:title=" ">
<path fill="none" stroke="#63b8ff" d="M384.18,-362.99C342.59,-352.68 272.4,-335.28 226.77,-323.97"/>
<polygon fill="#63b8ff" stroke="#63b8ff" points="227.41,-320.53 216.86,-321.52 225.72,-327.32 227.41,-320.53"/>
</a>
</g>
</g>
<!-- Node5 -->
<g id="Node000005" class="node">
<title>Node5</title>
<g id="a_Node000005"><a xlink:href="UdpChannel_8h.html" target="_top" xlink:title="UDP communication channel between the microcontroller and the HMI.">
<polygon fill="white" stroke="#666666" points="613,-327 460,-327 460,-297 613,-297 613,-327"/>
<text text-anchor="start" x="468" y="-315" font-family="Helvetica,sans-Serif" font-size="10.00">src/features/communication</text>
<text text-anchor="middle" x="536.5" y="-304" font-family="Helvetica,sans-Serif" font-size="10.00">/udp/UdpChannel.h</text>
</a>
</g>
</g>
<!-- Node1&#45;&gt;Node5 -->
<g id="edge4_Node000001_Node000005" class="edge">
<title>Node1&#45;&gt;Node5</title>
<g id="a_edge4_Node000001_Node000005"><a xlink:title=" ">
<path fill="none" stroke="#63b8ff" d="M435.66,-362.99C452.14,-354.82 477.6,-342.2 498.81,-331.69"/>
<polygon fill="#63b8ff" stroke="#63b8ff" points="500.5,-334.76 507.9,-327.18 497.39,-328.48 500.5,-334.76"/>
</a>
</g>
</g>
<!-- Node23 -->
<g id="Node000023" class="node">
<title>Node23</title>
<g id="a_Node000023"><a xlink:href="Logger_8h.html" target="_top" xlink:title=" ">
<polygon fill="white" stroke="#666666" points="968.5,-151 858.5,-151 858.5,-121 968.5,-121 968.5,-151"/>
<text text-anchor="start" x="866.5" y="-139" font-family="Helvetica,sans-Serif" font-size="10.00">src/services/Logger</text>
<text text-anchor="middle" x="913.5" y="-128" font-family="Helvetica,sans-Serif" font-size="10.00">/Logger.h</text>
</a>
</g>
</g>
<!-- Node1&#45;&gt;Node23 -->
<g id="edge35_Node000001_Node000023" class="edge">
<title>Node1&#45;&gt;Node23</title>
<g id="a_edge35_Node000001_Node000023"><a xlink:title=" ">
<path fill="none" stroke="#63b8ff" d="M488.82,-366.29C573.3,-357 716.07,-331.35 815.5,-261 853.77,-233.92 884.61,-187.76 900.89,-160.04"/>
<polygon fill="#63b8ff" stroke="#63b8ff" points="904.1,-161.49 906.03,-151.07 898.02,-158.01 904.1,-161.49"/>
</a>
</g>
</g>
<!-- Node26 -->
<g id="Node000026" class="node">
<title>Node26</title>
<g id="a_Node000026"><a xlink:href="TxtParser_8h.html" target="_top" xlink:title=" ">
<polygon fill="white" stroke="#666666" points="352,-145.5 211,-145.5 211,-126.5 352,-126.5 352,-145.5"/>
<text text-anchor="middle" x="281.5" y="-133.5" font-family="Helvetica,sans-Serif" font-size="10.00">./TXTManager/TxtParser.h</text>
</a>
</g>
</g>
<!-- Node1&#45;&gt;Node26 -->
<g id="edge36_Node000001_Node000026" class="edge">
<title>Node1&#45;&gt;Node26</title>
<g id="a_edge36_Node000001_Node000026"><a xlink:title=" ">
<path fill="none" stroke="#63b8ff" d="M413.46,-362.88C393.45,-328.62 319.35,-201.78 291.85,-154.72"/>
<polygon fill="#63b8ff" stroke="#63b8ff" points="294.8,-152.82 286.73,-145.95 288.75,-156.35 294.8,-152.82"/>
</a>
</g>
</g>
<!-- Node27 -->
<g id="Node000027" class="node">
<title>Node27</title>
<g id="a_Node000027"><a xlink:href="CsvExporter_8h.html" target="_top" xlink:title=" ">
<polygon fill="white" stroke="#666666" points="538,-85 409,-85 409,-55 538,-55 538,-85"/>
<text text-anchor="start" x="417" y="-73" font-family="Helvetica,sans-Serif" font-size="10.00">src/features/file_export</text>
<text text-anchor="middle" x="473.5" y="-62" font-family="Helvetica,sans-Serif" font-size="10.00">/csv/CsvExporter.h</text>
</a>
</g>
</g>
<!-- Node1&#45;&gt;Node27 -->
<g id="edge39_Node000001_Node000027" class="edge">
<title>Node1&#45;&gt;Node27</title>
<g id="a_edge39_Node000001_Node000027"><a xlink:title=" ">
<path fill="none" stroke="#63b8ff" d="M418.5,-362.84C418.5,-343.21 418.5,-293.82 418.5,-252.5 418.5,-252.5 418.5,-252.5 418.5,-195.5 418.5,-157.16 440.6,-117.4 456.78,-93.43"/>
<polygon fill="#63b8ff" stroke="#63b8ff" points="459.78,-95.25 462.63,-85.05 454.04,-91.24 459.78,-95.25"/>
</a>
</g>
</g>
<!-- Node29 -->
<g id="Node000029" class="node">
<title>Node29</title>
<g id="a_Node000029"><a xlink:href="FileSystem_8h.html" target="_top" xlink:title=" ">
<polygon fill="white" stroke="#666666" points="143,-206 0,-206 0,-187 143,-187 143,-206"/>
<text text-anchor="middle" x="71.5" y="-194" font-family="Helvetica,sans-Serif" font-size="10.00">./FileSystem/FileSystem.h</text>
</a>
</g>
</g>
<!-- Node1&#45;&gt;Node29 -->
<g id="edge43_Node000001_Node000029" class="edge">
<title>Node1&#45;&gt;Node29</title>
<g id="a_edge43_Node000001_Node000029"><a xlink:title=" ">
<path fill="none" stroke="#63b8ff" d="M348.49,-366.64C275.37,-360.53 166.39,-348.18 130.5,-327 98.57,-308.16 93.65,-295.26 79.5,-261 73.6,-246.7 71.75,-229.18 71.29,-216.16"/>
<polygon fill="#63b8ff" stroke="#63b8ff" points="74.79,-216.04 71.18,-206.08 67.79,-216.12 74.79,-216.04"/>
</a>
</g>
</g>
<!-- Node30 -->
<g id="Node000030" class="node">
<title>Node30</title>
<g id="a_Node000030"><a xlink:href="Timer_8h.html" target="_top" xlink:title=" ">
<polygon fill="white" stroke="#666666" points="980,-321.5 889,-321.5 889,-302.5 980,-302.5 980,-321.5"/>
<text text-anchor="middle" x="934.5" y="-309.5" font-family="Helvetica,sans-Serif" font-size="10.00">./Timer/Timer.h</text>
</a>
</g>
</g>
<!-- Node1&#45;&gt;Node30 -->
<g id="edge45_Node000001_Node000030" class="edge">
<title>Node1&#45;&gt;Node30</title>
<g id="a_edge45_Node000001_Node000030"><a xlink:title=" ">
<path fill="none" stroke="#63b8ff" d="M488.79,-367.53C578.67,-361.79 738.92,-349.33 874.5,-327 879.98,-326.1 885.69,-324.99 891.34,-323.79"/>
<polygon fill="#63b8ff" stroke="#63b8ff" points="892.33,-327.15 901.33,-321.56 890.81,-320.32 892.33,-327.15"/>
</a>
</g>
</g>
<!-- Node3 -->
<g id="Node000003" class="node">
<title>Node3</title>
<g id="a_Node000003"><a xlink:title=" ">
<polygon fill="#e0e0e0" stroke="#999999" points="359.5,-19 303.5,-19 303.5,0 359.5,0 359.5,-19"/>
<text text-anchor="middle" x="331.5" y="-7" font-family="Helvetica,sans-Serif" font-size="10.00">QObject</text>
</a>
</g>
</g>
<!-- Node2&#45;&gt;Node3 -->
<g id="edge2_Node000002_Node000003" class="edge">
<title>Node2&#45;&gt;Node3</title>
<g id="a_edge2_Node000002_Node000003"><a xlink:title=" ">
<path fill="none" stroke="#63b8ff" d="M182.5,-302.46C182.5,-283.55 182.5,-236.71 182.5,-197.5 182.5,-197.5 182.5,-197.5 182.5,-135 182.5,-76.4 251.22,-39.97 295.32,-22.63"/>
<polygon fill="#63b8ff" stroke="#63b8ff" points="296.75,-25.83 304.86,-19.02 294.27,-19.28 296.75,-25.83"/>
</a>
</g>
</g>
<!-- Node4 -->
<g id="Node000004" class="node">
<title>Node4</title>
<g id="a_Node000004"><a xlink:title=" ">
<polygon fill="#e0e0e0" stroke="#999999" points="154,-261 89,-261 89,-242 154,-242 154,-261"/>
<text text-anchor="middle" x="121.5" y="-249" font-family="Helvetica,sans-Serif" font-size="10.00">typeindex</text>
</a>
</g>
</g>
<!-- Node2&#45;&gt;Node4 -->
<g id="edge3_Node000002_Node000004" class="edge">
<title>Node2&#45;&gt;Node4</title>
<g id="a_edge3_Node000002_Node000004"><a xlink:title=" ">
<path fill="none" stroke="#63b8ff" d="M173.5,-302.37C164.13,-293.38 149.25,-279.11 137.8,-268.14"/>
<polygon fill="#63b8ff" stroke="#63b8ff" points="140.18,-265.56 130.54,-261.17 135.33,-270.62 140.18,-265.56"/>
</a>
</g>
</g>
<!-- Node5&#45;&gt;Node3 -->
<g id="edge5_Node000005_Node000003" class="edge">
<title>Node5&#45;&gt;Node3</title>
<g id="a_edge5_Node000005_Node000003"><a xlink:title=" ">
<path fill="none" stroke="#63b8ff" d="M484.99,-296.95C439.55,-281.06 380.5,-250.25 380.5,-197.5 380.5,-197.5 380.5,-197.5 380.5,-135 380.5,-94.35 357.6,-51.1 343.11,-27.8"/>
<polygon fill="#63b8ff" stroke="#63b8ff" points="345.87,-25.61 337.51,-19.1 339.98,-29.4 345.87,-25.61"/>
</a>
</g>
</g>
<!-- Node6 -->
<g id="Node000006" class="node">
<title>Node6</title>
<g id="a_Node000006"><a xlink:title=" ">
<polygon fill="#e0e0e0" stroke="#999999" points="806.5,-261 748.5,-261 748.5,-242 806.5,-242 806.5,-261"/>
<text text-anchor="middle" x="777.5" y="-249" font-family="Helvetica,sans-Serif" font-size="10.00">QThread</text>
</a>
</g>
</g>
<!-- Node5&#45;&gt;Node6 -->
<g id="edge6_Node000005_Node000006" class="edge">
<title>Node5&#45;&gt;Node6</title>
<g id="a_edge6_Node000005_Node000006"><a xlink:title=" ">
<path fill="none" stroke="#63b8ff" d="M594.23,-296.99C638.84,-286.16 699.38,-271.46 738.45,-261.98"/>
<polygon fill="#63b8ff" stroke="#63b8ff" points="739.49,-265.33 748.38,-259.57 737.83,-258.53 739.49,-265.33"/>
</a>
</g>
</g>
<!-- Node7 -->
<g id="Node000007" class="node">
<title>Node7</title>
<g id="a_Node000007"><a xlink:title=" ">
<polygon fill="#e0e0e0" stroke="#999999" points="522.5,-261 446.5,-261 446.5,-242 522.5,-242 522.5,-261"/>
<text text-anchor="middle" x="484.5" y="-249" font-family="Helvetica,sans-Serif" font-size="10.00">QUdpSocket</text>
</a>
</g>
</g>
<!-- Node5&#45;&gt;Node7 -->
<g id="edge7_Node000005_Node000007" class="edge">
<title>Node5&#45;&gt;Node7</title>
<g id="a_edge7_Node000005_Node000007"><a xlink:title=" ">
<path fill="none" stroke="#63b8ff" d="M523.91,-296.84C516.44,-288.43 506.94,-277.74 499.13,-268.96"/>
<polygon fill="#63b8ff" stroke="#63b8ff" points="501.55,-266.41 492.29,-261.27 496.32,-271.07 501.55,-266.41"/>
</a>
</g>
</g>
<!-- Node8 -->
<g id="Node000008" class="node">
<title>Node8</title>
<g id="a_Node000008"><a xlink:href="Messages_8h.html" target="_top" xlink:title=" ">
<polygon fill="white" stroke="#666666" points="708,-85 605,-85 605,-55 708,-55 708,-85"/>
<text text-anchor="start" x="613" y="-73" font-family="Helvetica,sans-Serif" font-size="10.00">src/core/Protocols</text>
<text text-anchor="middle" x="656.5" y="-62" font-family="Helvetica,sans-Serif" font-size="10.00">/Messages.h</text>
</a>
</g>
</g>
<!-- Node5&#45;&gt;Node8 -->
<g id="edge8_Node000005_Node000008" class="edge">
<title>Node5&#45;&gt;Node8</title>
<g id="a_edge8_Node000005_Node000008"><a xlink:title=" ">
<path fill="none" stroke="#63b8ff" d="M537.41,-296.88C537.88,-282.67 537.4,-260.29 531.5,-242 513.31,-185.6 439.61,-168.15 475.5,-121 490.12,-101.79 548.43,-88.07 594.96,-79.92"/>
<polygon fill="#63b8ff" stroke="#63b8ff" points="595.72,-83.34 605,-78.21 594.55,-76.44 595.72,-83.34"/>
</a>
</g>
</g>
<!-- Node16 -->
<g id="Node000016" class="node">
<title>Node16</title>
<g id="a_Node000016"><a xlink:href="UdpLogger_8h.html" target="_top" xlink:title="High&#45;frequency binary logger for UDP telemetry frames.">
<polygon fill="white" stroke="#666666" points="730,-261 579,-261 579,-242 730,-242 730,-261"/>
<text text-anchor="middle" x="654.5" y="-249" font-family="Helvetica,sans-Serif" font-size="10.00">frames_logger/UdpLogger.h</text>
</a>
</g>
</g>
<!-- Node5&#45;&gt;Node16 -->
<g id="edge17_Node000005_Node000016" class="edge">
<title>Node5&#45;&gt;Node16</title>
<g id="a_edge17_Node000005_Node000016"><a xlink:title=" ">
<path fill="none" stroke="#63b8ff" d="M564.76,-296.99C583.92,-287.49 609.08,-275.02 627.89,-265.69"/>
<polygon fill="#63b8ff" stroke="#63b8ff" points="629.67,-268.72 637.07,-261.14 626.56,-262.45 629.67,-268.72"/>
</a>
</g>
</g>
<!-- Node8&#45;&gt;Node3 -->
<g id="edge15_Node000008_Node000003" class="edge">
<title>Node8&#45;&gt;Node3</title>
<g id="a_edge15_Node000008_Node000003"><a xlink:title=" ">
<path fill="none" stroke="#63b8ff" d="M604.64,-59.67C539.05,-47.86 427.64,-27.81 369.45,-17.33"/>
<polygon fill="#63b8ff" stroke="#63b8ff" points="370.03,-13.88 359.57,-15.55 368.79,-20.77 370.03,-13.88"/>
</a>
</g>
</g>
<!-- Node9 -->
<g id="Node000009" class="node">
<title>Node9</title>
<g id="a_Node000009"><a xlink:title=" ">
<polygon fill="#e0e0e0" stroke="#999999" points="682,-19 631,-19 631,0 682,0 682,-19"/>
<text text-anchor="middle" x="656.5" y="-7" font-family="Helvetica,sans-Serif" font-size="10.00">variant</text>
</a>
</g>
</g>
<!-- Node8&#45;&gt;Node9 -->
<g id="edge9_Node000008_Node000009" class="edge">
<title>Node8&#45;&gt;Node9</title>
<g id="a_edge9_Node000008_Node000009"><a xlink:title=" ">
<path fill="none" stroke="#63b8ff" d="M656.5,-54.84C656.5,-47.21 656.5,-37.7 656.5,-29.45"/>
<polygon fill="#63b8ff" stroke="#63b8ff" points="660,-29.27 656.5,-19.27 653,-29.27 660,-29.27"/>
</a>
</g>
</g>
<!-- Node10 -->
<g id="Node000010" class="node">
<title>Node10</title>
<g id="a_Node000010"><a xlink:title=" ">
<polygon fill="#e0e0e0" stroke="#999999" points="1005.5,-19 955.5,-19 955.5,0 1005.5,0 1005.5,-19"/>
<text text-anchor="middle" x="980.5" y="-7" font-family="Helvetica,sans-Serif" font-size="10.00">cstdint</text>
</a>
</g>
</g>
<!-- Node8&#45;&gt;Node10 -->
<g id="edge10_Node000008_Node000010" class="edge">
<title>Node8&#45;&gt;Node10</title>
<g id="a_edge10_Node000008_Node000010"><a xlink:title=" ">
<path fill="none" stroke="#63b8ff" d="M708.34,-57.81C713.12,-56.83 717.9,-55.88 722.5,-55 801.88,-39.74 895.49,-24.21 945.24,-16.14"/>
<polygon fill="#63b8ff" stroke="#63b8ff" points="945.86,-19.59 955.17,-14.54 944.74,-12.68 945.86,-19.59"/>
</a>
</g>
</g>
<!-- Node11 -->
<g id="Node000011" class="node">
<title>Node11</title>
<g id="a_Node000011"><a xlink:title=" ">
<polygon fill="#e0e0e0" stroke="#999999" points="549.5,-19 505.5,-19 505.5,0 549.5,0 549.5,-19"/>
<text text-anchor="middle" x="527.5" y="-7" font-family="Helvetica,sans-Serif" font-size="10.00">string</text>
</a>
</g>
</g>
<!-- Node8&#45;&gt;Node11 -->
<g id="edge11_Node000008_Node000011" class="edge">
<title>Node8&#45;&gt;Node11</title>
<g id="a_edge11_Node000008_Node000011"><a xlink:title=" ">
<path fill="none" stroke="#63b8ff" d="M625.6,-54.99C604.37,-45.36 576.39,-32.67 555.75,-23.31"/>
<polygon fill="#63b8ff" stroke="#63b8ff" points="557.1,-20.08 546.55,-19.14 554.21,-26.46 557.1,-20.08"/>
</a>
</g>
</g>
<!-- Node12 -->
<g id="Node000012" class="node">
<title>Node12</title>
<g id="a_Node000012"><a xlink:title=" ">
<polygon fill="#e0e0e0" stroke="#999999" points="773,-19 700,-19 700,0 773,0 773,-19"/>
<text text-anchor="middle" x="736.5" y="-7" font-family="Helvetica,sans-Serif" font-size="10.00">QByteArray</text>
</a>
</g>
</g>
<!-- Node8&#45;&gt;Node12 -->
<g id="edge12_Node000008_Node000012" class="edge">
<title>Node8&#45;&gt;Node12</title>
<g id="a_edge12_Node000008_Node000012"><a xlink:title=" ">
<path fill="none" stroke="#63b8ff" d="M675.87,-54.84C688.07,-45.91 703.81,-34.41 716.19,-25.35"/>
<polygon fill="#63b8ff" stroke="#63b8ff" points="718.51,-27.99 724.51,-19.27 714.37,-22.34 718.51,-27.99"/>
</a>
</g>
</g>
<!-- Node13 -->
<g id="Node000013" class="node">
<title>Node13</title>
<g id="a_Node000013"><a xlink:title=" ">
<polygon fill="#e0e0e0" stroke="#999999" points="840,-19 791,-19 791,0 840,0 840,-19"/>
<text text-anchor="middle" x="815.5" y="-7" font-family="Helvetica,sans-Serif" font-size="10.00">QHash</text>
</a>
</g>
</g>
<!-- Node8&#45;&gt;Node13 -->
<g id="edge13_Node000008_Node000013" class="edge">
<title>Node8&#45;&gt;Node13</title>
<g id="a_edge13_Node000008_Node000013"><a xlink:title=" ">
<path fill="none" stroke="#63b8ff" d="M694.58,-54.99C721.35,-45.14 756.8,-32.1 782.39,-22.68"/>
<polygon fill="#63b8ff" stroke="#63b8ff" points="783.84,-25.88 792.02,-19.14 781.43,-19.31 783.84,-25.88"/>
</a>
</g>
</g>
<!-- Node14 -->
<g id="Node000014" class="node">
<title>Node14</title>
<g id="a_Node000014"><a xlink:title=" ">
<polygon fill="#e0e0e0" stroke="#999999" points="911,-19 858,-19 858,0 911,0 911,-19"/>
<text text-anchor="middle" x="884.5" y="-7" font-family="Helvetica,sans-Serif" font-size="10.00">QString</text>
</a>
</g>
</g>
<!-- Node8&#45;&gt;Node14 -->
<g id="edge14_Node000008_Node000014" class="edge">
<title>Node8&#45;&gt;Node14</title>
<g id="a_edge14_Node000008_Node000014"><a xlink:title=" ">
<path fill="none" stroke="#63b8ff" d="M708.24,-55.73C750.75,-44.82 809.93,-29.63 847.73,-19.93"/>
<polygon fill="#63b8ff" stroke="#63b8ff" points="848.97,-23.23 857.79,-17.35 847.23,-16.45 848.97,-23.23"/>
</a>
</g>
</g>
<!-- Node15 -->
<g id="Node000015" class="node">
<title>Node15</title>
<g id="a_Node000015"><a xlink:title=" ">
<polygon fill="#e0e0e0" stroke="#999999" points="613,-19 568,-19 568,0 613,0 613,-19"/>
<text text-anchor="middle" x="590.5" y="-7" font-family="Helvetica,sans-Serif" font-size="10.00">QMap</text>
</a>
</g>
</g>
<!-- Node8&#45;&gt;Node15 -->
<g id="edge16_Node000008_Node000015" class="edge">
<title>Node8&#45;&gt;Node15</title>
<g id="a_edge16_Node000008_Node000015"><a xlink:title=" ">
<path fill="none" stroke="#63b8ff" d="M640.52,-54.84C630.75,-46.17 618.23,-35.08 608.16,-26.15"/>
<polygon fill="#63b8ff" stroke="#63b8ff" points="610.19,-23.28 600.39,-19.27 605.55,-28.52 610.19,-23.28"/>
</a>
</g>
</g>
<!-- Node16&#45;&gt;Node10 -->
<g id="edge19_Node000016_Node000010" class="edge">
<title>Node16&#45;&gt;Node10</title>
<g id="a_edge19_Node000016_Node000010"><a xlink:title=" ">
<path fill="none" stroke="#63b8ff" d="M710.58,-241.98C798.1,-227.48 960.94,-195.19 997.5,-151 1024.84,-117.95 1019.05,-96.31 1007.5,-55 1004.74,-45.12 999.11,-35.25 993.71,-27.32"/>
<polygon fill="#63b8ff" stroke="#63b8ff" points="996.37,-25.04 987.65,-19.03 990.72,-29.17 996.37,-25.04"/>
</a>
</g>
</g>
<!-- Node17 -->
<g id="Node000017" class="node">
<title>Node17</title>
<g id="a_Node000017"><a xlink:title=" ">
<polygon fill="#e0e0e0" stroke="#999999" points="534.5,-145.5 484.5,-145.5 484.5,-126.5 534.5,-126.5 534.5,-145.5"/>
<text text-anchor="middle" x="509.5" y="-133.5" font-family="Helvetica,sans-Serif" font-size="10.00">atomic</text>
</a>
</g>
</g>
<!-- Node16&#45;&gt;Node17 -->
<g id="edge18_Node000016_Node000017" class="edge">
<title>Node16&#45;&gt;Node17</title>
<g id="a_edge18_Node000016_Node000017"><a xlink:title=" ">
<path fill="none" stroke="#63b8ff" d="M635.66,-241.86C619.03,-233.78 594.52,-220.77 575.5,-206 555.36,-190.36 535.6,-168.61 523.03,-153.73"/>
<polygon fill="#63b8ff" stroke="#63b8ff" points="525.58,-151.33 516.51,-145.86 520.19,-155.8 525.58,-151.33"/>
</a>
</g>
</g>
<!-- Node18 -->
<g id="Node000018" class="node">
<title>Node18</title>
<g id="a_Node000018"><a xlink:title=" ">
<polygon fill="#e0e0e0" stroke="#999999" points="632.5,-206 584.5,-206 584.5,-187 632.5,-187 632.5,-206"/>
<text text-anchor="middle" x="608.5" y="-194" font-family="Helvetica,sans-Serif" font-size="10.00">thread</text>
</a>
</g>
</g>
<!-- Node16&#45;&gt;Node18 -->
<g id="edge20_Node000016_Node000018" class="edge">
<title>Node16&#45;&gt;Node18</title>
<g id="a_edge20_Node000016_Node000018"><a xlink:title=" ">
<path fill="none" stroke="#63b8ff" d="M646.9,-241.75C640.34,-234.18 630.68,-223.05 622.69,-213.84"/>
<polygon fill="#63b8ff" stroke="#63b8ff" points="625.15,-211.35 615.95,-206.09 619.87,-215.94 625.15,-211.35"/>
</a>
</g>
</g>
<!-- Node19 -->
<g id="Node000019" class="node">
<title>Node19</title>
<g id="a_Node000019"><a xlink:href="RingBuffer_8h.html" target="_top" xlink:title=" ">
<polygon fill="white" stroke="#666666" points="726.5,-206 650.5,-206 650.5,-187 726.5,-187 726.5,-206"/>
<text text-anchor="middle" x="688.5" y="-194" font-family="Helvetica,sans-Serif" font-size="10.00">RingBuffer.h</text>
</a>
</g>
</g>
<!-- Node16&#45;&gt;Node19 -->
<g id="edge21_Node000016_Node000019" class="edge">
<title>Node16&#45;&gt;Node19</title>
<g id="a_edge21_Node000016_Node000019"><a xlink:title=" ">
<path fill="none" stroke="#63b8ff" d="M660.11,-241.75C664.82,-234.42 671.67,-223.73 677.47,-214.7"/>
<polygon fill="#63b8ff" stroke="#63b8ff" points="680.54,-216.4 682.99,-206.09 674.64,-212.62 680.54,-216.4"/>
</a>
</g>
</g>
<!-- Node25 -->
<g id="Node000025" class="node">
<title>Node25</title>
<g id="a_Node000025"><a xlink:href="Writer_8h.html" target="_top" xlink:title=" ">
<polygon fill="white" stroke="#666666" points="832,-206 777,-206 777,-187 832,-187 832,-206"/>
<text text-anchor="middle" x="804.5" y="-194" font-family="Helvetica,sans-Serif" font-size="10.00">Writer.h</text>
</a>
</g>
</g>
<!-- Node16&#45;&gt;Node25 -->
<g id="edge30_Node000016_Node000025" class="edge">
<title>Node16&#45;&gt;Node25</title>
<g id="a_edge30_Node000016_Node000025"><a xlink:title=" ">
<path fill="none" stroke="#63b8ff" d="M678.6,-241.98C703.38,-233.23 742.2,-219.51 770.19,-209.62"/>
<polygon fill="#63b8ff" stroke="#63b8ff" points="771.7,-212.8 779.96,-206.17 769.37,-206.2 771.7,-212.8"/>
</a>
</g>
</g>
<!-- Node19&#45;&gt;Node10 -->
<g id="edge23_Node000019_Node000010" class="edge">
<title>Node19&#45;&gt;Node10</title>
<g id="a_edge23_Node000019_Node000010"><a xlink:title=" ">
<path fill="none" stroke="#63b8ff" d="M692.53,-186.58C699.78,-171.37 716.37,-140.18 738.5,-121 801.18,-66.65 895.04,-34.17 945.47,-19.62"/>
<polygon fill="#63b8ff" stroke="#63b8ff" points="946.57,-22.95 955.25,-16.87 944.68,-16.21 946.57,-22.95"/>
</a>
</g>
</g>
<!-- Node19&#45;&gt;Node17 -->
<g id="edge25_Node000019_Node000017" class="edge">
<title>Node19&#45;&gt;Node17</title>
<g id="a_edge25_Node000019_Node000017"><a xlink:title=" ">
<path fill="none" stroke="#63b8ff" d="M657.68,-186.94C628.14,-178.53 582.42,-164.95 543.5,-151 542.07,-150.49 540.62,-149.95 539.15,-149.4"/>
<polygon fill="#63b8ff" stroke="#63b8ff" points="540.1,-146.01 529.52,-145.6 537.54,-152.52 540.1,-146.01"/>
</a>
</g>
</g>
<!-- Node20 -->
<g id="Node000020" class="node">
<title>Node20</title>
<g id="a_Node000020"><a xlink:title=" ">
<polygon fill="#e0e0e0" stroke="#999999" points="608.5,-145.5 552.5,-145.5 552.5,-126.5 608.5,-126.5 608.5,-145.5"/>
<text text-anchor="middle" x="580.5" y="-133.5" font-family="Helvetica,sans-Serif" font-size="10.00">QDebug</text>
</a>
</g>
</g>
<!-- Node19&#45;&gt;Node20 -->
<g id="edge22_Node000019_Node000020" class="edge">
<title>Node19&#45;&gt;Node20</title>
<g id="a_edge22_Node000019_Node000020"><a xlink:title=" ">
<path fill="none" stroke="#63b8ff" d="M672.56,-186.87C654.86,-177.28 626.04,-161.67 605.36,-150.47"/>
<polygon fill="#63b8ff" stroke="#63b8ff" points="606.96,-147.35 596.5,-145.67 603.63,-153.51 606.96,-147.35"/>
</a>
</g>
</g>
<!-- Node21 -->
<g id="Node000021" class="node">
<title>Node21</title>
<g id="a_Node000021"><a xlink:title=" ">
<polygon fill="#e0e0e0" stroke="#999999" points="802,-145.5 747,-145.5 747,-126.5 802,-126.5 802,-145.5"/>
<text text-anchor="middle" x="774.5" y="-133.5" font-family="Helvetica,sans-Serif" font-size="10.00">fstream</text>
</a>
</g>
</g>
<!-- Node19&#45;&gt;Node21 -->
<g id="edge24_Node000019_Node000021" class="edge">
<title>Node19&#45;&gt;Node21</title>
<g id="a_edge24_Node000019_Node000021"><a xlink:title=" ">
<path fill="none" stroke="#63b8ff" d="M701.19,-186.87C714.91,-177.54 737,-162.51 753.35,-151.38"/>
<polygon fill="#63b8ff" stroke="#63b8ff" points="755.46,-154.19 761.76,-145.67 751.52,-148.4 755.46,-154.19"/>
</a>
</g>
</g>
<!-- Node22 -->
<g id="Node000022" class="node">
<title>Node22</title>
<g id="a_Node000022"><a xlink:title=" ">
<polygon fill="#e0e0e0" stroke="#999999" points="690.5,-145.5 626.5,-145.5 626.5,-126.5 690.5,-126.5 690.5,-145.5"/>
<text text-anchor="middle" x="658.5" y="-133.5" font-family="Helvetica,sans-Serif" font-size="10.00">algorithm</text>
</a>
</g>
</g>
<!-- Node19&#45;&gt;Node22 -->
<g id="edge26_Node000019_Node000022" class="edge">
<title>Node19&#45;&gt;Node22</title>
<g id="a_edge26_Node000019_Node000022"><a xlink:title=" ">
<path fill="none" stroke="#63b8ff" d="M684.07,-186.87C679.73,-178.4 672.98,-165.24 667.51,-154.57"/>
<polygon fill="#63b8ff" stroke="#63b8ff" points="670.62,-152.97 662.94,-145.67 664.39,-156.16 670.62,-152.97"/>
</a>
</g>
</g>
<!-- Node19&#45;&gt;Node23 -->
<g id="edge27_Node000019_Node000023" class="edge">
<title>Node19&#45;&gt;Node23</title>
<g id="a_edge27_Node000019_Node000023"><a xlink:title=" ">
<path fill="none" stroke="#63b8ff" d="M721.22,-186.99C754.73,-178.28 807.7,-164.51 849.57,-153.62"/>
<polygon fill="#63b8ff" stroke="#63b8ff" points="850.61,-156.97 859.41,-151.06 848.85,-150.19 850.61,-156.97"/>
</a>
</g>
</g>
<!-- Node23&#45;&gt;Node8 -->
<g id="edge29_Node000023_Node000008" class="edge">
<title>Node23&#45;&gt;Node8</title>
<g id="a_edge29_Node000023_Node000008"><a xlink:title=" ">
<path fill="none" stroke="#63b8ff" d="M858.37,-121.27C817.04,-110.98 760.5,-96.9 717.76,-86.26"/>
<polygon fill="#63b8ff" stroke="#63b8ff" points="718.59,-82.86 708.04,-83.84 716.9,-89.65 718.59,-82.86"/>
</a>
</g>
</g>
<!-- Node24 -->
<g id="Node000024" class="node">
<title>Node24</title>
<g id="a_Node000024"><a xlink:title=" ">
<polygon fill="#e0e0e0" stroke="#999999" points="943,-79.5 884,-79.5 884,-60.5 943,-60.5 943,-79.5"/>
<text text-anchor="middle" x="913.5" y="-67.5" font-family="Helvetica,sans-Serif" font-size="10.00">QWidget</text>
</a>
</g>
</g>
<!-- Node23&#45;&gt;Node24 -->
<g id="edge28_Node000023_Node000024" class="edge">
<title>Node23&#45;&gt;Node24</title>
<g id="a_edge28_Node000023_Node000024"><a xlink:title=" ">
<path fill="none" stroke="#63b8ff" d="M913.5,-120.8C913.5,-111.7 913.5,-99.79 913.5,-89.9"/>
<polygon fill="#63b8ff" stroke="#63b8ff" points="917,-89.84 913.5,-79.84 910,-89.84 917,-89.84"/>
</a>
</g>
</g>
<!-- Node25&#45;&gt;Node10 -->
<g id="edge31_Node000025_Node000010" class="edge">
<title>Node25&#45;&gt;Node10</title>
<g id="a_edge31_Node000025_Node000010"><a xlink:title=" ">
<path fill="none" stroke="#63b8ff" d="M832.21,-192.41C876.38,-186.85 959.59,-173.6 977.5,-151 1005.45,-115.73 994.68,-58.36 986.48,-29.03"/>
<polygon fill="#63b8ff" stroke="#63b8ff" points="989.78,-27.84 983.55,-19.27 983.07,-29.86 989.78,-27.84"/>
</a>
</g>
</g>
<!-- Node25&#45;&gt;Node11 -->
<g id="edge33_Node000025_Node000011" class="edge">
<title>Node25&#45;&gt;Node11</title>
<g id="a_edge33_Node000025_Node000011"><a xlink:title=" ">
<path fill="none" stroke="#63b8ff" d="M808.84,-186.95C815.87,-171.75 827.45,-139.84 811.5,-121 748.9,-47.05 681.77,-131.01 596.5,-85 571.37,-71.44 550.41,-45.21 538.41,-27.77"/>
<polygon fill="#63b8ff" stroke="#63b8ff" points="541.13,-25.54 532.7,-19.13 535.29,-29.4 541.13,-25.54"/>
</a>
</g>
</g>
<!-- Node25&#45;&gt;Node21 -->
<g id="edge32_Node000025_Node000021" class="edge">
<title>Node25&#45;&gt;Node21</title>
<g id="a_edge32_Node000025_Node000021"><a xlink:title=" ">
<path fill="none" stroke="#63b8ff" d="M800.07,-186.87C795.73,-178.4 788.98,-165.24 783.51,-154.57"/>
<polygon fill="#63b8ff" stroke="#63b8ff" points="786.62,-152.97 778.94,-145.67 780.39,-156.16 786.62,-152.97"/>
</a>
</g>
</g>
<!-- Node25&#45;&gt;Node23 -->
<g id="edge34_Node000025_Node000023" class="edge">
<title>Node25&#45;&gt;Node23</title>
<g id="a_edge34_Node000025_Node000023"><a xlink:title=" ">
<path fill="none" stroke="#63b8ff" d="M820.58,-186.87C835.72,-178.75 858.89,-166.31 878.3,-155.89"/>
<polygon fill="#63b8ff" stroke="#63b8ff" points="880.04,-158.93 887.2,-151.11 876.73,-152.76 880.04,-158.93"/>
</a>
</g>
</g>
<!-- Node26&#45;&gt;Node3 -->
<g id="edge37_Node000026_Node000003" class="edge">
<title>Node26&#45;&gt;Node3</title>
<g id="a_edge37_Node000026_Node000003"><a xlink:title=" ">
<path fill="none" stroke="#63b8ff" d="M284.94,-126.44C293,-106.36 313.28,-55.87 324.22,-28.62"/>
<polygon fill="#63b8ff" stroke="#63b8ff" points="327.56,-29.7 328.04,-19.12 321.06,-27.09 327.56,-29.7"/>
</a>
</g>
</g>
<!-- Node26&#45;&gt;Node8 -->
<g id="edge38_Node000026_Node000008" class="edge">
<title>Node26&#45;&gt;Node8</title>
<g id="a_edge38_Node000026_Node000008"><a xlink:title=" ">
<path fill="none" stroke="#63b8ff" d="M331.69,-126.44C399.73,-114.82 521.2,-94.09 594.76,-81.54"/>
<polygon fill="#63b8ff" stroke="#63b8ff" points="595.54,-84.95 604.81,-79.82 594.36,-78.05 595.54,-84.95"/>
</a>
</g>
</g>
<!-- Node27&#45;&gt;Node3 -->
<g id="edge42_Node000027_Node000003" class="edge">
<title>Node27&#45;&gt;Node3</title>
<g id="a_edge42_Node000027_Node000003"><a xlink:title=" ">
<path fill="none" stroke="#63b8ff" d="M439.49,-54.99C415.9,-45.27 384.76,-32.44 361.98,-23.06"/>
<polygon fill="#63b8ff" stroke="#63b8ff" points="363.05,-19.71 352.47,-19.14 360.38,-26.18 363.05,-19.71"/>
</a>
</g>
</g>
<!-- Node27&#45;&gt;Node11 -->
<g id="edge40_Node000027_Node000011" class="edge">
<title>Node27&#45;&gt;Node11</title>
<g id="a_edge40_Node000027_Node000011"><a xlink:title=" ">
<path fill="none" stroke="#63b8ff" d="M486.57,-54.84C494.41,-46.35 504.41,-35.52 512.56,-26.69"/>
<polygon fill="#63b8ff" stroke="#63b8ff" points="515.2,-28.99 519.41,-19.27 510.05,-24.24 515.2,-28.99"/>
</a>
</g>
</g>
<!-- Node28 -->
<g id="Node000028" class="node">
<title>Node28</title>
<g id="a_Node000028"><a xlink:title=" ">
<polygon fill="#e0e0e0" stroke="#999999" points="487,-19 440,-19 440,0 487,0 487,-19"/>
<text text-anchor="middle" x="463.5" y="-7" font-family="Helvetica,sans-Serif" font-size="10.00">vector</text>
</a>
</g>
</g>
<!-- Node27&#45;&gt;Node28 -->
<g id="edge41_Node000027_Node000028" class="edge">
<title>Node27&#45;&gt;Node28</title>
<g id="a_edge41_Node000027_Node000028"><a xlink:title=" ">
<path fill="none" stroke="#63b8ff" d="M471.08,-54.84C469.76,-47.13 468.11,-37.49 466.69,-29.17"/>
<polygon fill="#63b8ff" stroke="#63b8ff" points="470.13,-28.53 465,-19.27 463.23,-29.71 470.13,-28.53"/>
</a>
</g>
</g>
<!-- Node29&#45;&gt;Node3 -->
<g id="edge44_Node000029_Node000003" class="edge">
<title>Node29&#45;&gt;Node3</title>
<g id="a_edge44_Node000029_Node000003"><a xlink:title=" ">
<path fill="none" stroke="#63b8ff" d="M75,-186.65C85.29,-161.8 117.96,-90.82 168.5,-55 205.7,-28.64 257.81,-17.88 293.01,-13.5"/>
<polygon fill="#63b8ff" stroke="#63b8ff" points="293.82,-16.93 303.36,-12.34 293.03,-9.98 293.82,-16.93"/>
</a>
</g>
</g>
<!-- Node31 -->
<g id="Node000031" class="node">
<title>Node31</title>
<g id="a_Node000031"><a xlink:title=" ">
<polygon fill="#e0e0e0" stroke="#999999" points="961,-261 908,-261 908,-242 961,-242 961,-261"/>
<text text-anchor="middle" x="934.5" y="-249" font-family="Helvetica,sans-Serif" font-size="10.00">QTimer</text>
</a>
</g>
</g>
<!-- Node30&#45;&gt;Node31 -->
<g id="edge46_Node000030_Node000031" class="edge">
<title>Node30&#45;&gt;Node31</title>
<g id="a_edge46_Node000030_Node000031"><a xlink:title=" ">
<path fill="none" stroke="#63b8ff" d="M934.5,-302.37C934.5,-294.25 934.5,-281.81 934.5,-271.39"/>
<polygon fill="#63b8ff" stroke="#63b8ff" points="938,-271.17 934.5,-261.17 931,-271.17 938,-271.17"/>
</a>
</g>
</g>
</g>
</svg>

<g id="navigator" transform="translate(0 0)" fill="#404254">
  <rect fill="#f2f5e9" fill-opacity="0.5" stroke="#606060" stroke-width=".5" x="0" y="0" width="60" height="60"/>
  <use id="zoomplus" xlink:href="#zoomPlus" x="17" y="9" onmousedown="handleZoom(evt,'in')"/>
  <use id="zoomminus" xlink:href="#zoomMin" x="42" y="9" onmousedown="handleZoom(evt,'out')"/>
  <use id="reset" xlink:href="#resetDef" x="30" y="36" onmousedown="handleReset()"/>
   <use id="arrowup" xlink:href="#arrowUp" x="0" y="0" onmousedown="handlePan(0,-1)"/>
  <use id="arrowright" xlink:href="#arrowRight" x="0" y="0" onmousedown="handlePan(1,0)"/>
  <use id="arrowdown" xlink:href="#arrowDown" x="0" y="0" onmousedown="handlePan(0,1)"/>
  <use id="arrowleft" xlink:href="#arrowLeft" x="0" y="0" onmousedown="handlePan(-1,0)"/>
</g>
<svg viewBox="0 0 15 15" width="100%" height="30px" preserveAspectRatio="xMaxYMin meet">
 <g id="arrow_out" transform="scale(0.3 0.3)">
  <a xlink:href="AppServices_8cpp__incl_org.svg" target="_base">
   <rect id="button" ry="5" rx="5" y="6" x="6" height="38" width="38"
        fill="#f2f5e9" fill-opacity="0.5" stroke="#606060" stroke-width="1.0"/>
   <path id="arrow"
     d="M 11.500037,31.436501 C 11.940474,20.09759 22.043105,11.32322 32.158766,21.979434 L 37.068811,17.246167 C 37.068811,17.246167 37.088388,32 37.088388,32 L 22.160133,31.978069 C 22.160133,31.978069 26.997745,27.140456 26.997745,27.140456 C 18.528582,18.264221 13.291696,25.230495 11.500037,31.436501 z"
     style="fill:#404040;"/>
  </a>
 </g>
</svg>

<style type='text/css'>
<![CDATA[
[data-mouse-over-selected='false'] { opacity: 0.7; }
[data-mouse-over-selected='true']  { opacity: 1.0; }
]]>
</style>
<script type="application/ecmascript"><![CDATA[
document.addEventListener('DOMContentLoaded', (event) => {
  highlightEdges();
  highlightAdjacentNodes();
});
]]></script>
</svg>
