<?xml version="1.0" encoding="UTF-8" standalone="no"?>
<!DOCTYPE svg PUBLIC "-//W3C//DTD SVG 1.1//EN"
 "http://www.w3.org/Graphics/SVG/1.1/DTD/svg11.dtd">
<!-- Generated by graphviz version 2.43.0 (0)
 -->
<!-- Title: mvvm/viewmodels/AppViewModels.h Pages: 1 -->
<svg width="1708pt" height="181pt"
 viewBox="0.00 0.00 1707.50 181.00" xmlns="http://www.w3.org/2000/svg" xmlns:xlink="http://www.w3.org/1999/xlink">
<g id="graph0" class="graph" transform="scale(1 1) rotate(0) translate(4 177)">
<title>mvvm/viewmodels/AppViewModels.h</title>
<!-- Node1 -->
<g id="Node000001" class="node">
<title>Node1</title>
<g id="a_Node000001"><a xlink:title=" ">
<polygon fill="#999999" stroke="#666666" points="830.5,-173 630.5,-173 630.5,-154 830.5,-154 830.5,-173"/>
<text text-anchor="middle" x="730.5" y="-161" font-family="Helvetica,sans-Serif" font-size="10.00">mvvm/viewmodels/AppViewModels.h</text>
</a>
</g>
</g>
<!-- Node2 -->
<g id="Node000002" class="node">
<title>Node2</title>
<g id="a_Node000002"><a xlink:href="main_8cpp.html" target="_top" xlink:title=" ">
<polygon fill="white" stroke="#666666" points="83,-107 0,-107 0,-88 83,-88 83,-107"/>
<text text-anchor="middle" x="41.5" y="-95" font-family="Helvetica,sans-Serif" font-size="10.00">app/main.cpp</text>
</a>
</g>
</g>
<!-- Node1&#45;&gt;Node2 -->
<g id="edge1_Node000001_Node000002" class="edge">
<title>Node1&#45;&gt;Node2</title>
<g id="a_edge1_Node000001_Node000002"><a xlink:title=" ">
<path fill="none" stroke="#63b8ff" d="M620.17,-158.73C464.87,-152.75 189.9,-139.52 92.5,-118 81.39,-115.55 69.49,-111.11 59.98,-107.09"/>
<polygon fill="#63b8ff" stroke="#63b8ff" points="620.09,-162.23 630.22,-159.11 620.36,-155.24 620.09,-162.23"/>
</a>
</g>
</g>
<!-- Node3 -->
<g id="Node000003" class="node">
<title>Node3</title>
<g id="a_Node000003"><a xlink:href="GraphicTabFactory_8h.html" target="_top" xlink:title=" ">
<polygon fill="white" stroke="#666666" points="243.5,-112.5 101.5,-112.5 101.5,-82.5 243.5,-82.5 243.5,-112.5"/>
<text text-anchor="start" x="109.5" y="-100.5" font-family="Helvetica,sans-Serif" font-size="10.00">features/graphics/Graphic</text>
<text text-anchor="middle" x="172.5" y="-89.5" font-family="Helvetica,sans-Serif" font-size="10.00">TabFactory.h</text>
</a>
</g>
</g>
<!-- Node1&#45;&gt;Node3 -->
<g id="edge2_Node000001_Node000003" class="edge">
<title>Node1&#45;&gt;Node3</title>
<g id="a_edge2_Node000001_Node000003"><a xlink:title=" ">
<path fill="none" stroke="#63b8ff" d="M620.02,-156.81C522.75,-150.71 377.54,-138.94 252.5,-118 243.62,-116.51 234.26,-114.58 225.2,-112.5"/>
<polygon fill="#63b8ff" stroke="#63b8ff" points="619.96,-160.31 630.16,-157.44 620.39,-153.33 619.96,-160.31"/>
</a>
</g>
</g>
<!-- Node6 -->
<g id="Node000006" class="node">
<title>Node6</title>
<g id="a_Node000006"><a xlink:href="FilesMenuFactory_8cpp.html" target="_top" xlink:title=" ">
<polygon fill="white" stroke="#666666" points="393.5,-112.5 261.5,-112.5 261.5,-82.5 393.5,-82.5 393.5,-112.5"/>
<text text-anchor="start" x="269.5" y="-100.5" font-family="Helvetica,sans-Serif" font-size="10.00">features/menu_bar/files</text>
<text text-anchor="middle" x="327.5" y="-89.5" font-family="Helvetica,sans-Serif" font-size="10.00">/FilesMenuFactory.cpp</text>
</a>
</g>
</g>
<!-- Node1&#45;&gt;Node6 -->
<g id="edge5_Node000001_Node000006" class="edge">
<title>Node1&#45;&gt;Node6</title>
<g id="a_edge5_Node000001_Node000006"><a xlink:title=" ">
<path fill="none" stroke="#63b8ff" d="M637.19,-152.85C571.28,-145.3 481.07,-133.49 402.5,-118 394.58,-116.44 386.25,-114.54 378.14,-112.54"/>
<polygon fill="#63b8ff" stroke="#63b8ff" points="636.81,-156.33 647.14,-153.98 637.6,-149.37 636.81,-156.33"/>
</a>
</g>
</g>
<!-- Node7 -->
<g id="Node000007" class="node">
<title>Node7</title>
<g id="a_Node000007"><a xlink:href="ToolsMenuFactory_8cpp.html" target="_top" xlink:title=" ">
<polygon fill="white" stroke="#666666" points="547.5,-112.5 411.5,-112.5 411.5,-82.5 547.5,-82.5 547.5,-112.5"/>
<text text-anchor="start" x="419.5" y="-100.5" font-family="Helvetica,sans-Serif" font-size="10.00">features/menu_bar/tools</text>
<text text-anchor="middle" x="479.5" y="-89.5" font-family="Helvetica,sans-Serif" font-size="10.00">/ToolsMenuFactory.cpp</text>
</a>
</g>
</g>
<!-- Node1&#45;&gt;Node7 -->
<g id="edge6_Node000001_Node000007" class="edge">
<title>Node1&#45;&gt;Node7</title>
<g id="a_edge6_Node000001_Node000007"><a xlink:title=" ">
<path fill="none" stroke="#63b8ff" d="M687.19,-151.46C644.9,-140.67 580.4,-124.23 534.5,-112.52"/>
<polygon fill="#63b8ff" stroke="#63b8ff" points="686.35,-154.86 696.91,-153.94 688.08,-148.07 686.35,-154.86"/>
</a>
</g>
</g>
<!-- Node8 -->
<g id="Node000008" class="node">
<title>Node8</title>
<g id="a_Node000008"><a xlink:href="OverlayFactory_8cpp.html" target="_top" xlink:title=" ">
<polygon fill="white" stroke="#666666" points="703.5,-112.5 565.5,-112.5 565.5,-82.5 703.5,-82.5 703.5,-112.5"/>
<text text-anchor="start" x="573.5" y="-100.5" font-family="Helvetica,sans-Serif" font-size="10.00">features/overlay/Overlay</text>
<text text-anchor="middle" x="634.5" y="-89.5" font-family="Helvetica,sans-Serif" font-size="10.00">Factory.cpp</text>
</a>
</g>
</g>
<!-- Node1&#45;&gt;Node8 -->
<g id="edge7_Node000001_Node000008" class="edge">
<title>Node1&#45;&gt;Node8</title>
<g id="a_edge7_Node000001_Node000008"><a xlink:title=" ">
<path fill="none" stroke="#63b8ff" d="M708.92,-148.12C693.02,-137.51 671.48,-123.16 655.67,-112.62"/>
<polygon fill="#63b8ff" stroke="#63b8ff" points="707.29,-151.23 717.55,-153.87 711.17,-145.41 707.29,-151.23"/>
</a>
</g>
</g>
<!-- Node9 -->
<g id="Node000009" class="node">
<title>Node9</title>
<g id="a_Node000009"><a xlink:href="ParametersWindowFactory_8cpp.html" target="_top" xlink:title=" ">
<polygon fill="white" stroke="#666666" points="933,-112.5 722,-112.5 722,-82.5 933,-82.5 933,-112.5"/>
<text text-anchor="start" x="730" y="-100.5" font-family="Helvetica,sans-Serif" font-size="10.00">features/parameters</text>
<text text-anchor="middle" x="827.5" y="-89.5" font-family="Helvetica,sans-Serif" font-size="10.00">_window/ParametersWindowFactory.cpp</text>
</a>
</g>
</g>
<!-- Node1&#45;&gt;Node9 -->
<g id="edge8_Node000001_Node000009" class="edge">
<title>Node1&#45;&gt;Node9</title>
<g id="a_edge8_Node000001_Node000009"><a xlink:title=" ">
<path fill="none" stroke="#63b8ff" d="M752.3,-148.12C768.37,-137.51 790.13,-123.16 806.11,-112.62"/>
<polygon fill="#63b8ff" stroke="#63b8ff" points="750,-145.44 743.58,-153.87 753.86,-151.28 750,-145.44"/>
</a>
</g>
</g>
<!-- Node10 -->
<g id="Node000010" class="node">
<title>Node10</title>
<g id="a_Node000010"><a xlink:href="PidTabFactory_8cpp.html" target="_top" xlink:title=" ">
<polygon fill="white" stroke="#666666" points="1115.5,-107 951.5,-107 951.5,-88 1115.5,-88 1115.5,-107"/>
<text text-anchor="middle" x="1033.5" y="-95" font-family="Helvetica,sans-Serif" font-size="10.00">features/pid/PidTabFactory.cpp</text>
</a>
</g>
</g>
<!-- Node1&#45;&gt;Node10 -->
<g id="edge9_Node000001_Node000010" class="edge">
<title>Node1&#45;&gt;Node10</title>
<g id="a_edge9_Node000001_Node000010"><a xlink:title=" ">
<path fill="none" stroke="#63b8ff" d="M780.83,-151.9C823.58,-142.89 886.57,-129.61 941.5,-118 958.43,-114.42 977.12,-110.46 993.2,-107.05"/>
<polygon fill="#63b8ff" stroke="#63b8ff" points="780.02,-148.49 770.95,-153.98 781.46,-155.34 780.02,-148.49"/>
</a>
</g>
</g>
<!-- Node11 -->
<g id="Node000011" class="node">
<title>Node11</title>
<g id="a_Node000011"><a xlink:href="TestTabFactory_8h.html" target="_top" xlink:title=" ">
<polygon fill="white" stroke="#666666" points="1295,-107 1134,-107 1134,-88 1295,-88 1295,-107"/>
<text text-anchor="middle" x="1214.5" y="-95" font-family="Helvetica,sans-Serif" font-size="10.00">features/test/TestTabFactory.h</text>
</a>
</g>
</g>
<!-- Node1&#45;&gt;Node11 -->
<g id="edge10_Node000001_Node000011" class="edge">
<title>Node1&#45;&gt;Node11</title>
<g id="a_edge10_Node000001_Node000011"><a xlink:title=" ">
<path fill="none" stroke="#63b8ff" d="M840.88,-153.04C920.09,-145.52 1029.23,-133.66 1124.5,-118 1142.64,-115.02 1162.65,-110.78 1179.18,-107.02"/>
<polygon fill="#63b8ff" stroke="#63b8ff" points="840.51,-149.56 830.88,-153.98 841.16,-156.53 840.51,-149.56"/>
</a>
</g>
</g>
<!-- Node13 -->
<g id="Node000013" class="node">
<title>Node13</title>
<g id="a_Node000013"><a xlink:href="TankPressureControlerFrameFactory_8h.html" target="_top" xlink:title=" ">
<polygon fill="white" stroke="#666666" points="1469.5,-118 1313.5,-118 1313.5,-77 1469.5,-77 1469.5,-118"/>
<text text-anchor="start" x="1321.5" y="-106" font-family="Helvetica,sans-Serif" font-size="10.00">features/test/frames</text>
<text text-anchor="start" x="1321.5" y="-95" font-family="Helvetica,sans-Serif" font-size="10.00">/tank_pressure/TankPressure</text>
<text text-anchor="middle" x="1391.5" y="-84" font-family="Helvetica,sans-Serif" font-size="10.00">ControlerFrameFactory.h</text>
</a>
</g>
</g>
<!-- Node1&#45;&gt;Node13 -->
<g id="edge13_Node000001_Node000013" class="edge">
<title>Node1&#45;&gt;Node13</title>
<g id="a_edge13_Node000001_Node000013"><a xlink:title=" ">
<path fill="none" stroke="#63b8ff" d="M840.84,-158.64C956.8,-153.48 1144.26,-142.04 1304.5,-118 1307.41,-117.56 1310.36,-117.08 1313.34,-116.57"/>
<polygon fill="#63b8ff" stroke="#63b8ff" points="840.37,-155.15 830.54,-159.08 840.68,-162.15 840.37,-155.15"/>
</a>
</g>
</g>
<!-- Node15 -->
<g id="Node000015" class="node">
<title>Node15</title>
<g id="a_Node000015"><a xlink:href="AppViewModels_8cpp.html" target="_top" xlink:title=" ">
<polygon fill="white" stroke="#666666" points="1699.5,-107 1487.5,-107 1487.5,-88 1699.5,-88 1699.5,-107"/>
<text text-anchor="middle" x="1593.5" y="-95" font-family="Helvetica,sans-Serif" font-size="10.00">mvvm/viewmodels/AppViewModels.cpp</text>
</a>
</g>
</g>
<!-- Node1&#45;&gt;Node15 -->
<g id="edge16_Node000001_Node000015" class="edge">
<title>Node1&#45;&gt;Node15</title>
<g id="a_edge16_Node000001_Node000015"><a xlink:title=" ">
<path fill="none" stroke="#63b8ff" d="M840.93,-159.68C987.16,-155.08 1252.88,-143.76 1478.5,-118 1502.24,-115.29 1528.53,-110.93 1549.97,-107.03"/>
<polygon fill="#63b8ff" stroke="#63b8ff" points="840.5,-156.19 830.61,-160 840.72,-163.18 840.5,-156.19"/>
</a>
</g>
</g>
<!-- Node4 -->
<g id="Node000004" class="node">
<title>Node4</title>
<g id="a_Node000004"><a xlink:href="MainWindow_8cpp.html" target="_top" xlink:title=" ">
<polygon fill="white" stroke="#666666" points="746.5,-30 626.5,-30 626.5,-11 746.5,-11 746.5,-30"/>
<text text-anchor="middle" x="686.5" y="-18" font-family="Helvetica,sans-Serif" font-size="10.00">app/MainWindow.cpp</text>
</a>
</g>
</g>
<!-- Node3&#45;&gt;Node4 -->
<g id="edge3_Node000003_Node000004" class="edge">
<title>Node3&#45;&gt;Node4</title>
<g id="a_edge3_Node000003_Node000004"><a xlink:title=" ">
<path fill="none" stroke="#63b8ff" d="M236.33,-80.27C241.79,-79.08 247.23,-77.98 252.5,-77 385.08,-52.45 542.45,-35.26 626.5,-27.03"/>
<polygon fill="#63b8ff" stroke="#63b8ff" points="235.54,-76.86 226.54,-82.46 237.07,-83.69 235.54,-76.86"/>
</a>
</g>
</g>
<!-- Node5 -->
<g id="Node000005" class="node">
<title>Node5</title>
<g id="a_Node000005"><a xlink:href="GraphicTabFactory_8cpp.html" target="_top" xlink:title=" ">
<polygon fill="white" stroke="#666666" points="243.5,-35.5 101.5,-35.5 101.5,-5.5 243.5,-5.5 243.5,-35.5"/>
<text text-anchor="start" x="109.5" y="-23.5" font-family="Helvetica,sans-Serif" font-size="10.00">features/graphics/Graphic</text>
<text text-anchor="middle" x="172.5" y="-12.5" font-family="Helvetica,sans-Serif" font-size="10.00">TabFactory.cpp</text>
</a>
</g>
</g>
<!-- Node3&#45;&gt;Node5 -->
<g id="edge4_Node000003_Node000005" class="edge">
<title>Node3&#45;&gt;Node5</title>
<g id="a_edge4_Node000003_Node000005"><a xlink:title=" ">
<path fill="none" stroke="#63b8ff" d="M172.5,-72.04C172.5,-59.95 172.5,-45.79 172.5,-35.54"/>
<polygon fill="#63b8ff" stroke="#63b8ff" points="169,-72.39 172.5,-82.39 176,-72.39 169,-72.39"/>
</a>
</g>
</g>
<!-- Node11&#45;&gt;Node4 -->
<g id="edge11_Node000011_Node000004" class="edge">
<title>Node11&#45;&gt;Node4</title>
<g id="a_edge11_Node000011_Node000004"><a xlink:title=" ">
<path fill="none" stroke="#63b8ff" d="M1168.74,-85.78C1154.61,-82.68 1138.96,-79.48 1124.5,-77 990.21,-53.99 831.25,-36.18 746.61,-27.44"/>
<polygon fill="#63b8ff" stroke="#63b8ff" points="1168.21,-89.24 1178.73,-88 1169.73,-82.41 1168.21,-89.24"/>
</a>
</g>
</g>
<!-- Node12 -->
<g id="Node000012" class="node">
<title>Node12</title>
<g id="a_Node000012"><a xlink:href="TestTabFactory_8cpp.html" target="_top" xlink:title=" ">
<polygon fill="white" stroke="#666666" points="1300.5,-30 1128.5,-30 1128.5,-11 1300.5,-11 1300.5,-30"/>
<text text-anchor="middle" x="1214.5" y="-18" font-family="Helvetica,sans-Serif" font-size="10.00">features/test/TestTabFactory.cpp</text>
</a>
</g>
</g>
<!-- Node11&#45;&gt;Node12 -->
<g id="edge12_Node000011_Node000012" class="edge">
<title>Node11&#45;&gt;Node12</title>
<g id="a_edge12_Node000011_Node000012"><a xlink:title=" ">
<path fill="none" stroke="#63b8ff" d="M1214.5,-77.52C1214.5,-62.24 1214.5,-41.48 1214.5,-30"/>
<polygon fill="#63b8ff" stroke="#63b8ff" points="1211,-77.9 1214.5,-87.9 1218,-77.9 1211,-77.9"/>
</a>
</g>
</g>
<!-- Node13&#45;&gt;Node12 -->
<g id="edge14_Node000013_Node000012" class="edge">
<title>Node13&#45;&gt;Node12</title>
<g id="a_edge14_Node000013_Node000012"><a xlink:title=" ">
<path fill="none" stroke="#63b8ff" d="M1335.97,-72.97C1301.51,-58.37 1259.27,-40.47 1234.77,-30.09"/>
<polygon fill="#63b8ff" stroke="#63b8ff" points="1334.88,-76.31 1345.46,-76.99 1337.62,-69.87 1334.88,-76.31"/>
</a>
</g>
</g>
<!-- Node14 -->
<g id="Node000014" class="node">
<title>Node14</title>
<g id="a_Node000014"><a xlink:href="TankPressureControlerFrameFactory_8cpp.html" target="_top" xlink:title=" ">
<polygon fill="white" stroke="#666666" points="1474.5,-41 1318.5,-41 1318.5,0 1474.5,0 1474.5,-41"/>
<text text-anchor="start" x="1326.5" y="-29" font-family="Helvetica,sans-Serif" font-size="10.00">features/test/frames</text>
<text text-anchor="start" x="1326.5" y="-18" font-family="Helvetica,sans-Serif" font-size="10.00">/tank_pressure/TankPressure</text>
<text text-anchor="middle" x="1396.5" y="-7" font-family="Helvetica,sans-Serif" font-size="10.00">ControlerFrameFactory.cpp</text>
</a>
</g>
</g>
<!-- Node13&#45;&gt;Node14 -->
<g id="edge15_Node000013_Node000014" class="edge">
<title>Node13&#45;&gt;Node14</title>
<g id="a_edge15_Node000013_Node000014"><a xlink:title=" ">
<path fill="none" stroke="#63b8ff" d="M1393.49,-66.69C1394.06,-58.08 1394.67,-48.9 1395.2,-41.07"/>
<polygon fill="#63b8ff" stroke="#63b8ff" points="1389.99,-66.58 1392.81,-76.79 1396.97,-67.05 1389.99,-66.58"/>
</a>
</g>
</g>
</g>
</svg>
