<?xml version="1.0" encoding="UTF-8" standalone="no"?>
<!DOCTYPE svg PUBLIC "-//W3C//DTD SVG 1.1//EN"
 "http://www.w3.org/Graphics/SVG/1.1/DTD/svg11.dtd">
<!-- Generated by graphviz version 2.43.0 (0)
 -->
<!-- Title: UdpChannel::startEndpoint Pages: 1 -->
<svg width="805pt" height="82pt"
 viewBox="0.00 0.00 805.00 82.00" xmlns="http://www.w3.org/2000/svg" xmlns:xlink="http://www.w3.org/1999/xlink">
<g id="graph0" class="graph" transform="scale(1 1) rotate(0) translate(4 78)">
<title>UdpChannel::startEndpoint</title>
<!-- Node1 -->
<g id="Node000001" class="node">
<title>Node1</title>
<g id="a_Node000001"><a xlink:title="Start the UDP channel and its subsystems.">
<polygon fill="#999999" stroke="#666666" points="147,-37 0,-37 0,-18 147,-18 147,-37"/>
<text text-anchor="middle" x="73.5" y="-25" font-family="Helvetica,sans-Serif" font-size="10.00">UdpChannel::startEndpoint</text>
</a>
</g>
</g>
<!-- Node2 -->
<g id="Node000002" class="node">
<title>Node2</title>
<g id="a_Node000002"><a xlink:href="classUdpLogger.html#a55781f93bfc47a004e7b7b8afaa0192c" target="_top" xlink:title="Initialize the writer and start the writer thread.">
<polygon fill="white" stroke="#666666" points="311,-56 213,-56 213,-37 311,-37 311,-56"/>
<text text-anchor="middle" x="262" y="-44" font-family="Helvetica,sans-Serif" font-size="10.00">UdpLogger::start</text>
</a>
</g>
</g>
<!-- Node1&#45;&gt;Node2 -->
<g id="edge1_Node000001_Node000002" class="edge">
<title>Node1&#45;&gt;Node2</title>
<g id="a_edge1_Node000001_Node000002"><a xlink:title=" ">
<path fill="none" stroke="#63b8ff" d="M147.14,-34.9C165.61,-36.78 185.21,-38.78 202.85,-40.58"/>
<polygon fill="#63b8ff" stroke="#63b8ff" points="202.68,-44.08 212.99,-41.61 203.39,-37.11 202.68,-44.08"/>
</a>
</g>
</g>
<!-- Node7 -->
<g id="Node000007" class="node">
<title>Node7</title>
<g id="a_Node000007"><a xlink:href="classUdpChannel.html#a48718b685a3059703ffbb06980376f7e" target="_top" xlink:title="Instructs the UdpWorker to start listening.">
<polygon fill="white" stroke="#666666" points="341,-19 183,-19 183,0 341,0 341,-19"/>
<text text-anchor="middle" x="262" y="-7" font-family="Helvetica,sans-Serif" font-size="10.00">UdpChannel::startUdpWorker</text>
</a>
</g>
</g>
<!-- Node1&#45;&gt;Node7 -->
<g id="edge9_Node000001_Node000007" class="edge">
<title>Node1&#45;&gt;Node7</title>
<g id="a_edge9_Node000001_Node000007"><a xlink:title=" ">
<path fill="none" stroke="#63b8ff" d="M147.14,-20.49C155.52,-19.68 164.13,-18.85 172.69,-18.02"/>
<polygon fill="#63b8ff" stroke="#63b8ff" points="173.08,-21.5 182.7,-17.06 172.41,-14.53 173.08,-21.5"/>
</a>
</g>
</g>
<!-- Node3 -->
<g id="Node000003" class="node">
<title>Node3</title>
<g id="a_Node000003"><a xlink:href="classLogger.html#ad89b36eb9b5a28d1f61b3c74a6975031" target="_top" xlink:title=" ">
<polygon fill="white" stroke="#666666" points="626,-74 540,-74 540,-55 626,-55 626,-74"/>
<text text-anchor="middle" x="583" y="-62" font-family="Helvetica,sans-Serif" font-size="10.00">Logger::debug</text>
</a>
</g>
</g>
<!-- Node2&#45;&gt;Node3 -->
<g id="edge2_Node000002_Node000003" class="edge">
<title>Node2&#45;&gt;Node3</title>
<g id="a_edge2_Node000002_Node000003"><a xlink:title=" ">
<path fill="none" stroke="#63b8ff" d="M309.37,-56.01C329.98,-59.78 354.6,-63.65 377,-65.5 433.25,-70.16 447.56,-65.86 504,-65.5 512.37,-65.45 521.25,-65.36 529.9,-65.26"/>
<polygon fill="#63b8ff" stroke="#63b8ff" points="529.94,-68.76 539.9,-65.14 529.86,-61.76 529.94,-68.76"/>
</a>
</g>
</g>
<!-- Node5 -->
<g id="Node000005" class="node">
<title>Node5</title>
<g id="a_Node000005"><a xlink:href="classLogger.html#a6c8bf2fc8c89d76b7f4fe25d97ad4bf3" target="_top" xlink:title=" ">
<polygon fill="white" stroke="#666666" points="622.5,-37 543.5,-37 543.5,-18 622.5,-18 622.5,-37"/>
<text text-anchor="middle" x="583" y="-25" font-family="Helvetica,sans-Serif" font-size="10.00">Logger::error</text>
</a>
</g>
</g>
<!-- Node2&#45;&gt;Node5 -->
<g id="edge4_Node000002_Node000005" class="edge">
<title>Node2&#45;&gt;Node5</title>
<g id="a_edge4_Node000002_Node000005"><a xlink:title=" ">
<path fill="none" stroke="#63b8ff" d="M309.37,-36.99C329.98,-33.22 354.6,-29.35 377,-27.5 430.3,-23.09 491.66,-23.86 533.25,-25.24"/>
<polygon fill="#63b8ff" stroke="#63b8ff" points="533.26,-28.75 543.38,-25.61 533.51,-21.75 533.26,-28.75"/>
</a>
</g>
</g>
<!-- Node6 -->
<g id="Node000006" class="node">
<title>Node6</title>
<g id="a_Node000006"><a xlink:href="classUdpLogger.html#a4f7e8bb32128f9186dc452a57134475d" target="_top" xlink:title="Writer loop executed on m_writerThread.">
<polygon fill="white" stroke="#666666" points="504,-56 377,-56 377,-37 504,-37 504,-56"/>
<text text-anchor="middle" x="440.5" y="-44" font-family="Helvetica,sans-Serif" font-size="10.00">UdpLogger::writerLoop</text>
</a>
</g>
</g>
<!-- Node2&#45;&gt;Node6 -->
<g id="edge6_Node000002_Node000006" class="edge">
<title>Node2&#45;&gt;Node6</title>
<g id="a_edge6_Node000002_Node000006"><a xlink:title=" ">
<path fill="none" stroke="#63b8ff" d="M311.23,-46.5C328.28,-46.5 347.86,-46.5 366.51,-46.5"/>
<polygon fill="#63b8ff" stroke="#63b8ff" points="366.74,-50 376.74,-46.5 366.74,-43 366.74,-50"/>
</a>
</g>
</g>
<!-- Node4 -->
<g id="Node000004" class="node">
<title>Node4</title>
<g id="a_Node000004"><a xlink:href="classLogger.html#a02453fd0695fe06c495de714399e8bf7" target="_top" xlink:title=" ">
<polygon fill="white" stroke="#666666" points="797,-55 662,-55 662,-36 797,-36 797,-55"/>
<text text-anchor="middle" x="729.5" y="-43" font-family="Helvetica,sans-Serif" font-size="10.00">Logger::messageLogged</text>
</a>
</g>
</g>
<!-- Node3&#45;&gt;Node4 -->
<g id="edge3_Node000003_Node000004" class="edge">
<title>Node3&#45;&gt;Node4</title>
<g id="a_edge3_Node000003_Node000004"><a xlink:title=" ">
<path fill="none" stroke="#63b8ff" d="M626.18,-58.95C634.29,-57.89 643.02,-56.74 651.83,-55.58"/>
<polygon fill="#63b8ff" stroke="#63b8ff" points="652.33,-59.05 661.79,-54.27 651.42,-52.1 652.33,-59.05"/>
</a>
</g>
</g>
<!-- Node5&#45;&gt;Node4 -->
<g id="edge5_Node000005_Node000004" class="edge">
<title>Node5&#45;&gt;Node4</title>
<g id="a_edge5_Node000005_Node000004"><a xlink:title=" ">
<path fill="none" stroke="#63b8ff" d="M622.72,-32.32C631.75,-33.45 641.68,-34.68 651.72,-35.94"/>
<polygon fill="#63b8ff" stroke="#63b8ff" points="651.42,-39.43 661.78,-37.19 652.28,-32.48 651.42,-39.43"/>
</a>
</g>
</g>
<!-- Node6&#45;&gt;Node3 -->
<g id="edge7_Node000006_Node000003" class="edge">
<title>Node6&#45;&gt;Node3</title>
<g id="a_edge7_Node000006_Node000003"><a xlink:title=" ">
<path fill="none" stroke="#63b8ff" d="M504.35,-54.55C512.78,-55.63 521.35,-56.73 529.57,-57.78"/>
<polygon fill="#63b8ff" stroke="#63b8ff" points="529.39,-61.29 539.76,-59.09 530.28,-54.35 529.39,-61.29"/>
</a>
</g>
</g>
<!-- Node6&#45;&gt;Node5 -->
<g id="edge8_Node000006_Node000005" class="edge">
<title>Node6&#45;&gt;Node5</title>
<g id="a_edge8_Node000006_Node000005"><a xlink:title=" ">
<path fill="none" stroke="#63b8ff" d="M504.35,-38C514.12,-36.68 524.08,-35.33 533.46,-34.06"/>
<polygon fill="#63b8ff" stroke="#63b8ff" points="533.94,-37.53 543.38,-32.72 533.01,-30.59 533.94,-37.53"/>
</a>
</g>
</g>
</g>
</svg>
