<?xml version="1.0" encoding="UTF-8" standalone="no"?>
<!DOCTYPE svg PUBLIC "-//W3C//DTD SVG 1.1//EN"
 "http://www.w3.org/Graphics/SVG/1.1/DTD/svg11.dtd">
<!-- Generated by graphviz version 2.43.0 (0)
 -->
<!-- Title: ExportMenu::onFileDialogWindowRequested Pages: 1 -->
<svg width="1321pt" height="188pt"
 viewBox="0.00 0.00 1321.00 187.50" xmlns="http://www.w3.org/2000/svg" xmlns:xlink="http://www.w3.org/1999/xlink">
<g id="graph0" class="graph" transform="scale(1 1) rotate(0) translate(4 183.5)">
<title>ExportMenu::onFileDialogWindowRequested</title>
<!-- Node1 -->
<g id="Node000001" class="node">
<title>Node1</title>
<g id="a_Node000001"><a xlink:title=" ">
<polygon fill="#999999" stroke="#666666" points="142,-136.5 0,-136.5 0,-106.5 142,-106.5 142,-136.5"/>
<text text-anchor="start" x="8" y="-124.5" font-family="Helvetica,sans-Serif" font-size="10.00">ExportMenu::onFileDialog</text>
<text text-anchor="middle" x="71" y="-113.5" font-family="Helvetica,sans-Serif" font-size="10.00">WindowRequested</text>
</a>
</g>
</g>
<!-- Node2 -->
<g id="Node000002" class="node">
<title>Node2</title>
<g id="a_Node000002"><a xlink:href="classExportMenuViewModel.html#a3384a193ce5445b24d08bb6b6fed94fb" target="_top" xlink:title=" ">
<polygon fill="white" stroke="#666666" points="307,-136.5 178,-136.5 178,-106.5 307,-106.5 307,-136.5"/>
<text text-anchor="start" x="186" y="-124.5" font-family="Helvetica,sans-Serif" font-size="10.00">ExportMenuViewModel</text>
<text text-anchor="middle" x="242.5" y="-113.5" font-family="Helvetica,sans-Serif" font-size="10.00">::selectPath</text>
</a>
</g>
</g>
<!-- Node1&#45;&gt;Node2 -->
<g id="edge1_Node000001_Node000002" class="edge">
<title>Node1&#45;&gt;Node2</title>
<g id="a_edge1_Node000001_Node000002"><a xlink:title=" ">
<path fill="none" stroke="#63b8ff" d="M142.41,-121.5C150.75,-121.5 159.29,-121.5 167.67,-121.5"/>
<polygon fill="#63b8ff" stroke="#63b8ff" points="167.81,-125 177.81,-121.5 167.81,-118 167.81,-125"/>
</a>
</g>
</g>
<!-- Node3 -->
<g id="Node000003" class="node">
<title>Node3</title>
<g id="a_Node000003"><a xlink:href="classFileSystem.html#a629654905eeeb0ecbd65586c640d0158" target="_top" xlink:title=" ">
<polygon fill="white" stroke="#666666" points="480,-150 343,-150 343,-131 480,-131 480,-150"/>
<text text-anchor="middle" x="411.5" y="-138" font-family="Helvetica,sans-Serif" font-size="10.00">FileSystem::getDirectory</text>
</a>
</g>
</g>
<!-- Node2&#45;&gt;Node3 -->
<g id="edge2_Node000002_Node000003" class="edge">
<title>Node2&#45;&gt;Node3</title>
<g id="a_edge2_Node000002_Node000003"><a xlink:title=" ">
<path fill="none" stroke="#63b8ff" d="M307.11,-128.74C315.53,-129.69 324.23,-130.68 332.84,-131.66"/>
<polygon fill="#63b8ff" stroke="#63b8ff" points="332.57,-135.16 342.9,-132.81 333.36,-128.2 332.57,-135.16"/>
</a>
</g>
</g>
<!-- Node4 -->
<g id="Node000004" class="node">
<title>Node4</title>
<g id="a_Node000004"><a xlink:href="classCSVLogger.html#aeb2a3cbfb18c9e190ee9558b45c2ab63" target="_top" xlink:title=" ">
<polygon fill="white" stroke="#666666" points="465,-113 358,-113 358,-94 465,-94 465,-113"/>
<text text-anchor="middle" x="411.5" y="-101" font-family="Helvetica,sans-Serif" font-size="10.00">CSVLogger::logFile</text>
</a>
</g>
</g>
<!-- Node2&#45;&gt;Node4 -->
<g id="edge3_Node000002_Node000004" class="edge">
<title>Node2&#45;&gt;Node4</title>
<g id="a_edge3_Node000002_Node000004"><a xlink:title=" ">
<path fill="none" stroke="#63b8ff" d="M307.11,-114.64C320.48,-113.2 334.57,-111.68 347.9,-110.25"/>
<polygon fill="#63b8ff" stroke="#63b8ff" points="348.36,-113.72 357.92,-109.17 347.61,-106.76 348.36,-113.72"/>
</a>
</g>
</g>
<!-- Node5 -->
<g id="Node000005" class="node">
<title>Node5</title>
<g id="a_Node000005"><a xlink:href="classProtocolCodec.html#ab45b52d99e2ec983883aa25c8ba6f42e" target="_top" xlink:title=" ">
<polygon fill="white" stroke="#666666" points="653.5,-172 525.5,-172 525.5,-153 653.5,-153 653.5,-172"/>
<text text-anchor="middle" x="589.5" y="-160" font-family="Helvetica,sans-Serif" font-size="10.00">ProtocolCodec::decode</text>
</a>
</g>
</g>
<!-- Node4&#45;&gt;Node5 -->
<g id="edge4_Node000004_Node000005" class="edge">
<title>Node4&#45;&gt;Node5</title>
<g id="a_edge4_Node000004_Node000005"><a xlink:title=" ">
<path fill="none" stroke="#63b8ff" d="M451.87,-113.07C461.22,-115.76 471.07,-118.93 480,-122.5 496.8,-129.21 499.22,-134.73 516,-141.5 523.69,-144.6 532.01,-147.46 540.17,-149.99"/>
<polygon fill="#63b8ff" stroke="#63b8ff" points="539.42,-153.42 550,-152.92 541.42,-146.71 539.42,-153.42"/>
</a>
</g>
</g>
<!-- Node7 -->
<g id="Node000007" class="node">
<title>Node7</title>
<g id="a_Node000007"><a xlink:href="classUdpChannel.html#aa8a4da515eb9941d6f26f6536b1243b4" target="_top" xlink:title="Returns UDP channel status.">
<polygon fill="white" stroke="#666666" points="649,-132 530,-132 530,-113 649,-113 649,-132"/>
<text text-anchor="middle" x="589.5" y="-120" font-family="Helvetica,sans-Serif" font-size="10.00">UdpChannel::running</text>
</a>
</g>
</g>
<!-- Node4&#45;&gt;Node7 -->
<g id="edge6_Node000004_Node000007" class="edge">
<title>Node4&#45;&gt;Node7</title>
<g id="a_edge6_Node000004_Node000007"><a xlink:title=" ">
<path fill="none" stroke="#63b8ff" d="M465.31,-109.2C482.48,-111.05 501.79,-113.14 519.94,-115.1"/>
<polygon fill="#63b8ff" stroke="#63b8ff" points="519.57,-118.58 529.88,-116.17 520.32,-111.62 519.57,-118.58"/>
</a>
</g>
</g>
<!-- Node8 -->
<g id="Node000008" class="node">
<title>Node8</title>
<g id="a_Node000008"><a xlink:href="classUdpChannel.html#a0ed1f8d1f6bab17f35b54db9f31ecc05" target="_top" xlink:title="Start UDP channel and his subsystems.">
<polygon fill="white" stroke="#666666" points="663,-95 516,-95 516,-76 663,-76 663,-95"/>
<text text-anchor="middle" x="589.5" y="-83" font-family="Helvetica,sans-Serif" font-size="10.00">UdpChannel::startEndpoint</text>
</a>
</g>
</g>
<!-- Node4&#45;&gt;Node8 -->
<g id="edge7_Node000004_Node000008" class="edge">
<title>Node4&#45;&gt;Node8</title>
<g id="a_edge7_Node000004_Node000008"><a xlink:title=" ">
<path fill="none" stroke="#63b8ff" d="M465.31,-98.1C478.1,-96.79 492.08,-95.36 505.88,-93.95"/>
<polygon fill="#63b8ff" stroke="#63b8ff" points="506.29,-97.43 515.88,-92.93 505.58,-90.46 506.29,-97.43"/>
</a>
</g>
</g>
<!-- Node15 -->
<g id="Node000015" class="node">
<title>Node15</title>
<g id="a_Node000015"><a xlink:href="classUdpChannel.html#a818443eac8b5aa21093fe3a1f39492a4" target="_top" xlink:title="Stop UDP endpoint and his subsystems.">
<polygon fill="white" stroke="#666666" points="662.5,-57 516.5,-57 516.5,-38 662.5,-38 662.5,-57"/>
<text text-anchor="middle" x="589.5" y="-45" font-family="Helvetica,sans-Serif" font-size="10.00">UdpChannel::stopEndpoint</text>
</a>
</g>
</g>
<!-- Node4&#45;&gt;Node15 -->
<g id="edge17_Node000004_Node000015" class="edge">
<title>Node4&#45;&gt;Node15</title>
<g id="a_edge17_Node000004_Node000015"><a xlink:title=" ">
<path fill="none" stroke="#63b8ff" d="M437.39,-93.91C458.23,-86.05 488.84,-74.9 516,-66.5 523.6,-64.15 531.71,-61.84 539.65,-59.68"/>
<polygon fill="#63b8ff" stroke="#63b8ff" points="540.81,-62.99 549.57,-57.04 539,-56.23 540.81,-62.99"/>
</a>
</g>
</g>
<!-- Node6 -->
<g id="Node000006" class="node">
<title>Node6</title>
<g id="a_Node000006"><a xlink:href="classTestBenchStatesList.html#ac8cae632bf7e555a42e7244fc796d4fb" target="_top" xlink:title=" ">
<polygon fill="white" stroke="#666666" points="835,-179.5 721,-179.5 721,-149.5 835,-149.5 835,-179.5"/>
<text text-anchor="start" x="729" y="-167.5" font-family="Helvetica,sans-Serif" font-size="10.00">TestBenchStatesList</text>
<text text-anchor="middle" x="778" y="-156.5" font-family="Helvetica,sans-Serif" font-size="10.00">::append</text>
</a>
</g>
</g>
<!-- Node5&#45;&gt;Node6 -->
<g id="edge5_Node000005_Node000006" class="edge">
<title>Node5&#45;&gt;Node6</title>
<g id="a_edge5_Node000005_Node000006"><a xlink:title=" ">
<path fill="none" stroke="#63b8ff" d="M653.64,-163.18C672.01,-163.37 692.12,-163.59 710.68,-163.79"/>
<polygon fill="#63b8ff" stroke="#63b8ff" points="710.77,-167.29 720.81,-163.9 710.84,-160.29 710.77,-167.29"/>
</a>
</g>
</g>
<!-- Node9 -->
<g id="Node000009" class="node">
<title>Node9</title>
<g id="a_Node000009"><a xlink:href="classUdpLogger.html#a55781f93bfc47a004e7b7b8afaa0192c" target="_top" xlink:title=" ">
<polygon fill="white" stroke="#666666" points="827,-94 729,-94 729,-75 827,-75 827,-94"/>
<text text-anchor="middle" x="778" y="-82" font-family="Helvetica,sans-Serif" font-size="10.00">UdpLogger::start</text>
</a>
</g>
</g>
<!-- Node8&#45;&gt;Node9 -->
<g id="edge8_Node000008_Node000009" class="edge">
<title>Node8&#45;&gt;Node9</title>
<g id="a_edge8_Node000008_Node000009"><a xlink:title=" ">
<path fill="none" stroke="#63b8ff" d="M663.14,-85.11C681.61,-85.01 701.21,-84.91 718.85,-84.81"/>
<polygon fill="#63b8ff" stroke="#63b8ff" points="719.01,-88.31 728.99,-84.76 718.97,-81.31 719.01,-88.31"/>
</a>
</g>
</g>
<!-- Node14 -->
<g id="Node000014" class="node">
<title>Node14</title>
<g id="a_Node000014"><a xlink:href="classUdpChannel.html#a48718b685a3059703ffbb06980376f7e" target="_top" xlink:title="Signal to the UDP worker that it should start.">
<polygon fill="white" stroke="#666666" points="857,-131 699,-131 699,-112 857,-112 857,-131"/>
<text text-anchor="middle" x="778" y="-119" font-family="Helvetica,sans-Serif" font-size="10.00">UdpChannel::startUdpWorker</text>
</a>
</g>
</g>
<!-- Node8&#45;&gt;Node14 -->
<g id="edge16_Node000008_Node000014" class="edge">
<title>Node8&#45;&gt;Node14</title>
<g id="a_edge16_Node000008_Node000014"><a xlink:title=" ">
<path fill="none" stroke="#63b8ff" d="M639.99,-95.05C663.8,-99.65 692.52,-105.19 717.51,-110.02"/>
<polygon fill="#63b8ff" stroke="#63b8ff" points="717.12,-113.51 727.6,-111.97 718.45,-106.63 717.12,-113.51"/>
</a>
</g>
</g>
<!-- Node10 -->
<g id="Node000010" class="node">
<title>Node10</title>
<g id="a_Node000010"><a xlink:href="classLogger.html#ad89b36eb9b5a28d1f61b3c74a6975031" target="_top" xlink:title=" ">
<polygon fill="white" stroke="#666666" points="1142,-58 1056,-58 1056,-39 1142,-39 1142,-58"/>
<text text-anchor="middle" x="1099" y="-46" font-family="Helvetica,sans-Serif" font-size="10.00">Logger::debug</text>
</a>
</g>
</g>
<!-- Node9&#45;&gt;Node10 -->
<g id="edge9_Node000009_Node000010" class="edge">
<title>Node9&#45;&gt;Node10</title>
<g id="a_edge9_Node000009_Node000010"><a xlink:title=" ">
<path fill="none" stroke="#63b8ff" d="M827.16,-76.14C847.44,-72.82 871.32,-69.16 893,-66.5 944.81,-60.14 1004.27,-55.18 1045.76,-52.09"/>
<polygon fill="#63b8ff" stroke="#63b8ff" points="1046.18,-55.57 1055.9,-51.34 1045.67,-48.58 1046.18,-55.57"/>
</a>
</g>
</g>
<!-- Node12 -->
<g id="Node000012" class="node">
<title>Node12</title>
<g id="a_Node000012"><a xlink:href="classLogger.html#a6c8bf2fc8c89d76b7f4fe25d97ad4bf3" target="_top" xlink:title=" ">
<polygon fill="white" stroke="#666666" points="1138.5,-95 1059.5,-95 1059.5,-76 1138.5,-76 1138.5,-95"/>
<text text-anchor="middle" x="1099" y="-83" font-family="Helvetica,sans-Serif" font-size="10.00">Logger::error</text>
</a>
</g>
</g>
<!-- Node9&#45;&gt;Node12 -->
<g id="edge11_Node000009_Node000012" class="edge">
<title>Node9&#45;&gt;Node12</title>
<g id="a_edge11_Node000009_Node000012"><a xlink:title=" ">
<path fill="none" stroke="#63b8ff" d="M822.89,-94.04C843.97,-98.15 869.68,-102.47 893,-104.5 949.23,-109.4 963.96,-111.23 1020,-104.5 1031.99,-103.06 1044.79,-100.42 1056.49,-97.56"/>
<polygon fill="#63b8ff" stroke="#63b8ff" points="1057.62,-100.88 1066.44,-95.01 1055.88,-94.1 1057.62,-100.88"/>
</a>
</g>
</g>
<!-- Node13 -->
<g id="Node000013" class="node">
<title>Node13</title>
<g id="a_Node000013"><a xlink:href="classUdpLogger.html#a4f7e8bb32128f9186dc452a57134475d" target="_top" xlink:title=" ">
<polygon fill="white" stroke="#666666" points="1020,-95 893,-95 893,-76 1020,-76 1020,-95"/>
<text text-anchor="middle" x="956.5" y="-83" font-family="Helvetica,sans-Serif" font-size="10.00">UdpLogger::writerLoop</text>
</a>
</g>
</g>
<!-- Node9&#45;&gt;Node13 -->
<g id="edge13_Node000009_Node000013" class="edge">
<title>Node9&#45;&gt;Node13</title>
<g id="a_edge13_Node000009_Node000013"><a xlink:title=" ">
<path fill="none" stroke="#63b8ff" d="M827.23,-84.77C844.28,-84.87 863.86,-84.98 882.51,-85.09"/>
<polygon fill="#63b8ff" stroke="#63b8ff" points="882.72,-88.59 892.74,-85.14 882.76,-81.59 882.72,-88.59"/>
</a>
</g>
</g>
<!-- Node11 -->
<g id="Node000011" class="node">
<title>Node11</title>
<g id="a_Node000011"><a xlink:href="classLogger.html#a02453fd0695fe06c495de714399e8bf7" target="_top" xlink:title=" ">
<polygon fill="white" stroke="#666666" points="1313,-76 1178,-76 1178,-57 1313,-57 1313,-76"/>
<text text-anchor="middle" x="1245.5" y="-64" font-family="Helvetica,sans-Serif" font-size="10.00">Logger::messageLogged</text>
</a>
</g>
</g>
<!-- Node10&#45;&gt;Node11 -->
<g id="edge10_Node000010_Node000011" class="edge">
<title>Node10&#45;&gt;Node11</title>
<g id="a_edge10_Node000010_Node000011"><a xlink:title=" ">
<path fill="none" stroke="#63b8ff" d="M1142.18,-53.75C1150.29,-54.77 1159.02,-55.85 1167.83,-56.95"/>
<polygon fill="#63b8ff" stroke="#63b8ff" points="1167.44,-60.43 1177.79,-58.19 1168.3,-53.48 1167.44,-60.43"/>
</a>
</g>
</g>
<!-- Node12&#45;&gt;Node11 -->
<g id="edge12_Node000012_Node000011" class="edge">
<title>Node12&#45;&gt;Node11</title>
<g id="a_edge12_Node000012_Node000011"><a xlink:title=" ">
<path fill="none" stroke="#63b8ff" d="M1138.72,-80.41C1147.75,-79.22 1157.68,-77.92 1167.72,-76.6"/>
<polygon fill="#63b8ff" stroke="#63b8ff" points="1168.32,-80.05 1177.78,-75.27 1167.4,-73.11 1168.32,-80.05"/>
</a>
</g>
</g>
<!-- Node13&#45;&gt;Node10 -->
<g id="edge14_Node000013_Node000010" class="edge">
<title>Node13&#45;&gt;Node10</title>
<g id="a_edge14_Node000013_Node000010"><a xlink:title=" ">
<path fill="none" stroke="#63b8ff" d="M993.68,-75.97C1011.33,-71.33 1032.75,-65.68 1051.59,-60.72"/>
<polygon fill="#63b8ff" stroke="#63b8ff" points="1052.67,-64.06 1061.45,-58.12 1050.89,-57.29 1052.67,-64.06"/>
</a>
</g>
</g>
<!-- Node13&#45;&gt;Node12 -->
<g id="edge15_Node000013_Node000012" class="edge">
<title>Node13&#45;&gt;Node12</title>
<g id="a_edge15_Node000013_Node000012"><a xlink:title=" ">
<path fill="none" stroke="#63b8ff" d="M1020.35,-85.5C1030.01,-85.5 1039.86,-85.5 1049.16,-85.5"/>
<polygon fill="#63b8ff" stroke="#63b8ff" points="1049.38,-89 1059.38,-85.5 1049.38,-82 1049.38,-89"/>
</a>
</g>
</g>
<!-- Node16 -->
<g id="Node000016" class="node">
<title>Node16</title>
<g id="a_Node000016"><a xlink:href="classUdpLogger.html#a09b32cc5531b9db48cde09d12d1c321f" target="_top" xlink:title=" ">
<polygon fill="white" stroke="#666666" points="1004.5,-19 908.5,-19 908.5,0 1004.5,0 1004.5,-19"/>
<text text-anchor="middle" x="956.5" y="-7" font-family="Helvetica,sans-Serif" font-size="10.00">UdpLogger::stop</text>
</a>
</g>
</g>
<!-- Node15&#45;&gt;Node16 -->
<g id="edge18_Node000015_Node000016" class="edge">
<title>Node15&#45;&gt;Node16</title>
<g id="a_edge18_Node000015_Node000016"><a xlink:title=" ">
<path fill="none" stroke="#63b8ff" d="M638.96,-37.95C657.66,-34.55 679.26,-30.95 699,-28.5 767.13,-20.03 845.94,-14.88 898.04,-12.12"/>
<polygon fill="#63b8ff" stroke="#63b8ff" points="898.28,-15.61 908.09,-11.6 897.92,-8.62 898.28,-15.61"/>
</a>
</g>
</g>
<!-- Node17 -->
<g id="Node000017" class="node">
<title>Node17</title>
<g id="a_Node000017"><a xlink:href="classUdpChannel.html#a8e42a953d827d6a78a4867ba05b6a4ca" target="_top" xlink:title="Signal to the UDP worker that it should stop.">
<polygon fill="white" stroke="#666666" points="856,-57 700,-57 700,-38 856,-38 856,-57"/>
<text text-anchor="middle" x="778" y="-45" font-family="Helvetica,sans-Serif" font-size="10.00">UdpChannel::stopUdpWorker</text>
</a>
</g>
</g>
<!-- Node15&#45;&gt;Node17 -->
<g id="edge20_Node000015_Node000017" class="edge">
<title>Node15&#45;&gt;Node17</title>
<g id="a_edge20_Node000015_Node000017"><a xlink:title=" ">
<path fill="none" stroke="#63b8ff" d="M662.61,-47.5C671.47,-47.5 680.6,-47.5 689.66,-47.5"/>
<polygon fill="#63b8ff" stroke="#63b8ff" points="689.83,-51 699.83,-47.5 689.83,-44 689.83,-51"/>
</a>
</g>
</g>
<!-- Node16&#45;&gt;Node10 -->
<g id="edge19_Node000016_Node000010" class="edge">
<title>Node16&#45;&gt;Node10</title>
<g id="a_edge19_Node000016_Node000010"><a xlink:title=" ">
<path fill="none" stroke="#63b8ff" d="M991.87,-19.04C1010.5,-24.21 1033.72,-30.66 1053.69,-36.2"/>
<polygon fill="#63b8ff" stroke="#63b8ff" points="1052.93,-39.62 1063.5,-38.92 1054.8,-32.88 1052.93,-39.62"/>
</a>
</g>
</g>
</g>
</svg>
