<?xml version="1.0" encoding="UTF-8" standalone="no"?>
<!DOCTYPE svg PUBLIC "-//W3C//DTD SVG 1.1//EN"
 "http://www.w3.org/Graphics/SVG/1.1/DTD/svg11.dtd">
<!-- Generated by graphviz version 2.43.0 (0)
 -->
<!-- Title: DebugDisplayViewModel::numberOfBindingsChanged Pages: 1 -->
<svg width="533pt" height="102pt"
 viewBox="0.00 0.00 533.00 101.50" xmlns="http://www.w3.org/2000/svg" xmlns:xlink="http://www.w3.org/1999/xlink">
<g id="graph0" class="graph" transform="scale(1 1) rotate(0) translate(4 97.5)">
<title>DebugDisplayViewModel::numberOfBindingsChanged</title>
<!-- Node1 -->
<g id="Node000001" class="node">
<title>Node1</title>
<g id="a_Node000001"><a xlink:title=" ">
<polygon fill="#999999" stroke="#666666" points="525,-78 369,-78 369,-48 525,-48 525,-78"/>
<text text-anchor="start" x="377" y="-66" font-family="Helvetica,sans-Serif" font-size="10.00">DebugDisplayViewModel</text>
<text text-anchor="middle" x="447" y="-55" font-family="Helvetica,sans-Serif" font-size="10.00">::numberOfBindingsChanged</text>
</a>
</g>
</g>
<!-- Node2 -->
<g id="Node000002" class="node">
<title>Node2</title>
<g id="a_Node000002"><a xlink:href="classDebugDisplay.html#ac9467725d063c4814a79923d00eee04a" target="_top" xlink:title=" ">
<polygon fill="white" stroke="#666666" points="158,-93.5 0,-93.5 0,-74.5 158,-74.5 158,-93.5"/>
<text text-anchor="middle" x="79" y="-81.5" font-family="Helvetica,sans-Serif" font-size="10.00">DebugDisplay::DebugDisplay</text>
</a>
</g>
</g>
<!-- Node1&#45;&gt;Node2 -->
<g id="edge1_Node000001_Node000002" class="edge">
<title>Node1&#45;&gt;Node2</title>
<g id="a_edge1_Node000001_Node000002"><a xlink:title=" ">
<path fill="none" stroke="#63b8ff" d="M376.74,-80.1C362.37,-82.97 347.26,-85.5 333,-87 274.57,-93.14 208.13,-92.04 158.01,-89.6"/>
<polygon fill="#63b8ff" stroke="#63b8ff" points="377.47,-83.52 386.56,-78.06 376.05,-76.66 377.47,-83.52"/>
</a>
</g>
</g>
<!-- Node3 -->
<g id="Node000003" class="node">
<title>Node3</title>
<g id="a_Node000003"><a xlink:href="classDebugDisplayViewModel.html#ac47110ea203aeec5314d620ce3b6a250" target="_top" xlink:title=" ">
<polygon fill="white" stroke="#666666" points="333,-30 194,-30 194,0 333,0 333,-30"/>
<text text-anchor="start" x="202" y="-18" font-family="Helvetica,sans-Serif" font-size="10.00">DebugDisplayViewModel</text>
<text text-anchor="middle" x="263.5" y="-7" font-family="Helvetica,sans-Serif" font-size="10.00">::displayVariable</text>
</a>
</g>
</g>
<!-- Node1&#45;&gt;Node3 -->
<g id="edge2_Node000001_Node000003" class="edge">
<title>Node1&#45;&gt;Node3</title>
<g id="a_edge2_Node000001_Node000003"><a xlink:title=" ">
<path fill="none" stroke="#63b8ff" d="M379.26,-45.35C360.21,-40.31 339.63,-34.87 321.23,-30"/>
<polygon fill="#63b8ff" stroke="#63b8ff" points="378.51,-48.77 389.07,-47.94 380.3,-42 378.51,-48.77"/>
</a>
</g>
</g>
<!-- Node5 -->
<g id="Node000005" class="node">
<title>Node5</title>
<g id="a_Node000005"><a xlink:href="classDebugDisplayViewModel.html#a4e572b264fe45775a0fd35a7110db86e" target="_top" xlink:title=" ">
<polygon fill="white" stroke="#666666" points="333,-78 194,-78 194,-48 333,-48 333,-78"/>
<text text-anchor="start" x="202" y="-66" font-family="Helvetica,sans-Serif" font-size="10.00">DebugDisplayViewModel</text>
<text text-anchor="middle" x="263.5" y="-55" font-family="Helvetica,sans-Serif" font-size="10.00">::initialise</text>
</a>
</g>
</g>
<!-- Node1&#45;&gt;Node5 -->
<g id="edge4_Node000001_Node000005" class="edge">
<title>Node1&#45;&gt;Node5</title>
<g id="a_edge4_Node000001_Node000005"><a xlink:title=" ">
<path fill="none" stroke="#63b8ff" d="M358.7,-63C350.09,-63 341.43,-63 333.05,-63"/>
<polygon fill="#63b8ff" stroke="#63b8ff" points="358.76,-66.5 368.76,-63 358.76,-59.5 358.76,-66.5"/>
</a>
</g>
</g>
<!-- Node4 -->
<g id="Node000004" class="node">
<title>Node4</title>
<g id="a_Node000004"><a xlink:href="classDebugDisplayViewModel.html#adef8c701d6cca6a1901f97d6fc452c03" target="_top" xlink:title=" ">
<polygon fill="white" stroke="#666666" points="151.5,-30 6.5,-30 6.5,0 151.5,0 151.5,-30"/>
<text text-anchor="start" x="14.5" y="-18" font-family="Helvetica,sans-Serif" font-size="10.00">DebugDisplayViewModel</text>
<text text-anchor="middle" x="79" y="-7" font-family="Helvetica,sans-Serif" font-size="10.00">::DebugDisplayViewModel</text>
</a>
</g>
</g>
<!-- Node3&#45;&gt;Node4 -->
<g id="edge3_Node000003_Node000004" class="edge">
<title>Node3&#45;&gt;Node4</title>
<g id="a_edge3_Node000003_Node000004"><a xlink:title=" ">
<path fill="none" stroke="#63b8ff" d="M183.67,-15C173.05,-15 162.2,-15 151.72,-15"/>
<polygon fill="#63b8ff" stroke="#63b8ff" points="183.76,-18.5 193.76,-15 183.76,-11.5 183.76,-18.5"/>
</a>
</g>
</g>
<!-- Node5&#45;&gt;Node2 -->
<g id="edge5_Node000005_Node000002" class="edge">
<title>Node5&#45;&gt;Node2</title>
<g id="a_edge5_Node000005_Node000002"><a xlink:title=" ">
<path fill="none" stroke="#63b8ff" d="M183.58,-72.08C175.15,-73.05 166.58,-74.04 158.17,-75.01"/>
<polygon fill="#63b8ff" stroke="#63b8ff" points="184.23,-75.53 193.76,-70.91 183.43,-68.58 184.23,-75.53"/>
</a>
</g>
</g>
</g>
</svg>
