<?xml version="1.0" encoding="UTF-8" standalone="no"?>
<!DOCTYPE svg PUBLIC "-//W3C//DTD SVG 1.1//EN"
 "http://www.w3.org/Graphics/SVG/1.1/DTD/svg11.dtd">
<!-- Generated by graphviz version 2.43.0 (0)
 -->
<!-- Title: LogTerminalViewModel::displayLog Pages: 1 -->
<svg width="513pt" height="86pt"
 viewBox="0.00 0.00 513.00 86.00" xmlns="http://www.w3.org/2000/svg" xmlns:xlink="http://www.w3.org/1999/xlink">
<g id="graph0" class="graph" transform="scale(1 1) rotate(0) translate(4 82)">
<title>LogTerminalViewModel::displayLog</title>
<!-- Node1 -->
<g id="Node000001" class="node">
<title>Node1</title>
<g id="a_Node000001"><a xlink:title=" ">
<polygon fill="#999999" stroke="#666666" points="505,-54 375,-54 375,-24 505,-24 505,-54"/>
<text text-anchor="start" x="383" y="-42" font-family="Helvetica,sans-Serif" font-size="10.00">LogTerminalViewModel</text>
<text text-anchor="middle" x="440" y="-31" font-family="Helvetica,sans-Serif" font-size="10.00">::displayLog</text>
</a>
</g>
</g>
<!-- Node2 -->
<g id="Node000002" class="node">
<title>Node2</title>
<g id="a_Node000002"><a xlink:href="classlogTerminalFrame.html#a7775d4ca9aff415f1d59f6369ccf4759" target="_top" xlink:title=" ">
<polygon fill="white" stroke="#666666" points="339,-78 172,-78 172,-48 339,-48 339,-78"/>
<text text-anchor="start" x="180" y="-66" font-family="Helvetica,sans-Serif" font-size="10.00">logTerminalFrame::logTerminal</text>
<text text-anchor="middle" x="255.5" y="-55" font-family="Helvetica,sans-Serif" font-size="10.00">Frame</text>
</a>
</g>
</g>
<!-- Node1&#45;&gt;Node2 -->
<g id="edge1_Node000001_Node000002" class="edge">
<title>Node1&#45;&gt;Node2</title>
<g id="a_edge1_Node000001_Node000002"><a xlink:title=" ">
<path fill="none" stroke="#63b8ff" d="M364.99,-48.73C356.43,-49.86 347.67,-51.01 339.01,-52.15"/>
<polygon fill="#63b8ff" stroke="#63b8ff" points="365.46,-52.2 374.91,-47.43 364.54,-45.26 365.46,-52.2"/>
</a>
</g>
</g>
<!-- Node3 -->
<g id="Node000003" class="node">
<title>Node3</title>
<g id="a_Node000003"><a xlink:href="classLogTerminalViewModel.html#a9f667ac6e725a43bf51fb1f5823da492" target="_top" xlink:title=" ">
<polygon fill="white" stroke="#666666" points="320.5,-30 190.5,-30 190.5,0 320.5,0 320.5,-30"/>
<text text-anchor="start" x="198.5" y="-18" font-family="Helvetica,sans-Serif" font-size="10.00">LogTerminalViewModel</text>
<text text-anchor="middle" x="255.5" y="-7" font-family="Helvetica,sans-Serif" font-size="10.00">::onLogReceived</text>
</a>
</g>
</g>
<!-- Node1&#45;&gt;Node3 -->
<g id="edge2_Node000001_Node000003" class="edge">
<title>Node1&#45;&gt;Node3</title>
<g id="a_edge2_Node000001_Node000003"><a xlink:title=" ">
<path fill="none" stroke="#63b8ff" d="M364.9,-29.26C350.26,-27.33 335.02,-25.33 320.74,-23.45"/>
<polygon fill="#63b8ff" stroke="#63b8ff" points="364.54,-32.74 374.91,-30.57 365.46,-25.8 364.54,-32.74"/>
</a>
</g>
</g>
<!-- Node4 -->
<g id="Node000004" class="node">
<title>Node4</title>
<g id="a_Node000004"><a xlink:href="classLogTerminalViewModel.html#add61286fc0c8ef4f527f043846caa1b3" target="_top" xlink:title=" ">
<polygon fill="white" stroke="#666666" points="136,-30 0,-30 0,0 136,0 136,-30"/>
<text text-anchor="start" x="8" y="-18" font-family="Helvetica,sans-Serif" font-size="10.00">LogTerminalViewModel</text>
<text text-anchor="middle" x="68" y="-7" font-family="Helvetica,sans-Serif" font-size="10.00">::LogTerminalViewModel</text>
</a>
</g>
</g>
<!-- Node3&#45;&gt;Node4 -->
<g id="edge3_Node000003_Node000004" class="edge">
<title>Node3&#45;&gt;Node4</title>
<g id="a_edge3_Node000003_Node000004"><a xlink:title=" ">
<path fill="none" stroke="#63b8ff" d="M180,-15C165.54,-15 150.47,-15 136.26,-15"/>
<polygon fill="#63b8ff" stroke="#63b8ff" points="180.4,-18.5 190.4,-15 180.4,-11.5 180.4,-18.5"/>
</a>
</g>
</g>
</g>
</svg>
