<?xml version="1.0" encoding="UTF-8" standalone="no"?>
<!DOCTYPE svg PUBLIC "-//W3C//DTD SVG 1.1//EN"
 "http://www.w3.org/Graphics/SVG/1.1/DTD/svg11.dtd">
<!-- Generated by graphviz version 2.43.0 (0)
 -->
<!-- Title: TankPressureIndicador::TankPressureIndicador Pages: 1 -->
<!--zoomable 182 -->

<svg id="main" version="1.1" xmlns="http://www.w3.org/2000/svg" xmlns:xlink="http://www.w3.org/1999/xlink" xml:space="preserve" onload="init(evt)">
<style type="text/css"><![CDATA[
.node, .edge {opacity: 0.7;}
.node.selected, .edge.selected {opacity: 1;}
.edge:hover path { stroke: red; }
.edge:hover polygon { stroke: red; fill: red; }
]]></style>

<defs>
  <circle id="rim" cx="0" cy="0" r="7"/>
  <circle id="rim2" cx="0" cy="0" r="3.5"/>
  <g id="zoomPlus">
    <use xlink:href="#rim" fill="#404040"><set attributeName="fill" to="#808080" begin="zoomplus.mouseover" end="zoomplus.mouseout"/></use>
    <path d="M-4,0h8M0,-4v8" fill="none" stroke="white" stroke-width="1.5" pointer-events="none"/>
  </g>
  <g id="zoomMin">
    <use xlink:href="#rim" fill="#404040"><set attributeName="fill" to="#808080" begin="zoomminus.mouseover" end="zoomminus.mouseout"/></use>
    <path d="M-4,0h8" fill="none" stroke="white" stroke-width="1.5" pointer-events="none"/>
  </g>
  <g id="arrowUp" transform="translate(30 24)">
    <use xlink:href="#rim"/>
    <path pointer-events="none" fill="none" stroke="white" stroke-width="1.5" d="M0,-3.0v7 M-2.5,-0.5L0,-3.0L2.5,-0.5"/>
  </g>
  <g id="arrowRight" transform="rotate(90) translate(36 -43)">
    <use xlink:href="#rim"/>
    <path pointer-events="none" fill="none" stroke="white" stroke-width="1.5" d="M0,-3.0v7 M-2.5,-0.5L0,-3.0L2.5,-0.5"/>
  </g>
  <g id="arrowDown" transform="rotate(180) translate(-30 -48)">
    <use xlink:href="#rim"/>
    <path pointer-events="none" fill="none" stroke="white" stroke-width="1.5" d="M0,-3.0v7 M-2.5,-0.5L0,-3.0L2.5,-0.5"/>
  </g>
  <g id="arrowLeft" transform="rotate(270) translate(-36 17)">
    <use xlink:href="#rim"/>
    <path pointer-events="none" fill="none" stroke="white" stroke-width="1.5" d="M0,-3.0v7 M-2.5,-0.5L0,-3.0L2.5,-0.5"/>
  </g>
  <g id="resetDef">
    <use xlink:href="#rim2" fill="#404040"><set attributeName="fill" to="#808080" begin="reset.mouseover" end="reset.mouseout"/></use>
  </g>
</defs>
<script type="application/ecmascript">
var viewWidth = 572;
var viewHeight = 182;
var sectionId = 'dynsection-2';
</script>
<script type="application/ecmascript" xlink:href="svg.min.js"/>
<svg id="graph" class="graph">
<g id="viewport">
<title>TankPressureIndicador::TankPressureIndicador</title>
<!-- Node1 -->
<g id="Node000001" class="node">
<title>Node1</title>
<g id="a_Node000001"><a xlink:title=" ">
<polygon fill="#999999" stroke="#666666" points="132,-131 0,-131 0,-101 132,-101 132,-131"/>
<text text-anchor="start" x="8" y="-119" font-family="Helvetica,sans-Serif" font-size="10.00">TankPressureIndicador</text>
<text text-anchor="middle" x="66" y="-108" font-family="Helvetica,sans-Serif" font-size="10.00">::TankPressureIndicador</text>
</a>
</g>
</g>
<!-- Node2 -->
<g id="Node000002" class="node">
<title>Node2</title>
<g id="a_Node000002"><a xlink:href="classTankPressureSettingsIndicatorViewModel.html#a60e793f9b372966700649436d54edb39" target="_top" xlink:title=" ">
<polygon fill="white" stroke="#666666" points="332,-174 168,-174 168,-144 332,-144 332,-174"/>
<text text-anchor="start" x="176" y="-162" font-family="Helvetica,sans-Serif" font-size="10.00">TankPressureSettingsIndicator</text>
<text text-anchor="middle" x="250" y="-151" font-family="Helvetica,sans-Serif" font-size="10.00">ViewModel::initialise</text>
</a>
</g>
</g>
<!-- Node1&#45;&gt;Node2 -->
<g id="edge1_Node000001_Node000002" class="edge">
<title>Node1&#45;&gt;Node2</title>
<g id="a_edge1_Node000001_Node000002"><a xlink:title=" ">
<path fill="none" stroke="#63b8ff" d="M130.65,-131.04C145.06,-134.44 160.48,-138.09 175.27,-141.58"/>
<polygon fill="#63b8ff" stroke="#63b8ff" points="174.84,-145.08 185.38,-143.97 176.45,-138.26 174.84,-145.08"/>
</a>
</g>
</g>
<!-- Node3 -->
<g id="Node000003" class="node">
<title>Node3</title>
<g id="a_Node000003"><a xlink:href="classTankPressureSettingsIndicatorViewModel.html#abb5c9ebf355ddf2758486b7ab6763a3b" target="_top" xlink:title=" ">
<polygon fill="white" stroke="#666666" points="564,-174 368,-174 368,-144 564,-144 564,-174"/>
<text text-anchor="start" x="376" y="-162" font-family="Helvetica,sans-Serif" font-size="10.00">TankPressureSettingsIndicator</text>
<text text-anchor="middle" x="466" y="-151" font-family="Helvetica,sans-Serif" font-size="10.00">ViewModel::PressureSettingChanged</text>
</a>
</g>
</g>
<!-- Node1&#45;&gt;Node3 -->
<g id="edge7_Node000001_Node000003" class="edge">
<title>Node1&#45;&gt;Node3</title>
<g id="a_edge7_Node000001_Node000003"><a xlink:title=" ">
<path fill="none" stroke="#63b8ff" d="M132.26,-118.73C186.02,-121.45 264.15,-126.47 332,-135 347.37,-136.93 363.66,-139.46 379.38,-142.16"/>
<polygon fill="#63b8ff" stroke="#63b8ff" points="379.15,-145.67 389.61,-143.95 380.36,-138.78 379.15,-145.67"/>
</a>
</g>
</g>
<!-- Node4 -->
<g id="Node000004" class="node">
<title>Node4</title>
<g id="a_Node000004"><a xlink:href="classTankPressureIndicador.html#a57f30d4530c3cff65e624138c1309334" target="_top" xlink:title=" ">
<polygon fill="white" stroke="#666666" points="313,-83 187,-83 187,-53 313,-53 313,-83"/>
<text text-anchor="start" x="195" y="-71" font-family="Helvetica,sans-Serif" font-size="10.00">TankPressureIndicador</text>
<text text-anchor="middle" x="250" y="-60" font-family="Helvetica,sans-Serif" font-size="10.00">::onDataUpdate</text>
</a>
</g>
</g>
<!-- Node1&#45;&gt;Node4 -->
<g id="edge3_Node000001_Node000004" class="edge">
<title>Node1&#45;&gt;Node4</title>
<g id="a_edge3_Node000001_Node000004"><a xlink:title=" ">
<path fill="none" stroke="#63b8ff" d="M124.09,-100.94C142.55,-96.07 163.19,-90.63 182.29,-85.59"/>
<polygon fill="#63b8ff" stroke="#63b8ff" points="183.34,-88.94 192.12,-83 181.55,-82.17 183.34,-88.94"/>
</a>
</g>
</g>
<!-- Node2&#45;&gt;Node3 -->
<g id="edge2_Node000002_Node000003" class="edge">
<title>Node2&#45;&gt;Node3</title>
<g id="a_edge2_Node000002_Node000003"><a xlink:title=" ">
<path fill="none" stroke="#63b8ff" d="M332.21,-159C340.54,-159 349.09,-159 357.64,-159"/>
<polygon fill="#63b8ff" stroke="#63b8ff" points="357.67,-162.5 367.67,-159 357.67,-155.5 357.67,-162.5"/>
</a>
</g>
</g>
<!-- Node5 -->
<g id="Node000005" class="node">
<title>Node5</title>
<g id="a_Node000005"><a xlink:href="classTankPressureSettingsIndicatorViewModel.html#aa11e1234016bb0915e8d86cdd92e58ec" target="_top" xlink:title=" ">
<polygon fill="white" stroke="#666666" points="550.5,-126 381.5,-126 381.5,-96 550.5,-96 550.5,-126"/>
<text text-anchor="start" x="389.5" y="-114" font-family="Helvetica,sans-Serif" font-size="10.00">TankPressureSettingsIndicator</text>
<text text-anchor="middle" x="466" y="-103" font-family="Helvetica,sans-Serif" font-size="10.00">ViewModel::getPressureSetting</text>
</a>
</g>
</g>
<!-- Node4&#45;&gt;Node5 -->
<g id="edge4_Node000004_Node000005" class="edge">
<title>Node4&#45;&gt;Node5</title>
<g id="a_edge4_Node000004_Node000005"><a xlink:title=" ">
<path fill="none" stroke="#63b8ff" d="M313.19,-80.5C334.15,-84.71 357.91,-89.48 380.31,-93.98"/>
<polygon fill="#63b8ff" stroke="#63b8ff" points="379.66,-97.42 390.15,-95.96 381.03,-90.56 379.66,-97.42"/>
</a>
</g>
</g>
<!-- Node6 -->
<g id="Node000006" class="node">
<title>Node6</title>
<g id="a_Node000006"><a xlink:href="classTankPressureSettingsIndicatorViewModel.html#a2ba421e06ae18e786ecc96ed2418f7ac" target="_top" xlink:title=" ">
<polygon fill="white" stroke="#666666" points="548,-78 384,-78 384,-48 548,-48 548,-78"/>
<text text-anchor="start" x="392" y="-66" font-family="Helvetica,sans-Serif" font-size="10.00">TankPressureSettingsIndicator</text>
<text text-anchor="middle" x="466" y="-55" font-family="Helvetica,sans-Serif" font-size="10.00">ViewModel::getValueMention</text>
</a>
</g>
</g>
<!-- Node4&#45;&gt;Node6 -->
<g id="edge5_Node000004_Node000006" class="edge">
<title>Node4&#45;&gt;Node6</title>
<g id="a_edge5_Node000004_Node000006"><a xlink:title=" ">
<path fill="none" stroke="#63b8ff" d="M313.19,-66.55C332.08,-66.11 353.26,-65.61 373.65,-65.13"/>
<polygon fill="#63b8ff" stroke="#63b8ff" points="373.99,-68.63 383.91,-64.89 373.83,-61.63 373.99,-68.63"/>
</a>
</g>
</g>
<!-- Node7 -->
<g id="Node000007" class="node">
<title>Node7</title>
<g id="a_Node000007"><a xlink:href="classTankPressureSettingsIndicatorViewModel.html#aaa9cd7f9ba99808958a8297f9be51773" target="_top" xlink:title=" ">
<polygon fill="white" stroke="#666666" points="548,-30 384,-30 384,0 548,0 548,-30"/>
<text text-anchor="start" x="392" y="-18" font-family="Helvetica,sans-Serif" font-size="10.00">TankPressureSettingsIndicator</text>
<text text-anchor="middle" x="466" y="-7" font-family="Helvetica,sans-Serif" font-size="10.00">ViewModel::getValueUnit</text>
</a>
</g>
</g>
<!-- Node4&#45;&gt;Node7 -->
<g id="edge6_Node000004_Node000007" class="edge">
<title>Node4&#45;&gt;Node7</title>
<g id="a_edge6_Node000004_Node000007"><a xlink:title=" ">
<path fill="none" stroke="#63b8ff" d="M311.72,-52.94C329.83,-48.46 349.72,-43.53 368,-39 376.5,-36.89 385.43,-34.69 394.27,-32.5"/>
<polygon fill="#63b8ff" stroke="#63b8ff" points="395.33,-35.84 404.2,-30.04 393.65,-29.04 395.33,-35.84"/>
</a>
</g>
</g>
</g>
</svg>

<g id="navigator" transform="translate(0 0)" fill="#404254">
  <rect fill="#f2f5e9" fill-opacity="0.5" stroke="#606060" stroke-width=".5" x="0" y="0" width="60" height="60"/>
  <use id="zoomplus" xlink:href="#zoomPlus" x="17" y="9" onmousedown="handleZoom(evt,'in')"/>
  <use id="zoomminus" xlink:href="#zoomMin" x="42" y="9" onmousedown="handleZoom(evt,'out')"/>
  <use id="reset" xlink:href="#resetDef" x="30" y="36" onmousedown="handleReset()"/>
   <use id="arrowup" xlink:href="#arrowUp" x="0" y="0" onmousedown="handlePan(0,-1)"/>
  <use id="arrowright" xlink:href="#arrowRight" x="0" y="0" onmousedown="handlePan(1,0)"/>
  <use id="arrowdown" xlink:href="#arrowDown" x="0" y="0" onmousedown="handlePan(0,1)"/>
  <use id="arrowleft" xlink:href="#arrowLeft" x="0" y="0" onmousedown="handlePan(-1,0)"/>
</g>
<svg viewBox="0 0 15 15" width="100%" height="30px" preserveAspectRatio="xMaxYMin meet">
 <g id="arrow_out" transform="scale(0.3 0.3)">
  <a xlink:href="classTankPressureIndicador_a6759304ab43f8d4676ccac701e004a65_cgraph_org.svg" target="_base">
   <rect id="button" ry="5" rx="5" y="6" x="6" height="38" width="38"
        fill="#f2f5e9" fill-opacity="0.5" stroke="#606060" stroke-width="1.0"/>
   <path id="arrow"
     d="M 11.500037,31.436501 C 11.940474,20.09759 22.043105,11.32322 32.158766,21.979434 L 37.068811,17.246167 C 37.068811,17.246167 37.088388,32 37.088388,32 L 22.160133,31.978069 C 22.160133,31.978069 26.997745,27.140456 26.997745,27.140456 C 18.528582,18.264221 13.291696,25.230495 11.500037,31.436501 z"
     style="fill:#404040;"/>
  </a>
 </g>
</svg>

<style type='text/css'>
<![CDATA[
[data-mouse-over-selected='false'] { opacity: 0.7; }
[data-mouse-over-selected='true']  { opacity: 1.0; }
]]>
</style>
<script type="application/ecmascript"><![CDATA[
document.addEventListener('DOMContentLoaded', (event) => {
  highlightEdges();
  highlightAdjacentNodes();
});
]]></script>
</svg>
