<?xml version="1.0" encoding="UTF-8" standalone="no"?>
<!DOCTYPE svg PUBLIC "-//W3C//DTD SVG 1.1//EN"
 "http://www.w3.org/Graphics/SVG/1.1/DTD/svg11.dtd">
<!-- Generated by graphviz version 2.43.0 (0)
 -->
<!-- Title: UdpChannel::stopEndpoint Pages: 1 -->
<!--zoomable 122 -->

<svg id="main" version="1.1" xmlns="http://www.w3.org/2000/svg" xmlns:xlink="http://www.w3.org/1999/xlink" xml:space="preserve" onload="init(evt)">
<style type="text/css"><![CDATA[
.node, .edge {opacity: 0.7;}
.node.selected, .edge.selected {opacity: 1;}
.edge:hover path { stroke: red; }
.edge:hover polygon { stroke: red; fill: red; }
]]></style>

<defs>
  <circle id="rim" cx="0" cy="0" r="7"/>
  <circle id="rim2" cx="0" cy="0" r="3.5"/>
  <g id="zoomPlus">
    <use xlink:href="#rim" fill="#404040"><set attributeName="fill" to="#808080" begin="zoomplus.mouseover" end="zoomplus.mouseout"/></use>
    <path d="M-4,0h8M0,-4v8" fill="none" stroke="white" stroke-width="1.5" pointer-events="none"/>
  </g>
  <g id="zoomMin">
    <use xlink:href="#rim" fill="#404040"><set attributeName="fill" to="#808080" begin="zoomminus.mouseover" end="zoomminus.mouseout"/></use>
    <path d="M-4,0h8" fill="none" stroke="white" stroke-width="1.5" pointer-events="none"/>
  </g>
  <g id="arrowUp" transform="translate(30 24)">
    <use xlink:href="#rim"/>
    <path pointer-events="none" fill="none" stroke="white" stroke-width="1.5" d="M0,-3.0v7 M-2.5,-0.5L0,-3.0L2.5,-0.5"/>
  </g>
  <g id="arrowRight" transform="rotate(90) translate(36 -43)">
    <use xlink:href="#rim"/>
    <path pointer-events="none" fill="none" stroke="white" stroke-width="1.5" d="M0,-3.0v7 M-2.5,-0.5L0,-3.0L2.5,-0.5"/>
  </g>
  <g id="arrowDown" transform="rotate(180) translate(-30 -48)">
    <use xlink:href="#rim"/>
    <path pointer-events="none" fill="none" stroke="white" stroke-width="1.5" d="M0,-3.0v7 M-2.5,-0.5L0,-3.0L2.5,-0.5"/>
  </g>
  <g id="arrowLeft" transform="rotate(270) translate(-36 17)">
    <use xlink:href="#rim"/>
    <path pointer-events="none" fill="none" stroke="white" stroke-width="1.5" d="M0,-3.0v7 M-2.5,-0.5L0,-3.0L2.5,-0.5"/>
  </g>
  <g id="resetDef">
    <use xlink:href="#rim2" fill="#404040"><set attributeName="fill" to="#808080" begin="reset.mouseover" end="reset.mouseout"/></use>
  </g>
</defs>
<script type="application/ecmascript">
var viewWidth = 901;
var viewHeight = 122;
var sectionId = 'dynsection-27';
</script>
<script type="application/ecmascript" xlink:href="svg.min.js"/>
<svg id="graph" class="graph">
<g id="viewport">
<title>UdpChannel::stopEndpoint</title>
<!-- Node1 -->
<g id="Node000001" class="node">
<title>Node1</title>
<g id="a_Node000001"><a xlink:title=" ">
<polygon fill="#999999" stroke="#666666" points="893,-62 747,-62 747,-43 893,-43 893,-62"/>
<text text-anchor="middle" x="820" y="-50" font-family="Helvetica,sans-Serif" font-size="10.00">UdpChannel::stopEndpoint</text>
</a>
</g>
</g>
<!-- Node2 -->
<g id="Node000002" class="node">
<title>Node2</title>
<g id="a_Node000002"><a xlink:href="classCSVLogger.html#aeb2a3cbfb18c9e190ee9558b45c2ab63" target="_top" xlink:title=" ">
<polygon fill="white" stroke="#666666" points="687,-107 580,-107 580,-88 687,-88 687,-107"/>
<text text-anchor="middle" x="633.5" y="-95" font-family="Helvetica,sans-Serif" font-size="10.00">CSVLogger::logFile</text>
</a>
</g>
</g>
<!-- Node1&#45;&gt;Node2 -->
<g id="edge1_Node000001_Node000002" class="edge">
<title>Node1&#45;&gt;Node2</title>
<g id="a_edge1_Node000001_Node000002"><a xlink:title=" ">
<path fill="none" stroke="#63b8ff" d="M769.98,-64.46C739.81,-71.81 701.69,-81.11 673.57,-87.97"/>
<polygon fill="#63b8ff" stroke="#63b8ff" points="770.99,-67.81 779.87,-62.04 769.33,-61.01 770.99,-67.81"/>
</a>
</g>
</g>
<!-- Node6 -->
<g id="Node000006" class="node">
<title>Node6</title>
<g id="a_Node000006"><a xlink:href="classUdpChannelParametersViewModel.html#af74d2aa09f73fc1ce13dca3469848fa8" target="_top" xlink:title=" ">
<polygon fill="white" stroke="#666666" points="711,-67.5 556,-67.5 556,-37.5 711,-37.5 711,-67.5"/>
<text text-anchor="start" x="564" y="-55.5" font-family="Helvetica,sans-Serif" font-size="10.00">UdpChannelParametersView</text>
<text text-anchor="middle" x="633.5" y="-44.5" font-family="Helvetica,sans-Serif" font-size="10.00">Model::restartEndpoint</text>
</a>
</g>
</g>
<!-- Node1&#45;&gt;Node6 -->
<g id="edge5_Node000001_Node000006" class="edge">
<title>Node1&#45;&gt;Node6</title>
<g id="a_edge5_Node000001_Node000006"><a xlink:title=" ">
<path fill="none" stroke="#63b8ff" d="M736.61,-52.5C728.14,-52.5 719.55,-52.5 711.14,-52.5"/>
<polygon fill="#63b8ff" stroke="#63b8ff" points="736.87,-56 746.87,-52.5 736.87,-49 736.87,-56"/>
</a>
</g>
</g>
<!-- Node8 -->
<g id="Node000008" class="node">
<title>Node8</title>
<g id="a_Node000008"><a xlink:href="classUdpChannel.html#a81c184bc754fe19c58898f4cb14eed53" target="_top" xlink:title=" ">
<polygon fill="white" stroke="#666666" points="708,-19 559,-19 559,0 708,0 708,-19"/>
<text text-anchor="middle" x="633.5" y="-7" font-family="Helvetica,sans-Serif" font-size="10.00">UdpChannel::~UdpChannel</text>
</a>
</g>
</g>
<!-- Node1&#45;&gt;Node8 -->
<g id="edge7_Node000001_Node000008" class="edge">
<title>Node1&#45;&gt;Node8</title>
<g id="a_edge7_Node000001_Node000008"><a xlink:title=" ">
<path fill="none" stroke="#63b8ff" d="M768.04,-40.62C738.83,-33.81 702.66,-25.38 675.33,-19.02"/>
<polygon fill="#63b8ff" stroke="#63b8ff" points="767.52,-44.1 778.05,-42.96 769.11,-37.28 767.52,-44.1"/>
</a>
</g>
</g>
<!-- Node3 -->
<g id="Node000003" class="node">
<title>Node3</title>
<g id="a_Node000003"><a xlink:href="classExportMenuViewModel.html#a3384a193ce5445b24d08bb6b6fed94fb" target="_top" xlink:title=" ">
<polygon fill="white" stroke="#666666" points="501.5,-113.5 372.5,-113.5 372.5,-83.5 501.5,-83.5 501.5,-113.5"/>
<text text-anchor="start" x="380.5" y="-101.5" font-family="Helvetica,sans-Serif" font-size="10.00">ExportMenuViewModel</text>
<text text-anchor="middle" x="437" y="-90.5" font-family="Helvetica,sans-Serif" font-size="10.00">::selectPath</text>
</a>
</g>
</g>
<!-- Node2&#45;&gt;Node3 -->
<g id="edge2_Node000002_Node000003" class="edge">
<title>Node2&#45;&gt;Node3</title>
<g id="a_edge2_Node000002_Node000003"><a xlink:title=" ">
<path fill="none" stroke="#63b8ff" d="M569.75,-97.82C548,-97.93 523.6,-98.06 501.76,-98.17"/>
<polygon fill="#63b8ff" stroke="#63b8ff" points="569.88,-101.32 579.87,-97.77 569.85,-94.32 569.88,-101.32"/>
</a>
</g>
</g>
<!-- Node4 -->
<g id="Node000004" class="node">
<title>Node4</title>
<g id="a_Node000004"><a xlink:href="classExportMenu.html#a8c000516d7139497af90f9b173ca0609" target="_top" xlink:title=" ">
<polygon fill="white" stroke="#666666" points="318,-113.5 176,-113.5 176,-83.5 318,-83.5 318,-113.5"/>
<text text-anchor="start" x="184" y="-101.5" font-family="Helvetica,sans-Serif" font-size="10.00">ExportMenu::onFileDialog</text>
<text text-anchor="middle" x="247" y="-90.5" font-family="Helvetica,sans-Serif" font-size="10.00">WindowRequested</text>
</a>
</g>
</g>
<!-- Node3&#45;&gt;Node4 -->
<g id="edge3_Node000003_Node000004" class="edge">
<title>Node3&#45;&gt;Node4</title>
<g id="a_edge3_Node000003_Node000004"><a xlink:title=" ">
<path fill="none" stroke="#63b8ff" d="M361.96,-98.5C347.49,-98.5 332.37,-98.5 318.04,-98.5"/>
<polygon fill="#63b8ff" stroke="#63b8ff" points="362.35,-102 372.35,-98.5 362.35,-95 362.35,-102"/>
</a>
</g>
</g>
<!-- Node5 -->
<g id="Node000005" class="node">
<title>Node5</title>
<g id="a_Node000005"><a xlink:href="classExportMenu.html#aad47eee6721b4f7a152a093c99672ac9" target="_top" xlink:title=" ">
<polygon fill="white" stroke="#666666" points="140,-108 0,-108 0,-89 140,-89 140,-108"/>
<text text-anchor="middle" x="70" y="-96" font-family="Helvetica,sans-Serif" font-size="10.00">ExportMenu::ExportMenu</text>
</a>
</g>
</g>
<!-- Node4&#45;&gt;Node5 -->
<g id="edge4_Node000004_Node000005" class="edge">
<title>Node4&#45;&gt;Node5</title>
<g id="a_edge4_Node000004_Node000005"><a xlink:title=" ">
<path fill="none" stroke="#63b8ff" d="M165.8,-98.5C157.2,-98.5 148.5,-98.5 140.05,-98.5"/>
<polygon fill="#63b8ff" stroke="#63b8ff" points="165.83,-102 175.83,-98.5 165.83,-95 165.83,-102"/>
</a>
</g>
</g>
<!-- Node7 -->
<g id="Node000007" class="node">
<title>Node7</title>
<g id="a_Node000007"><a xlink:href="classUdpChannelParametersWidget.html#aef0927083aea2b20033b42465cb2b42f" target="_top" xlink:title=" ">
<polygon fill="white" stroke="#666666" points="520,-65.5 354,-65.5 354,-35.5 520,-35.5 520,-65.5"/>
<text text-anchor="start" x="362" y="-53.5" font-family="Helvetica,sans-Serif" font-size="10.00">UdpChannelParametersWidget</text>
<text text-anchor="middle" x="437" y="-42.5" font-family="Helvetica,sans-Serif" font-size="10.00">::applyParameters</text>
</a>
</g>
</g>
<!-- Node6&#45;&gt;Node7 -->
<g id="edge6_Node000006_Node000007" class="edge">
<title>Node6&#45;&gt;Node7</title>
<g id="a_edge6_Node000006_Node000007"><a xlink:title=" ">
<path fill="none" stroke="#63b8ff" d="M545.68,-51.61C537.24,-51.52 528.69,-51.43 520.29,-51.35"/>
<polygon fill="#63b8ff" stroke="#63b8ff" points="545.87,-55.11 555.91,-51.71 545.94,-48.11 545.87,-55.11"/>
</a>
</g>
</g>
</g>
</svg>

<g id="navigator" transform="translate(0 0)" fill="#404254">
  <rect fill="#f2f5e9" fill-opacity="0.5" stroke="#606060" stroke-width=".5" x="0" y="0" width="60" height="60"/>
  <use id="zoomplus" xlink:href="#zoomPlus" x="17" y="9" onmousedown="handleZoom(evt,'in')"/>
  <use id="zoomminus" xlink:href="#zoomMin" x="42" y="9" onmousedown="handleZoom(evt,'out')"/>
  <use id="reset" xlink:href="#resetDef" x="30" y="36" onmousedown="handleReset()"/>
   <use id="arrowup" xlink:href="#arrowUp" x="0" y="0" onmousedown="handlePan(0,-1)"/>
  <use id="arrowright" xlink:href="#arrowRight" x="0" y="0" onmousedown="handlePan(1,0)"/>
  <use id="arrowdown" xlink:href="#arrowDown" x="0" y="0" onmousedown="handlePan(0,1)"/>
  <use id="arrowleft" xlink:href="#arrowLeft" x="0" y="0" onmousedown="handlePan(-1,0)"/>
</g>
<svg viewBox="0 0 15 15" width="100%" height="30px" preserveAspectRatio="xMaxYMin meet">
 <g id="arrow_out" transform="scale(0.3 0.3)">
  <a xlink:href="classUdpChannel_a818443eac8b5aa21093fe3a1f39492a4_icgraph_org.svg" target="_base">
   <rect id="button" ry="5" rx="5" y="6" x="6" height="38" width="38"
        fill="#f2f5e9" fill-opacity="0.5" stroke="#606060" stroke-width="1.0"/>
   <path id="arrow"
     d="M 11.500037,31.436501 C 11.940474,20.09759 22.043105,11.32322 32.158766,21.979434 L 37.068811,17.246167 C 37.068811,17.246167 37.088388,32 37.088388,32 L 22.160133,31.978069 C 22.160133,31.978069 26.997745,27.140456 26.997745,27.140456 C 18.528582,18.264221 13.291696,25.230495 11.500037,31.436501 z"
     style="fill:#404040;"/>
  </a>
 </g>
</svg>

<style type='text/css'>
<![CDATA[
[data-mouse-over-selected='false'] { opacity: 0.7; }
[data-mouse-over-selected='true']  { opacity: 1.0; }
]]>
</style>
<script type="application/ecmascript"><![CDATA[
document.addEventListener('DOMContentLoaded', (event) => {
  highlightEdges();
  highlightAdjacentNodes();
});
]]></script>
</svg>
