<?xml version="1.0" encoding="UTF-8" standalone="no"?>
<!DOCTYPE svg PUBLIC "-//W3C//DTD SVG 1.1//EN"
 "http://www.w3.org/Graphics/SVG/1.1/DTD/svg11.dtd">
<!-- Generated by graphviz version 2.43.0 (0)
 -->
<!-- Title: Writer&lt; MAX_FRAME_SIZE, BUFFER_SIZE &gt; Pages: 1 -->
<svg width="356pt" height="370pt"
 viewBox="0.00 0.00 356.00 370.00" xmlns="http://www.w3.org/2000/svg" xmlns:xlink="http://www.w3.org/1999/xlink">

<svg id="main" version="1.1" xmlns="http://www.w3.org/2000/svg" xmlns:xlink="http://www.w3.org/1999/xlink" xml:space="preserve" onload="init(evt)">
<style type="text/css"><![CDATA[
.node, .edge {opacity: 0.7;}
.node.selected, .edge.selected {opacity: 1;}
.edge:hover path { stroke: red; }
.edge:hover polygon { stroke: red; fill: red; }
]]></style>
<script type="application/ecmascript" xlink:href="svg.min.js"/>
<svg id="graph" class="graph">
<g id="graph0" class="graph" transform="scale(1 1) rotate(0) translate(4 366)">
<title>Writer&lt; MAX_FRAME_SIZE, BUFFER_SIZE &gt;</title>
<!-- Node1 -->
<g id="Node000001" class="node">
<title>Node1</title>
<g id="a_Node000001"><a xlink:title=" ">
<polygon fill="#999999" stroke="transparent" points="262,-120 118,-120 118,0 262,0 262,-120"/>
<text text-anchor="start" x="123" y="-108" font-family="Helvetica,sans-Serif" font-size="10.00">Writer&lt; MAX_FRAME_SIZE,</text>
<text text-anchor="start" x="149.5" y="-97" font-family="Helvetica,sans-Serif" font-size="10.00"> BUFFER_SIZE &gt;</text>
<text text-anchor="start" x="130" y="-82" font-family="Helvetica,sans-Serif" font-size="10.00">&#45;</text>
<text text-anchor="start" x="146" y="-82" font-family="Helvetica,sans-Serif" font-size="10.00">m_filePath</text>
<text text-anchor="start" x="130" y="-67" font-family="Helvetica,sans-Serif" font-size="10.00">&#45;</text>
<text text-anchor="start" x="146" y="-67" font-family="Helvetica,sans-Serif" font-size="10.00">m_framesBufferised</text>
<text text-anchor="start" x="127.5" y="-52" font-family="Helvetica,sans-Serif" font-size="10.00">+</text>
<text text-anchor="start" x="146" y="-52" font-family="Helvetica,sans-Serif" font-size="10.00">Writer()</text>
<text text-anchor="start" x="127.5" y="-37" font-family="Helvetica,sans-Serif" font-size="10.00">+</text>
<text text-anchor="start" x="146" y="-37" font-family="Helvetica,sans-Serif" font-size="10.00">initialise()</text>
<text text-anchor="start" x="127.5" y="-22" font-family="Helvetica,sans-Serif" font-size="10.00">+</text>
<text text-anchor="start" x="146" y="-22" font-family="Helvetica,sans-Serif" font-size="10.00">logFrame()</text>
<text text-anchor="start" x="127.5" y="-7" font-family="Helvetica,sans-Serif" font-size="10.00">+</text>
<text text-anchor="start" x="146" y="-7" font-family="Helvetica,sans-Serif" font-size="10.00">flushFrames()</text>
<polygon fill="#666666" stroke="#666666" points="118,-92 118,-92 262,-92 262,-92 118,-92"/>
<polygon fill="#666666" stroke="#666666" points="118,-62 118,-62 144,-62 144,-62 118,-62"/>
<polygon fill="#666666" stroke="#666666" points="144,-62 144,-62 262,-62 262,-62 144,-62"/>
<polygon fill="none" stroke="#666666" points="118,0 118,-120 262,-120 262,0 118,0"/>
</a>
</g>
</g>
<!-- Node2 -->
<g id="Node000002" class="node">
<title>Node2</title>
<g id="a_Node000002"><a xlink:title=" ">
<polygon fill="white" stroke="transparent" points="100,-246 0,-246 0,-197 100,-197 100,-246"/>
<text text-anchor="start" x="5" y="-233.5" font-family="Helvetica,sans-Serif" font-size="10.00">MAX_FRAME_SIZE</text>
<text text-anchor="start" x="48" y="-218.5" font-family="Helvetica,sans-Serif" font-size="10.00"> </text>
<text text-anchor="start" x="48" y="-203.5" font-family="Helvetica,sans-Serif" font-size="10.00"> </text>
<polygon fill="#666666" stroke="#666666" points="0,-228.5 0,-228.5 100,-228.5 100,-228.5 0,-228.5"/>
<polygon fill="#666666" stroke="#666666" points="0,-213.5 0,-213.5 100,-213.5 100,-213.5 0,-213.5"/>
<polygon fill="none" stroke="#666666" points="0,-197 0,-246 100,-246 100,-197 0,-197"/>
</a>
</g>
</g>
<!-- Node2&#45;&gt;Node1 -->
<g id="edge1_Node000001_Node000002" class="edge">
<title>Node2&#45;&gt;Node1</title>
<g id="a_edge1_Node000001_Node000002"><a xlink:title=" ">
<path fill="none" stroke="#63b8ff" d="M65.52,-196.91C77.06,-179.94 93.6,-156.83 110,-138 112.6,-135.02 115.29,-132.02 118.05,-129.03"/>
<polygon fill="none" stroke="#63b8ff" points="118.25,-128.82 119.46,-121.71 126.48,-120.1 125.27,-127.21 118.25,-128.82"/>
</a>
</g>
<text text-anchor="middle" x="148" y="-141" font-family="Helvetica,sans-Serif" font-size="10.00" fill="grey"> &#45;m_writeBuffer</text>
</g>
<!-- Node3 -->
<g id="Node000003" class="node">
<title>Node3</title>
<g id="a_Node000003"><a xlink:href="structWriter_1_1Header.html" target="_top" xlink:title=" ">
<polygon fill="white" stroke="transparent" points="262,-266.5 118,-266.5 118,-176.5 262,-176.5 262,-266.5"/>
<text text-anchor="start" x="123" y="-254.5" font-family="Helvetica,sans-Serif" font-size="10.00">Writer&lt; MAX_FRAME_SIZE,</text>
<text text-anchor="start" x="129" y="-243.5" font-family="Helvetica,sans-Serif" font-size="10.00"> BUFFER_SIZE &gt;::Header</text>
<text text-anchor="start" x="140" y="-228.5" font-family="Helvetica,sans-Serif" font-size="10.00">+</text>
<text text-anchor="start" x="171" y="-228.5" font-family="Helvetica,sans-Serif" font-size="10.00">magic</text>
<text text-anchor="start" x="140" y="-213.5" font-family="Helvetica,sans-Serif" font-size="10.00">+</text>
<text text-anchor="start" x="171" y="-213.5" font-family="Helvetica,sans-Serif" font-size="10.00">frameSize</text>
<text text-anchor="start" x="140" y="-198.5" font-family="Helvetica,sans-Serif" font-size="10.00">+</text>
<text text-anchor="start" x="171" y="-198.5" font-family="Helvetica,sans-Serif" font-size="10.00">frameQty</text>
<text text-anchor="start" x="188" y="-183.5" font-family="Helvetica,sans-Serif" font-size="10.00"> </text>
<polygon fill="#666666" stroke="#666666" points="118,-238.5 118,-238.5 262,-238.5 262,-238.5 118,-238.5"/>
<polygon fill="#666666" stroke="#666666" points="118,-193.5 118,-193.5 169,-193.5 169,-193.5 118,-193.5"/>
<polygon fill="#666666" stroke="#666666" points="169,-193.5 169,-193.5 262,-193.5 262,-193.5 169,-193.5"/>
<polygon fill="none" stroke="#666666" points="118,-176.5 118,-266.5 262,-266.5 262,-176.5 118,-176.5"/>
</a>
</g>
</g>
<!-- Node3&#45;&gt;Node1 -->
<g id="edge2_Node000001_Node000003" class="edge">
<title>Node3&#45;&gt;Node1</title>
<g id="a_edge2_Node000001_Node000003"><a xlink:title=" ">
<path fill="none" stroke="#63b8ff" d="M190,-176.49C190,-162.88 190,-147.51 190,-132.53"/>
<polygon fill="none" stroke="#63b8ff" points="190,-132.09 186,-126.09 190,-120.09 194,-126.09 190,-132.09"/>
</a>
</g>
<text text-anchor="middle" x="236" y="-141" font-family="Helvetica,sans-Serif" font-size="10.00" fill="grey"> &#45;m_LogFileHeader</text>
</g>
<!-- Node4 -->
<g id="Node000004" class="node">
<title>Node4</title>
<g id="a_Node000004"><a xlink:href="classLogger.html" target="_top" xlink:title="Tool that provide the ability to display and log errors and debug messages.">
<polygon fill="white" stroke="transparent" points="348,-276 280,-276 280,-167 348,-167 348,-276"/>
<text text-anchor="start" x="297" y="-263.5" font-family="Helvetica,sans-Serif" font-size="10.00">Logger</text>
<text text-anchor="start" x="312" y="-248.5" font-family="Helvetica,sans-Serif" font-size="10.00"> </text>
<text text-anchor="start" x="284" y="-233.5" font-family="Helvetica,sans-Serif" font-size="10.00">+</text>
<text text-anchor="start" x="297" y="-233.5" font-family="Helvetica,sans-Serif" font-size="10.00">Logger()</text>
<text text-anchor="start" x="284" y="-218.5" font-family="Helvetica,sans-Serif" font-size="10.00">+</text>
<text text-anchor="start" x="297" y="-218.5" font-family="Helvetica,sans-Serif" font-size="10.00">log()</text>
<text text-anchor="start" x="284" y="-203.5" font-family="Helvetica,sans-Serif" font-size="10.00">+</text>
<text text-anchor="start" x="297" y="-203.5" font-family="Helvetica,sans-Serif" font-size="10.00">debug()</text>
<text text-anchor="start" x="284" y="-188.5" font-family="Helvetica,sans-Serif" font-size="10.00">+</text>
<text text-anchor="start" x="297" y="-188.5" font-family="Helvetica,sans-Serif" font-size="10.00">error()</text>
<text text-anchor="start" x="284" y="-173.5" font-family="Helvetica,sans-Serif" font-size="10.00">+</text>
<text text-anchor="start" x="297" y="-173.5" font-family="Helvetica,sans-Serif" font-size="10.00">warning()</text>
<polygon fill="#666666" stroke="#666666" points="280,-258.5 280,-258.5 348,-258.5 348,-258.5 280,-258.5"/>
<polygon fill="#666666" stroke="#666666" points="280,-243.5 280,-243.5 348,-243.5 348,-243.5 280,-243.5"/>
<polygon fill="none" stroke="#666666" points="280,-167 280,-276 348,-276 348,-167 280,-167"/>
</a>
</g>
</g>
<!-- Node4&#45;&gt;Node1 -->
<g id="edge3_Node000001_Node000004" class="edge">
<title>Node4&#45;&gt;Node1</title>
<g id="a_edge3_Node000001_Node000004"><a xlink:title=" ">
<path fill="none" stroke="#63b8ff" d="M300.75,-166.87C296.92,-156.77 292.07,-146.67 286,-138 281.58,-131.68 276.49,-125.62 271.02,-119.86"/>
<polygon fill="none" stroke="#63b8ff" points="270.67,-119.51 263.59,-118.13 262.14,-111.06 269.22,-112.44 270.67,-119.51"/>
</a>
</g>
<text text-anchor="middle" x="318.5" y="-141" font-family="Helvetica,sans-Serif" font-size="10.00" fill="grey"> &#45;m_logger</text>
</g>
<!-- Node5 -->
<g id="Node000005" class="node">
<title>Node5</title>
<g id="a_Node000005"><a xlink:title=" ">
<polygon fill="white" stroke="transparent" points="339,-362 289,-362 289,-313 339,-313 339,-362"/>
<text text-anchor="start" x="294" y="-349.5" font-family="Helvetica,sans-Serif" font-size="10.00">QObject</text>
<text text-anchor="start" x="312" y="-334.5" font-family="Helvetica,sans-Serif" font-size="10.00"> </text>
<text text-anchor="start" x="312" y="-319.5" font-family="Helvetica,sans-Serif" font-size="10.00"> </text>
<polygon fill="#666666" stroke="#666666" points="289,-344.5 289,-344.5 339,-344.5 339,-344.5 289,-344.5"/>
<polygon fill="#666666" stroke="#666666" points="289,-329.5 289,-329.5 339,-329.5 339,-329.5 289,-329.5"/>
<polygon fill="none" stroke="#666666" points="289,-313 289,-362 339,-362 339,-313 289,-313"/>
</a>
</g>
</g>
<!-- Node5&#45;&gt;Node4 -->
<g id="edge4_Node000004_Node000005" class="edge">
<title>Node5&#45;&gt;Node4</title>
<g id="a_edge4_Node000004_Node000005"><a xlink:title=" ">
<path fill="none" stroke="#63b8ff" d="M314,-302.78C314,-294.42 314,-285.24 314,-276.18"/>
<polygon fill="none" stroke="#63b8ff" points="310.5,-302.88 314,-312.88 317.5,-302.88 310.5,-302.88"/>
</a>
</g>
</g>
</g>
</svg>
</svg>

<style type='text/css'>
<![CDATA[
[data-mouse-over-selected='false'] { opacity: 0.7; }
[data-mouse-over-selected='true']  { opacity: 1.0; }
]]>
</style>
<script type="application/ecmascript"><![CDATA[
document.addEventListener('DOMContentLoaded', (event) => {
  highlightEdges();
  highlightAdjacentNodes();
});
]]></script>
</svg>
