<?xml version="1.0" encoding="UTF-8" standalone="no"?>
<!DOCTYPE svg PUBLIC "-//W3C//DTD SVG 1.1//EN"
 "http://www.w3.org/Graphics/SVG/1.1/DTD/svg11.dtd">
<!-- Generated by graphviz version 2.43.0 (0)
 -->
<!-- Title: TankPressureControler Pages: 1 -->
<svg width="763pt" height="2205pt"
 viewBox="0.00 0.00 762.50 2205.00" xmlns="http://www.w3.org/2000/svg" xmlns:xlink="http://www.w3.org/1999/xlink">
<g id="graph0" class="graph" transform="scale(1 1) rotate(0) translate(4 2201)">
<title>TankPressureControler</title>
<!-- Node1 -->
<g id="Node000001" class="node">
<title>Node1</title>
<g id="a_Node000001"><a xlink:title=" ">
<polygon fill="#999999" stroke="transparent" points="191.5,-154 28.5,-154 28.5,0 191.5,0 191.5,-154"/>
<text text-anchor="start" x="55.5" y="-142" font-family="Helvetica,sans-Serif" font-size="10.00">TankPressureControler</text>
<text text-anchor="start" x="35.5" y="-127" font-family="Helvetica,sans-Serif" font-size="10.00">&#45;</text>
<text text-anchor="start" x="46" y="-127" font-family="Helvetica,sans-Serif" font-size="10.00">m_font</text>
<text text-anchor="start" x="35.5" y="-112" font-family="Helvetica,sans-Serif" font-size="10.00">&#45;</text>
<text text-anchor="start" x="46" y="-112" font-family="Helvetica,sans-Serif" font-size="10.00">m_BB_button</text>
<text text-anchor="start" x="35.5" y="-97" font-family="Helvetica,sans-Serif" font-size="10.00">&#45;</text>
<text text-anchor="start" x="46" y="-97" font-family="Helvetica,sans-Serif" font-size="10.00">m_tankLogo</text>
<text text-anchor="start" x="35.5" y="-82" font-family="Helvetica,sans-Serif" font-size="10.00">&#45;</text>
<text text-anchor="start" x="46" y="-82" font-family="Helvetica,sans-Serif" font-size="10.00">m_pressureSelector</text>
<text text-anchor="start" x="35.5" y="-67" font-family="Helvetica,sans-Serif" font-size="10.00">&#45;</text>
<text text-anchor="start" x="46" y="-67" font-family="Helvetica,sans-Serif" font-size="10.00">m_pressureIndicator</text>
<text text-anchor="start" x="33" y="-52" font-family="Helvetica,sans-Serif" font-size="10.00">+</text>
<text text-anchor="start" x="46" y="-52" font-family="Helvetica,sans-Serif" font-size="10.00">TankPressureControler()</text>
<text text-anchor="start" x="33" y="-37" font-family="Helvetica,sans-Serif" font-size="10.00">+</text>
<text text-anchor="start" x="46" y="-37" font-family="Helvetica,sans-Serif" font-size="10.00">set_color()</text>
<text text-anchor="start" x="33" y="-22" font-family="Helvetica,sans-Serif" font-size="10.00">+</text>
<text text-anchor="start" x="46" y="-22" font-family="Helvetica,sans-Serif" font-size="10.00">onsensorDataChanged()</text>
<text text-anchor="start" x="33" y="-7" font-family="Helvetica,sans-Serif" font-size="10.00">+</text>
<text text-anchor="start" x="46" y="-7" font-family="Helvetica,sans-Serif" font-size="10.00">onBBControlStatusChanged()</text>
<polygon fill="#666666" stroke="#666666" points="29,-137 29,-137 192,-137 192,-137 29,-137"/>
<polygon fill="#666666" stroke="#666666" points="29,-62 29,-62 44,-62 44,-62 29,-62"/>
<polygon fill="#666666" stroke="#666666" points="44,-62 44,-62 192,-62 192,-62 44,-62"/>
<polygon fill="none" stroke="#666666" points="28.5,0 28.5,-154 191.5,-154 191.5,0 28.5,0"/>
</a>
</g>
</g>
<!-- Node2 -->
<g id="Node000002" class="node">
<title>Node2</title>
<g id="a_Node000002"><a xlink:title=" ">
<polygon fill="white" stroke="transparent" points="120.5,-433.5 67.5,-433.5 67.5,-384.5 120.5,-384.5 120.5,-433.5"/>
<text text-anchor="start" x="73" y="-421" font-family="Helvetica,sans-Serif" font-size="10.00">QWidget</text>
<text text-anchor="start" x="92.5" y="-406" font-family="Helvetica,sans-Serif" font-size="10.00"> </text>
<text text-anchor="start" x="92.5" y="-391" font-family="Helvetica,sans-Serif" font-size="10.00"> </text>
<polygon fill="#666666" stroke="#666666" points="68,-416 68,-416 121,-416 121,-416 68,-416"/>
<polygon fill="#666666" stroke="#666666" points="68,-401 68,-401 121,-401 121,-401 68,-401"/>
<polygon fill="none" stroke="#666666" points="67.5,-384.5 67.5,-433.5 120.5,-433.5 120.5,-384.5 67.5,-384.5"/>
</a>
</g>
</g>
<!-- Node2&#45;&gt;Node1 -->
<g id="edge1_Node000001_Node000002" class="edge">
<title>Node2&#45;&gt;Node1</title>
<g id="a_edge1_Node000001_Node000002"><a xlink:title=" ">
<path fill="none" stroke="#63b8ff" d="M95.65,-374.04C98.14,-322.59 102.94,-223.56 106.3,-154.26"/>
<polygon fill="none" stroke="#63b8ff" points="92.14,-374.11 95.15,-384.27 99.13,-374.45 92.14,-374.11"/>
</a>
</g>
</g>
<!-- Node3 -->
<g id="Node000003" class="node">
<title>Node3</title>
<g id="a_Node000003"><a xlink:href="classTankPressureControlerViewModel.html" target="_top" xlink:title=" ">
<polygon fill="white" stroke="transparent" points="299,-617 139,-617 139,-201 299,-201 299,-617"/>
<text text-anchor="start" x="152" y="-605" font-family="Helvetica,sans-Serif" font-size="10.00">TankPressureControlerView</text>
<text text-anchor="start" x="203.5" y="-594" font-family="Helvetica,sans-Serif" font-size="10.00">Model</text>
<text text-anchor="start" x="145.5" y="-579" font-family="Helvetica,sans-Serif" font-size="10.00">&#45;</text>
<text text-anchor="start" x="156" y="-579" font-family="Helvetica,sans-Serif" font-size="10.00">m_valueID</text>
<text text-anchor="start" x="145.5" y="-564" font-family="Helvetica,sans-Serif" font-size="10.00">&#45;</text>
<text text-anchor="start" x="156" y="-564" font-family="Helvetica,sans-Serif" font-size="10.00">m_tankName</text>
<text text-anchor="start" x="145.5" y="-549" font-family="Helvetica,sans-Serif" font-size="10.00">&#45;</text>
<text text-anchor="start" x="156" y="-549" font-family="Helvetica,sans-Serif" font-size="10.00">m_sensorName</text>
<text text-anchor="start" x="145.5" y="-534" font-family="Helvetica,sans-Serif" font-size="10.00">&#45;</text>
<text text-anchor="start" x="156" y="-534" font-family="Helvetica,sans-Serif" font-size="10.00">m_sensorUnit</text>
<text text-anchor="start" x="145.5" y="-519" font-family="Helvetica,sans-Serif" font-size="10.00">&#45;</text>
<text text-anchor="start" x="156" y="-519" font-family="Helvetica,sans-Serif" font-size="10.00">m_pressureRange</text>
<text text-anchor="start" x="145.5" y="-504" font-family="Helvetica,sans-Serif" font-size="10.00">&#45;</text>
<text text-anchor="start" x="156" y="-504" font-family="Helvetica,sans-Serif" font-size="10.00">m_pressureSetting</text>
<text text-anchor="start" x="145.5" y="-489" font-family="Helvetica,sans-Serif" font-size="10.00">&#45;</text>
<text text-anchor="start" x="156" y="-489" font-family="Helvetica,sans-Serif" font-size="10.00">m_BBControl</text>
<text text-anchor="start" x="143" y="-474" font-family="Helvetica,sans-Serif" font-size="10.00">+</text>
<text text-anchor="start" x="156" y="-474" font-family="Helvetica,sans-Serif" font-size="10.00">TankPressureControlerView</text>
<text text-anchor="start" x="156" y="-463" font-family="Helvetica,sans-Serif" font-size="10.00">Model()</text>
<text text-anchor="start" x="143" y="-448" font-family="Helvetica,sans-Serif" font-size="10.00">+</text>
<text text-anchor="start" x="156" y="-448" font-family="Helvetica,sans-Serif" font-size="10.00">setTankName()</text>
<text text-anchor="start" x="143" y="-433" font-family="Helvetica,sans-Serif" font-size="10.00">+</text>
<text text-anchor="start" x="156" y="-433" font-family="Helvetica,sans-Serif" font-size="10.00">setSensor()</text>
<text text-anchor="start" x="143" y="-418" font-family="Helvetica,sans-Serif" font-size="10.00">+</text>
<text text-anchor="start" x="156" y="-418" font-family="Helvetica,sans-Serif" font-size="10.00">setPressureDefaultValue()</text>
<text text-anchor="start" x="143" y="-403" font-family="Helvetica,sans-Serif" font-size="10.00">+</text>
<text text-anchor="start" x="156" y="-403" font-family="Helvetica,sans-Serif" font-size="10.00">setPressureRange()</text>
<text text-anchor="start" x="143" y="-388" font-family="Helvetica,sans-Serif" font-size="10.00">+</text>
<text text-anchor="start" x="156" y="-388" font-family="Helvetica,sans-Serif" font-size="10.00">initialise()</text>
<text text-anchor="start" x="143" y="-373" font-family="Helvetica,sans-Serif" font-size="10.00">+</text>
<text text-anchor="start" x="156" y="-373" font-family="Helvetica,sans-Serif" font-size="10.00">tankName()</text>
<text text-anchor="start" x="143" y="-358" font-family="Helvetica,sans-Serif" font-size="10.00">+</text>
<text text-anchor="start" x="156" y="-358" font-family="Helvetica,sans-Serif" font-size="10.00">pressureRange()</text>
<text text-anchor="start" x="143" y="-343" font-family="Helvetica,sans-Serif" font-size="10.00">+</text>
<text text-anchor="start" x="156" y="-343" font-family="Helvetica,sans-Serif" font-size="10.00">sensorName()</text>
<text text-anchor="start" x="143" y="-328" font-family="Helvetica,sans-Serif" font-size="10.00">+</text>
<text text-anchor="start" x="156" y="-328" font-family="Helvetica,sans-Serif" font-size="10.00">pressureSetting()</text>
<text text-anchor="start" x="143" y="-313" font-family="Helvetica,sans-Serif" font-size="10.00">+</text>
<text text-anchor="start" x="156" y="-313" font-family="Helvetica,sans-Serif" font-size="10.00">BBControlStatus()</text>
<text text-anchor="start" x="143" y="-298" font-family="Helvetica,sans-Serif" font-size="10.00">+</text>
<text text-anchor="start" x="156" y="-298" font-family="Helvetica,sans-Serif" font-size="10.00">sensorValue()</text>
<text text-anchor="start" x="143" y="-283" font-family="Helvetica,sans-Serif" font-size="10.00">+</text>
<text text-anchor="start" x="156" y="-283" font-family="Helvetica,sans-Serif" font-size="10.00">sensorUnit()</text>
<text text-anchor="start" x="143" y="-268" font-family="Helvetica,sans-Serif" font-size="10.00">+</text>
<text text-anchor="start" x="156" y="-268" font-family="Helvetica,sans-Serif" font-size="10.00">onSensorDataReceived()</text>
<text text-anchor="start" x="143" y="-253" font-family="Helvetica,sans-Serif" font-size="10.00">+</text>
<text text-anchor="start" x="156" y="-253" font-family="Helvetica,sans-Serif" font-size="10.00">onBBCommandSent()</text>
<text text-anchor="start" x="143" y="-238" font-family="Helvetica,sans-Serif" font-size="10.00">+</text>
<text text-anchor="start" x="156" y="-238" font-family="Helvetica,sans-Serif" font-size="10.00">onBBCommandACK()</text>
<text text-anchor="start" x="143" y="-223" font-family="Helvetica,sans-Serif" font-size="10.00">+</text>
<text text-anchor="start" x="156" y="-223" font-family="Helvetica,sans-Serif" font-size="10.00">onPressureSettingSelected()</text>
<text text-anchor="start" x="143" y="-208" font-family="Helvetica,sans-Serif" font-size="10.00">+</text>
<text text-anchor="start" x="156" y="-208" font-family="Helvetica,sans-Serif" font-size="10.00">onPressurSettingSent()</text>
<polygon fill="#666666" stroke="#666666" points="139,-589 139,-589 299,-589 299,-589 139,-589"/>
<polygon fill="#666666" stroke="#666666" points="139,-484 139,-484 154,-484 154,-484 139,-484"/>
<polygon fill="#666666" stroke="#666666" points="154,-484 154,-484 299,-484 299,-484 154,-484"/>
<polygon fill="none" stroke="#666666" points="139,-201 139,-617 299,-617 299,-201 139,-201"/>
</a>
</g>
</g>
<!-- Node3&#45;&gt;Node1 -->
<g id="edge2_Node000001_Node000003" class="edge">
<title>Node3&#45;&gt;Node1</title>
<g id="a_edge2_Node000001_Node000003"><a xlink:title=" ">
<path fill="none" stroke="#63b8ff" d="M150.59,-200.88C146.56,-188.67 142.63,-176.8 138.92,-165.54"/>
<polygon fill="none" stroke="#63b8ff" points="138.88,-165.45 133.2,-161 135.12,-154.05 140.8,-158.49 138.88,-165.45"/>
</a>
</g>
<text text-anchor="middle" x="162" y="-175" font-family="Helvetica,sans-Serif" font-size="10.00" fill="grey"> &#45;m_vm</text>
</g>
<!-- Node4 -->
<g id="Node000004" class="node">
<title>Node4</title>
<g id="a_Node000004"><a xlink:title=" ">
<polygon fill="white" stroke="transparent" points="286,-2197 236,-2197 236,-2148 286,-2148 286,-2197"/>
<text text-anchor="start" x="241" y="-2184.5" font-family="Helvetica,sans-Serif" font-size="10.00">QObject</text>
<text text-anchor="start" x="259" y="-2169.5" font-family="Helvetica,sans-Serif" font-size="10.00"> </text>
<text text-anchor="start" x="259" y="-2154.5" font-family="Helvetica,sans-Serif" font-size="10.00"> </text>
<polygon fill="#666666" stroke="#666666" points="236,-2179.5 236,-2179.5 286,-2179.5 286,-2179.5 236,-2179.5"/>
<polygon fill="#666666" stroke="#666666" points="236,-2164.5 236,-2164.5 286,-2164.5 286,-2164.5 236,-2164.5"/>
<polygon fill="none" stroke="#666666" points="236,-2148 236,-2197 286,-2197 286,-2148 236,-2148"/>
</a>
</g>
</g>
<!-- Node4&#45;&gt;Node3 -->
<g id="edge3_Node000003_Node000004" class="edge">
<title>Node4&#45;&gt;Node3</title>
<g id="a_edge3_Node000003_Node000004"><a xlink:title=" ">
<path fill="none" stroke="#63b8ff" d="M225.68,-2171.64C154.39,-2169.89 0,-2154.86 0,-2057.5 0,-2057.5 0,-2057.5 0,-740 0,-697.24 27.74,-693.18 59,-664 86.39,-638.43 105.01,-645.79 129,-617 132.39,-612.94 135.67,-608.73 138.84,-604.39"/>
<polygon fill="none" stroke="#63b8ff" points="225.92,-2175.15 235.97,-2171.82 226.03,-2168.15 225.92,-2175.15"/>
</a>
</g>
</g>
<!-- Node5 -->
<g id="Node000005" class="node">
<title>Node5</title>
<g id="a_Node000005"><a xlink:href="classTimer.html" target="_top" xlink:title=" ">
<polygon fill="white" stroke="transparent" points="131,-1984 15,-1984 15,-1860 131,-1860 131,-1984"/>
<text text-anchor="start" x="58.5" y="-1972" font-family="Helvetica,sans-Serif" font-size="10.00">Timer</text>
<text text-anchor="start" x="21.5" y="-1957" font-family="Helvetica,sans-Serif" font-size="10.00">&#45;</text>
<text text-anchor="start" x="32" y="-1957" font-family="Helvetica,sans-Serif" font-size="10.00">m_lastRefresh</text>
<text text-anchor="start" x="21.5" y="-1942" font-family="Helvetica,sans-Serif" font-size="10.00">&#45;</text>
<text text-anchor="start" x="32" y="-1942" font-family="Helvetica,sans-Serif" font-size="10.00">m_periodOfRefresh</text>
<text text-anchor="start" x="21.5" y="-1927" font-family="Helvetica,sans-Serif" font-size="10.00">&#45;</text>
<text text-anchor="start" x="32" y="-1927" font-family="Helvetica,sans-Serif" font-size="10.00">m_timer</text>
<text text-anchor="start" x="19" y="-1912" font-family="Helvetica,sans-Serif" font-size="10.00">+</text>
<text text-anchor="start" x="32" y="-1912" font-family="Helvetica,sans-Serif" font-size="10.00">Timer()</text>
<text text-anchor="start" x="19" y="-1897" font-family="Helvetica,sans-Serif" font-size="10.00">+</text>
<text text-anchor="start" x="32" y="-1897" font-family="Helvetica,sans-Serif" font-size="10.00">setFrequecy()</text>
<text text-anchor="start" x="19" y="-1882" font-family="Helvetica,sans-Serif" font-size="10.00">+</text>
<text text-anchor="start" x="32" y="-1882" font-family="Helvetica,sans-Serif" font-size="10.00">setPeriod()</text>
<text text-anchor="start" x="19" y="-1867" font-family="Helvetica,sans-Serif" font-size="10.00">+</text>
<text text-anchor="start" x="32" y="-1867" font-family="Helvetica,sans-Serif" font-size="10.00">frequencyHz()</text>
<polygon fill="#666666" stroke="#666666" points="15,-1967 15,-1967 131,-1967 131,-1967 15,-1967"/>
<polygon fill="#666666" stroke="#666666" points="15,-1922 15,-1922 30,-1922 30,-1922 15,-1922"/>
<polygon fill="#666666" stroke="#666666" points="30,-1922 30,-1922 131,-1922 131,-1922 30,-1922"/>
<polygon fill="none" stroke="#666666" points="15,-1860 15,-1984 131,-1984 131,-1860 15,-1860"/>
</a>
</g>
</g>
<!-- Node4&#45;&gt;Node5 -->
<g id="edge5_Node000005_Node000004" class="edge">
<title>Node4&#45;&gt;Node5</title>
<g id="a_edge5_Node000005_Node000004"><a xlink:title=" ">
<path fill="none" stroke="#63b8ff" d="M225.62,-2169.1C196.64,-2165.27 156.54,-2155.38 132,-2130 94.33,-2091.05 80.41,-2029.81 75.41,-1984.03"/>
<polygon fill="none" stroke="#63b8ff" points="225.42,-2172.6 235.75,-2170.26 226.21,-2165.64 225.42,-2172.6"/>
</a>
</g>
</g>
<!-- Node6 -->
<g id="Node000006" class="node">
<title>Node6</title>
<g id="a_Node000006"><a xlink:href="classUdpChannel.html" target="_top" xlink:title=" ">
<polygon fill="white" stroke="transparent" points="456.5,-1199 321.5,-1199 321.5,-865 456.5,-865 456.5,-1199"/>
<text text-anchor="start" x="359.5" y="-1187" font-family="Helvetica,sans-Serif" font-size="10.00">UdpChannel</text>
<text text-anchor="start" x="328.5" y="-1172" font-family="Helvetica,sans-Serif" font-size="10.00">&#45;</text>
<text text-anchor="start" x="339" y="-1172" font-family="Helvetica,sans-Serif" font-size="10.00">m_udpWorkerThread</text>
<text text-anchor="start" x="328.5" y="-1157" font-family="Helvetica,sans-Serif" font-size="10.00">&#45;</text>
<text text-anchor="start" x="339" y="-1157" font-family="Helvetica,sans-Serif" font-size="10.00">m_udpSocket</text>
<text text-anchor="start" x="328.5" y="-1142" font-family="Helvetica,sans-Serif" font-size="10.00">&#45;</text>
<text text-anchor="start" x="339" y="-1142" font-family="Helvetica,sans-Serif" font-size="10.00">m_remoteAddr</text>
<text text-anchor="start" x="328.5" y="-1127" font-family="Helvetica,sans-Serif" font-size="10.00">&#45;</text>
<text text-anchor="start" x="339" y="-1127" font-family="Helvetica,sans-Serif" font-size="10.00">m_remotePort</text>
<text text-anchor="start" x="328.5" y="-1112" font-family="Helvetica,sans-Serif" font-size="10.00">&#45;</text>
<text text-anchor="start" x="339" y="-1112" font-family="Helvetica,sans-Serif" font-size="10.00">m_localAddr</text>
<text text-anchor="start" x="328.5" y="-1097" font-family="Helvetica,sans-Serif" font-size="10.00">&#45;</text>
<text text-anchor="start" x="339" y="-1097" font-family="Helvetica,sans-Serif" font-size="10.00">m_localPort</text>
<text text-anchor="start" x="328.5" y="-1082" font-family="Helvetica,sans-Serif" font-size="10.00">&#45;</text>
<text text-anchor="start" x="339" y="-1082" font-family="Helvetica,sans-Serif" font-size="10.00">m_lastRefresh</text>
<text text-anchor="start" x="328.5" y="-1067" font-family="Helvetica,sans-Serif" font-size="10.00">&#45;</text>
<text text-anchor="start" x="339" y="-1067" font-family="Helvetica,sans-Serif" font-size="10.00">m_periodOfRefresh</text>
<text text-anchor="start" x="328.5" y="-1052" font-family="Helvetica,sans-Serif" font-size="10.00">&#45;</text>
<text text-anchor="start" x="339" y="-1052" font-family="Helvetica,sans-Serif" font-size="10.00">m_running</text>
<text text-anchor="start" x="326" y="-1037" font-family="Helvetica,sans-Serif" font-size="10.00">+</text>
<text text-anchor="start" x="339" y="-1037" font-family="Helvetica,sans-Serif" font-size="10.00">UdpChannel()</text>
<text text-anchor="start" x="326" y="-1022" font-family="Helvetica,sans-Serif" font-size="10.00">+</text>
<text text-anchor="start" x="339" y="-1022" font-family="Helvetica,sans-Serif" font-size="10.00">~UdpChannel()</text>
<text text-anchor="start" x="326" y="-1007" font-family="Helvetica,sans-Serif" font-size="10.00">+</text>
<text text-anchor="start" x="339" y="-1007" font-family="Helvetica,sans-Serif" font-size="10.00">startEndpoint()</text>
<text text-anchor="start" x="326" y="-992" font-family="Helvetica,sans-Serif" font-size="10.00">+</text>
<text text-anchor="start" x="339" y="-992" font-family="Helvetica,sans-Serif" font-size="10.00">stopEndpoint()</text>
<text text-anchor="start" x="326" y="-977" font-family="Helvetica,sans-Serif" font-size="10.00">+</text>
<text text-anchor="start" x="339" y="-977" font-family="Helvetica,sans-Serif" font-size="10.00">sendData()</text>
<text text-anchor="start" x="326" y="-962" font-family="Helvetica,sans-Serif" font-size="10.00">+</text>
<text text-anchor="start" x="339" y="-962" font-family="Helvetica,sans-Serif" font-size="10.00">running()</text>
<text text-anchor="start" x="326" y="-947" font-family="Helvetica,sans-Serif" font-size="10.00">+</text>
<text text-anchor="start" x="339" y="-947" font-family="Helvetica,sans-Serif" font-size="10.00">remoteAddr()</text>
<text text-anchor="start" x="326" y="-932" font-family="Helvetica,sans-Serif" font-size="10.00">+</text>
<text text-anchor="start" x="339" y="-932" font-family="Helvetica,sans-Serif" font-size="10.00">remotePort()</text>
<text text-anchor="start" x="326" y="-917" font-family="Helvetica,sans-Serif" font-size="10.00">+</text>
<text text-anchor="start" x="339" y="-917" font-family="Helvetica,sans-Serif" font-size="10.00">localAddr()</text>
<text text-anchor="start" x="326" y="-902" font-family="Helvetica,sans-Serif" font-size="10.00">+</text>
<text text-anchor="start" x="339" y="-902" font-family="Helvetica,sans-Serif" font-size="10.00">localPort()</text>
<text text-anchor="start" x="339" y="-887" font-family="Helvetica,sans-Serif" font-size="10.00">and 6 more...</text>
<text text-anchor="start" x="326" y="-872" font-family="Helvetica,sans-Serif" font-size="10.00">+</text>
<text text-anchor="start" x="339" y="-872" font-family="Helvetica,sans-Serif" font-size="10.00">onDatagramReceived()</text>
<polygon fill="#666666" stroke="#666666" points="322,-1182 322,-1182 457,-1182 457,-1182 322,-1182"/>
<polygon fill="#666666" stroke="#666666" points="322,-1047 322,-1047 337,-1047 337,-1047 322,-1047"/>
<polygon fill="#666666" stroke="#666666" points="337,-1047 337,-1047 457,-1047 457,-1047 337,-1047"/>
<polygon fill="none" stroke="#666666" points="321.5,-865 321.5,-1199 456.5,-1199 456.5,-865 321.5,-865"/>
</a>
</g>
</g>
<!-- Node4&#45;&gt;Node6 -->
<g id="edge7_Node000006_Node000004" class="edge">
<title>Node4&#45;&gt;Node6</title>
<g id="a_edge7_Node000006_Node000004"><a xlink:title=" ">
<path fill="none" stroke="#63b8ff" d="M271.86,-2138.04C278.21,-2115.53 285,-2085.04 285,-2057.5 285,-2057.5 285,-2057.5 285,-1375 285,-1311.7 301.51,-1244.55 321.37,-1186.66"/>
<polygon fill="none" stroke="#63b8ff" points="268.45,-2137.21 268.99,-2147.79 275.17,-2139.18 268.45,-2137.21"/>
</a>
</g>
</g>
<!-- Node7 -->
<g id="Node000007" class="node">
<title>Node7</title>
<g id="a_Node000007"><a xlink:href="classUdpWorker.html" target="_top" xlink:title=" ">
<polygon fill="white" stroke="transparent" points="473,-1438 313,-1438 313,-1314 473,-1314 473,-1438"/>
<text text-anchor="start" x="366" y="-1426" font-family="Helvetica,sans-Serif" font-size="10.00">UdpWorker</text>
<text text-anchor="start" x="319.5" y="-1411" font-family="Helvetica,sans-Serif" font-size="10.00">&#45;</text>
<text text-anchor="start" x="330" y="-1411" font-family="Helvetica,sans-Serif" font-size="10.00">socket</text>
<text text-anchor="start" x="319.5" y="-1396" font-family="Helvetica,sans-Serif" font-size="10.00">&#45;</text>
<text text-anchor="start" x="330" y="-1396" font-family="Helvetica,sans-Serif" font-size="10.00">m_lastFrameSend</text>
<text text-anchor="start" x="317" y="-1381" font-family="Helvetica,sans-Serif" font-size="10.00">+</text>
<text text-anchor="start" x="330" y="-1381" font-family="Helvetica,sans-Serif" font-size="10.00">UdpWorker()</text>
<text text-anchor="start" x="317" y="-1366" font-family="Helvetica,sans-Serif" font-size="10.00">+</text>
<text text-anchor="start" x="330" y="-1366" font-family="Helvetica,sans-Serif" font-size="10.00">decimate()</text>
<text text-anchor="start" x="317" y="-1351" font-family="Helvetica,sans-Serif" font-size="10.00">+</text>
<text text-anchor="start" x="330" y="-1351" font-family="Helvetica,sans-Serif" font-size="10.00">start()</text>
<text text-anchor="start" x="317" y="-1336" font-family="Helvetica,sans-Serif" font-size="10.00">+</text>
<text text-anchor="start" x="330" y="-1336" font-family="Helvetica,sans-Serif" font-size="10.00">stop()</text>
<text text-anchor="start" x="319.5" y="-1321" font-family="Helvetica,sans-Serif" font-size="10.00">&#45;</text>
<text text-anchor="start" x="330" y="-1321" font-family="Helvetica,sans-Serif" font-size="10.00">processPendingDatagrams()</text>
<polygon fill="#666666" stroke="#666666" points="313,-1421 313,-1421 473,-1421 473,-1421 313,-1421"/>
<polygon fill="#666666" stroke="#666666" points="313,-1391 313,-1391 328,-1391 328,-1391 313,-1391"/>
<polygon fill="#666666" stroke="#666666" points="328,-1391 328,-1391 473,-1391 473,-1391 328,-1391"/>
<polygon fill="none" stroke="#666666" points="313,-1314 313,-1438 473,-1438 473,-1314 313,-1314"/>
</a>
</g>
</g>
<!-- Node4&#45;&gt;Node7 -->
<g id="edge9_Node000007_Node000004" class="edge">
<title>Node4&#45;&gt;Node7</title>
<g id="a_edge9_Node000007_Node000004"><a xlink:title=" ">
<path fill="none" stroke="#63b8ff" d="M292.77,-2140.7C295.17,-2137.28 297.31,-2133.69 299,-2130 424.25,-1855.68 329.69,-1753.82 377,-1456 377.92,-1450.2 378.97,-1444.17 380.08,-1438.15"/>
<polygon fill="none" stroke="#63b8ff" points="289.81,-2138.8 286.37,-2148.82 295.31,-2143.13 289.81,-2138.8"/>
</a>
</g>
</g>
<!-- Node9 -->
<g id="Node000009" class="node">
<title>Node9</title>
<g id="a_Node000009"><a xlink:href="classLogger.html" target="_top" xlink:title=" ">
<polygon fill="white" stroke="transparent" points="451,-2111 383,-2111 383,-2002 451,-2002 451,-2111"/>
<text text-anchor="start" x="400" y="-2098.5" font-family="Helvetica,sans-Serif" font-size="10.00">Logger</text>
<text text-anchor="start" x="415" y="-2083.5" font-family="Helvetica,sans-Serif" font-size="10.00"> </text>
<text text-anchor="start" x="387" y="-2068.5" font-family="Helvetica,sans-Serif" font-size="10.00">+</text>
<text text-anchor="start" x="400" y="-2068.5" font-family="Helvetica,sans-Serif" font-size="10.00">Logger()</text>
<text text-anchor="start" x="387" y="-2053.5" font-family="Helvetica,sans-Serif" font-size="10.00">+</text>
<text text-anchor="start" x="400" y="-2053.5" font-family="Helvetica,sans-Serif" font-size="10.00">log()</text>
<text text-anchor="start" x="387" y="-2038.5" font-family="Helvetica,sans-Serif" font-size="10.00">+</text>
<text text-anchor="start" x="400" y="-2038.5" font-family="Helvetica,sans-Serif" font-size="10.00">debug()</text>
<text text-anchor="start" x="387" y="-2023.5" font-family="Helvetica,sans-Serif" font-size="10.00">+</text>
<text text-anchor="start" x="400" y="-2023.5" font-family="Helvetica,sans-Serif" font-size="10.00">error()</text>
<text text-anchor="start" x="387" y="-2008.5" font-family="Helvetica,sans-Serif" font-size="10.00">+</text>
<text text-anchor="start" x="400" y="-2008.5" font-family="Helvetica,sans-Serif" font-size="10.00">warning()</text>
<polygon fill="#666666" stroke="#666666" points="383,-2093.5 383,-2093.5 451,-2093.5 451,-2093.5 383,-2093.5"/>
<polygon fill="#666666" stroke="#666666" points="383,-2078.5 383,-2078.5 451,-2078.5 451,-2078.5 383,-2078.5"/>
<polygon fill="none" stroke="#666666" points="383,-2002 383,-2111 451,-2111 451,-2002 383,-2002"/>
</a>
</g>
</g>
<!-- Node4&#45;&gt;Node9 -->
<g id="edge12_Node000009_Node000004" class="edge">
<title>Node4&#45;&gt;Node9</title>
<g id="a_edge12_Node000009_Node000004"><a xlink:title=" ">
<path fill="none" stroke="#63b8ff" d="M295.34,-2155.31C309.06,-2148.26 324.73,-2139.44 338,-2130 353.62,-2118.88 369.46,-2104.98 382.82,-2092.32"/>
<polygon fill="none" stroke="#63b8ff" points="293.57,-2152.29 286.2,-2159.9 296.71,-2158.54 293.57,-2152.29"/>
</a>
</g>
</g>
<!-- Node10 -->
<g id="Node000010" class="node">
<title>Node10</title>
<g id="a_Node000010"><a xlink:href="classFileSystem.html" target="_top" xlink:title=" ">
<polygon fill="white" stroke="transparent" points="258,-1535 166,-1535 166,-1456 258,-1456 258,-1535"/>
<text text-anchor="start" x="184.5" y="-1522.5" font-family="Helvetica,sans-Serif" font-size="10.00">FileSystem</text>
<text text-anchor="start" x="172.5" y="-1507.5" font-family="Helvetica,sans-Serif" font-size="10.00">&#45;</text>
<text text-anchor="start" x="183" y="-1507.5" font-family="Helvetica,sans-Serif" font-size="10.00">m_pathList</text>
<text text-anchor="start" x="170" y="-1492.5" font-family="Helvetica,sans-Serif" font-size="10.00">+</text>
<text text-anchor="start" x="183" y="-1492.5" font-family="Helvetica,sans-Serif" font-size="10.00">FileSystem()</text>
<text text-anchor="start" x="170" y="-1477.5" font-family="Helvetica,sans-Serif" font-size="10.00">+</text>
<text text-anchor="start" x="183" y="-1477.5" font-family="Helvetica,sans-Serif" font-size="10.00">addDirectory()</text>
<text text-anchor="start" x="170" y="-1462.5" font-family="Helvetica,sans-Serif" font-size="10.00">+</text>
<text text-anchor="start" x="183" y="-1462.5" font-family="Helvetica,sans-Serif" font-size="10.00">getDirectory()</text>
<polygon fill="#666666" stroke="#666666" points="166,-1517.5 166,-1517.5 258,-1517.5 258,-1517.5 166,-1517.5"/>
<polygon fill="#666666" stroke="#666666" points="166,-1502.5 166,-1502.5 181,-1502.5 181,-1502.5 166,-1502.5"/>
<polygon fill="#666666" stroke="#666666" points="181,-1502.5 181,-1502.5 258,-1502.5 258,-1502.5 181,-1502.5"/>
<polygon fill="none" stroke="#666666" points="166,-1456 166,-1535 258,-1535 258,-1456 166,-1456"/>
</a>
</g>
</g>
<!-- Node4&#45;&gt;Node10 -->
<g id="edge15_Node000010_Node000004" class="edge">
<title>Node4&#45;&gt;Node10</title>
<g id="a_edge15_Node000010_Node000004"><a xlink:title=" ">
<path fill="none" stroke="#63b8ff" d="M258.55,-2137.68C250.29,-2024.01 223.58,-1656.03 214.82,-1535.28"/>
<polygon fill="none" stroke="#63b8ff" points="255.07,-2138.15 259.28,-2147.87 262.05,-2137.64 255.07,-2138.15"/>
</a>
</g>
</g>
<!-- Node11 -->
<g id="Node000011" class="node">
<title>Node11</title>
<g id="a_Node000011"><a xlink:href="classTestBenchModel.html" target="_top" xlink:title=" ">
<polygon fill="white" stroke="transparent" points="286,-818 152,-818 152,-664 286,-664 286,-818"/>
<text text-anchor="start" x="179" y="-806" font-family="Helvetica,sans-Serif" font-size="10.00">TestBenchModel</text>
<text text-anchor="start" x="158.5" y="-791" font-family="Helvetica,sans-Serif" font-size="10.00">&#45;</text>
<text text-anchor="start" x="169" y="-791" font-family="Helvetica,sans-Serif" font-size="10.00">m_testStatus</text>
<text text-anchor="start" x="158.5" y="-776" font-family="Helvetica,sans-Serif" font-size="10.00">&#45;</text>
<text text-anchor="start" x="169" y="-776" font-family="Helvetica,sans-Serif" font-size="10.00">m_testStatusInitialised</text>
<text text-anchor="start" x="156" y="-761" font-family="Helvetica,sans-Serif" font-size="10.00">+</text>
<text text-anchor="start" x="169" y="-761" font-family="Helvetica,sans-Serif" font-size="10.00">TestBenchModel()</text>
<text text-anchor="start" x="156" y="-746" font-family="Helvetica,sans-Serif" font-size="10.00">+</text>
<text text-anchor="start" x="169" y="-746" font-family="Helvetica,sans-Serif" font-size="10.00">setTestStatus()</text>
<text text-anchor="start" x="156" y="-731" font-family="Helvetica,sans-Serif" font-size="10.00">+</text>
<text text-anchor="start" x="169" y="-731" font-family="Helvetica,sans-Serif" font-size="10.00">getTestStatus()</text>
<text text-anchor="start" x="156" y="-716" font-family="Helvetica,sans-Serif" font-size="10.00">+</text>
<text text-anchor="start" x="169" y="-716" font-family="Helvetica,sans-Serif" font-size="10.00">getStatus()</text>
<text text-anchor="start" x="156" y="-701" font-family="Helvetica,sans-Serif" font-size="10.00">+</text>
<text text-anchor="start" x="169" y="-701" font-family="Helvetica,sans-Serif" font-size="10.00">getStatus()</text>
<text text-anchor="start" x="156" y="-686" font-family="Helvetica,sans-Serif" font-size="10.00">+</text>
<text text-anchor="start" x="169" y="-686" font-family="Helvetica,sans-Serif" font-size="10.00">getStatusID()</text>
<text text-anchor="start" x="156" y="-671" font-family="Helvetica,sans-Serif" font-size="10.00">+</text>
<text text-anchor="start" x="169" y="-671" font-family="Helvetica,sans-Serif" font-size="10.00">onStatesListRecieved()</text>
<polygon fill="#666666" stroke="#666666" points="152,-801 152,-801 286,-801 286,-801 152,-801"/>
<polygon fill="#666666" stroke="#666666" points="152,-771 152,-771 167,-771 167,-771 152,-771"/>
<polygon fill="#666666" stroke="#666666" points="167,-771 167,-771 286,-771 286,-771 167,-771"/>
<polygon fill="none" stroke="#666666" points="152,-664 152,-818 286,-818 286,-664 152,-664"/>
</a>
</g>
</g>
<!-- Node4&#45;&gt;Node11 -->
<g id="edge19_Node000011_Node000004" class="edge">
<title>Node4&#45;&gt;Node11</title>
<g id="a_edge19_Node000011_Node000004"><a xlink:title=" ">
<path fill="none" stroke="#63b8ff" d="M250.78,-2137.98C248.34,-2129.25 245.9,-2119.82 244,-2111 189.54,-1857.89 176.77,-1793.15 157,-1535 145.6,-1386.1 156.22,-1348.33 156,-1199 155.78,-1050.56 121.19,-1009.31 156,-865 159.8,-849.26 165.97,-833.26 173.01,-818.25"/>
<polygon fill="none" stroke="#63b8ff" points="247.48,-2139.18 253.61,-2147.82 254.21,-2137.24 247.48,-2139.18"/>
</a>
</g>
</g>
<!-- Node13 -->
<g id="Node000013" class="node">
<title>Node13</title>
<g id="a_Node000013"><a xlink:href="classPressureTanksModel.html" target="_top" xlink:title=" ">
<polygon fill="white" stroke="transparent" points="754.5,-1296 625.5,-1296 625.5,-1217 754.5,-1217 754.5,-1296"/>
<text text-anchor="start" x="640.5" y="-1283.5" font-family="Helvetica,sans-Serif" font-size="10.00">PressureTanksModel</text>
<text text-anchor="start" x="632.5" y="-1268.5" font-family="Helvetica,sans-Serif" font-size="10.00">&#45;</text>
<text text-anchor="start" x="643" y="-1268.5" font-family="Helvetica,sans-Serif" font-size="10.00">m_PressureSettings</text>
<text text-anchor="start" x="630" y="-1253.5" font-family="Helvetica,sans-Serif" font-size="10.00">+</text>
<text text-anchor="start" x="643" y="-1253.5" font-family="Helvetica,sans-Serif" font-size="10.00">PressureTanksModel()</text>
<text text-anchor="start" x="630" y="-1238.5" font-family="Helvetica,sans-Serif" font-size="10.00">+</text>
<text text-anchor="start" x="643" y="-1238.5" font-family="Helvetica,sans-Serif" font-size="10.00">getPressureSetting()</text>
<text text-anchor="start" x="630" y="-1223.5" font-family="Helvetica,sans-Serif" font-size="10.00">+</text>
<text text-anchor="start" x="643" y="-1223.5" font-family="Helvetica,sans-Serif" font-size="10.00">setPressureSetting()</text>
<polygon fill="#666666" stroke="#666666" points="626,-1278.5 626,-1278.5 755,-1278.5 755,-1278.5 626,-1278.5"/>
<polygon fill="#666666" stroke="#666666" points="626,-1263.5 626,-1263.5 641,-1263.5 641,-1263.5 626,-1263.5"/>
<polygon fill="#666666" stroke="#666666" points="641,-1263.5 641,-1263.5 755,-1263.5 755,-1263.5 641,-1263.5"/>
<polygon fill="none" stroke="#666666" points="625.5,-1217 625.5,-1296 754.5,-1296 754.5,-1217 625.5,-1217"/>
</a>
</g>
</g>
<!-- Node4&#45;&gt;Node13 -->
<g id="edge23_Node000013_Node000004" class="edge">
<title>Node4&#45;&gt;Node13</title>
<g id="a_edge23_Node000013_Node000004"><a xlink:title=" ">
<path fill="none" stroke="#63b8ff" d="M296.27,-2169.57C397.87,-2163.05 684,-2137.57 684,-2057.5 684,-2057.5 684,-2057.5 684,-1494.5 684,-1424.53 686.65,-1342.98 688.42,-1296.08"/>
<polygon fill="none" stroke="#63b8ff" points="295.96,-2166.08 286.19,-2170.19 296.39,-2173.07 295.96,-2166.08"/>
</a>
</g>
</g>
<!-- Node5&#45;&gt;Node3 -->
<g id="edge4_Node000003_Node000005" class="edge">
<title>Node5&#45;&gt;Node3</title>
<g id="a_edge4_Node000003_Node000005"><a xlink:title=" ">
<path fill="none" stroke="#63b8ff" d="M73,-1859.84C73,-1777.35 73,-1625.84 73,-1496.5 73,-1496.5 73,-1496.5 73,-740 73,-679.93 104.58,-671.88 129,-617 130.63,-613.33 132.28,-609.62 133.94,-605.89"/>
<polygon fill="none" stroke="#63b8ff" points="134.08,-605.57 132.84,-598.47 138.93,-594.6 140.16,-601.7 134.08,-605.57"/>
</a>
</g>
<text text-anchor="middle" x="97.5" y="-1254" font-family="Helvetica,sans-Serif" font-size="10.00" fill="grey"> &#45;m_timer</text>
</g>
<!-- Node6&#45;&gt;Node3 -->
<g id="edge6_Node000003_Node000006" class="edge">
<title>Node6&#45;&gt;Node3</title>
<g id="a_edge6_Node000003_Node000006"><a xlink:title=" ">
<path fill="none" stroke="#63b8ff" d="M367.68,-864.75C365.9,-855 364.01,-845.36 362,-836 347.25,-767.32 325.19,-694.25 302.78,-628.38"/>
<polygon fill="none" stroke="#63b8ff" points="302.78,-628.38 297.05,-624 298.89,-617.02 304.61,-621.4 302.78,-628.38"/>
</a>
</g>
<text text-anchor="middle" x="397" y="-738.5" font-family="Helvetica,sans-Serif" font-size="10.00" fill="grey"> &#45;m_udpChannel</text>
</g>
<!-- Node6&#45;&gt;Node11 -->
<g id="edge21_Node000011_Node000006" class="edge">
<title>Node6&#45;&gt;Node11</title>
<g id="a_edge21_Node000011_Node000006"><a xlink:title=" ">
<path fill="none" stroke="#63b8ff" d="M321.32,-915.95C304.16,-886.78 286.02,-855.93 269.85,-828.45"/>
<polygon fill="none" stroke="#63b8ff" points="269.84,-828.44 263.35,-825.29 263.76,-818.09 270.25,-821.24 269.84,-828.44"/>
</a>
</g>
<text text-anchor="middle" x="318" y="-839" font-family="Helvetica,sans-Serif" font-size="10.00" fill="grey"> &#45;m_udpChannel</text>
</g>
<!-- Node7&#45;&gt;Node6 -->
<g id="edge8_Node000006_Node000007" class="edge">
<title>Node7&#45;&gt;Node6</title>
<g id="a_edge8_Node000006_Node000007"><a xlink:title=" ">
<path fill="none" stroke="#63b8ff" d="M392.28,-1313.86C391.94,-1284.73 391.52,-1248.23 391.09,-1211.28"/>
<polygon fill="none" stroke="#63b8ff" points="391.09,-1211.27 387.02,-1205.32 390.94,-1199.27 395.01,-1205.23 391.09,-1211.27"/>
</a>
</g>
<text text-anchor="middle" x="429" y="-1254" font-family="Helvetica,sans-Serif" font-size="10.00" fill="grey"> &#45;m_udpWorker</text>
</g>
<!-- Node8 -->
<g id="Node000008" class="node">
<title>Node8</title>
<g id="a_Node000008"><a xlink:href="classUdpLogger.html" target="_top" xlink:title=" ">
<polygon fill="white" stroke="transparent" points="575.5,-1842 442.5,-1842 442.5,-1553 575.5,-1553 575.5,-1842"/>
<text text-anchor="start" x="483" y="-1829.5" font-family="Helvetica,sans-Serif" font-size="10.00">UdpLogger</text>
<text text-anchor="start" x="449.5" y="-1814.5" font-family="Helvetica,sans-Serif" font-size="10.00">&#45;</text>
<text text-anchor="start" x="460" y="-1814.5" font-family="Helvetica,sans-Serif" font-size="10.00">m_writer</text>
<text text-anchor="start" x="449.5" y="-1799.5" font-family="Helvetica,sans-Serif" font-size="10.00">&#45;</text>
<text text-anchor="start" x="460" y="-1799.5" font-family="Helvetica,sans-Serif" font-size="10.00">m_ringBuffer</text>
<text text-anchor="start" x="449.5" y="-1784.5" font-family="Helvetica,sans-Serif" font-size="10.00">&#45;</text>
<text text-anchor="start" x="460" y="-1784.5" font-family="Helvetica,sans-Serif" font-size="10.00">m_running</text>
<text text-anchor="start" x="449.5" y="-1769.5" font-family="Helvetica,sans-Serif" font-size="10.00">&#45;</text>
<text text-anchor="start" x="460" y="-1769.5" font-family="Helvetica,sans-Serif" font-size="10.00">m_writerThread</text>
<text text-anchor="start" x="449.5" y="-1754.5" font-family="Helvetica,sans-Serif" font-size="10.00">&#45;</text>
<text text-anchor="start" x="460" y="-1754.5" font-family="Helvetica,sans-Serif" font-size="10.00">m_logDirPath</text>
<text text-anchor="start" x="449.5" y="-1739.5" font-family="Helvetica,sans-Serif" font-size="10.00">&#45;</text>
<text text-anchor="start" x="460" y="-1739.5" font-family="Helvetica,sans-Serif" font-size="10.00">MAX_FRAME_SIZE</text>
<text text-anchor="start" x="447" y="-1724.5" font-family="Helvetica,sans-Serif" font-size="10.00">+</text>
<text text-anchor="start" x="460" y="-1724.5" font-family="Helvetica,sans-Serif" font-size="10.00">UdpLogger()</text>
<text text-anchor="start" x="447" y="-1709.5" font-family="Helvetica,sans-Serif" font-size="10.00">+</text>
<text text-anchor="start" x="460" y="-1709.5" font-family="Helvetica,sans-Serif" font-size="10.00">~UdpLogger()</text>
<text text-anchor="start" x="447" y="-1694.5" font-family="Helvetica,sans-Serif" font-size="10.00">+</text>
<text text-anchor="start" x="460" y="-1694.5" font-family="Helvetica,sans-Serif" font-size="10.00">UdpLogger()</text>
<text text-anchor="start" x="447" y="-1679.5" font-family="Helvetica,sans-Serif" font-size="10.00">+</text>
<text text-anchor="start" x="460" y="-1679.5" font-family="Helvetica,sans-Serif" font-size="10.00">operator=()</text>
<text text-anchor="start" x="447" y="-1664.5" font-family="Helvetica,sans-Serif" font-size="10.00">+</text>
<text text-anchor="start" x="460" y="-1664.5" font-family="Helvetica,sans-Serif" font-size="10.00">UdpLogger()</text>
<text text-anchor="start" x="447" y="-1649.5" font-family="Helvetica,sans-Serif" font-size="10.00">+</text>
<text text-anchor="start" x="460" y="-1649.5" font-family="Helvetica,sans-Serif" font-size="10.00">operator=()</text>
<text text-anchor="start" x="447" y="-1634.5" font-family="Helvetica,sans-Serif" font-size="10.00">+</text>
<text text-anchor="start" x="460" y="-1634.5" font-family="Helvetica,sans-Serif" font-size="10.00">log()</text>
<text text-anchor="start" x="447" y="-1619.5" font-family="Helvetica,sans-Serif" font-size="10.00">+</text>
<text text-anchor="start" x="460" y="-1619.5" font-family="Helvetica,sans-Serif" font-size="10.00">cyclesCount()</text>
<text text-anchor="start" x="447" y="-1604.5" font-family="Helvetica,sans-Serif" font-size="10.00">+</text>
<text text-anchor="start" x="460" y="-1604.5" font-family="Helvetica,sans-Serif" font-size="10.00">droppedFramesCount()</text>
<text text-anchor="start" x="447" y="-1589.5" font-family="Helvetica,sans-Serif" font-size="10.00">+</text>
<text text-anchor="start" x="460" y="-1589.5" font-family="Helvetica,sans-Serif" font-size="10.00">start()</text>
<text text-anchor="start" x="447" y="-1574.5" font-family="Helvetica,sans-Serif" font-size="10.00">+</text>
<text text-anchor="start" x="460" y="-1574.5" font-family="Helvetica,sans-Serif" font-size="10.00">stop()</text>
<text text-anchor="start" x="449.5" y="-1559.5" font-family="Helvetica,sans-Serif" font-size="10.00">&#45;</text>
<text text-anchor="start" x="460" y="-1559.5" font-family="Helvetica,sans-Serif" font-size="10.00">writerLoop()</text>
<polygon fill="#666666" stroke="#666666" points="443,-1824.5 443,-1824.5 576,-1824.5 576,-1824.5 443,-1824.5"/>
<polygon fill="#666666" stroke="#666666" points="443,-1734.5 443,-1734.5 458,-1734.5 458,-1734.5 443,-1734.5"/>
<polygon fill="#666666" stroke="#666666" points="458,-1734.5 458,-1734.5 576,-1734.5 576,-1734.5 458,-1734.5"/>
<polygon fill="none" stroke="#666666" points="442.5,-1553 442.5,-1842 575.5,-1842 575.5,-1553 442.5,-1553"/>
</a>
</g>
</g>
<!-- Node8&#45;&gt;Node6 -->
<g id="edge17_Node000006_Node000008" class="edge">
<title>Node8&#45;&gt;Node6</title>
<g id="a_edge17_Node000006_Node000008"><a xlink:title=" ">
<path fill="none" stroke="#63b8ff" d="M511.25,-1552.97C509.4,-1456.41 500.34,-1327.11 470,-1217 467.27,-1207.1 464.1,-1197.04 460.62,-1187"/>
<polygon fill="none" stroke="#63b8ff" points="460.61,-1186.97 454.83,-1182.67 456.58,-1175.67 462.36,-1179.98 460.61,-1186.97"/>
</a>
</g>
<text text-anchor="middle" x="541.5" y="-1373.5" font-family="Helvetica,sans-Serif" font-size="10.00" fill="grey"> &#45;m_udpLogger</text>
</g>
<!-- Node8&#45;&gt;Node7 -->
<g id="edge10_Node000007_Node000008" class="edge">
<title>Node8&#45;&gt;Node7</title>
<g id="a_edge10_Node000007_Node000008"><a xlink:title=" ">
<path fill="none" stroke="#63b8ff" d="M442.49,-1579.65C435.59,-1564.9 429.22,-1549.79 424,-1535 414.48,-1508.02 407.62,-1477.37 402.81,-1450.29"/>
<polygon fill="none" stroke="#63b8ff" points="402.76,-1449.95 397.81,-1444.71 400.75,-1438.12 405.7,-1443.37 402.76,-1449.95"/>
</a>
</g>
<text text-anchor="middle" x="459.5" y="-1493" font-family="Helvetica,sans-Serif" font-size="10.00" fill="grey"> &#45;m_udplogger</text>
</g>
<!-- Node9&#45;&gt;Node6 -->
<g id="edge16_Node000006_Node000009" class="edge">
<title>Node9&#45;&gt;Node6</title>
<g id="a_edge16_Node000006_Node000009"><a xlink:title=" ">
<path fill="none" stroke="#63b8ff" d="M451.43,-2038.55C473.93,-2026.05 502.64,-2007.2 522,-1984 566.23,-1930.98 570.69,-1909.54 585,-1842 609.32,-1727.21 617.48,-1425.84 582,-1314 558.36,-1239.5 507.75,-1167.08 464.28,-1114.42"/>
<polygon fill="none" stroke="#63b8ff" points="464.23,-1114.36 457.32,-1112.32 456.54,-1105.15 463.45,-1107.19 464.23,-1114.36"/>
</a>
</g>
<text text-anchor="middle" x="631.5" y="-1493" font-family="Helvetica,sans-Serif" font-size="10.00" fill="grey"> &#45;m_logger</text>
</g>
<!-- Node9&#45;&gt;Node7 -->
<g id="edge13_Node000007_Node000009" class="edge">
<title>Node9&#45;&gt;Node7</title>
<g id="a_edge13_Node000007_Node000009"><a xlink:title=" ">
<path fill="none" stroke="#63b8ff" d="M405.4,-2001.85C396.72,-1958.86 385.59,-1896.88 381,-1842 370.28,-1714 376.63,-1681.37 381,-1553 382.15,-1519.22 384.54,-1481.86 386.88,-1450.28"/>
<polygon fill="none" stroke="#63b8ff" points="386.91,-1450 383.37,-1443.72 387.81,-1438.04 391.35,-1444.32 386.91,-1450"/>
</a>
</g>
<text text-anchor="middle" x="407.5" y="-1695" font-family="Helvetica,sans-Serif" font-size="10.00" fill="grey"> &#45;m_logger</text>
</g>
<!-- Node9&#45;&gt;Node8 -->
<g id="edge11_Node000008_Node000009" class="edge">
<title>Node9&#45;&gt;Node8</title>
<g id="a_edge11_Node000008_Node000009"><a xlink:title=" ">
<path fill="none" stroke="#63b8ff" d="M430.87,-2001.67C441,-1962.37 455.28,-1906.97 468.86,-1854.26"/>
<polygon fill="none" stroke="#63b8ff" points="468.93,-1853.98 466.56,-1847.17 471.93,-1842.36 474.3,-1849.17 468.93,-1853.98"/>
</a>
</g>
<text text-anchor="middle" x="491.5" y="-1919.5" font-family="Helvetica,sans-Serif" font-size="10.00" fill="grey"> &#45;m_logger</text>
</g>
<!-- Node10&#45;&gt;Node6 -->
<g id="edge14_Node000006_Node000010" class="edge">
<title>Node10&#45;&gt;Node6</title>
<g id="a_edge14_Node000006_Node000010"><a xlink:title=" ">
<path fill="none" stroke="#63b8ff" d="M200.16,-1455.79C190.75,-1418.52 181.5,-1361.04 197,-1314 216.89,-1253.63 245.88,-1251.29 282,-1199 292.73,-1183.46 303.8,-1166.93 314.56,-1150.55"/>
<polygon fill="none" stroke="#63b8ff" points="314.64,-1150.42 314.58,-1143.21 321.21,-1140.38 321.28,-1147.59 314.64,-1150.42"/>
</a>
</g>
<text text-anchor="middle" x="234" y="-1373.5" font-family="Helvetica,sans-Serif" font-size="10.00" fill="grey"> &#45;m_fileSystem</text>
</g>
<!-- Node11&#45;&gt;Node3 -->
<g id="edge18_Node000003_Node000011" class="edge">
<title>Node11&#45;&gt;Node3</title>
<g id="a_edge18_Node000003_Node000011"><a xlink:title=" ">
<path fill="none" stroke="#63b8ff" d="M219,-663.88C219,-653.03 219,-641.45 219,-629.43"/>
<polygon fill="none" stroke="#63b8ff" points="219,-629.29 215,-623.29 219,-617.29 223,-623.29 219,-629.29"/>
</a>
</g>
<text text-anchor="middle" x="259" y="-638" font-family="Helvetica,sans-Serif" font-size="10.00" fill="grey"> &#45;m_testBenchM</text>
</g>
<!-- Node12 -->
<g id="Node000012" class="node">
<title>Node12</title>
<g id="a_Node000012"><a xlink:href="classTestBenchStatesList.html" target="_top" xlink:title=" ">
<polygon fill="white" stroke="transparent" points="273,-1086.5 165,-1086.5 165,-977.5 273,-977.5 273,-1086.5"/>
<text text-anchor="start" x="170" y="-1074" font-family="Helvetica,sans-Serif" font-size="10.00">TestBenchStatesList</text>
<text text-anchor="start" x="172.5" y="-1059" font-family="Helvetica,sans-Serif" font-size="10.00">&#45;</text>
<text text-anchor="start" x="184" y="-1059" font-family="Helvetica,sans-Serif" font-size="10.00">m_valuesDatas</text>
<text text-anchor="start" x="172.5" y="-1044" font-family="Helvetica,sans-Serif" font-size="10.00">&#45;</text>
<text text-anchor="start" x="184" y="-1044" font-family="Helvetica,sans-Serif" font-size="10.00">m_valuesNames</text>
<text text-anchor="start" x="170" y="-1029" font-family="Helvetica,sans-Serif" font-size="10.00">+</text>
<text text-anchor="start" x="184" y="-1029" font-family="Helvetica,sans-Serif" font-size="10.00">append()</text>
<text text-anchor="start" x="170" y="-1014" font-family="Helvetica,sans-Serif" font-size="10.00">+</text>
<text text-anchor="start" x="184" y="-1014" font-family="Helvetica,sans-Serif" font-size="10.00">getValue()</text>
<text text-anchor="start" x="170" y="-999" font-family="Helvetica,sans-Serif" font-size="10.00">+</text>
<text text-anchor="start" x="184" y="-999" font-family="Helvetica,sans-Serif" font-size="10.00">getValue()</text>
<text text-anchor="start" x="170" y="-984" font-family="Helvetica,sans-Serif" font-size="10.00">+</text>
<text text-anchor="start" x="184" y="-984" font-family="Helvetica,sans-Serif" font-size="10.00">getID()</text>
<polygon fill="#666666" stroke="#666666" points="165,-1069 165,-1069 273,-1069 273,-1069 165,-1069"/>
<polygon fill="#666666" stroke="#666666" points="165,-1039 165,-1039 182,-1039 182,-1039 165,-1039"/>
<polygon fill="#666666" stroke="#666666" points="182,-1039 182,-1039 273,-1039 273,-1039 182,-1039"/>
<polygon fill="none" stroke="#666666" points="165,-977.5 165,-1086.5 273,-1086.5 273,-977.5 165,-977.5"/>
</a>
</g>
</g>
<!-- Node12&#45;&gt;Node11 -->
<g id="edge20_Node000011_Node000012" class="edge">
<title>Node12&#45;&gt;Node11</title>
<g id="a_edge20_Node000011_Node000012"><a xlink:title=" ">
<path fill="none" stroke="#63b8ff" d="M219,-977.32C219,-936.1 219,-878.3 219,-830.3"/>
<polygon fill="none" stroke="#63b8ff" points="219,-830 215,-824 219,-818 223,-824 219,-830"/>
</a>
</g>
<text text-anchor="middle" x="245" y="-839" font-family="Helvetica,sans-Serif" font-size="10.00" fill="grey"> &#45;m_states</text>
</g>
<!-- Node13&#45;&gt;Node3 -->
<g id="edge22_Node000003_Node000013" class="edge">
<title>Node13&#45;&gt;Node3</title>
<g id="a_edge22_Node000003_Node000013"><a xlink:title=" ">
<path fill="none" stroke="#63b8ff" d="M678.48,-1216.78C648.46,-1119.2 561.71,-857.25 441,-664 403.4,-603.8 351.65,-543.68 307.57,-497.05"/>
<polygon fill="none" stroke="#63b8ff" points="307.42,-496.89 300.39,-495.31 299.15,-488.2 306.18,-489.79 307.42,-496.89"/>
</a>
</g>
<text text-anchor="middle" x="561.5" y="-839" font-family="Helvetica,sans-Serif" font-size="10.00" fill="grey"> &#45;m_tankM</text>
</g>
</g>
</svg>
