<?xml version="1.0" encoding="UTF-8" standalone="no"?>
<!DOCTYPE svg PUBLIC "-//W3C//DTD SVG 1.1//EN"
 "http://www.w3.org/Graphics/SVG/1.1/DTD/svg11.dtd">
<!-- Generated by graphviz version 2.43.0 (0)
 -->
<!-- Title: PlotViewModel::PlotViewModel Pages: 1 -->
<svg width="578pt" height="162pt"
 viewBox="0.00 0.00 578.00 161.50" xmlns="http://www.w3.org/2000/svg" xmlns:xlink="http://www.w3.org/1999/xlink">
<g id="graph0" class="graph" transform="scale(1 1) rotate(0) translate(4 157.5)">
<title>PlotViewModel::PlotViewModel</title>
<!-- Node1 -->
<g id="Node000001" class="node">
<title>Node1</title>
<g id="a_Node000001"><a xlink:title=" ">
<polygon fill="#999999" stroke="#666666" points="168,-83 0,-83 0,-64 168,-64 168,-83"/>
<text text-anchor="middle" x="84" y="-71" font-family="Helvetica,sans-Serif" font-size="10.00">PlotViewModel::PlotViewModel</text>
</a>
</g>
</g>
<!-- Node2 -->
<g id="Node000002" class="node">
<title>Node2</title>
<g id="a_Node000002"><a xlink:href="classPlotViewModel.html#afa427002b5ebcd80b47eaf73b57e2f6a" target="_top" xlink:title=" ">
<polygon fill="white" stroke="#666666" points="371,-153.5 207,-153.5 207,-123.5 371,-123.5 371,-153.5"/>
<text text-anchor="start" x="215" y="-141.5" font-family="Helvetica,sans-Serif" font-size="10.00">PlotViewModel::onSensorData</text>
<text text-anchor="middle" x="289" y="-130.5" font-family="Helvetica,sans-Serif" font-size="10.00">Update</text>
</a>
</g>
</g>
<!-- Node1&#45;&gt;Node2 -->
<g id="edge1_Node000001_Node000002" class="edge">
<title>Node1&#45;&gt;Node2</title>
<g id="a_edge1_Node000001_Node000002"><a xlink:title=" ">
<path fill="none" stroke="#63b8ff" d="M112.8,-83.15C136.86,-91.43 172.63,-103.56 204,-113.5 211.34,-115.83 219.07,-118.21 226.73,-120.54"/>
<polygon fill="#63b8ff" stroke="#63b8ff" points="225.8,-123.91 236.38,-123.45 227.82,-117.21 225.8,-123.91"/>
</a>
</g>
</g>
<!-- Node4 -->
<g id="Node000004" class="node">
<title>Node4</title>
<g id="a_Node000004"><a xlink:href="classPlotViewModel.html#a62f58f43a0e9361771712694affd307b" target="_top" xlink:title=" ">
<polygon fill="white" stroke="#666666" points="374,-105 204,-105 204,-86 374,-86 374,-105"/>
<text text-anchor="middle" x="289" y="-93" font-family="Helvetica,sans-Serif" font-size="10.00">PlotViewModel::onTimerTimout</text>
</a>
</g>
</g>
<!-- Node1&#45;&gt;Node4 -->
<g id="edge3_Node000001_Node000004" class="edge">
<title>Node1&#45;&gt;Node4</title>
<g id="a_edge3_Node000001_Node000004"><a xlink:title=" ">
<path fill="none" stroke="#63b8ff" d="M168.15,-82.51C176.65,-83.43 185.33,-84.37 193.94,-85.31"/>
<polygon fill="#63b8ff" stroke="#63b8ff" points="193.67,-88.8 203.99,-86.4 194.43,-81.84 193.67,-88.8"/>
</a>
</g>
</g>
<!-- Node6 -->
<g id="Node000006" class="node">
<title>Node6</title>
<g id="a_Node000006"><a xlink:href="classTestBenchModel.html#afbee1c04744de5e49352a90f5f87f6f1" target="_top" xlink:title=" ">
<polygon fill="white" stroke="#666666" points="363.5,-67.5 214.5,-67.5 214.5,-37.5 363.5,-37.5 363.5,-67.5"/>
<text text-anchor="start" x="222.5" y="-55.5" font-family="Helvetica,sans-Serif" font-size="10.00">TestBenchModel::statesList</text>
<text text-anchor="middle" x="289" y="-44.5" font-family="Helvetica,sans-Serif" font-size="10.00">Changed</text>
</a>
</g>
</g>
<!-- Node1&#45;&gt;Node6 -->
<g id="edge5_Node000001_Node000006" class="edge">
<title>Node1&#45;&gt;Node6</title>
<g id="a_edge5_Node000001_Node000006"><a xlink:title=" ">
<path fill="none" stroke="#63b8ff" d="M168.15,-64.9C180.13,-63.66 192.46,-62.38 204.44,-61.14"/>
<polygon fill="#63b8ff" stroke="#63b8ff" points="204.83,-64.62 214.41,-60.11 204.1,-57.66 204.83,-64.62"/>
</a>
</g>
</g>
<!-- Node7 -->
<g id="Node000007" class="node">
<title>Node7</title>
<g id="a_Node000007"><a xlink:href="classTimer.html#ab8b4318d87a4ce20f552168be58dce1f" target="_top" xlink:title="Signal that send the pulse of the timer.">
<polygon fill="white" stroke="#666666" points="333.5,-19 244.5,-19 244.5,0 333.5,0 333.5,-19"/>
<text text-anchor="middle" x="289" y="-7" font-family="Helvetica,sans-Serif" font-size="10.00">Timer::timeout</text>
</a>
</g>
</g>
<!-- Node1&#45;&gt;Node7 -->
<g id="edge6_Node000001_Node000007" class="edge">
<title>Node1&#45;&gt;Node7</title>
<g id="a_edge6_Node000001_Node000007"><a xlink:title=" ">
<path fill="none" stroke="#63b8ff" d="M107.49,-63.92C131.18,-54.08 169.73,-38.8 204,-28.5 213.67,-25.59 224.07,-22.9 234.16,-20.51"/>
<polygon fill="#63b8ff" stroke="#63b8ff" points="235.14,-23.87 244.1,-18.22 233.57,-17.05 235.14,-23.87"/>
</a>
</g>
</g>
<!-- Node3 -->
<g id="Node000003" class="node">
<title>Node3</title>
<g id="a_Node000003"><a xlink:href="classPlotViewModel.html#aad9e6d7cb039bad3252242d1003f0946" target="_top" xlink:title=" ">
<polygon fill="white" stroke="#666666" points="570,-153.5 410,-153.5 410,-123.5 570,-123.5 570,-153.5"/>
<text text-anchor="start" x="418" y="-141.5" font-family="Helvetica,sans-Serif" font-size="10.00">PlotViewModel::curvesValues</text>
<text text-anchor="middle" x="490" y="-130.5" font-family="Helvetica,sans-Serif" font-size="10.00">Changed</text>
</a>
</g>
</g>
<!-- Node2&#45;&gt;Node3 -->
<g id="edge2_Node000002_Node000003" class="edge">
<title>Node2&#45;&gt;Node3</title>
<g id="a_edge2_Node000002_Node000003"><a xlink:title=" ">
<path fill="none" stroke="#63b8ff" d="M371.23,-138.5C380.62,-138.5 390.24,-138.5 399.73,-138.5"/>
<polygon fill="#63b8ff" stroke="#63b8ff" points="399.96,-142 409.96,-138.5 399.96,-135 399.96,-142"/>
</a>
</g>
</g>
<!-- Node5 -->
<g id="Node000005" class="node">
<title>Node5</title>
<g id="a_Node000005"><a xlink:href="classPlotViewModel.html#a28a8ef3da5f027fba87a8edb8fbf4235" target="_top" xlink:title=" ">
<polygon fill="white" stroke="#666666" points="552,-105 428,-105 428,-86 552,-86 552,-105"/>
<text text-anchor="middle" x="490" y="-93" font-family="Helvetica,sans-Serif" font-size="10.00">PlotViewModel::replot</text>
</a>
</g>
</g>
<!-- Node4&#45;&gt;Node5 -->
<g id="edge4_Node000004_Node000005" class="edge">
<title>Node4&#45;&gt;Node5</title>
<g id="a_edge4_Node000004_Node000005"><a xlink:title=" ">
<path fill="none" stroke="#63b8ff" d="M374.11,-95.5C388.62,-95.5 403.58,-95.5 417.71,-95.5"/>
<polygon fill="#63b8ff" stroke="#63b8ff" points="417.83,-99 427.83,-95.5 417.83,-92 417.83,-99"/>
</a>
</g>
</g>
</g>
</svg>
