<?xml version="1.0" encoding="UTF-8" standalone="no"?>
<!DOCTYPE svg PUBLIC "-//W3C//DTD SVG 1.1//EN"
 "http://www.w3.org/Graphics/SVG/1.1/DTD/svg11.dtd">
<!-- Generated by graphviz version 2.43.0 (0)
 -->
<!-- Title: MainWindow::MainWindow Pages: 1 -->
<svg width="659pt" height="253pt"
 viewBox="0.00 0.00 659.00 253.00" xmlns="http://www.w3.org/2000/svg" xmlns:xlink="http://www.w3.org/1999/xlink">
<g id="graph0" class="graph" transform="scale(1 1) rotate(0) translate(4 249)">
<title>MainWindow::MainWindow</title>
<!-- Node1 -->
<g id="Node000001" class="node">
<title>Node1</title>
<g id="a_Node000001"><a xlink:title=" ">
<polygon fill="#999999" stroke="#666666" points="148,-150 0,-150 0,-131 148,-131 148,-150"/>
<text text-anchor="middle" x="74" y="-138" font-family="Helvetica,sans-Serif" font-size="10.00">MainWindow::MainWindow</text>
</a>
</g>
</g>
<!-- Node2 -->
<g id="Node000002" class="node">
<title>Node2</title>
<g id="a_Node000002"><a xlink:href="FilesMenuFactory_8cpp.html#ac6ee6c728cdd1a759926949e367596b4" target="_top" xlink:title=" ">
<polygon fill="white" stroke="#666666" points="446,-245 358,-245 358,-226 446,-226 446,-245"/>
<text text-anchor="middle" x="402" y="-233" font-family="Helvetica,sans-Serif" font-size="10.00">makeFileMenu</text>
</a>
</g>
</g>
<!-- Node1&#45;&gt;Node2 -->
<g id="edge1_Node000001_Node000002" class="edge">
<title>Node1&#45;&gt;Node2</title>
<g id="a_edge1_Node000001_Node000002"><a xlink:title=" ">
<path fill="none" stroke="#63b8ff" d="M89.48,-150.16C109.73,-163.21 148.09,-186.24 184,-198.5 238.02,-216.94 302.88,-226.46 347.53,-231.19"/>
<polygon fill="#63b8ff" stroke="#63b8ff" points="347.28,-234.68 357.59,-232.21 347.99,-227.72 347.28,-234.68"/>
</a>
</g>
</g>
<!-- Node4 -->
<g id="Node000004" class="node">
<title>Node4</title>
<g id="a_Node000004"><a xlink:href="GraphicTabFactory_8cpp.html#a413ec40d77621241794c116daff86ad6" target="_top" xlink:title=" ">
<polygon fill="white" stroke="#666666" points="451,-208 353,-208 353,-189 451,-189 451,-208"/>
<text text-anchor="middle" x="402" y="-196" font-family="Helvetica,sans-Serif" font-size="10.00">makeGraphicTab</text>
</a>
</g>
</g>
<!-- Node1&#45;&gt;Node4 -->
<g id="edge3_Node000001_Node000004" class="edge">
<title>Node1&#45;&gt;Node4</title>
<g id="a_edge3_Node000001_Node000004"><a xlink:title=" ">
<path fill="none" stroke="#63b8ff" d="M97.5,-150.16C119.22,-159.05 153.25,-171.83 184,-178.5 236.88,-189.98 298.41,-194.87 342.42,-196.96"/>
<polygon fill="#63b8ff" stroke="#63b8ff" points="342.51,-200.46 352.65,-197.41 342.82,-193.47 342.51,-200.46"/>
</a>
</g>
</g>
<!-- Node5 -->
<g id="Node000005" class="node">
<title>Node5</title>
<g id="a_Node000005"><a xlink:href="OverlayFactory_8cpp.html#a3ca844a1b8cf3620e36851dd87b154ed" target="_top" xlink:title=" ">
<polygon fill="white" stroke="#666666" points="272.5,-169 190.5,-169 190.5,-150 272.5,-150 272.5,-169"/>
<text text-anchor="middle" x="231.5" y="-157" font-family="Helvetica,sans-Serif" font-size="10.00">makeOverlay</text>
</a>
</g>
</g>
<!-- Node1&#45;&gt;Node5 -->
<g id="edge5_Node000001_Node000005" class="edge">
<title>Node1&#45;&gt;Node5</title>
<g id="a_edge5_Node000001_Node000005"><a xlink:title=" ">
<path fill="none" stroke="#63b8ff" d="M148.2,-149.44C159.07,-150.77 170.06,-152.11 180.31,-153.37"/>
<polygon fill="#63b8ff" stroke="#63b8ff" points="179.94,-156.85 190.29,-154.59 180.79,-149.9 179.94,-156.85"/>
</a>
</g>
</g>
<!-- Node6 -->
<g id="Node000006" class="node">
<title>Node6</title>
<g id="a_Node000006"><a xlink:href="PidTabFactory_8cpp.html#a0786b8afab88f3413b720e1edfab985c" target="_top" xlink:title=" ">
<polygon fill="white" stroke="#666666" points="269,-132 194,-132 194,-113 269,-113 269,-132"/>
<text text-anchor="middle" x="231.5" y="-120" font-family="Helvetica,sans-Serif" font-size="10.00">makePidTab</text>
</a>
</g>
</g>
<!-- Node1&#45;&gt;Node6 -->
<g id="edge7_Node000001_Node000006" class="edge">
<title>Node1&#45;&gt;Node6</title>
<g id="a_edge7_Node000001_Node000006"><a xlink:title=" ">
<path fill="none" stroke="#63b8ff" d="M148.2,-132.03C160.26,-130.63 172.47,-129.22 183.66,-127.92"/>
<polygon fill="#63b8ff" stroke="#63b8ff" points="184.08,-131.4 193.61,-126.77 183.28,-124.44 184.08,-131.4"/>
</a>
</g>
</g>
<!-- Node7 -->
<g id="Node000007" class="node">
<title>Node7</title>
<g id="a_Node000007"><a xlink:href="TestTabFactory_8cpp.html#af93292430ddd132525a606042ffdd4a9" target="_top" xlink:title=" ">
<polygon fill="white" stroke="#666666" points="271.5,-94 191.5,-94 191.5,-75 271.5,-75 271.5,-94"/>
<text text-anchor="middle" x="231.5" y="-82" font-family="Helvetica,sans-Serif" font-size="10.00">makeTestTab</text>
</a>
</g>
</g>
<!-- Node1&#45;&gt;Node7 -->
<g id="edge9_Node000001_Node000007" class="edge">
<title>Node1&#45;&gt;Node7</title>
<g id="a_edge9_Node000001_Node000007"><a xlink:title=" ">
<path fill="none" stroke="#63b8ff" d="M101.73,-130.87C127.36,-121.64 166.24,-107.64 194.58,-97.44"/>
<polygon fill="#63b8ff" stroke="#63b8ff" points="195.89,-100.68 204.12,-94 193.52,-94.1 195.89,-100.68"/>
</a>
</g>
</g>
<!-- Node9 -->
<g id="Node000009" class="node">
<title>Node9</title>
<g id="a_Node000009"><a xlink:href="ToolsMenuFactory_8cpp.html#aa473d13ba6439e110d4c304c3c992276" target="_top" xlink:title=" ">
<polygon fill="white" stroke="#666666" points="279,-38 184,-38 184,-19 279,-19 279,-38"/>
<text text-anchor="middle" x="231.5" y="-26" font-family="Helvetica,sans-Serif" font-size="10.00">makeToolsMenu</text>
</a>
</g>
</g>
<!-- Node1&#45;&gt;Node9 -->
<g id="edge13_Node000001_Node000009" class="edge">
<title>Node1&#45;&gt;Node9</title>
<g id="a_edge13_Node000001_Node000009"><a xlink:title=" ">
<path fill="none" stroke="#63b8ff" d="M88.26,-130.95C115.11,-111.61 176.15,-67.65 208.85,-44.09"/>
<polygon fill="#63b8ff" stroke="#63b8ff" points="211.21,-46.71 217.28,-38.02 207.12,-41.03 211.21,-46.71"/>
</a>
</g>
</g>
<!-- Node3 -->
<g id="Node000003" class="node">
<title>Node3</title>
<g id="a_Node000003"><a xlink:href="classAppViewModel.html#accb3d3a0f4d4c93741dd4d72b319d748" target="_top" xlink:title=" ">
<polygon fill="white" stroke="#666666" points="651,-132 525,-132 525,-113 651,-113 651,-132"/>
<text text-anchor="middle" x="588" y="-120" font-family="Helvetica,sans-Serif" font-size="10.00">AppViewModel::create</text>
</a>
</g>
</g>
<!-- Node2&#45;&gt;Node3 -->
<g id="edge2_Node000002_Node000003" class="edge">
<title>Node2&#45;&gt;Node3</title>
<g id="a_edge2_Node000002_Node000003"><a xlink:title=" ">
<path fill="none" stroke="#63b8ff" d="M446.19,-231.32C460.42,-228.7 475.93,-224.44 489,-217.5 525.05,-198.36 556.96,-161.96 573.98,-140.2"/>
<polygon fill="#63b8ff" stroke="#63b8ff" points="576.86,-142.2 580.13,-132.12 571.29,-137.95 576.86,-142.2"/>
</a>
</g>
</g>
<!-- Node4&#45;&gt;Node3 -->
<g id="edge4_Node000004_Node000003" class="edge">
<title>Node4&#45;&gt;Node3</title>
<g id="a_edge4_Node000004_Node000003"><a xlink:title=" ">
<path fill="none" stroke="#63b8ff" d="M444.28,-188.91C458.66,-185.07 474.75,-180.19 489,-174.5 515.13,-164.06 543.35,-148.6 562.77,-137.25"/>
<polygon fill="#63b8ff" stroke="#63b8ff" points="564.73,-140.16 571.55,-132.05 561.16,-134.14 564.73,-140.16"/>
</a>
</g>
</g>
<!-- Node5&#45;&gt;Node3 -->
<g id="edge6_Node000005_Node000003" class="edge">
<title>Node5&#45;&gt;Node3</title>
<g id="a_edge6_Node000005_Node000003"><a xlink:title=" ">
<path fill="none" stroke="#63b8ff" d="M272.55,-156.56C323.08,-152.71 412.61,-145.37 489,-136.5 497.34,-135.53 506.07,-134.42 514.74,-133.26"/>
<polygon fill="#63b8ff" stroke="#63b8ff" points="515.42,-136.7 524.85,-131.88 514.47,-129.76 515.42,-136.7"/>
</a>
</g>
</g>
<!-- Node6&#45;&gt;Node3 -->
<g id="edge8_Node000006_Node000003" class="edge">
<title>Node6&#45;&gt;Node3</title>
<g id="a_edge8_Node000006_Node000003"><a xlink:title=" ">
<path fill="none" stroke="#63b8ff" d="M269.1,-122.5C326.8,-122.5 439.99,-122.5 514.56,-122.5"/>
<polygon fill="#63b8ff" stroke="#63b8ff" points="514.82,-126 524.82,-122.5 514.82,-119 514.82,-126"/>
</a>
</g>
</g>
<!-- Node7&#45;&gt;Node3 -->
<g id="edge10_Node000007_Node000003" class="edge">
<title>Node7&#45;&gt;Node3</title>
<g id="a_edge10_Node000007_Node000003"><a xlink:title=" ">
<path fill="none" stroke="#63b8ff" d="M271.79,-88.71C330.33,-94.99 441.41,-106.89 514.83,-114.76"/>
<polygon fill="#63b8ff" stroke="#63b8ff" points="514.62,-118.26 524.93,-115.85 515.36,-111.3 514.62,-118.26"/>
</a>
</g>
</g>
<!-- Node8 -->
<g id="Node000008" class="node">
<title>Node8</title>
<g id="a_Node000008"><a xlink:href="TankPressureControlerFrameFactory_8cpp.html#a7dfd416596b7d62fee0cee4dfdaabd78" target="_top" xlink:title=" ">
<polygon fill="white" stroke="#666666" points="489,-56 315,-56 315,-37 489,-37 489,-56"/>
<text text-anchor="middle" x="402" y="-44" font-family="Helvetica,sans-Serif" font-size="10.00">makeTankPressureControlFrame</text>
</a>
</g>
</g>
<!-- Node7&#45;&gt;Node8 -->
<g id="edge11_Node000007_Node000008" class="edge">
<title>Node7&#45;&gt;Node8</title>
<g id="a_edge11_Node000007_Node000008"><a xlink:title=" ">
<path fill="none" stroke="#63b8ff" d="M271.58,-75.69C294.48,-70.52 323.7,-63.93 348.58,-58.32"/>
<polygon fill="#63b8ff" stroke="#63b8ff" points="349.6,-61.68 358.59,-56.06 348.06,-54.85 349.6,-61.68"/>
</a>
</g>
</g>
<!-- Node8&#45;&gt;Node3 -->
<g id="edge12_Node000008_Node000003" class="edge">
<title>Node8&#45;&gt;Node3</title>
<g id="a_edge12_Node000008_Node000003"><a xlink:title=" ">
<path fill="none" stroke="#63b8ff" d="M444.28,-56.09C458.66,-59.93 474.75,-64.81 489,-70.5 515.13,-80.94 543.35,-96.4 562.77,-107.75"/>
<polygon fill="#63b8ff" stroke="#63b8ff" points="561.16,-110.86 571.55,-112.95 564.73,-104.84 561.16,-110.86"/>
</a>
</g>
</g>
<!-- Node10 -->
<g id="Node000010" class="node">
<title>Node10</title>
<g id="a_Node000010"><a xlink:href="ParametersWindowFactory_8cpp.html#ac014b3b990f0c9178e75fbdbe44f88ba" target="_top" xlink:title=" ">
<polygon fill="white" stroke="#666666" points="471,-19 333,-19 333,0 471,0 471,-19"/>
<text text-anchor="middle" x="402" y="-7" font-family="Helvetica,sans-Serif" font-size="10.00">makeParametersWindow</text>
</a>
</g>
</g>
<!-- Node9&#45;&gt;Node10 -->
<g id="edge14_Node000009_Node000010" class="edge">
<title>Node9&#45;&gt;Node10</title>
<g id="a_edge14_Node000009_Node000010"><a xlink:title=" ">
<path fill="none" stroke="#63b8ff" d="M279.44,-23.21C292.89,-21.69 307.93,-19.99 322.72,-18.33"/>
<polygon fill="#63b8ff" stroke="#63b8ff" points="323.36,-21.78 332.9,-17.18 322.57,-14.82 323.36,-21.78"/>
</a>
</g>
</g>
<!-- Node10&#45;&gt;Node3 -->
<g id="edge15_Node000010_Node000003" class="edge">
<title>Node10&#45;&gt;Node3</title>
<g id="a_edge15_Node000010_Node000003"><a xlink:title=" ">
<path fill="none" stroke="#63b8ff" d="M468.26,-19.04C475.47,-21.29 482.53,-24.07 489,-27.5 525.05,-46.64 556.96,-83.04 573.98,-104.8"/>
<polygon fill="#63b8ff" stroke="#63b8ff" points="571.29,-107.05 580.13,-112.88 576.86,-102.8 571.29,-107.05"/>
</a>
</g>
</g>
</g>
</svg>
