<?xml version="1.0" encoding="UTF-8" standalone="no"?>
<!DOCTYPE svg PUBLIC "-//W3C//DTD SVG 1.1//EN"
 "http://www.w3.org/Graphics/SVG/1.1/DTD/svg11.dtd">
<!-- Generated by graphviz version 2.43.0 (0)
 -->
<!-- Title: UdpChannel::setRemotePort Pages: 1 -->
<svg width="556pt" height="76pt"
 viewBox="0.00 0.00 556.00 75.50" xmlns="http://www.w3.org/2000/svg" xmlns:xlink="http://www.w3.org/1999/xlink">
<g id="graph0" class="graph" transform="scale(1 1) rotate(0) translate(4 71.5)">
<title>UdpChannel::setRemotePort</title>
<!-- Node1 -->
<g id="Node000001" class="node">
<title>Node1</title>
<g id="a_Node000001"><a xlink:title=" ">
<polygon fill="#999999" stroke="#666666" points="548,-40 393,-40 393,-21 548,-21 548,-40"/>
<text text-anchor="middle" x="470.5" y="-28" font-family="Helvetica,sans-Serif" font-size="10.00">UdpChannel::setRemotePort</text>
</a>
</g>
</g>
<!-- Node2 -->
<g id="Node000002" class="node">
<title>Node2</title>
<g id="a_Node000002"><a xlink:href="classUdpChannelParametersViewModel.html#af74d2aa09f73fc1ce13dca3469848fa8" target="_top" xlink:title=" ">
<polygon fill="white" stroke="#666666" points="357,-67.5 202,-67.5 202,-37.5 357,-37.5 357,-67.5"/>
<text text-anchor="start" x="210" y="-55.5" font-family="Helvetica,sans-Serif" font-size="10.00">UdpChannelParametersView</text>
<text text-anchor="middle" x="279.5" y="-44.5" font-family="Helvetica,sans-Serif" font-size="10.00">Model::restartEndpoint</text>
</a>
</g>
</g>
<!-- Node1&#45;&gt;Node2 -->
<g id="edge1_Node000001_Node000002" class="edge">
<title>Node1&#45;&gt;Node2</title>
<g id="a_edge1_Node000001_Node000002"><a xlink:title=" ">
<path fill="none" stroke="#63b8ff" d="M382.9,-40.58C374.33,-41.58 365.67,-42.59 357.21,-43.57"/>
<polygon fill="#63b8ff" stroke="#63b8ff" points="383.37,-44.05 392.9,-39.42 382.56,-37.1 383.37,-44.05"/>
</a>
</g>
</g>
<!-- Node4 -->
<g id="Node000004" class="node">
<title>Node4</title>
<g id="a_Node000004"><a xlink:href="classUdpChannel.html#a1d69213eb88b5305686f1ef9ade76e04" target="_top" xlink:title=" ">
<polygon fill="white" stroke="#666666" points="350,-19 209,-19 209,0 350,0 350,-19"/>
<text text-anchor="middle" x="279.5" y="-7" font-family="Helvetica,sans-Serif" font-size="10.00">UdpChannel::UdpChannel</text>
</a>
</g>
</g>
<!-- Node1&#45;&gt;Node4 -->
<g id="edge3_Node000001_Node000004" class="edge">
<title>Node1&#45;&gt;Node4</title>
<g id="a_edge3_Node000001_Node000004"><a xlink:title=" ">
<path fill="none" stroke="#63b8ff" d="M382.9,-20.88C371.94,-19.66 360.85,-18.43 350.2,-17.24"/>
<polygon fill="#63b8ff" stroke="#63b8ff" points="382.57,-24.36 392.9,-21.99 383.35,-17.41 382.57,-24.36"/>
</a>
</g>
</g>
<!-- Node3 -->
<g id="Node000003" class="node">
<title>Node3</title>
<g id="a_Node000003"><a xlink:href="classUdpChannelParametersWidget.html#aef0927083aea2b20033b42465cb2b42f" target="_top" xlink:title=" ">
<polygon fill="white" stroke="#666666" points="166,-67.5 0,-67.5 0,-37.5 166,-37.5 166,-67.5"/>
<text text-anchor="start" x="8" y="-55.5" font-family="Helvetica,sans-Serif" font-size="10.00">UdpChannelParametersWidget</text>
<text text-anchor="middle" x="83" y="-44.5" font-family="Helvetica,sans-Serif" font-size="10.00">::applyParameters</text>
</a>
</g>
</g>
<!-- Node2&#45;&gt;Node3 -->
<g id="edge2_Node000002_Node000003" class="edge">
<title>Node2&#45;&gt;Node3</title>
<g id="a_edge2_Node000002_Node000003"><a xlink:title=" ">
<path fill="none" stroke="#63b8ff" d="M191.68,-52.5C183.24,-52.5 174.69,-52.5 166.29,-52.5"/>
<polygon fill="#63b8ff" stroke="#63b8ff" points="191.91,-56 201.91,-52.5 191.91,-49 191.91,-56"/>
</a>
</g>
</g>
</g>
</svg>
