<?xml version="1.0" encoding="UTF-8" standalone="no"?>
<!DOCTYPE svg PUBLIC "-//W3C//DTD SVG 1.1//EN"
 "http://www.w3.org/Graphics/SVG/1.1/DTD/svg11.dtd">
<!-- Generated by graphviz version 2.43.0 (0)
 -->
<!-- Title: PidTab Pages: 1 -->
<svg width="134pt" height="172pt"
 viewBox="0.00 0.00 134.00 172.00" xmlns="http://www.w3.org/2000/svg" xmlns:xlink="http://www.w3.org/1999/xlink">
<g id="graph0" class="graph" transform="scale(1 1) rotate(0) translate(4 168)">
<title>PidTab</title>
<!-- Node1 -->
<g id="Node000001" class="node">
<title>Node1</title>
<g id="a_Node000001"><a xlink:title=" ">
<polygon fill="#999999" stroke="transparent" points="126,-79 0,-79 0,0 126,0 126,-79"/>
<text text-anchor="start" x="47" y="-66.5" font-family="Helvetica,sans-Serif" font-size="10.00">PidTab</text>
<text text-anchor="start" x="6.5" y="-51.5" font-family="Helvetica,sans-Serif" font-size="10.00">&#45;</text>
<text text-anchor="start" x="17" y="-51.5" font-family="Helvetica,sans-Serif" font-size="10.00">m_vm</text>
<text text-anchor="start" x="6.5" y="-36.5" font-family="Helvetica,sans-Serif" font-size="10.00">&#45;</text>
<text text-anchor="start" x="17" y="-36.5" font-family="Helvetica,sans-Serif" font-size="10.00">m_locker</text>
<text text-anchor="start" x="4" y="-21.5" font-family="Helvetica,sans-Serif" font-size="10.00">+</text>
<text text-anchor="start" x="17" y="-21.5" font-family="Helvetica,sans-Serif" font-size="10.00">PidTab()</text>
<text text-anchor="start" x="4" y="-6.5" font-family="Helvetica,sans-Serif" font-size="10.00">+</text>
<text text-anchor="start" x="17" y="-6.5" font-family="Helvetica,sans-Serif" font-size="10.00">onPIDStateChanged()</text>
<polygon fill="#666666" stroke="#666666" points="0,-61.5 0,-61.5 126,-61.5 126,-61.5 0,-61.5"/>
<polygon fill="#666666" stroke="#666666" points="0,-31.5 0,-31.5 15,-31.5 15,-31.5 0,-31.5"/>
<polygon fill="#666666" stroke="#666666" points="15,-31.5 15,-31.5 126,-31.5 126,-31.5 15,-31.5"/>
<polygon fill="none" stroke="#666666" points="0,0 0,-79 126,-79 126,0 0,0"/>
</a>
</g>
</g>
<!-- Node2 -->
<g id="Node000002" class="node">
<title>Node2</title>
<g id="a_Node000002"><a xlink:title=" ">
<polygon fill="white" stroke="transparent" points="89.5,-164 36.5,-164 36.5,-115 89.5,-115 89.5,-164"/>
<text text-anchor="start" x="42" y="-151.5" font-family="Helvetica,sans-Serif" font-size="10.00">QWidget</text>
<text text-anchor="start" x="61.5" y="-136.5" font-family="Helvetica,sans-Serif" font-size="10.00"> </text>
<text text-anchor="start" x="61.5" y="-121.5" font-family="Helvetica,sans-Serif" font-size="10.00"> </text>
<polygon fill="#666666" stroke="#666666" points="37,-146.5 37,-146.5 90,-146.5 90,-146.5 37,-146.5"/>
<polygon fill="#666666" stroke="#666666" points="37,-131.5 37,-131.5 90,-131.5 90,-131.5 37,-131.5"/>
<polygon fill="none" stroke="#666666" points="36.5,-115 36.5,-164 89.5,-164 89.5,-115 36.5,-115"/>
</a>
</g>
</g>
<!-- Node2&#45;&gt;Node1 -->
<g id="edge1_Node000001_Node000002" class="edge">
<title>Node2&#45;&gt;Node1</title>
<g id="a_edge1_Node000001_Node000002"><a xlink:title=" ">
<path fill="none" stroke="#63b8ff" d="M63,-104.52C63,-96.38 63,-87.63 63,-79.29"/>
<polygon fill="none" stroke="#63b8ff" points="59.5,-104.78 63,-114.78 66.5,-104.78 59.5,-104.78"/>
</a>
</g>
</g>
</g>
</svg>
