<?xml version="1.0" encoding="UTF-8" standalone="no"?>
<!DOCTYPE svg PUBLIC "-//W3C//DTD SVG 1.1//EN"
 "http://www.w3.org/Graphics/SVG/1.1/DTD/svg11.dtd">
<!-- Generated by graphviz version 2.43.0 (0)
 -->
<!-- Title: Plot::Plot Pages: 1 -->
<svg width="1045pt" height="678pt"
 viewBox="0.00 0.00 1045.00 678.46" xmlns="http://www.w3.org/2000/svg" xmlns:xlink="http://www.w3.org/1999/xlink">
<g id="graph0" class="graph" transform="scale(1 1) rotate(0) translate(4 674.46)">
<title>Plot::Plot</title>
<!-- Node1 -->
<g id="Node000001" class="node">
<title>Node1</title>
<g id="a_Node000001"><a xlink:title=" ">
<polygon fill="#999999" stroke="#666666" points="60,-329 0,-329 0,-310 60,-310 60,-329"/>
<text text-anchor="middle" x="30" y="-317" font-family="Helvetica,sans-Serif" font-size="10.00">Plot::Plot</text>
</a>
</g>
</g>
<!-- Node2 -->
<g id="Node000002" class="node">
<title>Node2</title>
<g id="a_Node000002"><a xlink:href="classPlotViewModel.html#aa31b895b554130ab4ab47cb7b83806c0" target="_top" xlink:title=" ">
<polygon fill="white" stroke="#666666" points="478,-650.5 295,-650.5 295,-620.5 478,-620.5 478,-650.5"/>
<text text-anchor="start" x="303" y="-638.5" font-family="Helvetica,sans-Serif" font-size="10.00">PlotViewModel::curvesParameters</text>
<text text-anchor="middle" x="386.5" y="-627.5" font-family="Helvetica,sans-Serif" font-size="10.00">Changed</text>
</a>
</g>
</g>
<!-- Node1&#45;&gt;Node2 -->
<g id="edge1_Node000001_Node000002" class="edge">
<title>Node1&#45;&gt;Node2</title>
<g id="a_edge1_Node000001_Node000002"><a xlink:title=" ">
<path fill="none" stroke="#63b8ff" d="M31.43,-329.13C33.82,-377.53 47.14,-593.44 96,-633.5 162.04,-687.65 267.94,-670.8 331.71,-653.34"/>
<polygon fill="#63b8ff" stroke="#63b8ff" points="332.9,-656.64 341.56,-650.55 330.99,-649.91 332.9,-656.64"/>
</a>
</g>
</g>
<!-- Node3 -->
<g id="Node000003" class="node">
<title>Node3</title>
<g id="a_Node000003"><a xlink:href="classPlotViewModel.html#aad9e6d7cb039bad3252242d1003f0946" target="_top" xlink:title=" ">
<polygon fill="white" stroke="#666666" points="257.5,-425.5 97.5,-425.5 97.5,-395.5 257.5,-395.5 257.5,-425.5"/>
<text text-anchor="start" x="105.5" y="-413.5" font-family="Helvetica,sans-Serif" font-size="10.00">PlotViewModel::curvesValues</text>
<text text-anchor="middle" x="177.5" y="-402.5" font-family="Helvetica,sans-Serif" font-size="10.00">Changed</text>
</a>
</g>
</g>
<!-- Node1&#45;&gt;Node3 -->
<g id="edge2_Node000001_Node000003" class="edge">
<title>Node1&#45;&gt;Node3</title>
<g id="a_edge2_Node000001_Node000003"><a xlink:title=" ">
<path fill="none" stroke="#63b8ff" d="M37.83,-329.22C48.57,-343.79 70.78,-371.21 96,-386.5 98.81,-388.2 101.74,-389.79 104.76,-391.27"/>
<polygon fill="#63b8ff" stroke="#63b8ff" points="103.46,-394.53 114.02,-395.4 106.31,-388.13 103.46,-394.53"/>
</a>
</g>
</g>
<!-- Node4 -->
<g id="Node000004" class="node">
<title>Node4</title>
<g id="a_Node000004"><a xlink:href="classPlotViewModel.html#a5842c23b03eb12fe9e5f80e25a6cf923" target="_top" xlink:title=" ">
<polygon fill="white" stroke="#666666" points="246,-538 109,-538 109,-519 246,-519 246,-538"/>
<text text-anchor="middle" x="177.5" y="-526" font-family="Helvetica,sans-Serif" font-size="10.00">PlotViewModel::initialise</text>
</a>
</g>
</g>
<!-- Node1&#45;&gt;Node4 -->
<g id="edge3_Node000001_Node000004" class="edge">
<title>Node1&#45;&gt;Node4</title>
<g id="a_edge3_Node000001_Node000004"><a xlink:title=" ">
<path fill="none" stroke="#63b8ff" d="M31.17,-329.19C32.27,-360.6 40.21,-460.44 96,-510.5 97.32,-511.68 98.7,-512.79 100.13,-513.84"/>
<polygon fill="#63b8ff" stroke="#63b8ff" points="98.46,-516.92 108.83,-519.1 102.08,-510.93 98.46,-516.92"/>
</a>
</g>
</g>
<!-- Node5 -->
<g id="Node000005" class="node">
<title>Node5</title>
<g id="a_Node000005"><a xlink:href="classPlotViewModel.html#a944dc27c4a8ce9dcd40ac5d4f804078b" target="_top" xlink:title=" ">
<polygon fill="white" stroke="#666666" points="467.5,-586.5 305.5,-586.5 305.5,-556.5 467.5,-556.5 467.5,-586.5"/>
<text text-anchor="start" x="313.5" y="-574.5" font-family="Helvetica,sans-Serif" font-size="10.00">PlotViewModel::SelectedTime</text>
<text text-anchor="middle" x="386.5" y="-563.5" font-family="Helvetica,sans-Serif" font-size="10.00">RangeChanged</text>
</a>
</g>
</g>
<!-- Node1&#45;&gt;Node5 -->
<g id="edge36_Node000001_Node000005" class="edge">
<title>Node1&#45;&gt;Node5</title>
<g id="a_edge36_Node000001_Node000005"><a xlink:title=" ">
<path fill="none" stroke="#63b8ff" d="M32.3,-329.23C37.85,-369.01 60.78,-518.56 96,-547.5 125.54,-571.77 221.64,-575.71 295.09,-574.89"/>
<polygon fill="#63b8ff" stroke="#63b8ff" points="295.35,-578.39 305.3,-574.74 295.25,-571.39 295.35,-578.39"/>
</a>
</g>
</g>
<!-- Node7 -->
<g id="Node000007" class="node">
<title>Node7</title>
<g id="a_Node000007"><a xlink:href="classPlotViewModel.html#a826d6441b253e1cc9078821daf10a70d" target="_top" xlink:title=" ">
<polygon fill="white" stroke="#666666" points="467,-500.5 306,-500.5 306,-470.5 467,-470.5 467,-500.5"/>
<text text-anchor="start" x="314" y="-488.5" font-family="Helvetica,sans-Serif" font-size="10.00">PlotViewModel::visibleCurves</text>
<text text-anchor="middle" x="386.5" y="-477.5" font-family="Helvetica,sans-Serif" font-size="10.00">Changed</text>
</a>
</g>
</g>
<!-- Node1&#45;&gt;Node7 -->
<g id="edge42_Node000001_Node000007" class="edge">
<title>Node1&#45;&gt;Node7</title>
<g id="a_edge42_Node000001_Node000007"><a xlink:title=" ">
<path fill="none" stroke="#63b8ff" d="M33.41,-329.12C39.57,-351.62 58.17,-407.76 96,-434.5 112.31,-446.03 216.94,-462.53 295.77,-473.61"/>
<polygon fill="#63b8ff" stroke="#63b8ff" points="295.34,-477.09 305.73,-475 296.31,-470.15 295.34,-477.09"/>
</a>
</g>
</g>
<!-- Node8 -->
<g id="Node000008" class="node">
<title>Node8</title>
<g id="a_Node000008"><a xlink:href="classPlot.html#a30f70ec6f1e36cefae1315fc4de3f46d" target="_top" xlink:title=" ">
<polygon fill="white" stroke="#666666" points="428,-365 345,-365 345,-346 428,-346 428,-365"/>
<text text-anchor="middle" x="386.5" y="-353" font-family="Helvetica,sans-Serif" font-size="10.00">Plot::isVisible</text>
</a>
</g>
</g>
<!-- Node1&#45;&gt;Node8 -->
<g id="edge8_Node000001_Node000008" class="edge">
<title>Node1&#45;&gt;Node8</title>
<g id="a_edge8_Node000001_Node000008"><a xlink:title=" ">
<path fill="none" stroke="#63b8ff" d="M60.2,-321.46C103.61,-324.48 187.72,-330.75 259,-338.5 284.04,-341.22 311.79,-344.88 334.9,-348.11"/>
<polygon fill="#63b8ff" stroke="#63b8ff" points="334.44,-351.58 344.83,-349.5 335.42,-344.64 334.44,-351.58"/>
</a>
</g>
</g>
<!-- Node9 -->
<g id="Node000009" class="node">
<title>Node9</title>
<g id="a_Node000009"><a xlink:href="classPlotViewModel.html#aba3d8f510c687798dc186f460183a4de" target="_top" xlink:title=" ">
<polygon fill="white" stroke="#666666" points="246,-501 109,-501 109,-482 246,-482 246,-501"/>
<text text-anchor="middle" x="177.5" y="-489" font-family="Helvetica,sans-Serif" font-size="10.00">PlotViewModel::isVisible</text>
</a>
</g>
</g>
<!-- Node1&#45;&gt;Node9 -->
<g id="edge9_Node000001_Node000009" class="edge">
<title>Node1&#45;&gt;Node9</title>
<g id="a_edge9_Node000001_Node000009"><a xlink:title=" ">
<path fill="none" stroke="#63b8ff" d="M32.38,-329.08C36.68,-355.31 52.25,-428.86 96,-467.5 100.73,-471.68 106.17,-475.13 111.94,-477.99"/>
<polygon fill="#63b8ff" stroke="#63b8ff" points="110.65,-481.24 121.22,-481.99 113.42,-474.81 110.65,-481.24"/>
</a>
</g>
</g>
<!-- Node10 -->
<g id="Node000010" class="node">
<title>Node10</title>
<g id="a_Node000010"><a xlink:href="classPlot.html#adedd221334385b32009b2cc40bf0c593" target="_top" xlink:title=" ">
<polygon fill="white" stroke="#666666" points="249,-377.5 106,-377.5 106,-347.5 249,-347.5 249,-377.5"/>
<text text-anchor="start" x="114" y="-365.5" font-family="Helvetica,sans-Serif" font-size="10.00">Plot::onCurvesParameters</text>
<text text-anchor="middle" x="177.5" y="-354.5" font-family="Helvetica,sans-Serif" font-size="10.00">Changed</text>
</a>
</g>
</g>
<!-- Node1&#45;&gt;Node10 -->
<g id="edge11_Node000001_Node000010" class="edge">
<title>Node1&#45;&gt;Node10</title>
<g id="a_edge11_Node000001_Node000010"><a xlink:title=" ">
<path fill="none" stroke="#63b8ff" d="M60.09,-328.1C76.13,-332.84 96.65,-338.9 115.99,-344.62"/>
<polygon fill="#63b8ff" stroke="#63b8ff" points="115.08,-348 125.66,-347.47 117.06,-341.28 115.08,-348"/>
</a>
</g>
</g>
<!-- Node12 -->
<g id="Node000012" class="node">
<title>Node12</title>
<g id="a_Node000012"><a xlink:href="classPlot.html#a74f12fae74e90c87c72cab9f0d2da28d" target="_top" xlink:title=" ">
<polygon fill="white" stroke="#666666" points="258.5,-254 96.5,-254 96.5,-235 258.5,-235 258.5,-254"/>
<text text-anchor="middle" x="177.5" y="-242" font-family="Helvetica,sans-Serif" font-size="10.00">Plot::onCurvesValuesChanged</text>
</a>
</g>
</g>
<!-- Node1&#45;&gt;Node12 -->
<g id="edge14_Node000001_Node000012" class="edge">
<title>Node1&#45;&gt;Node12</title>
<g id="a_edge14_Node000001_Node000012"><a xlink:title=" ">
<path fill="none" stroke="#63b8ff" d="M39.18,-309.78C50.56,-296.92 72.45,-274.46 96,-262.5 99.81,-260.57 103.82,-258.84 107.94,-257.3"/>
<polygon fill="#63b8ff" stroke="#63b8ff" points="109.32,-260.52 117.69,-254.02 107.09,-253.89 109.32,-260.52"/>
</a>
</g>
</g>
<!-- Node21 -->
<g id="Node000021" class="node">
<title>Node21</title>
<g id="a_Node000021"><a xlink:href="classPlot.html#a5372a35d6baaeea8bcbed9f52b85fd30" target="_top" xlink:title=" ">
<polygon fill="white" stroke="#666666" points="220,-217 135,-217 135,-198 220,-198 220,-217"/>
<text text-anchor="middle" x="177.5" y="-205" font-family="Helvetica,sans-Serif" font-size="10.00">Plot::onReplot</text>
</a>
</g>
</g>
<!-- Node1&#45;&gt;Node21 -->
<g id="edge24_Node000001_Node000021" class="edge">
<title>Node1&#45;&gt;Node21</title>
<g id="a_edge24_Node000001_Node000021"><a xlink:title=" ">
<path fill="none" stroke="#63b8ff" d="M34.85,-309.71C42.99,-290.34 63.91,-247.12 96,-225.5 104.55,-219.74 114.66,-215.79 124.77,-213.1"/>
<polygon fill="#63b8ff" stroke="#63b8ff" points="125.86,-216.44 134.83,-210.8 124.3,-209.62 125.86,-216.44"/>
</a>
</g>
</g>
<!-- Node23 -->
<g id="Node000023" class="node">
<title>Node23</title>
<g id="a_Node000023"><a xlink:href="classPlot.html#ace35a9b43d763b8f6371d2770ade6a24" target="_top" xlink:title=" ">
<polygon fill="white" stroke="#666666" points="253,-179.5 102,-179.5 102,-149.5 253,-149.5 253,-179.5"/>
<text text-anchor="start" x="110" y="-167.5" font-family="Helvetica,sans-Serif" font-size="10.00">Plot::onSelectedTimeRange</text>
<text text-anchor="middle" x="177.5" y="-156.5" font-family="Helvetica,sans-Serif" font-size="10.00">Changed</text>
</a>
</g>
</g>
<!-- Node1&#45;&gt;Node23 -->
<g id="edge27_Node000001_Node000023" class="edge">
<title>Node1&#45;&gt;Node23</title>
<g id="a_edge27_Node000001_Node000023"><a xlink:title=" ">
<path fill="none" stroke="#63b8ff" d="M32.97,-309.97C38.46,-285.86 56.19,-222.03 96,-188.5 97.55,-187.2 99.16,-185.96 100.84,-184.8"/>
<polygon fill="#63b8ff" stroke="#63b8ff" points="102.86,-187.67 109.62,-179.51 99.25,-181.67 102.86,-187.67"/>
</a>
</g>
</g>
<!-- Node24 -->
<g id="Node000024" class="node">
<title>Node24</title>
<g id="a_Node000024"><a xlink:href="classPlotViewModel.html#af89213d56f4226b640f08a7c3a5ae195" target="_top" xlink:title=" ">
<polygon fill="white" stroke="#666666" points="461,-83.5 312,-83.5 312,-53.5 461,-53.5 461,-83.5"/>
<text text-anchor="start" x="320" y="-71.5" font-family="Helvetica,sans-Serif" font-size="10.00">PlotViewModel::timeRange</text>
<text text-anchor="middle" x="386.5" y="-60.5" font-family="Helvetica,sans-Serif" font-size="10.00">Buttons</text>
</a>
</g>
</g>
<!-- Node1&#45;&gt;Node24 -->
<g id="edge40_Node000001_Node000024" class="edge">
<title>Node1&#45;&gt;Node24</title>
<g id="a_edge40_Node000001_Node000024"><a xlink:title=" ">
<path fill="none" stroke="#63b8ff" d="M31.47,-309.59C33.45,-279.3 43.71,-187.17 96,-140.5 151.57,-90.9 186.74,-119.57 259,-101.5 278.5,-96.62 299.65,-91.17 318.97,-86.13"/>
<polygon fill="#63b8ff" stroke="#63b8ff" points="320.1,-89.45 328.89,-83.53 318.33,-82.68 320.1,-89.45"/>
</a>
</g>
</g>
<!-- Node26 -->
<g id="Node000026" class="node">
<title>Node26</title>
<g id="a_Node000026"><a xlink:href="classPlot.html#a4133837d74e922c6004a306db48ffaa6" target="_top" xlink:title=" ">
<polygon fill="white" stroke="#666666" points="259,-291 96,-291 96,-272 259,-272 259,-291"/>
<text text-anchor="middle" x="177.5" y="-279" font-family="Helvetica,sans-Serif" font-size="10.00">Plot::onVisibleCurvesChanged</text>
</a>
</g>
</g>
<!-- Node1&#45;&gt;Node26 -->
<g id="edge32_Node000001_Node000026" class="edge">
<title>Node1&#45;&gt;Node26</title>
<g id="a_edge32_Node000001_Node000026"><a xlink:title=" ">
<path fill="none" stroke="#63b8ff" d="M60.09,-311.9C80.11,-306.68 107.11,-299.62 130.07,-293.63"/>
<polygon fill="#63b8ff" stroke="#63b8ff" points="131.17,-296.96 139.96,-291.04 129.4,-290.18 131.17,-296.96"/>
</a>
</g>
</g>
<!-- Node28 -->
<g id="Node000028" class="node">
<title>Node28</title>
<g id="a_Node000028"><a xlink:href="classPlotViewModel.html#a28a8ef3da5f027fba87a8edb8fbf4235" target="_top" xlink:title=" ">
<polygon fill="white" stroke="#666666" points="239.5,-93 115.5,-93 115.5,-74 239.5,-74 239.5,-93"/>
<text text-anchor="middle" x="177.5" y="-81" font-family="Helvetica,sans-Serif" font-size="10.00">PlotViewModel::replot</text>
</a>
</g>
</g>
<!-- Node1&#45;&gt;Node28 -->
<g id="edge35_Node000001_Node000028" class="edge">
<title>Node1&#45;&gt;Node28</title>
<g id="a_edge35_Node000001_Node000028"><a xlink:title=" ">
<path fill="none" stroke="#63b8ff" d="M30.94,-309.88C31.28,-276.73 36.97,-166.07 96,-107.5 99.95,-103.58 104.5,-100.3 109.4,-97.55"/>
<polygon fill="#63b8ff" stroke="#63b8ff" points="111.04,-100.65 118.53,-93.15 108,-94.34 111.04,-100.65"/>
</a>
</g>
</g>
<!-- Node29 -->
<g id="Node000029" class="node">
<title>Node29</title>
<g id="a_Node000029"><a xlink:href="classPlot.html#a96bd336c48b761e934b5442e7f8c00a9" target="_top" xlink:title=" ">
<polygon fill="white" stroke="#666666" points="240.5,-56 114.5,-56 114.5,-37 240.5,-37 240.5,-56"/>
<text text-anchor="middle" x="177.5" y="-44" font-family="Helvetica,sans-Serif" font-size="10.00">Plot::selectTimeRange</text>
</a>
</g>
</g>
<!-- Node1&#45;&gt;Node29 -->
<g id="edge37_Node000001_Node000029" class="edge">
<title>Node1&#45;&gt;Node29</title>
<g id="a_edge37_Node000001_Node000029"><a xlink:title=" ">
<path fill="none" stroke="#63b8ff" d="M32.11,-309.93C37.16,-267.89 59.37,-100.06 96,-64.5 98.78,-61.8 101.88,-59.47 105.19,-57.46"/>
<polygon fill="#63b8ff" stroke="#63b8ff" points="107.01,-60.46 114.39,-52.85 103.88,-54.2 107.01,-60.46"/>
</a>
</g>
</g>
<!-- Node30 -->
<g id="Node000030" class="node">
<title>Node30</title>
<g id="a_Node000030"><a xlink:href="classPlotViewModel.html#ac5083e83be21e61451358329d4e8adfc" target="_top" xlink:title=" ">
<polygon fill="white" stroke="#666666" points="252,-624.5 103,-624.5 103,-594.5 252,-594.5 252,-624.5"/>
<text text-anchor="start" x="111" y="-612.5" font-family="Helvetica,sans-Serif" font-size="10.00">PlotViewModel::selectTime</text>
<text text-anchor="middle" x="177.5" y="-601.5" font-family="Helvetica,sans-Serif" font-size="10.00">Range</text>
</a>
</g>
</g>
<!-- Node1&#45;&gt;Node30 -->
<g id="edge38_Node000001_Node000030" class="edge">
<title>Node1&#45;&gt;Node30</title>
<g id="a_edge38_Node000001_Node000030"><a xlink:title=" ">
<path fill="none" stroke="#63b8ff" d="M32.19,-329.18C37.58,-371.73 61.02,-541.77 96,-580.5 98.86,-583.66 102.08,-586.48 105.56,-588.99"/>
<polygon fill="#63b8ff" stroke="#63b8ff" points="103.74,-591.98 114.08,-594.31 107.45,-586.05 103.74,-591.98"/>
</a>
</g>
</g>
<!-- Node31 -->
<g id="Node000031" class="node">
<title>Node31</title>
<g id="a_Node000031"><a xlink:href="classPlotViewModel.html#af0255376d3e7f495205cb5de5079a2fa" target="_top" xlink:title=" ">
<polygon fill="white" stroke="#666666" points="235,-19 120,-19 120,0 235,0 235,-19"/>
<text text-anchor="middle" x="177.5" y="-7" font-family="Helvetica,sans-Serif" font-size="10.00">PlotViewModel::title</text>
</a>
</g>
</g>
<!-- Node1&#45;&gt;Node31 -->
<g id="edge41_Node000001_Node000031" class="edge">
<title>Node1&#45;&gt;Node31</title>
<g id="a_edge41_Node000001_Node000031"><a xlink:title=" ">
<path fill="none" stroke="#63b8ff" d="M31.79,-309.82C35.7,-263.94 54.61,-68.93 96,-27.5 100.21,-23.28 105.19,-19.96 110.56,-17.35"/>
<polygon fill="#63b8ff" stroke="#63b8ff" points="111.93,-20.57 119.92,-13.61 109.34,-14.07 111.93,-20.57"/>
</a>
</g>
</g>
<!-- Node4&#45;&gt;Node2 -->
<g id="edge4_Node000004_Node000002" class="edge">
<title>Node4&#45;&gt;Node2</title>
<g id="a_edge4_Node000004_Node000002"><a xlink:title=" ">
<path fill="none" stroke="#63b8ff" d="M194.04,-538.14C216.1,-551.67 257.95,-576.73 295,-595.5 309.33,-602.76 325.27,-610.06 339.72,-616.39"/>
<polygon fill="#63b8ff" stroke="#63b8ff" points="338.41,-619.64 348.98,-620.4 341.2,-613.21 338.41,-619.64"/>
</a>
</g>
</g>
<!-- Node4&#45;&gt;Node5 -->
<g id="edge5_Node000004_Node000005" class="edge">
<title>Node4&#45;&gt;Node5</title>
<g id="a_edge5_Node000004_Node000005"><a xlink:title=" ">
<path fill="none" stroke="#63b8ff" d="M224.44,-538.04C247.67,-542.87 276.58,-548.87 303.46,-554.46"/>
<polygon fill="#63b8ff" stroke="#63b8ff" points="302.76,-557.89 313.26,-556.49 304.18,-551.03 302.76,-557.89"/>
</a>
</g>
</g>
<!-- Node6 -->
<g id="Node000006" class="node">
<title>Node6</title>
<g id="a_Node000006"><a xlink:href="classPlotViewModel.html#a0371c868dc4ec05453b57559814f0446" target="_top" xlink:title=" ">
<polygon fill="white" stroke="#666666" points="465.5,-538 307.5,-538 307.5,-519 465.5,-519 465.5,-538"/>
<text text-anchor="middle" x="386.5" y="-526" font-family="Helvetica,sans-Serif" font-size="10.00">PlotViewModel::titleChanged</text>
</a>
</g>
</g>
<!-- Node4&#45;&gt;Node6 -->
<g id="edge6_Node000004_Node000006" class="edge">
<title>Node4&#45;&gt;Node6</title>
<g id="a_edge6_Node000004_Node000006"><a xlink:title=" ">
<path fill="none" stroke="#63b8ff" d="M246.28,-528.5C262.39,-528.5 279.82,-528.5 296.71,-528.5"/>
<polygon fill="#63b8ff" stroke="#63b8ff" points="297.15,-532 307.15,-528.5 297.15,-525 297.15,-532"/>
</a>
</g>
</g>
<!-- Node4&#45;&gt;Node7 -->
<g id="edge7_Node000004_Node000007" class="edge">
<title>Node4&#45;&gt;Node7</title>
<g id="a_edge7_Node000004_Node000007"><a xlink:title=" ">
<path fill="none" stroke="#63b8ff" d="M224.44,-518.96C247.67,-514.13 276.58,-508.13 303.46,-502.54"/>
<polygon fill="#63b8ff" stroke="#63b8ff" points="304.18,-505.97 313.26,-500.51 302.76,-499.11 304.18,-505.97"/>
</a>
</g>
</g>
<!-- Node9&#45;&gt;Node7 -->
<g id="edge10_Node000009_Node000007" class="edge">
<title>Node9&#45;&gt;Node7</title>
<g id="a_edge10_Node000009_Node000007"><a xlink:title=" ">
<path fill="none" stroke="#63b8ff" d="M246.28,-489.54C262,-489.08 278.97,-488.59 295.48,-488.11"/>
<polygon fill="#63b8ff" stroke="#63b8ff" points="295.79,-491.6 305.69,-487.81 295.59,-484.6 295.79,-491.6"/>
</a>
</g>
</g>
<!-- Node10&#45;&gt;Node8 -->
<g id="edge13_Node000010_Node000008" class="edge">
<title>Node10&#45;&gt;Node8</title>
<g id="a_edge13_Node000010_Node000008"><a xlink:title=" ">
<path fill="none" stroke="#63b8ff" d="M249.16,-360.11C277.16,-359.16 308.73,-358.1 334.44,-357.23"/>
<polygon fill="#63b8ff" stroke="#63b8ff" points="334.84,-360.72 344.71,-356.88 334.6,-353.72 334.84,-360.72"/>
</a>
</g>
</g>
<!-- Node11 -->
<g id="Node000011" class="node">
<title>Node11</title>
<g id="a_Node000011"><a xlink:href="classPlotViewModel.html#ae26a88941efd10822339dee4c2463c69" target="_top" xlink:title=" ">
<polygon fill="white" stroke="#666666" points="692,-366 514,-366 514,-347 692,-347 692,-366"/>
<text text-anchor="middle" x="603" y="-354" font-family="Helvetica,sans-Serif" font-size="10.00">PlotViewModel::curveParameters</text>
</a>
</g>
</g>
<!-- Node10&#45;&gt;Node11 -->
<g id="edge12_Node000010_Node000011" class="edge">
<title>Node10&#45;&gt;Node11</title>
<g id="a_edge12_Node000010_Node000011"><a xlink:title=" ">
<path fill="none" stroke="#63b8ff" d="M249.26,-370.96C264.33,-372.44 280.18,-373.74 295,-374.5 376.23,-378.67 396.88,-380.36 478,-374.5 497.68,-373.08 518.97,-370.41 538.28,-367.55"/>
<polygon fill="#63b8ff" stroke="#63b8ff" points="538.81,-371.01 548.17,-366.04 537.75,-364.09 538.81,-371.01"/>
</a>
</g>
</g>
<!-- Node13 -->
<g id="Node000013" class="node">
<title>Node13</title>
<g id="a_Node000013"><a xlink:href="classPlotViewModel.html#aa3ecb219bfb82a46bf07c5986a7cc8d5" target="_top" xlink:title=" ">
<polygon fill="white" stroke="#666666" points="464,-217 309,-217 309,-198 464,-198 464,-217"/>
<text text-anchor="middle" x="386.5" y="-205" font-family="Helvetica,sans-Serif" font-size="10.00">PlotViewModel::currentTime</text>
</a>
</g>
</g>
<!-- Node12&#45;&gt;Node13 -->
<g id="edge15_Node000012_Node000013" class="edge">
<title>Node12&#45;&gt;Node13</title>
<g id="a_edge15_Node000012_Node000013"><a xlink:title=" ">
<path fill="none" stroke="#63b8ff" d="M231.81,-234.97C259.35,-230.05 293.14,-224.01 322.02,-218.85"/>
<polygon fill="#63b8ff" stroke="#63b8ff" points="322.79,-222.27 332.01,-217.06 321.55,-215.37 322.79,-222.27"/>
</a>
</g>
</g>
<!-- Node14 -->
<g id="Node000014" class="node">
<title>Node14</title>
<g id="a_Node000014"><a xlink:href="classPlotViewModel.html#aa174ada724c54f97d5b902de2ea49fc7" target="_top" xlink:title=" ">
<polygon fill="white" stroke="#666666" points="455.5,-254 317.5,-254 317.5,-235 455.5,-235 455.5,-254"/>
<text text-anchor="middle" x="386.5" y="-242" font-family="Helvetica,sans-Serif" font-size="10.00">PlotViewModel::getValue</text>
</a>
</g>
</g>
<!-- Node12&#45;&gt;Node14 -->
<g id="edge16_Node000012_Node000014" class="edge">
<title>Node12&#45;&gt;Node14</title>
<g id="a_edge16_Node000012_Node000014"><a xlink:title=" ">
<path fill="none" stroke="#63b8ff" d="M258.53,-244.5C274.49,-244.5 291.23,-244.5 307.14,-244.5"/>
<polygon fill="#63b8ff" stroke="#63b8ff" points="307.45,-248 317.45,-244.5 307.45,-241 307.45,-248"/>
</a>
</g>
</g>
<!-- Node17 -->
<g id="Node000017" class="node">
<title>Node17</title>
<g id="a_Node000017"><a xlink:href="classPlot.html#a35a46b3d250dc882d2ca1c90ab9c12fd" target="_top" xlink:title=" ">
<polygon fill="white" stroke="#666666" points="449,-291 324,-291 324,-272 449,-272 449,-291"/>
<text text-anchor="middle" x="386.5" y="-279" font-family="Helvetica,sans-Serif" font-size="10.00">Plot::initialiseBindings</text>
</a>
</g>
</g>
<!-- Node12&#45;&gt;Node17 -->
<g id="edge19_Node000012_Node000017" class="edge">
<title>Node12&#45;&gt;Node17</title>
<g id="a_edge19_Node000012_Node000017"><a xlink:title=" ">
<path fill="none" stroke="#63b8ff" d="M231.81,-254.03C259.35,-258.95 293.14,-264.99 322.02,-270.15"/>
<polygon fill="#63b8ff" stroke="#63b8ff" points="321.55,-273.63 332.01,-271.94 322.79,-266.73 321.55,-273.63"/>
</a>
</g>
</g>
<!-- Node15 -->
<g id="Node000015" class="node">
<title>Node15</title>
<g id="a_Node000015"><a xlink:href="classTestBenchModel.html#ad20ac636e12877b99b3bf0e2ee8e5b07" target="_top" xlink:title=" ">
<polygon fill="white" stroke="#666666" points="677.5,-253 528.5,-253 528.5,-234 677.5,-234 677.5,-253"/>
<text text-anchor="middle" x="603" y="-241" font-family="Helvetica,sans-Serif" font-size="10.00">TestBenchModel::getStatus</text>
</a>
</g>
</g>
<!-- Node14&#45;&gt;Node15 -->
<g id="edge17_Node000014_Node000015" class="edge">
<title>Node14&#45;&gt;Node15</title>
<g id="a_edge17_Node000014_Node000015"><a xlink:title=" ">
<path fill="none" stroke="#63b8ff" d="M455.66,-244.18C475.59,-244.09 497.6,-243.99 518.37,-243.89"/>
<polygon fill="#63b8ff" stroke="#63b8ff" points="518.46,-247.39 528.45,-243.84 518.43,-240.39 518.46,-247.39"/>
</a>
</g>
</g>
<!-- Node16 -->
<g id="Node000016" class="node">
<title>Node16</title>
<g id="a_Node000016"><a xlink:href="classTestBenchStatesList.html#a9c69f8c778b31be6b13d95caa7d618b9" target="_top" xlink:title=" ">
<polygon fill="white" stroke="#666666" points="864.5,-255.5 750.5,-255.5 750.5,-225.5 864.5,-225.5 864.5,-255.5"/>
<text text-anchor="start" x="758.5" y="-243.5" font-family="Helvetica,sans-Serif" font-size="10.00">TestBenchStatesList</text>
<text text-anchor="middle" x="807.5" y="-232.5" font-family="Helvetica,sans-Serif" font-size="10.00">::getValue</text>
</a>
</g>
</g>
<!-- Node15&#45;&gt;Node16 -->
<g id="edge18_Node000015_Node000016" class="edge">
<title>Node15&#45;&gt;Node16</title>
<g id="a_edge18_Node000015_Node000016"><a xlink:title=" ">
<path fill="none" stroke="#63b8ff" d="M677.68,-242.41C698.1,-242.11 720.13,-241.78 740.1,-241.48"/>
<polygon fill="#63b8ff" stroke="#63b8ff" points="740.39,-244.98 750.34,-241.33 740.29,-237.98 740.39,-244.98"/>
</a>
</g>
</g>
<!-- Node17&#45;&gt;Node11 -->
<g id="edge20_Node000017_Node000011" class="edge">
<title>Node17&#45;&gt;Node11</title>
<g id="a_edge20_Node000017_Node000011"><a xlink:title=" ">
<path fill="none" stroke="#63b8ff" d="M442.56,-291.06C454.38,-293.67 466.71,-296.81 478,-300.5 512.49,-311.76 550.24,-329.67 574.91,-342.2"/>
<polygon fill="#63b8ff" stroke="#63b8ff" points="573.52,-345.41 584.01,-346.87 576.71,-339.19 573.52,-345.41"/>
</a>
</g>
</g>
<!-- Node18 -->
<g id="Node000018" class="node">
<title>Node18</title>
<g id="a_Node000018"><a xlink:href="classPlotViewModel.html#a4f68a4b4160583b92cad8aa82c694445" target="_top" xlink:title=" ">
<polygon fill="white" stroke="#666666" points="677.5,-292 528.5,-292 528.5,-273 677.5,-273 677.5,-292"/>
<text text-anchor="middle" x="603" y="-280" font-family="Helvetica,sans-Serif" font-size="10.00">PlotViewModel::getValueID</text>
</a>
</g>
</g>
<!-- Node17&#45;&gt;Node18 -->
<g id="edge21_Node000017_Node000018" class="edge">
<title>Node17&#45;&gt;Node18</title>
<g id="a_edge21_Node000017_Node000018"><a xlink:title=" ">
<path fill="none" stroke="#63b8ff" d="M449.25,-281.79C470.71,-281.89 495.14,-282 518.08,-282.11"/>
<polygon fill="#63b8ff" stroke="#63b8ff" points="518.14,-285.61 528.15,-282.16 518.17,-278.61 518.14,-285.61"/>
</a>
</g>
</g>
<!-- Node19 -->
<g id="Node000019" class="node">
<title>Node19</title>
<g id="a_Node000019"><a xlink:href="classTestBenchModel.html#ace6e3de6f5ccb11ee6e9b3f80b630377" target="_top" xlink:title=" ">
<polygon fill="white" stroke="#666666" points="887,-293 728,-293 728,-274 887,-274 887,-293"/>
<text text-anchor="middle" x="807.5" y="-281" font-family="Helvetica,sans-Serif" font-size="10.00">TestBenchModel::getStatusID</text>
</a>
</g>
</g>
<!-- Node18&#45;&gt;Node19 -->
<g id="edge22_Node000018_Node000019" class="edge">
<title>Node18&#45;&gt;Node19</title>
<g id="a_edge22_Node000018_Node000019"><a xlink:title=" ">
<path fill="none" stroke="#63b8ff" d="M677.68,-282.86C690.66,-282.93 704.29,-283 717.63,-283.06"/>
<polygon fill="#63b8ff" stroke="#63b8ff" points="717.74,-286.56 727.76,-283.11 717.77,-279.56 717.74,-286.56"/>
</a>
</g>
</g>
<!-- Node20 -->
<g id="Node000020" class="node">
<title>Node20</title>
<g id="a_Node000020"><a xlink:href="classTestBenchStatesList.html#ad87ab49f0bb0081c228afd6dae8c9e57" target="_top" xlink:title=" ">
<polygon fill="white" stroke="#666666" points="1037,-298.5 923,-298.5 923,-268.5 1037,-268.5 1037,-298.5"/>
<text text-anchor="start" x="931" y="-286.5" font-family="Helvetica,sans-Serif" font-size="10.00">TestBenchStatesList</text>
<text text-anchor="middle" x="980" y="-275.5" font-family="Helvetica,sans-Serif" font-size="10.00">::getID</text>
</a>
</g>
</g>
<!-- Node19&#45;&gt;Node20 -->
<g id="edge23_Node000019_Node000020" class="edge">
<title>Node19&#45;&gt;Node20</title>
<g id="a_edge23_Node000019_Node000020"><a xlink:title=" ">
<path fill="none" stroke="#63b8ff" d="M887.26,-283.5C895.82,-283.5 904.47,-283.5 912.86,-283.5"/>
<polygon fill="#63b8ff" stroke="#63b8ff" points="912.94,-287 922.94,-283.5 912.94,-280 912.94,-287"/>
</a>
</g>
</g>
<!-- Node21&#45;&gt;Node13 -->
<g id="edge25_Node000021_Node000013" class="edge">
<title>Node21&#45;&gt;Node13</title>
<g id="a_edge25_Node000021_Node000013"><a xlink:title=" ">
<path fill="none" stroke="#63b8ff" d="M220.39,-207.5C242.91,-207.5 271.55,-207.5 298.63,-207.5"/>
<polygon fill="#63b8ff" stroke="#63b8ff" points="298.92,-211 308.92,-207.5 298.92,-204 298.92,-211"/>
</a>
</g>
</g>
<!-- Node22 -->
<g id="Node000022" class="node">
<title>Node22</title>
<g id="a_Node000022"><a xlink:href="classPlotViewModel.html#aa5faa65e7134c4bbe7ada8cfbe2a270d" target="_top" xlink:title=" ">
<polygon fill="white" stroke="#666666" points="467,-179.5 306,-179.5 306,-149.5 467,-149.5 467,-179.5"/>
<text text-anchor="start" x="314" y="-167.5" font-family="Helvetica,sans-Serif" font-size="10.00">PlotViewModel::selectedTime</text>
<text text-anchor="middle" x="386.5" y="-156.5" font-family="Helvetica,sans-Serif" font-size="10.00">Range</text>
</a>
</g>
</g>
<!-- Node21&#45;&gt;Node22 -->
<g id="edge26_Node000021_Node000022" class="edge">
<title>Node21&#45;&gt;Node22</title>
<g id="a_edge26_Node000021_Node000022"><a xlink:title=" ">
<path fill="none" stroke="#63b8ff" d="M220.39,-198.8C244.17,-193.86 274.76,-187.5 303.15,-181.61"/>
<polygon fill="#63b8ff" stroke="#63b8ff" points="304,-185 313.08,-179.54 302.58,-178.15 304,-185"/>
</a>
</g>
</g>
<!-- Node23&#45;&gt;Node13 -->
<g id="edge28_Node000023_Node000013" class="edge">
<title>Node23&#45;&gt;Node13</title>
<g id="a_edge28_Node000023_Node000013"><a xlink:title=" ">
<path fill="none" stroke="#63b8ff" d="M250.9,-179.54C276.71,-184.9 305.36,-190.85 329.58,-195.88"/>
<polygon fill="#63b8ff" stroke="#63b8ff" points="329.16,-199.37 339.66,-197.98 330.58,-192.52 329.16,-199.37"/>
</a>
</g>
</g>
<!-- Node23&#45;&gt;Node22 -->
<g id="edge29_Node000023_Node000022" class="edge">
<title>Node23&#45;&gt;Node22</title>
<g id="a_edge29_Node000023_Node000022"><a xlink:title=" ">
<path fill="none" stroke="#63b8ff" d="M253.23,-164.5C267.02,-164.5 281.56,-164.5 295.74,-164.5"/>
<polygon fill="#63b8ff" stroke="#63b8ff" points="295.99,-168 305.99,-164.5 295.99,-161 295.99,-168"/>
</a>
</g>
</g>
<!-- Node23&#45;&gt;Node24 -->
<g id="edge30_Node000023_Node000024" class="edge">
<title>Node23&#45;&gt;Node24</title>
<g id="a_edge30_Node000023_Node000024"><a xlink:title=" ">
<path fill="none" stroke="#63b8ff" d="M232.85,-149.39C242,-145.62 251.08,-141.03 259,-135.5 279.43,-121.23 273.97,-105.88 295,-92.5 297.59,-90.85 300.29,-89.32 303.07,-87.89"/>
<polygon fill="#63b8ff" stroke="#63b8ff" points="304.59,-91.04 312.19,-83.66 301.65,-84.69 304.59,-91.04"/>
</a>
</g>
</g>
<!-- Node25 -->
<g id="Node000025" class="node">
<title>Node25</title>
<g id="a_Node000025"><a xlink:href="classPlotViewModel.html#a1cf1c30c7d5d9ba0635ebff8166194b2" target="_top" xlink:title=" ">
<polygon fill="white" stroke="#666666" points="461,-131.5 312,-131.5 312,-101.5 461,-101.5 461,-131.5"/>
<text text-anchor="start" x="320" y="-119.5" font-family="Helvetica,sans-Serif" font-size="10.00">PlotViewModel::timeRange</text>
<text text-anchor="middle" x="386.5" y="-108.5" font-family="Helvetica,sans-Serif" font-size="10.00">Selected</text>
</a>
</g>
</g>
<!-- Node23&#45;&gt;Node25 -->
<g id="edge31_Node000023_Node000025" class="edge">
<title>Node23&#45;&gt;Node25</title>
<g id="a_edge31_Node000023_Node000025"><a xlink:title=" ">
<path fill="none" stroke="#63b8ff" d="M243.43,-149.44C264.81,-144.49 288.77,-138.93 310.82,-133.82"/>
<polygon fill="#63b8ff" stroke="#63b8ff" points="311.85,-137.17 320.8,-131.5 310.27,-130.35 311.85,-137.17"/>
</a>
</g>
</g>
<!-- Node26&#45;&gt;Node8 -->
<g id="edge33_Node000026_Node000008" class="edge">
<title>Node26&#45;&gt;Node8</title>
<g id="a_edge33_Node000026_Node000008"><a xlink:title=" ">
<path fill="none" stroke="#63b8ff" d="M223.35,-291.12C235.36,-294.69 248.04,-299.4 259,-305.5 277.7,-315.92 275.83,-327.97 295,-337.5 307.23,-343.58 321.35,-347.61 334.75,-350.28"/>
<polygon fill="#63b8ff" stroke="#63b8ff" points="334.35,-353.76 344.81,-352.06 335.58,-346.87 334.35,-353.76"/>
</a>
</g>
</g>
<!-- Node27 -->
<g id="Node000027" class="node">
<title>Node27</title>
<g id="a_Node000027"><a xlink:href="classPlotViewModel.html#aaabb646950935b2d3e53cf0dcd611c35" target="_top" xlink:title=" ">
<polygon fill="white" stroke="#666666" points="467,-328 306,-328 306,-309 467,-309 467,-328"/>
<text text-anchor="middle" x="386.5" y="-316" font-family="Helvetica,sans-Serif" font-size="10.00">PlotViewModel::visibleCurves</text>
</a>
</g>
</g>
<!-- Node26&#45;&gt;Node27 -->
<g id="edge34_Node000026_Node000027" class="edge">
<title>Node26&#45;&gt;Node27</title>
<g id="a_edge34_Node000026_Node000027"><a xlink:title=" ">
<path fill="none" stroke="#63b8ff" d="M231.81,-291.03C259.35,-295.95 293.14,-301.99 322.02,-307.15"/>
<polygon fill="#63b8ff" stroke="#63b8ff" points="321.55,-310.63 332.01,-308.94 322.79,-303.73 321.55,-310.63"/>
</a>
</g>
</g>
<!-- Node30&#45;&gt;Node5 -->
<g id="edge39_Node000030_Node000005" class="edge">
<title>Node30&#45;&gt;Node5</title>
<g id="a_edge39_Node000030_Node000005"><a xlink:title=" ">
<path fill="none" stroke="#63b8ff" d="M252.06,-596C266.13,-593.41 281.01,-590.68 295.52,-588.02"/>
<polygon fill="#63b8ff" stroke="#63b8ff" points="296.29,-591.43 305.5,-586.19 295.03,-584.55 296.29,-591.43"/>
</a>
</g>
</g>
</g>
</svg>
