<?xml version="1.0" encoding="UTF-8" standalone="no"?>
<!DOCTYPE svg PUBLIC "-//W3C//DTD SVG 1.1//EN"
 "http://www.w3.org/Graphics/SVG/1.1/DTD/svg11.dtd">
<!-- Generated by graphviz version 2.43.0 (0)
 -->
<!-- Title: LogTerminalViewModel::LogTerminalViewModel Pages: 1 -->
<svg width="536pt" height="113pt"
 viewBox="0.00 0.00 536.00 113.00" xmlns="http://www.w3.org/2000/svg" xmlns:xlink="http://www.w3.org/1999/xlink">
<g id="graph0" class="graph" transform="scale(1 1) rotate(0) translate(4 109)">
<title>LogTerminalViewModel::LogTerminalViewModel</title>
<!-- Node1 -->
<g id="Node000001" class="node">
<title>Node1</title>
<g id="a_Node000001"><a xlink:title=" ">
<polygon fill="#999999" stroke="#666666" points="136,-67.5 0,-67.5 0,-37.5 136,-37.5 136,-67.5"/>
<text text-anchor="start" x="8" y="-55.5" font-family="Helvetica,sans-Serif" font-size="10.00">LogTerminalViewModel</text>
<text text-anchor="middle" x="68" y="-44.5" font-family="Helvetica,sans-Serif" font-size="10.00">::LogTerminalViewModel</text>
</a>
</g>
</g>
<!-- Node2 -->
<g id="Node000002" class="node">
<title>Node2</title>
<g id="a_Node000002"><a xlink:href="classLogger.html#a02453fd0695fe06c495de714399e8bf7" target="_top" xlink:title=" ">
<polygon fill="white" stroke="#666666" points="334.5,-105 199.5,-105 199.5,-86 334.5,-86 334.5,-105"/>
<text text-anchor="middle" x="267" y="-93" font-family="Helvetica,sans-Serif" font-size="10.00">Logger::messageLogged</text>
</a>
</g>
</g>
<!-- Node1&#45;&gt;Node2 -->
<g id="edge1_Node000001_Node000002" class="edge">
<title>Node1&#45;&gt;Node2</title>
<g id="a_edge1_Node000001_Node000002"><a xlink:title=" ">
<path fill="none" stroke="#63b8ff" d="M132.12,-67.52C145.28,-70.56 159.08,-73.69 172,-76.5 183.32,-78.96 195.44,-81.49 207.08,-83.87"/>
<polygon fill="#63b8ff" stroke="#63b8ff" points="206.66,-87.35 217.15,-85.91 208.05,-80.49 206.66,-87.35"/>
</a>
</g>
</g>
<!-- Node3 -->
<g id="Node000003" class="node">
<title>Node3</title>
<g id="a_Node000003"><a xlink:href="classLogTerminalViewModel.html#a9f667ac6e725a43bf51fb1f5823da492" target="_top" xlink:title=" ">
<polygon fill="white" stroke="#666666" points="332,-67.5 202,-67.5 202,-37.5 332,-37.5 332,-67.5"/>
<text text-anchor="start" x="210" y="-55.5" font-family="Helvetica,sans-Serif" font-size="10.00">LogTerminalViewModel</text>
<text text-anchor="middle" x="267" y="-44.5" font-family="Helvetica,sans-Serif" font-size="10.00">::onLogReceived</text>
</a>
</g>
</g>
<!-- Node1&#45;&gt;Node3 -->
<g id="edge2_Node000001_Node000003" class="edge">
<title>Node1&#45;&gt;Node3</title>
<g id="a_edge2_Node000001_Node000003"><a xlink:title=" ">
<path fill="none" stroke="#63b8ff" d="M136.25,-52.5C154.03,-52.5 173.33,-52.5 191.48,-52.5"/>
<polygon fill="#63b8ff" stroke="#63b8ff" points="191.72,-56 201.72,-52.5 191.72,-49 191.72,-56"/>
</a>
</g>
</g>
<!-- Node5 -->
<g id="Node000005" class="node">
<title>Node5</title>
<g id="a_Node000005"><a xlink:href="classUdpChannel.html#ad3e0230c654c877e37c146a86483dcb5" target="_top" xlink:title=" ">
<polygon fill="white" stroke="#666666" points="362,-19 172,-19 172,0 362,0 362,-19"/>
<text text-anchor="middle" x="267" y="-7" font-family="Helvetica,sans-Serif" font-size="10.00">UdpChannel::textMessageReceived</text>
</a>
</g>
</g>
<!-- Node1&#45;&gt;Node5 -->
<g id="edge4_Node000001_Node000005" class="edge">
<title>Node1&#45;&gt;Node5</title>
<g id="a_edge4_Node000001_Node000005"><a xlink:title=" ">
<path fill="none" stroke="#63b8ff" d="M132.12,-37.48C145.28,-34.44 159.08,-31.31 172,-28.5 183.32,-26.04 195.44,-23.51 207.08,-21.13"/>
<polygon fill="#63b8ff" stroke="#63b8ff" points="208.05,-24.51 217.15,-19.09 206.66,-17.65 208.05,-24.51"/>
</a>
</g>
</g>
<!-- Node4 -->
<g id="Node000004" class="node">
<title>Node4</title>
<g id="a_Node000004"><a xlink:href="classLogTerminalViewModel.html#ad6eb94edcc395db471df601425c5ee6d" target="_top" xlink:title=" ">
<polygon fill="white" stroke="#666666" points="528,-67.5 398,-67.5 398,-37.5 528,-37.5 528,-67.5"/>
<text text-anchor="start" x="406" y="-55.5" font-family="Helvetica,sans-Serif" font-size="10.00">LogTerminalViewModel</text>
<text text-anchor="middle" x="463" y="-44.5" font-family="Helvetica,sans-Serif" font-size="10.00">::displayLog</text>
</a>
</g>
</g>
<!-- Node3&#45;&gt;Node4 -->
<g id="edge3_Node000003_Node000004" class="edge">
<title>Node3&#45;&gt;Node4</title>
<g id="a_edge3_Node000003_Node000004"><a xlink:title=" ">
<path fill="none" stroke="#63b8ff" d="M332.06,-52.5C349.85,-52.5 369.31,-52.5 387.63,-52.5"/>
<polygon fill="#63b8ff" stroke="#63b8ff" points="387.68,-56 397.68,-52.5 387.68,-49 387.68,-56"/>
</a>
</g>
</g>
</g>
</svg>
