<?xml version="1.0" encoding="UTF-8" standalone="no"?>
<!DOCTYPE svg PUBLIC "-//W3C//DTD SVG 1.1//EN"
 "http://www.w3.org/Graphics/SVG/1.1/DTD/svg11.dtd">
<!-- Generated by graphviz version 2.43.0 (0)
 -->
<!-- Title: PressureTanksModel::setPressureSetting Pages: 1 -->
<svg width="532pt" height="86pt"
 viewBox="0.00 0.00 532.00 86.00" xmlns="http://www.w3.org/2000/svg" xmlns:xlink="http://www.w3.org/1999/xlink">
<g id="graph0" class="graph" transform="scale(1 1) rotate(0) translate(4 82)">
<title>PressureTanksModel::setPressureSetting</title>
<!-- Node1 -->
<g id="Node000001" class="node">
<title>Node1</title>
<g id="a_Node000001"><a xlink:title=" ">
<polygon fill="#999999" stroke="#666666" points="524,-54 408,-54 408,-24 524,-24 524,-54"/>
<text text-anchor="start" x="416" y="-42" font-family="Helvetica,sans-Serif" font-size="10.00">PressureTanksModel</text>
<text text-anchor="middle" x="466" y="-31" font-family="Helvetica,sans-Serif" font-size="10.00">::setPressureSetting</text>
</a>
</g>
</g>
<!-- Node2 -->
<g id="Node000002" class="node">
<title>Node2</title>
<g id="a_Node000002"><a xlink:href="classTankPressureControlerViewModel.html#aa2dc1cfd9ff5c8749af588c48c7b1cfc" target="_top" xlink:title=" ">
<polygon fill="white" stroke="#666666" points="372,-78 189,-78 189,-48 372,-48 372,-78"/>
<text text-anchor="start" x="197" y="-66" font-family="Helvetica,sans-Serif" font-size="10.00">TankPressureControlerView</text>
<text text-anchor="middle" x="280.5" y="-55" font-family="Helvetica,sans-Serif" font-size="10.00">Model::onPressureSettingSelected</text>
</a>
</g>
</g>
<!-- Node1&#45;&gt;Node2 -->
<g id="edge1_Node000001_Node000002" class="edge">
<title>Node1&#45;&gt;Node2</title>
<g id="a_edge1_Node000001_Node000002"><a xlink:title=" ">
<path fill="none" stroke="#63b8ff" d="M397.9,-47.78C389.53,-48.87 380.87,-50 372.22,-51.14"/>
<polygon fill="#63b8ff" stroke="#63b8ff" points="398.48,-51.23 407.95,-46.46 397.58,-44.29 398.48,-51.23"/>
</a>
</g>
</g>
<!-- Node3 -->
<g id="Node000003" class="node">
<title>Node3</title>
<g id="a_Node000003"><a xlink:href="classTankPressureControlerViewModel.html#a01a9540dffc987727660be34ed1c3b77" target="_top" xlink:title=" ">
<polygon fill="white" stroke="#666666" points="367,-30 194,-30 194,0 367,0 367,-30"/>
<text text-anchor="start" x="202" y="-18" font-family="Helvetica,sans-Serif" font-size="10.00">TankPressureControlerView</text>
<text text-anchor="middle" x="280.5" y="-7" font-family="Helvetica,sans-Serif" font-size="10.00">Model::setPressureDefaultValue</text>
</a>
</g>
</g>
<!-- Node1&#45;&gt;Node3 -->
<g id="edge2_Node000001_Node000003" class="edge">
<title>Node1&#45;&gt;Node3</title>
<g id="a_edge2_Node000001_Node000003"><a xlink:title=" ">
<path fill="none" stroke="#63b8ff" d="M397.74,-30.2C387.79,-28.9 377.42,-27.55 367.15,-26.2"/>
<polygon fill="#63b8ff" stroke="#63b8ff" points="397.58,-33.71 407.95,-31.54 398.48,-26.77 397.58,-33.71"/>
</a>
</g>
</g>
<!-- Node4 -->
<g id="Node000004" class="node">
<title>Node4</title>
<g id="a_Node000004"><a xlink:href="classTankPressureControlFrame.html#a58729819e5149e1b7c0c4648d2f728db" target="_top" xlink:title=" ">
<polygon fill="white" stroke="#666666" points="153,-30 0,-30 0,0 153,0 153,-30"/>
<text text-anchor="start" x="8" y="-18" font-family="Helvetica,sans-Serif" font-size="10.00">TankPressureControlFrame</text>
<text text-anchor="middle" x="76.5" y="-7" font-family="Helvetica,sans-Serif" font-size="10.00">::TankPressureControlFrame</text>
</a>
</g>
</g>
<!-- Node3&#45;&gt;Node4 -->
<g id="edge3_Node000003_Node000004" class="edge">
<title>Node3&#45;&gt;Node4</title>
<g id="a_edge3_Node000003_Node000004"><a xlink:title=" ">
<path fill="none" stroke="#63b8ff" d="M183.62,-15C173.36,-15 163.04,-15 153.06,-15"/>
<polygon fill="#63b8ff" stroke="#63b8ff" points="183.83,-18.5 193.83,-15 183.83,-11.5 183.83,-18.5"/>
</a>
</g>
</g>
</g>
</svg>
