<?xml version="1.0" encoding="UTF-8" standalone="no"?>
<!DOCTYPE svg PUBLIC "-//W3C//DTD SVG 1.1//EN"
 "http://www.w3.org/Graphics/SVG/1.1/DTD/svg11.dtd">
<!-- Generated by graphviz version 2.43.0 (0)
 -->
<!-- Title: AppServices::create Pages: 1 -->
<svg width="325pt" height="101pt"
 viewBox="0.00 0.00 325.00 101.00" xmlns="http://www.w3.org/2000/svg" xmlns:xlink="http://www.w3.org/1999/xlink">
<g id="graph0" class="graph" transform="scale(1 1) rotate(0) translate(4 97)">
<title>AppServices::create</title>
<!-- Node1 -->
<g id="Node000001" class="node">
<title>Node1</title>
<g id="a_Node000001"><a xlink:title=" ">
<polygon fill="#999999" stroke="#666666" points="317,-56 204,-56 204,-37 317,-37 317,-56"/>
<text text-anchor="middle" x="260.5" y="-44" font-family="Helvetica,sans-Serif" font-size="10.00">AppServices::create</text>
</a>
</g>
</g>
<!-- Node2 -->
<g id="Node000002" class="node">
<title>Node2</title>
<g id="a_Node000002"><a xlink:href="classAppModels.html#a673bac89e82b54741c72d63a2317e25a" target="_top" xlink:title=" ">
<polygon fill="white" stroke="#666666" points="149.5,-93 18.5,-93 18.5,-74 149.5,-74 149.5,-93"/>
<text text-anchor="middle" x="84" y="-81" font-family="Helvetica,sans-Serif" font-size="10.00">AppModels::AppModels</text>
</a>
</g>
</g>
<!-- Node1&#45;&gt;Node2 -->
<g id="edge1_Node000001_Node000002" class="edge">
<title>Node1&#45;&gt;Node2</title>
<g id="a_edge1_Node000001_Node000002"><a xlink:title=" ">
<path fill="none" stroke="#63b8ff" d="M204.55,-58.15C180.58,-63.23 152.82,-69.12 130.09,-73.94"/>
<polygon fill="#63b8ff" stroke="#63b8ff" points="205.51,-61.53 214.56,-56.03 204.05,-54.68 205.51,-61.53"/>
</a>
</g>
</g>
<!-- Node3 -->
<g id="Node000003" class="node">
<title>Node3</title>
<g id="a_Node000003"><a xlink:href="classAppViewModel.html#a856d7ba901d8c9c6069730ac8b9d9d84" target="_top" xlink:title=" ">
<polygon fill="white" stroke="#666666" points="168,-56 0,-56 0,-37 168,-37 168,-56"/>
<text text-anchor="middle" x="84" y="-44" font-family="Helvetica,sans-Serif" font-size="10.00">AppViewModel::AppViewModel</text>
</a>
</g>
</g>
<!-- Node1&#45;&gt;Node3 -->
<g id="edge2_Node000001_Node000003" class="edge">
<title>Node1&#45;&gt;Node3</title>
<g id="a_edge2_Node000001_Node000003"><a xlink:title=" ">
<path fill="none" stroke="#63b8ff" d="M193.76,-46.5C185.39,-46.5 176.74,-46.5 168.15,-46.5"/>
<polygon fill="#63b8ff" stroke="#63b8ff" points="193.81,-50 203.81,-46.5 193.81,-43 193.81,-50"/>
</a>
</g>
</g>
<!-- Node4 -->
<g id="Node000004" class="node">
<title>Node4</title>
<g id="a_Node000004"><a xlink:href="main_8cpp.html#a0ddf1224851353fc92bfbff6f499fa97" target="_top" xlink:title=" ">
<polygon fill="white" stroke="#666666" points="104.5,-19 63.5,-19 63.5,0 104.5,0 104.5,-19"/>
<text text-anchor="middle" x="84" y="-7" font-family="Helvetica,sans-Serif" font-size="10.00">main</text>
</a>
</g>
</g>
<!-- Node1&#45;&gt;Node4 -->
<g id="edge3_Node000001_Node000004" class="edge">
<title>Node1&#45;&gt;Node4</title>
<g id="a_edge3_Node000001_Node000004"><a xlink:title=" ">
<path fill="none" stroke="#63b8ff" d="M204.71,-34.88C170.58,-27.65 128.73,-18.77 104.64,-13.66"/>
<polygon fill="#63b8ff" stroke="#63b8ff" points="204.05,-38.32 214.56,-36.97 205.51,-31.47 204.05,-38.32"/>
</a>
</g>
</g>
</g>
</svg>
