<?xml version="1.0" encoding="UTF-8" standalone="no"?>
<!DOCTYPE svg PUBLIC "-//W3C//DTD SVG 1.1//EN"
 "http://www.w3.org/Graphics/SVG/1.1/DTD/svg11.dtd">
<!-- Generated by graphviz version 2.43.0 (0)
 -->
<!-- Title: TankPressureControlFrame::TankPressureControlFrame Pages: 1 -->
<svg width="734pt" height="230pt"
 viewBox="0.00 0.00 734.00 230.00" xmlns="http://www.w3.org/2000/svg" xmlns:xlink="http://www.w3.org/1999/xlink">
<g id="graph0" class="graph" transform="scale(1 1) rotate(0) translate(4 226)">
<title>TankPressureControlFrame::TankPressureControlFrame</title>
<!-- Node1 -->
<g id="Node000001" class="node">
<title>Node1</title>
<g id="a_Node000001"><a xlink:title=" ">
<polygon fill="#999999" stroke="#666666" points="153,-126 0,-126 0,-96 153,-96 153,-126"/>
<text text-anchor="start" x="8" y="-114" font-family="Helvetica,sans-Serif" font-size="10.00">TankPressureControlFrame</text>
<text text-anchor="middle" x="76.5" y="-103" font-family="Helvetica,sans-Serif" font-size="10.00">::TankPressureControlFrame</text>
</a>
</g>
</g>
<!-- Node2 -->
<g id="Node000002" class="node">
<title>Node2</title>
<g id="a_Node000002"><a xlink:href="classTankPressureControler.html#a059ee859fcfbd066e49e92ff0d7551e4" target="_top" xlink:title=" ">
<polygon fill="white" stroke="#666666" points="338.5,-222 212.5,-222 212.5,-192 338.5,-192 338.5,-222"/>
<text text-anchor="start" x="220.5" y="-210" font-family="Helvetica,sans-Serif" font-size="10.00">TankPressureControler</text>
<text text-anchor="middle" x="275.5" y="-199" font-family="Helvetica,sans-Serif" font-size="10.00">::set_color</text>
</a>
</g>
</g>
<!-- Node1&#45;&gt;Node2 -->
<g id="edge1_Node000001_Node000002" class="edge">
<title>Node1&#45;&gt;Node2</title>
<g id="a_edge1_Node000001_Node000002"><a xlink:title=" ">
<path fill="none" stroke="#63b8ff" d="M97,-126.2C118.48,-142.29 154.55,-167.47 189,-183 193.42,-184.99 198.05,-186.86 202.77,-188.6"/>
<polygon fill="#63b8ff" stroke="#63b8ff" points="201.93,-192.02 212.53,-191.99 204.23,-185.4 201.93,-192.02"/>
</a>
</g>
</g>
<!-- Node3 -->
<g id="Node000003" class="node">
<title>Node3</title>
<g id="a_Node000003"><a xlink:href="classTankPressureControlerViewModel.html#a01a9540dffc987727660be34ed1c3b77" target="_top" xlink:title=" ">
<polygon fill="white" stroke="#666666" points="362,-174 189,-174 189,-144 362,-144 362,-174"/>
<text text-anchor="start" x="197" y="-162" font-family="Helvetica,sans-Serif" font-size="10.00">TankPressureControlerView</text>
<text text-anchor="middle" x="275.5" y="-151" font-family="Helvetica,sans-Serif" font-size="10.00">Model::setPressureDefaultValue</text>
</a>
</g>
</g>
<!-- Node1&#45;&gt;Node3 -->
<g id="edge2_Node000001_Node000003" class="edge">
<title>Node1&#45;&gt;Node3</title>
<g id="a_edge2_Node000001_Node000003"><a xlink:title=" ">
<path fill="none" stroke="#63b8ff" d="M139.29,-126.06C159.55,-130.99 182.23,-136.52 203.14,-141.61"/>
<polygon fill="#63b8ff" stroke="#63b8ff" points="202.38,-145.03 212.93,-144 204.04,-138.23 202.38,-145.03"/>
</a>
</g>
</g>
<!-- Node6 -->
<g id="Node000006" class="node">
<title>Node6</title>
<g id="a_Node000006"><a xlink:href="classTankPressureControlerViewModel.html#ad921eae692f2ce2f530e3b8956aef046" target="_top" xlink:title=" ">
<polygon fill="white" stroke="#666666" points="350.5,-126 200.5,-126 200.5,-96 350.5,-96 350.5,-126"/>
<text text-anchor="start" x="208.5" y="-114" font-family="Helvetica,sans-Serif" font-size="10.00">TankPressureControlerView</text>
<text text-anchor="middle" x="275.5" y="-103" font-family="Helvetica,sans-Serif" font-size="10.00">Model::setPressureRange</text>
</a>
</g>
</g>
<!-- Node1&#45;&gt;Node6 -->
<g id="edge5_Node000001_Node000006" class="edge">
<title>Node1&#45;&gt;Node6</title>
<g id="a_edge5_Node000001_Node000006"><a xlink:title=" ">
<path fill="none" stroke="#63b8ff" d="M153.1,-111C165.22,-111 177.84,-111 190.15,-111"/>
<polygon fill="#63b8ff" stroke="#63b8ff" points="190.4,-114.5 200.4,-111 190.4,-107.5 190.4,-114.5"/>
</a>
</g>
</g>
<!-- Node7 -->
<g id="Node000007" class="node">
<title>Node7</title>
<g id="a_Node000007"><a xlink:href="classTankPressureControlerViewModel.html#aff85cf509fead284ca330366425b1232" target="_top" xlink:title=" ">
<polygon fill="white" stroke="#666666" points="350.5,-78 200.5,-78 200.5,-48 350.5,-48 350.5,-78"/>
<text text-anchor="start" x="208.5" y="-66" font-family="Helvetica,sans-Serif" font-size="10.00">TankPressureControlerView</text>
<text text-anchor="middle" x="275.5" y="-55" font-family="Helvetica,sans-Serif" font-size="10.00">Model::setSensor</text>
</a>
</g>
</g>
<!-- Node1&#45;&gt;Node7 -->
<g id="edge6_Node000001_Node000007" class="edge">
<title>Node1&#45;&gt;Node7</title>
<g id="a_edge6_Node000001_Node000007"><a xlink:title=" ">
<path fill="none" stroke="#63b8ff" d="M139.29,-95.94C159.55,-91.01 182.23,-85.48 203.14,-80.39"/>
<polygon fill="#63b8ff" stroke="#63b8ff" points="204.04,-83.77 212.93,-78 202.38,-76.97 204.04,-83.77"/>
</a>
</g>
</g>
<!-- Node9 -->
<g id="Node000009" class="node">
<title>Node9</title>
<g id="a_Node000009"><a xlink:href="classTankPressureControlerViewModel.html#aae9c7404ec2b3919db943c6d4c825ac9" target="_top" xlink:title=" ">
<polygon fill="white" stroke="#666666" points="350.5,-30 200.5,-30 200.5,0 350.5,0 350.5,-30"/>
<text text-anchor="start" x="208.5" y="-18" font-family="Helvetica,sans-Serif" font-size="10.00">TankPressureControlerView</text>
<text text-anchor="middle" x="275.5" y="-7" font-family="Helvetica,sans-Serif" font-size="10.00">Model::setTankName</text>
</a>
</g>
</g>
<!-- Node1&#45;&gt;Node9 -->
<g id="edge8_Node000001_Node000009" class="edge">
<title>Node1&#45;&gt;Node9</title>
<g id="a_edge8_Node000001_Node000009"><a xlink:title=" ">
<path fill="none" stroke="#63b8ff" d="M97,-95.8C118.48,-79.71 154.55,-54.53 189,-39 193.42,-37.01 198.05,-35.14 202.77,-33.4"/>
<polygon fill="#63b8ff" stroke="#63b8ff" points="204.23,-36.6 212.53,-30.01 201.93,-29.98 204.23,-36.6"/>
</a>
</g>
</g>
<!-- Node4 -->
<g id="Node000004" class="node">
<title>Node4</title>
<g id="a_Node000004"><a xlink:href="classPressureTanksModel.html#a8912c60be7aadfe6ff24fa9a52ce839e" target="_top" xlink:title=" ">
<polygon fill="white" stroke="#666666" points="531,-174 415,-174 415,-144 531,-144 531,-174"/>
<text text-anchor="start" x="423" y="-162" font-family="Helvetica,sans-Serif" font-size="10.00">PressureTanksModel</text>
<text text-anchor="middle" x="473" y="-151" font-family="Helvetica,sans-Serif" font-size="10.00">::setPressureSetting</text>
</a>
</g>
</g>
<!-- Node3&#45;&gt;Node4 -->
<g id="edge3_Node000003_Node000004" class="edge">
<title>Node3&#45;&gt;Node4</title>
<g id="a_edge3_Node000003_Node000004"><a xlink:title=" ">
<path fill="none" stroke="#63b8ff" d="M362.25,-159C376.47,-159 391.04,-159 404.73,-159"/>
<polygon fill="#63b8ff" stroke="#63b8ff" points="405,-162.5 415,-159 405,-155.5 405,-162.5"/>
</a>
</g>
</g>
<!-- Node5 -->
<g id="Node000005" class="node">
<title>Node5</title>
<g id="a_Node000005"><a xlink:href="classPressureTanksModel.html#acc5628f0ceb33f3c0a87fe7b3807015a" target="_top" xlink:title=" ">
<polygon fill="white" stroke="#666666" points="726,-174 584,-174 584,-144 726,-144 726,-174"/>
<text text-anchor="start" x="592" y="-162" font-family="Helvetica,sans-Serif" font-size="10.00">PressureTanksModel</text>
<text text-anchor="middle" x="655" y="-151" font-family="Helvetica,sans-Serif" font-size="10.00">::pressureSettingChanged</text>
</a>
</g>
</g>
<!-- Node4&#45;&gt;Node5 -->
<g id="edge4_Node000004_Node000005" class="edge">
<title>Node4&#45;&gt;Node5</title>
<g id="a_edge4_Node000004_Node000005"><a xlink:title=" ">
<path fill="none" stroke="#63b8ff" d="M531.45,-159C544.86,-159 559.39,-159 573.59,-159"/>
<polygon fill="#63b8ff" stroke="#63b8ff" points="573.86,-162.5 583.86,-159 573.86,-155.5 573.86,-162.5"/>
</a>
</g>
</g>
<!-- Node8 -->
<g id="Node000008" class="node">
<title>Node8</title>
<g id="a_Node000008"><a xlink:href="classTankPressureControlerViewModel.html#a01703f469be641ccb825fc2e98bf1e83" target="_top" xlink:title=" ">
<polygon fill="white" stroke="#666666" points="548,-78 398,-78 398,-48 548,-48 548,-78"/>
<text text-anchor="start" x="406" y="-66" font-family="Helvetica,sans-Serif" font-size="10.00">TankPressureControlerView</text>
<text text-anchor="middle" x="473" y="-55" font-family="Helvetica,sans-Serif" font-size="10.00">Model::sensorName</text>
</a>
</g>
</g>
<!-- Node7&#45;&gt;Node8 -->
<g id="edge7_Node000007_Node000008" class="edge">
<title>Node7&#45;&gt;Node8</title>
<g id="a_edge7_Node000007_Node000008"><a xlink:title=" ">
<path fill="none" stroke="#63b8ff" d="M350.69,-63C362.76,-63 375.33,-63 387.62,-63"/>
<polygon fill="#63b8ff" stroke="#63b8ff" points="387.86,-66.5 397.86,-63 387.86,-59.5 387.86,-66.5"/>
</a>
</g>
</g>
<!-- Node10 -->
<g id="Node000010" class="node">
<title>Node10</title>
<g id="a_Node000010"><a xlink:href="classTankPressureControlerViewModel.html#a0c862fdf66972b8e529a4eafb03efdaf" target="_top" xlink:title=" ">
<polygon fill="white" stroke="#666666" points="548,-30 398,-30 398,0 548,0 548,-30"/>
<text text-anchor="start" x="406" y="-18" font-family="Helvetica,sans-Serif" font-size="10.00">TankPressureControlerView</text>
<text text-anchor="middle" x="473" y="-7" font-family="Helvetica,sans-Serif" font-size="10.00">Model::tankName</text>
</a>
</g>
</g>
<!-- Node9&#45;&gt;Node10 -->
<g id="edge9_Node000009_Node000010" class="edge">
<title>Node9&#45;&gt;Node10</title>
<g id="a_edge9_Node000009_Node000010"><a xlink:title=" ">
<path fill="none" stroke="#63b8ff" d="M350.69,-15C362.76,-15 375.33,-15 387.62,-15"/>
<polygon fill="#63b8ff" stroke="#63b8ff" points="387.86,-18.5 397.86,-15 387.86,-11.5 387.86,-18.5"/>
</a>
</g>
</g>
</g>
</svg>
