<?xml version="1.0" encoding="UTF-8" standalone="no"?>
<!DOCTYPE svg PUBLIC "-//W3C//DTD SVG 1.1//EN"
 "http://www.w3.org/Graphics/SVG/1.1/DTD/svg11.dtd">
<!-- Generated by graphviz version 2.43.0 (0)
 -->
<!-- Title: ValveReading Pages: 1 -->
<svg width="89pt" height="142pt"
 viewBox="0.00 0.00 89.00 142.00" xmlns="http://www.w3.org/2000/svg" xmlns:xlink="http://www.w3.org/1999/xlink">
<g id="graph0" class="graph" transform="scale(1 1) rotate(0) translate(4 138)">
<title>ValveReading</title>
<!-- Node1 -->
<g id="Node000001" class="node">
<title>Node1</title>
<g id="a_Node000001"><a xlink:title=" ">
<polygon fill="#999999" stroke="transparent" points="79,-49 2,-49 2,0 79,0 79,-49"/>
<text text-anchor="start" x="7.5" y="-36.5" font-family="Helvetica,sans-Serif" font-size="10.00">ValveReading</text>
<text text-anchor="start" x="12.5" y="-21.5" font-family="Helvetica,sans-Serif" font-size="10.00">+</text>
<text text-anchor="start" x="31.5" y="-21.5" font-family="Helvetica,sans-Serif" font-size="10.00">status</text>
<text text-anchor="start" x="39" y="-6.5" font-family="Helvetica,sans-Serif" font-size="10.00"> </text>
<polygon fill="#666666" stroke="#666666" points="2.5,-31.5 2.5,-31.5 79.5,-31.5 79.5,-31.5 2.5,-31.5"/>
<polygon fill="#666666" stroke="#666666" points="2.5,-16.5 2.5,-16.5 29.5,-16.5 29.5,-16.5 2.5,-16.5"/>
<polygon fill="#666666" stroke="#666666" points="29.5,-16.5 29.5,-16.5 79.5,-16.5 79.5,-16.5 29.5,-16.5"/>
<polygon fill="none" stroke="#666666" points="2,0 2,-49 79,-49 79,0 2,0"/>
</a>
</g>
</g>
<!-- Node2 -->
<g id="Node000002" class="node">
<title>Node2</title>
<g id="a_Node000002"><a xlink:href="classMessage.html" target="_top" xlink:title=" ">
<polygon fill="white" stroke="transparent" points="81,-134 0,-134 0,-85 81,-85 81,-134"/>
<text text-anchor="start" x="19" y="-121.5" font-family="Helvetica,sans-Serif" font-size="10.00">Message</text>
<text text-anchor="start" x="39" y="-106.5" font-family="Helvetica,sans-Serif" font-size="10.00"> </text>
<text text-anchor="start" x="4.5" y="-91.5" font-family="Helvetica,sans-Serif" font-size="10.00">+</text>
<text text-anchor="start" x="17.5" y="-91.5" font-family="Helvetica,sans-Serif" font-size="10.00">~Message()</text>
<polygon fill="#666666" stroke="#666666" points="0.5,-116.5 0.5,-116.5 81.5,-116.5 81.5,-116.5 0.5,-116.5"/>
<polygon fill="#666666" stroke="#666666" points="0.5,-101.5 0.5,-101.5 81.5,-101.5 81.5,-101.5 0.5,-101.5"/>
<polygon fill="none" stroke="#666666" points="0,-85 0,-134 81,-134 81,-85 0,-85"/>
</a>
</g>
</g>
<!-- Node2&#45;&gt;Node1 -->
<g id="edge1_Node000001_Node000002" class="edge">
<title>Node2&#45;&gt;Node1</title>
<g id="a_edge1_Node000001_Node000002"><a xlink:title=" ">
<path fill="none" stroke="#8b1a1a" d="M40.5,-74.77C40.5,-66.17 40.5,-57.1 40.5,-49.12"/>
<polygon fill="none" stroke="#8b1a1a" points="37,-74.94 40.5,-84.94 44,-74.94 37,-74.94"/>
</a>
</g>
</g>
</g>
</svg>
