<?xml version="1.0" encoding="UTF-8" standalone="no"?>
<!DOCTYPE svg PUBLIC "-//W3C//DTD SVG 1.1//EN"
 "http://www.w3.org/Graphics/SVG/1.1/DTD/svg11.dtd">
<!-- Generated by graphviz version 2.43.0 (0)
 -->
<!-- Title: Message Pages: 1 -->
<!--zoomable 187 -->

<svg id="main" version="1.1" xmlns="http://www.w3.org/2000/svg" xmlns:xlink="http://www.w3.org/1999/xlink" xml:space="preserve" onload="init(evt)">
<style type="text/css"><![CDATA[
.node, .edge {opacity: 0.7;}
.node.selected, .edge.selected {opacity: 1;}
.edge:hover path { stroke: red; }
.edge:hover polygon { stroke: red; fill: red; }
]]></style>

<defs>
  <circle id="rim" cx="0" cy="0" r="7"/>
  <circle id="rim2" cx="0" cy="0" r="3.5"/>
  <g id="zoomPlus">
    <use xlink:href="#rim" fill="#404040"><set attributeName="fill" to="#808080" begin="zoomplus.mouseover" end="zoomplus.mouseout"/></use>
    <path d="M-4,0h8M0,-4v8" fill="none" stroke="white" stroke-width="1.5" pointer-events="none"/>
  </g>
  <g id="zoomMin">
    <use xlink:href="#rim" fill="#404040"><set attributeName="fill" to="#808080" begin="zoomminus.mouseover" end="zoomminus.mouseout"/></use>
    <path d="M-4,0h8" fill="none" stroke="white" stroke-width="1.5" pointer-events="none"/>
  </g>
  <g id="arrowUp" transform="translate(30 24)">
    <use xlink:href="#rim"/>
    <path pointer-events="none" fill="none" stroke="white" stroke-width="1.5" d="M0,-3.0v7 M-2.5,-0.5L0,-3.0L2.5,-0.5"/>
  </g>
  <g id="arrowRight" transform="rotate(90) translate(36 -43)">
    <use xlink:href="#rim"/>
    <path pointer-events="none" fill="none" stroke="white" stroke-width="1.5" d="M0,-3.0v7 M-2.5,-0.5L0,-3.0L2.5,-0.5"/>
  </g>
  <g id="arrowDown" transform="rotate(180) translate(-30 -48)">
    <use xlink:href="#rim"/>
    <path pointer-events="none" fill="none" stroke="white" stroke-width="1.5" d="M0,-3.0v7 M-2.5,-0.5L0,-3.0L2.5,-0.5"/>
  </g>
  <g id="arrowLeft" transform="rotate(270) translate(-36 17)">
    <use xlink:href="#rim"/>
    <path pointer-events="none" fill="none" stroke="white" stroke-width="1.5" d="M0,-3.0v7 M-2.5,-0.5L0,-3.0L2.5,-0.5"/>
  </g>
  <g id="resetDef">
    <use xlink:href="#rim2" fill="#404040"><set attributeName="fill" to="#808080" begin="reset.mouseover" end="reset.mouseout"/></use>
  </g>
</defs>
<script type="application/ecmascript">
var viewWidth = 1528;
var viewHeight = 187;
var sectionId = 'dynsection-0';
</script>
<script type="application/ecmascript" xlink:href="svg.min.js"/>
<svg id="graph" class="graph">
<g id="viewport">
<title>Message</title>
<!-- Node1 -->
<g id="Node000001" class="node">
<title>Node1</title>
<g id="a_Node000001"><a xlink:title=" ">
<polygon fill="#999999" stroke="transparent" points="808.5,-179 727.5,-179 727.5,-130 808.5,-130 808.5,-179"/>
<text text-anchor="start" x="746.5" y="-166.5" font-family="Helvetica,sans-Serif" font-size="10.00">Message</text>
<text text-anchor="start" x="766.5" y="-151.5" font-family="Helvetica,sans-Serif" font-size="10.00"> </text>
<text text-anchor="start" x="732" y="-136.5" font-family="Helvetica,sans-Serif" font-size="10.00">+</text>
<text text-anchor="start" x="745" y="-136.5" font-family="Helvetica,sans-Serif" font-size="10.00">~Message()</text>
<polygon fill="#666666" stroke="#666666" points="728,-161.5 728,-161.5 809,-161.5 809,-161.5 728,-161.5"/>
<polygon fill="#666666" stroke="#666666" points="728,-146.5 728,-146.5 809,-146.5 809,-146.5 728,-146.5"/>
<polygon fill="none" stroke="#666666" points="727.5,-130 727.5,-179 808.5,-179 808.5,-130 727.5,-130"/>
</a>
</g>
</g>
<!-- Node2 -->
<g id="Node000002" class="node">
<title>Node2</title>
<g id="a_Node000002"><a xlink:href="classAckBB.html" target="_top" xlink:title=" ">
<polygon fill="white" stroke="transparent" points="64,-79 0,-79 0,-15 64,-15 64,-79"/>
<text text-anchor="start" x="16" y="-67" font-family="Helvetica,sans-Serif" font-size="10.00">AckBB</text>
<text text-anchor="start" x="4" y="-52" font-family="Helvetica,sans-Serif" font-size="10.00">+</text>
<text text-anchor="start" x="17" y="-52" font-family="Helvetica,sans-Serif" font-size="10.00">tank</text>
<text text-anchor="start" x="4" y="-37" font-family="Helvetica,sans-Serif" font-size="10.00">+</text>
<text text-anchor="start" x="17" y="-37" font-family="Helvetica,sans-Serif" font-size="10.00">enlabled</text>
<text text-anchor="start" x="30" y="-22" font-family="Helvetica,sans-Serif" font-size="10.00"> </text>
<polygon fill="#666666" stroke="#666666" points="0,-62 0,-62 64,-62 64,-62 0,-62"/>
<polygon fill="#666666" stroke="#666666" points="0,-32 0,-32 15,-32 15,-32 0,-32"/>
<polygon fill="#666666" stroke="#666666" points="15,-32 15,-32 64,-32 64,-32 15,-32"/>
<polygon fill="none" stroke="#666666" points="0,-15 0,-79 64,-79 64,-15 0,-15"/>
</a>
</g>
</g>
<!-- Node1&#45;&gt;Node2 -->
<g id="edge1_Node000001_Node000002" class="edge">
<title>Node1&#45;&gt;Node2</title>
<g id="a_edge1_Node000001_Node000002"><a xlink:title=" ">
<path fill="none" stroke="#8b1a1a" d="M717.31,-153.95C576.94,-154.45 186.04,-150.59 73,-94 65.92,-90.46 59.51,-85.12 53.97,-79.32"/>
<polygon fill="none" stroke="#8b1a1a" points="717.39,-157.45 727.37,-153.9 717.36,-150.45 717.39,-157.45"/>
</a>
</g>
</g>
<!-- Node3 -->
<g id="Node000003" class="node">
<title>Node3</title>
<g id="a_Node000003"><a xlink:href="classBBControlCommand.html" target="_top" xlink:title=" ">
<polygon fill="white" stroke="transparent" points="192,-79 82,-79 82,-15 192,-15 192,-79"/>
<text text-anchor="start" x="87" y="-67" font-family="Helvetica,sans-Serif" font-size="10.00">BBControlCommand</text>
<text text-anchor="start" x="95" y="-52" font-family="Helvetica,sans-Serif" font-size="10.00">+</text>
<text text-anchor="start" x="117" y="-52" font-family="Helvetica,sans-Serif" font-size="10.00">tankName</text>
<text text-anchor="start" x="95" y="-37" font-family="Helvetica,sans-Serif" font-size="10.00">+</text>
<text text-anchor="start" x="117" y="-37" font-family="Helvetica,sans-Serif" font-size="10.00">activated</text>
<text text-anchor="start" x="135" y="-22" font-family="Helvetica,sans-Serif" font-size="10.00"> </text>
<polygon fill="#666666" stroke="#666666" points="82,-62 82,-62 192,-62 192,-62 82,-62"/>
<polygon fill="#666666" stroke="#666666" points="82,-32 82,-32 115,-32 115,-32 82,-32"/>
<polygon fill="#666666" stroke="#666666" points="115,-32 115,-32 192,-32 192,-32 115,-32"/>
<polygon fill="none" stroke="#666666" points="82,-15 82,-79 192,-79 192,-15 82,-15"/>
</a>
</g>
</g>
<!-- Node1&#45;&gt;Node3 -->
<g id="edge2_Node000001_Node000003" class="edge">
<title>Node1&#45;&gt;Node3</title>
<g id="a_edge2_Node000001_Node000003"><a xlink:title=" ">
<path fill="none" stroke="#8b1a1a" d="M717.37,-151.51C596.64,-146.23 294.92,-129.77 201,-94 191.54,-90.4 182.2,-85.03 173.7,-79.23"/>
<polygon fill="none" stroke="#8b1a1a" points="717.32,-155.01 727.46,-151.94 717.62,-148.02 717.32,-155.01"/>
</a>
</g>
</g>
<!-- Node4 -->
<g id="Node000004" class="node">
<title>Node4</title>
<g id="a_Node000004"><a xlink:href="classGlowPlugCommand.html" target="_top" xlink:title=" ">
<polygon fill="white" stroke="transparent" points="317.5,-79 210.5,-79 210.5,-15 317.5,-15 317.5,-79"/>
<text text-anchor="start" x="216" y="-67" font-family="Helvetica,sans-Serif" font-size="10.00">GlowPlugCommand</text>
<text text-anchor="start" x="218" y="-52" font-family="Helvetica,sans-Serif" font-size="10.00">+</text>
<text text-anchor="start" x="234" y="-52" font-family="Helvetica,sans-Serif" font-size="10.00">glowPlugName</text>
<text text-anchor="start" x="218" y="-37" font-family="Helvetica,sans-Serif" font-size="10.00">+</text>
<text text-anchor="start" x="234" y="-37" font-family="Helvetica,sans-Serif" font-size="10.00">on</text>
<text text-anchor="start" x="262.5" y="-22" font-family="Helvetica,sans-Serif" font-size="10.00"> </text>
<polygon fill="#666666" stroke="#666666" points="211,-62 211,-62 318,-62 318,-62 211,-62"/>
<polygon fill="#666666" stroke="#666666" points="211,-32 211,-32 232,-32 232,-32 211,-32"/>
<polygon fill="#666666" stroke="#666666" points="232,-32 232,-32 318,-32 318,-32 232,-32"/>
<polygon fill="none" stroke="#666666" points="210.5,-15 210.5,-79 317.5,-79 317.5,-15 210.5,-15"/>
</a>
</g>
</g>
<!-- Node1&#45;&gt;Node4 -->
<g id="edge3_Node000001_Node000004" class="edge">
<title>Node1&#45;&gt;Node4</title>
<g id="a_edge3_Node000001_Node000004"><a xlink:title=" ">
<path fill="none" stroke="#8b1a1a" d="M717.24,-149.8C616.94,-141.99 397.01,-122.16 327,-94 317.7,-90.26 308.52,-84.84 300.15,-79.02"/>
<polygon fill="none" stroke="#8b1a1a" points="717.19,-153.31 727.43,-150.59 717.73,-146.33 717.19,-153.31"/>
</a>
</g>
</g>
<!-- Node5 -->
<g id="Node000005" class="node">
<title>Node5</title>
<g id="a_Node000005"><a xlink:href="classSensorReading.html" target="_top" xlink:title=" ">
<polygon fill="white" stroke="transparent" points="440,-94 336,-94 336,0 440,0 440,-94"/>
<text text-anchor="start" x="351.5" y="-82" font-family="Helvetica,sans-Serif" font-size="10.00">SensorReading</text>
<text text-anchor="start" x="340" y="-67" font-family="Helvetica,sans-Serif" font-size="10.00">+</text>
<text text-anchor="start" x="353" y="-67" font-family="Helvetica,sans-Serif" font-size="10.00">value</text>
<text text-anchor="start" x="340" y="-52" font-family="Helvetica,sans-Serif" font-size="10.00">+</text>
<text text-anchor="start" x="353" y="-52" font-family="Helvetica,sans-Serif" font-size="10.00">unit</text>
<text text-anchor="start" x="340" y="-37" font-family="Helvetica,sans-Serif" font-size="10.00">+</text>
<text text-anchor="start" x="353" y="-37" font-family="Helvetica,sans-Serif" font-size="10.00">decimals</text>
<text text-anchor="start" x="340" y="-22" font-family="Helvetica,sans-Serif" font-size="10.00">+</text>
<text text-anchor="start" x="353" y="-22" font-family="Helvetica,sans-Serif" font-size="10.00">prefix</text>
<text text-anchor="start" x="340" y="-7" font-family="Helvetica,sans-Serif" font-size="10.00">+</text>
<text text-anchor="start" x="353" y="-7" font-family="Helvetica,sans-Serif" font-size="10.00">toDisplayString()</text>
<polygon fill="#666666" stroke="#666666" points="336,-77 336,-77 440,-77 440,-77 336,-77"/>
<polygon fill="#666666" stroke="#666666" points="336,-17 336,-17 351,-17 351,-17 336,-17"/>
<polygon fill="#666666" stroke="#666666" points="351,-17 351,-17 440,-17 440,-17 351,-17"/>
<polygon fill="none" stroke="#666666" points="336,0 336,-94 440,-94 440,0 336,0"/>
</a>
</g>
</g>
<!-- Node1&#45;&gt;Node5 -->
<g id="edge4_Node000001_Node000005" class="edge">
<title>Node1&#45;&gt;Node5</title>
<g id="a_edge4_Node000001_Node000005"><a xlink:title=" ">
<path fill="none" stroke="#8b1a1a" d="M717.13,-151.18C652.34,-146.65 538.12,-133.29 449,-94 446.09,-92.72 443.18,-91.27 440.32,-89.7"/>
<polygon fill="none" stroke="#8b1a1a" points="717.27,-154.7 727.48,-151.86 717.73,-147.71 717.27,-154.7"/>
</a>
</g>
</g>
<!-- Node6 -->
<g id="Node000006" class="node">
<title>Node6</title>
<g id="a_Node000006"><a xlink:href="classSequenceCommand.html" target="_top" xlink:title=" ">
<polygon fill="white" stroke="transparent" points="566,-71.5 458,-71.5 458,-22.5 566,-22.5 566,-71.5"/>
<text text-anchor="start" x="463" y="-59" font-family="Helvetica,sans-Serif" font-size="10.00">SequenceCommand</text>
<text text-anchor="start" x="475.5" y="-44" font-family="Helvetica,sans-Serif" font-size="10.00">+</text>
<text text-anchor="start" x="502" y="-44" font-family="Helvetica,sans-Serif" font-size="10.00">values</text>
<text text-anchor="start" x="510" y="-29" font-family="Helvetica,sans-Serif" font-size="10.00"> </text>
<polygon fill="#666666" stroke="#666666" points="458,-54 458,-54 566,-54 566,-54 458,-54"/>
<polygon fill="#666666" stroke="#666666" points="458,-39 458,-39 500,-39 500,-39 458,-39"/>
<polygon fill="#666666" stroke="#666666" points="500,-39 500,-39 566,-39 566,-39 500,-39"/>
<polygon fill="none" stroke="#666666" points="458,-22.5 458,-71.5 566,-71.5 566,-22.5 458,-22.5"/>
</a>
</g>
</g>
<!-- Node1&#45;&gt;Node6 -->
<g id="edge5_Node000001_Node000006" class="edge">
<title>Node1&#45;&gt;Node6</title>
<g id="a_edge5_Node000001_Node000006"><a xlink:title=" ">
<path fill="none" stroke="#8b1a1a" d="M717.54,-142.81C677.55,-133.2 620.94,-117.04 575,-94 562.89,-87.93 550.63,-79.58 540.19,-71.66"/>
<polygon fill="none" stroke="#8b1a1a" points="716.8,-146.23 727.34,-145.11 718.4,-139.42 716.8,-146.23"/>
</a>
</g>
</g>
<!-- Node7 -->
<g id="Node000007" class="node">
<title>Node7</title>
<g id="a_Node000007"><a xlink:href="classSequenceFileFrame.html" target="_top" xlink:title=" ">
<polygon fill="white" stroke="transparent" points="690,-86.5 584,-86.5 584,-7.5 690,-7.5 690,-86.5"/>
<text text-anchor="start" x="589" y="-74" font-family="Helvetica,sans-Serif" font-size="10.00">SequenceFileFrame</text>
<text text-anchor="start" x="595" y="-59" font-family="Helvetica,sans-Serif" font-size="10.00">+</text>
<text text-anchor="start" x="615" y="-59" font-family="Helvetica,sans-Serif" font-size="10.00">name</text>
<text text-anchor="start" x="595" y="-44" font-family="Helvetica,sans-Serif" font-size="10.00">+</text>
<text text-anchor="start" x="615" y="-44" font-family="Helvetica,sans-Serif" font-size="10.00">path</text>
<text text-anchor="start" x="595" y="-29" font-family="Helvetica,sans-Serif" font-size="10.00">+</text>
<text text-anchor="start" x="615" y="-29" font-family="Helvetica,sans-Serif" font-size="10.00">parameters</text>
<text text-anchor="start" x="635" y="-14" font-family="Helvetica,sans-Serif" font-size="10.00"> </text>
<polygon fill="#666666" stroke="#666666" points="584,-69 584,-69 690,-69 690,-69 584,-69"/>
<polygon fill="#666666" stroke="#666666" points="584,-24 584,-24 613,-24 613,-24 584,-24"/>
<polygon fill="#666666" stroke="#666666" points="613,-24 613,-24 690,-24 690,-24 613,-24"/>
<polygon fill="none" stroke="#666666" points="584,-7.5 584,-86.5 690,-86.5 690,-7.5 584,-7.5"/>
</a>
</g>
</g>
<!-- Node1&#45;&gt;Node7 -->
<g id="edge6_Node000001_Node000007" class="edge">
<title>Node1&#45;&gt;Node7</title>
<g id="a_edge6_Node000001_Node000007"><a xlink:title=" ">
<path fill="none" stroke="#8b1a1a" d="M730.5,-123.3C716.27,-111.84 699.87,-98.63 684.81,-86.5"/>
<polygon fill="none" stroke="#8b1a1a" points="728.62,-126.28 738.6,-129.82 733.01,-120.83 728.62,-126.28"/>
</a>
</g>
</g>
<!-- Node8 -->
<g id="Node000008" class="node">
<title>Node8</title>
<g id="a_Node000008"><a xlink:href="classSetPressureCommand.html" target="_top" xlink:title=" ">
<polygon fill="white" stroke="transparent" points="827.5,-79 708.5,-79 708.5,-15 827.5,-15 827.5,-79"/>
<text text-anchor="start" x="714" y="-67" font-family="Helvetica,sans-Serif" font-size="10.00">SetPressureCommand</text>
<text text-anchor="start" x="724.5" y="-52" font-family="Helvetica,sans-Serif" font-size="10.00">+</text>
<text text-anchor="start" x="749" y="-52" font-family="Helvetica,sans-Serif" font-size="10.00">tankName</text>
<text text-anchor="start" x="724.5" y="-37" font-family="Helvetica,sans-Serif" font-size="10.00">+</text>
<text text-anchor="start" x="749" y="-37" font-family="Helvetica,sans-Serif" font-size="10.00">pressure</text>
<text text-anchor="start" x="766.5" y="-22" font-family="Helvetica,sans-Serif" font-size="10.00"> </text>
<polygon fill="#666666" stroke="#666666" points="709,-62 709,-62 828,-62 828,-62 709,-62"/>
<polygon fill="#666666" stroke="#666666" points="709,-32 709,-32 747,-32 747,-32 709,-32"/>
<polygon fill="#666666" stroke="#666666" points="747,-32 747,-32 828,-32 828,-32 747,-32"/>
<polygon fill="none" stroke="#666666" points="708.5,-15 708.5,-79 827.5,-79 827.5,-15 708.5,-15"/>
</a>
</g>
</g>
<!-- Node1&#45;&gt;Node8 -->
<g id="edge7_Node000001_Node000008" class="edge">
<title>Node1&#45;&gt;Node8</title>
<g id="a_edge7_Node000001_Node000008"><a xlink:title=" ">
<path fill="none" stroke="#8b1a1a" d="M768,-119.45C768,-106.52 768,-91.86 768,-79.21"/>
<polygon fill="none" stroke="#8b1a1a" points="764.5,-119.82 768,-129.82 771.5,-119.82 764.5,-119.82"/>
</a>
</g>
</g>
<!-- Node9 -->
<g id="Node000009" class="node">
<title>Node9</title>
<g id="a_Node000009"><a xlink:href="classTVCTestCommand.html" target="_top" xlink:title=" ">
<polygon fill="white" stroke="transparent" points="946,-71.5 846,-71.5 846,-22.5 946,-22.5 946,-71.5"/>
<text text-anchor="start" x="851" y="-59" font-family="Helvetica,sans-Serif" font-size="10.00">TVCTestCommand</text>
<text text-anchor="start" x="862" y="-44" font-family="Helvetica,sans-Serif" font-size="10.00">+</text>
<text text-anchor="start" x="887" y="-44" font-family="Helvetica,sans-Serif" font-size="10.00">shape</text>
<text text-anchor="start" x="894" y="-29" font-family="Helvetica,sans-Serif" font-size="10.00"> </text>
<polygon fill="#666666" stroke="#666666" points="846,-54 846,-54 946,-54 946,-54 846,-54"/>
<polygon fill="#666666" stroke="#666666" points="846,-39 846,-39 885,-39 885,-39 846,-39"/>
<polygon fill="#666666" stroke="#666666" points="885,-39 885,-39 946,-39 946,-39 885,-39"/>
<polygon fill="none" stroke="#666666" points="846,-22.5 846,-71.5 946,-71.5 946,-22.5 846,-22.5"/>
</a>
</g>
</g>
<!-- Node1&#45;&gt;Node9 -->
<g id="edge8_Node000001_Node000009" class="edge">
<title>Node1&#45;&gt;Node9</title>
<g id="a_edge8_Node000001_Node000009"><a xlink:title=" ">
<path fill="none" stroke="#8b1a1a" d="M804.68,-123.26C824.6,-106.85 848.86,-86.85 867.37,-71.6"/>
<polygon fill="none" stroke="#8b1a1a" points="802.22,-120.76 796.73,-129.82 806.67,-126.16 802.22,-120.76"/>
</a>
</g>
</g>
<!-- Node10 -->
<g id="Node000010" class="node">
<title>Node10</title>
<g id="a_Node000010"><a xlink:href="classTestAbortionCommand.html" target="_top" xlink:title=" ">
<polygon fill="white" stroke="transparent" points="1086,-71.5 964,-71.5 964,-22.5 1086,-22.5 1086,-71.5"/>
<text text-anchor="start" x="969" y="-59" font-family="Helvetica,sans-Serif" font-size="10.00">TestAbortionCommand</text>
<text text-anchor="start" x="1023" y="-44" font-family="Helvetica,sans-Serif" font-size="10.00"> </text>
<text text-anchor="start" x="1023" y="-29" font-family="Helvetica,sans-Serif" font-size="10.00"> </text>
<polygon fill="#666666" stroke="#666666" points="964,-54 964,-54 1086,-54 1086,-54 964,-54"/>
<polygon fill="#666666" stroke="#666666" points="964,-39 964,-39 1086,-39 1086,-39 964,-39"/>
<polygon fill="none" stroke="#666666" points="964,-22.5 964,-71.5 1086,-71.5 1086,-22.5 964,-22.5"/>
</a>
</g>
</g>
<!-- Node1&#45;&gt;Node10 -->
<g id="edge9_Node000001_Node000010" class="edge">
<title>Node1&#45;&gt;Node10</title>
<g id="a_edge9_Node000001_Node000010"><a xlink:title=" ">
<path fill="none" stroke="#8b1a1a" d="M818.53,-141.44C856.99,-131.32 910.68,-115.12 955,-94 968,-87.81 981.41,-79.52 992.97,-71.69"/>
<polygon fill="none" stroke="#8b1a1a" points="817.41,-138.12 808.6,-144.01 819.16,-144.9 817.41,-138.12"/>
</a>
</g>
</g>
<!-- Node11 -->
<g id="Node000011" class="node">
<title>Node11</title>
<g id="a_Node000011"><a xlink:href="classTestLauchConfirmation.html" target="_top" xlink:title=" ">
<polygon fill="white" stroke="transparent" points="1226,-71.5 1104,-71.5 1104,-22.5 1226,-22.5 1226,-71.5"/>
<text text-anchor="start" x="1109" y="-59" font-family="Helvetica,sans-Serif" font-size="10.00">TestLauchConfirmation</text>
<text text-anchor="start" x="1163" y="-44" font-family="Helvetica,sans-Serif" font-size="10.00"> </text>
<text text-anchor="start" x="1163" y="-29" font-family="Helvetica,sans-Serif" font-size="10.00"> </text>
<polygon fill="#666666" stroke="#666666" points="1104,-54 1104,-54 1226,-54 1226,-54 1104,-54"/>
<polygon fill="#666666" stroke="#666666" points="1104,-39 1104,-39 1226,-39 1226,-39 1104,-39"/>
<polygon fill="none" stroke="#666666" points="1104,-22.5 1104,-71.5 1226,-71.5 1226,-22.5 1104,-22.5"/>
</a>
</g>
</g>
<!-- Node1&#45;&gt;Node11 -->
<g id="edge10_Node000001_Node000011" class="edge">
<title>Node1&#45;&gt;Node11</title>
<g id="a_edge10_Node000001_Node000011"><a xlink:title=" ">
<path fill="none" stroke="#8b1a1a" d="M818.8,-150.55C884.61,-145.34 1001.94,-131.24 1095,-94 1108.91,-88.43 1122.95,-79.9 1134.78,-71.69"/>
<polygon fill="none" stroke="#8b1a1a" points="818.4,-147.07 808.69,-151.32 818.92,-154.05 818.4,-147.07"/>
</a>
</g>
</g>
<!-- Node12 -->
<g id="Node000012" class="node">
<title>Node12</title>
<g id="a_Node000012"><a xlink:href="classTextMessage.html" target="_top" xlink:title=" ">
<polygon fill="white" stroke="transparent" points="1318,-79 1244,-79 1244,-15 1318,-15 1318,-79"/>
<text text-anchor="start" x="1249" y="-67" font-family="Helvetica,sans-Serif" font-size="10.00">TextMessage</text>
<text text-anchor="start" x="1255" y="-52" font-family="Helvetica,sans-Serif" font-size="10.00">+</text>
<text text-anchor="start" x="1275" y="-52" font-family="Helvetica,sans-Serif" font-size="10.00">level</text>
<text text-anchor="start" x="1255" y="-37" font-family="Helvetica,sans-Serif" font-size="10.00">+</text>
<text text-anchor="start" x="1275" y="-37" font-family="Helvetica,sans-Serif" font-size="10.00">text</text>
<text text-anchor="start" x="1279" y="-22" font-family="Helvetica,sans-Serif" font-size="10.00"> </text>
<polygon fill="#666666" stroke="#666666" points="1244,-62 1244,-62 1318,-62 1318,-62 1244,-62"/>
<polygon fill="#666666" stroke="#666666" points="1244,-32 1244,-32 1273,-32 1273,-32 1244,-32"/>
<polygon fill="#666666" stroke="#666666" points="1273,-32 1273,-32 1318,-32 1318,-32 1273,-32"/>
<polygon fill="none" stroke="#666666" points="1244,-15 1244,-79 1318,-79 1318,-15 1244,-15"/>
</a>
</g>
</g>
<!-- Node1&#45;&gt;Node12 -->
<g id="edge11_Node000001_Node000012" class="edge">
<title>Node1&#45;&gt;Node12</title>
<g id="a_edge11_Node000001_Node000012"><a xlink:title=" ">
<path fill="none" stroke="#8b1a1a" d="M818.78,-151.16C924.11,-145.65 1162.57,-129.53 1235,-94 1242.5,-90.32 1249.51,-84.92 1255.69,-79.11"/>
<polygon fill="none" stroke="#8b1a1a" points="818.52,-147.67 808.71,-151.68 818.88,-154.66 818.52,-147.67"/>
</a>
</g>
</g>
<!-- Node13 -->
<g id="Node000013" class="node">
<title>Node13</title>
<g id="a_Node000013"><a xlink:href="classValveCommand.html" target="_top" xlink:title=" ">
<polygon fill="white" stroke="transparent" points="1424,-79 1336,-79 1336,-15 1424,-15 1424,-79"/>
<text text-anchor="start" x="1341" y="-67" font-family="Helvetica,sans-Serif" font-size="10.00">ValveCommand</text>
<text text-anchor="start" x="1342.5" y="-52" font-family="Helvetica,sans-Serif" font-size="10.00">+</text>
<text text-anchor="start" x="1358" y="-52" font-family="Helvetica,sans-Serif" font-size="10.00">valveName</text>
<text text-anchor="start" x="1342.5" y="-37" font-family="Helvetica,sans-Serif" font-size="10.00">+</text>
<text text-anchor="start" x="1358" y="-37" font-family="Helvetica,sans-Serif" font-size="10.00">closed</text>
<text text-anchor="start" x="1378" y="-22" font-family="Helvetica,sans-Serif" font-size="10.00"> </text>
<polygon fill="#666666" stroke="#666666" points="1336,-62 1336,-62 1424,-62 1424,-62 1336,-62"/>
<polygon fill="#666666" stroke="#666666" points="1336,-32 1336,-32 1356,-32 1356,-32 1336,-32"/>
<polygon fill="#666666" stroke="#666666" points="1356,-32 1356,-32 1424,-32 1424,-32 1356,-32"/>
<polygon fill="none" stroke="#666666" points="1336,-15 1336,-79 1424,-79 1424,-15 1336,-15"/>
</a>
</g>
</g>
<!-- Node1&#45;&gt;Node13 -->
<g id="edge12_Node000001_Node000013" class="edge">
<title>Node1&#45;&gt;Node13</title>
<g id="a_edge12_Node000001_Node000013"><a xlink:title=" ">
<path fill="none" stroke="#8b1a1a" d="M818.57,-151.98C938.37,-147.76 1236.24,-133.49 1327,-94 1335.38,-90.35 1343.4,-84.9 1350.55,-79"/>
<polygon fill="none" stroke="#8b1a1a" points="818.43,-148.48 808.55,-152.32 818.67,-155.48 818.43,-148.48"/>
</a>
</g>
</g>
<!-- Node14 -->
<g id="Node000014" class="node">
<title>Node14</title>
<g id="a_Node000014"><a xlink:href="classValveReading.html" target="_top" xlink:title=" ">
<polygon fill="white" stroke="transparent" points="1519.5,-71.5 1442.5,-71.5 1442.5,-22.5 1519.5,-22.5 1519.5,-71.5"/>
<text text-anchor="start" x="1448" y="-59" font-family="Helvetica,sans-Serif" font-size="10.00">ValveReading</text>
<text text-anchor="start" x="1453" y="-44" font-family="Helvetica,sans-Serif" font-size="10.00">+</text>
<text text-anchor="start" x="1472" y="-44" font-family="Helvetica,sans-Serif" font-size="10.00">status</text>
<text text-anchor="start" x="1479.5" y="-29" font-family="Helvetica,sans-Serif" font-size="10.00"> </text>
<polygon fill="#666666" stroke="#666666" points="1443,-54 1443,-54 1520,-54 1520,-54 1443,-54"/>
<polygon fill="#666666" stroke="#666666" points="1443,-39 1443,-39 1470,-39 1470,-39 1443,-39"/>
<polygon fill="#666666" stroke="#666666" points="1470,-39 1470,-39 1520,-39 1520,-39 1470,-39"/>
<polygon fill="none" stroke="#666666" points="1442.5,-22.5 1442.5,-71.5 1519.5,-71.5 1519.5,-22.5 1442.5,-22.5"/>
</a>
</g>
</g>
<!-- Node1&#45;&gt;Node14 -->
<g id="edge13_Node000001_Node000014" class="edge">
<title>Node1&#45;&gt;Node14</title>
<g id="a_edge13_Node000001_Node000014"><a xlink:title=" ">
<path fill="none" stroke="#8b1a1a" d="M819.07,-153.26C955.16,-151.94 1323.6,-143.73 1433,-94 1444.14,-88.94 1454.28,-80.18 1462.35,-71.66"/>
<polygon fill="none" stroke="#8b1a1a" points="818.89,-149.76 808.92,-153.35 818.95,-156.76 818.89,-149.76"/>
</a>
</g>
</g>
</g>
</svg>

<g id="navigator" transform="translate(0 0)" fill="#404254">
  <rect fill="#f2f5e9" fill-opacity="0.5" stroke="#606060" stroke-width=".5" x="0" y="0" width="60" height="60"/>
  <use id="zoomplus" xlink:href="#zoomPlus" x="17" y="9" onmousedown="handleZoom(evt,'in')"/>
  <use id="zoomminus" xlink:href="#zoomMin" x="42" y="9" onmousedown="handleZoom(evt,'out')"/>
  <use id="reset" xlink:href="#resetDef" x="30" y="36" onmousedown="handleReset()"/>
   <use id="arrowup" xlink:href="#arrowUp" x="0" y="0" onmousedown="handlePan(0,-1)"/>
  <use id="arrowright" xlink:href="#arrowRight" x="0" y="0" onmousedown="handlePan(1,0)"/>
  <use id="arrowdown" xlink:href="#arrowDown" x="0" y="0" onmousedown="handlePan(0,1)"/>
  <use id="arrowleft" xlink:href="#arrowLeft" x="0" y="0" onmousedown="handlePan(-1,0)"/>
</g>
<svg viewBox="0 0 15 15" width="100%" height="30px" preserveAspectRatio="xMaxYMin meet">
 <g id="arrow_out" transform="scale(0.3 0.3)">
  <a xlink:href="classMessage__inherit__graph_org.svg" target="_base">
   <rect id="button" ry="5" rx="5" y="6" x="6" height="38" width="38"
        fill="#f2f5e9" fill-opacity="0.5" stroke="#606060" stroke-width="1.0"/>
   <path id="arrow"
     d="M 11.500037,31.436501 C 11.940474,20.09759 22.043105,11.32322 32.158766,21.979434 L 37.068811,17.246167 C 37.068811,17.246167 37.088388,32 37.088388,32 L 22.160133,31.978069 C 22.160133,31.978069 26.997745,27.140456 26.997745,27.140456 C 18.528582,18.264221 13.291696,25.230495 11.500037,31.436501 z"
     style="fill:#404040;"/>
  </a>
 </g>
</svg>

<style type='text/css'>
<![CDATA[
[data-mouse-over-selected='false'] { opacity: 0.7; }
[data-mouse-over-selected='true']  { opacity: 1.0; }
]]>
</style>
<script type="application/ecmascript"><![CDATA[
document.addEventListener('DOMContentLoaded', (event) => {
  highlightEdges();
  highlightAdjacentNodes();
});
]]></script>
</svg>
