<?xml version="1.0" encoding="UTF-8" standalone="no"?>
<!DOCTYPE svg PUBLIC "-//W3C//DTD SVG 1.1//EN"
 "http://www.w3.org/Graphics/SVG/1.1/DTD/svg11.dtd">
<!-- Generated by graphviz version 2.43.0 (0)
 -->
<!-- Title: PlotViewModel::curveParameters Pages: 1 -->
<svg width="641pt" height="76pt"
 viewBox="0.00 0.00 641.00 75.50" xmlns="http://www.w3.org/2000/svg" xmlns:xlink="http://www.w3.org/1999/xlink">
<g id="graph0" class="graph" transform="scale(1 1) rotate(0) translate(4 71.5)">
<title>PlotViewModel::curveParameters</title>
<!-- Node1 -->
<g id="Node000001" class="node">
<title>Node1</title>
<g id="a_Node000001"><a xlink:title=" ">
<polygon fill="#999999" stroke="#666666" points="633,-45.5 455,-45.5 455,-26.5 633,-26.5 633,-45.5"/>
<text text-anchor="middle" x="544" y="-33.5" font-family="Helvetica,sans-Serif" font-size="10.00">PlotViewModel::curveParameters</text>
</a>
</g>
</g>
<!-- Node2 -->
<g id="Node000002" class="node">
<title>Node2</title>
<g id="a_Node000002"><a xlink:href="classPlot.html#a35a46b3d250dc882d2ca1c90ab9c12fd" target="_top" xlink:title=" ">
<polygon fill="white" stroke="#666666" points="419,-65.5 294,-65.5 294,-46.5 419,-46.5 419,-65.5"/>
<text text-anchor="middle" x="356.5" y="-53.5" font-family="Helvetica,sans-Serif" font-size="10.00">Plot::initialiseBindings</text>
</a>
</g>
</g>
<!-- Node1&#45;&gt;Node2 -->
<g id="edge1_Node000001_Node000002" class="edge">
<title>Node1&#45;&gt;Node2</title>
<g id="a_edge1_Node000001_Node000002"><a xlink:title=" ">
<path fill="none" stroke="#63b8ff" d="M444.69,-46.6C436.02,-47.53 427.43,-48.46 419.2,-49.35"/>
<polygon fill="#63b8ff" stroke="#63b8ff" points="445.3,-50.05 454.87,-45.5 444.55,-43.09 445.3,-50.05"/>
</a>
</g>
</g>
<!-- Node5 -->
<g id="Node000005" class="node">
<title>Node5</title>
<g id="a_Node000005"><a xlink:href="classPlot.html#adedd221334385b32009b2cc40bf0c593" target="_top" xlink:title=" ">
<polygon fill="white" stroke="#666666" points="248.5,-30 105.5,-30 105.5,0 248.5,0 248.5,-30"/>
<text text-anchor="start" x="113.5" y="-18" font-family="Helvetica,sans-Serif" font-size="10.00">Plot::onCurvesParameters</text>
<text text-anchor="middle" x="177" y="-7" font-family="Helvetica,sans-Serif" font-size="10.00">Changed</text>
</a>
</g>
</g>
<!-- Node1&#45;&gt;Node5 -->
<g id="edge4_Node000001_Node000005" class="edge">
<title>Node1&#45;&gt;Node5</title>
<g id="a_edge4_Node000001_Node000005"><a xlink:title=" ">
<path fill="none" stroke="#63b8ff" d="M444.48,-30.33C382.67,-26.78 304.43,-22.27 248.75,-19.07"/>
<polygon fill="#63b8ff" stroke="#63b8ff" points="444.46,-33.84 454.64,-30.92 444.86,-26.85 444.46,-33.84"/>
</a>
</g>
</g>
<!-- Node3 -->
<g id="Node000003" class="node">
<title>Node3</title>
<g id="a_Node000003"><a xlink:href="classPlot.html#a74f12fae74e90c87c72cab9f0d2da28d" target="_top" xlink:title=" ">
<polygon fill="white" stroke="#666666" points="258,-67.5 96,-67.5 96,-48.5 258,-48.5 258,-67.5"/>
<text text-anchor="middle" x="177" y="-55.5" font-family="Helvetica,sans-Serif" font-size="10.00">Plot::onCurvesValuesChanged</text>
</a>
</g>
</g>
<!-- Node2&#45;&gt;Node3 -->
<g id="edge2_Node000002_Node000003" class="edge">
<title>Node2&#45;&gt;Node3</title>
<g id="a_edge2_Node000002_Node000003"><a xlink:title=" ">
<path fill="none" stroke="#63b8ff" d="M283.78,-56.81C275.37,-56.9 266.75,-57 258.23,-57.1"/>
<polygon fill="#63b8ff" stroke="#63b8ff" points="283.96,-60.31 293.92,-56.69 283.88,-53.31 283.96,-60.31"/>
</a>
</g>
</g>
<!-- Node4 -->
<g id="Node000004" class="node">
<title>Node4</title>
<g id="a_Node000004"><a xlink:href="classPlot.html#a5b4b38ebab6fc69bd007d591c2bc61e3" target="_top" xlink:title=" ">
<polygon fill="white" stroke="#666666" points="60,-45.5 0,-45.5 0,-26.5 60,-26.5 60,-45.5"/>
<text text-anchor="middle" x="30" y="-33.5" font-family="Helvetica,sans-Serif" font-size="10.00">Plot::Plot</text>
</a>
</g>
</g>
<!-- Node3&#45;&gt;Node4 -->
<g id="edge3_Node000003_Node000004" class="edge">
<title>Node3&#45;&gt;Node4</title>
<g id="a_edge3_Node000003_Node000004"><a xlink:title=" ">
<path fill="none" stroke="#63b8ff" d="M103.2,-46.96C87.89,-44.63 72.59,-42.31 60.04,-40.41"/>
<polygon fill="#63b8ff" stroke="#63b8ff" points="102.83,-50.44 113.24,-48.48 103.88,-43.52 102.83,-50.44"/>
</a>
</g>
</g>
<!-- Node5&#45;&gt;Node4 -->
<g id="edge5_Node000005_Node000004" class="edge">
<title>Node5&#45;&gt;Node4</title>
<g id="a_edge5_Node000005_Node000004"><a xlink:title=" ">
<path fill="none" stroke="#63b8ff" d="M95.11,-26.71C82.59,-28.53 70.41,-30.29 60.09,-31.79"/>
<polygon fill="#63b8ff" stroke="#63b8ff" points="95.8,-30.15 105.2,-25.25 94.8,-23.22 95.8,-30.15"/>
</a>
</g>
</g>
</g>
</svg>
