<?xml version="1.0" encoding="UTF-8" standalone="no"?>
<!DOCTYPE svg PUBLIC "-//W3C//DTD SVG 1.1//EN"
 "http://www.w3.org/Graphics/SVG/1.1/DTD/svg11.dtd">
<!-- Generated by graphviz version 2.43.0 (0)
 -->
<!-- Title: ActuatorSwitchViewModel::disable Pages: 1 -->
<svg width="480pt" height="38pt"
 viewBox="0.00 0.00 480.00 38.00" xmlns="http://www.w3.org/2000/svg" xmlns:xlink="http://www.w3.org/1999/xlink">
<g id="graph0" class="graph" transform="scale(1 1) rotate(0) translate(4 34)">
<title>ActuatorSwitchViewModel::disable</title>
<!-- Node1 -->
<g id="Node000001" class="node">
<title>Node1</title>
<g id="a_Node000001"><a xlink:title=" ">
<polygon fill="#999999" stroke="#666666" points="144,-30 0,-30 0,0 144,0 144,-30"/>
<text text-anchor="start" x="8" y="-18" font-family="Helvetica,sans-Serif" font-size="10.00">ActuatorSwitchViewModel</text>
<text text-anchor="middle" x="72" y="-7" font-family="Helvetica,sans-Serif" font-size="10.00">::disable</text>
</a>
</g>
</g>
<!-- Node2 -->
<g id="Node000002" class="node">
<title>Node2</title>
<g id="a_Node000002"><a xlink:href="classUdpChannel.html#a439664ce9bf094d21d0234a1943dfc07" target="_top" xlink:title=" ">
<polygon fill="white" stroke="#666666" points="308,-24.5 180,-24.5 180,-5.5 308,-5.5 308,-24.5"/>
<text text-anchor="middle" x="244" y="-12.5" font-family="Helvetica,sans-Serif" font-size="10.00">UdpChannel::sendData</text>
</a>
</g>
</g>
<!-- Node1&#45;&gt;Node2 -->
<g id="edge1_Node000001_Node000002" class="edge">
<title>Node1&#45;&gt;Node2</title>
<g id="a_edge1_Node000001_Node000002"><a xlink:title=" ">
<path fill="none" stroke="#63b8ff" d="M144.11,-15C152.52,-15 161.11,-15 169.56,-15"/>
<polygon fill="#63b8ff" stroke="#63b8ff" points="169.75,-18.5 179.75,-15 169.75,-11.5 169.75,-18.5"/>
</a>
</g>
</g>
<!-- Node3 -->
<g id="Node000003" class="node">
<title>Node3</title>
<g id="a_Node000003"><a xlink:href="classProtocolCodec.html#a7d9ae5526622c37b683d418fd9f800c4" target="_top" xlink:title=" ">
<polygon fill="white" stroke="#666666" points="472,-24.5 344,-24.5 344,-5.5 472,-5.5 472,-24.5"/>
<text text-anchor="middle" x="408" y="-12.5" font-family="Helvetica,sans-Serif" font-size="10.00">ProtocolCodec::encode</text>
</a>
</g>
</g>
<!-- Node2&#45;&gt;Node3 -->
<g id="edge2_Node000002_Node000003" class="edge">
<title>Node2&#45;&gt;Node3</title>
<g id="a_edge2_Node000002_Node000003"><a xlink:title=" ">
<path fill="none" stroke="#63b8ff" d="M308.1,-15C316.43,-15 325.04,-15 333.53,-15"/>
<polygon fill="#63b8ff" stroke="#63b8ff" points="333.81,-18.5 343.81,-15 333.81,-11.5 333.81,-18.5"/>
</a>
</g>
</g>
</g>
</svg>
