<?xml version="1.0" encoding="UTF-8" standalone="no"?>
<!DOCTYPE svg PUBLIC "-//W3C//DTD SVG 1.1//EN"
 "http://www.w3.org/Graphics/SVG/1.1/DTD/svg11.dtd">
<!-- Generated by graphviz version 2.43.0 (0)
 -->
<!-- Title: CountdownClock Pages: 1 -->
<svg width="169pt" height="172pt"
 viewBox="0.00 0.00 169.00 172.00" xmlns="http://www.w3.org/2000/svg" xmlns:xlink="http://www.w3.org/1999/xlink">
<g id="graph0" class="graph" transform="scale(1 1) rotate(0) translate(4 168)">
<title>CountdownClock</title>
<!-- Node1 -->
<g id="Node000001" class="node">
<title>Node1</title>
<g id="a_Node000001"><a xlink:title=" ">
<polygon fill="#999999" stroke="transparent" points="161,-79 0,-79 0,0 161,0 161,-79"/>
<text text-anchor="start" x="40" y="-66.5" font-family="Helvetica,sans-Serif" font-size="10.00">CountdownClock</text>
<text text-anchor="start" x="7" y="-51.5" font-family="Helvetica,sans-Serif" font-size="10.00">&#45;</text>
<text text-anchor="start" x="17.5" y="-51.5" font-family="Helvetica,sans-Serif" font-size="10.00">m_clock</text>
<text text-anchor="start" x="7" y="-36.5" font-family="Helvetica,sans-Serif" font-size="10.00">&#45;</text>
<text text-anchor="start" x="17.5" y="-36.5" font-family="Helvetica,sans-Serif" font-size="10.00">m_vm</text>
<text text-anchor="start" x="4.5" y="-21.5" font-family="Helvetica,sans-Serif" font-size="10.00">+</text>
<text text-anchor="start" x="17.5" y="-21.5" font-family="Helvetica,sans-Serif" font-size="10.00">CountdownClock()</text>
<text text-anchor="start" x="4.5" y="-6.5" font-family="Helvetica,sans-Serif" font-size="10.00">+</text>
<text text-anchor="start" x="17.5" y="-6.5" font-family="Helvetica,sans-Serif" font-size="10.00">onTimeRemainingChanged()</text>
<polygon fill="#666666" stroke="#666666" points="0.5,-61.5 0.5,-61.5 161.5,-61.5 161.5,-61.5 0.5,-61.5"/>
<polygon fill="#666666" stroke="#666666" points="0.5,-31.5 0.5,-31.5 15.5,-31.5 15.5,-31.5 0.5,-31.5"/>
<polygon fill="#666666" stroke="#666666" points="15.5,-31.5 15.5,-31.5 161.5,-31.5 161.5,-31.5 15.5,-31.5"/>
<polygon fill="none" stroke="#666666" points="0,0 0,-79 161,-79 161,0 0,0"/>
</a>
</g>
</g>
<!-- Node2 -->
<g id="Node000002" class="node">
<title>Node2</title>
<g id="a_Node000002"><a xlink:title=" ">
<polygon fill="white" stroke="transparent" points="105,-164 56,-164 56,-115 105,-115 105,-164"/>
<text text-anchor="start" x="61.5" y="-151.5" font-family="Helvetica,sans-Serif" font-size="10.00">QFrame</text>
<text text-anchor="start" x="79" y="-136.5" font-family="Helvetica,sans-Serif" font-size="10.00"> </text>
<text text-anchor="start" x="79" y="-121.5" font-family="Helvetica,sans-Serif" font-size="10.00"> </text>
<polygon fill="#666666" stroke="#666666" points="56.5,-146.5 56.5,-146.5 105.5,-146.5 105.5,-146.5 56.5,-146.5"/>
<polygon fill="#666666" stroke="#666666" points="56.5,-131.5 56.5,-131.5 105.5,-131.5 105.5,-131.5 56.5,-131.5"/>
<polygon fill="none" stroke="#666666" points="56,-115 56,-164 105,-164 105,-115 56,-115"/>
</a>
</g>
</g>
<!-- Node2&#45;&gt;Node1 -->
<g id="edge1_Node000001_Node000002" class="edge">
<title>Node2&#45;&gt;Node1</title>
<g id="a_edge1_Node000001_Node000002"><a xlink:title=" ">
<path fill="none" stroke="#63b8ff" d="M80.5,-104.52C80.5,-96.38 80.5,-87.63 80.5,-79.29"/>
<polygon fill="none" stroke="#63b8ff" points="77,-104.78 80.5,-114.78 84,-104.78 77,-104.78"/>
</a>
</g>
</g>
</g>
</svg>
