<?xml version="1.0" encoding="UTF-8" standalone="no"?>
<!DOCTYPE svg PUBLIC "-//W3C//DTD SVG 1.1//EN"
 "http://www.w3.org/Graphics/SVG/1.1/DTD/svg11.dtd">
<!-- Generated by graphviz version 2.43.0 (0)
 -->
<!-- Title: TestLauncherViewModel::launchTest Pages: 1 -->
<svg width="478pt" height="76pt"
 viewBox="0.00 0.00 478.00 75.50" xmlns="http://www.w3.org/2000/svg" xmlns:xlink="http://www.w3.org/1999/xlink">
<g id="graph0" class="graph" transform="scale(1 1) rotate(0) translate(4 71.5)">
<title>TestLauncherViewModel::launchTest</title>
<!-- Node1 -->
<g id="Node000001" class="node">
<title>Node1</title>
<g id="a_Node000001"><a xlink:title=" ">
<polygon fill="#999999" stroke="#666666" points="134,-45.5 0,-45.5 0,-15.5 134,-15.5 134,-45.5"/>
<text text-anchor="start" x="8" y="-33.5" font-family="Helvetica,sans-Serif" font-size="10.00">TestLauncherViewModel</text>
<text text-anchor="middle" x="67" y="-22.5" font-family="Helvetica,sans-Serif" font-size="10.00">::launchTest</text>
</a>
</g>
</g>
<!-- Node2 -->
<g id="Node000002" class="node">
<title>Node2</title>
<g id="a_Node000002"><a xlink:href="classTestLauncherViewModel.html#a50a736731e6789e4770eb9b9284cf436" target="_top" xlink:title=" ">
<polygon fill="white" stroke="#666666" points="306,-67.5 170,-67.5 170,-37.5 306,-37.5 306,-67.5"/>
<text text-anchor="start" x="178" y="-55.5" font-family="Helvetica,sans-Serif" font-size="10.00">TestLauncherViewModel</text>
<text text-anchor="middle" x="238" y="-44.5" font-family="Helvetica,sans-Serif" font-size="10.00">::confirmationRequested</text>
</a>
</g>
</g>
<!-- Node1&#45;&gt;Node2 -->
<g id="edge1_Node000001_Node000002" class="edge">
<title>Node1&#45;&gt;Node2</title>
<g id="a_edge1_Node000001_Node000002"><a xlink:title=" ">
<path fill="none" stroke="#63b8ff" d="M134.31,-39.13C142.68,-40.22 151.31,-41.34 159.83,-42.45"/>
<polygon fill="#63b8ff" stroke="#63b8ff" points="159.4,-45.93 169.77,-43.75 160.31,-38.99 159.4,-45.93"/>
</a>
</g>
</g>
<!-- Node3 -->
<g id="Node000003" class="node">
<title>Node3</title>
<g id="a_Node000003"><a xlink:href="classUdpChannel.html#a439664ce9bf094d21d0234a1943dfc07" target="_top" xlink:title="Send data via UDP to other devices.">
<polygon fill="white" stroke="#666666" points="302,-19 174,-19 174,0 302,0 302,-19"/>
<text text-anchor="middle" x="238" y="-7" font-family="Helvetica,sans-Serif" font-size="10.00">UdpChannel::sendData</text>
</a>
</g>
</g>
<!-- Node1&#45;&gt;Node3 -->
<g id="edge2_Node000001_Node000003" class="edge">
<title>Node1&#45;&gt;Node3</title>
<g id="a_edge2_Node000001_Node000003"><a xlink:title=" ">
<path fill="none" stroke="#63b8ff" d="M134.31,-22.26C143.99,-21.06 154,-19.81 163.8,-18.6"/>
<polygon fill="#63b8ff" stroke="#63b8ff" points="164.43,-22.04 173.92,-17.34 163.57,-15.1 164.43,-22.04"/>
</a>
</g>
</g>
<!-- Node4 -->
<g id="Node000004" class="node">
<title>Node4</title>
<g id="a_Node000004"><a xlink:href="classProtocolCodec.html#a7d9ae5526622c37b683d418fd9f800c4" target="_top" xlink:title=" ">
<polygon fill="white" stroke="#666666" points="470,-19 342,-19 342,0 470,0 470,-19"/>
<text text-anchor="middle" x="406" y="-7" font-family="Helvetica,sans-Serif" font-size="10.00">ProtocolCodec::encode</text>
</a>
</g>
</g>
<!-- Node3&#45;&gt;Node4 -->
<g id="edge3_Node000003_Node000004" class="edge">
<title>Node3&#45;&gt;Node4</title>
<g id="a_edge3_Node000003_Node000004"><a xlink:title=" ">
<path fill="none" stroke="#63b8ff" d="M302.23,-9.5C311.89,-9.5 321.92,-9.5 331.77,-9.5"/>
<polygon fill="#63b8ff" stroke="#63b8ff" points="331.94,-13 341.94,-9.5 331.94,-6 331.94,-13"/>
</a>
</g>
</g>
</g>
</svg>
