<?xml version="1.0" encoding="UTF-8" standalone="no"?>
<!DOCTYPE svg PUBLIC "-//W3C//DTD SVG 1.1//EN"
 "http://www.w3.org/Graphics/SVG/1.1/DTD/svg11.dtd">
<!-- Generated by graphviz version 2.43.0 (0)
 -->
<!-- Title: TestBenchStatesList::getID Pages: 1 -->
<svg width="983pt" height="172pt"
 viewBox="0.00 0.00 983.00 171.50" xmlns="http://www.w3.org/2000/svg" xmlns:xlink="http://www.w3.org/1999/xlink">
<g id="graph0" class="graph" transform="scale(1 1) rotate(0) translate(4 167.5)">
<title>TestBenchStatesList::getID</title>
<!-- Node1 -->
<g id="Node000001" class="node">
<title>Node1</title>
<g id="a_Node000001"><a xlink:title=" ">
<polygon fill="#999999" stroke="#666666" points="975,-102 861,-102 861,-72 975,-72 975,-102"/>
<text text-anchor="start" x="869" y="-90" font-family="Helvetica,sans-Serif" font-size="10.00">TestBenchStatesList</text>
<text text-anchor="middle" x="918" y="-79" font-family="Helvetica,sans-Serif" font-size="10.00">::getID</text>
</a>
</g>
</g>
<!-- Node2 -->
<g id="Node000002" class="node">
<title>Node2</title>
<g id="a_Node000002"><a xlink:href="classTestBenchModel.html#ace6e3de6f5ccb11ee6e9b3f80b630377" target="_top" xlink:title=" ">
<polygon fill="white" stroke="#666666" points="825,-96.5 666,-96.5 666,-77.5 825,-77.5 825,-96.5"/>
<text text-anchor="middle" x="745.5" y="-84.5" font-family="Helvetica,sans-Serif" font-size="10.00">TestBenchModel::getStatusID</text>
</a>
</g>
</g>
<!-- Node1&#45;&gt;Node2 -->
<g id="edge1_Node000001_Node000002" class="edge">
<title>Node1&#45;&gt;Node2</title>
<g id="a_edge1_Node000001_Node000002"><a xlink:title=" ">
<path fill="none" stroke="#63b8ff" d="M850.69,-87C842.35,-87 833.77,-87 825.27,-87"/>
<polygon fill="#63b8ff" stroke="#63b8ff" points="850.7,-90.5 860.7,-87 850.7,-83.5 850.7,-90.5"/>
</a>
</g>
</g>
<!-- Node3 -->
<g id="Node000003" class="node">
<title>Node3</title>
<g id="a_Node000003"><a xlink:href="classPlotViewModel.html#a4f68a4b4160583b92cad8aa82c694445" target="_top" xlink:title=" ">
<polygon fill="white" stroke="#666666" points="629.5,-163.5 480.5,-163.5 480.5,-144.5 629.5,-144.5 629.5,-163.5"/>
<text text-anchor="middle" x="555" y="-151.5" font-family="Helvetica,sans-Serif" font-size="10.00">PlotViewModel::getValueID</text>
</a>
</g>
</g>
<!-- Node2&#45;&gt;Node3 -->
<g id="edge2_Node000002_Node000003" class="edge">
<title>Node2&#45;&gt;Node3</title>
<g id="a_edge2_Node000002_Node000003"><a xlink:title=" ">
<path fill="none" stroke="#63b8ff" d="M715,-100.77C692.14,-111.09 659.5,-125.09 630,-135 619.69,-138.46 608.39,-141.66 597.8,-144.4"/>
<polygon fill="#63b8ff" stroke="#63b8ff" points="716.51,-103.92 724.16,-96.59 713.61,-97.55 716.51,-103.92"/>
</a>
</g>
</g>
<!-- Node7 -->
<g id="Node000007" class="node">
<title>Node7</title>
<g id="a_Node000007"><a xlink:href="classSensorValueIndicatorViewModel.html#a52a37b6aa8c8b97cbeb288567d4ed2ae" target="_top" xlink:title=" ">
<polygon fill="white" stroke="#666666" points="626.5,-126 483.5,-126 483.5,-96 626.5,-96 626.5,-126"/>
<text text-anchor="start" x="491.5" y="-114" font-family="Helvetica,sans-Serif" font-size="10.00">SensorValueIndicatorView</text>
<text text-anchor="middle" x="555" y="-103" font-family="Helvetica,sans-Serif" font-size="10.00">Model::sensorValue</text>
</a>
</g>
</g>
<!-- Node2&#45;&gt;Node7 -->
<g id="edge6_Node000002_Node000007" class="edge">
<title>Node2&#45;&gt;Node7</title>
<g id="a_edge6_Node000002_Node000007"><a xlink:title=" ">
<path fill="none" stroke="#63b8ff" d="M659.67,-97.8C648.65,-99.2 637.45,-100.63 626.69,-102"/>
<polygon fill="#63b8ff" stroke="#63b8ff" points="660.25,-101.25 669.73,-96.52 659.37,-94.31 660.25,-101.25"/>
</a>
</g>
</g>
<!-- Node10 -->
<g id="Node000010" class="node">
<title>Node10</title>
<g id="a_Node000010"><a xlink:href="classTankPressureControlerViewModel.html#acaab29decfb579b2db988728d55e1a0b" target="_top" xlink:title=" ">
<polygon fill="white" stroke="#666666" points="630,-78 480,-78 480,-48 630,-48 630,-78"/>
<text text-anchor="start" x="488" y="-66" font-family="Helvetica,sans-Serif" font-size="10.00">TankPressureControlerView</text>
<text text-anchor="middle" x="555" y="-55" font-family="Helvetica,sans-Serif" font-size="10.00">Model::sensorValue</text>
</a>
</g>
</g>
<!-- Node2&#45;&gt;Node10 -->
<g id="edge9_Node000002_Node000010" class="edge">
<title>Node2&#45;&gt;Node10</title>
<g id="a_edge9_Node000002_Node000010"><a xlink:title=" ">
<path fill="none" stroke="#63b8ff" d="M659.55,-76.18C649.71,-74.93 639.74,-73.66 630.06,-72.43"/>
<polygon fill="#63b8ff" stroke="#63b8ff" points="659.37,-79.69 669.73,-77.48 660.25,-72.75 659.37,-79.69"/>
</a>
</g>
</g>
<!-- Node11 -->
<g id="Node000011" class="node">
<title>Node11</title>
<g id="a_Node000011"><a xlink:href="classActuatorSwitchViewModel.html#afca1d249f6cd2a0a4ce5833d753b9420" target="_top" xlink:title=" ">
<polygon fill="white" stroke="#666666" points="627,-30 483,-30 483,0 627,0 627,-30"/>
<text text-anchor="start" x="491" y="-18" font-family="Helvetica,sans-Serif" font-size="10.00">ActuatorSwitchViewModel</text>
<text text-anchor="middle" x="555" y="-7" font-family="Helvetica,sans-Serif" font-size="10.00">::updateStatus</text>
</a>
</g>
</g>
<!-- Node2&#45;&gt;Node11 -->
<g id="edge10_Node000002_Node000011" class="edge">
<title>Node2&#45;&gt;Node11</title>
<g id="a_edge10_Node000002_Node000011"><a xlink:title=" ">
<path fill="none" stroke="#63b8ff" d="M713.98,-73.39C691.07,-63.37 658.82,-49.69 630,-39 621.77,-35.95 612.95,-32.9 604.37,-30.04"/>
<polygon fill="#63b8ff" stroke="#63b8ff" points="712.62,-76.62 723.19,-77.44 715.44,-70.21 712.62,-76.62"/>
</a>
</g>
</g>
<!-- Node4 -->
<g id="Node000004" class="node">
<title>Node4</title>
<g id="a_Node000004"><a xlink:href="classPlot.html#a35a46b3d250dc882d2ca1c90ab9c12fd" target="_top" xlink:title=" ">
<polygon fill="white" stroke="#666666" points="431.5,-163.5 306.5,-163.5 306.5,-144.5 431.5,-144.5 431.5,-163.5"/>
<text text-anchor="middle" x="369" y="-151.5" font-family="Helvetica,sans-Serif" font-size="10.00">Plot::initialiseBindings</text>
</a>
</g>
</g>
<!-- Node3&#45;&gt;Node4 -->
<g id="edge3_Node000003_Node000004" class="edge">
<title>Node3&#45;&gt;Node4</title>
<g id="a_edge3_Node000003_Node000004"><a xlink:title=" ">
<path fill="none" stroke="#63b8ff" d="M470.14,-154C457.15,-154 443.94,-154 431.57,-154"/>
<polygon fill="#63b8ff" stroke="#63b8ff" points="470.49,-157.5 480.49,-154 470.49,-150.5 470.49,-157.5"/>
</a>
</g>
</g>
<!-- Node5 -->
<g id="Node000005" class="node">
<title>Node5</title>
<g id="a_Node000005"><a xlink:href="classPlot.html#a74f12fae74e90c87c72cab9f0d2da28d" target="_top" xlink:title=" ">
<polygon fill="white" stroke="#666666" points="258,-163.5 96,-163.5 96,-144.5 258,-144.5 258,-163.5"/>
<text text-anchor="middle" x="177" y="-151.5" font-family="Helvetica,sans-Serif" font-size="10.00">Plot::onCurvesValuesChanged</text>
</a>
</g>
</g>
<!-- Node4&#45;&gt;Node5 -->
<g id="edge4_Node000004_Node000005" class="edge">
<title>Node4&#45;&gt;Node5</title>
<g id="a_edge4_Node000004_Node000005"><a xlink:title=" ">
<path fill="none" stroke="#63b8ff" d="M296.04,-154C283.64,-154 270.68,-154 258.07,-154"/>
<polygon fill="#63b8ff" stroke="#63b8ff" points="296.31,-157.5 306.31,-154 296.31,-150.5 296.31,-157.5"/>
</a>
</g>
</g>
<!-- Node6 -->
<g id="Node000006" class="node">
<title>Node6</title>
<g id="a_Node000006"><a xlink:href="classPlot.html#a5b4b38ebab6fc69bd007d591c2bc61e3" target="_top" xlink:title=" ">
<polygon fill="white" stroke="#666666" points="60,-163.5 0,-163.5 0,-144.5 60,-144.5 60,-163.5"/>
<text text-anchor="middle" x="30" y="-151.5" font-family="Helvetica,sans-Serif" font-size="10.00">Plot::Plot</text>
</a>
</g>
</g>
<!-- Node5&#45;&gt;Node6 -->
<g id="edge5_Node000005_Node000006" class="edge">
<title>Node5&#45;&gt;Node6</title>
<g id="a_edge5_Node000005_Node000006"><a xlink:title=" ">
<path fill="none" stroke="#63b8ff" d="M85.84,-154C76.71,-154 67.98,-154 60.28,-154"/>
<polygon fill="#63b8ff" stroke="#63b8ff" points="85.87,-157.5 95.87,-154 85.87,-150.5 85.87,-157.5"/>
</a>
</g>
</g>
<!-- Node8 -->
<g id="Node000008" class="node">
<title>Node8</title>
<g id="a_Node000008"><a xlink:href="classSensorValueIndicator.html#a4f6a6870b71970059f29bf2f0d807f96" target="_top" xlink:title=" ">
<polygon fill="white" stroke="#666666" points="428.5,-126 309.5,-126 309.5,-96 428.5,-96 428.5,-126"/>
<text text-anchor="start" x="317.5" y="-114" font-family="Helvetica,sans-Serif" font-size="10.00">SensorValueIndicator</text>
<text text-anchor="middle" x="369" y="-103" font-family="Helvetica,sans-Serif" font-size="10.00">::onValueChanged</text>
</a>
</g>
</g>
<!-- Node7&#45;&gt;Node8 -->
<g id="edge7_Node000007_Node000008" class="edge">
<title>Node7&#45;&gt;Node8</title>
<g id="a_edge7_Node000007_Node000008"><a xlink:title=" ">
<path fill="none" stroke="#63b8ff" d="M473.14,-111C458.21,-111 442.89,-111 428.77,-111"/>
<polygon fill="#63b8ff" stroke="#63b8ff" points="473.39,-114.5 483.39,-111 473.39,-107.5 473.39,-114.5"/>
</a>
</g>
</g>
<!-- Node9 -->
<g id="Node000009" class="node">
<title>Node9</title>
<g id="a_Node000009"><a xlink:href="classSensorValueIndicator.html#a7ae94a59dd425bf5e9c687ea422be82e" target="_top" xlink:title=" ">
<polygon fill="white" stroke="#666666" points="239.5,-126 114.5,-126 114.5,-96 239.5,-96 239.5,-126"/>
<text text-anchor="start" x="122.5" y="-114" font-family="Helvetica,sans-Serif" font-size="10.00">SensorValueIndicator</text>
<text text-anchor="middle" x="177" y="-103" font-family="Helvetica,sans-Serif" font-size="10.00">::SensorValueIndicator</text>
</a>
</g>
</g>
<!-- Node8&#45;&gt;Node9 -->
<g id="edge8_Node000008_Node000009" class="edge">
<title>Node8&#45;&gt;Node9</title>
<g id="a_edge8_Node000008_Node000009"><a xlink:title=" ">
<path fill="none" stroke="#63b8ff" d="M299.4,-111C279.88,-111 258.74,-111 239.65,-111"/>
<polygon fill="#63b8ff" stroke="#63b8ff" points="299.44,-114.5 309.44,-111 299.44,-107.5 299.44,-114.5"/>
</a>
</g>
</g>
<!-- Node12 -->
<g id="Node000012" class="node">
<title>Node12</title>
<g id="a_Node000012"><a xlink:href="classActuatorSwitchViewModel.html#a1a906ea170fdf4d96d75901251c1c2a1" target="_top" xlink:title=" ">
<polygon fill="white" stroke="#666666" points="444,-30 294,-30 294,0 444,0 444,-30"/>
<text text-anchor="start" x="302" y="-18" font-family="Helvetica,sans-Serif" font-size="10.00">ActuatorSwitchViewModel</text>
<text text-anchor="middle" x="369" y="-7" font-family="Helvetica,sans-Serif" font-size="10.00">::ActuatorSwitchViewModel</text>
</a>
</g>
</g>
<!-- Node11&#45;&gt;Node12 -->
<g id="edge11_Node000011_Node000012" class="edge">
<title>Node11&#45;&gt;Node12</title>
<g id="a_edge11_Node000011_Node000012"><a xlink:title=" ">
<path fill="none" stroke="#63b8ff" d="M472.69,-15C463.24,-15 453.64,-15 444.3,-15"/>
<polygon fill="#63b8ff" stroke="#63b8ff" points="472.86,-18.5 482.86,-15 472.86,-11.5 472.86,-18.5"/>
</a>
</g>
</g>
</g>
</svg>
