<?xml version="1.0" encoding="UTF-8" standalone="no"?>
<!DOCTYPE svg PUBLIC "-//W3C//DTD SVG 1.1//EN"
 "http://www.w3.org/Graphics/SVG/1.1/DTD/svg11.dtd">
<!-- Generated by graphviz version 2.43.0 (0)
 -->
<!-- Title: UdpChannelParametersWidget Pages: 1 -->
<svg width="669pt" height="1598pt"
 viewBox="0.00 0.00 669.00 1598.00" xmlns="http://www.w3.org/2000/svg" xmlns:xlink="http://www.w3.org/1999/xlink">
<g id="graph0" class="graph" transform="scale(1 1) rotate(0) translate(4 1594)">
<title>UdpChannelParametersWidget</title>
<!-- Node1 -->
<g id="Node000001" class="node">
<title>Node1</title>
<g id="a_Node000001"><a xlink:title=" ">
<polygon fill="#999999" stroke="transparent" points="178,-94 0,-94 0,0 178,0 178,-94"/>
<text text-anchor="start" x="14" y="-82" font-family="Helvetica,sans-Serif" font-size="10.00">UdpChannelParametersWidget</text>
<text text-anchor="start" x="6.5" y="-67" font-family="Helvetica,sans-Serif" font-size="10.00">&#45;</text>
<text text-anchor="start" x="17" y="-67" font-family="Helvetica,sans-Serif" font-size="10.00">m_form</text>
<text text-anchor="start" x="6.5" y="-52" font-family="Helvetica,sans-Serif" font-size="10.00">&#45;</text>
<text text-anchor="start" x="17" y="-52" font-family="Helvetica,sans-Serif" font-size="10.00">m_formValues</text>
<text text-anchor="start" x="4" y="-37" font-family="Helvetica,sans-Serif" font-size="10.00">+</text>
<text text-anchor="start" x="17" y="-37" font-family="Helvetica,sans-Serif" font-size="10.00">UdpChannelParametersWidget()</text>
<text text-anchor="start" x="4" y="-22" font-family="Helvetica,sans-Serif" font-size="10.00">+</text>
<text text-anchor="start" x="17" y="-22" font-family="Helvetica,sans-Serif" font-size="10.00">applyParameters()</text>
<text text-anchor="start" x="6.5" y="-7" font-family="Helvetica,sans-Serif" font-size="10.00">&#45;</text>
<text text-anchor="start" x="17" y="-7" font-family="Helvetica,sans-Serif" font-size="10.00">field()</text>
<polygon fill="#666666" stroke="#666666" points="0,-77 0,-77 178,-77 178,-77 0,-77"/>
<polygon fill="#666666" stroke="#666666" points="0,-47 0,-47 15,-47 15,-47 0,-47"/>
<polygon fill="#666666" stroke="#666666" points="15,-47 15,-47 178,-47 178,-47 15,-47"/>
<polygon fill="none" stroke="#666666" points="0,0 0,-94 178,-94 178,0 0,0"/>
</a>
</g>
</g>
<!-- Node2 -->
<g id="Node000002" class="node">
<title>Node2</title>
<g id="a_Node000002"><a xlink:title=" ">
<polygon fill="white" stroke="transparent" points="99.5,-291 46.5,-291 46.5,-242 99.5,-242 99.5,-291"/>
<text text-anchor="start" x="52" y="-278.5" font-family="Helvetica,sans-Serif" font-size="10.00">QWidget</text>
<text text-anchor="start" x="71.5" y="-263.5" font-family="Helvetica,sans-Serif" font-size="10.00"> </text>
<text text-anchor="start" x="71.5" y="-248.5" font-family="Helvetica,sans-Serif" font-size="10.00"> </text>
<polygon fill="#666666" stroke="#666666" points="47,-273.5 47,-273.5 100,-273.5 100,-273.5 47,-273.5"/>
<polygon fill="#666666" stroke="#666666" points="47,-258.5 47,-258.5 100,-258.5 100,-258.5 47,-258.5"/>
<polygon fill="none" stroke="#666666" points="46.5,-242 46.5,-291 99.5,-291 99.5,-242 46.5,-242"/>
</a>
</g>
</g>
<!-- Node2&#45;&gt;Node1 -->
<g id="edge1_Node000001_Node000002" class="edge">
<title>Node2&#45;&gt;Node1</title>
<g id="a_edge1_Node000001_Node000002"><a xlink:title=" ">
<path fill="none" stroke="#63b8ff" d="M75.5,-231.55C78.22,-194.57 82.59,-135.2 85.61,-94.04"/>
<polygon fill="none" stroke="#63b8ff" points="71.99,-231.58 74.74,-241.81 78.97,-232.09 71.99,-231.58"/>
</a>
</g>
</g>
<!-- Node3 -->
<g id="Node000003" class="node">
<title>Node3</title>
<g id="a_Node000003"><a xlink:href="classUdpChannelParametersViewModel.html" target="_top" xlink:title=" ">
<polygon fill="white" stroke="transparent" points="278,-392 118,-392 118,-141 278,-141 278,-392"/>
<text text-anchor="start" x="128.5" y="-379.5" font-family="Helvetica,sans-Serif" font-size="10.00">UdpChannelParametersView</text>
<text text-anchor="start" x="182.5" y="-368.5" font-family="Helvetica,sans-Serif" font-size="10.00">Model</text>
<text text-anchor="start" x="124.5" y="-353.5" font-family="Helvetica,sans-Serif" font-size="10.00">&#45;</text>
<text text-anchor="start" x="135" y="-353.5" font-family="Helvetica,sans-Serif" font-size="10.00">m_EndpointPort</text>
<text text-anchor="start" x="124.5" y="-338.5" font-family="Helvetica,sans-Serif" font-size="10.00">&#45;</text>
<text text-anchor="start" x="135" y="-338.5" font-family="Helvetica,sans-Serif" font-size="10.00">m_EndpointAdress</text>
<text text-anchor="start" x="124.5" y="-323.5" font-family="Helvetica,sans-Serif" font-size="10.00">&#45;</text>
<text text-anchor="start" x="135" y="-323.5" font-family="Helvetica,sans-Serif" font-size="10.00">m_TargetPort</text>
<text text-anchor="start" x="124.5" y="-308.5" font-family="Helvetica,sans-Serif" font-size="10.00">&#45;</text>
<text text-anchor="start" x="135" y="-308.5" font-family="Helvetica,sans-Serif" font-size="10.00">m_TargetAdress</text>
<text text-anchor="start" x="122" y="-293.5" font-family="Helvetica,sans-Serif" font-size="10.00">+</text>
<text text-anchor="start" x="135" y="-293.5" font-family="Helvetica,sans-Serif" font-size="10.00">UdpChannelParametersView</text>
<text text-anchor="start" x="135" y="-282.5" font-family="Helvetica,sans-Serif" font-size="10.00">Model()</text>
<text text-anchor="start" x="122" y="-267.5" font-family="Helvetica,sans-Serif" font-size="10.00">+</text>
<text text-anchor="start" x="135" y="-267.5" font-family="Helvetica,sans-Serif" font-size="10.00">EndpointPort()</text>
<text text-anchor="start" x="122" y="-252.5" font-family="Helvetica,sans-Serif" font-size="10.00">+</text>
<text text-anchor="start" x="135" y="-252.5" font-family="Helvetica,sans-Serif" font-size="10.00">setEndpointPort()</text>
<text text-anchor="start" x="122" y="-237.5" font-family="Helvetica,sans-Serif" font-size="10.00">+</text>
<text text-anchor="start" x="135" y="-237.5" font-family="Helvetica,sans-Serif" font-size="10.00">EndpointAdress()</text>
<text text-anchor="start" x="122" y="-222.5" font-family="Helvetica,sans-Serif" font-size="10.00">+</text>
<text text-anchor="start" x="135" y="-222.5" font-family="Helvetica,sans-Serif" font-size="10.00">setEndpointAdress()</text>
<text text-anchor="start" x="122" y="-207.5" font-family="Helvetica,sans-Serif" font-size="10.00">+</text>
<text text-anchor="start" x="135" y="-207.5" font-family="Helvetica,sans-Serif" font-size="10.00">TargetPort()</text>
<text text-anchor="start" x="122" y="-192.5" font-family="Helvetica,sans-Serif" font-size="10.00">+</text>
<text text-anchor="start" x="135" y="-192.5" font-family="Helvetica,sans-Serif" font-size="10.00">setTargetPort()</text>
<text text-anchor="start" x="122" y="-177.5" font-family="Helvetica,sans-Serif" font-size="10.00">+</text>
<text text-anchor="start" x="135" y="-177.5" font-family="Helvetica,sans-Serif" font-size="10.00">TargetAdress()</text>
<text text-anchor="start" x="122" y="-162.5" font-family="Helvetica,sans-Serif" font-size="10.00">+</text>
<text text-anchor="start" x="135" y="-162.5" font-family="Helvetica,sans-Serif" font-size="10.00">setTargetAdress()</text>
<text text-anchor="start" x="122" y="-147.5" font-family="Helvetica,sans-Serif" font-size="10.00">+</text>
<text text-anchor="start" x="135" y="-147.5" font-family="Helvetica,sans-Serif" font-size="10.00">restartEndpoint()</text>
<polygon fill="#666666" stroke="#666666" points="118,-363.5 118,-363.5 278,-363.5 278,-363.5 118,-363.5"/>
<polygon fill="#666666" stroke="#666666" points="118,-303.5 118,-303.5 133,-303.5 133,-303.5 118,-303.5"/>
<polygon fill="#666666" stroke="#666666" points="133,-303.5 133,-303.5 278,-303.5 278,-303.5 133,-303.5"/>
<polygon fill="none" stroke="#666666" points="118,-141 118,-392 278,-392 278,-141 118,-141"/>
</a>
</g>
</g>
<!-- Node3&#45;&gt;Node1 -->
<g id="edge2_Node000001_Node000003" class="edge">
<title>Node3&#45;&gt;Node1</title>
<g id="a_edge2_Node000001_Node000003"><a xlink:title=" ">
<path fill="none" stroke="#63b8ff" d="M135.54,-140.87C129.33,-128.48 123.27,-116.38 117.67,-105.21"/>
<polygon fill="none" stroke="#63b8ff" points="117.62,-105.12 111.36,-101.55 112.25,-94.39 118.51,-97.96 117.62,-105.12"/>
</a>
</g>
<text text-anchor="middle" x="200.5" y="-115" font-family="Helvetica,sans-Serif" font-size="10.00" fill="grey"> &#45;m_udpChannelParametersVM</text>
</g>
<!-- Node4 -->
<g id="Node000004" class="node">
<title>Node4</title>
<g id="a_Node000004"><a xlink:title=" ">
<polygon fill="white" stroke="transparent" points="260,-1590 210,-1590 210,-1541 260,-1541 260,-1590"/>
<text text-anchor="start" x="215" y="-1577.5" font-family="Helvetica,sans-Serif" font-size="10.00">QObject</text>
<text text-anchor="start" x="233" y="-1562.5" font-family="Helvetica,sans-Serif" font-size="10.00"> </text>
<text text-anchor="start" x="233" y="-1547.5" font-family="Helvetica,sans-Serif" font-size="10.00"> </text>
<polygon fill="#666666" stroke="#666666" points="210,-1572.5 210,-1572.5 260,-1572.5 260,-1572.5 210,-1572.5"/>
<polygon fill="#666666" stroke="#666666" points="210,-1557.5 210,-1557.5 260,-1557.5 260,-1557.5 210,-1557.5"/>
<polygon fill="none" stroke="#666666" points="210,-1541 210,-1590 260,-1590 260,-1541 210,-1541"/>
</a>
</g>
</g>
<!-- Node4&#45;&gt;Node3 -->
<g id="edge3_Node000003_Node000004" class="edge">
<title>Node4&#45;&gt;Node3</title>
<g id="a_edge3_Node000003_Node000004"><a xlink:title=" ">
<path fill="none" stroke="#63b8ff" d="M202.36,-1538.49C179.86,-1517.45 154,-1485.62 154,-1450.5 154,-1450.5 154,-1450.5 154,-605 154,-534.09 163.67,-455.5 173.94,-392.01"/>
<polygon fill="none" stroke="#63b8ff" points="200.04,-1541.12 209.82,-1545.2 204.72,-1535.91 200.04,-1541.12"/>
</a>
</g>
</g>
<!-- Node5 -->
<g id="Node000005" class="node">
<title>Node5</title>
<g id="a_Node000005"><a xlink:href="classUdpChannel.html" target="_top" xlink:title="UDP communication channel between the microcontroller and the HMI.">
<polygon fill="white" stroke="transparent" points="438.5,-773 303.5,-773 303.5,-439 438.5,-439 438.5,-773"/>
<text text-anchor="start" x="341.5" y="-761" font-family="Helvetica,sans-Serif" font-size="10.00">UdpChannel</text>
<text text-anchor="start" x="310.5" y="-746" font-family="Helvetica,sans-Serif" font-size="10.00">&#45;</text>
<text text-anchor="start" x="321" y="-746" font-family="Helvetica,sans-Serif" font-size="10.00">m_udpWorkerThread</text>
<text text-anchor="start" x="310.5" y="-731" font-family="Helvetica,sans-Serif" font-size="10.00">&#45;</text>
<text text-anchor="start" x="321" y="-731" font-family="Helvetica,sans-Serif" font-size="10.00">m_udpSocket</text>
<text text-anchor="start" x="310.5" y="-716" font-family="Helvetica,sans-Serif" font-size="10.00">&#45;</text>
<text text-anchor="start" x="321" y="-716" font-family="Helvetica,sans-Serif" font-size="10.00">m_remoteAddr</text>
<text text-anchor="start" x="310.5" y="-701" font-family="Helvetica,sans-Serif" font-size="10.00">&#45;</text>
<text text-anchor="start" x="321" y="-701" font-family="Helvetica,sans-Serif" font-size="10.00">m_remotePort</text>
<text text-anchor="start" x="310.5" y="-686" font-family="Helvetica,sans-Serif" font-size="10.00">&#45;</text>
<text text-anchor="start" x="321" y="-686" font-family="Helvetica,sans-Serif" font-size="10.00">m_localAddr</text>
<text text-anchor="start" x="310.5" y="-671" font-family="Helvetica,sans-Serif" font-size="10.00">&#45;</text>
<text text-anchor="start" x="321" y="-671" font-family="Helvetica,sans-Serif" font-size="10.00">m_localPort</text>
<text text-anchor="start" x="310.5" y="-656" font-family="Helvetica,sans-Serif" font-size="10.00">&#45;</text>
<text text-anchor="start" x="321" y="-656" font-family="Helvetica,sans-Serif" font-size="10.00">m_lastRefresh</text>
<text text-anchor="start" x="310.5" y="-641" font-family="Helvetica,sans-Serif" font-size="10.00">&#45;</text>
<text text-anchor="start" x="321" y="-641" font-family="Helvetica,sans-Serif" font-size="10.00">m_periodOfRefresh</text>
<text text-anchor="start" x="310.5" y="-626" font-family="Helvetica,sans-Serif" font-size="10.00">&#45;</text>
<text text-anchor="start" x="321" y="-626" font-family="Helvetica,sans-Serif" font-size="10.00">m_running</text>
<text text-anchor="start" x="308" y="-611" font-family="Helvetica,sans-Serif" font-size="10.00">+</text>
<text text-anchor="start" x="321" y="-611" font-family="Helvetica,sans-Serif" font-size="10.00">UdpChannel()</text>
<text text-anchor="start" x="308" y="-596" font-family="Helvetica,sans-Serif" font-size="10.00">+</text>
<text text-anchor="start" x="321" y="-596" font-family="Helvetica,sans-Serif" font-size="10.00">~UdpChannel()</text>
<text text-anchor="start" x="308" y="-581" font-family="Helvetica,sans-Serif" font-size="10.00">+</text>
<text text-anchor="start" x="321" y="-581" font-family="Helvetica,sans-Serif" font-size="10.00">startEndpoint()</text>
<text text-anchor="start" x="308" y="-566" font-family="Helvetica,sans-Serif" font-size="10.00">+</text>
<text text-anchor="start" x="321" y="-566" font-family="Helvetica,sans-Serif" font-size="10.00">stopEndpoint()</text>
<text text-anchor="start" x="308" y="-551" font-family="Helvetica,sans-Serif" font-size="10.00">+</text>
<text text-anchor="start" x="321" y="-551" font-family="Helvetica,sans-Serif" font-size="10.00">sendData()</text>
<text text-anchor="start" x="308" y="-536" font-family="Helvetica,sans-Serif" font-size="10.00">+</text>
<text text-anchor="start" x="321" y="-536" font-family="Helvetica,sans-Serif" font-size="10.00">running()</text>
<text text-anchor="start" x="308" y="-521" font-family="Helvetica,sans-Serif" font-size="10.00">+</text>
<text text-anchor="start" x="321" y="-521" font-family="Helvetica,sans-Serif" font-size="10.00">remoteAddr()</text>
<text text-anchor="start" x="308" y="-506" font-family="Helvetica,sans-Serif" font-size="10.00">+</text>
<text text-anchor="start" x="321" y="-506" font-family="Helvetica,sans-Serif" font-size="10.00">remotePort()</text>
<text text-anchor="start" x="308" y="-491" font-family="Helvetica,sans-Serif" font-size="10.00">+</text>
<text text-anchor="start" x="321" y="-491" font-family="Helvetica,sans-Serif" font-size="10.00">localAddr()</text>
<text text-anchor="start" x="308" y="-476" font-family="Helvetica,sans-Serif" font-size="10.00">+</text>
<text text-anchor="start" x="321" y="-476" font-family="Helvetica,sans-Serif" font-size="10.00">localPort()</text>
<text text-anchor="start" x="321" y="-461" font-family="Helvetica,sans-Serif" font-size="10.00">and 6 more...</text>
<text text-anchor="start" x="308" y="-446" font-family="Helvetica,sans-Serif" font-size="10.00">+</text>
<text text-anchor="start" x="321" y="-446" font-family="Helvetica,sans-Serif" font-size="10.00">onDatagramReceived()</text>
<polygon fill="#666666" stroke="#666666" points="304,-756 304,-756 439,-756 439,-756 304,-756"/>
<polygon fill="#666666" stroke="#666666" points="304,-621 304,-621 319,-621 319,-621 304,-621"/>
<polygon fill="#666666" stroke="#666666" points="319,-621 319,-621 439,-621 439,-621 319,-621"/>
<polygon fill="none" stroke="#666666" points="303.5,-439 303.5,-773 438.5,-773 438.5,-439 303.5,-439"/>
</a>
</g>
</g>
<!-- Node4&#45;&gt;Node5 -->
<g id="edge5_Node000005_Node000004" class="edge">
<title>Node4&#45;&gt;Node5</title>
<g id="a_edge5_Node000005_Node000004"><a xlink:title=" ">
<path fill="none" stroke="#63b8ff" d="M215.42,-1531.62C204.07,-1509.48 192,-1479.19 192,-1450.5 192,-1450.5 192,-1450.5 192,-881 192,-796.34 252.64,-717.41 303.33,-666.22"/>
<polygon fill="none" stroke="#63b8ff" points="212.41,-1533.4 220.2,-1540.58 218.58,-1530.11 212.41,-1533.4"/>
</a>
</g>
</g>
<!-- Node6 -->
<g id="Node000006" class="node">
<title>Node6</title>
<g id="a_Node000006"><a xlink:href="classUdpWorker.html" target="_top" xlink:title="UDP socket worker running on a dedicated thread.">
<polygon fill="white" stroke="transparent" points="380,-944 220,-944 220,-820 380,-820 380,-944"/>
<text text-anchor="start" x="273" y="-932" font-family="Helvetica,sans-Serif" font-size="10.00">UdpWorker</text>
<text text-anchor="start" x="226.5" y="-917" font-family="Helvetica,sans-Serif" font-size="10.00">&#45;</text>
<text text-anchor="start" x="237" y="-917" font-family="Helvetica,sans-Serif" font-size="10.00">socket</text>
<text text-anchor="start" x="226.5" y="-902" font-family="Helvetica,sans-Serif" font-size="10.00">&#45;</text>
<text text-anchor="start" x="237" y="-902" font-family="Helvetica,sans-Serif" font-size="10.00">m_lastFrameSend</text>
<text text-anchor="start" x="224" y="-887" font-family="Helvetica,sans-Serif" font-size="10.00">+</text>
<text text-anchor="start" x="237" y="-887" font-family="Helvetica,sans-Serif" font-size="10.00">UdpWorker()</text>
<text text-anchor="start" x="224" y="-872" font-family="Helvetica,sans-Serif" font-size="10.00">+</text>
<text text-anchor="start" x="237" y="-872" font-family="Helvetica,sans-Serif" font-size="10.00">start()</text>
<text text-anchor="start" x="224" y="-857" font-family="Helvetica,sans-Serif" font-size="10.00">+</text>
<text text-anchor="start" x="237" y="-857" font-family="Helvetica,sans-Serif" font-size="10.00">stop()</text>
<text text-anchor="start" x="226.5" y="-842" font-family="Helvetica,sans-Serif" font-size="10.00">&#45;</text>
<text text-anchor="start" x="237" y="-842" font-family="Helvetica,sans-Serif" font-size="10.00">decimate()</text>
<text text-anchor="start" x="226.5" y="-827" font-family="Helvetica,sans-Serif" font-size="10.00">&#45;</text>
<text text-anchor="start" x="237" y="-827" font-family="Helvetica,sans-Serif" font-size="10.00">processPendingDatagrams()</text>
<polygon fill="#666666" stroke="#666666" points="220,-927 220,-927 380,-927 380,-927 220,-927"/>
<polygon fill="#666666" stroke="#666666" points="220,-897 220,-897 235,-897 235,-897 220,-897"/>
<polygon fill="#666666" stroke="#666666" points="235,-897 235,-897 380,-897 380,-897 235,-897"/>
<polygon fill="none" stroke="#666666" points="220,-820 220,-944 380,-944 380,-820 220,-820"/>
</a>
</g>
</g>
<!-- Node4&#45;&gt;Node6 -->
<g id="edge7_Node000006_Node000004" class="edge">
<title>Node4&#45;&gt;Node6</title>
<g id="a_edge7_Node000006_Node000004"><a xlink:title=" ">
<path fill="none" stroke="#63b8ff" d="M236.04,-1530.89C239.1,-1442.23 249.71,-1194.85 278,-991 280.12,-975.74 283.08,-959.4 286.14,-944.17"/>
<polygon fill="none" stroke="#63b8ff" points="232.54,-1530.79 235.7,-1540.9 239.54,-1531.02 232.54,-1530.79"/>
</a>
</g>
</g>
<!-- Node8 -->
<g id="Node000008" class="node">
<title>Node8</title>
<g id="a_Node000008"><a xlink:href="classLogger.html" target="_top" xlink:title="Tool that provide the ability to display and log errors and debug messages.">
<polygon fill="white" stroke="transparent" points="366,-1504 298,-1504 298,-1395 366,-1395 366,-1504"/>
<text text-anchor="start" x="315" y="-1491.5" font-family="Helvetica,sans-Serif" font-size="10.00">Logger</text>
<text text-anchor="start" x="330" y="-1476.5" font-family="Helvetica,sans-Serif" font-size="10.00"> </text>
<text text-anchor="start" x="302" y="-1461.5" font-family="Helvetica,sans-Serif" font-size="10.00">+</text>
<text text-anchor="start" x="315" y="-1461.5" font-family="Helvetica,sans-Serif" font-size="10.00">Logger()</text>
<text text-anchor="start" x="302" y="-1446.5" font-family="Helvetica,sans-Serif" font-size="10.00">+</text>
<text text-anchor="start" x="315" y="-1446.5" font-family="Helvetica,sans-Serif" font-size="10.00">log()</text>
<text text-anchor="start" x="302" y="-1431.5" font-family="Helvetica,sans-Serif" font-size="10.00">+</text>
<text text-anchor="start" x="315" y="-1431.5" font-family="Helvetica,sans-Serif" font-size="10.00">debug()</text>
<text text-anchor="start" x="302" y="-1416.5" font-family="Helvetica,sans-Serif" font-size="10.00">+</text>
<text text-anchor="start" x="315" y="-1416.5" font-family="Helvetica,sans-Serif" font-size="10.00">error()</text>
<text text-anchor="start" x="302" y="-1401.5" font-family="Helvetica,sans-Serif" font-size="10.00">+</text>
<text text-anchor="start" x="315" y="-1401.5" font-family="Helvetica,sans-Serif" font-size="10.00">warning()</text>
<polygon fill="#666666" stroke="#666666" points="298,-1486.5 298,-1486.5 366,-1486.5 366,-1486.5 298,-1486.5"/>
<polygon fill="#666666" stroke="#666666" points="298,-1471.5 298,-1471.5 366,-1471.5 366,-1471.5 298,-1471.5"/>
<polygon fill="none" stroke="#666666" points="298,-1395 298,-1504 366,-1504 366,-1395 298,-1395"/>
</a>
</g>
</g>
<!-- Node4&#45;&gt;Node8 -->
<g id="edge10_Node000008_Node000004" class="edge">
<title>Node4&#45;&gt;Node8</title>
<g id="a_edge10_Node000008_Node000004"><a xlink:title=" ">
<path fill="none" stroke="#63b8ff" d="M261.76,-1533.05C272.9,-1519.96 285.97,-1504.6 297.79,-1490.7"/>
<polygon fill="none" stroke="#63b8ff" points="258.91,-1530.99 255.1,-1540.88 264.24,-1535.53 258.91,-1530.99"/>
</a>
</g>
</g>
<!-- Node9 -->
<g id="Node000009" class="node">
<title>Node9</title>
<g id="a_Node000009"><a xlink:href="classFileSystem.html" target="_top" xlink:title="File system allow the managment of files path used in the application.">
<polygon fill="white" stroke="transparent" points="631,-1377 539,-1377 539,-1298 631,-1298 631,-1377"/>
<text text-anchor="start" x="557.5" y="-1364.5" font-family="Helvetica,sans-Serif" font-size="10.00">FileSystem</text>
<text text-anchor="start" x="545.5" y="-1349.5" font-family="Helvetica,sans-Serif" font-size="10.00">&#45;</text>
<text text-anchor="start" x="556" y="-1349.5" font-family="Helvetica,sans-Serif" font-size="10.00">m_pathList</text>
<text text-anchor="start" x="543" y="-1334.5" font-family="Helvetica,sans-Serif" font-size="10.00">+</text>
<text text-anchor="start" x="556" y="-1334.5" font-family="Helvetica,sans-Serif" font-size="10.00">FileSystem()</text>
<text text-anchor="start" x="543" y="-1319.5" font-family="Helvetica,sans-Serif" font-size="10.00">+</text>
<text text-anchor="start" x="556" y="-1319.5" font-family="Helvetica,sans-Serif" font-size="10.00">getDirectory()</text>
<text text-anchor="start" x="545.5" y="-1304.5" font-family="Helvetica,sans-Serif" font-size="10.00">&#45;</text>
<text text-anchor="start" x="556" y="-1304.5" font-family="Helvetica,sans-Serif" font-size="10.00">addDirectory()</text>
<polygon fill="#666666" stroke="#666666" points="539,-1359.5 539,-1359.5 631,-1359.5 631,-1359.5 539,-1359.5"/>
<polygon fill="#666666" stroke="#666666" points="539,-1344.5 539,-1344.5 554,-1344.5 554,-1344.5 539,-1344.5"/>
<polygon fill="#666666" stroke="#666666" points="554,-1344.5 554,-1344.5 631,-1344.5 631,-1344.5 554,-1344.5"/>
<polygon fill="none" stroke="#666666" points="539,-1298 539,-1377 631,-1377 631,-1298 539,-1298"/>
</a>
</g>
</g>
<!-- Node4&#45;&gt;Node9 -->
<g id="edge13_Node000009_Node000004" class="edge">
<title>Node4&#45;&gt;Node9</title>
<g id="a_edge13_Node000009_Node000004"><a xlink:title=" ">
<path fill="none" stroke="#63b8ff" d="M269.94,-1552.3C299.03,-1541.47 341.03,-1524.26 375,-1504 437.4,-1466.79 501.99,-1413.23 542.77,-1377.21"/>
<polygon fill="none" stroke="#63b8ff" points="268.41,-1549.13 260.23,-1555.86 270.82,-1555.71 268.41,-1549.13"/>
</a>
</g>
</g>
<!-- Node5&#45;&gt;Node3 -->
<g id="edge4_Node000003_Node000005" class="edge">
<title>Node5&#45;&gt;Node3</title>
<g id="a_edge4_Node000003_Node000005"><a xlink:title=" ">
<path fill="none" stroke="#63b8ff" d="M303.37,-473.06C291.59,-450.08 279.32,-426.14 267.49,-403.06"/>
<polygon fill="none" stroke="#63b8ff" points="267.38,-402.85 261.08,-399.33 261.9,-392.17 268.2,-395.68 267.38,-402.85"/>
</a>
</g>
<text text-anchor="middle" x="315" y="-413" font-family="Helvetica,sans-Serif" font-size="10.00" fill="grey"> &#45;m_udpChannel</text>
</g>
<!-- Node6&#45;&gt;Node5 -->
<g id="edge6_Node000005_Node000006" class="edge">
<title>Node6&#45;&gt;Node5</title>
<g id="a_edge6_Node000005_Node000006"><a xlink:title=" ">
<path fill="none" stroke="#63b8ff" d="M315.85,-819.85C318.65,-809.03 321.69,-797.3 324.86,-785.08"/>
<polygon fill="none" stroke="#63b8ff" points="324.92,-784.85 322.55,-778.03 327.93,-773.23 330.29,-780.04 324.92,-784.85"/>
</a>
</g>
<text text-anchor="middle" x="360" y="-794" font-family="Helvetica,sans-Serif" font-size="10.00" fill="grey"> &#45;m_udpWorker</text>
</g>
<!-- Node7 -->
<g id="Node000007" class="node">
<title>Node7</title>
<g id="a_Node000007"><a xlink:href="classUdpLogger.html" target="_top" xlink:title="High&#45;frequency binary logger for UDP telemetry frames.">
<polygon fill="white" stroke="transparent" points="485.5,-1280 352.5,-1280 352.5,-991 485.5,-991 485.5,-1280"/>
<text text-anchor="start" x="393" y="-1267.5" font-family="Helvetica,sans-Serif" font-size="10.00">UdpLogger</text>
<text text-anchor="start" x="359.5" y="-1252.5" font-family="Helvetica,sans-Serif" font-size="10.00">&#45;</text>
<text text-anchor="start" x="370" y="-1252.5" font-family="Helvetica,sans-Serif" font-size="10.00">m_writer</text>
<text text-anchor="start" x="359.5" y="-1237.5" font-family="Helvetica,sans-Serif" font-size="10.00">&#45;</text>
<text text-anchor="start" x="370" y="-1237.5" font-family="Helvetica,sans-Serif" font-size="10.00">m_ringBuffer</text>
<text text-anchor="start" x="359.5" y="-1222.5" font-family="Helvetica,sans-Serif" font-size="10.00">&#45;</text>
<text text-anchor="start" x="370" y="-1222.5" font-family="Helvetica,sans-Serif" font-size="10.00">m_running</text>
<text text-anchor="start" x="359.5" y="-1207.5" font-family="Helvetica,sans-Serif" font-size="10.00">&#45;</text>
<text text-anchor="start" x="370" y="-1207.5" font-family="Helvetica,sans-Serif" font-size="10.00">m_writerThread</text>
<text text-anchor="start" x="359.5" y="-1192.5" font-family="Helvetica,sans-Serif" font-size="10.00">&#45;</text>
<text text-anchor="start" x="370" y="-1192.5" font-family="Helvetica,sans-Serif" font-size="10.00">m_logDirPath</text>
<text text-anchor="start" x="359.5" y="-1177.5" font-family="Helvetica,sans-Serif" font-size="10.00">&#45;</text>
<text text-anchor="start" x="370" y="-1177.5" font-family="Helvetica,sans-Serif" font-size="10.00">MAX_FRAME_SIZE</text>
<text text-anchor="start" x="357" y="-1162.5" font-family="Helvetica,sans-Serif" font-size="10.00">+</text>
<text text-anchor="start" x="370" y="-1162.5" font-family="Helvetica,sans-Serif" font-size="10.00">UdpLogger()</text>
<text text-anchor="start" x="357" y="-1147.5" font-family="Helvetica,sans-Serif" font-size="10.00">+</text>
<text text-anchor="start" x="370" y="-1147.5" font-family="Helvetica,sans-Serif" font-size="10.00">~UdpLogger()</text>
<text text-anchor="start" x="357" y="-1132.5" font-family="Helvetica,sans-Serif" font-size="10.00">+</text>
<text text-anchor="start" x="370" y="-1132.5" font-family="Helvetica,sans-Serif" font-size="10.00">UdpLogger()</text>
<text text-anchor="start" x="357" y="-1117.5" font-family="Helvetica,sans-Serif" font-size="10.00">+</text>
<text text-anchor="start" x="370" y="-1117.5" font-family="Helvetica,sans-Serif" font-size="10.00">operator=()</text>
<text text-anchor="start" x="357" y="-1102.5" font-family="Helvetica,sans-Serif" font-size="10.00">+</text>
<text text-anchor="start" x="370" y="-1102.5" font-family="Helvetica,sans-Serif" font-size="10.00">UdpLogger()</text>
<text text-anchor="start" x="357" y="-1087.5" font-family="Helvetica,sans-Serif" font-size="10.00">+</text>
<text text-anchor="start" x="370" y="-1087.5" font-family="Helvetica,sans-Serif" font-size="10.00">operator=()</text>
<text text-anchor="start" x="357" y="-1072.5" font-family="Helvetica,sans-Serif" font-size="10.00">+</text>
<text text-anchor="start" x="370" y="-1072.5" font-family="Helvetica,sans-Serif" font-size="10.00">log()</text>
<text text-anchor="start" x="357" y="-1057.5" font-family="Helvetica,sans-Serif" font-size="10.00">+</text>
<text text-anchor="start" x="370" y="-1057.5" font-family="Helvetica,sans-Serif" font-size="10.00">cyclesCount()</text>
<text text-anchor="start" x="357" y="-1042.5" font-family="Helvetica,sans-Serif" font-size="10.00">+</text>
<text text-anchor="start" x="370" y="-1042.5" font-family="Helvetica,sans-Serif" font-size="10.00">droppedFramesCount()</text>
<text text-anchor="start" x="357" y="-1027.5" font-family="Helvetica,sans-Serif" font-size="10.00">+</text>
<text text-anchor="start" x="370" y="-1027.5" font-family="Helvetica,sans-Serif" font-size="10.00">start()</text>
<text text-anchor="start" x="357" y="-1012.5" font-family="Helvetica,sans-Serif" font-size="10.00">+</text>
<text text-anchor="start" x="370" y="-1012.5" font-family="Helvetica,sans-Serif" font-size="10.00">stop()</text>
<text text-anchor="start" x="359.5" y="-997.5" font-family="Helvetica,sans-Serif" font-size="10.00">&#45;</text>
<text text-anchor="start" x="370" y="-997.5" font-family="Helvetica,sans-Serif" font-size="10.00">writerLoop()</text>
<polygon fill="#666666" stroke="#666666" points="353,-1262.5 353,-1262.5 486,-1262.5 486,-1262.5 353,-1262.5"/>
<polygon fill="#666666" stroke="#666666" points="353,-1172.5 353,-1172.5 368,-1172.5 368,-1172.5 353,-1172.5"/>
<polygon fill="#666666" stroke="#666666" points="368,-1172.5 368,-1172.5 486,-1172.5 486,-1172.5 368,-1172.5"/>
<polygon fill="none" stroke="#666666" points="352.5,-991 352.5,-1280 485.5,-1280 485.5,-991 352.5,-991"/>
</a>
</g>
</g>
<!-- Node7&#45;&gt;Node5 -->
<g id="edge15_Node000005_Node000007" class="edge">
<title>Node7&#45;&gt;Node5</title>
<g id="a_edge15_Node000005_Node000007"><a xlink:title=" ">
<path fill="none" stroke="#63b8ff" d="M414.98,-990.91C412.34,-929.25 408.03,-856.46 401,-791 400.81,-789.19 400.61,-787.37 400.4,-785.54"/>
<polygon fill="none" stroke="#63b8ff" points="400.37,-785.3 395.69,-779.81 398.96,-773.38 403.64,-778.87 400.37,-785.3"/>
</a>
</g>
<text text-anchor="middle" x="449.5" y="-879.5" font-family="Helvetica,sans-Serif" font-size="10.00" fill="grey"> &#45;m_udpLogger</text>
</g>
<!-- Node7&#45;&gt;Node6 -->
<g id="edge8_Node000006_Node000007" class="edge">
<title>Node7&#45;&gt;Node6</title>
<g id="a_edge8_Node000006_Node000007"><a xlink:title=" ">
<path fill="none" stroke="#63b8ff" d="M352.5,-1017.9C344.87,-1002.97 337.51,-987.75 331,-973 328.52,-967.38 326.11,-961.49 323.8,-955.54"/>
<polygon fill="none" stroke="#63b8ff" points="323.7,-955.28 317.85,-951.07 319.48,-944.05 325.33,-948.26 323.7,-955.28"/>
</a>
</g>
<text text-anchor="middle" x="366.5" y="-965" font-family="Helvetica,sans-Serif" font-size="10.00" fill="grey"> &#45;m_udplogger</text>
</g>
<!-- Node8&#45;&gt;Node5 -->
<g id="edge14_Node000005_Node000008" class="edge">
<title>Node8&#45;&gt;Node5</title>
<g id="a_edge14_Node000005_Node000008"><a xlink:title=" ">
<path fill="none" stroke="#63b8ff" d="M366.08,-1398.87C367.67,-1397.5 369.31,-1396.2 371,-1395 393.34,-1379.1 408.04,-1393.41 430,-1377 471.37,-1346.08 479.15,-1329.47 494,-1280 552.78,-1084.18 543.83,-1017.24 490,-820 480.18,-784.02 463.04,-747.59 444.77,-715.28"/>
<polygon fill="none" stroke="#63b8ff" points="444.54,-714.89 438.08,-711.69 438.54,-704.49 445.01,-707.69 444.54,-714.89"/>
</a>
</g>
<text text-anchor="middle" x="553.5" y="-965" font-family="Helvetica,sans-Serif" font-size="10.00" fill="grey"> &#45;m_logger</text>
</g>
<!-- Node8&#45;&gt;Node6 -->
<g id="edge11_Node000006_Node000008" class="edge">
<title>Node8&#45;&gt;Node6</title>
<g id="a_edge11_Node000006_Node000008"><a xlink:title=" ">
<path fill="none" stroke="#63b8ff" d="M315.07,-1394.87C305.61,-1362.07 294.79,-1319.05 290,-1280 274.35,-1152.51 284.07,-1119.31 290,-991 290.52,-979.69 291.35,-967.74 292.31,-956.07"/>
<polygon fill="none" stroke="#63b8ff" points="292.32,-956 288.85,-949.68 293.36,-944.05 296.82,-950.37 292.32,-956"/>
</a>
</g>
<text text-anchor="middle" x="316.5" y="-1133" font-family="Helvetica,sans-Serif" font-size="10.00" fill="grey"> &#45;m_logger</text>
</g>
<!-- Node8&#45;&gt;Node7 -->
<g id="edge9_Node000007_Node000008" class="edge">
<title>Node8&#45;&gt;Node7</title>
<g id="a_edge9_Node000007_Node000008"><a xlink:title=" ">
<path fill="none" stroke="#63b8ff" d="M346.96,-1394.87C354.96,-1366.17 365.26,-1329.21 375.57,-1292.27"/>
<polygon fill="none" stroke="#63b8ff" points="375.68,-1291.84 373.44,-1284.99 378.91,-1280.28 381.15,-1287.14 375.68,-1291.84"/>
</a>
</g>
<text text-anchor="middle" x="399.5" y="-1335" font-family="Helvetica,sans-Serif" font-size="10.00" fill="grey"> &#45;m_logger</text>
</g>
<!-- Node9&#45;&gt;Node5 -->
<g id="edge12_Node000005_Node000009" class="edge">
<title>Node9&#45;&gt;Node5</title>
<g id="a_edge12_Node000005_Node000009"><a xlink:title=" ">
<path fill="none" stroke="#63b8ff" d="M590.37,-1297.81C601.42,-1204.63 618.86,-962.79 531,-791 509.77,-749.49 477.19,-709.63 446.95,-677.7"/>
<polygon fill="none" stroke="#63b8ff" points="446.82,-677.56 439.78,-676 438.5,-668.91 445.54,-670.46 446.82,-677.56"/>
</a>
</g>
<text text-anchor="middle" x="624" y="-965" font-family="Helvetica,sans-Serif" font-size="10.00" fill="grey"> &#45;m_fileSystem</text>
</g>
</g>
</svg>
