<?xml version="1.0" encoding="UTF-8" standalone="no"?>
<!DOCTYPE svg PUBLIC "-//W3C//DTD SVG 1.1//EN"
 "http://www.w3.org/Graphics/SVG/1.1/DTD/svg11.dtd">
<!-- Generated by graphviz version 2.43.0 (0)
 -->
<!-- Title: CSVLogger Pages: 1 -->
<!--zoomable 1270 -->

<svg id="main" version="1.1" xmlns="http://www.w3.org/2000/svg" xmlns:xlink="http://www.w3.org/1999/xlink" xml:space="preserve" onload="init(evt)">
<style type="text/css"><![CDATA[
.node, .edge {opacity: 0.7;}
.node.selected, .edge.selected {opacity: 1;}
.edge:hover path { stroke: red; }
.edge:hover polygon { stroke: red; fill: red; }
]]></style>

<defs>
  <circle id="rim" cx="0" cy="0" r="7"/>
  <circle id="rim2" cx="0" cy="0" r="3.5"/>
  <g id="zoomPlus">
    <use xlink:href="#rim" fill="#404040"><set attributeName="fill" to="#808080" begin="zoomplus.mouseover" end="zoomplus.mouseout"/></use>
    <path d="M-4,0h8M0,-4v8" fill="none" stroke="white" stroke-width="1.5" pointer-events="none"/>
  </g>
  <g id="zoomMin">
    <use xlink:href="#rim" fill="#404040"><set attributeName="fill" to="#808080" begin="zoomminus.mouseover" end="zoomminus.mouseout"/></use>
    <path d="M-4,0h8" fill="none" stroke="white" stroke-width="1.5" pointer-events="none"/>
  </g>
  <g id="arrowUp" transform="translate(30 24)">
    <use xlink:href="#rim"/>
    <path pointer-events="none" fill="none" stroke="white" stroke-width="1.5" d="M0,-3.0v7 M-2.5,-0.5L0,-3.0L2.5,-0.5"/>
  </g>
  <g id="arrowRight" transform="rotate(90) translate(36 -43)">
    <use xlink:href="#rim"/>
    <path pointer-events="none" fill="none" stroke="white" stroke-width="1.5" d="M0,-3.0v7 M-2.5,-0.5L0,-3.0L2.5,-0.5"/>
  </g>
  <g id="arrowDown" transform="rotate(180) translate(-30 -48)">
    <use xlink:href="#rim"/>
    <path pointer-events="none" fill="none" stroke="white" stroke-width="1.5" d="M0,-3.0v7 M-2.5,-0.5L0,-3.0L2.5,-0.5"/>
  </g>
  <g id="arrowLeft" transform="rotate(270) translate(-36 17)">
    <use xlink:href="#rim"/>
    <path pointer-events="none" fill="none" stroke="white" stroke-width="1.5" d="M0,-3.0v7 M-2.5,-0.5L0,-3.0L2.5,-0.5"/>
  </g>
  <g id="resetDef">
    <use xlink:href="#rim2" fill="#404040"><set attributeName="fill" to="#808080" begin="reset.mouseover" end="reset.mouseout"/></use>
  </g>
</defs>
<script type="application/ecmascript">
var viewWidth = 540;
var viewHeight = 1270;
var sectionId = 'dynsection-1';
</script>
<script type="application/ecmascript" xlink:href="svg.min.js"/>
<svg id="graph" class="graph">
<g id="viewport">
<title>CSVLogger</title>
<!-- Node1 -->
<g id="Node000001" class="node">
<title>Node1</title>
<g id="a_Node000001"><a xlink:title=" ">
<polygon fill="#999999" stroke="transparent" points="82,-64 0,-64 0,0 82,0 82,-64"/>
<text text-anchor="start" x="14.5" y="-52" font-family="Helvetica,sans-Serif" font-size="10.00">CSVLogger</text>
<text text-anchor="start" x="4" y="-37" font-family="Helvetica,sans-Serif" font-size="10.00">+</text>
<text text-anchor="start" x="17" y="-37" font-family="Helvetica,sans-Serif" font-size="10.00">m_topics</text>
<text text-anchor="start" x="4" y="-22" font-family="Helvetica,sans-Serif" font-size="10.00">+</text>
<text text-anchor="start" x="17" y="-22" font-family="Helvetica,sans-Serif" font-size="10.00">CSVLogger()</text>
<text text-anchor="start" x="4" y="-7" font-family="Helvetica,sans-Serif" font-size="10.00">+</text>
<text text-anchor="start" x="17" y="-7" font-family="Helvetica,sans-Serif" font-size="10.00">logFile()</text>
<polygon fill="#666666" stroke="#666666" points="0,-47 0,-47 82,-47 82,-47 0,-47"/>
<polygon fill="#666666" stroke="#666666" points="0,-32 0,-32 15,-32 15,-32 0,-32"/>
<polygon fill="#666666" stroke="#666666" points="15,-32 15,-32 82,-32 82,-32 15,-32"/>
<polygon fill="none" stroke="#666666" points="0,0 0,-64 82,-64 82,0 0,0"/>
</a>
</g>
</g>
<!-- Node2 -->
<g id="Node000002" class="node">
<title>Node2</title>
<g id="a_Node000002"><a xlink:title=" ">
<polygon fill="white" stroke="transparent" points="131,-1262 81,-1262 81,-1213 131,-1213 131,-1262"/>
<text text-anchor="start" x="86" y="-1249.5" font-family="Helvetica,sans-Serif" font-size="10.00">QObject</text>
<text text-anchor="start" x="104" y="-1234.5" font-family="Helvetica,sans-Serif" font-size="10.00"> </text>
<text text-anchor="start" x="104" y="-1219.5" font-family="Helvetica,sans-Serif" font-size="10.00"> </text>
<polygon fill="#666666" stroke="#666666" points="81,-1244.5 81,-1244.5 131,-1244.5 131,-1244.5 81,-1244.5"/>
<polygon fill="#666666" stroke="#666666" points="81,-1229.5 81,-1229.5 131,-1229.5 131,-1229.5 81,-1229.5"/>
<polygon fill="none" stroke="#666666" points="81,-1213 81,-1262 131,-1262 131,-1213 81,-1213"/>
</a>
</g>
</g>
<!-- Node2&#45;&gt;Node1 -->
<g id="edge1_Node000001_Node000002" class="edge">
<title>Node2&#45;&gt;Node1</title>
<g id="a_edge1_Node000001_Node000002"><a xlink:title=" ">
<path fill="none" stroke="#63b8ff" d="M73.36,-1210.49C50.86,-1189.45 25,-1157.62 25,-1122.5 25,-1122.5 25,-1122.5 25,-277 25,-200.37 32.95,-110.5 37.65,-64.16"/>
<polygon fill="none" stroke="#63b8ff" points="71.04,-1213.12 80.82,-1217.2 75.72,-1207.91 71.04,-1213.12"/>
</a>
</g>
</g>
<!-- Node3 -->
<g id="Node000003" class="node">
<title>Node3</title>
<g id="a_Node000003"><a xlink:href="classUdpChannel.html" target="_top" xlink:title="UDP communication channel between the microcontroller and the HMI.">
<polygon fill="white" stroke="transparent" points="309.5,-445 174.5,-445 174.5,-111 309.5,-111 309.5,-445"/>
<text text-anchor="start" x="212.5" y="-433" font-family="Helvetica,sans-Serif" font-size="10.00">UdpChannel</text>
<text text-anchor="start" x="181.5" y="-418" font-family="Helvetica,sans-Serif" font-size="10.00">&#45;</text>
<text text-anchor="start" x="192" y="-418" font-family="Helvetica,sans-Serif" font-size="10.00">m_udpWorkerThread</text>
<text text-anchor="start" x="181.5" y="-403" font-family="Helvetica,sans-Serif" font-size="10.00">&#45;</text>
<text text-anchor="start" x="192" y="-403" font-family="Helvetica,sans-Serif" font-size="10.00">m_udpSocket</text>
<text text-anchor="start" x="181.5" y="-388" font-family="Helvetica,sans-Serif" font-size="10.00">&#45;</text>
<text text-anchor="start" x="192" y="-388" font-family="Helvetica,sans-Serif" font-size="10.00">m_remoteAddr</text>
<text text-anchor="start" x="181.5" y="-373" font-family="Helvetica,sans-Serif" font-size="10.00">&#45;</text>
<text text-anchor="start" x="192" y="-373" font-family="Helvetica,sans-Serif" font-size="10.00">m_remotePort</text>
<text text-anchor="start" x="181.5" y="-358" font-family="Helvetica,sans-Serif" font-size="10.00">&#45;</text>
<text text-anchor="start" x="192" y="-358" font-family="Helvetica,sans-Serif" font-size="10.00">m_localAddr</text>
<text text-anchor="start" x="181.5" y="-343" font-family="Helvetica,sans-Serif" font-size="10.00">&#45;</text>
<text text-anchor="start" x="192" y="-343" font-family="Helvetica,sans-Serif" font-size="10.00">m_localPort</text>
<text text-anchor="start" x="181.5" y="-328" font-family="Helvetica,sans-Serif" font-size="10.00">&#45;</text>
<text text-anchor="start" x="192" y="-328" font-family="Helvetica,sans-Serif" font-size="10.00">m_lastRefresh</text>
<text text-anchor="start" x="181.5" y="-313" font-family="Helvetica,sans-Serif" font-size="10.00">&#45;</text>
<text text-anchor="start" x="192" y="-313" font-family="Helvetica,sans-Serif" font-size="10.00">m_periodOfRefresh</text>
<text text-anchor="start" x="181.5" y="-298" font-family="Helvetica,sans-Serif" font-size="10.00">&#45;</text>
<text text-anchor="start" x="192" y="-298" font-family="Helvetica,sans-Serif" font-size="10.00">m_running</text>
<text text-anchor="start" x="179" y="-283" font-family="Helvetica,sans-Serif" font-size="10.00">+</text>
<text text-anchor="start" x="192" y="-283" font-family="Helvetica,sans-Serif" font-size="10.00">UdpChannel()</text>
<text text-anchor="start" x="179" y="-268" font-family="Helvetica,sans-Serif" font-size="10.00">+</text>
<text text-anchor="start" x="192" y="-268" font-family="Helvetica,sans-Serif" font-size="10.00">~UdpChannel()</text>
<text text-anchor="start" x="179" y="-253" font-family="Helvetica,sans-Serif" font-size="10.00">+</text>
<text text-anchor="start" x="192" y="-253" font-family="Helvetica,sans-Serif" font-size="10.00">startEndpoint()</text>
<text text-anchor="start" x="179" y="-238" font-family="Helvetica,sans-Serif" font-size="10.00">+</text>
<text text-anchor="start" x="192" y="-238" font-family="Helvetica,sans-Serif" font-size="10.00">stopEndpoint()</text>
<text text-anchor="start" x="179" y="-223" font-family="Helvetica,sans-Serif" font-size="10.00">+</text>
<text text-anchor="start" x="192" y="-223" font-family="Helvetica,sans-Serif" font-size="10.00">sendData()</text>
<text text-anchor="start" x="179" y="-208" font-family="Helvetica,sans-Serif" font-size="10.00">+</text>
<text text-anchor="start" x="192" y="-208" font-family="Helvetica,sans-Serif" font-size="10.00">running()</text>
<text text-anchor="start" x="179" y="-193" font-family="Helvetica,sans-Serif" font-size="10.00">+</text>
<text text-anchor="start" x="192" y="-193" font-family="Helvetica,sans-Serif" font-size="10.00">remoteAddr()</text>
<text text-anchor="start" x="179" y="-178" font-family="Helvetica,sans-Serif" font-size="10.00">+</text>
<text text-anchor="start" x="192" y="-178" font-family="Helvetica,sans-Serif" font-size="10.00">remotePort()</text>
<text text-anchor="start" x="179" y="-163" font-family="Helvetica,sans-Serif" font-size="10.00">+</text>
<text text-anchor="start" x="192" y="-163" font-family="Helvetica,sans-Serif" font-size="10.00">localAddr()</text>
<text text-anchor="start" x="179" y="-148" font-family="Helvetica,sans-Serif" font-size="10.00">+</text>
<text text-anchor="start" x="192" y="-148" font-family="Helvetica,sans-Serif" font-size="10.00">localPort()</text>
<text text-anchor="start" x="192" y="-133" font-family="Helvetica,sans-Serif" font-size="10.00">and 6 more...</text>
<text text-anchor="start" x="179" y="-118" font-family="Helvetica,sans-Serif" font-size="10.00">+</text>
<text text-anchor="start" x="192" y="-118" font-family="Helvetica,sans-Serif" font-size="10.00">onDatagramReceived()</text>
<polygon fill="#666666" stroke="#666666" points="175,-428 175,-428 310,-428 310,-428 175,-428"/>
<polygon fill="#666666" stroke="#666666" points="175,-293 175,-293 190,-293 190,-293 175,-293"/>
<polygon fill="#666666" stroke="#666666" points="190,-293 190,-293 310,-293 310,-293 190,-293"/>
<polygon fill="none" stroke="#666666" points="174.5,-111 174.5,-445 309.5,-445 309.5,-111 174.5,-111"/>
</a>
</g>
</g>
<!-- Node2&#45;&gt;Node3 -->
<g id="edge3_Node000003_Node000002" class="edge">
<title>Node2&#45;&gt;Node3</title>
<g id="a_edge3_Node000003_Node000002"><a xlink:title=" ">
<path fill="none" stroke="#63b8ff" d="M86.42,-1203.62C75.07,-1181.48 63,-1151.19 63,-1122.5 63,-1122.5 63,-1122.5 63,-553 63,-468.34 123.64,-389.41 174.33,-338.22"/>
<polygon fill="none" stroke="#63b8ff" points="83.41,-1205.4 91.2,-1212.58 89.58,-1202.11 83.41,-1205.4"/>
</a>
</g>
</g>
<!-- Node4 -->
<g id="Node000004" class="node">
<title>Node4</title>
<g id="a_Node000004"><a xlink:href="classUdpWorker.html" target="_top" xlink:title="UDP socket worker running on a dedicated thread.">
<polygon fill="white" stroke="transparent" points="251,-616 91,-616 91,-492 251,-492 251,-616"/>
<text text-anchor="start" x="144" y="-604" font-family="Helvetica,sans-Serif" font-size="10.00">UdpWorker</text>
<text text-anchor="start" x="97.5" y="-589" font-family="Helvetica,sans-Serif" font-size="10.00">&#45;</text>
<text text-anchor="start" x="108" y="-589" font-family="Helvetica,sans-Serif" font-size="10.00">socket</text>
<text text-anchor="start" x="97.5" y="-574" font-family="Helvetica,sans-Serif" font-size="10.00">&#45;</text>
<text text-anchor="start" x="108" y="-574" font-family="Helvetica,sans-Serif" font-size="10.00">m_lastFrameSend</text>
<text text-anchor="start" x="95" y="-559" font-family="Helvetica,sans-Serif" font-size="10.00">+</text>
<text text-anchor="start" x="108" y="-559" font-family="Helvetica,sans-Serif" font-size="10.00">UdpWorker()</text>
<text text-anchor="start" x="95" y="-544" font-family="Helvetica,sans-Serif" font-size="10.00">+</text>
<text text-anchor="start" x="108" y="-544" font-family="Helvetica,sans-Serif" font-size="10.00">start()</text>
<text text-anchor="start" x="95" y="-529" font-family="Helvetica,sans-Serif" font-size="10.00">+</text>
<text text-anchor="start" x="108" y="-529" font-family="Helvetica,sans-Serif" font-size="10.00">stop()</text>
<text text-anchor="start" x="97.5" y="-514" font-family="Helvetica,sans-Serif" font-size="10.00">&#45;</text>
<text text-anchor="start" x="108" y="-514" font-family="Helvetica,sans-Serif" font-size="10.00">decimate()</text>
<text text-anchor="start" x="97.5" y="-499" font-family="Helvetica,sans-Serif" font-size="10.00">&#45;</text>
<text text-anchor="start" x="108" y="-499" font-family="Helvetica,sans-Serif" font-size="10.00">processPendingDatagrams()</text>
<polygon fill="#666666" stroke="#666666" points="91,-599 91,-599 251,-599 251,-599 91,-599"/>
<polygon fill="#666666" stroke="#666666" points="91,-569 91,-569 106,-569 106,-569 91,-569"/>
<polygon fill="#666666" stroke="#666666" points="106,-569 106,-569 251,-569 251,-569 106,-569"/>
<polygon fill="none" stroke="#666666" points="91,-492 91,-616 251,-616 251,-492 91,-492"/>
</a>
</g>
</g>
<!-- Node2&#45;&gt;Node4 -->
<g id="edge5_Node000004_Node000002" class="edge">
<title>Node2&#45;&gt;Node4</title>
<g id="a_edge5_Node000004_Node000002"><a xlink:title=" ">
<path fill="none" stroke="#63b8ff" d="M106.32,-1202.83C107.57,-1114.02 113.84,-866.33 145,-663 147.35,-647.65 150.8,-631.28 154.41,-616.04"/>
<polygon fill="none" stroke="#63b8ff" points="102.82,-1202.81 106.19,-1212.85 109.82,-1202.9 102.82,-1202.81"/>
</a>
</g>
</g>
<!-- Node6 -->
<g id="Node000006" class="node">
<title>Node6</title>
<g id="a_Node000006"><a xlink:href="classLogger.html" target="_top" xlink:title=" ">
<polygon fill="white" stroke="transparent" points="263,-1176 195,-1176 195,-1067 263,-1067 263,-1176"/>
<text text-anchor="start" x="212" y="-1163.5" font-family="Helvetica,sans-Serif" font-size="10.00">Logger</text>
<text text-anchor="start" x="227" y="-1148.5" font-family="Helvetica,sans-Serif" font-size="10.00"> </text>
<text text-anchor="start" x="199" y="-1133.5" font-family="Helvetica,sans-Serif" font-size="10.00">+</text>
<text text-anchor="start" x="212" y="-1133.5" font-family="Helvetica,sans-Serif" font-size="10.00">Logger()</text>
<text text-anchor="start" x="199" y="-1118.5" font-family="Helvetica,sans-Serif" font-size="10.00">+</text>
<text text-anchor="start" x="212" y="-1118.5" font-family="Helvetica,sans-Serif" font-size="10.00">log()</text>
<text text-anchor="start" x="199" y="-1103.5" font-family="Helvetica,sans-Serif" font-size="10.00">+</text>
<text text-anchor="start" x="212" y="-1103.5" font-family="Helvetica,sans-Serif" font-size="10.00">debug()</text>
<text text-anchor="start" x="199" y="-1088.5" font-family="Helvetica,sans-Serif" font-size="10.00">+</text>
<text text-anchor="start" x="212" y="-1088.5" font-family="Helvetica,sans-Serif" font-size="10.00">error()</text>
<text text-anchor="start" x="199" y="-1073.5" font-family="Helvetica,sans-Serif" font-size="10.00">+</text>
<text text-anchor="start" x="212" y="-1073.5" font-family="Helvetica,sans-Serif" font-size="10.00">warning()</text>
<polygon fill="#666666" stroke="#666666" points="195,-1158.5 195,-1158.5 263,-1158.5 263,-1158.5 195,-1158.5"/>
<polygon fill="#666666" stroke="#666666" points="195,-1143.5 195,-1143.5 263,-1143.5 263,-1143.5 195,-1143.5"/>
<polygon fill="none" stroke="#666666" points="195,-1067 195,-1176 263,-1176 263,-1067 195,-1067"/>
</a>
</g>
</g>
<!-- Node2&#45;&gt;Node6 -->
<g id="edge8_Node000006_Node000002" class="edge">
<title>Node2&#45;&gt;Node6</title>
<g id="a_edge8_Node000006_Node000002"><a xlink:title=" ">
<path fill="none" stroke="#63b8ff" d="M138.86,-1206.05C156.2,-1189.97 177.47,-1170.26 194.98,-1154.03"/>
<polygon fill="none" stroke="#63b8ff" points="136.14,-1203.79 131.19,-1213.16 140.9,-1208.92 136.14,-1203.79"/>
</a>
</g>
</g>
<!-- Node7 -->
<g id="Node000007" class="node">
<title>Node7</title>
<g id="a_Node000007"><a xlink:href="classFileSystem.html" target="_top" xlink:title=" ">
<polygon fill="white" stroke="transparent" points="502,-1049 410,-1049 410,-970 502,-970 502,-1049"/>
<text text-anchor="start" x="428.5" y="-1036.5" font-family="Helvetica,sans-Serif" font-size="10.00">FileSystem</text>
<text text-anchor="start" x="416.5" y="-1021.5" font-family="Helvetica,sans-Serif" font-size="10.00">&#45;</text>
<text text-anchor="start" x="427" y="-1021.5" font-family="Helvetica,sans-Serif" font-size="10.00">m_pathList</text>
<text text-anchor="start" x="414" y="-1006.5" font-family="Helvetica,sans-Serif" font-size="10.00">+</text>
<text text-anchor="start" x="427" y="-1006.5" font-family="Helvetica,sans-Serif" font-size="10.00">FileSystem()</text>
<text text-anchor="start" x="414" y="-991.5" font-family="Helvetica,sans-Serif" font-size="10.00">+</text>
<text text-anchor="start" x="427" y="-991.5" font-family="Helvetica,sans-Serif" font-size="10.00">addDirectory()</text>
<text text-anchor="start" x="414" y="-976.5" font-family="Helvetica,sans-Serif" font-size="10.00">+</text>
<text text-anchor="start" x="427" y="-976.5" font-family="Helvetica,sans-Serif" font-size="10.00">getDirectory()</text>
<polygon fill="#666666" stroke="#666666" points="410,-1031.5 410,-1031.5 502,-1031.5 502,-1031.5 410,-1031.5"/>
<polygon fill="#666666" stroke="#666666" points="410,-1016.5 410,-1016.5 425,-1016.5 425,-1016.5 410,-1016.5"/>
<polygon fill="#666666" stroke="#666666" points="425,-1016.5 425,-1016.5 502,-1016.5 502,-1016.5 425,-1016.5"/>
<polygon fill="none" stroke="#666666" points="410,-970 410,-1049 502,-1049 502,-970 410,-970"/>
</a>
</g>
</g>
<!-- Node2&#45;&gt;Node7 -->
<g id="edge11_Node000007_Node000002" class="edge">
<title>Node2&#45;&gt;Node7</title>
<g id="a_edge11_Node000007_Node000002"><a xlink:title=" ">
<path fill="none" stroke="#63b8ff" d="M140.95,-1227.97C175.79,-1218.53 230,-1201.23 272,-1176 330.19,-1141.04 386.64,-1086.19 421.33,-1049.32"/>
<polygon fill="none" stroke="#63b8ff" points="140.01,-1224.6 131.23,-1230.54 141.79,-1231.37 140.01,-1224.6"/>
</a>
</g>
</g>
<!-- Node3&#45;&gt;Node1 -->
<g id="edge2_Node000001_Node000003" class="edge">
<title>Node3&#45;&gt;Node1</title>
<g id="a_edge2_Node000001_Node000003"><a xlink:title=" ">
<path fill="none" stroke="#63b8ff" d="M174.23,-194.73C140.62,-153.93 101.53,-106.48 74.42,-73.57"/>
<polygon fill="none" stroke="#63b8ff" points="74.39,-73.53 67.49,-71.45 66.76,-64.27 73.66,-66.36 74.39,-73.53"/>
</a>
</g>
<text text-anchor="middle" x="130" y="-85" font-family="Helvetica,sans-Serif" font-size="10.00" fill="grey"> &#45;m_udpChannel</text>
</g>
<!-- Node4&#45;&gt;Node3 -->
<g id="edge4_Node000003_Node000004" class="edge">
<title>Node4&#45;&gt;Node3</title>
<g id="a_edge4_Node000003_Node000004"><a xlink:title=" ">
<path fill="none" stroke="#63b8ff" d="M186.85,-491.85C189.65,-481.03 192.69,-469.3 195.86,-457.08"/>
<polygon fill="none" stroke="#63b8ff" points="195.92,-456.85 193.55,-450.03 198.93,-445.23 201.29,-452.04 195.92,-456.85"/>
</a>
</g>
<text text-anchor="middle" x="231" y="-466" font-family="Helvetica,sans-Serif" font-size="10.00" fill="grey"> &#45;m_udpWorker</text>
</g>
<!-- Node5 -->
<g id="Node000005" class="node">
<title>Node5</title>
<g id="a_Node000005"><a xlink:href="classUdpLogger.html" target="_top" xlink:title="High&#45;frequency binary logger for UDP telemetry frames.">
<polygon fill="white" stroke="transparent" points="356.5,-952 223.5,-952 223.5,-663 356.5,-663 356.5,-952"/>
<text text-anchor="start" x="264" y="-939.5" font-family="Helvetica,sans-Serif" font-size="10.00">UdpLogger</text>
<text text-anchor="start" x="230.5" y="-924.5" font-family="Helvetica,sans-Serif" font-size="10.00">&#45;</text>
<text text-anchor="start" x="241" y="-924.5" font-family="Helvetica,sans-Serif" font-size="10.00">m_writer</text>
<text text-anchor="start" x="230.5" y="-909.5" font-family="Helvetica,sans-Serif" font-size="10.00">&#45;</text>
<text text-anchor="start" x="241" y="-909.5" font-family="Helvetica,sans-Serif" font-size="10.00">m_ringBuffer</text>
<text text-anchor="start" x="230.5" y="-894.5" font-family="Helvetica,sans-Serif" font-size="10.00">&#45;</text>
<text text-anchor="start" x="241" y="-894.5" font-family="Helvetica,sans-Serif" font-size="10.00">m_running</text>
<text text-anchor="start" x="230.5" y="-879.5" font-family="Helvetica,sans-Serif" font-size="10.00">&#45;</text>
<text text-anchor="start" x="241" y="-879.5" font-family="Helvetica,sans-Serif" font-size="10.00">m_writerThread</text>
<text text-anchor="start" x="230.5" y="-864.5" font-family="Helvetica,sans-Serif" font-size="10.00">&#45;</text>
<text text-anchor="start" x="241" y="-864.5" font-family="Helvetica,sans-Serif" font-size="10.00">m_logDirPath</text>
<text text-anchor="start" x="230.5" y="-849.5" font-family="Helvetica,sans-Serif" font-size="10.00">&#45;</text>
<text text-anchor="start" x="241" y="-849.5" font-family="Helvetica,sans-Serif" font-size="10.00">MAX_FRAME_SIZE</text>
<text text-anchor="start" x="228" y="-834.5" font-family="Helvetica,sans-Serif" font-size="10.00">+</text>
<text text-anchor="start" x="241" y="-834.5" font-family="Helvetica,sans-Serif" font-size="10.00">UdpLogger()</text>
<text text-anchor="start" x="228" y="-819.5" font-family="Helvetica,sans-Serif" font-size="10.00">+</text>
<text text-anchor="start" x="241" y="-819.5" font-family="Helvetica,sans-Serif" font-size="10.00">~UdpLogger()</text>
<text text-anchor="start" x="228" y="-804.5" font-family="Helvetica,sans-Serif" font-size="10.00">+</text>
<text text-anchor="start" x="241" y="-804.5" font-family="Helvetica,sans-Serif" font-size="10.00">UdpLogger()</text>
<text text-anchor="start" x="228" y="-789.5" font-family="Helvetica,sans-Serif" font-size="10.00">+</text>
<text text-anchor="start" x="241" y="-789.5" font-family="Helvetica,sans-Serif" font-size="10.00">operator=()</text>
<text text-anchor="start" x="228" y="-774.5" font-family="Helvetica,sans-Serif" font-size="10.00">+</text>
<text text-anchor="start" x="241" y="-774.5" font-family="Helvetica,sans-Serif" font-size="10.00">UdpLogger()</text>
<text text-anchor="start" x="228" y="-759.5" font-family="Helvetica,sans-Serif" font-size="10.00">+</text>
<text text-anchor="start" x="241" y="-759.5" font-family="Helvetica,sans-Serif" font-size="10.00">operator=()</text>
<text text-anchor="start" x="228" y="-744.5" font-family="Helvetica,sans-Serif" font-size="10.00">+</text>
<text text-anchor="start" x="241" y="-744.5" font-family="Helvetica,sans-Serif" font-size="10.00">log()</text>
<text text-anchor="start" x="228" y="-729.5" font-family="Helvetica,sans-Serif" font-size="10.00">+</text>
<text text-anchor="start" x="241" y="-729.5" font-family="Helvetica,sans-Serif" font-size="10.00">cyclesCount()</text>
<text text-anchor="start" x="228" y="-714.5" font-family="Helvetica,sans-Serif" font-size="10.00">+</text>
<text text-anchor="start" x="241" y="-714.5" font-family="Helvetica,sans-Serif" font-size="10.00">droppedFramesCount()</text>
<text text-anchor="start" x="228" y="-699.5" font-family="Helvetica,sans-Serif" font-size="10.00">+</text>
<text text-anchor="start" x="241" y="-699.5" font-family="Helvetica,sans-Serif" font-size="10.00">start()</text>
<text text-anchor="start" x="228" y="-684.5" font-family="Helvetica,sans-Serif" font-size="10.00">+</text>
<text text-anchor="start" x="241" y="-684.5" font-family="Helvetica,sans-Serif" font-size="10.00">stop()</text>
<text text-anchor="start" x="230.5" y="-669.5" font-family="Helvetica,sans-Serif" font-size="10.00">&#45;</text>
<text text-anchor="start" x="241" y="-669.5" font-family="Helvetica,sans-Serif" font-size="10.00">writerLoop()</text>
<polygon fill="#666666" stroke="#666666" points="224,-934.5 224,-934.5 357,-934.5 357,-934.5 224,-934.5"/>
<polygon fill="#666666" stroke="#666666" points="224,-844.5 224,-844.5 239,-844.5 239,-844.5 224,-844.5"/>
<polygon fill="#666666" stroke="#666666" points="239,-844.5 239,-844.5 357,-844.5 357,-844.5 239,-844.5"/>
<polygon fill="none" stroke="#666666" points="223.5,-663 223.5,-952 356.5,-952 356.5,-663 223.5,-663"/>
</a>
</g>
</g>
<!-- Node5&#45;&gt;Node3 -->
<g id="edge13_Node000003_Node000005" class="edge">
<title>Node5&#45;&gt;Node3</title>
<g id="a_edge13_Node000003_Node000005"><a xlink:title=" ">
<path fill="none" stroke="#63b8ff" d="M285.98,-662.91C283.34,-601.25 279.03,-528.46 272,-463 271.81,-461.19 271.61,-459.37 271.4,-457.54"/>
<polygon fill="none" stroke="#63b8ff" points="271.37,-457.3 266.69,-451.81 269.96,-445.38 274.64,-450.87 271.37,-457.3"/>
</a>
</g>
<text text-anchor="middle" x="320.5" y="-551.5" font-family="Helvetica,sans-Serif" font-size="10.00" fill="grey"> &#45;m_udpLogger</text>
</g>
<!-- Node5&#45;&gt;Node4 -->
<g id="edge6_Node000004_Node000005" class="edge">
<title>Node5&#45;&gt;Node4</title>
<g id="a_edge6_Node000004_Node000005"><a xlink:title=" ">
<path fill="none" stroke="#63b8ff" d="M223.5,-689.9C215.87,-674.97 208.51,-659.75 202,-645 199.52,-639.38 197.11,-633.49 194.8,-627.54"/>
<polygon fill="none" stroke="#63b8ff" points="194.7,-627.28 188.85,-623.07 190.48,-616.05 196.33,-620.26 194.7,-627.28"/>
</a>
</g>
<text text-anchor="middle" x="237.5" y="-637" font-family="Helvetica,sans-Serif" font-size="10.00" fill="grey"> &#45;m_udplogger</text>
</g>
<!-- Node6&#45;&gt;Node3 -->
<g id="edge12_Node000003_Node000006" class="edge">
<title>Node6&#45;&gt;Node3</title>
<g id="a_edge12_Node000003_Node000006"><a xlink:title=" ">
<path fill="none" stroke="#63b8ff" d="M263.19,-1071.02C264.75,-1069.6 266.36,-1068.26 268,-1067 285.76,-1053.4 298.34,-1063.92 315,-1049 351.13,-1016.64 353.57,-999.13 365,-952 413.2,-753.31 414.83,-689.24 361,-492 351.18,-456.02 334.04,-419.59 315.77,-387.28"/>
<polygon fill="none" stroke="#63b8ff" points="315.54,-386.89 309.08,-383.69 309.54,-376.49 316.01,-379.69 315.54,-386.89"/>
</a>
</g>
<text text-anchor="middle" x="422.5" y="-637" font-family="Helvetica,sans-Serif" font-size="10.00" fill="grey"> &#45;m_logger</text>
</g>
<!-- Node6&#45;&gt;Node4 -->
<g id="edge9_Node000004_Node000006" class="edge">
<title>Node6&#45;&gt;Node4</title>
<g id="a_edge9_Node000004_Node000006"><a xlink:title=" ">
<path fill="none" stroke="#63b8ff" d="M201.13,-1066.73C185.96,-1034.42 168.76,-991.95 161,-952 139.37,-840.63 149.68,-708.4 159.81,-628.15"/>
<polygon fill="none" stroke="#63b8ff" points="159.81,-628.11 156.62,-621.64 161.36,-616.21 164.55,-622.68 159.81,-628.11"/>
</a>
</g>
<text text-anchor="middle" x="187.5" y="-805" font-family="Helvetica,sans-Serif" font-size="10.00" fill="grey"> &#45;m_logger</text>
</g>
<!-- Node6&#45;&gt;Node5 -->
<g id="edge7_Node000005_Node000006" class="edge">
<title>Node6&#45;&gt;Node5</title>
<g id="a_edge7_Node000005_Node000006"><a xlink:title=" ">
<path fill="none" stroke="#63b8ff" d="M239.49,-1066.87C245.1,-1038.17 252.32,-1001.21 259.55,-964.27"/>
<polygon fill="none" stroke="#63b8ff" points="259.59,-964.06 256.81,-957.4 261.89,-952.28 264.66,-958.94 259.59,-964.06"/>
</a>
</g>
<text text-anchor="middle" x="284.5" y="-1007" font-family="Helvetica,sans-Serif" font-size="10.00" fill="grey"> &#45;m_logger</text>
</g>
<!-- Node7&#45;&gt;Node3 -->
<g id="edge10_Node000003_Node000007" class="edge">
<title>Node7&#45;&gt;Node3</title>
<g id="a_edge10_Node000003_Node000007"><a xlink:title=" ">
<path fill="none" stroke="#63b8ff" d="M461.37,-969.81C472.42,-876.63 489.86,-634.79 402,-463 380.77,-421.49 348.19,-381.63 317.95,-349.7"/>
<polygon fill="none" stroke="#63b8ff" points="317.82,-349.56 310.78,-348 309.5,-340.91 316.54,-342.46 317.82,-349.56"/>
</a>
</g>
<text text-anchor="middle" x="495" y="-637" font-family="Helvetica,sans-Serif" font-size="10.00" fill="grey"> &#45;m_fileSystem</text>
</g>
</g>
</svg>

<g id="navigator" transform="translate(0 0)" fill="#404254">
  <rect fill="#f2f5e9" fill-opacity="0.5" stroke="#606060" stroke-width=".5" x="0" y="0" width="60" height="60"/>
  <use id="zoomplus" xlink:href="#zoomPlus" x="17" y="9" onmousedown="handleZoom(evt,'in')"/>
  <use id="zoomminus" xlink:href="#zoomMin" x="42" y="9" onmousedown="handleZoom(evt,'out')"/>
  <use id="reset" xlink:href="#resetDef" x="30" y="36" onmousedown="handleReset()"/>
   <use id="arrowup" xlink:href="#arrowUp" x="0" y="0" onmousedown="handlePan(0,-1)"/>
  <use id="arrowright" xlink:href="#arrowRight" x="0" y="0" onmousedown="handlePan(1,0)"/>
  <use id="arrowdown" xlink:href="#arrowDown" x="0" y="0" onmousedown="handlePan(0,1)"/>
  <use id="arrowleft" xlink:href="#arrowLeft" x="0" y="0" onmousedown="handlePan(-1,0)"/>
</g>
<svg viewBox="0 0 15 15" width="100%" height="30px" preserveAspectRatio="xMaxYMin meet">
 <g id="arrow_out" transform="scale(0.3 0.3)">
  <a xlink:href="classCSVLogger__coll__graph_org.svg" target="_base">
   <rect id="button" ry="5" rx="5" y="6" x="6" height="38" width="38"
        fill="#f2f5e9" fill-opacity="0.5" stroke="#606060" stroke-width="1.0"/>
   <path id="arrow"
     d="M 11.500037,31.436501 C 11.940474,20.09759 22.043105,11.32322 32.158766,21.979434 L 37.068811,17.246167 C 37.068811,17.246167 37.088388,32 37.088388,32 L 22.160133,31.978069 C 22.160133,31.978069 26.997745,27.140456 26.997745,27.140456 C 18.528582,18.264221 13.291696,25.230495 11.500037,31.436501 z"
     style="fill:#404040;"/>
  </a>
 </g>
</svg>

<style type='text/css'>
<![CDATA[
[data-mouse-over-selected='false'] { opacity: 0.7; }
[data-mouse-over-selected='true']  { opacity: 1.0; }
]]>
</style>
<script type="application/ecmascript"><![CDATA[
document.addEventListener('DOMContentLoaded', (event) => {
  highlightEdges();
  highlightAdjacentNodes();
});
]]></script>
</svg>
