<?xml version="1.0" encoding="UTF-8" standalone="no"?>
<!DOCTYPE svg PUBLIC "-//W3C//DTD SVG 1.1//EN"
 "http://www.w3.org/Graphics/SVG/1.1/DTD/svg11.dtd">
<!-- Generated by graphviz version 2.43.0 (0)
 -->
<!-- Title: UdpChannelParametersViewModel::restartEndpoint Pages: 1 -->
<svg width="1007pt" height="251pt"
 viewBox="0.00 0.00 1007.00 251.00" xmlns="http://www.w3.org/2000/svg" xmlns:xlink="http://www.w3.org/1999/xlink">
<g id="graph0" class="graph" transform="scale(1 1) rotate(0) translate(4 247)">
<title>UdpChannelParametersViewModel::restartEndpoint</title>
<!-- Node1 -->
<g id="Node000001" class="node">
<title>Node1</title>
<g id="a_Node000001"><a xlink:title=" ">
<polygon fill="#999999" stroke="#666666" points="155,-155.5 0,-155.5 0,-125.5 155,-125.5 155,-155.5"/>
<text text-anchor="start" x="8" y="-143.5" font-family="Helvetica,sans-Serif" font-size="10.00">UdpChannelParametersView</text>
<text text-anchor="middle" x="77.5" y="-132.5" font-family="Helvetica,sans-Serif" font-size="10.00">Model::restartEndpoint</text>
</a>
</g>
</g>
<!-- Node2 -->
<g id="Node000002" class="node">
<title>Node2</title>
<g id="a_Node000002"><a xlink:href="classUdpChannel.html#af57daa37448bd7c2707eeb6b2290b723" target="_top" xlink:title=" ">
<polygon fill="white" stroke="#666666" points="342.5,-243 197.5,-243 197.5,-224 342.5,-224 342.5,-243"/>
<text text-anchor="middle" x="270" y="-231" font-family="Helvetica,sans-Serif" font-size="10.00">UdpChannel::setLocalAddr</text>
</a>
</g>
</g>
<!-- Node1&#45;&gt;Node2 -->
<g id="edge1_Node000001_Node000002" class="edge">
<title>Node1&#45;&gt;Node2</title>
<g id="a_edge1_Node000001_Node000002"><a xlink:title=" ">
<path fill="none" stroke="#63b8ff" d="M96.79,-155.76C118.1,-172.78 155.01,-199.97 191,-215.5 195.74,-217.55 200.75,-219.38 205.85,-221.02"/>
<polygon fill="#63b8ff" stroke="#63b8ff" points="205.14,-224.45 215.72,-223.93 207.12,-217.74 205.14,-224.45"/>
</a>
</g>
</g>
<!-- Node3 -->
<g id="Node000003" class="node">
<title>Node3</title>
<g id="a_Node000003"><a xlink:href="classUdpChannel.html#aaa49cc41565da600fd7b89d34bf4c389" target="_top" xlink:title=" ">
<polygon fill="white" stroke="#666666" points="341,-206 199,-206 199,-187 341,-187 341,-206"/>
<text text-anchor="middle" x="270" y="-194" font-family="Helvetica,sans-Serif" font-size="10.00">UdpChannel::setLocalPort</text>
</a>
</g>
</g>
<!-- Node1&#45;&gt;Node3 -->
<g id="edge2_Node000001_Node000003" class="edge">
<title>Node1&#45;&gt;Node3</title>
<g id="a_edge2_Node000001_Node000003"><a xlink:title=" ">
<path fill="none" stroke="#63b8ff" d="M119.87,-155.57C140.99,-162.98 167.2,-171.75 191,-178.5 198.52,-180.63 206.5,-182.7 214.38,-184.62"/>
<polygon fill="#63b8ff" stroke="#63b8ff" points="213.72,-188.06 224.26,-186.98 215.34,-181.25 213.72,-188.06"/>
</a>
</g>
</g>
<!-- Node4 -->
<g id="Node000004" class="node">
<title>Node4</title>
<g id="a_Node000004"><a xlink:href="classUdpChannel.html#a98a242e2766c5f1919577ae3f1b5b8eb" target="_top" xlink:title=" ">
<polygon fill="white" stroke="#666666" points="349,-169 191,-169 191,-150 349,-150 349,-169"/>
<text text-anchor="middle" x="270" y="-157" font-family="Helvetica,sans-Serif" font-size="10.00">UdpChannel::setRemoteAddr</text>
</a>
</g>
</g>
<!-- Node1&#45;&gt;Node4 -->
<g id="edge3_Node000001_Node000004" class="edge">
<title>Node1&#45;&gt;Node4</title>
<g id="a_edge3_Node000001_Node000004"><a xlink:title=" ">
<path fill="none" stroke="#63b8ff" d="M155.16,-148.15C163.63,-148.99 172.31,-149.86 180.9,-150.71"/>
<polygon fill="#63b8ff" stroke="#63b8ff" points="180.65,-154.21 190.94,-151.71 181.34,-147.24 180.65,-154.21"/>
</a>
</g>
</g>
<!-- Node5 -->
<g id="Node000005" class="node">
<title>Node5</title>
<g id="a_Node000005"><a xlink:href="classUdpChannel.html#abfabfe8bbb5e582c17c40315be3664c1" target="_top" xlink:title=" ">
<polygon fill="white" stroke="#666666" points="347.5,-132 192.5,-132 192.5,-113 347.5,-113 347.5,-132"/>
<text text-anchor="middle" x="270" y="-120" font-family="Helvetica,sans-Serif" font-size="10.00">UdpChannel::setRemotePort</text>
</a>
</g>
</g>
<!-- Node1&#45;&gt;Node5 -->
<g id="edge4_Node000001_Node000005" class="edge">
<title>Node1&#45;&gt;Node5</title>
<g id="a_edge4_Node000001_Node000005"><a xlink:title=" ">
<path fill="none" stroke="#63b8ff" d="M155.16,-133.26C164.1,-132.41 173.27,-131.55 182.33,-130.69"/>
<polygon fill="#63b8ff" stroke="#63b8ff" points="182.87,-134.15 192.5,-129.73 182.21,-127.18 182.87,-134.15"/>
</a>
</g>
</g>
<!-- Node6 -->
<g id="Node000006" class="node">
<title>Node6</title>
<g id="a_Node000006"><a xlink:href="classUdpChannel.html#a0ed1f8d1f6bab17f35b54db9f31ecc05" target="_top" xlink:title="Start UDP channel and his subsystems.">
<polygon fill="white" stroke="#666666" points="343.5,-95 196.5,-95 196.5,-76 343.5,-76 343.5,-95"/>
<text text-anchor="middle" x="270" y="-83" font-family="Helvetica,sans-Serif" font-size="10.00">UdpChannel::startEndpoint</text>
</a>
</g>
</g>
<!-- Node1&#45;&gt;Node6 -->
<g id="edge5_Node000001_Node000006" class="edge">
<title>Node1&#45;&gt;Node6</title>
<g id="a_edge5_Node000001_Node000006"><a xlink:title=" ">
<path fill="none" stroke="#63b8ff" d="M122.9,-125.49C143.51,-118.73 168.4,-110.86 191,-104.5 199.58,-102.09 208.74,-99.69 217.65,-97.46"/>
<polygon fill="#63b8ff" stroke="#63b8ff" points="218.7,-100.81 227.57,-95.02 217.02,-94.01 218.7,-100.81"/>
</a>
</g>
</g>
<!-- Node13 -->
<g id="Node000013" class="node">
<title>Node13</title>
<g id="a_Node000013"><a xlink:href="classUdpChannel.html#a818443eac8b5aa21093fe3a1f39492a4" target="_top" xlink:title="Stop UDP endpoint and his subsystems.">
<polygon fill="white" stroke="#666666" points="343,-57 197,-57 197,-38 343,-38 343,-57"/>
<text text-anchor="middle" x="270" y="-45" font-family="Helvetica,sans-Serif" font-size="10.00">UdpChannel::stopEndpoint</text>
</a>
</g>
</g>
<!-- Node1&#45;&gt;Node13 -->
<g id="edge15_Node000001_Node000013" class="edge">
<title>Node1&#45;&gt;Node13</title>
<g id="a_edge15_Node000001_Node000013"><a xlink:title=" ">
<path fill="none" stroke="#63b8ff" d="M97.7,-125.23C119.25,-108.8 155.82,-82.93 191,-67.5 197.6,-64.6 204.71,-62.06 211.85,-59.85"/>
<polygon fill="#63b8ff" stroke="#63b8ff" points="212.93,-63.18 221.56,-57.04 210.98,-56.46 212.93,-63.18"/>
</a>
</g>
</g>
<!-- Node7 -->
<g id="Node000007" class="node">
<title>Node7</title>
<g id="a_Node000007"><a xlink:href="classUdpLogger.html#a55781f93bfc47a004e7b7b8afaa0192c" target="_top" xlink:title=" ">
<polygon fill="white" stroke="#666666" points="513,-132 415,-132 415,-113 513,-113 513,-132"/>
<text text-anchor="middle" x="464" y="-120" font-family="Helvetica,sans-Serif" font-size="10.00">UdpLogger::start</text>
</a>
</g>
</g>
<!-- Node6&#45;&gt;Node7 -->
<g id="edge6_Node000006_Node000007" class="edge">
<title>Node6&#45;&gt;Node7</title>
<g id="a_edge6_Node000006_Node000007"><a xlink:title=" ">
<path fill="none" stroke="#63b8ff" d="M320.44,-95.03C346.16,-99.98 377.75,-106.07 404.66,-111.26"/>
<polygon fill="#63b8ff" stroke="#63b8ff" points="404.24,-114.74 414.72,-113.2 405.56,-107.87 404.24,-114.74"/>
</a>
</g>
</g>
<!-- Node12 -->
<g id="Node000012" class="node">
<title>Node12</title>
<g id="a_Node000012"><a xlink:href="classUdpChannel.html#a48718b685a3059703ffbb06980376f7e" target="_top" xlink:title="Signal to the UDP worker that it should start.">
<polygon fill="white" stroke="#666666" points="543,-95 385,-95 385,-76 543,-76 543,-95"/>
<text text-anchor="middle" x="464" y="-83" font-family="Helvetica,sans-Serif" font-size="10.00">UdpChannel::startUdpWorker</text>
</a>
</g>
</g>
<!-- Node6&#45;&gt;Node12 -->
<g id="edge14_Node000006_Node000012" class="edge">
<title>Node6&#45;&gt;Node12</title>
<g id="a_edge14_Node000006_Node000012"><a xlink:title=" ">
<path fill="none" stroke="#63b8ff" d="M343.59,-85.5C353.7,-85.5 364.19,-85.5 374.55,-85.5"/>
<polygon fill="#63b8ff" stroke="#63b8ff" points="374.86,-89 384.86,-85.5 374.86,-82 374.86,-89"/>
</a>
</g>
</g>
<!-- Node8 -->
<g id="Node000008" class="node">
<title>Node8</title>
<g id="a_Node000008"><a xlink:href="classLogger.html#ad89b36eb9b5a28d1f61b3c74a6975031" target="_top" xlink:title=" ">
<polygon fill="white" stroke="#666666" points="828,-95 742,-95 742,-76 828,-76 828,-95"/>
<text text-anchor="middle" x="785" y="-83" font-family="Helvetica,sans-Serif" font-size="10.00">Logger::debug</text>
</a>
</g>
</g>
<!-- Node7&#45;&gt;Node8 -->
<g id="edge7_Node000007_Node000008" class="edge">
<title>Node7&#45;&gt;Node8</title>
<g id="a_edge7_Node000007_Node000008"><a xlink:title=" ">
<path fill="none" stroke="#63b8ff" d="M513.16,-114.19C533.45,-110.88 557.33,-107.21 579,-104.5 630.82,-98.01 690.27,-92.74 731.76,-89.41"/>
<polygon fill="#63b8ff" stroke="#63b8ff" points="732.21,-92.89 741.9,-88.61 731.66,-85.91 732.21,-92.89"/>
</a>
</g>
</g>
<!-- Node10 -->
<g id="Node000010" class="node">
<title>Node10</title>
<g id="a_Node000010"><a xlink:href="classLogger.html#a6c8bf2fc8c89d76b7f4fe25d97ad4bf3" target="_top" xlink:title=" ">
<polygon fill="white" stroke="#666666" points="824.5,-132 745.5,-132 745.5,-113 824.5,-113 824.5,-132"/>
<text text-anchor="middle" x="785" y="-120" font-family="Helvetica,sans-Serif" font-size="10.00">Logger::error</text>
</a>
</g>
</g>
<!-- Node7&#45;&gt;Node10 -->
<g id="edge9_Node000007_Node000010" class="edge">
<title>Node7&#45;&gt;Node10</title>
<g id="a_edge9_Node000007_Node000010"><a xlink:title=" ">
<path fill="none" stroke="#63b8ff" d="M511.37,-132.01C531.98,-135.78 556.6,-139.65 579,-141.5 635.25,-146.16 649.96,-148.23 706,-141.5 717.99,-140.06 730.79,-137.42 742.49,-134.56"/>
<polygon fill="#63b8ff" stroke="#63b8ff" points="743.62,-137.88 752.44,-132.01 741.88,-131.1 743.62,-137.88"/>
</a>
</g>
</g>
<!-- Node11 -->
<g id="Node000011" class="node">
<title>Node11</title>
<g id="a_Node000011"><a xlink:href="classUdpLogger.html#a4f7e8bb32128f9186dc452a57134475d" target="_top" xlink:title=" ">
<polygon fill="white" stroke="#666666" points="706,-132 579,-132 579,-113 706,-113 706,-132"/>
<text text-anchor="middle" x="642.5" y="-120" font-family="Helvetica,sans-Serif" font-size="10.00">UdpLogger::writerLoop</text>
</a>
</g>
</g>
<!-- Node7&#45;&gt;Node11 -->
<g id="edge11_Node000007_Node000011" class="edge">
<title>Node7&#45;&gt;Node11</title>
<g id="a_edge11_Node000007_Node000011"><a xlink:title=" ">
<path fill="none" stroke="#63b8ff" d="M513.23,-122.5C530.28,-122.5 549.86,-122.5 568.51,-122.5"/>
<polygon fill="#63b8ff" stroke="#63b8ff" points="568.74,-126 578.74,-122.5 568.74,-119 568.74,-126"/>
</a>
</g>
</g>
<!-- Node9 -->
<g id="Node000009" class="node">
<title>Node9</title>
<g id="a_Node000009"><a xlink:href="classLogger.html#a02453fd0695fe06c495de714399e8bf7" target="_top" xlink:title=" ">
<polygon fill="white" stroke="#666666" points="999,-113 864,-113 864,-94 999,-94 999,-113"/>
<text text-anchor="middle" x="931.5" y="-101" font-family="Helvetica,sans-Serif" font-size="10.00">Logger::messageLogged</text>
</a>
</g>
</g>
<!-- Node8&#45;&gt;Node9 -->
<g id="edge8_Node000008_Node000009" class="edge">
<title>Node8&#45;&gt;Node9</title>
<g id="a_edge8_Node000008_Node000009"><a xlink:title=" ">
<path fill="none" stroke="#63b8ff" d="M828.18,-90.75C836.29,-91.77 845.02,-92.85 853.83,-93.95"/>
<polygon fill="#63b8ff" stroke="#63b8ff" points="853.44,-97.43 863.79,-95.19 854.3,-90.48 853.44,-97.43"/>
</a>
</g>
</g>
<!-- Node10&#45;&gt;Node9 -->
<g id="edge10_Node000010_Node000009" class="edge">
<title>Node10&#45;&gt;Node9</title>
<g id="a_edge10_Node000010_Node000009"><a xlink:title=" ">
<path fill="none" stroke="#63b8ff" d="M824.72,-117.41C833.75,-116.22 843.68,-114.92 853.72,-113.6"/>
<polygon fill="#63b8ff" stroke="#63b8ff" points="854.32,-117.05 863.78,-112.27 853.4,-110.11 854.32,-117.05"/>
</a>
</g>
</g>
<!-- Node11&#45;&gt;Node8 -->
<g id="edge12_Node000011_Node000008" class="edge">
<title>Node11&#45;&gt;Node8</title>
<g id="a_edge12_Node000011_Node000008"><a xlink:title=" ">
<path fill="none" stroke="#63b8ff" d="M679.68,-112.97C697.33,-108.33 718.75,-102.68 737.59,-97.72"/>
<polygon fill="#63b8ff" stroke="#63b8ff" points="738.67,-101.06 747.45,-95.12 736.89,-94.29 738.67,-101.06"/>
</a>
</g>
</g>
<!-- Node11&#45;&gt;Node10 -->
<g id="edge13_Node000011_Node000010" class="edge">
<title>Node11&#45;&gt;Node10</title>
<g id="a_edge13_Node000011_Node000010"><a xlink:title=" ">
<path fill="none" stroke="#63b8ff" d="M706.35,-122.5C716.01,-122.5 725.86,-122.5 735.16,-122.5"/>
<polygon fill="#63b8ff" stroke="#63b8ff" points="735.38,-126 745.38,-122.5 735.38,-119 735.38,-126"/>
</a>
</g>
</g>
<!-- Node14 -->
<g id="Node000014" class="node">
<title>Node14</title>
<g id="a_Node000014"><a xlink:href="classUdpLogger.html#a09b32cc5531b9db48cde09d12d1c321f" target="_top" xlink:title=" ">
<polygon fill="white" stroke="#666666" points="690.5,-56 594.5,-56 594.5,-37 690.5,-37 690.5,-56"/>
<text text-anchor="middle" x="642.5" y="-44" font-family="Helvetica,sans-Serif" font-size="10.00">UdpLogger::stop</text>
</a>
</g>
</g>
<!-- Node13&#45;&gt;Node14 -->
<g id="edge16_Node000013_Node000014" class="edge">
<title>Node13&#45;&gt;Node14</title>
<g id="a_edge16_Node000013_Node000014"><a xlink:title=" ">
<path fill="none" stroke="#63b8ff" d="M343.32,-47.3C413.78,-47.11 519.49,-46.83 584.29,-46.65"/>
<polygon fill="#63b8ff" stroke="#63b8ff" points="584.34,-50.15 594.33,-46.63 584.32,-43.15 584.34,-50.15"/>
</a>
</g>
</g>
<!-- Node15 -->
<g id="Node000015" class="node">
<title>Node15</title>
<g id="a_Node000015"><a xlink:href="classUdpChannel.html#a8e42a953d827d6a78a4867ba05b6a4ca" target="_top" xlink:title="Signal to the UDP worker that it should stop.">
<polygon fill="white" stroke="#666666" points="542,-19 386,-19 386,0 542,0 542,-19"/>
<text text-anchor="middle" x="464" y="-7" font-family="Helvetica,sans-Serif" font-size="10.00">UdpChannel::stopUdpWorker</text>
</a>
</g>
</g>
<!-- Node13&#45;&gt;Node15 -->
<g id="edge18_Node000013_Node000015" class="edge">
<title>Node13&#45;&gt;Node15</title>
<g id="a_edge18_Node000013_Node000015"><a xlink:title=" ">
<path fill="none" stroke="#63b8ff" d="M319.45,-37.91C345.47,-32.76 377.73,-26.38 405.07,-20.97"/>
<polygon fill="#63b8ff" stroke="#63b8ff" points="405.77,-24.4 414.9,-19.02 404.41,-17.53 405.77,-24.4"/>
</a>
</g>
</g>
<!-- Node14&#45;&gt;Node8 -->
<g id="edge17_Node000014_Node000008" class="edge">
<title>Node14&#45;&gt;Node8</title>
<g id="a_edge17_Node000014_Node000008"><a xlink:title=" ">
<path fill="none" stroke="#63b8ff" d="M677.87,-56.04C696.5,-61.21 719.72,-67.66 739.69,-73.2"/>
<polygon fill="#63b8ff" stroke="#63b8ff" points="738.93,-76.62 749.5,-75.92 740.8,-69.88 738.93,-76.62"/>
</a>
</g>
</g>
</g>
</svg>
