<?xml version="1.0" encoding="UTF-8" standalone="no"?>
<!DOCTYPE svg PUBLIC "-//W3C//DTD SVG 1.1//EN"
 "http://www.w3.org/Graphics/SVG/1.1/DTD/svg11.dtd">
<!-- Generated by graphviz version 2.43.0 (0)
 -->
<!-- Title: ActuatorSwitchWidget Pages: 1 -->
<!--zoomable 2085 -->

<svg id="main" version="1.1" xmlns="http://www.w3.org/2000/svg" xmlns:xlink="http://www.w3.org/1999/xlink" xml:space="preserve" onload="init(evt)">
<style type="text/css"><![CDATA[
.node, .edge {opacity: 0.7;}
.node.selected, .edge.selected {opacity: 1;}
.edge:hover path { stroke: red; }
.edge:hover polygon { stroke: red; fill: red; }
]]></style>

<defs>
  <circle id="rim" cx="0" cy="0" r="7"/>
  <circle id="rim2" cx="0" cy="0" r="3.5"/>
  <g id="zoomPlus">
    <use xlink:href="#rim" fill="#404040"><set attributeName="fill" to="#808080" begin="zoomplus.mouseover" end="zoomplus.mouseout"/></use>
    <path d="M-4,0h8M0,-4v8" fill="none" stroke="white" stroke-width="1.5" pointer-events="none"/>
  </g>
  <g id="zoomMin">
    <use xlink:href="#rim" fill="#404040"><set attributeName="fill" to="#808080" begin="zoomminus.mouseover" end="zoomminus.mouseout"/></use>
    <path d="M-4,0h8" fill="none" stroke="white" stroke-width="1.5" pointer-events="none"/>
  </g>
  <g id="arrowUp" transform="translate(30 24)">
    <use xlink:href="#rim"/>
    <path pointer-events="none" fill="none" stroke="white" stroke-width="1.5" d="M0,-3.0v7 M-2.5,-0.5L0,-3.0L2.5,-0.5"/>
  </g>
  <g id="arrowRight" transform="rotate(90) translate(36 -43)">
    <use xlink:href="#rim"/>
    <path pointer-events="none" fill="none" stroke="white" stroke-width="1.5" d="M0,-3.0v7 M-2.5,-0.5L0,-3.0L2.5,-0.5"/>
  </g>
  <g id="arrowDown" transform="rotate(180) translate(-30 -48)">
    <use xlink:href="#rim"/>
    <path pointer-events="none" fill="none" stroke="white" stroke-width="1.5" d="M0,-3.0v7 M-2.5,-0.5L0,-3.0L2.5,-0.5"/>
  </g>
  <g id="arrowLeft" transform="rotate(270) translate(-36 17)">
    <use xlink:href="#rim"/>
    <path pointer-events="none" fill="none" stroke="white" stroke-width="1.5" d="M0,-3.0v7 M-2.5,-0.5L0,-3.0L2.5,-0.5"/>
  </g>
  <g id="resetDef">
    <use xlink:href="#rim2" fill="#404040"><set attributeName="fill" to="#808080" begin="reset.mouseover" end="reset.mouseout"/></use>
  </g>
</defs>
<script type="application/ecmascript">
var viewWidth = 789;
var viewHeight = 2085;
var sectionId = 'dynsection-1';
</script>
<script type="application/ecmascript" xlink:href="svg.min.js"/>
<svg id="graph" class="graph">
<g id="viewport">
<title>ActuatorSwitchWidget</title>
<!-- Node1 -->
<g id="Node000001" class="node">
<title>Node1</title>
<g id="a_Node000001"><a xlink:title=" ">
<polygon fill="#999999" stroke="transparent" points="156,-214 0,-214 0,0 156,0 156,-214"/>
<text text-anchor="start" x="23.5" y="-202" font-family="Helvetica,sans-Serif" font-size="10.00">ActuatorSwitchWidget</text>
<text text-anchor="start" x="4" y="-187" font-family="Helvetica,sans-Serif" font-size="10.00">#</text>
<text text-anchor="start" x="17" y="-187" font-family="Helvetica,sans-Serif" font-size="10.00">m_title</text>
<text text-anchor="start" x="4" y="-172" font-family="Helvetica,sans-Serif" font-size="10.00">#</text>
<text text-anchor="start" x="17" y="-172" font-family="Helvetica,sans-Serif" font-size="10.00">m_statusIndicator</text>
<text text-anchor="start" x="4" y="-157" font-family="Helvetica,sans-Serif" font-size="10.00">#</text>
<text text-anchor="start" x="17" y="-157" font-family="Helvetica,sans-Serif" font-size="10.00">m_defaultStatusIndicator</text>
<text text-anchor="start" x="4" y="-142" font-family="Helvetica,sans-Serif" font-size="10.00">#</text>
<text text-anchor="start" x="17" y="-142" font-family="Helvetica,sans-Serif" font-size="10.00">m_enableButton</text>
<text text-anchor="start" x="4" y="-127" font-family="Helvetica,sans-Serif" font-size="10.00">#</text>
<text text-anchor="start" x="17" y="-127" font-family="Helvetica,sans-Serif" font-size="10.00">m_disableButton</text>
<text text-anchor="start" x="4" y="-112" font-family="Helvetica,sans-Serif" font-size="10.00">#</text>
<text text-anchor="start" x="17" y="-112" font-family="Helvetica,sans-Serif" font-size="10.00">m_size</text>
<text text-anchor="start" x="4" y="-97" font-family="Helvetica,sans-Serif" font-size="10.00">+</text>
<text text-anchor="start" x="17" y="-97" font-family="Helvetica,sans-Serif" font-size="10.00">ActuatorSwitchWidget()</text>
<text text-anchor="start" x="4" y="-82" font-family="Helvetica,sans-Serif" font-size="10.00">+</text>
<text text-anchor="start" x="17" y="-82" font-family="Helvetica,sans-Serif" font-size="10.00">viewModel()</text>
<text text-anchor="start" x="4" y="-67" font-family="Helvetica,sans-Serif" font-size="10.00">+</text>
<text text-anchor="start" x="17" y="-67" font-family="Helvetica,sans-Serif" font-size="10.00">sizeHint()</text>
<text text-anchor="start" x="4" y="-52" font-family="Helvetica,sans-Serif" font-size="10.00">+</text>
<text text-anchor="start" x="17" y="-52" font-family="Helvetica,sans-Serif" font-size="10.00">display()</text>
<text text-anchor="start" x="4" y="-37" font-family="Helvetica,sans-Serif" font-size="10.00">+</text>
<text text-anchor="start" x="17" y="-37" font-family="Helvetica,sans-Serif" font-size="10.00">setFixedSize()</text>
<text text-anchor="start" x="4" y="-22" font-family="Helvetica,sans-Serif" font-size="10.00">+</text>
<text text-anchor="start" x="17" y="-22" font-family="Helvetica,sans-Serif" font-size="10.00">setFont()</text>
<text text-anchor="start" x="4" y="-7" font-family="Helvetica,sans-Serif" font-size="10.00">+</text>
<text text-anchor="start" x="17" y="-7" font-family="Helvetica,sans-Serif" font-size="10.00">onActuatorStatusChanged()</text>
<polygon fill="#666666" stroke="#666666" points="0,-197 0,-197 156,-197 156,-197 0,-197"/>
<polygon fill="#666666" stroke="#666666" points="0,-107 0,-107 15,-107 15,-107 0,-107"/>
<polygon fill="#666666" stroke="#666666" points="15,-107 15,-107 156,-107 156,-107 15,-107"/>
<polygon fill="none" stroke="#666666" points="0,0 0,-214 156,-214 156,0 0,0"/>
</a>
</g>
</g>
<!-- Node2 -->
<g id="Node000002" class="node">
<title>Node2</title>
<g id="a_Node000002"><a xlink:title=" ">
<polygon fill="white" stroke="transparent" points="86.5,-437.5 37.5,-437.5 37.5,-388.5 86.5,-388.5 86.5,-437.5"/>
<text text-anchor="start" x="43" y="-425" font-family="Helvetica,sans-Serif" font-size="10.00">QFrame</text>
<text text-anchor="start" x="60.5" y="-410" font-family="Helvetica,sans-Serif" font-size="10.00"> </text>
<text text-anchor="start" x="60.5" y="-395" font-family="Helvetica,sans-Serif" font-size="10.00"> </text>
<polygon fill="#666666" stroke="#666666" points="38,-420 38,-420 87,-420 87,-420 38,-420"/>
<polygon fill="#666666" stroke="#666666" points="38,-405 38,-405 87,-405 87,-405 38,-405"/>
<polygon fill="none" stroke="#666666" points="37.5,-388.5 37.5,-437.5 86.5,-437.5 86.5,-388.5 37.5,-388.5"/>
</a>
</g>
</g>
<!-- Node2&#45;&gt;Node1 -->
<g id="edge1_Node000001_Node000002" class="edge">
<title>Node2&#45;&gt;Node1</title>
<g id="a_edge1_Node000001_Node000002"><a xlink:title=" ">
<path fill="none" stroke="#63b8ff" d="M63.77,-378.29C65.85,-338.9 69.38,-271.79 72.41,-214.29"/>
<polygon fill="none" stroke="#63b8ff" points="60.27,-378.23 63.24,-388.4 67.26,-378.6 60.27,-378.23"/>
</a>
</g>
</g>
<!-- Node3 -->
<g id="Node000003" class="node">
<title>Node3</title>
<g id="a_Node000003"><a xlink:href="classActuatorSwitchViewModel.html" target="_top" xlink:title=" ">
<polygon fill="white" stroke="transparent" points="261.5,-565 104.5,-565 104.5,-261 261.5,-261 261.5,-565"/>
<text text-anchor="start" x="119.5" y="-553" font-family="Helvetica,sans-Serif" font-size="10.00">ActuatorSwitchViewModel</text>
<text text-anchor="start" x="111.5" y="-538" font-family="Helvetica,sans-Serif" font-size="10.00">&#45;</text>
<text text-anchor="start" x="122" y="-538" font-family="Helvetica,sans-Serif" font-size="10.00">m_name</text>
<text text-anchor="start" x="111.5" y="-523" font-family="Helvetica,sans-Serif" font-size="10.00">&#45;</text>
<text text-anchor="start" x="122" y="-523" font-family="Helvetica,sans-Serif" font-size="10.00">m_status</text>
<text text-anchor="start" x="111.5" y="-508" font-family="Helvetica,sans-Serif" font-size="10.00">&#45;</text>
<text text-anchor="start" x="122" y="-508" font-family="Helvetica,sans-Serif" font-size="10.00">m_statusColor</text>
<text text-anchor="start" x="111.5" y="-493" font-family="Helvetica,sans-Serif" font-size="10.00">&#45;</text>
<text text-anchor="start" x="122" y="-493" font-family="Helvetica,sans-Serif" font-size="10.00">m_defaultStatus</text>
<text text-anchor="start" x="111.5" y="-478" font-family="Helvetica,sans-Serif" font-size="10.00">&#45;</text>
<text text-anchor="start" x="122" y="-478" font-family="Helvetica,sans-Serif" font-size="10.00">m_statusTexts</text>
<text text-anchor="start" x="111.5" y="-463" font-family="Helvetica,sans-Serif" font-size="10.00">&#45;</text>
<text text-anchor="start" x="122" y="-463" font-family="Helvetica,sans-Serif" font-size="10.00">m_statusID</text>
<text text-anchor="start" x="109" y="-448" font-family="Helvetica,sans-Serif" font-size="10.00">+</text>
<text text-anchor="start" x="122" y="-448" font-family="Helvetica,sans-Serif" font-size="10.00">ActuatorSwitchViewModel()</text>
<text text-anchor="start" x="109" y="-433" font-family="Helvetica,sans-Serif" font-size="10.00">+</text>
<text text-anchor="start" x="122" y="-433" font-family="Helvetica,sans-Serif" font-size="10.00">setName()</text>
<text text-anchor="start" x="109" y="-418" font-family="Helvetica,sans-Serif" font-size="10.00">+</text>
<text text-anchor="start" x="122" y="-418" font-family="Helvetica,sans-Serif" font-size="10.00">setStatus()</text>
<text text-anchor="start" x="109" y="-403" font-family="Helvetica,sans-Serif" font-size="10.00">+</text>
<text text-anchor="start" x="122" y="-403" font-family="Helvetica,sans-Serif" font-size="10.00">setDefaultStatus()</text>
<text text-anchor="start" x="109" y="-388" font-family="Helvetica,sans-Serif" font-size="10.00">+</text>
<text text-anchor="start" x="122" y="-388" font-family="Helvetica,sans-Serif" font-size="10.00">setStatusTexts()</text>
<text text-anchor="start" x="109" y="-373" font-family="Helvetica,sans-Serif" font-size="10.00">+</text>
<text text-anchor="start" x="122" y="-373" font-family="Helvetica,sans-Serif" font-size="10.00">name()</text>
<text text-anchor="start" x="109" y="-358" font-family="Helvetica,sans-Serif" font-size="10.00">+</text>
<text text-anchor="start" x="122" y="-358" font-family="Helvetica,sans-Serif" font-size="10.00">status()</text>
<text text-anchor="start" x="109" y="-343" font-family="Helvetica,sans-Serif" font-size="10.00">+</text>
<text text-anchor="start" x="122" y="-343" font-family="Helvetica,sans-Serif" font-size="10.00">statusColor()</text>
<text text-anchor="start" x="109" y="-328" font-family="Helvetica,sans-Serif" font-size="10.00">+</text>
<text text-anchor="start" x="122" y="-328" font-family="Helvetica,sans-Serif" font-size="10.00">defaultStatus()</text>
<text text-anchor="start" x="109" y="-313" font-family="Helvetica,sans-Serif" font-size="10.00">+</text>
<text text-anchor="start" x="122" y="-313" font-family="Helvetica,sans-Serif" font-size="10.00">initialise()</text>
<text text-anchor="start" x="109" y="-298" font-family="Helvetica,sans-Serif" font-size="10.00">+</text>
<text text-anchor="start" x="122" y="-298" font-family="Helvetica,sans-Serif" font-size="10.00">updateStatus()</text>
<text text-anchor="start" x="109" y="-283" font-family="Helvetica,sans-Serif" font-size="10.00">+</text>
<text text-anchor="start" x="122" y="-283" font-family="Helvetica,sans-Serif" font-size="10.00">enable()</text>
<text text-anchor="start" x="109" y="-268" font-family="Helvetica,sans-Serif" font-size="10.00">+</text>
<text text-anchor="start" x="122" y="-268" font-family="Helvetica,sans-Serif" font-size="10.00">disable()</text>
<polygon fill="#666666" stroke="#666666" points="105,-548 105,-548 262,-548 262,-548 105,-548"/>
<polygon fill="#666666" stroke="#666666" points="105,-458 105,-458 120,-458 120,-458 105,-458"/>
<polygon fill="#666666" stroke="#666666" points="120,-458 120,-458 262,-458 262,-458 120,-458"/>
<polygon fill="none" stroke="#666666" points="104.5,-261 104.5,-565 261.5,-565 261.5,-261 104.5,-261"/>
</a>
</g>
</g>
<!-- Node3&#45;&gt;Node1 -->
<g id="edge2_Node000001_Node000003" class="edge">
<title>Node3&#45;&gt;Node1</title>
<g id="a_edge2_Node000001_Node000003"><a xlink:title=" ">
<path fill="none" stroke="#63b8ff" d="M130.81,-260.89C126.72,-249.04 122.62,-237.19 118.62,-225.62"/>
<polygon fill="none" stroke="#63b8ff" points="118.58,-225.49 112.84,-221.12 114.66,-214.15 120.4,-218.51 118.58,-225.49"/>
</a>
</g>
<text text-anchor="middle" x="146.5" y="-235" font-family="Helvetica,sans-Serif" font-size="10.00" fill="grey"> #m_vm</text>
</g>
<!-- Node4 -->
<g id="Node000004" class="node">
<title>Node4</title>
<g id="a_Node000004"><a xlink:title=" ">
<polygon fill="white" stroke="transparent" points="307,-2077 257,-2077 257,-2028 307,-2028 307,-2077"/>
<text text-anchor="start" x="262" y="-2064.5" font-family="Helvetica,sans-Serif" font-size="10.00">QObject</text>
<text text-anchor="start" x="280" y="-2049.5" font-family="Helvetica,sans-Serif" font-size="10.00"> </text>
<text text-anchor="start" x="280" y="-2034.5" font-family="Helvetica,sans-Serif" font-size="10.00"> </text>
<polygon fill="#666666" stroke="#666666" points="257,-2059.5 257,-2059.5 307,-2059.5 307,-2059.5 257,-2059.5"/>
<polygon fill="#666666" stroke="#666666" points="257,-2044.5 257,-2044.5 307,-2044.5 307,-2044.5 257,-2044.5"/>
<polygon fill="none" stroke="#666666" points="257,-2028 257,-2077 307,-2077 307,-2028 257,-2028"/>
</a>
</g>
</g>
<!-- Node4&#45;&gt;Node3 -->
<g id="edge3_Node000003_Node000004" class="edge">
<title>Node4&#45;&gt;Node3</title>
<g id="a_edge3_Node000003_Node000004"><a xlink:title=" ">
<path fill="none" stroke="#63b8ff" d="M246.74,-2046.17C192.81,-2035.8 96,-2007.45 96,-1937.5 96,-1937.5 96,-1937.5 96,-688 96,-647.2 104.87,-604.51 116.95,-565.31"/>
<polygon fill="none" stroke="#63b8ff" points="246.45,-2049.68 256.92,-2048.01 247.7,-2042.79 246.45,-2049.68"/>
</a>
</g>
</g>
<!-- Node5 -->
<g id="Node000005" class="node">
<title>Node5</title>
<g id="a_Node000005"><a xlink:href="classTimer.html" target="_top" xlink:title=" ">
<polygon fill="white" stroke="transparent" points="228,-1864 112,-1864 112,-1740 228,-1740 228,-1864"/>
<text text-anchor="start" x="155.5" y="-1852" font-family="Helvetica,sans-Serif" font-size="10.00">Timer</text>
<text text-anchor="start" x="118.5" y="-1837" font-family="Helvetica,sans-Serif" font-size="10.00">&#45;</text>
<text text-anchor="start" x="129" y="-1837" font-family="Helvetica,sans-Serif" font-size="10.00">m_lastRefresh</text>
<text text-anchor="start" x="118.5" y="-1822" font-family="Helvetica,sans-Serif" font-size="10.00">&#45;</text>
<text text-anchor="start" x="129" y="-1822" font-family="Helvetica,sans-Serif" font-size="10.00">m_periodOfRefresh</text>
<text text-anchor="start" x="118.5" y="-1807" font-family="Helvetica,sans-Serif" font-size="10.00">&#45;</text>
<text text-anchor="start" x="129" y="-1807" font-family="Helvetica,sans-Serif" font-size="10.00">m_timer</text>
<text text-anchor="start" x="116" y="-1792" font-family="Helvetica,sans-Serif" font-size="10.00">+</text>
<text text-anchor="start" x="129" y="-1792" font-family="Helvetica,sans-Serif" font-size="10.00">Timer()</text>
<text text-anchor="start" x="116" y="-1777" font-family="Helvetica,sans-Serif" font-size="10.00">+</text>
<text text-anchor="start" x="129" y="-1777" font-family="Helvetica,sans-Serif" font-size="10.00">setFrequecy()</text>
<text text-anchor="start" x="116" y="-1762" font-family="Helvetica,sans-Serif" font-size="10.00">+</text>
<text text-anchor="start" x="129" y="-1762" font-family="Helvetica,sans-Serif" font-size="10.00">setPeriod()</text>
<text text-anchor="start" x="116" y="-1747" font-family="Helvetica,sans-Serif" font-size="10.00">+</text>
<text text-anchor="start" x="129" y="-1747" font-family="Helvetica,sans-Serif" font-size="10.00">frequencyHz()</text>
<polygon fill="#666666" stroke="#666666" points="112,-1847 112,-1847 228,-1847 228,-1847 112,-1847"/>
<polygon fill="#666666" stroke="#666666" points="112,-1802 112,-1802 127,-1802 127,-1802 112,-1802"/>
<polygon fill="#666666" stroke="#666666" points="127,-1802 127,-1802 228,-1802 228,-1802 127,-1802"/>
<polygon fill="none" stroke="#666666" points="112,-1740 112,-1864 228,-1864 228,-1740 112,-1740"/>
</a>
</g>
</g>
<!-- Node4&#45;&gt;Node5 -->
<g id="edge5_Node000005_Node000004" class="edge">
<title>Node4&#45;&gt;Node5</title>
<g id="a_edge5_Node000005_Node000004"><a xlink:title=" ">
<path fill="none" stroke="#63b8ff" d="M248.91,-2030.8C241.49,-2024.86 234.27,-2017.83 229,-2010 199.59,-1966.28 184.68,-1907.92 177.22,-1864.32"/>
<polygon fill="none" stroke="#63b8ff" points="246.84,-2033.63 256.95,-2036.81 251.03,-2028.02 246.84,-2033.63"/>
</a>
</g>
</g>
<!-- Node6 -->
<g id="Node000006" class="node">
<title>Node6</title>
<g id="a_Node000006"><a xlink:href="classUdpChannel.html" target="_top" xlink:title="UDP communication channel between the microcontroller and the HMI.">
<polygon fill="white" stroke="transparent" points="387.5,-1147 252.5,-1147 252.5,-813 387.5,-813 387.5,-1147"/>
<text text-anchor="start" x="290.5" y="-1135" font-family="Helvetica,sans-Serif" font-size="10.00">UdpChannel</text>
<text text-anchor="start" x="259.5" y="-1120" font-family="Helvetica,sans-Serif" font-size="10.00">&#45;</text>
<text text-anchor="start" x="270" y="-1120" font-family="Helvetica,sans-Serif" font-size="10.00">m_udpWorkerThread</text>
<text text-anchor="start" x="259.5" y="-1105" font-family="Helvetica,sans-Serif" font-size="10.00">&#45;</text>
<text text-anchor="start" x="270" y="-1105" font-family="Helvetica,sans-Serif" font-size="10.00">m_udpSocket</text>
<text text-anchor="start" x="259.5" y="-1090" font-family="Helvetica,sans-Serif" font-size="10.00">&#45;</text>
<text text-anchor="start" x="270" y="-1090" font-family="Helvetica,sans-Serif" font-size="10.00">m_remoteAddr</text>
<text text-anchor="start" x="259.5" y="-1075" font-family="Helvetica,sans-Serif" font-size="10.00">&#45;</text>
<text text-anchor="start" x="270" y="-1075" font-family="Helvetica,sans-Serif" font-size="10.00">m_remotePort</text>
<text text-anchor="start" x="259.5" y="-1060" font-family="Helvetica,sans-Serif" font-size="10.00">&#45;</text>
<text text-anchor="start" x="270" y="-1060" font-family="Helvetica,sans-Serif" font-size="10.00">m_localAddr</text>
<text text-anchor="start" x="259.5" y="-1045" font-family="Helvetica,sans-Serif" font-size="10.00">&#45;</text>
<text text-anchor="start" x="270" y="-1045" font-family="Helvetica,sans-Serif" font-size="10.00">m_localPort</text>
<text text-anchor="start" x="259.5" y="-1030" font-family="Helvetica,sans-Serif" font-size="10.00">&#45;</text>
<text text-anchor="start" x="270" y="-1030" font-family="Helvetica,sans-Serif" font-size="10.00">m_lastRefresh</text>
<text text-anchor="start" x="259.5" y="-1015" font-family="Helvetica,sans-Serif" font-size="10.00">&#45;</text>
<text text-anchor="start" x="270" y="-1015" font-family="Helvetica,sans-Serif" font-size="10.00">m_periodOfRefresh</text>
<text text-anchor="start" x="259.5" y="-1000" font-family="Helvetica,sans-Serif" font-size="10.00">&#45;</text>
<text text-anchor="start" x="270" y="-1000" font-family="Helvetica,sans-Serif" font-size="10.00">m_running</text>
<text text-anchor="start" x="257" y="-985" font-family="Helvetica,sans-Serif" font-size="10.00">+</text>
<text text-anchor="start" x="270" y="-985" font-family="Helvetica,sans-Serif" font-size="10.00">UdpChannel()</text>
<text text-anchor="start" x="257" y="-970" font-family="Helvetica,sans-Serif" font-size="10.00">+</text>
<text text-anchor="start" x="270" y="-970" font-family="Helvetica,sans-Serif" font-size="10.00">~UdpChannel()</text>
<text text-anchor="start" x="257" y="-955" font-family="Helvetica,sans-Serif" font-size="10.00">+</text>
<text text-anchor="start" x="270" y="-955" font-family="Helvetica,sans-Serif" font-size="10.00">startEndpoint()</text>
<text text-anchor="start" x="257" y="-940" font-family="Helvetica,sans-Serif" font-size="10.00">+</text>
<text text-anchor="start" x="270" y="-940" font-family="Helvetica,sans-Serif" font-size="10.00">stopEndpoint()</text>
<text text-anchor="start" x="257" y="-925" font-family="Helvetica,sans-Serif" font-size="10.00">+</text>
<text text-anchor="start" x="270" y="-925" font-family="Helvetica,sans-Serif" font-size="10.00">sendData()</text>
<text text-anchor="start" x="257" y="-910" font-family="Helvetica,sans-Serif" font-size="10.00">+</text>
<text text-anchor="start" x="270" y="-910" font-family="Helvetica,sans-Serif" font-size="10.00">running()</text>
<text text-anchor="start" x="257" y="-895" font-family="Helvetica,sans-Serif" font-size="10.00">+</text>
<text text-anchor="start" x="270" y="-895" font-family="Helvetica,sans-Serif" font-size="10.00">remoteAddr()</text>
<text text-anchor="start" x="257" y="-880" font-family="Helvetica,sans-Serif" font-size="10.00">+</text>
<text text-anchor="start" x="270" y="-880" font-family="Helvetica,sans-Serif" font-size="10.00">remotePort()</text>
<text text-anchor="start" x="257" y="-865" font-family="Helvetica,sans-Serif" font-size="10.00">+</text>
<text text-anchor="start" x="270" y="-865" font-family="Helvetica,sans-Serif" font-size="10.00">localAddr()</text>
<text text-anchor="start" x="257" y="-850" font-family="Helvetica,sans-Serif" font-size="10.00">+</text>
<text text-anchor="start" x="270" y="-850" font-family="Helvetica,sans-Serif" font-size="10.00">localPort()</text>
<text text-anchor="start" x="270" y="-835" font-family="Helvetica,sans-Serif" font-size="10.00">and 6 more...</text>
<text text-anchor="start" x="257" y="-820" font-family="Helvetica,sans-Serif" font-size="10.00">+</text>
<text text-anchor="start" x="270" y="-820" font-family="Helvetica,sans-Serif" font-size="10.00">onDatagramReceived()</text>
<polygon fill="#666666" stroke="#666666" points="253,-1130 253,-1130 388,-1130 388,-1130 253,-1130"/>
<polygon fill="#666666" stroke="#666666" points="253,-995 253,-995 268,-995 268,-995 253,-995"/>
<polygon fill="#666666" stroke="#666666" points="268,-995 268,-995 388,-995 388,-995 268,-995"/>
<polygon fill="none" stroke="#666666" points="252.5,-813 252.5,-1147 387.5,-1147 387.5,-813 252.5,-813"/>
</a>
</g>
</g>
<!-- Node4&#45;&gt;Node6 -->
<g id="edge7_Node000006_Node000004" class="edge">
<title>Node4&#45;&gt;Node6</title>
<g id="a_edge7_Node000006_Node000004"><a xlink:title=" ">
<path fill="none" stroke="#63b8ff" d="M282,-2017.78C282,-1995.09 282,-1964.5 282,-1937.5 282,-1937.5 282,-1937.5 282,-1255 282,-1219.94 285.09,-1182.6 289.51,-1147.12"/>
<polygon fill="none" stroke="#63b8ff" points="278.5,-2017.92 282,-2027.92 285.5,-2017.92 278.5,-2017.92"/>
</a>
</g>
</g>
<!-- Node7 -->
<g id="Node000007" class="node">
<title>Node7</title>
<g id="a_Node000007"><a xlink:href="classUdpWorker.html" target="_top" xlink:title="UDP socket worker running on a dedicated thread.">
<polygon fill="white" stroke="transparent" points="617,-1318 457,-1318 457,-1194 617,-1194 617,-1318"/>
<text text-anchor="start" x="510" y="-1306" font-family="Helvetica,sans-Serif" font-size="10.00">UdpWorker</text>
<text text-anchor="start" x="463.5" y="-1291" font-family="Helvetica,sans-Serif" font-size="10.00">&#45;</text>
<text text-anchor="start" x="474" y="-1291" font-family="Helvetica,sans-Serif" font-size="10.00">socket</text>
<text text-anchor="start" x="463.5" y="-1276" font-family="Helvetica,sans-Serif" font-size="10.00">&#45;</text>
<text text-anchor="start" x="474" y="-1276" font-family="Helvetica,sans-Serif" font-size="10.00">m_lastFrameSend</text>
<text text-anchor="start" x="461" y="-1261" font-family="Helvetica,sans-Serif" font-size="10.00">+</text>
<text text-anchor="start" x="474" y="-1261" font-family="Helvetica,sans-Serif" font-size="10.00">UdpWorker()</text>
<text text-anchor="start" x="461" y="-1246" font-family="Helvetica,sans-Serif" font-size="10.00">+</text>
<text text-anchor="start" x="474" y="-1246" font-family="Helvetica,sans-Serif" font-size="10.00">start()</text>
<text text-anchor="start" x="461" y="-1231" font-family="Helvetica,sans-Serif" font-size="10.00">+</text>
<text text-anchor="start" x="474" y="-1231" font-family="Helvetica,sans-Serif" font-size="10.00">stop()</text>
<text text-anchor="start" x="463.5" y="-1216" font-family="Helvetica,sans-Serif" font-size="10.00">&#45;</text>
<text text-anchor="start" x="474" y="-1216" font-family="Helvetica,sans-Serif" font-size="10.00">decimate()</text>
<text text-anchor="start" x="463.5" y="-1201" font-family="Helvetica,sans-Serif" font-size="10.00">&#45;</text>
<text text-anchor="start" x="474" y="-1201" font-family="Helvetica,sans-Serif" font-size="10.00">processPendingDatagrams()</text>
<polygon fill="#666666" stroke="#666666" points="457,-1301 457,-1301 617,-1301 617,-1301 457,-1301"/>
<polygon fill="#666666" stroke="#666666" points="457,-1271 457,-1271 472,-1271 472,-1271 457,-1271"/>
<polygon fill="#666666" stroke="#666666" points="472,-1271 472,-1271 617,-1271 617,-1271 472,-1271"/>
<polygon fill="none" stroke="#666666" points="457,-1194 457,-1318 617,-1318 617,-1194 457,-1194"/>
</a>
</g>
</g>
<!-- Node4&#45;&gt;Node7 -->
<g id="edge9_Node000007_Node000004" class="edge">
<title>Node4&#45;&gt;Node7</title>
<g id="a_edge9_Node000007_Node000004"><a xlink:title=" ">
<path fill="none" stroke="#63b8ff" d="M317.06,-2040.32C343.89,-2030.49 380.64,-2014.11 407,-1991 514.61,-1896.65 542.94,-1859.1 584,-1722 625.96,-1581.89 585.53,-1408.56 557.93,-1318.24"/>
<polygon fill="none" stroke="#63b8ff" points="315.57,-2037.14 307.31,-2043.77 317.9,-2043.74 315.57,-2037.14"/>
</a>
</g>
</g>
<!-- Node9 -->
<g id="Node000009" class="node">
<title>Node9</title>
<g id="a_Node000009"><a xlink:href="classLogger.html" target="_top" xlink:title=" ">
<polygon fill="white" stroke="transparent" points="398,-1991 330,-1991 330,-1882 398,-1882 398,-1991"/>
<text text-anchor="start" x="347" y="-1978.5" font-family="Helvetica,sans-Serif" font-size="10.00">Logger</text>
<text text-anchor="start" x="362" y="-1963.5" font-family="Helvetica,sans-Serif" font-size="10.00"> </text>
<text text-anchor="start" x="334" y="-1948.5" font-family="Helvetica,sans-Serif" font-size="10.00">+</text>
<text text-anchor="start" x="347" y="-1948.5" font-family="Helvetica,sans-Serif" font-size="10.00">Logger()</text>
<text text-anchor="start" x="334" y="-1933.5" font-family="Helvetica,sans-Serif" font-size="10.00">+</text>
<text text-anchor="start" x="347" y="-1933.5" font-family="Helvetica,sans-Serif" font-size="10.00">log()</text>
<text text-anchor="start" x="334" y="-1918.5" font-family="Helvetica,sans-Serif" font-size="10.00">+</text>
<text text-anchor="start" x="347" y="-1918.5" font-family="Helvetica,sans-Serif" font-size="10.00">debug()</text>
<text text-anchor="start" x="334" y="-1903.5" font-family="Helvetica,sans-Serif" font-size="10.00">+</text>
<text text-anchor="start" x="347" y="-1903.5" font-family="Helvetica,sans-Serif" font-size="10.00">error()</text>
<text text-anchor="start" x="334" y="-1888.5" font-family="Helvetica,sans-Serif" font-size="10.00">+</text>
<text text-anchor="start" x="347" y="-1888.5" font-family="Helvetica,sans-Serif" font-size="10.00">warning()</text>
<polygon fill="#666666" stroke="#666666" points="330,-1973.5 330,-1973.5 398,-1973.5 398,-1973.5 330,-1973.5"/>
<polygon fill="#666666" stroke="#666666" points="330,-1958.5 330,-1958.5 398,-1958.5 398,-1958.5 330,-1958.5"/>
<polygon fill="none" stroke="#666666" points="330,-1882 330,-1991 398,-1991 398,-1882 330,-1882"/>
</a>
</g>
</g>
<!-- Node4&#45;&gt;Node9 -->
<g id="edge12_Node000009_Node000004" class="edge">
<title>Node4&#45;&gt;Node9</title>
<g id="a_edge12_Node000009_Node000004"><a xlink:title=" ">
<path fill="none" stroke="#63b8ff" d="M304.91,-2019.64C312.62,-2008.93 321.4,-1996.73 329.78,-1985.07"/>
<polygon fill="none" stroke="#63b8ff" points="301.99,-2017.72 298.99,-2027.88 307.67,-2021.8 301.99,-2017.72"/>
</a>
</g>
</g>
<!-- Node10 -->
<g id="Node000010" class="node">
<title>Node10</title>
<g id="a_Node000010"><a xlink:href="classFileSystem.html" target="_top" xlink:title=" ">
<polygon fill="white" stroke="transparent" points="254,-1415 162,-1415 162,-1336 254,-1336 254,-1415"/>
<text text-anchor="start" x="180.5" y="-1402.5" font-family="Helvetica,sans-Serif" font-size="10.00">FileSystem</text>
<text text-anchor="start" x="168.5" y="-1387.5" font-family="Helvetica,sans-Serif" font-size="10.00">&#45;</text>
<text text-anchor="start" x="179" y="-1387.5" font-family="Helvetica,sans-Serif" font-size="10.00">m_pathList</text>
<text text-anchor="start" x="166" y="-1372.5" font-family="Helvetica,sans-Serif" font-size="10.00">+</text>
<text text-anchor="start" x="179" y="-1372.5" font-family="Helvetica,sans-Serif" font-size="10.00">FileSystem()</text>
<text text-anchor="start" x="166" y="-1357.5" font-family="Helvetica,sans-Serif" font-size="10.00">+</text>
<text text-anchor="start" x="179" y="-1357.5" font-family="Helvetica,sans-Serif" font-size="10.00">addDirectory()</text>
<text text-anchor="start" x="166" y="-1342.5" font-family="Helvetica,sans-Serif" font-size="10.00">+</text>
<text text-anchor="start" x="179" y="-1342.5" font-family="Helvetica,sans-Serif" font-size="10.00">getDirectory()</text>
<polygon fill="#666666" stroke="#666666" points="162,-1397.5 162,-1397.5 254,-1397.5 254,-1397.5 162,-1397.5"/>
<polygon fill="#666666" stroke="#666666" points="162,-1382.5 162,-1382.5 177,-1382.5 177,-1382.5 162,-1382.5"/>
<polygon fill="#666666" stroke="#666666" points="177,-1382.5 177,-1382.5 254,-1382.5 254,-1382.5 177,-1382.5"/>
<polygon fill="none" stroke="#666666" points="162,-1336 162,-1415 254,-1415 254,-1336 162,-1336"/>
</a>
</g>
</g>
<!-- Node4&#45;&gt;Node10 -->
<g id="edge15_Node000010_Node000004" class="edge">
<title>Node4&#45;&gt;Node10</title>
<g id="a_edge15_Node000010_Node000004"><a xlink:title=" ">
<path fill="none" stroke="#63b8ff" d="M269.97,-2018.01C269.23,-2015.32 268.56,-2012.63 268,-2010 243.54,-1895.2 218.35,-1534.48 210.49,-1415.21"/>
<polygon fill="none" stroke="#63b8ff" points="266.64,-2019.08 272.9,-2027.62 273.34,-2017.04 266.64,-2019.08"/>
</a>
</g>
</g>
<!-- Node11 -->
<g id="Node000011" class="node">
<title>Node11</title>
<g id="a_Node000011"><a xlink:href="classTestBenchModel.html" target="_top" xlink:title=" ">
<polygon fill="white" stroke="transparent" points="631,-766 497,-766 497,-612 631,-612 631,-766"/>
<text text-anchor="start" x="524" y="-754" font-family="Helvetica,sans-Serif" font-size="10.00">TestBenchModel</text>
<text text-anchor="start" x="503.5" y="-739" font-family="Helvetica,sans-Serif" font-size="10.00">&#45;</text>
<text text-anchor="start" x="514" y="-739" font-family="Helvetica,sans-Serif" font-size="10.00">m_testStatus</text>
<text text-anchor="start" x="503.5" y="-724" font-family="Helvetica,sans-Serif" font-size="10.00">&#45;</text>
<text text-anchor="start" x="514" y="-724" font-family="Helvetica,sans-Serif" font-size="10.00">m_testStatusInitialised</text>
<text text-anchor="start" x="501" y="-709" font-family="Helvetica,sans-Serif" font-size="10.00">+</text>
<text text-anchor="start" x="514" y="-709" font-family="Helvetica,sans-Serif" font-size="10.00">TestBenchModel()</text>
<text text-anchor="start" x="501" y="-694" font-family="Helvetica,sans-Serif" font-size="10.00">+</text>
<text text-anchor="start" x="514" y="-694" font-family="Helvetica,sans-Serif" font-size="10.00">setTestStatus()</text>
<text text-anchor="start" x="501" y="-679" font-family="Helvetica,sans-Serif" font-size="10.00">+</text>
<text text-anchor="start" x="514" y="-679" font-family="Helvetica,sans-Serif" font-size="10.00">getTestStatus()</text>
<text text-anchor="start" x="501" y="-664" font-family="Helvetica,sans-Serif" font-size="10.00">+</text>
<text text-anchor="start" x="514" y="-664" font-family="Helvetica,sans-Serif" font-size="10.00">getStatus()</text>
<text text-anchor="start" x="501" y="-649" font-family="Helvetica,sans-Serif" font-size="10.00">+</text>
<text text-anchor="start" x="514" y="-649" font-family="Helvetica,sans-Serif" font-size="10.00">getStatus()</text>
<text text-anchor="start" x="501" y="-634" font-family="Helvetica,sans-Serif" font-size="10.00">+</text>
<text text-anchor="start" x="514" y="-634" font-family="Helvetica,sans-Serif" font-size="10.00">getStatusID()</text>
<text text-anchor="start" x="501" y="-619" font-family="Helvetica,sans-Serif" font-size="10.00">+</text>
<text text-anchor="start" x="514" y="-619" font-family="Helvetica,sans-Serif" font-size="10.00">onStatesListRecieved()</text>
<polygon fill="#666666" stroke="#666666" points="497,-749 497,-749 631,-749 631,-749 497,-749"/>
<polygon fill="#666666" stroke="#666666" points="497,-719 497,-719 512,-719 512,-719 497,-719"/>
<polygon fill="#666666" stroke="#666666" points="512,-719 512,-719 631,-719 631,-719 512,-719"/>
<polygon fill="none" stroke="#666666" points="497,-612 497,-766 631,-766 631,-612 497,-612"/>
</a>
</g>
</g>
<!-- Node4&#45;&gt;Node11 -->
<g id="edge19_Node000011_Node000004" class="edge">
<title>Node4&#45;&gt;Node11</title>
<g id="a_edge19_Node000011_Node000004"><a xlink:title=" ">
<path fill="none" stroke="#63b8ff" d="M317.37,-2048.02C408.64,-2038.07 645,-2005.73 645,-1937.5 645,-1937.5 645,-1937.5 645,-979 645,-904.75 619.9,-823.61 597.65,-766.26"/>
<polygon fill="none" stroke="#63b8ff" points="316.81,-2044.56 307.24,-2049.1 317.55,-2051.52 316.81,-2044.56"/>
</a>
</g>
</g>
<!-- Node5&#45;&gt;Node3 -->
<g id="edge4_Node000003_Node000005" class="edge">
<title>Node5&#45;&gt;Node3</title>
<g id="a_edge4_Node000003_Node000005"><a xlink:title=" ">
<path fill="none" stroke="#63b8ff" d="M161.56,-1739.98C150.92,-1657.64 134,-1506.3 134,-1376.5 134,-1376.5 134,-1376.5 134,-688 134,-651.96 138.16,-613.67 144.05,-577.5"/>
<polygon fill="none" stroke="#63b8ff" points="144.11,-577.15 141.17,-570.57 146.11,-565.32 149.05,-571.9 144.11,-577.15"/>
</a>
</g>
<text text-anchor="middle" x="158.5" y="-1168" font-family="Helvetica,sans-Serif" font-size="10.00" fill="grey"> &#45;m_timer</text>
</g>
<!-- Node6&#45;&gt;Node3 -->
<g id="edge6_Node000003_Node000006" class="edge">
<title>Node6&#45;&gt;Node3</title>
<g id="a_edge6_Node000003_Node000006"><a xlink:title=" ">
<path fill="none" stroke="#63b8ff" d="M279.73,-812.92C261.67,-738.44 240.44,-650.88 222.47,-576.8"/>
<polygon fill="none" stroke="#63b8ff" points="222.45,-576.69 217.15,-571.8 219.62,-565.03 224.92,-569.91 222.45,-576.69"/>
</a>
</g>
<text text-anchor="middle" x="308" y="-686.5" font-family="Helvetica,sans-Serif" font-size="10.00" fill="grey"> &#45;m_udpChannel</text>
</g>
<!-- Node6&#45;&gt;Node11 -->
<g id="edge21_Node000011_Node000006" class="edge">
<title>Node6&#45;&gt;Node11</title>
<g id="a_edge21_Node000011_Node000006"><a xlink:title=" ">
<path fill="none" stroke="#63b8ff" d="M387.64,-898.88C420.02,-860.53 458.83,-814.57 491.78,-775.54"/>
<polygon fill="none" stroke="#63b8ff" points="491.85,-775.46 492.66,-768.3 499.59,-766.29 498.77,-773.46 491.85,-775.46"/>
</a>
</g>
<text text-anchor="middle" x="518" y="-787" font-family="Helvetica,sans-Serif" font-size="10.00" fill="grey"> &#45;m_udpChannel</text>
</g>
<!-- Node7&#45;&gt;Node6 -->
<g id="edge8_Node000006_Node000007" class="edge">
<title>Node7&#45;&gt;Node6</title>
<g id="a_edge8_Node000006_Node000007"><a xlink:title=" ">
<path fill="none" stroke="#63b8ff" d="M488.57,-1193.85C461.16,-1159.24 426.29,-1115.21 395.38,-1076.18"/>
<polygon fill="none" stroke="#63b8ff" points="395.07,-1075.79 388.21,-1073.57 387.62,-1066.38 394.48,-1068.6 395.07,-1075.79"/>
</a>
</g>
<text text-anchor="middle" x="509" y="-1168" font-family="Helvetica,sans-Serif" font-size="10.00" fill="grey"> &#45;m_udpWorker</text>
</g>
<!-- Node8 -->
<g id="Node000008" class="node">
<title>Node8</title>
<g id="a_Node000008"><a xlink:href="classUdpLogger.html" target="_top" xlink:title="High&#45;frequency binary logger for UDP telemetry frames.">
<polygon fill="white" stroke="transparent" points="481.5,-1722 348.5,-1722 348.5,-1433 481.5,-1433 481.5,-1722"/>
<text text-anchor="start" x="389" y="-1709.5" font-family="Helvetica,sans-Serif" font-size="10.00">UdpLogger</text>
<text text-anchor="start" x="355.5" y="-1694.5" font-family="Helvetica,sans-Serif" font-size="10.00">&#45;</text>
<text text-anchor="start" x="366" y="-1694.5" font-family="Helvetica,sans-Serif" font-size="10.00">m_writer</text>
<text text-anchor="start" x="355.5" y="-1679.5" font-family="Helvetica,sans-Serif" font-size="10.00">&#45;</text>
<text text-anchor="start" x="366" y="-1679.5" font-family="Helvetica,sans-Serif" font-size="10.00">m_ringBuffer</text>
<text text-anchor="start" x="355.5" y="-1664.5" font-family="Helvetica,sans-Serif" font-size="10.00">&#45;</text>
<text text-anchor="start" x="366" y="-1664.5" font-family="Helvetica,sans-Serif" font-size="10.00">m_running</text>
<text text-anchor="start" x="355.5" y="-1649.5" font-family="Helvetica,sans-Serif" font-size="10.00">&#45;</text>
<text text-anchor="start" x="366" y="-1649.5" font-family="Helvetica,sans-Serif" font-size="10.00">m_writerThread</text>
<text text-anchor="start" x="355.5" y="-1634.5" font-family="Helvetica,sans-Serif" font-size="10.00">&#45;</text>
<text text-anchor="start" x="366" y="-1634.5" font-family="Helvetica,sans-Serif" font-size="10.00">m_logDirPath</text>
<text text-anchor="start" x="355.5" y="-1619.5" font-family="Helvetica,sans-Serif" font-size="10.00">&#45;</text>
<text text-anchor="start" x="366" y="-1619.5" font-family="Helvetica,sans-Serif" font-size="10.00">MAX_FRAME_SIZE</text>
<text text-anchor="start" x="353" y="-1604.5" font-family="Helvetica,sans-Serif" font-size="10.00">+</text>
<text text-anchor="start" x="366" y="-1604.5" font-family="Helvetica,sans-Serif" font-size="10.00">UdpLogger()</text>
<text text-anchor="start" x="353" y="-1589.5" font-family="Helvetica,sans-Serif" font-size="10.00">+</text>
<text text-anchor="start" x="366" y="-1589.5" font-family="Helvetica,sans-Serif" font-size="10.00">~UdpLogger()</text>
<text text-anchor="start" x="353" y="-1574.5" font-family="Helvetica,sans-Serif" font-size="10.00">+</text>
<text text-anchor="start" x="366" y="-1574.5" font-family="Helvetica,sans-Serif" font-size="10.00">UdpLogger()</text>
<text text-anchor="start" x="353" y="-1559.5" font-family="Helvetica,sans-Serif" font-size="10.00">+</text>
<text text-anchor="start" x="366" y="-1559.5" font-family="Helvetica,sans-Serif" font-size="10.00">operator=()</text>
<text text-anchor="start" x="353" y="-1544.5" font-family="Helvetica,sans-Serif" font-size="10.00">+</text>
<text text-anchor="start" x="366" y="-1544.5" font-family="Helvetica,sans-Serif" font-size="10.00">UdpLogger()</text>
<text text-anchor="start" x="353" y="-1529.5" font-family="Helvetica,sans-Serif" font-size="10.00">+</text>
<text text-anchor="start" x="366" y="-1529.5" font-family="Helvetica,sans-Serif" font-size="10.00">operator=()</text>
<text text-anchor="start" x="353" y="-1514.5" font-family="Helvetica,sans-Serif" font-size="10.00">+</text>
<text text-anchor="start" x="366" y="-1514.5" font-family="Helvetica,sans-Serif" font-size="10.00">log()</text>
<text text-anchor="start" x="353" y="-1499.5" font-family="Helvetica,sans-Serif" font-size="10.00">+</text>
<text text-anchor="start" x="366" y="-1499.5" font-family="Helvetica,sans-Serif" font-size="10.00">cyclesCount()</text>
<text text-anchor="start" x="353" y="-1484.5" font-family="Helvetica,sans-Serif" font-size="10.00">+</text>
<text text-anchor="start" x="366" y="-1484.5" font-family="Helvetica,sans-Serif" font-size="10.00">droppedFramesCount()</text>
<text text-anchor="start" x="353" y="-1469.5" font-family="Helvetica,sans-Serif" font-size="10.00">+</text>
<text text-anchor="start" x="366" y="-1469.5" font-family="Helvetica,sans-Serif" font-size="10.00">start()</text>
<text text-anchor="start" x="353" y="-1454.5" font-family="Helvetica,sans-Serif" font-size="10.00">+</text>
<text text-anchor="start" x="366" y="-1454.5" font-family="Helvetica,sans-Serif" font-size="10.00">stop()</text>
<text text-anchor="start" x="355.5" y="-1439.5" font-family="Helvetica,sans-Serif" font-size="10.00">&#45;</text>
<text text-anchor="start" x="366" y="-1439.5" font-family="Helvetica,sans-Serif" font-size="10.00">writerLoop()</text>
<polygon fill="#666666" stroke="#666666" points="349,-1704.5 349,-1704.5 482,-1704.5 482,-1704.5 349,-1704.5"/>
<polygon fill="#666666" stroke="#666666" points="349,-1614.5 349,-1614.5 364,-1614.5 364,-1614.5 349,-1614.5"/>
<polygon fill="#666666" stroke="#666666" points="364,-1614.5 364,-1614.5 482,-1614.5 482,-1614.5 364,-1614.5"/>
<polygon fill="none" stroke="#666666" points="348.5,-1433 348.5,-1722 481.5,-1722 481.5,-1433 348.5,-1433"/>
</a>
</g>
</g>
<!-- Node8&#45;&gt;Node6 -->
<g id="edge17_Node000006_Node000008" class="edge">
<title>Node8&#45;&gt;Node6</title>
<g id="a_edge17_Node000006_Node000008"><a xlink:title=" ">
<path fill="none" stroke="#63b8ff" d="M392.06,-1432.73C378.94,-1350.46 362.36,-1246.56 348.42,-1159.15"/>
<polygon fill="none" stroke="#63b8ff" points="348.41,-1159.06 343.51,-1153.76 346.51,-1147.21 351.41,-1152.5 348.41,-1159.06"/>
</a>
</g>
<text text-anchor="middle" x="408.5" y="-1253.5" font-family="Helvetica,sans-Serif" font-size="10.00" fill="grey"> &#45;m_udpLogger</text>
</g>
<!-- Node8&#45;&gt;Node7 -->
<g id="edge10_Node000007_Node000008" class="edge">
<title>Node8&#45;&gt;Node7</title>
<g id="a_edge10_Node000007_Node000008"><a xlink:title=" ">
<path fill="none" stroke="#63b8ff" d="M406.2,-1432.88C409.34,-1399.52 417.1,-1365.24 433,-1336 437.17,-1328.33 442.44,-1321.18 448.38,-1314.57"/>
<polygon fill="none" stroke="#63b8ff" points="448.47,-1314.47 449.8,-1307.38 456.86,-1305.89 455.53,-1312.97 448.47,-1314.47"/>
</a>
</g>
<text text-anchor="middle" x="468.5" y="-1373" font-family="Helvetica,sans-Serif" font-size="10.00" fill="grey"> &#45;m_udplogger</text>
</g>
<!-- Node9&#45;&gt;Node6 -->
<g id="edge16_Node000006_Node000009" class="edge">
<title>Node9&#45;&gt;Node6</title>
<g id="a_edge16_Node000006_Node000009"><a xlink:title=" ">
<path fill="none" stroke="#63b8ff" d="M357.28,-1881.6C352.07,-1838.47 344.92,-1776.42 340,-1722 327.69,-1585.79 323.67,-1551.68 319,-1415 317.8,-1379.91 318.95,-1371.11 319,-1336 319.08,-1278.58 319.24,-1215.94 319.4,-1159.48"/>
<polygon fill="none" stroke="#63b8ff" points="319.4,-1159.15 315.42,-1153.14 319.44,-1147.15 323.42,-1153.17 319.4,-1159.15"/>
</a>
</g>
<text text-anchor="middle" x="345.5" y="-1373" font-family="Helvetica,sans-Serif" font-size="10.00" fill="grey"> &#45;m_logger</text>
</g>
<!-- Node9&#45;&gt;Node7 -->
<g id="edge13_Node000007_Node000009" class="edge">
<title>Node9&#45;&gt;Node7</title>
<g id="a_edge13_Node000007_Node000009"><a xlink:title=" ">
<path fill="none" stroke="#63b8ff" d="M398.01,-1913.61C415.2,-1900.98 435.09,-1883.71 448,-1864 504.71,-1777.4 526.61,-1472.35 533.87,-1330.52"/>
<polygon fill="none" stroke="#63b8ff" points="533.89,-1330.12 530.19,-1323.92 534.49,-1318.13 538.18,-1324.32 533.89,-1330.12"/>
</a>
</g>
<text text-anchor="middle" x="553.5" y="-1575" font-family="Helvetica,sans-Serif" font-size="10.00" fill="grey"> &#45;m_logger</text>
</g>
<!-- Node9&#45;&gt;Node8 -->
<g id="edge11_Node000008_Node000009" class="edge">
<title>Node9&#45;&gt;Node8</title>
<g id="a_edge11_Node000008_Node000009"><a xlink:title=" ">
<path fill="none" stroke="#63b8ff" d="M371.69,-1881.67C377.3,-1842.37 385.22,-1786.97 392.75,-1734.26"/>
<polygon fill="none" stroke="#63b8ff" points="392.75,-1734.24 389.64,-1727.73 394.45,-1722.36 397.56,-1728.86 392.75,-1734.24"/>
</a>
</g>
<text text-anchor="middle" x="417.5" y="-1799.5" font-family="Helvetica,sans-Serif" font-size="10.00" fill="grey"> &#45;m_logger</text>
</g>
<!-- Node10&#45;&gt;Node6 -->
<g id="edge14_Node000006_Node000010" class="edge">
<title>Node10&#45;&gt;Node6</title>
<g id="a_edge14_Node000006_Node000010"><a xlink:title=" ">
<path fill="none" stroke="#63b8ff" d="M197.49,-1335.75C189.19,-1298.7 180.98,-1241.6 194,-1194 204.76,-1154.66 224.87,-1115.21 245.91,-1081.13"/>
<polygon fill="none" stroke="#63b8ff" points="246.07,-1080.89 245.88,-1073.68 252.46,-1070.74 252.65,-1077.95 246.07,-1080.89"/>
</a>
</g>
<text text-anchor="middle" x="231" y="-1253.5" font-family="Helvetica,sans-Serif" font-size="10.00" fill="grey"> &#45;m_fileSystem</text>
</g>
<!-- Node11&#45;&gt;Node3 -->
<g id="edge18_Node000003_Node000011" class="edge">
<title>Node11&#45;&gt;Node3</title>
<g id="a_edge18_Node000003_Node000011"><a xlink:title=" ">
<path fill="none" stroke="#63b8ff" d="M496.76,-639.65C434.15,-594.62 340.41,-527.2 271.69,-477.78"/>
<polygon fill="none" stroke="#63b8ff" points="271.48,-477.63 264.28,-477.38 261.74,-470.63 268.95,-470.88 271.48,-477.63"/>
</a>
</g>
<text text-anchor="middle" x="469" y="-586" font-family="Helvetica,sans-Serif" font-size="10.00" fill="grey"> &#45;m_testBenchM</text>
</g>
<!-- Node12 -->
<g id="Node000012" class="node">
<title>Node12</title>
<g id="a_Node000012"><a xlink:href="classTestBenchStatesList.html" target="_top" xlink:title=" ">
<polygon fill="white" stroke="transparent" points="781,-1034.5 673,-1034.5 673,-925.5 781,-925.5 781,-1034.5"/>
<text text-anchor="start" x="678" y="-1022" font-family="Helvetica,sans-Serif" font-size="10.00">TestBenchStatesList</text>
<text text-anchor="start" x="680.5" y="-1007" font-family="Helvetica,sans-Serif" font-size="10.00">&#45;</text>
<text text-anchor="start" x="692" y="-1007" font-family="Helvetica,sans-Serif" font-size="10.00">m_valuesDatas</text>
<text text-anchor="start" x="680.5" y="-992" font-family="Helvetica,sans-Serif" font-size="10.00">&#45;</text>
<text text-anchor="start" x="692" y="-992" font-family="Helvetica,sans-Serif" font-size="10.00">m_valuesNames</text>
<text text-anchor="start" x="678" y="-977" font-family="Helvetica,sans-Serif" font-size="10.00">+</text>
<text text-anchor="start" x="692" y="-977" font-family="Helvetica,sans-Serif" font-size="10.00">append()</text>
<text text-anchor="start" x="678" y="-962" font-family="Helvetica,sans-Serif" font-size="10.00">+</text>
<text text-anchor="start" x="692" y="-962" font-family="Helvetica,sans-Serif" font-size="10.00">getValue()</text>
<text text-anchor="start" x="678" y="-947" font-family="Helvetica,sans-Serif" font-size="10.00">+</text>
<text text-anchor="start" x="692" y="-947" font-family="Helvetica,sans-Serif" font-size="10.00">getValue()</text>
<text text-anchor="start" x="678" y="-932" font-family="Helvetica,sans-Serif" font-size="10.00">+</text>
<text text-anchor="start" x="692" y="-932" font-family="Helvetica,sans-Serif" font-size="10.00">getID()</text>
<polygon fill="#666666" stroke="#666666" points="673,-1017 673,-1017 781,-1017 781,-1017 673,-1017"/>
<polygon fill="#666666" stroke="#666666" points="673,-987 673,-987 690,-987 690,-987 673,-987"/>
<polygon fill="#666666" stroke="#666666" points="690,-987 690,-987 781,-987 781,-987 690,-987"/>
<polygon fill="none" stroke="#666666" points="673,-925.5 673,-1034.5 781,-1034.5 781,-925.5 673,-925.5"/>
</a>
</g>
</g>
<!-- Node12&#45;&gt;Node11 -->
<g id="edge20_Node000011_Node000012" class="edge">
<title>Node12&#45;&gt;Node11</title>
<g id="a_edge20_Node000011_Node000012"><a xlink:title=" ">
<path fill="none" stroke="#63b8ff" d="M715.28,-925.18C704.76,-884.29 686.66,-827.81 659,-784 653.22,-774.85 646.4,-765.92 639.1,-757.42"/>
<polygon fill="none" stroke="#63b8ff" points="639.02,-757.33 632.04,-755.52 631.02,-748.39 638,-750.19 639.02,-757.33"/>
</a>
</g>
<text text-anchor="middle" x="690" y="-787" font-family="Helvetica,sans-Serif" font-size="10.00" fill="grey"> &#45;m_states</text>
</g>
</g>
</svg>

<g id="navigator" transform="translate(0 0)" fill="#404254">
  <rect fill="#f2f5e9" fill-opacity="0.5" stroke="#606060" stroke-width=".5" x="0" y="0" width="60" height="60"/>
  <use id="zoomplus" xlink:href="#zoomPlus" x="17" y="9" onmousedown="handleZoom(evt,'in')"/>
  <use id="zoomminus" xlink:href="#zoomMin" x="42" y="9" onmousedown="handleZoom(evt,'out')"/>
  <use id="reset" xlink:href="#resetDef" x="30" y="36" onmousedown="handleReset()"/>
   <use id="arrowup" xlink:href="#arrowUp" x="0" y="0" onmousedown="handlePan(0,-1)"/>
  <use id="arrowright" xlink:href="#arrowRight" x="0" y="0" onmousedown="handlePan(1,0)"/>
  <use id="arrowdown" xlink:href="#arrowDown" x="0" y="0" onmousedown="handlePan(0,1)"/>
  <use id="arrowleft" xlink:href="#arrowLeft" x="0" y="0" onmousedown="handlePan(-1,0)"/>
</g>
<svg viewBox="0 0 15 15" width="100%" height="30px" preserveAspectRatio="xMaxYMin meet">
 <g id="arrow_out" transform="scale(0.3 0.3)">
  <a xlink:href="classActuatorSwitchWidget__coll__graph_org.svg" target="_base">
   <rect id="button" ry="5" rx="5" y="6" x="6" height="38" width="38"
        fill="#f2f5e9" fill-opacity="0.5" stroke="#606060" stroke-width="1.0"/>
   <path id="arrow"
     d="M 11.500037,31.436501 C 11.940474,20.09759 22.043105,11.32322 32.158766,21.979434 L 37.068811,17.246167 C 37.068811,17.246167 37.088388,32 37.088388,32 L 22.160133,31.978069 C 22.160133,31.978069 26.997745,27.140456 26.997745,27.140456 C 18.528582,18.264221 13.291696,25.230495 11.500037,31.436501 z"
     style="fill:#404040;"/>
  </a>
 </g>
</svg>

<style type='text/css'>
<![CDATA[
[data-mouse-over-selected='false'] { opacity: 0.7; }
[data-mouse-over-selected='true']  { opacity: 1.0; }
]]>
</style>
<script type="application/ecmascript"><![CDATA[
document.addEventListener('DOMContentLoaded', (event) => {
  highlightEdges();
  highlightAdjacentNodes();
});
]]></script>
</svg>
