<?xml version="1.0" encoding="UTF-8" standalone="no"?>
<!DOCTYPE svg PUBLIC "-//W3C//DTD SVG 1.1//EN"
 "http://www.w3.org/Graphics/SVG/1.1/DTD/svg11.dtd">
<!-- Generated by graphviz version 2.43.0 (0)
 -->
<!-- Title: TestLauncherViewModel::TestLauncherViewModel Pages: 1 -->
<!--zoomable 172 -->

<svg id="main" version="1.1" xmlns="http://www.w3.org/2000/svg" xmlns:xlink="http://www.w3.org/1999/xlink" xml:space="preserve" onload="init(evt)">
<style type="text/css"><![CDATA[
.node, .edge {opacity: 0.7;}
.node.selected, .edge.selected {opacity: 1;}
.edge:hover path { stroke: red; }
.edge:hover polygon { stroke: red; fill: red; }
]]></style>

<defs>
  <circle id="rim" cx="0" cy="0" r="7"/>
  <circle id="rim2" cx="0" cy="0" r="3.5"/>
  <g id="zoomPlus">
    <use xlink:href="#rim" fill="#404040"><set attributeName="fill" to="#808080" begin="zoomplus.mouseover" end="zoomplus.mouseout"/></use>
    <path d="M-4,0h8M0,-4v8" fill="none" stroke="white" stroke-width="1.5" pointer-events="none"/>
  </g>
  <g id="zoomMin">
    <use xlink:href="#rim" fill="#404040"><set attributeName="fill" to="#808080" begin="zoomminus.mouseover" end="zoomminus.mouseout"/></use>
    <path d="M-4,0h8" fill="none" stroke="white" stroke-width="1.5" pointer-events="none"/>
  </g>
  <g id="arrowUp" transform="translate(30 24)">
    <use xlink:href="#rim"/>
    <path pointer-events="none" fill="none" stroke="white" stroke-width="1.5" d="M0,-3.0v7 M-2.5,-0.5L0,-3.0L2.5,-0.5"/>
  </g>
  <g id="arrowRight" transform="rotate(90) translate(36 -43)">
    <use xlink:href="#rim"/>
    <path pointer-events="none" fill="none" stroke="white" stroke-width="1.5" d="M0,-3.0v7 M-2.5,-0.5L0,-3.0L2.5,-0.5"/>
  </g>
  <g id="arrowDown" transform="rotate(180) translate(-30 -48)">
    <use xlink:href="#rim"/>
    <path pointer-events="none" fill="none" stroke="white" stroke-width="1.5" d="M0,-3.0v7 M-2.5,-0.5L0,-3.0L2.5,-0.5"/>
  </g>
  <g id="arrowLeft" transform="rotate(270) translate(-36 17)">
    <use xlink:href="#rim"/>
    <path pointer-events="none" fill="none" stroke="white" stroke-width="1.5" d="M0,-3.0v7 M-2.5,-0.5L0,-3.0L2.5,-0.5"/>
  </g>
  <g id="resetDef">
    <use xlink:href="#rim2" fill="#404040"><set attributeName="fill" to="#808080" begin="reset.mouseover" end="reset.mouseout"/></use>
  </g>
</defs>
<script type="application/ecmascript">
var viewWidth = 718;
var viewHeight = 172;
var sectionId = 'dynsection-2';
</script>
<script type="application/ecmascript" xlink:href="svg.min.js"/>
<svg id="graph" class="graph">
<g id="viewport">
<title>TestLauncherViewModel::TestLauncherViewModel</title>
<!-- Node1 -->
<g id="Node000001" class="node">
<title>Node1</title>
<g id="a_Node000001"><a xlink:title=" ">
<polygon fill="#999999" stroke="#666666" points="140,-99 0,-99 0,-69 140,-69 140,-99"/>
<text text-anchor="start" x="8" y="-87" font-family="Helvetica,sans-Serif" font-size="10.00">TestLauncherViewModel</text>
<text text-anchor="middle" x="70" y="-76" font-family="Helvetica,sans-Serif" font-size="10.00">::TestLauncherViewModel</text>
</a>
</g>
</g>
<!-- Node2 -->
<g id="Node000002" class="node">
<title>Node2</title>
<g id="a_Node000002"><a xlink:href="classUdpChannel.html#a365d3463ec51e0e296cf7cd1dee7ed61" target="_top" xlink:title=" ">
<polygon fill="white" stroke="#666666" points="319,-164 176,-164 176,-134 319,-134 319,-164"/>
<text text-anchor="start" x="184" y="-152" font-family="Helvetica,sans-Serif" font-size="10.00">UdpChannel::controlEvent</text>
<text text-anchor="middle" x="247.5" y="-141" font-family="Helvetica,sans-Serif" font-size="10.00">Received</text>
</a>
</g>
</g>
<!-- Node1&#45;&gt;Node2 -->
<g id="edge1_Node000001_Node000002" class="edge">
<title>Node1&#45;&gt;Node2</title>
<g id="a_edge1_Node000001_Node000002"><a xlink:title=" ">
<path fill="none" stroke="#63b8ff" d="M108.27,-99.01C128.27,-106.95 153.39,-116.74 176,-125 181.09,-126.86 186.39,-128.75 191.72,-130.61"/>
<polygon fill="#63b8ff" stroke="#63b8ff" points="190.67,-133.96 201.26,-133.93 192.97,-127.34 190.67,-133.96"/>
</a>
</g>
</g>
<!-- Node3 -->
<g id="Node000003" class="node">
<title>Node3</title>
<g id="a_Node000003"><a xlink:href="classTxtParser.html#a7cd1923d1d1fa00cc53ef4ce794a830b" target="_top" xlink:title=" ">
<polygon fill="white" stroke="#666666" points="306.5,-115.5 188.5,-115.5 188.5,-96.5 306.5,-96.5 306.5,-115.5"/>
<text text-anchor="middle" x="247.5" y="-103.5" font-family="Helvetica,sans-Serif" font-size="10.00">TxtParser::FileParsed</text>
</a>
</g>
</g>
<!-- Node1&#45;&gt;Node3 -->
<g id="edge2_Node000001_Node000003" class="edge">
<title>Node1&#45;&gt;Node3</title>
<g id="a_edge2_Node000001_Node000003"><a xlink:title=" ">
<path fill="none" stroke="#63b8ff" d="M140.11,-92.66C152.55,-94.22 165.51,-95.85 177.94,-97.41"/>
<polygon fill="#63b8ff" stroke="#63b8ff" points="177.87,-100.92 188.22,-98.69 178.74,-93.98 177.87,-100.92"/>
</a>
</g>
</g>
<!-- Node4 -->
<g id="Node000004" class="node">
<title>Node4</title>
<g id="a_Node000004"><a xlink:href="classTestLauncherViewModel.html#a3843fc648d675f2770fd7780b104e477" target="_top" xlink:title=" ">
<polygon fill="white" stroke="#666666" points="314.5,-78 180.5,-78 180.5,-48 314.5,-48 314.5,-78"/>
<text text-anchor="start" x="188.5" y="-66" font-family="Helvetica,sans-Serif" font-size="10.00">TestLauncherViewModel</text>
<text text-anchor="middle" x="247.5" y="-55" font-family="Helvetica,sans-Serif" font-size="10.00">::onFileParsed</text>
</a>
</g>
</g>
<!-- Node1&#45;&gt;Node4 -->
<g id="edge3_Node000001_Node000004" class="edge">
<title>Node1&#45;&gt;Node4</title>
<g id="a_edge3_Node000001_Node000004"><a xlink:title=" ">
<path fill="none" stroke="#63b8ff" d="M140.11,-75.73C150.04,-74.54 160.3,-73.31 170.35,-72.11"/>
<polygon fill="#63b8ff" stroke="#63b8ff" points="170.81,-75.58 180.32,-70.92 169.97,-68.63 170.81,-75.58"/>
</a>
</g>
</g>
<!-- Node6 -->
<g id="Node000006" class="node">
<title>Node6</title>
<g id="a_Node000006"><a xlink:href="classTestLauncherViewModel.html#a265a1e3bb839de77a7439a4c3dc08c0f" target="_top" xlink:title=" ">
<polygon fill="white" stroke="#666666" points="314.5,-30 180.5,-30 180.5,0 314.5,0 314.5,-30"/>
<text text-anchor="start" x="188.5" y="-18" font-family="Helvetica,sans-Serif" font-size="10.00">TestLauncherViewModel</text>
<text text-anchor="middle" x="247.5" y="-7" font-family="Helvetica,sans-Serif" font-size="10.00">::onLaunchConfirmed</text>
</a>
</g>
</g>
<!-- Node1&#45;&gt;Node6 -->
<g id="edge5_Node000001_Node000006" class="edge">
<title>Node1&#45;&gt;Node6</title>
<g id="a_edge5_Node000001_Node000006"><a xlink:title=" ">
<path fill="none" stroke="#63b8ff" d="M104.31,-68.95C124.82,-59.88 151.74,-48.31 176,-39 180.78,-37.16 185.77,-35.32 190.79,-33.52"/>
<polygon fill="#63b8ff" stroke="#63b8ff" points="192.17,-36.75 200.43,-30.11 189.83,-30.15 192.17,-36.75"/>
</a>
</g>
</g>
<!-- Node5 -->
<g id="Node000005" class="node">
<title>Node5</title>
<g id="a_Node000005"><a xlink:href="classTestLauncherViewModel.html#a34b64a79fa056641a062bf36bd74f118" target="_top" xlink:title=" ">
<polygon fill="white" stroke="#666666" points="522,-78 355,-78 355,-48 522,-48 522,-78"/>
<text text-anchor="start" x="363" y="-66" font-family="Helvetica,sans-Serif" font-size="10.00">TestLauncherViewModel</text>
<text text-anchor="middle" x="438.5" y="-55" font-family="Helvetica,sans-Serif" font-size="10.00">::sequenceParametersChanged</text>
</a>
</g>
</g>
<!-- Node4&#45;&gt;Node5 -->
<g id="edge4_Node000004_Node000005" class="edge">
<title>Node4&#45;&gt;Node5</title>
<g id="a_edge4_Node000004_Node000005"><a xlink:title=" ">
<path fill="none" stroke="#63b8ff" d="M314.6,-63C324.34,-63 334.53,-63 344.68,-63"/>
<polygon fill="#63b8ff" stroke="#63b8ff" points="344.82,-66.5 354.82,-63 344.82,-59.5 344.82,-66.5"/>
</a>
</g>
</g>
<!-- Node7 -->
<g id="Node000007" class="node">
<title>Node7</title>
<g id="a_Node000007"><a xlink:href="classTestBenchModel.html#a54c863e0fad71787463b3cca612b1ee3" target="_top" xlink:title=" ">
<polygon fill="white" stroke="#666666" points="522,-24.5 355,-24.5 355,-5.5 522,-5.5 522,-24.5"/>
<text text-anchor="middle" x="438.5" y="-12.5" font-family="Helvetica,sans-Serif" font-size="10.00">TestBenchModel::setTestStatus</text>
</a>
</g>
</g>
<!-- Node6&#45;&gt;Node7 -->
<g id="edge6_Node000006_Node000007" class="edge">
<title>Node6&#45;&gt;Node7</title>
<g id="a_edge6_Node000006_Node000007"><a xlink:title=" ">
<path fill="none" stroke="#63b8ff" d="M314.6,-15C324.34,-15 334.53,-15 344.68,-15"/>
<polygon fill="#63b8ff" stroke="#63b8ff" points="344.82,-18.5 354.82,-15 344.82,-11.5 344.82,-18.5"/>
</a>
</g>
</g>
<!-- Node8 -->
<g id="Node000008" class="node">
<title>Node8</title>
<g id="a_Node000008"><a xlink:href="classTestBenchModel.html#a0d3f80fa37e00cdbd143c2354d28d74f" target="_top" xlink:title=" ">
<polygon fill="white" stroke="#666666" points="710,-30 558,-30 558,0 710,0 710,-30"/>
<text text-anchor="start" x="566" y="-18" font-family="Helvetica,sans-Serif" font-size="10.00">TestBenchModel::testStatus</text>
<text text-anchor="middle" x="634" y="-7" font-family="Helvetica,sans-Serif" font-size="10.00">Changed</text>
</a>
</g>
</g>
<!-- Node7&#45;&gt;Node8 -->
<g id="edge7_Node000007_Node000008" class="edge">
<title>Node7&#45;&gt;Node8</title>
<g id="a_edge7_Node000007_Node000008"><a xlink:title=" ">
<path fill="none" stroke="#63b8ff" d="M522.12,-15C530.52,-15 539.06,-15 547.49,-15"/>
<polygon fill="#63b8ff" stroke="#63b8ff" points="547.7,-18.5 557.7,-15 547.7,-11.5 547.7,-18.5"/>
</a>
</g>
</g>
</g>
</svg>

<g id="navigator" transform="translate(0 0)" fill="#404254">
  <rect fill="#f2f5e9" fill-opacity="0.5" stroke="#606060" stroke-width=".5" x="0" y="0" width="60" height="60"/>
  <use id="zoomplus" xlink:href="#zoomPlus" x="17" y="9" onmousedown="handleZoom(evt,'in')"/>
  <use id="zoomminus" xlink:href="#zoomMin" x="42" y="9" onmousedown="handleZoom(evt,'out')"/>
  <use id="reset" xlink:href="#resetDef" x="30" y="36" onmousedown="handleReset()"/>
   <use id="arrowup" xlink:href="#arrowUp" x="0" y="0" onmousedown="handlePan(0,-1)"/>
  <use id="arrowright" xlink:href="#arrowRight" x="0" y="0" onmousedown="handlePan(1,0)"/>
  <use id="arrowdown" xlink:href="#arrowDown" x="0" y="0" onmousedown="handlePan(0,1)"/>
  <use id="arrowleft" xlink:href="#arrowLeft" x="0" y="0" onmousedown="handlePan(-1,0)"/>
</g>
<svg viewBox="0 0 15 15" width="100%" height="30px" preserveAspectRatio="xMaxYMin meet">
 <g id="arrow_out" transform="scale(0.3 0.3)">
  <a xlink:href="classTestLauncherViewModel_a8383814253c17f638f473f833f79b9a9_cgraph_org.svg" target="_base">
   <rect id="button" ry="5" rx="5" y="6" x="6" height="38" width="38"
        fill="#f2f5e9" fill-opacity="0.5" stroke="#606060" stroke-width="1.0"/>
   <path id="arrow"
     d="M 11.500037,31.436501 C 11.940474,20.09759 22.043105,11.32322 32.158766,21.979434 L 37.068811,17.246167 C 37.068811,17.246167 37.088388,32 37.088388,32 L 22.160133,31.978069 C 22.160133,31.978069 26.997745,27.140456 26.997745,27.140456 C 18.528582,18.264221 13.291696,25.230495 11.500037,31.436501 z"
     style="fill:#404040;"/>
  </a>
 </g>
</svg>

<style type='text/css'>
<![CDATA[
[data-mouse-over-selected='false'] { opacity: 0.7; }
[data-mouse-over-selected='true']  { opacity: 1.0; }
]]>
</style>
<script type="application/ecmascript"><![CDATA[
document.addEventListener('DOMContentLoaded', (event) => {
  highlightEdges();
  highlightAdjacentNodes();
});
]]></script>
</svg>
