<?xml version="1.0" encoding="UTF-8" standalone="no"?>
<!DOCTYPE svg PUBLIC "-//W3C//DTD SVG 1.1//EN"
 "http://www.w3.org/Graphics/SVG/1.1/DTD/svg11.dtd">
<!-- Generated by graphviz version 2.43.0 (0)
 -->
<!-- Title: ExportMenu Pages: 1 -->
<svg width="642pt" height="1544pt"
 viewBox="0.00 0.00 641.50 1544.00" xmlns="http://www.w3.org/2000/svg" xmlns:xlink="http://www.w3.org/1999/xlink">
<g id="graph0" class="graph" transform="scale(1 1) rotate(0) translate(4 1540)">
<title>ExportMenu</title>
<!-- Node1 -->
<g id="Node000001" class="node">
<title>Node1</title>
<g id="a_Node000001"><a xlink:title=" ">
<polygon fill="#999999" stroke="transparent" points="181,-94 0,-94 0,0 181,0 181,-94"/>
<text text-anchor="start" x="61.5" y="-82" font-family="Helvetica,sans-Serif" font-size="10.00">ExportMenu</text>
<text text-anchor="start" x="89" y="-67" font-family="Helvetica,sans-Serif" font-size="10.00"> </text>
<text text-anchor="start" x="4.5" y="-52" font-family="Helvetica,sans-Serif" font-size="10.00">+</text>
<text text-anchor="start" x="17.5" y="-52" font-family="Helvetica,sans-Serif" font-size="10.00">ExportMenu()</text>
<text text-anchor="start" x="4.5" y="-37" font-family="Helvetica,sans-Serif" font-size="10.00">+</text>
<text text-anchor="start" x="17.5" y="-37" font-family="Helvetica,sans-Serif" font-size="10.00">onMenuAboutToShow()</text>
<text text-anchor="start" x="4.5" y="-22" font-family="Helvetica,sans-Serif" font-size="10.00">+</text>
<text text-anchor="start" x="17.5" y="-22" font-family="Helvetica,sans-Serif" font-size="10.00">addFile()</text>
<text text-anchor="start" x="4.5" y="-7" font-family="Helvetica,sans-Serif" font-size="10.00">+</text>
<text text-anchor="start" x="17.5" y="-7" font-family="Helvetica,sans-Serif" font-size="10.00">onFileDialogWindowRequested()</text>
<polygon fill="#666666" stroke="#666666" points="0.5,-77 0.5,-77 181.5,-77 181.5,-77 0.5,-77"/>
<polygon fill="#666666" stroke="#666666" points="0.5,-62 0.5,-62 181.5,-62 181.5,-62 0.5,-62"/>
<polygon fill="none" stroke="#666666" points="0,0 0,-94 181,-94 181,0 0,0"/>
</a>
</g>
</g>
<!-- Node2 -->
<g id="Node000002" class="node">
<title>Node2</title>
<g id="a_Node000002"><a xlink:title=" ">
<polygon fill="white" stroke="transparent" points="97,-242.5 52,-242.5 52,-193.5 97,-193.5 97,-242.5"/>
<text text-anchor="start" x="57.5" y="-230" font-family="Helvetica,sans-Serif" font-size="10.00">QMenu</text>
<text text-anchor="start" x="73" y="-215" font-family="Helvetica,sans-Serif" font-size="10.00"> </text>
<text text-anchor="start" x="73" y="-200" font-family="Helvetica,sans-Serif" font-size="10.00"> </text>
<polygon fill="#666666" stroke="#666666" points="52.5,-225 52.5,-225 97.5,-225 97.5,-225 52.5,-225"/>
<polygon fill="#666666" stroke="#666666" points="52.5,-210 52.5,-210 97.5,-210 97.5,-210 52.5,-210"/>
<polygon fill="none" stroke="#666666" points="52,-193.5 52,-242.5 97,-242.5 97,-193.5 52,-193.5"/>
</a>
</g>
</g>
<!-- Node2&#45;&gt;Node1 -->
<g id="edge1_Node000001_Node000002" class="edge">
<title>Node2&#45;&gt;Node1</title>
<g id="a_edge1_Node000001_Node000002"><a xlink:title=" ">
<path fill="none" stroke="#63b8ff" d="M77.7,-183.17C80.12,-157.59 83.48,-122.18 86.14,-94.02"/>
<polygon fill="none" stroke="#63b8ff" points="74.22,-182.86 76.76,-193.14 81.19,-183.52 74.22,-182.86"/>
</a>
</g>
</g>
<!-- Node3 -->
<g id="Node000003" class="node">
<title>Node3</title>
<g id="a_Node000003"><a xlink:href="classExportMenuViewModel.html" target="_top" xlink:title=" ">
<polygon fill="white" stroke="transparent" points="257.5,-295 115.5,-295 115.5,-141 257.5,-141 257.5,-295"/>
<text text-anchor="start" x="130" y="-283" font-family="Helvetica,sans-Serif" font-size="10.00">ExportMenuViewModel</text>
<text text-anchor="start" x="122" y="-268" font-family="Helvetica,sans-Serif" font-size="10.00">&#45;</text>
<text text-anchor="start" x="132.5" y="-268" font-family="Helvetica,sans-Serif" font-size="10.00">m_action</text>
<text text-anchor="start" x="122" y="-253" font-family="Helvetica,sans-Serif" font-size="10.00">&#45;</text>
<text text-anchor="start" x="132.5" y="-253" font-family="Helvetica,sans-Serif" font-size="10.00">m_fileList</text>
<text text-anchor="start" x="122" y="-238" font-family="Helvetica,sans-Serif" font-size="10.00">&#45;</text>
<text text-anchor="start" x="132.5" y="-238" font-family="Helvetica,sans-Serif" font-size="10.00">m_selectedFile</text>
<text text-anchor="start" x="119.5" y="-223" font-family="Helvetica,sans-Serif" font-size="10.00">+</text>
<text text-anchor="start" x="132.5" y="-223" font-family="Helvetica,sans-Serif" font-size="10.00">ExportMenuViewModel()</text>
<text text-anchor="start" x="119.5" y="-208" font-family="Helvetica,sans-Serif" font-size="10.00">+</text>
<text text-anchor="start" x="132.5" y="-208" font-family="Helvetica,sans-Serif" font-size="10.00">getSelectedFile()</text>
<text text-anchor="start" x="119.5" y="-193" font-family="Helvetica,sans-Serif" font-size="10.00">+</text>
<text text-anchor="start" x="132.5" y="-193" font-family="Helvetica,sans-Serif" font-size="10.00">selectAction()</text>
<text text-anchor="start" x="119.5" y="-178" font-family="Helvetica,sans-Serif" font-size="10.00">+</text>
<text text-anchor="start" x="132.5" y="-178" font-family="Helvetica,sans-Serif" font-size="10.00">selectFile()</text>
<text text-anchor="start" x="119.5" y="-163" font-family="Helvetica,sans-Serif" font-size="10.00">+</text>
<text text-anchor="start" x="132.5" y="-163" font-family="Helvetica,sans-Serif" font-size="10.00">selectPath()</text>
<text text-anchor="start" x="119.5" y="-148" font-family="Helvetica,sans-Serif" font-size="10.00">+</text>
<text text-anchor="start" x="132.5" y="-148" font-family="Helvetica,sans-Serif" font-size="10.00">getFileList()</text>
<polygon fill="#666666" stroke="#666666" points="115.5,-278 115.5,-278 257.5,-278 257.5,-278 115.5,-278"/>
<polygon fill="#666666" stroke="#666666" points="115.5,-233 115.5,-233 130.5,-233 130.5,-233 115.5,-233"/>
<polygon fill="#666666" stroke="#666666" points="130.5,-233 130.5,-233 257.5,-233 257.5,-233 130.5,-233"/>
<polygon fill="none" stroke="#666666" points="115.5,-141 115.5,-295 257.5,-295 257.5,-141 115.5,-141"/>
</a>
</g>
</g>
<!-- Node3&#45;&gt;Node1 -->
<g id="edge2_Node000001_Node000003" class="edge">
<title>Node3&#45;&gt;Node1</title>
<g id="a_edge2_Node000001_Node000003"><a xlink:title=" ">
<path fill="none" stroke="#63b8ff" d="M143.27,-140.9C136.34,-128.7 129.27,-116.25 122.65,-104.6"/>
<polygon fill="none" stroke="#63b8ff" points="122.65,-104.59 116.21,-101.35 116.72,-94.16 123.16,-97.4 122.65,-104.59"/>
</a>
</g>
<text text-anchor="middle" x="182" y="-115" font-family="Helvetica,sans-Serif" font-size="10.00" fill="grey"> &#45;m_exportMenuVM</text>
</g>
<!-- Node4 -->
<g id="Node000004" class="node">
<title>Node4</title>
<g id="a_Node000004"><a xlink:title=" ">
<polygon fill="white" stroke="transparent" points="266.5,-1536 216.5,-1536 216.5,-1487 266.5,-1487 266.5,-1536"/>
<text text-anchor="start" x="221.5" y="-1523.5" font-family="Helvetica,sans-Serif" font-size="10.00">QObject</text>
<text text-anchor="start" x="239.5" y="-1508.5" font-family="Helvetica,sans-Serif" font-size="10.00"> </text>
<text text-anchor="start" x="239.5" y="-1493.5" font-family="Helvetica,sans-Serif" font-size="10.00"> </text>
<polygon fill="#666666" stroke="#666666" points="216.5,-1518.5 216.5,-1518.5 266.5,-1518.5 266.5,-1518.5 216.5,-1518.5"/>
<polygon fill="#666666" stroke="#666666" points="216.5,-1503.5 216.5,-1503.5 266.5,-1503.5 266.5,-1503.5 216.5,-1503.5"/>
<polygon fill="none" stroke="#666666" points="216.5,-1487 216.5,-1536 266.5,-1536 266.5,-1487 216.5,-1487"/>
</a>
</g>
</g>
<!-- Node4&#45;&gt;Node3 -->
<g id="edge3_Node000003_Node000004" class="edge">
<title>Node4&#45;&gt;Node3</title>
<g id="a_edge3_Node000003_Node000004"><a xlink:title=" ">
<path fill="none" stroke="#63b8ff" d="M206.45,-1500.69C162.4,-1485.97 92.5,-1453.61 92.5,-1396.5 92.5,-1396.5 92.5,-1396.5 92.5,-373 92.5,-345.44 103.61,-318.62 118.19,-295.31"/>
<polygon fill="none" stroke="#63b8ff" points="205.63,-1504.1 216.22,-1503.81 207.76,-1497.43 205.63,-1504.1"/>
</a>
</g>
</g>
<!-- Node5 -->
<g id="Node000005" class="node">
<title>Node5</title>
<g id="a_Node000005"><a xlink:href="classFileSystem.html" target="_top" xlink:title="File system allow the managment of files path used in the application.">
<polygon fill="white" stroke="transparent" points="250.5,-935.5 158.5,-935.5 158.5,-856.5 250.5,-856.5 250.5,-935.5"/>
<text text-anchor="start" x="177" y="-923" font-family="Helvetica,sans-Serif" font-size="10.00">FileSystem</text>
<text text-anchor="start" x="165" y="-908" font-family="Helvetica,sans-Serif" font-size="10.00">&#45;</text>
<text text-anchor="start" x="175.5" y="-908" font-family="Helvetica,sans-Serif" font-size="10.00">m_pathList</text>
<text text-anchor="start" x="162.5" y="-893" font-family="Helvetica,sans-Serif" font-size="10.00">+</text>
<text text-anchor="start" x="175.5" y="-893" font-family="Helvetica,sans-Serif" font-size="10.00">FileSystem()</text>
<text text-anchor="start" x="162.5" y="-878" font-family="Helvetica,sans-Serif" font-size="10.00">+</text>
<text text-anchor="start" x="175.5" y="-878" font-family="Helvetica,sans-Serif" font-size="10.00">getDirectory()</text>
<text text-anchor="start" x="165" y="-863" font-family="Helvetica,sans-Serif" font-size="10.00">&#45;</text>
<text text-anchor="start" x="175.5" y="-863" font-family="Helvetica,sans-Serif" font-size="10.00">addDirectory()</text>
<polygon fill="#666666" stroke="#666666" points="158.5,-918 158.5,-918 250.5,-918 250.5,-918 158.5,-918"/>
<polygon fill="#666666" stroke="#666666" points="158.5,-903 158.5,-903 173.5,-903 173.5,-903 158.5,-903"/>
<polygon fill="#666666" stroke="#666666" points="173.5,-903 173.5,-903 250.5,-903 250.5,-903 173.5,-903"/>
<polygon fill="none" stroke="#666666" points="158.5,-856.5 158.5,-935.5 250.5,-935.5 250.5,-856.5 158.5,-856.5"/>
</a>
</g>
</g>
<!-- Node4&#45;&gt;Node5 -->
<g id="edge5_Node000005_Node000004" class="edge">
<title>Node4&#45;&gt;Node5</title>
<g id="a_edge5_Node000005_Node000004"><a xlink:title=" ">
<path fill="none" stroke="#63b8ff" d="M239.46,-1476.74C233.1,-1371.23 213.61,-1048 206.84,-935.83"/>
<polygon fill="none" stroke="#63b8ff" points="235.98,-1477.05 240.07,-1486.83 242.96,-1476.63 235.98,-1477.05"/>
</a>
</g>
</g>
<!-- Node6 -->
<g id="Node000006" class="node">
<title>Node6</title>
<g id="a_Node000006"><a xlink:href="classCSVLogger.html" target="_top" xlink:title=" ">
<polygon fill="white" stroke="transparent" points="296.5,-406 214.5,-406 214.5,-342 296.5,-342 296.5,-406"/>
<text text-anchor="start" x="229" y="-394" font-family="Helvetica,sans-Serif" font-size="10.00">CSVLogger</text>
<text text-anchor="start" x="218.5" y="-379" font-family="Helvetica,sans-Serif" font-size="10.00">+</text>
<text text-anchor="start" x="231.5" y="-379" font-family="Helvetica,sans-Serif" font-size="10.00">m_topics</text>
<text text-anchor="start" x="218.5" y="-364" font-family="Helvetica,sans-Serif" font-size="10.00">+</text>
<text text-anchor="start" x="231.5" y="-364" font-family="Helvetica,sans-Serif" font-size="10.00">CSVLogger()</text>
<text text-anchor="start" x="218.5" y="-349" font-family="Helvetica,sans-Serif" font-size="10.00">+</text>
<text text-anchor="start" x="231.5" y="-349" font-family="Helvetica,sans-Serif" font-size="10.00">logFile()</text>
<polygon fill="#666666" stroke="#666666" points="214.5,-389 214.5,-389 296.5,-389 296.5,-389 214.5,-389"/>
<polygon fill="#666666" stroke="#666666" points="214.5,-374 214.5,-374 229.5,-374 229.5,-374 214.5,-374"/>
<polygon fill="#666666" stroke="#666666" points="229.5,-374 229.5,-374 296.5,-374 296.5,-374 229.5,-374"/>
<polygon fill="none" stroke="#666666" points="214.5,-342 214.5,-406 296.5,-406 296.5,-342 214.5,-342"/>
</a>
</g>
</g>
<!-- Node4&#45;&gt;Node6 -->
<g id="edge7_Node000006_Node000004" class="edge">
<title>Node4&#45;&gt;Node6</title>
<g id="a_edge7_Node000006_Node000004"><a xlink:title=" ">
<path fill="none" stroke="#63b8ff" d="M207.47,-1493.7C174.83,-1474.93 130.5,-1441.19 130.5,-1396.5 130.5,-1396.5 130.5,-1396.5 130.5,-619 130.5,-528.58 136.39,-497.89 188.5,-424 195.31,-414.34 204.63,-405.85 214.16,-398.75"/>
<polygon fill="none" stroke="#63b8ff" points="205.87,-1496.82 216.31,-1498.6 209.26,-1490.7 205.87,-1496.82"/>
</a>
</g>
</g>
<!-- Node7 -->
<g id="Node000007" class="node">
<title>Node7</title>
<g id="a_Node000007"><a xlink:href="classUdpChannel.html" target="_top" xlink:title="UDP communication channel between the microcontroller and the HMI.">
<polygon fill="white" stroke="transparent" points="487,-787 352,-787 352,-453 487,-453 487,-787"/>
<text text-anchor="start" x="390" y="-775" font-family="Helvetica,sans-Serif" font-size="10.00">UdpChannel</text>
<text text-anchor="start" x="359" y="-760" font-family="Helvetica,sans-Serif" font-size="10.00">&#45;</text>
<text text-anchor="start" x="369.5" y="-760" font-family="Helvetica,sans-Serif" font-size="10.00">m_udpWorkerThread</text>
<text text-anchor="start" x="359" y="-745" font-family="Helvetica,sans-Serif" font-size="10.00">&#45;</text>
<text text-anchor="start" x="369.5" y="-745" font-family="Helvetica,sans-Serif" font-size="10.00">m_udpSocket</text>
<text text-anchor="start" x="359" y="-730" font-family="Helvetica,sans-Serif" font-size="10.00">&#45;</text>
<text text-anchor="start" x="369.5" y="-730" font-family="Helvetica,sans-Serif" font-size="10.00">m_remoteAddr</text>
<text text-anchor="start" x="359" y="-715" font-family="Helvetica,sans-Serif" font-size="10.00">&#45;</text>
<text text-anchor="start" x="369.5" y="-715" font-family="Helvetica,sans-Serif" font-size="10.00">m_remotePort</text>
<text text-anchor="start" x="359" y="-700" font-family="Helvetica,sans-Serif" font-size="10.00">&#45;</text>
<text text-anchor="start" x="369.5" y="-700" font-family="Helvetica,sans-Serif" font-size="10.00">m_localAddr</text>
<text text-anchor="start" x="359" y="-685" font-family="Helvetica,sans-Serif" font-size="10.00">&#45;</text>
<text text-anchor="start" x="369.5" y="-685" font-family="Helvetica,sans-Serif" font-size="10.00">m_localPort</text>
<text text-anchor="start" x="359" y="-670" font-family="Helvetica,sans-Serif" font-size="10.00">&#45;</text>
<text text-anchor="start" x="369.5" y="-670" font-family="Helvetica,sans-Serif" font-size="10.00">m_lastRefresh</text>
<text text-anchor="start" x="359" y="-655" font-family="Helvetica,sans-Serif" font-size="10.00">&#45;</text>
<text text-anchor="start" x="369.5" y="-655" font-family="Helvetica,sans-Serif" font-size="10.00">m_periodOfRefresh</text>
<text text-anchor="start" x="359" y="-640" font-family="Helvetica,sans-Serif" font-size="10.00">&#45;</text>
<text text-anchor="start" x="369.5" y="-640" font-family="Helvetica,sans-Serif" font-size="10.00">m_running</text>
<text text-anchor="start" x="356.5" y="-625" font-family="Helvetica,sans-Serif" font-size="10.00">+</text>
<text text-anchor="start" x="369.5" y="-625" font-family="Helvetica,sans-Serif" font-size="10.00">UdpChannel()</text>
<text text-anchor="start" x="356.5" y="-610" font-family="Helvetica,sans-Serif" font-size="10.00">+</text>
<text text-anchor="start" x="369.5" y="-610" font-family="Helvetica,sans-Serif" font-size="10.00">~UdpChannel()</text>
<text text-anchor="start" x="356.5" y="-595" font-family="Helvetica,sans-Serif" font-size="10.00">+</text>
<text text-anchor="start" x="369.5" y="-595" font-family="Helvetica,sans-Serif" font-size="10.00">startEndpoint()</text>
<text text-anchor="start" x="356.5" y="-580" font-family="Helvetica,sans-Serif" font-size="10.00">+</text>
<text text-anchor="start" x="369.5" y="-580" font-family="Helvetica,sans-Serif" font-size="10.00">stopEndpoint()</text>
<text text-anchor="start" x="356.5" y="-565" font-family="Helvetica,sans-Serif" font-size="10.00">+</text>
<text text-anchor="start" x="369.5" y="-565" font-family="Helvetica,sans-Serif" font-size="10.00">sendData()</text>
<text text-anchor="start" x="356.5" y="-550" font-family="Helvetica,sans-Serif" font-size="10.00">+</text>
<text text-anchor="start" x="369.5" y="-550" font-family="Helvetica,sans-Serif" font-size="10.00">running()</text>
<text text-anchor="start" x="356.5" y="-535" font-family="Helvetica,sans-Serif" font-size="10.00">+</text>
<text text-anchor="start" x="369.5" y="-535" font-family="Helvetica,sans-Serif" font-size="10.00">remoteAddr()</text>
<text text-anchor="start" x="356.5" y="-520" font-family="Helvetica,sans-Serif" font-size="10.00">+</text>
<text text-anchor="start" x="369.5" y="-520" font-family="Helvetica,sans-Serif" font-size="10.00">remotePort()</text>
<text text-anchor="start" x="356.5" y="-505" font-family="Helvetica,sans-Serif" font-size="10.00">+</text>
<text text-anchor="start" x="369.5" y="-505" font-family="Helvetica,sans-Serif" font-size="10.00">localAddr()</text>
<text text-anchor="start" x="356.5" y="-490" font-family="Helvetica,sans-Serif" font-size="10.00">+</text>
<text text-anchor="start" x="369.5" y="-490" font-family="Helvetica,sans-Serif" font-size="10.00">localPort()</text>
<text text-anchor="start" x="369.5" y="-475" font-family="Helvetica,sans-Serif" font-size="10.00">and 6 more...</text>
<text text-anchor="start" x="356.5" y="-460" font-family="Helvetica,sans-Serif" font-size="10.00">+</text>
<text text-anchor="start" x="369.5" y="-460" font-family="Helvetica,sans-Serif" font-size="10.00">onDatagramReceived()</text>
<polygon fill="#666666" stroke="#666666" points="352.5,-770 352.5,-770 487.5,-770 487.5,-770 352.5,-770"/>
<polygon fill="#666666" stroke="#666666" points="352.5,-635 352.5,-635 367.5,-635 367.5,-635 352.5,-635"/>
<polygon fill="#666666" stroke="#666666" points="367.5,-635 367.5,-635 487.5,-635 487.5,-635 367.5,-635"/>
<polygon fill="none" stroke="#666666" points="352,-453 352,-787 487,-787 487,-453 352,-453"/>
</a>
</g>
</g>
<!-- Node4&#45;&gt;Node7 -->
<g id="edge9_Node000007_Node000004" class="edge">
<title>Node4&#45;&gt;Node7</title>
<g id="a_edge9_Node000007_Node000004"><a xlink:title=" ">
<path fill="none" stroke="#63b8ff" d="M276.73,-1507.83C373.03,-1499.59 633.5,-1470.45 633.5,-1396.5 633.5,-1396.5 633.5,-1396.5 633.5,-895 633.5,-798.43 549.91,-715.54 487.21,-666.95"/>
<polygon fill="none" stroke="#63b8ff" points="276.29,-1504.36 266.62,-1508.68 276.87,-1511.33 276.29,-1504.36"/>
</a>
</g>
</g>
<!-- Node8 -->
<g id="Node000008" class="node">
<title>Node8</title>
<g id="a_Node000008"><a xlink:href="classUdpWorker.html" target="_top" xlink:title="UDP socket worker running on a dedicated thread.">
<polygon fill="white" stroke="transparent" points="428.5,-958 268.5,-958 268.5,-834 428.5,-834 428.5,-958"/>
<text text-anchor="start" x="321.5" y="-946" font-family="Helvetica,sans-Serif" font-size="10.00">UdpWorker</text>
<text text-anchor="start" x="275" y="-931" font-family="Helvetica,sans-Serif" font-size="10.00">&#45;</text>
<text text-anchor="start" x="285.5" y="-931" font-family="Helvetica,sans-Serif" font-size="10.00">socket</text>
<text text-anchor="start" x="275" y="-916" font-family="Helvetica,sans-Serif" font-size="10.00">&#45;</text>
<text text-anchor="start" x="285.5" y="-916" font-family="Helvetica,sans-Serif" font-size="10.00">m_lastFrameSend</text>
<text text-anchor="start" x="272.5" y="-901" font-family="Helvetica,sans-Serif" font-size="10.00">+</text>
<text text-anchor="start" x="285.5" y="-901" font-family="Helvetica,sans-Serif" font-size="10.00">UdpWorker()</text>
<text text-anchor="start" x="272.5" y="-886" font-family="Helvetica,sans-Serif" font-size="10.00">+</text>
<text text-anchor="start" x="285.5" y="-886" font-family="Helvetica,sans-Serif" font-size="10.00">start()</text>
<text text-anchor="start" x="272.5" y="-871" font-family="Helvetica,sans-Serif" font-size="10.00">+</text>
<text text-anchor="start" x="285.5" y="-871" font-family="Helvetica,sans-Serif" font-size="10.00">stop()</text>
<text text-anchor="start" x="275" y="-856" font-family="Helvetica,sans-Serif" font-size="10.00">&#45;</text>
<text text-anchor="start" x="285.5" y="-856" font-family="Helvetica,sans-Serif" font-size="10.00">decimate()</text>
<text text-anchor="start" x="275" y="-841" font-family="Helvetica,sans-Serif" font-size="10.00">&#45;</text>
<text text-anchor="start" x="285.5" y="-841" font-family="Helvetica,sans-Serif" font-size="10.00">processPendingDatagrams()</text>
<polygon fill="#666666" stroke="#666666" points="268.5,-941 268.5,-941 428.5,-941 428.5,-941 268.5,-941"/>
<polygon fill="#666666" stroke="#666666" points="268.5,-911 268.5,-911 283.5,-911 283.5,-911 268.5,-911"/>
<polygon fill="#666666" stroke="#666666" points="283.5,-911 283.5,-911 428.5,-911 428.5,-911 283.5,-911"/>
<polygon fill="none" stroke="#666666" points="268.5,-834 268.5,-958 428.5,-958 428.5,-834 268.5,-834"/>
</a>
</g>
</g>
<!-- Node4&#45;&gt;Node8 -->
<g id="edge11_Node000008_Node000004" class="edge">
<title>Node4&#45;&gt;Node8</title>
<g id="a_edge11_Node000008_Node000004"><a xlink:title=" ">
<path fill="none" stroke="#63b8ff" d="M246.41,-1476.68C261.79,-1371.01 308.59,-1051.26 318.5,-1005 321.78,-989.68 325.97,-973.32 330.16,-958.08"/>
<polygon fill="none" stroke="#63b8ff" points="242.92,-1476.39 244.94,-1486.79 249.84,-1477.4 242.92,-1476.39"/>
</a>
</g>
</g>
<!-- Node10 -->
<g id="Node000010" class="node">
<title>Node10</title>
<g id="a_Node000010"><a xlink:href="classLogger.html" target="_top" xlink:title="Tool that provide the ability to display and log errors and debug messages.">
<polygon fill="white" stroke="transparent" points="415.5,-1450 347.5,-1450 347.5,-1341 415.5,-1341 415.5,-1450"/>
<text text-anchor="start" x="364.5" y="-1437.5" font-family="Helvetica,sans-Serif" font-size="10.00">Logger</text>
<text text-anchor="start" x="379.5" y="-1422.5" font-family="Helvetica,sans-Serif" font-size="10.00"> </text>
<text text-anchor="start" x="351.5" y="-1407.5" font-family="Helvetica,sans-Serif" font-size="10.00">+</text>
<text text-anchor="start" x="364.5" y="-1407.5" font-family="Helvetica,sans-Serif" font-size="10.00">Logger()</text>
<text text-anchor="start" x="351.5" y="-1392.5" font-family="Helvetica,sans-Serif" font-size="10.00">+</text>
<text text-anchor="start" x="364.5" y="-1392.5" font-family="Helvetica,sans-Serif" font-size="10.00">log()</text>
<text text-anchor="start" x="351.5" y="-1377.5" font-family="Helvetica,sans-Serif" font-size="10.00">+</text>
<text text-anchor="start" x="364.5" y="-1377.5" font-family="Helvetica,sans-Serif" font-size="10.00">debug()</text>
<text text-anchor="start" x="351.5" y="-1362.5" font-family="Helvetica,sans-Serif" font-size="10.00">+</text>
<text text-anchor="start" x="364.5" y="-1362.5" font-family="Helvetica,sans-Serif" font-size="10.00">error()</text>
<text text-anchor="start" x="351.5" y="-1347.5" font-family="Helvetica,sans-Serif" font-size="10.00">+</text>
<text text-anchor="start" x="364.5" y="-1347.5" font-family="Helvetica,sans-Serif" font-size="10.00">warning()</text>
<polygon fill="#666666" stroke="#666666" points="347.5,-1432.5 347.5,-1432.5 415.5,-1432.5 415.5,-1432.5 347.5,-1432.5"/>
<polygon fill="#666666" stroke="#666666" points="347.5,-1417.5 347.5,-1417.5 415.5,-1417.5 415.5,-1417.5 347.5,-1417.5"/>
<polygon fill="none" stroke="#666666" points="347.5,-1341 347.5,-1450 415.5,-1450 415.5,-1341 347.5,-1341"/>
</a>
</g>
</g>
<!-- Node4&#45;&gt;Node10 -->
<g id="edge14_Node000010_Node000004" class="edge">
<title>Node4&#45;&gt;Node10</title>
<g id="a_edge14_Node000010_Node000004"><a xlink:title=" ">
<path fill="none" stroke="#63b8ff" d="M274.3,-1483.79C296.31,-1465.87 325.23,-1442.32 347.48,-1424.2"/>
<polygon fill="none" stroke="#63b8ff" points="272.07,-1481.09 266.53,-1490.12 276.49,-1486.52 272.07,-1481.09"/>
</a>
</g>
</g>
<!-- Node5&#45;&gt;Node3 -->
<g id="edge4_Node000003_Node000005" class="edge">
<title>Node5&#45;&gt;Node3</title>
<g id="a_edge4_Node000003_Node000005"><a xlink:title=" ">
<path fill="none" stroke="#63b8ff" d="M203.47,-856.23C200.66,-750.69 192.82,-456.25 188.86,-307.46"/>
<polygon fill="none" stroke="#63b8ff" points="188.85,-307.26 184.69,-301.37 188.53,-295.26 192.69,-301.16 188.85,-307.26"/>
</a>
</g>
<text text-anchor="middle" x="229.5" y="-427" font-family="Helvetica,sans-Serif" font-size="10.00" fill="grey"> &#45;m_fileSystem</text>
</g>
<!-- Node5&#45;&gt;Node7 -->
<g id="edge16_Node000007_Node000005" class="edge">
<title>Node5&#45;&gt;Node7</title>
<g id="a_edge16_Node000007_Node000005"><a xlink:title=" ">
<path fill="none" stroke="#63b8ff" d="M234.85,-856.32C263.23,-820.16 306.76,-764.67 344.44,-716.66"/>
<polygon fill="none" stroke="#63b8ff" points="344.48,-716.61 345.04,-709.42 351.89,-707.17 351.33,-714.36 344.48,-716.61"/>
</a>
</g>
<text text-anchor="middle" x="311.5" y="-808" font-family="Helvetica,sans-Serif" font-size="10.00" fill="grey"> &#45;m_fileSystem</text>
</g>
<!-- Node6&#45;&gt;Node3 -->
<g id="edge6_Node000003_Node000006" class="edge">
<title>Node6&#45;&gt;Node3</title>
<g id="a_edge6_Node000003_Node000006"><a xlink:title=" ">
<path fill="none" stroke="#63b8ff" d="M241.54,-341.84C236.82,-331.3 231.29,-318.96 225.59,-306.25"/>
<polygon fill="none" stroke="#63b8ff" points="225.46,-305.96 219.36,-302.12 220.56,-295.01 226.66,-298.85 225.46,-305.96"/>
</a>
</g>
<text text-anchor="middle" x="269.5" y="-316" font-family="Helvetica,sans-Serif" font-size="10.00" fill="grey"> &#45;m_csvLogger</text>
</g>
<!-- Node7&#45;&gt;Node6 -->
<g id="edge8_Node000006_Node000007" class="edge">
<title>Node7&#45;&gt;Node6</title>
<g id="a_edge8_Node000006_Node000007"><a xlink:title=" ">
<path fill="none" stroke="#63b8ff" d="M351.85,-518.35C327.83,-482.61 302.11,-444.35 283.3,-416.36"/>
<polygon fill="none" stroke="#63b8ff" points="283.14,-416.12 276.47,-413.37 276.44,-406.16 283.11,-408.9 283.14,-416.12"/>
</a>
</g>
<text text-anchor="middle" x="335.5" y="-427" font-family="Helvetica,sans-Serif" font-size="10.00" fill="grey"> &#45;m_udpChannel</text>
</g>
<!-- Node8&#45;&gt;Node7 -->
<g id="edge10_Node000007_Node000008" class="edge">
<title>Node8&#45;&gt;Node7</title>
<g id="a_edge10_Node000007_Node000008"><a xlink:title=" ">
<path fill="none" stroke="#63b8ff" d="M364.35,-833.85C367.15,-823.03 370.19,-811.3 373.36,-799.08"/>
<polygon fill="none" stroke="#63b8ff" points="373.42,-798.85 371.05,-792.03 376.43,-787.23 378.79,-794.04 373.42,-798.85"/>
</a>
</g>
<text text-anchor="middle" x="407.5" y="-808" font-family="Helvetica,sans-Serif" font-size="10.00" fill="grey"> &#45;m_udpWorker</text>
</g>
<!-- Node9 -->
<g id="Node000009" class="node">
<title>Node9</title>
<g id="a_Node000009"><a xlink:href="classUdpLogger.html" target="_top" xlink:title="High&#45;frequency binary logger for UDP telemetry frames.">
<polygon fill="white" stroke="transparent" points="531,-1294 398,-1294 398,-1005 531,-1005 531,-1294"/>
<text text-anchor="start" x="438.5" y="-1281.5" font-family="Helvetica,sans-Serif" font-size="10.00">UdpLogger</text>
<text text-anchor="start" x="405" y="-1266.5" font-family="Helvetica,sans-Serif" font-size="10.00">&#45;</text>
<text text-anchor="start" x="415.5" y="-1266.5" font-family="Helvetica,sans-Serif" font-size="10.00">m_writer</text>
<text text-anchor="start" x="405" y="-1251.5" font-family="Helvetica,sans-Serif" font-size="10.00">&#45;</text>
<text text-anchor="start" x="415.5" y="-1251.5" font-family="Helvetica,sans-Serif" font-size="10.00">m_ringBuffer</text>
<text text-anchor="start" x="405" y="-1236.5" font-family="Helvetica,sans-Serif" font-size="10.00">&#45;</text>
<text text-anchor="start" x="415.5" y="-1236.5" font-family="Helvetica,sans-Serif" font-size="10.00">m_running</text>
<text text-anchor="start" x="405" y="-1221.5" font-family="Helvetica,sans-Serif" font-size="10.00">&#45;</text>
<text text-anchor="start" x="415.5" y="-1221.5" font-family="Helvetica,sans-Serif" font-size="10.00">m_writerThread</text>
<text text-anchor="start" x="405" y="-1206.5" font-family="Helvetica,sans-Serif" font-size="10.00">&#45;</text>
<text text-anchor="start" x="415.5" y="-1206.5" font-family="Helvetica,sans-Serif" font-size="10.00">m_logDirPath</text>
<text text-anchor="start" x="405" y="-1191.5" font-family="Helvetica,sans-Serif" font-size="10.00">&#45;</text>
<text text-anchor="start" x="415.5" y="-1191.5" font-family="Helvetica,sans-Serif" font-size="10.00">MAX_FRAME_SIZE</text>
<text text-anchor="start" x="402.5" y="-1176.5" font-family="Helvetica,sans-Serif" font-size="10.00">+</text>
<text text-anchor="start" x="415.5" y="-1176.5" font-family="Helvetica,sans-Serif" font-size="10.00">UdpLogger()</text>
<text text-anchor="start" x="402.5" y="-1161.5" font-family="Helvetica,sans-Serif" font-size="10.00">+</text>
<text text-anchor="start" x="415.5" y="-1161.5" font-family="Helvetica,sans-Serif" font-size="10.00">~UdpLogger()</text>
<text text-anchor="start" x="402.5" y="-1146.5" font-family="Helvetica,sans-Serif" font-size="10.00">+</text>
<text text-anchor="start" x="415.5" y="-1146.5" font-family="Helvetica,sans-Serif" font-size="10.00">UdpLogger()</text>
<text text-anchor="start" x="402.5" y="-1131.5" font-family="Helvetica,sans-Serif" font-size="10.00">+</text>
<text text-anchor="start" x="415.5" y="-1131.5" font-family="Helvetica,sans-Serif" font-size="10.00">operator=()</text>
<text text-anchor="start" x="402.5" y="-1116.5" font-family="Helvetica,sans-Serif" font-size="10.00">+</text>
<text text-anchor="start" x="415.5" y="-1116.5" font-family="Helvetica,sans-Serif" font-size="10.00">UdpLogger()</text>
<text text-anchor="start" x="402.5" y="-1101.5" font-family="Helvetica,sans-Serif" font-size="10.00">+</text>
<text text-anchor="start" x="415.5" y="-1101.5" font-family="Helvetica,sans-Serif" font-size="10.00">operator=()</text>
<text text-anchor="start" x="402.5" y="-1086.5" font-family="Helvetica,sans-Serif" font-size="10.00">+</text>
<text text-anchor="start" x="415.5" y="-1086.5" font-family="Helvetica,sans-Serif" font-size="10.00">log()</text>
<text text-anchor="start" x="402.5" y="-1071.5" font-family="Helvetica,sans-Serif" font-size="10.00">+</text>
<text text-anchor="start" x="415.5" y="-1071.5" font-family="Helvetica,sans-Serif" font-size="10.00">cyclesCount()</text>
<text text-anchor="start" x="402.5" y="-1056.5" font-family="Helvetica,sans-Serif" font-size="10.00">+</text>
<text text-anchor="start" x="415.5" y="-1056.5" font-family="Helvetica,sans-Serif" font-size="10.00">droppedFramesCount()</text>
<text text-anchor="start" x="402.5" y="-1041.5" font-family="Helvetica,sans-Serif" font-size="10.00">+</text>
<text text-anchor="start" x="415.5" y="-1041.5" font-family="Helvetica,sans-Serif" font-size="10.00">start()</text>
<text text-anchor="start" x="402.5" y="-1026.5" font-family="Helvetica,sans-Serif" font-size="10.00">+</text>
<text text-anchor="start" x="415.5" y="-1026.5" font-family="Helvetica,sans-Serif" font-size="10.00">stop()</text>
<text text-anchor="start" x="405" y="-1011.5" font-family="Helvetica,sans-Serif" font-size="10.00">&#45;</text>
<text text-anchor="start" x="415.5" y="-1011.5" font-family="Helvetica,sans-Serif" font-size="10.00">writerLoop()</text>
<polygon fill="#666666" stroke="#666666" points="398.5,-1276.5 398.5,-1276.5 531.5,-1276.5 531.5,-1276.5 398.5,-1276.5"/>
<polygon fill="#666666" stroke="#666666" points="398.5,-1186.5 398.5,-1186.5 413.5,-1186.5 413.5,-1186.5 398.5,-1186.5"/>
<polygon fill="#666666" stroke="#666666" points="413.5,-1186.5 413.5,-1186.5 531.5,-1186.5 531.5,-1186.5 413.5,-1186.5"/>
<polygon fill="none" stroke="#666666" points="398,-1005 398,-1294 531,-1294 531,-1005 398,-1005"/>
</a>
</g>
</g>
<!-- Node9&#45;&gt;Node7 -->
<g id="edge18_Node000007_Node000009" class="edge">
<title>Node9&#45;&gt;Node7</title>
<g id="a_edge18_Node000007_Node000009"><a xlink:title=" ">
<path fill="none" stroke="#63b8ff" d="M461.33,-1004.93C459.06,-943.27 455.16,-870.48 448.5,-805 448.32,-803.19 448.13,-801.37 447.93,-799.54"/>
<polygon fill="none" stroke="#63b8ff" points="447.9,-799.31 443.26,-793.79 446.56,-787.38 451.21,-792.9 447.9,-799.31"/>
</a>
</g>
<text text-anchor="middle" x="495" y="-893.5" font-family="Helvetica,sans-Serif" font-size="10.00" fill="grey"> &#45;m_udpLogger</text>
</g>
<!-- Node9&#45;&gt;Node8 -->
<g id="edge12_Node000008_Node000009" class="edge">
<title>Node9&#45;&gt;Node8</title>
<g id="a_edge12_Node000008_Node000009"><a xlink:title=" ">
<path fill="none" stroke="#63b8ff" d="M397.99,-1026.89C391.45,-1013.56 385.16,-1000.09 379.5,-987 377.1,-981.45 374.76,-975.66 372.5,-969.79"/>
<polygon fill="none" stroke="#63b8ff" points="372.47,-969.72 366.62,-965.5 368.27,-958.48 374.12,-962.7 372.47,-969.72"/>
</a>
</g>
<text text-anchor="middle" x="415" y="-979" font-family="Helvetica,sans-Serif" font-size="10.00" fill="grey"> &#45;m_udplogger</text>
</g>
<!-- Node10&#45;&gt;Node7 -->
<g id="edge17_Node000007_Node000010" class="edge">
<title>Node10&#45;&gt;Node7</title>
<g id="a_edge17_Node000007_Node000010"><a xlink:title=" ">
<path fill="none" stroke="#63b8ff" d="M415.56,-1384.07C453.82,-1370.32 514.03,-1342.05 540.5,-1294 589.83,-1204.46 562.17,-932.69 535.5,-834 526.12,-799.31 510.1,-764.07 492.92,-732.51"/>
<polygon fill="none" stroke="#63b8ff" points="492.88,-732.44 486.47,-729.14 487.05,-721.95 493.46,-725.25 492.88,-732.44"/>
</a>
</g>
<text text-anchor="middle" x="586" y="-979" font-family="Helvetica,sans-Serif" font-size="10.00" fill="grey"> &#45;m_logger</text>
</g>
<!-- Node10&#45;&gt;Node8 -->
<g id="edge15_Node000008_Node000010" class="edge">
<title>Node10&#45;&gt;Node8</title>
<g id="a_edge15_Node000008_Node000010"><a xlink:title=" ">
<path fill="none" stroke="#63b8ff" d="M352.52,-1340.89C345.93,-1326.12 339.88,-1309.8 336.5,-1294 312.76,-1182.88 324.55,-1050.31 335.97,-969.96"/>
<polygon fill="none" stroke="#63b8ff" points="335.99,-969.88 332.9,-963.36 337.72,-958.01 340.81,-964.52 335.99,-969.88"/>
</a>
</g>
<text text-anchor="middle" x="363" y="-1147" font-family="Helvetica,sans-Serif" font-size="10.00" fill="grey"> &#45;m_logger</text>
</g>
<!-- Node10&#45;&gt;Node9 -->
<g id="edge13_Node000009_Node000010" class="edge">
<title>Node10&#45;&gt;Node9</title>
<g id="a_edge13_Node000009_Node000010"><a xlink:title=" ">
<path fill="none" stroke="#63b8ff" d="M399.71,-1340.95C403.4,-1330.11 407.46,-1318.19 411.68,-1305.78"/>
<polygon fill="none" stroke="#63b8ff" points="411.74,-1305.61 409.88,-1298.65 415.6,-1294.25 417.45,-1301.22 411.74,-1305.61"/>
</a>
</g>
<text text-anchor="middle" x="434" y="-1315" font-family="Helvetica,sans-Serif" font-size="10.00" fill="grey"> &#45;m_logger</text>
</g>
</g>
</svg>
