<?xml version="1.0" encoding="UTF-8" standalone="no"?>
<!DOCTYPE svg PUBLIC "-//W3C//DTD SVG 1.1//EN"
 "http://www.w3.org/Graphics/SVG/1.1/DTD/svg11.dtd">
<!-- Generated by graphviz version 2.43.0 (0)
 -->
<!-- Title: TestBenchModel::getStatus Pages: 1 -->
<svg width="702pt" height="172pt"
 viewBox="0.00 0.00 702.00 171.50" xmlns="http://www.w3.org/2000/svg" xmlns:xlink="http://www.w3.org/1999/xlink">
<g id="graph0" class="graph" transform="scale(1 1) rotate(0) translate(4 167.5)">
<title>TestBenchModel::getStatus</title>
<!-- Node1 -->
<g id="Node000001" class="node">
<title>Node1</title>
<g id="a_Node000001"><a xlink:title=" ">
<polygon fill="#999999" stroke="#666666" points="694,-96.5 545,-96.5 545,-77.5 694,-77.5 694,-96.5"/>
<text text-anchor="middle" x="619.5" y="-84.5" font-family="Helvetica,sans-Serif" font-size="10.00">TestBenchModel::getStatus</text>
</a>
</g>
</g>
<!-- Node2 -->
<g id="Node000002" class="node">
<title>Node2</title>
<g id="a_Node000002"><a xlink:href="classPlotViewModel.html#aa174ada724c54f97d5b902de2ea49fc7" target="_top" xlink:title=" ">
<polygon fill="white" stroke="#666666" points="503,-163.5 365,-163.5 365,-144.5 503,-144.5 503,-163.5"/>
<text text-anchor="middle" x="434" y="-151.5" font-family="Helvetica,sans-Serif" font-size="10.00">PlotViewModel::getValue</text>
</a>
</g>
</g>
<!-- Node1&#45;&gt;Node2 -->
<g id="edge1_Node000001_Node000002" class="edge">
<title>Node1&#45;&gt;Node2</title>
<g id="a_edge1_Node000001_Node000002"><a xlink:title=" ">
<path fill="none" stroke="#63b8ff" d="M590.06,-100.98C568.25,-111.33 537.2,-125.27 509,-135 498.84,-138.5 487.71,-141.69 477.22,-144.42"/>
<polygon fill="#63b8ff" stroke="#63b8ff" points="591.6,-104.13 599.1,-96.65 588.57,-97.82 591.6,-104.13"/>
</a>
</g>
</g>
<!-- Node5 -->
<g id="Node000005" class="node">
<title>Node5</title>
<g id="a_Node000005"><a xlink:href="classSensorValueIndicatorViewModel.html#a52a37b6aa8c8b97cbeb288567d4ed2ae" target="_top" xlink:title=" ">
<polygon fill="white" stroke="#666666" points="505.5,-126 362.5,-126 362.5,-96 505.5,-96 505.5,-126"/>
<text text-anchor="start" x="370.5" y="-114" font-family="Helvetica,sans-Serif" font-size="10.00">SensorValueIndicatorView</text>
<text text-anchor="middle" x="434" y="-103" font-family="Helvetica,sans-Serif" font-size="10.00">Model::sensorValue</text>
</a>
</g>
</g>
<!-- Node1&#45;&gt;Node5 -->
<g id="edge4_Node000001_Node000005" class="edge">
<title>Node1&#45;&gt;Node5</title>
<g id="a_edge4_Node000001_Node000005"><a xlink:title=" ">
<path fill="none" stroke="#63b8ff" d="M535.72,-97.83C525.66,-99.14 515.46,-100.48 505.6,-101.77"/>
<polygon fill="#63b8ff" stroke="#63b8ff" points="536.25,-101.29 545.71,-96.52 535.34,-94.35 536.25,-101.29"/>
</a>
</g>
</g>
<!-- Node8 -->
<g id="Node000008" class="node">
<title>Node8</title>
<g id="a_Node000008"><a xlink:href="classTankPressureControlerViewModel.html#acaab29decfb579b2db988728d55e1a0b" target="_top" xlink:title=" ">
<polygon fill="white" stroke="#666666" points="509,-78 359,-78 359,-48 509,-48 509,-78"/>
<text text-anchor="start" x="367" y="-66" font-family="Helvetica,sans-Serif" font-size="10.00">TankPressureControlerView</text>
<text text-anchor="middle" x="434" y="-55" font-family="Helvetica,sans-Serif" font-size="10.00">Model::sensorValue</text>
</a>
</g>
</g>
<!-- Node1&#45;&gt;Node8 -->
<g id="edge7_Node000001_Node000008" class="edge">
<title>Node1&#45;&gt;Node8</title>
<g id="a_edge7_Node000001_Node000008"><a xlink:title=" ">
<path fill="none" stroke="#63b8ff" d="M535.78,-76.18C526.92,-75.02 517.95,-73.85 509.2,-72.7"/>
<polygon fill="#63b8ff" stroke="#63b8ff" points="535.34,-79.65 545.71,-77.48 536.25,-72.71 535.34,-79.65"/>
</a>
</g>
</g>
<!-- Node9 -->
<g id="Node000009" class="node">
<title>Node9</title>
<g id="a_Node000009"><a xlink:href="classActuatorSwitchViewModel.html#afca1d249f6cd2a0a4ce5833d753b9420" target="_top" xlink:title=" ">
<polygon fill="white" stroke="#666666" points="506,-30 362,-30 362,0 506,0 506,-30"/>
<text text-anchor="start" x="370" y="-18" font-family="Helvetica,sans-Serif" font-size="10.00">ActuatorSwitchViewModel</text>
<text text-anchor="middle" x="434" y="-7" font-family="Helvetica,sans-Serif" font-size="10.00">::updateStatus</text>
</a>
</g>
</g>
<!-- Node1&#45;&gt;Node9 -->
<g id="edge8_Node000001_Node000009" class="edge">
<title>Node1&#45;&gt;Node9</title>
<g id="a_edge8_Node000001_Node000009"><a xlink:title=" ">
<path fill="none" stroke="#63b8ff" d="M589.08,-73.15C567.22,-63.1 536.55,-49.48 509,-39 500.92,-35.93 492.26,-32.89 483.8,-30.07"/>
<polygon fill="#63b8ff" stroke="#63b8ff" points="587.62,-76.33 598.17,-77.36 590.56,-69.98 587.62,-76.33"/>
</a>
</g>
</g>
<!-- Node3 -->
<g id="Node000003" class="node">
<title>Node3</title>
<g id="a_Node000003"><a xlink:href="classPlot.html#a74f12fae74e90c87c72cab9f0d2da28d" target="_top" xlink:title=" ">
<polygon fill="white" stroke="#666666" points="323,-163.5 161,-163.5 161,-144.5 323,-144.5 323,-163.5"/>
<text text-anchor="middle" x="242" y="-151.5" font-family="Helvetica,sans-Serif" font-size="10.00">Plot::onCurvesValuesChanged</text>
</a>
</g>
</g>
<!-- Node2&#45;&gt;Node3 -->
<g id="edge2_Node000002_Node000003" class="edge">
<title>Node2&#45;&gt;Node3</title>
<g id="a_edge2_Node000002_Node000003"><a xlink:title=" ">
<path fill="none" stroke="#63b8ff" d="M354.67,-154C344.29,-154 333.63,-154 323.22,-154"/>
<polygon fill="#63b8ff" stroke="#63b8ff" points="354.94,-157.5 364.94,-154 354.94,-150.5 354.94,-157.5"/>
</a>
</g>
</g>
<!-- Node4 -->
<g id="Node000004" class="node">
<title>Node4</title>
<g id="a_Node000004"><a xlink:href="classPlot.html#a5b4b38ebab6fc69bd007d591c2bc61e3" target="_top" xlink:title=" ">
<polygon fill="white" stroke="#666666" points="92.5,-163.5 32.5,-163.5 32.5,-144.5 92.5,-144.5 92.5,-163.5"/>
<text text-anchor="middle" x="62.5" y="-151.5" font-family="Helvetica,sans-Serif" font-size="10.00">Plot::Plot</text>
</a>
</g>
</g>
<!-- Node3&#45;&gt;Node4 -->
<g id="edge3_Node000003_Node000004" class="edge">
<title>Node3&#45;&gt;Node4</title>
<g id="a_edge3_Node000003_Node000004"><a xlink:title=" ">
<path fill="none" stroke="#63b8ff" d="M150.56,-154C129.63,-154 108.83,-154 92.81,-154"/>
<polygon fill="#63b8ff" stroke="#63b8ff" points="150.82,-157.5 160.82,-154 150.82,-150.5 150.82,-157.5"/>
</a>
</g>
</g>
<!-- Node6 -->
<g id="Node000006" class="node">
<title>Node6</title>
<g id="a_Node000006"><a xlink:href="classSensorValueIndicator.html#a4f6a6870b71970059f29bf2f0d807f96" target="_top" xlink:title=" ">
<polygon fill="white" stroke="#666666" points="301.5,-126 182.5,-126 182.5,-96 301.5,-96 301.5,-126"/>
<text text-anchor="start" x="190.5" y="-114" font-family="Helvetica,sans-Serif" font-size="10.00">SensorValueIndicator</text>
<text text-anchor="middle" x="242" y="-103" font-family="Helvetica,sans-Serif" font-size="10.00">::onValueChanged</text>
</a>
</g>
</g>
<!-- Node5&#45;&gt;Node6 -->
<g id="edge5_Node000005_Node000006" class="edge">
<title>Node5&#45;&gt;Node6</title>
<g id="a_edge5_Node000005_Node000006"><a xlink:title=" ">
<path fill="none" stroke="#63b8ff" d="M351.85,-111C335,-111 317.55,-111 301.69,-111"/>
<polygon fill="#63b8ff" stroke="#63b8ff" points="352.25,-114.5 362.25,-111 352.25,-107.5 352.25,-114.5"/>
</a>
</g>
</g>
<!-- Node7 -->
<g id="Node000007" class="node">
<title>Node7</title>
<g id="a_Node000007"><a xlink:href="classSensorValueIndicator.html#a7ae94a59dd425bf5e9c687ea422be82e" target="_top" xlink:title=" ">
<polygon fill="white" stroke="#666666" points="125,-126 0,-126 0,-96 125,-96 125,-126"/>
<text text-anchor="start" x="8" y="-114" font-family="Helvetica,sans-Serif" font-size="10.00">SensorValueIndicator</text>
<text text-anchor="middle" x="62.5" y="-103" font-family="Helvetica,sans-Serif" font-size="10.00">::SensorValueIndicator</text>
</a>
</g>
</g>
<!-- Node6&#45;&gt;Node7 -->
<g id="edge6_Node000006_Node000007" class="edge">
<title>Node6&#45;&gt;Node7</title>
<g id="a_edge6_Node000006_Node000007"><a xlink:title=" ">
<path fill="none" stroke="#63b8ff" d="M172.31,-111C156.76,-111 140.34,-111 125.1,-111"/>
<polygon fill="#63b8ff" stroke="#63b8ff" points="172.39,-114.5 182.39,-111 172.39,-107.5 172.39,-114.5"/>
</a>
</g>
</g>
<!-- Node10 -->
<g id="Node000010" class="node">
<title>Node10</title>
<g id="a_Node000010"><a xlink:href="classActuatorSwitchViewModel.html#a1a906ea170fdf4d96d75901251c1c2a1" target="_top" xlink:title=" ">
<polygon fill="white" stroke="#666666" points="317,-30 167,-30 167,0 317,0 317,-30"/>
<text text-anchor="start" x="175" y="-18" font-family="Helvetica,sans-Serif" font-size="10.00">ActuatorSwitchViewModel</text>
<text text-anchor="middle" x="242" y="-7" font-family="Helvetica,sans-Serif" font-size="10.00">::ActuatorSwitchViewModel</text>
</a>
</g>
</g>
<!-- Node9&#45;&gt;Node10 -->
<g id="edge9_Node000009_Node000010" class="edge">
<title>Node9&#45;&gt;Node10</title>
<g id="a_edge9_Node000009_Node000010"><a xlink:title=" ">
<path fill="none" stroke="#63b8ff" d="M351.91,-15C340.36,-15 328.52,-15 317.11,-15"/>
<polygon fill="#63b8ff" stroke="#63b8ff" points="351.98,-18.5 361.98,-15 351.98,-11.5 351.98,-18.5"/>
</a>
</g>
</g>
</g>
</svg>
