<?xml version="1.0" encoding="UTF-8" standalone="no"?>
<!DOCTYPE svg PUBLIC "-//W3C//DTD SVG 1.1//EN"
 "http://www.w3.org/Graphics/SVG/1.1/DTD/svg11.dtd">
<!-- Generated by graphviz version 2.43.0 (0)
 -->
<!-- Title: EmergencyControlsViewModel::onTestAbortion Pages: 1 -->
<svg width="565pt" height="76pt"
 viewBox="0.00 0.00 565.00 75.50" xmlns="http://www.w3.org/2000/svg" xmlns:xlink="http://www.w3.org/1999/xlink">
<g id="graph0" class="graph" transform="scale(1 1) rotate(0) translate(4 71.5)">
<title>EmergencyControlsViewModel::onTestAbortion</title>
<!-- Node1 -->
<g id="Node000001" class="node">
<title>Node1</title>
<g id="a_Node000001"><a xlink:title=" ">
<polygon fill="#999999" stroke="#666666" points="166,-51 0,-51 0,-21 166,-21 166,-51"/>
<text text-anchor="start" x="8" y="-39" font-family="Helvetica,sans-Serif" font-size="10.00">EmergencyControlsViewModel</text>
<text text-anchor="middle" x="83" y="-28" font-family="Helvetica,sans-Serif" font-size="10.00">::onTestAbortion</text>
</a>
</g>
</g>
<!-- Node2 -->
<g id="Node000002" class="node">
<title>Node2</title>
<g id="a_Node000002"><a xlink:href="classUdpChannel.html#a439664ce9bf094d21d0234a1943dfc07" target="_top" xlink:title=" ">
<polygon fill="white" stroke="#666666" points="349.5,-65.5 221.5,-65.5 221.5,-46.5 349.5,-46.5 349.5,-65.5"/>
<text text-anchor="middle" x="285.5" y="-53.5" font-family="Helvetica,sans-Serif" font-size="10.00">UdpChannel::sendData</text>
</a>
</g>
</g>
<!-- Node1&#45;&gt;Node2 -->
<g id="edge1_Node000001_Node000002" class="edge">
<title>Node1&#45;&gt;Node2</title>
<g id="a_edge1_Node000001_Node000002"><a xlink:title=" ">
<path fill="none" stroke="#63b8ff" d="M166.13,-44.19C181.07,-45.68 196.56,-47.23 211.22,-48.69"/>
<polygon fill="#63b8ff" stroke="#63b8ff" points="210.92,-52.18 221.22,-49.69 211.62,-45.21 210.92,-52.18"/>
</a>
</g>
</g>
<!-- Node4 -->
<g id="Node000004" class="node">
<title>Node4</title>
<g id="a_Node000004"><a xlink:href="classTestBenchModel.html#a54c863e0fad71787463b3cca612b1ee3" target="_top" xlink:title=" ">
<polygon fill="white" stroke="#666666" points="369,-27.5 202,-27.5 202,-8.5 369,-8.5 369,-27.5"/>
<text text-anchor="middle" x="285.5" y="-15.5" font-family="Helvetica,sans-Serif" font-size="10.00">TestBenchModel::setTestStatus</text>
</a>
</g>
</g>
<!-- Node1&#45;&gt;Node4 -->
<g id="edge3_Node000001_Node000004" class="edge">
<title>Node1&#45;&gt;Node4</title>
<g id="a_edge3_Node000001_Node000004"><a xlink:title=" ">
<path fill="none" stroke="#63b8ff" d="M166.13,-28.63C174.6,-27.87 183.25,-27.09 191.83,-26.32"/>
<polygon fill="#63b8ff" stroke="#63b8ff" points="192.2,-29.8 201.85,-25.42 191.58,-22.83 192.2,-29.8"/>
</a>
</g>
</g>
<!-- Node3 -->
<g id="Node000003" class="node">
<title>Node3</title>
<g id="a_Node000003"><a xlink:href="classProtocolCodec.html#a7d9ae5526622c37b683d418fd9f800c4" target="_top" xlink:title=" ">
<polygon fill="white" stroke="#666666" points="545,-67.5 417,-67.5 417,-48.5 545,-48.5 545,-67.5"/>
<text text-anchor="middle" x="481" y="-55.5" font-family="Helvetica,sans-Serif" font-size="10.00">ProtocolCodec::encode</text>
</a>
</g>
</g>
<!-- Node2&#45;&gt;Node3 -->
<g id="edge2_Node000002_Node000003" class="edge">
<title>Node2&#45;&gt;Node3</title>
<g id="a_edge2_Node000002_Node000003"><a xlink:title=" ">
<path fill="none" stroke="#63b8ff" d="M349.59,-56.65C367.91,-56.84 388.08,-57.05 406.96,-57.25"/>
<polygon fill="#63b8ff" stroke="#63b8ff" points="406.96,-60.75 416.99,-57.35 407.03,-53.75 406.96,-60.75"/>
</a>
</g>
</g>
<!-- Node5 -->
<g id="Node000005" class="node">
<title>Node5</title>
<g id="a_Node000005"><a xlink:href="classTestBenchModel.html#a0d3f80fa37e00cdbd143c2354d28d74f" target="_top" xlink:title=" ">
<polygon fill="white" stroke="#666666" points="557,-30 405,-30 405,0 557,0 557,-30"/>
<text text-anchor="start" x="413" y="-18" font-family="Helvetica,sans-Serif" font-size="10.00">TestBenchModel::testStatus</text>
<text text-anchor="middle" x="481" y="-7" font-family="Helvetica,sans-Serif" font-size="10.00">Changed</text>
</a>
</g>
</g>
<!-- Node4&#45;&gt;Node5 -->
<g id="edge4_Node000004_Node000005" class="edge">
<title>Node4&#45;&gt;Node5</title>
<g id="a_edge4_Node000004_Node000005"><a xlink:title=" ">
<path fill="none" stroke="#63b8ff" d="M369.12,-16.72C377.52,-16.59 386.06,-16.46 394.49,-16.33"/>
<polygon fill="#63b8ff" stroke="#63b8ff" points="394.75,-19.82 404.7,-16.17 394.64,-12.82 394.75,-19.82"/>
</a>
</g>
</g>
</g>
</svg>
