<?xml version="1.0" encoding="UTF-8" standalone="no"?>
<!DOCTYPE svg PUBLIC "-//W3C//DTD SVG 1.1//EN"
 "http://www.w3.org/Graphics/SVG/1.1/DTD/svg11.dtd">
<!-- Generated by graphviz version 2.43.0 (0)
 -->
<!-- Title: UdpChannel::controlEventReceived Pages: 1 -->
<svg width="552pt" height="76pt"
 viewBox="0.00 0.00 552.00 75.50" xmlns="http://www.w3.org/2000/svg" xmlns:xlink="http://www.w3.org/1999/xlink">
<g id="graph0" class="graph" transform="scale(1 1) rotate(0) translate(4 71.5)">
<title>UdpChannel::controlEventReceived</title>
<!-- Node1 -->
<g id="Node000001" class="node">
<title>Node1</title>
<g id="a_Node000001"><a xlink:title=" ">
<polygon fill="#999999" stroke="#666666" points="544,-51 401,-51 401,-21 544,-21 544,-51"/>
<text text-anchor="start" x="409" y="-39" font-family="Helvetica,sans-Serif" font-size="10.00">UdpChannel::controlEvent</text>
<text text-anchor="middle" x="472.5" y="-28" font-family="Helvetica,sans-Serif" font-size="10.00">Received</text>
</a>
</g>
</g>
<!-- Node2 -->
<g id="Node000002" class="node">
<title>Node2</title>
<g id="a_Node000002"><a xlink:href="classUdpChannel.html#a4f2c0c2ee1edbc192415cbb518bc44dd" target="_top" xlink:title=" ">
<polygon fill="white" stroke="#666666" points="365,-67.5 177,-67.5 177,-48.5 365,-48.5 365,-67.5"/>
<text text-anchor="middle" x="271" y="-55.5" font-family="Helvetica,sans-Serif" font-size="10.00">UdpChannel::onDatagramReceived</text>
</a>
</g>
</g>
<!-- Node1&#45;&gt;Node2 -->
<g id="edge1_Node000001_Node000002" class="edge">
<title>Node1&#45;&gt;Node2</title>
<g id="a_edge1_Node000001_Node000002"><a xlink:title=" ">
<path fill="none" stroke="#63b8ff" d="M390.74,-44.91C380.05,-46.09 369.05,-47.3 358.27,-48.49"/>
<polygon fill="#63b8ff" stroke="#63b8ff" points="391.33,-48.36 400.88,-43.79 390.56,-41.4 391.33,-48.36"/>
</a>
</g>
</g>
<!-- Node4 -->
<g id="Node000004" class="node">
<title>Node4</title>
<g id="a_Node000004"><a xlink:href="classTestLauncherViewModel.html#a8383814253c17f638f473f833f79b9a9" target="_top" xlink:title=" ">
<polygon fill="white" stroke="#666666" points="341,-30 201,-30 201,0 341,0 341,-30"/>
<text text-anchor="start" x="209" y="-18" font-family="Helvetica,sans-Serif" font-size="10.00">TestLauncherViewModel</text>
<text text-anchor="middle" x="271" y="-7" font-family="Helvetica,sans-Serif" font-size="10.00">::TestLauncherViewModel</text>
</a>
</g>
</g>
<!-- Node1&#45;&gt;Node4 -->
<g id="edge3_Node000001_Node000004" class="edge">
<title>Node1&#45;&gt;Node4</title>
<g id="a_edge3_Node000001_Node000004"><a xlink:title=" ">
<path fill="none" stroke="#63b8ff" d="M390.76,-27.5C374.32,-25.77 357.17,-23.97 341.18,-22.28"/>
<polygon fill="#63b8ff" stroke="#63b8ff" points="390.57,-31 400.88,-28.57 391.3,-24.04 390.57,-31"/>
</a>
</g>
</g>
<!-- Node3 -->
<g id="Node000003" class="node">
<title>Node3</title>
<g id="a_Node000003"><a xlink:href="classUdpChannel.html#a1d69213eb88b5305686f1ef9ade76e04" target="_top" xlink:title=" ">
<polygon fill="white" stroke="#666666" points="141,-67.5 0,-67.5 0,-48.5 141,-48.5 141,-67.5"/>
<text text-anchor="middle" x="70.5" y="-55.5" font-family="Helvetica,sans-Serif" font-size="10.00">UdpChannel::UdpChannel</text>
</a>
</g>
</g>
<!-- Node2&#45;&gt;Node3 -->
<g id="edge2_Node000002_Node000003" class="edge">
<title>Node2&#45;&gt;Node3</title>
<g id="a_edge2_Node000002_Node000003"><a xlink:title=" ">
<path fill="none" stroke="#63b8ff" d="M166.73,-58C158.1,-58 149.52,-58 141.24,-58"/>
<polygon fill="#63b8ff" stroke="#63b8ff" points="166.85,-61.5 176.85,-58 166.85,-54.5 166.85,-61.5"/>
</a>
</g>
</g>
</g>
</svg>
