<?xml version="1.0" encoding="UTF-8" standalone="no"?>
<!DOCTYPE svg PUBLIC "-//W3C//DTD SVG 1.1//EN"
 "http://www.w3.org/Graphics/SVG/1.1/DTD/svg11.dtd">
<!-- Generated by graphviz version 2.43.0 (0)
 -->
<!-- Title: SensorValueIndicatorViewModel Pages: 1 -->
<svg width="156pt" height="344pt"
 viewBox="0.00 0.00 156.00 344.00" xmlns="http://www.w3.org/2000/svg" xmlns:xlink="http://www.w3.org/1999/xlink">
<g id="graph0" class="graph" transform="scale(1 1) rotate(0) translate(4 340)">
<title>SensorValueIndicatorViewModel</title>
<!-- Node1 -->
<g id="Node000001" class="node">
<title>Node1</title>
<g id="a_Node000001"><a xlink:title=" ">
<polygon fill="#999999" stroke="transparent" points="148,-251 0,-251 0,0 148,0 148,-251"/>
<text text-anchor="start" x="10.5" y="-238.5" font-family="Helvetica,sans-Serif" font-size="10.00">SensorValueIndicatorView</text>
<text text-anchor="start" x="58.5" y="-227.5" font-family="Helvetica,sans-Serif" font-size="10.00">Model</text>
<text text-anchor="start" x="6.5" y="-212.5" font-family="Helvetica,sans-Serif" font-size="10.00">&#45;</text>
<text text-anchor="start" x="17" y="-212.5" font-family="Helvetica,sans-Serif" font-size="10.00">m_timer</text>
<text text-anchor="start" x="6.5" y="-197.5" font-family="Helvetica,sans-Serif" font-size="10.00">&#45;</text>
<text text-anchor="start" x="17" y="-197.5" font-family="Helvetica,sans-Serif" font-size="10.00">m_testBenchM</text>
<text text-anchor="start" x="6.5" y="-182.5" font-family="Helvetica,sans-Serif" font-size="10.00">&#45;</text>
<text text-anchor="start" x="17" y="-182.5" font-family="Helvetica,sans-Serif" font-size="10.00">m_valueID</text>
<text text-anchor="start" x="6.5" y="-167.5" font-family="Helvetica,sans-Serif" font-size="10.00">&#45;</text>
<text text-anchor="start" x="17" y="-167.5" font-family="Helvetica,sans-Serif" font-size="10.00">m_sensorName</text>
<text text-anchor="start" x="6.5" y="-152.5" font-family="Helvetica,sans-Serif" font-size="10.00">&#45;</text>
<text text-anchor="start" x="17" y="-152.5" font-family="Helvetica,sans-Serif" font-size="10.00">m_sensorValue</text>
<text text-anchor="start" x="6.5" y="-137.5" font-family="Helvetica,sans-Serif" font-size="10.00">&#45;</text>
<text text-anchor="start" x="17" y="-137.5" font-family="Helvetica,sans-Serif" font-size="10.00">m_valueUnit</text>
<text text-anchor="start" x="6.5" y="-122.5" font-family="Helvetica,sans-Serif" font-size="10.00">&#45;</text>
<text text-anchor="start" x="17" y="-122.5" font-family="Helvetica,sans-Serif" font-size="10.00">m_valueMention</text>
<text text-anchor="start" x="4" y="-107.5" font-family="Helvetica,sans-Serif" font-size="10.00">+</text>
<text text-anchor="start" x="17" y="-107.5" font-family="Helvetica,sans-Serif" font-size="10.00">SensorValueIndicatorView</text>
<text text-anchor="start" x="17" y="-96.5" font-family="Helvetica,sans-Serif" font-size="10.00">Model()</text>
<text text-anchor="start" x="4" y="-81.5" font-family="Helvetica,sans-Serif" font-size="10.00">+</text>
<text text-anchor="start" x="17" y="-81.5" font-family="Helvetica,sans-Serif" font-size="10.00">setName()</text>
<text text-anchor="start" x="4" y="-66.5" font-family="Helvetica,sans-Serif" font-size="10.00">+</text>
<text text-anchor="start" x="17" y="-66.5" font-family="Helvetica,sans-Serif" font-size="10.00">setParameters()</text>
<text text-anchor="start" x="4" y="-51.5" font-family="Helvetica,sans-Serif" font-size="10.00">+</text>
<text text-anchor="start" x="17" y="-51.5" font-family="Helvetica,sans-Serif" font-size="10.00">sensorName()</text>
<text text-anchor="start" x="4" y="-36.5" font-family="Helvetica,sans-Serif" font-size="10.00">+</text>
<text text-anchor="start" x="17" y="-36.5" font-family="Helvetica,sans-Serif" font-size="10.00">valueUnit()</text>
<text text-anchor="start" x="4" y="-21.5" font-family="Helvetica,sans-Serif" font-size="10.00">+</text>
<text text-anchor="start" x="17" y="-21.5" font-family="Helvetica,sans-Serif" font-size="10.00">valueMention()</text>
<text text-anchor="start" x="4" y="-6.5" font-family="Helvetica,sans-Serif" font-size="10.00">+</text>
<text text-anchor="start" x="17" y="-6.5" font-family="Helvetica,sans-Serif" font-size="10.00">sensorValue()</text>
<polygon fill="#666666" stroke="#666666" points="0,-222.5 0,-222.5 148,-222.5 148,-222.5 0,-222.5"/>
<polygon fill="#666666" stroke="#666666" points="0,-117.5 0,-117.5 15,-117.5 15,-117.5 0,-117.5"/>
<polygon fill="#666666" stroke="#666666" points="15,-117.5 15,-117.5 148,-117.5 148,-117.5 15,-117.5"/>
<polygon fill="none" stroke="#666666" points="0,0 0,-251 148,-251 148,0 0,0"/>
</a>
</g>
</g>
<!-- Node2 -->
<g id="Node000002" class="node">
<title>Node2</title>
<g id="a_Node000002"><a xlink:title=" ">
<polygon fill="white" stroke="transparent" points="99,-336 49,-336 49,-287 99,-287 99,-336"/>
<text text-anchor="start" x="54" y="-323.5" font-family="Helvetica,sans-Serif" font-size="10.00">QObject</text>
<text text-anchor="start" x="72" y="-308.5" font-family="Helvetica,sans-Serif" font-size="10.00"> </text>
<text text-anchor="start" x="72" y="-293.5" font-family="Helvetica,sans-Serif" font-size="10.00"> </text>
<polygon fill="#666666" stroke="#666666" points="49,-318.5 49,-318.5 99,-318.5 99,-318.5 49,-318.5"/>
<polygon fill="#666666" stroke="#666666" points="49,-303.5 49,-303.5 99,-303.5 99,-303.5 49,-303.5"/>
<polygon fill="none" stroke="#666666" points="49,-287 49,-336 99,-336 99,-287 49,-287"/>
</a>
</g>
</g>
<!-- Node2&#45;&gt;Node1 -->
<g id="edge1_Node000001_Node000002" class="edge">
<title>Node2&#45;&gt;Node1</title>
<g id="a_edge1_Node000001_Node000002"><a xlink:title=" ">
<path fill="none" stroke="#63b8ff" d="M74,-276.61C74,-268.92 74,-260.32 74,-251.22"/>
<polygon fill="none" stroke="#63b8ff" points="70.5,-276.82 74,-286.82 77.5,-276.82 70.5,-276.82"/>
</a>
</g>
</g>
</g>
</svg>
