<?xml version="1.0" encoding="UTF-8" standalone="no"?>
<!DOCTYPE svg PUBLIC "-//W3C//DTD SVG 1.1//EN"
 "http://www.w3.org/Graphics/SVG/1.1/DTD/svg11.dtd">
<!-- Generated by graphviz version 2.43.0 (0)
 -->
<!-- Title: PlotViewModel::visibleCurvesChanged Pages: 1 -->
<svg width="438pt" height="103pt"
 viewBox="0.00 0.00 438.00 103.00" xmlns="http://www.w3.org/2000/svg" xmlns:xlink="http://www.w3.org/1999/xlink">
<g id="graph0" class="graph" transform="scale(1 1) rotate(0) translate(4 99)">
<title>PlotViewModel::visibleCurvesChanged</title>
<!-- Node1 -->
<g id="Node000001" class="node">
<title>Node1</title>
<g id="a_Node000001"><a xlink:title=" ">
<polygon fill="#999999" stroke="#666666" points="430,-62.5 269,-62.5 269,-32.5 430,-32.5 430,-62.5"/>
<text text-anchor="start" x="277" y="-50.5" font-family="Helvetica,sans-Serif" font-size="10.00">PlotViewModel::visibleCurves</text>
<text text-anchor="middle" x="349.5" y="-39.5" font-family="Helvetica,sans-Serif" font-size="10.00">Changed</text>
</a>
</g>
</g>
<!-- Node2 -->
<g id="Node000002" class="node">
<title>Node2</title>
<g id="a_Node000002"><a xlink:href="classPlotViewModel.html#a5842c23b03eb12fe9e5f80e25a6cf923" target="_top" xlink:title=" ">
<polygon fill="white" stroke="#666666" points="233,-95 96,-95 96,-76 233,-76 233,-95"/>
<text text-anchor="middle" x="164.5" y="-83" font-family="Helvetica,sans-Serif" font-size="10.00">PlotViewModel::initialise</text>
</a>
</g>
</g>
<!-- Node1&#45;&gt;Node2 -->
<g id="edge1_Node000001_Node000002" class="edge">
<title>Node1&#45;&gt;Node2</title>
<g id="a_edge1_Node000001_Node000002"><a xlink:title=" ">
<path fill="none" stroke="#63b8ff" d="M266.35,-64.56C247.43,-68.49 227.97,-72.53 211.25,-76"/>
<polygon fill="#63b8ff" stroke="#63b8ff" points="267.09,-67.98 276.17,-62.52 265.67,-61.12 267.09,-67.98"/>
</a>
</g>
</g>
<!-- Node3 -->
<g id="Node000003" class="node">
<title>Node3</title>
<g id="a_Node000003"><a xlink:href="classPlot.html#a5b4b38ebab6fc69bd007d591c2bc61e3" target="_top" xlink:title=" ">
<polygon fill="white" stroke="#666666" points="60,-57 0,-57 0,-38 60,-38 60,-57"/>
<text text-anchor="middle" x="30" y="-45" font-family="Helvetica,sans-Serif" font-size="10.00">Plot::Plot</text>
</a>
</g>
</g>
<!-- Node1&#45;&gt;Node3 -->
<g id="edge5_Node000001_Node000003" class="edge">
<title>Node1&#45;&gt;Node3</title>
<g id="a_edge5_Node000001_Node000003"><a xlink:title=" ">
<path fill="none" stroke="#63b8ff" d="M258.66,-47.5C191.77,-47.5 104.62,-47.5 60.04,-47.5"/>
<polygon fill="#63b8ff" stroke="#63b8ff" points="258.79,-51 268.79,-47.5 258.79,-44 258.79,-51"/>
</a>
</g>
</g>
<!-- Node4 -->
<g id="Node000004" class="node">
<title>Node4</title>
<g id="a_Node000004"><a xlink:href="classPlotViewModel.html#aba3d8f510c687798dc186f460183a4de" target="_top" xlink:title=" ">
<polygon fill="white" stroke="#666666" points="233,-19 96,-19 96,0 233,0 233,-19"/>
<text text-anchor="middle" x="164.5" y="-7" font-family="Helvetica,sans-Serif" font-size="10.00">PlotViewModel::isVisible</text>
</a>
</g>
</g>
<!-- Node1&#45;&gt;Node4 -->
<g id="edge3_Node000001_Node000004" class="edge">
<title>Node1&#45;&gt;Node4</title>
<g id="a_edge3_Node000001_Node000004"><a xlink:title=" ">
<path fill="none" stroke="#63b8ff" d="M266.35,-30.44C247.43,-26.51 227.97,-22.47 211.25,-19"/>
<polygon fill="#63b8ff" stroke="#63b8ff" points="265.67,-33.88 276.17,-32.48 267.09,-27.02 265.67,-33.88"/>
</a>
</g>
</g>
<!-- Node2&#45;&gt;Node3 -->
<g id="edge2_Node000002_Node000003" class="edge">
<title>Node2&#45;&gt;Node3</title>
<g id="a_edge2_Node000002_Node000003"><a xlink:title=" ">
<path fill="none" stroke="#63b8ff" d="M120.41,-73.14C100.76,-67.51 78,-60.98 60.36,-55.92"/>
<polygon fill="#63b8ff" stroke="#63b8ff" points="119.49,-76.52 130.06,-75.91 121.42,-69.79 119.49,-76.52"/>
</a>
</g>
</g>
<!-- Node4&#45;&gt;Node3 -->
<g id="edge4_Node000004_Node000003" class="edge">
<title>Node4&#45;&gt;Node3</title>
<g id="a_edge4_Node000004_Node000003"><a xlink:title=" ">
<path fill="none" stroke="#63b8ff" d="M120.41,-21.86C100.76,-27.49 78,-34.02 60.36,-39.08"/>
<polygon fill="#63b8ff" stroke="#63b8ff" points="121.42,-25.21 130.06,-19.09 119.49,-18.48 121.42,-25.21"/>
</a>
</g>
</g>
</g>
</svg>
