<?xml version="1.0" encoding="UTF-8" standalone="no"?>
<!DOCTYPE svg PUBLIC "-//W3C//DTD SVG 1.1//EN"
 "http://www.w3.org/Graphics/SVG/1.1/DTD/svg11.dtd">
<!-- Generated by graphviz version 2.43.0 (0)
 -->
<!-- Title: TestLauncherViewModel::acquireFileList Pages: 1 -->
<svg width="695pt" height="86pt"
 viewBox="0.00 0.00 695.00 86.00" xmlns="http://www.w3.org/2000/svg" xmlns:xlink="http://www.w3.org/1999/xlink">
<g id="graph0" class="graph" transform="scale(1 1) rotate(0) translate(4 82)">
<title>TestLauncherViewModel::acquireFileList</title>
<!-- Node1 -->
<g id="Node000001" class="node">
<title>Node1</title>
<g id="a_Node000001"><a xlink:title=" ">
<polygon fill="#999999" stroke="#666666" points="687,-53 553,-53 553,-23 687,-23 687,-53"/>
<text text-anchor="start" x="561" y="-41" font-family="Helvetica,sans-Serif" font-size="10.00">TestLauncherViewModel</text>
<text text-anchor="middle" x="620" y="-30" font-family="Helvetica,sans-Serif" font-size="10.00">::acquireFileList</text>
</a>
</g>
</g>
<!-- Node2 -->
<g id="Node000002" class="node">
<title>Node2</title>
<g id="a_Node000002"><a xlink:href="classTestLauncherViewModel.html#a9a2442b128b5385a0d96df272a4bfa0d" target="_top" xlink:title=" ">
<polygon fill="white" stroke="#666666" points="517,-76 383,-76 383,-46 517,-46 517,-76"/>
<text text-anchor="start" x="391" y="-64" font-family="Helvetica,sans-Serif" font-size="10.00">TestLauncherViewModel</text>
<text text-anchor="middle" x="450" y="-53" font-family="Helvetica,sans-Serif" font-size="10.00">::changeDirPath</text>
</a>
</g>
</g>
<!-- Node1&#45;&gt;Node2 -->
<g id="edge1_Node000001_Node000002" class="edge">
<title>Node1&#45;&gt;Node2</title>
<g id="a_edge1_Node000001_Node000002"><a xlink:title=" ">
<path fill="none" stroke="#63b8ff" d="M542.68,-48.45C534.17,-49.61 525.56,-50.79 517.19,-51.94"/>
<polygon fill="#63b8ff" stroke="#63b8ff" points="543.17,-51.91 552.6,-47.09 542.22,-44.98 543.17,-51.91"/>
</a>
</g>
</g>
<!-- Node5 -->
<g id="Node000005" class="node">
<title>Node5</title>
<g id="a_Node000005"><a xlink:href="classTestLauncherViewModel.html#ad1f588393cbe394fada11c124456f88b" target="_top" xlink:title=" ">
<polygon fill="white" stroke="#666666" points="333.5,-30 199.5,-30 199.5,0 333.5,0 333.5,-30"/>
<text text-anchor="start" x="207.5" y="-18" font-family="Helvetica,sans-Serif" font-size="10.00">TestLauncherViewModel</text>
<text text-anchor="middle" x="266.5" y="-7" font-family="Helvetica,sans-Serif" font-size="10.00">::initialise</text>
</a>
</g>
</g>
<!-- Node1&#45;&gt;Node5 -->
<g id="edge4_Node000001_Node000005" class="edge">
<title>Node1&#45;&gt;Node5</title>
<g id="a_edge4_Node000001_Node000005"><a xlink:title=" ">
<path fill="none" stroke="#63b8ff" d="M542.71,-33.01C480.34,-28.93 393.05,-23.22 333.62,-19.33"/>
<polygon fill="#63b8ff" stroke="#63b8ff" points="542.68,-36.51 552.89,-33.67 543.14,-29.53 542.68,-36.51"/>
</a>
</g>
</g>
<!-- Node3 -->
<g id="Node000003" class="node">
<title>Node3</title>
<g id="a_Node000003"><a xlink:href="classTestLauncher.html#ab4639e9ff0485292851fe88f9abff569" target="_top" xlink:title=" ">
<polygon fill="white" stroke="#666666" points="347,-78 186,-78 186,-48 347,-48 347,-78"/>
<text text-anchor="start" x="194" y="-66" font-family="Helvetica,sans-Serif" font-size="10.00">TestLauncher::showFileDialog</text>
<text text-anchor="middle" x="266.5" y="-55" font-family="Helvetica,sans-Serif" font-size="10.00">Window</text>
</a>
</g>
</g>
<!-- Node2&#45;&gt;Node3 -->
<g id="edge2_Node000002_Node000003" class="edge">
<title>Node2&#45;&gt;Node3</title>
<g id="a_edge2_Node000002_Node000003"><a xlink:title=" ">
<path fill="none" stroke="#63b8ff" d="M372.73,-61.84C364.25,-61.93 355.6,-62.03 347.08,-62.12"/>
<polygon fill="#63b8ff" stroke="#63b8ff" points="373,-65.34 382.96,-61.73 372.92,-58.34 373,-65.34"/>
</a>
</g>
</g>
<!-- Node4 -->
<g id="Node000004" class="node">
<title>Node4</title>
<g id="a_Node000004"><a xlink:href="classTestLauncher.html#a0b2015a489c9ef4b4258626629841e5a" target="_top" xlink:title=" ">
<polygon fill="white" stroke="#666666" points="150,-48.5 0,-48.5 0,-29.5 150,-29.5 150,-48.5"/>
<text text-anchor="middle" x="75" y="-36.5" font-family="Helvetica,sans-Serif" font-size="10.00">TestLauncher::TestLauncher</text>
</a>
</g>
</g>
<!-- Node3&#45;&gt;Node4 -->
<g id="edge3_Node000003_Node000004" class="edge">
<title>Node3&#45;&gt;Node4</title>
<g id="a_edge3_Node000003_Node000004"><a xlink:title=" ">
<path fill="none" stroke="#63b8ff" d="M175.9,-51.65C167.29,-50.56 158.63,-49.47 150.2,-48.4"/>
<polygon fill="#63b8ff" stroke="#63b8ff" points="175.6,-55.14 185.96,-52.93 176.48,-48.2 175.6,-55.14"/>
</a>
</g>
</g>
<!-- Node5&#45;&gt;Node4 -->
<g id="edge5_Node000005_Node000004" class="edge">
<title>Node5&#45;&gt;Node4</title>
<g id="a_edge5_Node000005_Node000004"><a xlink:title=" ">
<path fill="none" stroke="#63b8ff" d="M189.28,-24.65C176.39,-26.29 163.03,-27.98 150.2,-29.6"/>
<polygon fill="#63b8ff" stroke="#63b8ff" points="190.01,-28.09 199.49,-23.36 189.13,-21.14 190.01,-28.09"/>
</a>
</g>
</g>
</g>
</svg>
