<?xml version="1.0" encoding="UTF-8" standalone="no"?>
<!DOCTYPE svg PUBLIC "-//W3C//DTD SVG 1.1//EN"
 "http://www.w3.org/Graphics/SVG/1.1/DTD/svg11.dtd">
<!-- Generated by graphviz version 2.43.0 (0)
 -->
<!-- Title: UdpWorker::processPendingDatagrams Pages: 1 -->
<svg width="471pt" height="38pt"
 viewBox="0.00 0.00 471.00 38.00" xmlns="http://www.w3.org/2000/svg" xmlns:xlink="http://www.w3.org/1999/xlink">
<g id="graph0" class="graph" transform="scale(1 1) rotate(0) translate(4 34)">
<title>UdpWorker::processPendingDatagrams</title>
<!-- Node1 -->
<g id="Node000001" class="node">
<title>Node1</title>
<g id="a_Node000001"><a xlink:title="Drain and process all datagrams pending on the socket.">
<polygon fill="#999999" stroke="#666666" points="463,-30 311,-30 311,0 463,0 463,-30"/>
<text text-anchor="start" x="319" y="-18" font-family="Helvetica,sans-Serif" font-size="10.00">UdpWorker::processPending</text>
<text text-anchor="middle" x="387" y="-7" font-family="Helvetica,sans-Serif" font-size="10.00">Datagrams</text>
</a>
</g>
</g>
<!-- Node2 -->
<g id="Node000002" class="node">
<title>Node2</title>
<g id="a_Node000002"><a xlink:href="classUdpWorker.html#ad4f92bc17d443237d045d35ec46f3bac" target="_top" xlink:title="Bind the socket and begin receiving datagrams.">
<polygon fill="white" stroke="#666666" points="275,-24.5 177,-24.5 177,-5.5 275,-5.5 275,-24.5"/>
<text text-anchor="middle" x="226" y="-12.5" font-family="Helvetica,sans-Serif" font-size="10.00">UdpWorker::start</text>
</a>
</g>
</g>
<!-- Node1&#45;&gt;Node2 -->
<g id="edge1_Node000001_Node000002" class="edge">
<title>Node1&#45;&gt;Node2</title>
<g id="a_edge1_Node000001_Node000002"><a xlink:title=" ">
<path fill="none" stroke="#63b8ff" d="M300.53,-15C291.88,-15 283.34,-15 275.29,-15"/>
<polygon fill="#63b8ff" stroke="#63b8ff" points="300.69,-18.5 310.69,-15 300.69,-11.5 300.69,-18.5"/>
</a>
</g>
</g>
<!-- Node3 -->
<g id="Node000003" class="node">
<title>Node3</title>
<g id="a_Node000003"><a xlink:href="classUdpChannel.html#a1d69213eb88b5305686f1ef9ade76e04" target="_top" xlink:title=" ">
<polygon fill="white" stroke="#666666" points="141,-24.5 0,-24.5 0,-5.5 141,-5.5 141,-24.5"/>
<text text-anchor="middle" x="70.5" y="-12.5" font-family="Helvetica,sans-Serif" font-size="10.00">UdpChannel::UdpChannel</text>
</a>
</g>
</g>
<!-- Node2&#45;&gt;Node3 -->
<g id="edge2_Node000002_Node000003" class="edge">
<title>Node2&#45;&gt;Node3</title>
<g id="a_edge2_Node000002_Node000003"><a xlink:title=" ">
<path fill="none" stroke="#63b8ff" d="M166.8,-15C158.41,-15 149.71,-15 141.12,-15"/>
<polygon fill="#63b8ff" stroke="#63b8ff" points="166.85,-18.5 176.85,-15 166.85,-11.5 166.85,-18.5"/>
</a>
</g>
</g>
</g>
</svg>
