<?xml version="1.0" encoding="UTF-8" standalone="no"?>
<!DOCTYPE svg PUBLIC "-//W3C//DTD SVG 1.1//EN"
 "http://www.w3.org/Graphics/SVG/1.1/DTD/svg11.dtd">
<!-- Generated by graphviz version 2.43.0 (0)
 -->
<!-- Title: Timer::timeout Pages: 1 -->
<svg width="349pt" height="258pt"
 viewBox="0.00 0.00 349.00 257.50" xmlns="http://www.w3.org/2000/svg" xmlns:xlink="http://www.w3.org/1999/xlink">
<g id="graph0" class="graph" transform="scale(1 1) rotate(0) translate(4 253.5)">
<title>Timer::timeout</title>
<!-- Node1 -->
<g id="Node000001" class="node">
<title>Node1</title>
<g id="a_Node000001"><a xlink:title=" ">
<polygon fill="#999999" stroke="#666666" points="341,-131 252,-131 252,-112 341,-112 341,-131"/>
<text text-anchor="middle" x="296.5" y="-119" font-family="Helvetica,sans-Serif" font-size="10.00">Timer::timeout</text>
</a>
</g>
</g>
<!-- Node2 -->
<g id="Node000002" class="node">
<title>Node2</title>
<g id="a_Node000002"><a xlink:href="classActuatorSwitchViewModel.html#a1a906ea170fdf4d96d75901251c1c2a1" target="_top" xlink:title=" ">
<polygon fill="white" stroke="#666666" points="183,-249.5 33,-249.5 33,-219.5 183,-219.5 183,-249.5"/>
<text text-anchor="start" x="41" y="-237.5" font-family="Helvetica,sans-Serif" font-size="10.00">ActuatorSwitchViewModel</text>
<text text-anchor="middle" x="108" y="-226.5" font-family="Helvetica,sans-Serif" font-size="10.00">::ActuatorSwitchViewModel</text>
</a>
</g>
</g>
<!-- Node1&#45;&gt;Node2 -->
<g id="edge1_Node000001_Node000002" class="edge">
<title>Node1&#45;&gt;Node2</title>
<g id="a_edge1_Node000001_Node000002"><a xlink:title=" ">
<path fill="none" stroke="#63b8ff" d="M284.47,-139.48C270.94,-159.96 246.05,-192.84 216,-210.5 205.99,-216.38 194.67,-220.82 183.24,-224.18"/>
<polygon fill="#63b8ff" stroke="#63b8ff" points="287.43,-141.36 289.87,-131.05 281.53,-137.59 287.43,-141.36"/>
</a>
</g>
</g>
<!-- Node3 -->
<g id="Node000003" class="node">
<title>Node3</title>
<g id="a_Node000003"><a xlink:href="classDebugDisplayViewModel.html#adef8c701d6cca6a1901f97d6fc452c03" target="_top" xlink:title=" ">
<polygon fill="white" stroke="#666666" points="180.5,-201.5 35.5,-201.5 35.5,-171.5 180.5,-171.5 180.5,-201.5"/>
<text text-anchor="start" x="43.5" y="-189.5" font-family="Helvetica,sans-Serif" font-size="10.00">DebugDisplayViewModel</text>
<text text-anchor="middle" x="108" y="-178.5" font-family="Helvetica,sans-Serif" font-size="10.00">::DebugDisplayViewModel</text>
</a>
</g>
</g>
<!-- Node1&#45;&gt;Node3 -->
<g id="edge2_Node000001_Node000003" class="edge">
<title>Node1&#45;&gt;Node3</title>
<g id="a_edge2_Node000001_Node000003"><a xlink:title=" ">
<path fill="none" stroke="#63b8ff" d="M271.06,-136.18C255.7,-144.87 235.22,-155.52 216,-162.5 204.73,-166.59 192.52,-170.13 180.53,-173.13"/>
<polygon fill="#63b8ff" stroke="#63b8ff" points="273,-139.1 279.9,-131.07 269.49,-133.04 273,-139.1"/>
</a>
</g>
</g>
<!-- Node4 -->
<g id="Node000004" class="node">
<title>Node4</title>
<g id="a_Node000004"><a xlink:href="classPlotViewModel.html#a0e04a39ca08de4c3687003283f90d6f2" target="_top" xlink:title=" ">
<polygon fill="white" stroke="#666666" points="192,-153 24,-153 24,-134 192,-134 192,-153"/>
<text text-anchor="middle" x="108" y="-141" font-family="Helvetica,sans-Serif" font-size="10.00">PlotViewModel::PlotViewModel</text>
</a>
</g>
</g>
<!-- Node1&#45;&gt;Node4 -->
<g id="edge3_Node000001_Node000004" class="edge">
<title>Node1&#45;&gt;Node4</title>
<g id="a_edge3_Node000001_Node000004"><a xlink:title=" ">
<path fill="none" stroke="#63b8ff" d="M241.46,-127.87C225.31,-129.78 207.24,-131.91 189.76,-133.97"/>
<polygon fill="#63b8ff" stroke="#63b8ff" points="242.25,-131.31 251.77,-126.66 241.43,-124.35 242.25,-131.31"/>
</a>
</g>
</g>
<!-- Node5 -->
<g id="Node000005" class="node">
<title>Node5</title>
<g id="a_Node000005"><a xlink:href="classSensorValueIndicatorViewModel.html#a2c089ed56de9b166007f4e720902e528" target="_top" xlink:title=" ">
<polygon fill="white" stroke="#666666" points="212.5,-115.5 3.5,-115.5 3.5,-85.5 212.5,-85.5 212.5,-115.5"/>
<text text-anchor="start" x="11.5" y="-103.5" font-family="Helvetica,sans-Serif" font-size="10.00">SensorValueIndicatorView</text>
<text text-anchor="middle" x="108" y="-92.5" font-family="Helvetica,sans-Serif" font-size="10.00">Model::SensorValueIndicatorViewModel</text>
</a>
</g>
</g>
<!-- Node1&#45;&gt;Node5 -->
<g id="edge4_Node000001_Node000005" class="edge">
<title>Node1&#45;&gt;Node5</title>
<g id="a_edge4_Node000001_Node000005"><a xlink:title=" ">
<path fill="none" stroke="#63b8ff" d="M241.65,-115.44C232.43,-114.4 222.57,-113.29 212.56,-112.16"/>
<polygon fill="#63b8ff" stroke="#63b8ff" points="241.45,-118.94 251.77,-116.58 242.23,-111.98 241.45,-118.94"/>
</a>
</g>
</g>
<!-- Node6 -->
<g id="Node000006" class="node">
<title>Node6</title>
<g id="a_Node000006"><a xlink:href="classTankPressureControlerViewModel.html#a886336e4301c3a30abb2fd141c064b8c" target="_top" xlink:title=" ">
<polygon fill="white" stroke="#666666" points="216,-67.5 0,-67.5 0,-37.5 216,-37.5 216,-67.5"/>
<text text-anchor="start" x="8" y="-55.5" font-family="Helvetica,sans-Serif" font-size="10.00">TankPressureControlerView</text>
<text text-anchor="middle" x="108" y="-44.5" font-family="Helvetica,sans-Serif" font-size="10.00">Model::TankPressureControlerViewModel</text>
</a>
</g>
</g>
<!-- Node1&#45;&gt;Node6 -->
<g id="edge5_Node000001_Node000006" class="edge">
<title>Node1&#45;&gt;Node6</title>
<g id="a_edge5_Node000001_Node000006"><a xlink:title=" ">
<path fill="none" stroke="#63b8ff" d="M272.67,-106.18C257.25,-96.44 236.1,-84.25 216,-76.5 207.21,-73.11 197.81,-70.14 188.38,-67.54"/>
<polygon fill="#63b8ff" stroke="#63b8ff" points="271.18,-109.38 281.48,-111.87 274.98,-103.5 271.18,-109.38"/>
</a>
</g>
</g>
<!-- Node7 -->
<g id="Node000007" class="node">
<title>Node7</title>
<g id="a_Node000007"><a xlink:href="classTimer.html#a44c9208d316a5d99174a7d04349f6bc8" target="_top" xlink:title=" ">
<polygon fill="white" stroke="#666666" points="148,-19 68,-19 68,0 148,0 148,-19"/>
<text text-anchor="middle" x="108" y="-7" font-family="Helvetica,sans-Serif" font-size="10.00">Timer::Timer</text>
</a>
</g>
</g>
<!-- Node1&#45;&gt;Node7 -->
<g id="edge6_Node000001_Node000007" class="edge">
<title>Node1&#45;&gt;Node7</title>
<g id="a_edge6_Node000001_Node000007"><a xlink:title=" ">
<path fill="none" stroke="#63b8ff" d="M285.22,-103.12C272.11,-81.55 247.34,-46.43 216,-28.5 195.45,-16.74 169.33,-11.95 148.04,-10.11"/>
<polygon fill="#63b8ff" stroke="#63b8ff" points="282.33,-105.12 290.4,-111.98 288.37,-101.58 282.33,-105.12"/>
</a>
</g>
</g>
</g>
</svg>
