<?xml version="1.0" encoding="UTF-8" standalone="no"?>
<!DOCTYPE svg PUBLIC "-//W3C//DTD SVG 1.1//EN"
 "http://www.w3.org/Graphics/SVG/1.1/DTD/svg11.dtd">
<!-- Generated by graphviz version 2.43.0 (0)
 -->
<!-- Title: Logger::messageLogged Pages: 1 -->
<svg width="1585pt" height="365pt"
 viewBox="0.00 0.00 1585.00 365.00" xmlns="http://www.w3.org/2000/svg" xmlns:xlink="http://www.w3.org/1999/xlink">
<g id="graph0" class="graph" transform="scale(1 1) rotate(0) translate(4 361)">
<title>Logger::messageLogged</title>
<!-- Node1 -->
<g id="Node000001" class="node">
<title>Node1</title>
<g id="a_Node000001"><a xlink:title=" ">
<polygon fill="#999999" stroke="#666666" points="1577,-132 1442,-132 1442,-113 1577,-113 1577,-132"/>
<text text-anchor="middle" x="1509.5" y="-120" font-family="Helvetica,sans-Serif" font-size="10.00">Logger::messageLogged</text>
</a>
</g>
</g>
<!-- Node2 -->
<g id="Node000002" class="node">
<title>Node2</title>
<g id="a_Node000002"><a xlink:href="classLogger.html#ad89b36eb9b5a28d1f61b3c74a6975031" target="_top" xlink:title=" ">
<polygon fill="white" stroke="#666666" points="1381,-282 1295,-282 1295,-263 1381,-263 1381,-282"/>
<text text-anchor="middle" x="1338" y="-270" font-family="Helvetica,sans-Serif" font-size="10.00">Logger::debug</text>
</a>
</g>
</g>
<!-- Node1&#45;&gt;Node2 -->
<g id="edge1_Node000001_Node000002" class="edge">
<title>Node1&#45;&gt;Node2</title>
<g id="a_edge1_Node000001_Node000002"><a xlink:title=" ">
<path fill="none" stroke="#63b8ff" d="M1489.96,-138.91C1454.58,-170.22 1378.41,-237.62 1349.99,-262.77"/>
<polygon fill="#63b8ff" stroke="#63b8ff" points="1492.47,-141.36 1497.64,-132.11 1487.83,-136.12 1492.47,-141.36"/>
</a>
</g>
</g>
<!-- Node18 -->
<g id="Node000018" class="node">
<title>Node18</title>
<g id="a_Node000018"><a xlink:href="classLogger.html#a6c8bf2fc8c89d76b7f4fe25d97ad4bf3" target="_top" xlink:title=" ">
<polygon fill="white" stroke="#666666" points="1377.5,-169 1298.5,-169 1298.5,-150 1377.5,-150 1377.5,-169"/>
<text text-anchor="middle" x="1338" y="-157" font-family="Helvetica,sans-Serif" font-size="10.00">Logger::error</text>
</a>
</g>
</g>
<!-- Node1&#45;&gt;Node18 -->
<g id="edge20_Node000001_Node000018" class="edge">
<title>Node1&#45;&gt;Node18</title>
<g id="a_edge20_Node000001_Node000018"><a xlink:title=" ">
<path fill="none" stroke="#63b8ff" d="M1454.76,-134.23C1429.69,-139.7 1400.43,-146.09 1377.59,-151.08"/>
<polygon fill="#63b8ff" stroke="#63b8ff" points="1455.83,-137.58 1464.85,-132.03 1454.33,-130.74 1455.83,-137.58"/>
</a>
</g>
</g>
<!-- Node23 -->
<g id="Node000023" class="node">
<title>Node23</title>
<g id="a_Node000023"><a xlink:href="classLogger.html#a3ae168e3e7df5a30cb93e1bbccaa31a0" target="_top" xlink:title=" ">
<polygon fill="white" stroke="#666666" points="1373.5,-132 1302.5,-132 1302.5,-113 1373.5,-113 1373.5,-132"/>
<text text-anchor="middle" x="1338" y="-120" font-family="Helvetica,sans-Serif" font-size="10.00">Logger::log</text>
</a>
</g>
</g>
<!-- Node1&#45;&gt;Node23 -->
<g id="edge29_Node000001_Node000023" class="edge">
<title>Node1&#45;&gt;Node23</title>
<g id="a_edge29_Node000001_Node000023"><a xlink:title=" ">
<path fill="none" stroke="#63b8ff" d="M1431.76,-122.5C1411.42,-122.5 1390.46,-122.5 1373.62,-122.5"/>
<polygon fill="#63b8ff" stroke="#63b8ff" points="1432,-126 1442,-122.5 1432,-119 1432,-126"/>
</a>
</g>
</g>
<!-- Node26 -->
<g id="Node000026" class="node">
<title>Node26</title>
<g id="a_Node000026"><a xlink:href="classLogTerminalViewModel.html#add61286fc0c8ef4f527f043846caa1b3" target="_top" xlink:title=" ">
<polygon fill="white" stroke="#666666" points="1406,-94.5 1270,-94.5 1270,-64.5 1406,-64.5 1406,-94.5"/>
<text text-anchor="start" x="1278" y="-82.5" font-family="Helvetica,sans-Serif" font-size="10.00">LogTerminalViewModel</text>
<text text-anchor="middle" x="1338" y="-71.5" font-family="Helvetica,sans-Serif" font-size="10.00">::LogTerminalViewModel</text>
</a>
</g>
</g>
<!-- Node1&#45;&gt;Node26 -->
<g id="edge32_Node000001_Node000026" class="edge">
<title>Node1&#45;&gt;Node26</title>
<g id="a_edge32_Node000001_Node000026"><a xlink:title=" ">
<path fill="none" stroke="#63b8ff" d="M1461.01,-110.45C1441.51,-105.51 1418.72,-99.72 1398.15,-94.51"/>
<polygon fill="#63b8ff" stroke="#63b8ff" points="1460.33,-113.89 1470.88,-112.96 1462.05,-107.11 1460.33,-113.89"/>
</a>
</g>
</g>
<!-- Node27 -->
<g id="Node000027" class="node">
<title>Node27</title>
<g id="a_Node000027"><a xlink:href="classLogger.html#a0722f34ac1340d456dcea045974732dc" target="_top" xlink:title=" ">
<polygon fill="white" stroke="#666666" points="1385.5,-46 1290.5,-46 1290.5,-27 1385.5,-27 1385.5,-46"/>
<text text-anchor="middle" x="1338" y="-34" font-family="Helvetica,sans-Serif" font-size="10.00">Logger::warning</text>
</a>
</g>
</g>
<!-- Node1&#45;&gt;Node27 -->
<g id="edge33_Node000001_Node000027" class="edge">
<title>Node1&#45;&gt;Node27</title>
<g id="a_edge33_Node000001_Node000027"><a xlink:title=" ">
<path fill="none" stroke="#63b8ff" d="M1488.58,-106.84C1468.66,-91.84 1436.67,-69.48 1406,-55.5 1397.86,-51.79 1388.83,-48.64 1380.1,-46.03"/>
<polygon fill="#63b8ff" stroke="#63b8ff" points="1486.51,-109.67 1496.58,-112.96 1490.77,-104.11 1486.51,-109.67"/>
</a>
</g>
</g>
<!-- Node3 -->
<g id="Node000003" class="node">
<title>Node3</title>
<g id="a_Node000003"><a xlink:href="classWriter.html#a919d3fddef42f073eeb766975397a55b" target="_top" xlink:title=" ">
<polygon fill="white" stroke="#666666" points="1218,-282 1123,-282 1123,-263 1218,-263 1218,-282"/>
<text text-anchor="middle" x="1170.5" y="-270" font-family="Helvetica,sans-Serif" font-size="10.00">Writer::initialise</text>
</a>
</g>
</g>
<!-- Node2&#45;&gt;Node3 -->
<g id="edge2_Node000002_Node000003" class="edge">
<title>Node2&#45;&gt;Node3</title>
<g id="a_edge2_Node000002_Node000003"><a xlink:title=" ">
<path fill="none" stroke="#63b8ff" d="M1284.64,-272.5C1263.36,-272.5 1238.96,-272.5 1218.28,-272.5"/>
<polygon fill="#63b8ff" stroke="#63b8ff" points="1284.81,-276 1294.81,-272.5 1284.81,-269 1284.81,-276"/>
</a>
</g>
</g>
<!-- Node4 -->
<g id="Node000004" class="node">
<title>Node4</title>
<g id="a_Node000004"><a xlink:href="classUdpLogger.html#a55781f93bfc47a004e7b7b8afaa0192c" target="_top" xlink:title=" ">
<polygon fill="white" stroke="#666666" points="1049.5,-246 951.5,-246 951.5,-227 1049.5,-227 1049.5,-246"/>
<text text-anchor="middle" x="1000.5" y="-234" font-family="Helvetica,sans-Serif" font-size="10.00">UdpLogger::start</text>
</a>
</g>
</g>
<!-- Node2&#45;&gt;Node4 -->
<g id="edge3_Node000002_Node000004" class="edge">
<title>Node2&#45;&gt;Node4</title>
<g id="a_edge3_Node000002_Node000004"><a xlink:title=" ">
<path fill="none" stroke="#63b8ff" d="M1293.14,-284.35C1246.37,-295.08 1170.45,-307.05 1107,-291.5 1071.09,-282.7 1033.82,-259.32 1014.65,-246.05"/>
<polygon fill="#63b8ff" stroke="#63b8ff" points="1294.03,-287.73 1302.95,-282.01 1292.41,-280.92 1294.03,-287.73"/>
</a>
</g>
</g>
<!-- Node13 -->
<g id="Node000013" class="node">
<title>Node13</title>
<g id="a_Node000013"><a xlink:href="classUdpLogger.html#a09b32cc5531b9db48cde09d12d1c321f" target="_top" xlink:title=" ">
<polygon fill="white" stroke="#666666" points="1048.5,-357 952.5,-357 952.5,-338 1048.5,-338 1048.5,-357"/>
<text text-anchor="middle" x="1000.5" y="-345" font-family="Helvetica,sans-Serif" font-size="10.00">UdpLogger::stop</text>
</a>
</g>
</g>
<!-- Node2&#45;&gt;Node13 -->
<g id="edge12_Node000002_Node000013" class="edge">
<title>Node2&#45;&gt;Node13</title>
<g id="a_edge12_Node000002_Node000013"><a xlink:title=" ">
<path fill="none" stroke="#63b8ff" d="M1303.66,-285.77C1283.71,-293.31 1257.7,-302.42 1234,-308.5 1170.77,-324.73 1096.08,-335.87 1048.75,-341.97"/>
<polygon fill="#63b8ff" stroke="#63b8ff" points="1305.13,-288.96 1313.21,-282.11 1302.62,-282.42 1305.13,-288.96"/>
</a>
</g>
</g>
<!-- Node17 -->
<g id="Node000017" class="node">
<title>Node17</title>
<g id="a_Node000017"><a xlink:href="classUdpLogger.html#a4f7e8bb32128f9186dc452a57134475d" target="_top" xlink:title=" ">
<polygon fill="white" stroke="#666666" points="1234,-245 1107,-245 1107,-226 1234,-226 1234,-245"/>
<text text-anchor="middle" x="1170.5" y="-233" font-family="Helvetica,sans-Serif" font-size="10.00">UdpLogger::writerLoop</text>
</a>
</g>
</g>
<!-- Node2&#45;&gt;Node17 -->
<g id="edge18_Node000002_Node000017" class="edge">
<title>Node2&#45;&gt;Node17</title>
<g id="a_edge18_Node000002_Node000017"><a xlink:title=" ">
<path fill="none" stroke="#63b8ff" d="M1284.96,-260.87C1262.18,-255.77 1235.79,-249.87 1214.19,-245.04"/>
<polygon fill="#63b8ff" stroke="#63b8ff" points="1284.29,-264.3 1294.81,-263.07 1285.81,-257.47 1284.29,-264.3"/>
</a>
</g>
</g>
<!-- Node5 -->
<g id="Node000005" class="node">
<title>Node5</title>
<g id="a_Node000005"><a xlink:href="classUdpChannel.html#a0ed1f8d1f6bab17f35b54db9f31ecc05" target="_top" xlink:title=" ">
<polygon fill="white" stroke="#666666" points="894,-262 747,-262 747,-243 894,-243 894,-262"/>
<text text-anchor="middle" x="820.5" y="-250" font-family="Helvetica,sans-Serif" font-size="10.00">UdpChannel::startEndpoint</text>
</a>
</g>
</g>
<!-- Node4&#45;&gt;Node5 -->
<g id="edge4_Node000004_Node000005" class="edge">
<title>Node4&#45;&gt;Node5</title>
<g id="a_edge4_Node000004_Node000005"><a xlink:title=" ">
<path fill="none" stroke="#63b8ff" d="M941.17,-241.74C926.14,-243.09 909.78,-244.56 894.13,-245.97"/>
<polygon fill="#63b8ff" stroke="#63b8ff" points="941.68,-245.21 951.33,-240.83 941.06,-238.24 941.68,-245.21"/>
</a>
</g>
</g>
<!-- Node6 -->
<g id="Node000006" class="node">
<title>Node6</title>
<g id="a_Node000006"><a xlink:href="classCSVLogger.html#aeb2a3cbfb18c9e190ee9558b45c2ab63" target="_top" xlink:title=" ">
<polygon fill="white" stroke="#666666" points="687,-266 580,-266 580,-247 687,-247 687,-266"/>
<text text-anchor="middle" x="633.5" y="-254" font-family="Helvetica,sans-Serif" font-size="10.00">CSVLogger::logFile</text>
</a>
</g>
</g>
<!-- Node5&#45;&gt;Node6 -->
<g id="edge5_Node000005_Node000006" class="edge">
<title>Node5&#45;&gt;Node6</title>
<g id="a_edge5_Node000005_Node000006"><a xlink:title=" ">
<path fill="none" stroke="#63b8ff" d="M736.54,-254.29C719.75,-254.66 702.54,-255.03 687.15,-255.36"/>
<polygon fill="#63b8ff" stroke="#63b8ff" points="736.99,-257.78 746.91,-254.07 736.84,-250.79 736.99,-257.78"/>
</a>
</g>
</g>
<!-- Node10 -->
<g id="Node000010" class="node">
<title>Node10</title>
<g id="a_Node000010"><a xlink:href="main_8cpp.html#a0ddf1224851353fc92bfbff6f499fa97" target="_top" xlink:title=" ">
<polygon fill="white" stroke="#666666" points="654,-229 613,-229 613,-210 654,-210 654,-229"/>
<text text-anchor="middle" x="633.5" y="-217" font-family="Helvetica,sans-Serif" font-size="10.00">main</text>
</a>
</g>
</g>
<!-- Node5&#45;&gt;Node10 -->
<g id="edge9_Node000005_Node000010" class="edge">
<title>Node5&#45;&gt;Node10</title>
<g id="a_edge9_Node000005_Node000010"><a xlink:title=" ">
<path fill="none" stroke="#63b8ff" d="M755.69,-241.12C720.24,-234.79 678.53,-227.35 654.44,-223.06"/>
<polygon fill="#63b8ff" stroke="#63b8ff" points="755.53,-244.64 765.99,-242.96 756.76,-237.75 755.53,-244.64"/>
</a>
</g>
</g>
<!-- Node11 -->
<g id="Node000011" class="node">
<title>Node11</title>
<g id="a_Node000011"><a xlink:href="classUdpChannelParametersViewModel.html#af74d2aa09f73fc1ce13dca3469848fa8" target="_top" xlink:title=" ">
<polygon fill="white" stroke="#666666" points="711,-316.5 556,-316.5 556,-286.5 711,-286.5 711,-316.5"/>
<text text-anchor="start" x="564" y="-304.5" font-family="Helvetica,sans-Serif" font-size="10.00">UdpChannelParametersView</text>
<text text-anchor="middle" x="633.5" y="-293.5" font-family="Helvetica,sans-Serif" font-size="10.00">Model::restartEndpoint</text>
</a>
</g>
</g>
<!-- Node5&#45;&gt;Node11 -->
<g id="edge10_Node000005_Node000011" class="edge">
<title>Node5&#45;&gt;Node11</title>
<g id="a_edge10_Node000005_Node000011"><a xlink:title=" ">
<path fill="none" stroke="#63b8ff" d="M773.48,-264.69C748.59,-271.28 717.64,-279.48 691.27,-286.46"/>
<polygon fill="#63b8ff" stroke="#63b8ff" points="774.62,-268.01 783.39,-262.06 772.83,-261.24 774.62,-268.01"/>
</a>
</g>
</g>
<!-- Node7 -->
<g id="Node000007" class="node">
<title>Node7</title>
<g id="a_Node000007"><a xlink:href="classExportMenuViewModel.html#a3384a193ce5445b24d08bb6b6fed94fb" target="_top" xlink:title=" ">
<polygon fill="white" stroke="#666666" points="501.5,-270.5 372.5,-270.5 372.5,-240.5 501.5,-240.5 501.5,-270.5"/>
<text text-anchor="start" x="380.5" y="-258.5" font-family="Helvetica,sans-Serif" font-size="10.00">ExportMenuViewModel</text>
<text text-anchor="middle" x="437" y="-247.5" font-family="Helvetica,sans-Serif" font-size="10.00">::selectPath</text>
</a>
</g>
</g>
<!-- Node6&#45;&gt;Node7 -->
<g id="edge6_Node000006_Node000007" class="edge">
<title>Node6&#45;&gt;Node7</title>
<g id="a_edge6_Node000006_Node000007"><a xlink:title=" ">
<path fill="none" stroke="#63b8ff" d="M569.75,-256.18C548,-256.07 523.6,-255.94 501.76,-255.83"/>
<polygon fill="#63b8ff" stroke="#63b8ff" points="569.85,-259.68 579.87,-256.23 569.88,-252.68 569.85,-259.68"/>
</a>
</g>
</g>
<!-- Node8 -->
<g id="Node000008" class="node">
<title>Node8</title>
<g id="a_Node000008"><a xlink:href="classExportMenu.html#a8c000516d7139497af90f9b173ca0609" target="_top" xlink:title=" ">
<polygon fill="white" stroke="#666666" points="318,-270.5 176,-270.5 176,-240.5 318,-240.5 318,-270.5"/>
<text text-anchor="start" x="184" y="-258.5" font-family="Helvetica,sans-Serif" font-size="10.00">ExportMenu::onFileDialog</text>
<text text-anchor="middle" x="247" y="-247.5" font-family="Helvetica,sans-Serif" font-size="10.00">WindowRequested</text>
</a>
</g>
</g>
<!-- Node7&#45;&gt;Node8 -->
<g id="edge7_Node000007_Node000008" class="edge">
<title>Node7&#45;&gt;Node8</title>
<g id="a_edge7_Node000007_Node000008"><a xlink:title=" ">
<path fill="none" stroke="#63b8ff" d="M361.96,-255.5C347.49,-255.5 332.37,-255.5 318.04,-255.5"/>
<polygon fill="#63b8ff" stroke="#63b8ff" points="362.35,-259 372.35,-255.5 362.35,-252 362.35,-259"/>
</a>
</g>
</g>
<!-- Node9 -->
<g id="Node000009" class="node">
<title>Node9</title>
<g id="a_Node000009"><a xlink:href="classExportMenu.html#aad47eee6721b4f7a152a093c99672ac9" target="_top" xlink:title=" ">
<polygon fill="white" stroke="#666666" points="140,-265 0,-265 0,-246 140,-246 140,-265"/>
<text text-anchor="middle" x="70" y="-253" font-family="Helvetica,sans-Serif" font-size="10.00">ExportMenu::ExportMenu</text>
</a>
</g>
</g>
<!-- Node8&#45;&gt;Node9 -->
<g id="edge8_Node000008_Node000009" class="edge">
<title>Node8&#45;&gt;Node9</title>
<g id="a_edge8_Node000008_Node000009"><a xlink:title=" ">
<path fill="none" stroke="#63b8ff" d="M165.8,-255.5C157.2,-255.5 148.5,-255.5 140.05,-255.5"/>
<polygon fill="#63b8ff" stroke="#63b8ff" points="165.83,-259 175.83,-255.5 165.83,-252 165.83,-259"/>
</a>
</g>
</g>
<!-- Node12 -->
<g id="Node000012" class="node">
<title>Node12</title>
<g id="a_Node000012"><a xlink:href="classUdpChannelParametersWidget.html#aef0927083aea2b20033b42465cb2b42f" target="_top" xlink:title=" ">
<polygon fill="white" stroke="#666666" points="520,-318.5 354,-318.5 354,-288.5 520,-288.5 520,-318.5"/>
<text text-anchor="start" x="362" y="-306.5" font-family="Helvetica,sans-Serif" font-size="10.00">UdpChannelParametersWidget</text>
<text text-anchor="middle" x="437" y="-295.5" font-family="Helvetica,sans-Serif" font-size="10.00">::applyParameters</text>
</a>
</g>
</g>
<!-- Node11&#45;&gt;Node12 -->
<g id="edge11_Node000011_Node000012" class="edge">
<title>Node11&#45;&gt;Node12</title>
<g id="a_edge11_Node000011_Node000012"><a xlink:title=" ">
<path fill="none" stroke="#63b8ff" d="M545.68,-302.39C537.24,-302.48 528.69,-302.57 520.29,-302.65"/>
<polygon fill="#63b8ff" stroke="#63b8ff" points="545.94,-305.89 555.91,-302.29 545.87,-298.89 545.94,-305.89"/>
</a>
</g>
</g>
<!-- Node14 -->
<g id="Node000014" class="node">
<title>Node14</title>
<g id="a_Node000014"><a xlink:href="classUdpChannel.html#a818443eac8b5aa21093fe3a1f39492a4" target="_top" xlink:title=" ">
<polygon fill="white" stroke="#666666" points="893.5,-313 747.5,-313 747.5,-294 893.5,-294 893.5,-313"/>
<text text-anchor="middle" x="820.5" y="-301" font-family="Helvetica,sans-Serif" font-size="10.00">UdpChannel::stopEndpoint</text>
</a>
</g>
</g>
<!-- Node13&#45;&gt;Node14 -->
<g id="edge13_Node000013_Node000014" class="edge">
<title>Node13&#45;&gt;Node14</title>
<g id="a_edge13_Node000013_Node000014"><a xlink:title=" ">
<path fill="none" stroke="#63b8ff" d="M951.08,-335.53C922.47,-328.46 886.74,-319.63 860.05,-313.03"/>
<polygon fill="#63b8ff" stroke="#63b8ff" points="950.33,-338.95 960.88,-337.95 952.01,-332.16 950.33,-338.95"/>
</a>
</g>
</g>
<!-- Node16 -->
<g id="Node000016" class="node">
<title>Node16</title>
<g id="a_Node000016"><a xlink:href="classUdpLogger.html#a86daaae8c77a9daccd9e05847314d407" target="_top" xlink:title=" ">
<polygon fill="white" stroke="#666666" points="888.5,-357 752.5,-357 752.5,-338 888.5,-338 888.5,-357"/>
<text text-anchor="middle" x="820.5" y="-345" font-family="Helvetica,sans-Serif" font-size="10.00">UdpLogger::~UdpLogger</text>
</a>
</g>
</g>
<!-- Node13&#45;&gt;Node16 -->
<g id="edge17_Node000013_Node000016" class="edge">
<title>Node13&#45;&gt;Node16</title>
<g id="a_edge17_Node000013_Node000016"><a xlink:title=" ">
<path fill="none" stroke="#63b8ff" d="M941.95,-347.5C924.98,-347.5 906.25,-347.5 888.72,-347.5"/>
<polygon fill="#63b8ff" stroke="#63b8ff" points="942.27,-351 952.27,-347.5 942.27,-344 942.27,-351"/>
</a>
</g>
</g>
<!-- Node14&#45;&gt;Node6 -->
<g id="edge14_Node000014_Node000006" class="edge">
<title>Node14&#45;&gt;Node6</title>
<g id="a_edge14_Node000014_Node000006"><a xlink:title=" ">
<path fill="none" stroke="#63b8ff" d="M772.32,-291.51C741.26,-283.62 701.13,-273.43 672.2,-266.08"/>
<polygon fill="#63b8ff" stroke="#63b8ff" points="771.51,-294.92 782.06,-293.99 773.23,-288.13 771.51,-294.92"/>
</a>
</g>
</g>
<!-- Node14&#45;&gt;Node11 -->
<g id="edge15_Node000014_Node000011" class="edge">
<title>Node14&#45;&gt;Node11</title>
<g id="a_edge15_Node000014_Node000011"><a xlink:title=" ">
<path fill="none" stroke="#63b8ff" d="M737.34,-302.61C728.66,-302.52 719.86,-302.42 711.25,-302.33"/>
<polygon fill="#63b8ff" stroke="#63b8ff" points="737.41,-306.11 747.44,-302.72 737.48,-299.11 737.41,-306.11"/>
</a>
</g>
</g>
<!-- Node15 -->
<g id="Node000015" class="node">
<title>Node15</title>
<g id="a_Node000015"><a xlink:href="classUdpChannel.html#a81c184bc754fe19c58898f4cb14eed53" target="_top" xlink:title=" ">
<polygon fill="white" stroke="#666666" points="708,-354 559,-354 559,-335 708,-335 708,-354"/>
<text text-anchor="middle" x="633.5" y="-342" font-family="Helvetica,sans-Serif" font-size="10.00">UdpChannel::~UdpChannel</text>
</a>
</g>
</g>
<!-- Node14&#45;&gt;Node15 -->
<g id="edge16_Node000014_Node000015" class="edge">
<title>Node14&#45;&gt;Node15</title>
<g id="a_edge16_Node000014_Node000015"><a xlink:title=" ">
<path fill="none" stroke="#63b8ff" d="M766.5,-315.25C738.28,-321.5 704.04,-329.09 677.5,-334.97"/>
<polygon fill="#63b8ff" stroke="#63b8ff" points="767.59,-318.59 776.59,-313.01 766.07,-311.76 767.59,-318.59"/>
</a>
</g>
</g>
<!-- Node17&#45;&gt;Node4 -->
<g id="edge19_Node000017_Node000004" class="edge">
<title>Node17&#45;&gt;Node4</title>
<g id="a_edge19_Node000017_Node000004"><a xlink:title=" ">
<path fill="none" stroke="#63b8ff" d="M1096.61,-235.93C1080.72,-236.03 1064.3,-236.13 1049.67,-236.21"/>
<polygon fill="#63b8ff" stroke="#63b8ff" points="1096.96,-239.43 1106.94,-235.87 1096.92,-232.43 1096.96,-239.43"/>
</a>
</g>
</g>
<!-- Node18&#45;&gt;Node3 -->
<g id="edge23_Node000018_Node000003" class="edge">
<title>Node18&#45;&gt;Node3</title>
<g id="a_edge23_Node000018_Node000003"><a xlink:title=" ">
<path fill="none" stroke="#63b8ff" d="M1322.59,-177.07C1304.18,-198.4 1270.33,-234.05 1234,-254.5 1228,-257.88 1221.31,-260.67 1214.6,-262.96"/>
<polygon fill="#63b8ff" stroke="#63b8ff" points="1325.5,-179.04 1329.28,-169.15 1320.16,-174.53 1325.5,-179.04"/>
</a>
</g>
</g>
<!-- Node18&#45;&gt;Node4 -->
<g id="edge27_Node000018_Node000004" class="edge">
<title>Node18&#45;&gt;Node4</title>
<g id="a_edge27_Node000018_Node000004"><a xlink:title=" ">
<path fill="none" stroke="#63b8ff" d="M1288.43,-170.65C1222.38,-185.81 1105.34,-212.67 1043.11,-226.95"/>
<polygon fill="#63b8ff" stroke="#63b8ff" points="1289.22,-174.06 1298.19,-168.41 1287.66,-167.23 1289.22,-174.06"/>
</a>
</g>
</g>
<!-- Node18&#45;&gt;Node17 -->
<g id="edge28_Node000018_Node000017" class="edge">
<title>Node18&#45;&gt;Node17</title>
<g id="a_edge28_Node000018_Node000017"><a xlink:title=" ">
<path fill="none" stroke="#63b8ff" d="M1310.32,-173.9C1289.73,-184.79 1260.4,-199.8 1234,-211.5 1222.42,-216.63 1209.37,-221.75 1198.2,-225.92"/>
<polygon fill="#63b8ff" stroke="#63b8ff" points="1312.22,-176.86 1319.4,-169.07 1308.93,-170.68 1312.22,-176.86"/>
</a>
</g>
</g>
<!-- Node19 -->
<g id="Node000019" class="node">
<title>Node19</title>
<g id="a_Node000019"><a xlink:href="classWriter.html#a8370450b521293c9b754c234d0e46a73" target="_top" xlink:title=" ">
<polygon fill="white" stroke="#666666" points="1226.5,-132 1114.5,-132 1114.5,-113 1226.5,-113 1226.5,-132"/>
<text text-anchor="middle" x="1170.5" y="-120" font-family="Helvetica,sans-Serif" font-size="10.00">Writer::flushFrames</text>
</a>
</g>
</g>
<!-- Node18&#45;&gt;Node19 -->
<g id="edge21_Node000018_Node000019" class="edge">
<title>Node18&#45;&gt;Node19</title>
<g id="a_edge21_Node000018_Node000019"><a xlink:title=" ">
<path fill="none" stroke="#63b8ff" d="M1288.41,-148.64C1264.86,-143.37 1236.83,-137.11 1214.13,-132.03"/>
<polygon fill="#63b8ff" stroke="#63b8ff" points="1287.67,-152.06 1298.2,-150.83 1289.2,-145.23 1287.67,-152.06"/>
</a>
</g>
</g>
<!-- Node20 -->
<g id="Node000020" class="node">
<title>Node20</title>
<g id="a_Node000020"><a xlink:href="classWriter.html#a1fd61de67b13b9eb5cb0f3eb7d5b6e48" target="_top" xlink:title=" ">
<polygon fill="white" stroke="#666666" points="1049.5,-94 951.5,-94 951.5,-75 1049.5,-75 1049.5,-94"/>
<text text-anchor="middle" x="1000.5" y="-82" font-family="Helvetica,sans-Serif" font-size="10.00">Writer::logFrame</text>
</a>
</g>
</g>
<!-- Node18&#45;&gt;Node20 -->
<g id="edge24_Node000018_Node000020" class="edge">
<title>Node18&#45;&gt;Node20</title>
<g id="a_edge24_Node000018_Node000020"><a xlink:title=" ">
<path fill="none" stroke="#63b8ff" d="M1288.35,-151.81C1281.72,-149.28 1275.37,-145.93 1270,-141.5 1241.8,-118.21 1265.01,-86.9 1234,-67.5 1167.09,-25.64 1067.21,-57.42 1023.41,-74.93"/>
<polygon fill="#63b8ff" stroke="#63b8ff" points="1287.58,-155.23 1298.17,-154.95 1289.72,-148.57 1287.58,-155.23"/>
</a>
</g>
</g>
<!-- Node21 -->
<g id="Node000021" class="node">
<title>Node21</title>
<g id="a_Node000021"><a xlink:href="classRingBuffer.html#a12a3dd68a067b130308d734be8051fb5" target="_top" xlink:title=" ">
<polygon fill="white" stroke="#666666" points="1216.5,-95 1124.5,-95 1124.5,-76 1216.5,-76 1216.5,-95"/>
<text text-anchor="middle" x="1170.5" y="-83" font-family="Helvetica,sans-Serif" font-size="10.00">RingBuffer::pull</text>
</a>
</g>
</g>
<!-- Node18&#45;&gt;Node21 -->
<g id="edge25_Node000018_Node000021" class="edge">
<title>Node18&#45;&gt;Node21</title>
<g id="a_edge25_Node000018_Node000021"><a xlink:title=" ">
<path fill="none" stroke="#63b8ff" d="M1288.78,-149.93C1282.24,-147.67 1275.79,-144.9 1270,-141.5 1250.21,-129.89 1253.59,-116.44 1234,-104.5 1227.7,-100.67 1220.58,-97.55 1213.44,-95.04"/>
<polygon fill="#63b8ff" stroke="#63b8ff" points="1287.79,-153.29 1298.37,-152.88 1289.85,-146.6 1287.79,-153.29"/>
</a>
</g>
</g>
<!-- Node22 -->
<g id="Node000022" class="node">
<title>Node22</title>
<g id="a_Node000022"><a xlink:href="classRingBuffer.html#a1eb45a07ee9dcd3c61045b4996cf14b3" target="_top" xlink:title=" ">
<polygon fill="white" stroke="#666666" points="1219,-169 1122,-169 1122,-150 1219,-150 1219,-169"/>
<text text-anchor="middle" x="1170.5" y="-157" font-family="Helvetica,sans-Serif" font-size="10.00">RingBuffer::push</text>
</a>
</g>
</g>
<!-- Node18&#45;&gt;Node22 -->
<g id="edge26_Node000018_Node000022" class="edge">
<title>Node18&#45;&gt;Node22</title>
<g id="a_edge26_Node000018_Node000022"><a xlink:title=" ">
<path fill="none" stroke="#63b8ff" d="M1288.17,-159.5C1266.41,-159.5 1240.86,-159.5 1219.22,-159.5"/>
<polygon fill="#63b8ff" stroke="#63b8ff" points="1288.2,-163 1298.2,-159.5 1288.2,-156 1288.2,-163"/>
</a>
</g>
</g>
<!-- Node19&#45;&gt;Node20 -->
<g id="edge22_Node000019_Node000020" class="edge">
<title>Node19&#45;&gt;Node20</title>
<g id="a_edge22_Node000019_Node000020"><a xlink:title=" ">
<path fill="none" stroke="#63b8ff" d="M1117.22,-110.68C1093.54,-105.32 1065.91,-99.07 1043.59,-94.02"/>
<polygon fill="#63b8ff" stroke="#63b8ff" points="1116.58,-114.12 1127.11,-112.91 1118.13,-107.29 1116.58,-114.12"/>
</a>
</g>
</g>
<!-- Node24 -->
<g id="Node000024" class="node">
<title>Node24</title>
<g id="a_Node000024"><a xlink:href="classUdpWorker.html#ad4f92bc17d443237d045d35ec46f3bac" target="_top" xlink:title=" ">
<polygon fill="white" stroke="#666666" points="1219.5,-19 1121.5,-19 1121.5,0 1219.5,0 1219.5,-19"/>
<text text-anchor="middle" x="1170.5" y="-7" font-family="Helvetica,sans-Serif" font-size="10.00">UdpWorker::start</text>
</a>
</g>
</g>
<!-- Node23&#45;&gt;Node24 -->
<g id="edge30_Node000023_Node000024" class="edge">
<title>Node23&#45;&gt;Node24</title>
<g id="a_edge30_Node000023_Node000024"><a xlink:title=" ">
<path fill="none" stroke="#63b8ff" d="M1292.55,-115.44C1284.45,-112.68 1276.52,-108.84 1270,-103.5 1242.93,-81.34 1260.04,-56.86 1234,-33.5 1227.08,-27.29 1218.38,-22.62 1209.69,-19.13"/>
<polygon fill="#63b8ff" stroke="#63b8ff" points="1291.84,-118.88 1302.42,-118.3 1293.79,-112.15 1291.84,-118.88"/>
</a>
</g>
</g>
<!-- Node25 -->
<g id="Node000025" class="node">
<title>Node25</title>
<g id="a_Node000025"><a xlink:href="classUdpChannel.html#a1d69213eb88b5305686f1ef9ade76e04" target="_top" xlink:title=" ">
<polygon fill="white" stroke="#666666" points="1071,-19 930,-19 930,0 1071,0 1071,-19"/>
<text text-anchor="middle" x="1000.5" y="-7" font-family="Helvetica,sans-Serif" font-size="10.00">UdpChannel::UdpChannel</text>
</a>
</g>
</g>
<!-- Node24&#45;&gt;Node25 -->
<g id="edge31_Node000024_Node000025" class="edge">
<title>Node24&#45;&gt;Node25</title>
<g id="a_edge31_Node000024_Node000025"><a xlink:title=" ">
<path fill="none" stroke="#63b8ff" d="M1111.23,-9.5C1098.34,-9.5 1084.55,-9.5 1071.25,-9.5"/>
<polygon fill="#63b8ff" stroke="#63b8ff" points="1111.36,-13 1121.36,-9.5 1111.36,-6 1111.36,-13"/>
</a>
</g>
</g>
</g>
</svg>
