<?xml version="1.0" encoding="UTF-8" standalone="no"?>
<!DOCTYPE svg PUBLIC "-//W3C//DTD SVG 1.1//EN"
 "http://www.w3.org/Graphics/SVG/1.1/DTD/svg11.dtd">
<!-- Generated by graphviz version 2.43.0 (0)
 -->
<!-- Title: ExportMenuViewModel::selectPath Pages: 1 -->
<svg width="1143pt" height="188pt"
 viewBox="0.00 0.00 1143.00 187.50" xmlns="http://www.w3.org/2000/svg" xmlns:xlink="http://www.w3.org/1999/xlink">
<g id="graph0" class="graph" transform="scale(1 1) rotate(0) translate(4 183.5)">
<title>ExportMenuViewModel::selectPath</title>
<!-- Node1 -->
<g id="Node000001" class="node">
<title>Node1</title>
<g id="a_Node000001"><a xlink:title=" ">
<polygon fill="#999999" stroke="#666666" points="129,-136.5 0,-136.5 0,-106.5 129,-106.5 129,-136.5"/>
<text text-anchor="start" x="8" y="-124.5" font-family="Helvetica,sans-Serif" font-size="10.00">ExportMenuViewModel</text>
<text text-anchor="middle" x="64.5" y="-113.5" font-family="Helvetica,sans-Serif" font-size="10.00">::selectPath</text>
</a>
</g>
</g>
<!-- Node2 -->
<g id="Node000002" class="node">
<title>Node2</title>
<g id="a_Node000002"><a xlink:href="classFileSystem.html#a629654905eeeb0ecbd65586c640d0158" target="_top" xlink:title=" ">
<polygon fill="white" stroke="#666666" points="302,-150 165,-150 165,-131 302,-131 302,-150"/>
<text text-anchor="middle" x="233.5" y="-138" font-family="Helvetica,sans-Serif" font-size="10.00">FileSystem::getDirectory</text>
</a>
</g>
</g>
<!-- Node1&#45;&gt;Node2 -->
<g id="edge1_Node000001_Node000002" class="edge">
<title>Node1&#45;&gt;Node2</title>
<g id="a_edge1_Node000001_Node000002"><a xlink:title=" ">
<path fill="none" stroke="#63b8ff" d="M129.11,-128.74C137.53,-129.69 146.23,-130.68 154.84,-131.66"/>
<polygon fill="#63b8ff" stroke="#63b8ff" points="154.57,-135.16 164.9,-132.81 155.36,-128.2 154.57,-135.16"/>
</a>
</g>
</g>
<!-- Node3 -->
<g id="Node000003" class="node">
<title>Node3</title>
<g id="a_Node000003"><a xlink:href="classCSVLogger.html#aeb2a3cbfb18c9e190ee9558b45c2ab63" target="_top" xlink:title=" ">
<polygon fill="white" stroke="#666666" points="287,-113 180,-113 180,-94 287,-94 287,-113"/>
<text text-anchor="middle" x="233.5" y="-101" font-family="Helvetica,sans-Serif" font-size="10.00">CSVLogger::logFile</text>
</a>
</g>
</g>
<!-- Node1&#45;&gt;Node3 -->
<g id="edge2_Node000001_Node000003" class="edge">
<title>Node1&#45;&gt;Node3</title>
<g id="a_edge2_Node000001_Node000003"><a xlink:title=" ">
<path fill="none" stroke="#63b8ff" d="M129.11,-114.64C142.48,-113.2 156.57,-111.68 169.9,-110.25"/>
<polygon fill="#63b8ff" stroke="#63b8ff" points="170.36,-113.72 179.92,-109.17 169.61,-106.76 170.36,-113.72"/>
</a>
</g>
</g>
<!-- Node4 -->
<g id="Node000004" class="node">
<title>Node4</title>
<g id="a_Node000004"><a xlink:href="classProtocolCodec.html#ab45b52d99e2ec983883aa25c8ba6f42e" target="_top" xlink:title=" ">
<polygon fill="white" stroke="#666666" points="475.5,-172 347.5,-172 347.5,-153 475.5,-153 475.5,-172"/>
<text text-anchor="middle" x="411.5" y="-160" font-family="Helvetica,sans-Serif" font-size="10.00">ProtocolCodec::decode</text>
</a>
</g>
</g>
<!-- Node3&#45;&gt;Node4 -->
<g id="edge3_Node000003_Node000004" class="edge">
<title>Node3&#45;&gt;Node4</title>
<g id="a_edge3_Node000003_Node000004"><a xlink:title=" ">
<path fill="none" stroke="#63b8ff" d="M273.87,-113.07C283.22,-115.76 293.07,-118.93 302,-122.5 318.8,-129.21 321.22,-134.73 338,-141.5 345.69,-144.6 354.01,-147.46 362.17,-149.99"/>
<polygon fill="#63b8ff" stroke="#63b8ff" points="361.42,-153.42 372,-152.92 363.42,-146.71 361.42,-153.42"/>
</a>
</g>
</g>
<!-- Node6 -->
<g id="Node000006" class="node">
<title>Node6</title>
<g id="a_Node000006"><a xlink:href="classUdpChannel.html#aa8a4da515eb9941d6f26f6536b1243b4" target="_top" xlink:title="Returns whether the UDP channel is currently active.">
<polygon fill="white" stroke="#666666" points="471,-132 352,-132 352,-113 471,-113 471,-132"/>
<text text-anchor="middle" x="411.5" y="-120" font-family="Helvetica,sans-Serif" font-size="10.00">UdpChannel::running</text>
</a>
</g>
</g>
<!-- Node3&#45;&gt;Node6 -->
<g id="edge5_Node000003_Node000006" class="edge">
<title>Node3&#45;&gt;Node6</title>
<g id="a_edge5_Node000003_Node000006"><a xlink:title=" ">
<path fill="none" stroke="#63b8ff" d="M287.31,-109.2C304.48,-111.05 323.79,-113.14 341.94,-115.1"/>
<polygon fill="#63b8ff" stroke="#63b8ff" points="341.57,-118.58 351.88,-116.17 342.32,-111.62 341.57,-118.58"/>
</a>
</g>
</g>
<!-- Node7 -->
<g id="Node000007" class="node">
<title>Node7</title>
<g id="a_Node000007"><a xlink:href="classUdpChannel.html#a0ed1f8d1f6bab17f35b54db9f31ecc05" target="_top" xlink:title="Start the UDP channel and its subsystems.">
<polygon fill="white" stroke="#666666" points="485,-95 338,-95 338,-76 485,-76 485,-95"/>
<text text-anchor="middle" x="411.5" y="-83" font-family="Helvetica,sans-Serif" font-size="10.00">UdpChannel::startEndpoint</text>
</a>
</g>
</g>
<!-- Node3&#45;&gt;Node7 -->
<g id="edge6_Node000003_Node000007" class="edge">
<title>Node3&#45;&gt;Node7</title>
<g id="a_edge6_Node000003_Node000007"><a xlink:title=" ">
<path fill="none" stroke="#63b8ff" d="M287.31,-98.1C300.1,-96.79 314.08,-95.36 327.88,-93.95"/>
<polygon fill="#63b8ff" stroke="#63b8ff" points="328.29,-97.43 337.88,-92.93 327.58,-90.46 328.29,-97.43"/>
</a>
</g>
</g>
<!-- Node14 -->
<g id="Node000014" class="node">
<title>Node14</title>
<g id="a_Node000014"><a xlink:href="classUdpChannel.html#a818443eac8b5aa21093fe3a1f39492a4" target="_top" xlink:title="Stop the UDP channel and its subsystems.">
<polygon fill="white" stroke="#666666" points="484.5,-57 338.5,-57 338.5,-38 484.5,-38 484.5,-57"/>
<text text-anchor="middle" x="411.5" y="-45" font-family="Helvetica,sans-Serif" font-size="10.00">UdpChannel::stopEndpoint</text>
</a>
</g>
</g>
<!-- Node3&#45;&gt;Node14 -->
<g id="edge16_Node000003_Node000014" class="edge">
<title>Node3&#45;&gt;Node14</title>
<g id="a_edge16_Node000003_Node000014"><a xlink:title=" ">
<path fill="none" stroke="#63b8ff" d="M259.39,-93.91C280.23,-86.05 310.84,-74.9 338,-66.5 345.6,-64.15 353.71,-61.84 361.65,-59.68"/>
<polygon fill="#63b8ff" stroke="#63b8ff" points="362.81,-62.99 371.57,-57.04 361,-56.23 362.81,-62.99"/>
</a>
</g>
</g>
<!-- Node5 -->
<g id="Node000005" class="node">
<title>Node5</title>
<g id="a_Node000005"><a xlink:href="classTestBenchStatesList.html#ac8cae632bf7e555a42e7244fc796d4fb" target="_top" xlink:title=" ">
<polygon fill="white" stroke="#666666" points="657,-179.5 543,-179.5 543,-149.5 657,-149.5 657,-179.5"/>
<text text-anchor="start" x="551" y="-167.5" font-family="Helvetica,sans-Serif" font-size="10.00">TestBenchStatesList</text>
<text text-anchor="middle" x="600" y="-156.5" font-family="Helvetica,sans-Serif" font-size="10.00">::append</text>
</a>
</g>
</g>
<!-- Node4&#45;&gt;Node5 -->
<g id="edge4_Node000004_Node000005" class="edge">
<title>Node4&#45;&gt;Node5</title>
<g id="a_edge4_Node000004_Node000005"><a xlink:title=" ">
<path fill="none" stroke="#63b8ff" d="M475.64,-163.18C494.01,-163.37 514.12,-163.59 532.68,-163.79"/>
<polygon fill="#63b8ff" stroke="#63b8ff" points="532.77,-167.29 542.81,-163.9 532.84,-160.29 532.77,-167.29"/>
</a>
</g>
</g>
<!-- Node8 -->
<g id="Node000008" class="node">
<title>Node8</title>
<g id="a_Node000008"><a xlink:href="classUdpLogger.html#a55781f93bfc47a004e7b7b8afaa0192c" target="_top" xlink:title="Initialize the writer and start the writer thread.">
<polygon fill="white" stroke="#666666" points="649,-94 551,-94 551,-75 649,-75 649,-94"/>
<text text-anchor="middle" x="600" y="-82" font-family="Helvetica,sans-Serif" font-size="10.00">UdpLogger::start</text>
</a>
</g>
</g>
<!-- Node7&#45;&gt;Node8 -->
<g id="edge7_Node000007_Node000008" class="edge">
<title>Node7&#45;&gt;Node8</title>
<g id="a_edge7_Node000007_Node000008"><a xlink:title=" ">
<path fill="none" stroke="#63b8ff" d="M485.14,-85.11C503.61,-85.01 523.21,-84.91 540.85,-84.81"/>
<polygon fill="#63b8ff" stroke="#63b8ff" points="541.01,-88.31 550.99,-84.76 540.97,-81.31 541.01,-88.31"/>
</a>
</g>
</g>
<!-- Node13 -->
<g id="Node000013" class="node">
<title>Node13</title>
<g id="a_Node000013"><a xlink:href="classUdpChannel.html#a48718b685a3059703ffbb06980376f7e" target="_top" xlink:title="Instructs the UdpWorker to start listening.">
<polygon fill="white" stroke="#666666" points="679,-131 521,-131 521,-112 679,-112 679,-131"/>
<text text-anchor="middle" x="600" y="-119" font-family="Helvetica,sans-Serif" font-size="10.00">UdpChannel::startUdpWorker</text>
</a>
</g>
</g>
<!-- Node7&#45;&gt;Node13 -->
<g id="edge15_Node000007_Node000013" class="edge">
<title>Node7&#45;&gt;Node13</title>
<g id="a_edge15_Node000007_Node000013"><a xlink:title=" ">
<path fill="none" stroke="#63b8ff" d="M461.99,-95.05C485.8,-99.65 514.52,-105.19 539.51,-110.02"/>
<polygon fill="#63b8ff" stroke="#63b8ff" points="539.12,-113.51 549.6,-111.97 540.45,-106.63 539.12,-113.51"/>
</a>
</g>
</g>
<!-- Node9 -->
<g id="Node000009" class="node">
<title>Node9</title>
<g id="a_Node000009"><a xlink:href="classLogger.html#ad89b36eb9b5a28d1f61b3c74a6975031" target="_top" xlink:title=" ">
<polygon fill="white" stroke="#666666" points="964,-58 878,-58 878,-39 964,-39 964,-58"/>
<text text-anchor="middle" x="921" y="-46" font-family="Helvetica,sans-Serif" font-size="10.00">Logger::debug</text>
</a>
</g>
</g>
<!-- Node8&#45;&gt;Node9 -->
<g id="edge8_Node000008_Node000009" class="edge">
<title>Node8&#45;&gt;Node9</title>
<g id="a_edge8_Node000008_Node000009"><a xlink:title=" ">
<path fill="none" stroke="#63b8ff" d="M649.16,-76.14C669.44,-72.82 693.32,-69.16 715,-66.5 766.81,-60.14 826.27,-55.18 867.76,-52.09"/>
<polygon fill="#63b8ff" stroke="#63b8ff" points="868.18,-55.57 877.9,-51.34 867.67,-48.58 868.18,-55.57"/>
</a>
</g>
</g>
<!-- Node11 -->
<g id="Node000011" class="node">
<title>Node11</title>
<g id="a_Node000011"><a xlink:href="classLogger.html#a6c8bf2fc8c89d76b7f4fe25d97ad4bf3" target="_top" xlink:title=" ">
<polygon fill="white" stroke="#666666" points="960.5,-95 881.5,-95 881.5,-76 960.5,-76 960.5,-95"/>
<text text-anchor="middle" x="921" y="-83" font-family="Helvetica,sans-Serif" font-size="10.00">Logger::error</text>
</a>
</g>
</g>
<!-- Node8&#45;&gt;Node11 -->
<g id="edge10_Node000008_Node000011" class="edge">
<title>Node8&#45;&gt;Node11</title>
<g id="a_edge10_Node000008_Node000011"><a xlink:title=" ">
<path fill="none" stroke="#63b8ff" d="M644.89,-94.04C665.97,-98.15 691.68,-102.47 715,-104.5 771.23,-109.4 785.96,-111.23 842,-104.5 853.99,-103.06 866.79,-100.42 878.49,-97.56"/>
<polygon fill="#63b8ff" stroke="#63b8ff" points="879.62,-100.88 888.44,-95.01 877.88,-94.1 879.62,-100.88"/>
</a>
</g>
</g>
<!-- Node12 -->
<g id="Node000012" class="node">
<title>Node12</title>
<g id="a_Node000012"><a xlink:href="classUdpLogger.html#a4f7e8bb32128f9186dc452a57134475d" target="_top" xlink:title="Writer loop executed on m_writerThread.">
<polygon fill="white" stroke="#666666" points="842,-95 715,-95 715,-76 842,-76 842,-95"/>
<text text-anchor="middle" x="778.5" y="-83" font-family="Helvetica,sans-Serif" font-size="10.00">UdpLogger::writerLoop</text>
</a>
</g>
</g>
<!-- Node8&#45;&gt;Node12 -->
<g id="edge12_Node000008_Node000012" class="edge">
<title>Node8&#45;&gt;Node12</title>
<g id="a_edge12_Node000008_Node000012"><a xlink:title=" ">
<path fill="none" stroke="#63b8ff" d="M649.23,-84.77C666.28,-84.87 685.86,-84.98 704.51,-85.09"/>
<polygon fill="#63b8ff" stroke="#63b8ff" points="704.72,-88.59 714.74,-85.14 704.76,-81.59 704.72,-88.59"/>
</a>
</g>
</g>
<!-- Node10 -->
<g id="Node000010" class="node">
<title>Node10</title>
<g id="a_Node000010"><a xlink:href="classLogger.html#a02453fd0695fe06c495de714399e8bf7" target="_top" xlink:title=" ">
<polygon fill="white" stroke="#666666" points="1135,-76 1000,-76 1000,-57 1135,-57 1135,-76"/>
<text text-anchor="middle" x="1067.5" y="-64" font-family="Helvetica,sans-Serif" font-size="10.00">Logger::messageLogged</text>
</a>
</g>
</g>
<!-- Node9&#45;&gt;Node10 -->
<g id="edge9_Node000009_Node000010" class="edge">
<title>Node9&#45;&gt;Node10</title>
<g id="a_edge9_Node000009_Node000010"><a xlink:title=" ">
<path fill="none" stroke="#63b8ff" d="M964.18,-53.75C972.29,-54.77 981.02,-55.85 989.83,-56.95"/>
<polygon fill="#63b8ff" stroke="#63b8ff" points="989.44,-60.43 999.79,-58.19 990.3,-53.48 989.44,-60.43"/>
</a>
</g>
</g>
<!-- Node11&#45;&gt;Node10 -->
<g id="edge11_Node000011_Node000010" class="edge">
<title>Node11&#45;&gt;Node10</title>
<g id="a_edge11_Node000011_Node000010"><a xlink:title=" ">
<path fill="none" stroke="#63b8ff" d="M960.72,-80.41C969.75,-79.22 979.68,-77.92 989.72,-76.6"/>
<polygon fill="#63b8ff" stroke="#63b8ff" points="990.32,-80.05 999.78,-75.27 989.4,-73.11 990.32,-80.05"/>
</a>
</g>
</g>
<!-- Node12&#45;&gt;Node9 -->
<g id="edge13_Node000012_Node000009" class="edge">
<title>Node12&#45;&gt;Node9</title>
<g id="a_edge13_Node000012_Node000009"><a xlink:title=" ">
<path fill="none" stroke="#63b8ff" d="M815.68,-75.97C833.33,-71.33 854.75,-65.68 873.59,-60.72"/>
<polygon fill="#63b8ff" stroke="#63b8ff" points="874.67,-64.06 883.45,-58.12 872.89,-57.29 874.67,-64.06"/>
</a>
</g>
</g>
<!-- Node12&#45;&gt;Node11 -->
<g id="edge14_Node000012_Node000011" class="edge">
<title>Node12&#45;&gt;Node11</title>
<g id="a_edge14_Node000012_Node000011"><a xlink:title=" ">
<path fill="none" stroke="#63b8ff" d="M842.35,-85.5C852.01,-85.5 861.86,-85.5 871.16,-85.5"/>
<polygon fill="#63b8ff" stroke="#63b8ff" points="871.38,-89 881.38,-85.5 871.38,-82 871.38,-89"/>
</a>
</g>
</g>
<!-- Node15 -->
<g id="Node000015" class="node">
<title>Node15</title>
<g id="a_Node000015"><a xlink:href="classUdpLogger.html#a09b32cc5531b9db48cde09d12d1c321f" target="_top" xlink:title="Signal the writer loop to stop and join the writer thread.">
<polygon fill="white" stroke="#666666" points="826.5,-19 730.5,-19 730.5,0 826.5,0 826.5,-19"/>
<text text-anchor="middle" x="778.5" y="-7" font-family="Helvetica,sans-Serif" font-size="10.00">UdpLogger::stop</text>
</a>
</g>
</g>
<!-- Node14&#45;&gt;Node15 -->
<g id="edge17_Node000014_Node000015" class="edge">
<title>Node14&#45;&gt;Node15</title>
<g id="a_edge17_Node000014_Node000015"><a xlink:title=" ">
<path fill="none" stroke="#63b8ff" d="M460.96,-37.95C479.66,-34.55 501.26,-30.95 521,-28.5 589.13,-20.03 667.94,-14.88 720.04,-12.12"/>
<polygon fill="#63b8ff" stroke="#63b8ff" points="720.28,-15.61 730.09,-11.6 719.92,-8.62 720.28,-15.61"/>
</a>
</g>
</g>
<!-- Node16 -->
<g id="Node000016" class="node">
<title>Node16</title>
<g id="a_Node000016"><a xlink:href="classUdpChannel.html#a8e42a953d827d6a78a4867ba05b6a4ca" target="_top" xlink:title="Instructs the UdpWorker to stop.">
<polygon fill="white" stroke="#666666" points="678,-57 522,-57 522,-38 678,-38 678,-57"/>
<text text-anchor="middle" x="600" y="-45" font-family="Helvetica,sans-Serif" font-size="10.00">UdpChannel::stopUdpWorker</text>
</a>
</g>
</g>
<!-- Node14&#45;&gt;Node16 -->
<g id="edge19_Node000014_Node000016" class="edge">
<title>Node14&#45;&gt;Node16</title>
<g id="a_edge19_Node000014_Node000016"><a xlink:title=" ">
<path fill="none" stroke="#63b8ff" d="M484.61,-47.5C493.47,-47.5 502.6,-47.5 511.66,-47.5"/>
<polygon fill="#63b8ff" stroke="#63b8ff" points="511.83,-51 521.83,-47.5 511.83,-44 511.83,-51"/>
</a>
</g>
</g>
<!-- Node15&#45;&gt;Node9 -->
<g id="edge18_Node000015_Node000009" class="edge">
<title>Node15&#45;&gt;Node9</title>
<g id="a_edge18_Node000015_Node000009"><a xlink:title=" ">
<path fill="none" stroke="#63b8ff" d="M813.87,-19.04C832.5,-24.21 855.72,-30.66 875.69,-36.2"/>
<polygon fill="#63b8ff" stroke="#63b8ff" points="874.93,-39.62 885.5,-38.92 876.8,-32.88 874.93,-39.62"/>
</a>
</g>
</g>
</g>
</svg>
