<?xml version="1.0" encoding="UTF-8" standalone="no"?>
<!DOCTYPE svg PUBLIC "-//W3C//DTD SVG 1.1//EN"
 "http://www.w3.org/Graphics/SVG/1.1/DTD/svg11.dtd">
<!-- Generated by graphviz version 2.43.0 (0)
 -->
<!-- Title: UdpChannel::onDatagramReceived Pages: 1 -->
<!--zoomable 224 -->

<svg id="main" version="1.1" xmlns="http://www.w3.org/2000/svg" xmlns:xlink="http://www.w3.org/1999/xlink" xml:space="preserve" onload="init(evt)">
<style type="text/css"><![CDATA[
.node, .edge {opacity: 0.7;}
.node.selected, .edge.selected {opacity: 1;}
.edge:hover path { stroke: red; }
.edge:hover polygon { stroke: red; fill: red; }
]]></style>

<defs>
  <circle id="rim" cx="0" cy="0" r="7"/>
  <circle id="rim2" cx="0" cy="0" r="3.5"/>
  <g id="zoomPlus">
    <use xlink:href="#rim" fill="#404040"><set attributeName="fill" to="#808080" begin="zoomplus.mouseover" end="zoomplus.mouseout"/></use>
    <path d="M-4,0h8M0,-4v8" fill="none" stroke="white" stroke-width="1.5" pointer-events="none"/>
  </g>
  <g id="zoomMin">
    <use xlink:href="#rim" fill="#404040"><set attributeName="fill" to="#808080" begin="zoomminus.mouseover" end="zoomminus.mouseout"/></use>
    <path d="M-4,0h8" fill="none" stroke="white" stroke-width="1.5" pointer-events="none"/>
  </g>
  <g id="arrowUp" transform="translate(30 24)">
    <use xlink:href="#rim"/>
    <path pointer-events="none" fill="none" stroke="white" stroke-width="1.5" d="M0,-3.0v7 M-2.5,-0.5L0,-3.0L2.5,-0.5"/>
  </g>
  <g id="arrowRight" transform="rotate(90) translate(36 -43)">
    <use xlink:href="#rim"/>
    <path pointer-events="none" fill="none" stroke="white" stroke-width="1.5" d="M0,-3.0v7 M-2.5,-0.5L0,-3.0L2.5,-0.5"/>
  </g>
  <g id="arrowDown" transform="rotate(180) translate(-30 -48)">
    <use xlink:href="#rim"/>
    <path pointer-events="none" fill="none" stroke="white" stroke-width="1.5" d="M0,-3.0v7 M-2.5,-0.5L0,-3.0L2.5,-0.5"/>
  </g>
  <g id="arrowLeft" transform="rotate(270) translate(-36 17)">
    <use xlink:href="#rim"/>
    <path pointer-events="none" fill="none" stroke="white" stroke-width="1.5" d="M0,-3.0v7 M-2.5,-0.5L0,-3.0L2.5,-0.5"/>
  </g>
  <g id="resetDef">
    <use xlink:href="#rim2" fill="#404040"><set attributeName="fill" to="#808080" begin="reset.mouseover" end="reset.mouseout"/></use>
  </g>
</defs>
<script type="application/ecmascript">
var viewWidth = 572;
var viewHeight = 224;
var sectionId = 'dynsection-11';
</script>
<script type="application/ecmascript" xlink:href="svg.min.js"/>
<svg id="graph" class="graph">
<g id="viewport">
<title>UdpChannel::onDatagramReceived</title>
<!-- Node1 -->
<g id="Node000001" class="node">
<title>Node1</title>
<g id="a_Node000001"><a xlink:title="Decode and dispatch the data received via UDP for it to be used in the entire program.">
<polygon fill="#999999" stroke="#666666" points="188,-111 0,-111 0,-92 188,-92 188,-111"/>
<text text-anchor="middle" x="94" y="-99" font-family="Helvetica,sans-Serif" font-size="10.00">UdpChannel::onDatagramReceived</text>
</a>
</g>
</g>
<!-- Node2 -->
<g id="Node000002" class="node">
<title>Node2</title>
<g id="a_Node000002"><a xlink:href="classUdpChannel.html#a2193dfeb846961d6171734814685e689" target="_top" xlink:title=" ">
<polygon fill="white" stroke="#666666" points="398,-216 240,-216 240,-197 398,-197 398,-216"/>
<text text-anchor="middle" x="319" y="-204" font-family="Helvetica,sans-Serif" font-size="10.00">UdpChannel::AckBBReceived</text>
</a>
</g>
</g>
<!-- Node1&#45;&gt;Node2 -->
<g id="edge1_Node000001_Node000002" class="edge">
<title>Node1&#45;&gt;Node2</title>
<g id="a_edge1_Node000001_Node000002"><a xlink:title=" ">
<path fill="none" stroke="#63b8ff" d="M106.21,-111.22C127.57,-129.21 176.27,-167.67 224,-187.5 230.2,-190.07 236.78,-192.31 243.46,-194.25"/>
<polygon fill="#63b8ff" stroke="#63b8ff" points="242.73,-197.68 253.29,-196.88 244.54,-190.91 242.73,-197.68"/>
</a>
</g>
</g>
<!-- Node3 -->
<g id="Node000003" class="node">
<title>Node3</title>
<g id="a_Node000003"><a xlink:href="classUdpChannel.html#a365d3463ec51e0e296cf7cd1dee7ed61" target="_top" xlink:title=" ">
<polygon fill="white" stroke="#666666" points="390.5,-178.5 247.5,-178.5 247.5,-148.5 390.5,-148.5 390.5,-178.5"/>
<text text-anchor="start" x="255.5" y="-166.5" font-family="Helvetica,sans-Serif" font-size="10.00">UdpChannel::controlEvent</text>
<text text-anchor="middle" x="319" y="-155.5" font-family="Helvetica,sans-Serif" font-size="10.00">Received</text>
</a>
</g>
</g>
<!-- Node1&#45;&gt;Node3 -->
<g id="edge2_Node000001_Node000003" class="edge">
<title>Node1&#45;&gt;Node3</title>
<g id="a_edge2_Node000001_Node000003"><a xlink:title=" ">
<path fill="none" stroke="#63b8ff" d="M126.19,-111.03C152.26,-118.92 190.46,-130.28 224,-139.5 231.74,-141.63 239.85,-143.79 247.93,-145.91"/>
<polygon fill="#63b8ff" stroke="#63b8ff" points="247.18,-149.33 257.74,-148.46 248.94,-142.56 247.18,-149.33"/>
</a>
</g>
</g>
<!-- Node4 -->
<g id="Node000004" class="node">
<title>Node4</title>
<g id="a_Node000004"><a xlink:href="classUdpChannel.html#a7034be0bcd3d6e544e76914af8de9301" target="_top" xlink:title=" ">
<polygon fill="white" stroke="#666666" points="409,-130 229,-130 229,-111 409,-111 409,-130"/>
<text text-anchor="middle" x="319" y="-118" font-family="Helvetica,sans-Serif" font-size="10.00">UdpChannel::countdownReceived</text>
</a>
</g>
</g>
<!-- Node1&#45;&gt;Node4 -->
<g id="edge3_Node000001_Node000004" class="edge">
<title>Node1&#45;&gt;Node4</title>
<g id="a_edge3_Node000001_Node000004"><a xlink:title=" ">
<path fill="none" stroke="#63b8ff" d="M188.28,-109.45C198.31,-110.3 208.53,-111.17 218.63,-112.03"/>
<polygon fill="#63b8ff" stroke="#63b8ff" points="218.4,-115.53 228.66,-112.89 219,-108.55 218.4,-115.53"/>
</a>
</g>
</g>
<!-- Node5 -->
<g id="Node000005" class="node">
<title>Node5</title>
<g id="a_Node000005"><a xlink:href="classProtocolCodec.html#ab45b52d99e2ec983883aa25c8ba6f42e" target="_top" xlink:title=" ">
<polygon fill="white" stroke="#666666" points="383,-93 255,-93 255,-74 383,-74 383,-93"/>
<text text-anchor="middle" x="319" y="-81" font-family="Helvetica,sans-Serif" font-size="10.00">ProtocolCodec::decode</text>
</a>
</g>
</g>
<!-- Node1&#45;&gt;Node5 -->
<g id="edge4_Node000001_Node000005" class="edge">
<title>Node1&#45;&gt;Node5</title>
<g id="a_edge4_Node000001_Node000005"><a xlink:title=" ">
<path fill="none" stroke="#63b8ff" d="M188.28,-93.97C207.12,-92.45 226.68,-90.87 244.72,-89.41"/>
<polygon fill="#63b8ff" stroke="#63b8ff" points="245.18,-92.89 254.86,-88.6 244.61,-85.91 245.18,-92.89"/>
</a>
</g>
</g>
<!-- Node7 -->
<g id="Node000007" class="node">
<title>Node7</title>
<g id="a_Node000007"><a xlink:href="classUdpChannel.html#af3ab9278a84d7d0e1a3d2225637ed310" target="_top" xlink:title=" ">
<polygon fill="white" stroke="#666666" points="406.5,-56 231.5,-56 231.5,-37 406.5,-37 406.5,-56"/>
<text text-anchor="middle" x="319" y="-44" font-family="Helvetica,sans-Serif" font-size="10.00">UdpChannel::StatesListReceived</text>
</a>
</g>
</g>
<!-- Node1&#45;&gt;Node7 -->
<g id="edge6_Node000001_Node000007" class="edge">
<title>Node1&#45;&gt;Node7</title>
<g id="a_edge6_Node000001_Node000007"><a xlink:title=" ">
<path fill="none" stroke="#63b8ff" d="M126.64,-91.98C152.65,-84.32 190.54,-73.54 224,-65.5 234.66,-62.94 246.05,-60.44 257.1,-58.14"/>
<polygon fill="#63b8ff" stroke="#63b8ff" points="258.02,-61.52 267.12,-56.08 256.62,-54.66 258.02,-61.52"/>
</a>
</g>
</g>
<!-- Node8 -->
<g id="Node000008" class="node">
<title>Node8</title>
<g id="a_Node000008"><a xlink:href="classUdpChannel.html#ad3e0230c654c877e37c146a86483dcb5" target="_top" xlink:title=" ">
<polygon fill="white" stroke="#666666" points="414,-19 224,-19 224,0 414,0 414,-19"/>
<text text-anchor="middle" x="319" y="-7" font-family="Helvetica,sans-Serif" font-size="10.00">UdpChannel::textMessageReceived</text>
</a>
</g>
</g>
<!-- Node1&#45;&gt;Node8 -->
<g id="edge7_Node000001_Node000008" class="edge">
<title>Node1&#45;&gt;Node8</title>
<g id="a_edge7_Node000001_Node000008"><a xlink:title=" ">
<path fill="none" stroke="#63b8ff" d="M108.6,-91.86C131.38,-76.19 179.16,-45.24 224,-28.5 231.24,-25.8 238.94,-23.45 246.7,-21.42"/>
<polygon fill="#63b8ff" stroke="#63b8ff" points="247.65,-24.79 256.54,-19.01 245.99,-17.99 247.65,-24.79"/>
</a>
</g>
</g>
<!-- Node6 -->
<g id="Node000006" class="node">
<title>Node6</title>
<g id="a_Node000006"><a xlink:href="classTestBenchStatesList.html#ac8cae632bf7e555a42e7244fc796d4fb" target="_top" xlink:title=" ">
<polygon fill="white" stroke="#666666" points="564,-98.5 450,-98.5 450,-68.5 564,-68.5 564,-98.5"/>
<text text-anchor="start" x="458" y="-86.5" font-family="Helvetica,sans-Serif" font-size="10.00">TestBenchStatesList</text>
<text text-anchor="middle" x="507" y="-75.5" font-family="Helvetica,sans-Serif" font-size="10.00">::append</text>
</a>
</g>
</g>
<!-- Node5&#45;&gt;Node6 -->
<g id="edge5_Node000005_Node000006" class="edge">
<title>Node5&#45;&gt;Node6</title>
<g id="a_edge5_Node000005_Node000006"><a xlink:title=" ">
<path fill="none" stroke="#63b8ff" d="M383.23,-83.5C401.45,-83.5 421.37,-83.5 439.76,-83.5"/>
<polygon fill="#63b8ff" stroke="#63b8ff" points="439.8,-87 449.8,-83.5 439.8,-80 439.8,-87"/>
</a>
</g>
</g>
</g>
</svg>

<g id="navigator" transform="translate(0 0)" fill="#404254">
  <rect fill="#f2f5e9" fill-opacity="0.5" stroke="#606060" stroke-width=".5" x="0" y="0" width="60" height="60"/>
  <use id="zoomplus" xlink:href="#zoomPlus" x="17" y="9" onmousedown="handleZoom(evt,'in')"/>
  <use id="zoomminus" xlink:href="#zoomMin" x="42" y="9" onmousedown="handleZoom(evt,'out')"/>
  <use id="reset" xlink:href="#resetDef" x="30" y="36" onmousedown="handleReset()"/>
   <use id="arrowup" xlink:href="#arrowUp" x="0" y="0" onmousedown="handlePan(0,-1)"/>
  <use id="arrowright" xlink:href="#arrowRight" x="0" y="0" onmousedown="handlePan(1,0)"/>
  <use id="arrowdown" xlink:href="#arrowDown" x="0" y="0" onmousedown="handlePan(0,1)"/>
  <use id="arrowleft" xlink:href="#arrowLeft" x="0" y="0" onmousedown="handlePan(-1,0)"/>
</g>
<svg viewBox="0 0 15 15" width="100%" height="30px" preserveAspectRatio="xMaxYMin meet">
 <g id="arrow_out" transform="scale(0.3 0.3)">
  <a xlink:href="classUdpChannel_a4f2c0c2ee1edbc192415cbb518bc44dd_cgraph_org.svg" target="_base">
   <rect id="button" ry="5" rx="5" y="6" x="6" height="38" width="38"
        fill="#f2f5e9" fill-opacity="0.5" stroke="#606060" stroke-width="1.0"/>
   <path id="arrow"
     d="M 11.500037,31.436501 C 11.940474,20.09759 22.043105,11.32322 32.158766,21.979434 L 37.068811,17.246167 C 37.068811,17.246167 37.088388,32 37.088388,32 L 22.160133,31.978069 C 22.160133,31.978069 26.997745,27.140456 26.997745,27.140456 C 18.528582,18.264221 13.291696,25.230495 11.500037,31.436501 z"
     style="fill:#404040;"/>
  </a>
 </g>
</svg>

<style type='text/css'>
<![CDATA[
[data-mouse-over-selected='false'] { opacity: 0.7; }
[data-mouse-over-selected='true']  { opacity: 1.0; }
]]>
</style>
<script type="application/ecmascript"><![CDATA[
document.addEventListener('DOMContentLoaded', (event) => {
  highlightEdges();
  highlightAdjacentNodes();
});
]]></script>
</svg>
