<?xml version="1.0" encoding="UTF-8" standalone="no"?>
<!DOCTYPE svg PUBLIC "-//W3C//DTD SVG 1.1//EN"
 "http://www.w3.org/Graphics/SVG/1.1/DTD/svg11.dtd">
<!-- Generated by graphviz version 2.43.0 (0)
 -->
<!-- Title: TankPressureSettingsIndicatorViewModel::TankPressureSettingsIndicatorViewModel Pages: 1 -->
<svg width="708pt" height="110pt"
 viewBox="0.00 0.00 708.00 110.00" xmlns="http://www.w3.org/2000/svg" xmlns:xlink="http://www.w3.org/1999/xlink">
<g id="graph0" class="graph" transform="scale(1 1) rotate(0) translate(4 106)">
<title>TankPressureSettingsIndicatorViewModel::TankPressureSettingsIndicatorViewModel</title>
<!-- Node1 -->
<g id="Node000001" class="node">
<title>Node1</title>
<g id="a_Node000001"><a xlink:title=" ">
<polygon fill="#999999" stroke="#666666" points="224,-59.5 0,-59.5 0,-18.5 224,-18.5 224,-59.5"/>
<text text-anchor="start" x="8" y="-47.5" font-family="Helvetica,sans-Serif" font-size="10.00">TankPressureSettingsIndicator</text>
<text text-anchor="start" x="8" y="-36.5" font-family="Helvetica,sans-Serif" font-size="10.00">ViewModel::TankPressureSettingsIndicator</text>
<text text-anchor="middle" x="112" y="-25.5" font-family="Helvetica,sans-Serif" font-size="10.00">ViewModel</text>
</a>
</g>
</g>
<!-- Node2 -->
<g id="Node000002" class="node">
<title>Node2</title>
<g id="a_Node000002"><a xlink:href="classTankPressureSettingsIndicatorViewModel.html#a6709ca061ba729309b6ee14946a2815e" target="_top" xlink:title=" ">
<polygon fill="white" stroke="#666666" points="468,-78 260,-78 260,-48 468,-48 468,-78"/>
<text text-anchor="start" x="268" y="-66" font-family="Helvetica,sans-Serif" font-size="10.00">TankPressureSettingsIndicator</text>
<text text-anchor="middle" x="364" y="-55" font-family="Helvetica,sans-Serif" font-size="10.00">ViewModel::onPressureSettingChanged</text>
</a>
</g>
</g>
<!-- Node1&#45;&gt;Node2 -->
<g id="edge1_Node000001_Node000002" class="edge">
<title>Node1&#45;&gt;Node2</title>
<g id="a_edge1_Node000001_Node000002"><a xlink:title=" ">
<path fill="none" stroke="#63b8ff" d="M224.11,-49.67C232.64,-50.49 241.26,-51.31 249.8,-52.13"/>
<polygon fill="#63b8ff" stroke="#63b8ff" points="249.49,-55.62 259.78,-53.09 250.16,-48.65 249.49,-55.62"/>
</a>
</g>
</g>
<!-- Node5 -->
<g id="Node000005" class="node">
<title>Node5</title>
<g id="a_Node000005"><a xlink:href="classPressureTanksModel.html#acc5628f0ceb33f3c0a87fe7b3807015a" target="_top" xlink:title=" ">
<polygon fill="white" stroke="#666666" points="435,-30 293,-30 293,0 435,0 435,-30"/>
<text text-anchor="start" x="301" y="-18" font-family="Helvetica,sans-Serif" font-size="10.00">PressureTanksModel</text>
<text text-anchor="middle" x="364" y="-7" font-family="Helvetica,sans-Serif" font-size="10.00">::pressureSettingChanged</text>
</a>
</g>
</g>
<!-- Node1&#45;&gt;Node5 -->
<g id="edge4_Node000001_Node000005" class="edge">
<title>Node1&#45;&gt;Node5</title>
<g id="a_edge4_Node000001_Node000005"><a xlink:title=" ">
<path fill="none" stroke="#63b8ff" d="M224.11,-28.33C243.81,-26.44 263.97,-24.51 282.61,-22.72"/>
<polygon fill="#63b8ff" stroke="#63b8ff" points="283.17,-26.18 292.79,-21.74 282.5,-19.21 283.17,-26.18"/>
</a>
</g>
</g>
<!-- Node3 -->
<g id="Node000003" class="node">
<title>Node3</title>
<g id="a_Node000003"><a xlink:href="classPressureTanksModel.html#aa09d9ed549deb2bab81b62e91a578d24" target="_top" xlink:title=" ">
<polygon fill="white" stroke="#666666" points="660,-102 544,-102 544,-72 660,-72 660,-102"/>
<text text-anchor="start" x="552" y="-90" font-family="Helvetica,sans-Serif" font-size="10.00">PressureTanksModel</text>
<text text-anchor="middle" x="602" y="-79" font-family="Helvetica,sans-Serif" font-size="10.00">::getPressureSetting</text>
</a>
</g>
</g>
<!-- Node2&#45;&gt;Node3 -->
<g id="edge2_Node000002_Node000003" class="edge">
<title>Node2&#45;&gt;Node3</title>
<g id="a_edge2_Node000002_Node000003"><a xlink:title=" ">
<path fill="none" stroke="#63b8ff" d="M468.17,-73.49C490.35,-75.75 513.23,-78.07 533.63,-80.15"/>
<polygon fill="#63b8ff" stroke="#63b8ff" points="533.43,-83.65 543.74,-81.18 534.14,-76.68 533.43,-83.65"/>
</a>
</g>
</g>
<!-- Node4 -->
<g id="Node000004" class="node">
<title>Node4</title>
<g id="a_Node000004"><a xlink:href="classTankPressureSettingsIndicatorViewModel.html#abb5c9ebf355ddf2758486b7ab6763a3b" target="_top" xlink:title=" ">
<polygon fill="white" stroke="#666666" points="700,-54 504,-54 504,-24 700,-24 700,-54"/>
<text text-anchor="start" x="512" y="-42" font-family="Helvetica,sans-Serif" font-size="10.00">TankPressureSettingsIndicator</text>
<text text-anchor="middle" x="602" y="-31" font-family="Helvetica,sans-Serif" font-size="10.00">ViewModel::PressureSettingChanged</text>
</a>
</g>
</g>
<!-- Node2&#45;&gt;Node4 -->
<g id="edge3_Node000002_Node000004" class="edge">
<title>Node2&#45;&gt;Node4</title>
<g id="a_edge3_Node000002_Node000004"><a xlink:title=" ">
<path fill="none" stroke="#63b8ff" d="M468.17,-52.51C476.55,-51.66 485.02,-50.79 493.43,-49.94"/>
<polygon fill="#63b8ff" stroke="#63b8ff" points="494.05,-53.39 503.64,-48.9 493.34,-46.43 494.05,-53.39"/>
</a>
</g>
</g>
</g>
</svg>
