<?xml version="1.0" encoding="UTF-8" standalone="no"?>
<!DOCTYPE svg PUBLIC "-//W3C//DTD SVG 1.1//EN"
 "http://www.w3.org/Graphics/SVG/1.1/DTD/svg11.dtd">
<!-- Generated by graphviz version 2.43.0 (0)
 -->
<!-- Title: SensorValueIndicator::onValueChanged Pages: 1 -->
<svg width="651pt" height="157pt"
 viewBox="0.00 0.00 651.00 157.00" xmlns="http://www.w3.org/2000/svg" xmlns:xlink="http://www.w3.org/1999/xlink">
<g id="graph0" class="graph" transform="scale(1 1) rotate(0) translate(4 153)">
<title>SensorValueIndicator::onValueChanged</title>
<!-- Node1 -->
<g id="Node000001" class="node">
<title>Node1</title>
<g id="a_Node000001"><a xlink:title=" ">
<polygon fill="#999999" stroke="#666666" points="119,-78 0,-78 0,-48 119,-48 119,-78"/>
<text text-anchor="start" x="8" y="-66" font-family="Helvetica,sans-Serif" font-size="10.00">SensorValueIndicator</text>
<text text-anchor="middle" x="59.5" y="-55" font-family="Helvetica,sans-Serif" font-size="10.00">::onValueChanged</text>
</a>
</g>
</g>
<!-- Node2 -->
<g id="Node000002" class="node">
<title>Node2</title>
<g id="a_Node000002"><a xlink:href="classSensorValueIndicatorViewModel.html#a52a37b6aa8c8b97cbeb288567d4ed2ae" target="_top" xlink:title=" ">
<polygon fill="white" stroke="#666666" points="298,-126 155,-126 155,-96 298,-96 298,-126"/>
<text text-anchor="start" x="163" y="-114" font-family="Helvetica,sans-Serif" font-size="10.00">SensorValueIndicatorView</text>
<text text-anchor="middle" x="226.5" y="-103" font-family="Helvetica,sans-Serif" font-size="10.00">Model::sensorValue</text>
</a>
</g>
</g>
<!-- Node1&#45;&gt;Node2 -->
<g id="edge1_Node000001_Node000002" class="edge">
<title>Node1&#45;&gt;Node2</title>
<g id="a_edge1_Node000001_Node000002"><a xlink:title=" ">
<path fill="none" stroke="#63b8ff" d="M112.25,-78.06C128.69,-82.84 147.02,-88.17 164.07,-93.13"/>
<polygon fill="#63b8ff" stroke="#63b8ff" points="163.35,-96.56 173.93,-96 165.31,-89.84 163.35,-96.56"/>
</a>
</g>
</g>
<!-- Node7 -->
<g id="Node000007" class="node">
<title>Node7</title>
<g id="a_Node000007"><a xlink:href="classSensorValueIndicatorViewModel.html#ae8d599ac6f9a95e0a1044ece62a0b122" target="_top" xlink:title=" ">
<polygon fill="white" stroke="#666666" points="298,-78 155,-78 155,-48 298,-48 298,-78"/>
<text text-anchor="start" x="163" y="-66" font-family="Helvetica,sans-Serif" font-size="10.00">SensorValueIndicatorView</text>
<text text-anchor="middle" x="226.5" y="-55" font-family="Helvetica,sans-Serif" font-size="10.00">Model::valueMention</text>
</a>
</g>
</g>
<!-- Node1&#45;&gt;Node7 -->
<g id="edge6_Node000001_Node000007" class="edge">
<title>Node1&#45;&gt;Node7</title>
<g id="a_edge6_Node000001_Node000007"><a xlink:title=" ">
<path fill="none" stroke="#63b8ff" d="M119.14,-63C127.46,-63 136.14,-63 144.79,-63"/>
<polygon fill="#63b8ff" stroke="#63b8ff" points="144.91,-66.5 154.91,-63 144.91,-59.5 144.91,-66.5"/>
</a>
</g>
</g>
<!-- Node8 -->
<g id="Node000008" class="node">
<title>Node8</title>
<g id="a_Node000008"><a xlink:href="classSensorValueIndicatorViewModel.html#ac011b0951ebb10c0899640f7aa261402" target="_top" xlink:title=" ">
<polygon fill="white" stroke="#666666" points="298,-30 155,-30 155,0 298,0 298,-30"/>
<text text-anchor="start" x="163" y="-18" font-family="Helvetica,sans-Serif" font-size="10.00">SensorValueIndicatorView</text>
<text text-anchor="middle" x="226.5" y="-7" font-family="Helvetica,sans-Serif" font-size="10.00">Model::valueUnit</text>
</a>
</g>
</g>
<!-- Node1&#45;&gt;Node8 -->
<g id="edge7_Node000001_Node000008" class="edge">
<title>Node1&#45;&gt;Node8</title>
<g id="a_edge7_Node000001_Node000008"><a xlink:title=" ">
<path fill="none" stroke="#63b8ff" d="M112.25,-47.94C128.69,-43.16 147.02,-37.83 164.07,-32.87"/>
<polygon fill="#63b8ff" stroke="#63b8ff" points="165.31,-36.16 173.93,-30 163.35,-29.44 165.31,-36.16"/>
</a>
</g>
</g>
<!-- Node3 -->
<g id="Node000003" class="node">
<title>Node3</title>
<g id="a_Node000003"><a xlink:href="classTestBenchModel.html#ad20ac636e12877b99b3bf0e2ee8e5b07" target="_top" xlink:title=" ">
<polygon fill="white" stroke="#666666" points="488,-140.5 339,-140.5 339,-121.5 488,-121.5 488,-140.5"/>
<text text-anchor="middle" x="413.5" y="-128.5" font-family="Helvetica,sans-Serif" font-size="10.00">TestBenchModel::getStatus</text>
</a>
</g>
</g>
<!-- Node2&#45;&gt;Node3 -->
<g id="edge2_Node000002_Node000003" class="edge">
<title>Node2&#45;&gt;Node3</title>
<g id="a_edge2_Node000002_Node000003"><a xlink:title=" ">
<path fill="none" stroke="#63b8ff" d="M298.23,-118.65C308.18,-119.72 318.48,-120.84 328.64,-121.93"/>
<polygon fill="#63b8ff" stroke="#63b8ff" points="328.42,-125.43 338.74,-123.03 329.17,-118.47 328.42,-125.43"/>
</a>
</g>
</g>
<!-- Node5 -->
<g id="Node000005" class="node">
<title>Node5</title>
<g id="a_Node000005"><a xlink:href="classTestBenchModel.html#ace6e3de6f5ccb11ee6e9b3f80b630377" target="_top" xlink:title=" ">
<polygon fill="white" stroke="#666666" points="493,-100.5 334,-100.5 334,-81.5 493,-81.5 493,-100.5"/>
<text text-anchor="middle" x="413.5" y="-88.5" font-family="Helvetica,sans-Serif" font-size="10.00">TestBenchModel::getStatusID</text>
</a>
</g>
</g>
<!-- Node2&#45;&gt;Node5 -->
<g id="edge4_Node000002_Node000005" class="edge">
<title>Node2&#45;&gt;Node5</title>
<g id="a_edge4_Node000002_Node000005"><a xlink:title=" ">
<path fill="none" stroke="#63b8ff" d="M298.23,-103.35C306.59,-102.45 315.2,-101.52 323.77,-100.59"/>
<polygon fill="#63b8ff" stroke="#63b8ff" points="324.22,-104.06 333.78,-99.51 323.47,-97.1 324.22,-104.06"/>
</a>
</g>
</g>
<!-- Node4 -->
<g id="Node000004" class="node">
<title>Node4</title>
<g id="a_Node000004"><a xlink:href="classTestBenchStatesList.html#a9c69f8c778b31be6b13d95caa7d618b9" target="_top" xlink:title=" ">
<polygon fill="white" stroke="#666666" points="643,-149 529,-149 529,-119 643,-119 643,-149"/>
<text text-anchor="start" x="537" y="-137" font-family="Helvetica,sans-Serif" font-size="10.00">TestBenchStatesList</text>
<text text-anchor="middle" x="586" y="-126" font-family="Helvetica,sans-Serif" font-size="10.00">::getValue</text>
</a>
</g>
</g>
<!-- Node3&#45;&gt;Node4 -->
<g id="edge3_Node000003_Node000004" class="edge">
<title>Node3&#45;&gt;Node4</title>
<g id="a_edge3_Node000003_Node000004"><a xlink:title=" ">
<path fill="none" stroke="#63b8ff" d="M488.29,-132.3C498.38,-132.48 508.68,-132.66 518.63,-132.83"/>
<polygon fill="#63b8ff" stroke="#63b8ff" points="518.77,-136.34 528.83,-133.01 518.9,-129.34 518.77,-136.34"/>
</a>
</g>
</g>
<!-- Node6 -->
<g id="Node000006" class="node">
<title>Node6</title>
<g id="a_Node000006"><a xlink:href="classTestBenchStatesList.html#ad87ab49f0bb0081c228afd6dae8c9e57" target="_top" xlink:title=" ">
<polygon fill="white" stroke="#666666" points="643,-101 529,-101 529,-71 643,-71 643,-101"/>
<text text-anchor="start" x="537" y="-89" font-family="Helvetica,sans-Serif" font-size="10.00">TestBenchStatesList</text>
<text text-anchor="middle" x="586" y="-78" font-family="Helvetica,sans-Serif" font-size="10.00">::getID</text>
</a>
</g>
</g>
<!-- Node5&#45;&gt;Node6 -->
<g id="edge5_Node000005_Node000006" class="edge">
<title>Node5&#45;&gt;Node6</title>
<g id="a_edge5_Node000005_Node000006"><a xlink:title=" ">
<path fill="none" stroke="#63b8ff" d="M493.26,-88.69C501.82,-88.44 510.47,-88.19 518.86,-87.94"/>
<polygon fill="#63b8ff" stroke="#63b8ff" points="519.04,-91.44 528.94,-87.64 518.84,-84.44 519.04,-91.44"/>
</a>
</g>
</g>
</g>
</svg>
