<?xml version="1.0" encoding="UTF-8" standalone="no"?>
<!DOCTYPE svg PUBLIC "-//W3C//DTD SVG 1.1//EN"
 "http://www.w3.org/Graphics/SVG/1.1/DTD/svg11.dtd">
<!-- Generated by graphviz version 2.43.0 (0)
 -->
<!-- Title: TankPressureSettingsIndicatorViewModel::PressureSettingChanged Pages: 1 -->
<svg width="708pt" height="130pt"
 viewBox="0.00 0.00 708.00 129.50" xmlns="http://www.w3.org/2000/svg" xmlns:xlink="http://www.w3.org/1999/xlink">
<g id="graph0" class="graph" transform="scale(1 1) rotate(0) translate(4 125.5)">
<title>TankPressureSettingsIndicatorViewModel::PressureSettingChanged</title>
<!-- Node1 -->
<g id="Node000001" class="node">
<title>Node1</title>
<g id="a_Node000001"><a xlink:title=" ">
<polygon fill="#999999" stroke="#666666" points="700,-78.5 504,-78.5 504,-48.5 700,-48.5 700,-78.5"/>
<text text-anchor="start" x="512" y="-66.5" font-family="Helvetica,sans-Serif" font-size="10.00">TankPressureSettingsIndicator</text>
<text text-anchor="middle" x="602" y="-55.5" font-family="Helvetica,sans-Serif" font-size="10.00">ViewModel::PressureSettingChanged</text>
</a>
</g>
</g>
<!-- Node2 -->
<g id="Node000002" class="node">
<title>Node2</title>
<g id="a_Node000002"><a xlink:href="classTankPressureSettingsIndicatorViewModel.html#a60e793f9b372966700649436d54edb39" target="_top" xlink:title=" ">
<polygon fill="white" stroke="#666666" points="446,-121.5 282,-121.5 282,-91.5 446,-91.5 446,-121.5"/>
<text text-anchor="start" x="290" y="-109.5" font-family="Helvetica,sans-Serif" font-size="10.00">TankPressureSettingsIndicator</text>
<text text-anchor="middle" x="364" y="-98.5" font-family="Helvetica,sans-Serif" font-size="10.00">ViewModel::initialise</text>
</a>
</g>
</g>
<!-- Node1&#45;&gt;Node2 -->
<g id="edge1_Node000001_Node000002" class="edge">
<title>Node1&#45;&gt;Node2</title>
<g id="a_edge1_Node000001_Node000002"><a xlink:title=" ">
<path fill="none" stroke="#63b8ff" d="M508.48,-80.36C487.95,-84.1 466.34,-88.04 446.3,-91.69"/>
<polygon fill="#63b8ff" stroke="#63b8ff" points="509.25,-83.78 518.46,-78.54 507.99,-76.89 509.25,-83.78"/>
</a>
</g>
</g>
<!-- Node3 -->
<g id="Node000003" class="node">
<title>Node3</title>
<g id="a_Node000003"><a xlink:href="classTankPressureIndicador.html#a6759304ab43f8d4676ccac701e004a65" target="_top" xlink:title=" ">
<polygon fill="white" stroke="#666666" points="178,-105.5 46,-105.5 46,-75.5 178,-75.5 178,-105.5"/>
<text text-anchor="start" x="54" y="-93.5" font-family="Helvetica,sans-Serif" font-size="10.00">TankPressureIndicador</text>
<text text-anchor="middle" x="112" y="-82.5" font-family="Helvetica,sans-Serif" font-size="10.00">::TankPressureIndicador</text>
</a>
</g>
</g>
<!-- Node1&#45;&gt;Node3 -->
<g id="edge5_Node000001_Node000003" class="edge">
<title>Node1&#45;&gt;Node3</title>
<g id="a_edge5_Node000001_Node000003"><a xlink:title=" ">
<path fill="none" stroke="#63b8ff" d="M493.64,-69.44C397.22,-74.77 258.79,-82.43 178.16,-86.9"/>
<polygon fill="#63b8ff" stroke="#63b8ff" points="493.92,-72.93 503.71,-68.88 493.53,-65.94 493.92,-72.93"/>
</a>
</g>
</g>
<!-- Node4 -->
<g id="Node000004" class="node">
<title>Node4</title>
<g id="a_Node000004"><a xlink:href="classTankPressureSettingsIndicatorViewModel.html#a6709ca061ba729309b6ee14946a2815e" target="_top" xlink:title=" ">
<polygon fill="white" stroke="#666666" points="468,-35.5 260,-35.5 260,-5.5 468,-5.5 468,-35.5"/>
<text text-anchor="start" x="268" y="-23.5" font-family="Helvetica,sans-Serif" font-size="10.00">TankPressureSettingsIndicator</text>
<text text-anchor="middle" x="364" y="-12.5" font-family="Helvetica,sans-Serif" font-size="10.00">ViewModel::onPressureSettingChanged</text>
</a>
</g>
</g>
<!-- Node1&#45;&gt;Node4 -->
<g id="edge3_Node000001_Node000004" class="edge">
<title>Node1&#45;&gt;Node4</title>
<g id="a_edge3_Node000001_Node000004"><a xlink:title=" ">
<path fill="none" stroke="#63b8ff" d="M508.38,-46.62C488.29,-42.96 467.16,-39.11 447.49,-35.53"/>
<polygon fill="#63b8ff" stroke="#63b8ff" points="507.99,-50.11 518.46,-48.46 509.25,-43.22 507.99,-50.11"/>
</a>
</g>
</g>
<!-- Node2&#45;&gt;Node3 -->
<g id="edge2_Node000002_Node000003" class="edge">
<title>Node2&#45;&gt;Node3</title>
<g id="a_edge2_Node000002_Node000003"><a xlink:title=" ">
<path fill="none" stroke="#63b8ff" d="M271.49,-100.64C240.61,-98.67 206.8,-96.5 178.36,-94.68"/>
<polygon fill="#63b8ff" stroke="#63b8ff" points="271.63,-104.16 281.83,-101.31 272.08,-97.17 271.63,-104.16"/>
</a>
</g>
</g>
<!-- Node5 -->
<g id="Node000005" class="node">
<title>Node5</title>
<g id="a_Node000005"><a xlink:href="classTankPressureSettingsIndicatorViewModel.html#abd7ce52bdceeefb3bdf1e2b446b83039" target="_top" xlink:title=" ">
<polygon fill="white" stroke="#666666" points="224,-41 0,-41 0,0 224,0 224,-41"/>
<text text-anchor="start" x="8" y="-29" font-family="Helvetica,sans-Serif" font-size="10.00">TankPressureSettingsIndicator</text>
<text text-anchor="start" x="8" y="-18" font-family="Helvetica,sans-Serif" font-size="10.00">ViewModel::TankPressureSettingsIndicator</text>
<text text-anchor="middle" x="112" y="-7" font-family="Helvetica,sans-Serif" font-size="10.00">ViewModel</text>
</a>
</g>
</g>
<!-- Node4&#45;&gt;Node5 -->
<g id="edge4_Node000004_Node000005" class="edge">
<title>Node4&#45;&gt;Node5</title>
<g id="a_edge4_Node000004_Node000005"><a xlink:title=" ">
<path fill="none" stroke="#63b8ff" d="M249.67,-20.5C241.27,-20.5 232.79,-20.5 224.4,-20.5"/>
<polygon fill="#63b8ff" stroke="#63b8ff" points="249.87,-24 259.87,-20.5 249.87,-17 249.87,-24"/>
</a>
</g>
</g>
</g>
</svg>
