<?xml version="1.0" encoding="UTF-8" standalone="no"?>
<!DOCTYPE svg PUBLIC "-//W3C//DTD SVG 1.1//EN"
 "http://www.w3.org/Graphics/SVG/1.1/DTD/svg11.dtd">
<!-- Generated by graphviz version 2.43.0 (0)
 -->
<!-- Title: TankPressureControlerViewModel::sensorDataChanged Pages: 1 -->
<svg width="613pt" height="86pt"
 viewBox="0.00 0.00 613.00 86.00" xmlns="http://www.w3.org/2000/svg" xmlns:xlink="http://www.w3.org/1999/xlink">
<g id="graph0" class="graph" transform="scale(1 1) rotate(0) translate(4 82)">
<title>TankPressureControlerViewModel::sensorDataChanged</title>
<!-- Node1 -->
<g id="Node000001" class="node">
<title>Node1</title>
<g id="a_Node000001"><a xlink:title=" ">
<polygon fill="#999999" stroke="#666666" points="605,-54 454,-54 454,-24 605,-24 605,-54"/>
<text text-anchor="start" x="462" y="-42" font-family="Helvetica,sans-Serif" font-size="10.00">TankPressureControlerView</text>
<text text-anchor="middle" x="529.5" y="-31" font-family="Helvetica,sans-Serif" font-size="10.00">Model::sensorDataChanged</text>
</a>
</g>
</g>
<!-- Node2 -->
<g id="Node000002" class="node">
<title>Node2</title>
<g id="a_Node000002"><a xlink:href="classTankPressureControlerViewModel.html#abaa8a0cdc649452e329a8be0c5bc4529" target="_top" xlink:title=" ">
<polygon fill="white" stroke="#666666" points="410,-78 260,-78 260,-48 410,-48 410,-78"/>
<text text-anchor="start" x="268" y="-66" font-family="Helvetica,sans-Serif" font-size="10.00">TankPressureControlerView</text>
<text text-anchor="middle" x="335" y="-55" font-family="Helvetica,sans-Serif" font-size="10.00">Model::initialise</text>
</a>
</g>
</g>
<!-- Node1&#45;&gt;Node2 -->
<g id="edge1_Node000001_Node000002" class="edge">
<title>Node1&#45;&gt;Node2</title>
<g id="a_edge1_Node000001_Node000002"><a xlink:title=" ">
<path fill="none" stroke="#63b8ff" d="M443.6,-49.59C432.41,-50.98 421.01,-52.4 410.03,-53.77"/>
<polygon fill="#63b8ff" stroke="#63b8ff" points="444.31,-53.02 453.8,-48.31 443.44,-46.08 444.31,-53.02"/>
</a>
</g>
</g>
<!-- Node3 -->
<g id="Node000003" class="node">
<title>Node3</title>
<g id="a_Node000003"><a xlink:href="classTankPressureControlerViewModel.html#abb05457a8d1956716976ac077bba612e" target="_top" xlink:title=" ">
<polygon fill="white" stroke="#666666" points="418,-30 252,-30 252,0 418,0 418,-30"/>
<text text-anchor="start" x="260" y="-18" font-family="Helvetica,sans-Serif" font-size="10.00">TankPressureControlerView</text>
<text text-anchor="middle" x="335" y="-7" font-family="Helvetica,sans-Serif" font-size="10.00">Model::onSensorDataReceived</text>
</a>
</g>
</g>
<!-- Node1&#45;&gt;Node3 -->
<g id="edge2_Node000001_Node000003" class="edge">
<title>Node1&#45;&gt;Node3</title>
<g id="a_edge2_Node000001_Node000003"><a xlink:title=" ">
<path fill="none" stroke="#63b8ff" d="M443.81,-28.44C435.24,-27.37 426.54,-26.29 418,-25.22"/>
<polygon fill="#63b8ff" stroke="#63b8ff" points="443.44,-31.92 453.8,-29.69 444.31,-24.98 443.44,-31.92"/>
</a>
</g>
</g>
<!-- Node4 -->
<g id="Node000004" class="node">
<title>Node4</title>
<g id="a_Node000004"><a xlink:href="classTankPressureControlerViewModel.html#a886336e4301c3a30abb2fd141c064b8c" target="_top" xlink:title=" ">
<polygon fill="white" stroke="#666666" points="216,-30 0,-30 0,0 216,0 216,-30"/>
<text text-anchor="start" x="8" y="-18" font-family="Helvetica,sans-Serif" font-size="10.00">TankPressureControlerView</text>
<text text-anchor="middle" x="108" y="-7" font-family="Helvetica,sans-Serif" font-size="10.00">Model::TankPressureControlerViewModel</text>
</a>
</g>
</g>
<!-- Node3&#45;&gt;Node4 -->
<g id="edge3_Node000003_Node000004" class="edge">
<title>Node3&#45;&gt;Node4</title>
<g id="a_edge3_Node000003_Node000004"><a xlink:title=" ">
<path fill="none" stroke="#63b8ff" d="M241.7,-15C233.33,-15 224.81,-15 216.32,-15"/>
<polygon fill="#63b8ff" stroke="#63b8ff" points="241.81,-18.5 251.81,-15 241.81,-11.5 241.81,-18.5"/>
</a>
</g>
</g>
</g>
</svg>
