<?xml version="1.0" encoding="UTF-8" standalone="no"?>
<!DOCTYPE svg PUBLIC "-//W3C//DTD SVG 1.1//EN"
 "http://www.w3.org/Graphics/SVG/1.1/DTD/svg11.dtd">
<!-- Generated by graphviz version 2.43.0 (0)
 -->
<!-- Title: TestLauncherViewModel::selectFile Pages: 1 -->
<svg width="466pt" height="76pt"
 viewBox="0.00 0.00 466.00 75.50" xmlns="http://www.w3.org/2000/svg" xmlns:xlink="http://www.w3.org/1999/xlink">
<g id="graph0" class="graph" transform="scale(1 1) rotate(0) translate(4 71.5)">
<title>TestLauncherViewModel::selectFile</title>
<!-- Node1 -->
<g id="Node000001" class="node">
<title>Node1</title>
<g id="a_Node000001"><a xlink:title=" ">
<polygon fill="#999999" stroke="#666666" points="134,-51 0,-51 0,-21 134,-21 134,-51"/>
<text text-anchor="start" x="8" y="-39" font-family="Helvetica,sans-Serif" font-size="10.00">TestLauncherViewModel</text>
<text text-anchor="middle" x="67" y="-28" font-family="Helvetica,sans-Serif" font-size="10.00">::selectFile</text>
</a>
</g>
</g>
<!-- Node2 -->
<g id="Node000002" class="node">
<title>Node2</title>
<g id="a_Node000002"><a xlink:href="classTxtParser.html#afc98cc478d1afc156dfd8ead7db6a778" target="_top" xlink:title=" ">
<polygon fill="white" stroke="#666666" points="293.5,-67.5 180.5,-67.5 180.5,-48.5 293.5,-48.5 293.5,-67.5"/>
<text text-anchor="middle" x="237" y="-55.5" font-family="Helvetica,sans-Serif" font-size="10.00">TxtParser::parseFile</text>
</a>
</g>
</g>
<!-- Node1&#45;&gt;Node2 -->
<g id="edge1_Node000001_Node000002" class="edge">
<title>Node1&#45;&gt;Node2</title>
<g id="a_edge1_Node000001_Node000002"><a xlink:title=" ">
<path fill="none" stroke="#63b8ff" d="M134.4,-44.69C146.17,-46.24 158.43,-47.84 170.19,-49.38"/>
<polygon fill="#63b8ff" stroke="#63b8ff" points="170,-52.89 180.37,-50.72 170.91,-45.95 170,-52.89"/>
</a>
</g>
</g>
<!-- Node4 -->
<g id="Node000004" class="node">
<title>Node4</title>
<g id="a_Node000004"><a xlink:href="classTestLauncherViewModel.html#a4728bf3502c3d375dd66ad3555bd6ab7" target="_top" xlink:title=" ">
<polygon fill="white" stroke="#666666" points="304,-30 170,-30 170,0 304,0 304,-30"/>
<text text-anchor="start" x="178" y="-18" font-family="Helvetica,sans-Serif" font-size="10.00">TestLauncherViewModel</text>
<text text-anchor="middle" x="237" y="-7" font-family="Helvetica,sans-Serif" font-size="10.00">::selectedFileChanged</text>
</a>
</g>
</g>
<!-- Node1&#45;&gt;Node4 -->
<g id="edge3_Node000001_Node000004" class="edge">
<title>Node1&#45;&gt;Node4</title>
<g id="a_edge3_Node000001_Node000004"><a xlink:title=" ">
<path fill="none" stroke="#63b8ff" d="M134.4,-27.7C142.68,-26.67 151.2,-25.6 159.62,-24.55"/>
<polygon fill="#63b8ff" stroke="#63b8ff" points="160.32,-27.99 169.81,-23.27 159.45,-21.04 160.32,-27.99"/>
</a>
</g>
</g>
<!-- Node3 -->
<g id="Node000003" class="node">
<title>Node3</title>
<g id="a_Node000003"><a xlink:href="classTxtParser.html#a7cd1923d1d1fa00cc53ef4ce794a830b" target="_top" xlink:title=" ">
<polygon fill="white" stroke="#666666" points="458,-67.5 340,-67.5 340,-48.5 458,-48.5 458,-67.5"/>
<text text-anchor="middle" x="399" y="-55.5" font-family="Helvetica,sans-Serif" font-size="10.00">TxtParser::FileParsed</text>
</a>
</g>
</g>
<!-- Node2&#45;&gt;Node3 -->
<g id="edge2_Node000002_Node000003" class="edge">
<title>Node2&#45;&gt;Node3</title>
<g id="a_edge2_Node000002_Node000003"><a xlink:title=" ">
<path fill="none" stroke="#63b8ff" d="M293.51,-58C305.22,-58 317.7,-58 329.81,-58"/>
<polygon fill="#63b8ff" stroke="#63b8ff" points="329.87,-61.5 339.87,-58 329.87,-54.5 329.87,-61.5"/>
</a>
</g>
</g>
</g>
</svg>
