<?xml version="1.0" encoding="UTF-8" standalone="no"?>
<!DOCTYPE svg PUBLIC "-//W3C//DTD SVG 1.1//EN"
 "http://www.w3.org/Graphics/SVG/1.1/DTD/svg11.dtd">
<!-- Generated by graphviz version 2.43.0 (0)
 -->
<!-- Title: PlotViewModel::selectedTimeRange Pages: 1 -->
<svg width="452pt" height="76pt"
 viewBox="0.00 0.00 452.00 75.50" xmlns="http://www.w3.org/2000/svg" xmlns:xlink="http://www.w3.org/1999/xlink">
<g id="graph0" class="graph" transform="scale(1 1) rotate(0) translate(4 71.5)">
<title>PlotViewModel::selectedTimeRange</title>
<!-- Node1 -->
<g id="Node000001" class="node">
<title>Node1</title>
<g id="a_Node000001"><a xlink:title=" ">
<polygon fill="#999999" stroke="#666666" points="444,-51 283,-51 283,-21 444,-21 444,-51"/>
<text text-anchor="start" x="291" y="-39" font-family="Helvetica,sans-Serif" font-size="10.00">PlotViewModel::selectedTime</text>
<text text-anchor="middle" x="363.5" y="-28" font-family="Helvetica,sans-Serif" font-size="10.00">Range</text>
</a>
</g>
</g>
<!-- Node2 -->
<g id="Node000002" class="node">
<title>Node2</title>
<g id="a_Node000002"><a xlink:href="classPlot.html#a5372a35d6baaeea8bcbed9f52b85fd30" target="_top" xlink:title=" ">
<polygon fill="white" stroke="#666666" points="214,-67.5 129,-67.5 129,-48.5 214,-48.5 214,-67.5"/>
<text text-anchor="middle" x="171.5" y="-55.5" font-family="Helvetica,sans-Serif" font-size="10.00">Plot::onReplot</text>
</a>
</g>
</g>
<!-- Node1&#45;&gt;Node2 -->
<g id="edge1_Node000001_Node000002" class="edge">
<title>Node1&#45;&gt;Node2</title>
<g id="a_edge1_Node000001_Node000002"><a xlink:title=" ">
<path fill="none" stroke="#63b8ff" d="M272.75,-46.39C252.29,-48.76 231.51,-51.17 214.21,-53.17"/>
<polygon fill="#63b8ff" stroke="#63b8ff" points="273.22,-49.86 282.75,-45.23 272.41,-42.91 273.22,-49.86"/>
</a>
</g>
</g>
<!-- Node4 -->
<g id="Node000004" class="node">
<title>Node4</title>
<g id="a_Node000004"><a xlink:href="classPlot.html#ace35a9b43d763b8f6371d2770ade6a24" target="_top" xlink:title=" ">
<polygon fill="white" stroke="#666666" points="247,-30 96,-30 96,0 247,0 247,-30"/>
<text text-anchor="start" x="104" y="-18" font-family="Helvetica,sans-Serif" font-size="10.00">Plot::onSelectedTimeRange</text>
<text text-anchor="middle" x="171.5" y="-7" font-family="Helvetica,sans-Serif" font-size="10.00">Changed</text>
</a>
</g>
</g>
<!-- Node1&#45;&gt;Node4 -->
<g id="edge3_Node000001_Node000004" class="edge">
<title>Node1&#45;&gt;Node4</title>
<g id="a_edge3_Node000001_Node000004"><a xlink:title=" ">
<path fill="none" stroke="#63b8ff" d="M272.75,-26.08C264.2,-25.13 255.58,-24.18 247.19,-23.26"/>
<polygon fill="#63b8ff" stroke="#63b8ff" points="272.42,-29.57 282.75,-27.19 273.19,-22.61 272.42,-29.57"/>
</a>
</g>
</g>
<!-- Node3 -->
<g id="Node000003" class="node">
<title>Node3</title>
<g id="a_Node000003"><a xlink:href="classPlot.html#a5b4b38ebab6fc69bd007d591c2bc61e3" target="_top" xlink:title=" ">
<polygon fill="white" stroke="#666666" points="60,-45.5 0,-45.5 0,-26.5 60,-26.5 60,-45.5"/>
<text text-anchor="middle" x="30" y="-33.5" font-family="Helvetica,sans-Serif" font-size="10.00">Plot::Plot</text>
</a>
</g>
</g>
<!-- Node2&#45;&gt;Node3 -->
<g id="edge2_Node000002_Node000003" class="edge">
<title>Node2&#45;&gt;Node3</title>
<g id="a_edge2_Node000002_Node000003"><a xlink:title=" ">
<path fill="none" stroke="#63b8ff" d="M118.6,-49.81C98.96,-46.72 77.3,-43.3 60.43,-40.64"/>
<polygon fill="#63b8ff" stroke="#63b8ff" points="118.22,-53.3 128.65,-51.4 119.31,-46.38 118.22,-53.3"/>
</a>
</g>
</g>
<!-- Node4&#45;&gt;Node3 -->
<g id="edge4_Node000004_Node000003" class="edge">
<title>Node4&#45;&gt;Node3</title>
<g id="a_edge4_Node000004_Node000003"><a xlink:title=" ">
<path fill="none" stroke="#63b8ff" d="M85.81,-27.75C76.66,-29.13 67.87,-30.45 60.11,-31.62"/>
<polygon fill="#63b8ff" stroke="#63b8ff" points="86.48,-31.19 95.85,-26.24 85.44,-24.27 86.48,-31.19"/>
</a>
</g>
</g>
</g>
</svg>
