<?xml version="1.0" encoding="UTF-8" standalone="no"?>
<!DOCTYPE svg PUBLIC "-//W3C//DTD SVG 1.1//EN"
 "http://www.w3.org/Graphics/SVG/1.1/DTD/svg11.dtd">
<!-- Generated by graphviz version 2.43.0 (0)
 -->
<!-- Title: DebugDisplay Pages: 1 -->
<svg width="320pt" height="545pt"
 viewBox="0.00 0.00 320.00 545.00" xmlns="http://www.w3.org/2000/svg" xmlns:xlink="http://www.w3.org/1999/xlink">
<g id="graph0" class="graph" transform="scale(1 1) rotate(0) translate(4 541)">
<title>DebugDisplay</title>
<!-- Node1 -->
<g id="Node000001" class="node">
<title>Node1</title>
<g id="a_Node000001"><a xlink:title=" ">
<polygon fill="#999999" stroke="transparent" points="176,-79 0,-79 0,0 176,0 176,-79"/>
<text text-anchor="start" x="53.5" y="-66.5" font-family="Helvetica,sans-Serif" font-size="10.00">DebugDisplay</text>
<text text-anchor="start" x="6.5" y="-51.5" font-family="Helvetica,sans-Serif" font-size="10.00">&#45;</text>
<text text-anchor="start" x="17" y="-51.5" font-family="Helvetica,sans-Serif" font-size="10.00">m_datas</text>
<text text-anchor="start" x="6.5" y="-36.5" font-family="Helvetica,sans-Serif" font-size="10.00">&#45;</text>
<text text-anchor="start" x="17" y="-36.5" font-family="Helvetica,sans-Serif" font-size="10.00">m_mainLayout</text>
<text text-anchor="start" x="4" y="-21.5" font-family="Helvetica,sans-Serif" font-size="10.00">+</text>
<text text-anchor="start" x="17" y="-21.5" font-family="Helvetica,sans-Serif" font-size="10.00">DebugDisplay()</text>
<text text-anchor="start" x="4" y="-6.5" font-family="Helvetica,sans-Serif" font-size="10.00">+</text>
<text text-anchor="start" x="17" y="-6.5" font-family="Helvetica,sans-Serif" font-size="10.00">onNumberOfBindingsChanged()</text>
<polygon fill="#666666" stroke="#666666" points="0,-61.5 0,-61.5 176,-61.5 176,-61.5 0,-61.5"/>
<polygon fill="#666666" stroke="#666666" points="0,-31.5 0,-31.5 15,-31.5 15,-31.5 0,-31.5"/>
<polygon fill="#666666" stroke="#666666" points="15,-31.5 15,-31.5 176,-31.5 176,-31.5 15,-31.5"/>
<polygon fill="none" stroke="#666666" points="0,0 0,-79 176,-79 176,0 0,0"/>
</a>
</g>
</g>
<!-- Node2 -->
<g id="Node000002" class="node">
<title>Node2</title>
<g id="a_Node000002"><a xlink:title=" ">
<polygon fill="white" stroke="transparent" points="96.5,-227.5 47.5,-227.5 47.5,-178.5 96.5,-178.5 96.5,-227.5"/>
<text text-anchor="start" x="53" y="-215" font-family="Helvetica,sans-Serif" font-size="10.00">QFrame</text>
<text text-anchor="start" x="70.5" y="-200" font-family="Helvetica,sans-Serif" font-size="10.00"> </text>
<text text-anchor="start" x="70.5" y="-185" font-family="Helvetica,sans-Serif" font-size="10.00"> </text>
<polygon fill="#666666" stroke="#666666" points="48,-210 48,-210 97,-210 97,-210 48,-210"/>
<polygon fill="#666666" stroke="#666666" points="48,-195 48,-195 97,-195 97,-195 48,-195"/>
<polygon fill="none" stroke="#666666" points="47.5,-178.5 47.5,-227.5 96.5,-227.5 96.5,-178.5 47.5,-178.5"/>
</a>
</g>
</g>
<!-- Node2&#45;&gt;Node1 -->
<g id="edge1_Node000001_Node000002" class="edge">
<title>Node2&#45;&gt;Node1</title>
<g id="a_edge1_Node000001_Node000002"><a xlink:title=" ">
<path fill="none" stroke="#63b8ff" d="M75.36,-168.04C77.94,-142.07 81.49,-106.23 84.17,-79.15"/>
<polygon fill="none" stroke="#63b8ff" points="71.86,-167.87 74.36,-178.17 78.83,-168.56 71.86,-167.87"/>
</a>
</g>
</g>
<!-- Node3 -->
<g id="Node000003" class="node">
<title>Node3</title>
<g id="a_Node000003"><a xlink:href="classDebugDisplayViewModel.html" target="_top" xlink:title=" ">
<polygon fill="white" stroke="transparent" points="281,-280 115,-280 115,-126 281,-126 281,-280"/>
<text text-anchor="start" x="136.5" y="-268" font-family="Helvetica,sans-Serif" font-size="10.00">DebugDisplayViewModel</text>
<text text-anchor="start" x="119" y="-253" font-family="Helvetica,sans-Serif" font-size="10.00">+</text>
<text text-anchor="start" x="132" y="-253" font-family="Helvetica,sans-Serif" font-size="10.00">MAX_NUMBER_OF_BINDINGS</text>
<text text-anchor="start" x="121.5" y="-238" font-family="Helvetica,sans-Serif" font-size="10.00">&#45;</text>
<text text-anchor="start" x="132" y="-238" font-family="Helvetica,sans-Serif" font-size="10.00">m_bindings</text>
<text text-anchor="start" x="121.5" y="-223" font-family="Helvetica,sans-Serif" font-size="10.00">&#45;</text>
<text text-anchor="start" x="132" y="-223" font-family="Helvetica,sans-Serif" font-size="10.00">m_bindingCount</text>
<text text-anchor="start" x="119" y="-208" font-family="Helvetica,sans-Serif" font-size="10.00">+</text>
<text text-anchor="start" x="132" y="-208" font-family="Helvetica,sans-Serif" font-size="10.00">DebugDisplayViewModel()</text>
<text text-anchor="start" x="119" y="-193" font-family="Helvetica,sans-Serif" font-size="10.00">+</text>
<text text-anchor="start" x="132" y="-193" font-family="Helvetica,sans-Serif" font-size="10.00">displayVariable()</text>
<text text-anchor="start" x="119" y="-178" font-family="Helvetica,sans-Serif" font-size="10.00">+</text>
<text text-anchor="start" x="132" y="-178" font-family="Helvetica,sans-Serif" font-size="10.00">numberOfBindings()</text>
<text text-anchor="start" x="119" y="-163" font-family="Helvetica,sans-Serif" font-size="10.00">+</text>
<text text-anchor="start" x="132" y="-163" font-family="Helvetica,sans-Serif" font-size="10.00">maxNumberOfBidings()</text>
<text text-anchor="start" x="119" y="-148" font-family="Helvetica,sans-Serif" font-size="10.00">+</text>
<text text-anchor="start" x="132" y="-148" font-family="Helvetica,sans-Serif" font-size="10.00">getBinding()</text>
<text text-anchor="start" x="119" y="-133" font-family="Helvetica,sans-Serif" font-size="10.00">+</text>
<text text-anchor="start" x="132" y="-133" font-family="Helvetica,sans-Serif" font-size="10.00">initialise()</text>
<polygon fill="#666666" stroke="#666666" points="115,-263 115,-263 281,-263 281,-263 115,-263"/>
<polygon fill="#666666" stroke="#666666" points="115,-218 115,-218 130,-218 130,-218 115,-218"/>
<polygon fill="#666666" stroke="#666666" points="130,-218 130,-218 281,-218 281,-218 130,-218"/>
<polygon fill="none" stroke="#666666" points="115,-126 115,-280 281,-280 281,-126 115,-126"/>
</a>
</g>
</g>
<!-- Node3&#45;&gt;Node1 -->
<g id="edge2_Node000001_Node000003" class="edge">
<title>Node3&#45;&gt;Node1</title>
<g id="a_edge2_Node000001_Node000003"><a xlink:title=" ">
<path fill="none" stroke="#63b8ff" d="M146.22,-125.98C137.77,-113.58 129.22,-101.03 121.37,-89.5"/>
<polygon fill="none" stroke="#63b8ff" points="121.14,-89.16 114.46,-86.45 114.38,-79.24 121.07,-81.95 121.14,-89.16"/>
</a>
</g>
<text text-anchor="middle" x="153" y="-100" font-family="Helvetica,sans-Serif" font-size="10.00" fill="grey"> &#45;m_vm</text>
</g>
<!-- Node4 -->
<g id="Node000004" class="node">
<title>Node4</title>
<g id="a_Node000004"><a xlink:title=" ">
<polygon fill="white" stroke="transparent" points="205,-537 155,-537 155,-488 205,-488 205,-537"/>
<text text-anchor="start" x="160" y="-524.5" font-family="Helvetica,sans-Serif" font-size="10.00">QObject</text>
<text text-anchor="start" x="178" y="-509.5" font-family="Helvetica,sans-Serif" font-size="10.00"> </text>
<text text-anchor="start" x="178" y="-494.5" font-family="Helvetica,sans-Serif" font-size="10.00"> </text>
<polygon fill="#666666" stroke="#666666" points="155,-519.5 155,-519.5 205,-519.5 205,-519.5 155,-519.5"/>
<polygon fill="#666666" stroke="#666666" points="155,-504.5 155,-504.5 205,-504.5 205,-504.5 155,-504.5"/>
<polygon fill="none" stroke="#666666" points="155,-488 155,-537 205,-537 205,-488 155,-488"/>
</a>
</g>
</g>
<!-- Node4&#45;&gt;Node3 -->
<g id="edge3_Node000003_Node000004" class="edge">
<title>Node4&#45;&gt;Node3</title>
<g id="a_edge3_Node000003_Node000004"><a xlink:title=" ">
<path fill="none" stroke="#63b8ff" d="M180.76,-477.66C181.72,-440.64 183.66,-379.55 187,-327 187.97,-311.81 189.24,-295.58 190.58,-280.06"/>
<polygon fill="none" stroke="#63b8ff" points="177.26,-477.81 180.51,-487.89 184.26,-477.98 177.26,-477.81"/>
</a>
</g>
</g>
<!-- Node5 -->
<g id="Node000005" class="node">
<title>Node5</title>
<g id="a_Node000005"><a xlink:href="classTimer.html" target="_top" xlink:title="Timer that emit a signal at a certain frequency to synchronise the refresh of the app widgets.">
<polygon fill="white" stroke="transparent" points="312,-451 196,-451 196,-327 312,-327 312,-451"/>
<text text-anchor="start" x="239.5" y="-439" font-family="Helvetica,sans-Serif" font-size="10.00">Timer</text>
<text text-anchor="start" x="202.5" y="-424" font-family="Helvetica,sans-Serif" font-size="10.00">&#45;</text>
<text text-anchor="start" x="213" y="-424" font-family="Helvetica,sans-Serif" font-size="10.00">m_lastRefresh</text>
<text text-anchor="start" x="202.5" y="-409" font-family="Helvetica,sans-Serif" font-size="10.00">&#45;</text>
<text text-anchor="start" x="213" y="-409" font-family="Helvetica,sans-Serif" font-size="10.00">m_periodOfRefresh</text>
<text text-anchor="start" x="202.5" y="-394" font-family="Helvetica,sans-Serif" font-size="10.00">&#45;</text>
<text text-anchor="start" x="213" y="-394" font-family="Helvetica,sans-Serif" font-size="10.00">m_timer</text>
<text text-anchor="start" x="200" y="-379" font-family="Helvetica,sans-Serif" font-size="10.00">+</text>
<text text-anchor="start" x="213" y="-379" font-family="Helvetica,sans-Serif" font-size="10.00">Timer()</text>
<text text-anchor="start" x="200" y="-364" font-family="Helvetica,sans-Serif" font-size="10.00">+</text>
<text text-anchor="start" x="213" y="-364" font-family="Helvetica,sans-Serif" font-size="10.00">setFrequecy()</text>
<text text-anchor="start" x="200" y="-349" font-family="Helvetica,sans-Serif" font-size="10.00">+</text>
<text text-anchor="start" x="213" y="-349" font-family="Helvetica,sans-Serif" font-size="10.00">setPeriod()</text>
<text text-anchor="start" x="200" y="-334" font-family="Helvetica,sans-Serif" font-size="10.00">+</text>
<text text-anchor="start" x="213" y="-334" font-family="Helvetica,sans-Serif" font-size="10.00">frequencyHz()</text>
<polygon fill="#666666" stroke="#666666" points="196,-434 196,-434 312,-434 312,-434 196,-434"/>
<polygon fill="#666666" stroke="#666666" points="196,-389 196,-389 211,-389 211,-389 196,-389"/>
<polygon fill="#666666" stroke="#666666" points="211,-389 211,-389 312,-389 312,-389 211,-389"/>
<polygon fill="none" stroke="#666666" points="196,-327 196,-451 312,-451 312,-327 196,-327"/>
</a>
</g>
</g>
<!-- Node4&#45;&gt;Node5 -->
<g id="edge5_Node000005_Node000004" class="edge">
<title>Node4&#45;&gt;Node5</title>
<g id="a_edge5_Node000005_Node000004"><a xlink:title=" ">
<path fill="none" stroke="#63b8ff" d="M199.69,-479.17C204.96,-470.52 210.83,-460.88 216.71,-451.22"/>
<polygon fill="none" stroke="#63b8ff" points="196.66,-477.42 194.44,-487.79 202.63,-481.07 196.66,-477.42"/>
</a>
</g>
</g>
<!-- Node5&#45;&gt;Node3 -->
<g id="edge4_Node000003_Node000005" class="edge">
<title>Node5&#45;&gt;Node3</title>
<g id="a_edge4_Node000003_Node000005"><a xlink:title=" ">
<path fill="none" stroke="#63b8ff" d="M235.43,-326.99C232.02,-315.77 228.39,-303.85 224.79,-292.02"/>
<polygon fill="none" stroke="#63b8ff" points="224.7,-291.73 219.13,-287.16 221.21,-280.25 226.78,-284.83 224.7,-291.73"/>
</a>
</g>
<text text-anchor="middle" x="253.5" y="-301" font-family="Helvetica,sans-Serif" font-size="10.00" fill="grey"> &#45;m_timer</text>
</g>
</g>
</svg>
