<?xml version="1.0" encoding="UTF-8" standalone="no"?>
<!DOCTYPE svg PUBLIC "-//W3C//DTD SVG 1.1//EN"
 "http://www.w3.org/Graphics/SVG/1.1/DTD/svg11.dtd">
<!-- Generated by graphviz version 2.43.0 (0)
 -->
<!-- Title: TankPressureControlerViewModel::tankName Pages: 1 -->
<svg width="533pt" height="86pt"
 viewBox="0.00 0.00 533.00 86.00" xmlns="http://www.w3.org/2000/svg" xmlns:xlink="http://www.w3.org/1999/xlink">
<g id="graph0" class="graph" transform="scale(1 1) rotate(0) translate(4 82)">
<title>TankPressureControlerViewModel::tankName</title>
<!-- Node1 -->
<g id="Node000001" class="node">
<title>Node1</title>
<g id="a_Node000001"><a xlink:title=" ">
<polygon fill="#999999" stroke="#666666" points="525,-54 375,-54 375,-24 525,-24 525,-54"/>
<text text-anchor="start" x="383" y="-42" font-family="Helvetica,sans-Serif" font-size="10.00">TankPressureControlerView</text>
<text text-anchor="middle" x="450" y="-31" font-family="Helvetica,sans-Serif" font-size="10.00">Model::tankName</text>
</a>
</g>
</g>
<!-- Node2 -->
<g id="Node000002" class="node">
<title>Node2</title>
<g id="a_Node000002"><a xlink:href="classTankPressureControlerViewModel.html#aae9c7404ec2b3919db943c6d4c825ac9" target="_top" xlink:title=" ">
<polygon fill="white" stroke="#666666" points="339,-78 189,-78 189,-48 339,-48 339,-78"/>
<text text-anchor="start" x="197" y="-66" font-family="Helvetica,sans-Serif" font-size="10.00">TankPressureControlerView</text>
<text text-anchor="middle" x="264" y="-55" font-family="Helvetica,sans-Serif" font-size="10.00">Model::setTankName</text>
</a>
</g>
</g>
<!-- Node1&#45;&gt;Node2 -->
<g id="edge1_Node000001_Node000002" class="edge">
<title>Node1&#45;&gt;Node2</title>
<g id="a_edge1_Node000001_Node000002"><a xlink:title=" ">
<path fill="none" stroke="#63b8ff" d="M364.93,-49.97C356.35,-51.09 347.66,-52.22 339.19,-53.32"/>
<polygon fill="#63b8ff" stroke="#63b8ff" points="365.49,-53.42 374.96,-48.66 364.59,-46.48 365.49,-53.42"/>
</a>
</g>
</g>
<!-- Node4 -->
<g id="Node000004" class="node">
<title>Node4</title>
<g id="a_Node000004"><a xlink:href="classTankPressureControler.html#a001f8b63361a26df36047ac4c526b228" target="_top" xlink:title=" ">
<polygon fill="white" stroke="#666666" points="330,-30 198,-30 198,0 330,0 330,-30"/>
<text text-anchor="start" x="206" y="-18" font-family="Helvetica,sans-Serif" font-size="10.00">TankPressureControler</text>
<text text-anchor="middle" x="264" y="-7" font-family="Helvetica,sans-Serif" font-size="10.00">::TankPressureControler</text>
</a>
</g>
</g>
<!-- Node1&#45;&gt;Node4 -->
<g id="edge3_Node000001_Node000004" class="edge">
<title>Node1&#45;&gt;Node4</title>
<g id="a_edge3_Node000001_Node000004"><a xlink:title=" ">
<path fill="none" stroke="#63b8ff" d="M364.76,-28.01C353.09,-26.49 341.25,-24.95 330,-23.48"/>
<polygon fill="#63b8ff" stroke="#63b8ff" points="364.59,-31.52 374.96,-29.34 365.49,-24.58 364.59,-31.52"/>
</a>
</g>
</g>
<!-- Node3 -->
<g id="Node000003" class="node">
<title>Node3</title>
<g id="a_Node000003"><a xlink:href="classTankPressureControlFrame.html#a58729819e5149e1b7c0c4648d2f728db" target="_top" xlink:title=" ">
<polygon fill="white" stroke="#666666" points="153,-78 0,-78 0,-48 153,-48 153,-78"/>
<text text-anchor="start" x="8" y="-66" font-family="Helvetica,sans-Serif" font-size="10.00">TankPressureControlFrame</text>
<text text-anchor="middle" x="76.5" y="-55" font-family="Helvetica,sans-Serif" font-size="10.00">::TankPressureControlFrame</text>
</a>
</g>
</g>
<!-- Node2&#45;&gt;Node3 -->
<g id="edge2_Node000002_Node000003" class="edge">
<title>Node2&#45;&gt;Node3</title>
<g id="a_edge2_Node000002_Node000003"><a xlink:title=" ">
<path fill="none" stroke="#63b8ff" d="M178.84,-63C170.23,-63 161.52,-63 153.01,-63"/>
<polygon fill="#63b8ff" stroke="#63b8ff" points="178.89,-66.5 188.89,-63 178.89,-59.5 178.89,-66.5"/>
</a>
</g>
</g>
</g>
</svg>
