<?xml version="1.0" encoding="UTF-8" standalone="no"?>
<!DOCTYPE svg PUBLIC "-//W3C//DTD SVG 1.1//EN"
 "http://www.w3.org/Graphics/SVG/1.1/DTD/svg11.dtd">
<!-- Generated by graphviz version 2.43.0 (0)
 -->
<!-- Title: TankPressureControlerViewModel::pressureSettingChanged Pages: 1 -->
<svg width="399pt" height="86pt"
 viewBox="0.00 0.00 399.00 86.00" xmlns="http://www.w3.org/2000/svg" xmlns:xlink="http://www.w3.org/1999/xlink">
<g id="graph0" class="graph" transform="scale(1 1) rotate(0) translate(4 82)">
<title>TankPressureControlerViewModel::pressureSettingChanged</title>
<!-- Node1 -->
<g id="Node000001" class="node">
<title>Node1</title>
<g id="a_Node000001"><a xlink:title=" ">
<polygon fill="#999999" stroke="#666666" points="391,-54 219,-54 219,-24 391,-24 391,-54"/>
<text text-anchor="start" x="227" y="-42" font-family="Helvetica,sans-Serif" font-size="10.00">TankPressureControlerView</text>
<text text-anchor="middle" x="305" y="-31" font-family="Helvetica,sans-Serif" font-size="10.00">Model::pressureSettingChanged</text>
</a>
</g>
</g>
<!-- Node2 -->
<g id="Node000002" class="node">
<title>Node2</title>
<g id="a_Node000002"><a xlink:href="classTankPressureControlerViewModel.html#abaa8a0cdc649452e329a8be0c5bc4529" target="_top" xlink:title=" ">
<polygon fill="white" stroke="#666666" points="166.5,-78 16.5,-78 16.5,-48 166.5,-48 166.5,-78"/>
<text text-anchor="start" x="24.5" y="-66" font-family="Helvetica,sans-Serif" font-size="10.00">TankPressureControlerView</text>
<text text-anchor="middle" x="91.5" y="-55" font-family="Helvetica,sans-Serif" font-size="10.00">Model::initialise</text>
</a>
</g>
</g>
<!-- Node1&#45;&gt;Node2 -->
<g id="edge1_Node000001_Node000002" class="edge">
<title>Node1&#45;&gt;Node2</title>
<g id="a_edge1_Node000001_Node000002"><a xlink:title=" ">
<path fill="none" stroke="#63b8ff" d="M208.66,-49.82C194.53,-51.42 180.15,-53.05 166.54,-54.6"/>
<polygon fill="#63b8ff" stroke="#63b8ff" points="209.35,-53.26 218.89,-48.66 208.56,-46.31 209.35,-53.26"/>
</a>
</g>
</g>
<!-- Node3 -->
<g id="Node000003" class="node">
<title>Node3</title>
<g id="a_Node000003"><a xlink:href="classTankPressureControlerViewModel.html#aa2dc1cfd9ff5c8749af588c48c7b1cfc" target="_top" xlink:title=" ">
<polygon fill="white" stroke="#666666" points="183,-30 0,-30 0,0 183,0 183,-30"/>
<text text-anchor="start" x="8" y="-18" font-family="Helvetica,sans-Serif" font-size="10.00">TankPressureControlerView</text>
<text text-anchor="middle" x="91.5" y="-7" font-family="Helvetica,sans-Serif" font-size="10.00">Model::onPressureSettingSelected</text>
</a>
</g>
</g>
<!-- Node1&#45;&gt;Node3 -->
<g id="edge2_Node000001_Node000003" class="edge">
<title>Node1&#45;&gt;Node3</title>
<g id="a_edge2_Node000001_Node000003"><a xlink:title=" ">
<path fill="none" stroke="#63b8ff" d="M208.94,-28.21C200.42,-27.25 191.8,-26.27 183.32,-25.31"/>
<polygon fill="#63b8ff" stroke="#63b8ff" points="208.56,-31.69 218.89,-29.34 209.35,-24.74 208.56,-31.69"/>
</a>
</g>
</g>
</g>
</svg>
