<?xml version="1.0" encoding="UTF-8" standalone="no"?>
<!DOCTYPE svg PUBLIC "-//W3C//DTD SVG 1.1//EN"
 "http://www.w3.org/Graphics/SVG/1.1/DTD/svg11.dtd">
<!-- Generated by graphviz version 2.43.0 (0)
 -->
<!-- Title: Plot::onCurvesParametersChanged Pages: 1 -->
<svg width="365pt" height="64pt"
 viewBox="0.00 0.00 365.00 64.00" xmlns="http://www.w3.org/2000/svg" xmlns:xlink="http://www.w3.org/1999/xlink">
<g id="graph0" class="graph" transform="scale(1 1) rotate(0) translate(4 60)">
<title>Plot::onCurvesParametersChanged</title>
<!-- Node1 -->
<g id="Node000001" class="node">
<title>Node1</title>
<g id="a_Node000001"><a xlink:title=" ">
<polygon fill="#999999" stroke="#666666" points="143,-42.5 0,-42.5 0,-12.5 143,-12.5 143,-42.5"/>
<text text-anchor="start" x="8" y="-30.5" font-family="Helvetica,sans-Serif" font-size="10.00">Plot::onCurvesParameters</text>
<text text-anchor="middle" x="71.5" y="-19.5" font-family="Helvetica,sans-Serif" font-size="10.00">Changed</text>
</a>
</g>
</g>
<!-- Node2 -->
<g id="Node000002" class="node">
<title>Node2</title>
<g id="a_Node000002"><a xlink:href="classPlotViewModel.html#ae26a88941efd10822339dee4c2463c69" target="_top" xlink:title=" ">
<polygon fill="white" stroke="#666666" points="357,-56 179,-56 179,-37 357,-37 357,-56"/>
<text text-anchor="middle" x="268" y="-44" font-family="Helvetica,sans-Serif" font-size="10.00">PlotViewModel::curveParameters</text>
</a>
</g>
</g>
<!-- Node1&#45;&gt;Node2 -->
<g id="edge1_Node000001_Node000002" class="edge">
<title>Node1&#45;&gt;Node2</title>
<g id="a_edge1_Node000001_Node000002"><a xlink:title=" ">
<path fill="none" stroke="#63b8ff" d="M143.27,-34.41C151.54,-35.22 160.1,-36.06 168.66,-36.89"/>
<polygon fill="#63b8ff" stroke="#63b8ff" points="168.41,-40.39 178.7,-37.87 169.09,-33.42 168.41,-40.39"/>
</a>
</g>
</g>
<!-- Node3 -->
<g id="Node000003" class="node">
<title>Node3</title>
<g id="a_Node000003"><a xlink:href="classPlot.html#a30f70ec6f1e36cefae1315fc4de3f46d" target="_top" xlink:title=" ">
<polygon fill="white" stroke="#666666" points="309.5,-19 226.5,-19 226.5,0 309.5,0 309.5,-19"/>
<text text-anchor="middle" x="268" y="-7" font-family="Helvetica,sans-Serif" font-size="10.00">Plot::isVisible</text>
</a>
</g>
</g>
<!-- Node1&#45;&gt;Node3 -->
<g id="edge2_Node000001_Node000003" class="edge">
<title>Node1&#45;&gt;Node3</title>
<g id="a_edge2_Node000001_Node000003"><a xlink:title=" ">
<path fill="none" stroke="#63b8ff" d="M143.27,-20.95C167.37,-18.72 193.81,-16.27 216.05,-14.22"/>
<polygon fill="#63b8ff" stroke="#63b8ff" points="216.64,-17.68 226.27,-13.27 215.99,-10.71 216.64,-17.68"/>
</a>
</g>
</g>
</g>
</svg>
