<?xml version="1.0" encoding="UTF-8" standalone="no"?>
<!DOCTYPE svg PUBLIC "-//W3C//DTD SVG 1.1//EN"
 "http://www.w3.org/Graphics/SVG/1.1/DTD/svg11.dtd">
<!-- Generated by graphviz version 2.43.0 (0)
 -->
<!-- Title: UdpChannel::onDatagramReceived Pages: 1 -->
<svg width="572pt" height="224pt"
 viewBox="0.00 0.00 572.00 224.00" xmlns="http://www.w3.org/2000/svg" xmlns:xlink="http://www.w3.org/1999/xlink">
<g id="graph0" class="graph" transform="scale(1 1) rotate(0) translate(4 220)">
<title>UdpChannel::onDatagramReceived</title>
<!-- Node1 -->
<g id="Node000001" class="node">
<title>Node1</title>
<g id="a_Node000001"><a xlink:title="Decode and dispatch an incoming UDP datagram.">
<polygon fill="#999999" stroke="#666666" points="188,-111 0,-111 0,-92 188,-92 188,-111"/>
<text text-anchor="middle" x="94" y="-99" font-family="Helvetica,sans-Serif" font-size="10.00">UdpChannel::onDatagramReceived</text>
</a>
</g>
</g>
<!-- Node2 -->
<g id="Node000002" class="node">
<title>Node2</title>
<g id="a_Node000002"><a xlink:href="classUdpChannel.html#a2193dfeb846961d6171734814685e689" target="_top" xlink:title=" ">
<polygon fill="white" stroke="#666666" points="398,-216 240,-216 240,-197 398,-197 398,-216"/>
<text text-anchor="middle" x="319" y="-204" font-family="Helvetica,sans-Serif" font-size="10.00">UdpChannel::AckBBReceived</text>
</a>
</g>
</g>
<!-- Node1&#45;&gt;Node2 -->
<g id="edge1_Node000001_Node000002" class="edge">
<title>Node1&#45;&gt;Node2</title>
<g id="a_edge1_Node000001_Node000002"><a xlink:title=" ">
<path fill="none" stroke="#63b8ff" d="M106.21,-111.22C127.57,-129.21 176.27,-167.67 224,-187.5 230.2,-190.07 236.78,-192.31 243.46,-194.25"/>
<polygon fill="#63b8ff" stroke="#63b8ff" points="242.73,-197.68 253.29,-196.88 244.54,-190.91 242.73,-197.68"/>
</a>
</g>
</g>
<!-- Node3 -->
<g id="Node000003" class="node">
<title>Node3</title>
<g id="a_Node000003"><a xlink:href="classUdpChannel.html#a365d3463ec51e0e296cf7cd1dee7ed61" target="_top" xlink:title=" ">
<polygon fill="white" stroke="#666666" points="390.5,-178.5 247.5,-178.5 247.5,-148.5 390.5,-148.5 390.5,-178.5"/>
<text text-anchor="start" x="255.5" y="-166.5" font-family="Helvetica,sans-Serif" font-size="10.00">UdpChannel::controlEvent</text>
<text text-anchor="middle" x="319" y="-155.5" font-family="Helvetica,sans-Serif" font-size="10.00">Received</text>
</a>
</g>
</g>
<!-- Node1&#45;&gt;Node3 -->
<g id="edge2_Node000001_Node000003" class="edge">
<title>Node1&#45;&gt;Node3</title>
<g id="a_edge2_Node000001_Node000003"><a xlink:title=" ">
<path fill="none" stroke="#63b8ff" d="M126.19,-111.03C152.26,-118.92 190.46,-130.28 224,-139.5 231.74,-141.63 239.85,-143.79 247.93,-145.91"/>
<polygon fill="#63b8ff" stroke="#63b8ff" points="247.18,-149.33 257.74,-148.46 248.94,-142.56 247.18,-149.33"/>
</a>
</g>
</g>
<!-- Node4 -->
<g id="Node000004" class="node">
<title>Node4</title>
<g id="a_Node000004"><a xlink:href="classUdpChannel.html#a7034be0bcd3d6e544e76914af8de9301" target="_top" xlink:title=" ">
<polygon fill="white" stroke="#666666" points="409,-130 229,-130 229,-111 409,-111 409,-130"/>
<text text-anchor="middle" x="319" y="-118" font-family="Helvetica,sans-Serif" font-size="10.00">UdpChannel::countdownReceived</text>
</a>
</g>
</g>
<!-- Node1&#45;&gt;Node4 -->
<g id="edge3_Node000001_Node000004" class="edge">
<title>Node1&#45;&gt;Node4</title>
<g id="a_edge3_Node000001_Node000004"><a xlink:title=" ">
<path fill="none" stroke="#63b8ff" d="M188.28,-109.45C198.31,-110.3 208.53,-111.17 218.63,-112.03"/>
<polygon fill="#63b8ff" stroke="#63b8ff" points="218.4,-115.53 228.66,-112.89 219,-108.55 218.4,-115.53"/>
</a>
</g>
</g>
<!-- Node5 -->
<g id="Node000005" class="node">
<title>Node5</title>
<g id="a_Node000005"><a xlink:href="classProtocolCodec.html#ab45b52d99e2ec983883aa25c8ba6f42e" target="_top" xlink:title=" ">
<polygon fill="white" stroke="#666666" points="383,-93 255,-93 255,-74 383,-74 383,-93"/>
<text text-anchor="middle" x="319" y="-81" font-family="Helvetica,sans-Serif" font-size="10.00">ProtocolCodec::decode</text>
</a>
</g>
</g>
<!-- Node1&#45;&gt;Node5 -->
<g id="edge4_Node000001_Node000005" class="edge">
<title>Node1&#45;&gt;Node5</title>
<g id="a_edge4_Node000001_Node000005"><a xlink:title=" ">
<path fill="none" stroke="#63b8ff" d="M188.28,-93.97C207.12,-92.45 226.68,-90.87 244.72,-89.41"/>
<polygon fill="#63b8ff" stroke="#63b8ff" points="245.18,-92.89 254.86,-88.6 244.61,-85.91 245.18,-92.89"/>
</a>
</g>
</g>
<!-- Node7 -->
<g id="Node000007" class="node">
<title>Node7</title>
<g id="a_Node000007"><a xlink:href="classUdpChannel.html#af3ab9278a84d7d0e1a3d2225637ed310" target="_top" xlink:title=" ">
<polygon fill="white" stroke="#666666" points="406.5,-56 231.5,-56 231.5,-37 406.5,-37 406.5,-56"/>
<text text-anchor="middle" x="319" y="-44" font-family="Helvetica,sans-Serif" font-size="10.00">UdpChannel::StatesListReceived</text>
</a>
</g>
</g>
<!-- Node1&#45;&gt;Node7 -->
<g id="edge6_Node000001_Node000007" class="edge">
<title>Node1&#45;&gt;Node7</title>
<g id="a_edge6_Node000001_Node000007"><a xlink:title=" ">
<path fill="none" stroke="#63b8ff" d="M126.64,-91.98C152.65,-84.32 190.54,-73.54 224,-65.5 234.66,-62.94 246.05,-60.44 257.1,-58.14"/>
<polygon fill="#63b8ff" stroke="#63b8ff" points="258.02,-61.52 267.12,-56.08 256.62,-54.66 258.02,-61.52"/>
</a>
</g>
</g>
<!-- Node8 -->
<g id="Node000008" class="node">
<title>Node8</title>
<g id="a_Node000008"><a xlink:href="classUdpChannel.html#ad3e0230c654c877e37c146a86483dcb5" target="_top" xlink:title=" ">
<polygon fill="white" stroke="#666666" points="414,-19 224,-19 224,0 414,0 414,-19"/>
<text text-anchor="middle" x="319" y="-7" font-family="Helvetica,sans-Serif" font-size="10.00">UdpChannel::textMessageReceived</text>
</a>
</g>
</g>
<!-- Node1&#45;&gt;Node8 -->
<g id="edge7_Node000001_Node000008" class="edge">
<title>Node1&#45;&gt;Node8</title>
<g id="a_edge7_Node000001_Node000008"><a xlink:title=" ">
<path fill="none" stroke="#63b8ff" d="M108.6,-91.86C131.38,-76.19 179.16,-45.24 224,-28.5 231.24,-25.8 238.94,-23.45 246.7,-21.42"/>
<polygon fill="#63b8ff" stroke="#63b8ff" points="247.65,-24.79 256.54,-19.01 245.99,-17.99 247.65,-24.79"/>
</a>
</g>
</g>
<!-- Node6 -->
<g id="Node000006" class="node">
<title>Node6</title>
<g id="a_Node000006"><a xlink:href="classTestBenchStatesList.html#ac8cae632bf7e555a42e7244fc796d4fb" target="_top" xlink:title=" ">
<polygon fill="white" stroke="#666666" points="564,-98.5 450,-98.5 450,-68.5 564,-68.5 564,-98.5"/>
<text text-anchor="start" x="458" y="-86.5" font-family="Helvetica,sans-Serif" font-size="10.00">TestBenchStatesList</text>
<text text-anchor="middle" x="507" y="-75.5" font-family="Helvetica,sans-Serif" font-size="10.00">::append</text>
</a>
</g>
</g>
<!-- Node5&#45;&gt;Node6 -->
<g id="edge5_Node000005_Node000006" class="edge">
<title>Node5&#45;&gt;Node6</title>
<g id="a_edge5_Node000005_Node000006"><a xlink:title=" ">
<path fill="none" stroke="#63b8ff" d="M383.23,-83.5C401.45,-83.5 421.37,-83.5 439.76,-83.5"/>
<polygon fill="#63b8ff" stroke="#63b8ff" points="439.8,-87 449.8,-83.5 439.8,-80 439.8,-87"/>
</a>
</g>
</g>
</g>
</svg>
