<?xml version="1.0" encoding="UTF-8" standalone="no"?>
<!DOCTYPE svg PUBLIC "-//W3C//DTD SVG 1.1//EN"
 "http://www.w3.org/Graphics/SVG/1.1/DTD/svg11.dtd">
<!-- Generated by graphviz version 2.43.0 (0)
 -->
<!-- Title: UdpLogger::start Pages: 1 -->
<svg width="562pt" height="64pt"
 viewBox="0.00 0.00 562.00 64.00" xmlns="http://www.w3.org/2000/svg" xmlns:xlink="http://www.w3.org/1999/xlink">
<g id="graph0" class="graph" transform="scale(1 1) rotate(0) translate(4 60)">
<title>UdpLogger::start</title>
<!-- Node1 -->
<g id="Node000001" class="node">
<title>Node1</title>
<g id="a_Node000001"><a xlink:title=" ">
<polygon fill="#999999" stroke="#666666" points="98,-38 0,-38 0,-19 98,-19 98,-38"/>
<text text-anchor="middle" x="49" y="-26" font-family="Helvetica,sans-Serif" font-size="10.00">UdpLogger::start</text>
</a>
</g>
</g>
<!-- Node2 -->
<g id="Node000002" class="node">
<title>Node2</title>
<g id="a_Node000002"><a xlink:href="classLogger.html#ad89b36eb9b5a28d1f61b3c74a6975031" target="_top" xlink:title=" ">
<polygon fill="white" stroke="#666666" points="383,-56 297,-56 297,-37 383,-37 383,-56"/>
<text text-anchor="middle" x="340" y="-44" font-family="Helvetica,sans-Serif" font-size="10.00">Logger::debug</text>
</a>
</g>
</g>
<!-- Node1&#45;&gt;Node2 -->
<g id="edge1_Node000001_Node000002" class="edge">
<title>Node1&#45;&gt;Node2</title>
<g id="a_edge1_Node000001_Node000002"><a xlink:title=" ">
<path fill="none" stroke="#63b8ff" d="M84.04,-38.01C99.2,-41.77 117.36,-45.64 134,-47.5 185.68,-53.27 245.15,-52.13 286.68,-50.08"/>
<polygon fill="#63b8ff" stroke="#63b8ff" points="287.04,-53.57 296.84,-49.55 286.67,-46.58 287.04,-53.57"/>
</a>
</g>
</g>
<!-- Node4 -->
<g id="Node000004" class="node">
<title>Node4</title>
<g id="a_Node000004"><a xlink:href="classLogger.html#a6c8bf2fc8c89d76b7f4fe25d97ad4bf3" target="_top" xlink:title=" ">
<polygon fill="white" stroke="#666666" points="379.5,-19 300.5,-19 300.5,0 379.5,0 379.5,-19"/>
<text text-anchor="middle" x="340" y="-7" font-family="Helvetica,sans-Serif" font-size="10.00">Logger::error</text>
</a>
</g>
</g>
<!-- Node1&#45;&gt;Node4 -->
<g id="edge3_Node000001_Node000004" class="edge">
<title>Node1&#45;&gt;Node4</title>
<g id="a_edge3_Node000001_Node000004"><a xlink:title=" ">
<path fill="none" stroke="#63b8ff" d="M84.04,-18.99C99.2,-15.23 117.36,-11.36 134,-9.5 187.15,-3.56 248.53,-4.6 290.18,-6.46"/>
<polygon fill="#63b8ff" stroke="#63b8ff" points="290.16,-9.97 300.32,-6.95 290.5,-2.97 290.16,-9.97"/>
</a>
</g>
</g>
<!-- Node5 -->
<g id="Node000005" class="node">
<title>Node5</title>
<g id="a_Node000005"><a xlink:href="classUdpLogger.html#a4f7e8bb32128f9186dc452a57134475d" target="_top" xlink:title=" ">
<polygon fill="white" stroke="#666666" points="261,-38 134,-38 134,-19 261,-19 261,-38"/>
<text text-anchor="middle" x="197.5" y="-26" font-family="Helvetica,sans-Serif" font-size="10.00">UdpLogger::writerLoop</text>
</a>
</g>
</g>
<!-- Node1&#45;&gt;Node5 -->
<g id="edge5_Node000001_Node000005" class="edge">
<title>Node1&#45;&gt;Node5</title>
<g id="a_edge5_Node000001_Node000005"><a xlink:title=" ">
<path fill="none" stroke="#63b8ff" d="M98.38,-28.5C106.52,-28.5 115.14,-28.5 123.74,-28.5"/>
<polygon fill="#63b8ff" stroke="#63b8ff" points="123.81,-32 133.81,-28.5 123.81,-25 123.81,-32"/>
</a>
</g>
</g>
<!-- Node3 -->
<g id="Node000003" class="node">
<title>Node3</title>
<g id="a_Node000003"><a xlink:href="classLogger.html#a02453fd0695fe06c495de714399e8bf7" target="_top" xlink:title=" ">
<polygon fill="white" stroke="#666666" points="554,-37 419,-37 419,-18 554,-18 554,-37"/>
<text text-anchor="middle" x="486.5" y="-25" font-family="Helvetica,sans-Serif" font-size="10.00">Logger::messageLogged</text>
</a>
</g>
</g>
<!-- Node2&#45;&gt;Node3 -->
<g id="edge2_Node000002_Node000003" class="edge">
<title>Node2&#45;&gt;Node3</title>
<g id="a_edge2_Node000002_Node000003"><a xlink:title=" ">
<path fill="none" stroke="#63b8ff" d="M383.18,-40.95C391.29,-39.89 400.02,-38.74 408.83,-37.58"/>
<polygon fill="#63b8ff" stroke="#63b8ff" points="409.33,-41.05 418.79,-36.27 408.42,-34.1 409.33,-41.05"/>
</a>
</g>
</g>
<!-- Node4&#45;&gt;Node3 -->
<g id="edge4_Node000004_Node000003" class="edge">
<title>Node4&#45;&gt;Node3</title>
<g id="a_edge4_Node000004_Node000003"><a xlink:title=" ">
<path fill="none" stroke="#63b8ff" d="M379.72,-14.32C388.75,-15.45 398.68,-16.68 408.72,-17.94"/>
<polygon fill="#63b8ff" stroke="#63b8ff" points="408.42,-21.43 418.78,-19.19 409.28,-14.48 408.42,-21.43"/>
</a>
</g>
</g>
<!-- Node5&#45;&gt;Node2 -->
<g id="edge6_Node000005_Node000002" class="edge">
<title>Node5&#45;&gt;Node2</title>
<g id="a_edge6_Node000005_Node000002"><a xlink:title=" ">
<path fill="none" stroke="#63b8ff" d="M261.35,-36.55C269.78,-37.63 278.35,-38.73 286.57,-39.78"/>
<polygon fill="#63b8ff" stroke="#63b8ff" points="286.39,-43.29 296.76,-41.09 287.28,-36.35 286.39,-43.29"/>
</a>
</g>
</g>
<!-- Node5&#45;&gt;Node4 -->
<g id="edge7_Node000005_Node000004" class="edge">
<title>Node5&#45;&gt;Node4</title>
<g id="a_edge7_Node000005_Node000004"><a xlink:title=" ">
<path fill="none" stroke="#63b8ff" d="M261.35,-20C271.12,-18.68 281.08,-17.33 290.46,-16.06"/>
<polygon fill="#63b8ff" stroke="#63b8ff" points="290.94,-19.53 300.38,-14.72 290.01,-12.59 290.94,-19.53"/>
</a>
</g>
</g>
</g>
</svg>
