<?xml version="1.0" encoding="UTF-8" standalone="no"?>
<!DOCTYPE svg PUBLIC "-//W3C//DTD SVG 1.1//EN"
 "http://www.w3.org/Graphics/SVG/1.1/DTD/svg11.dtd">
<!-- Generated by graphviz version 2.43.0 (0)
 -->
<!-- Title: TestLauncherViewModel::TestLauncherViewModel Pages: 1 -->
<!--zoomable 246 -->

<svg id="main" version="1.1" xmlns="http://www.w3.org/2000/svg" xmlns:xlink="http://www.w3.org/1999/xlink" xml:space="preserve" onload="init(evt)">
<style type="text/css"><![CDATA[
.node, .edge {opacity: 0.7;}
.node.selected, .edge.selected {opacity: 1;}
.edge:hover path { stroke: red; }
.edge:hover polygon { stroke: red; fill: red; }
]]></style>

<defs>
  <circle id="rim" cx="0" cy="0" r="7"/>
  <circle id="rim2" cx="0" cy="0" r="3.5"/>
  <g id="zoomPlus">
    <use xlink:href="#rim" fill="#404040"><set attributeName="fill" to="#808080" begin="zoomplus.mouseover" end="zoomplus.mouseout"/></use>
    <path d="M-4,0h8M0,-4v8" fill="none" stroke="white" stroke-width="1.5" pointer-events="none"/>
  </g>
  <g id="zoomMin">
    <use xlink:href="#rim" fill="#404040"><set attributeName="fill" to="#808080" begin="zoomminus.mouseover" end="zoomminus.mouseout"/></use>
    <path d="M-4,0h8" fill="none" stroke="white" stroke-width="1.5" pointer-events="none"/>
  </g>
  <g id="arrowUp" transform="translate(30 24)">
    <use xlink:href="#rim"/>
    <path pointer-events="none" fill="none" stroke="white" stroke-width="1.5" d="M0,-3.0v7 M-2.5,-0.5L0,-3.0L2.5,-0.5"/>
  </g>
  <g id="arrowRight" transform="rotate(90) translate(36 -43)">
    <use xlink:href="#rim"/>
    <path pointer-events="none" fill="none" stroke="white" stroke-width="1.5" d="M0,-3.0v7 M-2.5,-0.5L0,-3.0L2.5,-0.5"/>
  </g>
  <g id="arrowDown" transform="rotate(180) translate(-30 -48)">
    <use xlink:href="#rim"/>
    <path pointer-events="none" fill="none" stroke="white" stroke-width="1.5" d="M0,-3.0v7 M-2.5,-0.5L0,-3.0L2.5,-0.5"/>
  </g>
  <g id="arrowLeft" transform="rotate(270) translate(-36 17)">
    <use xlink:href="#rim"/>
    <path pointer-events="none" fill="none" stroke="white" stroke-width="1.5" d="M0,-3.0v7 M-2.5,-0.5L0,-3.0L2.5,-0.5"/>
  </g>
  <g id="resetDef">
    <use xlink:href="#rim2" fill="#404040"><set attributeName="fill" to="#808080" begin="reset.mouseover" end="reset.mouseout"/></use>
  </g>
</defs>
<script type="application/ecmascript">
var viewWidth = 718;
var viewHeight = 246;
var sectionId = 'dynsection-2';
</script>
<script type="application/ecmascript" xlink:href="svg.min.js"/>
<svg id="graph" class="graph">
<g id="viewport">
<title>TestLauncherViewModel::TestLauncherViewModel</title>
<!-- Node1 -->
<g id="Node000001" class="node">
<title>Node1</title>
<g id="a_Node000001"><a xlink:title=" ">
<polygon fill="#999999" stroke="#666666" points="140,-139 0,-139 0,-109 140,-109 140,-139"/>
<text text-anchor="start" x="8" y="-127" font-family="Helvetica,sans-Serif" font-size="10.00">TestLauncherViewModel</text>
<text text-anchor="middle" x="70" y="-116" font-family="Helvetica,sans-Serif" font-size="10.00">::TestLauncherViewModel</text>
</a>
</g>
</g>
<!-- Node2 -->
<g id="Node000002" class="node">
<title>Node2</title>
<g id="a_Node000002"><a xlink:href="classUdpChannel.html#a365d3463ec51e0e296cf7cd1dee7ed61" target="_top" xlink:title=" ">
<polygon fill="white" stroke="#666666" points="319,-238 176,-238 176,-208 319,-208 319,-238"/>
<text text-anchor="start" x="184" y="-226" font-family="Helvetica,sans-Serif" font-size="10.00">UdpChannel::controlEvent</text>
<text text-anchor="middle" x="247.5" y="-215" font-family="Helvetica,sans-Serif" font-size="10.00">Received</text>
</a>
</g>
</g>
<!-- Node1&#45;&gt;Node2 -->
<g id="edge1_Node000001_Node000002" class="edge">
<title>Node1&#45;&gt;Node2</title>
<g id="a_edge1_Node000001_Node000002"><a xlink:title=" ">
<path fill="none" stroke="#63b8ff" d="M88.9,-139.3C109,-155.84 143.12,-182.12 176,-199 179.52,-200.81 183.21,-202.53 186.98,-204.15"/>
<polygon fill="#63b8ff" stroke="#63b8ff" points="185.86,-207.48 196.44,-208 188.49,-200.99 185.86,-207.48"/>
</a>
</g>
</g>
<!-- Node3 -->
<g id="Node000003" class="node">
<title>Node3</title>
<g id="a_Node000003"><a xlink:href="classLogger.html#a6c8bf2fc8c89d76b7f4fe25d97ad4bf3" target="_top" xlink:title="Log the messages as an error and send a signal to display it.">
<polygon fill="white" stroke="#666666" points="287,-189.5 208,-189.5 208,-170.5 287,-170.5 287,-189.5"/>
<text text-anchor="middle" x="247.5" y="-177.5" font-family="Helvetica,sans-Serif" font-size="10.00">Logger::error</text>
</a>
</g>
</g>
<!-- Node1&#45;&gt;Node3 -->
<g id="edge2_Node000001_Node000003" class="edge">
<title>Node1&#45;&gt;Node3</title>
<g id="a_edge2_Node000001_Node000003"><a xlink:title=" ">
<path fill="none" stroke="#63b8ff" d="M110.08,-139.17C129.71,-146.52 153.95,-155.21 176,-162 183.14,-164.2 190.73,-166.34 198.2,-168.33"/>
<polygon fill="#63b8ff" stroke="#63b8ff" points="197.33,-171.72 207.89,-170.86 199.1,-164.95 197.33,-171.72"/>
</a>
</g>
</g>
<!-- Node5 -->
<g id="Node000005" class="node">
<title>Node5</title>
<g id="a_Node000005"><a xlink:href="classTxtParser.html#a7cd1923d1d1fa00cc53ef4ce794a830b" target="_top" xlink:title=" ">
<polygon fill="white" stroke="#666666" points="306.5,-152.5 188.5,-152.5 188.5,-133.5 306.5,-133.5 306.5,-152.5"/>
<text text-anchor="middle" x="247.5" y="-140.5" font-family="Helvetica,sans-Serif" font-size="10.00">TxtParser::FileParsed</text>
</a>
</g>
</g>
<!-- Node1&#45;&gt;Node5 -->
<g id="edge4_Node000001_Node000005" class="edge">
<title>Node1&#45;&gt;Node5</title>
<g id="a_edge4_Node000001_Node000005"><a xlink:title=" ">
<path fill="none" stroke="#63b8ff" d="M140.11,-131.48C152.55,-132.83 165.51,-134.23 177.94,-135.58"/>
<polygon fill="#63b8ff" stroke="#63b8ff" points="177.91,-139.09 188.22,-136.69 178.66,-132.13 177.91,-139.09"/>
</a>
</g>
</g>
<!-- Node6 -->
<g id="Node000006" class="node">
<title>Node6</title>
<g id="a_Node000006"><a xlink:href="classFileSystem.html#a629654905eeeb0ecbd65586c640d0158" target="_top" xlink:title="Allow to get the path to the path to a directory.">
<polygon fill="white" stroke="#666666" points="316,-115.5 179,-115.5 179,-96.5 316,-96.5 316,-115.5"/>
<text text-anchor="middle" x="247.5" y="-103.5" font-family="Helvetica,sans-Serif" font-size="10.00">FileSystem::getDirectory</text>
</a>
</g>
</g>
<!-- Node1&#45;&gt;Node6 -->
<g id="edge5_Node000001_Node000006" class="edge">
<title>Node1&#45;&gt;Node6</title>
<g id="a_edge5_Node000001_Node000006"><a xlink:title=" ">
<path fill="none" stroke="#63b8ff" d="M140.11,-116.91C149.48,-115.95 159.15,-114.96 168.65,-113.98"/>
<polygon fill="#63b8ff" stroke="#63b8ff" points="169.3,-117.44 178.89,-112.93 168.58,-110.47 169.3,-117.44"/>
</a>
</g>
</g>
<!-- Node7 -->
<g id="Node000007" class="node">
<title>Node7</title>
<g id="a_Node000007"><a xlink:href="classTestLauncherViewModel.html#a3843fc648d675f2770fd7780b104e477" target="_top" xlink:title=" ">
<polygon fill="white" stroke="#666666" points="314.5,-78 180.5,-78 180.5,-48 314.5,-48 314.5,-78"/>
<text text-anchor="start" x="188.5" y="-66" font-family="Helvetica,sans-Serif" font-size="10.00">TestLauncherViewModel</text>
<text text-anchor="middle" x="247.5" y="-55" font-family="Helvetica,sans-Serif" font-size="10.00">::onFileParsed</text>
</a>
</g>
</g>
<!-- Node1&#45;&gt;Node7 -->
<g id="edge6_Node000001_Node000007" class="edge">
<title>Node1&#45;&gt;Node7</title>
<g id="a_edge6_Node000001_Node000007"><a xlink:title=" ">
<path fill="none" stroke="#63b8ff" d="M114.38,-108.92C138.41,-100.57 168.47,-90.12 193.84,-81.3"/>
<polygon fill="#63b8ff" stroke="#63b8ff" points="195.02,-84.6 203.31,-78.01 192.72,-77.99 195.02,-84.6"/>
</a>
</g>
</g>
<!-- Node9 -->
<g id="Node000009" class="node">
<title>Node9</title>
<g id="a_Node000009"><a xlink:href="classTestLauncherViewModel.html#a265a1e3bb839de77a7439a4c3dc08c0f" target="_top" xlink:title=" ">
<polygon fill="white" stroke="#666666" points="314.5,-30 180.5,-30 180.5,0 314.5,0 314.5,-30"/>
<text text-anchor="start" x="188.5" y="-18" font-family="Helvetica,sans-Serif" font-size="10.00">TestLauncherViewModel</text>
<text text-anchor="middle" x="247.5" y="-7" font-family="Helvetica,sans-Serif" font-size="10.00">::onLaunchConfirmed</text>
</a>
</g>
</g>
<!-- Node1&#45;&gt;Node9 -->
<g id="edge8_Node000001_Node000009" class="edge">
<title>Node1&#45;&gt;Node9</title>
<g id="a_edge8_Node000001_Node000009"><a xlink:title=" ">
<path fill="none" stroke="#63b8ff" d="M86.09,-108.85C105.42,-90.16 140.68,-58.49 176,-39 179.09,-37.29 182.33,-35.68 185.64,-34.15"/>
<polygon fill="#63b8ff" stroke="#63b8ff" points="187.31,-37.24 195.13,-30.09 184.56,-30.81 187.31,-37.24"/>
</a>
</g>
</g>
<!-- Node4 -->
<g id="Node000004" class="node">
<title>Node4</title>
<g id="a_Node000004"><a xlink:href="classLogger.html#a02453fd0695fe06c495de714399e8bf7" target="_top" xlink:title="Signal that send the message to the rest of the app.">
<polygon fill="white" stroke="#666666" points="506,-189.5 371,-189.5 371,-170.5 506,-170.5 506,-189.5"/>
<text text-anchor="middle" x="438.5" y="-177.5" font-family="Helvetica,sans-Serif" font-size="10.00">Logger::messageLogged</text>
</a>
</g>
</g>
<!-- Node3&#45;&gt;Node4 -->
<g id="edge3_Node000003_Node000004" class="edge">
<title>Node3&#45;&gt;Node4</title>
<g id="a_edge3_Node000003_Node000004"><a xlink:title=" ">
<path fill="none" stroke="#63b8ff" d="M287.2,-180C308.37,-180 335.36,-180 360.6,-180"/>
<polygon fill="#63b8ff" stroke="#63b8ff" points="360.92,-183.5 370.92,-180 360.92,-176.5 360.92,-183.5"/>
</a>
</g>
</g>
<!-- Node8 -->
<g id="Node000008" class="node">
<title>Node8</title>
<g id="a_Node000008"><a xlink:href="classTestLauncherViewModel.html#a34b64a79fa056641a062bf36bd74f118" target="_top" xlink:title=" ">
<polygon fill="white" stroke="#666666" points="522,-78 355,-78 355,-48 522,-48 522,-78"/>
<text text-anchor="start" x="363" y="-66" font-family="Helvetica,sans-Serif" font-size="10.00">TestLauncherViewModel</text>
<text text-anchor="middle" x="438.5" y="-55" font-family="Helvetica,sans-Serif" font-size="10.00">::sequenceParametersChanged</text>
</a>
</g>
</g>
<!-- Node7&#45;&gt;Node8 -->
<g id="edge7_Node000007_Node000008" class="edge">
<title>Node7&#45;&gt;Node8</title>
<g id="a_edge7_Node000007_Node000008"><a xlink:title=" ">
<path fill="none" stroke="#63b8ff" d="M314.6,-63C324.34,-63 334.53,-63 344.68,-63"/>
<polygon fill="#63b8ff" stroke="#63b8ff" points="344.82,-66.5 354.82,-63 344.82,-59.5 344.82,-66.5"/>
</a>
</g>
</g>
<!-- Node10 -->
<g id="Node000010" class="node">
<title>Node10</title>
<g id="a_Node000010"><a xlink:href="classTestBenchModel.html#a54c863e0fad71787463b3cca612b1ee3" target="_top" xlink:title=" ">
<polygon fill="white" stroke="#666666" points="522,-24.5 355,-24.5 355,-5.5 522,-5.5 522,-24.5"/>
<text text-anchor="middle" x="438.5" y="-12.5" font-family="Helvetica,sans-Serif" font-size="10.00">TestBenchModel::setTestStatus</text>
</a>
</g>
</g>
<!-- Node9&#45;&gt;Node10 -->
<g id="edge9_Node000009_Node000010" class="edge">
<title>Node9&#45;&gt;Node10</title>
<g id="a_edge9_Node000009_Node000010"><a xlink:title=" ">
<path fill="none" stroke="#63b8ff" d="M314.6,-15C324.34,-15 334.53,-15 344.68,-15"/>
<polygon fill="#63b8ff" stroke="#63b8ff" points="344.82,-18.5 354.82,-15 344.82,-11.5 344.82,-18.5"/>
</a>
</g>
</g>
<!-- Node11 -->
<g id="Node000011" class="node">
<title>Node11</title>
<g id="a_Node000011"><a xlink:href="classTestBenchModel.html#a0d3f80fa37e00cdbd143c2354d28d74f" target="_top" xlink:title=" ">
<polygon fill="white" stroke="#666666" points="710,-30 558,-30 558,0 710,0 710,-30"/>
<text text-anchor="start" x="566" y="-18" font-family="Helvetica,sans-Serif" font-size="10.00">TestBenchModel::testStatus</text>
<text text-anchor="middle" x="634" y="-7" font-family="Helvetica,sans-Serif" font-size="10.00">Changed</text>
</a>
</g>
</g>
<!-- Node10&#45;&gt;Node11 -->
<g id="edge10_Node000010_Node000011" class="edge">
<title>Node10&#45;&gt;Node11</title>
<g id="a_edge10_Node000010_Node000011"><a xlink:title=" ">
<path fill="none" stroke="#63b8ff" d="M522.12,-15C530.52,-15 539.06,-15 547.49,-15"/>
<polygon fill="#63b8ff" stroke="#63b8ff" points="547.7,-18.5 557.7,-15 547.7,-11.5 547.7,-18.5"/>
</a>
</g>
</g>
</g>
</svg>

<g id="navigator" transform="translate(0 0)" fill="#404254">
  <rect fill="#f2f5e9" fill-opacity="0.5" stroke="#606060" stroke-width=".5" x="0" y="0" width="60" height="60"/>
  <use id="zoomplus" xlink:href="#zoomPlus" x="17" y="9" onmousedown="handleZoom(evt,'in')"/>
  <use id="zoomminus" xlink:href="#zoomMin" x="42" y="9" onmousedown="handleZoom(evt,'out')"/>
  <use id="reset" xlink:href="#resetDef" x="30" y="36" onmousedown="handleReset()"/>
   <use id="arrowup" xlink:href="#arrowUp" x="0" y="0" onmousedown="handlePan(0,-1)"/>
  <use id="arrowright" xlink:href="#arrowRight" x="0" y="0" onmousedown="handlePan(1,0)"/>
  <use id="arrowdown" xlink:href="#arrowDown" x="0" y="0" onmousedown="handlePan(0,1)"/>
  <use id="arrowleft" xlink:href="#arrowLeft" x="0" y="0" onmousedown="handlePan(-1,0)"/>
</g>
<svg viewBox="0 0 15 15" width="100%" height="30px" preserveAspectRatio="xMaxYMin meet">
 <g id="arrow_out" transform="scale(0.3 0.3)">
  <a xlink:href="classTestLauncherViewModel_aabbd2b3afa4ec7444c902cddf150f0f9_cgraph_org.svg" target="_base">
   <rect id="button" ry="5" rx="5" y="6" x="6" height="38" width="38"
        fill="#f2f5e9" fill-opacity="0.5" stroke="#606060" stroke-width="1.0"/>
   <path id="arrow"
     d="M 11.500037,31.436501 C 11.940474,20.09759 22.043105,11.32322 32.158766,21.979434 L 37.068811,17.246167 C 37.068811,17.246167 37.088388,32 37.088388,32 L 22.160133,31.978069 C 22.160133,31.978069 26.997745,27.140456 26.997745,27.140456 C 18.528582,18.264221 13.291696,25.230495 11.500037,31.436501 z"
     style="fill:#404040;"/>
  </a>
 </g>
</svg>

<style type='text/css'>
<![CDATA[
[data-mouse-over-selected='false'] { opacity: 0.7; }
[data-mouse-over-selected='true']  { opacity: 1.0; }
]]>
</style>
<script type="application/ecmascript"><![CDATA[
document.addEventListener('DOMContentLoaded', (event) => {
  highlightEdges();
  highlightAdjacentNodes();
});
]]></script>
</svg>
