<?xml version="1.0" encoding="UTF-8" standalone="no"?>
<!DOCTYPE svg PUBLIC "-//W3C//DTD SVG 1.1//EN"
 "http://www.w3.org/Graphics/SVG/1.1/DTD/svg11.dtd">
<!-- Generated by graphviz version 2.43.0 (0)
 -->
<!-- Title: TestLauncherViewModel::confirmationRequested Pages: 1 -->
<svg width="500pt" height="60pt"
 viewBox="0.00 0.00 500.00 60.00" xmlns="http://www.w3.org/2000/svg" xmlns:xlink="http://www.w3.org/1999/xlink">
<g id="graph0" class="graph" transform="scale(1 1) rotate(0) translate(4 56)">
<title>TestLauncherViewModel::confirmationRequested</title>
<!-- Node1 -->
<g id="Node000001" class="node">
<title>Node1</title>
<g id="a_Node000001"><a xlink:title=" ">
<polygon fill="#999999" stroke="#666666" points="492,-30 356,-30 356,0 492,0 492,-30"/>
<text text-anchor="start" x="364" y="-18" font-family="Helvetica,sans-Serif" font-size="10.00">TestLauncherViewModel</text>
<text text-anchor="middle" x="424" y="-7" font-family="Helvetica,sans-Serif" font-size="10.00">::confirmationRequested</text>
</a>
</g>
</g>
<!-- Node2 -->
<g id="Node000002" class="node">
<title>Node2</title>
<g id="a_Node000002"><a xlink:href="classTestLauncherViewModel.html#aae85be10e971d7bc96b58fef26b0f1e3" target="_top" xlink:title=" ">
<polygon fill="white" stroke="#666666" points="320,-52 186,-52 186,-22 320,-22 320,-52"/>
<text text-anchor="start" x="194" y="-40" font-family="Helvetica,sans-Serif" font-size="10.00">TestLauncherViewModel</text>
<text text-anchor="middle" x="253" y="-29" font-family="Helvetica,sans-Serif" font-size="10.00">::launchTest</text>
</a>
</g>
</g>
<!-- Node1&#45;&gt;Node2 -->
<g id="edge1_Node000001_Node000002" class="edge">
<title>Node1&#45;&gt;Node2</title>
<g id="a_edge1_Node000001_Node000002"><a xlink:title=" ">
<path fill="none" stroke="#63b8ff" d="M345.77,-25.05C337.24,-26.16 328.6,-27.29 320.22,-28.38"/>
<polygon fill="#63b8ff" stroke="#63b8ff" points="346.26,-28.52 355.72,-23.76 345.35,-21.58 346.26,-28.52"/>
</a>
</g>
</g>
<!-- Node3 -->
<g id="Node000003" class="node">
<title>Node3</title>
<g id="a_Node000003"><a xlink:href="classTestLauncher.html#a0b2015a489c9ef4b4258626629841e5a" target="_top" xlink:title=" ">
<polygon fill="white" stroke="#666666" points="150,-24.5 0,-24.5 0,-5.5 150,-5.5 150,-24.5"/>
<text text-anchor="middle" x="75" y="-12.5" font-family="Helvetica,sans-Serif" font-size="10.00">TestLauncher::TestLauncher</text>
</a>
</g>
</g>
<!-- Node1&#45;&gt;Node3 -->
<g id="edge3_Node000001_Node000003" class="edge">
<title>Node1&#45;&gt;Node3</title>
<g id="a_edge3_Node000001_Node000003"><a xlink:title=" ">
<path fill="none" stroke="#63b8ff" d="M345.79,-13.34C337.09,-13.2 328.36,-13.08 320,-13 260.45,-12.42 245.55,-12.46 186,-13 174.44,-13.11 162.21,-13.27 150.26,-13.47"/>
<polygon fill="#63b8ff" stroke="#63b8ff" points="345.9,-16.84 355.96,-13.51 346.02,-9.84 345.9,-16.84"/>
</a>
</g>
</g>
<!-- Node2&#45;&gt;Node3 -->
<g id="edge2_Node000002_Node000003" class="edge">
<title>Node2&#45;&gt;Node3</title>
<g id="a_edge2_Node000002_Node000003"><a xlink:title=" ">
<path fill="none" stroke="#63b8ff" d="M175.98,-27.5C167.39,-26.42 158.65,-25.33 150.09,-24.26"/>
<polygon fill="#63b8ff" stroke="#63b8ff" points="175.61,-30.98 185.96,-28.75 176.47,-24.03 175.61,-30.98"/>
</a>
</g>
</g>
</g>
</svg>
