<?xml version="1.0" encoding="UTF-8" standalone="no"?>
<!DOCTYPE svg PUBLIC "-//W3C//DTD SVG 1.1//EN"
 "http://www.w3.org/Graphics/SVG/1.1/DTD/svg11.dtd">
<!-- Generated by graphviz version 2.43.0 (0)
 -->
<!-- Title: TestBenchModel::testStatusChanged Pages: 1 -->
<svg width="741pt" height="86pt"
 viewBox="0.00 0.00 741.00 86.00" xmlns="http://www.w3.org/2000/svg" xmlns:xlink="http://www.w3.org/1999/xlink">
<g id="graph0" class="graph" transform="scale(1 1) rotate(0) translate(4 82)">
<title>TestBenchModel::testStatusChanged</title>
<!-- Node1 -->
<g id="Node000001" class="node">
<title>Node1</title>
<g id="a_Node000001"><a xlink:title=" ">
<polygon fill="#999999" stroke="#666666" points="733,-54 581,-54 581,-24 733,-24 733,-54"/>
<text text-anchor="start" x="589" y="-42" font-family="Helvetica,sans-Serif" font-size="10.00">TestBenchModel::testStatus</text>
<text text-anchor="middle" x="657" y="-31" font-family="Helvetica,sans-Serif" font-size="10.00">Changed</text>
</a>
</g>
</g>
<!-- Node2 -->
<g id="Node000002" class="node">
<title>Node2</title>
<g id="a_Node000002"><a xlink:href="classTestBenchModel.html#a54c863e0fad71787463b3cca612b1ee3" target="_top" xlink:title=" ">
<polygon fill="white" stroke="#666666" points="545,-48.5 378,-48.5 378,-29.5 545,-29.5 545,-48.5"/>
<text text-anchor="middle" x="461.5" y="-36.5" font-family="Helvetica,sans-Serif" font-size="10.00">TestBenchModel::setTestStatus</text>
</a>
</g>
</g>
<!-- Node1&#45;&gt;Node2 -->
<g id="edge1_Node000001_Node000002" class="edge">
<title>Node1&#45;&gt;Node2</title>
<g id="a_edge1_Node000001_Node000002"><a xlink:title=" ">
<path fill="none" stroke="#63b8ff" d="M570.68,-39C562.24,-39 553.67,-39 545.25,-39"/>
<polygon fill="#63b8ff" stroke="#63b8ff" points="570.91,-42.5 580.91,-39 570.91,-35.5 570.91,-42.5"/>
</a>
</g>
</g>
<!-- Node3 -->
<g id="Node000003" class="node">
<title>Node3</title>
<g id="a_Node000003"><a xlink:href="classTestLauncherViewModel.html#a265a1e3bb839de77a7439a4c3dc08c0f" target="_top" xlink:title=" ">
<polygon fill="white" stroke="#666666" points="326,-78 192,-78 192,-48 326,-48 326,-78"/>
<text text-anchor="start" x="200" y="-66" font-family="Helvetica,sans-Serif" font-size="10.00">TestLauncherViewModel</text>
<text text-anchor="middle" x="259" y="-55" font-family="Helvetica,sans-Serif" font-size="10.00">::onLaunchConfirmed</text>
</a>
</g>
</g>
<!-- Node2&#45;&gt;Node3 -->
<g id="edge2_Node000002_Node000003" class="edge">
<title>Node2&#45;&gt;Node3</title>
<g id="a_edge2_Node000002_Node000003"><a xlink:title=" ">
<path fill="none" stroke="#63b8ff" d="M370.68,-49.75C355.71,-51.54 340.44,-53.37 326.2,-55.08"/>
<polygon fill="#63b8ff" stroke="#63b8ff" points="371.46,-53.18 380.97,-48.52 370.62,-46.23 371.46,-53.18"/>
</a>
</g>
</g>
<!-- Node5 -->
<g id="Node000005" class="node">
<title>Node5</title>
<g id="a_Node000005"><a xlink:href="classEmergencyControlsViewModel.html#ae77635067993ac4afca50a009a40d853" target="_top" xlink:title=" ">
<polygon fill="white" stroke="#666666" points="342,-30 176,-30 176,0 342,0 342,-30"/>
<text text-anchor="start" x="184" y="-18" font-family="Helvetica,sans-Serif" font-size="10.00">EmergencyControlsViewModel</text>
<text text-anchor="middle" x="259" y="-7" font-family="Helvetica,sans-Serif" font-size="10.00">::onTestAbortion</text>
</a>
</g>
</g>
<!-- Node2&#45;&gt;Node5 -->
<g id="edge4_Node000002_Node000005" class="edge">
<title>Node2&#45;&gt;Node5</title>
<g id="a_edge4_Node000002_Node000005"><a xlink:title=" ">
<path fill="none" stroke="#63b8ff" d="M371,-28.29C361.37,-27.13 351.6,-25.96 342.06,-24.82"/>
<polygon fill="#63b8ff" stroke="#63b8ff" points="370.62,-31.77 380.97,-29.48 371.46,-24.82 370.62,-31.77"/>
</a>
</g>
</g>
<!-- Node4 -->
<g id="Node000004" class="node">
<title>Node4</title>
<g id="a_Node000004"><a xlink:href="classTestLauncherViewModel.html#aabbd2b3afa4ec7444c902cddf150f0f9" target="_top" xlink:title=" ">
<polygon fill="white" stroke="#666666" points="140,-78 0,-78 0,-48 140,-48 140,-78"/>
<text text-anchor="start" x="8" y="-66" font-family="Helvetica,sans-Serif" font-size="10.00">TestLauncherViewModel</text>
<text text-anchor="middle" x="70" y="-55" font-family="Helvetica,sans-Serif" font-size="10.00">::TestLauncherViewModel</text>
</a>
</g>
</g>
<!-- Node3&#45;&gt;Node4 -->
<g id="edge3_Node000003_Node000004" class="edge">
<title>Node3&#45;&gt;Node4</title>
<g id="a_edge3_Node000003_Node000004"><a xlink:title=" ">
<path fill="none" stroke="#63b8ff" d="M181.49,-63C167.84,-63 153.7,-63 140.27,-63"/>
<polygon fill="#63b8ff" stroke="#63b8ff" points="181.81,-66.5 191.81,-63 181.81,-59.5 181.81,-66.5"/>
</a>
</g>
</g>
<!-- Node6 -->
<g id="Node000006" class="node">
<title>Node6</title>
<g id="a_Node000006"><a xlink:href="classEmergencyControls.html#a7d0691b70b2e161b7724906e30af7e15" target="_top" xlink:title=" ">
<polygon fill="white" stroke="#666666" points="129,-30 11,-30 11,0 129,0 129,-30"/>
<text text-anchor="start" x="19" y="-18" font-family="Helvetica,sans-Serif" font-size="10.00">EmergencyControls::</text>
<text text-anchor="middle" x="70" y="-7" font-family="Helvetica,sans-Serif" font-size="10.00">EmergencyControls</text>
</a>
</g>
</g>
<!-- Node5&#45;&gt;Node6 -->
<g id="edge5_Node000005_Node000006" class="edge">
<title>Node5&#45;&gt;Node6</title>
<g id="a_edge5_Node000005_Node000006"><a xlink:title=" ">
<path fill="none" stroke="#63b8ff" d="M165.94,-15C153.39,-15 140.8,-15 129.09,-15"/>
<polygon fill="#63b8ff" stroke="#63b8ff" points="165.98,-18.5 175.98,-15 165.98,-11.5 165.98,-18.5"/>
</a>
</g>
</g>
</g>
</svg>
