<?xml version="1.0" encoding="UTF-8" standalone="no"?>
<!DOCTYPE svg PUBLIC "-//W3C//DTD SVG 1.1//EN"
 "http://www.w3.org/Graphics/SVG/1.1/DTD/svg11.dtd">
<!-- Generated by graphviz version 2.43.0 (0)
 -->
<!-- Title: TestLauncher::showFileDialogWindow Pages: 1 -->
<svg width="1003pt" height="134pt"
 viewBox="0.00 0.00 1003.00 134.00" xmlns="http://www.w3.org/2000/svg" xmlns:xlink="http://www.w3.org/1999/xlink">
<g id="graph0" class="graph" transform="scale(1 1) rotate(0) translate(4 130)">
<title>TestLauncher::showFileDialogWindow</title>
<!-- Node1 -->
<g id="Node000001" class="node">
<title>Node1</title>
<g id="a_Node000001"><a xlink:title=" ">
<polygon fill="#999999" stroke="#666666" points="161,-54 0,-54 0,-24 161,-24 161,-54"/>
<text text-anchor="start" x="8" y="-42" font-family="Helvetica,sans-Serif" font-size="10.00">TestLauncher::showFileDialog</text>
<text text-anchor="middle" x="80.5" y="-31" font-family="Helvetica,sans-Serif" font-size="10.00">Window</text>
</a>
</g>
</g>
<!-- Node2 -->
<g id="Node000002" class="node">
<title>Node2</title>
<g id="a_Node000002"><a xlink:href="classTestLauncherViewModel.html#a9a2442b128b5385a0d96df272a4bfa0d" target="_top" xlink:title=" ">
<polygon fill="white" stroke="#666666" points="331,-78 197,-78 197,-48 331,-48 331,-78"/>
<text text-anchor="start" x="205" y="-66" font-family="Helvetica,sans-Serif" font-size="10.00">TestLauncherViewModel</text>
<text text-anchor="middle" x="264" y="-55" font-family="Helvetica,sans-Serif" font-size="10.00">::changeDirPath</text>
</a>
</g>
</g>
<!-- Node1&#45;&gt;Node2 -->
<g id="edge1_Node000001_Node000002" class="edge">
<title>Node1&#45;&gt;Node2</title>
<g id="a_edge1_Node000001_Node000002"><a xlink:title=" ">
<path fill="none" stroke="#63b8ff" d="M161.11,-49.53C169.57,-50.65 178.17,-51.78 186.59,-52.9"/>
<polygon fill="#63b8ff" stroke="#63b8ff" points="186.4,-56.4 196.77,-54.24 187.31,-49.46 186.4,-56.4"/>
</a>
</g>
</g>
<!-- Node10 -->
<g id="Node000010" class="node">
<title>Node10</title>
<g id="a_Node000010"><a xlink:href="classTestLauncherViewModel.html#a9d6e2d2559a698699ab81be6b4ea6101" target="_top" xlink:title=" ">
<polygon fill="white" stroke="#666666" points="331,-30 197,-30 197,0 331,0 331,-30"/>
<text text-anchor="start" x="205" y="-18" font-family="Helvetica,sans-Serif" font-size="10.00">TestLauncherViewModel</text>
<text text-anchor="middle" x="264" y="-7" font-family="Helvetica,sans-Serif" font-size="10.00">::fileDirPath</text>
</a>
</g>
</g>
<!-- Node1&#45;&gt;Node10 -->
<g id="edge9_Node000001_Node000010" class="edge">
<title>Node1&#45;&gt;Node10</title>
<g id="a_edge9_Node000001_Node000010"><a xlink:title=" ">
<path fill="none" stroke="#63b8ff" d="M161.11,-28.47C169.57,-27.35 178.17,-26.22 186.59,-25.1"/>
<polygon fill="#63b8ff" stroke="#63b8ff" points="187.31,-28.54 196.77,-23.76 186.4,-21.6 187.31,-28.54"/>
</a>
</g>
</g>
<!-- Node3 -->
<g id="Node000003" class="node">
<title>Node3</title>
<g id="a_Node000003"><a xlink:href="classTestLauncherViewModel.html#af572568c52ec0654f1b4c9d799c29aa8" target="_top" xlink:title=" ">
<polygon fill="white" stroke="#666666" points="501,-102 367,-102 367,-72 501,-72 501,-102"/>
<text text-anchor="start" x="375" y="-90" font-family="Helvetica,sans-Serif" font-size="10.00">TestLauncherViewModel</text>
<text text-anchor="middle" x="434" y="-79" font-family="Helvetica,sans-Serif" font-size="10.00">::acquireFileList</text>
</a>
</g>
</g>
<!-- Node2&#45;&gt;Node3 -->
<g id="edge2_Node000002_Node000003" class="edge">
<title>Node2&#45;&gt;Node3</title>
<g id="a_edge2_Node000002_Node000003"><a xlink:title=" ">
<path fill="none" stroke="#63b8ff" d="M331.4,-72.49C339.77,-73.68 348.39,-74.91 356.89,-76.13"/>
<polygon fill="#63b8ff" stroke="#63b8ff" points="356.41,-79.59 366.81,-77.54 357.4,-72.67 356.41,-79.59"/>
</a>
</g>
</g>
<!-- Node9 -->
<g id="Node000009" class="node">
<title>Node9</title>
<g id="a_Node000009"><a xlink:href="classTestLauncherViewModel.html#a17f6df81bd4f5e47f324060a488f93d3" target="_top" xlink:title=" ">
<polygon fill="white" stroke="#666666" points="501,-54 367,-54 367,-24 501,-24 501,-54"/>
<text text-anchor="start" x="375" y="-42" font-family="Helvetica,sans-Serif" font-size="10.00">TestLauncherViewModel</text>
<text text-anchor="middle" x="434" y="-31" font-family="Helvetica,sans-Serif" font-size="10.00">::fileDirPathChanged</text>
</a>
</g>
</g>
<!-- Node2&#45;&gt;Node9 -->
<g id="edge8_Node000002_Node000009" class="edge">
<title>Node2&#45;&gt;Node9</title>
<g id="a_edge8_Node000002_Node000009"><a xlink:title=" ">
<path fill="none" stroke="#63b8ff" d="M331.4,-53.51C339.77,-52.32 348.39,-51.09 356.89,-49.87"/>
<polygon fill="#63b8ff" stroke="#63b8ff" points="357.4,-53.33 366.81,-48.46 356.41,-46.41 357.4,-53.33"/>
</a>
</g>
</g>
<!-- Node4 -->
<g id="Node000004" class="node">
<title>Node4</title>
<g id="a_Node000004"><a xlink:href="classTestLauncherViewModel.html#a5b19906a8eaea4a4e50ab5a2c83453f1" target="_top" xlink:title=" ">
<polygon fill="white" stroke="#666666" points="671,-126 537,-126 537,-96 671,-96 671,-126"/>
<text text-anchor="start" x="545" y="-114" font-family="Helvetica,sans-Serif" font-size="10.00">TestLauncherViewModel</text>
<text text-anchor="middle" x="604" y="-103" font-family="Helvetica,sans-Serif" font-size="10.00">::fileListChanged</text>
</a>
</g>
</g>
<!-- Node3&#45;&gt;Node4 -->
<g id="edge3_Node000003_Node000004" class="edge">
<title>Node3&#45;&gt;Node4</title>
<g id="a_edge3_Node000003_Node000004"><a xlink:title=" ">
<path fill="none" stroke="#63b8ff" d="M501.4,-96.49C509.77,-97.68 518.39,-98.91 526.89,-100.13"/>
<polygon fill="#63b8ff" stroke="#63b8ff" points="526.41,-103.59 536.81,-101.54 527.4,-96.67 526.41,-103.59"/>
</a>
</g>
</g>
<!-- Node5 -->
<g id="Node000005" class="node">
<title>Node5</title>
<g id="a_Node000005"><a xlink:href="classTestLauncherViewModel.html#a0cc7c1daba77cf492506de410489b17b" target="_top" xlink:title=" ">
<polygon fill="white" stroke="#666666" points="671,-78 537,-78 537,-48 671,-48 671,-78"/>
<text text-anchor="start" x="545" y="-66" font-family="Helvetica,sans-Serif" font-size="10.00">TestLauncherViewModel</text>
<text text-anchor="middle" x="604" y="-55" font-family="Helvetica,sans-Serif" font-size="10.00">::selectFile</text>
</a>
</g>
</g>
<!-- Node3&#45;&gt;Node5 -->
<g id="edge4_Node000003_Node000005" class="edge">
<title>Node3&#45;&gt;Node5</title>
<g id="a_edge4_Node000003_Node000005"><a xlink:title=" ">
<path fill="none" stroke="#63b8ff" d="M501.4,-77.51C509.77,-76.32 518.39,-75.09 526.89,-73.87"/>
<polygon fill="#63b8ff" stroke="#63b8ff" points="527.4,-77.33 536.81,-72.46 526.41,-70.41 527.4,-77.33"/>
</a>
</g>
</g>
<!-- Node6 -->
<g id="Node000006" class="node">
<title>Node6</title>
<g id="a_Node000006"><a xlink:href="classTxtParser.html#afc98cc478d1afc156dfd8ead7db6a778" target="_top" xlink:title=" ">
<polygon fill="white" stroke="#666666" points="830.5,-94.5 717.5,-94.5 717.5,-75.5 830.5,-75.5 830.5,-94.5"/>
<text text-anchor="middle" x="774" y="-82.5" font-family="Helvetica,sans-Serif" font-size="10.00">TxtParser::parseFile</text>
</a>
</g>
</g>
<!-- Node5&#45;&gt;Node6 -->
<g id="edge5_Node000005_Node000006" class="edge">
<title>Node5&#45;&gt;Node6</title>
<g id="a_edge5_Node000005_Node000006"><a xlink:title=" ">
<path fill="none" stroke="#63b8ff" d="M671.4,-71.69C683.17,-73.24 695.43,-74.84 707.19,-76.38"/>
<polygon fill="#63b8ff" stroke="#63b8ff" points="707,-79.89 717.37,-77.72 707.91,-72.95 707,-79.89"/>
</a>
</g>
</g>
<!-- Node8 -->
<g id="Node000008" class="node">
<title>Node8</title>
<g id="a_Node000008"><a xlink:href="classTestLauncherViewModel.html#a4728bf3502c3d375dd66ad3555bd6ab7" target="_top" xlink:title=" ">
<polygon fill="white" stroke="#666666" points="841,-57 707,-57 707,-27 841,-27 841,-57"/>
<text text-anchor="start" x="715" y="-45" font-family="Helvetica,sans-Serif" font-size="10.00">TestLauncherViewModel</text>
<text text-anchor="middle" x="774" y="-34" font-family="Helvetica,sans-Serif" font-size="10.00">::selectedFileChanged</text>
</a>
</g>
</g>
<!-- Node5&#45;&gt;Node8 -->
<g id="edge7_Node000005_Node000008" class="edge">
<title>Node5&#45;&gt;Node8</title>
<g id="a_edge7_Node000005_Node000008"><a xlink:title=" ">
<path fill="none" stroke="#63b8ff" d="M671.4,-54.7C679.68,-53.67 688.2,-52.6 696.62,-51.55"/>
<polygon fill="#63b8ff" stroke="#63b8ff" points="697.32,-54.99 706.81,-50.27 696.45,-48.04 697.32,-54.99"/>
</a>
</g>
</g>
<!-- Node7 -->
<g id="Node000007" class="node">
<title>Node7</title>
<g id="a_Node000007"><a xlink:href="classTxtParser.html#a7cd1923d1d1fa00cc53ef4ce794a830b" target="_top" xlink:title=" ">
<polygon fill="white" stroke="#666666" points="995,-94.5 877,-94.5 877,-75.5 995,-75.5 995,-94.5"/>
<text text-anchor="middle" x="936" y="-82.5" font-family="Helvetica,sans-Serif" font-size="10.00">TxtParser::FileParsed</text>
</a>
</g>
</g>
<!-- Node6&#45;&gt;Node7 -->
<g id="edge6_Node000006_Node000007" class="edge">
<title>Node6&#45;&gt;Node7</title>
<g id="a_edge6_Node000006_Node000007"><a xlink:title=" ">
<path fill="none" stroke="#63b8ff" d="M830.51,-85C842.22,-85 854.7,-85 866.81,-85"/>
<polygon fill="#63b8ff" stroke="#63b8ff" points="866.87,-88.5 876.87,-85 866.87,-81.5 866.87,-88.5"/>
</a>
</g>
</g>
</g>
</svg>
