<?xml version="1.0" encoding="UTF-8" standalone="no"?>
<!DOCTYPE svg PUBLIC "-//W3C//DTD SVG 1.1//EN"
 "http://www.w3.org/Graphics/SVG/1.1/DTD/svg11.dtd">
<!-- Generated by graphviz version 2.43.0 (0)
 -->
<!-- Title: TestLauncher Pages: 1 -->
<!--zoomable 1950 -->

<svg id="main" version="1.1" xmlns="http://www.w3.org/2000/svg" xmlns:xlink="http://www.w3.org/1999/xlink" xml:space="preserve" onload="init(evt)">
<style type="text/css"><![CDATA[
.node, .edge {opacity: 0.7;}
.node.selected, .edge.selected {opacity: 1;}
.edge:hover path { stroke: red; }
.edge:hover polygon { stroke: red; fill: red; }
]]></style>

<defs>
  <circle id="rim" cx="0" cy="0" r="7"/>
  <circle id="rim2" cx="0" cy="0" r="3.5"/>
  <g id="zoomPlus">
    <use xlink:href="#rim" fill="#404040"><set attributeName="fill" to="#808080" begin="zoomplus.mouseover" end="zoomplus.mouseout"/></use>
    <path d="M-4,0h8M0,-4v8" fill="none" stroke="white" stroke-width="1.5" pointer-events="none"/>
  </g>
  <g id="zoomMin">
    <use xlink:href="#rim" fill="#404040"><set attributeName="fill" to="#808080" begin="zoomminus.mouseover" end="zoomminus.mouseout"/></use>
    <path d="M-4,0h8" fill="none" stroke="white" stroke-width="1.5" pointer-events="none"/>
  </g>
  <g id="arrowUp" transform="translate(30 24)">
    <use xlink:href="#rim"/>
    <path pointer-events="none" fill="none" stroke="white" stroke-width="1.5" d="M0,-3.0v7 M-2.5,-0.5L0,-3.0L2.5,-0.5"/>
  </g>
  <g id="arrowRight" transform="rotate(90) translate(36 -43)">
    <use xlink:href="#rim"/>
    <path pointer-events="none" fill="none" stroke="white" stroke-width="1.5" d="M0,-3.0v7 M-2.5,-0.5L0,-3.0L2.5,-0.5"/>
  </g>
  <g id="arrowDown" transform="rotate(180) translate(-30 -48)">
    <use xlink:href="#rim"/>
    <path pointer-events="none" fill="none" stroke="white" stroke-width="1.5" d="M0,-3.0v7 M-2.5,-0.5L0,-3.0L2.5,-0.5"/>
  </g>
  <g id="arrowLeft" transform="rotate(270) translate(-36 17)">
    <use xlink:href="#rim"/>
    <path pointer-events="none" fill="none" stroke="white" stroke-width="1.5" d="M0,-3.0v7 M-2.5,-0.5L0,-3.0L2.5,-0.5"/>
  </g>
  <g id="resetDef">
    <use xlink:href="#rim2" fill="#404040"><set attributeName="fill" to="#808080" begin="reset.mouseover" end="reset.mouseout"/></use>
  </g>
</defs>
<script type="application/ecmascript">
var viewWidth = 790;
var viewHeight = 1950;
var sectionId = 'dynsection-1';
</script>
<script type="application/ecmascript" xlink:href="svg.min.js"/>
<svg id="graph" class="graph">
<g id="viewport">
<title>TestLauncher</title>
<!-- Node1 -->
<g id="Node000001" class="node">
<title>Node1</title>
<g id="a_Node000001"><a xlink:title=" ">
<polygon fill="#999999" stroke="transparent" points="159,-124 0,-124 0,0 159,0 159,-124"/>
<text text-anchor="start" x="48" y="-112" font-family="Helvetica,sans-Serif" font-size="10.00">TestLauncher</text>
<text text-anchor="start" x="7" y="-97" font-family="Helvetica,sans-Serif" font-size="10.00">&#45;</text>
<text text-anchor="start" x="17.5" y="-97" font-family="Helvetica,sans-Serif" font-size="10.00">m_sequenceParametersGrid</text>
<text text-anchor="start" x="7" y="-82" font-family="Helvetica,sans-Serif" font-size="10.00">&#45;</text>
<text text-anchor="start" x="17.5" y="-82" font-family="Helvetica,sans-Serif" font-size="10.00">m_comboBox</text>
<text text-anchor="start" x="4.5" y="-67" font-family="Helvetica,sans-Serif" font-size="10.00">+</text>
<text text-anchor="start" x="17.5" y="-67" font-family="Helvetica,sans-Serif" font-size="10.00">TestLauncher()</text>
<text text-anchor="start" x="4.5" y="-52" font-family="Helvetica,sans-Serif" font-size="10.00">+</text>
<text text-anchor="start" x="17.5" y="-52" font-family="Helvetica,sans-Serif" font-size="10.00">renderFileList()</text>
<text text-anchor="start" x="4.5" y="-37" font-family="Helvetica,sans-Serif" font-size="10.00">+</text>
<text text-anchor="start" x="17.5" y="-37" font-family="Helvetica,sans-Serif" font-size="10.00">renderFileContent()</text>
<text text-anchor="start" x="4.5" y="-22" font-family="Helvetica,sans-Serif" font-size="10.00">+</text>
<text text-anchor="start" x="17.5" y="-22" font-family="Helvetica,sans-Serif" font-size="10.00">showFileDialogWindow()</text>
<text text-anchor="start" x="4.5" y="-7" font-family="Helvetica,sans-Serif" font-size="10.00">+</text>
<text text-anchor="start" x="17.5" y="-7" font-family="Helvetica,sans-Serif" font-size="10.00">showConfirmationWindow()</text>
<polygon fill="#666666" stroke="#666666" points="0.5,-107 0.5,-107 159.5,-107 159.5,-107 0.5,-107"/>
<polygon fill="#666666" stroke="#666666" points="0.5,-77 0.5,-77 15.5,-77 15.5,-77 0.5,-77"/>
<polygon fill="#666666" stroke="#666666" points="15.5,-77 15.5,-77 159.5,-77 159.5,-77 15.5,-77"/>
<polygon fill="none" stroke="#666666" points="0,0 0,-124 159,-124 159,0 0,0"/>
</a>
</g>
</g>
<!-- Node2 -->
<g id="Node000002" class="node">
<title>Node2</title>
<g id="a_Node000002"><a xlink:title=" ">
<polygon fill="white" stroke="transparent" points="90,-355 37,-355 37,-306 90,-306 90,-355"/>
<text text-anchor="start" x="42.5" y="-342.5" font-family="Helvetica,sans-Serif" font-size="10.00">QWidget</text>
<text text-anchor="start" x="62" y="-327.5" font-family="Helvetica,sans-Serif" font-size="10.00"> </text>
<text text-anchor="start" x="62" y="-312.5" font-family="Helvetica,sans-Serif" font-size="10.00"> </text>
<polygon fill="#666666" stroke="#666666" points="37.5,-337.5 37.5,-337.5 90.5,-337.5 90.5,-337.5 37.5,-337.5"/>
<polygon fill="#666666" stroke="#666666" points="37.5,-322.5 37.5,-322.5 90.5,-322.5 90.5,-322.5 37.5,-322.5"/>
<polygon fill="none" stroke="#666666" points="37,-306 37,-355 90,-355 90,-306 37,-306"/>
</a>
</g>
</g>
<!-- Node2&#45;&gt;Node1 -->
<g id="edge1_Node000001_Node000002" class="edge">
<title>Node2&#45;&gt;Node1</title>
<g id="a_edge1_Node000001_Node000002"><a xlink:title=" ">
<path fill="none" stroke="#63b8ff" d="M65.53,-295.61C68.12,-252.49 72.64,-177.22 75.84,-124"/>
<polygon fill="none" stroke="#63b8ff" points="62.03,-295.66 64.92,-305.85 69.01,-296.08 62.03,-295.66"/>
</a>
</g>
</g>
<!-- Node3 -->
<g id="Node000003" class="node">
<title>Node3</title>
<g id="a_Node000003"><a xlink:href="classTestLauncherViewModel.html" target="_top" xlink:title=" ">
<polygon fill="white" stroke="transparent" points="268.5,-490 108.5,-490 108.5,-171 268.5,-171 268.5,-490"/>
<text text-anchor="start" x="129.5" y="-477.5" font-family="Helvetica,sans-Serif" font-size="10.00">TestLauncherViewModel</text>
<text text-anchor="start" x="115" y="-462.5" font-family="Helvetica,sans-Serif" font-size="10.00">&#45;</text>
<text text-anchor="start" x="125.5" y="-462.5" font-family="Helvetica,sans-Serif" font-size="10.00">m_selectedFile</text>
<text text-anchor="start" x="115" y="-447.5" font-family="Helvetica,sans-Serif" font-size="10.00">&#45;</text>
<text text-anchor="start" x="125.5" y="-447.5" font-family="Helvetica,sans-Serif" font-size="10.00">m_fileList</text>
<text text-anchor="start" x="115" y="-432.5" font-family="Helvetica,sans-Serif" font-size="10.00">&#45;</text>
<text text-anchor="start" x="125.5" y="-432.5" font-family="Helvetica,sans-Serif" font-size="10.00">m_fileDirPath</text>
<text text-anchor="start" x="115" y="-417.5" font-family="Helvetica,sans-Serif" font-size="10.00">&#45;</text>
<text text-anchor="start" x="125.5" y="-417.5" font-family="Helvetica,sans-Serif" font-size="10.00">m_sequenceParameters</text>
<text text-anchor="start" x="115" y="-402.5" font-family="Helvetica,sans-Serif" font-size="10.00">&#45;</text>
<text text-anchor="start" x="125.5" y="-402.5" font-family="Helvetica,sans-Serif" font-size="10.00">m_isBrowsingRequested</text>
<text text-anchor="start" x="115" y="-387.5" font-family="Helvetica,sans-Serif" font-size="10.00">&#45;</text>
<text text-anchor="start" x="125.5" y="-387.5" font-family="Helvetica,sans-Serif" font-size="10.00">m_isConfirmationRequested</text>
<text text-anchor="start" x="112.5" y="-372.5" font-family="Helvetica,sans-Serif" font-size="10.00">+</text>
<text text-anchor="start" x="125.5" y="-372.5" font-family="Helvetica,sans-Serif" font-size="10.00">TestLauncherViewModel()</text>
<text text-anchor="start" x="112.5" y="-357.5" font-family="Helvetica,sans-Serif" font-size="10.00">+</text>
<text text-anchor="start" x="125.5" y="-357.5" font-family="Helvetica,sans-Serif" font-size="10.00">selectedFile()</text>
<text text-anchor="start" x="112.5" y="-342.5" font-family="Helvetica,sans-Serif" font-size="10.00">+</text>
<text text-anchor="start" x="125.5" y="-342.5" font-family="Helvetica,sans-Serif" font-size="10.00">fileList()</text>
<text text-anchor="start" x="112.5" y="-327.5" font-family="Helvetica,sans-Serif" font-size="10.00">+</text>
<text text-anchor="start" x="125.5" y="-327.5" font-family="Helvetica,sans-Serif" font-size="10.00">fileDirPath()</text>
<text text-anchor="start" x="112.5" y="-312.5" font-family="Helvetica,sans-Serif" font-size="10.00">+</text>
<text text-anchor="start" x="125.5" y="-312.5" font-family="Helvetica,sans-Serif" font-size="10.00">sequenceParameters()</text>
<text text-anchor="start" x="112.5" y="-297.5" font-family="Helvetica,sans-Serif" font-size="10.00">+</text>
<text text-anchor="start" x="125.5" y="-297.5" font-family="Helvetica,sans-Serif" font-size="10.00">initialise()</text>
<text text-anchor="start" x="112.5" y="-282.5" font-family="Helvetica,sans-Serif" font-size="10.00">+</text>
<text text-anchor="start" x="125.5" y="-282.5" font-family="Helvetica,sans-Serif" font-size="10.00">acquireFileList()</text>
<text text-anchor="start" x="112.5" y="-267.5" font-family="Helvetica,sans-Serif" font-size="10.00">+</text>
<text text-anchor="start" x="125.5" y="-267.5" font-family="Helvetica,sans-Serif" font-size="10.00">confirmLaunch()</text>
<text text-anchor="start" x="112.5" y="-252.5" font-family="Helvetica,sans-Serif" font-size="10.00">+</text>
<text text-anchor="start" x="125.5" y="-252.5" font-family="Helvetica,sans-Serif" font-size="10.00">selectFile()</text>
<text text-anchor="start" x="112.5" y="-237.5" font-family="Helvetica,sans-Serif" font-size="10.00">+</text>
<text text-anchor="start" x="125.5" y="-237.5" font-family="Helvetica,sans-Serif" font-size="10.00">changeDirPath()</text>
<text text-anchor="start" x="112.5" y="-222.5" font-family="Helvetica,sans-Serif" font-size="10.00">+</text>
<text text-anchor="start" x="125.5" y="-222.5" font-family="Helvetica,sans-Serif" font-size="10.00">requestBrowse()</text>
<text text-anchor="start" x="112.5" y="-207.5" font-family="Helvetica,sans-Serif" font-size="10.00">+</text>
<text text-anchor="start" x="125.5" y="-207.5" font-family="Helvetica,sans-Serif" font-size="10.00">onFileParsed()</text>
<text text-anchor="start" x="112.5" y="-192.5" font-family="Helvetica,sans-Serif" font-size="10.00">+</text>
<text text-anchor="start" x="125.5" y="-192.5" font-family="Helvetica,sans-Serif" font-size="10.00">launchTest()</text>
<text text-anchor="start" x="112.5" y="-177.5" font-family="Helvetica,sans-Serif" font-size="10.00">+</text>
<text text-anchor="start" x="125.5" y="-177.5" font-family="Helvetica,sans-Serif" font-size="10.00">onLaunchConfirmed()</text>
<polygon fill="#666666" stroke="#666666" points="108.5,-472.5 108.5,-472.5 268.5,-472.5 268.5,-472.5 108.5,-472.5"/>
<polygon fill="#666666" stroke="#666666" points="108.5,-382.5 108.5,-382.5 123.5,-382.5 123.5,-382.5 108.5,-382.5"/>
<polygon fill="#666666" stroke="#666666" points="123.5,-382.5 123.5,-382.5 268.5,-382.5 268.5,-382.5 123.5,-382.5"/>
<polygon fill="none" stroke="#666666" points="108.5,-171 108.5,-490 268.5,-490 268.5,-171 108.5,-171"/>
</a>
</g>
</g>
<!-- Node3&#45;&gt;Node1 -->
<g id="edge2_Node000001_Node000003" class="edge">
<title>Node3&#45;&gt;Node1</title>
<g id="a_edge2_Node000001_Node000003"><a xlink:title=" ">
<path fill="none" stroke="#63b8ff" d="M123.52,-170.63C118.55,-158.47 113.69,-146.6 109.14,-135.46"/>
<polygon fill="none" stroke="#63b8ff" points="109.04,-135.23 103.07,-131.19 104.5,-124.12 110.47,-128.16 109.04,-135.23"/>
</a>
</g>
<text text-anchor="middle" x="134.5" y="-145" font-family="Helvetica,sans-Serif" font-size="10.00" fill="grey"> &#45;m_vm</text>
</g>
<!-- Node4 -->
<g id="Node000004" class="node">
<title>Node4</title>
<g id="a_Node000004"><a xlink:title=" ">
<polygon fill="white" stroke="transparent" points="307.5,-1942 257.5,-1942 257.5,-1893 307.5,-1893 307.5,-1942"/>
<text text-anchor="start" x="262.5" y="-1929.5" font-family="Helvetica,sans-Serif" font-size="10.00">QObject</text>
<text text-anchor="start" x="280.5" y="-1914.5" font-family="Helvetica,sans-Serif" font-size="10.00"> </text>
<text text-anchor="start" x="280.5" y="-1899.5" font-family="Helvetica,sans-Serif" font-size="10.00"> </text>
<polygon fill="#666666" stroke="#666666" points="257.5,-1924.5 257.5,-1924.5 307.5,-1924.5 307.5,-1924.5 257.5,-1924.5"/>
<polygon fill="#666666" stroke="#666666" points="257.5,-1909.5 257.5,-1909.5 307.5,-1909.5 307.5,-1909.5 257.5,-1909.5"/>
<polygon fill="none" stroke="#666666" points="257.5,-1893 257.5,-1942 307.5,-1942 307.5,-1893 257.5,-1893"/>
</a>
</g>
</g>
<!-- Node4&#45;&gt;Node3 -->
<g id="edge3_Node000003_Node000004" class="edge">
<title>Node4&#45;&gt;Node3</title>
<g id="a_edge3_Node000003_Node000004"><a xlink:title=" ">
<path fill="none" stroke="#63b8ff" d="M247.31,-1912.58C189.68,-1904 81.5,-1877.85 81.5,-1802.5 81.5,-1802.5 81.5,-1802.5 81.5,-613 81.5,-569.21 92.95,-523.95 108.36,-482.86"/>
<polygon fill="none" stroke="#63b8ff" points="247.06,-1916.08 257.45,-1913.99 248.03,-1909.15 247.06,-1916.08"/>
</a>
</g>
</g>
<!-- Node5 -->
<g id="Node000005" class="node">
<title>Node5</title>
<g id="a_Node000005"><a xlink:href="classUdpChannel.html" target="_top" xlink:title=" ">
<polygon fill="white" stroke="transparent" points="388,-1072 253,-1072 253,-738 388,-738 388,-1072"/>
<text text-anchor="start" x="291" y="-1060" font-family="Helvetica,sans-Serif" font-size="10.00">UdpChannel</text>
<text text-anchor="start" x="260" y="-1045" font-family="Helvetica,sans-Serif" font-size="10.00">&#45;</text>
<text text-anchor="start" x="270.5" y="-1045" font-family="Helvetica,sans-Serif" font-size="10.00">m_udpWorkerThread</text>
<text text-anchor="start" x="260" y="-1030" font-family="Helvetica,sans-Serif" font-size="10.00">&#45;</text>
<text text-anchor="start" x="270.5" y="-1030" font-family="Helvetica,sans-Serif" font-size="10.00">m_udpSocket</text>
<text text-anchor="start" x="260" y="-1015" font-family="Helvetica,sans-Serif" font-size="10.00">&#45;</text>
<text text-anchor="start" x="270.5" y="-1015" font-family="Helvetica,sans-Serif" font-size="10.00">m_remoteAddr</text>
<text text-anchor="start" x="260" y="-1000" font-family="Helvetica,sans-Serif" font-size="10.00">&#45;</text>
<text text-anchor="start" x="270.5" y="-1000" font-family="Helvetica,sans-Serif" font-size="10.00">m_remotePort</text>
<text text-anchor="start" x="260" y="-985" font-family="Helvetica,sans-Serif" font-size="10.00">&#45;</text>
<text text-anchor="start" x="270.5" y="-985" font-family="Helvetica,sans-Serif" font-size="10.00">m_localAddr</text>
<text text-anchor="start" x="260" y="-970" font-family="Helvetica,sans-Serif" font-size="10.00">&#45;</text>
<text text-anchor="start" x="270.5" y="-970" font-family="Helvetica,sans-Serif" font-size="10.00">m_localPort</text>
<text text-anchor="start" x="260" y="-955" font-family="Helvetica,sans-Serif" font-size="10.00">&#45;</text>
<text text-anchor="start" x="270.5" y="-955" font-family="Helvetica,sans-Serif" font-size="10.00">m_lastRefresh</text>
<text text-anchor="start" x="260" y="-940" font-family="Helvetica,sans-Serif" font-size="10.00">&#45;</text>
<text text-anchor="start" x="270.5" y="-940" font-family="Helvetica,sans-Serif" font-size="10.00">m_periodOfRefresh</text>
<text text-anchor="start" x="260" y="-925" font-family="Helvetica,sans-Serif" font-size="10.00">&#45;</text>
<text text-anchor="start" x="270.5" y="-925" font-family="Helvetica,sans-Serif" font-size="10.00">m_running</text>
<text text-anchor="start" x="257.5" y="-910" font-family="Helvetica,sans-Serif" font-size="10.00">+</text>
<text text-anchor="start" x="270.5" y="-910" font-family="Helvetica,sans-Serif" font-size="10.00">UdpChannel()</text>
<text text-anchor="start" x="257.5" y="-895" font-family="Helvetica,sans-Serif" font-size="10.00">+</text>
<text text-anchor="start" x="270.5" y="-895" font-family="Helvetica,sans-Serif" font-size="10.00">~UdpChannel()</text>
<text text-anchor="start" x="257.5" y="-880" font-family="Helvetica,sans-Serif" font-size="10.00">+</text>
<text text-anchor="start" x="270.5" y="-880" font-family="Helvetica,sans-Serif" font-size="10.00">startEndpoint()</text>
<text text-anchor="start" x="257.5" y="-865" font-family="Helvetica,sans-Serif" font-size="10.00">+</text>
<text text-anchor="start" x="270.5" y="-865" font-family="Helvetica,sans-Serif" font-size="10.00">stopEndpoint()</text>
<text text-anchor="start" x="257.5" y="-850" font-family="Helvetica,sans-Serif" font-size="10.00">+</text>
<text text-anchor="start" x="270.5" y="-850" font-family="Helvetica,sans-Serif" font-size="10.00">sendData()</text>
<text text-anchor="start" x="257.5" y="-835" font-family="Helvetica,sans-Serif" font-size="10.00">+</text>
<text text-anchor="start" x="270.5" y="-835" font-family="Helvetica,sans-Serif" font-size="10.00">running()</text>
<text text-anchor="start" x="257.5" y="-820" font-family="Helvetica,sans-Serif" font-size="10.00">+</text>
<text text-anchor="start" x="270.5" y="-820" font-family="Helvetica,sans-Serif" font-size="10.00">remoteAddr()</text>
<text text-anchor="start" x="257.5" y="-805" font-family="Helvetica,sans-Serif" font-size="10.00">+</text>
<text text-anchor="start" x="270.5" y="-805" font-family="Helvetica,sans-Serif" font-size="10.00">remotePort()</text>
<text text-anchor="start" x="257.5" y="-790" font-family="Helvetica,sans-Serif" font-size="10.00">+</text>
<text text-anchor="start" x="270.5" y="-790" font-family="Helvetica,sans-Serif" font-size="10.00">localAddr()</text>
<text text-anchor="start" x="257.5" y="-775" font-family="Helvetica,sans-Serif" font-size="10.00">+</text>
<text text-anchor="start" x="270.5" y="-775" font-family="Helvetica,sans-Serif" font-size="10.00">localPort()</text>
<text text-anchor="start" x="270.5" y="-760" font-family="Helvetica,sans-Serif" font-size="10.00">and 6 more...</text>
<text text-anchor="start" x="257.5" y="-745" font-family="Helvetica,sans-Serif" font-size="10.00">+</text>
<text text-anchor="start" x="270.5" y="-745" font-family="Helvetica,sans-Serif" font-size="10.00">onDatagramReceived()</text>
<polygon fill="#666666" stroke="#666666" points="253.5,-1055 253.5,-1055 388.5,-1055 388.5,-1055 253.5,-1055"/>
<polygon fill="#666666" stroke="#666666" points="253.5,-920 253.5,-920 268.5,-920 268.5,-920 253.5,-920"/>
<polygon fill="#666666" stroke="#666666" points="268.5,-920 268.5,-920 388.5,-920 388.5,-920 268.5,-920"/>
<polygon fill="none" stroke="#666666" points="253,-738 253,-1072 388,-1072 388,-738 253,-738"/>
</a>
</g>
</g>
<!-- Node4&#45;&gt;Node5 -->
<g id="edge5_Node000005_Node000004" class="edge">
<title>Node4&#45;&gt;Node5</title>
<g id="a_edge5_Node000005_Node000004"><a xlink:title=" ">
<path fill="none" stroke="#63b8ff" d="M282.5,-1882.78C282.5,-1860.09 282.5,-1829.5 282.5,-1802.5 282.5,-1802.5 282.5,-1802.5 282.5,-1180 282.5,-1144.94 285.59,-1107.6 290.01,-1072.12"/>
<polygon fill="none" stroke="#63b8ff" points="279,-1882.92 282.5,-1892.92 286,-1882.92 279,-1882.92"/>
</a>
</g>
</g>
<!-- Node6 -->
<g id="Node000006" class="node">
<title>Node6</title>
<g id="a_Node000006"><a xlink:href="classUdpWorker.html" target="_top" xlink:title=" ">
<polygon fill="white" stroke="transparent" points="617.5,-1243 457.5,-1243 457.5,-1119 617.5,-1119 617.5,-1243"/>
<text text-anchor="start" x="510.5" y="-1231" font-family="Helvetica,sans-Serif" font-size="10.00">UdpWorker</text>
<text text-anchor="start" x="464" y="-1216" font-family="Helvetica,sans-Serif" font-size="10.00">&#45;</text>
<text text-anchor="start" x="474.5" y="-1216" font-family="Helvetica,sans-Serif" font-size="10.00">socket</text>
<text text-anchor="start" x="464" y="-1201" font-family="Helvetica,sans-Serif" font-size="10.00">&#45;</text>
<text text-anchor="start" x="474.5" y="-1201" font-family="Helvetica,sans-Serif" font-size="10.00">m_lastFrameSend</text>
<text text-anchor="start" x="461.5" y="-1186" font-family="Helvetica,sans-Serif" font-size="10.00">+</text>
<text text-anchor="start" x="474.5" y="-1186" font-family="Helvetica,sans-Serif" font-size="10.00">UdpWorker()</text>
<text text-anchor="start" x="461.5" y="-1171" font-family="Helvetica,sans-Serif" font-size="10.00">+</text>
<text text-anchor="start" x="474.5" y="-1171" font-family="Helvetica,sans-Serif" font-size="10.00">decimate()</text>
<text text-anchor="start" x="461.5" y="-1156" font-family="Helvetica,sans-Serif" font-size="10.00">+</text>
<text text-anchor="start" x="474.5" y="-1156" font-family="Helvetica,sans-Serif" font-size="10.00">start()</text>
<text text-anchor="start" x="461.5" y="-1141" font-family="Helvetica,sans-Serif" font-size="10.00">+</text>
<text text-anchor="start" x="474.5" y="-1141" font-family="Helvetica,sans-Serif" font-size="10.00">stop()</text>
<text text-anchor="start" x="464" y="-1126" font-family="Helvetica,sans-Serif" font-size="10.00">&#45;</text>
<text text-anchor="start" x="474.5" y="-1126" font-family="Helvetica,sans-Serif" font-size="10.00">processPendingDatagrams()</text>
<polygon fill="#666666" stroke="#666666" points="457.5,-1226 457.5,-1226 617.5,-1226 617.5,-1226 457.5,-1226"/>
<polygon fill="#666666" stroke="#666666" points="457.5,-1196 457.5,-1196 472.5,-1196 472.5,-1196 457.5,-1196"/>
<polygon fill="#666666" stroke="#666666" points="472.5,-1196 472.5,-1196 617.5,-1196 617.5,-1196 472.5,-1196"/>
<polygon fill="none" stroke="#666666" points="457.5,-1119 457.5,-1243 617.5,-1243 617.5,-1119 457.5,-1119"/>
</a>
</g>
</g>
<!-- Node4&#45;&gt;Node6 -->
<g id="edge7_Node000006_Node000004" class="edge">
<title>Node4&#45;&gt;Node6</title>
<g id="a_edge7_Node000006_Node000004"><a xlink:title=" ">
<path fill="none" stroke="#63b8ff" d="M317.52,-1904.51C344.02,-1894.31 380.36,-1877.85 407.5,-1856 506.12,-1776.61 542.12,-1751.66 583.5,-1632 629.51,-1498.96 588.54,-1331.61 559.83,-1243.22"/>
<polygon fill="none" stroke="#63b8ff" points="316.03,-1901.33 307.88,-1908.1 318.48,-1907.89 316.03,-1901.33"/>
</a>
</g>
</g>
<!-- Node8 -->
<g id="Node000008" class="node">
<title>Node8</title>
<g id="a_Node000008"><a xlink:href="classLogger.html" target="_top" xlink:title=" ">
<polygon fill="white" stroke="transparent" points="398.5,-1856 330.5,-1856 330.5,-1747 398.5,-1747 398.5,-1856"/>
<text text-anchor="start" x="347.5" y="-1843.5" font-family="Helvetica,sans-Serif" font-size="10.00">Logger</text>
<text text-anchor="start" x="362.5" y="-1828.5" font-family="Helvetica,sans-Serif" font-size="10.00"> </text>
<text text-anchor="start" x="334.5" y="-1813.5" font-family="Helvetica,sans-Serif" font-size="10.00">+</text>
<text text-anchor="start" x="347.5" y="-1813.5" font-family="Helvetica,sans-Serif" font-size="10.00">Logger()</text>
<text text-anchor="start" x="334.5" y="-1798.5" font-family="Helvetica,sans-Serif" font-size="10.00">+</text>
<text text-anchor="start" x="347.5" y="-1798.5" font-family="Helvetica,sans-Serif" font-size="10.00">log()</text>
<text text-anchor="start" x="334.5" y="-1783.5" font-family="Helvetica,sans-Serif" font-size="10.00">+</text>
<text text-anchor="start" x="347.5" y="-1783.5" font-family="Helvetica,sans-Serif" font-size="10.00">debug()</text>
<text text-anchor="start" x="334.5" y="-1768.5" font-family="Helvetica,sans-Serif" font-size="10.00">+</text>
<text text-anchor="start" x="347.5" y="-1768.5" font-family="Helvetica,sans-Serif" font-size="10.00">error()</text>
<text text-anchor="start" x="334.5" y="-1753.5" font-family="Helvetica,sans-Serif" font-size="10.00">+</text>
<text text-anchor="start" x="347.5" y="-1753.5" font-family="Helvetica,sans-Serif" font-size="10.00">warning()</text>
<polygon fill="#666666" stroke="#666666" points="330.5,-1838.5 330.5,-1838.5 398.5,-1838.5 398.5,-1838.5 330.5,-1838.5"/>
<polygon fill="#666666" stroke="#666666" points="330.5,-1823.5 330.5,-1823.5 398.5,-1823.5 398.5,-1823.5 330.5,-1823.5"/>
<polygon fill="none" stroke="#666666" points="330.5,-1747 330.5,-1856 398.5,-1856 398.5,-1747 330.5,-1747"/>
</a>
</g>
</g>
<!-- Node4&#45;&gt;Node8 -->
<g id="edge10_Node000008_Node000004" class="edge">
<title>Node4&#45;&gt;Node8</title>
<g id="a_edge10_Node000008_Node000004"><a xlink:title=" ">
<path fill="none" stroke="#63b8ff" d="M305.41,-1884.64C313.12,-1873.93 321.9,-1861.73 330.28,-1850.07"/>
<polygon fill="none" stroke="#63b8ff" points="302.49,-1882.72 299.49,-1892.88 308.17,-1886.8 302.49,-1882.72"/>
</a>
</g>
</g>
<!-- Node9 -->
<g id="Node000009" class="node">
<title>Node9</title>
<g id="a_Node000009"><a xlink:href="classFileSystem.html" target="_top" xlink:title=" ">
<polygon fill="white" stroke="transparent" points="254.5,-1729 162.5,-1729 162.5,-1650 254.5,-1650 254.5,-1729"/>
<text text-anchor="start" x="181" y="-1716.5" font-family="Helvetica,sans-Serif" font-size="10.00">FileSystem</text>
<text text-anchor="start" x="169" y="-1701.5" font-family="Helvetica,sans-Serif" font-size="10.00">&#45;</text>
<text text-anchor="start" x="179.5" y="-1701.5" font-family="Helvetica,sans-Serif" font-size="10.00">m_pathList</text>
<text text-anchor="start" x="166.5" y="-1686.5" font-family="Helvetica,sans-Serif" font-size="10.00">+</text>
<text text-anchor="start" x="179.5" y="-1686.5" font-family="Helvetica,sans-Serif" font-size="10.00">FileSystem()</text>
<text text-anchor="start" x="166.5" y="-1671.5" font-family="Helvetica,sans-Serif" font-size="10.00">+</text>
<text text-anchor="start" x="179.5" y="-1671.5" font-family="Helvetica,sans-Serif" font-size="10.00">addDirectory()</text>
<text text-anchor="start" x="166.5" y="-1656.5" font-family="Helvetica,sans-Serif" font-size="10.00">+</text>
<text text-anchor="start" x="179.5" y="-1656.5" font-family="Helvetica,sans-Serif" font-size="10.00">getDirectory()</text>
<polygon fill="#666666" stroke="#666666" points="162.5,-1711.5 162.5,-1711.5 254.5,-1711.5 254.5,-1711.5 162.5,-1711.5"/>
<polygon fill="#666666" stroke="#666666" points="162.5,-1696.5 162.5,-1696.5 177.5,-1696.5 177.5,-1696.5 162.5,-1696.5"/>
<polygon fill="#666666" stroke="#666666" points="177.5,-1696.5 177.5,-1696.5 254.5,-1696.5 254.5,-1696.5 177.5,-1696.5"/>
<polygon fill="none" stroke="#666666" points="162.5,-1650 162.5,-1729 254.5,-1729 254.5,-1650 162.5,-1650"/>
</a>
</g>
</g>
<!-- Node4&#45;&gt;Node9 -->
<g id="edge13_Node000009_Node000004" class="edge">
<title>Node4&#45;&gt;Node9</title>
<g id="a_edge13_Node000009_Node000004"><a xlink:title=" ">
<path fill="none" stroke="#63b8ff" d="M271.27,-1883.33C270.33,-1880.51 269.4,-1877.71 268.5,-1875 251.82,-1824.64 232.95,-1766.41 220.9,-1729.06"/>
<polygon fill="none" stroke="#63b8ff" points="267.96,-1884.45 274.46,-1892.81 274.59,-1882.22 267.96,-1884.45"/>
</a>
</g>
</g>
<!-- Node10 -->
<g id="Node000010" class="node">
<title>Node10</title>
<g id="a_Node000010"><a xlink:href="classTxtParser.html" target="_top" xlink:title=" ">
<polygon fill="white" stroke="transparent" points="171,-1325 96,-1325 96,-1261 171,-1261 171,-1325"/>
<text text-anchor="start" x="111" y="-1313" font-family="Helvetica,sans-Serif" font-size="10.00">TxtParser</text>
<text text-anchor="start" x="132" y="-1298" font-family="Helvetica,sans-Serif" font-size="10.00"> </text>
<text text-anchor="start" x="100.5" y="-1283" font-family="Helvetica,sans-Serif" font-size="10.00">+</text>
<text text-anchor="start" x="113.5" y="-1283" font-family="Helvetica,sans-Serif" font-size="10.00">TxtParser()</text>
<text text-anchor="start" x="100.5" y="-1268" font-family="Helvetica,sans-Serif" font-size="10.00">+</text>
<text text-anchor="start" x="113.5" y="-1268" font-family="Helvetica,sans-Serif" font-size="10.00">parseFile()</text>
<polygon fill="#666666" stroke="#666666" points="96.5,-1308 96.5,-1308 171.5,-1308 171.5,-1308 96.5,-1308"/>
<polygon fill="#666666" stroke="#666666" points="96.5,-1293 96.5,-1293 171.5,-1293 171.5,-1293 96.5,-1293"/>
<polygon fill="none" stroke="#666666" points="96,-1261 96,-1325 171,-1325 171,-1261 96,-1261"/>
</a>
</g>
</g>
<!-- Node4&#45;&gt;Node10 -->
<g id="edge17_Node000010_Node000004" class="edge">
<title>Node4&#45;&gt;Node10</title>
<g id="a_edge17_Node000010_Node000004"><a xlink:title=" ">
<path fill="none" stroke="#63b8ff" d="M249.99,-1887.16C240.51,-1877.73 230.55,-1866.89 222.5,-1856 184.45,-1804.51 171.57,-1790.71 154.5,-1729 113.93,-1582.35 124.17,-1397.44 130.4,-1325.06"/>
<polygon fill="none" stroke="#63b8ff" points="247.83,-1889.94 257.44,-1894.39 252.71,-1884.91 247.83,-1889.94"/>
</a>
</g>
</g>
<!-- Node11 -->
<g id="Node000011" class="node">
<title>Node11</title>
<g id="a_Node000011"><a xlink:href="classTestBenchModel.html" target="_top" xlink:title=" ">
<polygon fill="white" stroke="transparent" points="625.5,-691 491.5,-691 491.5,-537 625.5,-537 625.5,-691"/>
<text text-anchor="start" x="518.5" y="-679" font-family="Helvetica,sans-Serif" font-size="10.00">TestBenchModel</text>
<text text-anchor="start" x="498" y="-664" font-family="Helvetica,sans-Serif" font-size="10.00">&#45;</text>
<text text-anchor="start" x="508.5" y="-664" font-family="Helvetica,sans-Serif" font-size="10.00">m_testStatus</text>
<text text-anchor="start" x="498" y="-649" font-family="Helvetica,sans-Serif" font-size="10.00">&#45;</text>
<text text-anchor="start" x="508.5" y="-649" font-family="Helvetica,sans-Serif" font-size="10.00">m_testStatusInitialised</text>
<text text-anchor="start" x="495.5" y="-634" font-family="Helvetica,sans-Serif" font-size="10.00">+</text>
<text text-anchor="start" x="508.5" y="-634" font-family="Helvetica,sans-Serif" font-size="10.00">TestBenchModel()</text>
<text text-anchor="start" x="495.5" y="-619" font-family="Helvetica,sans-Serif" font-size="10.00">+</text>
<text text-anchor="start" x="508.5" y="-619" font-family="Helvetica,sans-Serif" font-size="10.00">setTestStatus()</text>
<text text-anchor="start" x="495.5" y="-604" font-family="Helvetica,sans-Serif" font-size="10.00">+</text>
<text text-anchor="start" x="508.5" y="-604" font-family="Helvetica,sans-Serif" font-size="10.00">getTestStatus()</text>
<text text-anchor="start" x="495.5" y="-589" font-family="Helvetica,sans-Serif" font-size="10.00">+</text>
<text text-anchor="start" x="508.5" y="-589" font-family="Helvetica,sans-Serif" font-size="10.00">getStatus()</text>
<text text-anchor="start" x="495.5" y="-574" font-family="Helvetica,sans-Serif" font-size="10.00">+</text>
<text text-anchor="start" x="508.5" y="-574" font-family="Helvetica,sans-Serif" font-size="10.00">getStatus()</text>
<text text-anchor="start" x="495.5" y="-559" font-family="Helvetica,sans-Serif" font-size="10.00">+</text>
<text text-anchor="start" x="508.5" y="-559" font-family="Helvetica,sans-Serif" font-size="10.00">getStatusID()</text>
<text text-anchor="start" x="495.5" y="-544" font-family="Helvetica,sans-Serif" font-size="10.00">+</text>
<text text-anchor="start" x="508.5" y="-544" font-family="Helvetica,sans-Serif" font-size="10.00">onStatesListRecieved()</text>
<polygon fill="#666666" stroke="#666666" points="491.5,-674 491.5,-674 625.5,-674 625.5,-674 491.5,-674"/>
<polygon fill="#666666" stroke="#666666" points="491.5,-644 491.5,-644 506.5,-644 506.5,-644 491.5,-644"/>
<polygon fill="#666666" stroke="#666666" points="506.5,-644 506.5,-644 625.5,-644 625.5,-644 506.5,-644"/>
<polygon fill="none" stroke="#666666" points="491.5,-537 491.5,-691 625.5,-691 625.5,-537 491.5,-537"/>
</a>
</g>
</g>
<!-- Node4&#45;&gt;Node11 -->
<g id="edge19_Node000011_Node000004" class="edge">
<title>Node4&#45;&gt;Node11</title>
<g id="a_edge19_Node000011_Node000004"><a xlink:title=" ">
<path fill="none" stroke="#63b8ff" d="M317.87,-1913.02C409.14,-1903.07 645.5,-1870.73 645.5,-1802.5 645.5,-1802.5 645.5,-1802.5 645.5,-904 645.5,-829.33 618.54,-748.25 594.64,-691.02"/>
<polygon fill="none" stroke="#63b8ff" points="317.31,-1909.56 307.74,-1914.1 318.05,-1916.52 317.31,-1909.56"/>
</a>
</g>
</g>
<!-- Node5&#45;&gt;Node3 -->
<g id="edge4_Node000003_Node000005" class="edge">
<title>Node5&#45;&gt;Node3</title>
<g id="a_edge4_Node000003_Node000005"><a xlink:title=" ">
<path fill="none" stroke="#63b8ff" d="M282.14,-737.64C265.09,-663.68 245.03,-576.69 227.87,-502.24"/>
<polygon fill="none" stroke="#63b8ff" points="227.83,-502.09 222.59,-497.14 225.14,-490.4 230.38,-495.34 227.83,-502.09"/>
</a>
</g>
<text text-anchor="middle" x="309.5" y="-611.5" font-family="Helvetica,sans-Serif" font-size="10.00" fill="grey"> &#45;m_udpChannel</text>
</g>
<!-- Node5&#45;&gt;Node11 -->
<g id="edge21_Node000011_Node000005" class="edge">
<title>Node5&#45;&gt;Node11</title>
<g id="a_edge21_Node000011_Node000005"><a xlink:title=" ">
<path fill="none" stroke="#63b8ff" d="M388.06,-821.96C419.23,-784.11 456.23,-739.19 487.77,-700.89"/>
<polygon fill="none" stroke="#63b8ff" points="488.04,-700.56 488.76,-693.39 495.67,-691.3 494.94,-698.47 488.04,-700.56"/>
</a>
</g>
<text text-anchor="middle" x="514.5" y="-712" font-family="Helvetica,sans-Serif" font-size="10.00" fill="grey"> &#45;m_udpChannel</text>
</g>
<!-- Node6&#45;&gt;Node5 -->
<g id="edge6_Node000005_Node000006" class="edge">
<title>Node6&#45;&gt;Node5</title>
<g id="a_edge6_Node000005_Node000006"><a xlink:title=" ">
<path fill="none" stroke="#63b8ff" d="M489.07,-1118.85C461.66,-1084.24 426.79,-1040.21 395.88,-1001.18"/>
<polygon fill="none" stroke="#63b8ff" points="395.57,-1000.79 388.71,-998.57 388.12,-991.38 394.98,-993.6 395.57,-1000.79"/>
</a>
</g>
<text text-anchor="middle" x="509.5" y="-1093" font-family="Helvetica,sans-Serif" font-size="10.00" fill="grey"> &#45;m_udpWorker</text>
</g>
<!-- Node7 -->
<g id="Node000007" class="node">
<title>Node7</title>
<g id="a_Node000007"><a xlink:href="classUdpLogger.html" target="_top" xlink:title=" ">
<polygon fill="white" stroke="transparent" points="482,-1632 349,-1632 349,-1343 482,-1343 482,-1632"/>
<text text-anchor="start" x="389.5" y="-1619.5" font-family="Helvetica,sans-Serif" font-size="10.00">UdpLogger</text>
<text text-anchor="start" x="356" y="-1604.5" font-family="Helvetica,sans-Serif" font-size="10.00">&#45;</text>
<text text-anchor="start" x="366.5" y="-1604.5" font-family="Helvetica,sans-Serif" font-size="10.00">m_writer</text>
<text text-anchor="start" x="356" y="-1589.5" font-family="Helvetica,sans-Serif" font-size="10.00">&#45;</text>
<text text-anchor="start" x="366.5" y="-1589.5" font-family="Helvetica,sans-Serif" font-size="10.00">m_ringBuffer</text>
<text text-anchor="start" x="356" y="-1574.5" font-family="Helvetica,sans-Serif" font-size="10.00">&#45;</text>
<text text-anchor="start" x="366.5" y="-1574.5" font-family="Helvetica,sans-Serif" font-size="10.00">m_running</text>
<text text-anchor="start" x="356" y="-1559.5" font-family="Helvetica,sans-Serif" font-size="10.00">&#45;</text>
<text text-anchor="start" x="366.5" y="-1559.5" font-family="Helvetica,sans-Serif" font-size="10.00">m_writerThread</text>
<text text-anchor="start" x="356" y="-1544.5" font-family="Helvetica,sans-Serif" font-size="10.00">&#45;</text>
<text text-anchor="start" x="366.5" y="-1544.5" font-family="Helvetica,sans-Serif" font-size="10.00">m_logDirPath</text>
<text text-anchor="start" x="356" y="-1529.5" font-family="Helvetica,sans-Serif" font-size="10.00">&#45;</text>
<text text-anchor="start" x="366.5" y="-1529.5" font-family="Helvetica,sans-Serif" font-size="10.00">MAX_FRAME_SIZE</text>
<text text-anchor="start" x="353.5" y="-1514.5" font-family="Helvetica,sans-Serif" font-size="10.00">+</text>
<text text-anchor="start" x="366.5" y="-1514.5" font-family="Helvetica,sans-Serif" font-size="10.00">UdpLogger()</text>
<text text-anchor="start" x="353.5" y="-1499.5" font-family="Helvetica,sans-Serif" font-size="10.00">+</text>
<text text-anchor="start" x="366.5" y="-1499.5" font-family="Helvetica,sans-Serif" font-size="10.00">~UdpLogger()</text>
<text text-anchor="start" x="353.5" y="-1484.5" font-family="Helvetica,sans-Serif" font-size="10.00">+</text>
<text text-anchor="start" x="366.5" y="-1484.5" font-family="Helvetica,sans-Serif" font-size="10.00">UdpLogger()</text>
<text text-anchor="start" x="353.5" y="-1469.5" font-family="Helvetica,sans-Serif" font-size="10.00">+</text>
<text text-anchor="start" x="366.5" y="-1469.5" font-family="Helvetica,sans-Serif" font-size="10.00">operator=()</text>
<text text-anchor="start" x="353.5" y="-1454.5" font-family="Helvetica,sans-Serif" font-size="10.00">+</text>
<text text-anchor="start" x="366.5" y="-1454.5" font-family="Helvetica,sans-Serif" font-size="10.00">UdpLogger()</text>
<text text-anchor="start" x="353.5" y="-1439.5" font-family="Helvetica,sans-Serif" font-size="10.00">+</text>
<text text-anchor="start" x="366.5" y="-1439.5" font-family="Helvetica,sans-Serif" font-size="10.00">operator=()</text>
<text text-anchor="start" x="353.5" y="-1424.5" font-family="Helvetica,sans-Serif" font-size="10.00">+</text>
<text text-anchor="start" x="366.5" y="-1424.5" font-family="Helvetica,sans-Serif" font-size="10.00">log()</text>
<text text-anchor="start" x="353.5" y="-1409.5" font-family="Helvetica,sans-Serif" font-size="10.00">+</text>
<text text-anchor="start" x="366.5" y="-1409.5" font-family="Helvetica,sans-Serif" font-size="10.00">cyclesCount()</text>
<text text-anchor="start" x="353.5" y="-1394.5" font-family="Helvetica,sans-Serif" font-size="10.00">+</text>
<text text-anchor="start" x="366.5" y="-1394.5" font-family="Helvetica,sans-Serif" font-size="10.00">droppedFramesCount()</text>
<text text-anchor="start" x="353.5" y="-1379.5" font-family="Helvetica,sans-Serif" font-size="10.00">+</text>
<text text-anchor="start" x="366.5" y="-1379.5" font-family="Helvetica,sans-Serif" font-size="10.00">start()</text>
<text text-anchor="start" x="353.5" y="-1364.5" font-family="Helvetica,sans-Serif" font-size="10.00">+</text>
<text text-anchor="start" x="366.5" y="-1364.5" font-family="Helvetica,sans-Serif" font-size="10.00">stop()</text>
<text text-anchor="start" x="356" y="-1349.5" font-family="Helvetica,sans-Serif" font-size="10.00">&#45;</text>
<text text-anchor="start" x="366.5" y="-1349.5" font-family="Helvetica,sans-Serif" font-size="10.00">writerLoop()</text>
<polygon fill="#666666" stroke="#666666" points="349.5,-1614.5 349.5,-1614.5 482.5,-1614.5 482.5,-1614.5 349.5,-1614.5"/>
<polygon fill="#666666" stroke="#666666" points="349.5,-1524.5 349.5,-1524.5 364.5,-1524.5 364.5,-1524.5 349.5,-1524.5"/>
<polygon fill="#666666" stroke="#666666" points="364.5,-1524.5 364.5,-1524.5 482.5,-1524.5 482.5,-1524.5 364.5,-1524.5"/>
<polygon fill="none" stroke="#666666" points="349,-1343 349,-1632 482,-1632 482,-1343 349,-1343"/>
</a>
</g>
</g>
<!-- Node7&#45;&gt;Node5 -->
<g id="edge15_Node000005_Node000007" class="edge">
<title>Node7&#45;&gt;Node5</title>
<g id="a_edge15_Node000005_Node000007"><a xlink:title=" ">
<path fill="none" stroke="#63b8ff" d="M391.89,-1342.94C386.5,-1310.1 380.8,-1275.34 375.5,-1243 367.06,-1191.44 357.91,-1135.44 349.54,-1084.16"/>
<polygon fill="none" stroke="#63b8ff" points="349.53,-1084.12 344.62,-1078.84 347.6,-1072.27 352.52,-1077.55 349.53,-1084.12"/>
</a>
</g>
<text text-anchor="middle" x="412" y="-1178.5" font-family="Helvetica,sans-Serif" font-size="10.00" fill="grey"> &#45;m_udpLogger</text>
</g>
<!-- Node7&#45;&gt;Node6 -->
<g id="edge8_Node000006_Node000007" class="edge">
<title>Node7&#45;&gt;Node6</title>
<g id="a_edge8_Node000006_Node000007"><a xlink:title=" ">
<path fill="none" stroke="#63b8ff" d="M409,-1342.93C412.57,-1314.5 419.93,-1285.81 433.5,-1261 437.69,-1253.34 442.97,-1246.2 448.92,-1239.59"/>
<polygon fill="none" stroke="#63b8ff" points="449.02,-1239.49 450.35,-1232.41 457.41,-1230.91 456.07,-1238 449.02,-1239.49"/>
</a>
</g>
<text text-anchor="middle" x="469" y="-1290.5" font-family="Helvetica,sans-Serif" font-size="10.00" fill="grey"> &#45;m_udplogger</text>
</g>
<!-- Node8&#45;&gt;Node5 -->
<g id="edge14_Node000005_Node000008" class="edge">
<title>Node8&#45;&gt;Node5</title>
<g id="a_edge14_Node000005_Node000008"><a xlink:title=" ">
<path fill="none" stroke="#63b8ff" d="M355.78,-1746.75C350.68,-1713.72 344.49,-1670.5 340.5,-1632 326.4,-1495.99 324.95,-1461.66 320.5,-1325 317.93,-1246.14 317.54,-1158.89 317.94,-1084.52"/>
<polygon fill="none" stroke="#63b8ff" points="317.94,-1084.22 313.98,-1078.2 318.02,-1072.22 321.98,-1078.25 317.94,-1084.22"/>
</a>
</g>
<text text-anchor="middle" x="347" y="-1290.5" font-family="Helvetica,sans-Serif" font-size="10.00" fill="grey"> &#45;m_logger</text>
</g>
<!-- Node8&#45;&gt;Node6 -->
<g id="edge11_Node000006_Node000008" class="edge">
<title>Node8&#45;&gt;Node6</title>
<g id="a_edge11_Node000006_Node000008"><a xlink:title=" ">
<path fill="none" stroke="#63b8ff" d="M398.83,-1774.89C414.14,-1762.27 431.6,-1746.1 444.5,-1729 473.35,-1690.76 478.42,-1678.09 491.5,-1632 511.04,-1563.17 526.07,-1364.31 533.11,-1255.42"/>
<polygon fill="none" stroke="#63b8ff" points="533.12,-1255.22 529.51,-1248.98 533.89,-1243.25 537.5,-1249.49 533.12,-1255.22"/>
</a>
</g>
<text text-anchor="middle" x="553" y="-1485" font-family="Helvetica,sans-Serif" font-size="10.00" fill="grey"> &#45;m_logger</text>
</g>
<!-- Node8&#45;&gt;Node7 -->
<g id="edge9_Node000007_Node000008" class="edge">
<title>Node8&#45;&gt;Node7</title>
<g id="a_edge9_Node000007_Node000008"><a xlink:title=" ">
<path fill="none" stroke="#63b8ff" d="M373.27,-1746.87C377.96,-1718.17 384,-1681.21 390.04,-1644.27"/>
<polygon fill="none" stroke="#63b8ff" points="390.06,-1644.12 387.08,-1637.56 392,-1632.28 394.98,-1638.85 390.06,-1644.12"/>
</a>
</g>
<text text-anchor="middle" x="414" y="-1687" font-family="Helvetica,sans-Serif" font-size="10.00" fill="grey"> &#45;m_logger</text>
</g>
<!-- Node9&#45;&gt;Node5 -->
<g id="edge12_Node000005_Node000009" class="edge">
<title>Node9&#45;&gt;Node5</title>
<g id="a_edge12_Node000005_Node000009"><a xlink:title=" ">
<path fill="none" stroke="#63b8ff" d="M202.04,-1649.82C190.59,-1574.38 170.12,-1402.61 194.5,-1261 205.45,-1197.42 226.67,-1130.14 248.62,-1071.43"/>
<polygon fill="none" stroke="#63b8ff" points="248.62,-1071.42 247,-1064.39 252.87,-1060.19 254.48,-1067.22 248.62,-1071.42"/>
</a>
</g>
<text text-anchor="middle" x="231.5" y="-1290.5" font-family="Helvetica,sans-Serif" font-size="10.00" fill="grey"> &#45;m_fileSystem</text>
</g>
<!-- Node10&#45;&gt;Node3 -->
<g id="edge16_Node000003_Node000010" class="edge">
<title>Node10&#45;&gt;Node3</title>
<g id="a_edge16_Node000003_Node000010"><a xlink:title=" ">
<path fill="none" stroke="#63b8ff" d="M136.33,-1260.88C139.59,-1222.33 144.5,-1154.63 144.5,-1096.5 144.5,-1096.5 144.5,-1096.5 144.5,-613 144.5,-577 148.06,-538.72 153.15,-502.37"/>
<polygon fill="none" stroke="#63b8ff" points="153.2,-501.99 150.11,-495.48 154.93,-490.12 158.02,-496.63 153.2,-501.99"/>
</a>
</g>
<text text-anchor="middle" x="177.5" y="-902.5" font-family="Helvetica,sans-Serif" font-size="10.00" fill="grey"> &#45;m_txtParser</text>
</g>
<!-- Node11&#45;&gt;Node3 -->
<g id="edge18_Node000003_Node000011" class="edge">
<title>Node11&#45;&gt;Node3</title>
<g id="a_edge18_Node000003_Node000011"><a xlink:title=" ">
<path fill="none" stroke="#63b8ff" d="M491.5,-562.02C431.87,-516.66 344.19,-449.95 278.47,-399.95"/>
<polygon fill="none" stroke="#63b8ff" points="278.08,-399.65 270.88,-399.2 268.53,-392.38 275.72,-392.83 278.08,-399.65"/>
</a>
</g>
<text text-anchor="middle" x="467.5" y="-511" font-family="Helvetica,sans-Serif" font-size="10.00" fill="grey"> &#45;m_testBenchM</text>
</g>
<!-- Node12 -->
<g id="Node000012" class="node">
<title>Node12</title>
<g id="a_Node000012"><a xlink:href="classTestBenchStatesList.html" target="_top" xlink:title=" ">
<polygon fill="white" stroke="transparent" points="781.5,-959.5 673.5,-959.5 673.5,-850.5 781.5,-850.5 781.5,-959.5"/>
<text text-anchor="start" x="678.5" y="-947" font-family="Helvetica,sans-Serif" font-size="10.00">TestBenchStatesList</text>
<text text-anchor="start" x="681" y="-932" font-family="Helvetica,sans-Serif" font-size="10.00">&#45;</text>
<text text-anchor="start" x="692.5" y="-932" font-family="Helvetica,sans-Serif" font-size="10.00">m_valuesDatas</text>
<text text-anchor="start" x="681" y="-917" font-family="Helvetica,sans-Serif" font-size="10.00">&#45;</text>
<text text-anchor="start" x="692.5" y="-917" font-family="Helvetica,sans-Serif" font-size="10.00">m_valuesNames</text>
<text text-anchor="start" x="678.5" y="-902" font-family="Helvetica,sans-Serif" font-size="10.00">+</text>
<text text-anchor="start" x="692.5" y="-902" font-family="Helvetica,sans-Serif" font-size="10.00">append()</text>
<text text-anchor="start" x="678.5" y="-887" font-family="Helvetica,sans-Serif" font-size="10.00">+</text>
<text text-anchor="start" x="692.5" y="-887" font-family="Helvetica,sans-Serif" font-size="10.00">getValue()</text>
<text text-anchor="start" x="678.5" y="-872" font-family="Helvetica,sans-Serif" font-size="10.00">+</text>
<text text-anchor="start" x="692.5" y="-872" font-family="Helvetica,sans-Serif" font-size="10.00">getValue()</text>
<text text-anchor="start" x="678.5" y="-857" font-family="Helvetica,sans-Serif" font-size="10.00">+</text>
<text text-anchor="start" x="692.5" y="-857" font-family="Helvetica,sans-Serif" font-size="10.00">getID()</text>
<polygon fill="#666666" stroke="#666666" points="673.5,-942 673.5,-942 781.5,-942 781.5,-942 673.5,-942"/>
<polygon fill="#666666" stroke="#666666" points="673.5,-912 673.5,-912 690.5,-912 690.5,-912 673.5,-912"/>
<polygon fill="#666666" stroke="#666666" points="690.5,-912 690.5,-912 781.5,-912 781.5,-912 690.5,-912"/>
<polygon fill="none" stroke="#666666" points="673.5,-850.5 673.5,-959.5 781.5,-959.5 781.5,-850.5 673.5,-850.5"/>
</a>
</g>
</g>
<!-- Node12&#45;&gt;Node11 -->
<g id="edge20_Node000011_Node000012" class="edge">
<title>Node12&#45;&gt;Node11</title>
<g id="a_edge20_Node000011_Node000012"><a xlink:title=" ">
<path fill="none" stroke="#63b8ff" d="M716.26,-850.36C705.96,-809.31 687.92,-752.53 659.5,-709 652.33,-698.02 643.61,-687.44 634.33,-677.59"/>
<polygon fill="none" stroke="#63b8ff" points="634.07,-677.32 627.02,-675.84 625.67,-668.75 632.73,-670.24 634.07,-677.32"/>
</a>
</g>
<text text-anchor="middle" x="690.5" y="-712" font-family="Helvetica,sans-Serif" font-size="10.00" fill="grey"> &#45;m_states</text>
</g>
</g>
</svg>

<g id="navigator" transform="translate(0 0)" fill="#404254">
  <rect fill="#f2f5e9" fill-opacity="0.5" stroke="#606060" stroke-width=".5" x="0" y="0" width="60" height="60"/>
  <use id="zoomplus" xlink:href="#zoomPlus" x="17" y="9" onmousedown="handleZoom(evt,'in')"/>
  <use id="zoomminus" xlink:href="#zoomMin" x="42" y="9" onmousedown="handleZoom(evt,'out')"/>
  <use id="reset" xlink:href="#resetDef" x="30" y="36" onmousedown="handleReset()"/>
   <use id="arrowup" xlink:href="#arrowUp" x="0" y="0" onmousedown="handlePan(0,-1)"/>
  <use id="arrowright" xlink:href="#arrowRight" x="0" y="0" onmousedown="handlePan(1,0)"/>
  <use id="arrowdown" xlink:href="#arrowDown" x="0" y="0" onmousedown="handlePan(0,1)"/>
  <use id="arrowleft" xlink:href="#arrowLeft" x="0" y="0" onmousedown="handlePan(-1,0)"/>
</g>
<svg viewBox="0 0 15 15" width="100%" height="30px" preserveAspectRatio="xMaxYMin meet">
 <g id="arrow_out" transform="scale(0.3 0.3)">
  <a xlink:href="classTestLauncher__coll__graph_org.svg" target="_base">
   <rect id="button" ry="5" rx="5" y="6" x="6" height="38" width="38"
        fill="#f2f5e9" fill-opacity="0.5" stroke="#606060" stroke-width="1.0"/>
   <path id="arrow"
     d="M 11.500037,31.436501 C 11.940474,20.09759 22.043105,11.32322 32.158766,21.979434 L 37.068811,17.246167 C 37.068811,17.246167 37.088388,32 37.088388,32 L 22.160133,31.978069 C 22.160133,31.978069 26.997745,27.140456 26.997745,27.140456 C 18.528582,18.264221 13.291696,25.230495 11.500037,31.436501 z"
     style="fill:#404040;"/>
  </a>
 </g>
</svg>

<style type='text/css'>
<![CDATA[
[data-mouse-over-selected='false'] { opacity: 0.7; }
[data-mouse-over-selected='true']  { opacity: 1.0; }
]]>
</style>
<script type="application/ecmascript"><![CDATA[
document.addEventListener('DOMContentLoaded', (event) => {
  highlightEdges();
  highlightAdjacentNodes();
});
]]></script>
</svg>
