<?xml version="1.0" encoding="UTF-8" standalone="no"?>
<!DOCTYPE svg PUBLIC "-//W3C//DTD SVG 1.1//EN"
 "http://www.w3.org/Graphics/SVG/1.1/DTD/svg11.dtd">
<!-- Generated by graphviz version 2.43.0 (0)
 -->
<!-- Title: TankPressureControlerViewModel::sensorValue Pages: 1 -->
<svg width="503pt" height="86pt"
 viewBox="0.00 0.00 503.00 86.00" xmlns="http://www.w3.org/2000/svg" xmlns:xlink="http://www.w3.org/1999/xlink">
<g id="graph0" class="graph" transform="scale(1 1) rotate(0) translate(4 82)">
<title>TankPressureControlerViewModel::sensorValue</title>
<!-- Node1 -->
<g id="Node000001" class="node">
<title>Node1</title>
<g id="a_Node000001"><a xlink:title=" ">
<polygon fill="#999999" stroke="#666666" points="150,-53 0,-53 0,-23 150,-23 150,-53"/>
<text text-anchor="start" x="8" y="-41" font-family="Helvetica,sans-Serif" font-size="10.00">TankPressureControlerView</text>
<text text-anchor="middle" x="75" y="-30" font-family="Helvetica,sans-Serif" font-size="10.00">Model::sensorValue</text>
</a>
</g>
</g>
<!-- Node2 -->
<g id="Node000002" class="node">
<title>Node2</title>
<g id="a_Node000002"><a xlink:href="classTestBenchModel.html#ad20ac636e12877b99b3bf0e2ee8e5b07" target="_top" xlink:title=" ">
<polygon fill="white" stroke="#666666" points="340,-69.5 191,-69.5 191,-50.5 340,-50.5 340,-69.5"/>
<text text-anchor="middle" x="265.5" y="-57.5" font-family="Helvetica,sans-Serif" font-size="10.00">TestBenchModel::getStatus</text>
</a>
</g>
</g>
<!-- Node1&#45;&gt;Node2 -->
<g id="edge1_Node000001_Node000002" class="edge">
<title>Node1&#45;&gt;Node2</title>
<g id="a_edge1_Node000001_Node000002"><a xlink:title=" ">
<path fill="none" stroke="#63b8ff" d="M150.23,-46.66C160.27,-47.84 170.64,-49.05 180.83,-50.24"/>
<polygon fill="#63b8ff" stroke="#63b8ff" points="180.62,-53.73 190.96,-51.42 181.43,-46.78 180.62,-53.73"/>
</a>
</g>
</g>
<!-- Node4 -->
<g id="Node000004" class="node">
<title>Node4</title>
<g id="a_Node000004"><a xlink:href="classTestBenchModel.html#ace6e3de6f5ccb11ee6e9b3f80b630377" target="_top" xlink:title=" ">
<polygon fill="white" stroke="#666666" points="345,-29.5 186,-29.5 186,-10.5 345,-10.5 345,-29.5"/>
<text text-anchor="middle" x="265.5" y="-17.5" font-family="Helvetica,sans-Serif" font-size="10.00">TestBenchModel::getStatusID</text>
</a>
</g>
</g>
<!-- Node1&#45;&gt;Node4 -->
<g id="edge3_Node000001_Node000004" class="edge">
<title>Node1&#45;&gt;Node4</title>
<g id="a_edge3_Node000001_Node000004"><a xlink:title=" ">
<path fill="none" stroke="#63b8ff" d="M150.23,-30.91C158.67,-30.11 167.34,-29.28 175.94,-28.46"/>
<polygon fill="#63b8ff" stroke="#63b8ff" points="176.37,-31.93 185.99,-27.5 175.71,-24.96 176.37,-31.93"/>
</a>
</g>
</g>
<!-- Node3 -->
<g id="Node000003" class="node">
<title>Node3</title>
<g id="a_Node000003"><a xlink:href="classTestBenchStatesList.html#a9c69f8c778b31be6b13d95caa7d618b9" target="_top" xlink:title=" ">
<polygon fill="white" stroke="#666666" points="495,-78 381,-78 381,-48 495,-48 495,-78"/>
<text text-anchor="start" x="389" y="-66" font-family="Helvetica,sans-Serif" font-size="10.00">TestBenchStatesList</text>
<text text-anchor="middle" x="438" y="-55" font-family="Helvetica,sans-Serif" font-size="10.00">::getValue</text>
</a>
</g>
</g>
<!-- Node2&#45;&gt;Node3 -->
<g id="edge2_Node000002_Node000003" class="edge">
<title>Node2&#45;&gt;Node3</title>
<g id="a_edge2_Node000002_Node000003"><a xlink:title=" ">
<path fill="none" stroke="#63b8ff" d="M340.29,-61.3C350.38,-61.48 360.68,-61.66 370.63,-61.83"/>
<polygon fill="#63b8ff" stroke="#63b8ff" points="370.77,-65.34 380.83,-62.01 370.9,-58.34 370.77,-65.34"/>
</a>
</g>
</g>
<!-- Node5 -->
<g id="Node000005" class="node">
<title>Node5</title>
<g id="a_Node000005"><a xlink:href="classTestBenchStatesList.html#ad87ab49f0bb0081c228afd6dae8c9e57" target="_top" xlink:title=" ">
<polygon fill="white" stroke="#666666" points="495,-30 381,-30 381,0 495,0 495,-30"/>
<text text-anchor="start" x="389" y="-18" font-family="Helvetica,sans-Serif" font-size="10.00">TestBenchStatesList</text>
<text text-anchor="middle" x="438" y="-7" font-family="Helvetica,sans-Serif" font-size="10.00">::getID</text>
</a>
</g>
</g>
<!-- Node4&#45;&gt;Node5 -->
<g id="edge4_Node000004_Node000005" class="edge">
<title>Node4&#45;&gt;Node5</title>
<g id="a_edge4_Node000004_Node000005"><a xlink:title=" ">
<path fill="none" stroke="#63b8ff" d="M345.26,-17.69C353.82,-17.44 362.47,-17.19 370.86,-16.94"/>
<polygon fill="#63b8ff" stroke="#63b8ff" points="371.04,-20.44 380.94,-16.64 370.84,-13.44 371.04,-20.44"/>
</a>
</g>
</g>
</g>
</svg>
