<?xml version="1.0" encoding="UTF-8" standalone="no"?>
<!DOCTYPE svg PUBLIC "-//W3C//DTD SVG 1.1//EN"
 "http://www.w3.org/Graphics/SVG/1.1/DTD/svg11.dtd">
<!-- Generated by graphviz version 2.43.0 (0)
 -->
<!-- Title: ExportMenu::onMenuAboutToShow Pages: 1 -->
<svg width="714pt" height="129pt"
 viewBox="0.00 0.00 714.00 129.00" xmlns="http://www.w3.org/2000/svg" xmlns:xlink="http://www.w3.org/1999/xlink">
<g id="graph0" class="graph" transform="scale(1 1) rotate(0) translate(4 125)">
<title>ExportMenu::onMenuAboutToShow</title>
<!-- Node1 -->
<g id="Node000001" class="node">
<title>Node1</title>
<g id="a_Node000001"><a xlink:title=" ">
<polygon fill="#999999" stroke="#666666" points="185,-45.5 0,-45.5 0,-26.5 185,-26.5 185,-45.5"/>
<text text-anchor="middle" x="92.5" y="-33.5" font-family="Helvetica,sans-Serif" font-size="10.00">ExportMenu::onMenuAboutToShow</text>
</a>
</g>
</g>
<!-- Node2 -->
<g id="Node000002" class="node">
<title>Node2</title>
<g id="a_Node000002"><a xlink:href="classExportMenu.html#aef6d81eddb25b7196317736fcf088b21" target="_top" xlink:title=" ">
<polygon fill="white" stroke="#666666" points="343.5,-67.5 227.5,-67.5 227.5,-48.5 343.5,-48.5 343.5,-67.5"/>
<text text-anchor="middle" x="285.5" y="-55.5" font-family="Helvetica,sans-Serif" font-size="10.00">ExportMenu::addFile</text>
</a>
</g>
</g>
<!-- Node1&#45;&gt;Node2 -->
<g id="edge1_Node000001_Node000002" class="edge">
<title>Node1&#45;&gt;Node2</title>
<g id="a_edge1_Node000001_Node000002"><a xlink:title=" ">
<path fill="none" stroke="#63b8ff" d="M176.16,-45.52C189.9,-47.1 204,-48.73 217.3,-50.26"/>
<polygon fill="#63b8ff" stroke="#63b8ff" points="216.95,-53.74 227.29,-51.41 217.75,-46.79 216.95,-53.74"/>
</a>
</g>
</g>
<!-- Node6 -->
<g id="Node000006" class="node">
<title>Node6</title>
<g id="a_Node000006"><a xlink:href="classExportMenuViewModel.html#a7623949a64e9609b02ae9a45ba81427d" target="_top" xlink:title=" ">
<polygon fill="white" stroke="#666666" points="350,-30 221,-30 221,0 350,0 350,-30"/>
<text text-anchor="start" x="229" y="-18" font-family="Helvetica,sans-Serif" font-size="10.00">ExportMenuViewModel</text>
<text text-anchor="middle" x="285.5" y="-7" font-family="Helvetica,sans-Serif" font-size="10.00">::getFileList</text>
</a>
</g>
</g>
<!-- Node1&#45;&gt;Node6 -->
<g id="edge5_Node000001_Node000006" class="edge">
<title>Node1&#45;&gt;Node6</title>
<g id="a_edge5_Node000001_Node000006"><a xlink:title=" ">
<path fill="none" stroke="#63b8ff" d="M180.06,-26.48C190.35,-25.35 200.78,-24.21 210.86,-23.1"/>
<polygon fill="#63b8ff" stroke="#63b8ff" points="211.26,-26.57 220.82,-22 210.49,-19.62 211.26,-26.57"/>
</a>
</g>
</g>
<!-- Node3 -->
<g id="Node000003" class="node">
<title>Node3</title>
<g id="a_Node000003"><a xlink:href="classExportMenuViewModel.html#a09ec6498ecf1657151562a2c670c3981" target="_top" xlink:title=" ">
<polygon fill="white" stroke="#666666" points="519,-121 390,-121 390,-91 519,-91 519,-121"/>
<text text-anchor="start" x="398" y="-109" font-family="Helvetica,sans-Serif" font-size="10.00">ExportMenuViewModel</text>
<text text-anchor="middle" x="454.5" y="-98" font-family="Helvetica,sans-Serif" font-size="10.00">::selectAction</text>
</a>
</g>
</g>
<!-- Node2&#45;&gt;Node3 -->
<g id="edge2_Node000002_Node000003" class="edge">
<title>Node2&#45;&gt;Node3</title>
<g id="a_edge2_Node000002_Node000003"><a xlink:title=" ">
<path fill="none" stroke="#63b8ff" d="M319.89,-67.6C340.31,-73.47 367.06,-81.15 391.26,-88.11"/>
<polygon fill="#63b8ff" stroke="#63b8ff" points="390.52,-91.54 401.09,-90.94 392.45,-84.81 390.52,-91.54"/>
</a>
</g>
</g>
<!-- Node5 -->
<g id="Node000005" class="node">
<title>Node5</title>
<g id="a_Node000005"><a xlink:href="classExportMenuViewModel.html#a74c1db1b014d8f7b623535cea754605e" target="_top" xlink:title=" ">
<polygon fill="white" stroke="#666666" points="519,-73 390,-73 390,-43 519,-43 519,-73"/>
<text text-anchor="start" x="398" y="-61" font-family="Helvetica,sans-Serif" font-size="10.00">ExportMenuViewModel</text>
<text text-anchor="middle" x="454.5" y="-50" font-family="Helvetica,sans-Serif" font-size="10.00">::selectFile</text>
</a>
</g>
</g>
<!-- Node2&#45;&gt;Node5 -->
<g id="edge4_Node000002_Node000005" class="edge">
<title>Node2&#45;&gt;Node5</title>
<g id="a_edge4_Node000002_Node000005"><a xlink:title=" ">
<path fill="none" stroke="#63b8ff" d="M343.5,-58C355.17,-58 367.6,-58 379.75,-58"/>
<polygon fill="#63b8ff" stroke="#63b8ff" points="379.88,-61.5 389.88,-58 379.87,-54.5 379.88,-61.5"/>
</a>
</g>
</g>
<!-- Node4 -->
<g id="Node000004" class="node">
<title>Node4</title>
<g id="a_Node000004"><a xlink:href="classExportMenuViewModel.html#aa2125dbbb4de01624b055d7a2e0194ae" target="_top" xlink:title=" ">
<polygon fill="white" stroke="#666666" points="706,-121 559,-121 559,-91 706,-91 706,-121"/>
<text text-anchor="start" x="567" y="-109" font-family="Helvetica,sans-Serif" font-size="10.00">ExportMenuViewModel</text>
<text text-anchor="middle" x="632.5" y="-98" font-family="Helvetica,sans-Serif" font-size="10.00">::requestFileDialogWindow</text>
</a>
</g>
</g>
<!-- Node3&#45;&gt;Node4 -->
<g id="edge3_Node000003_Node000004" class="edge">
<title>Node3&#45;&gt;Node4</title>
<g id="a_edge3_Node000003_Node000004"><a xlink:title=" ">
<path fill="none" stroke="#63b8ff" d="M519.04,-106C528.61,-106 538.61,-106 548.51,-106"/>
<polygon fill="#63b8ff" stroke="#63b8ff" points="548.79,-109.5 558.79,-106 548.79,-102.5 548.79,-109.5"/>
</a>
</g>
</g>
<!-- Node7 -->
<g id="Node000007" class="node">
<title>Node7</title>
<g id="a_Node000007"><a xlink:href="classFileSystem.html#a629654905eeeb0ecbd65586c640d0158" target="_top" xlink:title=" ">
<polygon fill="white" stroke="#666666" points="523,-24.5 386,-24.5 386,-5.5 523,-5.5 523,-24.5"/>
<text text-anchor="middle" x="454.5" y="-12.5" font-family="Helvetica,sans-Serif" font-size="10.00">FileSystem::getDirectory</text>
</a>
</g>
</g>
<!-- Node6&#45;&gt;Node7 -->
<g id="edge6_Node000006_Node000007" class="edge">
<title>Node6&#45;&gt;Node7</title>
<g id="a_edge6_Node000006_Node000007"><a xlink:title=" ">
<path fill="none" stroke="#63b8ff" d="M350.11,-15C358.53,-15 367.23,-15 375.84,-15"/>
<polygon fill="#63b8ff" stroke="#63b8ff" points="375.9,-18.5 385.9,-15 375.9,-11.5 375.9,-18.5"/>
</a>
</g>
</g>
</g>
</svg>
