<?xml version="1.0" encoding="UTF-8" standalone="no"?>
<!DOCTYPE svg PUBLIC "-//W3C//DTD SVG 1.1//EN"
 "http://www.w3.org/Graphics/SVG/1.1/DTD/svg11.dtd">
<!-- Generated by graphviz version 2.43.0 (0)
 -->
<!-- Title: PlotViewModel::curvesValuesChanged Pages: 1 -->
<svg width="572pt" height="76pt"
 viewBox="0.00 0.00 572.00 75.50" xmlns="http://www.w3.org/2000/svg" xmlns:xlink="http://www.w3.org/1999/xlink">
<g id="graph0" class="graph" transform="scale(1 1) rotate(0) translate(4 71.5)">
<title>PlotViewModel::curvesValuesChanged</title>
<!-- Node1 -->
<g id="Node000001" class="node">
<title>Node1</title>
<g id="a_Node000001"><a xlink:title=" ">
<polygon fill="#999999" stroke="#666666" points="564,-45.5 404,-45.5 404,-15.5 564,-15.5 564,-45.5"/>
<text text-anchor="start" x="412" y="-33.5" font-family="Helvetica,sans-Serif" font-size="10.00">PlotViewModel::curvesValues</text>
<text text-anchor="middle" x="484" y="-22.5" font-family="Helvetica,sans-Serif" font-size="10.00">Changed</text>
</a>
</g>
</g>
<!-- Node2 -->
<g id="Node000002" class="node">
<title>Node2</title>
<g id="a_Node000002"><a xlink:href="classPlotViewModel.html#afa427002b5ebcd80b47eaf73b57e2f6a" target="_top" xlink:title=" ">
<polygon fill="white" stroke="#666666" points="368,-67.5 204,-67.5 204,-37.5 368,-37.5 368,-67.5"/>
<text text-anchor="start" x="212" y="-55.5" font-family="Helvetica,sans-Serif" font-size="10.00">PlotViewModel::onSensorData</text>
<text text-anchor="middle" x="286" y="-44.5" font-family="Helvetica,sans-Serif" font-size="10.00">Update</text>
</a>
</g>
</g>
<!-- Node1&#45;&gt;Node2 -->
<g id="edge1_Node000001_Node000002" class="edge">
<title>Node1&#45;&gt;Node2</title>
<g id="a_edge1_Node000001_Node000002"><a xlink:title=" ">
<path fill="none" stroke="#63b8ff" d="M393.82,-40.51C385.23,-41.47 376.55,-42.45 368.05,-43.4"/>
<polygon fill="#63b8ff" stroke="#63b8ff" points="394.3,-43.98 403.84,-39.38 393.52,-37.02 394.3,-43.98"/>
</a>
</g>
</g>
<!-- Node4 -->
<g id="Node000004" class="node">
<title>Node4</title>
<g id="a_Node000004"><a xlink:href="classPlot.html#a5b4b38ebab6fc69bd007d591c2bc61e3" target="_top" xlink:title=" ">
<polygon fill="white" stroke="#666666" points="316,-19 256,-19 256,0 316,0 316,-19"/>
<text text-anchor="middle" x="286" y="-7" font-family="Helvetica,sans-Serif" font-size="10.00">Plot::Plot</text>
</a>
</g>
</g>
<!-- Node1&#45;&gt;Node4 -->
<g id="edge3_Node000001_Node000004" class="edge">
<title>Node1&#45;&gt;Node4</title>
<g id="a_edge3_Node000001_Node000004"><a xlink:title=" ">
<path fill="none" stroke="#63b8ff" d="M393.66,-20.93C365.85,-17.95 337.11,-14.87 316.47,-12.66"/>
<polygon fill="#63b8ff" stroke="#63b8ff" points="393.53,-24.43 403.84,-22.02 394.27,-17.47 393.53,-24.43"/>
</a>
</g>
</g>
<!-- Node3 -->
<g id="Node000003" class="node">
<title>Node3</title>
<g id="a_Node000003"><a xlink:href="classPlotViewModel.html#a0e04a39ca08de4c3687003283f90d6f2" target="_top" xlink:title=" ">
<polygon fill="white" stroke="#666666" points="168,-62 0,-62 0,-43 168,-43 168,-62"/>
<text text-anchor="middle" x="84" y="-50" font-family="Helvetica,sans-Serif" font-size="10.00">PlotViewModel::PlotViewModel</text>
</a>
</g>
</g>
<!-- Node2&#45;&gt;Node3 -->
<g id="edge2_Node000002_Node000003" class="edge">
<title>Node2&#45;&gt;Node3</title>
<g id="a_edge2_Node000002_Node000003"><a xlink:title=" ">
<path fill="none" stroke="#63b8ff" d="M193.91,-52.5C185.32,-52.5 176.64,-52.5 168.13,-52.5"/>
<polygon fill="#63b8ff" stroke="#63b8ff" points="193.94,-56 203.94,-52.5 193.94,-49 193.94,-56"/>
</a>
</g>
</g>
</g>
</svg>
