<?xml version="1.0" encoding="UTF-8" standalone="no"?>
<!DOCTYPE svg PUBLIC "-//W3C//DTD SVG 1.1//EN"
 "http://www.w3.org/Graphics/SVG/1.1/DTD/svg11.dtd">
<!-- Generated by graphviz version 2.43.0 (0)
 -->
<!-- Title: TestLauncherViewModel::initialise Pages: 1 -->
<svg width="806pt" height="107pt"
 viewBox="0.00 0.00 806.00 107.00" xmlns="http://www.w3.org/2000/svg" xmlns:xlink="http://www.w3.org/1999/xlink">
<g id="graph0" class="graph" transform="scale(1 1) rotate(0) translate(4 103)">
<title>TestLauncherViewModel::initialise</title>
<!-- Node1 -->
<g id="Node000001" class="node">
<title>Node1</title>
<g id="a_Node000001"><a xlink:title=" ">
<polygon fill="#999999" stroke="#666666" points="134,-75 0,-75 0,-45 134,-45 134,-75"/>
<text text-anchor="start" x="8" y="-63" font-family="Helvetica,sans-Serif" font-size="10.00">TestLauncherViewModel</text>
<text text-anchor="middle" x="67" y="-52" font-family="Helvetica,sans-Serif" font-size="10.00">::initialise</text>
</a>
</g>
</g>
<!-- Node2 -->
<g id="Node000002" class="node">
<title>Node2</title>
<g id="a_Node000002"><a xlink:href="classTestLauncherViewModel.html#af572568c52ec0654f1b4c9d799c29aa8" target="_top" xlink:title=" ">
<polygon fill="white" stroke="#666666" points="304,-75 170,-75 170,-45 304,-45 304,-75"/>
<text text-anchor="start" x="178" y="-63" font-family="Helvetica,sans-Serif" font-size="10.00">TestLauncherViewModel</text>
<text text-anchor="middle" x="237" y="-52" font-family="Helvetica,sans-Serif" font-size="10.00">::acquireFileList</text>
</a>
</g>
</g>
<!-- Node1&#45;&gt;Node2 -->
<g id="edge1_Node000001_Node000002" class="edge">
<title>Node1&#45;&gt;Node2</title>
<g id="a_edge1_Node000001_Node000002"><a xlink:title=" ">
<path fill="none" stroke="#63b8ff" d="M134.4,-60C142.68,-60 151.2,-60 159.62,-60"/>
<polygon fill="#63b8ff" stroke="#63b8ff" points="159.81,-63.5 169.81,-60 159.81,-56.5 159.81,-63.5"/>
</a>
</g>
</g>
<!-- Node3 -->
<g id="Node000003" class="node">
<title>Node3</title>
<g id="a_Node000003"><a xlink:href="classTestLauncherViewModel.html#a5b19906a8eaea4a4e50ab5a2c83453f1" target="_top" xlink:title=" ">
<polygon fill="white" stroke="#666666" points="474,-99 340,-99 340,-69 474,-69 474,-99"/>
<text text-anchor="start" x="348" y="-87" font-family="Helvetica,sans-Serif" font-size="10.00">TestLauncherViewModel</text>
<text text-anchor="middle" x="407" y="-76" font-family="Helvetica,sans-Serif" font-size="10.00">::fileListChanged</text>
</a>
</g>
</g>
<!-- Node2&#45;&gt;Node3 -->
<g id="edge2_Node000002_Node000003" class="edge">
<title>Node2&#45;&gt;Node3</title>
<g id="a_edge2_Node000002_Node000003"><a xlink:title=" ">
<path fill="none" stroke="#63b8ff" d="M304.4,-69.49C312.77,-70.68 321.39,-71.91 329.89,-73.13"/>
<polygon fill="#63b8ff" stroke="#63b8ff" points="329.41,-76.59 339.81,-74.54 330.4,-69.67 329.41,-76.59"/>
</a>
</g>
</g>
<!-- Node4 -->
<g id="Node000004" class="node">
<title>Node4</title>
<g id="a_Node000004"><a xlink:href="classTestLauncherViewModel.html#a0cc7c1daba77cf492506de410489b17b" target="_top" xlink:title=" ">
<polygon fill="white" stroke="#666666" points="474,-51 340,-51 340,-21 474,-21 474,-51"/>
<text text-anchor="start" x="348" y="-39" font-family="Helvetica,sans-Serif" font-size="10.00">TestLauncherViewModel</text>
<text text-anchor="middle" x="407" y="-28" font-family="Helvetica,sans-Serif" font-size="10.00">::selectFile</text>
</a>
</g>
</g>
<!-- Node2&#45;&gt;Node4 -->
<g id="edge3_Node000002_Node000004" class="edge">
<title>Node2&#45;&gt;Node4</title>
<g id="a_edge3_Node000002_Node000004"><a xlink:title=" ">
<path fill="none" stroke="#63b8ff" d="M304.4,-50.51C312.77,-49.32 321.39,-48.09 329.89,-46.87"/>
<polygon fill="#63b8ff" stroke="#63b8ff" points="330.4,-50.33 339.81,-45.46 329.41,-43.41 330.4,-50.33"/>
</a>
</g>
</g>
<!-- Node5 -->
<g id="Node000005" class="node">
<title>Node5</title>
<g id="a_Node000005"><a xlink:href="classTxtParser.html#afc98cc478d1afc156dfd8ead7db6a778" target="_top" xlink:title=" ">
<polygon fill="white" stroke="#666666" points="633.5,-67.5 520.5,-67.5 520.5,-48.5 633.5,-48.5 633.5,-67.5"/>
<text text-anchor="middle" x="577" y="-55.5" font-family="Helvetica,sans-Serif" font-size="10.00">TxtParser::parseFile</text>
</a>
</g>
</g>
<!-- Node4&#45;&gt;Node5 -->
<g id="edge4_Node000004_Node000005" class="edge">
<title>Node4&#45;&gt;Node5</title>
<g id="a_edge4_Node000004_Node000005"><a xlink:title=" ">
<path fill="none" stroke="#63b8ff" d="M474.4,-44.69C486.17,-46.24 498.43,-47.84 510.19,-49.38"/>
<polygon fill="#63b8ff" stroke="#63b8ff" points="510,-52.89 520.37,-50.72 510.91,-45.95 510,-52.89"/>
</a>
</g>
</g>
<!-- Node7 -->
<g id="Node000007" class="node">
<title>Node7</title>
<g id="a_Node000007"><a xlink:href="classTestLauncherViewModel.html#a4728bf3502c3d375dd66ad3555bd6ab7" target="_top" xlink:title=" ">
<polygon fill="white" stroke="#666666" points="644,-30 510,-30 510,0 644,0 644,-30"/>
<text text-anchor="start" x="518" y="-18" font-family="Helvetica,sans-Serif" font-size="10.00">TestLauncherViewModel</text>
<text text-anchor="middle" x="577" y="-7" font-family="Helvetica,sans-Serif" font-size="10.00">::selectedFileChanged</text>
</a>
</g>
</g>
<!-- Node4&#45;&gt;Node7 -->
<g id="edge6_Node000004_Node000007" class="edge">
<title>Node4&#45;&gt;Node7</title>
<g id="a_edge6_Node000004_Node000007"><a xlink:title=" ">
<path fill="none" stroke="#63b8ff" d="M474.4,-27.7C482.68,-26.67 491.2,-25.6 499.62,-24.55"/>
<polygon fill="#63b8ff" stroke="#63b8ff" points="500.32,-27.99 509.81,-23.27 499.45,-21.04 500.32,-27.99"/>
</a>
</g>
</g>
<!-- Node6 -->
<g id="Node000006" class="node">
<title>Node6</title>
<g id="a_Node000006"><a xlink:href="classTxtParser.html#a7cd1923d1d1fa00cc53ef4ce794a830b" target="_top" xlink:title=" ">
<polygon fill="white" stroke="#666666" points="798,-67.5 680,-67.5 680,-48.5 798,-48.5 798,-67.5"/>
<text text-anchor="middle" x="739" y="-55.5" font-family="Helvetica,sans-Serif" font-size="10.00">TxtParser::FileParsed</text>
</a>
</g>
</g>
<!-- Node5&#45;&gt;Node6 -->
<g id="edge5_Node000005_Node000006" class="edge">
<title>Node5&#45;&gt;Node6</title>
<g id="a_edge5_Node000005_Node000006"><a xlink:title=" ">
<path fill="none" stroke="#63b8ff" d="M633.51,-58C645.22,-58 657.7,-58 669.81,-58"/>
<polygon fill="#63b8ff" stroke="#63b8ff" points="669.87,-61.5 679.87,-58 669.87,-54.5 669.87,-61.5"/>
</a>
</g>
</g>
</g>
</svg>
