<?xml version="1.0" encoding="UTF-8" standalone="no"?>
<!DOCTYPE svg PUBLIC "-//W3C//DTD SVG 1.1//EN"
 "http://www.w3.org/Graphics/SVG/1.1/DTD/svg11.dtd">
<!-- Generated by graphviz version 2.43.0 (0)
 -->
<!-- Title: UdpChannel::sendData Pages: 1 -->
<!--zoomable 364 -->

<svg id="main" version="1.1" xmlns="http://www.w3.org/2000/svg" xmlns:xlink="http://www.w3.org/1999/xlink" xml:space="preserve" onload="init(evt)">
<style type="text/css"><![CDATA[
.node, .edge {opacity: 0.7;}
.node.selected, .edge.selected {opacity: 1;}
.edge:hover path { stroke: red; }
.edge:hover polygon { stroke: red; fill: red; }
]]></style>

<defs>
  <circle id="rim" cx="0" cy="0" r="7"/>
  <circle id="rim2" cx="0" cy="0" r="3.5"/>
  <g id="zoomPlus">
    <use xlink:href="#rim" fill="#404040"><set attributeName="fill" to="#808080" begin="zoomplus.mouseover" end="zoomplus.mouseout"/></use>
    <path d="M-4,0h8M0,-4v8" fill="none" stroke="white" stroke-width="1.5" pointer-events="none"/>
  </g>
  <g id="zoomMin">
    <use xlink:href="#rim" fill="#404040"><set attributeName="fill" to="#808080" begin="zoomminus.mouseover" end="zoomminus.mouseout"/></use>
    <path d="M-4,0h8" fill="none" stroke="white" stroke-width="1.5" pointer-events="none"/>
  </g>
  <g id="arrowUp" transform="translate(30 24)">
    <use xlink:href="#rim"/>
    <path pointer-events="none" fill="none" stroke="white" stroke-width="1.5" d="M0,-3.0v7 M-2.5,-0.5L0,-3.0L2.5,-0.5"/>
  </g>
  <g id="arrowRight" transform="rotate(90) translate(36 -43)">
    <use xlink:href="#rim"/>
    <path pointer-events="none" fill="none" stroke="white" stroke-width="1.5" d="M0,-3.0v7 M-2.5,-0.5L0,-3.0L2.5,-0.5"/>
  </g>
  <g id="arrowDown" transform="rotate(180) translate(-30 -48)">
    <use xlink:href="#rim"/>
    <path pointer-events="none" fill="none" stroke="white" stroke-width="1.5" d="M0,-3.0v7 M-2.5,-0.5L0,-3.0L2.5,-0.5"/>
  </g>
  <g id="arrowLeft" transform="rotate(270) translate(-36 17)">
    <use xlink:href="#rim"/>
    <path pointer-events="none" fill="none" stroke="white" stroke-width="1.5" d="M0,-3.0v7 M-2.5,-0.5L0,-3.0L2.5,-0.5"/>
  </g>
  <g id="resetDef">
    <use xlink:href="#rim2" fill="#404040"><set attributeName="fill" to="#808080" begin="reset.mouseover" end="reset.mouseout"/></use>
  </g>
</defs>
<script type="application/ecmascript">
var viewWidth = 735;
var viewHeight = 364;
var sectionId = 'dynsection-17';
</script>
<script type="application/ecmascript" xlink:href="svg.min.js"/>
<svg id="graph" class="graph">
<g id="viewport">
<title>UdpChannel::sendData</title>
<!-- Node1 -->
<g id="Node000001" class="node">
<title>Node1</title>
<g id="a_Node000001"><a xlink:title="Send a command to the remote device via UDP.">
<polygon fill="#999999" stroke="#666666" points="727,-184.5 599,-184.5 599,-165.5 727,-165.5 727,-184.5"/>
<text text-anchor="middle" x="663" y="-172.5" font-family="Helvetica,sans-Serif" font-size="10.00">UdpChannel::sendData</text>
</a>
</g>
</g>
<!-- Node2 -->
<g id="Node000002" class="node">
<title>Node2</title>
<g id="a_Node000002"><a xlink:href="classTestLauncherViewModel.html#ad20212b4b5a52ff48e23de190ea430c7" target="_top" xlink:title=" ">
<polygon fill="white" stroke="#666666" points="547,-260 413,-260 413,-230 547,-230 547,-260"/>
<text text-anchor="start" x="421" y="-248" font-family="Helvetica,sans-Serif" font-size="10.00">TestLauncherViewModel</text>
<text text-anchor="middle" x="480" y="-237" font-family="Helvetica,sans-Serif" font-size="10.00">::confirmLaunch</text>
</a>
</g>
</g>
<!-- Node1&#45;&gt;Node2 -->
<g id="edge1_Node000001_Node000002" class="edge">
<title>Node1&#45;&gt;Node2</title>
<g id="a_edge1_Node000001_Node000002"><a xlink:title=" ">
<path fill="none" stroke="#63b8ff" d="M634.41,-189.18C614.81,-198.92 587.7,-211.71 563,-221 554.53,-224.19 545.44,-227.22 536.51,-229.98"/>
<polygon fill="#63b8ff" stroke="#63b8ff" points="636.02,-192.29 643.38,-184.68 632.87,-186.04 636.02,-192.29"/>
</a>
</g>
</g>
<!-- Node5 -->
<g id="Node000005" class="node">
<title>Node5</title>
<g id="a_Node000005"><a xlink:href="classActuatorSwitchViewModel.html#ac7d234b190065d18a12df125de8834bc" target="_top" xlink:title=" ">
<polygon fill="white" stroke="#666666" points="552,-356 408,-356 408,-326 552,-326 552,-356"/>
<text text-anchor="start" x="416" y="-344" font-family="Helvetica,sans-Serif" font-size="10.00">ActuatorSwitchViewModel</text>
<text text-anchor="middle" x="480" y="-333" font-family="Helvetica,sans-Serif" font-size="10.00">::disable</text>
</a>
</g>
</g>
<!-- Node1&#45;&gt;Node5 -->
<g id="edge4_Node000001_Node000005" class="edge">
<title>Node1&#45;&gt;Node5</title>
<g id="a_edge4_Node000001_Node000005"><a xlink:title=" ">
<path fill="none" stroke="#63b8ff" d="M653.83,-194.14C639.8,-224.73 608.18,-284.52 563,-317 558.18,-320.46 552.87,-323.43 547.33,-325.97"/>
<polygon fill="#63b8ff" stroke="#63b8ff" points="657.2,-195.18 658.06,-184.62 650.8,-192.34 657.2,-195.18"/>
</a>
</g>
</g>
<!-- Node9 -->
<g id="Node000009" class="node">
<title>Node9</title>
<g id="a_Node000009"><a xlink:href="classActuatorSwitchViewModel.html#ad30eea0fa195ce8ceb374c6d72e93be9" target="_top" xlink:title=" ">
<polygon fill="white" stroke="#666666" points="552,-308 408,-308 408,-278 552,-278 552,-308"/>
<text text-anchor="start" x="416" y="-296" font-family="Helvetica,sans-Serif" font-size="10.00">ActuatorSwitchViewModel</text>
<text text-anchor="middle" x="480" y="-285" font-family="Helvetica,sans-Serif" font-size="10.00">::enable</text>
</a>
</g>
</g>
<!-- Node1&#45;&gt;Node9 -->
<g id="edge8_Node000001_Node000009" class="edge">
<title>Node1&#45;&gt;Node9</title>
<g id="a_edge8_Node000001_Node000009"><a xlink:title=" ">
<path fill="none" stroke="#63b8ff" d="M648.24,-192.38C630.65,-213.48 598.21,-248.74 563,-269 557.09,-272.4 550.65,-275.36 544.07,-277.92"/>
<polygon fill="#63b8ff" stroke="#63b8ff" points="651.03,-194.5 654.64,-184.54 645.6,-190.08 651.03,-194.5"/>
</a>
</g>
</g>
<!-- Node10 -->
<g id="Node000010" class="node">
<title>Node10</title>
<g id="a_Node000010"><a xlink:href="classInitialiseValveButtonViewModel.html#aa2ed158448aab0eebc491e6dfe7b15eb" target="_top" xlink:title=" ">
<polygon fill="white" stroke="#666666" points="551,-212 409,-212 409,-182 551,-182 551,-212"/>
<text text-anchor="start" x="417" y="-200" font-family="Helvetica,sans-Serif" font-size="10.00">InitialiseValveButtonView</text>
<text text-anchor="middle" x="480" y="-189" font-family="Helvetica,sans-Serif" font-size="10.00">Model::initialiseValve</text>
</a>
</g>
</g>
<!-- Node1&#45;&gt;Node10 -->
<g id="edge10_Node000001_Node000010" class="edge">
<title>Node1&#45;&gt;Node10</title>
<g id="a_edge10_Node000001_Node000010"><a xlink:title=" ">
<path fill="none" stroke="#63b8ff" d="M588.69,-183.91C576.33,-185.41 563.53,-186.97 551.25,-188.46"/>
<polygon fill="#63b8ff" stroke="#63b8ff" points="589.44,-187.34 598.95,-182.66 588.6,-180.4 589.44,-187.34"/>
</a>
</g>
</g>
<!-- Node12 -->
<g id="Node000012" class="node">
<title>Node12</title>
<g id="a_Node000012"><a xlink:href="classTestLauncherViewModel.html#aae85be10e971d7bc96b58fef26b0f1e3" target="_top" xlink:title=" ">
<polygon fill="white" stroke="#666666" points="340.5,-164 206.5,-164 206.5,-134 340.5,-134 340.5,-164"/>
<text text-anchor="start" x="214.5" y="-152" font-family="Helvetica,sans-Serif" font-size="10.00">TestLauncherViewModel</text>
<text text-anchor="middle" x="273.5" y="-141" font-family="Helvetica,sans-Serif" font-size="10.00">::launchTest</text>
</a>
</g>
</g>
<!-- Node1&#45;&gt;Node12 -->
<g id="edge12_Node000001_Node000012" class="edge">
<title>Node1&#45;&gt;Node12</title>
<g id="a_edge12_Node000001_Node000012"><a xlink:title=" ">
<path fill="none" stroke="#63b8ff" d="M588.6,-170.08C517.1,-165.28 409.38,-158.05 340.51,-153.43"/>
<polygon fill="#63b8ff" stroke="#63b8ff" points="588.67,-173.59 598.88,-170.76 589.14,-166.6 588.67,-173.59"/>
</a>
</g>
</g>
<!-- Node13 -->
<g id="Node000013" class="node">
<title>Node13</title>
<g id="a_Node000013"><a xlink:href="classTankPressureControlerViewModel.html#af1d1925e544f013a38f54d254cf77588" target="_top" xlink:title=" ">
<polygon fill="white" stroke="#666666" points="555,-126 405,-126 405,-96 555,-96 555,-126"/>
<text text-anchor="start" x="413" y="-114" font-family="Helvetica,sans-Serif" font-size="10.00">TankPressureControlerView</text>
<text text-anchor="middle" x="480" y="-103" font-family="Helvetica,sans-Serif" font-size="10.00">Model::onBBCommandSent</text>
</a>
</g>
</g>
<!-- Node1&#45;&gt;Node13 -->
<g id="edge14_Node000001_Node000013" class="edge">
<title>Node1&#45;&gt;Node13</title>
<g id="a_edge14_Node000001_Node000013"><a xlink:title=" ">
<path fill="none" stroke="#63b8ff" d="M625.39,-162.06C595.9,-151.63 554.38,-136.95 523.44,-126"/>
<polygon fill="#63b8ff" stroke="#63b8ff" points="624.31,-165.38 634.9,-165.42 626.64,-158.79 624.31,-165.38"/>
</a>
</g>
</g>
<!-- Node14 -->
<g id="Node000014" class="node">
<title>Node14</title>
<g id="a_Node000014"><a xlink:href="classTankPressureControlerViewModel.html#a7bd678bd1a76bad57036ad339e69e15b" target="_top" xlink:title=" ">
<polygon fill="white" stroke="#666666" points="558.5,-78 401.5,-78 401.5,-48 558.5,-48 558.5,-78"/>
<text text-anchor="start" x="409.5" y="-66" font-family="Helvetica,sans-Serif" font-size="10.00">TankPressureControlerView</text>
<text text-anchor="middle" x="480" y="-55" font-family="Helvetica,sans-Serif" font-size="10.00">Model::onPressurSettingSent</text>
</a>
</g>
</g>
<!-- Node1&#45;&gt;Node14 -->
<g id="edge15_Node000001_Node000014" class="edge">
<title>Node1&#45;&gt;Node14</title>
<g id="a_edge15_Node000001_Node000014"><a xlink:title=" ">
<path fill="none" stroke="#63b8ff" d="M646.93,-157.59C628.87,-137.76 596.8,-105.71 563,-87 556.9,-83.62 550.28,-80.68 543.53,-78.12"/>
<polygon fill="#63b8ff" stroke="#63b8ff" points="644.5,-160.13 653.77,-165.26 649.73,-155.47 644.5,-160.13"/>
</a>
</g>
</g>
<!-- Node15 -->
<g id="Node000015" class="node">
<title>Node15</title>
<g id="a_Node000015"><a xlink:href="classEmergencyControlsViewModel.html#ae77635067993ac4afca50a009a40d853" target="_top" xlink:title=" ">
<polygon fill="white" stroke="#666666" points="563,-30 397,-30 397,0 563,0 563,-30"/>
<text text-anchor="start" x="405" y="-18" font-family="Helvetica,sans-Serif" font-size="10.00">EmergencyControlsViewModel</text>
<text text-anchor="middle" x="480" y="-7" font-family="Helvetica,sans-Serif" font-size="10.00">::onTestAbortion</text>
</a>
</g>
</g>
<!-- Node1&#45;&gt;Node15 -->
<g id="edge16_Node000001_Node000015" class="edge">
<title>Node1&#45;&gt;Node15</title>
<g id="a_edge16_Node000001_Node000015"><a xlink:title=" ">
<path fill="none" stroke="#63b8ff" d="M653.41,-156.25C638.96,-126.82 607.01,-69.97 563,-39 558.15,-35.59 552.81,-32.65 547.26,-30.13"/>
<polygon fill="#63b8ff" stroke="#63b8ff" points="650.32,-157.9 657.78,-165.42 656.64,-154.89 650.32,-157.9"/>
</a>
</g>
</g>
<!-- Node3 -->
<g id="Node000003" class="node">
<title>Node3</title>
<g id="a_Node000003"><a xlink:href="classTestLauncher.html#a1d919d1e65618458add70c4458279e04" target="_top" xlink:title=" ">
<polygon fill="white" stroke="#666666" points="361,-260 186,-260 186,-230 361,-230 361,-260"/>
<text text-anchor="start" x="194" y="-248" font-family="Helvetica,sans-Serif" font-size="10.00">TestLauncher::showConfirmation</text>
<text text-anchor="middle" x="273.5" y="-237" font-family="Helvetica,sans-Serif" font-size="10.00">Window</text>
</a>
</g>
</g>
<!-- Node2&#45;&gt;Node3 -->
<g id="edge2_Node000002_Node000003" class="edge">
<title>Node2&#45;&gt;Node3</title>
<g id="a_edge2_Node000002_Node000003"><a xlink:title=" ">
<path fill="none" stroke="#63b8ff" d="M402.7,-245C389.19,-245 375.04,-245 361.26,-245"/>
<polygon fill="#63b8ff" stroke="#63b8ff" points="402.89,-248.5 412.89,-245 402.89,-241.5 402.89,-248.5"/>
</a>
</g>
</g>
<!-- Node4 -->
<g id="Node000004" class="node">
<title>Node4</title>
<g id="a_Node000004"><a xlink:href="classTestLauncher.html#a0b2015a489c9ef4b4258626629841e5a" target="_top" xlink:title=" ">
<polygon fill="white" stroke="#666666" points="150,-218.5 0,-218.5 0,-199.5 150,-199.5 150,-218.5"/>
<text text-anchor="middle" x="75" y="-206.5" font-family="Helvetica,sans-Serif" font-size="10.00">TestLauncher::TestLauncher</text>
</a>
</g>
</g>
<!-- Node3&#45;&gt;Node4 -->
<g id="edge3_Node000003_Node000004" class="edge">
<title>Node3&#45;&gt;Node4</title>
<g id="a_edge3_Node000003_Node000004"><a xlink:title=" ">
<path fill="none" stroke="#63b8ff" d="M180.61,-228.16C162.56,-224.86 144.22,-221.5 128.05,-218.54"/>
<polygon fill="#63b8ff" stroke="#63b8ff" points="180.12,-231.63 190.59,-229.99 181.38,-224.75 180.12,-231.63"/>
</a>
</g>
</g>
<!-- Node6 -->
<g id="Node000006" class="node">
<title>Node6</title>
<g id="a_Node000006"><a xlink:href="classActuatorSwitchWidget.html#af9fbb6ab5d0db3b3f6d6db92c7321f5b" target="_top" xlink:title=" ">
<polygon fill="white" stroke="#666666" points="336,-327 211,-327 211,-297 336,-297 336,-327"/>
<text text-anchor="start" x="219" y="-315" font-family="Helvetica,sans-Serif" font-size="10.00">ActuatorSwitchWidget</text>
<text text-anchor="middle" x="273.5" y="-304" font-family="Helvetica,sans-Serif" font-size="10.00">::display</text>
</a>
</g>
</g>
<!-- Node5&#45;&gt;Node6 -->
<g id="edge5_Node000005_Node000006" class="edge">
<title>Node5&#45;&gt;Node6</title>
<g id="a_edge5_Node000005_Node000006"><a xlink:title=" ">
<path fill="none" stroke="#63b8ff" d="M397.81,-329.49C377.32,-326.58 355.66,-323.51 336.29,-320.76"/>
<polygon fill="#63b8ff" stroke="#63b8ff" points="397.37,-332.96 407.76,-330.9 398.35,-326.03 397.37,-332.96"/>
</a>
</g>
</g>
<!-- Node7 -->
<g id="Node000007" class="node">
<title>Node7</title>
<g id="a_Node000007"><a xlink:href="classGlowPlugSwitch.html#a601229de111a3002eab95e6628a809c2" target="_top" xlink:title=" ">
<polygon fill="white" stroke="#666666" points="148,-305 2,-305 2,-275 148,-275 148,-305"/>
<text text-anchor="start" x="10" y="-293" font-family="Helvetica,sans-Serif" font-size="10.00">GlowPlugSwitch::GlowPlug</text>
<text text-anchor="middle" x="75" y="-282" font-family="Helvetica,sans-Serif" font-size="10.00">Switch</text>
</a>
</g>
</g>
<!-- Node6&#45;&gt;Node7 -->
<g id="edge6_Node000006_Node000007" class="edge">
<title>Node6&#45;&gt;Node7</title>
<g id="a_edge6_Node000006_Node000007"><a xlink:title=" ">
<path fill="none" stroke="#63b8ff" d="M200.89,-303.98C183.68,-302.06 165.3,-300 148.07,-298.07"/>
<polygon fill="#63b8ff" stroke="#63b8ff" points="200.54,-307.46 210.87,-305.1 201.32,-300.51 200.54,-307.46"/>
</a>
</g>
</g>
<!-- Node8 -->
<g id="Node000008" class="node">
<title>Node8</title>
<g id="a_Node000008"><a xlink:href="classValveSwitch.html#a7764850d7ec0c40ff1cc5b6c6f1ab8f5" target="_top" xlink:title=" ">
<polygon fill="white" stroke="#666666" points="145.5,-342.5 4.5,-342.5 4.5,-323.5 145.5,-323.5 145.5,-342.5"/>
<text text-anchor="middle" x="75" y="-330.5" font-family="Helvetica,sans-Serif" font-size="10.00">ValveSwitch::ValveSwitch</text>
</a>
</g>
</g>
<!-- Node6&#45;&gt;Node8 -->
<g id="edge7_Node000006_Node000008" class="edge">
<title>Node6&#45;&gt;Node8</title>
<g id="a_edge7_Node000006_Node000008"><a xlink:title=" ">
<path fill="none" stroke="#63b8ff" d="M200.74,-319.67C182.76,-321.59 163.5,-323.65 145.63,-325.56"/>
<polygon fill="#63b8ff" stroke="#63b8ff" points="201.29,-323.13 210.87,-318.59 200.55,-316.17 201.29,-323.13"/>
</a>
</g>
</g>
<!-- Node9&#45;&gt;Node6 -->
<g id="edge9_Node000009_Node000006" class="edge">
<title>Node9&#45;&gt;Node6</title>
<g id="a_edge9_Node000009_Node000006"><a xlink:title=" ">
<path fill="none" stroke="#63b8ff" d="M397.53,-300.57C377.13,-302.46 355.57,-304.47 336.29,-306.26"/>
<polygon fill="#63b8ff" stroke="#63b8ff" points="398.13,-304.03 407.76,-299.62 397.48,-297.06 398.13,-304.03"/>
</a>
</g>
</g>
<!-- Node11 -->
<g id="Node000011" class="node">
<title>Node11</title>
<g id="a_Node000011"><a xlink:href="classInitialiseValveButton.html#a8ee94a7dfbfe0ac46e6a192d8040c7ac" target="_top" xlink:title=" ">
<polygon fill="white" stroke="#666666" points="335.5,-212 211.5,-212 211.5,-182 335.5,-182 335.5,-212"/>
<text text-anchor="start" x="219.5" y="-200" font-family="Helvetica,sans-Serif" font-size="10.00">InitialiseValveButton</text>
<text text-anchor="middle" x="273.5" y="-189" font-family="Helvetica,sans-Serif" font-size="10.00">::InitialiseValveButton</text>
</a>
</g>
</g>
<!-- Node10&#45;&gt;Node11 -->
<g id="edge11_Node000010_Node000011" class="edge">
<title>Node10&#45;&gt;Node11</title>
<g id="a_edge11_Node000010_Node000011"><a xlink:title=" ">
<path fill="none" stroke="#63b8ff" d="M398.72,-197C377.73,-197 355.44,-197 335.62,-197"/>
<polygon fill="#63b8ff" stroke="#63b8ff" points="398.91,-200.5 408.91,-197 398.91,-193.5 398.91,-200.5"/>
</a>
</g>
</g>
<!-- Node12&#45;&gt;Node4 -->
<g id="edge13_Node000012_Node000004" class="edge">
<title>Node12&#45;&gt;Node4</title>
<g id="a_edge13_Node000012_Node000004"><a xlink:title=" ">
<path fill="none" stroke="#63b8ff" d="M206.45,-166.99C199.53,-168.97 192.62,-171 186,-173 157.92,-181.49 126.09,-192 103.92,-199.47"/>
<polygon fill="#63b8ff" stroke="#63b8ff" points="207.89,-170.22 216.55,-164.12 205.98,-163.49 207.89,-170.22"/>
</a>
</g>
</g>
<!-- Node16 -->
<g id="Node000016" class="node">
<title>Node16</title>
<g id="a_Node000016"><a xlink:href="classEmergencyControls.html#a7d0691b70b2e161b7724906e30af7e15" target="_top" xlink:title=" ">
<polygon fill="white" stroke="#666666" points="332.5,-30 214.5,-30 214.5,0 332.5,0 332.5,-30"/>
<text text-anchor="start" x="222.5" y="-18" font-family="Helvetica,sans-Serif" font-size="10.00">EmergencyControls::</text>
<text text-anchor="middle" x="273.5" y="-7" font-family="Helvetica,sans-Serif" font-size="10.00">EmergencyControls</text>
</a>
</g>
</g>
<!-- Node15&#45;&gt;Node16 -->
<g id="edge17_Node000015_Node000016" class="edge">
<title>Node15&#45;&gt;Node16</title>
<g id="a_edge17_Node000015_Node000016"><a xlink:title=" ">
<path fill="none" stroke="#63b8ff" d="M386.59,-15C368.28,-15 349.54,-15 332.76,-15"/>
<polygon fill="#63b8ff" stroke="#63b8ff" points="386.71,-18.5 396.71,-15 386.71,-11.5 386.71,-18.5"/>
</a>
</g>
</g>
</g>
</svg>

<g id="navigator" transform="translate(0 0)" fill="#404254">
  <rect fill="#f2f5e9" fill-opacity="0.5" stroke="#606060" stroke-width=".5" x="0" y="0" width="60" height="60"/>
  <use id="zoomplus" xlink:href="#zoomPlus" x="17" y="9" onmousedown="handleZoom(evt,'in')"/>
  <use id="zoomminus" xlink:href="#zoomMin" x="42" y="9" onmousedown="handleZoom(evt,'out')"/>
  <use id="reset" xlink:href="#resetDef" x="30" y="36" onmousedown="handleReset()"/>
   <use id="arrowup" xlink:href="#arrowUp" x="0" y="0" onmousedown="handlePan(0,-1)"/>
  <use id="arrowright" xlink:href="#arrowRight" x="0" y="0" onmousedown="handlePan(1,0)"/>
  <use id="arrowdown" xlink:href="#arrowDown" x="0" y="0" onmousedown="handlePan(0,1)"/>
  <use id="arrowleft" xlink:href="#arrowLeft" x="0" y="0" onmousedown="handlePan(-1,0)"/>
</g>
<svg viewBox="0 0 15 15" width="100%" height="30px" preserveAspectRatio="xMaxYMin meet">
 <g id="arrow_out" transform="scale(0.3 0.3)">
  <a xlink:href="classUdpChannel_a439664ce9bf094d21d0234a1943dfc07_icgraph_org.svg" target="_base">
   <rect id="button" ry="5" rx="5" y="6" x="6" height="38" width="38"
        fill="#f2f5e9" fill-opacity="0.5" stroke="#606060" stroke-width="1.0"/>
   <path id="arrow"
     d="M 11.500037,31.436501 C 11.940474,20.09759 22.043105,11.32322 32.158766,21.979434 L 37.068811,17.246167 C 37.068811,17.246167 37.088388,32 37.088388,32 L 22.160133,31.978069 C 22.160133,31.978069 26.997745,27.140456 26.997745,27.140456 C 18.528582,18.264221 13.291696,25.230495 11.500037,31.436501 z"
     style="fill:#404040;"/>
  </a>
 </g>
</svg>

<style type='text/css'>
<![CDATA[
[data-mouse-over-selected='false'] { opacity: 0.7; }
[data-mouse-over-selected='true']  { opacity: 1.0; }
]]>
</style>
<script type="application/ecmascript"><![CDATA[
document.addEventListener('DOMContentLoaded', (event) => {
  highlightEdges();
  highlightAdjacentNodes();
});
]]></script>
</svg>
