<?xml version="1.0" encoding="UTF-8" standalone="no"?>
<!DOCTYPE svg PUBLIC "-//W3C//DTD SVG 1.1//EN"
 "http://www.w3.org/Graphics/SVG/1.1/DTD/svg11.dtd">
<!-- Generated by graphviz version 2.43.0 (0)
 -->
<!-- Title: UdpChannel::stopEndpoint Pages: 1 -->
<svg width="639pt" height="64pt"
 viewBox="0.00 0.00 639.00 64.00" xmlns="http://www.w3.org/2000/svg" xmlns:xlink="http://www.w3.org/1999/xlink">
<g id="graph0" class="graph" transform="scale(1 1) rotate(0) translate(4 60)">
<title>UdpChannel::stopEndpoint</title>
<!-- Node1 -->
<g id="Node000001" class="node">
<title>Node1</title>
<g id="a_Node000001"><a xlink:title=" ">
<polygon fill="#999999" stroke="#666666" points="146,-37 0,-37 0,-18 146,-18 146,-37"/>
<text text-anchor="middle" x="73" y="-25" font-family="Helvetica,sans-Serif" font-size="10.00">UdpChannel::stopEndpoint</text>
</a>
</g>
</g>
<!-- Node2 -->
<g id="Node000002" class="node">
<title>Node2</title>
<g id="a_Node000002"><a xlink:href="classUdpLogger.html#a09b32cc5531b9db48cde09d12d1c321f" target="_top" xlink:title=" ">
<polygon fill="white" stroke="#666666" points="308,-56 212,-56 212,-37 308,-37 308,-56"/>
<text text-anchor="middle" x="260" y="-44" font-family="Helvetica,sans-Serif" font-size="10.00">UdpLogger::stop</text>
</a>
</g>
</g>
<!-- Node1&#45;&gt;Node2 -->
<g id="edge1_Node000001_Node000002" class="edge">
<title>Node1&#45;&gt;Node2</title>
<g id="a_edge1_Node000001_Node000002"><a xlink:title=" ">
<path fill="none" stroke="#63b8ff" d="M146.06,-34.9C164.54,-36.8 184.18,-38.82 201.8,-40.63"/>
<polygon fill="#63b8ff" stroke="#63b8ff" points="201.62,-44.13 211.92,-41.67 202.33,-37.16 201.62,-44.13"/>
</a>
</g>
</g>
<!-- Node5 -->
<g id="Node000005" class="node">
<title>Node5</title>
<g id="a_Node000005"><a xlink:href="classUdpChannel.html#a8e42a953d827d6a78a4867ba05b6a4ca" target="_top" xlink:title=" ">
<polygon fill="white" stroke="#666666" points="338,-19 182,-19 182,0 338,0 338,-19"/>
<text text-anchor="middle" x="260" y="-7" font-family="Helvetica,sans-Serif" font-size="10.00">UdpChannel::stopUdpWorker</text>
</a>
</g>
</g>
<!-- Node1&#45;&gt;Node5 -->
<g id="edge4_Node000001_Node000005" class="edge">
<title>Node1&#45;&gt;Node5</title>
<g id="a_edge4_Node000001_Node000005"><a xlink:title=" ">
<path fill="none" stroke="#63b8ff" d="M146.06,-20.49C154.51,-19.67 163.21,-18.82 171.85,-17.98"/>
<polygon fill="#63b8ff" stroke="#63b8ff" points="172.33,-21.45 181.94,-17 171.65,-14.48 172.33,-21.45"/>
</a>
</g>
</g>
<!-- Node3 -->
<g id="Node000003" class="node">
<title>Node3</title>
<g id="a_Node000003"><a xlink:href="classLogger.html#ad89b36eb9b5a28d1f61b3c74a6975031" target="_top" xlink:title=" ">
<polygon fill="white" stroke="#666666" points="460,-56 374,-56 374,-37 460,-37 460,-56"/>
<text text-anchor="middle" x="417" y="-44" font-family="Helvetica,sans-Serif" font-size="10.00">Logger::debug</text>
</a>
</g>
</g>
<!-- Node2&#45;&gt;Node3 -->
<g id="edge2_Node000002_Node000003" class="edge">
<title>Node2&#45;&gt;Node3</title>
<g id="a_edge2_Node000002_Node000003"><a xlink:title=" ">
<path fill="none" stroke="#63b8ff" d="M308.35,-46.5C325.92,-46.5 345.94,-46.5 363.91,-46.5"/>
<polygon fill="#63b8ff" stroke="#63b8ff" points="363.94,-50 373.94,-46.5 363.94,-43 363.94,-50"/>
</a>
</g>
</g>
<!-- Node4 -->
<g id="Node000004" class="node">
<title>Node4</title>
<g id="a_Node000004"><a xlink:href="classLogger.html#a02453fd0695fe06c495de714399e8bf7" target="_top" xlink:title=" ">
<polygon fill="white" stroke="#666666" points="631,-56 496,-56 496,-37 631,-37 631,-56"/>
<text text-anchor="middle" x="563.5" y="-44" font-family="Helvetica,sans-Serif" font-size="10.00">Logger::messageLogged</text>
</a>
</g>
</g>
<!-- Node3&#45;&gt;Node4 -->
<g id="edge3_Node000003_Node000004" class="edge">
<title>Node3&#45;&gt;Node4</title>
<g id="a_edge3_Node000003_Node000004"><a xlink:title=" ">
<path fill="none" stroke="#63b8ff" d="M460.18,-46.5C468.21,-46.5 476.83,-46.5 485.55,-46.5"/>
<polygon fill="#63b8ff" stroke="#63b8ff" points="485.79,-50 495.79,-46.5 485.79,-43 485.79,-50"/>
</a>
</g>
</g>
</g>
</svg>
