<?xml version="1.0" encoding="UTF-8" standalone="no"?>
<!DOCTYPE svg PUBLIC "-//W3C//DTD SVG 1.1//EN"
 "http://www.w3.org/Graphics/SVG/1.1/DTD/svg11.dtd">
<!-- Generated by graphviz version 2.43.0 (0)
 -->
<!-- Title: SensorValueIndicator Pages: 1 -->
<svg width="722pt" height="1882pt"
 viewBox="0.00 0.00 722.00 1882.00" xmlns="http://www.w3.org/2000/svg" xmlns:xlink="http://www.w3.org/1999/xlink">
<g id="graph0" class="graph" transform="scale(1 1) rotate(0) translate(4 1878)">
<title>SensorValueIndicator</title>
<!-- Node1 -->
<g id="Node000001" class="node">
<title>Node1</title>
<g id="a_Node000001"><a xlink:title=" ">
<polygon fill="#999999" stroke="transparent" points="132,-94 0,-94 0,0 132,0 132,-94"/>
<text text-anchor="start" x="14.5" y="-82" font-family="Helvetica,sans-Serif" font-size="10.00">SensorValueIndicator</text>
<text text-anchor="start" x="6.5" y="-67" font-family="Helvetica,sans-Serif" font-size="10.00">&#45;</text>
<text text-anchor="start" x="17" y="-67" font-family="Helvetica,sans-Serif" font-size="10.00">m_font</text>
<text text-anchor="start" x="6.5" y="-52" font-family="Helvetica,sans-Serif" font-size="10.00">&#45;</text>
<text text-anchor="start" x="17" y="-52" font-family="Helvetica,sans-Serif" font-size="10.00">m_size</text>
<text text-anchor="start" x="4" y="-37" font-family="Helvetica,sans-Serif" font-size="10.00">+</text>
<text text-anchor="start" x="17" y="-37" font-family="Helvetica,sans-Serif" font-size="10.00">SensorValueIndicator()</text>
<text text-anchor="start" x="4" y="-22" font-family="Helvetica,sans-Serif" font-size="10.00">+</text>
<text text-anchor="start" x="17" y="-22" font-family="Helvetica,sans-Serif" font-size="10.00">sizeHint()</text>
<text text-anchor="start" x="4" y="-7" font-family="Helvetica,sans-Serif" font-size="10.00">+</text>
<text text-anchor="start" x="17" y="-7" font-family="Helvetica,sans-Serif" font-size="10.00">onValueChanged()</text>
<polygon fill="#666666" stroke="#666666" points="0,-77 0,-77 132,-77 132,-77 0,-77"/>
<polygon fill="#666666" stroke="#666666" points="0,-47 0,-47 15,-47 15,-47 0,-47"/>
<polygon fill="#666666" stroke="#666666" points="15,-47 15,-47 132,-47 132,-47 15,-47"/>
<polygon fill="none" stroke="#666666" points="0,0 0,-94 132,-94 132,0 0,0"/>
</a>
</g>
</g>
<!-- Node2 -->
<g id="Node000002" class="node">
<title>Node2</title>
<g id="a_Node000002"><a xlink:title=" ">
<polygon fill="white" stroke="transparent" points="72,-276 28,-276 28,-227 72,-227 72,-276"/>
<text text-anchor="start" x="33" y="-263.5" font-family="Helvetica,sans-Serif" font-size="10.00">QLabel</text>
<text text-anchor="start" x="48" y="-248.5" font-family="Helvetica,sans-Serif" font-size="10.00"> </text>
<text text-anchor="start" x="48" y="-233.5" font-family="Helvetica,sans-Serif" font-size="10.00"> </text>
<polygon fill="#666666" stroke="#666666" points="28,-258.5 28,-258.5 72,-258.5 72,-258.5 28,-258.5"/>
<polygon fill="#666666" stroke="#666666" points="28,-243.5 28,-243.5 72,-243.5 72,-243.5 28,-243.5"/>
<polygon fill="none" stroke="#666666" points="28,-227 28,-276 72,-276 72,-227 28,-227"/>
</a>
</g>
</g>
<!-- Node2&#45;&gt;Node1 -->
<g id="edge1_Node000001_Node000002" class="edge">
<title>Node2&#45;&gt;Node1</title>
<g id="a_edge1_Node000001_Node000002"><a xlink:title=" ">
<path fill="none" stroke="#63b8ff" d="M52.67,-216.65C55.33,-183.07 59.41,-131.36 62.36,-94.06"/>
<polygon fill="none" stroke="#63b8ff" points="49.17,-216.63 51.87,-226.87 56.14,-217.18 49.17,-216.63"/>
</a>
</g>
</g>
<!-- Node3 -->
<g id="Node000003" class="node">
<title>Node3</title>
<g id="a_Node000003"><a xlink:href="classSensorValueIndicatorViewModel.html" target="_top" xlink:title=" ">
<polygon fill="white" stroke="transparent" points="238,-362 90,-362 90,-141 238,-141 238,-362"/>
<text text-anchor="start" x="100.5" y="-349.5" font-family="Helvetica,sans-Serif" font-size="10.00">SensorValueIndicatorView</text>
<text text-anchor="start" x="148.5" y="-338.5" font-family="Helvetica,sans-Serif" font-size="10.00">Model</text>
<text text-anchor="start" x="96.5" y="-323.5" font-family="Helvetica,sans-Serif" font-size="10.00">&#45;</text>
<text text-anchor="start" x="107" y="-323.5" font-family="Helvetica,sans-Serif" font-size="10.00">m_valueID</text>
<text text-anchor="start" x="96.5" y="-308.5" font-family="Helvetica,sans-Serif" font-size="10.00">&#45;</text>
<text text-anchor="start" x="107" y="-308.5" font-family="Helvetica,sans-Serif" font-size="10.00">m_sensorName</text>
<text text-anchor="start" x="96.5" y="-293.5" font-family="Helvetica,sans-Serif" font-size="10.00">&#45;</text>
<text text-anchor="start" x="107" y="-293.5" font-family="Helvetica,sans-Serif" font-size="10.00">m_sensorValue</text>
<text text-anchor="start" x="96.5" y="-278.5" font-family="Helvetica,sans-Serif" font-size="10.00">&#45;</text>
<text text-anchor="start" x="107" y="-278.5" font-family="Helvetica,sans-Serif" font-size="10.00">m_valueUnit</text>
<text text-anchor="start" x="96.5" y="-263.5" font-family="Helvetica,sans-Serif" font-size="10.00">&#45;</text>
<text text-anchor="start" x="107" y="-263.5" font-family="Helvetica,sans-Serif" font-size="10.00">m_valueMention</text>
<text text-anchor="start" x="94" y="-248.5" font-family="Helvetica,sans-Serif" font-size="10.00">+</text>
<text text-anchor="start" x="107" y="-248.5" font-family="Helvetica,sans-Serif" font-size="10.00">SensorValueIndicatorView</text>
<text text-anchor="start" x="107" y="-237.5" font-family="Helvetica,sans-Serif" font-size="10.00">Model()</text>
<text text-anchor="start" x="94" y="-222.5" font-family="Helvetica,sans-Serif" font-size="10.00">+</text>
<text text-anchor="start" x="107" y="-222.5" font-family="Helvetica,sans-Serif" font-size="10.00">setName()</text>
<text text-anchor="start" x="94" y="-207.5" font-family="Helvetica,sans-Serif" font-size="10.00">+</text>
<text text-anchor="start" x="107" y="-207.5" font-family="Helvetica,sans-Serif" font-size="10.00">setParameters()</text>
<text text-anchor="start" x="94" y="-192.5" font-family="Helvetica,sans-Serif" font-size="10.00">+</text>
<text text-anchor="start" x="107" y="-192.5" font-family="Helvetica,sans-Serif" font-size="10.00">sensorName()</text>
<text text-anchor="start" x="94" y="-177.5" font-family="Helvetica,sans-Serif" font-size="10.00">+</text>
<text text-anchor="start" x="107" y="-177.5" font-family="Helvetica,sans-Serif" font-size="10.00">valueUnit()</text>
<text text-anchor="start" x="94" y="-162.5" font-family="Helvetica,sans-Serif" font-size="10.00">+</text>
<text text-anchor="start" x="107" y="-162.5" font-family="Helvetica,sans-Serif" font-size="10.00">valueMention()</text>
<text text-anchor="start" x="94" y="-147.5" font-family="Helvetica,sans-Serif" font-size="10.00">+</text>
<text text-anchor="start" x="107" y="-147.5" font-family="Helvetica,sans-Serif" font-size="10.00">sensorValue()</text>
<polygon fill="#666666" stroke="#666666" points="90,-333.5 90,-333.5 238,-333.5 238,-333.5 90,-333.5"/>
<polygon fill="#666666" stroke="#666666" points="90,-258.5 90,-258.5 105,-258.5 105,-258.5 90,-258.5"/>
<polygon fill="#666666" stroke="#666666" points="105,-258.5 105,-258.5 238,-258.5 238,-258.5 105,-258.5"/>
<polygon fill="none" stroke="#666666" points="90,-141 90,-362 238,-362 238,-141 90,-141"/>
</a>
</g>
</g>
<!-- Node3&#45;&gt;Node1 -->
<g id="edge2_Node000001_Node000003" class="edge">
<title>Node3&#45;&gt;Node1</title>
<g id="a_edge2_Node000001_Node000003"><a xlink:title=" ">
<path fill="none" stroke="#63b8ff" d="M110.98,-140.95C105.03,-128.65 99.16,-116.51 93.72,-105.28"/>
<polygon fill="none" stroke="#63b8ff" points="93.66,-105.16 87.45,-101.51 88.44,-94.36 94.65,-98.02 93.66,-105.16"/>
</a>
</g>
<text text-anchor="middle" x="120" y="-115" font-family="Helvetica,sans-Serif" font-size="10.00" fill="grey"> &#45;m_vm</text>
</g>
<!-- Node4 -->
<g id="Node000004" class="node">
<title>Node4</title>
<g id="a_Node000004"><a xlink:title=" ">
<polygon fill="white" stroke="transparent" points="346,-1874 296,-1874 296,-1825 346,-1825 346,-1874"/>
<text text-anchor="start" x="301" y="-1861.5" font-family="Helvetica,sans-Serif" font-size="10.00">QObject</text>
<text text-anchor="start" x="319" y="-1846.5" font-family="Helvetica,sans-Serif" font-size="10.00"> </text>
<text text-anchor="start" x="319" y="-1831.5" font-family="Helvetica,sans-Serif" font-size="10.00"> </text>
<polygon fill="#666666" stroke="#666666" points="296,-1856.5 296,-1856.5 346,-1856.5 346,-1856.5 296,-1856.5"/>
<polygon fill="#666666" stroke="#666666" points="296,-1841.5 296,-1841.5 346,-1841.5 346,-1841.5 296,-1841.5"/>
<polygon fill="none" stroke="#666666" points="296,-1825 296,-1874 346,-1874 346,-1825 296,-1825"/>
</a>
</g>
</g>
<!-- Node4&#45;&gt;Node3 -->
<g id="edge3_Node000003_Node000004" class="edge">
<title>Node4&#45;&gt;Node3</title>
<g id="a_edge3_Node000003_Node000004"><a xlink:title=" ">
<path fill="none" stroke="#63b8ff" d="M286.02,-1844.08C229.9,-1834.82 126,-1807.78 126,-1734.5 126,-1734.5 126,-1734.5 126,-485 126,-444.61 131.65,-400.79 138.6,-362.19"/>
<polygon fill="none" stroke="#63b8ff" points="285.49,-1847.54 295.91,-1845.61 286.56,-1840.62 285.49,-1847.54"/>
</a>
</g>
</g>
<!-- Node5 -->
<g id="Node000005" class="node">
<title>Node5</title>
<g id="a_Node000005"><a xlink:href="classTimer.html" target="_top" xlink:title=" ">
<polygon fill="white" stroke="transparent" points="262,-1661 146,-1661 146,-1537 262,-1537 262,-1661"/>
<text text-anchor="start" x="189.5" y="-1649" font-family="Helvetica,sans-Serif" font-size="10.00">Timer</text>
<text text-anchor="start" x="152.5" y="-1634" font-family="Helvetica,sans-Serif" font-size="10.00">&#45;</text>
<text text-anchor="start" x="163" y="-1634" font-family="Helvetica,sans-Serif" font-size="10.00">m_lastRefresh</text>
<text text-anchor="start" x="152.5" y="-1619" font-family="Helvetica,sans-Serif" font-size="10.00">&#45;</text>
<text text-anchor="start" x="163" y="-1619" font-family="Helvetica,sans-Serif" font-size="10.00">m_periodOfRefresh</text>
<text text-anchor="start" x="152.5" y="-1604" font-family="Helvetica,sans-Serif" font-size="10.00">&#45;</text>
<text text-anchor="start" x="163" y="-1604" font-family="Helvetica,sans-Serif" font-size="10.00">m_timer</text>
<text text-anchor="start" x="150" y="-1589" font-family="Helvetica,sans-Serif" font-size="10.00">+</text>
<text text-anchor="start" x="163" y="-1589" font-family="Helvetica,sans-Serif" font-size="10.00">Timer()</text>
<text text-anchor="start" x="150" y="-1574" font-family="Helvetica,sans-Serif" font-size="10.00">+</text>
<text text-anchor="start" x="163" y="-1574" font-family="Helvetica,sans-Serif" font-size="10.00">setFrequecy()</text>
<text text-anchor="start" x="150" y="-1559" font-family="Helvetica,sans-Serif" font-size="10.00">+</text>
<text text-anchor="start" x="163" y="-1559" font-family="Helvetica,sans-Serif" font-size="10.00">setPeriod()</text>
<text text-anchor="start" x="150" y="-1544" font-family="Helvetica,sans-Serif" font-size="10.00">+</text>
<text text-anchor="start" x="163" y="-1544" font-family="Helvetica,sans-Serif" font-size="10.00">frequencyHz()</text>
<polygon fill="#666666" stroke="#666666" points="146,-1644 146,-1644 262,-1644 262,-1644 146,-1644"/>
<polygon fill="#666666" stroke="#666666" points="146,-1599 146,-1599 161,-1599 161,-1599 146,-1599"/>
<polygon fill="#666666" stroke="#666666" points="161,-1599 161,-1599 262,-1599 262,-1599 161,-1599"/>
<polygon fill="none" stroke="#666666" points="146,-1537 146,-1661 262,-1661 262,-1537 146,-1537"/>
</a>
</g>
</g>
<!-- Node4&#45;&gt;Node5 -->
<g id="edge5_Node000005_Node000004" class="edge">
<title>Node4&#45;&gt;Node5</title>
<g id="a_edge5_Node000005_Node000004"><a xlink:title=" ">
<path fill="none" stroke="#63b8ff" d="M287.61,-1828.61C279.61,-1822.53 271.73,-1815.24 266,-1807 235.69,-1763.42 219.94,-1704.78 211.92,-1661.03"/>
<polygon fill="none" stroke="#63b8ff" points="285.73,-1831.57 295.91,-1834.51 289.78,-1825.86 285.73,-1831.57"/>
</a>
</g>
</g>
<!-- Node6 -->
<g id="Node000006" class="node">
<title>Node6</title>
<g id="a_Node000006"><a xlink:href="classTestBenchModel.html" target="_top" xlink:title=" ">
<polygon fill="white" stroke="transparent" points="420,-563 286,-563 286,-409 420,-409 420,-563"/>
<text text-anchor="start" x="313" y="-551" font-family="Helvetica,sans-Serif" font-size="10.00">TestBenchModel</text>
<text text-anchor="start" x="292.5" y="-536" font-family="Helvetica,sans-Serif" font-size="10.00">&#45;</text>
<text text-anchor="start" x="303" y="-536" font-family="Helvetica,sans-Serif" font-size="10.00">m_testStatus</text>
<text text-anchor="start" x="292.5" y="-521" font-family="Helvetica,sans-Serif" font-size="10.00">&#45;</text>
<text text-anchor="start" x="303" y="-521" font-family="Helvetica,sans-Serif" font-size="10.00">m_testStatusInitialised</text>
<text text-anchor="start" x="290" y="-506" font-family="Helvetica,sans-Serif" font-size="10.00">+</text>
<text text-anchor="start" x="303" y="-506" font-family="Helvetica,sans-Serif" font-size="10.00">TestBenchModel()</text>
<text text-anchor="start" x="290" y="-491" font-family="Helvetica,sans-Serif" font-size="10.00">+</text>
<text text-anchor="start" x="303" y="-491" font-family="Helvetica,sans-Serif" font-size="10.00">setTestStatus()</text>
<text text-anchor="start" x="290" y="-476" font-family="Helvetica,sans-Serif" font-size="10.00">+</text>
<text text-anchor="start" x="303" y="-476" font-family="Helvetica,sans-Serif" font-size="10.00">getTestStatus()</text>
<text text-anchor="start" x="290" y="-461" font-family="Helvetica,sans-Serif" font-size="10.00">+</text>
<text text-anchor="start" x="303" y="-461" font-family="Helvetica,sans-Serif" font-size="10.00">getStatus()</text>
<text text-anchor="start" x="290" y="-446" font-family="Helvetica,sans-Serif" font-size="10.00">+</text>
<text text-anchor="start" x="303" y="-446" font-family="Helvetica,sans-Serif" font-size="10.00">getStatus()</text>
<text text-anchor="start" x="290" y="-431" font-family="Helvetica,sans-Serif" font-size="10.00">+</text>
<text text-anchor="start" x="303" y="-431" font-family="Helvetica,sans-Serif" font-size="10.00">getStatusID()</text>
<text text-anchor="start" x="290" y="-416" font-family="Helvetica,sans-Serif" font-size="10.00">+</text>
<text text-anchor="start" x="303" y="-416" font-family="Helvetica,sans-Serif" font-size="10.00">onStatesListRecieved()</text>
<polygon fill="#666666" stroke="#666666" points="286,-546 286,-546 420,-546 420,-546 286,-546"/>
<polygon fill="#666666" stroke="#666666" points="286,-516 286,-516 301,-516 301,-516 286,-516"/>
<polygon fill="#666666" stroke="#666666" points="301,-516 301,-516 420,-516 420,-516 301,-516"/>
<polygon fill="none" stroke="#666666" points="286,-409 286,-563 420,-563 420,-409 286,-409"/>
</a>
</g>
</g>
<!-- Node4&#45;&gt;Node6 -->
<g id="edge7_Node000006_Node000004" class="edge">
<title>Node4&#45;&gt;Node6</title>
<g id="a_edge7_Node000006_Node000004"><a xlink:title=" ">
<path fill="none" stroke="#63b8ff" d="M356.32,-1845.85C452.87,-1837.65 714,-1808.62 714,-1734.5 714,-1734.5 714,-1734.5 714,-776 714,-627.07 524.45,-542.23 420.06,-506.8"/>
<polygon fill="none" stroke="#63b8ff" points="355.86,-1842.38 346.18,-1846.69 356.44,-1849.35 355.86,-1842.38"/>
</a>
</g>
</g>
<!-- Node8 -->
<g id="Node000008" class="node">
<title>Node8</title>
<g id="a_Node000008"><a xlink:href="classUdpChannel.html" target="_top" xlink:title="UDP communication channel between the microcontroller and the HMI.">
<polygon fill="white" stroke="transparent" points="496.5,-944 361.5,-944 361.5,-610 496.5,-610 496.5,-944"/>
<text text-anchor="start" x="399.5" y="-932" font-family="Helvetica,sans-Serif" font-size="10.00">UdpChannel</text>
<text text-anchor="start" x="368.5" y="-917" font-family="Helvetica,sans-Serif" font-size="10.00">&#45;</text>
<text text-anchor="start" x="379" y="-917" font-family="Helvetica,sans-Serif" font-size="10.00">m_udpWorkerThread</text>
<text text-anchor="start" x="368.5" y="-902" font-family="Helvetica,sans-Serif" font-size="10.00">&#45;</text>
<text text-anchor="start" x="379" y="-902" font-family="Helvetica,sans-Serif" font-size="10.00">m_udpSocket</text>
<text text-anchor="start" x="368.5" y="-887" font-family="Helvetica,sans-Serif" font-size="10.00">&#45;</text>
<text text-anchor="start" x="379" y="-887" font-family="Helvetica,sans-Serif" font-size="10.00">m_remoteAddr</text>
<text text-anchor="start" x="368.5" y="-872" font-family="Helvetica,sans-Serif" font-size="10.00">&#45;</text>
<text text-anchor="start" x="379" y="-872" font-family="Helvetica,sans-Serif" font-size="10.00">m_remotePort</text>
<text text-anchor="start" x="368.5" y="-857" font-family="Helvetica,sans-Serif" font-size="10.00">&#45;</text>
<text text-anchor="start" x="379" y="-857" font-family="Helvetica,sans-Serif" font-size="10.00">m_localAddr</text>
<text text-anchor="start" x="368.5" y="-842" font-family="Helvetica,sans-Serif" font-size="10.00">&#45;</text>
<text text-anchor="start" x="379" y="-842" font-family="Helvetica,sans-Serif" font-size="10.00">m_localPort</text>
<text text-anchor="start" x="368.5" y="-827" font-family="Helvetica,sans-Serif" font-size="10.00">&#45;</text>
<text text-anchor="start" x="379" y="-827" font-family="Helvetica,sans-Serif" font-size="10.00">m_lastRefresh</text>
<text text-anchor="start" x="368.5" y="-812" font-family="Helvetica,sans-Serif" font-size="10.00">&#45;</text>
<text text-anchor="start" x="379" y="-812" font-family="Helvetica,sans-Serif" font-size="10.00">m_periodOfRefresh</text>
<text text-anchor="start" x="368.5" y="-797" font-family="Helvetica,sans-Serif" font-size="10.00">&#45;</text>
<text text-anchor="start" x="379" y="-797" font-family="Helvetica,sans-Serif" font-size="10.00">m_running</text>
<text text-anchor="start" x="366" y="-782" font-family="Helvetica,sans-Serif" font-size="10.00">+</text>
<text text-anchor="start" x="379" y="-782" font-family="Helvetica,sans-Serif" font-size="10.00">UdpChannel()</text>
<text text-anchor="start" x="366" y="-767" font-family="Helvetica,sans-Serif" font-size="10.00">+</text>
<text text-anchor="start" x="379" y="-767" font-family="Helvetica,sans-Serif" font-size="10.00">~UdpChannel()</text>
<text text-anchor="start" x="366" y="-752" font-family="Helvetica,sans-Serif" font-size="10.00">+</text>
<text text-anchor="start" x="379" y="-752" font-family="Helvetica,sans-Serif" font-size="10.00">startEndpoint()</text>
<text text-anchor="start" x="366" y="-737" font-family="Helvetica,sans-Serif" font-size="10.00">+</text>
<text text-anchor="start" x="379" y="-737" font-family="Helvetica,sans-Serif" font-size="10.00">stopEndpoint()</text>
<text text-anchor="start" x="366" y="-722" font-family="Helvetica,sans-Serif" font-size="10.00">+</text>
<text text-anchor="start" x="379" y="-722" font-family="Helvetica,sans-Serif" font-size="10.00">sendData()</text>
<text text-anchor="start" x="366" y="-707" font-family="Helvetica,sans-Serif" font-size="10.00">+</text>
<text text-anchor="start" x="379" y="-707" font-family="Helvetica,sans-Serif" font-size="10.00">running()</text>
<text text-anchor="start" x="366" y="-692" font-family="Helvetica,sans-Serif" font-size="10.00">+</text>
<text text-anchor="start" x="379" y="-692" font-family="Helvetica,sans-Serif" font-size="10.00">remoteAddr()</text>
<text text-anchor="start" x="366" y="-677" font-family="Helvetica,sans-Serif" font-size="10.00">+</text>
<text text-anchor="start" x="379" y="-677" font-family="Helvetica,sans-Serif" font-size="10.00">remotePort()</text>
<text text-anchor="start" x="366" y="-662" font-family="Helvetica,sans-Serif" font-size="10.00">+</text>
<text text-anchor="start" x="379" y="-662" font-family="Helvetica,sans-Serif" font-size="10.00">localAddr()</text>
<text text-anchor="start" x="366" y="-647" font-family="Helvetica,sans-Serif" font-size="10.00">+</text>
<text text-anchor="start" x="379" y="-647" font-family="Helvetica,sans-Serif" font-size="10.00">localPort()</text>
<text text-anchor="start" x="379" y="-632" font-family="Helvetica,sans-Serif" font-size="10.00">and 6 more...</text>
<text text-anchor="start" x="366" y="-617" font-family="Helvetica,sans-Serif" font-size="10.00">+</text>
<text text-anchor="start" x="379" y="-617" font-family="Helvetica,sans-Serif" font-size="10.00">onDatagramReceived()</text>
<polygon fill="#666666" stroke="#666666" points="362,-927 362,-927 497,-927 497,-927 362,-927"/>
<polygon fill="#666666" stroke="#666666" points="362,-792 362,-792 377,-792 377,-792 362,-792"/>
<polygon fill="#666666" stroke="#666666" points="377,-792 377,-792 497,-792 497,-792 377,-792"/>
<polygon fill="none" stroke="#666666" points="361.5,-610 361.5,-944 496.5,-944 496.5,-610 361.5,-610"/>
</a>
</g>
</g>
<!-- Node4&#45;&gt;Node8 -->
<g id="edge10_Node000008_Node000004" class="edge">
<title>Node4&#45;&gt;Node8</title>
<g id="a_edge10_Node000008_Node000004"><a xlink:title=" ">
<path fill="none" stroke="#63b8ff" d="M321,-1814.78C321,-1792.09 321,-1761.5 321,-1734.5 321,-1734.5 321,-1734.5 321,-1052 321,-1024.84 339.6,-973.02 361.37,-921.7"/>
<polygon fill="none" stroke="#63b8ff" points="317.5,-1814.92 321,-1824.92 324.5,-1814.92 317.5,-1814.92"/>
</a>
</g>
</g>
<!-- Node9 -->
<g id="Node000009" class="node">
<title>Node9</title>
<g id="a_Node000009"><a xlink:href="classUdpWorker.html" target="_top" xlink:title="UDP socket worker running on a dedicated thread.">
<polygon fill="white" stroke="transparent" points="509,-1115 349,-1115 349,-991 509,-991 509,-1115"/>
<text text-anchor="start" x="402" y="-1103" font-family="Helvetica,sans-Serif" font-size="10.00">UdpWorker</text>
<text text-anchor="start" x="355.5" y="-1088" font-family="Helvetica,sans-Serif" font-size="10.00">&#45;</text>
<text text-anchor="start" x="366" y="-1088" font-family="Helvetica,sans-Serif" font-size="10.00">socket</text>
<text text-anchor="start" x="355.5" y="-1073" font-family="Helvetica,sans-Serif" font-size="10.00">&#45;</text>
<text text-anchor="start" x="366" y="-1073" font-family="Helvetica,sans-Serif" font-size="10.00">m_lastFrameSend</text>
<text text-anchor="start" x="353" y="-1058" font-family="Helvetica,sans-Serif" font-size="10.00">+</text>
<text text-anchor="start" x="366" y="-1058" font-family="Helvetica,sans-Serif" font-size="10.00">UdpWorker()</text>
<text text-anchor="start" x="353" y="-1043" font-family="Helvetica,sans-Serif" font-size="10.00">+</text>
<text text-anchor="start" x="366" y="-1043" font-family="Helvetica,sans-Serif" font-size="10.00">start()</text>
<text text-anchor="start" x="353" y="-1028" font-family="Helvetica,sans-Serif" font-size="10.00">+</text>
<text text-anchor="start" x="366" y="-1028" font-family="Helvetica,sans-Serif" font-size="10.00">stop()</text>
<text text-anchor="start" x="355.5" y="-1013" font-family="Helvetica,sans-Serif" font-size="10.00">&#45;</text>
<text text-anchor="start" x="366" y="-1013" font-family="Helvetica,sans-Serif" font-size="10.00">decimate()</text>
<text text-anchor="start" x="355.5" y="-998" font-family="Helvetica,sans-Serif" font-size="10.00">&#45;</text>
<text text-anchor="start" x="366" y="-998" font-family="Helvetica,sans-Serif" font-size="10.00">processPendingDatagrams()</text>
<polygon fill="#666666" stroke="#666666" points="349,-1098 349,-1098 509,-1098 509,-1098 349,-1098"/>
<polygon fill="#666666" stroke="#666666" points="349,-1068 349,-1068 364,-1068 364,-1068 349,-1068"/>
<polygon fill="#666666" stroke="#666666" points="364,-1068 364,-1068 509,-1068 509,-1068 364,-1068"/>
<polygon fill="none" stroke="#666666" points="349,-991 349,-1115 509,-1115 509,-991 349,-991"/>
</a>
</g>
</g>
<!-- Node4&#45;&gt;Node9 -->
<g id="edge12_Node000009_Node000004" class="edge">
<title>Node4&#45;&gt;Node9</title>
<g id="a_edge12_Node000009_Node000004"><a xlink:title=" ">
<path fill="none" stroke="#63b8ff" d="M332.96,-1815C333.72,-1812.31 334.41,-1809.62 335,-1807 400.89,-1512.73 365.69,-1430.82 413,-1133 413.92,-1127.2 414.97,-1121.17 416.08,-1115.15"/>
<polygon fill="none" stroke="#63b8ff" points="329.6,-1814.02 330.01,-1824.6 336.3,-1816.07 329.6,-1814.02"/>
</a>
</g>
</g>
<!-- Node11 -->
<g id="Node000011" class="node">
<title>Node11</title>
<g id="a_Node000011"><a xlink:href="classLogger.html" target="_top" xlink:title=" ">
<polygon fill="white" stroke="transparent" points="492,-1788 424,-1788 424,-1679 492,-1679 492,-1788"/>
<text text-anchor="start" x="441" y="-1775.5" font-family="Helvetica,sans-Serif" font-size="10.00">Logger</text>
<text text-anchor="start" x="456" y="-1760.5" font-family="Helvetica,sans-Serif" font-size="10.00"> </text>
<text text-anchor="start" x="428" y="-1745.5" font-family="Helvetica,sans-Serif" font-size="10.00">+</text>
<text text-anchor="start" x="441" y="-1745.5" font-family="Helvetica,sans-Serif" font-size="10.00">Logger()</text>
<text text-anchor="start" x="428" y="-1730.5" font-family="Helvetica,sans-Serif" font-size="10.00">+</text>
<text text-anchor="start" x="441" y="-1730.5" font-family="Helvetica,sans-Serif" font-size="10.00">log()</text>
<text text-anchor="start" x="428" y="-1715.5" font-family="Helvetica,sans-Serif" font-size="10.00">+</text>
<text text-anchor="start" x="441" y="-1715.5" font-family="Helvetica,sans-Serif" font-size="10.00">debug()</text>
<text text-anchor="start" x="428" y="-1700.5" font-family="Helvetica,sans-Serif" font-size="10.00">+</text>
<text text-anchor="start" x="441" y="-1700.5" font-family="Helvetica,sans-Serif" font-size="10.00">error()</text>
<text text-anchor="start" x="428" y="-1685.5" font-family="Helvetica,sans-Serif" font-size="10.00">+</text>
<text text-anchor="start" x="441" y="-1685.5" font-family="Helvetica,sans-Serif" font-size="10.00">warning()</text>
<polygon fill="#666666" stroke="#666666" points="424,-1770.5 424,-1770.5 492,-1770.5 492,-1770.5 424,-1770.5"/>
<polygon fill="#666666" stroke="#666666" points="424,-1755.5 424,-1755.5 492,-1755.5 492,-1755.5 424,-1755.5"/>
<polygon fill="none" stroke="#666666" points="424,-1679 424,-1788 492,-1788 492,-1679 424,-1679"/>
</a>
</g>
</g>
<!-- Node4&#45;&gt;Node11 -->
<g id="edge15_Node000011_Node000004" class="edge">
<title>Node4&#45;&gt;Node11</title>
<g id="a_edge15_Node000011_Node000004"><a xlink:title=" ">
<path fill="none" stroke="#63b8ff" d="M354.18,-1822.91C360.79,-1817.7 367.65,-1812.22 374,-1807 390.67,-1793.3 408.83,-1777.71 423.98,-1764.5"/>
<polygon fill="none" stroke="#63b8ff" points="351.72,-1820.4 346,-1829.32 356.03,-1825.91 351.72,-1820.4"/>
</a>
</g>
</g>
<!-- Node12 -->
<g id="Node000012" class="node">
<title>Node12</title>
<g id="a_Node000012"><a xlink:href="classFileSystem.html" target="_top" xlink:title=" ">
<polygon fill="white" stroke="transparent" points="289,-1212 197,-1212 197,-1133 289,-1133 289,-1212"/>
<text text-anchor="start" x="215.5" y="-1199.5" font-family="Helvetica,sans-Serif" font-size="10.00">FileSystem</text>
<text text-anchor="start" x="203.5" y="-1184.5" font-family="Helvetica,sans-Serif" font-size="10.00">&#45;</text>
<text text-anchor="start" x="214" y="-1184.5" font-family="Helvetica,sans-Serif" font-size="10.00">m_pathList</text>
<text text-anchor="start" x="201" y="-1169.5" font-family="Helvetica,sans-Serif" font-size="10.00">+</text>
<text text-anchor="start" x="214" y="-1169.5" font-family="Helvetica,sans-Serif" font-size="10.00">FileSystem()</text>
<text text-anchor="start" x="201" y="-1154.5" font-family="Helvetica,sans-Serif" font-size="10.00">+</text>
<text text-anchor="start" x="214" y="-1154.5" font-family="Helvetica,sans-Serif" font-size="10.00">addDirectory()</text>
<text text-anchor="start" x="201" y="-1139.5" font-family="Helvetica,sans-Serif" font-size="10.00">+</text>
<text text-anchor="start" x="214" y="-1139.5" font-family="Helvetica,sans-Serif" font-size="10.00">getDirectory()</text>
<polygon fill="#666666" stroke="#666666" points="197,-1194.5 197,-1194.5 289,-1194.5 289,-1194.5 197,-1194.5"/>
<polygon fill="#666666" stroke="#666666" points="197,-1179.5 197,-1179.5 212,-1179.5 212,-1179.5 197,-1179.5"/>
<polygon fill="#666666" stroke="#666666" points="212,-1179.5 212,-1179.5 289,-1179.5 289,-1179.5 212,-1179.5"/>
<polygon fill="none" stroke="#666666" points="197,-1133 197,-1212 289,-1212 289,-1133 197,-1133"/>
</a>
</g>
</g>
<!-- Node4&#45;&gt;Node12 -->
<g id="edge18_Node000012_Node000004" class="edge">
<title>Node4&#45;&gt;Node12</title>
<g id="a_edge18_Node000012_Node000004"><a xlink:title=" ">
<path fill="none" stroke="#63b8ff" d="M308.99,-1815.01C308.25,-1812.32 307.57,-1809.63 307,-1807 282.17,-1692.2 254.46,-1331.49 245.76,-1212.21"/>
<polygon fill="none" stroke="#63b8ff" points="305.66,-1816.08 311.93,-1824.62 312.35,-1814.03 305.66,-1816.08"/>
</a>
</g>
</g>
<!-- Node5&#45;&gt;Node3 -->
<g id="edge4_Node000003_Node000005" class="edge">
<title>Node5&#45;&gt;Node3</title>
<g id="a_edge4_Node000003_Node000005"><a xlink:title=" ">
<path fill="none" stroke="#63b8ff" d="M194.57,-1536.66C182.75,-1454.28 164,-1303.23 164,-1173.5 164,-1173.5 164,-1173.5 164,-485 164,-449.16 164,-410.22 164,-374.63"/>
<polygon fill="none" stroke="#63b8ff" points="164,-374.2 160,-368.2 164,-362.2 168,-368.2 164,-374.2"/>
</a>
</g>
<text text-anchor="middle" x="188.5" y="-965" font-family="Helvetica,sans-Serif" font-size="10.00" fill="grey"> &#45;m_timer</text>
</g>
<!-- Node6&#45;&gt;Node3 -->
<g id="edge6_Node000003_Node000006" class="edge">
<title>Node6&#45;&gt;Node3</title>
<g id="a_edge6_Node000003_Node000006"><a xlink:title=" ">
<path fill="none" stroke="#63b8ff" d="M291.11,-408.87C276.66,-391.08 261.03,-371.87 245.86,-353.2"/>
<polygon fill="none" stroke="#63b8ff" points="245.78,-353.1 238.89,-350.97 238.21,-343.79 245.1,-345.92 245.78,-353.1"/>
</a>
</g>
<text text-anchor="middle" x="316" y="-383" font-family="Helvetica,sans-Serif" font-size="10.00" fill="grey"> &#45;m_testBenchM</text>
</g>
<!-- Node7 -->
<g id="Node000007" class="node">
<title>Node7</title>
<g id="a_Node000007"><a xlink:href="classTestBenchStatesList.html" target="_top" xlink:title=" ">
<polygon fill="white" stroke="transparent" points="343,-831.5 235,-831.5 235,-722.5 343,-722.5 343,-831.5"/>
<text text-anchor="start" x="240" y="-819" font-family="Helvetica,sans-Serif" font-size="10.00">TestBenchStatesList</text>
<text text-anchor="start" x="242.5" y="-804" font-family="Helvetica,sans-Serif" font-size="10.00">&#45;</text>
<text text-anchor="start" x="254" y="-804" font-family="Helvetica,sans-Serif" font-size="10.00">m_valuesDatas</text>
<text text-anchor="start" x="242.5" y="-789" font-family="Helvetica,sans-Serif" font-size="10.00">&#45;</text>
<text text-anchor="start" x="254" y="-789" font-family="Helvetica,sans-Serif" font-size="10.00">m_valuesNames</text>
<text text-anchor="start" x="240" y="-774" font-family="Helvetica,sans-Serif" font-size="10.00">+</text>
<text text-anchor="start" x="254" y="-774" font-family="Helvetica,sans-Serif" font-size="10.00">append()</text>
<text text-anchor="start" x="240" y="-759" font-family="Helvetica,sans-Serif" font-size="10.00">+</text>
<text text-anchor="start" x="254" y="-759" font-family="Helvetica,sans-Serif" font-size="10.00">getValue()</text>
<text text-anchor="start" x="240" y="-744" font-family="Helvetica,sans-Serif" font-size="10.00">+</text>
<text text-anchor="start" x="254" y="-744" font-family="Helvetica,sans-Serif" font-size="10.00">getValue()</text>
<text text-anchor="start" x="240" y="-729" font-family="Helvetica,sans-Serif" font-size="10.00">+</text>
<text text-anchor="start" x="254" y="-729" font-family="Helvetica,sans-Serif" font-size="10.00">getID()</text>
<polygon fill="#666666" stroke="#666666" points="235,-814 235,-814 343,-814 343,-814 235,-814"/>
<polygon fill="#666666" stroke="#666666" points="235,-784 235,-784 252,-784 252,-784 235,-784"/>
<polygon fill="#666666" stroke="#666666" points="252,-784 252,-784 343,-784 343,-784 252,-784"/>
<polygon fill="none" stroke="#666666" points="235,-722.5 235,-831.5 343,-831.5 343,-722.5 235,-722.5"/>
</a>
</g>
</g>
<!-- Node7&#45;&gt;Node6 -->
<g id="edge8_Node000006_Node000007" class="edge">
<title>Node7&#45;&gt;Node6</title>
<g id="a_edge8_Node000006_Node000007"><a xlink:title=" ">
<path fill="none" stroke="#63b8ff" d="M296.36,-722.21C302.24,-682.82 311.4,-628.22 323,-581 323.49,-579 324,-576.98 324.53,-574.94"/>
<polygon fill="none" stroke="#63b8ff" points="324.58,-574.77 322.29,-567.93 327.73,-563.19 330.01,-570.03 324.58,-574.77"/>
</a>
</g>
<text text-anchor="middle" x="349" y="-584" font-family="Helvetica,sans-Serif" font-size="10.00" fill="grey"> &#45;m_states</text>
</g>
<!-- Node8&#45;&gt;Node6 -->
<g id="edge9_Node000006_Node000008" class="edge">
<title>Node8&#45;&gt;Node6</title>
<g id="a_edge9_Node000006_Node000008"><a xlink:title=" ">
<path fill="none" stroke="#63b8ff" d="M385.34,-609.98C382.21,-598.06 379.13,-586.35 376.18,-575.16"/>
<polygon fill="none" stroke="#63b8ff" points="376.1,-574.86 370.71,-570.07 373.05,-563.25 378.45,-568.04 376.1,-574.86"/>
</a>
</g>
<text text-anchor="middle" x="419" y="-584" font-family="Helvetica,sans-Serif" font-size="10.00" fill="grey"> &#45;m_udpChannel</text>
</g>
<!-- Node9&#45;&gt;Node8 -->
<g id="edge11_Node000008_Node000009" class="edge">
<title>Node9&#45;&gt;Node8</title>
<g id="a_edge11_Node000008_Node000009"><a xlink:title=" ">
<path fill="none" stroke="#63b8ff" d="M429,-990.85C429,-980.14 429,-968.54 429,-956.45"/>
<polygon fill="none" stroke="#63b8ff" points="429,-956.23 425,-950.23 429,-944.23 433,-950.23 429,-956.23"/>
</a>
</g>
<text text-anchor="middle" x="466" y="-965" font-family="Helvetica,sans-Serif" font-size="10.00" fill="grey"> &#45;m_udpWorker</text>
</g>
<!-- Node10 -->
<g id="Node000010" class="node">
<title>Node10</title>
<g id="a_Node000010"><a xlink:href="classUdpLogger.html" target="_top" xlink:title="High&#45;frequency binary logger for UDP telemetry frames.">
<polygon fill="white" stroke="transparent" points="611.5,-1519 478.5,-1519 478.5,-1230 611.5,-1230 611.5,-1519"/>
<text text-anchor="start" x="519" y="-1506.5" font-family="Helvetica,sans-Serif" font-size="10.00">UdpLogger</text>
<text text-anchor="start" x="485.5" y="-1491.5" font-family="Helvetica,sans-Serif" font-size="10.00">&#45;</text>
<text text-anchor="start" x="496" y="-1491.5" font-family="Helvetica,sans-Serif" font-size="10.00">m_writer</text>
<text text-anchor="start" x="485.5" y="-1476.5" font-family="Helvetica,sans-Serif" font-size="10.00">&#45;</text>
<text text-anchor="start" x="496" y="-1476.5" font-family="Helvetica,sans-Serif" font-size="10.00">m_ringBuffer</text>
<text text-anchor="start" x="485.5" y="-1461.5" font-family="Helvetica,sans-Serif" font-size="10.00">&#45;</text>
<text text-anchor="start" x="496" y="-1461.5" font-family="Helvetica,sans-Serif" font-size="10.00">m_running</text>
<text text-anchor="start" x="485.5" y="-1446.5" font-family="Helvetica,sans-Serif" font-size="10.00">&#45;</text>
<text text-anchor="start" x="496" y="-1446.5" font-family="Helvetica,sans-Serif" font-size="10.00">m_writerThread</text>
<text text-anchor="start" x="485.5" y="-1431.5" font-family="Helvetica,sans-Serif" font-size="10.00">&#45;</text>
<text text-anchor="start" x="496" y="-1431.5" font-family="Helvetica,sans-Serif" font-size="10.00">m_logDirPath</text>
<text text-anchor="start" x="485.5" y="-1416.5" font-family="Helvetica,sans-Serif" font-size="10.00">&#45;</text>
<text text-anchor="start" x="496" y="-1416.5" font-family="Helvetica,sans-Serif" font-size="10.00">MAX_FRAME_SIZE</text>
<text text-anchor="start" x="483" y="-1401.5" font-family="Helvetica,sans-Serif" font-size="10.00">+</text>
<text text-anchor="start" x="496" y="-1401.5" font-family="Helvetica,sans-Serif" font-size="10.00">UdpLogger()</text>
<text text-anchor="start" x="483" y="-1386.5" font-family="Helvetica,sans-Serif" font-size="10.00">+</text>
<text text-anchor="start" x="496" y="-1386.5" font-family="Helvetica,sans-Serif" font-size="10.00">~UdpLogger()</text>
<text text-anchor="start" x="483" y="-1371.5" font-family="Helvetica,sans-Serif" font-size="10.00">+</text>
<text text-anchor="start" x="496" y="-1371.5" font-family="Helvetica,sans-Serif" font-size="10.00">UdpLogger()</text>
<text text-anchor="start" x="483" y="-1356.5" font-family="Helvetica,sans-Serif" font-size="10.00">+</text>
<text text-anchor="start" x="496" y="-1356.5" font-family="Helvetica,sans-Serif" font-size="10.00">operator=()</text>
<text text-anchor="start" x="483" y="-1341.5" font-family="Helvetica,sans-Serif" font-size="10.00">+</text>
<text text-anchor="start" x="496" y="-1341.5" font-family="Helvetica,sans-Serif" font-size="10.00">UdpLogger()</text>
<text text-anchor="start" x="483" y="-1326.5" font-family="Helvetica,sans-Serif" font-size="10.00">+</text>
<text text-anchor="start" x="496" y="-1326.5" font-family="Helvetica,sans-Serif" font-size="10.00">operator=()</text>
<text text-anchor="start" x="483" y="-1311.5" font-family="Helvetica,sans-Serif" font-size="10.00">+</text>
<text text-anchor="start" x="496" y="-1311.5" font-family="Helvetica,sans-Serif" font-size="10.00">log()</text>
<text text-anchor="start" x="483" y="-1296.5" font-family="Helvetica,sans-Serif" font-size="10.00">+</text>
<text text-anchor="start" x="496" y="-1296.5" font-family="Helvetica,sans-Serif" font-size="10.00">cyclesCount()</text>
<text text-anchor="start" x="483" y="-1281.5" font-family="Helvetica,sans-Serif" font-size="10.00">+</text>
<text text-anchor="start" x="496" y="-1281.5" font-family="Helvetica,sans-Serif" font-size="10.00">droppedFramesCount()</text>
<text text-anchor="start" x="483" y="-1266.5" font-family="Helvetica,sans-Serif" font-size="10.00">+</text>
<text text-anchor="start" x="496" y="-1266.5" font-family="Helvetica,sans-Serif" font-size="10.00">start()</text>
<text text-anchor="start" x="483" y="-1251.5" font-family="Helvetica,sans-Serif" font-size="10.00">+</text>
<text text-anchor="start" x="496" y="-1251.5" font-family="Helvetica,sans-Serif" font-size="10.00">stop()</text>
<text text-anchor="start" x="485.5" y="-1236.5" font-family="Helvetica,sans-Serif" font-size="10.00">&#45;</text>
<text text-anchor="start" x="496" y="-1236.5" font-family="Helvetica,sans-Serif" font-size="10.00">writerLoop()</text>
<polygon fill="#666666" stroke="#666666" points="479,-1501.5 479,-1501.5 612,-1501.5 612,-1501.5 479,-1501.5"/>
<polygon fill="#666666" stroke="#666666" points="479,-1411.5 479,-1411.5 494,-1411.5 494,-1411.5 479,-1411.5"/>
<polygon fill="#666666" stroke="#666666" points="494,-1411.5 494,-1411.5 612,-1411.5 612,-1411.5 494,-1411.5"/>
<polygon fill="none" stroke="#666666" points="478.5,-1230 478.5,-1519 611.5,-1519 611.5,-1230 478.5,-1230"/>
</a>
</g>
</g>
<!-- Node10&#45;&gt;Node8 -->
<g id="edge20_Node000008_Node000010" class="edge">
<title>Node10&#45;&gt;Node8</title>
<g id="a_edge20_Node000008_Node000010"><a xlink:title=" ">
<path fill="none" stroke="#63b8ff" d="M545.44,-1229.79C543,-1157.38 535.94,-1068.68 518,-991 514.9,-977.57 512.14,-974.79 507,-962 505.11,-957.29 503.18,-952.52 501.22,-947.71"/>
<polygon fill="none" stroke="#63b8ff" points="501.15,-947.53 495.18,-943.49 496.61,-936.42 502.58,-940.46 501.15,-947.53"/>
</a>
</g>
<text text-anchor="middle" x="573.5" y="-1050.5" font-family="Helvetica,sans-Serif" font-size="10.00" fill="grey"> &#45;m_udpLogger</text>
</g>
<!-- Node10&#45;&gt;Node9 -->
<g id="edge13_Node000009_Node000010" class="edge">
<title>Node10&#45;&gt;Node9</title>
<g id="a_edge13_Node000009_Node000010"><a xlink:title=" ">
<path fill="none" stroke="#63b8ff" d="M478.49,-1256.65C471.59,-1241.9 465.22,-1226.79 460,-1212 450.48,-1185.02 443.62,-1154.37 438.81,-1127.29"/>
<polygon fill="none" stroke="#63b8ff" points="438.76,-1126.95 433.81,-1121.71 436.75,-1115.12 441.7,-1120.37 438.76,-1126.95"/>
</a>
</g>
<text text-anchor="middle" x="495.5" y="-1170" font-family="Helvetica,sans-Serif" font-size="10.00" fill="grey"> &#45;m_udplogger</text>
</g>
<!-- Node11&#45;&gt;Node8 -->
<g id="edge19_Node000008_Node000011" class="edge">
<title>Node11&#45;&gt;Node8</title>
<g id="a_edge19_Node000008_Node000011"><a xlink:title=" ">
<path fill="none" stroke="#63b8ff" d="M492.38,-1715.25C514.44,-1702.73 542.34,-1683.98 561,-1661 604.18,-1607.81 607.4,-1586.15 621,-1519 644.3,-1403.99 656.68,-1100.31 614,-991 591.43,-933.19 545.88,-880.43 505.63,-841.88"/>
<polygon fill="none" stroke="#63b8ff" points="505.61,-841.85 498.5,-840.65 496.87,-833.63 503.98,-834.83 505.61,-841.85"/>
</a>
</g>
<text text-anchor="middle" x="668.5" y="-1170" font-family="Helvetica,sans-Serif" font-size="10.00" fill="grey"> &#45;m_logger</text>
</g>
<!-- Node11&#45;&gt;Node9 -->
<g id="edge16_Node000009_Node000011" class="edge">
<title>Node11&#45;&gt;Node9</title>
<g id="a_edge16_Node000009_Node000011"><a xlink:title=" ">
<path fill="none" stroke="#63b8ff" d="M444.79,-1678.94C434.91,-1636.01 422.24,-1574.05 417,-1519 404.83,-1391.13 412.63,-1358.37 417,-1230 418.15,-1196.22 420.54,-1158.86 422.88,-1127.28"/>
<polygon fill="none" stroke="#63b8ff" points="422.91,-1127 419.37,-1120.72 423.81,-1115.04 427.35,-1121.32 422.91,-1127"/>
</a>
</g>
<text text-anchor="middle" x="443.5" y="-1372" font-family="Helvetica,sans-Serif" font-size="10.00" fill="grey"> &#45;m_logger</text>
</g>
<!-- Node11&#45;&gt;Node10 -->
<g id="edge14_Node000010_Node000011" class="edge">
<title>Node11&#45;&gt;Node10</title>
<g id="a_edge14_Node000010_Node000011"><a xlink:title=" ">
<path fill="none" stroke="#63b8ff" d="M471.12,-1678.67C480.7,-1639.37 494.2,-1583.97 507.04,-1531.26"/>
<polygon fill="none" stroke="#63b8ff" points="507.1,-1531.02 504.64,-1524.24 509.94,-1519.36 512.41,-1526.13 507.1,-1531.02"/>
</a>
</g>
<text text-anchor="middle" x="530.5" y="-1596.5" font-family="Helvetica,sans-Serif" font-size="10.00" fill="grey"> &#45;m_logger</text>
</g>
<!-- Node12&#45;&gt;Node8 -->
<g id="edge17_Node000008_Node000012" class="edge">
<title>Node12&#45;&gt;Node8</title>
<g id="a_edge17_Node000008_Node000012"><a xlink:title=" ">
<path fill="none" stroke="#63b8ff" d="M228.15,-1132.64C215.86,-1093.4 204.58,-1032.78 233,-991 248.99,-967.49 331.32,-963.51 352,-944 352.3,-943.71 352.61,-943.43 352.91,-943.14"/>
<polygon fill="none" stroke="#63b8ff" points="353.01,-943.03 354.3,-935.93 361.34,-934.38 360.06,-941.48 353.01,-943.03"/>
</a>
</g>
<text text-anchor="middle" x="270" y="-1050.5" font-family="Helvetica,sans-Serif" font-size="10.00" fill="grey"> &#45;m_fileSystem</text>
</g>
</g>
</svg>
