<?xml version="1.0" encoding="UTF-8" standalone="no"?>
<!DOCTYPE svg PUBLIC "-//W3C//DTD SVG 1.1//EN"
 "http://www.w3.org/Graphics/SVG/1.1/DTD/svg11.dtd">
<!-- Generated by graphviz version 2.43.0 (0)
 -->
<!-- Title: TestLauncherViewModel::browsingRequested Pages: 1 -->
<svg width="498pt" height="60pt"
 viewBox="0.00 0.00 498.00 60.00" xmlns="http://www.w3.org/2000/svg" xmlns:xlink="http://www.w3.org/1999/xlink">

<svg id="main" version="1.1" xmlns="http://www.w3.org/2000/svg" xmlns:xlink="http://www.w3.org/1999/xlink" xml:space="preserve" onload="init(evt)">
<style type="text/css"><![CDATA[
.node, .edge {opacity: 0.7;}
.node.selected, .edge.selected {opacity: 1;}
.edge:hover path { stroke: red; }
.edge:hover polygon { stroke: red; fill: red; }
]]></style>
<script type="application/ecmascript" xlink:href="svg.min.js"/>
<svg id="graph" class="graph">
<g id="graph0" class="graph" transform="scale(1 1) rotate(0) translate(4 56)">
<title>TestLauncherViewModel::browsingRequested</title>
<!-- Node1 -->
<g id="Node000001" class="node">
<title>Node1</title>
<g id="a_Node000001"><a xlink:title=" ">
<polygon fill="#999999" stroke="#666666" points="490,-30 356,-30 356,0 490,0 490,-30"/>
<text text-anchor="start" x="364" y="-18" font-family="Helvetica,sans-Serif" font-size="10.00">TestLauncherViewModel</text>
<text text-anchor="middle" x="423" y="-7" font-family="Helvetica,sans-Serif" font-size="10.00">::browsingRequested</text>
</a>
</g>
</g>
<!-- Node2 -->
<g id="Node000002" class="node">
<title>Node2</title>
<g id="a_Node000002"><a xlink:href="classTestLauncherViewModel.html#a32c10ded828a6f016f7bcf5475f5fbd0" target="_top" xlink:title=" ">
<polygon fill="white" stroke="#666666" points="320,-52 186,-52 186,-22 320,-22 320,-52"/>
<text text-anchor="start" x="194" y="-40" font-family="Helvetica,sans-Serif" font-size="10.00">TestLauncherViewModel</text>
<text text-anchor="middle" x="253" y="-29" font-family="Helvetica,sans-Serif" font-size="10.00">::requestBrowse</text>
</a>
</g>
</g>
<!-- Node1&#45;&gt;Node2 -->
<g id="edge1_Node000001_Node000002" class="edge">
<title>Node1&#45;&gt;Node2</title>
<g id="a_edge1_Node000001_Node000002"><a xlink:title=" ">
<path fill="none" stroke="#63b8ff" d="M345.68,-24.99C337.17,-26.11 328.56,-27.24 320.19,-28.33"/>
<polygon fill="#63b8ff" stroke="#63b8ff" points="346.14,-28.46 355.6,-23.69 345.23,-21.52 346.14,-28.46"/>
</a>
</g>
</g>
<!-- Node3 -->
<g id="Node000003" class="node">
<title>Node3</title>
<g id="a_Node000003"><a xlink:href="classTestLauncher.html#a0b2015a489c9ef4b4258626629841e5a" target="_top" xlink:title=" ">
<polygon fill="white" stroke="#666666" points="150,-24.5 0,-24.5 0,-5.5 150,-5.5 150,-24.5"/>
<text text-anchor="middle" x="75" y="-12.5" font-family="Helvetica,sans-Serif" font-size="10.00">TestLauncher::TestLauncher</text>
</a>
</g>
</g>
<!-- Node1&#45;&gt;Node3 -->
<g id="edge3_Node000001_Node000003" class="edge">
<title>Node1&#45;&gt;Node3</title>
<g id="a_edge3_Node000001_Node000003"><a xlink:title=" ">
<path fill="none" stroke="#63b8ff" d="M345.74,-13.34C337.06,-13.2 328.34,-13.08 320,-13 260.45,-12.42 245.55,-12.46 186,-13 174.44,-13.11 162.21,-13.27 150.26,-13.47"/>
<polygon fill="#63b8ff" stroke="#63b8ff" points="345.83,-16.84 355.89,-13.51 345.95,-9.84 345.83,-16.84"/>
</a>
</g>
</g>
<!-- Node2&#45;&gt;Node3 -->
<g id="edge2_Node000002_Node000003" class="edge">
<title>Node2&#45;&gt;Node3</title>
<g id="a_edge2_Node000002_Node000003"><a xlink:title=" ">
<path fill="none" stroke="#63b8ff" d="M175.98,-27.5C167.39,-26.42 158.65,-25.33 150.09,-24.26"/>
<polygon fill="#63b8ff" stroke="#63b8ff" points="175.61,-30.98 185.96,-28.75 176.47,-24.03 175.61,-30.98"/>
</a>
</g>
</g>
</g>
</svg>
</svg>

<style type='text/css'>
<![CDATA[
[data-mouse-over-selected='false'] { opacity: 0.7; }
[data-mouse-over-selected='true']  { opacity: 1.0; }
]]>
</style>
<script type="application/ecmascript"><![CDATA[
document.addEventListener('DOMContentLoaded', (event) => {
  highlightEdges();
  highlightAdjacentNodes();
});
]]></script>
</svg>
