<?xml version="1.0" encoding="UTF-8" standalone="no"?>
<!DOCTYPE svg PUBLIC "-//W3C//DTD SVG 1.1//EN"
 "http://www.w3.org/Graphics/SVG/1.1/DTD/svg11.dtd">
<!-- Generated by graphviz version 2.43.0 (0)
 -->
<!-- Title: EmergencyControls::EmergencyControls Pages: 1 -->
<svg width="719pt" height="76pt"
 viewBox="0.00 0.00 719.00 75.50" xmlns="http://www.w3.org/2000/svg" xmlns:xlink="http://www.w3.org/1999/xlink">
<g id="graph0" class="graph" transform="scale(1 1) rotate(0) translate(4 71.5)">
<title>EmergencyControls::EmergencyControls</title>
<!-- Node1 -->
<g id="Node000001" class="node">
<title>Node1</title>
<g id="a_Node000001"><a xlink:title=" ">
<polygon fill="#999999" stroke="#666666" points="118,-51 0,-51 0,-21 118,-21 118,-51"/>
<text text-anchor="start" x="8" y="-39" font-family="Helvetica,sans-Serif" font-size="10.00">EmergencyControls::</text>
<text text-anchor="middle" x="59" y="-28" font-family="Helvetica,sans-Serif" font-size="10.00">EmergencyControls</text>
</a>
</g>
</g>
<!-- Node2 -->
<g id="Node000002" class="node">
<title>Node2</title>
<g id="a_Node000002"><a xlink:href="classEmergencyControlsViewModel.html#ae77635067993ac4afca50a009a40d853" target="_top" xlink:title=" ">
<polygon fill="white" stroke="#666666" points="320,-51 154,-51 154,-21 320,-21 320,-51"/>
<text text-anchor="start" x="162" y="-39" font-family="Helvetica,sans-Serif" font-size="10.00">EmergencyControlsViewModel</text>
<text text-anchor="middle" x="237" y="-28" font-family="Helvetica,sans-Serif" font-size="10.00">::onTestAbortion</text>
</a>
</g>
</g>
<!-- Node1&#45;&gt;Node2 -->
<g id="edge1_Node000001_Node000002" class="edge">
<title>Node1&#45;&gt;Node2</title>
<g id="a_edge1_Node000001_Node000002"><a xlink:title=" ">
<path fill="none" stroke="#63b8ff" d="M118.12,-36C126.32,-36 134.92,-36 143.57,-36"/>
<polygon fill="#63b8ff" stroke="#63b8ff" points="143.74,-39.5 153.74,-36 143.74,-32.5 143.74,-39.5"/>
</a>
</g>
</g>
<!-- Node3 -->
<g id="Node000003" class="node">
<title>Node3</title>
<g id="a_Node000003"><a xlink:href="classUdpChannel.html#a439664ce9bf094d21d0234a1943dfc07" target="_top" xlink:title=" ">
<polygon fill="white" stroke="#666666" points="503.5,-65.5 375.5,-65.5 375.5,-46.5 503.5,-46.5 503.5,-65.5"/>
<text text-anchor="middle" x="439.5" y="-53.5" font-family="Helvetica,sans-Serif" font-size="10.00">UdpChannel::sendData</text>
</a>
</g>
</g>
<!-- Node2&#45;&gt;Node3 -->
<g id="edge2_Node000002_Node000003" class="edge">
<title>Node2&#45;&gt;Node3</title>
<g id="a_edge2_Node000002_Node000003"><a xlink:title=" ">
<path fill="none" stroke="#63b8ff" d="M320.13,-44.19C335.07,-45.68 350.56,-47.23 365.22,-48.69"/>
<polygon fill="#63b8ff" stroke="#63b8ff" points="364.92,-52.18 375.22,-49.69 365.62,-45.21 364.92,-52.18"/>
</a>
</g>
</g>
<!-- Node5 -->
<g id="Node000005" class="node">
<title>Node5</title>
<g id="a_Node000005"><a xlink:href="classTestBenchModel.html#a54c863e0fad71787463b3cca612b1ee3" target="_top" xlink:title=" ">
<polygon fill="white" stroke="#666666" points="523,-27.5 356,-27.5 356,-8.5 523,-8.5 523,-27.5"/>
<text text-anchor="middle" x="439.5" y="-15.5" font-family="Helvetica,sans-Serif" font-size="10.00">TestBenchModel::setTestStatus</text>
</a>
</g>
</g>
<!-- Node2&#45;&gt;Node5 -->
<g id="edge4_Node000002_Node000005" class="edge">
<title>Node2&#45;&gt;Node5</title>
<g id="a_edge4_Node000002_Node000005"><a xlink:title=" ">
<path fill="none" stroke="#63b8ff" d="M320.13,-28.63C328.6,-27.87 337.25,-27.09 345.83,-26.32"/>
<polygon fill="#63b8ff" stroke="#63b8ff" points="346.2,-29.8 355.85,-25.42 345.58,-22.83 346.2,-29.8"/>
</a>
</g>
</g>
<!-- Node4 -->
<g id="Node000004" class="node">
<title>Node4</title>
<g id="a_Node000004"><a xlink:href="classProtocolCodec.html#a7d9ae5526622c37b683d418fd9f800c4" target="_top" xlink:title=" ">
<polygon fill="white" stroke="#666666" points="699,-67.5 571,-67.5 571,-48.5 699,-48.5 699,-67.5"/>
<text text-anchor="middle" x="635" y="-55.5" font-family="Helvetica,sans-Serif" font-size="10.00">ProtocolCodec::encode</text>
</a>
</g>
</g>
<!-- Node3&#45;&gt;Node4 -->
<g id="edge3_Node000003_Node000004" class="edge">
<title>Node3&#45;&gt;Node4</title>
<g id="a_edge3_Node000003_Node000004"><a xlink:title=" ">
<path fill="none" stroke="#63b8ff" d="M503.59,-56.65C521.91,-56.84 542.08,-57.05 560.96,-57.25"/>
<polygon fill="#63b8ff" stroke="#63b8ff" points="560.96,-60.75 570.99,-57.35 561.03,-53.75 560.96,-60.75"/>
</a>
</g>
</g>
<!-- Node6 -->
<g id="Node000006" class="node">
<title>Node6</title>
<g id="a_Node000006"><a xlink:href="classTestBenchModel.html#a0d3f80fa37e00cdbd143c2354d28d74f" target="_top" xlink:title=" ">
<polygon fill="white" stroke="#666666" points="711,-30 559,-30 559,0 711,0 711,-30"/>
<text text-anchor="start" x="567" y="-18" font-family="Helvetica,sans-Serif" font-size="10.00">TestBenchModel::testStatus</text>
<text text-anchor="middle" x="635" y="-7" font-family="Helvetica,sans-Serif" font-size="10.00">Changed</text>
</a>
</g>
</g>
<!-- Node5&#45;&gt;Node6 -->
<g id="edge5_Node000005_Node000006" class="edge">
<title>Node5&#45;&gt;Node6</title>
<g id="a_edge5_Node000005_Node000006"><a xlink:title=" ">
<path fill="none" stroke="#63b8ff" d="M523.12,-16.72C531.52,-16.59 540.06,-16.46 548.49,-16.33"/>
<polygon fill="#63b8ff" stroke="#63b8ff" points="548.75,-19.82 558.7,-16.17 548.64,-12.82 548.75,-19.82"/>
</a>
</g>
</g>
</g>
</svg>
