<?xml version="1.0" encoding="UTF-8" standalone="no"?>
<!DOCTYPE svg PUBLIC "-//W3C//DTD SVG 1.1//EN"
 "http://www.w3.org/Graphics/SVG/1.1/DTD/svg11.dtd">
<!-- Generated by graphviz version 2.43.0 (0)
 -->
<!-- Title: TestBenchModel::TestBenchModel Pages: 1 -->
<svg width="556pt" height="76pt"
 viewBox="0.00 0.00 556.00 75.50" xmlns="http://www.w3.org/2000/svg" xmlns:xlink="http://www.w3.org/1999/xlink">
<g id="graph0" class="graph" transform="scale(1 1) rotate(0) translate(4 71.5)">
<title>TestBenchModel::TestBenchModel</title>
<!-- Node1 -->
<g id="Node000001" class="node">
<title>Node1</title>
<g id="a_Node000001"><a xlink:title=" ">
<polygon fill="#999999" stroke="#666666" points="152,-45.5 0,-45.5 0,-15.5 152,-15.5 152,-45.5"/>
<text text-anchor="start" x="8" y="-33.5" font-family="Helvetica,sans-Serif" font-size="10.00">TestBenchModel::TestBench</text>
<text text-anchor="middle" x="76" y="-22.5" font-family="Helvetica,sans-Serif" font-size="10.00">Model</text>
</a>
</g>
</g>
<!-- Node2 -->
<g id="Node000002" class="node">
<title>Node2</title>
<g id="a_Node000002"><a xlink:href="classTestBenchModel.html#aa6e4ca2f6a9c047592a695c188294e50" target="_top" xlink:title=" ">
<polygon fill="white" stroke="#666666" points="348,-67.5 203,-67.5 203,-37.5 348,-37.5 348,-67.5"/>
<text text-anchor="start" x="211" y="-55.5" font-family="Helvetica,sans-Serif" font-size="10.00">TestBenchModel::onStates</text>
<text text-anchor="middle" x="275.5" y="-44.5" font-family="Helvetica,sans-Serif" font-size="10.00">ListRecieved</text>
</a>
</g>
</g>
<!-- Node1&#45;&gt;Node2 -->
<g id="edge1_Node000001_Node000002" class="edge">
<title>Node1&#45;&gt;Node2</title>
<g id="a_edge1_Node000001_Node000002"><a xlink:title=" ">
<path fill="none" stroke="#63b8ff" d="M152.23,-38.88C165.43,-40.35 179.23,-41.89 192.61,-43.38"/>
<polygon fill="#63b8ff" stroke="#63b8ff" points="192.41,-46.88 202.74,-44.51 193.18,-39.92 192.41,-46.88"/>
</a>
</g>
</g>
<!-- Node4 -->
<g id="Node000004" class="node">
<title>Node4</title>
<g id="a_Node000004"><a xlink:href="classUdpChannel.html#af3ab9278a84d7d0e1a3d2225637ed310" target="_top" xlink:title=" ">
<polygon fill="white" stroke="#666666" points="363,-19 188,-19 188,0 363,0 363,-19"/>
<text text-anchor="middle" x="275.5" y="-7" font-family="Helvetica,sans-Serif" font-size="10.00">UdpChannel::StatesListReceived</text>
</a>
</g>
</g>
<!-- Node1&#45;&gt;Node4 -->
<g id="edge3_Node000001_Node000004" class="edge">
<title>Node1&#45;&gt;Node4</title>
<g id="a_edge3_Node000001_Node000004"><a xlink:title=" ">
<path fill="none" stroke="#63b8ff" d="M152.23,-22.5C160.61,-21.61 169.24,-20.69 177.84,-19.78"/>
<polygon fill="#63b8ff" stroke="#63b8ff" points="178.34,-23.24 187.91,-18.71 177.6,-16.28 178.34,-23.24"/>
</a>
</g>
</g>
<!-- Node3 -->
<g id="Node000003" class="node">
<title>Node3</title>
<g id="a_Node000003"><a xlink:href="classTestBenchModel.html#afbee1c04744de5e49352a90f5f87f6f1" target="_top" xlink:title=" ">
<polygon fill="white" stroke="#666666" points="548,-67.5 399,-67.5 399,-37.5 548,-37.5 548,-67.5"/>
<text text-anchor="start" x="407" y="-55.5" font-family="Helvetica,sans-Serif" font-size="10.00">TestBenchModel::statesList</text>
<text text-anchor="middle" x="473.5" y="-44.5" font-family="Helvetica,sans-Serif" font-size="10.00">Changed</text>
</a>
</g>
</g>
<!-- Node2&#45;&gt;Node3 -->
<g id="edge2_Node000002_Node000003" class="edge">
<title>Node2&#45;&gt;Node3</title>
<g id="a_edge2_Node000002_Node000003"><a xlink:title=" ">
<path fill="none" stroke="#63b8ff" d="M348.09,-52.5C361.25,-52.5 375.1,-52.5 388.58,-52.5"/>
<polygon fill="#63b8ff" stroke="#63b8ff" points="388.8,-56 398.8,-52.5 388.8,-49 388.8,-56"/>
</a>
</g>
</g>
</g>
</svg>
