<?xml version="1.0" encoding="UTF-8" standalone="no"?>
<!DOCTYPE svg PUBLIC "-//W3C//DTD SVG 1.1//EN"
 "http://www.w3.org/Graphics/SVG/1.1/DTD/svg11.dtd">
<!-- Generated by graphviz version 2.43.0 (0)
 -->
<!-- Title: DebugDisplay::DebugDisplay Pages: 1 -->
<svg width="546pt" height="220pt"
 viewBox="0.00 0.00 546.00 220.00" xmlns="http://www.w3.org/2000/svg" xmlns:xlink="http://www.w3.org/1999/xlink">
<g id="graph0" class="graph" transform="scale(1 1) rotate(0) translate(4 216)">
<title>DebugDisplay::DebugDisplay</title>
<!-- Node1 -->
<g id="Node000001" class="node">
<title>Node1</title>
<g id="a_Node000001"><a xlink:title=" ">
<polygon fill="#999999" stroke="#666666" points="158,-163.5 0,-163.5 0,-144.5 158,-144.5 158,-163.5"/>
<text text-anchor="middle" x="79" y="-151.5" font-family="Helvetica,sans-Serif" font-size="10.00">DebugDisplay::DebugDisplay</text>
</a>
</g>
</g>
<!-- Node2 -->
<g id="Node000002" class="node">
<title>Node2</title>
<g id="a_Node000002"><a xlink:href="classDebugDisplayViewModel.html#a4e572b264fe45775a0fd35a7110db86e" target="_top" xlink:title=" ">
<polygon fill="white" stroke="#666666" points="339.5,-212 200.5,-212 200.5,-182 339.5,-182 339.5,-212"/>
<text text-anchor="start" x="208.5" y="-200" font-family="Helvetica,sans-Serif" font-size="10.00">DebugDisplayViewModel</text>
<text text-anchor="middle" x="270" y="-189" font-family="Helvetica,sans-Serif" font-size="10.00">::initialise</text>
</a>
</g>
</g>
<!-- Node1&#45;&gt;Node2 -->
<g id="edge1_Node000001_Node000002" class="edge">
<title>Node1&#45;&gt;Node2</title>
<g id="a_edge1_Node000001_Node000002"><a xlink:title=" ">
<path fill="none" stroke="#63b8ff" d="M121.95,-163.54C142.88,-168.31 168.85,-174.22 193.13,-179.74"/>
<polygon fill="#63b8ff" stroke="#63b8ff" points="192.51,-183.19 203.04,-181.99 194.07,-176.36 192.51,-183.19"/>
</a>
</g>
</g>
<!-- Node3 -->
<g id="Node000003" class="node">
<title>Node3</title>
<g id="a_Node000003"><a xlink:href="classDebugDisplayViewModel.html#ad272f1c0a025d856e9cc247e9313db04" target="_top" xlink:title=" ">
<polygon fill="white" stroke="#666666" points="538,-212 382,-212 382,-182 538,-182 538,-212"/>
<text text-anchor="start" x="390" y="-200" font-family="Helvetica,sans-Serif" font-size="10.00">DebugDisplayViewModel</text>
<text text-anchor="middle" x="460" y="-189" font-family="Helvetica,sans-Serif" font-size="10.00">::numberOfBindingsChanged</text>
</a>
</g>
</g>
<!-- Node1&#45;&gt;Node3 -->
<g id="edge3_Node000001_Node000003" class="edge">
<title>Node1&#45;&gt;Node3</title>
<g id="a_edge3_Node000001_Node000003"><a xlink:title=" ">
<path fill="none" stroke="#63b8ff" d="M158.28,-156.75C211.43,-159.31 283.19,-164.13 346,-173 358.98,-174.83 372.69,-177.29 385.92,-179.94"/>
<polygon fill="#63b8ff" stroke="#63b8ff" points="385.42,-183.41 395.92,-182 386.83,-176.56 385.42,-183.41"/>
</a>
</g>
</g>
<!-- Node4 -->
<g id="Node000004" class="node">
<title>Node4</title>
<g id="a_Node000004"><a xlink:href="classDebugDisplay.html#afb81b2c96bb6b80079f459d6fbefdd94" target="_top" xlink:title=" ">
<polygon fill="white" stroke="#666666" points="346,-116 194,-116 194,-86 346,-86 346,-116"/>
<text text-anchor="start" x="202" y="-104" font-family="Helvetica,sans-Serif" font-size="10.00">DebugDisplay::onNumberOf</text>
<text text-anchor="middle" x="270" y="-93" font-family="Helvetica,sans-Serif" font-size="10.00">BindingsChanged</text>
</a>
</g>
</g>
<!-- Node1&#45;&gt;Node4 -->
<g id="edge4_Node000001_Node000004" class="edge">
<title>Node1&#45;&gt;Node4</title>
<g id="a_edge4_Node000001_Node000004"><a xlink:title=" ">
<path fill="none" stroke="#63b8ff" d="M114.23,-144.4C139.66,-137.27 175.1,-127.33 205.65,-118.77"/>
<polygon fill="#63b8ff" stroke="#63b8ff" points="206.69,-122.11 215.37,-116.04 204.8,-115.37 206.69,-122.11"/>
</a>
</g>
</g>
<!-- Node2&#45;&gt;Node3 -->
<g id="edge2_Node000002_Node000003" class="edge">
<title>Node2&#45;&gt;Node3</title>
<g id="a_edge2_Node000002_Node000003"><a xlink:title=" ">
<path fill="none" stroke="#63b8ff" d="M339.67,-197C350.08,-197 360.94,-197 371.69,-197"/>
<polygon fill="#63b8ff" stroke="#63b8ff" points="371.94,-200.5 381.94,-197 371.94,-193.5 371.94,-200.5"/>
</a>
</g>
</g>
<!-- Node5 -->
<g id="Node000005" class="node">
<title>Node5</title>
<g id="a_Node000005"><a xlink:href="classDebugDisplayViewModel.html#a47ab7f0fe7168345fb520fabcec19715" target="_top" xlink:title=" ">
<polygon fill="white" stroke="#666666" points="529.5,-164 390.5,-164 390.5,-134 529.5,-134 529.5,-164"/>
<text text-anchor="start" x="398.5" y="-152" font-family="Helvetica,sans-Serif" font-size="10.00">DebugDisplayViewModel</text>
<text text-anchor="middle" x="460" y="-141" font-family="Helvetica,sans-Serif" font-size="10.00">::getBinding</text>
</a>
</g>
</g>
<!-- Node4&#45;&gt;Node5 -->
<g id="edge5_Node000004_Node000005" class="edge">
<title>Node4&#45;&gt;Node5</title>
<g id="a_edge5_Node000004_Node000005"><a xlink:title=" ">
<path fill="none" stroke="#63b8ff" d="M329.97,-116.06C349.13,-120.95 370.56,-126.42 390.36,-131.48"/>
<polygon fill="#63b8ff" stroke="#63b8ff" points="389.69,-134.91 400.24,-134 391.42,-128.13 389.69,-134.91"/>
</a>
</g>
</g>
<!-- Node6 -->
<g id="Node000006" class="node">
<title>Node6</title>
<g id="a_Node000006"><a xlink:href="classDebugDisplayViewModel.html#a6bf470644b579789a34668da89932dab" target="_top" xlink:title=" ">
<polygon fill="white" stroke="#666666" points="529.5,-116 390.5,-116 390.5,-86 529.5,-86 529.5,-116"/>
<text text-anchor="start" x="398.5" y="-104" font-family="Helvetica,sans-Serif" font-size="10.00">DebugDisplayViewModel</text>
<text text-anchor="middle" x="460" y="-93" font-family="Helvetica,sans-Serif" font-size="10.00">::numberOfBindings</text>
</a>
</g>
</g>
<!-- Node4&#45;&gt;Node6 -->
<g id="edge6_Node000004_Node000006" class="edge">
<title>Node4&#45;&gt;Node6</title>
<g id="a_edge6_Node000004_Node000006"><a xlink:title=" ">
<path fill="none" stroke="#63b8ff" d="M346.11,-101C357.31,-101 368.88,-101 380.15,-101"/>
<polygon fill="#63b8ff" stroke="#63b8ff" points="380.4,-104.5 390.4,-101 380.4,-97.5 380.4,-104.5"/>
</a>
</g>
</g>
<!-- Node7 -->
<g id="Node000007" class="node">
<title>Node7</title>
<g id="a_Node000007"><a xlink:href="classData.html#a54503e1b28ae588a4992ea8e271a8fcf" target="_top" xlink:title=" ">
<polygon fill="white" stroke="#666666" points="507.5,-67.5 412.5,-67.5 412.5,-48.5 507.5,-48.5 507.5,-67.5"/>
<text text-anchor="middle" x="460" y="-55.5" font-family="Helvetica,sans-Serif" font-size="10.00">Data::onRefresh</text>
</a>
</g>
</g>
<!-- Node4&#45;&gt;Node7 -->
<g id="edge7_Node000004_Node000007" class="edge">
<title>Node4&#45;&gt;Node7</title>
<g id="a_edge7_Node000004_Node000007"><a xlink:title=" ">
<path fill="none" stroke="#63b8ff" d="M336.75,-85.96C359.98,-80.65 385.75,-74.75 407.62,-69.75"/>
<polygon fill="#63b8ff" stroke="#63b8ff" points="408.4,-73.16 417.37,-67.52 406.84,-66.34 408.4,-73.16"/>
</a>
</g>
</g>
<!-- Node8 -->
<g id="Node000008" class="node">
<title>Node8</title>
<g id="a_Node000008"><a xlink:href="classDebugDisplayViewModel.html#a997e4bf3f31b3ebc687d3db9a22dc99c" target="_top" xlink:title=" ">
<polygon fill="white" stroke="#666666" points="529.5,-30 390.5,-30 390.5,0 529.5,0 529.5,-30"/>
<text text-anchor="start" x="398.5" y="-18" font-family="Helvetica,sans-Serif" font-size="10.00">DebugDisplayViewModel</text>
<text text-anchor="middle" x="460" y="-7" font-family="Helvetica,sans-Serif" font-size="10.00">::refreshDisplay</text>
</a>
</g>
</g>
<!-- Node4&#45;&gt;Node8 -->
<g id="edge8_Node000004_Node000008" class="edge">
<title>Node4&#45;&gt;Node8</title>
<g id="a_edge8_Node000004_Node000008"><a xlink:title=" ">
<path fill="none" stroke="#63b8ff" d="M294.52,-85.97C316.5,-72.38 350.56,-52.5 382,-39 386.43,-37.1 391.06,-35.27 395.76,-33.54"/>
<polygon fill="#63b8ff" stroke="#63b8ff" points="397.2,-36.74 405.46,-30.11 394.86,-30.14 397.2,-36.74"/>
</a>
</g>
</g>
</g>
</svg>
