<?xml version="1.0" encoding="UTF-8" standalone="no"?>
<!DOCTYPE svg PUBLIC "-//W3C//DTD SVG 1.1//EN"
 "http://www.w3.org/Graphics/SVG/1.1/DTD/svg11.dtd">
<!-- Generated by graphviz version 2.43.0 (0)
 -->
<!-- Title: PlotViewModel::initialise Pages: 1 -->
<svg width="364pt" height="172pt"
 viewBox="0.00 0.00 364.00 172.00" xmlns="http://www.w3.org/2000/svg" xmlns:xlink="http://www.w3.org/1999/xlink">

<svg id="main" version="1.1" xmlns="http://www.w3.org/2000/svg" xmlns:xlink="http://www.w3.org/1999/xlink" xml:space="preserve" onload="init(evt)">
<style type="text/css"><![CDATA[
.node, .edge {opacity: 0.7;}
.node.selected, .edge.selected {opacity: 1;}
.edge:hover path { stroke: red; }
.edge:hover polygon { stroke: red; fill: red; }
]]></style>
<script type="application/ecmascript" xlink:href="svg.min.js"/>
<svg id="graph" class="graph">
<g id="graph0" class="graph" transform="scale(1 1) rotate(0) translate(4 168)">
<title>PlotViewModel::initialise</title>
<!-- Node1 -->
<g id="Node000001" class="node">
<title>Node1</title>
<g id="a_Node000001"><a xlink:title=" ">
<polygon fill="#999999" stroke="#666666" points="137,-88.5 0,-88.5 0,-69.5 137,-69.5 137,-88.5"/>
<text text-anchor="middle" x="68.5" y="-76.5" font-family="Helvetica,sans-Serif" font-size="10.00">PlotViewModel::initialise</text>
</a>
</g>
</g>
<!-- Node2 -->
<g id="Node000002" class="node">
<title>Node2</title>
<g id="a_Node000002"><a xlink:href="classPlotViewModel.html#aa31b895b554130ab4ab47cb7b83806c0" target="_top" xlink:title=" ">
<polygon fill="white" stroke="#666666" points="356,-164 173,-164 173,-134 356,-134 356,-164"/>
<text text-anchor="start" x="181" y="-152" font-family="Helvetica,sans-Serif" font-size="10.00">PlotViewModel::curvesParameters</text>
<text text-anchor="middle" x="264.5" y="-141" font-family="Helvetica,sans-Serif" font-size="10.00">Changed</text>
</a>
</g>
</g>
<!-- Node1&#45;&gt;Node2 -->
<g id="edge1_Node000001_Node000002" class="edge">
<title>Node1&#45;&gt;Node2</title>
<g id="a_edge1_Node000001_Node000002"><a xlink:title=" ">
<path fill="none" stroke="#63b8ff" d="M88.58,-88.58C109.08,-98.61 142.77,-114.35 173,-125 178.94,-127.09 185.15,-129.1 191.41,-131"/>
<polygon fill="#63b8ff" stroke="#63b8ff" points="190.69,-134.44 201.27,-133.9 192.67,-127.72 190.69,-134.44"/>
</a>
</g>
</g>
<!-- Node3 -->
<g id="Node000003" class="node">
<title>Node3</title>
<g id="a_Node000003"><a xlink:href="classPlotViewModel.html#a944dc27c4a8ce9dcd40ac5d4f804078b" target="_top" xlink:title=" ">
<polygon fill="white" stroke="#666666" points="345.5,-116 183.5,-116 183.5,-86 345.5,-86 345.5,-116"/>
<text text-anchor="start" x="191.5" y="-104" font-family="Helvetica,sans-Serif" font-size="10.00">PlotViewModel::SelectedTime</text>
<text text-anchor="middle" x="264.5" y="-93" font-family="Helvetica,sans-Serif" font-size="10.00">RangeChanged</text>
</a>
</g>
</g>
<!-- Node1&#45;&gt;Node3 -->
<g id="edge2_Node000001_Node000003" class="edge">
<title>Node1&#45;&gt;Node3</title>
<g id="a_edge2_Node000001_Node000003"><a xlink:title=" ">
<path fill="none" stroke="#63b8ff" d="M137.08,-86.66C148.78,-87.99 161.12,-89.39 173.31,-90.77"/>
<polygon fill="#63b8ff" stroke="#63b8ff" points="173.17,-94.28 183.5,-91.93 173.96,-87.32 173.17,-94.28"/>
</a>
</g>
</g>
<!-- Node4 -->
<g id="Node000004" class="node">
<title>Node4</title>
<g id="a_Node000004"><a xlink:href="classPlotViewModel.html#a0371c868dc4ec05453b57559814f0446" target="_top" xlink:title=" ">
<polygon fill="white" stroke="#666666" points="343.5,-67.5 185.5,-67.5 185.5,-48.5 343.5,-48.5 343.5,-67.5"/>
<text text-anchor="middle" x="264.5" y="-55.5" font-family="Helvetica,sans-Serif" font-size="10.00">PlotViewModel::titleChanged</text>
</a>
</g>
</g>
<!-- Node1&#45;&gt;Node4 -->
<g id="edge3_Node000001_Node000004" class="edge">
<title>Node1&#45;&gt;Node4</title>
<g id="a_edge3_Node000001_Node000004"><a xlink:title=" ">
<path fill="none" stroke="#63b8ff" d="M137.08,-71.68C149.33,-70.36 162.28,-68.96 175.02,-67.58"/>
<polygon fill="#63b8ff" stroke="#63b8ff" points="175.62,-71.03 185.19,-66.48 174.87,-64.07 175.62,-71.03"/>
</a>
</g>
</g>
<!-- Node5 -->
<g id="Node000005" class="node">
<title>Node5</title>
<g id="a_Node000005"><a xlink:href="classPlotViewModel.html#a826d6441b253e1cc9078821daf10a70d" target="_top" xlink:title=" ">
<polygon fill="white" stroke="#666666" points="345,-30 184,-30 184,0 345,0 345,-30"/>
<text text-anchor="start" x="192" y="-18" font-family="Helvetica,sans-Serif" font-size="10.00">PlotViewModel::visibleCurves</text>
<text text-anchor="middle" x="264.5" y="-7" font-family="Helvetica,sans-Serif" font-size="10.00">Changed</text>
</a>
</g>
</g>
<!-- Node1&#45;&gt;Node5 -->
<g id="edge4_Node000001_Node000005" class="edge">
<title>Node1&#45;&gt;Node5</title>
<g id="a_edge4_Node000001_Node000005"><a xlink:title=" ">
<path fill="none" stroke="#63b8ff" d="M93.13,-69.4C113.96,-61.09 145.25,-49.04 173,-40 180.41,-37.59 188.21,-35.2 195.99,-32.92"/>
<polygon fill="#63b8ff" stroke="#63b8ff" points="197.17,-36.22 205.82,-30.09 195.24,-29.5 197.17,-36.22"/>
</a>
</g>
</g>
</g>
</svg>
</svg>

<style type='text/css'>
<![CDATA[
[data-mouse-over-selected='false'] { opacity: 0.7; }
[data-mouse-over-selected='true']  { opacity: 1.0; }
]]>
</style>
<script type="application/ecmascript"><![CDATA[
document.addEventListener('DOMContentLoaded', (event) => {
  highlightEdges();
  highlightAdjacentNodes();
});
]]></script>
</svg>
