<?xml version="1.0" encoding="UTF-8" standalone="no"?>
<!DOCTYPE svg PUBLIC "-//W3C//DTD SVG 1.1//EN"
 "http://www.w3.org/Graphics/SVG/1.1/DTD/svg11.dtd">
<!-- Generated by graphviz version 2.43.0 (0)
 -->
<!-- Title: AppViewModel::AppViewModel Pages: 1 -->
<svg width="380pt" height="101pt"
 viewBox="0.00 0.00 380.00 101.00" xmlns="http://www.w3.org/2000/svg" xmlns:xlink="http://www.w3.org/1999/xlink">
<g id="graph0" class="graph" transform="scale(1 1) rotate(0) translate(4 97)">
<title>AppViewModel::AppViewModel</title>
<!-- Node1 -->
<g id="Node000001" class="node">
<title>Node1</title>
<g id="a_Node000001"><a xlink:title=" ">
<polygon fill="#999999" stroke="#666666" points="168,-56 0,-56 0,-37 168,-37 168,-56"/>
<text text-anchor="middle" x="84" y="-44" font-family="Helvetica,sans-Serif" font-size="10.00">AppViewModel::AppViewModel</text>
</a>
</g>
</g>
<!-- Node2 -->
<g id="Node000002" class="node">
<title>Node2</title>
<g id="a_Node000002"><a xlink:href="classAppModels.html#a2d0944cd53cdeb58a13e0b66e3b10bdf" target="_top" xlink:title=" ">
<polygon fill="white" stroke="#666666" points="341.5,-93 234.5,-93 234.5,-74 341.5,-74 341.5,-93"/>
<text text-anchor="middle" x="288" y="-81" font-family="Helvetica,sans-Serif" font-size="10.00">AppModels::create</text>
</a>
</g>
</g>
<!-- Node1&#45;&gt;Node2 -->
<g id="edge1_Node000001_Node000002" class="edge">
<title>Node1&#45;&gt;Node2</title>
<g id="a_edge1_Node000001_Node000002"><a xlink:title=" ">
<path fill="none" stroke="#63b8ff" d="M137.02,-56.03C163.78,-60.93 196.58,-66.94 224.69,-72.09"/>
<polygon fill="#63b8ff" stroke="#63b8ff" points="224.34,-75.58 234.81,-73.94 225.6,-68.7 224.34,-75.58"/>
</a>
</g>
</g>
<!-- Node3 -->
<g id="Node000003" class="node">
<title>Node3</title>
<g id="a_Node000003"><a xlink:href="classAppServices.html#a5e4c7f374537c081ee46a028b19d4456" target="_top" xlink:title=" ">
<polygon fill="white" stroke="#666666" points="344.5,-56 231.5,-56 231.5,-37 344.5,-37 344.5,-56"/>
<text text-anchor="middle" x="288" y="-44" font-family="Helvetica,sans-Serif" font-size="10.00">AppServices::create</text>
</a>
</g>
</g>
<!-- Node1&#45;&gt;Node3 -->
<g id="edge2_Node000001_Node000003" class="edge">
<title>Node1&#45;&gt;Node3</title>
<g id="a_edge2_Node000001_Node000003"><a xlink:title=" ">
<path fill="none" stroke="#63b8ff" d="M168.04,-46.5C185.7,-46.5 204.12,-46.5 221.04,-46.5"/>
<polygon fill="#63b8ff" stroke="#63b8ff" points="221.36,-50 231.36,-46.5 221.36,-43 221.36,-50"/>
</a>
</g>
</g>
<!-- Node4 -->
<g id="Node000004" class="node">
<title>Node4</title>
<g id="a_Node000004"><a xlink:href="classAppViewModel.html#ad41487445a2eca2c94c868ee88a5d105" target="_top" xlink:title=" ">
<polygon fill="white" stroke="#666666" points="372,-19 204,-19 204,0 372,0 372,-19"/>
<text text-anchor="middle" x="288" y="-7" font-family="Helvetica,sans-Serif" font-size="10.00">AppViewModel::registerFactory</text>
</a>
</g>
</g>
<!-- Node1&#45;&gt;Node4 -->
<g id="edge3_Node000001_Node000004" class="edge">
<title>Node1&#45;&gt;Node4</title>
<g id="a_edge3_Node000001_Node000004"><a xlink:title=" ">
<path fill="none" stroke="#63b8ff" d="M137.02,-36.97C163.78,-32.07 196.58,-26.06 224.69,-20.91"/>
<polygon fill="#63b8ff" stroke="#63b8ff" points="225.6,-24.3 234.81,-19.06 224.34,-17.42 225.6,-24.3"/>
</a>
</g>
</g>
</g>
</svg>
