<?xml version="1.0" encoding="UTF-8" standalone="no"?>
<!DOCTYPE svg PUBLIC "-//W3C//DTD SVG 1.1//EN"
 "http://www.w3.org/Graphics/SVG/1.1/DTD/svg11.dtd">
<!-- Generated by graphviz version 2.43.0 (0)
 -->
<!-- Title: InitialiseValveButtonViewModel Pages: 1 -->
<svg width="573pt" height="1292pt"
 viewBox="0.00 0.00 572.50 1292.00" xmlns="http://www.w3.org/2000/svg" xmlns:xlink="http://www.w3.org/1999/xlink">
<g id="graph0" class="graph" transform="scale(1 1) rotate(0) translate(4 1288)">
<title>InitialiseValveButtonViewModel</title>
<!-- Node1 -->
<g id="Node000001" class="node">
<title>Node1</title>
<g id="a_Node000001"><a xlink:title=" ">
<polygon fill="#999999" stroke="transparent" points="147,-86 0,-86 0,0 147,0 147,-86"/>
<text text-anchor="start" x="11" y="-74" font-family="Helvetica,sans-Serif" font-size="10.00">InitialiseValveButtonView</text>
<text text-anchor="start" x="58.5" y="-63" font-family="Helvetica,sans-Serif" font-size="10.00">Model</text>
<text text-anchor="start" x="72" y="-48" font-family="Helvetica,sans-Serif" font-size="10.00"> </text>
<text text-anchor="start" x="4.5" y="-33" font-family="Helvetica,sans-Serif" font-size="10.00">+</text>
<text text-anchor="start" x="17.5" y="-33" font-family="Helvetica,sans-Serif" font-size="10.00">InitialiseValveButtonView</text>
<text text-anchor="start" x="17.5" y="-22" font-family="Helvetica,sans-Serif" font-size="10.00">Model()</text>
<text text-anchor="start" x="4.5" y="-7" font-family="Helvetica,sans-Serif" font-size="10.00">+</text>
<text text-anchor="start" x="17.5" y="-7" font-family="Helvetica,sans-Serif" font-size="10.00">initialiseValve()</text>
<polygon fill="#666666" stroke="#666666" points="0.5,-58 0.5,-58 147.5,-58 147.5,-58 0.5,-58"/>
<polygon fill="#666666" stroke="#666666" points="0.5,-43 0.5,-43 147.5,-43 147.5,-43 0.5,-43"/>
<polygon fill="none" stroke="#666666" points="0,0 0,-86 147,-86 147,0 0,0"/>
</a>
</g>
</g>
<!-- Node2 -->
<g id="Node000002" class="node">
<title>Node2</title>
<g id="a_Node000002"><a xlink:title=" ">
<polygon fill="white" stroke="transparent" points="163.5,-1284 113.5,-1284 113.5,-1235 163.5,-1235 163.5,-1284"/>
<text text-anchor="start" x="118.5" y="-1271.5" font-family="Helvetica,sans-Serif" font-size="10.00">QObject</text>
<text text-anchor="start" x="136.5" y="-1256.5" font-family="Helvetica,sans-Serif" font-size="10.00"> </text>
<text text-anchor="start" x="136.5" y="-1241.5" font-family="Helvetica,sans-Serif" font-size="10.00"> </text>
<polygon fill="#666666" stroke="#666666" points="113.5,-1266.5 113.5,-1266.5 163.5,-1266.5 163.5,-1266.5 113.5,-1266.5"/>
<polygon fill="#666666" stroke="#666666" points="113.5,-1251.5 113.5,-1251.5 163.5,-1251.5 163.5,-1251.5 113.5,-1251.5"/>
<polygon fill="none" stroke="#666666" points="113.5,-1235 113.5,-1284 163.5,-1284 163.5,-1235 113.5,-1235"/>
</a>
</g>
</g>
<!-- Node2&#45;&gt;Node1 -->
<g id="edge1_Node000001_Node000002" class="edge">
<title>Node2&#45;&gt;Node1</title>
<g id="a_edge1_Node000001_Node000002"><a xlink:title=" ">
<path fill="none" stroke="#63b8ff" d="M105.86,-1232.49C83.36,-1211.45 57.5,-1179.62 57.5,-1144.5 57.5,-1144.5 57.5,-1144.5 57.5,-299 57.5,-224.04 64.47,-136.92 69.21,-86.36"/>
<polygon fill="none" stroke="#63b8ff" points="103.54,-1235.12 113.32,-1239.2 108.22,-1229.91 103.54,-1235.12"/>
</a>
</g>
</g>
<!-- Node3 -->
<g id="Node000003" class="node">
<title>Node3</title>
<g id="a_Node000003"><a xlink:href="classUdpChannel.html" target="_top" xlink:title="UDP communication channel between the microcontroller and the HMI.">
<polygon fill="white" stroke="transparent" points="342,-467 207,-467 207,-133 342,-133 342,-467"/>
<text text-anchor="start" x="245" y="-455" font-family="Helvetica,sans-Serif" font-size="10.00">UdpChannel</text>
<text text-anchor="start" x="214" y="-440" font-family="Helvetica,sans-Serif" font-size="10.00">&#45;</text>
<text text-anchor="start" x="224.5" y="-440" font-family="Helvetica,sans-Serif" font-size="10.00">m_udpWorkerThread</text>
<text text-anchor="start" x="214" y="-425" font-family="Helvetica,sans-Serif" font-size="10.00">&#45;</text>
<text text-anchor="start" x="224.5" y="-425" font-family="Helvetica,sans-Serif" font-size="10.00">m_udpSocket</text>
<text text-anchor="start" x="214" y="-410" font-family="Helvetica,sans-Serif" font-size="10.00">&#45;</text>
<text text-anchor="start" x="224.5" y="-410" font-family="Helvetica,sans-Serif" font-size="10.00">m_remoteAddr</text>
<text text-anchor="start" x="214" y="-395" font-family="Helvetica,sans-Serif" font-size="10.00">&#45;</text>
<text text-anchor="start" x="224.5" y="-395" font-family="Helvetica,sans-Serif" font-size="10.00">m_remotePort</text>
<text text-anchor="start" x="214" y="-380" font-family="Helvetica,sans-Serif" font-size="10.00">&#45;</text>
<text text-anchor="start" x="224.5" y="-380" font-family="Helvetica,sans-Serif" font-size="10.00">m_localAddr</text>
<text text-anchor="start" x="214" y="-365" font-family="Helvetica,sans-Serif" font-size="10.00">&#45;</text>
<text text-anchor="start" x="224.5" y="-365" font-family="Helvetica,sans-Serif" font-size="10.00">m_localPort</text>
<text text-anchor="start" x="214" y="-350" font-family="Helvetica,sans-Serif" font-size="10.00">&#45;</text>
<text text-anchor="start" x="224.5" y="-350" font-family="Helvetica,sans-Serif" font-size="10.00">m_lastRefresh</text>
<text text-anchor="start" x="214" y="-335" font-family="Helvetica,sans-Serif" font-size="10.00">&#45;</text>
<text text-anchor="start" x="224.5" y="-335" font-family="Helvetica,sans-Serif" font-size="10.00">m_periodOfRefresh</text>
<text text-anchor="start" x="214" y="-320" font-family="Helvetica,sans-Serif" font-size="10.00">&#45;</text>
<text text-anchor="start" x="224.5" y="-320" font-family="Helvetica,sans-Serif" font-size="10.00">m_running</text>
<text text-anchor="start" x="211.5" y="-305" font-family="Helvetica,sans-Serif" font-size="10.00">+</text>
<text text-anchor="start" x="224.5" y="-305" font-family="Helvetica,sans-Serif" font-size="10.00">UdpChannel()</text>
<text text-anchor="start" x="211.5" y="-290" font-family="Helvetica,sans-Serif" font-size="10.00">+</text>
<text text-anchor="start" x="224.5" y="-290" font-family="Helvetica,sans-Serif" font-size="10.00">~UdpChannel()</text>
<text text-anchor="start" x="211.5" y="-275" font-family="Helvetica,sans-Serif" font-size="10.00">+</text>
<text text-anchor="start" x="224.5" y="-275" font-family="Helvetica,sans-Serif" font-size="10.00">startEndpoint()</text>
<text text-anchor="start" x="211.5" y="-260" font-family="Helvetica,sans-Serif" font-size="10.00">+</text>
<text text-anchor="start" x="224.5" y="-260" font-family="Helvetica,sans-Serif" font-size="10.00">stopEndpoint()</text>
<text text-anchor="start" x="211.5" y="-245" font-family="Helvetica,sans-Serif" font-size="10.00">+</text>
<text text-anchor="start" x="224.5" y="-245" font-family="Helvetica,sans-Serif" font-size="10.00">sendData()</text>
<text text-anchor="start" x="211.5" y="-230" font-family="Helvetica,sans-Serif" font-size="10.00">+</text>
<text text-anchor="start" x="224.5" y="-230" font-family="Helvetica,sans-Serif" font-size="10.00">running()</text>
<text text-anchor="start" x="211.5" y="-215" font-family="Helvetica,sans-Serif" font-size="10.00">+</text>
<text text-anchor="start" x="224.5" y="-215" font-family="Helvetica,sans-Serif" font-size="10.00">remoteAddr()</text>
<text text-anchor="start" x="211.5" y="-200" font-family="Helvetica,sans-Serif" font-size="10.00">+</text>
<text text-anchor="start" x="224.5" y="-200" font-family="Helvetica,sans-Serif" font-size="10.00">remotePort()</text>
<text text-anchor="start" x="211.5" y="-185" font-family="Helvetica,sans-Serif" font-size="10.00">+</text>
<text text-anchor="start" x="224.5" y="-185" font-family="Helvetica,sans-Serif" font-size="10.00">localAddr()</text>
<text text-anchor="start" x="211.5" y="-170" font-family="Helvetica,sans-Serif" font-size="10.00">+</text>
<text text-anchor="start" x="224.5" y="-170" font-family="Helvetica,sans-Serif" font-size="10.00">localPort()</text>
<text text-anchor="start" x="224.5" y="-155" font-family="Helvetica,sans-Serif" font-size="10.00">and 6 more...</text>
<text text-anchor="start" x="211.5" y="-140" font-family="Helvetica,sans-Serif" font-size="10.00">+</text>
<text text-anchor="start" x="224.5" y="-140" font-family="Helvetica,sans-Serif" font-size="10.00">onDatagramReceived()</text>
<polygon fill="#666666" stroke="#666666" points="207.5,-450 207.5,-450 342.5,-450 342.5,-450 207.5,-450"/>
<polygon fill="#666666" stroke="#666666" points="207.5,-315 207.5,-315 222.5,-315 222.5,-315 207.5,-315"/>
<polygon fill="#666666" stroke="#666666" points="222.5,-315 222.5,-315 342.5,-315 342.5,-315 222.5,-315"/>
<polygon fill="none" stroke="#666666" points="207,-133 207,-467 342,-467 342,-133 207,-133"/>
</a>
</g>
</g>
<!-- Node2&#45;&gt;Node3 -->
<g id="edge3_Node000003_Node000002" class="edge">
<title>Node2&#45;&gt;Node3</title>
<g id="a_edge3_Node000003_Node000002"><a xlink:title=" ">
<path fill="none" stroke="#63b8ff" d="M118.92,-1225.62C107.57,-1203.48 95.5,-1173.19 95.5,-1144.5 95.5,-1144.5 95.5,-1144.5 95.5,-575 95.5,-490.34 156.14,-411.41 206.83,-360.22"/>
<polygon fill="none" stroke="#63b8ff" points="115.91,-1227.4 123.7,-1234.58 122.08,-1224.11 115.91,-1227.4"/>
</a>
</g>
</g>
<!-- Node4 -->
<g id="Node000004" class="node">
<title>Node4</title>
<g id="a_Node000004"><a xlink:href="classUdpWorker.html" target="_top" xlink:title="UDP socket worker running on a dedicated thread.">
<polygon fill="white" stroke="transparent" points="283.5,-638 123.5,-638 123.5,-514 283.5,-514 283.5,-638"/>
<text text-anchor="start" x="176.5" y="-626" font-family="Helvetica,sans-Serif" font-size="10.00">UdpWorker</text>
<text text-anchor="start" x="130" y="-611" font-family="Helvetica,sans-Serif" font-size="10.00">&#45;</text>
<text text-anchor="start" x="140.5" y="-611" font-family="Helvetica,sans-Serif" font-size="10.00">socket</text>
<text text-anchor="start" x="130" y="-596" font-family="Helvetica,sans-Serif" font-size="10.00">&#45;</text>
<text text-anchor="start" x="140.5" y="-596" font-family="Helvetica,sans-Serif" font-size="10.00">m_lastFrameSend</text>
<text text-anchor="start" x="127.5" y="-581" font-family="Helvetica,sans-Serif" font-size="10.00">+</text>
<text text-anchor="start" x="140.5" y="-581" font-family="Helvetica,sans-Serif" font-size="10.00">UdpWorker()</text>
<text text-anchor="start" x="127.5" y="-566" font-family="Helvetica,sans-Serif" font-size="10.00">+</text>
<text text-anchor="start" x="140.5" y="-566" font-family="Helvetica,sans-Serif" font-size="10.00">start()</text>
<text text-anchor="start" x="127.5" y="-551" font-family="Helvetica,sans-Serif" font-size="10.00">+</text>
<text text-anchor="start" x="140.5" y="-551" font-family="Helvetica,sans-Serif" font-size="10.00">stop()</text>
<text text-anchor="start" x="130" y="-536" font-family="Helvetica,sans-Serif" font-size="10.00">&#45;</text>
<text text-anchor="start" x="140.5" y="-536" font-family="Helvetica,sans-Serif" font-size="10.00">decimate()</text>
<text text-anchor="start" x="130" y="-521" font-family="Helvetica,sans-Serif" font-size="10.00">&#45;</text>
<text text-anchor="start" x="140.5" y="-521" font-family="Helvetica,sans-Serif" font-size="10.00">processPendingDatagrams()</text>
<polygon fill="#666666" stroke="#666666" points="123.5,-621 123.5,-621 283.5,-621 283.5,-621 123.5,-621"/>
<polygon fill="#666666" stroke="#666666" points="123.5,-591 123.5,-591 138.5,-591 138.5,-591 123.5,-591"/>
<polygon fill="#666666" stroke="#666666" points="138.5,-591 138.5,-591 283.5,-591 283.5,-591 138.5,-591"/>
<polygon fill="none" stroke="#666666" points="123.5,-514 123.5,-638 283.5,-638 283.5,-514 123.5,-514"/>
</a>
</g>
</g>
<!-- Node2&#45;&gt;Node4 -->
<g id="edge5_Node000004_Node000002" class="edge">
<title>Node2&#45;&gt;Node4</title>
<g id="a_edge5_Node000004_Node000002"><a xlink:title=" ">
<path fill="none" stroke="#63b8ff" d="M138.82,-1224.83C140.07,-1136.02 146.34,-888.33 177.5,-685 179.85,-669.65 183.3,-653.28 186.91,-638.04"/>
<polygon fill="none" stroke="#63b8ff" points="135.32,-1224.81 138.69,-1234.85 142.32,-1224.9 135.32,-1224.81"/>
</a>
</g>
</g>
<!-- Node6 -->
<g id="Node000006" class="node">
<title>Node6</title>
<g id="a_Node000006"><a xlink:href="classLogger.html" target="_top" xlink:title=" ">
<polygon fill="white" stroke="transparent" points="295.5,-1198 227.5,-1198 227.5,-1089 295.5,-1089 295.5,-1198"/>
<text text-anchor="start" x="244.5" y="-1185.5" font-family="Helvetica,sans-Serif" font-size="10.00">Logger</text>
<text text-anchor="start" x="259.5" y="-1170.5" font-family="Helvetica,sans-Serif" font-size="10.00"> </text>
<text text-anchor="start" x="231.5" y="-1155.5" font-family="Helvetica,sans-Serif" font-size="10.00">+</text>
<text text-anchor="start" x="244.5" y="-1155.5" font-family="Helvetica,sans-Serif" font-size="10.00">Logger()</text>
<text text-anchor="start" x="231.5" y="-1140.5" font-family="Helvetica,sans-Serif" font-size="10.00">+</text>
<text text-anchor="start" x="244.5" y="-1140.5" font-family="Helvetica,sans-Serif" font-size="10.00">log()</text>
<text text-anchor="start" x="231.5" y="-1125.5" font-family="Helvetica,sans-Serif" font-size="10.00">+</text>
<text text-anchor="start" x="244.5" y="-1125.5" font-family="Helvetica,sans-Serif" font-size="10.00">debug()</text>
<text text-anchor="start" x="231.5" y="-1110.5" font-family="Helvetica,sans-Serif" font-size="10.00">+</text>
<text text-anchor="start" x="244.5" y="-1110.5" font-family="Helvetica,sans-Serif" font-size="10.00">error()</text>
<text text-anchor="start" x="231.5" y="-1095.5" font-family="Helvetica,sans-Serif" font-size="10.00">+</text>
<text text-anchor="start" x="244.5" y="-1095.5" font-family="Helvetica,sans-Serif" font-size="10.00">warning()</text>
<polygon fill="#666666" stroke="#666666" points="227.5,-1180.5 227.5,-1180.5 295.5,-1180.5 295.5,-1180.5 227.5,-1180.5"/>
<polygon fill="#666666" stroke="#666666" points="227.5,-1165.5 227.5,-1165.5 295.5,-1165.5 295.5,-1165.5 227.5,-1165.5"/>
<polygon fill="none" stroke="#666666" points="227.5,-1089 227.5,-1198 295.5,-1198 295.5,-1089 227.5,-1089"/>
</a>
</g>
</g>
<!-- Node2&#45;&gt;Node6 -->
<g id="edge8_Node000006_Node000002" class="edge">
<title>Node2&#45;&gt;Node6</title>
<g id="a_edge8_Node000006_Node000002"><a xlink:title=" ">
<path fill="none" stroke="#63b8ff" d="M171.36,-1228.05C188.7,-1211.97 209.97,-1192.26 227.48,-1176.03"/>
<polygon fill="none" stroke="#63b8ff" points="168.64,-1225.79 163.69,-1235.16 173.4,-1230.92 168.64,-1225.79"/>
</a>
</g>
</g>
<!-- Node7 -->
<g id="Node000007" class="node">
<title>Node7</title>
<g id="a_Node000007"><a xlink:href="classFileSystem.html" target="_top" xlink:title=" ">
<polygon fill="white" stroke="transparent" points="534.5,-1071 442.5,-1071 442.5,-992 534.5,-992 534.5,-1071"/>
<text text-anchor="start" x="461" y="-1058.5" font-family="Helvetica,sans-Serif" font-size="10.00">FileSystem</text>
<text text-anchor="start" x="449" y="-1043.5" font-family="Helvetica,sans-Serif" font-size="10.00">&#45;</text>
<text text-anchor="start" x="459.5" y="-1043.5" font-family="Helvetica,sans-Serif" font-size="10.00">m_pathList</text>
<text text-anchor="start" x="446.5" y="-1028.5" font-family="Helvetica,sans-Serif" font-size="10.00">+</text>
<text text-anchor="start" x="459.5" y="-1028.5" font-family="Helvetica,sans-Serif" font-size="10.00">FileSystem()</text>
<text text-anchor="start" x="446.5" y="-1013.5" font-family="Helvetica,sans-Serif" font-size="10.00">+</text>
<text text-anchor="start" x="459.5" y="-1013.5" font-family="Helvetica,sans-Serif" font-size="10.00">addDirectory()</text>
<text text-anchor="start" x="446.5" y="-998.5" font-family="Helvetica,sans-Serif" font-size="10.00">+</text>
<text text-anchor="start" x="459.5" y="-998.5" font-family="Helvetica,sans-Serif" font-size="10.00">getDirectory()</text>
<polygon fill="#666666" stroke="#666666" points="442.5,-1053.5 442.5,-1053.5 534.5,-1053.5 534.5,-1053.5 442.5,-1053.5"/>
<polygon fill="#666666" stroke="#666666" points="442.5,-1038.5 442.5,-1038.5 457.5,-1038.5 457.5,-1038.5 442.5,-1038.5"/>
<polygon fill="#666666" stroke="#666666" points="457.5,-1038.5 457.5,-1038.5 534.5,-1038.5 534.5,-1038.5 457.5,-1038.5"/>
<polygon fill="none" stroke="#666666" points="442.5,-992 442.5,-1071 534.5,-1071 534.5,-992 442.5,-992"/>
</a>
</g>
</g>
<!-- Node2&#45;&gt;Node7 -->
<g id="edge11_Node000007_Node000002" class="edge">
<title>Node2&#45;&gt;Node7</title>
<g id="a_edge11_Node000007_Node000002"><a xlink:title=" ">
<path fill="none" stroke="#63b8ff" d="M173.45,-1249.97C208.29,-1240.53 262.5,-1223.23 304.5,-1198 362.69,-1163.04 419.14,-1108.19 453.83,-1071.32"/>
<polygon fill="none" stroke="#63b8ff" points="172.51,-1246.6 163.73,-1252.54 174.29,-1253.37 172.51,-1246.6"/>
</a>
</g>
</g>
<!-- Node3&#45;&gt;Node1 -->
<g id="edge2_Node000001_Node000003" class="edge">
<title>Node3&#45;&gt;Node1</title>
<g id="a_edge2_Node000001_Node000003"><a xlink:title=" ">
<path fill="none" stroke="#63b8ff" d="M206.73,-213.02C176.03,-174.07 140.75,-129.31 114.21,-95.64"/>
<polygon fill="none" stroke="#63b8ff" points="114.05,-95.44 107.19,-93.2 106.62,-86.01 113.47,-88.25 114.05,-95.44"/>
</a>
</g>
<text text-anchor="middle" x="167.5" y="-107" font-family="Helvetica,sans-Serif" font-size="10.00" fill="grey"> &#45;m_udpChannel</text>
</g>
<!-- Node4&#45;&gt;Node3 -->
<g id="edge4_Node000003_Node000004" class="edge">
<title>Node4&#45;&gt;Node3</title>
<g id="a_edge4_Node000003_Node000004"><a xlink:title=" ">
<path fill="none" stroke="#63b8ff" d="M219.35,-513.85C222.15,-503.03 225.19,-491.3 228.36,-479.08"/>
<polygon fill="none" stroke="#63b8ff" points="228.42,-478.85 226.05,-472.03 231.43,-467.23 233.79,-474.04 228.42,-478.85"/>
</a>
</g>
<text text-anchor="middle" x="263.5" y="-488" font-family="Helvetica,sans-Serif" font-size="10.00" fill="grey"> &#45;m_udpWorker</text>
</g>
<!-- Node5 -->
<g id="Node000005" class="node">
<title>Node5</title>
<g id="a_Node000005"><a xlink:href="classUdpLogger.html" target="_top" xlink:title="High&#45;frequency binary logger for UDP telemetry frames.">
<polygon fill="white" stroke="transparent" points="389,-974 256,-974 256,-685 389,-685 389,-974"/>
<text text-anchor="start" x="296.5" y="-961.5" font-family="Helvetica,sans-Serif" font-size="10.00">UdpLogger</text>
<text text-anchor="start" x="263" y="-946.5" font-family="Helvetica,sans-Serif" font-size="10.00">&#45;</text>
<text text-anchor="start" x="273.5" y="-946.5" font-family="Helvetica,sans-Serif" font-size="10.00">m_writer</text>
<text text-anchor="start" x="263" y="-931.5" font-family="Helvetica,sans-Serif" font-size="10.00">&#45;</text>
<text text-anchor="start" x="273.5" y="-931.5" font-family="Helvetica,sans-Serif" font-size="10.00">m_ringBuffer</text>
<text text-anchor="start" x="263" y="-916.5" font-family="Helvetica,sans-Serif" font-size="10.00">&#45;</text>
<text text-anchor="start" x="273.5" y="-916.5" font-family="Helvetica,sans-Serif" font-size="10.00">m_running</text>
<text text-anchor="start" x="263" y="-901.5" font-family="Helvetica,sans-Serif" font-size="10.00">&#45;</text>
<text text-anchor="start" x="273.5" y="-901.5" font-family="Helvetica,sans-Serif" font-size="10.00">m_writerThread</text>
<text text-anchor="start" x="263" y="-886.5" font-family="Helvetica,sans-Serif" font-size="10.00">&#45;</text>
<text text-anchor="start" x="273.5" y="-886.5" font-family="Helvetica,sans-Serif" font-size="10.00">m_logDirPath</text>
<text text-anchor="start" x="263" y="-871.5" font-family="Helvetica,sans-Serif" font-size="10.00">&#45;</text>
<text text-anchor="start" x="273.5" y="-871.5" font-family="Helvetica,sans-Serif" font-size="10.00">MAX_FRAME_SIZE</text>
<text text-anchor="start" x="260.5" y="-856.5" font-family="Helvetica,sans-Serif" font-size="10.00">+</text>
<text text-anchor="start" x="273.5" y="-856.5" font-family="Helvetica,sans-Serif" font-size="10.00">UdpLogger()</text>
<text text-anchor="start" x="260.5" y="-841.5" font-family="Helvetica,sans-Serif" font-size="10.00">+</text>
<text text-anchor="start" x="273.5" y="-841.5" font-family="Helvetica,sans-Serif" font-size="10.00">~UdpLogger()</text>
<text text-anchor="start" x="260.5" y="-826.5" font-family="Helvetica,sans-Serif" font-size="10.00">+</text>
<text text-anchor="start" x="273.5" y="-826.5" font-family="Helvetica,sans-Serif" font-size="10.00">UdpLogger()</text>
<text text-anchor="start" x="260.5" y="-811.5" font-family="Helvetica,sans-Serif" font-size="10.00">+</text>
<text text-anchor="start" x="273.5" y="-811.5" font-family="Helvetica,sans-Serif" font-size="10.00">operator=()</text>
<text text-anchor="start" x="260.5" y="-796.5" font-family="Helvetica,sans-Serif" font-size="10.00">+</text>
<text text-anchor="start" x="273.5" y="-796.5" font-family="Helvetica,sans-Serif" font-size="10.00">UdpLogger()</text>
<text text-anchor="start" x="260.5" y="-781.5" font-family="Helvetica,sans-Serif" font-size="10.00">+</text>
<text text-anchor="start" x="273.5" y="-781.5" font-family="Helvetica,sans-Serif" font-size="10.00">operator=()</text>
<text text-anchor="start" x="260.5" y="-766.5" font-family="Helvetica,sans-Serif" font-size="10.00">+</text>
<text text-anchor="start" x="273.5" y="-766.5" font-family="Helvetica,sans-Serif" font-size="10.00">log()</text>
<text text-anchor="start" x="260.5" y="-751.5" font-family="Helvetica,sans-Serif" font-size="10.00">+</text>
<text text-anchor="start" x="273.5" y="-751.5" font-family="Helvetica,sans-Serif" font-size="10.00">cyclesCount()</text>
<text text-anchor="start" x="260.5" y="-736.5" font-family="Helvetica,sans-Serif" font-size="10.00">+</text>
<text text-anchor="start" x="273.5" y="-736.5" font-family="Helvetica,sans-Serif" font-size="10.00">droppedFramesCount()</text>
<text text-anchor="start" x="260.5" y="-721.5" font-family="Helvetica,sans-Serif" font-size="10.00">+</text>
<text text-anchor="start" x="273.5" y="-721.5" font-family="Helvetica,sans-Serif" font-size="10.00">start()</text>
<text text-anchor="start" x="260.5" y="-706.5" font-family="Helvetica,sans-Serif" font-size="10.00">+</text>
<text text-anchor="start" x="273.5" y="-706.5" font-family="Helvetica,sans-Serif" font-size="10.00">stop()</text>
<text text-anchor="start" x="263" y="-691.5" font-family="Helvetica,sans-Serif" font-size="10.00">&#45;</text>
<text text-anchor="start" x="273.5" y="-691.5" font-family="Helvetica,sans-Serif" font-size="10.00">writerLoop()</text>
<polygon fill="#666666" stroke="#666666" points="256.5,-956.5 256.5,-956.5 389.5,-956.5 389.5,-956.5 256.5,-956.5"/>
<polygon fill="#666666" stroke="#666666" points="256.5,-866.5 256.5,-866.5 271.5,-866.5 271.5,-866.5 256.5,-866.5"/>
<polygon fill="#666666" stroke="#666666" points="271.5,-866.5 271.5,-866.5 389.5,-866.5 389.5,-866.5 271.5,-866.5"/>
<polygon fill="none" stroke="#666666" points="256,-685 256,-974 389,-974 389,-685 256,-685"/>
</a>
</g>
</g>
<!-- Node5&#45;&gt;Node3 -->
<g id="edge13_Node000003_Node000005" class="edge">
<title>Node5&#45;&gt;Node3</title>
<g id="a_edge13_Node000003_Node000005"><a xlink:title=" ">
<path fill="none" stroke="#63b8ff" d="M318.48,-684.91C315.84,-623.25 311.53,-550.46 304.5,-485 304.31,-483.19 304.11,-481.37 303.9,-479.54"/>
<polygon fill="none" stroke="#63b8ff" points="303.87,-479.3 299.19,-473.81 302.46,-467.38 307.14,-472.87 303.87,-479.3"/>
</a>
</g>
<text text-anchor="middle" x="353" y="-573.5" font-family="Helvetica,sans-Serif" font-size="10.00" fill="grey"> &#45;m_udpLogger</text>
</g>
<!-- Node5&#45;&gt;Node4 -->
<g id="edge6_Node000004_Node000005" class="edge">
<title>Node5&#45;&gt;Node4</title>
<g id="a_edge6_Node000004_Node000005"><a xlink:title=" ">
<path fill="none" stroke="#63b8ff" d="M256,-711.9C248.37,-696.97 241.01,-681.75 234.5,-667 232.02,-661.38 229.61,-655.49 227.3,-649.54"/>
<polygon fill="none" stroke="#63b8ff" points="227.2,-649.28 221.35,-645.07 222.98,-638.05 228.83,-642.26 227.2,-649.28"/>
</a>
</g>
<text text-anchor="middle" x="270" y="-659" font-family="Helvetica,sans-Serif" font-size="10.00" fill="grey"> &#45;m_udplogger</text>
</g>
<!-- Node6&#45;&gt;Node3 -->
<g id="edge12_Node000003_Node000006" class="edge">
<title>Node6&#45;&gt;Node3</title>
<g id="a_edge12_Node000003_Node000006"><a xlink:title=" ">
<path fill="none" stroke="#63b8ff" d="M295.69,-1093.02C297.25,-1091.6 298.86,-1090.26 300.5,-1089 318.26,-1075.4 330.84,-1085.92 347.5,-1071 383.63,-1038.64 386.07,-1021.13 397.5,-974 445.7,-775.31 447.33,-711.24 393.5,-514 383.68,-478.02 366.54,-441.59 348.27,-409.28"/>
<polygon fill="none" stroke="#63b8ff" points="348.04,-408.89 341.58,-405.69 342.04,-398.49 348.51,-401.69 348.04,-408.89"/>
</a>
</g>
<text text-anchor="middle" x="455" y="-659" font-family="Helvetica,sans-Serif" font-size="10.00" fill="grey"> &#45;m_logger</text>
</g>
<!-- Node6&#45;&gt;Node4 -->
<g id="edge9_Node000004_Node000006" class="edge">
<title>Node6&#45;&gt;Node4</title>
<g id="a_edge9_Node000004_Node000006"><a xlink:title=" ">
<path fill="none" stroke="#63b8ff" d="M233.63,-1088.73C218.46,-1056.42 201.26,-1013.95 193.5,-974 171.87,-862.63 182.18,-730.4 192.31,-650.15"/>
<polygon fill="none" stroke="#63b8ff" points="192.31,-650.11 189.12,-643.64 193.86,-638.21 197.05,-644.68 192.31,-650.11"/>
</a>
</g>
<text text-anchor="middle" x="220" y="-827" font-family="Helvetica,sans-Serif" font-size="10.00" fill="grey"> &#45;m_logger</text>
</g>
<!-- Node6&#45;&gt;Node5 -->
<g id="edge7_Node000005_Node000006" class="edge">
<title>Node6&#45;&gt;Node5</title>
<g id="a_edge7_Node000005_Node000006"><a xlink:title=" ">
<path fill="none" stroke="#63b8ff" d="M271.99,-1088.87C277.6,-1060.17 284.82,-1023.21 292.05,-986.27"/>
<polygon fill="none" stroke="#63b8ff" points="292.09,-986.06 289.31,-979.4 294.39,-974.28 297.16,-980.94 292.09,-986.06"/>
</a>
</g>
<text text-anchor="middle" x="317" y="-1029" font-family="Helvetica,sans-Serif" font-size="10.00" fill="grey"> &#45;m_logger</text>
</g>
<!-- Node7&#45;&gt;Node3 -->
<g id="edge10_Node000003_Node000007" class="edge">
<title>Node7&#45;&gt;Node3</title>
<g id="a_edge10_Node000003_Node000007"><a xlink:title=" ">
<path fill="none" stroke="#63b8ff" d="M493.87,-991.81C504.92,-898.63 522.36,-656.79 434.5,-485 413.27,-443.49 380.69,-403.63 350.45,-371.7"/>
<polygon fill="none" stroke="#63b8ff" points="350.32,-371.56 343.28,-370 342,-362.91 349.04,-364.46 350.32,-371.56"/>
</a>
</g>
<text text-anchor="middle" x="527.5" y="-659" font-family="Helvetica,sans-Serif" font-size="10.00" fill="grey"> &#45;m_fileSystem</text>
</g>
</g>
</svg>
