<?xml version="1.0" encoding="UTF-8" standalone="no"?>
<!DOCTYPE svg PUBLIC "-//W3C//DTD SVG 1.1//EN"
 "http://www.w3.org/Graphics/SVG/1.1/DTD/svg11.dtd">
<!-- Generated by graphviz version 2.43.0 (0)
 -->
<!-- Title: DebugDisplay::onNumberOfBindingsChanged Pages: 1 -->
<svg width="335pt" height="172pt"
 viewBox="0.00 0.00 335.00 172.00" xmlns="http://www.w3.org/2000/svg" xmlns:xlink="http://www.w3.org/1999/xlink">

<svg id="main" version="1.1" xmlns="http://www.w3.org/2000/svg" xmlns:xlink="http://www.w3.org/1999/xlink" xml:space="preserve" onload="init(evt)">
<style type="text/css"><![CDATA[
.node, .edge {opacity: 0.7;}
.node.selected, .edge.selected {opacity: 1;}
.edge:hover path { stroke: red; }
.edge:hover polygon { stroke: red; fill: red; }
]]></style>
<script type="application/ecmascript" xlink:href="svg.min.js"/>
<svg id="graph" class="graph">
<g id="graph0" class="graph" transform="scale(1 1) rotate(0) translate(4 168)">
<title>DebugDisplay::onNumberOfBindingsChanged</title>
<!-- Node1 -->
<g id="Node000001" class="node">
<title>Node1</title>
<g id="a_Node000001"><a xlink:title=" ">
<polygon fill="#999999" stroke="#666666" points="152,-94 0,-94 0,-64 152,-64 152,-94"/>
<text text-anchor="start" x="8" y="-82" font-family="Helvetica,sans-Serif" font-size="10.00">DebugDisplay::onNumberOf</text>
<text text-anchor="middle" x="76" y="-71" font-family="Helvetica,sans-Serif" font-size="10.00">BindingsChanged</text>
</a>
</g>
</g>
<!-- Node2 -->
<g id="Node000002" class="node">
<title>Node2</title>
<g id="a_Node000002"><a xlink:href="classDebugDisplayViewModel.html#a47ab7f0fe7168345fb520fabcec19715" target="_top" xlink:title=" ">
<polygon fill="white" stroke="#666666" points="327,-164 188,-164 188,-134 327,-134 327,-164"/>
<text text-anchor="start" x="196" y="-152" font-family="Helvetica,sans-Serif" font-size="10.00">DebugDisplayViewModel</text>
<text text-anchor="middle" x="257.5" y="-141" font-family="Helvetica,sans-Serif" font-size="10.00">::getBinding</text>
</a>
</g>
</g>
<!-- Node1&#45;&gt;Node2 -->
<g id="edge1_Node000001_Node000002" class="edge">
<title>Node1&#45;&gt;Node2</title>
<g id="a_edge1_Node000001_Node000002"><a xlink:title=" ">
<path fill="none" stroke="#63b8ff" d="M111.79,-94.01C133.57,-103.25 162.28,-115.17 188,-125 192.81,-126.84 197.82,-128.7 202.86,-130.53"/>
<polygon fill="#63b8ff" stroke="#63b8ff" points="201.92,-133.91 212.52,-134 204.29,-127.32 201.92,-133.91"/>
</a>
</g>
</g>
<!-- Node3 -->
<g id="Node000003" class="node">
<title>Node3</title>
<g id="a_Node000003"><a xlink:href="classDebugDisplayViewModel.html#a6bf470644b579789a34668da89932dab" target="_top" xlink:title=" ">
<polygon fill="white" stroke="#666666" points="327,-116 188,-116 188,-86 327,-86 327,-116"/>
<text text-anchor="start" x="196" y="-104" font-family="Helvetica,sans-Serif" font-size="10.00">DebugDisplayViewModel</text>
<text text-anchor="middle" x="257.5" y="-93" font-family="Helvetica,sans-Serif" font-size="10.00">::numberOfBindings</text>
</a>
</g>
</g>
<!-- Node1&#45;&gt;Node3 -->
<g id="edge2_Node000001_Node000003" class="edge">
<title>Node1&#45;&gt;Node3</title>
<g id="a_edge2_Node000001_Node000003"><a xlink:title=" ">
<path fill="none" stroke="#63b8ff" d="M152.08,-88.2C160.58,-89.24 169.25,-90.31 177.79,-91.35"/>
<polygon fill="#63b8ff" stroke="#63b8ff" points="177.38,-94.83 187.73,-92.57 178.23,-87.88 177.38,-94.83"/>
</a>
</g>
</g>
<!-- Node4 -->
<g id="Node000004" class="node">
<title>Node4</title>
<g id="a_Node000004"><a xlink:href="classData.html#a54503e1b28ae588a4992ea8e271a8fcf" target="_top" xlink:title=" ">
<polygon fill="white" stroke="#666666" points="305,-67.5 210,-67.5 210,-48.5 305,-48.5 305,-67.5"/>
<text text-anchor="middle" x="257.5" y="-55.5" font-family="Helvetica,sans-Serif" font-size="10.00">Data::onRefresh</text>
</a>
</g>
</g>
<!-- Node1&#45;&gt;Node4 -->
<g id="edge3_Node000001_Node000004" class="edge">
<title>Node1&#45;&gt;Node4</title>
<g id="a_edge3_Node000001_Node000004"><a xlink:title=" ">
<path fill="none" stroke="#63b8ff" d="M152.08,-70.22C168.01,-68.35 184.56,-66.42 199.68,-64.65"/>
<polygon fill="#63b8ff" stroke="#63b8ff" points="200.35,-68.09 209.88,-63.45 199.54,-61.14 200.35,-68.09"/>
</a>
</g>
</g>
<!-- Node5 -->
<g id="Node000005" class="node">
<title>Node5</title>
<g id="a_Node000005"><a xlink:href="classDebugDisplayViewModel.html#a997e4bf3f31b3ebc687d3db9a22dc99c" target="_top" xlink:title=" ">
<polygon fill="white" stroke="#666666" points="327,-30 188,-30 188,0 327,0 327,-30"/>
<text text-anchor="start" x="196" y="-18" font-family="Helvetica,sans-Serif" font-size="10.00">DebugDisplayViewModel</text>
<text text-anchor="middle" x="257.5" y="-7" font-family="Helvetica,sans-Serif" font-size="10.00">::refreshDisplay</text>
</a>
</g>
</g>
<!-- Node1&#45;&gt;Node5 -->
<g id="edge4_Node000001_Node000005" class="edge">
<title>Node1&#45;&gt;Node5</title>
<g id="a_edge4_Node000001_Node000005"><a xlink:title=" ">
<path fill="none" stroke="#63b8ff" d="M119.08,-63.99C144.65,-54.88 177.48,-43.17 204.64,-33.49"/>
<polygon fill="#63b8ff" stroke="#63b8ff" points="206.12,-36.68 214.37,-30.02 203.77,-30.08 206.12,-36.68"/>
</a>
</g>
</g>
</g>
</svg>
</svg>

<style type='text/css'>
<![CDATA[
[data-mouse-over-selected='false'] { opacity: 0.7; }
[data-mouse-over-selected='true']  { opacity: 1.0; }
]]>
</style>
<script type="application/ecmascript"><![CDATA[
document.addEventListener('DOMContentLoaded', (event) => {
  highlightEdges();
  highlightAdjacentNodes();
});
]]></script>
</svg>
