<?xml version="1.0" encoding="UTF-8" standalone="no"?>
<!DOCTYPE svg PUBLIC "-//W3C//DTD SVG 1.1//EN"
 "http://www.w3.org/Graphics/SVG/1.1/DTD/svg11.dtd">
<!-- Generated by graphviz version 2.43.0 (0)
 -->
<!-- Title: PlotViewModel::getValueID Pages: 1 -->
<svg width="612pt" height="27pt"
 viewBox="0.00 0.00 612.00 27.00" xmlns="http://www.w3.org/2000/svg" xmlns:xlink="http://www.w3.org/1999/xlink">
<g id="graph0" class="graph" transform="scale(1 1) rotate(0) translate(4 23)">
<title>PlotViewModel::getValueID</title>
<!-- Node1 -->
<g id="Node000001" class="node">
<title>Node1</title>
<g id="a_Node000001"><a xlink:title=" ">
<polygon fill="#999999" stroke="#666666" points="604,-19 455,-19 455,0 604,0 604,-19"/>
<text text-anchor="middle" x="529.5" y="-7" font-family="Helvetica,sans-Serif" font-size="10.00">PlotViewModel::getValueID</text>
</a>
</g>
</g>
<!-- Node2 -->
<g id="Node000002" class="node">
<title>Node2</title>
<g id="a_Node000002"><a xlink:href="classPlot.html#a35a46b3d250dc882d2ca1c90ab9c12fd" target="_top" xlink:title=" ">
<polygon fill="white" stroke="#666666" points="419,-19 294,-19 294,0 419,0 419,-19"/>
<text text-anchor="middle" x="356.5" y="-7" font-family="Helvetica,sans-Serif" font-size="10.00">Plot::initialiseBindings</text>
</a>
</g>
</g>
<!-- Node1&#45;&gt;Node2 -->
<g id="edge1_Node000001_Node000002" class="edge">
<title>Node1&#45;&gt;Node2</title>
<g id="a_edge1_Node000001_Node000002"><a xlink:title=" ">
<path fill="none" stroke="#63b8ff" d="M444.85,-9.5C436.19,-9.5 427.5,-9.5 419.14,-9.5"/>
<polygon fill="#63b8ff" stroke="#63b8ff" points="444.99,-13 454.99,-9.5 444.99,-6 444.99,-13"/>
</a>
</g>
</g>
<!-- Node3 -->
<g id="Node000003" class="node">
<title>Node3</title>
<g id="a_Node000003"><a xlink:href="classPlot.html#a74f12fae74e90c87c72cab9f0d2da28d" target="_top" xlink:title=" ">
<polygon fill="white" stroke="#666666" points="258,-19 96,-19 96,0 258,0 258,-19"/>
<text text-anchor="middle" x="177" y="-7" font-family="Helvetica,sans-Serif" font-size="10.00">Plot::onCurvesValuesChanged</text>
</a>
</g>
</g>
<!-- Node2&#45;&gt;Node3 -->
<g id="edge2_Node000002_Node000003" class="edge">
<title>Node2&#45;&gt;Node3</title>
<g id="a_edge2_Node000002_Node000003"><a xlink:title=" ">
<path fill="none" stroke="#63b8ff" d="M283.78,-9.5C275.37,-9.5 266.75,-9.5 258.23,-9.5"/>
<polygon fill="#63b8ff" stroke="#63b8ff" points="283.92,-13 293.92,-9.5 283.92,-6 283.92,-13"/>
</a>
</g>
</g>
<!-- Node4 -->
<g id="Node000004" class="node">
<title>Node4</title>
<g id="a_Node000004"><a xlink:href="classPlot.html#a5b4b38ebab6fc69bd007d591c2bc61e3" target="_top" xlink:title=" ">
<polygon fill="white" stroke="#666666" points="60,-19 0,-19 0,0 60,0 60,-19"/>
<text text-anchor="middle" x="30" y="-7" font-family="Helvetica,sans-Serif" font-size="10.00">Plot::Plot</text>
</a>
</g>
</g>
<!-- Node3&#45;&gt;Node4 -->
<g id="edge3_Node000003_Node000004" class="edge">
<title>Node3&#45;&gt;Node4</title>
<g id="a_edge3_Node000003_Node000004"><a xlink:title=" ">
<path fill="none" stroke="#63b8ff" d="M85.84,-9.5C76.71,-9.5 67.98,-9.5 60.28,-9.5"/>
<polygon fill="#63b8ff" stroke="#63b8ff" points="85.87,-13 95.87,-9.5 85.87,-6 85.87,-13"/>
</a>
</g>
</g>
</g>
</svg>
