<?xml version="1.0" encoding="UTF-8" standalone="no"?>
<!DOCTYPE svg PUBLIC "-//W3C//DTD SVG 1.1//EN"
 "http://www.w3.org/Graphics/SVG/1.1/DTD/svg11.dtd">
<!-- Generated by graphviz version 2.43.0 (0)
 -->
<!-- Title: UdpChannel::stopUdpWorker Pages: 1 -->
<svg width="1093pt" height="123pt"
 viewBox="0.00 0.00 1093.00 122.50" xmlns="http://www.w3.org/2000/svg" xmlns:xlink="http://www.w3.org/1999/xlink">
<g id="graph0" class="graph" transform="scale(1 1) rotate(0) translate(4 118.5)">
<title>UdpChannel::stopUdpWorker</title>
<!-- Node1 -->
<g id="Node000001" class="node">
<title>Node1</title>
<g id="a_Node000001"><a xlink:title="Instructs the UdpWorker to stop.">
<polygon fill="#999999" stroke="#666666" points="1085,-43 929,-43 929,-24 1085,-24 1085,-43"/>
<text text-anchor="middle" x="1007" y="-31" font-family="Helvetica,sans-Serif" font-size="10.00">UdpChannel::stopUdpWorker</text>
</a>
</g>
</g>
<!-- Node2 -->
<g id="Node000002" class="node">
<title>Node2</title>
<g id="a_Node000002"><a xlink:href="classUdpChannel.html#a818443eac8b5aa21093fe3a1f39492a4" target="_top" xlink:title="Stop the UDP channel and its subsystems.">
<polygon fill="white" stroke="#666666" points="893,-62 747,-62 747,-43 893,-43 893,-62"/>
<text text-anchor="middle" x="820" y="-50" font-family="Helvetica,sans-Serif" font-size="10.00">UdpChannel::stopEndpoint</text>
</a>
</g>
</g>
<!-- Node1&#45;&gt;Node2 -->
<g id="edge1_Node000001_Node000002" class="edge">
<title>Node1&#45;&gt;Node2</title>
<g id="a_edge1_Node000001_Node000002"><a xlink:title=" ">
<path fill="none" stroke="#63b8ff" d="M918.86,-42.45C910.29,-43.33 901.66,-44.22 893.25,-45.08"/>
<polygon fill="#63b8ff" stroke="#63b8ff" points="919.29,-45.92 928.88,-41.42 918.58,-38.96 919.29,-45.92"/>
</a>
</g>
</g>
<!-- Node10 -->
<g id="Node000010" class="node">
<title>Node10</title>
<g id="a_Node000010"><a xlink:href="classUdpChannel.html#a1d69213eb88b5305686f1ef9ade76e04" target="_top" xlink:title=" ">
<polygon fill="white" stroke="#666666" points="890.5,-25 749.5,-25 749.5,-6 890.5,-6 890.5,-25"/>
<text text-anchor="middle" x="820" y="-13" font-family="Helvetica,sans-Serif" font-size="10.00">UdpChannel::UdpChannel</text>
</a>
</g>
</g>
<!-- Node1&#45;&gt;Node10 -->
<g id="edge9_Node000001_Node000010" class="edge">
<title>Node1&#45;&gt;Node10</title>
<g id="a_edge9_Node000001_Node000010"><a xlink:title=" ">
<path fill="none" stroke="#63b8ff" d="M918.7,-25.01C909.28,-24.09 899.79,-23.17 890.61,-22.27"/>
<polygon fill="#63b8ff" stroke="#63b8ff" points="918.59,-28.51 928.88,-26 919.27,-21.54 918.59,-28.51"/>
</a>
</g>
</g>
<!-- Node3 -->
<g id="Node000003" class="node">
<title>Node3</title>
<g id="a_Node000003"><a xlink:href="classCSVLogger.html#aeb2a3cbfb18c9e190ee9558b45c2ab63" target="_top" xlink:title=" ">
<polygon fill="white" stroke="#666666" points="687,-107 580,-107 580,-88 687,-88 687,-107"/>
<text text-anchor="middle" x="633.5" y="-95" font-family="Helvetica,sans-Serif" font-size="10.00">CSVLogger::logFile</text>
</a>
</g>
</g>
<!-- Node2&#45;&gt;Node3 -->
<g id="edge2_Node000002_Node000003" class="edge">
<title>Node2&#45;&gt;Node3</title>
<g id="a_edge2_Node000002_Node000003"><a xlink:title=" ">
<path fill="none" stroke="#63b8ff" d="M769.98,-64.46C739.81,-71.81 701.69,-81.11 673.57,-87.97"/>
<polygon fill="#63b8ff" stroke="#63b8ff" points="770.99,-67.81 779.87,-62.04 769.33,-61.01 770.99,-67.81"/>
</a>
</g>
</g>
<!-- Node7 -->
<g id="Node000007" class="node">
<title>Node7</title>
<g id="a_Node000007"><a xlink:href="classUdpChannelParametersViewModel.html#af74d2aa09f73fc1ce13dca3469848fa8" target="_top" xlink:title=" ">
<polygon fill="white" stroke="#666666" points="711,-67.5 556,-67.5 556,-37.5 711,-37.5 711,-67.5"/>
<text text-anchor="start" x="564" y="-55.5" font-family="Helvetica,sans-Serif" font-size="10.00">UdpChannelParametersView</text>
<text text-anchor="middle" x="633.5" y="-44.5" font-family="Helvetica,sans-Serif" font-size="10.00">Model::restartEndpoint</text>
</a>
</g>
</g>
<!-- Node2&#45;&gt;Node7 -->
<g id="edge6_Node000002_Node000007" class="edge">
<title>Node2&#45;&gt;Node7</title>
<g id="a_edge6_Node000002_Node000007"><a xlink:title=" ">
<path fill="none" stroke="#63b8ff" d="M736.61,-52.5C728.14,-52.5 719.55,-52.5 711.14,-52.5"/>
<polygon fill="#63b8ff" stroke="#63b8ff" points="736.87,-56 746.87,-52.5 736.87,-49 736.87,-56"/>
</a>
</g>
</g>
<!-- Node9 -->
<g id="Node000009" class="node">
<title>Node9</title>
<g id="a_Node000009"><a xlink:href="classUdpChannel.html#a81c184bc754fe19c58898f4cb14eed53" target="_top" xlink:title=" ">
<polygon fill="white" stroke="#666666" points="708,-19 559,-19 559,0 708,0 708,-19"/>
<text text-anchor="middle" x="633.5" y="-7" font-family="Helvetica,sans-Serif" font-size="10.00">UdpChannel::~UdpChannel</text>
</a>
</g>
</g>
<!-- Node2&#45;&gt;Node9 -->
<g id="edge8_Node000002_Node000009" class="edge">
<title>Node2&#45;&gt;Node9</title>
<g id="a_edge8_Node000002_Node000009"><a xlink:title=" ">
<path fill="none" stroke="#63b8ff" d="M768.04,-40.62C738.83,-33.81 702.66,-25.38 675.33,-19.02"/>
<polygon fill="#63b8ff" stroke="#63b8ff" points="767.52,-44.1 778.05,-42.96 769.11,-37.28 767.52,-44.1"/>
</a>
</g>
</g>
<!-- Node4 -->
<g id="Node000004" class="node">
<title>Node4</title>
<g id="a_Node000004"><a xlink:href="classExportMenuViewModel.html#a3384a193ce5445b24d08bb6b6fed94fb" target="_top" xlink:title=" ">
<polygon fill="white" stroke="#666666" points="501.5,-114.5 372.5,-114.5 372.5,-84.5 501.5,-84.5 501.5,-114.5"/>
<text text-anchor="start" x="380.5" y="-102.5" font-family="Helvetica,sans-Serif" font-size="10.00">ExportMenuViewModel</text>
<text text-anchor="middle" x="437" y="-91.5" font-family="Helvetica,sans-Serif" font-size="10.00">::selectPath</text>
</a>
</g>
</g>
<!-- Node3&#45;&gt;Node4 -->
<g id="edge3_Node000003_Node000004" class="edge">
<title>Node3&#45;&gt;Node4</title>
<g id="a_edge3_Node000003_Node000004"><a xlink:title=" ">
<path fill="none" stroke="#63b8ff" d="M569.75,-98.15C548,-98.37 523.6,-98.62 501.76,-98.84"/>
<polygon fill="#63b8ff" stroke="#63b8ff" points="569.9,-101.64 579.87,-98.04 569.83,-94.64 569.9,-101.64"/>
</a>
</g>
</g>
<!-- Node5 -->
<g id="Node000005" class="node">
<title>Node5</title>
<g id="a_Node000005"><a xlink:href="classExportMenu.html#a8c000516d7139497af90f9b173ca0609" target="_top" xlink:title=" ">
<polygon fill="white" stroke="#666666" points="318,-114.5 176,-114.5 176,-84.5 318,-84.5 318,-114.5"/>
<text text-anchor="start" x="184" y="-102.5" font-family="Helvetica,sans-Serif" font-size="10.00">ExportMenu::onFileDialog</text>
<text text-anchor="middle" x="247" y="-91.5" font-family="Helvetica,sans-Serif" font-size="10.00">WindowRequested</text>
</a>
</g>
</g>
<!-- Node4&#45;&gt;Node5 -->
<g id="edge4_Node000004_Node000005" class="edge">
<title>Node4&#45;&gt;Node5</title>
<g id="a_edge4_Node000004_Node000005"><a xlink:title=" ">
<path fill="none" stroke="#63b8ff" d="M361.96,-99.5C347.49,-99.5 332.37,-99.5 318.04,-99.5"/>
<polygon fill="#63b8ff" stroke="#63b8ff" points="362.35,-103 372.35,-99.5 362.35,-96 362.35,-103"/>
</a>
</g>
</g>
<!-- Node6 -->
<g id="Node000006" class="node">
<title>Node6</title>
<g id="a_Node000006"><a xlink:href="classExportMenu.html#aad47eee6721b4f7a152a093c99672ac9" target="_top" xlink:title=" ">
<polygon fill="white" stroke="#666666" points="140,-109 0,-109 0,-90 140,-90 140,-109"/>
<text text-anchor="middle" x="70" y="-97" font-family="Helvetica,sans-Serif" font-size="10.00">ExportMenu::ExportMenu</text>
</a>
</g>
</g>
<!-- Node5&#45;&gt;Node6 -->
<g id="edge5_Node000005_Node000006" class="edge">
<title>Node5&#45;&gt;Node6</title>
<g id="a_edge5_Node000005_Node000006"><a xlink:title=" ">
<path fill="none" stroke="#63b8ff" d="M165.8,-99.5C157.2,-99.5 148.5,-99.5 140.05,-99.5"/>
<polygon fill="#63b8ff" stroke="#63b8ff" points="165.83,-103 175.83,-99.5 165.83,-96 165.83,-103"/>
</a>
</g>
</g>
<!-- Node8 -->
<g id="Node000008" class="node">
<title>Node8</title>
<g id="a_Node000008"><a xlink:href="classUdpChannelParametersWidget.html#aef0927083aea2b20033b42465cb2b42f" target="_top" xlink:title=" ">
<polygon fill="white" stroke="#666666" points="520,-66.5 354,-66.5 354,-36.5 520,-36.5 520,-66.5"/>
<text text-anchor="start" x="362" y="-54.5" font-family="Helvetica,sans-Serif" font-size="10.00">UdpChannelParametersWidget</text>
<text text-anchor="middle" x="437" y="-43.5" font-family="Helvetica,sans-Serif" font-size="10.00">::applyParameters</text>
</a>
</g>
</g>
<!-- Node7&#45;&gt;Node8 -->
<g id="edge7_Node000007_Node000008" class="edge">
<title>Node7&#45;&gt;Node8</title>
<g id="a_edge7_Node000007_Node000008"><a xlink:title=" ">
<path fill="none" stroke="#63b8ff" d="M545.68,-52.05C537.24,-52.01 528.69,-51.97 520.29,-51.92"/>
<polygon fill="#63b8ff" stroke="#63b8ff" points="545.89,-55.55 555.91,-52.11 545.93,-48.55 545.89,-55.55"/>
</a>
</g>
</g>
</g>
</svg>
