<?xml version="1.0" encoding="UTF-8" standalone="no"?>
<!DOCTYPE svg PUBLIC "-//W3C//DTD SVG 1.1//EN"
 "http://www.w3.org/Graphics/SVG/1.1/DTD/svg11.dtd">
<!-- Generated by graphviz version 2.43.0 (0)
 -->
<!-- Title: TankPressureIndicador Pages: 1 -->
<svg width="311pt" height="582pt"
 viewBox="0.00 0.00 311.00 582.00" xmlns="http://www.w3.org/2000/svg" xmlns:xlink="http://www.w3.org/1999/xlink">
<g id="graph0" class="graph" transform="scale(1 1) rotate(0) translate(4 578)">
<title>TankPressureIndicador</title>
<!-- Node1 -->
<g id="Node000001" class="node">
<title>Node1</title>
<g id="a_Node000001"><a xlink:title=" ">
<polygon fill="#999999" stroke="transparent" points="139,-79 0,-79 0,0 139,0 139,-79"/>
<text text-anchor="start" x="15" y="-66.5" font-family="Helvetica,sans-Serif" font-size="10.00">TankPressureIndicador</text>
<text text-anchor="start" x="7" y="-51.5" font-family="Helvetica,sans-Serif" font-size="10.00">&#45;</text>
<text text-anchor="start" x="17.5" y="-51.5" font-family="Helvetica,sans-Serif" font-size="10.00">m_size</text>
<text text-anchor="start" x="4.5" y="-36.5" font-family="Helvetica,sans-Serif" font-size="10.00">+</text>
<text text-anchor="start" x="17.5" y="-36.5" font-family="Helvetica,sans-Serif" font-size="10.00">TankPressureIndicador()</text>
<text text-anchor="start" x="4.5" y="-21.5" font-family="Helvetica,sans-Serif" font-size="10.00">+</text>
<text text-anchor="start" x="17.5" y="-21.5" font-family="Helvetica,sans-Serif" font-size="10.00">sizeHint()</text>
<text text-anchor="start" x="4.5" y="-6.5" font-family="Helvetica,sans-Serif" font-size="10.00">+</text>
<text text-anchor="start" x="17.5" y="-6.5" font-family="Helvetica,sans-Serif" font-size="10.00">onDataUpdate()</text>
<polygon fill="#666666" stroke="#666666" points="0.5,-61.5 0.5,-61.5 139.5,-61.5 139.5,-61.5 0.5,-61.5"/>
<polygon fill="#666666" stroke="#666666" points="0.5,-46.5 0.5,-46.5 15.5,-46.5 15.5,-46.5 0.5,-46.5"/>
<polygon fill="#666666" stroke="#666666" points="15.5,-46.5 15.5,-46.5 139.5,-46.5 139.5,-46.5 15.5,-46.5"/>
<polygon fill="none" stroke="#666666" points="0,0 0,-79 139,-79 139,0 0,0"/>
</a>
</g>
</g>
<!-- Node2 -->
<g id="Node000002" class="node">
<title>Node2</title>
<g id="a_Node000002"><a xlink:title=" ">
<polygon fill="white" stroke="transparent" points="75.5,-268.5 31.5,-268.5 31.5,-219.5 75.5,-219.5 75.5,-268.5"/>
<text text-anchor="start" x="36.5" y="-256" font-family="Helvetica,sans-Serif" font-size="10.00">QLabel</text>
<text text-anchor="start" x="51.5" y="-241" font-family="Helvetica,sans-Serif" font-size="10.00"> </text>
<text text-anchor="start" x="51.5" y="-226" font-family="Helvetica,sans-Serif" font-size="10.00"> </text>
<polygon fill="#666666" stroke="#666666" points="31.5,-251 31.5,-251 75.5,-251 75.5,-251 31.5,-251"/>
<polygon fill="#666666" stroke="#666666" points="31.5,-236 31.5,-236 75.5,-236 75.5,-236 31.5,-236"/>
<polygon fill="none" stroke="#666666" points="31.5,-219.5 31.5,-268.5 75.5,-268.5 75.5,-219.5 31.5,-219.5"/>
</a>
</g>
</g>
<!-- Node2&#45;&gt;Node1 -->
<g id="edge1_Node000001_Node000002" class="edge">
<title>Node2&#45;&gt;Node1</title>
<g id="a_edge1_Node000001_Node000002"><a xlink:title=" ">
<path fill="none" stroke="#63b8ff" d="M56.19,-208.95C59.02,-173.08 63.48,-116.71 66.44,-79.19"/>
<polygon fill="none" stroke="#63b8ff" points="52.67,-209.13 55.37,-219.37 59.64,-209.68 52.67,-209.13"/>
</a>
</g>
</g>
<!-- Node3 -->
<g id="Node000003" class="node">
<title>Node3</title>
<g id="a_Node000003"><a xlink:href="classTankPressureSettingsIndicatorViewModel.html" target="_top" xlink:title=" ">
<polygon fill="white" stroke="transparent" points="262,-362 93,-362 93,-126 262,-126 262,-362"/>
<text text-anchor="start" x="104" y="-350" font-family="Helvetica,sans-Serif" font-size="10.00">TankPressureSettingsIndicator</text>
<text text-anchor="start" x="150.5" y="-339" font-family="Helvetica,sans-Serif" font-size="10.00">ViewModel</text>
<text text-anchor="start" x="100" y="-324" font-family="Helvetica,sans-Serif" font-size="10.00">&#45;</text>
<text text-anchor="start" x="110.5" y="-324" font-family="Helvetica,sans-Serif" font-size="10.00">m_tankName</text>
<text text-anchor="start" x="100" y="-309" font-family="Helvetica,sans-Serif" font-size="10.00">&#45;</text>
<text text-anchor="start" x="110.5" y="-309" font-family="Helvetica,sans-Serif" font-size="10.00">m_tankPressureSettingValue</text>
<text text-anchor="start" x="100" y="-294" font-family="Helvetica,sans-Serif" font-size="10.00">&#45;</text>
<text text-anchor="start" x="110.5" y="-294" font-family="Helvetica,sans-Serif" font-size="10.00">m_valueUnit</text>
<text text-anchor="start" x="100" y="-279" font-family="Helvetica,sans-Serif" font-size="10.00">&#45;</text>
<text text-anchor="start" x="110.5" y="-279" font-family="Helvetica,sans-Serif" font-size="10.00">m_valueMention</text>
<text text-anchor="start" x="97.5" y="-264" font-family="Helvetica,sans-Serif" font-size="10.00">+</text>
<text text-anchor="start" x="110.5" y="-264" font-family="Helvetica,sans-Serif" font-size="10.00">TankPressureSettingsIndicator</text>
<text text-anchor="start" x="110.5" y="-253" font-family="Helvetica,sans-Serif" font-size="10.00">ViewModel()</text>
<text text-anchor="start" x="97.5" y="-238" font-family="Helvetica,sans-Serif" font-size="10.00">+</text>
<text text-anchor="start" x="110.5" y="-238" font-family="Helvetica,sans-Serif" font-size="10.00">setParameters()</text>
<text text-anchor="start" x="97.5" y="-223" font-family="Helvetica,sans-Serif" font-size="10.00">+</text>
<text text-anchor="start" x="110.5" y="-223" font-family="Helvetica,sans-Serif" font-size="10.00">setTankName()</text>
<text text-anchor="start" x="97.5" y="-208" font-family="Helvetica,sans-Serif" font-size="10.00">+</text>
<text text-anchor="start" x="110.5" y="-208" font-family="Helvetica,sans-Serif" font-size="10.00">getPressureSetting()</text>
<text text-anchor="start" x="97.5" y="-193" font-family="Helvetica,sans-Serif" font-size="10.00">+</text>
<text text-anchor="start" x="110.5" y="-193" font-family="Helvetica,sans-Serif" font-size="10.00">getTankName()</text>
<text text-anchor="start" x="97.5" y="-178" font-family="Helvetica,sans-Serif" font-size="10.00">+</text>
<text text-anchor="start" x="110.5" y="-178" font-family="Helvetica,sans-Serif" font-size="10.00">getValueUnit()</text>
<text text-anchor="start" x="97.5" y="-163" font-family="Helvetica,sans-Serif" font-size="10.00">+</text>
<text text-anchor="start" x="110.5" y="-163" font-family="Helvetica,sans-Serif" font-size="10.00">getValueMention()</text>
<text text-anchor="start" x="97.5" y="-148" font-family="Helvetica,sans-Serif" font-size="10.00">+</text>
<text text-anchor="start" x="110.5" y="-148" font-family="Helvetica,sans-Serif" font-size="10.00">initialise()</text>
<text text-anchor="start" x="97.5" y="-133" font-family="Helvetica,sans-Serif" font-size="10.00">+</text>
<text text-anchor="start" x="110.5" y="-133" font-family="Helvetica,sans-Serif" font-size="10.00">onPressureSettingChanged()</text>
<polygon fill="#666666" stroke="#666666" points="93.5,-334 93.5,-334 262.5,-334 262.5,-334 93.5,-334"/>
<polygon fill="#666666" stroke="#666666" points="93.5,-274 93.5,-274 108.5,-274 108.5,-274 93.5,-274"/>
<polygon fill="#666666" stroke="#666666" points="108.5,-274 108.5,-274 262.5,-274 262.5,-274 108.5,-274"/>
<polygon fill="none" stroke="#666666" points="93,-126 93,-362 262,-362 262,-126 93,-126"/>
</a>
</g>
</g>
<!-- Node3&#45;&gt;Node1 -->
<g id="edge2_Node000001_Node000003" class="edge">
<title>Node3&#45;&gt;Node1</title>
<g id="a_edge2_Node000001_Node000003"><a xlink:title=" ">
<path fill="none" stroke="#63b8ff" d="M114.99,-125.79C108.27,-113.2 101.73,-100.94 95.81,-89.83"/>
<polygon fill="none" stroke="#63b8ff" points="95.75,-89.71 89.39,-86.3 90.1,-79.13 96.45,-82.54 95.75,-89.71"/>
</a>
</g>
<text text-anchor="middle" x="123.5" y="-100" font-family="Helvetica,sans-Serif" font-size="10.00" fill="grey"> &#45;m_vm</text>
</g>
<!-- Node4 -->
<g id="Node000004" class="node">
<title>Node4</title>
<g id="a_Node000004"><a xlink:title=" ">
<polygon fill="white" stroke="transparent" points="182.5,-574 132.5,-574 132.5,-525 182.5,-525 182.5,-574"/>
<text text-anchor="start" x="137.5" y="-561.5" font-family="Helvetica,sans-Serif" font-size="10.00">QObject</text>
<text text-anchor="start" x="155.5" y="-546.5" font-family="Helvetica,sans-Serif" font-size="10.00"> </text>
<text text-anchor="start" x="155.5" y="-531.5" font-family="Helvetica,sans-Serif" font-size="10.00"> </text>
<polygon fill="#666666" stroke="#666666" points="132.5,-556.5 132.5,-556.5 182.5,-556.5 182.5,-556.5 132.5,-556.5"/>
<polygon fill="#666666" stroke="#666666" points="132.5,-541.5 132.5,-541.5 182.5,-541.5 182.5,-541.5 132.5,-541.5"/>
<polygon fill="none" stroke="#666666" points="132.5,-525 132.5,-574 182.5,-574 182.5,-525 132.5,-525"/>
</a>
</g>
</g>
<!-- Node4&#45;&gt;Node3 -->
<g id="edge3_Node000003_Node000004" class="edge">
<title>Node4&#45;&gt;Node3</title>
<g id="a_edge3_Node000003_Node000004"><a xlink:title=" ">
<path fill="none" stroke="#63b8ff" d="M158.92,-514.64C160.18,-486.38 162.17,-445.05 164.5,-409 165.48,-393.89 166.61,-378.01 167.78,-362.33"/>
<polygon fill="none" stroke="#63b8ff" points="155.42,-514.65 158.48,-524.79 162.41,-514.95 155.42,-514.65"/>
</a>
</g>
</g>
<!-- Node5 -->
<g id="Node000005" class="node">
<title>Node5</title>
<g id="a_Node000005"><a xlink:href="classPressureTanksModel.html" target="_top" xlink:title=" ">
<polygon fill="white" stroke="transparent" points="303,-488 174,-488 174,-409 303,-409 303,-488"/>
<text text-anchor="start" x="189" y="-475.5" font-family="Helvetica,sans-Serif" font-size="10.00">PressureTanksModel</text>
<text text-anchor="start" x="181" y="-460.5" font-family="Helvetica,sans-Serif" font-size="10.00">&#45;</text>
<text text-anchor="start" x="191.5" y="-460.5" font-family="Helvetica,sans-Serif" font-size="10.00">m_PressureSettings</text>
<text text-anchor="start" x="178.5" y="-445.5" font-family="Helvetica,sans-Serif" font-size="10.00">+</text>
<text text-anchor="start" x="191.5" y="-445.5" font-family="Helvetica,sans-Serif" font-size="10.00">PressureTanksModel()</text>
<text text-anchor="start" x="178.5" y="-430.5" font-family="Helvetica,sans-Serif" font-size="10.00">+</text>
<text text-anchor="start" x="191.5" y="-430.5" font-family="Helvetica,sans-Serif" font-size="10.00">getPressureSetting()</text>
<text text-anchor="start" x="178.5" y="-415.5" font-family="Helvetica,sans-Serif" font-size="10.00">+</text>
<text text-anchor="start" x="191.5" y="-415.5" font-family="Helvetica,sans-Serif" font-size="10.00">setPressureSetting()</text>
<polygon fill="#666666" stroke="#666666" points="174.5,-470.5 174.5,-470.5 303.5,-470.5 303.5,-470.5 174.5,-470.5"/>
<polygon fill="#666666" stroke="#666666" points="174.5,-455.5 174.5,-455.5 189.5,-455.5 189.5,-455.5 174.5,-455.5"/>
<polygon fill="#666666" stroke="#666666" points="189.5,-455.5 189.5,-455.5 303.5,-455.5 303.5,-455.5 189.5,-455.5"/>
<polygon fill="none" stroke="#666666" points="174,-409 174,-488 303,-488 303,-409 174,-409"/>
</a>
</g>
</g>
<!-- Node4&#45;&gt;Node5 -->
<g id="edge5_Node000005_Node000004" class="edge">
<title>Node4&#45;&gt;Node5</title>
<g id="a_edge5_Node000005_Node000004"><a xlink:title=" ">
<path fill="none" stroke="#63b8ff" d="M183.27,-517C190.79,-507.81 199.09,-497.67 206.92,-488.09"/>
<polygon fill="none" stroke="#63b8ff" points="180.53,-514.83 176.9,-524.79 185.94,-519.26 180.53,-514.83"/>
</a>
</g>
</g>
<!-- Node5&#45;&gt;Node3 -->
<g id="edge4_Node000003_Node000005" class="edge">
<title>Node5&#45;&gt;Node3</title>
<g id="a_edge4_Node000003_Node000005"><a xlink:title=" ">
<path fill="none" stroke="#63b8ff" d="M226.88,-408.93C223.73,-398.48 220.14,-386.55 216.36,-374.01"/>
<polygon fill="none" stroke="#63b8ff" points="216.31,-373.84 210.75,-369.25 212.85,-362.35 218.41,-366.94 216.31,-373.84"/>
</a>
</g>
<text text-anchor="middle" x="246" y="-383" font-family="Helvetica,sans-Serif" font-size="10.00" fill="grey"> &#45;m_model</text>
</g>
</g>
</svg>
