<?xml version="1.0" encoding="UTF-8" standalone="no"?>
<!DOCTYPE svg PUBLIC "-//W3C//DTD SVG 1.1//EN"
 "http://www.w3.org/Graphics/SVG/1.1/DTD/svg11.dtd">
<!-- Generated by graphviz version 2.43.0 (0)
 -->
<!-- Title: TestLauncherViewModel::onLaunchConfirmed Pages: 1 -->
<svg width="533pt" height="38pt"
 viewBox="0.00 0.00 533.00 38.00" xmlns="http://www.w3.org/2000/svg" xmlns:xlink="http://www.w3.org/1999/xlink">
<g id="graph0" class="graph" transform="scale(1 1) rotate(0) translate(4 34)">
<title>TestLauncherViewModel::onLaunchConfirmed</title>
<!-- Node1 -->
<g id="Node000001" class="node">
<title>Node1</title>
<g id="a_Node000001"><a xlink:title=" ">
<polygon fill="#999999" stroke="#666666" points="134,-30 0,-30 0,0 134,0 134,-30"/>
<text text-anchor="start" x="8" y="-18" font-family="Helvetica,sans-Serif" font-size="10.00">TestLauncherViewModel</text>
<text text-anchor="middle" x="67" y="-7" font-family="Helvetica,sans-Serif" font-size="10.00">::onLaunchConfirmed</text>
</a>
</g>
</g>
<!-- Node2 -->
<g id="Node000002" class="node">
<title>Node2</title>
<g id="a_Node000002"><a xlink:href="classTestBenchModel.html#a54c863e0fad71787463b3cca612b1ee3" target="_top" xlink:title=" ">
<polygon fill="white" stroke="#666666" points="337,-24.5 170,-24.5 170,-5.5 337,-5.5 337,-24.5"/>
<text text-anchor="middle" x="253.5" y="-12.5" font-family="Helvetica,sans-Serif" font-size="10.00">TestBenchModel::setTestStatus</text>
</a>
</g>
</g>
<!-- Node1&#45;&gt;Node2 -->
<g id="edge1_Node000001_Node000002" class="edge">
<title>Node1&#45;&gt;Node2</title>
<g id="a_edge1_Node000001_Node000002"><a xlink:title=" ">
<path fill="none" stroke="#63b8ff" d="M134.09,-15C142.41,-15 151.04,-15 159.68,-15"/>
<polygon fill="#63b8ff" stroke="#63b8ff" points="159.81,-18.5 169.81,-15 159.81,-11.5 159.81,-18.5"/>
</a>
</g>
</g>
<!-- Node3 -->
<g id="Node000003" class="node">
<title>Node3</title>
<g id="a_Node000003"><a xlink:href="classTestBenchModel.html#a0d3f80fa37e00cdbd143c2354d28d74f" target="_top" xlink:title=" ">
<polygon fill="white" stroke="#666666" points="525,-30 373,-30 373,0 525,0 525,-30"/>
<text text-anchor="start" x="381" y="-18" font-family="Helvetica,sans-Serif" font-size="10.00">TestBenchModel::testStatus</text>
<text text-anchor="middle" x="449" y="-7" font-family="Helvetica,sans-Serif" font-size="10.00">Changed</text>
</a>
</g>
</g>
<!-- Node2&#45;&gt;Node3 -->
<g id="edge2_Node000002_Node000003" class="edge">
<title>Node2&#45;&gt;Node3</title>
<g id="a_edge2_Node000002_Node000003"><a xlink:title=" ">
<path fill="none" stroke="#63b8ff" d="M337.12,-15C345.52,-15 354.06,-15 362.49,-15"/>
<polygon fill="#63b8ff" stroke="#63b8ff" points="362.7,-18.5 372.7,-15 362.7,-11.5 362.7,-18.5"/>
</a>
</g>
</g>
</g>
</svg>
