<?xml version="1.0" encoding="UTF-8" standalone="no"?>
<!DOCTYPE svg PUBLIC "-//W3C//DTD SVG 1.1//EN"
 "http://www.w3.org/Graphics/SVG/1.1/DTD/svg11.dtd">
<!-- Generated by graphviz version 2.43.0 (0)
 -->
<!-- Title: Plot::isVisible Pages: 1 -->
<svg width="386pt" height="114pt"
 viewBox="0.00 0.00 386.00 113.50" xmlns="http://www.w3.org/2000/svg" xmlns:xlink="http://www.w3.org/1999/xlink">
<g id="graph0" class="graph" transform="scale(1 1) rotate(0) translate(4 109.5)">
<title>Plot::isVisible</title>
<!-- Node1 -->
<g id="Node000001" class="node">
<title>Node1</title>
<g id="a_Node000001"><a xlink:title=" ">
<polygon fill="#999999" stroke="#666666" points="378,-57 295,-57 295,-38 378,-38 378,-57"/>
<text text-anchor="middle" x="336.5" y="-45" font-family="Helvetica,sans-Serif" font-size="10.00">Plot::isVisible</text>
</a>
</g>
</g>
<!-- Node2 -->
<g id="Node000002" class="node">
<title>Node2</title>
<g id="a_Node000002"><a xlink:href="classPlot.html#adedd221334385b32009b2cc40bf0c593" target="_top" xlink:title=" ">
<polygon fill="white" stroke="#666666" points="249,-105.5 106,-105.5 106,-75.5 249,-75.5 249,-105.5"/>
<text text-anchor="start" x="114" y="-93.5" font-family="Helvetica,sans-Serif" font-size="10.00">Plot::onCurvesParameters</text>
<text text-anchor="middle" x="177.5" y="-82.5" font-family="Helvetica,sans-Serif" font-size="10.00">Changed</text>
</a>
</g>
</g>
<!-- Node1&#45;&gt;Node2 -->
<g id="edge1_Node000001_Node000002" class="edge">
<title>Node1&#45;&gt;Node2</title>
<g id="a_edge1_Node000001_Node000002"><a xlink:title=" ">
<path fill="none" stroke="#63b8ff" d="M290.77,-59.75C272.87,-64.65 252.08,-70.35 233.29,-75.49"/>
<polygon fill="#63b8ff" stroke="#63b8ff" points="291.94,-63.06 300.66,-57.04 290.09,-56.31 291.94,-63.06"/>
</a>
</g>
</g>
<!-- Node3 -->
<g id="Node000003" class="node">
<title>Node3</title>
<g id="a_Node000003"><a xlink:href="classPlot.html#a5b4b38ebab6fc69bd007d591c2bc61e3" target="_top" xlink:title=" ">
<polygon fill="white" stroke="#666666" points="60,-57 0,-57 0,-38 60,-38 60,-57"/>
<text text-anchor="middle" x="30" y="-45" font-family="Helvetica,sans-Serif" font-size="10.00">Plot::Plot</text>
</a>
</g>
</g>
<!-- Node1&#45;&gt;Node3 -->
<g id="edge5_Node000001_Node000003" class="edge">
<title>Node1&#45;&gt;Node3</title>
<g id="a_edge5_Node000001_Node000003"><a xlink:title=" ">
<path fill="none" stroke="#63b8ff" d="M284.44,-47.5C220.12,-47.5 111.79,-47.5 60.12,-47.5"/>
<polygon fill="#63b8ff" stroke="#63b8ff" points="284.75,-51 294.75,-47.5 284.75,-44 284.75,-51"/>
</a>
</g>
</g>
<!-- Node4 -->
<g id="Node000004" class="node">
<title>Node4</title>
<g id="a_Node000004"><a xlink:href="classPlot.html#a4133837d74e922c6004a306db48ffaa6" target="_top" xlink:title=" ">
<polygon fill="white" stroke="#666666" points="259,-19 96,-19 96,0 259,0 259,-19"/>
<text text-anchor="middle" x="177.5" y="-7" font-family="Helvetica,sans-Serif" font-size="10.00">Plot::onVisibleCurvesChanged</text>
</a>
</g>
</g>
<!-- Node1&#45;&gt;Node4 -->
<g id="edge3_Node000001_Node000004" class="edge">
<title>Node1&#45;&gt;Node4</title>
<g id="a_edge3_Node000001_Node000004"><a xlink:title=" ">
<path fill="none" stroke="#63b8ff" d="M286.05,-35.53C264.05,-30.21 238.51,-24.02 217.83,-19.02"/>
<polygon fill="#63b8ff" stroke="#63b8ff" points="285.34,-38.96 295.88,-37.91 286.99,-32.16 285.34,-38.96"/>
</a>
</g>
</g>
<!-- Node2&#45;&gt;Node3 -->
<g id="edge2_Node000002_Node000003" class="edge">
<title>Node2&#45;&gt;Node3</title>
<g id="a_edge2_Node000002_Node000003"><a xlink:title=" ">
<path fill="none" stroke="#63b8ff" d="M115.93,-72.6C96.58,-66.88 76.05,-60.81 60.02,-56.08"/>
<polygon fill="#63b8ff" stroke="#63b8ff" points="115.03,-75.98 125.61,-75.46 117.01,-69.27 115.03,-75.98"/>
</a>
</g>
</g>
<!-- Node4&#45;&gt;Node3 -->
<g id="edge4_Node000004_Node000003" class="edge">
<title>Node4&#45;&gt;Node3</title>
<g id="a_edge4_Node000004_Node000003"><a xlink:title=" ">
<path fill="none" stroke="#63b8ff" d="M129.95,-21.66C107.12,-27.62 80.32,-34.62 60.38,-39.83"/>
<polygon fill="#63b8ff" stroke="#63b8ff" points="130.99,-25 139.78,-19.09 129.22,-18.23 130.99,-25"/>
</a>
</g>
</g>
</g>
</svg>
