<?xml version="1.0" encoding="UTF-8" standalone="no"?>
<!DOCTYPE svg PUBLIC "-//W3C//DTD SVG 1.1//EN"
 "http://www.w3.org/Graphics/SVG/1.1/DTD/svg11.dtd">
<!-- Generated by graphviz version 2.43.0 (0)
 -->
<!-- Title: ActuatorSwitchViewModel::setStatusTexts Pages: 1 -->
<svg width="512pt" height="86pt"
 viewBox="0.00 0.00 512.00 86.00" xmlns="http://www.w3.org/2000/svg" xmlns:xlink="http://www.w3.org/1999/xlink">
<g id="graph0" class="graph" transform="scale(1 1) rotate(0) translate(4 82)">
<title>ActuatorSwitchViewModel::setStatusTexts</title>
<!-- Node1 -->
<g id="Node000001" class="node">
<title>Node1</title>
<g id="a_Node000001"><a xlink:title=" ">
<polygon fill="#999999" stroke="#666666" points="144,-56 0,-56 0,-26 144,-26 144,-56"/>
<text text-anchor="start" x="8" y="-44" font-family="Helvetica,sans-Serif" font-size="10.00">ActuatorSwitchViewModel</text>
<text text-anchor="middle" x="72" y="-33" font-family="Helvetica,sans-Serif" font-size="10.00">::setStatusTexts</text>
</a>
</g>
</g>
<!-- Node2 -->
<g id="Node000002" class="node">
<title>Node2</title>
<g id="a_Node000002"><a xlink:href="classActuatorSwitchViewModel.html#ab4c09aa374e91472f687b5c0c4374548" target="_top" xlink:title=" ">
<polygon fill="white" stroke="#666666" points="324,-35 180,-35 180,-5 324,-5 324,-35"/>
<text text-anchor="start" x="188" y="-23" font-family="Helvetica,sans-Serif" font-size="10.00">ActuatorSwitchViewModel</text>
<text text-anchor="middle" x="252" y="-12" font-family="Helvetica,sans-Serif" font-size="10.00">::setStatus</text>
</a>
</g>
</g>
<!-- Node1&#45;&gt;Node2 -->
<g id="edge1_Node000001_Node000002" class="edge">
<title>Node1&#45;&gt;Node2</title>
<g id="a_edge1_Node000001_Node000002"><a xlink:title=" ">
<path fill="none" stroke="#63b8ff" d="M144.12,-32.61C152.61,-31.61 161.33,-30.58 169.94,-29.56"/>
<polygon fill="#63b8ff" stroke="#63b8ff" points="170.47,-33.02 180,-28.38 169.65,-26.07 170.47,-33.02"/>
</a>
</g>
</g>
<!-- Node3 -->
<g id="Node000003" class="node">
<title>Node3</title>
<g id="a_Node000003"><a xlink:href="classActuatorSwitchViewModel.html#a7aaf2fb748566dee79c0bd0945fcc51b" target="_top" xlink:title=" ">
<polygon fill="white" stroke="#666666" points="504,-78 360,-78 360,-48 504,-48 504,-78"/>
<text text-anchor="start" x="368" y="-66" font-family="Helvetica,sans-Serif" font-size="10.00">ActuatorSwitchViewModel</text>
<text text-anchor="middle" x="432" y="-55" font-family="Helvetica,sans-Serif" font-size="10.00">::status</text>
</a>
</g>
</g>
<!-- Node1&#45;&gt;Node3 -->
<g id="edge4_Node000001_Node000003" class="edge">
<title>Node1&#45;&gt;Node3</title>
<g id="a_edge4_Node000001_Node000003"><a xlink:title=" ">
<path fill="none" stroke="#63b8ff" d="M144.16,-45.37C203.46,-49.02 287.93,-54.21 349.85,-58.01"/>
<polygon fill="#63b8ff" stroke="#63b8ff" points="349.78,-61.52 359.98,-58.64 350.21,-54.53 349.78,-61.52"/>
</a>
</g>
</g>
<!-- Node2&#45;&gt;Node3 -->
<g id="edge2_Node000002_Node000003" class="edge">
<title>Node2&#45;&gt;Node3</title>
<g id="a_edge2_Node000002_Node000003"><a xlink:title=" ">
<path fill="none" stroke="#63b8ff" d="M315.26,-35.04C329.35,-38.44 344.43,-42.09 358.89,-45.58"/>
<polygon fill="#63b8ff" stroke="#63b8ff" points="358.24,-49.02 368.78,-47.97 359.88,-42.22 358.24,-49.02"/>
</a>
</g>
</g>
<!-- Node4 -->
<g id="Node000004" class="node">
<title>Node4</title>
<g id="a_Node000004"><a xlink:href="classActuatorSwitchViewModel.html#a3bbde8da90b8046f19e61bf927ca500d" target="_top" xlink:title=" ">
<polygon fill="white" stroke="#666666" points="504,-30 360,-30 360,0 504,0 504,-30"/>
<text text-anchor="start" x="368" y="-18" font-family="Helvetica,sans-Serif" font-size="10.00">ActuatorSwitchViewModel</text>
<text text-anchor="middle" x="432" y="-7" font-family="Helvetica,sans-Serif" font-size="10.00">::statusChanged</text>
</a>
</g>
</g>
<!-- Node2&#45;&gt;Node4 -->
<g id="edge3_Node000002_Node000004" class="edge">
<title>Node2&#45;&gt;Node4</title>
<g id="a_edge3_Node000002_Node000004"><a xlink:title=" ">
<path fill="none" stroke="#63b8ff" d="M324.12,-18C332.61,-17.76 341.33,-17.52 349.94,-17.28"/>
<polygon fill="#63b8ff" stroke="#63b8ff" points="350.1,-20.77 360,-16.99 349.9,-13.78 350.1,-20.77"/>
</a>
</g>
</g>
</g>
</svg>
