<?xml version="1.0" encoding="UTF-8" standalone="no"?>
<!DOCTYPE svg PUBLIC "-//W3C//DTD SVG 1.1//EN"
 "http://www.w3.org/Graphics/SVG/1.1/DTD/svg11.dtd">
<!-- Generated by graphviz version 2.43.0 (0)
 -->
<!-- Title: UdpChannelParametersViewModel Pages: 1 -->
<svg width="168pt" height="359pt"
 viewBox="0.00 0.00 168.00 359.00" xmlns="http://www.w3.org/2000/svg" xmlns:xlink="http://www.w3.org/1999/xlink">
<g id="graph0" class="graph" transform="scale(1 1) rotate(0) translate(4 355)">
<title>UdpChannelParametersViewModel</title>
<!-- Node1 -->
<g id="Node000001" class="node">
<title>Node1</title>
<g id="a_Node000001"><a xlink:title=" ">
<polygon fill="#999999" stroke="transparent" points="160,-266 0,-266 0,0 160,0 160,-266"/>
<text text-anchor="start" x="10.5" y="-254" font-family="Helvetica,sans-Serif" font-size="10.00">UdpChannelParametersView</text>
<text text-anchor="start" x="64.5" y="-243" font-family="Helvetica,sans-Serif" font-size="10.00">Model</text>
<text text-anchor="start" x="6.5" y="-228" font-family="Helvetica,sans-Serif" font-size="10.00">&#45;</text>
<text text-anchor="start" x="17" y="-228" font-family="Helvetica,sans-Serif" font-size="10.00">m_EndpointPort</text>
<text text-anchor="start" x="6.5" y="-213" font-family="Helvetica,sans-Serif" font-size="10.00">&#45;</text>
<text text-anchor="start" x="17" y="-213" font-family="Helvetica,sans-Serif" font-size="10.00">m_EndpointAdress</text>
<text text-anchor="start" x="6.5" y="-198" font-family="Helvetica,sans-Serif" font-size="10.00">&#45;</text>
<text text-anchor="start" x="17" y="-198" font-family="Helvetica,sans-Serif" font-size="10.00">m_TargetPort</text>
<text text-anchor="start" x="6.5" y="-183" font-family="Helvetica,sans-Serif" font-size="10.00">&#45;</text>
<text text-anchor="start" x="17" y="-183" font-family="Helvetica,sans-Serif" font-size="10.00">m_TargetAdress</text>
<text text-anchor="start" x="6.5" y="-168" font-family="Helvetica,sans-Serif" font-size="10.00">&#45;</text>
<text text-anchor="start" x="17" y="-168" font-family="Helvetica,sans-Serif" font-size="10.00">m_udpChannel</text>
<text text-anchor="start" x="4" y="-153" font-family="Helvetica,sans-Serif" font-size="10.00">+</text>
<text text-anchor="start" x="17" y="-153" font-family="Helvetica,sans-Serif" font-size="10.00">UdpChannelParametersView</text>
<text text-anchor="start" x="17" y="-142" font-family="Helvetica,sans-Serif" font-size="10.00">Model()</text>
<text text-anchor="start" x="4" y="-127" font-family="Helvetica,sans-Serif" font-size="10.00">+</text>
<text text-anchor="start" x="17" y="-127" font-family="Helvetica,sans-Serif" font-size="10.00">EndpointPort()</text>
<text text-anchor="start" x="4" y="-112" font-family="Helvetica,sans-Serif" font-size="10.00">+</text>
<text text-anchor="start" x="17" y="-112" font-family="Helvetica,sans-Serif" font-size="10.00">setEndpointPort()</text>
<text text-anchor="start" x="4" y="-97" font-family="Helvetica,sans-Serif" font-size="10.00">+</text>
<text text-anchor="start" x="17" y="-97" font-family="Helvetica,sans-Serif" font-size="10.00">EndpointAdress()</text>
<text text-anchor="start" x="4" y="-82" font-family="Helvetica,sans-Serif" font-size="10.00">+</text>
<text text-anchor="start" x="17" y="-82" font-family="Helvetica,sans-Serif" font-size="10.00">setEndpointAdress()</text>
<text text-anchor="start" x="4" y="-67" font-family="Helvetica,sans-Serif" font-size="10.00">+</text>
<text text-anchor="start" x="17" y="-67" font-family="Helvetica,sans-Serif" font-size="10.00">TargetPort()</text>
<text text-anchor="start" x="4" y="-52" font-family="Helvetica,sans-Serif" font-size="10.00">+</text>
<text text-anchor="start" x="17" y="-52" font-family="Helvetica,sans-Serif" font-size="10.00">setTargetPort()</text>
<text text-anchor="start" x="4" y="-37" font-family="Helvetica,sans-Serif" font-size="10.00">+</text>
<text text-anchor="start" x="17" y="-37" font-family="Helvetica,sans-Serif" font-size="10.00">TargetAdress()</text>
<text text-anchor="start" x="4" y="-22" font-family="Helvetica,sans-Serif" font-size="10.00">+</text>
<text text-anchor="start" x="17" y="-22" font-family="Helvetica,sans-Serif" font-size="10.00">setTargetAdress()</text>
<text text-anchor="start" x="4" y="-7" font-family="Helvetica,sans-Serif" font-size="10.00">+</text>
<text text-anchor="start" x="17" y="-7" font-family="Helvetica,sans-Serif" font-size="10.00">restartEndpoint()</text>
<polygon fill="#666666" stroke="#666666" points="0,-238 0,-238 160,-238 160,-238 0,-238"/>
<polygon fill="#666666" stroke="#666666" points="0,-163 0,-163 15,-163 15,-163 0,-163"/>
<polygon fill="#666666" stroke="#666666" points="15,-163 15,-163 160,-163 160,-163 15,-163"/>
<polygon fill="none" stroke="#666666" points="0,0 0,-266 160,-266 160,0 0,0"/>
</a>
</g>
</g>
<!-- Node2 -->
<g id="Node000002" class="node">
<title>Node2</title>
<g id="a_Node000002"><a xlink:title=" ">
<polygon fill="white" stroke="transparent" points="105,-351 55,-351 55,-302 105,-302 105,-351"/>
<text text-anchor="start" x="60" y="-338.5" font-family="Helvetica,sans-Serif" font-size="10.00">QObject</text>
<text text-anchor="start" x="78" y="-323.5" font-family="Helvetica,sans-Serif" font-size="10.00"> </text>
<text text-anchor="start" x="78" y="-308.5" font-family="Helvetica,sans-Serif" font-size="10.00"> </text>
<polygon fill="#666666" stroke="#666666" points="55,-333.5 55,-333.5 105,-333.5 105,-333.5 55,-333.5"/>
<polygon fill="#666666" stroke="#666666" points="55,-318.5 55,-318.5 105,-318.5 105,-318.5 55,-318.5"/>
<polygon fill="none" stroke="#666666" points="55,-302 55,-351 105,-351 105,-302 55,-302"/>
</a>
</g>
</g>
<!-- Node2&#45;&gt;Node1 -->
<g id="edge1_Node000001_Node000002" class="edge">
<title>Node2&#45;&gt;Node1</title>
<g id="a_edge1_Node000001_Node000002"><a xlink:title=" ">
<path fill="none" stroke="#63b8ff" d="M80,-291.5C80,-283.87 80,-275.34 80,-266.29"/>
<polygon fill="none" stroke="#63b8ff" points="76.5,-291.63 80,-301.63 83.5,-291.63 76.5,-291.63"/>
</a>
</g>
</g>
</g>
</svg>
