<?xml version="1.0" encoding="UTF-8" standalone="no"?>
<!DOCTYPE svg PUBLIC "-//W3C//DTD SVG 1.1//EN"
 "http://www.w3.org/Graphics/SVG/1.1/DTD/svg11.dtd">
<!-- Generated by graphviz version 2.43.0 (0)
 -->
<!-- Title: ExportMenuViewModel::requestFileDialogWindow Pages: 1 -->
<svg width="869pt" height="59pt"
 viewBox="0.00 0.00 869.00 59.00" xmlns="http://www.w3.org/2000/svg" xmlns:xlink="http://www.w3.org/1999/xlink">
<g id="graph0" class="graph" transform="scale(1 1) rotate(0) translate(4 55)">
<title>ExportMenuViewModel::requestFileDialogWindow</title>
<!-- Node1 -->
<g id="Node000001" class="node">
<title>Node1</title>
<g id="a_Node000001"><a xlink:title=" ">
<polygon fill="#999999" stroke="#666666" points="861,-51 714,-51 714,-21 861,-21 861,-51"/>
<text text-anchor="start" x="722" y="-39" font-family="Helvetica,sans-Serif" font-size="10.00">ExportMenuViewModel</text>
<text text-anchor="middle" x="787.5" y="-28" font-family="Helvetica,sans-Serif" font-size="10.00">::requestFileDialogWindow</text>
</a>
</g>
</g>
<!-- Node2 -->
<g id="Node000002" class="node">
<title>Node2</title>
<g id="a_Node000002"><a xlink:href="classExportMenu.html#aad47eee6721b4f7a152a093c99672ac9" target="_top" xlink:title=" ">
<polygon fill="white" stroke="#666666" points="140,-48.5 0,-48.5 0,-29.5 140,-29.5 140,-48.5"/>
<text text-anchor="middle" x="70" y="-36.5" font-family="Helvetica,sans-Serif" font-size="10.00">ExportMenu::ExportMenu</text>
</a>
</g>
</g>
<!-- Node1&#45;&gt;Node2 -->
<g id="edge1_Node000001_Node000002" class="edge">
<title>Node1&#45;&gt;Node2</title>
<g id="a_edge1_Node000001_Node000002"><a xlink:title=" ">
<path fill="none" stroke="#63b8ff" d="M703.69,-38.53C695.02,-38.72 686.33,-38.88 678,-39 483.06,-41.69 252.88,-40.49 140.19,-39.62"/>
<polygon fill="#63b8ff" stroke="#63b8ff" points="703.93,-42.02 713.84,-38.29 703.76,-35.02 703.93,-42.02"/>
</a>
</g>
</g>
<!-- Node3 -->
<g id="Node000003" class="node">
<title>Node3</title>
<g id="a_Node000003"><a xlink:href="classExportMenuViewModel.html#a09ec6498ecf1657151562a2c670c3981" target="_top" xlink:title=" ">
<polygon fill="white" stroke="#666666" points="678,-30 549,-30 549,0 678,0 678,-30"/>
<text text-anchor="start" x="557" y="-18" font-family="Helvetica,sans-Serif" font-size="10.00">ExportMenuViewModel</text>
<text text-anchor="middle" x="613.5" y="-7" font-family="Helvetica,sans-Serif" font-size="10.00">::selectAction</text>
</a>
</g>
</g>
<!-- Node1&#45;&gt;Node3 -->
<g id="edge2_Node000001_Node000003" class="edge">
<title>Node1&#45;&gt;Node3</title>
<g id="a_edge2_Node000001_Node000003"><a xlink:title=" ">
<path fill="none" stroke="#63b8ff" d="M703.53,-25.87C694.96,-24.82 686.35,-23.77 678.03,-22.76"/>
<polygon fill="#63b8ff" stroke="#63b8ff" points="703.21,-29.36 713.56,-27.09 704.05,-22.41 703.21,-29.36"/>
</a>
</g>
</g>
<!-- Node4 -->
<g id="Node000004" class="node">
<title>Node4</title>
<g id="a_Node000004"><a xlink:href="classExportMenu.html#aef6d81eddb25b7196317736fcf088b21" target="_top" xlink:title=" ">
<polygon fill="white" stroke="#666666" points="513,-27.5 397,-27.5 397,-8.5 513,-8.5 513,-27.5"/>
<text text-anchor="middle" x="455" y="-15.5" font-family="Helvetica,sans-Serif" font-size="10.00">ExportMenu::addFile</text>
</a>
</g>
</g>
<!-- Node3&#45;&gt;Node4 -->
<g id="edge3_Node000003_Node000004" class="edge">
<title>Node3&#45;&gt;Node4</title>
<g id="a_edge3_Node000003_Node000004"><a xlink:title=" ">
<path fill="none" stroke="#63b8ff" d="M538.76,-16.41C530.13,-16.58 521.42,-16.75 513.05,-16.91"/>
<polygon fill="#63b8ff" stroke="#63b8ff" points="538.91,-19.91 548.85,-16.22 538.78,-12.91 538.91,-19.91"/>
</a>
</g>
</g>
<!-- Node5 -->
<g id="Node000005" class="node">
<title>Node5</title>
<g id="a_Node000005"><a xlink:href="classExportMenu.html#a1829a47dc07068cc9eb6067ca63eb97a" target="_top" xlink:title=" ">
<polygon fill="white" stroke="#666666" points="361,-29.5 176,-29.5 176,-10.5 361,-10.5 361,-29.5"/>
<text text-anchor="middle" x="268.5" y="-17.5" font-family="Helvetica,sans-Serif" font-size="10.00">ExportMenu::onMenuAboutToShow</text>
</a>
</g>
</g>
<!-- Node4&#45;&gt;Node5 -->
<g id="edge4_Node000004_Node000005" class="edge">
<title>Node4&#45;&gt;Node5</title>
<g id="a_edge4_Node000004_Node000005"><a xlink:title=" ">
<path fill="none" stroke="#63b8ff" d="M386.88,-18.73C378.54,-18.82 369.9,-18.91 361.26,-19.01"/>
<polygon fill="#63b8ff" stroke="#63b8ff" points="386.93,-22.23 396.89,-18.62 386.85,-15.23 386.93,-22.23"/>
</a>
</g>
</g>
<!-- Node5&#45;&gt;Node2 -->
<g id="edge5_Node000005_Node000002" class="edge">
<title>Node5&#45;&gt;Node2</title>
<g id="a_edge5_Node000005_Node000002"><a xlink:title=" ">
<path fill="none" stroke="#63b8ff" d="M165.72,-29.84C157.08,-30.68 148.47,-31.51 140.17,-32.31"/>
<polygon fill="#63b8ff" stroke="#63b8ff" points="166.25,-33.31 175.87,-28.86 165.58,-26.34 166.25,-33.31"/>
</a>
</g>
</g>
</g>
</svg>
