<?xml version="1.0" encoding="UTF-8" standalone="no"?>
<!DOCTYPE svg PUBLIC "-//W3C//DTD SVG 1.1//EN"
 "http://www.w3.org/Graphics/SVG/1.1/DTD/svg11.dtd">
<!-- Generated by graphviz version 2.43.0 (0)
 -->
<!-- Title: PidTab::PidTab Pages: 1 -->
<svg width="474pt" height="364pt"
 viewBox="0.00 0.00 474.00 364.00" xmlns="http://www.w3.org/2000/svg" xmlns:xlink="http://www.w3.org/1999/xlink">
<g id="graph0" class="graph" transform="scale(1 1) rotate(0) translate(4 360)">
<title>PidTab::PidTab</title>
<!-- Node1 -->
<g id="Node000001" class="node">
<title>Node1</title>
<g id="a_Node000001"><a xlink:title=" ">
<polygon fill="#999999" stroke="#666666" points="86,-163.5 0,-163.5 0,-144.5 86,-144.5 86,-163.5"/>
<text text-anchor="middle" x="43" y="-151.5" font-family="Helvetica,sans-Serif" font-size="10.00">PidTab::PidTab</text>
</a>
</g>
</g>
<!-- Node2 -->
<g id="Node000002" class="node">
<title>Node2</title>
<g id="a_Node000002"><a xlink:href="classStatusTableWidget.html#a76e50b9a999c694b5d10763bd7473303" target="_top" xlink:title=" ">
<polygon fill="white" stroke="#666666" points="260.5,-260 147.5,-260 147.5,-230 260.5,-230 260.5,-260"/>
<text text-anchor="start" x="155.5" y="-248" font-family="Helvetica,sans-Serif" font-size="10.00">StatusTableWidget::</text>
<text text-anchor="middle" x="204" y="-237" font-family="Helvetica,sans-Serif" font-size="10.00">addActuator</text>
</a>
</g>
</g>
<!-- Node1&#45;&gt;Node2 -->
<g id="edge1_Node000001_Node000002" class="edge">
<title>Node1&#45;&gt;Node2</title>
<g id="a_edge1_Node000001_Node000002"><a xlink:title=" ">
<path fill="none" stroke="#63b8ff" d="M52.63,-163.66C66.08,-178.15 93.47,-205.46 122,-221 126.91,-223.68 132.15,-226.09 137.52,-228.25"/>
<polygon fill="#63b8ff" stroke="#63b8ff" points="136.69,-231.68 147.28,-231.89 139.13,-225.12 136.69,-231.68"/>
</a>
</g>
</g>
<!-- Node8 -->
<g id="Node000008" class="node">
<title>Node8</title>
<g id="a_Node000008"><a xlink:href="classPidLayout.html#ad2b4fc86313cf6591f70bb093d8c6129" target="_top" xlink:title=" ">
<polygon fill="white" stroke="#666666" points="265.5,-163.5 142.5,-163.5 142.5,-144.5 265.5,-144.5 265.5,-163.5"/>
<text text-anchor="middle" x="204" y="-151.5" font-family="Helvetica,sans-Serif" font-size="10.00">PidLayout::addWidget</text>
</a>
</g>
</g>
<!-- Node1&#45;&gt;Node8 -->
<g id="edge7_Node000001_Node000008" class="edge">
<title>Node1&#45;&gt;Node8</title>
<g id="a_edge7_Node000001_Node000008"><a xlink:title=" ">
<path fill="none" stroke="#63b8ff" d="M86.19,-154C100.3,-154 116.45,-154 132.13,-154"/>
<polygon fill="#63b8ff" stroke="#63b8ff" points="132.35,-157.5 142.35,-154 132.35,-150.5 132.35,-157.5"/>
</a>
</g>
</g>
<!-- Node9 -->
<g id="Node000009" class="node">
<title>Node9</title>
<g id="a_Node000009"><a xlink:href="classActuatorSwitchViewModel.html#a83e42640f24a341b32969d3a27dd0bc9" target="_top" xlink:title=" ">
<polygon fill="white" stroke="#666666" points="276,-332 132,-332 132,-302 276,-302 276,-332"/>
<text text-anchor="start" x="140" y="-320" font-family="Helvetica,sans-Serif" font-size="10.00">ActuatorSwitchViewModel</text>
<text text-anchor="middle" x="204" y="-309" font-family="Helvetica,sans-Serif" font-size="10.00">::setName</text>
</a>
</g>
</g>
<!-- Node1&#45;&gt;Node9 -->
<g id="edge8_Node000001_Node000009" class="edge">
<title>Node1&#45;&gt;Node9</title>
<g id="a_edge8_Node000001_Node000009"><a xlink:title=" ">
<path fill="none" stroke="#63b8ff" d="M48.68,-163.67C59.3,-184.86 87.03,-236.11 122,-269 133.51,-279.83 147.88,-289.33 161.31,-296.95"/>
<polygon fill="#63b8ff" stroke="#63b8ff" points="159.95,-300.2 170.41,-301.92 163.31,-294.06 159.95,-300.2"/>
</a>
</g>
</g>
<!-- Node10 -->
<g id="Node000010" class="node">
<title>Node10</title>
<g id="a_Node000010"><a xlink:href="classSensorValueIndicatorViewModel.html#aef0edfa7841cfd3c72b35d2c9dad4b20" target="_top" xlink:title=" ">
<polygon fill="white" stroke="#666666" points="275.5,-126 132.5,-126 132.5,-96 275.5,-96 275.5,-126"/>
<text text-anchor="start" x="140.5" y="-114" font-family="Helvetica,sans-Serif" font-size="10.00">SensorValueIndicatorView</text>
<text text-anchor="middle" x="204" y="-103" font-family="Helvetica,sans-Serif" font-size="10.00">Model::setName</text>
</a>
</g>
</g>
<!-- Node1&#45;&gt;Node10 -->
<g id="edge10_Node000001_Node000010" class="edge">
<title>Node1&#45;&gt;Node10</title>
<g id="a_edge10_Node000001_Node000010"><a xlink:title=" ">
<path fill="none" stroke="#63b8ff" d="M79.29,-144.46C96.51,-139.8 117.78,-134.05 137.81,-128.63"/>
<polygon fill="#63b8ff" stroke="#63b8ff" points="138.77,-132 147.51,-126.01 136.94,-125.24 138.77,-132"/>
</a>
</g>
</g>
<!-- Node11 -->
<g id="Node000011" class="node">
<title>Node11</title>
<g id="a_Node000011"><a xlink:href="classSensorValueIndicatorViewModel.html#a60d7e4b92a185d13cc2c8460302e1e01" target="_top" xlink:title=" ">
<polygon fill="white" stroke="#666666" points="275.5,-78 132.5,-78 132.5,-48 275.5,-48 275.5,-78"/>
<text text-anchor="start" x="140.5" y="-66" font-family="Helvetica,sans-Serif" font-size="10.00">SensorValueIndicatorView</text>
<text text-anchor="middle" x="204" y="-55" font-family="Helvetica,sans-Serif" font-size="10.00">Model::setParameters</text>
</a>
</g>
</g>
<!-- Node1&#45;&gt;Node11 -->
<g id="edge11_Node000001_Node000011" class="edge">
<title>Node1&#45;&gt;Node11</title>
<g id="a_edge11_Node000001_Node000011"><a xlink:title=" ">
<path fill="none" stroke="#63b8ff" d="M52.63,-144.34C66.08,-129.85 93.47,-102.54 122,-87 125.28,-85.21 128.72,-83.54 132.24,-81.98"/>
<polygon fill="#63b8ff" stroke="#63b8ff" points="133.78,-85.13 141.72,-78.11 131.14,-78.65 133.78,-85.13"/>
</a>
</g>
</g>
<!-- Node12 -->
<g id="Node000012" class="node">
<title>Node12</title>
<g id="a_Node000012"><a xlink:href="classActuatorSwitchViewModel.html#ab4c09aa374e91472f687b5c0c4374548" target="_top" xlink:title=" ">
<polygon fill="white" stroke="#666666" points="276,-212 132,-212 132,-182 276,-182 276,-212"/>
<text text-anchor="start" x="140" y="-200" font-family="Helvetica,sans-Serif" font-size="10.00">ActuatorSwitchViewModel</text>
<text text-anchor="middle" x="204" y="-189" font-family="Helvetica,sans-Serif" font-size="10.00">::setStatus</text>
</a>
</g>
</g>
<!-- Node1&#45;&gt;Node12 -->
<g id="edge12_Node000001_Node000012" class="edge">
<title>Node1&#45;&gt;Node12</title>
<g id="a_edge12_Node000001_Node000012"><a xlink:title=" ">
<path fill="none" stroke="#63b8ff" d="M79.29,-163.54C96.51,-168.2 117.78,-173.95 137.81,-179.37"/>
<polygon fill="#63b8ff" stroke="#63b8ff" points="136.94,-182.76 147.51,-181.99 138.77,-176 136.94,-182.76"/>
</a>
</g>
</g>
<!-- Node13 -->
<g id="Node000013" class="node">
<title>Node13</title>
<g id="a_Node000013"><a xlink:href="classTankPressureSettingsIndicatorViewModel.html#ab9f9c0e59cadaa1146ecb3b7c5bde7a4" target="_top" xlink:title=" ">
<polygon fill="white" stroke="#666666" points="286,-30 122,-30 122,0 286,0 286,-30"/>
<text text-anchor="start" x="130" y="-18" font-family="Helvetica,sans-Serif" font-size="10.00">TankPressureSettingsIndicator</text>
<text text-anchor="middle" x="204" y="-7" font-family="Helvetica,sans-Serif" font-size="10.00">ViewModel::setTankName</text>
</a>
</g>
</g>
<!-- Node1&#45;&gt;Node13 -->
<g id="edge15_Node000001_Node000013" class="edge">
<title>Node1&#45;&gt;Node13</title>
<g id="a_edge15_Node000001_Node000013"><a xlink:title=" ">
<path fill="none" stroke="#63b8ff" d="M47.83,-144.32C57.1,-122.19 82.86,-67.62 122,-39 124.07,-37.48 126.24,-36.06 128.48,-34.73"/>
<polygon fill="#63b8ff" stroke="#63b8ff" points="130.21,-37.78 137.43,-30.03 126.95,-31.58 130.21,-37.78"/>
</a>
</g>
</g>
<!-- Node3 -->
<g id="Node000003" class="node">
<title>Node3</title>
<g id="a_Node000003"><a xlink:href="classActuatorSwitchViewModel.html#a166e3b6ceb009e6c088837c83b6ca62a" target="_top" xlink:title=" ">
<polygon fill="white" stroke="#666666" points="466,-356 322,-356 322,-326 466,-326 466,-356"/>
<text text-anchor="start" x="330" y="-344" font-family="Helvetica,sans-Serif" font-size="10.00">ActuatorSwitchViewModel</text>
<text text-anchor="middle" x="394" y="-333" font-family="Helvetica,sans-Serif" font-size="10.00">::name</text>
</a>
</g>
</g>
<!-- Node2&#45;&gt;Node3 -->
<g id="edge2_Node000002_Node000003" class="edge">
<title>Node2&#45;&gt;Node3</title>
<g id="a_edge2_Node000002_Node000003"><a xlink:title=" ">
<path fill="none" stroke="#63b8ff" d="M231.11,-260C247.09,-269.3 267.87,-281.6 286,-293 302.28,-303.24 304.74,-308.52 322,-317 325.74,-318.84 329.66,-320.6 333.66,-322.26"/>
<polygon fill="#63b8ff" stroke="#63b8ff" points="332.47,-325.56 343.06,-325.97 335.04,-319.04 332.47,-325.56"/>
</a>
</g>
</g>
<!-- Node4 -->
<g id="Node000004" class="node">
<title>Node4</title>
<g id="a_Node000004"><a xlink:href="classActuatorSwitchViewModel.html#a7aaf2fb748566dee79c0bd0945fcc51b" target="_top" xlink:title=" ">
<polygon fill="white" stroke="#666666" points="466,-164 322,-164 322,-134 466,-134 466,-164"/>
<text text-anchor="start" x="330" y="-152" font-family="Helvetica,sans-Serif" font-size="10.00">ActuatorSwitchViewModel</text>
<text text-anchor="middle" x="394" y="-141" font-family="Helvetica,sans-Serif" font-size="10.00">::status</text>
</a>
</g>
</g>
<!-- Node2&#45;&gt;Node4 -->
<g id="edge3_Node000002_Node000004" class="edge">
<title>Node2&#45;&gt;Node4</title>
<g id="a_edge3_Node000002_Node000004"><a xlink:title=" ">
<path fill="none" stroke="#63b8ff" d="M260.76,-233.64C269.66,-230.41 278.41,-226.28 286,-221 307.89,-205.77 300.4,-188.64 322,-173 324.07,-171.5 326.25,-170.08 328.5,-168.76"/>
<polygon fill="#63b8ff" stroke="#63b8ff" points="330.25,-171.79 337.48,-164.04 327,-165.59 330.25,-171.79"/>
</a>
</g>
</g>
<!-- Node5 -->
<g id="Node000005" class="node">
<title>Node5</title>
<g id="a_Node000005"><a xlink:href="classActuatorSwitchViewModel.html#a3bbde8da90b8046f19e61bf927ca500d" target="_top" xlink:title=" ">
<polygon fill="white" stroke="#666666" points="466,-212 322,-212 322,-182 466,-182 466,-212"/>
<text text-anchor="start" x="330" y="-200" font-family="Helvetica,sans-Serif" font-size="10.00">ActuatorSwitchViewModel</text>
<text text-anchor="middle" x="394" y="-189" font-family="Helvetica,sans-Serif" font-size="10.00">::statusChanged</text>
</a>
</g>
</g>
<!-- Node2&#45;&gt;Node5 -->
<g id="edge4_Node000002_Node000005" class="edge">
<title>Node2&#45;&gt;Node5</title>
<g id="a_edge4_Node000002_Node000005"><a xlink:title=" ">
<path fill="none" stroke="#63b8ff" d="M260.64,-230.79C280.65,-225.69 303.45,-219.86 324.42,-214.51"/>
<polygon fill="#63b8ff" stroke="#63b8ff" points="325.41,-217.87 334.23,-212.01 323.67,-211.09 325.41,-217.87"/>
</a>
</g>
</g>
<!-- Node6 -->
<g id="Node000006" class="node">
<title>Node6</title>
<g id="a_Node000006"><a xlink:href="classActuatorSwitchViewModel.html#a2461315c8f0335feb9a6f33b94e23734" target="_top" xlink:title=" ">
<polygon fill="white" stroke="#666666" points="466,-260 322,-260 322,-230 466,-230 466,-260"/>
<text text-anchor="start" x="330" y="-248" font-family="Helvetica,sans-Serif" font-size="10.00">ActuatorSwitchViewModel</text>
<text text-anchor="middle" x="394" y="-237" font-family="Helvetica,sans-Serif" font-size="10.00">::statusColor</text>
</a>
</g>
</g>
<!-- Node2&#45;&gt;Node6 -->
<g id="edge5_Node000002_Node000006" class="edge">
<title>Node2&#45;&gt;Node6</title>
<g id="a_edge5_Node000002_Node000006"><a xlink:title=" ">
<path fill="none" stroke="#63b8ff" d="M260.64,-245C276.66,-245 294.48,-245 311.71,-245"/>
<polygon fill="#63b8ff" stroke="#63b8ff" points="311.77,-248.5 321.77,-245 311.77,-241.5 311.77,-248.5"/>
</a>
</g>
</g>
<!-- Node7 -->
<g id="Node000007" class="node">
<title>Node7</title>
<g id="a_Node000007"><a xlink:href="classActuatorSwitchWidget.html#a42152c89d1cb6de91e28cacdd673026c" target="_top" xlink:title=" ">
<polygon fill="white" stroke="#666666" points="456.5,-308 331.5,-308 331.5,-278 456.5,-278 456.5,-308"/>
<text text-anchor="start" x="339.5" y="-296" font-family="Helvetica,sans-Serif" font-size="10.00">ActuatorSwitchWidget</text>
<text text-anchor="middle" x="394" y="-285" font-family="Helvetica,sans-Serif" font-size="10.00">::viewModel</text>
</a>
</g>
</g>
<!-- Node2&#45;&gt;Node7 -->
<g id="edge6_Node000002_Node000007" class="edge">
<title>Node2&#45;&gt;Node7</title>
<g id="a_edge6_Node000002_Node000007"><a xlink:title=" ">
<path fill="none" stroke="#63b8ff" d="M260.64,-259.21C280.65,-264.31 303.45,-270.14 324.42,-275.49"/>
<polygon fill="#63b8ff" stroke="#63b8ff" points="323.67,-278.91 334.23,-277.99 325.41,-272.13 323.67,-278.91"/>
</a>
</g>
</g>
<!-- Node9&#45;&gt;Node3 -->
<g id="edge9_Node000009_Node000003" class="edge">
<title>Node9&#45;&gt;Node3</title>
<g id="a_edge9_Node000009_Node000003"><a xlink:title=" ">
<path fill="none" stroke="#63b8ff" d="M276.07,-326.07C287.77,-327.57 299.97,-329.12 311.9,-330.65"/>
<polygon fill="#63b8ff" stroke="#63b8ff" points="311.46,-334.12 321.82,-331.91 312.35,-327.18 311.46,-334.12"/>
</a>
</g>
</g>
<!-- Node12&#45;&gt;Node4 -->
<g id="edge13_Node000012_Node000004" class="edge">
<title>Node12&#45;&gt;Node4</title>
<g id="a_edge13_Node000012_Node000004"><a xlink:title=" ">
<path fill="none" stroke="#63b8ff" d="M263.97,-181.94C283.13,-177.05 304.56,-171.58 324.36,-166.52"/>
<polygon fill="#63b8ff" stroke="#63b8ff" points="325.42,-169.87 334.24,-164 323.69,-163.09 325.42,-169.87"/>
</a>
</g>
</g>
<!-- Node12&#45;&gt;Node5 -->
<g id="edge14_Node000012_Node000005" class="edge">
<title>Node12&#45;&gt;Node5</title>
<g id="a_edge14_Node000012_Node000005"><a xlink:title=" ">
<path fill="none" stroke="#63b8ff" d="M276.07,-197C287.66,-197 299.73,-197 311.54,-197"/>
<polygon fill="#63b8ff" stroke="#63b8ff" points="311.82,-200.5 321.82,-197 311.82,-193.5 311.82,-200.5"/>
</a>
</g>
</g>
</g>
</svg>
