<?xml version="1.0" encoding="UTF-8" standalone="no"?>
<!DOCTYPE svg PUBLIC "-//W3C//DTD SVG 1.1//EN"
 "http://www.w3.org/Graphics/SVG/1.1/DTD/svg11.dtd">
<!-- Generated by graphviz version 2.43.0 (0)
 -->
<!-- Title: TestLauncherViewModel::fileList Pages: 1 -->
<svg width="516pt" height="38pt"
 viewBox="0.00 0.00 516.00 38.00" xmlns="http://www.w3.org/2000/svg" xmlns:xlink="http://www.w3.org/1999/xlink">
<g id="graph0" class="graph" transform="scale(1 1) rotate(0) translate(4 34)">
<title>TestLauncherViewModel::fileList</title>
<!-- Node1 -->
<g id="Node000001" class="node">
<title>Node1</title>
<g id="a_Node000001"><a xlink:title=" ">
<polygon fill="#999999" stroke="#666666" points="508,-30 374,-30 374,0 508,0 508,-30"/>
<text text-anchor="start" x="382" y="-18" font-family="Helvetica,sans-Serif" font-size="10.00">TestLauncherViewModel</text>
<text text-anchor="middle" x="441" y="-7" font-family="Helvetica,sans-Serif" font-size="10.00">::fileList</text>
</a>
</g>
</g>
<!-- Node2 -->
<g id="Node000002" class="node">
<title>Node2</title>
<g id="a_Node000002"><a xlink:href="classTestLauncher.html#a03e38c0bf99ad5769443589d74f8dbd3" target="_top" xlink:title=" ">
<polygon fill="white" stroke="#666666" points="338,-24.5 186,-24.5 186,-5.5 338,-5.5 338,-24.5"/>
<text text-anchor="middle" x="262" y="-12.5" font-family="Helvetica,sans-Serif" font-size="10.00">TestLauncher::renderFileList</text>
</a>
</g>
</g>
<!-- Node1&#45;&gt;Node2 -->
<g id="edge1_Node000001_Node000002" class="edge">
<title>Node1&#45;&gt;Node2</title>
<g id="a_edge1_Node000001_Node000002"><a xlink:title=" ">
<path fill="none" stroke="#63b8ff" d="M363.59,-15C355.11,-15 346.47,-15 338.01,-15"/>
<polygon fill="#63b8ff" stroke="#63b8ff" points="363.84,-18.5 373.84,-15 363.84,-11.5 363.84,-18.5"/>
</a>
</g>
</g>
<!-- Node3 -->
<g id="Node000003" class="node">
<title>Node3</title>
<g id="a_Node000003"><a xlink:href="classTestLauncher.html#a0b2015a489c9ef4b4258626629841e5a" target="_top" xlink:title=" ">
<polygon fill="white" stroke="#666666" points="150,-24.5 0,-24.5 0,-5.5 150,-5.5 150,-24.5"/>
<text text-anchor="middle" x="75" y="-12.5" font-family="Helvetica,sans-Serif" font-size="10.00">TestLauncher::TestLauncher</text>
</a>
</g>
</g>
<!-- Node2&#45;&gt;Node3 -->
<g id="edge2_Node000002_Node000003" class="edge">
<title>Node2&#45;&gt;Node3</title>
<g id="a_edge2_Node000002_Node000003"><a xlink:title=" ">
<path fill="none" stroke="#63b8ff" d="M175.53,-15C167.1,-15 158.59,-15 150.28,-15"/>
<polygon fill="#63b8ff" stroke="#63b8ff" points="175.75,-18.5 185.75,-15 175.75,-11.5 175.75,-18.5"/>
</a>
</g>
</g>
</g>
</svg>
