<?xml version="1.0" encoding="UTF-8" standalone="no"?>
<!DOCTYPE svg PUBLIC "-//W3C//DTD SVG 1.1//EN"
 "http://www.w3.org/Graphics/SVG/1.1/DTD/svg11.dtd">
<!-- Generated by graphviz version 2.43.0 (0)
 -->
<!-- Title: PlotViewModel Pages: 1 -->
<!--zoomable 1914 -->

<svg id="main" version="1.1" xmlns="http://www.w3.org/2000/svg" xmlns:xlink="http://www.w3.org/1999/xlink" xml:space="preserve" onload="init(evt)">
<style type="text/css"><![CDATA[
.node, .edge {opacity: 0.7;}
.node.selected, .edge.selected {opacity: 1;}
.edge:hover path { stroke: red; }
.edge:hover polygon { stroke: red; fill: red; }
]]></style>

<defs>
  <circle id="rim" cx="0" cy="0" r="7"/>
  <circle id="rim2" cx="0" cy="0" r="3.5"/>
  <g id="zoomPlus">
    <use xlink:href="#rim" fill="#404040"><set attributeName="fill" to="#808080" begin="zoomplus.mouseover" end="zoomplus.mouseout"/></use>
    <path d="M-4,0h8M0,-4v8" fill="none" stroke="white" stroke-width="1.5" pointer-events="none"/>
  </g>
  <g id="zoomMin">
    <use xlink:href="#rim" fill="#404040"><set attributeName="fill" to="#808080" begin="zoomminus.mouseover" end="zoomminus.mouseout"/></use>
    <path d="M-4,0h8" fill="none" stroke="white" stroke-width="1.5" pointer-events="none"/>
  </g>
  <g id="arrowUp" transform="translate(30 24)">
    <use xlink:href="#rim"/>
    <path pointer-events="none" fill="none" stroke="white" stroke-width="1.5" d="M0,-3.0v7 M-2.5,-0.5L0,-3.0L2.5,-0.5"/>
  </g>
  <g id="arrowRight" transform="rotate(90) translate(36 -43)">
    <use xlink:href="#rim"/>
    <path pointer-events="none" fill="none" stroke="white" stroke-width="1.5" d="M0,-3.0v7 M-2.5,-0.5L0,-3.0L2.5,-0.5"/>
  </g>
  <g id="arrowDown" transform="rotate(180) translate(-30 -48)">
    <use xlink:href="#rim"/>
    <path pointer-events="none" fill="none" stroke="white" stroke-width="1.5" d="M0,-3.0v7 M-2.5,-0.5L0,-3.0L2.5,-0.5"/>
  </g>
  <g id="arrowLeft" transform="rotate(270) translate(-36 17)">
    <use xlink:href="#rim"/>
    <path pointer-events="none" fill="none" stroke="white" stroke-width="1.5" d="M0,-3.0v7 M-2.5,-0.5L0,-3.0L2.5,-0.5"/>
  </g>
  <g id="resetDef">
    <use xlink:href="#rim2" fill="#404040"><set attributeName="fill" to="#808080" begin="reset.mouseover" end="reset.mouseout"/></use>
  </g>
</defs>
<script type="application/ecmascript">
var viewWidth = 625;
var viewHeight = 1914;
var sectionId = 'dynsection-1';
</script>
<script type="application/ecmascript" xlink:href="svg.min.js"/>
<svg id="graph" class="graph">
<g id="viewport">
<title>PlotViewModel</title>
<!-- Node1 -->
<g id="Node000001" class="node">
<title>Node1</title>
<g id="a_Node000001"><a xlink:title=" ">
<polygon fill="#999999" stroke="transparent" points="133,-394 0,-394 0,0 133,0 133,-394"/>
<text text-anchor="start" x="30.5" y="-382" font-family="Helvetica,sans-Serif" font-size="10.00">PlotViewModel</text>
<text text-anchor="start" x="7" y="-367" font-family="Helvetica,sans-Serif" font-size="10.00">&#45;</text>
<text text-anchor="start" x="17.5" y="-367" font-family="Helvetica,sans-Serif" font-size="10.00">m_title</text>
<text text-anchor="start" x="7" y="-352" font-family="Helvetica,sans-Serif" font-size="10.00">&#45;</text>
<text text-anchor="start" x="17.5" y="-352" font-family="Helvetica,sans-Serif" font-size="10.00">m_visibleCurves</text>
<text text-anchor="start" x="7" y="-337" font-family="Helvetica,sans-Serif" font-size="10.00">&#45;</text>
<text text-anchor="start" x="17.5" y="-337" font-family="Helvetica,sans-Serif" font-size="10.00">m_curveParameters</text>
<text text-anchor="start" x="7" y="-322" font-family="Helvetica,sans-Serif" font-size="10.00">&#45;</text>
<text text-anchor="start" x="17.5" y="-322" font-family="Helvetica,sans-Serif" font-size="10.00">m_timeRangeSelected</text>
<text text-anchor="start" x="7" y="-307" font-family="Helvetica,sans-Serif" font-size="10.00">&#45;</text>
<text text-anchor="start" x="17.5" y="-307" font-family="Helvetica,sans-Serif" font-size="10.00">m_timeRangeButtons</text>
<text text-anchor="start" x="7" y="-292" font-family="Helvetica,sans-Serif" font-size="10.00">&#45;</text>
<text text-anchor="start" x="17.5" y="-292" font-family="Helvetica,sans-Serif" font-size="10.00">m_currentTime</text>
<text text-anchor="start" x="7" y="-277" font-family="Helvetica,sans-Serif" font-size="10.00">&#45;</text>
<text text-anchor="start" x="17.5" y="-277" font-family="Helvetica,sans-Serif" font-size="10.00">m_currentTimeRange</text>
<text text-anchor="start" x="4.5" y="-262" font-family="Helvetica,sans-Serif" font-size="10.00">+</text>
<text text-anchor="start" x="17.5" y="-262" font-family="Helvetica,sans-Serif" font-size="10.00">PlotViewModel()</text>
<text text-anchor="start" x="4.5" y="-247" font-family="Helvetica,sans-Serif" font-size="10.00">+</text>
<text text-anchor="start" x="17.5" y="-247" font-family="Helvetica,sans-Serif" font-size="10.00">getValue()</text>
<text text-anchor="start" x="4.5" y="-232" font-family="Helvetica,sans-Serif" font-size="10.00">+</text>
<text text-anchor="start" x="17.5" y="-232" font-family="Helvetica,sans-Serif" font-size="10.00">getValueID()</text>
<text text-anchor="start" x="4.5" y="-217" font-family="Helvetica,sans-Serif" font-size="10.00">+</text>
<text text-anchor="start" x="17.5" y="-217" font-family="Helvetica,sans-Serif" font-size="10.00">curveParameters()</text>
<text text-anchor="start" x="4.5" y="-202" font-family="Helvetica,sans-Serif" font-size="10.00">+</text>
<text text-anchor="start" x="17.5" y="-202" font-family="Helvetica,sans-Serif" font-size="10.00">title()</text>
<text text-anchor="start" x="4.5" y="-187" font-family="Helvetica,sans-Serif" font-size="10.00">+</text>
<text text-anchor="start" x="17.5" y="-187" font-family="Helvetica,sans-Serif" font-size="10.00">addCurve()</text>
<text text-anchor="start" x="4.5" y="-172" font-family="Helvetica,sans-Serif" font-size="10.00">+</text>
<text text-anchor="start" x="17.5" y="-172" font-family="Helvetica,sans-Serif" font-size="10.00">timeRangeButtons()</text>
<text text-anchor="start" x="4.5" y="-157" font-family="Helvetica,sans-Serif" font-size="10.00">+</text>
<text text-anchor="start" x="17.5" y="-157" font-family="Helvetica,sans-Serif" font-size="10.00">visibleCurves()</text>
<text text-anchor="start" x="4.5" y="-142" font-family="Helvetica,sans-Serif" font-size="10.00">+</text>
<text text-anchor="start" x="17.5" y="-142" font-family="Helvetica,sans-Serif" font-size="10.00">timeRangeSelected()</text>
<text text-anchor="start" x="4.5" y="-127" font-family="Helvetica,sans-Serif" font-size="10.00">+</text>
<text text-anchor="start" x="17.5" y="-127" font-family="Helvetica,sans-Serif" font-size="10.00">currentTime()</text>
<text text-anchor="start" x="4.5" y="-112" font-family="Helvetica,sans-Serif" font-size="10.00">+</text>
<text text-anchor="start" x="17.5" y="-112" font-family="Helvetica,sans-Serif" font-size="10.00">selectedTimeRange()</text>
<text text-anchor="start" x="4.5" y="-97" font-family="Helvetica,sans-Serif" font-size="10.00">+</text>
<text text-anchor="start" x="17.5" y="-97" font-family="Helvetica,sans-Serif" font-size="10.00">selectTimeRange()</text>
<text text-anchor="start" x="4.5" y="-82" font-family="Helvetica,sans-Serif" font-size="10.00">+</text>
<text text-anchor="start" x="17.5" y="-82" font-family="Helvetica,sans-Serif" font-size="10.00">set()</text>
<text text-anchor="start" x="4.5" y="-67" font-family="Helvetica,sans-Serif" font-size="10.00">+</text>
<text text-anchor="start" x="17.5" y="-67" font-family="Helvetica,sans-Serif" font-size="10.00">setCurveID()</text>
<text text-anchor="start" x="4.5" y="-52" font-family="Helvetica,sans-Serif" font-size="10.00">+</text>
<text text-anchor="start" x="17.5" y="-52" font-family="Helvetica,sans-Serif" font-size="10.00">initialise()</text>
<text text-anchor="start" x="4.5" y="-37" font-family="Helvetica,sans-Serif" font-size="10.00">+</text>
<text text-anchor="start" x="17.5" y="-37" font-family="Helvetica,sans-Serif" font-size="10.00">isVisible()</text>
<text text-anchor="start" x="4.5" y="-22" font-family="Helvetica,sans-Serif" font-size="10.00">+</text>
<text text-anchor="start" x="17.5" y="-22" font-family="Helvetica,sans-Serif" font-size="10.00">onTimerTimout()</text>
<text text-anchor="start" x="4.5" y="-7" font-family="Helvetica,sans-Serif" font-size="10.00">+</text>
<text text-anchor="start" x="17.5" y="-7" font-family="Helvetica,sans-Serif" font-size="10.00">onSensorDataUpdate()</text>
<polygon fill="#666666" stroke="#666666" points="0.5,-377 0.5,-377 133.5,-377 133.5,-377 0.5,-377"/>
<polygon fill="#666666" stroke="#666666" points="0.5,-272 0.5,-272 15.5,-272 15.5,-272 0.5,-272"/>
<polygon fill="#666666" stroke="#666666" points="15.5,-272 15.5,-272 133.5,-272 133.5,-272 15.5,-272"/>
<polygon fill="none" stroke="#666666" points="0,0 0,-394 133,-394 133,0 0,0"/>
</a>
</g>
</g>
<!-- Node2 -->
<g id="Node000002" class="node">
<title>Node2</title>
<g id="a_Node000002"><a xlink:title=" ">
<polygon fill="white" stroke="transparent" points="248.5,-1906 198.5,-1906 198.5,-1857 248.5,-1857 248.5,-1906"/>
<text text-anchor="start" x="203.5" y="-1893.5" font-family="Helvetica,sans-Serif" font-size="10.00">QObject</text>
<text text-anchor="start" x="221.5" y="-1878.5" font-family="Helvetica,sans-Serif" font-size="10.00"> </text>
<text text-anchor="start" x="221.5" y="-1863.5" font-family="Helvetica,sans-Serif" font-size="10.00"> </text>
<polygon fill="#666666" stroke="#666666" points="198.5,-1888.5 198.5,-1888.5 248.5,-1888.5 248.5,-1888.5 198.5,-1888.5"/>
<polygon fill="#666666" stroke="#666666" points="198.5,-1873.5 198.5,-1873.5 248.5,-1873.5 248.5,-1873.5 198.5,-1873.5"/>
<polygon fill="none" stroke="#666666" points="198.5,-1857 198.5,-1906 248.5,-1906 248.5,-1857 198.5,-1857"/>
</a>
</g>
</g>
<!-- Node2&#45;&gt;Node1 -->
<g id="edge1_Node000001_Node000002" class="edge">
<title>Node2&#45;&gt;Node1</title>
<g id="a_edge1_Node000001_Node000002"><a xlink:title=" ">
<path fill="none" stroke="#63b8ff" d="M188.52,-1876.08C132.4,-1866.82 28.5,-1839.78 28.5,-1766.5 28.5,-1766.5 28.5,-1766.5 28.5,-517 28.5,-477.12 31.46,-434.64 35.74,-394.11"/>
<polygon fill="none" stroke="#63b8ff" points="187.99,-1879.54 198.41,-1877.61 189.06,-1872.62 187.99,-1879.54"/>
</a>
</g>
</g>
<!-- Node3 -->
<g id="Node000003" class="node">
<title>Node3</title>
<g id="a_Node000003"><a xlink:href="classTimer.html" target="_top" xlink:title="Timer that emit a signal at a certain frequency to synchronise the refresh of the app widgets.">
<polygon fill="white" stroke="transparent" points="160.5,-1693 44.5,-1693 44.5,-1569 160.5,-1569 160.5,-1693"/>
<text text-anchor="start" x="88" y="-1681" font-family="Helvetica,sans-Serif" font-size="10.00">Timer</text>
<text text-anchor="start" x="51" y="-1666" font-family="Helvetica,sans-Serif" font-size="10.00">&#45;</text>
<text text-anchor="start" x="61.5" y="-1666" font-family="Helvetica,sans-Serif" font-size="10.00">m_lastRefresh</text>
<text text-anchor="start" x="51" y="-1651" font-family="Helvetica,sans-Serif" font-size="10.00">&#45;</text>
<text text-anchor="start" x="61.5" y="-1651" font-family="Helvetica,sans-Serif" font-size="10.00">m_periodOfRefresh</text>
<text text-anchor="start" x="51" y="-1636" font-family="Helvetica,sans-Serif" font-size="10.00">&#45;</text>
<text text-anchor="start" x="61.5" y="-1636" font-family="Helvetica,sans-Serif" font-size="10.00">m_timer</text>
<text text-anchor="start" x="48.5" y="-1621" font-family="Helvetica,sans-Serif" font-size="10.00">+</text>
<text text-anchor="start" x="61.5" y="-1621" font-family="Helvetica,sans-Serif" font-size="10.00">Timer()</text>
<text text-anchor="start" x="48.5" y="-1606" font-family="Helvetica,sans-Serif" font-size="10.00">+</text>
<text text-anchor="start" x="61.5" y="-1606" font-family="Helvetica,sans-Serif" font-size="10.00">setFrequecy()</text>
<text text-anchor="start" x="48.5" y="-1591" font-family="Helvetica,sans-Serif" font-size="10.00">+</text>
<text text-anchor="start" x="61.5" y="-1591" font-family="Helvetica,sans-Serif" font-size="10.00">setPeriod()</text>
<text text-anchor="start" x="48.5" y="-1576" font-family="Helvetica,sans-Serif" font-size="10.00">+</text>
<text text-anchor="start" x="61.5" y="-1576" font-family="Helvetica,sans-Serif" font-size="10.00">frequencyHz()</text>
<polygon fill="#666666" stroke="#666666" points="44.5,-1676 44.5,-1676 160.5,-1676 160.5,-1676 44.5,-1676"/>
<polygon fill="#666666" stroke="#666666" points="44.5,-1631 44.5,-1631 59.5,-1631 59.5,-1631 44.5,-1631"/>
<polygon fill="#666666" stroke="#666666" points="59.5,-1631 59.5,-1631 160.5,-1631 160.5,-1631 59.5,-1631"/>
<polygon fill="none" stroke="#666666" points="44.5,-1569 44.5,-1693 160.5,-1693 160.5,-1569 44.5,-1569"/>
</a>
</g>
</g>
<!-- Node2&#45;&gt;Node3 -->
<g id="edge3_Node000003_Node000002" class="edge">
<title>Node2&#45;&gt;Node3</title>
<g id="a_edge3_Node000003_Node000002"><a xlink:title=" ">
<path fill="none" stroke="#63b8ff" d="M189.41,-1863.73C179.18,-1857.25 168.75,-1848.96 161.5,-1839 130.27,-1796.1 115.53,-1737.1 108.6,-1693.07"/>
<polygon fill="none" stroke="#63b8ff" points="187.89,-1866.9 198.28,-1868.96 191.44,-1860.87 187.89,-1866.9"/>
</a>
</g>
</g>
<!-- Node4 -->
<g id="Node000004" class="node">
<title>Node4</title>
<g id="a_Node000004"><a xlink:href="classTestBenchModel.html" target="_top" xlink:title=" ">
<polygon fill="white" stroke="transparent" points="316.5,-595 182.5,-595 182.5,-441 316.5,-441 316.5,-595"/>
<text text-anchor="start" x="209.5" y="-583" font-family="Helvetica,sans-Serif" font-size="10.00">TestBenchModel</text>
<text text-anchor="start" x="189" y="-568" font-family="Helvetica,sans-Serif" font-size="10.00">&#45;</text>
<text text-anchor="start" x="199.5" y="-568" font-family="Helvetica,sans-Serif" font-size="10.00">m_testStatus</text>
<text text-anchor="start" x="189" y="-553" font-family="Helvetica,sans-Serif" font-size="10.00">&#45;</text>
<text text-anchor="start" x="199.5" y="-553" font-family="Helvetica,sans-Serif" font-size="10.00">m_testStatusInitialised</text>
<text text-anchor="start" x="186.5" y="-538" font-family="Helvetica,sans-Serif" font-size="10.00">+</text>
<text text-anchor="start" x="199.5" y="-538" font-family="Helvetica,sans-Serif" font-size="10.00">TestBenchModel()</text>
<text text-anchor="start" x="186.5" y="-523" font-family="Helvetica,sans-Serif" font-size="10.00">+</text>
<text text-anchor="start" x="199.5" y="-523" font-family="Helvetica,sans-Serif" font-size="10.00">setTestStatus()</text>
<text text-anchor="start" x="186.5" y="-508" font-family="Helvetica,sans-Serif" font-size="10.00">+</text>
<text text-anchor="start" x="199.5" y="-508" font-family="Helvetica,sans-Serif" font-size="10.00">getTestStatus()</text>
<text text-anchor="start" x="186.5" y="-493" font-family="Helvetica,sans-Serif" font-size="10.00">+</text>
<text text-anchor="start" x="199.5" y="-493" font-family="Helvetica,sans-Serif" font-size="10.00">getStatus()</text>
<text text-anchor="start" x="186.5" y="-478" font-family="Helvetica,sans-Serif" font-size="10.00">+</text>
<text text-anchor="start" x="199.5" y="-478" font-family="Helvetica,sans-Serif" font-size="10.00">getStatus()</text>
<text text-anchor="start" x="186.5" y="-463" font-family="Helvetica,sans-Serif" font-size="10.00">+</text>
<text text-anchor="start" x="199.5" y="-463" font-family="Helvetica,sans-Serif" font-size="10.00">getStatusID()</text>
<text text-anchor="start" x="186.5" y="-448" font-family="Helvetica,sans-Serif" font-size="10.00">+</text>
<text text-anchor="start" x="199.5" y="-448" font-family="Helvetica,sans-Serif" font-size="10.00">onStatesListRecieved()</text>
<polygon fill="#666666" stroke="#666666" points="182.5,-578 182.5,-578 316.5,-578 316.5,-578 182.5,-578"/>
<polygon fill="#666666" stroke="#666666" points="182.5,-548 182.5,-548 197.5,-548 197.5,-548 182.5,-548"/>
<polygon fill="#666666" stroke="#666666" points="197.5,-548 197.5,-548 316.5,-548 316.5,-548 197.5,-548"/>
<polygon fill="none" stroke="#666666" points="182.5,-441 182.5,-595 316.5,-595 316.5,-441 182.5,-441"/>
</a>
</g>
</g>
<!-- Node2&#45;&gt;Node4 -->
<g id="edge5_Node000004_Node000002" class="edge">
<title>Node2&#45;&gt;Node4</title>
<g id="a_edge5_Node000004_Node000002"><a xlink:title=" ">
<path fill="none" stroke="#63b8ff" d="M258.82,-1877.85C355.37,-1869.65 616.5,-1840.62 616.5,-1766.5 616.5,-1766.5 616.5,-1766.5 616.5,-808 616.5,-657.16 422.76,-572.95 316.81,-538.17"/>
<polygon fill="none" stroke="#63b8ff" points="258.36,-1874.38 248.68,-1878.69 258.94,-1881.35 258.36,-1874.38"/>
</a>
</g>
</g>
<!-- Node6 -->
<g id="Node000006" class="node">
<title>Node6</title>
<g id="a_Node000006"><a xlink:href="classUdpChannel.html" target="_top" xlink:title="UDP communication channel between the microcontroller and the HMI.">
<polygon fill="white" stroke="transparent" points="399,-976 264,-976 264,-642 399,-642 399,-976"/>
<text text-anchor="start" x="302" y="-964" font-family="Helvetica,sans-Serif" font-size="10.00">UdpChannel</text>
<text text-anchor="start" x="271" y="-949" font-family="Helvetica,sans-Serif" font-size="10.00">&#45;</text>
<text text-anchor="start" x="281.5" y="-949" font-family="Helvetica,sans-Serif" font-size="10.00">m_udpWorkerThread</text>
<text text-anchor="start" x="271" y="-934" font-family="Helvetica,sans-Serif" font-size="10.00">&#45;</text>
<text text-anchor="start" x="281.5" y="-934" font-family="Helvetica,sans-Serif" font-size="10.00">m_udpSocket</text>
<text text-anchor="start" x="271" y="-919" font-family="Helvetica,sans-Serif" font-size="10.00">&#45;</text>
<text text-anchor="start" x="281.5" y="-919" font-family="Helvetica,sans-Serif" font-size="10.00">m_remoteAddr</text>
<text text-anchor="start" x="271" y="-904" font-family="Helvetica,sans-Serif" font-size="10.00">&#45;</text>
<text text-anchor="start" x="281.5" y="-904" font-family="Helvetica,sans-Serif" font-size="10.00">m_remotePort</text>
<text text-anchor="start" x="271" y="-889" font-family="Helvetica,sans-Serif" font-size="10.00">&#45;</text>
<text text-anchor="start" x="281.5" y="-889" font-family="Helvetica,sans-Serif" font-size="10.00">m_localAddr</text>
<text text-anchor="start" x="271" y="-874" font-family="Helvetica,sans-Serif" font-size="10.00">&#45;</text>
<text text-anchor="start" x="281.5" y="-874" font-family="Helvetica,sans-Serif" font-size="10.00">m_localPort</text>
<text text-anchor="start" x="271" y="-859" font-family="Helvetica,sans-Serif" font-size="10.00">&#45;</text>
<text text-anchor="start" x="281.5" y="-859" font-family="Helvetica,sans-Serif" font-size="10.00">m_lastRefresh</text>
<text text-anchor="start" x="271" y="-844" font-family="Helvetica,sans-Serif" font-size="10.00">&#45;</text>
<text text-anchor="start" x="281.5" y="-844" font-family="Helvetica,sans-Serif" font-size="10.00">m_periodOfRefresh</text>
<text text-anchor="start" x="271" y="-829" font-family="Helvetica,sans-Serif" font-size="10.00">&#45;</text>
<text text-anchor="start" x="281.5" y="-829" font-family="Helvetica,sans-Serif" font-size="10.00">m_running</text>
<text text-anchor="start" x="268.5" y="-814" font-family="Helvetica,sans-Serif" font-size="10.00">+</text>
<text text-anchor="start" x="281.5" y="-814" font-family="Helvetica,sans-Serif" font-size="10.00">UdpChannel()</text>
<text text-anchor="start" x="268.5" y="-799" font-family="Helvetica,sans-Serif" font-size="10.00">+</text>
<text text-anchor="start" x="281.5" y="-799" font-family="Helvetica,sans-Serif" font-size="10.00">~UdpChannel()</text>
<text text-anchor="start" x="268.5" y="-784" font-family="Helvetica,sans-Serif" font-size="10.00">+</text>
<text text-anchor="start" x="281.5" y="-784" font-family="Helvetica,sans-Serif" font-size="10.00">startEndpoint()</text>
<text text-anchor="start" x="268.5" y="-769" font-family="Helvetica,sans-Serif" font-size="10.00">+</text>
<text text-anchor="start" x="281.5" y="-769" font-family="Helvetica,sans-Serif" font-size="10.00">stopEndpoint()</text>
<text text-anchor="start" x="268.5" y="-754" font-family="Helvetica,sans-Serif" font-size="10.00">+</text>
<text text-anchor="start" x="281.5" y="-754" font-family="Helvetica,sans-Serif" font-size="10.00">sendData()</text>
<text text-anchor="start" x="268.5" y="-739" font-family="Helvetica,sans-Serif" font-size="10.00">+</text>
<text text-anchor="start" x="281.5" y="-739" font-family="Helvetica,sans-Serif" font-size="10.00">running()</text>
<text text-anchor="start" x="268.5" y="-724" font-family="Helvetica,sans-Serif" font-size="10.00">+</text>
<text text-anchor="start" x="281.5" y="-724" font-family="Helvetica,sans-Serif" font-size="10.00">remoteAddr()</text>
<text text-anchor="start" x="268.5" y="-709" font-family="Helvetica,sans-Serif" font-size="10.00">+</text>
<text text-anchor="start" x="281.5" y="-709" font-family="Helvetica,sans-Serif" font-size="10.00">remotePort()</text>
<text text-anchor="start" x="268.5" y="-694" font-family="Helvetica,sans-Serif" font-size="10.00">+</text>
<text text-anchor="start" x="281.5" y="-694" font-family="Helvetica,sans-Serif" font-size="10.00">localAddr()</text>
<text text-anchor="start" x="268.5" y="-679" font-family="Helvetica,sans-Serif" font-size="10.00">+</text>
<text text-anchor="start" x="281.5" y="-679" font-family="Helvetica,sans-Serif" font-size="10.00">localPort()</text>
<text text-anchor="start" x="281.5" y="-664" font-family="Helvetica,sans-Serif" font-size="10.00">and 6 more...</text>
<text text-anchor="start" x="268.5" y="-649" font-family="Helvetica,sans-Serif" font-size="10.00">+</text>
<text text-anchor="start" x="281.5" y="-649" font-family="Helvetica,sans-Serif" font-size="10.00">onDatagramReceived()</text>
<polygon fill="#666666" stroke="#666666" points="264.5,-959 264.5,-959 399.5,-959 399.5,-959 264.5,-959"/>
<polygon fill="#666666" stroke="#666666" points="264.5,-824 264.5,-824 279.5,-824 279.5,-824 264.5,-824"/>
<polygon fill="#666666" stroke="#666666" points="279.5,-824 279.5,-824 399.5,-824 399.5,-824 279.5,-824"/>
<polygon fill="none" stroke="#666666" points="264,-642 264,-976 399,-976 399,-642 264,-642"/>
</a>
</g>
</g>
<!-- Node2&#45;&gt;Node6 -->
<g id="edge8_Node000006_Node000002" class="edge">
<title>Node2&#45;&gt;Node6</title>
<g id="a_edge8_Node000006_Node000002"><a xlink:title=" ">
<path fill="none" stroke="#63b8ff" d="M223.5,-1846.78C223.5,-1824.09 223.5,-1793.5 223.5,-1766.5 223.5,-1766.5 223.5,-1766.5 223.5,-1084 223.5,-1056.84 242.1,-1005.02 263.87,-953.7"/>
<polygon fill="none" stroke="#63b8ff" points="220,-1846.92 223.5,-1856.92 227,-1846.92 220,-1846.92"/>
</a>
</g>
</g>
<!-- Node7 -->
<g id="Node000007" class="node">
<title>Node7</title>
<g id="a_Node000007"><a xlink:href="classUdpWorker.html" target="_top" xlink:title="UDP socket worker running on a dedicated thread.">
<polygon fill="white" stroke="transparent" points="411.5,-1147 251.5,-1147 251.5,-1023 411.5,-1023 411.5,-1147"/>
<text text-anchor="start" x="304.5" y="-1135" font-family="Helvetica,sans-Serif" font-size="10.00">UdpWorker</text>
<text text-anchor="start" x="258" y="-1120" font-family="Helvetica,sans-Serif" font-size="10.00">&#45;</text>
<text text-anchor="start" x="268.5" y="-1120" font-family="Helvetica,sans-Serif" font-size="10.00">socket</text>
<text text-anchor="start" x="258" y="-1105" font-family="Helvetica,sans-Serif" font-size="10.00">&#45;</text>
<text text-anchor="start" x="268.5" y="-1105" font-family="Helvetica,sans-Serif" font-size="10.00">m_lastFrameSend</text>
<text text-anchor="start" x="255.5" y="-1090" font-family="Helvetica,sans-Serif" font-size="10.00">+</text>
<text text-anchor="start" x="268.5" y="-1090" font-family="Helvetica,sans-Serif" font-size="10.00">UdpWorker()</text>
<text text-anchor="start" x="255.5" y="-1075" font-family="Helvetica,sans-Serif" font-size="10.00">+</text>
<text text-anchor="start" x="268.5" y="-1075" font-family="Helvetica,sans-Serif" font-size="10.00">start()</text>
<text text-anchor="start" x="255.5" y="-1060" font-family="Helvetica,sans-Serif" font-size="10.00">+</text>
<text text-anchor="start" x="268.5" y="-1060" font-family="Helvetica,sans-Serif" font-size="10.00">stop()</text>
<text text-anchor="start" x="258" y="-1045" font-family="Helvetica,sans-Serif" font-size="10.00">&#45;</text>
<text text-anchor="start" x="268.5" y="-1045" font-family="Helvetica,sans-Serif" font-size="10.00">decimate()</text>
<text text-anchor="start" x="258" y="-1030" font-family="Helvetica,sans-Serif" font-size="10.00">&#45;</text>
<text text-anchor="start" x="268.5" y="-1030" font-family="Helvetica,sans-Serif" font-size="10.00">processPendingDatagrams()</text>
<polygon fill="#666666" stroke="#666666" points="251.5,-1130 251.5,-1130 411.5,-1130 411.5,-1130 251.5,-1130"/>
<polygon fill="#666666" stroke="#666666" points="251.5,-1100 251.5,-1100 266.5,-1100 266.5,-1100 251.5,-1100"/>
<polygon fill="#666666" stroke="#666666" points="266.5,-1100 266.5,-1100 411.5,-1100 411.5,-1100 266.5,-1100"/>
<polygon fill="none" stroke="#666666" points="251.5,-1023 251.5,-1147 411.5,-1147 411.5,-1023 251.5,-1023"/>
</a>
</g>
</g>
<!-- Node2&#45;&gt;Node7 -->
<g id="edge10_Node000007_Node000002" class="edge">
<title>Node2&#45;&gt;Node7</title>
<g id="a_edge10_Node000007_Node000002"><a xlink:title=" ">
<path fill="none" stroke="#63b8ff" d="M235.49,-1847.01C236.24,-1844.32 236.92,-1841.63 237.5,-1839 302.04,-1544.73 252.9,-1460.89 309.5,-1165 310.62,-1159.13 311.97,-1153.05 313.44,-1147.01"/>
<polygon fill="none" stroke="#63b8ff" points="232.13,-1846.03 232.55,-1856.61 238.82,-1848.07 232.13,-1846.03"/>
</a>
</g>
</g>
<!-- Node9 -->
<g id="Node000009" class="node">
<title>Node9</title>
<g id="a_Node000009"><a xlink:href="classLogger.html" target="_top" xlink:title="Tool that provide the ability to display and log errors and debug messages.">
<polygon fill="white" stroke="transparent" points="421.5,-1820 353.5,-1820 353.5,-1711 421.5,-1711 421.5,-1820"/>
<text text-anchor="start" x="370.5" y="-1807.5" font-family="Helvetica,sans-Serif" font-size="10.00">Logger</text>
<text text-anchor="start" x="385.5" y="-1792.5" font-family="Helvetica,sans-Serif" font-size="10.00"> </text>
<text text-anchor="start" x="357.5" y="-1777.5" font-family="Helvetica,sans-Serif" font-size="10.00">+</text>
<text text-anchor="start" x="370.5" y="-1777.5" font-family="Helvetica,sans-Serif" font-size="10.00">Logger()</text>
<text text-anchor="start" x="357.5" y="-1762.5" font-family="Helvetica,sans-Serif" font-size="10.00">+</text>
<text text-anchor="start" x="370.5" y="-1762.5" font-family="Helvetica,sans-Serif" font-size="10.00">log()</text>
<text text-anchor="start" x="357.5" y="-1747.5" font-family="Helvetica,sans-Serif" font-size="10.00">+</text>
<text text-anchor="start" x="370.5" y="-1747.5" font-family="Helvetica,sans-Serif" font-size="10.00">debug()</text>
<text text-anchor="start" x="357.5" y="-1732.5" font-family="Helvetica,sans-Serif" font-size="10.00">+</text>
<text text-anchor="start" x="370.5" y="-1732.5" font-family="Helvetica,sans-Serif" font-size="10.00">error()</text>
<text text-anchor="start" x="357.5" y="-1717.5" font-family="Helvetica,sans-Serif" font-size="10.00">+</text>
<text text-anchor="start" x="370.5" y="-1717.5" font-family="Helvetica,sans-Serif" font-size="10.00">warning()</text>
<polygon fill="#666666" stroke="#666666" points="353.5,-1802.5 353.5,-1802.5 421.5,-1802.5 421.5,-1802.5 353.5,-1802.5"/>
<polygon fill="#666666" stroke="#666666" points="353.5,-1787.5 353.5,-1787.5 421.5,-1787.5 421.5,-1787.5 353.5,-1787.5"/>
<polygon fill="none" stroke="#666666" points="353.5,-1711 353.5,-1820 421.5,-1820 421.5,-1711 353.5,-1711"/>
</a>
</g>
</g>
<!-- Node2&#45;&gt;Node9 -->
<g id="edge13_Node000009_Node000002" class="edge">
<title>Node2&#45;&gt;Node9</title>
<g id="a_edge13_Node000009_Node000002"><a xlink:title=" ">
<path fill="none" stroke="#63b8ff" d="M257.08,-1857.16C285.18,-1837.62 325.11,-1809.87 353.36,-1790.23"/>
<polygon fill="none" stroke="#63b8ff" points="254.98,-1854.36 248.77,-1862.94 258.97,-1860.1 254.98,-1854.36"/>
</a>
</g>
</g>
<!-- Node10 -->
<g id="Node000010" class="node">
<title>Node10</title>
<g id="a_Node000010"><a xlink:href="classFileSystem.html" target="_top" xlink:title="File system allow the managment of files path used in the application.">
<polygon fill="white" stroke="transparent" points="195.5,-1244 103.5,-1244 103.5,-1165 195.5,-1165 195.5,-1244"/>
<text text-anchor="start" x="122" y="-1231.5" font-family="Helvetica,sans-Serif" font-size="10.00">FileSystem</text>
<text text-anchor="start" x="110" y="-1216.5" font-family="Helvetica,sans-Serif" font-size="10.00">&#45;</text>
<text text-anchor="start" x="120.5" y="-1216.5" font-family="Helvetica,sans-Serif" font-size="10.00">m_pathList</text>
<text text-anchor="start" x="107.5" y="-1201.5" font-family="Helvetica,sans-Serif" font-size="10.00">+</text>
<text text-anchor="start" x="120.5" y="-1201.5" font-family="Helvetica,sans-Serif" font-size="10.00">FileSystem()</text>
<text text-anchor="start" x="107.5" y="-1186.5" font-family="Helvetica,sans-Serif" font-size="10.00">+</text>
<text text-anchor="start" x="120.5" y="-1186.5" font-family="Helvetica,sans-Serif" font-size="10.00">getDirectory()</text>
<text text-anchor="start" x="110" y="-1171.5" font-family="Helvetica,sans-Serif" font-size="10.00">&#45;</text>
<text text-anchor="start" x="120.5" y="-1171.5" font-family="Helvetica,sans-Serif" font-size="10.00">addDirectory()</text>
<polygon fill="#666666" stroke="#666666" points="103.5,-1226.5 103.5,-1226.5 195.5,-1226.5 195.5,-1226.5 103.5,-1226.5"/>
<polygon fill="#666666" stroke="#666666" points="103.5,-1211.5 103.5,-1211.5 118.5,-1211.5 118.5,-1211.5 103.5,-1211.5"/>
<polygon fill="#666666" stroke="#666666" points="118.5,-1211.5 118.5,-1211.5 195.5,-1211.5 195.5,-1211.5 118.5,-1211.5"/>
<polygon fill="none" stroke="#666666" points="103.5,-1165 103.5,-1244 195.5,-1244 195.5,-1165 103.5,-1165"/>
</a>
</g>
</g>
<!-- Node2&#45;&gt;Node10 -->
<g id="edge16_Node000010_Node000002" class="edge">
<title>Node2&#45;&gt;Node10</title>
<g id="a_edge16_Node000010_Node000002"><a xlink:title=" ">
<path fill="none" stroke="#63b8ff" d="M211.47,-1847.01C210.73,-1844.32 210.06,-1841.63 209.5,-1839 162.25,-1617.23 152.2,-1343.85 150.07,-1244.17"/>
<polygon fill="none" stroke="#63b8ff" points="208.14,-1848.08 214.4,-1856.62 214.84,-1846.04 208.14,-1848.08"/>
</a>
</g>
</g>
<!-- Node3&#45;&gt;Node1 -->
<g id="edge2_Node000001_Node000003" class="edge">
<title>Node3&#45;&gt;Node1</title>
<g id="a_edge2_Node000001_Node000003"><a xlink:title=" ">
<path fill="none" stroke="#63b8ff" d="M94.06,-1568.98C83.42,-1486.64 66.5,-1335.3 66.5,-1205.5 66.5,-1205.5 66.5,-1205.5 66.5,-517 66.5,-481.3 66.5,-443.35 66.5,-406.55"/>
<polygon fill="none" stroke="#63b8ff" points="66.5,-406.12 62.5,-400.12 66.5,-394.12 70.5,-400.12 66.5,-406.12"/>
</a>
</g>
<text text-anchor="middle" x="91" y="-997" font-family="Helvetica,sans-Serif" font-size="10.00" fill="grey"> &#45;m_timer</text>
</g>
<!-- Node4&#45;&gt;Node1 -->
<g id="edge4_Node000001_Node000004" class="edge">
<title>Node4&#45;&gt;Node1</title>
<g id="a_edge4_Node000001_Node000004"><a xlink:title=" ">
<path fill="none" stroke="#63b8ff" d="M205.9,-441C185.91,-406.15 161.67,-363.89 139.05,-324.46"/>
<polygon fill="none" stroke="#63b8ff" points="138.99,-324.37 132.54,-321.16 133.02,-313.96 139.48,-317.18 138.99,-324.37"/>
</a>
</g>
<text text-anchor="middle" x="235.5" y="-415" font-family="Helvetica,sans-Serif" font-size="10.00" fill="grey"> &#45;m_testBenchM</text>
</g>
<!-- Node5 -->
<g id="Node000005" class="node">
<title>Node5</title>
<g id="a_Node000005"><a xlink:href="classTestBenchStatesList.html" target="_top" xlink:title=" ">
<polygon fill="white" stroke="transparent" points="245.5,-863.5 137.5,-863.5 137.5,-754.5 245.5,-754.5 245.5,-863.5"/>
<text text-anchor="start" x="142.5" y="-851" font-family="Helvetica,sans-Serif" font-size="10.00">TestBenchStatesList</text>
<text text-anchor="start" x="145" y="-836" font-family="Helvetica,sans-Serif" font-size="10.00">&#45;</text>
<text text-anchor="start" x="156.5" y="-836" font-family="Helvetica,sans-Serif" font-size="10.00">m_valuesDatas</text>
<text text-anchor="start" x="145" y="-821" font-family="Helvetica,sans-Serif" font-size="10.00">&#45;</text>
<text text-anchor="start" x="156.5" y="-821" font-family="Helvetica,sans-Serif" font-size="10.00">m_valuesNames</text>
<text text-anchor="start" x="142.5" y="-806" font-family="Helvetica,sans-Serif" font-size="10.00">+</text>
<text text-anchor="start" x="156.5" y="-806" font-family="Helvetica,sans-Serif" font-size="10.00">append()</text>
<text text-anchor="start" x="142.5" y="-791" font-family="Helvetica,sans-Serif" font-size="10.00">+</text>
<text text-anchor="start" x="156.5" y="-791" font-family="Helvetica,sans-Serif" font-size="10.00">getValue()</text>
<text text-anchor="start" x="142.5" y="-776" font-family="Helvetica,sans-Serif" font-size="10.00">+</text>
<text text-anchor="start" x="156.5" y="-776" font-family="Helvetica,sans-Serif" font-size="10.00">getValue()</text>
<text text-anchor="start" x="142.5" y="-761" font-family="Helvetica,sans-Serif" font-size="10.00">+</text>
<text text-anchor="start" x="156.5" y="-761" font-family="Helvetica,sans-Serif" font-size="10.00">getID()</text>
<polygon fill="#666666" stroke="#666666" points="137.5,-846 137.5,-846 245.5,-846 245.5,-846 137.5,-846"/>
<polygon fill="#666666" stroke="#666666" points="137.5,-816 137.5,-816 154.5,-816 154.5,-816 137.5,-816"/>
<polygon fill="#666666" stroke="#666666" points="154.5,-816 154.5,-816 245.5,-816 245.5,-816 154.5,-816"/>
<polygon fill="none" stroke="#666666" points="137.5,-754.5 137.5,-863.5 245.5,-863.5 245.5,-754.5 137.5,-754.5"/>
</a>
</g>
</g>
<!-- Node5&#45;&gt;Node4 -->
<g id="edge6_Node000004_Node000005" class="edge">
<title>Node5&#45;&gt;Node4</title>
<g id="a_edge6_Node000004_Node000005"><a xlink:title=" ">
<path fill="none" stroke="#63b8ff" d="M199.7,-754.4C205.99,-715.11 215.3,-660.54 225.5,-613 225.93,-610.99 226.38,-608.96 226.83,-606.91"/>
<polygon fill="none" stroke="#63b8ff" points="226.87,-606.76 224.31,-600.02 229.55,-595.07 232.11,-601.81 226.87,-606.76"/>
</a>
</g>
<text text-anchor="middle" x="251.5" y="-616" font-family="Helvetica,sans-Serif" font-size="10.00" fill="grey"> &#45;m_states</text>
</g>
<!-- Node6&#45;&gt;Node4 -->
<g id="edge7_Node000004_Node000006" class="edge">
<title>Node6&#45;&gt;Node4</title>
<g id="a_edge7_Node000004_Node000006"><a xlink:title=" ">
<path fill="none" stroke="#63b8ff" d="M285.76,-641.98C282.98,-632.17 280.22,-622.45 277.5,-613 276.93,-611 276.34,-608.98 275.75,-606.95"/>
<polygon fill="none" stroke="#63b8ff" points="275.67,-606.67 270.16,-602.03 272.32,-595.15 277.84,-599.79 275.67,-606.67"/>
</a>
</g>
<text text-anchor="middle" x="319.5" y="-616" font-family="Helvetica,sans-Serif" font-size="10.00" fill="grey"> &#45;m_udpChannel</text>
</g>
<!-- Node7&#45;&gt;Node6 -->
<g id="edge9_Node000006_Node000007" class="edge">
<title>Node7&#45;&gt;Node6</title>
<g id="a_edge9_Node000006_Node000007"><a xlink:title=" ">
<path fill="none" stroke="#63b8ff" d="M331.5,-1022.85C331.5,-1012.14 331.5,-1000.54 331.5,-988.45"/>
<polygon fill="none" stroke="#63b8ff" points="331.5,-988.23 327.5,-982.23 331.5,-976.23 335.5,-982.23 331.5,-988.23"/>
</a>
</g>
<text text-anchor="middle" x="368.5" y="-997" font-family="Helvetica,sans-Serif" font-size="10.00" fill="grey"> &#45;m_udpWorker</text>
</g>
<!-- Node8 -->
<g id="Node000008" class="node">
<title>Node8</title>
<g id="a_Node000008"><a xlink:href="classUdpLogger.html" target="_top" xlink:title="High&#45;frequency binary logger for UDP telemetry frames.">
<polygon fill="white" stroke="transparent" points="514,-1551 381,-1551 381,-1262 514,-1262 514,-1551"/>
<text text-anchor="start" x="421.5" y="-1538.5" font-family="Helvetica,sans-Serif" font-size="10.00">UdpLogger</text>
<text text-anchor="start" x="388" y="-1523.5" font-family="Helvetica,sans-Serif" font-size="10.00">&#45;</text>
<text text-anchor="start" x="398.5" y="-1523.5" font-family="Helvetica,sans-Serif" font-size="10.00">m_writer</text>
<text text-anchor="start" x="388" y="-1508.5" font-family="Helvetica,sans-Serif" font-size="10.00">&#45;</text>
<text text-anchor="start" x="398.5" y="-1508.5" font-family="Helvetica,sans-Serif" font-size="10.00">m_ringBuffer</text>
<text text-anchor="start" x="388" y="-1493.5" font-family="Helvetica,sans-Serif" font-size="10.00">&#45;</text>
<text text-anchor="start" x="398.5" y="-1493.5" font-family="Helvetica,sans-Serif" font-size="10.00">m_running</text>
<text text-anchor="start" x="388" y="-1478.5" font-family="Helvetica,sans-Serif" font-size="10.00">&#45;</text>
<text text-anchor="start" x="398.5" y="-1478.5" font-family="Helvetica,sans-Serif" font-size="10.00">m_writerThread</text>
<text text-anchor="start" x="388" y="-1463.5" font-family="Helvetica,sans-Serif" font-size="10.00">&#45;</text>
<text text-anchor="start" x="398.5" y="-1463.5" font-family="Helvetica,sans-Serif" font-size="10.00">m_logDirPath</text>
<text text-anchor="start" x="388" y="-1448.5" font-family="Helvetica,sans-Serif" font-size="10.00">&#45;</text>
<text text-anchor="start" x="398.5" y="-1448.5" font-family="Helvetica,sans-Serif" font-size="10.00">MAX_FRAME_SIZE</text>
<text text-anchor="start" x="385.5" y="-1433.5" font-family="Helvetica,sans-Serif" font-size="10.00">+</text>
<text text-anchor="start" x="398.5" y="-1433.5" font-family="Helvetica,sans-Serif" font-size="10.00">UdpLogger()</text>
<text text-anchor="start" x="385.5" y="-1418.5" font-family="Helvetica,sans-Serif" font-size="10.00">+</text>
<text text-anchor="start" x="398.5" y="-1418.5" font-family="Helvetica,sans-Serif" font-size="10.00">~UdpLogger()</text>
<text text-anchor="start" x="385.5" y="-1403.5" font-family="Helvetica,sans-Serif" font-size="10.00">+</text>
<text text-anchor="start" x="398.5" y="-1403.5" font-family="Helvetica,sans-Serif" font-size="10.00">UdpLogger()</text>
<text text-anchor="start" x="385.5" y="-1388.5" font-family="Helvetica,sans-Serif" font-size="10.00">+</text>
<text text-anchor="start" x="398.5" y="-1388.5" font-family="Helvetica,sans-Serif" font-size="10.00">operator=()</text>
<text text-anchor="start" x="385.5" y="-1373.5" font-family="Helvetica,sans-Serif" font-size="10.00">+</text>
<text text-anchor="start" x="398.5" y="-1373.5" font-family="Helvetica,sans-Serif" font-size="10.00">UdpLogger()</text>
<text text-anchor="start" x="385.5" y="-1358.5" font-family="Helvetica,sans-Serif" font-size="10.00">+</text>
<text text-anchor="start" x="398.5" y="-1358.5" font-family="Helvetica,sans-Serif" font-size="10.00">operator=()</text>
<text text-anchor="start" x="385.5" y="-1343.5" font-family="Helvetica,sans-Serif" font-size="10.00">+</text>
<text text-anchor="start" x="398.5" y="-1343.5" font-family="Helvetica,sans-Serif" font-size="10.00">log()</text>
<text text-anchor="start" x="385.5" y="-1328.5" font-family="Helvetica,sans-Serif" font-size="10.00">+</text>
<text text-anchor="start" x="398.5" y="-1328.5" font-family="Helvetica,sans-Serif" font-size="10.00">cyclesCount()</text>
<text text-anchor="start" x="385.5" y="-1313.5" font-family="Helvetica,sans-Serif" font-size="10.00">+</text>
<text text-anchor="start" x="398.5" y="-1313.5" font-family="Helvetica,sans-Serif" font-size="10.00">droppedFramesCount()</text>
<text text-anchor="start" x="385.5" y="-1298.5" font-family="Helvetica,sans-Serif" font-size="10.00">+</text>
<text text-anchor="start" x="398.5" y="-1298.5" font-family="Helvetica,sans-Serif" font-size="10.00">start()</text>
<text text-anchor="start" x="385.5" y="-1283.5" font-family="Helvetica,sans-Serif" font-size="10.00">+</text>
<text text-anchor="start" x="398.5" y="-1283.5" font-family="Helvetica,sans-Serif" font-size="10.00">stop()</text>
<text text-anchor="start" x="388" y="-1268.5" font-family="Helvetica,sans-Serif" font-size="10.00">&#45;</text>
<text text-anchor="start" x="398.5" y="-1268.5" font-family="Helvetica,sans-Serif" font-size="10.00">writerLoop()</text>
<polygon fill="#666666" stroke="#666666" points="381.5,-1533.5 381.5,-1533.5 514.5,-1533.5 514.5,-1533.5 381.5,-1533.5"/>
<polygon fill="#666666" stroke="#666666" points="381.5,-1443.5 381.5,-1443.5 396.5,-1443.5 396.5,-1443.5 381.5,-1443.5"/>
<polygon fill="#666666" stroke="#666666" points="396.5,-1443.5 396.5,-1443.5 514.5,-1443.5 514.5,-1443.5 396.5,-1443.5"/>
<polygon fill="none" stroke="#666666" points="381,-1262 381,-1551 514,-1551 514,-1262 381,-1262"/>
</a>
</g>
</g>
<!-- Node8&#45;&gt;Node6 -->
<g id="edge18_Node000006_Node000008" class="edge">
<title>Node8&#45;&gt;Node6</title>
<g id="a_edge18_Node000006_Node000008"><a xlink:title=" ">
<path fill="none" stroke="#63b8ff" d="M447.94,-1261.79C445.5,-1189.38 438.44,-1100.68 420.5,-1023 417.4,-1009.57 414.64,-1006.79 409.5,-994 407.61,-989.29 405.68,-984.52 403.72,-979.71"/>
<polygon fill="none" stroke="#63b8ff" points="403.65,-979.53 397.68,-975.49 399.11,-968.42 405.08,-972.46 403.65,-979.53"/>
</a>
</g>
<text text-anchor="middle" x="476" y="-1082.5" font-family="Helvetica,sans-Serif" font-size="10.00" fill="grey"> &#45;m_udpLogger</text>
</g>
<!-- Node8&#45;&gt;Node7 -->
<g id="edge11_Node000007_Node000008" class="edge">
<title>Node8&#45;&gt;Node7</title>
<g id="a_edge11_Node000007_Node000008"><a xlink:title=" ">
<path fill="none" stroke="#63b8ff" d="M380.99,-1288.65C374.09,-1273.9 367.72,-1258.79 362.5,-1244 352.98,-1217.02 346.12,-1186.37 341.31,-1159.29"/>
<polygon fill="none" stroke="#63b8ff" points="341.26,-1158.95 336.31,-1153.71 339.25,-1147.12 344.2,-1152.37 341.26,-1158.95"/>
</a>
</g>
<text text-anchor="middle" x="398" y="-1202" font-family="Helvetica,sans-Serif" font-size="10.00" fill="grey"> &#45;m_udplogger</text>
</g>
<!-- Node9&#45;&gt;Node6 -->
<g id="edge17_Node000006_Node000009" class="edge">
<title>Node9&#45;&gt;Node6</title>
<g id="a_edge17_Node000006_Node000009"><a xlink:title=" ">
<path fill="none" stroke="#63b8ff" d="M421.58,-1743.67C439.81,-1731.01 461.35,-1713.37 475.5,-1693 513.51,-1638.29 512.69,-1616.74 523.5,-1551 542.54,-1435.21 559.18,-1132.31 516.5,-1023 493.93,-965.19 448.38,-912.43 408.13,-873.88"/>
<polygon fill="none" stroke="#63b8ff" points="408.11,-873.85 401,-872.65 399.37,-865.63 406.48,-866.83 408.11,-873.85"/>
</a>
</g>
<text text-anchor="middle" x="569" y="-1202" font-family="Helvetica,sans-Serif" font-size="10.00" fill="grey"> &#45;m_logger</text>
</g>
<!-- Node9&#45;&gt;Node7 -->
<g id="edge14_Node000007_Node000009" class="edge">
<title>Node9&#45;&gt;Node7</title>
<g id="a_edge14_Node000007_Node000009"><a xlink:title=" ">
<path fill="none" stroke="#63b8ff" d="M365.29,-1710.77C348.97,-1668.25 328.19,-1606.93 319.5,-1551 298.17,-1413.73 310.92,-1250.97 321.59,-1158.96"/>
<polygon fill="none" stroke="#63b8ff" points="321.59,-1158.92 318.33,-1152.49 323.01,-1147.01 326.27,-1153.44 321.59,-1158.92"/>
</a>
</g>
<text text-anchor="middle" x="346" y="-1404" font-family="Helvetica,sans-Serif" font-size="10.00" fill="grey"> &#45;m_logger</text>
</g>
<!-- Node9&#45;&gt;Node8 -->
<g id="edge12_Node000008_Node000009" class="edge">
<title>Node9&#45;&gt;Node8</title>
<g id="a_edge12_Node000008_Node000009"><a xlink:title=" ">
<path fill="none" stroke="#63b8ff" d="M396.55,-1710.67C403.15,-1671.37 412.46,-1615.97 421.32,-1563.26"/>
<polygon fill="none" stroke="#63b8ff" points="421.33,-1563.19 418.38,-1556.61 423.32,-1551.36 426.27,-1557.94 421.33,-1563.19"/>
</a>
</g>
<text text-anchor="middle" x="445" y="-1628.5" font-family="Helvetica,sans-Serif" font-size="10.00" fill="grey"> &#45;m_logger</text>
</g>
<!-- Node10&#45;&gt;Node6 -->
<g id="edge15_Node000006_Node000010" class="edge">
<title>Node10&#45;&gt;Node6</title>
<g id="a_edge15_Node000006_Node000010"><a xlink:title=" ">
<path fill="none" stroke="#63b8ff" d="M133.39,-1164.66C119.91,-1125.45 107.04,-1064.84 135.5,-1023 151.49,-999.49 233.82,-995.51 254.5,-976 254.8,-975.71 255.11,-975.43 255.41,-975.14"/>
<polygon fill="none" stroke="#63b8ff" points="255.51,-975.03 256.8,-967.93 263.84,-966.38 262.56,-973.48 255.51,-975.03"/>
</a>
</g>
<text text-anchor="middle" x="172.5" y="-1082.5" font-family="Helvetica,sans-Serif" font-size="10.00" fill="grey"> &#45;m_fileSystem</text>
</g>
</g>
</svg>

<g id="navigator" transform="translate(0 0)" fill="#404254">
  <rect fill="#f2f5e9" fill-opacity="0.5" stroke="#606060" stroke-width=".5" x="0" y="0" width="60" height="60"/>
  <use id="zoomplus" xlink:href="#zoomPlus" x="17" y="9" onmousedown="handleZoom(evt,'in')"/>
  <use id="zoomminus" xlink:href="#zoomMin" x="42" y="9" onmousedown="handleZoom(evt,'out')"/>
  <use id="reset" xlink:href="#resetDef" x="30" y="36" onmousedown="handleReset()"/>
   <use id="arrowup" xlink:href="#arrowUp" x="0" y="0" onmousedown="handlePan(0,-1)"/>
  <use id="arrowright" xlink:href="#arrowRight" x="0" y="0" onmousedown="handlePan(1,0)"/>
  <use id="arrowdown" xlink:href="#arrowDown" x="0" y="0" onmousedown="handlePan(0,1)"/>
  <use id="arrowleft" xlink:href="#arrowLeft" x="0" y="0" onmousedown="handlePan(-1,0)"/>
</g>
<svg viewBox="0 0 15 15" width="100%" height="30px" preserveAspectRatio="xMaxYMin meet">
 <g id="arrow_out" transform="scale(0.3 0.3)">
  <a xlink:href="classPlotViewModel__coll__graph_org.svg" target="_base">
   <rect id="button" ry="5" rx="5" y="6" x="6" height="38" width="38"
        fill="#f2f5e9" fill-opacity="0.5" stroke="#606060" stroke-width="1.0"/>
   <path id="arrow"
     d="M 11.500037,31.436501 C 11.940474,20.09759 22.043105,11.32322 32.158766,21.979434 L 37.068811,17.246167 C 37.068811,17.246167 37.088388,32 37.088388,32 L 22.160133,31.978069 C 22.160133,31.978069 26.997745,27.140456 26.997745,27.140456 C 18.528582,18.264221 13.291696,25.230495 11.500037,31.436501 z"
     style="fill:#404040;"/>
  </a>
 </g>
</svg>

<style type='text/css'>
<![CDATA[
[data-mouse-over-selected='false'] { opacity: 0.7; }
[data-mouse-over-selected='true']  { opacity: 1.0; }
]]>
</style>
<script type="application/ecmascript"><![CDATA[
document.addEventListener('DOMContentLoaded', (event) => {
  highlightEdges();
  highlightAdjacentNodes();
});
]]></script>
</svg>
