<?xml version="1.0" encoding="UTF-8" standalone="no"?>
<!DOCTYPE svg PUBLIC "-//W3C//DTD SVG 1.1//EN"
 "http://www.w3.org/Graphics/SVG/1.1/DTD/svg11.dtd">
<!-- Generated by graphviz version 2.43.0 (0)
 -->
<!-- Title: SensorValueIndicator::SensorValueIndicator Pages: 1 -->
<svg width="848pt" height="157pt"
 viewBox="0.00 0.00 848.00 157.00" xmlns="http://www.w3.org/2000/svg" xmlns:xlink="http://www.w3.org/1999/xlink">
<g id="graph0" class="graph" transform="scale(1 1) rotate(0) translate(4 153)">
<title>SensorValueIndicator::SensorValueIndicator</title>
<!-- Node1 -->
<g id="Node000001" class="node">
<title>Node1</title>
<g id="a_Node000001"><a xlink:title=" ">
<polygon fill="#999999" stroke="#666666" points="125,-54 0,-54 0,-24 125,-24 125,-54"/>
<text text-anchor="start" x="8" y="-42" font-family="Helvetica,sans-Serif" font-size="10.00">SensorValueIndicator</text>
<text text-anchor="middle" x="62.5" y="-31" font-family="Helvetica,sans-Serif" font-size="10.00">::SensorValueIndicator</text>
</a>
</g>
</g>
<!-- Node2 -->
<g id="Node000002" class="node">
<title>Node2</title>
<g id="a_Node000002"><a xlink:href="classSensorValueIndicator.html#a4f6a6870b71970059f29bf2f0d807f96" target="_top" xlink:title=" ">
<polygon fill="white" stroke="#666666" points="298,-78 179,-78 179,-48 298,-48 298,-78"/>
<text text-anchor="start" x="187" y="-66" font-family="Helvetica,sans-Serif" font-size="10.00">SensorValueIndicator</text>
<text text-anchor="middle" x="238.5" y="-55" font-family="Helvetica,sans-Serif" font-size="10.00">::onValueChanged</text>
</a>
</g>
</g>
<!-- Node1&#45;&gt;Node2 -->
<g id="edge1_Node000001_Node000002" class="edge">
<title>Node1&#45;&gt;Node2</title>
<g id="a_edge1_Node000001_Node000002"><a xlink:title=" ">
<path fill="none" stroke="#63b8ff" d="M125.34,-47.53C139.33,-49.46 154.27,-51.52 168.53,-53.49"/>
<polygon fill="#63b8ff" stroke="#63b8ff" points="168.39,-57 178.78,-54.9 169.35,-50.07 168.39,-57"/>
</a>
</g>
</g>
<!-- Node10 -->
<g id="Node000010" class="node">
<title>Node10</title>
<g id="a_Node000010"><a xlink:href="classSensorValueIndicatorViewModel.html#a9b9140aa7e50d7e90cd9e201aebd288e" target="_top" xlink:title=" ">
<polygon fill="white" stroke="#666666" points="316,-30 161,-30 161,0 316,0 316,-30"/>
<text text-anchor="start" x="169" y="-18" font-family="Helvetica,sans-Serif" font-size="10.00">SensorValueIndicatorView</text>
<text text-anchor="middle" x="238.5" y="-7" font-family="Helvetica,sans-Serif" font-size="10.00">Model::sensorValueChanged</text>
</a>
</g>
</g>
<!-- Node1&#45;&gt;Node10 -->
<g id="edge9_Node000001_Node000010" class="edge">
<title>Node1&#45;&gt;Node10</title>
<g id="a_edge9_Node000001_Node000010"><a xlink:title=" ">
<path fill="none" stroke="#63b8ff" d="M125.34,-30.47C133.62,-29.33 142.24,-28.14 150.85,-26.95"/>
<polygon fill="#63b8ff" stroke="#63b8ff" points="151.51,-30.39 160.94,-25.56 150.56,-23.46 151.51,-30.39"/>
</a>
</g>
</g>
<!-- Node3 -->
<g id="Node000003" class="node">
<title>Node3</title>
<g id="a_Node000003"><a xlink:href="classSensorValueIndicatorViewModel.html#a52a37b6aa8c8b97cbeb288567d4ed2ae" target="_top" xlink:title=" ">
<polygon fill="white" stroke="#666666" points="495,-126 352,-126 352,-96 495,-96 495,-126"/>
<text text-anchor="start" x="360" y="-114" font-family="Helvetica,sans-Serif" font-size="10.00">SensorValueIndicatorView</text>
<text text-anchor="middle" x="423.5" y="-103" font-family="Helvetica,sans-Serif" font-size="10.00">Model::sensorValue</text>
</a>
</g>
</g>
<!-- Node2&#45;&gt;Node3 -->
<g id="edge2_Node000002_Node000003" class="edge">
<title>Node2&#45;&gt;Node3</title>
<g id="a_edge2_Node000002_Node000003"><a xlink:title=" ">
<path fill="none" stroke="#63b8ff" d="M296.9,-78.06C315.47,-82.93 336.22,-88.37 355.42,-93.41"/>
<polygon fill="#63b8ff" stroke="#63b8ff" points="354.74,-96.85 365.3,-96 356.52,-90.07 354.74,-96.85"/>
</a>
</g>
</g>
<!-- Node8 -->
<g id="Node000008" class="node">
<title>Node8</title>
<g id="a_Node000008"><a xlink:href="classSensorValueIndicatorViewModel.html#ae8d599ac6f9a95e0a1044ece62a0b122" target="_top" xlink:title=" ">
<polygon fill="white" stroke="#666666" points="495,-78 352,-78 352,-48 495,-48 495,-78"/>
<text text-anchor="start" x="360" y="-66" font-family="Helvetica,sans-Serif" font-size="10.00">SensorValueIndicatorView</text>
<text text-anchor="middle" x="423.5" y="-55" font-family="Helvetica,sans-Serif" font-size="10.00">Model::valueMention</text>
</a>
</g>
</g>
<!-- Node2&#45;&gt;Node8 -->
<g id="edge7_Node000002_Node000008" class="edge">
<title>Node2&#45;&gt;Node8</title>
<g id="a_edge7_Node000002_Node000008"><a xlink:title=" ">
<path fill="none" stroke="#63b8ff" d="M298.16,-63C312,-63 327.01,-63 341.64,-63"/>
<polygon fill="#63b8ff" stroke="#63b8ff" points="341.69,-66.5 351.69,-63 341.69,-59.5 341.69,-66.5"/>
</a>
</g>
</g>
<!-- Node9 -->
<g id="Node000009" class="node">
<title>Node9</title>
<g id="a_Node000009"><a xlink:href="classSensorValueIndicatorViewModel.html#ac011b0951ebb10c0899640f7aa261402" target="_top" xlink:title=" ">
<polygon fill="white" stroke="#666666" points="495,-30 352,-30 352,0 495,0 495,-30"/>
<text text-anchor="start" x="360" y="-18" font-family="Helvetica,sans-Serif" font-size="10.00">SensorValueIndicatorView</text>
<text text-anchor="middle" x="423.5" y="-7" font-family="Helvetica,sans-Serif" font-size="10.00">Model::valueUnit</text>
</a>
</g>
</g>
<!-- Node2&#45;&gt;Node9 -->
<g id="edge8_Node000002_Node000009" class="edge">
<title>Node2&#45;&gt;Node9</title>
<g id="a_edge8_Node000002_Node000009"><a xlink:title=" ">
<path fill="none" stroke="#63b8ff" d="M296.9,-47.94C315.47,-43.07 336.22,-37.63 355.42,-32.59"/>
<polygon fill="#63b8ff" stroke="#63b8ff" points="356.52,-35.93 365.3,-30 354.74,-29.15 356.52,-35.93"/>
</a>
</g>
</g>
<!-- Node4 -->
<g id="Node000004" class="node">
<title>Node4</title>
<g id="a_Node000004"><a xlink:href="classTestBenchModel.html#ad20ac636e12877b99b3bf0e2ee8e5b07" target="_top" xlink:title=" ">
<polygon fill="white" stroke="#666666" points="685,-140.5 536,-140.5 536,-121.5 685,-121.5 685,-140.5"/>
<text text-anchor="middle" x="610.5" y="-128.5" font-family="Helvetica,sans-Serif" font-size="10.00">TestBenchModel::getStatus</text>
</a>
</g>
</g>
<!-- Node3&#45;&gt;Node4 -->
<g id="edge3_Node000003_Node000004" class="edge">
<title>Node3&#45;&gt;Node4</title>
<g id="a_edge3_Node000003_Node000004"><a xlink:title=" ">
<path fill="none" stroke="#63b8ff" d="M495.23,-118.65C505.18,-119.72 515.48,-120.84 525.64,-121.93"/>
<polygon fill="#63b8ff" stroke="#63b8ff" points="525.42,-125.43 535.74,-123.03 526.17,-118.47 525.42,-125.43"/>
</a>
</g>
</g>
<!-- Node6 -->
<g id="Node000006" class="node">
<title>Node6</title>
<g id="a_Node000006"><a xlink:href="classTestBenchModel.html#ace6e3de6f5ccb11ee6e9b3f80b630377" target="_top" xlink:title=" ">
<polygon fill="white" stroke="#666666" points="690,-100.5 531,-100.5 531,-81.5 690,-81.5 690,-100.5"/>
<text text-anchor="middle" x="610.5" y="-88.5" font-family="Helvetica,sans-Serif" font-size="10.00">TestBenchModel::getStatusID</text>
</a>
</g>
</g>
<!-- Node3&#45;&gt;Node6 -->
<g id="edge5_Node000003_Node000006" class="edge">
<title>Node3&#45;&gt;Node6</title>
<g id="a_edge5_Node000003_Node000006"><a xlink:title=" ">
<path fill="none" stroke="#63b8ff" d="M495.23,-103.35C503.59,-102.45 512.2,-101.52 520.77,-100.59"/>
<polygon fill="#63b8ff" stroke="#63b8ff" points="521.22,-104.06 530.78,-99.51 520.47,-97.1 521.22,-104.06"/>
</a>
</g>
</g>
<!-- Node5 -->
<g id="Node000005" class="node">
<title>Node5</title>
<g id="a_Node000005"><a xlink:href="classTestBenchStatesList.html#a9c69f8c778b31be6b13d95caa7d618b9" target="_top" xlink:title=" ">
<polygon fill="white" stroke="#666666" points="840,-149 726,-149 726,-119 840,-119 840,-149"/>
<text text-anchor="start" x="734" y="-137" font-family="Helvetica,sans-Serif" font-size="10.00">TestBenchStatesList</text>
<text text-anchor="middle" x="783" y="-126" font-family="Helvetica,sans-Serif" font-size="10.00">::getValue</text>
</a>
</g>
</g>
<!-- Node4&#45;&gt;Node5 -->
<g id="edge4_Node000004_Node000005" class="edge">
<title>Node4&#45;&gt;Node5</title>
<g id="a_edge4_Node000004_Node000005"><a xlink:title=" ">
<path fill="none" stroke="#63b8ff" d="M685.29,-132.3C695.38,-132.48 705.68,-132.66 715.63,-132.83"/>
<polygon fill="#63b8ff" stroke="#63b8ff" points="715.77,-136.34 725.83,-133.01 715.9,-129.34 715.77,-136.34"/>
</a>
</g>
</g>
<!-- Node7 -->
<g id="Node000007" class="node">
<title>Node7</title>
<g id="a_Node000007"><a xlink:href="classTestBenchStatesList.html#ad87ab49f0bb0081c228afd6dae8c9e57" target="_top" xlink:title=" ">
<polygon fill="white" stroke="#666666" points="840,-101 726,-101 726,-71 840,-71 840,-101"/>
<text text-anchor="start" x="734" y="-89" font-family="Helvetica,sans-Serif" font-size="10.00">TestBenchStatesList</text>
<text text-anchor="middle" x="783" y="-78" font-family="Helvetica,sans-Serif" font-size="10.00">::getID</text>
</a>
</g>
</g>
<!-- Node6&#45;&gt;Node7 -->
<g id="edge6_Node000006_Node000007" class="edge">
<title>Node6&#45;&gt;Node7</title>
<g id="a_edge6_Node000006_Node000007"><a xlink:title=" ">
<path fill="none" stroke="#63b8ff" d="M690.26,-88.69C698.82,-88.44 707.47,-88.19 715.86,-87.94"/>
<polygon fill="#63b8ff" stroke="#63b8ff" points="716.04,-91.44 725.94,-87.64 715.84,-84.44 716.04,-91.44"/>
</a>
</g>
</g>
</g>
</svg>
