<?xml version="1.0" encoding="UTF-8" standalone="no"?>
<!DOCTYPE svg PUBLIC "-//W3C//DTD SVG 1.1//EN"
 "http://www.w3.org/Graphics/SVG/1.1/DTD/svg11.dtd">
<!-- Generated by graphviz version 2.43.0 (0)
 -->
<!-- Title: InitialiseValveButton Pages: 1 -->
<!--zoomable 1403 -->

<svg id="main" version="1.1" xmlns="http://www.w3.org/2000/svg" xmlns:xlink="http://www.w3.org/1999/xlink" xml:space="preserve" onload="init(evt)">
<style type="text/css"><![CDATA[
.node, .edge {opacity: 0.7;}
.node.selected, .edge.selected {opacity: 1;}
.edge:hover path { stroke: red; }
.edge:hover polygon { stroke: red; fill: red; }
]]></style>

<defs>
  <circle id="rim" cx="0" cy="0" r="7"/>
  <circle id="rim2" cx="0" cy="0" r="3.5"/>
  <g id="zoomPlus">
    <use xlink:href="#rim" fill="#404040"><set attributeName="fill" to="#808080" begin="zoomplus.mouseover" end="zoomplus.mouseout"/></use>
    <path d="M-4,0h8M0,-4v8" fill="none" stroke="white" stroke-width="1.5" pointer-events="none"/>
  </g>
  <g id="zoomMin">
    <use xlink:href="#rim" fill="#404040"><set attributeName="fill" to="#808080" begin="zoomminus.mouseover" end="zoomminus.mouseout"/></use>
    <path d="M-4,0h8" fill="none" stroke="white" stroke-width="1.5" pointer-events="none"/>
  </g>
  <g id="arrowUp" transform="translate(30 24)">
    <use xlink:href="#rim"/>
    <path pointer-events="none" fill="none" stroke="white" stroke-width="1.5" d="M0,-3.0v7 M-2.5,-0.5L0,-3.0L2.5,-0.5"/>
  </g>
  <g id="arrowRight" transform="rotate(90) translate(36 -43)">
    <use xlink:href="#rim"/>
    <path pointer-events="none" fill="none" stroke="white" stroke-width="1.5" d="M0,-3.0v7 M-2.5,-0.5L0,-3.0L2.5,-0.5"/>
  </g>
  <g id="arrowDown" transform="rotate(180) translate(-30 -48)">
    <use xlink:href="#rim"/>
    <path pointer-events="none" fill="none" stroke="white" stroke-width="1.5" d="M0,-3.0v7 M-2.5,-0.5L0,-3.0L2.5,-0.5"/>
  </g>
  <g id="arrowLeft" transform="rotate(270) translate(-36 17)">
    <use xlink:href="#rim"/>
    <path pointer-events="none" fill="none" stroke="white" stroke-width="1.5" d="M0,-3.0v7 M-2.5,-0.5L0,-3.0L2.5,-0.5"/>
  </g>
  <g id="resetDef">
    <use xlink:href="#rim2" fill="#404040"><set attributeName="fill" to="#808080" begin="reset.mouseover" end="reset.mouseout"/></use>
  </g>
</defs>
<script type="application/ecmascript">
var viewWidth = 649;
var viewHeight = 1403;
var sectionId = 'dynsection-1';
</script>
<script type="application/ecmascript" xlink:href="svg.min.js"/>
<svg id="graph" class="graph">
<g id="viewport">
<title>InitialiseValveButton</title>
<!-- Node1 -->
<g id="Node000001" class="node">
<title>Node1</title>
<g id="a_Node000001"><a xlink:title=" ">
<polygon fill="#999999" stroke="transparent" points="130,-64 0,-64 0,0 130,0 130,-64"/>
<text text-anchor="start" x="14" y="-52" font-family="Helvetica,sans-Serif" font-size="10.00">InitialiseValveButton</text>
<text text-anchor="start" x="6.5" y="-37" font-family="Helvetica,sans-Serif" font-size="10.00">&#45;</text>
<text text-anchor="start" x="17" y="-37" font-family="Helvetica,sans-Serif" font-size="10.00">m_size</text>
<text text-anchor="start" x="4" y="-22" font-family="Helvetica,sans-Serif" font-size="10.00">+</text>
<text text-anchor="start" x="17" y="-22" font-family="Helvetica,sans-Serif" font-size="10.00">InitialiseValveButton()</text>
<text text-anchor="start" x="4" y="-7" font-family="Helvetica,sans-Serif" font-size="10.00">+</text>
<text text-anchor="start" x="17" y="-7" font-family="Helvetica,sans-Serif" font-size="10.00">sizeHint()</text>
<polygon fill="#666666" stroke="#666666" points="0,-47 0,-47 130,-47 130,-47 0,-47"/>
<polygon fill="#666666" stroke="#666666" points="0,-32 0,-32 15,-32 15,-32 0,-32"/>
<polygon fill="#666666" stroke="#666666" points="15,-32 15,-32 130,-32 130,-32 15,-32"/>
<polygon fill="none" stroke="#666666" points="0,0 0,-64 130,-64 130,0 0,0"/>
</a>
</g>
</g>
<!-- Node2 -->
<g id="Node000002" class="node">
<title>Node2</title>
<g id="a_Node000002"><a xlink:title=" ">
<polygon fill="white" stroke="transparent" points="86,-178.5 12,-178.5 12,-129.5 86,-129.5 86,-178.5"/>
<text text-anchor="start" x="17" y="-166" font-family="Helvetica,sans-Serif" font-size="10.00">QPushButton</text>
<text text-anchor="start" x="47" y="-151" font-family="Helvetica,sans-Serif" font-size="10.00"> </text>
<text text-anchor="start" x="47" y="-136" font-family="Helvetica,sans-Serif" font-size="10.00"> </text>
<polygon fill="#666666" stroke="#666666" points="12,-161 12,-161 86,-161 86,-161 12,-161"/>
<polygon fill="#666666" stroke="#666666" points="12,-146 12,-146 86,-146 86,-146 12,-146"/>
<polygon fill="none" stroke="#666666" points="12,-129.5 12,-178.5 86,-178.5 86,-129.5 12,-129.5"/>
</a>
</g>
</g>
<!-- Node2&#45;&gt;Node1 -->
<g id="edge1_Node000001_Node000002" class="edge">
<title>Node2&#45;&gt;Node1</title>
<g id="a_edge1_Node000001_Node000002"><a xlink:title=" ">
<path fill="none" stroke="#63b8ff" d="M53.52,-119.12C55.81,-101.94 58.57,-81.21 60.81,-64.39"/>
<polygon fill="none" stroke="#63b8ff" points="50.01,-118.92 52.16,-129.29 56.95,-119.84 50.01,-118.92"/>
</a>
</g>
</g>
<!-- Node3 -->
<g id="Node000003" class="node">
<title>Node3</title>
<g id="a_Node000003"><a xlink:href="classInitialiseValveButtonViewModel.html" target="_top" xlink:title=" ">
<polygon fill="white" stroke="transparent" points="251.5,-197 104.5,-197 104.5,-111 251.5,-111 251.5,-197"/>
<text text-anchor="start" x="115.5" y="-185" font-family="Helvetica,sans-Serif" font-size="10.00">InitialiseValveButtonView</text>
<text text-anchor="start" x="163" y="-174" font-family="Helvetica,sans-Serif" font-size="10.00">Model</text>
<text text-anchor="start" x="176.5" y="-159" font-family="Helvetica,sans-Serif" font-size="10.00"> </text>
<text text-anchor="start" x="109" y="-144" font-family="Helvetica,sans-Serif" font-size="10.00">+</text>
<text text-anchor="start" x="122" y="-144" font-family="Helvetica,sans-Serif" font-size="10.00">InitialiseValveButtonView</text>
<text text-anchor="start" x="122" y="-133" font-family="Helvetica,sans-Serif" font-size="10.00">Model()</text>
<text text-anchor="start" x="109" y="-118" font-family="Helvetica,sans-Serif" font-size="10.00">+</text>
<text text-anchor="start" x="122" y="-118" font-family="Helvetica,sans-Serif" font-size="10.00">initialiseValve()</text>
<polygon fill="#666666" stroke="#666666" points="105,-169 105,-169 252,-169 252,-169 105,-169"/>
<polygon fill="#666666" stroke="#666666" points="105,-154 105,-154 252,-154 252,-154 105,-154"/>
<polygon fill="none" stroke="#666666" points="104.5,-111 104.5,-197 251.5,-197 251.5,-111 104.5,-111"/>
</a>
</g>
</g>
<!-- Node3&#45;&gt;Node1 -->
<g id="edge2_Node000001_Node000003" class="edge">
<title>Node3&#45;&gt;Node1</title>
<g id="a_edge2_Node000001_Node000003"><a xlink:title=" ">
<path fill="none" stroke="#63b8ff" d="M138.16,-110.69C126.72,-98.54 114.27,-85.32 102.95,-73.3"/>
<polygon fill="none" stroke="#63b8ff" points="102.77,-73.1 95.74,-71.48 94.54,-64.37 101.56,-65.99 102.77,-73.1"/>
</a>
</g>
<text text-anchor="middle" x="141" y="-85" font-family="Helvetica,sans-Serif" font-size="10.00" fill="grey"> &#45;m_vm</text>
</g>
<!-- Node4 -->
<g id="Node000004" class="node">
<title>Node4</title>
<g id="a_Node000004"><a xlink:title=" ">
<polygon fill="white" stroke="transparent" points="240,-1395 190,-1395 190,-1346 240,-1346 240,-1395"/>
<text text-anchor="start" x="195" y="-1382.5" font-family="Helvetica,sans-Serif" font-size="10.00">QObject</text>
<text text-anchor="start" x="213" y="-1367.5" font-family="Helvetica,sans-Serif" font-size="10.00"> </text>
<text text-anchor="start" x="213" y="-1352.5" font-family="Helvetica,sans-Serif" font-size="10.00"> </text>
<polygon fill="#666666" stroke="#666666" points="190,-1377.5 190,-1377.5 240,-1377.5 240,-1377.5 190,-1377.5"/>
<polygon fill="#666666" stroke="#666666" points="190,-1362.5 190,-1362.5 240,-1362.5 240,-1362.5 190,-1362.5"/>
<polygon fill="none" stroke="#666666" points="190,-1346 190,-1395 240,-1395 240,-1346 190,-1346"/>
</a>
</g>
</g>
<!-- Node4&#45;&gt;Node3 -->
<g id="edge3_Node000003_Node000004" class="edge">
<title>Node4&#45;&gt;Node3</title>
<g id="a_edge3_Node000003_Node000004"><a xlink:title=" ">
<path fill="none" stroke="#63b8ff" d="M182.36,-1343.49C159.86,-1322.45 134,-1290.62 134,-1255.5 134,-1255.5 134,-1255.5 134,-410 134,-334.08 153.18,-247.27 166.21,-197.03"/>
<polygon fill="none" stroke="#63b8ff" points="180.04,-1346.12 189.82,-1350.2 184.72,-1340.91 180.04,-1346.12"/>
</a>
</g>
</g>
<!-- Node5 -->
<g id="Node000005" class="node">
<title>Node5</title>
<g id="a_Node000005"><a xlink:href="classUdpChannel.html" target="_top" xlink:title="UDP communication channel between the microcontroller and the HMI.">
<polygon fill="white" stroke="transparent" points="418.5,-578 283.5,-578 283.5,-244 418.5,-244 418.5,-578"/>
<text text-anchor="start" x="321.5" y="-566" font-family="Helvetica,sans-Serif" font-size="10.00">UdpChannel</text>
<text text-anchor="start" x="290.5" y="-551" font-family="Helvetica,sans-Serif" font-size="10.00">&#45;</text>
<text text-anchor="start" x="301" y="-551" font-family="Helvetica,sans-Serif" font-size="10.00">m_udpWorkerThread</text>
<text text-anchor="start" x="290.5" y="-536" font-family="Helvetica,sans-Serif" font-size="10.00">&#45;</text>
<text text-anchor="start" x="301" y="-536" font-family="Helvetica,sans-Serif" font-size="10.00">m_udpSocket</text>
<text text-anchor="start" x="290.5" y="-521" font-family="Helvetica,sans-Serif" font-size="10.00">&#45;</text>
<text text-anchor="start" x="301" y="-521" font-family="Helvetica,sans-Serif" font-size="10.00">m_remoteAddr</text>
<text text-anchor="start" x="290.5" y="-506" font-family="Helvetica,sans-Serif" font-size="10.00">&#45;</text>
<text text-anchor="start" x="301" y="-506" font-family="Helvetica,sans-Serif" font-size="10.00">m_remotePort</text>
<text text-anchor="start" x="290.5" y="-491" font-family="Helvetica,sans-Serif" font-size="10.00">&#45;</text>
<text text-anchor="start" x="301" y="-491" font-family="Helvetica,sans-Serif" font-size="10.00">m_localAddr</text>
<text text-anchor="start" x="290.5" y="-476" font-family="Helvetica,sans-Serif" font-size="10.00">&#45;</text>
<text text-anchor="start" x="301" y="-476" font-family="Helvetica,sans-Serif" font-size="10.00">m_localPort</text>
<text text-anchor="start" x="290.5" y="-461" font-family="Helvetica,sans-Serif" font-size="10.00">&#45;</text>
<text text-anchor="start" x="301" y="-461" font-family="Helvetica,sans-Serif" font-size="10.00">m_lastRefresh</text>
<text text-anchor="start" x="290.5" y="-446" font-family="Helvetica,sans-Serif" font-size="10.00">&#45;</text>
<text text-anchor="start" x="301" y="-446" font-family="Helvetica,sans-Serif" font-size="10.00">m_periodOfRefresh</text>
<text text-anchor="start" x="290.5" y="-431" font-family="Helvetica,sans-Serif" font-size="10.00">&#45;</text>
<text text-anchor="start" x="301" y="-431" font-family="Helvetica,sans-Serif" font-size="10.00">m_running</text>
<text text-anchor="start" x="288" y="-416" font-family="Helvetica,sans-Serif" font-size="10.00">+</text>
<text text-anchor="start" x="301" y="-416" font-family="Helvetica,sans-Serif" font-size="10.00">UdpChannel()</text>
<text text-anchor="start" x="288" y="-401" font-family="Helvetica,sans-Serif" font-size="10.00">+</text>
<text text-anchor="start" x="301" y="-401" font-family="Helvetica,sans-Serif" font-size="10.00">~UdpChannel()</text>
<text text-anchor="start" x="288" y="-386" font-family="Helvetica,sans-Serif" font-size="10.00">+</text>
<text text-anchor="start" x="301" y="-386" font-family="Helvetica,sans-Serif" font-size="10.00">startEndpoint()</text>
<text text-anchor="start" x="288" y="-371" font-family="Helvetica,sans-Serif" font-size="10.00">+</text>
<text text-anchor="start" x="301" y="-371" font-family="Helvetica,sans-Serif" font-size="10.00">stopEndpoint()</text>
<text text-anchor="start" x="288" y="-356" font-family="Helvetica,sans-Serif" font-size="10.00">+</text>
<text text-anchor="start" x="301" y="-356" font-family="Helvetica,sans-Serif" font-size="10.00">sendData()</text>
<text text-anchor="start" x="288" y="-341" font-family="Helvetica,sans-Serif" font-size="10.00">+</text>
<text text-anchor="start" x="301" y="-341" font-family="Helvetica,sans-Serif" font-size="10.00">running()</text>
<text text-anchor="start" x="288" y="-326" font-family="Helvetica,sans-Serif" font-size="10.00">+</text>
<text text-anchor="start" x="301" y="-326" font-family="Helvetica,sans-Serif" font-size="10.00">remoteAddr()</text>
<text text-anchor="start" x="288" y="-311" font-family="Helvetica,sans-Serif" font-size="10.00">+</text>
<text text-anchor="start" x="301" y="-311" font-family="Helvetica,sans-Serif" font-size="10.00">remotePort()</text>
<text text-anchor="start" x="288" y="-296" font-family="Helvetica,sans-Serif" font-size="10.00">+</text>
<text text-anchor="start" x="301" y="-296" font-family="Helvetica,sans-Serif" font-size="10.00">localAddr()</text>
<text text-anchor="start" x="288" y="-281" font-family="Helvetica,sans-Serif" font-size="10.00">+</text>
<text text-anchor="start" x="301" y="-281" font-family="Helvetica,sans-Serif" font-size="10.00">localPort()</text>
<text text-anchor="start" x="301" y="-266" font-family="Helvetica,sans-Serif" font-size="10.00">and 6 more...</text>
<text text-anchor="start" x="288" y="-251" font-family="Helvetica,sans-Serif" font-size="10.00">+</text>
<text text-anchor="start" x="301" y="-251" font-family="Helvetica,sans-Serif" font-size="10.00">onDatagramReceived()</text>
<polygon fill="#666666" stroke="#666666" points="284,-561 284,-561 419,-561 419,-561 284,-561"/>
<polygon fill="#666666" stroke="#666666" points="284,-426 284,-426 299,-426 299,-426 284,-426"/>
<polygon fill="#666666" stroke="#666666" points="299,-426 299,-426 419,-426 419,-426 299,-426"/>
<polygon fill="none" stroke="#666666" points="283.5,-244 283.5,-578 418.5,-578 418.5,-244 283.5,-244"/>
</a>
</g>
</g>
<!-- Node4&#45;&gt;Node5 -->
<g id="edge5_Node000005_Node000004" class="edge">
<title>Node4&#45;&gt;Node5</title>
<g id="a_edge5_Node000005_Node000004"><a xlink:title=" ">
<path fill="none" stroke="#63b8ff" d="M195.42,-1336.62C184.07,-1314.48 172,-1284.19 172,-1255.5 172,-1255.5 172,-1255.5 172,-686 172,-601.34 232.64,-522.41 283.33,-471.22"/>
<polygon fill="none" stroke="#63b8ff" points="192.41,-1338.4 200.2,-1345.58 198.58,-1335.11 192.41,-1338.4"/>
</a>
</g>
</g>
<!-- Node6 -->
<g id="Node000006" class="node">
<title>Node6</title>
<g id="a_Node000006"><a xlink:href="classUdpWorker.html" target="_top" xlink:title="UDP socket worker running on a dedicated thread.">
<polygon fill="white" stroke="transparent" points="360,-749 200,-749 200,-625 360,-625 360,-749"/>
<text text-anchor="start" x="253" y="-737" font-family="Helvetica,sans-Serif" font-size="10.00">UdpWorker</text>
<text text-anchor="start" x="206.5" y="-722" font-family="Helvetica,sans-Serif" font-size="10.00">&#45;</text>
<text text-anchor="start" x="217" y="-722" font-family="Helvetica,sans-Serif" font-size="10.00">socket</text>
<text text-anchor="start" x="206.5" y="-707" font-family="Helvetica,sans-Serif" font-size="10.00">&#45;</text>
<text text-anchor="start" x="217" y="-707" font-family="Helvetica,sans-Serif" font-size="10.00">m_lastFrameSend</text>
<text text-anchor="start" x="204" y="-692" font-family="Helvetica,sans-Serif" font-size="10.00">+</text>
<text text-anchor="start" x="217" y="-692" font-family="Helvetica,sans-Serif" font-size="10.00">UdpWorker()</text>
<text text-anchor="start" x="204" y="-677" font-family="Helvetica,sans-Serif" font-size="10.00">+</text>
<text text-anchor="start" x="217" y="-677" font-family="Helvetica,sans-Serif" font-size="10.00">start()</text>
<text text-anchor="start" x="204" y="-662" font-family="Helvetica,sans-Serif" font-size="10.00">+</text>
<text text-anchor="start" x="217" y="-662" font-family="Helvetica,sans-Serif" font-size="10.00">stop()</text>
<text text-anchor="start" x="206.5" y="-647" font-family="Helvetica,sans-Serif" font-size="10.00">&#45;</text>
<text text-anchor="start" x="217" y="-647" font-family="Helvetica,sans-Serif" font-size="10.00">decimate()</text>
<text text-anchor="start" x="206.5" y="-632" font-family="Helvetica,sans-Serif" font-size="10.00">&#45;</text>
<text text-anchor="start" x="217" y="-632" font-family="Helvetica,sans-Serif" font-size="10.00">processPendingDatagrams()</text>
<polygon fill="#666666" stroke="#666666" points="200,-732 200,-732 360,-732 360,-732 200,-732"/>
<polygon fill="#666666" stroke="#666666" points="200,-702 200,-702 215,-702 215,-702 200,-702"/>
<polygon fill="#666666" stroke="#666666" points="215,-702 215,-702 360,-702 360,-702 215,-702"/>
<polygon fill="none" stroke="#666666" points="200,-625 200,-749 360,-749 360,-625 200,-625"/>
</a>
</g>
</g>
<!-- Node4&#45;&gt;Node6 -->
<g id="edge7_Node000006_Node000004" class="edge">
<title>Node4&#45;&gt;Node6</title>
<g id="a_edge7_Node000006_Node000004"><a xlink:title=" ">
<path fill="none" stroke="#63b8ff" d="M216.04,-1335.89C219.1,-1247.23 229.71,-999.85 258,-796 260.12,-780.74 263.08,-764.4 266.14,-749.17"/>
<polygon fill="none" stroke="#63b8ff" points="212.54,-1335.79 215.7,-1345.9 219.54,-1336.02 212.54,-1335.79"/>
</a>
</g>
</g>
<!-- Node8 -->
<g id="Node000008" class="node">
<title>Node8</title>
<g id="a_Node000008"><a xlink:href="classLogger.html" target="_top" xlink:title=" ">
<polygon fill="white" stroke="transparent" points="346,-1309 278,-1309 278,-1200 346,-1200 346,-1309"/>
<text text-anchor="start" x="295" y="-1296.5" font-family="Helvetica,sans-Serif" font-size="10.00">Logger</text>
<text text-anchor="start" x="310" y="-1281.5" font-family="Helvetica,sans-Serif" font-size="10.00"> </text>
<text text-anchor="start" x="282" y="-1266.5" font-family="Helvetica,sans-Serif" font-size="10.00">+</text>
<text text-anchor="start" x="295" y="-1266.5" font-family="Helvetica,sans-Serif" font-size="10.00">Logger()</text>
<text text-anchor="start" x="282" y="-1251.5" font-family="Helvetica,sans-Serif" font-size="10.00">+</text>
<text text-anchor="start" x="295" y="-1251.5" font-family="Helvetica,sans-Serif" font-size="10.00">log()</text>
<text text-anchor="start" x="282" y="-1236.5" font-family="Helvetica,sans-Serif" font-size="10.00">+</text>
<text text-anchor="start" x="295" y="-1236.5" font-family="Helvetica,sans-Serif" font-size="10.00">debug()</text>
<text text-anchor="start" x="282" y="-1221.5" font-family="Helvetica,sans-Serif" font-size="10.00">+</text>
<text text-anchor="start" x="295" y="-1221.5" font-family="Helvetica,sans-Serif" font-size="10.00">error()</text>
<text text-anchor="start" x="282" y="-1206.5" font-family="Helvetica,sans-Serif" font-size="10.00">+</text>
<text text-anchor="start" x="295" y="-1206.5" font-family="Helvetica,sans-Serif" font-size="10.00">warning()</text>
<polygon fill="#666666" stroke="#666666" points="278,-1291.5 278,-1291.5 346,-1291.5 346,-1291.5 278,-1291.5"/>
<polygon fill="#666666" stroke="#666666" points="278,-1276.5 278,-1276.5 346,-1276.5 346,-1276.5 278,-1276.5"/>
<polygon fill="none" stroke="#666666" points="278,-1200 278,-1309 346,-1309 346,-1200 278,-1200"/>
</a>
</g>
</g>
<!-- Node4&#45;&gt;Node8 -->
<g id="edge10_Node000008_Node000004" class="edge">
<title>Node4&#45;&gt;Node8</title>
<g id="a_edge10_Node000008_Node000004"><a xlink:title=" ">
<path fill="none" stroke="#63b8ff" d="M241.76,-1338.05C252.9,-1324.96 265.97,-1309.6 277.79,-1295.7"/>
<polygon fill="none" stroke="#63b8ff" points="238.91,-1335.99 235.1,-1345.88 244.24,-1340.53 238.91,-1335.99"/>
</a>
</g>
</g>
<!-- Node9 -->
<g id="Node000009" class="node">
<title>Node9</title>
<g id="a_Node000009"><a xlink:href="classFileSystem.html" target="_top" xlink:title=" ">
<polygon fill="white" stroke="transparent" points="611,-1182 519,-1182 519,-1103 611,-1103 611,-1182"/>
<text text-anchor="start" x="537.5" y="-1169.5" font-family="Helvetica,sans-Serif" font-size="10.00">FileSystem</text>
<text text-anchor="start" x="525.5" y="-1154.5" font-family="Helvetica,sans-Serif" font-size="10.00">&#45;</text>
<text text-anchor="start" x="536" y="-1154.5" font-family="Helvetica,sans-Serif" font-size="10.00">m_pathList</text>
<text text-anchor="start" x="523" y="-1139.5" font-family="Helvetica,sans-Serif" font-size="10.00">+</text>
<text text-anchor="start" x="536" y="-1139.5" font-family="Helvetica,sans-Serif" font-size="10.00">FileSystem()</text>
<text text-anchor="start" x="523" y="-1124.5" font-family="Helvetica,sans-Serif" font-size="10.00">+</text>
<text text-anchor="start" x="536" y="-1124.5" font-family="Helvetica,sans-Serif" font-size="10.00">addDirectory()</text>
<text text-anchor="start" x="523" y="-1109.5" font-family="Helvetica,sans-Serif" font-size="10.00">+</text>
<text text-anchor="start" x="536" y="-1109.5" font-family="Helvetica,sans-Serif" font-size="10.00">getDirectory()</text>
<polygon fill="#666666" stroke="#666666" points="519,-1164.5 519,-1164.5 611,-1164.5 611,-1164.5 519,-1164.5"/>
<polygon fill="#666666" stroke="#666666" points="519,-1149.5 519,-1149.5 534,-1149.5 534,-1149.5 519,-1149.5"/>
<polygon fill="#666666" stroke="#666666" points="534,-1149.5 534,-1149.5 611,-1149.5 611,-1149.5 534,-1149.5"/>
<polygon fill="none" stroke="#666666" points="519,-1103 519,-1182 611,-1182 611,-1103 519,-1103"/>
</a>
</g>
</g>
<!-- Node4&#45;&gt;Node9 -->
<g id="edge13_Node000009_Node000004" class="edge">
<title>Node4&#45;&gt;Node9</title>
<g id="a_edge13_Node000009_Node000004"><a xlink:title=" ">
<path fill="none" stroke="#63b8ff" d="M249.94,-1357.3C279.03,-1346.47 321.03,-1329.26 355,-1309 417.4,-1271.79 481.99,-1218.23 522.77,-1182.21"/>
<polygon fill="none" stroke="#63b8ff" points="248.41,-1354.13 240.23,-1360.86 250.82,-1360.71 248.41,-1354.13"/>
</a>
</g>
</g>
<!-- Node5&#45;&gt;Node3 -->
<g id="edge4_Node000003_Node000005" class="edge">
<title>Node5&#45;&gt;Node3</title>
<g id="a_edge4_Node000003_Node000005"><a xlink:title=" ">
<path fill="none" stroke="#63b8ff" d="M283.37,-310.31C259.46,-275.08 233.54,-236.86 213.38,-207.15"/>
<polygon fill="none" stroke="#63b8ff" points="213.24,-206.95 206.57,-204.23 206.51,-197.02 213.19,-199.74 213.24,-206.95"/>
</a>
</g>
<text text-anchor="middle" x="265" y="-218" font-family="Helvetica,sans-Serif" font-size="10.00" fill="grey"> &#45;m_udpChannel</text>
</g>
<!-- Node6&#45;&gt;Node5 -->
<g id="edge6_Node000005_Node000006" class="edge">
<title>Node6&#45;&gt;Node5</title>
<g id="a_edge6_Node000005_Node000006"><a xlink:title=" ">
<path fill="none" stroke="#63b8ff" d="M295.85,-624.85C298.65,-614.03 301.69,-602.3 304.86,-590.08"/>
<polygon fill="none" stroke="#63b8ff" points="304.92,-589.85 302.55,-583.03 307.93,-578.23 310.29,-585.04 304.92,-589.85"/>
</a>
</g>
<text text-anchor="middle" x="340" y="-599" font-family="Helvetica,sans-Serif" font-size="10.00" fill="grey"> &#45;m_udpWorker</text>
</g>
<!-- Node7 -->
<g id="Node000007" class="node">
<title>Node7</title>
<g id="a_Node000007"><a xlink:href="classUdpLogger.html" target="_top" xlink:title="High&#45;frequency binary logger for UDP telemetry frames.">
<polygon fill="white" stroke="transparent" points="465.5,-1085 332.5,-1085 332.5,-796 465.5,-796 465.5,-1085"/>
<text text-anchor="start" x="373" y="-1072.5" font-family="Helvetica,sans-Serif" font-size="10.00">UdpLogger</text>
<text text-anchor="start" x="339.5" y="-1057.5" font-family="Helvetica,sans-Serif" font-size="10.00">&#45;</text>
<text text-anchor="start" x="350" y="-1057.5" font-family="Helvetica,sans-Serif" font-size="10.00">m_writer</text>
<text text-anchor="start" x="339.5" y="-1042.5" font-family="Helvetica,sans-Serif" font-size="10.00">&#45;</text>
<text text-anchor="start" x="350" y="-1042.5" font-family="Helvetica,sans-Serif" font-size="10.00">m_ringBuffer</text>
<text text-anchor="start" x="339.5" y="-1027.5" font-family="Helvetica,sans-Serif" font-size="10.00">&#45;</text>
<text text-anchor="start" x="350" y="-1027.5" font-family="Helvetica,sans-Serif" font-size="10.00">m_running</text>
<text text-anchor="start" x="339.5" y="-1012.5" font-family="Helvetica,sans-Serif" font-size="10.00">&#45;</text>
<text text-anchor="start" x="350" y="-1012.5" font-family="Helvetica,sans-Serif" font-size="10.00">m_writerThread</text>
<text text-anchor="start" x="339.5" y="-997.5" font-family="Helvetica,sans-Serif" font-size="10.00">&#45;</text>
<text text-anchor="start" x="350" y="-997.5" font-family="Helvetica,sans-Serif" font-size="10.00">m_logDirPath</text>
<text text-anchor="start" x="339.5" y="-982.5" font-family="Helvetica,sans-Serif" font-size="10.00">&#45;</text>
<text text-anchor="start" x="350" y="-982.5" font-family="Helvetica,sans-Serif" font-size="10.00">MAX_FRAME_SIZE</text>
<text text-anchor="start" x="337" y="-967.5" font-family="Helvetica,sans-Serif" font-size="10.00">+</text>
<text text-anchor="start" x="350" y="-967.5" font-family="Helvetica,sans-Serif" font-size="10.00">UdpLogger()</text>
<text text-anchor="start" x="337" y="-952.5" font-family="Helvetica,sans-Serif" font-size="10.00">+</text>
<text text-anchor="start" x="350" y="-952.5" font-family="Helvetica,sans-Serif" font-size="10.00">~UdpLogger()</text>
<text text-anchor="start" x="337" y="-937.5" font-family="Helvetica,sans-Serif" font-size="10.00">+</text>
<text text-anchor="start" x="350" y="-937.5" font-family="Helvetica,sans-Serif" font-size="10.00">UdpLogger()</text>
<text text-anchor="start" x="337" y="-922.5" font-family="Helvetica,sans-Serif" font-size="10.00">+</text>
<text text-anchor="start" x="350" y="-922.5" font-family="Helvetica,sans-Serif" font-size="10.00">operator=()</text>
<text text-anchor="start" x="337" y="-907.5" font-family="Helvetica,sans-Serif" font-size="10.00">+</text>
<text text-anchor="start" x="350" y="-907.5" font-family="Helvetica,sans-Serif" font-size="10.00">UdpLogger()</text>
<text text-anchor="start" x="337" y="-892.5" font-family="Helvetica,sans-Serif" font-size="10.00">+</text>
<text text-anchor="start" x="350" y="-892.5" font-family="Helvetica,sans-Serif" font-size="10.00">operator=()</text>
<text text-anchor="start" x="337" y="-877.5" font-family="Helvetica,sans-Serif" font-size="10.00">+</text>
<text text-anchor="start" x="350" y="-877.5" font-family="Helvetica,sans-Serif" font-size="10.00">log()</text>
<text text-anchor="start" x="337" y="-862.5" font-family="Helvetica,sans-Serif" font-size="10.00">+</text>
<text text-anchor="start" x="350" y="-862.5" font-family="Helvetica,sans-Serif" font-size="10.00">cyclesCount()</text>
<text text-anchor="start" x="337" y="-847.5" font-family="Helvetica,sans-Serif" font-size="10.00">+</text>
<text text-anchor="start" x="350" y="-847.5" font-family="Helvetica,sans-Serif" font-size="10.00">droppedFramesCount()</text>
<text text-anchor="start" x="337" y="-832.5" font-family="Helvetica,sans-Serif" font-size="10.00">+</text>
<text text-anchor="start" x="350" y="-832.5" font-family="Helvetica,sans-Serif" font-size="10.00">start()</text>
<text text-anchor="start" x="337" y="-817.5" font-family="Helvetica,sans-Serif" font-size="10.00">+</text>
<text text-anchor="start" x="350" y="-817.5" font-family="Helvetica,sans-Serif" font-size="10.00">stop()</text>
<text text-anchor="start" x="339.5" y="-802.5" font-family="Helvetica,sans-Serif" font-size="10.00">&#45;</text>
<text text-anchor="start" x="350" y="-802.5" font-family="Helvetica,sans-Serif" font-size="10.00">writerLoop()</text>
<polygon fill="#666666" stroke="#666666" points="333,-1067.5 333,-1067.5 466,-1067.5 466,-1067.5 333,-1067.5"/>
<polygon fill="#666666" stroke="#666666" points="333,-977.5 333,-977.5 348,-977.5 348,-977.5 333,-977.5"/>
<polygon fill="#666666" stroke="#666666" points="348,-977.5 348,-977.5 466,-977.5 466,-977.5 348,-977.5"/>
<polygon fill="none" stroke="#666666" points="332.5,-796 332.5,-1085 465.5,-1085 465.5,-796 332.5,-796"/>
</a>
</g>
</g>
<!-- Node7&#45;&gt;Node5 -->
<g id="edge15_Node000005_Node000007" class="edge">
<title>Node7&#45;&gt;Node5</title>
<g id="a_edge15_Node000005_Node000007"><a xlink:title=" ">
<path fill="none" stroke="#63b8ff" d="M394.98,-795.91C392.34,-734.25 388.03,-661.46 381,-596 380.81,-594.19 380.61,-592.37 380.4,-590.54"/>
<polygon fill="none" stroke="#63b8ff" points="380.37,-590.3 375.69,-584.81 378.96,-578.38 383.64,-583.87 380.37,-590.3"/>
</a>
</g>
<text text-anchor="middle" x="429.5" y="-684.5" font-family="Helvetica,sans-Serif" font-size="10.00" fill="grey"> &#45;m_udpLogger</text>
</g>
<!-- Node7&#45;&gt;Node6 -->
<g id="edge8_Node000006_Node000007" class="edge">
<title>Node7&#45;&gt;Node6</title>
<g id="a_edge8_Node000006_Node000007"><a xlink:title=" ">
<path fill="none" stroke="#63b8ff" d="M332.5,-822.9C324.87,-807.97 317.51,-792.75 311,-778 308.52,-772.38 306.11,-766.49 303.8,-760.54"/>
<polygon fill="none" stroke="#63b8ff" points="303.7,-760.28 297.85,-756.07 299.48,-749.05 305.33,-753.26 303.7,-760.28"/>
</a>
</g>
<text text-anchor="middle" x="346.5" y="-770" font-family="Helvetica,sans-Serif" font-size="10.00" fill="grey"> &#45;m_udplogger</text>
</g>
<!-- Node8&#45;&gt;Node5 -->
<g id="edge14_Node000005_Node000008" class="edge">
<title>Node8&#45;&gt;Node5</title>
<g id="a_edge14_Node000005_Node000008"><a xlink:title=" ">
<path fill="none" stroke="#63b8ff" d="M346.08,-1203.87C347.67,-1202.5 349.31,-1201.2 351,-1200 373.34,-1184.1 388.04,-1198.41 410,-1182 451.37,-1151.08 459.15,-1134.47 474,-1085 532.78,-889.18 523.83,-822.24 470,-625 460.18,-589.02 443.04,-552.59 424.77,-520.28"/>
<polygon fill="none" stroke="#63b8ff" points="424.54,-519.89 418.08,-516.69 418.54,-509.49 425.01,-512.69 424.54,-519.89"/>
</a>
</g>
<text text-anchor="middle" x="533.5" y="-770" font-family="Helvetica,sans-Serif" font-size="10.00" fill="grey"> &#45;m_logger</text>
</g>
<!-- Node8&#45;&gt;Node6 -->
<g id="edge11_Node000006_Node000008" class="edge">
<title>Node8&#45;&gt;Node6</title>
<g id="a_edge11_Node000006_Node000008"><a xlink:title=" ">
<path fill="none" stroke="#63b8ff" d="M295.07,-1199.87C285.61,-1167.07 274.79,-1124.05 270,-1085 254.35,-957.51 264.07,-924.31 270,-796 270.52,-784.69 271.35,-772.74 272.31,-761.07"/>
<polygon fill="none" stroke="#63b8ff" points="272.32,-761 268.85,-754.68 273.36,-749.05 276.82,-755.37 272.32,-761"/>
</a>
</g>
<text text-anchor="middle" x="296.5" y="-938" font-family="Helvetica,sans-Serif" font-size="10.00" fill="grey"> &#45;m_logger</text>
</g>
<!-- Node8&#45;&gt;Node7 -->
<g id="edge9_Node000007_Node000008" class="edge">
<title>Node8&#45;&gt;Node7</title>
<g id="a_edge9_Node000007_Node000008"><a xlink:title=" ">
<path fill="none" stroke="#63b8ff" d="M326.96,-1199.87C334.96,-1171.17 345.26,-1134.21 355.57,-1097.27"/>
<polygon fill="none" stroke="#63b8ff" points="355.68,-1096.84 353.44,-1089.99 358.91,-1085.28 361.15,-1092.14 355.68,-1096.84"/>
</a>
</g>
<text text-anchor="middle" x="379.5" y="-1140" font-family="Helvetica,sans-Serif" font-size="10.00" fill="grey"> &#45;m_logger</text>
</g>
<!-- Node9&#45;&gt;Node5 -->
<g id="edge12_Node000005_Node000009" class="edge">
<title>Node9&#45;&gt;Node5</title>
<g id="a_edge12_Node000005_Node000009"><a xlink:title=" ">
<path fill="none" stroke="#63b8ff" d="M570.37,-1102.81C581.42,-1009.63 598.86,-767.79 511,-596 489.77,-554.49 457.19,-514.63 426.95,-482.7"/>
<polygon fill="none" stroke="#63b8ff" points="426.82,-482.56 419.78,-481 418.5,-473.91 425.54,-475.46 426.82,-482.56"/>
</a>
</g>
<text text-anchor="middle" x="604" y="-770" font-family="Helvetica,sans-Serif" font-size="10.00" fill="grey"> &#45;m_fileSystem</text>
</g>
</g>
</svg>

<g id="navigator" transform="translate(0 0)" fill="#404254">
  <rect fill="#f2f5e9" fill-opacity="0.5" stroke="#606060" stroke-width=".5" x="0" y="0" width="60" height="60"/>
  <use id="zoomplus" xlink:href="#zoomPlus" x="17" y="9" onmousedown="handleZoom(evt,'in')"/>
  <use id="zoomminus" xlink:href="#zoomMin" x="42" y="9" onmousedown="handleZoom(evt,'out')"/>
  <use id="reset" xlink:href="#resetDef" x="30" y="36" onmousedown="handleReset()"/>
   <use id="arrowup" xlink:href="#arrowUp" x="0" y="0" onmousedown="handlePan(0,-1)"/>
  <use id="arrowright" xlink:href="#arrowRight" x="0" y="0" onmousedown="handlePan(1,0)"/>
  <use id="arrowdown" xlink:href="#arrowDown" x="0" y="0" onmousedown="handlePan(0,1)"/>
  <use id="arrowleft" xlink:href="#arrowLeft" x="0" y="0" onmousedown="handlePan(-1,0)"/>
</g>
<svg viewBox="0 0 15 15" width="100%" height="30px" preserveAspectRatio="xMaxYMin meet">
 <g id="arrow_out" transform="scale(0.3 0.3)">
  <a xlink:href="classInitialiseValveButton__coll__graph_org.svg" target="_base">
   <rect id="button" ry="5" rx="5" y="6" x="6" height="38" width="38"
        fill="#f2f5e9" fill-opacity="0.5" stroke="#606060" stroke-width="1.0"/>
   <path id="arrow"
     d="M 11.500037,31.436501 C 11.940474,20.09759 22.043105,11.32322 32.158766,21.979434 L 37.068811,17.246167 C 37.068811,17.246167 37.088388,32 37.088388,32 L 22.160133,31.978069 C 22.160133,31.978069 26.997745,27.140456 26.997745,27.140456 C 18.528582,18.264221 13.291696,25.230495 11.500037,31.436501 z"
     style="fill:#404040;"/>
  </a>
 </g>
</svg>

<style type='text/css'>
<![CDATA[
[data-mouse-over-selected='false'] { opacity: 0.7; }
[data-mouse-over-selected='true']  { opacity: 1.0; }
]]>
</style>
<script type="application/ecmascript"><![CDATA[
document.addEventListener('DOMContentLoaded', (event) => {
  highlightEdges();
  highlightAdjacentNodes();
});
]]></script>
</svg>
