<?xml version="1.0" encoding="UTF-8" standalone="no"?>
<!DOCTYPE svg PUBLIC "-//W3C//DTD SVG 1.1//EN"
 "http://www.w3.org/Graphics/SVG/1.1/DTD/svg11.dtd">
<!-- Generated by graphviz version 2.43.0 (0)
 -->
<!-- Title: PlotViewModel::curvesParametersChanged Pages: 1 -->
<svg width="536pt" height="140pt"
 viewBox="0.00 0.00 536.00 140.00" xmlns="http://www.w3.org/2000/svg" xmlns:xlink="http://www.w3.org/1999/xlink">
<g id="graph0" class="graph" transform="scale(1 1) rotate(0) translate(4 136)">
<title>PlotViewModel::curvesParametersChanged</title>
<!-- Node1 -->
<g id="Node000001" class="node">
<title>Node1</title>
<g id="a_Node000001"><a xlink:title=" ">
<polygon fill="#999999" stroke="#666666" points="528,-81.5 345,-81.5 345,-51.5 528,-51.5 528,-81.5"/>
<text text-anchor="start" x="353" y="-69.5" font-family="Helvetica,sans-Serif" font-size="10.00">PlotViewModel::curvesParameters</text>
<text text-anchor="middle" x="436.5" y="-58.5" font-family="Helvetica,sans-Serif" font-size="10.00">Changed</text>
</a>
</g>
</g>
<!-- Node2 -->
<g id="Node000002" class="node">
<title>Node2</title>
<g id="a_Node000002"><a xlink:href="classPlotViewModel.html#a193447fec125098f489f23121f89d6a9" target="_top" xlink:title=" ">
<polygon fill="white" stroke="#666666" points="309,-132 167,-132 167,-113 309,-113 309,-132"/>
<text text-anchor="middle" x="238" y="-120" font-family="Helvetica,sans-Serif" font-size="10.00">PlotViewModel::addCurve</text>
</a>
</g>
</g>
<!-- Node1&#45;&gt;Node2 -->
<g id="edge1_Node000001_Node000002" class="edge">
<title>Node1&#45;&gt;Node2</title>
<g id="a_edge1_Node000001_Node000002"><a xlink:title=" ">
<path fill="none" stroke="#63b8ff" d="M377.36,-84.5C355.93,-90.99 331.41,-98.25 309,-104.5 298.73,-107.36 287.56,-110.31 277.22,-112.97"/>
<polygon fill="#63b8ff" stroke="#63b8ff" points="378.43,-87.83 386.98,-81.57 376.39,-81.13 378.43,-87.83"/>
</a>
</g>
</g>
<!-- Node3 -->
<g id="Node000003" class="node">
<title>Node3</title>
<g id="a_Node000003"><a xlink:href="classPlotViewModel.html#a5842c23b03eb12fe9e5f80e25a6cf923" target="_top" xlink:title=" ">
<polygon fill="white" stroke="#666666" points="306.5,-95 169.5,-95 169.5,-76 306.5,-76 306.5,-95"/>
<text text-anchor="middle" x="238" y="-83" font-family="Helvetica,sans-Serif" font-size="10.00">PlotViewModel::initialise</text>
</a>
</g>
</g>
<!-- Node1&#45;&gt;Node3 -->
<g id="edge2_Node000001_Node000003" class="edge">
<title>Node1&#45;&gt;Node3</title>
<g id="a_edge2_Node000001_Node000003"><a xlink:title=" ">
<path fill="none" stroke="#63b8ff" d="M334.53,-76.26C325.13,-77.17 315.76,-78.08 306.78,-78.95"/>
<polygon fill="#63b8ff" stroke="#63b8ff" points="335.11,-79.72 344.73,-75.28 334.44,-72.76 335.11,-79.72"/>
</a>
</g>
</g>
<!-- Node4 -->
<g id="Node000004" class="node">
<title>Node4</title>
<g id="a_Node000004"><a xlink:href="classPlot.html#a5b4b38ebab6fc69bd007d591c2bc61e3" target="_top" xlink:title=" ">
<polygon fill="white" stroke="#666666" points="95.5,-76 35.5,-76 35.5,-57 95.5,-57 95.5,-76"/>
<text text-anchor="middle" x="65.5" y="-64" font-family="Helvetica,sans-Serif" font-size="10.00">Plot::Plot</text>
</a>
</g>
</g>
<!-- Node1&#45;&gt;Node4 -->
<g id="edge4_Node000001_Node000004" class="edge">
<title>Node1&#45;&gt;Node4</title>
<g id="a_edge4_Node000001_Node000004"><a xlink:title=" ">
<path fill="none" stroke="#63b8ff" d="M334.6,-66.5C254.18,-66.5 146.89,-66.5 95.86,-66.5"/>
<polygon fill="#63b8ff" stroke="#63b8ff" points="334.76,-70 344.76,-66.5 334.76,-63 334.76,-70"/>
</a>
</g>
</g>
<!-- Node5 -->
<g id="Node000005" class="node">
<title>Node5</title>
<g id="a_Node000005"><a xlink:href="classPlotViewModel.html#a127a03cb99dc177fed9c16a6553860de" target="_top" xlink:title=" ">
<polygon fill="white" stroke="#666666" points="293,-19 183,-19 183,0 293,0 293,-19"/>
<text text-anchor="middle" x="238" y="-7" font-family="Helvetica,sans-Serif" font-size="10.00">PlotViewModel::set</text>
</a>
</g>
</g>
<!-- Node1&#45;&gt;Node5 -->
<g id="edge5_Node000001_Node000005" class="edge">
<title>Node1&#45;&gt;Node5</title>
<g id="a_edge5_Node000001_Node000005"><a xlink:title=" ">
<path fill="none" stroke="#63b8ff" d="M373.85,-48.62C340.15,-38.84 299.75,-27.12 272.01,-19.08"/>
<polygon fill="#63b8ff" stroke="#63b8ff" points="373.04,-52.02 383.61,-51.45 374.99,-45.3 373.04,-52.02"/>
</a>
</g>
</g>
<!-- Node3&#45;&gt;Node4 -->
<g id="edge3_Node000003_Node000004" class="edge">
<title>Node3&#45;&gt;Node4</title>
<g id="a_edge3_Node000003_Node000004"><a xlink:title=" ">
<path fill="none" stroke="#63b8ff" d="M158.89,-76.8C136.48,-74.3 113.4,-71.73 95.91,-69.78"/>
<polygon fill="#63b8ff" stroke="#63b8ff" points="158.8,-80.31 169.12,-77.94 159.57,-73.35 158.8,-80.31"/>
</a>
</g>
</g>
<!-- Node6 -->
<g id="Node000006" class="node">
<title>Node6</title>
<g id="a_Node000006"><a xlink:href="classGraphicTab.html#a223c161561ddc604b6773b67a7926a79" target="_top" xlink:title=" ">
<polygon fill="white" stroke="#666666" points="131,-19 0,-19 0,0 131,0 131,-19"/>
<text text-anchor="middle" x="65.5" y="-7" font-family="Helvetica,sans-Serif" font-size="10.00">GraphicTab::GraphicTab</text>
</a>
</g>
</g>
<!-- Node5&#45;&gt;Node6 -->
<g id="edge6_Node000005_Node000006" class="edge">
<title>Node5&#45;&gt;Node6</title>
<g id="a_edge6_Node000005_Node000006"><a xlink:title=" ">
<path fill="none" stroke="#63b8ff" d="M172.41,-9.5C158.9,-9.5 144.64,-9.5 131.12,-9.5"/>
<polygon fill="#63b8ff" stroke="#63b8ff" points="172.58,-13 182.58,-9.5 172.58,-6 172.58,-13"/>
</a>
</g>
</g>
</g>
</svg>
