<?xml version="1.0" encoding="UTF-8" standalone="no"?>
<!DOCTYPE svg PUBLIC "-//W3C//DTD SVG 1.1//EN"
 "http://www.w3.org/Graphics/SVG/1.1/DTD/svg11.dtd">
<!-- Generated by graphviz version 2.43.0 (0)
 -->
<!-- Title: TankPressureControlerViewModel Pages: 1 -->
<svg width="763pt" height="2004pt"
 viewBox="0.00 0.00 762.50 2004.00" xmlns="http://www.w3.org/2000/svg" xmlns:xlink="http://www.w3.org/1999/xlink">
<g id="graph0" class="graph" transform="scale(1 1) rotate(0) translate(4 2000)">
<title>TankPressureControlerViewModel</title>
<!-- Node1 -->
<g id="Node000001" class="node">
<title>Node1</title>
<g id="a_Node000001"><a xlink:title=" ">
<polygon fill="#999999" stroke="transparent" points="299,-416 139,-416 139,0 299,0 299,-416"/>
<text text-anchor="start" x="152" y="-404" font-family="Helvetica,sans-Serif" font-size="10.00">TankPressureControlerView</text>
<text text-anchor="start" x="203.5" y="-393" font-family="Helvetica,sans-Serif" font-size="10.00">Model</text>
<text text-anchor="start" x="145.5" y="-378" font-family="Helvetica,sans-Serif" font-size="10.00">&#45;</text>
<text text-anchor="start" x="156" y="-378" font-family="Helvetica,sans-Serif" font-size="10.00">m_valueID</text>
<text text-anchor="start" x="145.5" y="-363" font-family="Helvetica,sans-Serif" font-size="10.00">&#45;</text>
<text text-anchor="start" x="156" y="-363" font-family="Helvetica,sans-Serif" font-size="10.00">m_tankName</text>
<text text-anchor="start" x="145.5" y="-348" font-family="Helvetica,sans-Serif" font-size="10.00">&#45;</text>
<text text-anchor="start" x="156" y="-348" font-family="Helvetica,sans-Serif" font-size="10.00">m_sensorName</text>
<text text-anchor="start" x="145.5" y="-333" font-family="Helvetica,sans-Serif" font-size="10.00">&#45;</text>
<text text-anchor="start" x="156" y="-333" font-family="Helvetica,sans-Serif" font-size="10.00">m_sensorUnit</text>
<text text-anchor="start" x="145.5" y="-318" font-family="Helvetica,sans-Serif" font-size="10.00">&#45;</text>
<text text-anchor="start" x="156" y="-318" font-family="Helvetica,sans-Serif" font-size="10.00">m_pressureRange</text>
<text text-anchor="start" x="145.5" y="-303" font-family="Helvetica,sans-Serif" font-size="10.00">&#45;</text>
<text text-anchor="start" x="156" y="-303" font-family="Helvetica,sans-Serif" font-size="10.00">m_pressureSetting</text>
<text text-anchor="start" x="145.5" y="-288" font-family="Helvetica,sans-Serif" font-size="10.00">&#45;</text>
<text text-anchor="start" x="156" y="-288" font-family="Helvetica,sans-Serif" font-size="10.00">m_BBControl</text>
<text text-anchor="start" x="143" y="-273" font-family="Helvetica,sans-Serif" font-size="10.00">+</text>
<text text-anchor="start" x="156" y="-273" font-family="Helvetica,sans-Serif" font-size="10.00">TankPressureControlerView</text>
<text text-anchor="start" x="156" y="-262" font-family="Helvetica,sans-Serif" font-size="10.00">Model()</text>
<text text-anchor="start" x="143" y="-247" font-family="Helvetica,sans-Serif" font-size="10.00">+</text>
<text text-anchor="start" x="156" y="-247" font-family="Helvetica,sans-Serif" font-size="10.00">setTankName()</text>
<text text-anchor="start" x="143" y="-232" font-family="Helvetica,sans-Serif" font-size="10.00">+</text>
<text text-anchor="start" x="156" y="-232" font-family="Helvetica,sans-Serif" font-size="10.00">setSensor()</text>
<text text-anchor="start" x="143" y="-217" font-family="Helvetica,sans-Serif" font-size="10.00">+</text>
<text text-anchor="start" x="156" y="-217" font-family="Helvetica,sans-Serif" font-size="10.00">setPressureDefaultValue()</text>
<text text-anchor="start" x="143" y="-202" font-family="Helvetica,sans-Serif" font-size="10.00">+</text>
<text text-anchor="start" x="156" y="-202" font-family="Helvetica,sans-Serif" font-size="10.00">setPressureRange()</text>
<text text-anchor="start" x="143" y="-187" font-family="Helvetica,sans-Serif" font-size="10.00">+</text>
<text text-anchor="start" x="156" y="-187" font-family="Helvetica,sans-Serif" font-size="10.00">initialise()</text>
<text text-anchor="start" x="143" y="-172" font-family="Helvetica,sans-Serif" font-size="10.00">+</text>
<text text-anchor="start" x="156" y="-172" font-family="Helvetica,sans-Serif" font-size="10.00">tankName()</text>
<text text-anchor="start" x="143" y="-157" font-family="Helvetica,sans-Serif" font-size="10.00">+</text>
<text text-anchor="start" x="156" y="-157" font-family="Helvetica,sans-Serif" font-size="10.00">pressureRange()</text>
<text text-anchor="start" x="143" y="-142" font-family="Helvetica,sans-Serif" font-size="10.00">+</text>
<text text-anchor="start" x="156" y="-142" font-family="Helvetica,sans-Serif" font-size="10.00">sensorName()</text>
<text text-anchor="start" x="143" y="-127" font-family="Helvetica,sans-Serif" font-size="10.00">+</text>
<text text-anchor="start" x="156" y="-127" font-family="Helvetica,sans-Serif" font-size="10.00">pressureSetting()</text>
<text text-anchor="start" x="143" y="-112" font-family="Helvetica,sans-Serif" font-size="10.00">+</text>
<text text-anchor="start" x="156" y="-112" font-family="Helvetica,sans-Serif" font-size="10.00">BBControlStatus()</text>
<text text-anchor="start" x="143" y="-97" font-family="Helvetica,sans-Serif" font-size="10.00">+</text>
<text text-anchor="start" x="156" y="-97" font-family="Helvetica,sans-Serif" font-size="10.00">sensorValue()</text>
<text text-anchor="start" x="143" y="-82" font-family="Helvetica,sans-Serif" font-size="10.00">+</text>
<text text-anchor="start" x="156" y="-82" font-family="Helvetica,sans-Serif" font-size="10.00">sensorUnit()</text>
<text text-anchor="start" x="143" y="-67" font-family="Helvetica,sans-Serif" font-size="10.00">+</text>
<text text-anchor="start" x="156" y="-67" font-family="Helvetica,sans-Serif" font-size="10.00">onSensorDataReceived()</text>
<text text-anchor="start" x="143" y="-52" font-family="Helvetica,sans-Serif" font-size="10.00">+</text>
<text text-anchor="start" x="156" y="-52" font-family="Helvetica,sans-Serif" font-size="10.00">onBBCommandSent()</text>
<text text-anchor="start" x="143" y="-37" font-family="Helvetica,sans-Serif" font-size="10.00">+</text>
<text text-anchor="start" x="156" y="-37" font-family="Helvetica,sans-Serif" font-size="10.00">onBBCommandACK()</text>
<text text-anchor="start" x="143" y="-22" font-family="Helvetica,sans-Serif" font-size="10.00">+</text>
<text text-anchor="start" x="156" y="-22" font-family="Helvetica,sans-Serif" font-size="10.00">onPressureSettingSelected()</text>
<text text-anchor="start" x="143" y="-7" font-family="Helvetica,sans-Serif" font-size="10.00">+</text>
<text text-anchor="start" x="156" y="-7" font-family="Helvetica,sans-Serif" font-size="10.00">onPressurSettingSent()</text>
<polygon fill="#666666" stroke="#666666" points="139,-388 139,-388 299,-388 299,-388 139,-388"/>
<polygon fill="#666666" stroke="#666666" points="139,-283 139,-283 154,-283 154,-283 139,-283"/>
<polygon fill="#666666" stroke="#666666" points="154,-283 154,-283 299,-283 299,-283 154,-283"/>
<polygon fill="none" stroke="#666666" points="139,0 139,-416 299,-416 299,0 139,0"/>
</a>
</g>
</g>
<!-- Node2 -->
<g id="Node000002" class="node">
<title>Node2</title>
<g id="a_Node000002"><a xlink:title=" ">
<polygon fill="white" stroke="transparent" points="295,-1996 245,-1996 245,-1947 295,-1947 295,-1996"/>
<text text-anchor="start" x="250" y="-1983.5" font-family="Helvetica,sans-Serif" font-size="10.00">QObject</text>
<text text-anchor="start" x="268" y="-1968.5" font-family="Helvetica,sans-Serif" font-size="10.00"> </text>
<text text-anchor="start" x="268" y="-1953.5" font-family="Helvetica,sans-Serif" font-size="10.00"> </text>
<polygon fill="#666666" stroke="#666666" points="245,-1978.5 245,-1978.5 295,-1978.5 295,-1978.5 245,-1978.5"/>
<polygon fill="#666666" stroke="#666666" points="245,-1963.5 245,-1963.5 295,-1963.5 295,-1963.5 245,-1963.5"/>
<polygon fill="none" stroke="#666666" points="245,-1947 245,-1996 295,-1996 295,-1947 245,-1947"/>
</a>
</g>
</g>
<!-- Node2&#45;&gt;Node1 -->
<g id="edge1_Node000001_Node000002" class="edge">
<title>Node2&#45;&gt;Node1</title>
<g id="a_edge1_Node000001_Node000002"><a xlink:title=" ">
<path fill="none" stroke="#63b8ff" d="M234.45,-1971.11C161.15,-1970.32 0,-1957.13 0,-1856.5 0,-1856.5 0,-1856.5 0,-539 0,-435.17 76.19,-339.02 138.7,-277.61"/>
<polygon fill="none" stroke="#63b8ff" points="234.59,-1974.61 244.6,-1971.14 234.61,-1967.61 234.59,-1974.61"/>
</a>
</g>
</g>
<!-- Node3 -->
<g id="Node000003" class="node">
<title>Node3</title>
<g id="a_Node000003"><a xlink:href="classTimer.html" target="_top" xlink:title=" ">
<polygon fill="white" stroke="transparent" points="131,-1783 15,-1783 15,-1659 131,-1659 131,-1783"/>
<text text-anchor="start" x="58.5" y="-1771" font-family="Helvetica,sans-Serif" font-size="10.00">Timer</text>
<text text-anchor="start" x="21.5" y="-1756" font-family="Helvetica,sans-Serif" font-size="10.00">&#45;</text>
<text text-anchor="start" x="32" y="-1756" font-family="Helvetica,sans-Serif" font-size="10.00">m_lastRefresh</text>
<text text-anchor="start" x="21.5" y="-1741" font-family="Helvetica,sans-Serif" font-size="10.00">&#45;</text>
<text text-anchor="start" x="32" y="-1741" font-family="Helvetica,sans-Serif" font-size="10.00">m_periodOfRefresh</text>
<text text-anchor="start" x="21.5" y="-1726" font-family="Helvetica,sans-Serif" font-size="10.00">&#45;</text>
<text text-anchor="start" x="32" y="-1726" font-family="Helvetica,sans-Serif" font-size="10.00">m_timer</text>
<text text-anchor="start" x="19" y="-1711" font-family="Helvetica,sans-Serif" font-size="10.00">+</text>
<text text-anchor="start" x="32" y="-1711" font-family="Helvetica,sans-Serif" font-size="10.00">Timer()</text>
<text text-anchor="start" x="19" y="-1696" font-family="Helvetica,sans-Serif" font-size="10.00">+</text>
<text text-anchor="start" x="32" y="-1696" font-family="Helvetica,sans-Serif" font-size="10.00">setFrequecy()</text>
<text text-anchor="start" x="19" y="-1681" font-family="Helvetica,sans-Serif" font-size="10.00">+</text>
<text text-anchor="start" x="32" y="-1681" font-family="Helvetica,sans-Serif" font-size="10.00">setPeriod()</text>
<text text-anchor="start" x="19" y="-1666" font-family="Helvetica,sans-Serif" font-size="10.00">+</text>
<text text-anchor="start" x="32" y="-1666" font-family="Helvetica,sans-Serif" font-size="10.00">frequencyHz()</text>
<polygon fill="#666666" stroke="#666666" points="15,-1766 15,-1766 131,-1766 131,-1766 15,-1766"/>
<polygon fill="#666666" stroke="#666666" points="15,-1721 15,-1721 30,-1721 30,-1721 15,-1721"/>
<polygon fill="#666666" stroke="#666666" points="30,-1721 30,-1721 131,-1721 131,-1721 30,-1721"/>
<polygon fill="none" stroke="#666666" points="15,-1659 15,-1783 131,-1783 131,-1659 15,-1659"/>
</a>
</g>
</g>
<!-- Node2&#45;&gt;Node3 -->
<g id="edge3_Node000003_Node000002" class="edge">
<title>Node2&#45;&gt;Node3</title>
<g id="a_edge3_Node000003_Node000002"><a xlink:title=" ">
<path fill="none" stroke="#63b8ff" d="M234.94,-1969.09C203.8,-1965.95 159.14,-1956.53 132,-1929 93.96,-1890.41 80.09,-1829.13 75.2,-1783.24"/>
<polygon fill="none" stroke="#63b8ff" points="234.68,-1972.58 244.93,-1969.93 235.26,-1965.6 234.68,-1972.58"/>
</a>
</g>
</g>
<!-- Node4 -->
<g id="Node000004" class="node">
<title>Node4</title>
<g id="a_Node000004"><a xlink:href="classUdpChannel.html" target="_top" xlink:title="UDP communication channel between the microcontroller and the HMI.">
<polygon fill="white" stroke="transparent" points="456.5,-998 321.5,-998 321.5,-664 456.5,-664 456.5,-998"/>
<text text-anchor="start" x="359.5" y="-986" font-family="Helvetica,sans-Serif" font-size="10.00">UdpChannel</text>
<text text-anchor="start" x="328.5" y="-971" font-family="Helvetica,sans-Serif" font-size="10.00">&#45;</text>
<text text-anchor="start" x="339" y="-971" font-family="Helvetica,sans-Serif" font-size="10.00">m_udpWorkerThread</text>
<text text-anchor="start" x="328.5" y="-956" font-family="Helvetica,sans-Serif" font-size="10.00">&#45;</text>
<text text-anchor="start" x="339" y="-956" font-family="Helvetica,sans-Serif" font-size="10.00">m_udpSocket</text>
<text text-anchor="start" x="328.5" y="-941" font-family="Helvetica,sans-Serif" font-size="10.00">&#45;</text>
<text text-anchor="start" x="339" y="-941" font-family="Helvetica,sans-Serif" font-size="10.00">m_remoteAddr</text>
<text text-anchor="start" x="328.5" y="-926" font-family="Helvetica,sans-Serif" font-size="10.00">&#45;</text>
<text text-anchor="start" x="339" y="-926" font-family="Helvetica,sans-Serif" font-size="10.00">m_remotePort</text>
<text text-anchor="start" x="328.5" y="-911" font-family="Helvetica,sans-Serif" font-size="10.00">&#45;</text>
<text text-anchor="start" x="339" y="-911" font-family="Helvetica,sans-Serif" font-size="10.00">m_localAddr</text>
<text text-anchor="start" x="328.5" y="-896" font-family="Helvetica,sans-Serif" font-size="10.00">&#45;</text>
<text text-anchor="start" x="339" y="-896" font-family="Helvetica,sans-Serif" font-size="10.00">m_localPort</text>
<text text-anchor="start" x="328.5" y="-881" font-family="Helvetica,sans-Serif" font-size="10.00">&#45;</text>
<text text-anchor="start" x="339" y="-881" font-family="Helvetica,sans-Serif" font-size="10.00">m_lastRefresh</text>
<text text-anchor="start" x="328.5" y="-866" font-family="Helvetica,sans-Serif" font-size="10.00">&#45;</text>
<text text-anchor="start" x="339" y="-866" font-family="Helvetica,sans-Serif" font-size="10.00">m_periodOfRefresh</text>
<text text-anchor="start" x="328.5" y="-851" font-family="Helvetica,sans-Serif" font-size="10.00">&#45;</text>
<text text-anchor="start" x="339" y="-851" font-family="Helvetica,sans-Serif" font-size="10.00">m_running</text>
<text text-anchor="start" x="326" y="-836" font-family="Helvetica,sans-Serif" font-size="10.00">+</text>
<text text-anchor="start" x="339" y="-836" font-family="Helvetica,sans-Serif" font-size="10.00">UdpChannel()</text>
<text text-anchor="start" x="326" y="-821" font-family="Helvetica,sans-Serif" font-size="10.00">+</text>
<text text-anchor="start" x="339" y="-821" font-family="Helvetica,sans-Serif" font-size="10.00">~UdpChannel()</text>
<text text-anchor="start" x="326" y="-806" font-family="Helvetica,sans-Serif" font-size="10.00">+</text>
<text text-anchor="start" x="339" y="-806" font-family="Helvetica,sans-Serif" font-size="10.00">startEndpoint()</text>
<text text-anchor="start" x="326" y="-791" font-family="Helvetica,sans-Serif" font-size="10.00">+</text>
<text text-anchor="start" x="339" y="-791" font-family="Helvetica,sans-Serif" font-size="10.00">stopEndpoint()</text>
<text text-anchor="start" x="326" y="-776" font-family="Helvetica,sans-Serif" font-size="10.00">+</text>
<text text-anchor="start" x="339" y="-776" font-family="Helvetica,sans-Serif" font-size="10.00">sendData()</text>
<text text-anchor="start" x="326" y="-761" font-family="Helvetica,sans-Serif" font-size="10.00">+</text>
<text text-anchor="start" x="339" y="-761" font-family="Helvetica,sans-Serif" font-size="10.00">running()</text>
<text text-anchor="start" x="326" y="-746" font-family="Helvetica,sans-Serif" font-size="10.00">+</text>
<text text-anchor="start" x="339" y="-746" font-family="Helvetica,sans-Serif" font-size="10.00">remoteAddr()</text>
<text text-anchor="start" x="326" y="-731" font-family="Helvetica,sans-Serif" font-size="10.00">+</text>
<text text-anchor="start" x="339" y="-731" font-family="Helvetica,sans-Serif" font-size="10.00">remotePort()</text>
<text text-anchor="start" x="326" y="-716" font-family="Helvetica,sans-Serif" font-size="10.00">+</text>
<text text-anchor="start" x="339" y="-716" font-family="Helvetica,sans-Serif" font-size="10.00">localAddr()</text>
<text text-anchor="start" x="326" y="-701" font-family="Helvetica,sans-Serif" font-size="10.00">+</text>
<text text-anchor="start" x="339" y="-701" font-family="Helvetica,sans-Serif" font-size="10.00">localPort()</text>
<text text-anchor="start" x="339" y="-686" font-family="Helvetica,sans-Serif" font-size="10.00">and 6 more...</text>
<text text-anchor="start" x="326" y="-671" font-family="Helvetica,sans-Serif" font-size="10.00">+</text>
<text text-anchor="start" x="339" y="-671" font-family="Helvetica,sans-Serif" font-size="10.00">onDatagramReceived()</text>
<polygon fill="#666666" stroke="#666666" points="322,-981 322,-981 457,-981 457,-981 322,-981"/>
<polygon fill="#666666" stroke="#666666" points="322,-846 322,-846 337,-846 337,-846 322,-846"/>
<polygon fill="#666666" stroke="#666666" points="337,-846 337,-846 457,-846 457,-846 337,-846"/>
<polygon fill="none" stroke="#666666" points="321.5,-664 321.5,-998 456.5,-998 456.5,-664 321.5,-664"/>
</a>
</g>
</g>
<!-- Node2&#45;&gt;Node4 -->
<g id="edge5_Node000004_Node000002" class="edge">
<title>Node2&#45;&gt;Node4</title>
<g id="a_edge5_Node000004_Node000002"><a xlink:title=" ">
<path fill="none" stroke="#63b8ff" d="M276.84,-1936.5C280.8,-1913.92 285,-1883.56 285,-1856.5 285,-1856.5 285,-1856.5 285,-1174 285,-1110.7 301.51,-1043.55 321.37,-985.66"/>
<polygon fill="none" stroke="#63b8ff" points="273.35,-1936.13 274.99,-1946.6 280.23,-1937.39 273.35,-1936.13"/>
</a>
</g>
</g>
<!-- Node5 -->
<g id="Node000005" class="node">
<title>Node5</title>
<g id="a_Node000005"><a xlink:href="classUdpWorker.html" target="_top" xlink:title="UDP socket worker running on a dedicated thread.">
<polygon fill="white" stroke="transparent" points="473,-1237 313,-1237 313,-1113 473,-1113 473,-1237"/>
<text text-anchor="start" x="366" y="-1225" font-family="Helvetica,sans-Serif" font-size="10.00">UdpWorker</text>
<text text-anchor="start" x="319.5" y="-1210" font-family="Helvetica,sans-Serif" font-size="10.00">&#45;</text>
<text text-anchor="start" x="330" y="-1210" font-family="Helvetica,sans-Serif" font-size="10.00">socket</text>
<text text-anchor="start" x="319.5" y="-1195" font-family="Helvetica,sans-Serif" font-size="10.00">&#45;</text>
<text text-anchor="start" x="330" y="-1195" font-family="Helvetica,sans-Serif" font-size="10.00">m_lastFrameSend</text>
<text text-anchor="start" x="317" y="-1180" font-family="Helvetica,sans-Serif" font-size="10.00">+</text>
<text text-anchor="start" x="330" y="-1180" font-family="Helvetica,sans-Serif" font-size="10.00">UdpWorker()</text>
<text text-anchor="start" x="317" y="-1165" font-family="Helvetica,sans-Serif" font-size="10.00">+</text>
<text text-anchor="start" x="330" y="-1165" font-family="Helvetica,sans-Serif" font-size="10.00">start()</text>
<text text-anchor="start" x="317" y="-1150" font-family="Helvetica,sans-Serif" font-size="10.00">+</text>
<text text-anchor="start" x="330" y="-1150" font-family="Helvetica,sans-Serif" font-size="10.00">stop()</text>
<text text-anchor="start" x="319.5" y="-1135" font-family="Helvetica,sans-Serif" font-size="10.00">&#45;</text>
<text text-anchor="start" x="330" y="-1135" font-family="Helvetica,sans-Serif" font-size="10.00">decimate()</text>
<text text-anchor="start" x="319.5" y="-1120" font-family="Helvetica,sans-Serif" font-size="10.00">&#45;</text>
<text text-anchor="start" x="330" y="-1120" font-family="Helvetica,sans-Serif" font-size="10.00">processPendingDatagrams()</text>
<polygon fill="#666666" stroke="#666666" points="313,-1220 313,-1220 473,-1220 473,-1220 313,-1220"/>
<polygon fill="#666666" stroke="#666666" points="313,-1190 313,-1190 328,-1190 328,-1190 313,-1190"/>
<polygon fill="#666666" stroke="#666666" points="328,-1190 328,-1190 473,-1190 473,-1190 328,-1190"/>
<polygon fill="none" stroke="#666666" points="313,-1113 313,-1237 473,-1237 473,-1113 313,-1113"/>
</a>
</g>
</g>
<!-- Node2&#45;&gt;Node5 -->
<g id="edge7_Node000005_Node000002" class="edge">
<title>Node2&#45;&gt;Node5</title>
<g id="a_edge7_Node000005_Node000002"><a xlink:title=" ">
<path fill="none" stroke="#63b8ff" d="M294.82,-1938.02C296.42,-1935.07 297.84,-1932.04 299,-1929 406.18,-1647.08 332.28,-1553.12 378,-1255 378.89,-1249.2 379.89,-1243.18 380.94,-1237.17"/>
<polygon fill="none" stroke="#63b8ff" points="291.8,-1936.25 289.63,-1946.62 297.79,-1939.87 291.8,-1936.25"/>
</a>
</g>
</g>
<!-- Node7 -->
<g id="Node000007" class="node">
<title>Node7</title>
<g id="a_Node000007"><a xlink:href="classLogger.html" target="_top" xlink:title=" ">
<polygon fill="white" stroke="transparent" points="428,-1910 360,-1910 360,-1801 428,-1801 428,-1910"/>
<text text-anchor="start" x="377" y="-1897.5" font-family="Helvetica,sans-Serif" font-size="10.00">Logger</text>
<text text-anchor="start" x="392" y="-1882.5" font-family="Helvetica,sans-Serif" font-size="10.00"> </text>
<text text-anchor="start" x="364" y="-1867.5" font-family="Helvetica,sans-Serif" font-size="10.00">+</text>
<text text-anchor="start" x="377" y="-1867.5" font-family="Helvetica,sans-Serif" font-size="10.00">Logger()</text>
<text text-anchor="start" x="364" y="-1852.5" font-family="Helvetica,sans-Serif" font-size="10.00">+</text>
<text text-anchor="start" x="377" y="-1852.5" font-family="Helvetica,sans-Serif" font-size="10.00">log()</text>
<text text-anchor="start" x="364" y="-1837.5" font-family="Helvetica,sans-Serif" font-size="10.00">+</text>
<text text-anchor="start" x="377" y="-1837.5" font-family="Helvetica,sans-Serif" font-size="10.00">debug()</text>
<text text-anchor="start" x="364" y="-1822.5" font-family="Helvetica,sans-Serif" font-size="10.00">+</text>
<text text-anchor="start" x="377" y="-1822.5" font-family="Helvetica,sans-Serif" font-size="10.00">error()</text>
<text text-anchor="start" x="364" y="-1807.5" font-family="Helvetica,sans-Serif" font-size="10.00">+</text>
<text text-anchor="start" x="377" y="-1807.5" font-family="Helvetica,sans-Serif" font-size="10.00">warning()</text>
<polygon fill="#666666" stroke="#666666" points="360,-1892.5 360,-1892.5 428,-1892.5 428,-1892.5 360,-1892.5"/>
<polygon fill="#666666" stroke="#666666" points="360,-1877.5 360,-1877.5 428,-1877.5 428,-1877.5 360,-1877.5"/>
<polygon fill="none" stroke="#666666" points="360,-1801 360,-1910 428,-1910 428,-1801 360,-1801"/>
</a>
</g>
</g>
<!-- Node2&#45;&gt;Node7 -->
<g id="edge10_Node000007_Node000002" class="edge">
<title>Node2&#45;&gt;Node7</title>
<g id="a_edge10_Node000007_Node000002"><a xlink:title=" ">
<path fill="none" stroke="#63b8ff" d="M303.98,-1953.05C315.41,-1946.35 327.84,-1938.1 338,-1929 345.7,-1922.1 353.1,-1914.03 359.86,-1905.83"/>
<polygon fill="none" stroke="#63b8ff" points="302.06,-1950.11 295.08,-1958.08 305.51,-1956.21 302.06,-1950.11"/>
</a>
</g>
</g>
<!-- Node8 -->
<g id="Node000008" class="node">
<title>Node8</title>
<g id="a_Node000008"><a xlink:href="classFileSystem.html" target="_top" xlink:title=" ">
<polygon fill="white" stroke="transparent" points="258,-1334 166,-1334 166,-1255 258,-1255 258,-1334"/>
<text text-anchor="start" x="184.5" y="-1321.5" font-family="Helvetica,sans-Serif" font-size="10.00">FileSystem</text>
<text text-anchor="start" x="172.5" y="-1306.5" font-family="Helvetica,sans-Serif" font-size="10.00">&#45;</text>
<text text-anchor="start" x="183" y="-1306.5" font-family="Helvetica,sans-Serif" font-size="10.00">m_pathList</text>
<text text-anchor="start" x="170" y="-1291.5" font-family="Helvetica,sans-Serif" font-size="10.00">+</text>
<text text-anchor="start" x="183" y="-1291.5" font-family="Helvetica,sans-Serif" font-size="10.00">FileSystem()</text>
<text text-anchor="start" x="170" y="-1276.5" font-family="Helvetica,sans-Serif" font-size="10.00">+</text>
<text text-anchor="start" x="183" y="-1276.5" font-family="Helvetica,sans-Serif" font-size="10.00">addDirectory()</text>
<text text-anchor="start" x="170" y="-1261.5" font-family="Helvetica,sans-Serif" font-size="10.00">+</text>
<text text-anchor="start" x="183" y="-1261.5" font-family="Helvetica,sans-Serif" font-size="10.00">getDirectory()</text>
<polygon fill="#666666" stroke="#666666" points="166,-1316.5 166,-1316.5 258,-1316.5 258,-1316.5 166,-1316.5"/>
<polygon fill="#666666" stroke="#666666" points="166,-1301.5 166,-1301.5 181,-1301.5 181,-1301.5 166,-1301.5"/>
<polygon fill="#666666" stroke="#666666" points="181,-1301.5 181,-1301.5 258,-1301.5 258,-1301.5 181,-1301.5"/>
<polygon fill="none" stroke="#666666" points="166,-1255 166,-1334 258,-1334 258,-1255 166,-1255"/>
</a>
</g>
</g>
<!-- Node2&#45;&gt;Node8 -->
<g id="edge13_Node000008_Node000002" class="edge">
<title>Node2&#45;&gt;Node8</title>
<g id="a_edge13_Node000008_Node000002"><a xlink:title=" ">
<path fill="none" stroke="#63b8ff" d="M267.09,-1936.68C257.33,-1823.01 225.71,-1455.03 215.33,-1334.28"/>
<polygon fill="none" stroke="#63b8ff" points="263.63,-1937.21 267.97,-1946.87 270.6,-1936.61 263.63,-1937.21"/>
</a>
</g>
</g>
<!-- Node9 -->
<g id="Node000009" class="node">
<title>Node9</title>
<g id="a_Node000009"><a xlink:href="classTestBenchModel.html" target="_top" xlink:title=" ">
<polygon fill="white" stroke="transparent" points="286,-617 152,-617 152,-463 286,-463 286,-617"/>
<text text-anchor="start" x="179" y="-605" font-family="Helvetica,sans-Serif" font-size="10.00">TestBenchModel</text>
<text text-anchor="start" x="158.5" y="-590" font-family="Helvetica,sans-Serif" font-size="10.00">&#45;</text>
<text text-anchor="start" x="169" y="-590" font-family="Helvetica,sans-Serif" font-size="10.00">m_testStatus</text>
<text text-anchor="start" x="158.5" y="-575" font-family="Helvetica,sans-Serif" font-size="10.00">&#45;</text>
<text text-anchor="start" x="169" y="-575" font-family="Helvetica,sans-Serif" font-size="10.00">m_testStatusInitialised</text>
<text text-anchor="start" x="156" y="-560" font-family="Helvetica,sans-Serif" font-size="10.00">+</text>
<text text-anchor="start" x="169" y="-560" font-family="Helvetica,sans-Serif" font-size="10.00">TestBenchModel()</text>
<text text-anchor="start" x="156" y="-545" font-family="Helvetica,sans-Serif" font-size="10.00">+</text>
<text text-anchor="start" x="169" y="-545" font-family="Helvetica,sans-Serif" font-size="10.00">setTestStatus()</text>
<text text-anchor="start" x="156" y="-530" font-family="Helvetica,sans-Serif" font-size="10.00">+</text>
<text text-anchor="start" x="169" y="-530" font-family="Helvetica,sans-Serif" font-size="10.00">getTestStatus()</text>
<text text-anchor="start" x="156" y="-515" font-family="Helvetica,sans-Serif" font-size="10.00">+</text>
<text text-anchor="start" x="169" y="-515" font-family="Helvetica,sans-Serif" font-size="10.00">getStatus()</text>
<text text-anchor="start" x="156" y="-500" font-family="Helvetica,sans-Serif" font-size="10.00">+</text>
<text text-anchor="start" x="169" y="-500" font-family="Helvetica,sans-Serif" font-size="10.00">getStatus()</text>
<text text-anchor="start" x="156" y="-485" font-family="Helvetica,sans-Serif" font-size="10.00">+</text>
<text text-anchor="start" x="169" y="-485" font-family="Helvetica,sans-Serif" font-size="10.00">getStatusID()</text>
<text text-anchor="start" x="156" y="-470" font-family="Helvetica,sans-Serif" font-size="10.00">+</text>
<text text-anchor="start" x="169" y="-470" font-family="Helvetica,sans-Serif" font-size="10.00">onStatesListRecieved()</text>
<polygon fill="#666666" stroke="#666666" points="152,-600 152,-600 286,-600 286,-600 152,-600"/>
<polygon fill="#666666" stroke="#666666" points="152,-570 152,-570 167,-570 167,-570 152,-570"/>
<polygon fill="#666666" stroke="#666666" points="167,-570 167,-570 286,-570 286,-570 167,-570"/>
<polygon fill="none" stroke="#666666" points="152,-463 152,-617 286,-617 286,-463 152,-463"/>
</a>
</g>
</g>
<!-- Node2&#45;&gt;Node9 -->
<g id="edge17_Node000009_Node000002" class="edge">
<title>Node2&#45;&gt;Node9</title>
<g id="a_edge17_Node000009_Node000002"><a xlink:title=" ">
<path fill="none" stroke="#63b8ff" d="M259.21,-1936.99C256.63,-1928.26 254.03,-1918.83 252,-1910 193.78,-1657.16 178.57,-1592.56 157,-1334 144.59,-1185.18 156.22,-1147.33 156,-998 155.78,-849.56 121.19,-808.31 156,-664 159.8,-648.26 165.97,-632.26 173.01,-617.25"/>
<polygon fill="none" stroke="#63b8ff" points="255.95,-1938.29 262.21,-1946.83 262.65,-1936.25 255.95,-1938.29"/>
</a>
</g>
</g>
<!-- Node11 -->
<g id="Node000011" class="node">
<title>Node11</title>
<g id="a_Node000011"><a xlink:href="classPressureTanksModel.html" target="_top" xlink:title=" ">
<polygon fill="white" stroke="transparent" points="754.5,-1095 625.5,-1095 625.5,-1016 754.5,-1016 754.5,-1095"/>
<text text-anchor="start" x="640.5" y="-1082.5" font-family="Helvetica,sans-Serif" font-size="10.00">PressureTanksModel</text>
<text text-anchor="start" x="632.5" y="-1067.5" font-family="Helvetica,sans-Serif" font-size="10.00">&#45;</text>
<text text-anchor="start" x="643" y="-1067.5" font-family="Helvetica,sans-Serif" font-size="10.00">m_PressureSettings</text>
<text text-anchor="start" x="630" y="-1052.5" font-family="Helvetica,sans-Serif" font-size="10.00">+</text>
<text text-anchor="start" x="643" y="-1052.5" font-family="Helvetica,sans-Serif" font-size="10.00">PressureTanksModel()</text>
<text text-anchor="start" x="630" y="-1037.5" font-family="Helvetica,sans-Serif" font-size="10.00">+</text>
<text text-anchor="start" x="643" y="-1037.5" font-family="Helvetica,sans-Serif" font-size="10.00">getPressureSetting()</text>
<text text-anchor="start" x="630" y="-1022.5" font-family="Helvetica,sans-Serif" font-size="10.00">+</text>
<text text-anchor="start" x="643" y="-1022.5" font-family="Helvetica,sans-Serif" font-size="10.00">setPressureSetting()</text>
<polygon fill="#666666" stroke="#666666" points="626,-1077.5 626,-1077.5 755,-1077.5 755,-1077.5 626,-1077.5"/>
<polygon fill="#666666" stroke="#666666" points="626,-1062.5 626,-1062.5 641,-1062.5 641,-1062.5 626,-1062.5"/>
<polygon fill="#666666" stroke="#666666" points="641,-1062.5 641,-1062.5 755,-1062.5 755,-1062.5 641,-1062.5"/>
<polygon fill="none" stroke="#666666" points="625.5,-1016 625.5,-1095 754.5,-1095 754.5,-1016 625.5,-1016"/>
</a>
</g>
</g>
<!-- Node2&#45;&gt;Node11 -->
<g id="edge21_Node000011_Node000002" class="edge">
<title>Node2&#45;&gt;Node11</title>
<g id="a_edge21_Node000011_Node000002"><a xlink:title=" ">
<path fill="none" stroke="#63b8ff" d="M305.51,-1968.35C405.8,-1961.31 684,-1934.72 684,-1856.5 684,-1856.5 684,-1856.5 684,-1293.5 684,-1223.53 686.65,-1141.98 688.42,-1095.08"/>
<polygon fill="none" stroke="#63b8ff" points="305.01,-1964.87 295.27,-1969.04 305.49,-1971.86 305.01,-1964.87"/>
</a>
</g>
</g>
<!-- Node3&#45;&gt;Node1 -->
<g id="edge2_Node000001_Node000003" class="edge">
<title>Node3&#45;&gt;Node1</title>
<g id="a_edge2_Node000001_Node000003"><a xlink:title=" ">
<path fill="none" stroke="#63b8ff" d="M73,-1658.84C73,-1576.35 73,-1424.84 73,-1295.5 73,-1295.5 73,-1295.5 73,-539 73,-468.37 101.31,-395.96 133,-337.02"/>
<polygon fill="none" stroke="#63b8ff" points="133.18,-336.7 132.56,-329.51 138.95,-326.18 139.57,-333.36 133.18,-336.7"/>
</a>
</g>
<text text-anchor="middle" x="97.5" y="-1053" font-family="Helvetica,sans-Serif" font-size="10.00" fill="grey"> &#45;m_timer</text>
</g>
<!-- Node4&#45;&gt;Node1 -->
<g id="edge4_Node000001_Node000004" class="edge">
<title>Node4&#45;&gt;Node1</title>
<g id="a_edge4_Node000001_Node000004"><a xlink:title=" ">
<path fill="none" stroke="#63b8ff" d="M368.69,-664C366.92,-654.16 365.02,-644.43 363,-635 348.14,-565.73 325.72,-492.04 302.97,-425.76"/>
<polygon fill="none" stroke="#63b8ff" points="302.94,-425.68 297.2,-421.31 299.02,-414.34 304.76,-418.7 302.94,-425.68"/>
</a>
</g>
<text text-anchor="middle" x="399" y="-537.5" font-family="Helvetica,sans-Serif" font-size="10.00" fill="grey"> &#45;m_udpChannel</text>
</g>
<!-- Node4&#45;&gt;Node9 -->
<g id="edge19_Node000009_Node000004" class="edge">
<title>Node4&#45;&gt;Node9</title>
<g id="a_edge19_Node000009_Node000004"><a xlink:title=" ">
<path fill="none" stroke="#63b8ff" d="M321.32,-714.95C304.16,-685.78 286.02,-654.93 269.85,-627.45"/>
<polygon fill="none" stroke="#63b8ff" points="269.84,-627.44 263.35,-624.29 263.76,-617.09 270.25,-620.24 269.84,-627.44"/>
</a>
</g>
<text text-anchor="middle" x="319" y="-638" font-family="Helvetica,sans-Serif" font-size="10.00" fill="grey"> &#45;m_udpChannel</text>
</g>
<!-- Node5&#45;&gt;Node4 -->
<g id="edge6_Node000004_Node000005" class="edge">
<title>Node5&#45;&gt;Node4</title>
<g id="a_edge6_Node000004_Node000005"><a xlink:title=" ">
<path fill="none" stroke="#63b8ff" d="M392.28,-1112.86C391.94,-1083.73 391.52,-1047.23 391.09,-1010.28"/>
<polygon fill="none" stroke="#63b8ff" points="391.09,-1010.27 387.02,-1004.32 390.94,-998.27 395.01,-1004.23 391.09,-1010.27"/>
</a>
</g>
<text text-anchor="middle" x="430" y="-1053" font-family="Helvetica,sans-Serif" font-size="10.00" fill="grey"> &#45;m_udpWorker</text>
</g>
<!-- Node6 -->
<g id="Node000006" class="node">
<title>Node6</title>
<g id="a_Node000006"><a xlink:href="classUdpLogger.html" target="_top" xlink:title="High&#45;frequency binary logger for UDP telemetry frames.">
<polygon fill="white" stroke="transparent" points="575.5,-1641 442.5,-1641 442.5,-1352 575.5,-1352 575.5,-1641"/>
<text text-anchor="start" x="483" y="-1628.5" font-family="Helvetica,sans-Serif" font-size="10.00">UdpLogger</text>
<text text-anchor="start" x="449.5" y="-1613.5" font-family="Helvetica,sans-Serif" font-size="10.00">&#45;</text>
<text text-anchor="start" x="460" y="-1613.5" font-family="Helvetica,sans-Serif" font-size="10.00">m_writer</text>
<text text-anchor="start" x="449.5" y="-1598.5" font-family="Helvetica,sans-Serif" font-size="10.00">&#45;</text>
<text text-anchor="start" x="460" y="-1598.5" font-family="Helvetica,sans-Serif" font-size="10.00">m_ringBuffer</text>
<text text-anchor="start" x="449.5" y="-1583.5" font-family="Helvetica,sans-Serif" font-size="10.00">&#45;</text>
<text text-anchor="start" x="460" y="-1583.5" font-family="Helvetica,sans-Serif" font-size="10.00">m_running</text>
<text text-anchor="start" x="449.5" y="-1568.5" font-family="Helvetica,sans-Serif" font-size="10.00">&#45;</text>
<text text-anchor="start" x="460" y="-1568.5" font-family="Helvetica,sans-Serif" font-size="10.00">m_writerThread</text>
<text text-anchor="start" x="449.5" y="-1553.5" font-family="Helvetica,sans-Serif" font-size="10.00">&#45;</text>
<text text-anchor="start" x="460" y="-1553.5" font-family="Helvetica,sans-Serif" font-size="10.00">m_logDirPath</text>
<text text-anchor="start" x="449.5" y="-1538.5" font-family="Helvetica,sans-Serif" font-size="10.00">&#45;</text>
<text text-anchor="start" x="460" y="-1538.5" font-family="Helvetica,sans-Serif" font-size="10.00">MAX_FRAME_SIZE</text>
<text text-anchor="start" x="447" y="-1523.5" font-family="Helvetica,sans-Serif" font-size="10.00">+</text>
<text text-anchor="start" x="460" y="-1523.5" font-family="Helvetica,sans-Serif" font-size="10.00">UdpLogger()</text>
<text text-anchor="start" x="447" y="-1508.5" font-family="Helvetica,sans-Serif" font-size="10.00">+</text>
<text text-anchor="start" x="460" y="-1508.5" font-family="Helvetica,sans-Serif" font-size="10.00">~UdpLogger()</text>
<text text-anchor="start" x="447" y="-1493.5" font-family="Helvetica,sans-Serif" font-size="10.00">+</text>
<text text-anchor="start" x="460" y="-1493.5" font-family="Helvetica,sans-Serif" font-size="10.00">UdpLogger()</text>
<text text-anchor="start" x="447" y="-1478.5" font-family="Helvetica,sans-Serif" font-size="10.00">+</text>
<text text-anchor="start" x="460" y="-1478.5" font-family="Helvetica,sans-Serif" font-size="10.00">operator=()</text>
<text text-anchor="start" x="447" y="-1463.5" font-family="Helvetica,sans-Serif" font-size="10.00">+</text>
<text text-anchor="start" x="460" y="-1463.5" font-family="Helvetica,sans-Serif" font-size="10.00">UdpLogger()</text>
<text text-anchor="start" x="447" y="-1448.5" font-family="Helvetica,sans-Serif" font-size="10.00">+</text>
<text text-anchor="start" x="460" y="-1448.5" font-family="Helvetica,sans-Serif" font-size="10.00">operator=()</text>
<text text-anchor="start" x="447" y="-1433.5" font-family="Helvetica,sans-Serif" font-size="10.00">+</text>
<text text-anchor="start" x="460" y="-1433.5" font-family="Helvetica,sans-Serif" font-size="10.00">log()</text>
<text text-anchor="start" x="447" y="-1418.5" font-family="Helvetica,sans-Serif" font-size="10.00">+</text>
<text text-anchor="start" x="460" y="-1418.5" font-family="Helvetica,sans-Serif" font-size="10.00">cyclesCount()</text>
<text text-anchor="start" x="447" y="-1403.5" font-family="Helvetica,sans-Serif" font-size="10.00">+</text>
<text text-anchor="start" x="460" y="-1403.5" font-family="Helvetica,sans-Serif" font-size="10.00">droppedFramesCount()</text>
<text text-anchor="start" x="447" y="-1388.5" font-family="Helvetica,sans-Serif" font-size="10.00">+</text>
<text text-anchor="start" x="460" y="-1388.5" font-family="Helvetica,sans-Serif" font-size="10.00">start()</text>
<text text-anchor="start" x="447" y="-1373.5" font-family="Helvetica,sans-Serif" font-size="10.00">+</text>
<text text-anchor="start" x="460" y="-1373.5" font-family="Helvetica,sans-Serif" font-size="10.00">stop()</text>
<text text-anchor="start" x="449.5" y="-1358.5" font-family="Helvetica,sans-Serif" font-size="10.00">&#45;</text>
<text text-anchor="start" x="460" y="-1358.5" font-family="Helvetica,sans-Serif" font-size="10.00">writerLoop()</text>
<polygon fill="#666666" stroke="#666666" points="443,-1623.5 443,-1623.5 576,-1623.5 576,-1623.5 443,-1623.5"/>
<polygon fill="#666666" stroke="#666666" points="443,-1533.5 443,-1533.5 458,-1533.5 458,-1533.5 443,-1533.5"/>
<polygon fill="#666666" stroke="#666666" points="458,-1533.5 458,-1533.5 576,-1533.5 576,-1533.5 458,-1533.5"/>
<polygon fill="none" stroke="#666666" points="442.5,-1352 442.5,-1641 575.5,-1641 575.5,-1352 442.5,-1352"/>
</a>
</g>
</g>
<!-- Node6&#45;&gt;Node4 -->
<g id="edge15_Node000004_Node000006" class="edge">
<title>Node6&#45;&gt;Node4</title>
<g id="a_edge15_Node000004_Node000006"><a xlink:title=" ">
<path fill="none" stroke="#63b8ff" d="M511.49,-1351.75C509.8,-1255.23 501,-1126.08 471,-1016 468.05,-1005.17 464.55,-994.16 460.68,-983.19"/>
<polygon fill="none" stroke="#63b8ff" points="460.63,-983.06 454.82,-978.79 456.53,-971.78 462.34,-976.05 460.63,-983.06"/>
</a>
</g>
<text text-anchor="middle" x="541.5" y="-1172.5" font-family="Helvetica,sans-Serif" font-size="10.00" fill="grey"> &#45;m_udpLogger</text>
</g>
<!-- Node6&#45;&gt;Node5 -->
<g id="edge8_Node000005_Node000006" class="edge">
<title>Node6&#45;&gt;Node5</title>
<g id="a_edge8_Node000005_Node000006"><a xlink:title=" ">
<path fill="none" stroke="#63b8ff" d="M442.49,-1378.65C435.59,-1363.9 429.22,-1348.79 424,-1334 414.48,-1307.02 407.62,-1276.37 402.81,-1249.29"/>
<polygon fill="none" stroke="#63b8ff" points="402.76,-1248.95 397.81,-1243.71 400.75,-1237.12 405.7,-1242.37 402.76,-1248.95"/>
</a>
</g>
<text text-anchor="middle" x="459.5" y="-1292" font-family="Helvetica,sans-Serif" font-size="10.00" fill="grey"> &#45;m_udplogger</text>
</g>
<!-- Node7&#45;&gt;Node4 -->
<g id="edge14_Node000004_Node000007" class="edge">
<title>Node7&#45;&gt;Node4</title>
<g id="a_edge14_Node000004_Node000007"><a xlink:title=" ">
<path fill="none" stroke="#63b8ff" d="M428.15,-1839.8C453.51,-1827.54 487.6,-1808.05 511,-1783 559.58,-1730.99 568.07,-1710.12 585,-1641 612.91,-1527.03 617.48,-1224.84 582,-1113 558.36,-1038.5 507.75,-966.08 464.28,-913.42"/>
<polygon fill="none" stroke="#63b8ff" points="464.23,-913.36 457.32,-911.32 456.54,-904.15 463.45,-906.19 464.23,-913.36"/>
</a>
</g>
<text text-anchor="middle" x="632.5" y="-1292" font-family="Helvetica,sans-Serif" font-size="10.00" fill="grey"> &#45;m_logger</text>
</g>
<!-- Node7&#45;&gt;Node5 -->
<g id="edge11_Node000005_Node000007" class="edge">
<title>Node7&#45;&gt;Node5</title>
<g id="a_edge11_Node000005_Node000007"><a xlink:title=" ">
<path fill="none" stroke="#63b8ff" d="M389.81,-1800.58C386.67,-1757.44 382.65,-1695.38 381,-1641 377.09,-1512.61 376.63,-1480.37 381,-1352 382.15,-1318.22 384.54,-1280.86 386.88,-1249.28"/>
<polygon fill="none" stroke="#63b8ff" points="386.91,-1249 383.37,-1242.72 387.81,-1237.04 391.35,-1243.32 386.91,-1249"/>
</a>
</g>
<text text-anchor="middle" x="407.5" y="-1494" font-family="Helvetica,sans-Serif" font-size="10.00" fill="grey"> &#45;m_logger</text>
</g>
<!-- Node7&#45;&gt;Node6 -->
<g id="edge9_Node000006_Node000007" class="edge">
<title>Node7&#45;&gt;Node6</title>
<g id="a_edge9_Node000006_Node000007"><a xlink:title=" ">
<path fill="none" stroke="#63b8ff" d="M411.34,-1800.67C424.03,-1761.29 441.92,-1705.74 458.93,-1652.93"/>
<polygon fill="none" stroke="#63b8ff" points="458.98,-1652.78 457.01,-1645.84 462.66,-1641.36 464.63,-1648.3 458.98,-1652.78"/>
</a>
</g>
<text text-anchor="middle" x="480.5" y="-1718.5" font-family="Helvetica,sans-Serif" font-size="10.00" fill="grey"> &#45;m_logger</text>
</g>
<!-- Node8&#45;&gt;Node4 -->
<g id="edge12_Node000004_Node000008" class="edge">
<title>Node8&#45;&gt;Node4</title>
<g id="a_edge12_Node000004_Node000008"><a xlink:title=" ">
<path fill="none" stroke="#63b8ff" d="M200.16,-1254.79C190.75,-1217.52 181.5,-1160.04 197,-1113 216.89,-1052.63 245.88,-1050.29 282,-998 292.73,-982.46 303.8,-965.93 314.56,-949.55"/>
<polygon fill="none" stroke="#63b8ff" points="314.64,-949.42 314.58,-942.21 321.21,-939.38 321.28,-946.59 314.64,-949.42"/>
</a>
</g>
<text text-anchor="middle" x="234" y="-1172.5" font-family="Helvetica,sans-Serif" font-size="10.00" fill="grey"> &#45;m_fileSystem</text>
</g>
<!-- Node9&#45;&gt;Node1 -->
<g id="edge16_Node000001_Node000009" class="edge">
<title>Node9&#45;&gt;Node1</title>
<g id="a_edge16_Node000001_Node000009"><a xlink:title=" ">
<path fill="none" stroke="#63b8ff" d="M219,-462.88C219,-452.03 219,-440.45 219,-428.43"/>
<polygon fill="none" stroke="#63b8ff" points="219,-428.29 215,-422.29 219,-416.29 223,-422.29 219,-428.29"/>
</a>
</g>
<text text-anchor="middle" x="259" y="-437" font-family="Helvetica,sans-Serif" font-size="10.00" fill="grey"> &#45;m_testBenchM</text>
</g>
<!-- Node10 -->
<g id="Node000010" class="node">
<title>Node10</title>
<g id="a_Node000010"><a xlink:href="classTestBenchStatesList.html" target="_top" xlink:title=" ">
<polygon fill="white" stroke="transparent" points="273,-885.5 165,-885.5 165,-776.5 273,-776.5 273,-885.5"/>
<text text-anchor="start" x="170" y="-873" font-family="Helvetica,sans-Serif" font-size="10.00">TestBenchStatesList</text>
<text text-anchor="start" x="172.5" y="-858" font-family="Helvetica,sans-Serif" font-size="10.00">&#45;</text>
<text text-anchor="start" x="184" y="-858" font-family="Helvetica,sans-Serif" font-size="10.00">m_valuesDatas</text>
<text text-anchor="start" x="172.5" y="-843" font-family="Helvetica,sans-Serif" font-size="10.00">&#45;</text>
<text text-anchor="start" x="184" y="-843" font-family="Helvetica,sans-Serif" font-size="10.00">m_valuesNames</text>
<text text-anchor="start" x="170" y="-828" font-family="Helvetica,sans-Serif" font-size="10.00">+</text>
<text text-anchor="start" x="184" y="-828" font-family="Helvetica,sans-Serif" font-size="10.00">append()</text>
<text text-anchor="start" x="170" y="-813" font-family="Helvetica,sans-Serif" font-size="10.00">+</text>
<text text-anchor="start" x="184" y="-813" font-family="Helvetica,sans-Serif" font-size="10.00">getValue()</text>
<text text-anchor="start" x="170" y="-798" font-family="Helvetica,sans-Serif" font-size="10.00">+</text>
<text text-anchor="start" x="184" y="-798" font-family="Helvetica,sans-Serif" font-size="10.00">getValue()</text>
<text text-anchor="start" x="170" y="-783" font-family="Helvetica,sans-Serif" font-size="10.00">+</text>
<text text-anchor="start" x="184" y="-783" font-family="Helvetica,sans-Serif" font-size="10.00">getID()</text>
<polygon fill="#666666" stroke="#666666" points="165,-868 165,-868 273,-868 273,-868 165,-868"/>
<polygon fill="#666666" stroke="#666666" points="165,-838 165,-838 182,-838 182,-838 165,-838"/>
<polygon fill="#666666" stroke="#666666" points="182,-838 182,-838 273,-838 273,-838 182,-838"/>
<polygon fill="none" stroke="#666666" points="165,-776.5 165,-885.5 273,-885.5 273,-776.5 165,-776.5"/>
</a>
</g>
</g>
<!-- Node10&#45;&gt;Node9 -->
<g id="edge18_Node000009_Node000010" class="edge">
<title>Node10&#45;&gt;Node9</title>
<g id="a_edge18_Node000009_Node000010"><a xlink:title=" ">
<path fill="none" stroke="#63b8ff" d="M219,-776.32C219,-735.1 219,-677.3 219,-629.3"/>
<polygon fill="none" stroke="#63b8ff" points="219,-629 215,-623 219,-617 223,-623 219,-629"/>
</a>
</g>
<text text-anchor="middle" x="245" y="-638" font-family="Helvetica,sans-Serif" font-size="10.00" fill="grey"> &#45;m_states</text>
</g>
<!-- Node11&#45;&gt;Node1 -->
<g id="edge20_Node000001_Node000011" class="edge">
<title>Node11&#45;&gt;Node1</title>
<g id="a_edge20_Node000001_Node000011"><a xlink:title=" ">
<path fill="none" stroke="#63b8ff" d="M678.69,-1015.74C649.19,-918.07 563.72,-655.92 443,-463 404.98,-402.25 352.38,-341.76 307.71,-295.06"/>
<polygon fill="none" stroke="#63b8ff" points="307.5,-294.85 300.46,-293.31 299.18,-286.21 306.22,-287.76 307.5,-294.85"/>
</a>
</g>
<text text-anchor="middle" x="563.5" y="-638" font-family="Helvetica,sans-Serif" font-size="10.00" fill="grey"> &#45;m_tankM</text>
</g>
</g>
</svg>
