<?xml version="1.0" encoding="UTF-8" standalone="no"?>
<!DOCTYPE svg PUBLIC "-//W3C//DTD SVG 1.1//EN"
 "http://www.w3.org/Graphics/SVG/1.1/DTD/svg11.dtd">
<!-- Generated by graphviz version 2.43.0 (0)
 -->
<!-- Title: PidViewModel::onTestStateChanged Pages: 1 -->
<svg width="368pt" height="64pt"
 viewBox="0.00 0.00 368.00 64.00" xmlns="http://www.w3.org/2000/svg" xmlns:xlink="http://www.w3.org/1999/xlink">
<g id="graph0" class="graph" transform="scale(1 1) rotate(0) translate(4 60)">
<title>PidViewModel::onTestStateChanged</title>
<!-- Node1 -->
<g id="Node000001" class="node">
<title>Node1</title>
<g id="a_Node000001"><a xlink:title=" ">
<polygon fill="#999999" stroke="#666666" points="149,-42.5 0,-42.5 0,-12.5 149,-12.5 149,-42.5"/>
<text text-anchor="start" x="8" y="-30.5" font-family="Helvetica,sans-Serif" font-size="10.00">PidViewModel::onTestState</text>
<text text-anchor="middle" x="74.5" y="-19.5" font-family="Helvetica,sans-Serif" font-size="10.00">Changed</text>
</a>
</g>
</g>
<!-- Node2 -->
<g id="Node000002" class="node">
<title>Node2</title>
<g id="a_Node000002"><a xlink:href="classTestBenchModel.html#aff59f6cb4f4fa5d4335704fb72f2e29a" target="_top" xlink:title=" ">
<polygon fill="white" stroke="#666666" points="356.5,-56 188.5,-56 188.5,-37 356.5,-37 356.5,-56"/>
<text text-anchor="middle" x="272.5" y="-44" font-family="Helvetica,sans-Serif" font-size="10.00">TestBenchModel::getTestStatus</text>
</a>
</g>
</g>
<!-- Node1&#45;&gt;Node2 -->
<g id="edge1_Node000001_Node000002" class="edge">
<title>Node1&#45;&gt;Node2</title>
<g id="a_edge1_Node000001_Node000002"><a xlink:title=" ">
<path fill="none" stroke="#63b8ff" d="M149.04,-34.63C158.55,-35.55 168.4,-36.51 178.18,-37.45"/>
<polygon fill="#63b8ff" stroke="#63b8ff" points="178.04,-40.96 188.33,-38.44 178.71,-33.99 178.04,-40.96"/>
</a>
</g>
</g>
<!-- Node3 -->
<g id="Node000003" class="node">
<title>Node3</title>
<g id="a_Node000003"><a xlink:href="classPidViewModel.html#af76ed63fb1cb775047fca9e2729c8b2b" target="_top" xlink:title=" ">
<polygon fill="white" stroke="#666666" points="360,-19 185,-19 185,0 360,0 360,-19"/>
<text text-anchor="middle" x="272.5" y="-7" font-family="Helvetica,sans-Serif" font-size="10.00">PidViewModel::PidStateChanged</text>
</a>
</g>
</g>
<!-- Node1&#45;&gt;Node3 -->
<g id="edge2_Node000001_Node000003" class="edge">
<title>Node1&#45;&gt;Node3</title>
<g id="a_edge2_Node000001_Node000003"><a xlink:title=" ">
<path fill="none" stroke="#63b8ff" d="M149.04,-20.75C157.39,-19.98 166,-19.19 174.6,-18.4"/>
<polygon fill="#63b8ff" stroke="#63b8ff" points="175.03,-21.87 184.67,-17.47 174.39,-14.9 175.03,-21.87"/>
</a>
</g>
</g>
</g>
</svg>
