<?xml version="1.0" encoding="UTF-8" standalone="no"?>
<!DOCTYPE svg PUBLIC "-//W3C//DTD SVG 1.1//EN"
 "http://www.w3.org/Graphics/SVG/1.1/DTD/svg11.dtd">
<!-- Generated by graphviz version 2.43.0 (0)
 -->
<!-- Title: EmergencyControlsViewModel Pages: 1 -->
<svg width="186pt" height="172pt"
 viewBox="0.00 0.00 186.00 172.00" xmlns="http://www.w3.org/2000/svg" xmlns:xlink="http://www.w3.org/1999/xlink">
<g id="graph0" class="graph" transform="scale(1 1) rotate(0) translate(4 168)">
<title>EmergencyControlsViewModel</title>
<!-- Node1 -->
<g id="Node000001" class="node">
<title>Node1</title>
<g id="a_Node000001"><a xlink:title=" ">
<polygon fill="#999999" stroke="transparent" points="178,-79 0,-79 0,0 178,0 178,-79"/>
<text text-anchor="start" x="14" y="-66.5" font-family="Helvetica,sans-Serif" font-size="10.00">EmergencyControlsViewModel</text>
<text text-anchor="start" x="6.5" y="-51.5" font-family="Helvetica,sans-Serif" font-size="10.00">&#45;</text>
<text text-anchor="start" x="17" y="-51.5" font-family="Helvetica,sans-Serif" font-size="10.00">m_udpChannel</text>
<text text-anchor="start" x="6.5" y="-36.5" font-family="Helvetica,sans-Serif" font-size="10.00">&#45;</text>
<text text-anchor="start" x="17" y="-36.5" font-family="Helvetica,sans-Serif" font-size="10.00">m_testBenchM</text>
<text text-anchor="start" x="4" y="-21.5" font-family="Helvetica,sans-Serif" font-size="10.00">+</text>
<text text-anchor="start" x="17" y="-21.5" font-family="Helvetica,sans-Serif" font-size="10.00">EmergencyControlsViewModel()</text>
<text text-anchor="start" x="4" y="-6.5" font-family="Helvetica,sans-Serif" font-size="10.00">+</text>
<text text-anchor="start" x="17" y="-6.5" font-family="Helvetica,sans-Serif" font-size="10.00">onTestAbortion()</text>
<polygon fill="#666666" stroke="#666666" points="0,-61.5 0,-61.5 178,-61.5 178,-61.5 0,-61.5"/>
<polygon fill="#666666" stroke="#666666" points="0,-31.5 0,-31.5 15,-31.5 15,-31.5 0,-31.5"/>
<polygon fill="#666666" stroke="#666666" points="15,-31.5 15,-31.5 178,-31.5 178,-31.5 15,-31.5"/>
<polygon fill="none" stroke="#666666" points="0,0 0,-79 178,-79 178,0 0,0"/>
</a>
</g>
</g>
<!-- Node2 -->
<g id="Node000002" class="node">
<title>Node2</title>
<g id="a_Node000002"><a xlink:title=" ">
<polygon fill="white" stroke="transparent" points="114,-164 64,-164 64,-115 114,-115 114,-164"/>
<text text-anchor="start" x="69" y="-151.5" font-family="Helvetica,sans-Serif" font-size="10.00">QObject</text>
<text text-anchor="start" x="87" y="-136.5" font-family="Helvetica,sans-Serif" font-size="10.00"> </text>
<text text-anchor="start" x="87" y="-121.5" font-family="Helvetica,sans-Serif" font-size="10.00"> </text>
<polygon fill="#666666" stroke="#666666" points="64,-146.5 64,-146.5 114,-146.5 114,-146.5 64,-146.5"/>
<polygon fill="#666666" stroke="#666666" points="64,-131.5 64,-131.5 114,-131.5 114,-131.5 64,-131.5"/>
<polygon fill="none" stroke="#666666" points="64,-115 64,-164 114,-164 114,-115 64,-115"/>
</a>
</g>
</g>
<!-- Node2&#45;&gt;Node1 -->
<g id="edge1_Node000001_Node000002" class="edge">
<title>Node2&#45;&gt;Node1</title>
<g id="a_edge1_Node000001_Node000002"><a xlink:title=" ">
<path fill="none" stroke="#63b8ff" d="M89,-104.52C89,-96.38 89,-87.63 89,-79.29"/>
<polygon fill="none" stroke="#63b8ff" points="85.5,-104.78 89,-114.78 92.5,-104.78 85.5,-104.78"/>
</a>
</g>
</g>
</g>
</svg>
