<?xml version="1.0" encoding="UTF-8" standalone="no"?>
<!DOCTYPE svg PUBLIC "-//W3C//DTD SVG 1.1//EN"
 "http://www.w3.org/Graphics/SVG/1.1/DTD/svg11.dtd">
<!-- Generated by graphviz version 2.43.0 (0)
 -->
<!-- Title: TestBenchStatesList::append Pages: 1 -->
<svg width="1041pt" height="76pt"
 viewBox="0.00 0.00 1041.00 75.50" xmlns="http://www.w3.org/2000/svg" xmlns:xlink="http://www.w3.org/1999/xlink">
<g id="graph0" class="graph" transform="scale(1 1) rotate(0) translate(4 71.5)">
<title>TestBenchStatesList::append</title>
<!-- Node1 -->
<g id="Node000001" class="node">
<title>Node1</title>
<g id="a_Node000001"><a xlink:title=" ">
<polygon fill="#999999" stroke="#666666" points="1033,-45.5 919,-45.5 919,-15.5 1033,-15.5 1033,-45.5"/>
<text text-anchor="start" x="927" y="-33.5" font-family="Helvetica,sans-Serif" font-size="10.00">TestBenchStatesList</text>
<text text-anchor="middle" x="976" y="-22.5" font-family="Helvetica,sans-Serif" font-size="10.00">::append</text>
</a>
</g>
</g>
<!-- Node2 -->
<g id="Node000002" class="node">
<title>Node2</title>
<g id="a_Node000002"><a xlink:href="classProtocolCodec.html#ab45b52d99e2ec983883aa25c8ba6f42e" target="_top" xlink:title=" ">
<polygon fill="white" stroke="#666666" points="883,-40 755,-40 755,-21 883,-21 883,-40"/>
<text text-anchor="middle" x="819" y="-28" font-family="Helvetica,sans-Serif" font-size="10.00">ProtocolCodec::decode</text>
</a>
</g>
</g>
<!-- Node1&#45;&gt;Node2 -->
<g id="edge1_Node000001_Node000002" class="edge">
<title>Node1&#45;&gt;Node2</title>
<g id="a_edge1_Node000001_Node000002"><a xlink:title=" ">
<path fill="none" stroke="#63b8ff" d="M908.48,-30.5C900.08,-30.5 891.51,-30.5 883.17,-30.5"/>
<polygon fill="#63b8ff" stroke="#63b8ff" points="908.6,-34 918.6,-30.5 908.6,-27 908.6,-34"/>
</a>
</g>
</g>
<!-- Node3 -->
<g id="Node000003" class="node">
<title>Node3</title>
<g id="a_Node000003"><a xlink:href="classCSVLogger.html#aeb2a3cbfb18c9e190ee9558b45c2ab63" target="_top" xlink:title=" ">
<polygon fill="white" stroke="#666666" points="678.5,-60 571.5,-60 571.5,-41 678.5,-41 678.5,-60"/>
<text text-anchor="middle" x="625" y="-48" font-family="Helvetica,sans-Serif" font-size="10.00">CSVLogger::logFile</text>
</a>
</g>
</g>
<!-- Node2&#45;&gt;Node3 -->
<g id="edge2_Node000002_Node000003" class="edge">
<title>Node2&#45;&gt;Node3</title>
<g id="a_edge2_Node000002_Node000003"><a xlink:title=" ">
<path fill="none" stroke="#63b8ff" d="M744.87,-38.12C722.8,-40.42 699.03,-42.89 678.58,-45.02"/>
<polygon fill="#63b8ff" stroke="#63b8ff" points="745.28,-41.59 754.87,-37.08 744.56,-34.63 745.28,-41.59"/>
</a>
</g>
</g>
<!-- Node7 -->
<g id="Node000007" class="node">
<title>Node7</title>
<g id="a_Node000007"><a xlink:href="classUdpChannel.html#a4f2c0c2ee1edbc192415cbb518bc44dd" target="_top" xlink:title="Decode and dispatch the data received via UDP for it to be used in the entire program.">
<polygon fill="white" stroke="#666666" points="719,-22 531,-22 531,-3 719,-3 719,-22"/>
<text text-anchor="middle" x="625" y="-10" font-family="Helvetica,sans-Serif" font-size="10.00">UdpChannel::onDatagramReceived</text>
</a>
</g>
</g>
<!-- Node2&#45;&gt;Node7 -->
<g id="edge6_Node000002_Node000007" class="edge">
<title>Node2&#45;&gt;Node7</title>
<g id="a_edge6_Node000002_Node000007"><a xlink:title=" ">
<path fill="none" stroke="#63b8ff" d="M744.75,-23.63C736.35,-22.85 727.7,-22.03 719.07,-21.23"/>
<polygon fill="#63b8ff" stroke="#63b8ff" points="744.58,-27.13 754.87,-24.58 745.24,-20.16 744.58,-27.13"/>
</a>
</g>
</g>
<!-- Node4 -->
<g id="Node000004" class="node">
<title>Node4</title>
<g id="a_Node000004"><a xlink:href="classExportMenuViewModel.html#a3384a193ce5445b24d08bb6b6fed94fb" target="_top" xlink:title=" ">
<polygon fill="white" stroke="#666666" points="489,-67.5 360,-67.5 360,-37.5 489,-37.5 489,-67.5"/>
<text text-anchor="start" x="368" y="-55.5" font-family="Helvetica,sans-Serif" font-size="10.00">ExportMenuViewModel</text>
<text text-anchor="middle" x="424.5" y="-44.5" font-family="Helvetica,sans-Serif" font-size="10.00">::selectPath</text>
</a>
</g>
</g>
<!-- Node3&#45;&gt;Node4 -->
<g id="edge3_Node000003_Node000004" class="edge">
<title>Node3&#45;&gt;Node4</title>
<g id="a_edge3_Node000003_Node000004"><a xlink:title=" ">
<path fill="none" stroke="#63b8ff" d="M561.31,-51.13C538.27,-51.36 512.16,-51.63 489.04,-51.86"/>
<polygon fill="#63b8ff" stroke="#63b8ff" points="561.36,-54.63 571.33,-51.03 561.29,-47.63 561.36,-54.63"/>
</a>
</g>
</g>
<!-- Node5 -->
<g id="Node000005" class="node">
<title>Node5</title>
<g id="a_Node000005"><a xlink:href="classExportMenu.html#a8c000516d7139497af90f9b173ca0609" target="_top" xlink:title=" ">
<polygon fill="white" stroke="#666666" points="318,-67.5 176,-67.5 176,-37.5 318,-37.5 318,-67.5"/>
<text text-anchor="start" x="184" y="-55.5" font-family="Helvetica,sans-Serif" font-size="10.00">ExportMenu::onFileDialog</text>
<text text-anchor="middle" x="247" y="-44.5" font-family="Helvetica,sans-Serif" font-size="10.00">WindowRequested</text>
</a>
</g>
</g>
<!-- Node4&#45;&gt;Node5 -->
<g id="edge4_Node000004_Node000005" class="edge">
<title>Node4&#45;&gt;Node5</title>
<g id="a_edge4_Node000004_Node000005"><a xlink:title=" ">
<path fill="none" stroke="#63b8ff" d="M349.37,-52.5C338.98,-52.5 328.34,-52.5 318.03,-52.5"/>
<polygon fill="#63b8ff" stroke="#63b8ff" points="349.64,-56 359.64,-52.5 349.64,-49 349.64,-56"/>
</a>
</g>
</g>
<!-- Node6 -->
<g id="Node000006" class="node">
<title>Node6</title>
<g id="a_Node000006"><a xlink:href="classExportMenu.html#aad47eee6721b4f7a152a093c99672ac9" target="_top" xlink:title=" ">
<polygon fill="white" stroke="#666666" points="140,-62 0,-62 0,-43 140,-43 140,-62"/>
<text text-anchor="middle" x="70" y="-50" font-family="Helvetica,sans-Serif" font-size="10.00">ExportMenu::ExportMenu</text>
</a>
</g>
</g>
<!-- Node5&#45;&gt;Node6 -->
<g id="edge5_Node000005_Node000006" class="edge">
<title>Node5&#45;&gt;Node6</title>
<g id="a_edge5_Node000005_Node000006"><a xlink:title=" ">
<path fill="none" stroke="#63b8ff" d="M165.8,-52.5C157.2,-52.5 148.5,-52.5 140.05,-52.5"/>
<polygon fill="#63b8ff" stroke="#63b8ff" points="165.83,-56 175.83,-52.5 165.83,-49 165.83,-56"/>
</a>
</g>
</g>
<!-- Node8 -->
<g id="Node000008" class="node">
<title>Node8</title>
<g id="a_Node000008"><a xlink:href="classUdpChannel.html#a1d69213eb88b5305686f1ef9ade76e04" target="_top" xlink:title=" ">
<polygon fill="white" stroke="#666666" points="495,-19 354,-19 354,0 495,0 495,-19"/>
<text text-anchor="middle" x="424.5" y="-7" font-family="Helvetica,sans-Serif" font-size="10.00">UdpChannel::UdpChannel</text>
</a>
</g>
</g>
<!-- Node7&#45;&gt;Node8 -->
<g id="edge7_Node000007_Node000008" class="edge">
<title>Node7&#45;&gt;Node8</title>
<g id="a_edge7_Node000007_Node000008"><a xlink:title=" ">
<path fill="none" stroke="#63b8ff" d="M520.73,-10.94C512.1,-10.81 503.52,-10.68 495.24,-10.55"/>
<polygon fill="#63b8ff" stroke="#63b8ff" points="520.8,-14.44 530.85,-11.09 520.91,-7.44 520.8,-14.44"/>
</a>
</g>
</g>
</g>
</svg>
