<?xml version="1.0" encoding="UTF-8" standalone="no"?>
<!DOCTYPE svg PUBLIC "-//W3C//DTD SVG 1.1//EN"
 "http://www.w3.org/Graphics/SVG/1.1/DTD/svg11.dtd">
<!-- Generated by graphviz version 2.43.0 (0)
 -->
<!-- Title: UdpChannelParametersWidget::applyParameters Pages: 1 -->
<!--zoomable 329 -->

<svg id="main" version="1.1" xmlns="http://www.w3.org/2000/svg" xmlns:xlink="http://www.w3.org/1999/xlink" xml:space="preserve" onload="init(evt)">
<style type="text/css"><![CDATA[
.node, .edge {opacity: 0.7;}
.node.selected, .edge.selected {opacity: 1;}
.edge:hover path { stroke: red; }
.edge:hover polygon { stroke: red; fill: red; }
]]></style>

<defs>
  <circle id="rim" cx="0" cy="0" r="7"/>
  <circle id="rim2" cx="0" cy="0" r="3.5"/>
  <g id="zoomPlus">
    <use xlink:href="#rim" fill="#404040"><set attributeName="fill" to="#808080" begin="zoomplus.mouseover" end="zoomplus.mouseout"/></use>
    <path d="M-4,0h8M0,-4v8" fill="none" stroke="white" stroke-width="1.5" pointer-events="none"/>
  </g>
  <g id="zoomMin">
    <use xlink:href="#rim" fill="#404040"><set attributeName="fill" to="#808080" begin="zoomminus.mouseover" end="zoomminus.mouseout"/></use>
    <path d="M-4,0h8" fill="none" stroke="white" stroke-width="1.5" pointer-events="none"/>
  </g>
  <g id="arrowUp" transform="translate(30 24)">
    <use xlink:href="#rim"/>
    <path pointer-events="none" fill="none" stroke="white" stroke-width="1.5" d="M0,-3.0v7 M-2.5,-0.5L0,-3.0L2.5,-0.5"/>
  </g>
  <g id="arrowRight" transform="rotate(90) translate(36 -43)">
    <use xlink:href="#rim"/>
    <path pointer-events="none" fill="none" stroke="white" stroke-width="1.5" d="M0,-3.0v7 M-2.5,-0.5L0,-3.0L2.5,-0.5"/>
  </g>
  <g id="arrowDown" transform="rotate(180) translate(-30 -48)">
    <use xlink:href="#rim"/>
    <path pointer-events="none" fill="none" stroke="white" stroke-width="1.5" d="M0,-3.0v7 M-2.5,-0.5L0,-3.0L2.5,-0.5"/>
  </g>
  <g id="arrowLeft" transform="rotate(270) translate(-36 17)">
    <use xlink:href="#rim"/>
    <path pointer-events="none" fill="none" stroke="white" stroke-width="1.5" d="M0,-3.0v7 M-2.5,-0.5L0,-3.0L2.5,-0.5"/>
  </g>
  <g id="resetDef">
    <use xlink:href="#rim2" fill="#404040"><set attributeName="fill" to="#808080" begin="reset.mouseover" end="reset.mouseout"/></use>
  </g>
</defs>
<script type="application/ecmascript">
var viewWidth = 1235;
var viewHeight = 329;
var sectionId = 'dynsection-3';
</script>
<script type="application/ecmascript" xlink:href="svg.min.js"/>
<svg id="graph" class="graph">
<g id="viewport">
<title>UdpChannelParametersWidget::applyParameters</title>
<!-- Node1 -->
<g id="Node000001" class="node">
<title>Node1</title>
<g id="a_Node000001"><a xlink:title=" ">
<polygon fill="#999999" stroke="#666666" points="166,-126 0,-126 0,-96 166,-96 166,-126"/>
<text text-anchor="start" x="8" y="-114" font-family="Helvetica,sans-Serif" font-size="10.00">UdpChannelParametersWidget</text>
<text text-anchor="middle" x="83" y="-103" font-family="Helvetica,sans-Serif" font-size="10.00">::applyParameters</text>
</a>
</g>
</g>
<!-- Node2 -->
<g id="Node000002" class="node">
<title>Node2</title>
<g id="a_Node000002"><a xlink:href="classUdpChannelParametersViewModel.html#af74d2aa09f73fc1ce13dca3469848fa8" target="_top" xlink:title=" ">
<polygon fill="white" stroke="#666666" points="357,-222 202,-222 202,-192 357,-192 357,-222"/>
<text text-anchor="start" x="210" y="-210" font-family="Helvetica,sans-Serif" font-size="10.00">UdpChannelParametersView</text>
<text text-anchor="middle" x="279.5" y="-199" font-family="Helvetica,sans-Serif" font-size="10.00">Model::restartEndpoint</text>
</a>
</g>
</g>
<!-- Node1&#45;&gt;Node2 -->
<g id="edge1_Node000001_Node000002" class="edge">
<title>Node1&#45;&gt;Node2</title>
<g id="a_edge1_Node000001_Node000002"><a xlink:title=" ">
<path fill="none" stroke="#63b8ff" d="M105.3,-126.2C128.28,-142.07 166.38,-166.84 202,-183 206.29,-184.95 210.78,-186.8 215.35,-188.54"/>
<polygon fill="#63b8ff" stroke="#63b8ff" points="214.19,-191.85 224.79,-191.98 216.59,-185.27 214.19,-191.85"/>
</a>
</g>
</g>
<!-- Node17 -->
<g id="Node000017" class="node">
<title>Node17</title>
<g id="a_Node000017"><a xlink:href="classUdpChannelParametersViewModel.html#a00ef08623a9b85cdece98b48255ee8bd" target="_top" xlink:title=" ">
<polygon fill="white" stroke="#666666" points="357,-174 202,-174 202,-144 357,-144 357,-174"/>
<text text-anchor="start" x="210" y="-162" font-family="Helvetica,sans-Serif" font-size="10.00">UdpChannelParametersView</text>
<text text-anchor="middle" x="279.5" y="-151" font-family="Helvetica,sans-Serif" font-size="10.00">Model::setEndpointAdress</text>
</a>
</g>
</g>
<!-- Node1&#45;&gt;Node17 -->
<g id="edge20_Node000001_Node000017" class="edge">
<title>Node1&#45;&gt;Node17</title>
<g id="a_edge20_Node000001_Node000017"><a xlink:title=" ">
<path fill="none" stroke="#63b8ff" d="M145.01,-126.06C164.92,-130.97 187.2,-136.47 207.77,-141.54"/>
<polygon fill="#63b8ff" stroke="#63b8ff" points="207.16,-145 217.71,-144 208.84,-138.2 207.16,-145"/>
</a>
</g>
</g>
<!-- Node19 -->
<g id="Node000019" class="node">
<title>Node19</title>
<g id="a_Node000019"><a xlink:href="classUdpChannelParametersViewModel.html#a38975c21f7781921e242dafd4a049de3" target="_top" xlink:title=" ">
<polygon fill="white" stroke="#666666" points="357,-126 202,-126 202,-96 357,-96 357,-126"/>
<text text-anchor="start" x="210" y="-114" font-family="Helvetica,sans-Serif" font-size="10.00">UdpChannelParametersView</text>
<text text-anchor="middle" x="279.5" y="-103" font-family="Helvetica,sans-Serif" font-size="10.00">Model::setEndpointPort</text>
</a>
</g>
</g>
<!-- Node1&#45;&gt;Node19 -->
<g id="edge22_Node000001_Node000019" class="edge">
<title>Node1&#45;&gt;Node19</title>
<g id="a_edge22_Node000001_Node000019"><a xlink:title=" ">
<path fill="none" stroke="#63b8ff" d="M166.2,-111C174.61,-111 183.16,-111 191.61,-111"/>
<polygon fill="#63b8ff" stroke="#63b8ff" points="191.85,-114.5 201.85,-111 191.85,-107.5 191.85,-114.5"/>
</a>
</g>
</g>
<!-- Node20 -->
<g id="Node000020" class="node">
<title>Node20</title>
<g id="a_Node000020"><a xlink:href="classUdpChannelParametersViewModel.html#ab718fa92039e5e499b93ead5d104f481" target="_top" xlink:title=" ">
<polygon fill="white" stroke="#666666" points="357,-78 202,-78 202,-48 357,-48 357,-78"/>
<text text-anchor="start" x="210" y="-66" font-family="Helvetica,sans-Serif" font-size="10.00">UdpChannelParametersView</text>
<text text-anchor="middle" x="279.5" y="-55" font-family="Helvetica,sans-Serif" font-size="10.00">Model::setTargetAdress</text>
</a>
</g>
</g>
<!-- Node1&#45;&gt;Node20 -->
<g id="edge24_Node000001_Node000020" class="edge">
<title>Node1&#45;&gt;Node20</title>
<g id="a_edge24_Node000001_Node000020"><a xlink:title=" ">
<path fill="none" stroke="#63b8ff" d="M145.01,-95.94C164.92,-91.03 187.2,-85.53 207.77,-80.46"/>
<polygon fill="#63b8ff" stroke="#63b8ff" points="208.84,-83.8 217.71,-78 207.16,-77 208.84,-83.8"/>
</a>
</g>
</g>
<!-- Node21 -->
<g id="Node000021" class="node">
<title>Node21</title>
<g id="a_Node000021"><a xlink:href="classUdpChannelParametersViewModel.html#a7c63870f4facfa8e8c1570d8a3297b5e" target="_top" xlink:title=" ">
<polygon fill="white" stroke="#666666" points="357,-30 202,-30 202,0 357,0 357,-30"/>
<text text-anchor="start" x="210" y="-18" font-family="Helvetica,sans-Serif" font-size="10.00">UdpChannelParametersView</text>
<text text-anchor="middle" x="279.5" y="-7" font-family="Helvetica,sans-Serif" font-size="10.00">Model::setTargetPort</text>
</a>
</g>
</g>
<!-- Node1&#45;&gt;Node21 -->
<g id="edge26_Node000001_Node000021" class="edge">
<title>Node1&#45;&gt;Node21</title>
<g id="a_edge26_Node000001_Node000021"><a xlink:title=" ">
<path fill="none" stroke="#63b8ff" d="M105.3,-95.8C128.28,-79.93 166.38,-55.16 202,-39 206.29,-37.05 210.78,-35.2 215.35,-33.46"/>
<polygon fill="#63b8ff" stroke="#63b8ff" points="216.59,-36.73 224.79,-30.02 214.19,-30.15 216.59,-36.73"/>
</a>
</g>
</g>
<!-- Node3 -->
<g id="Node000003" class="node">
<title>Node3</title>
<g id="a_Node000003"><a xlink:href="classUdpChannel.html#af57daa37448bd7c2707eeb6b2290b723" target="_top" xlink:title="Sets the local bind address.">
<polygon fill="white" stroke="#666666" points="557.5,-283.5 412.5,-283.5 412.5,-264.5 557.5,-264.5 557.5,-283.5"/>
<text text-anchor="middle" x="485" y="-271.5" font-family="Helvetica,sans-Serif" font-size="10.00">UdpChannel::setLocalAddr</text>
</a>
</g>
</g>
<!-- Node2&#45;&gt;Node3 -->
<g id="edge2_Node000002_Node000003" class="edge">
<title>Node2&#45;&gt;Node3</title>
<g id="a_edge2_Node000002_Node000003"><a xlink:title=" ">
<path fill="none" stroke="#63b8ff" d="M310.38,-222.13C332.67,-232.88 364.13,-246.97 393,-256 400.35,-258.3 408.13,-260.37 415.92,-262.21"/>
<polygon fill="#63b8ff" stroke="#63b8ff" points="415.24,-265.64 425.76,-264.42 416.77,-258.81 415.24,-265.64"/>
</a>
</g>
</g>
<!-- Node4 -->
<g id="Node000004" class="node">
<title>Node4</title>
<g id="a_Node000004"><a xlink:href="classUdpChannel.html#aaa49cc41565da600fd7b89d34bf4c389" target="_top" xlink:title="Sets the local bind port.">
<polygon fill="white" stroke="#666666" points="556,-246.5 414,-246.5 414,-227.5 556,-227.5 556,-246.5"/>
<text text-anchor="middle" x="485" y="-234.5" font-family="Helvetica,sans-Serif" font-size="10.00">UdpChannel::setLocalPort</text>
</a>
</g>
</g>
<!-- Node2&#45;&gt;Node4 -->
<g id="edge3_Node000002_Node000004" class="edge">
<title>Node2&#45;&gt;Node4</title>
<g id="a_edge3_Node000002_Node000004"><a xlink:title=" ">
<path fill="none" stroke="#63b8ff" d="M357.14,-218.3C374.29,-220.83 392.44,-223.5 409.49,-226.02"/>
<polygon fill="#63b8ff" stroke="#63b8ff" points="408.99,-229.48 419.39,-227.48 410.01,-222.55 408.99,-229.48"/>
</a>
</g>
</g>
<!-- Node5 -->
<g id="Node000005" class="node">
<title>Node5</title>
<g id="a_Node000005"><a xlink:href="classUdpChannel.html#a98a242e2766c5f1919577ae3f1b5b8eb" target="_top" xlink:title="Sets the remote host address.">
<polygon fill="white" stroke="#666666" points="564,-209.5 406,-209.5 406,-190.5 564,-190.5 564,-209.5"/>
<text text-anchor="middle" x="485" y="-197.5" font-family="Helvetica,sans-Serif" font-size="10.00">UdpChannel::setRemoteAddr</text>
</a>
</g>
</g>
<!-- Node2&#45;&gt;Node5 -->
<g id="edge4_Node000002_Node000005" class="edge">
<title>Node2&#45;&gt;Node5</title>
<g id="a_edge4_Node000002_Node000005"><a xlink:title=" ">
<path fill="none" stroke="#63b8ff" d="M357.14,-204.36C369.68,-203.93 382.76,-203.48 395.55,-203.04"/>
<polygon fill="#63b8ff" stroke="#63b8ff" points="395.86,-206.53 405.73,-202.69 395.62,-199.54 395.86,-206.53"/>
</a>
</g>
</g>
<!-- Node6 -->
<g id="Node000006" class="node">
<title>Node6</title>
<g id="a_Node000006"><a xlink:href="classUdpChannel.html#abfabfe8bbb5e582c17c40315be3664c1" target="_top" xlink:title="Sets the remote host port.">
<polygon fill="white" stroke="#666666" points="562.5,-172.5 407.5,-172.5 407.5,-153.5 562.5,-153.5 562.5,-172.5"/>
<text text-anchor="middle" x="485" y="-160.5" font-family="Helvetica,sans-Serif" font-size="10.00">UdpChannel::setRemotePort</text>
</a>
</g>
</g>
<!-- Node2&#45;&gt;Node6 -->
<g id="edge5_Node000002_Node000006" class="edge">
<title>Node2&#45;&gt;Node6</title>
<g id="a_edge5_Node000002_Node000006"><a xlink:title=" ">
<path fill="none" stroke="#63b8ff" d="M347.39,-191.99C362.39,-188.66 378.23,-185.18 393,-182 404.23,-179.58 416.24,-177.04 427.74,-174.63"/>
<polygon fill="#63b8ff" stroke="#63b8ff" points="428.61,-178.02 437.68,-172.55 427.18,-171.17 428.61,-178.02"/>
</a>
</g>
</g>
<!-- Node7 -->
<g id="Node000007" class="node">
<title>Node7</title>
<g id="a_Node000007"><a xlink:href="classUdpChannel.html#a0ed1f8d1f6bab17f35b54db9f31ecc05" target="_top" xlink:title="Start the UDP channel and its subsystems.">
<polygon fill="white" stroke="#666666" points="558.5,-135.5 411.5,-135.5 411.5,-116.5 558.5,-116.5 558.5,-135.5"/>
<text text-anchor="middle" x="485" y="-123.5" font-family="Helvetica,sans-Serif" font-size="10.00">UdpChannel::startEndpoint</text>
</a>
</g>
</g>
<!-- Node2&#45;&gt;Node7 -->
<g id="edge6_Node000002_Node000007" class="edge">
<title>Node2&#45;&gt;Node7</title>
<g id="a_edge6_Node000002_Node000007"><a xlink:title=" ">
<path fill="none" stroke="#63b8ff" d="M339.51,-191.89C345.62,-189.34 351.57,-186.39 357,-183 376.73,-170.68 372.69,-156.34 393,-145 396.99,-142.77 401.21,-140.8 405.57,-139.07"/>
<polygon fill="#63b8ff" stroke="#63b8ff" points="407.02,-142.26 415.27,-135.62 404.68,-135.67 407.02,-142.26"/>
</a>
</g>
</g>
<!-- Node14 -->
<g id="Node000014" class="node">
<title>Node14</title>
<g id="a_Node000014"><a xlink:href="classUdpChannel.html#a818443eac8b5aa21093fe3a1f39492a4" target="_top" xlink:title="Stop the UDP channel and its subsystems.">
<polygon fill="white" stroke="#666666" points="558,-320.5 412,-320.5 412,-301.5 558,-301.5 558,-320.5"/>
<text text-anchor="middle" x="485" y="-308.5" font-family="Helvetica,sans-Serif" font-size="10.00">UdpChannel::stopEndpoint</text>
</a>
</g>
</g>
<!-- Node2&#45;&gt;Node14 -->
<g id="edge16_Node000002_Node000014" class="edge">
<title>Node2&#45;&gt;Node14</title>
<g id="a_edge16_Node000002_Node000014"><a xlink:title=" ">
<path fill="none" stroke="#63b8ff" d="M295.38,-222.07C315.61,-241.61 353.79,-275.3 393,-293 397.65,-295.1 402.55,-296.95 407.55,-298.59"/>
<polygon fill="#63b8ff" stroke="#63b8ff" points="406.7,-301.99 417.28,-301.49 408.69,-295.28 406.7,-301.99"/>
</a>
</g>
</g>
<!-- Node8 -->
<g id="Node000008" class="node">
<title>Node8</title>
<g id="a_Node000008"><a xlink:href="classUdpLogger.html#a55781f93bfc47a004e7b7b8afaa0192c" target="_top" xlink:title="Initialize the writer and start the writer thread.">
<polygon fill="white" stroke="#666666" points="741,-189.5 643,-189.5 643,-170.5 741,-170.5 741,-189.5"/>
<text text-anchor="middle" x="692" y="-177.5" font-family="Helvetica,sans-Serif" font-size="10.00">UdpLogger::start</text>
</a>
</g>
</g>
<!-- Node7&#45;&gt;Node8 -->
<g id="edge7_Node000007_Node000008" class="edge">
<title>Node7&#45;&gt;Node8</title>
<g id="a_edge7_Node000007_Node000008"><a xlink:title=" ">
<path fill="none" stroke="#63b8ff" d="M535.78,-135.53C549.22,-138.34 563.71,-141.58 577,-145 602.56,-151.58 630.93,-160.28 652.98,-167.37"/>
<polygon fill="#63b8ff" stroke="#63b8ff" points="652.04,-170.74 662.63,-170.49 654.19,-164.08 652.04,-170.74"/>
</a>
</g>
</g>
<!-- Node13 -->
<g id="Node000013" class="node">
<title>Node13</title>
<g id="a_Node000013"><a xlink:href="classUdpChannel.html#a48718b685a3059703ffbb06980376f7e" target="_top" xlink:title="Instructs the UdpWorker to start listening.">
<polygon fill="white" stroke="#666666" points="771,-135.5 613,-135.5 613,-116.5 771,-116.5 771,-135.5"/>
<text text-anchor="middle" x="692" y="-123.5" font-family="Helvetica,sans-Serif" font-size="10.00">UdpChannel::startUdpWorker</text>
</a>
</g>
</g>
<!-- Node7&#45;&gt;Node13 -->
<g id="edge15_Node000007_Node000013" class="edge">
<title>Node7&#45;&gt;Node13</title>
<g id="a_edge15_Node000007_Node000013"><a xlink:title=" ">
<path fill="none" stroke="#63b8ff" d="M558.56,-126C572.88,-126 588.05,-126 602.82,-126"/>
<polygon fill="#63b8ff" stroke="#63b8ff" points="602.97,-129.5 612.97,-126 602.97,-122.5 602.97,-129.5"/>
</a>
</g>
</g>
<!-- Node9 -->
<g id="Node000009" class="node">
<title>Node9</title>
<g id="a_Node000009"><a xlink:href="classLogger.html#ad89b36eb9b5a28d1f61b3c74a6975031" target="_top" xlink:title="Log the messages as a debug and send a signal to display it.">
<polygon fill="white" stroke="#666666" points="1056,-245.5 970,-245.5 970,-226.5 1056,-226.5 1056,-245.5"/>
<text text-anchor="middle" x="1013" y="-233.5" font-family="Helvetica,sans-Serif" font-size="10.00">Logger::debug</text>
</a>
</g>
</g>
<!-- Node8&#45;&gt;Node9 -->
<g id="edge8_Node000008_Node000009" class="edge">
<title>Node8&#45;&gt;Node9</title>
<g id="a_edge8_Node000008_Node000009"><a xlink:title=" ">
<path fill="none" stroke="#63b8ff" d="M716.57,-189.67C739.32,-198.56 774.93,-211.34 807,-218 858.28,-228.64 918.04,-233 959.76,-234.78"/>
<polygon fill="#63b8ff" stroke="#63b8ff" points="959.84,-238.28 969.96,-235.18 960.11,-231.29 959.84,-238.28"/>
</a>
</g>
</g>
<!-- Node11 -->
<g id="Node000011" class="node">
<title>Node11</title>
<g id="a_Node000011"><a xlink:href="classLogger.html#a6c8bf2fc8c89d76b7f4fe25d97ad4bf3" target="_top" xlink:title="Log the messages as an error and send a signal to display it.">
<polygon fill="white" stroke="#666666" points="1052.5,-208.5 973.5,-208.5 973.5,-189.5 1052.5,-189.5 1052.5,-208.5"/>
<text text-anchor="middle" x="1013" y="-196.5" font-family="Helvetica,sans-Serif" font-size="10.00">Logger::error</text>
</a>
</g>
</g>
<!-- Node8&#45;&gt;Node11 -->
<g id="edge10_Node000008_Node000011" class="edge">
<title>Node8&#45;&gt;Node11</title>
<g id="a_edge10_Node000008_Node000011"><a xlink:title=" ">
<path fill="none" stroke="#63b8ff" d="M741.2,-177.06C789.98,-174.82 867.5,-173.29 934,-181 945.2,-182.3 957.14,-184.58 968.23,-187.1"/>
<polygon fill="#63b8ff" stroke="#63b8ff" points="967.58,-190.54 978.12,-189.45 969.2,-183.73 967.58,-190.54"/>
</a>
</g>
</g>
<!-- Node12 -->
<g id="Node000012" class="node">
<title>Node12</title>
<g id="a_Node000012"><a xlink:href="classUdpLogger.html#a4f7e8bb32128f9186dc452a57134475d" target="_top" xlink:title="Writer loop executed on m_writerThread.">
<polygon fill="white" stroke="#666666" points="934,-208.5 807,-208.5 807,-189.5 934,-189.5 934,-208.5"/>
<text text-anchor="middle" x="870.5" y="-196.5" font-family="Helvetica,sans-Serif" font-size="10.00">UdpLogger::writerLoop</text>
</a>
</g>
</g>
<!-- Node8&#45;&gt;Node12 -->
<g id="edge12_Node000008_Node000012" class="edge">
<title>Node8&#45;&gt;Node12</title>
<g id="a_edge12_Node000008_Node000012"><a xlink:title=" ">
<path fill="none" stroke="#63b8ff" d="M741.23,-185.19C758.36,-187.04 778.04,-189.15 796.76,-191.17"/>
<polygon fill="#63b8ff" stroke="#63b8ff" points="796.43,-194.65 806.74,-192.24 797.18,-187.69 796.43,-194.65"/>
</a>
</g>
</g>
<!-- Node10 -->
<g id="Node000010" class="node">
<title>Node10</title>
<g id="a_Node000010"><a xlink:href="classLogger.html#a02453fd0695fe06c495de714399e8bf7" target="_top" xlink:title="Signal that send the message to the rest of the app.">
<polygon fill="white" stroke="#666666" points="1227,-226.5 1092,-226.5 1092,-207.5 1227,-207.5 1227,-226.5"/>
<text text-anchor="middle" x="1159.5" y="-214.5" font-family="Helvetica,sans-Serif" font-size="10.00">Logger::messageLogged</text>
</a>
</g>
</g>
<!-- Node9&#45;&gt;Node10 -->
<g id="edge9_Node000009_Node000010" class="edge">
<title>Node9&#45;&gt;Node10</title>
<g id="a_edge9_Node000009_Node000010"><a xlink:title=" ">
<path fill="none" stroke="#63b8ff" d="M1056.18,-230.45C1064.29,-229.39 1073.02,-228.24 1081.83,-227.08"/>
<polygon fill="#63b8ff" stroke="#63b8ff" points="1082.33,-230.55 1091.79,-225.77 1081.42,-223.6 1082.33,-230.55"/>
</a>
</g>
</g>
<!-- Node11&#45;&gt;Node10 -->
<g id="edge11_Node000011_Node000010" class="edge">
<title>Node11&#45;&gt;Node10</title>
<g id="a_edge11_Node000011_Node000010"><a xlink:title=" ">
<path fill="none" stroke="#63b8ff" d="M1052.72,-203.82C1061.75,-204.95 1071.68,-206.18 1081.72,-207.44"/>
<polygon fill="#63b8ff" stroke="#63b8ff" points="1081.42,-210.93 1091.78,-208.69 1082.28,-203.98 1081.42,-210.93"/>
</a>
</g>
</g>
<!-- Node12&#45;&gt;Node9 -->
<g id="edge13_Node000012_Node000009" class="edge">
<title>Node12&#45;&gt;Node9</title>
<g id="a_edge13_Node000012_Node000009"><a xlink:title=" ">
<path fill="none" stroke="#63b8ff" d="M907.68,-208.53C925.33,-213.17 946.75,-218.82 965.59,-223.78"/>
<polygon fill="#63b8ff" stroke="#63b8ff" points="964.89,-227.21 975.45,-226.38 966.67,-220.44 964.89,-227.21"/>
</a>
</g>
</g>
<!-- Node12&#45;&gt;Node11 -->
<g id="edge14_Node000012_Node000011" class="edge">
<title>Node12&#45;&gt;Node11</title>
<g id="a_edge14_Node000012_Node000011"><a xlink:title=" ">
<path fill="none" stroke="#63b8ff" d="M934.35,-199C944.01,-199 953.86,-199 963.16,-199"/>
<polygon fill="#63b8ff" stroke="#63b8ff" points="963.38,-202.5 973.38,-199 963.38,-195.5 963.38,-202.5"/>
</a>
</g>
</g>
<!-- Node15 -->
<g id="Node000015" class="node">
<title>Node15</title>
<g id="a_Node000015"><a xlink:href="classUdpLogger.html#a09b32cc5531b9db48cde09d12d1c321f" target="_top" xlink:title="Signal the writer loop to stop and join the writer thread.">
<polygon fill="white" stroke="#666666" points="918.5,-302.5 822.5,-302.5 822.5,-283.5 918.5,-283.5 918.5,-302.5"/>
<text text-anchor="middle" x="870.5" y="-290.5" font-family="Helvetica,sans-Serif" font-size="10.00">UdpLogger::stop</text>
</a>
</g>
</g>
<!-- Node14&#45;&gt;Node15 -->
<g id="edge17_Node000014_Node000015" class="edge">
<title>Node14&#45;&gt;Node15</title>
<g id="a_edge17_Node000014_Node000015"><a xlink:title=" ">
<path fill="none" stroke="#63b8ff" d="M558.13,-307.61C631.81,-304.16 744.72,-298.86 812.41,-295.68"/>
<polygon fill="#63b8ff" stroke="#63b8ff" points="812.64,-299.17 822.47,-295.21 812.31,-292.18 812.64,-299.17"/>
</a>
</g>
</g>
<!-- Node16 -->
<g id="Node000016" class="node">
<title>Node16</title>
<g id="a_Node000016"><a xlink:href="classUdpChannel.html#a8e42a953d827d6a78a4867ba05b6a4ca" target="_top" xlink:title="Instructs the UdpWorker to stop.">
<polygon fill="white" stroke="#666666" points="770,-282.5 614,-282.5 614,-263.5 770,-263.5 770,-282.5"/>
<text text-anchor="middle" x="692" y="-270.5" font-family="Helvetica,sans-Serif" font-size="10.00">UdpChannel::stopUdpWorker</text>
</a>
</g>
</g>
<!-- Node14&#45;&gt;Node16 -->
<g id="edge19_Node000014_Node000016" class="edge">
<title>Node14&#45;&gt;Node16</title>
<g id="a_edge19_Node000014_Node000016"><a xlink:title=" ">
<path fill="none" stroke="#63b8ff" d="M537.47,-301.46C565.37,-296.29 600.05,-289.86 629.38,-284.42"/>
<polygon fill="#63b8ff" stroke="#63b8ff" points="630.32,-287.81 639.51,-282.54 629.04,-280.93 630.32,-287.81"/>
</a>
</g>
</g>
<!-- Node15&#45;&gt;Node9 -->
<g id="edge18_Node000015_Node000009" class="edge">
<title>Node15&#45;&gt;Node9</title>
<g id="a_edge18_Node000015_Node000009"><a xlink:title=" ">
<path fill="none" stroke="#63b8ff" d="M895.02,-283.46C918.01,-274.13 953.24,-259.84 979.03,-249.38"/>
<polygon fill="#63b8ff" stroke="#63b8ff" points="980.46,-252.57 988.41,-245.57 977.82,-246.09 980.46,-252.57"/>
</a>
</g>
</g>
<!-- Node18 -->
<g id="Node000018" class="node">
<title>Node18</title>
<g id="a_Node000018"><a xlink:href="classUdpChannelParametersViewModel.html#ab862d51692545519d0f5fd429b9950d7" target="_top" xlink:title=" ">
<polygon fill="white" stroke="#666666" points="577,-91 393,-91 393,-61 577,-61 577,-91"/>
<text text-anchor="start" x="401" y="-79" font-family="Helvetica,sans-Serif" font-size="10.00">UdpChannelParametersView</text>
<text text-anchor="middle" x="485" y="-68" font-family="Helvetica,sans-Serif" font-size="10.00">Model::AdressParametersChanged</text>
</a>
</g>
</g>
<!-- Node17&#45;&gt;Node18 -->
<g id="edge21_Node000017_Node000018" class="edge">
<title>Node17&#45;&gt;Node18</title>
<g id="a_edge21_Node000017_Node000018"><a xlink:title=" ">
<path fill="none" stroke="#63b8ff" d="M336.6,-143.97C343.62,-141.34 350.59,-138.36 357,-135 374.96,-125.59 375.16,-116.62 393,-107 401.59,-102.36 411.01,-98.23 420.43,-94.61"/>
<polygon fill="#63b8ff" stroke="#63b8ff" points="421.64,-97.89 429.81,-91.16 419.22,-91.32 421.64,-97.89"/>
</a>
</g>
</g>
<!-- Node19&#45;&gt;Node18 -->
<g id="edge23_Node000019_Node000018" class="edge">
<title>Node19&#45;&gt;Node18</title>
<g id="a_edge23_Node000019_Node000018"><a xlink:title=" ">
<path fill="none" stroke="#63b8ff" d="M357.14,-97.82C366.78,-96.16 376.73,-94.45 386.63,-92.75"/>
<polygon fill="#63b8ff" stroke="#63b8ff" points="387.23,-96.19 396.49,-91.05 386.05,-89.3 387.23,-96.19"/>
</a>
</g>
</g>
<!-- Node20&#45;&gt;Node18 -->
<g id="edge25_Node000020_Node000018" class="edge">
<title>Node20&#45;&gt;Node18</title>
<g id="a_edge25_Node000020_Node000018"><a xlink:title=" ">
<path fill="none" stroke="#63b8ff" d="M357.14,-67.9C365.49,-68.43 374.07,-68.98 382.64,-69.53"/>
<polygon fill="#63b8ff" stroke="#63b8ff" points="382.49,-73.02 392.7,-70.17 382.94,-66.04 382.49,-73.02"/>
</a>
</g>
</g>
<!-- Node21&#45;&gt;Node18 -->
<g id="edge27_Node000021_Node000018" class="edge">
<title>Node21&#45;&gt;Node18</title>
<g id="a_edge27_Node000021_Node000018"><a xlink:title=" ">
<path fill="none" stroke="#63b8ff" d="M330.54,-30C358.77,-38.46 394.24,-49.09 423.96,-58"/>
<polygon fill="#63b8ff" stroke="#63b8ff" points="423.21,-61.43 433.8,-60.95 425.22,-54.73 423.21,-61.43"/>
</a>
</g>
</g>
</g>
</svg>

<g id="navigator" transform="translate(0 0)" fill="#404254">
  <rect fill="#f2f5e9" fill-opacity="0.5" stroke="#606060" stroke-width=".5" x="0" y="0" width="60" height="60"/>
  <use id="zoomplus" xlink:href="#zoomPlus" x="17" y="9" onmousedown="handleZoom(evt,'in')"/>
  <use id="zoomminus" xlink:href="#zoomMin" x="42" y="9" onmousedown="handleZoom(evt,'out')"/>
  <use id="reset" xlink:href="#resetDef" x="30" y="36" onmousedown="handleReset()"/>
   <use id="arrowup" xlink:href="#arrowUp" x="0" y="0" onmousedown="handlePan(0,-1)"/>
  <use id="arrowright" xlink:href="#arrowRight" x="0" y="0" onmousedown="handlePan(1,0)"/>
  <use id="arrowdown" xlink:href="#arrowDown" x="0" y="0" onmousedown="handlePan(0,1)"/>
  <use id="arrowleft" xlink:href="#arrowLeft" x="0" y="0" onmousedown="handlePan(-1,0)"/>
</g>
<svg viewBox="0 0 15 15" width="100%" height="30px" preserveAspectRatio="xMaxYMin meet">
 <g id="arrow_out" transform="scale(0.3 0.3)">
  <a xlink:href="classUdpChannelParametersWidget_aef0927083aea2b20033b42465cb2b42f_cgraph_org.svg" target="_base">
   <rect id="button" ry="5" rx="5" y="6" x="6" height="38" width="38"
        fill="#f2f5e9" fill-opacity="0.5" stroke="#606060" stroke-width="1.0"/>
   <path id="arrow"
     d="M 11.500037,31.436501 C 11.940474,20.09759 22.043105,11.32322 32.158766,21.979434 L 37.068811,17.246167 C 37.068811,17.246167 37.088388,32 37.088388,32 L 22.160133,31.978069 C 22.160133,31.978069 26.997745,27.140456 26.997745,27.140456 C 18.528582,18.264221 13.291696,25.230495 11.500037,31.436501 z"
     style="fill:#404040;"/>
  </a>
 </g>
</svg>

<style type='text/css'>
<![CDATA[
[data-mouse-over-selected='false'] { opacity: 0.7; }
[data-mouse-over-selected='true']  { opacity: 1.0; }
]]>
</style>
<script type="application/ecmascript"><![CDATA[
document.addEventListener('DOMContentLoaded', (event) => {
  highlightEdges();
  highlightAdjacentNodes();
});
]]></script>
</svg>
