<?xml version="1.0" encoding="UTF-8" standalone="no"?>
<!DOCTYPE svg PUBLIC "-//W3C//DTD SVG 1.1//EN"
 "http://www.w3.org/Graphics/SVG/1.1/DTD/svg11.dtd">
<!-- Generated by graphviz version 2.43.0 (0)
 -->
<!-- Title: TVCTestCommand Pages: 1 -->
<svg width="108pt" height="142pt"
 viewBox="0.00 0.00 108.00 142.00" xmlns="http://www.w3.org/2000/svg" xmlns:xlink="http://www.w3.org/1999/xlink">
<g id="graph0" class="graph" transform="scale(1 1) rotate(0) translate(4 138)">
<title>TVCTestCommand</title>
<!-- Node1 -->
<g id="Node000001" class="node">
<title>Node1</title>
<g id="a_Node000001"><a xlink:title=" ">
<polygon fill="#999999" stroke="transparent" points="100,-49 0,-49 0,0 100,0 100,-49"/>
<text text-anchor="start" x="5" y="-36.5" font-family="Helvetica,sans-Serif" font-size="10.00">TVCTestCommand</text>
<text text-anchor="start" x="16" y="-21.5" font-family="Helvetica,sans-Serif" font-size="10.00">+</text>
<text text-anchor="start" x="41" y="-21.5" font-family="Helvetica,sans-Serif" font-size="10.00">shape</text>
<text text-anchor="start" x="48" y="-6.5" font-family="Helvetica,sans-Serif" font-size="10.00"> </text>
<polygon fill="#666666" stroke="#666666" points="0,-31.5 0,-31.5 100,-31.5 100,-31.5 0,-31.5"/>
<polygon fill="#666666" stroke="#666666" points="0,-16.5 0,-16.5 39,-16.5 39,-16.5 0,-16.5"/>
<polygon fill="#666666" stroke="#666666" points="39,-16.5 39,-16.5 100,-16.5 100,-16.5 39,-16.5"/>
<polygon fill="none" stroke="#666666" points="0,0 0,-49 100,-49 100,0 0,0"/>
</a>
</g>
</g>
<!-- Node2 -->
<g id="Node000002" class="node">
<title>Node2</title>
<g id="a_Node000002"><a xlink:href="classMessage.html" target="_top" xlink:title=" ">
<polygon fill="white" stroke="transparent" points="90.5,-134 9.5,-134 9.5,-85 90.5,-85 90.5,-134"/>
<text text-anchor="start" x="28.5" y="-121.5" font-family="Helvetica,sans-Serif" font-size="10.00">Message</text>
<text text-anchor="start" x="48.5" y="-106.5" font-family="Helvetica,sans-Serif" font-size="10.00"> </text>
<text text-anchor="start" x="14" y="-91.5" font-family="Helvetica,sans-Serif" font-size="10.00">+</text>
<text text-anchor="start" x="27" y="-91.5" font-family="Helvetica,sans-Serif" font-size="10.00">~Message()</text>
<polygon fill="#666666" stroke="#666666" points="10,-116.5 10,-116.5 91,-116.5 91,-116.5 10,-116.5"/>
<polygon fill="#666666" stroke="#666666" points="10,-101.5 10,-101.5 91,-101.5 91,-101.5 10,-101.5"/>
<polygon fill="none" stroke="#666666" points="9.5,-85 9.5,-134 90.5,-134 90.5,-85 9.5,-85"/>
</a>
</g>
</g>
<!-- Node2&#45;&gt;Node1 -->
<g id="edge1_Node000001_Node000002" class="edge">
<title>Node2&#45;&gt;Node1</title>
<g id="a_edge1_Node000001_Node000002"><a xlink:title=" ">
<path fill="none" stroke="#8b1a1a" d="M50,-74.77C50,-66.17 50,-57.1 50,-49.12"/>
<polygon fill="none" stroke="#8b1a1a" points="46.5,-74.94 50,-84.94 53.5,-74.94 46.5,-74.94"/>
</a>
</g>
</g>
</g>
</svg>
