<?xml version="1.0" encoding="UTF-8" standalone="no"?>
<!DOCTYPE svg PUBLIC "-//W3C//DTD SVG 1.1//EN"
 "http://www.w3.org/Graphics/SVG/1.1/DTD/svg11.dtd">
<!-- Generated by graphviz version 2.43.0 (0)
 -->
<!-- Title: TankPressureControlerViewModel::TankPressureControlerViewModel Pages: 1 -->
<svg width="637pt" height="161pt"
 viewBox="0.00 0.00 637.00 161.00" xmlns="http://www.w3.org/2000/svg" xmlns:xlink="http://www.w3.org/1999/xlink">
<g id="graph0" class="graph" transform="scale(1 1) rotate(0) translate(4 157)">
<title>TankPressureControlerViewModel::TankPressureControlerViewModel</title>
<!-- Node1 -->
<g id="Node000001" class="node">
<title>Node1</title>
<g id="a_Node000001"><a xlink:title=" ">
<polygon fill="#999999" stroke="#666666" points="216,-91.5 0,-91.5 0,-61.5 216,-61.5 216,-91.5"/>
<text text-anchor="start" x="8" y="-79.5" font-family="Helvetica,sans-Serif" font-size="10.00">TankPressureControlerView</text>
<text text-anchor="middle" x="108" y="-68.5" font-family="Helvetica,sans-Serif" font-size="10.00">Model::TankPressureControlerViewModel</text>
</a>
</g>
</g>
<!-- Node2 -->
<g id="Node000002" class="node">
<title>Node2</title>
<g id="a_Node000002"><a xlink:href="classUdpChannel.html#a2193dfeb846961d6171734814685e689" target="_top" xlink:title=" ">
<polygon fill="white" stroke="#666666" points="414,-153 256,-153 256,-134 414,-134 414,-153"/>
<text text-anchor="middle" x="335" y="-141" font-family="Helvetica,sans-Serif" font-size="10.00">UdpChannel::AckBBReceived</text>
</a>
</g>
</g>
<!-- Node1&#45;&gt;Node2 -->
<g id="edge1_Node000001_Node000002" class="edge">
<title>Node1&#45;&gt;Node2</title>
<g id="a_edge1_Node000001_Node000002"><a xlink:title=" ">
<path fill="none" stroke="#63b8ff" d="M150.28,-91.53C178.67,-101.58 217.35,-114.7 252,-124.5 260.78,-126.98 270.15,-129.39 279.3,-131.6"/>
<polygon fill="#63b8ff" stroke="#63b8ff" points="278.58,-135.02 289.12,-133.92 280.19,-128.21 278.58,-135.02"/>
</a>
</g>
</g>
<!-- Node3 -->
<g id="Node000003" class="node">
<title>Node3</title>
<g id="a_Node000003"><a xlink:href="classTankPressureControlerViewModel.html#ac94b479a0487d31b89df47c6a8e21518" target="_top" xlink:title=" ">
<polygon fill="white" stroke="#666666" points="410,-115.5 260,-115.5 260,-85.5 410,-85.5 410,-115.5"/>
<text text-anchor="start" x="268" y="-103.5" font-family="Helvetica,sans-Serif" font-size="10.00">TankPressureControlerView</text>
<text text-anchor="middle" x="335" y="-92.5" font-family="Helvetica,sans-Serif" font-size="10.00">Model::onBBCommandACK</text>
</a>
</g>
</g>
<!-- Node1&#45;&gt;Node3 -->
<g id="edge2_Node000001_Node000003" class="edge">
<title>Node1&#45;&gt;Node3</title>
<g id="a_edge2_Node000001_Node000003"><a xlink:title=" ">
<path fill="none" stroke="#63b8ff" d="M216.23,-87.94C227.38,-89.13 238.6,-90.32 249.45,-91.48"/>
<polygon fill="#63b8ff" stroke="#63b8ff" points="249.41,-95 259.72,-92.58 250.15,-88.04 249.41,-95"/>
</a>
</g>
</g>
<!-- Node5 -->
<g id="Node000005" class="node">
<title>Node5</title>
<g id="a_Node000005"><a xlink:href="classTankPressureControlerViewModel.html#abb05457a8d1956716976ac077bba612e" target="_top" xlink:title=" ">
<polygon fill="white" stroke="#666666" points="418,-67.5 252,-67.5 252,-37.5 418,-37.5 418,-67.5"/>
<text text-anchor="start" x="260" y="-55.5" font-family="Helvetica,sans-Serif" font-size="10.00">TankPressureControlerView</text>
<text text-anchor="middle" x="335" y="-44.5" font-family="Helvetica,sans-Serif" font-size="10.00">Model::onSensorDataReceived</text>
</a>
</g>
</g>
<!-- Node1&#45;&gt;Node5 -->
<g id="edge4_Node000001_Node000005" class="edge">
<title>Node1&#45;&gt;Node5</title>
<g id="a_edge4_Node000001_Node000005"><a xlink:title=" ">
<path fill="none" stroke="#63b8ff" d="M216.23,-65.06C224.76,-64.15 233.33,-63.24 241.74,-62.34"/>
<polygon fill="#63b8ff" stroke="#63b8ff" points="242.34,-65.8 251.91,-61.26 241.6,-58.84 242.34,-65.8"/>
</a>
</g>
</g>
<!-- Node7 -->
<g id="Node000007" class="node">
<title>Node7</title>
<g id="a_Node000007"><a xlink:href="classTimer.html#ab8b4318d87a4ce20f552168be58dce1f" target="_top" xlink:title=" ">
<polygon fill="white" stroke="#666666" points="379.5,-19 290.5,-19 290.5,0 379.5,0 379.5,-19"/>
<text text-anchor="middle" x="335" y="-7" font-family="Helvetica,sans-Serif" font-size="10.00">Timer::timeout</text>
</a>
</g>
</g>
<!-- Node1&#45;&gt;Node7 -->
<g id="edge6_Node000001_Node000007" class="edge">
<title>Node1&#45;&gt;Node7</title>
<g id="a_edge6_Node000001_Node000007"><a xlink:title=" ">
<path fill="none" stroke="#63b8ff" d="M150.28,-61.47C178.67,-51.42 217.35,-38.3 252,-28.5 261.18,-25.9 271.02,-23.39 280.57,-21.1"/>
<polygon fill="#63b8ff" stroke="#63b8ff" points="281.46,-24.48 290.39,-18.78 279.86,-17.67 281.46,-24.48"/>
</a>
</g>
</g>
<!-- Node4 -->
<g id="Node000004" class="node">
<title>Node4</title>
<g id="a_Node000004"><a xlink:href="classTankPressureControlerViewModel.html#a219327932e451816a82636e86a4caa20" target="_top" xlink:title=" ">
<polygon fill="white" stroke="#666666" points="629,-115.5 454,-115.5 454,-85.5 629,-85.5 629,-115.5"/>
<text text-anchor="start" x="462" y="-103.5" font-family="Helvetica,sans-Serif" font-size="10.00">TankPressureControlerView</text>
<text text-anchor="middle" x="541.5" y="-92.5" font-family="Helvetica,sans-Serif" font-size="10.00">Model::BBControlStatusChanged</text>
</a>
</g>
</g>
<!-- Node3&#45;&gt;Node4 -->
<g id="edge3_Node000003_Node000004" class="edge">
<title>Node3&#45;&gt;Node4</title>
<g id="a_edge3_Node000003_Node000004"><a xlink:title=" ">
<path fill="none" stroke="#63b8ff" d="M410.12,-100.5C420.97,-100.5 432.28,-100.5 443.51,-100.5"/>
<polygon fill="#63b8ff" stroke="#63b8ff" points="443.78,-104 453.78,-100.5 443.78,-97 443.78,-104"/>
</a>
</g>
</g>
<!-- Node6 -->
<g id="Node000006" class="node">
<title>Node6</title>
<g id="a_Node000006"><a xlink:href="classTankPressureControlerViewModel.html#a086f43f7fb616c93c0a0362b44909ae4" target="_top" xlink:title=" ">
<polygon fill="white" stroke="#666666" points="617,-67.5 466,-67.5 466,-37.5 617,-37.5 617,-67.5"/>
<text text-anchor="start" x="474" y="-55.5" font-family="Helvetica,sans-Serif" font-size="10.00">TankPressureControlerView</text>
<text text-anchor="middle" x="541.5" y="-44.5" font-family="Helvetica,sans-Serif" font-size="10.00">Model::sensorDataChanged</text>
</a>
</g>
</g>
<!-- Node5&#45;&gt;Node6 -->
<g id="edge5_Node000005_Node000006" class="edge">
<title>Node5&#45;&gt;Node6</title>
<g id="a_edge5_Node000005_Node000006"><a xlink:title=" ">
<path fill="none" stroke="#63b8ff" d="M418.29,-52.5C430.61,-52.5 443.32,-52.5 455.68,-52.5"/>
<polygon fill="#63b8ff" stroke="#63b8ff" points="455.97,-56 465.97,-52.5 455.97,-49 455.97,-56"/>
</a>
</g>
</g>
</g>
</svg>
