<?xml version="1.0" encoding="UTF-8" standalone="no"?>
<!DOCTYPE svg PUBLIC "-//W3C//DTD SVG 1.1//EN"
 "http://www.w3.org/Graphics/SVG/1.1/DTD/svg11.dtd">
<!-- Generated by graphviz version 2.43.0 (0)
 -->
<!-- Title: CountdownClock Pages: 1 -->
<svg width="661pt" height="1411pt"
 viewBox="0.00 0.00 660.50 1411.00" xmlns="http://www.w3.org/2000/svg" xmlns:xlink="http://www.w3.org/1999/xlink">
<g id="graph0" class="graph" transform="scale(1 1) rotate(0) translate(4 1407)">
<title>CountdownClock</title>
<!-- Node1 -->
<g id="Node000001" class="node">
<title>Node1</title>
<g id="a_Node000001"><a xlink:title=" ">
<polygon fill="#999999" stroke="transparent" points="161,-64 0,-64 0,0 161,0 161,-64"/>
<text text-anchor="start" x="40" y="-52" font-family="Helvetica,sans-Serif" font-size="10.00">CountdownClock</text>
<text text-anchor="start" x="7" y="-37" font-family="Helvetica,sans-Serif" font-size="10.00">&#45;</text>
<text text-anchor="start" x="17.5" y="-37" font-family="Helvetica,sans-Serif" font-size="10.00">m_clock</text>
<text text-anchor="start" x="4.5" y="-22" font-family="Helvetica,sans-Serif" font-size="10.00">+</text>
<text text-anchor="start" x="17.5" y="-22" font-family="Helvetica,sans-Serif" font-size="10.00">CountdownClock()</text>
<text text-anchor="start" x="4.5" y="-7" font-family="Helvetica,sans-Serif" font-size="10.00">+</text>
<text text-anchor="start" x="17.5" y="-7" font-family="Helvetica,sans-Serif" font-size="10.00">onTimeRemainingChanged()</text>
<polygon fill="#666666" stroke="#666666" points="0.5,-47 0.5,-47 161.5,-47 161.5,-47 0.5,-47"/>
<polygon fill="#666666" stroke="#666666" points="0.5,-32 0.5,-32 15.5,-32 15.5,-32 0.5,-32"/>
<polygon fill="#666666" stroke="#666666" points="15.5,-32 15.5,-32 161.5,-32 161.5,-32 15.5,-32"/>
<polygon fill="none" stroke="#666666" points="0,0 0,-64 161,-64 161,0 0,0"/>
</a>
</g>
</g>
<!-- Node2 -->
<g id="Node000002" class="node">
<title>Node2</title>
<g id="a_Node000002"><a xlink:title=" ">
<polygon fill="white" stroke="transparent" points="89,-182.5 40,-182.5 40,-133.5 89,-133.5 89,-182.5"/>
<text text-anchor="start" x="45.5" y="-170" font-family="Helvetica,sans-Serif" font-size="10.00">QFrame</text>
<text text-anchor="start" x="63" y="-155" font-family="Helvetica,sans-Serif" font-size="10.00"> </text>
<text text-anchor="start" x="63" y="-140" font-family="Helvetica,sans-Serif" font-size="10.00"> </text>
<polygon fill="#666666" stroke="#666666" points="40.5,-165 40.5,-165 89.5,-165 89.5,-165 40.5,-165"/>
<polygon fill="#666666" stroke="#666666" points="40.5,-150 40.5,-150 89.5,-150 89.5,-150 40.5,-150"/>
<polygon fill="none" stroke="#666666" points="40,-133.5 40,-182.5 89,-182.5 89,-133.5 40,-133.5"/>
</a>
</g>
</g>
<!-- Node2&#45;&gt;Node1 -->
<g id="edge1_Node000001_Node000002" class="edge">
<title>Node2&#45;&gt;Node1</title>
<g id="a_edge1_Node000001_Node000002"><a xlink:title=" ">
<path fill="none" stroke="#63b8ff" d="M68.84,-123.34C71.23,-104.86 74.17,-82.09 76.5,-64.04"/>
<polygon fill="none" stroke="#63b8ff" points="65.36,-123.02 67.55,-133.38 72.3,-123.91 65.36,-123.02"/>
</a>
</g>
</g>
<!-- Node3 -->
<g id="Node000003" class="node">
<title>Node3</title>
<g id="a_Node000003"><a xlink:href="classCountdownClockViewModel.html" target="_top" xlink:title=" ">
<polygon fill="white" stroke="transparent" points="272,-205 107,-205 107,-111 272,-111 272,-205"/>
<text text-anchor="start" x="122" y="-193" font-family="Helvetica,sans-Serif" font-size="10.00">CountdownClockViewModel</text>
<text text-anchor="start" x="114" y="-178" font-family="Helvetica,sans-Serif" font-size="10.00">&#45;</text>
<text text-anchor="start" x="124.5" y="-178" font-family="Helvetica,sans-Serif" font-size="10.00">m_timeRemaining</text>
<text text-anchor="start" x="111.5" y="-163" font-family="Helvetica,sans-Serif" font-size="10.00">+</text>
<text text-anchor="start" x="124.5" y="-163" font-family="Helvetica,sans-Serif" font-size="10.00">CountdownClockViewModel()</text>
<text text-anchor="start" x="111.5" y="-148" font-family="Helvetica,sans-Serif" font-size="10.00">+</text>
<text text-anchor="start" x="124.5" y="-148" font-family="Helvetica,sans-Serif" font-size="10.00">initialise()</text>
<text text-anchor="start" x="111.5" y="-133" font-family="Helvetica,sans-Serif" font-size="10.00">+</text>
<text text-anchor="start" x="124.5" y="-133" font-family="Helvetica,sans-Serif" font-size="10.00">timeRemaining()</text>
<text text-anchor="start" x="111.5" y="-118" font-family="Helvetica,sans-Serif" font-size="10.00">+</text>
<text text-anchor="start" x="124.5" y="-118" font-family="Helvetica,sans-Serif" font-size="10.00">onCountdownReceived()</text>
<polygon fill="#666666" stroke="#666666" points="107.5,-188 107.5,-188 272.5,-188 272.5,-188 107.5,-188"/>
<polygon fill="#666666" stroke="#666666" points="107.5,-173 107.5,-173 122.5,-173 122.5,-173 107.5,-173"/>
<polygon fill="#666666" stroke="#666666" points="122.5,-173 122.5,-173 272.5,-173 272.5,-173 122.5,-173"/>
<polygon fill="none" stroke="#666666" points="107,-111 107,-205 272,-205 272,-111 107,-111"/>
</a>
</g>
</g>
<!-- Node3&#45;&gt;Node1 -->
<g id="edge2_Node000001_Node000003" class="edge">
<title>Node3&#45;&gt;Node1</title>
<g id="a_edge2_Node000001_Node000003"><a xlink:title=" ">
<path fill="none" stroke="#63b8ff" d="M148.91,-110.83C138.12,-98.55 126.54,-85.38 116.04,-73.43"/>
<polygon fill="none" stroke="#63b8ff" points="115.81,-73.17 108.84,-71.3 107.89,-64.16 114.85,-66.02 115.81,-73.17"/>
</a>
</g>
<text text-anchor="middle" x="151.5" y="-85" font-family="Helvetica,sans-Serif" font-size="10.00" fill="grey"> &#45;m_vm</text>
</g>
<!-- Node4 -->
<g id="Node000004" class="node">
<title>Node4</title>
<g id="a_Node000004"><a xlink:title=" ">
<polygon fill="white" stroke="transparent" points="251.5,-1403 201.5,-1403 201.5,-1354 251.5,-1354 251.5,-1403"/>
<text text-anchor="start" x="206.5" y="-1390.5" font-family="Helvetica,sans-Serif" font-size="10.00">QObject</text>
<text text-anchor="start" x="224.5" y="-1375.5" font-family="Helvetica,sans-Serif" font-size="10.00"> </text>
<text text-anchor="start" x="224.5" y="-1360.5" font-family="Helvetica,sans-Serif" font-size="10.00"> </text>
<polygon fill="#666666" stroke="#666666" points="201.5,-1385.5 201.5,-1385.5 251.5,-1385.5 251.5,-1385.5 201.5,-1385.5"/>
<polygon fill="#666666" stroke="#666666" points="201.5,-1370.5 201.5,-1370.5 251.5,-1370.5 251.5,-1370.5 201.5,-1370.5"/>
<polygon fill="none" stroke="#666666" points="201.5,-1354 201.5,-1403 251.5,-1403 251.5,-1354 201.5,-1354"/>
</a>
</g>
</g>
<!-- Node4&#45;&gt;Node3 -->
<g id="edge3_Node000003_Node000004" class="edge">
<title>Node4&#45;&gt;Node3</title>
<g id="a_edge3_Node000003_Node000004"><a xlink:title=" ">
<path fill="none" stroke="#63b8ff" d="M193.86,-1351.49C171.36,-1330.45 145.5,-1298.62 145.5,-1263.5 145.5,-1263.5 145.5,-1263.5 145.5,-418 145.5,-342.74 163.78,-256.9 176.77,-205.39"/>
<polygon fill="none" stroke="#63b8ff" points="191.54,-1354.12 201.32,-1358.2 196.22,-1348.91 191.54,-1354.12"/>
</a>
</g>
</g>
<!-- Node5 -->
<g id="Node000005" class="node">
<title>Node5</title>
<g id="a_Node000005"><a xlink:href="classUdpChannel.html" target="_top" xlink:title="UDP communication channel between the microcontroller and the HMI.">
<polygon fill="white" stroke="transparent" points="430,-586 295,-586 295,-252 430,-252 430,-586"/>
<text text-anchor="start" x="333" y="-574" font-family="Helvetica,sans-Serif" font-size="10.00">UdpChannel</text>
<text text-anchor="start" x="302" y="-559" font-family="Helvetica,sans-Serif" font-size="10.00">&#45;</text>
<text text-anchor="start" x="312.5" y="-559" font-family="Helvetica,sans-Serif" font-size="10.00">m_udpWorkerThread</text>
<text text-anchor="start" x="302" y="-544" font-family="Helvetica,sans-Serif" font-size="10.00">&#45;</text>
<text text-anchor="start" x="312.5" y="-544" font-family="Helvetica,sans-Serif" font-size="10.00">m_udpSocket</text>
<text text-anchor="start" x="302" y="-529" font-family="Helvetica,sans-Serif" font-size="10.00">&#45;</text>
<text text-anchor="start" x="312.5" y="-529" font-family="Helvetica,sans-Serif" font-size="10.00">m_remoteAddr</text>
<text text-anchor="start" x="302" y="-514" font-family="Helvetica,sans-Serif" font-size="10.00">&#45;</text>
<text text-anchor="start" x="312.5" y="-514" font-family="Helvetica,sans-Serif" font-size="10.00">m_remotePort</text>
<text text-anchor="start" x="302" y="-499" font-family="Helvetica,sans-Serif" font-size="10.00">&#45;</text>
<text text-anchor="start" x="312.5" y="-499" font-family="Helvetica,sans-Serif" font-size="10.00">m_localAddr</text>
<text text-anchor="start" x="302" y="-484" font-family="Helvetica,sans-Serif" font-size="10.00">&#45;</text>
<text text-anchor="start" x="312.5" y="-484" font-family="Helvetica,sans-Serif" font-size="10.00">m_localPort</text>
<text text-anchor="start" x="302" y="-469" font-family="Helvetica,sans-Serif" font-size="10.00">&#45;</text>
<text text-anchor="start" x="312.5" y="-469" font-family="Helvetica,sans-Serif" font-size="10.00">m_lastRefresh</text>
<text text-anchor="start" x="302" y="-454" font-family="Helvetica,sans-Serif" font-size="10.00">&#45;</text>
<text text-anchor="start" x="312.5" y="-454" font-family="Helvetica,sans-Serif" font-size="10.00">m_periodOfRefresh</text>
<text text-anchor="start" x="302" y="-439" font-family="Helvetica,sans-Serif" font-size="10.00">&#45;</text>
<text text-anchor="start" x="312.5" y="-439" font-family="Helvetica,sans-Serif" font-size="10.00">m_running</text>
<text text-anchor="start" x="299.5" y="-424" font-family="Helvetica,sans-Serif" font-size="10.00">+</text>
<text text-anchor="start" x="312.5" y="-424" font-family="Helvetica,sans-Serif" font-size="10.00">UdpChannel()</text>
<text text-anchor="start" x="299.5" y="-409" font-family="Helvetica,sans-Serif" font-size="10.00">+</text>
<text text-anchor="start" x="312.5" y="-409" font-family="Helvetica,sans-Serif" font-size="10.00">~UdpChannel()</text>
<text text-anchor="start" x="299.5" y="-394" font-family="Helvetica,sans-Serif" font-size="10.00">+</text>
<text text-anchor="start" x="312.5" y="-394" font-family="Helvetica,sans-Serif" font-size="10.00">startEndpoint()</text>
<text text-anchor="start" x="299.5" y="-379" font-family="Helvetica,sans-Serif" font-size="10.00">+</text>
<text text-anchor="start" x="312.5" y="-379" font-family="Helvetica,sans-Serif" font-size="10.00">stopEndpoint()</text>
<text text-anchor="start" x="299.5" y="-364" font-family="Helvetica,sans-Serif" font-size="10.00">+</text>
<text text-anchor="start" x="312.5" y="-364" font-family="Helvetica,sans-Serif" font-size="10.00">sendData()</text>
<text text-anchor="start" x="299.5" y="-349" font-family="Helvetica,sans-Serif" font-size="10.00">+</text>
<text text-anchor="start" x="312.5" y="-349" font-family="Helvetica,sans-Serif" font-size="10.00">running()</text>
<text text-anchor="start" x="299.5" y="-334" font-family="Helvetica,sans-Serif" font-size="10.00">+</text>
<text text-anchor="start" x="312.5" y="-334" font-family="Helvetica,sans-Serif" font-size="10.00">remoteAddr()</text>
<text text-anchor="start" x="299.5" y="-319" font-family="Helvetica,sans-Serif" font-size="10.00">+</text>
<text text-anchor="start" x="312.5" y="-319" font-family="Helvetica,sans-Serif" font-size="10.00">remotePort()</text>
<text text-anchor="start" x="299.5" y="-304" font-family="Helvetica,sans-Serif" font-size="10.00">+</text>
<text text-anchor="start" x="312.5" y="-304" font-family="Helvetica,sans-Serif" font-size="10.00">localAddr()</text>
<text text-anchor="start" x="299.5" y="-289" font-family="Helvetica,sans-Serif" font-size="10.00">+</text>
<text text-anchor="start" x="312.5" y="-289" font-family="Helvetica,sans-Serif" font-size="10.00">localPort()</text>
<text text-anchor="start" x="312.5" y="-274" font-family="Helvetica,sans-Serif" font-size="10.00">and 6 more...</text>
<text text-anchor="start" x="299.5" y="-259" font-family="Helvetica,sans-Serif" font-size="10.00">+</text>
<text text-anchor="start" x="312.5" y="-259" font-family="Helvetica,sans-Serif" font-size="10.00">onDatagramReceived()</text>
<polygon fill="#666666" stroke="#666666" points="295.5,-569 295.5,-569 430.5,-569 430.5,-569 295.5,-569"/>
<polygon fill="#666666" stroke="#666666" points="295.5,-434 295.5,-434 310.5,-434 310.5,-434 295.5,-434"/>
<polygon fill="#666666" stroke="#666666" points="310.5,-434 310.5,-434 430.5,-434 430.5,-434 310.5,-434"/>
<polygon fill="none" stroke="#666666" points="295,-252 295,-586 430,-586 430,-252 295,-252"/>
</a>
</g>
</g>
<!-- Node4&#45;&gt;Node5 -->
<g id="edge5_Node000005_Node000004" class="edge">
<title>Node4&#45;&gt;Node5</title>
<g id="a_edge5_Node000005_Node000004"><a xlink:title=" ">
<path fill="none" stroke="#63b8ff" d="M206.92,-1344.62C195.57,-1322.48 183.5,-1292.19 183.5,-1263.5 183.5,-1263.5 183.5,-1263.5 183.5,-694 183.5,-609.34 244.14,-530.41 294.83,-479.22"/>
<polygon fill="none" stroke="#63b8ff" points="203.91,-1346.4 211.7,-1353.58 210.08,-1343.11 203.91,-1346.4"/>
</a>
</g>
</g>
<!-- Node6 -->
<g id="Node000006" class="node">
<title>Node6</title>
<g id="a_Node000006"><a xlink:href="classUdpWorker.html" target="_top" xlink:title="UDP socket worker running on a dedicated thread.">
<polygon fill="white" stroke="transparent" points="371.5,-757 211.5,-757 211.5,-633 371.5,-633 371.5,-757"/>
<text text-anchor="start" x="264.5" y="-745" font-family="Helvetica,sans-Serif" font-size="10.00">UdpWorker</text>
<text text-anchor="start" x="218" y="-730" font-family="Helvetica,sans-Serif" font-size="10.00">&#45;</text>
<text text-anchor="start" x="228.5" y="-730" font-family="Helvetica,sans-Serif" font-size="10.00">socket</text>
<text text-anchor="start" x="218" y="-715" font-family="Helvetica,sans-Serif" font-size="10.00">&#45;</text>
<text text-anchor="start" x="228.5" y="-715" font-family="Helvetica,sans-Serif" font-size="10.00">m_lastFrameSend</text>
<text text-anchor="start" x="215.5" y="-700" font-family="Helvetica,sans-Serif" font-size="10.00">+</text>
<text text-anchor="start" x="228.5" y="-700" font-family="Helvetica,sans-Serif" font-size="10.00">UdpWorker()</text>
<text text-anchor="start" x="215.5" y="-685" font-family="Helvetica,sans-Serif" font-size="10.00">+</text>
<text text-anchor="start" x="228.5" y="-685" font-family="Helvetica,sans-Serif" font-size="10.00">start()</text>
<text text-anchor="start" x="215.5" y="-670" font-family="Helvetica,sans-Serif" font-size="10.00">+</text>
<text text-anchor="start" x="228.5" y="-670" font-family="Helvetica,sans-Serif" font-size="10.00">stop()</text>
<text text-anchor="start" x="218" y="-655" font-family="Helvetica,sans-Serif" font-size="10.00">&#45;</text>
<text text-anchor="start" x="228.5" y="-655" font-family="Helvetica,sans-Serif" font-size="10.00">decimate()</text>
<text text-anchor="start" x="218" y="-640" font-family="Helvetica,sans-Serif" font-size="10.00">&#45;</text>
<text text-anchor="start" x="228.5" y="-640" font-family="Helvetica,sans-Serif" font-size="10.00">processPendingDatagrams()</text>
<polygon fill="#666666" stroke="#666666" points="211.5,-740 211.5,-740 371.5,-740 371.5,-740 211.5,-740"/>
<polygon fill="#666666" stroke="#666666" points="211.5,-710 211.5,-710 226.5,-710 226.5,-710 211.5,-710"/>
<polygon fill="#666666" stroke="#666666" points="226.5,-710 226.5,-710 371.5,-710 371.5,-710 226.5,-710"/>
<polygon fill="none" stroke="#666666" points="211.5,-633 211.5,-757 371.5,-757 371.5,-633 211.5,-633"/>
</a>
</g>
</g>
<!-- Node4&#45;&gt;Node6 -->
<g id="edge7_Node000006_Node000004" class="edge">
<title>Node4&#45;&gt;Node6</title>
<g id="a_edge7_Node000006_Node000004"><a xlink:title=" ">
<path fill="none" stroke="#63b8ff" d="M227.54,-1343.89C230.6,-1255.23 241.21,-1007.85 269.5,-804 271.62,-788.74 274.58,-772.4 277.64,-757.17"/>
<polygon fill="none" stroke="#63b8ff" points="224.04,-1343.79 227.2,-1353.9 231.04,-1344.02 224.04,-1343.79"/>
</a>
</g>
</g>
<!-- Node8 -->
<g id="Node000008" class="node">
<title>Node8</title>
<g id="a_Node000008"><a xlink:href="classLogger.html" target="_top" xlink:title=" ">
<polygon fill="white" stroke="transparent" points="357.5,-1317 289.5,-1317 289.5,-1208 357.5,-1208 357.5,-1317"/>
<text text-anchor="start" x="306.5" y="-1304.5" font-family="Helvetica,sans-Serif" font-size="10.00">Logger</text>
<text text-anchor="start" x="321.5" y="-1289.5" font-family="Helvetica,sans-Serif" font-size="10.00"> </text>
<text text-anchor="start" x="293.5" y="-1274.5" font-family="Helvetica,sans-Serif" font-size="10.00">+</text>
<text text-anchor="start" x="306.5" y="-1274.5" font-family="Helvetica,sans-Serif" font-size="10.00">Logger()</text>
<text text-anchor="start" x="293.5" y="-1259.5" font-family="Helvetica,sans-Serif" font-size="10.00">+</text>
<text text-anchor="start" x="306.5" y="-1259.5" font-family="Helvetica,sans-Serif" font-size="10.00">log()</text>
<text text-anchor="start" x="293.5" y="-1244.5" font-family="Helvetica,sans-Serif" font-size="10.00">+</text>
<text text-anchor="start" x="306.5" y="-1244.5" font-family="Helvetica,sans-Serif" font-size="10.00">debug()</text>
<text text-anchor="start" x="293.5" y="-1229.5" font-family="Helvetica,sans-Serif" font-size="10.00">+</text>
<text text-anchor="start" x="306.5" y="-1229.5" font-family="Helvetica,sans-Serif" font-size="10.00">error()</text>
<text text-anchor="start" x="293.5" y="-1214.5" font-family="Helvetica,sans-Serif" font-size="10.00">+</text>
<text text-anchor="start" x="306.5" y="-1214.5" font-family="Helvetica,sans-Serif" font-size="10.00">warning()</text>
<polygon fill="#666666" stroke="#666666" points="289.5,-1299.5 289.5,-1299.5 357.5,-1299.5 357.5,-1299.5 289.5,-1299.5"/>
<polygon fill="#666666" stroke="#666666" points="289.5,-1284.5 289.5,-1284.5 357.5,-1284.5 357.5,-1284.5 289.5,-1284.5"/>
<polygon fill="none" stroke="#666666" points="289.5,-1208 289.5,-1317 357.5,-1317 357.5,-1208 289.5,-1208"/>
</a>
</g>
</g>
<!-- Node4&#45;&gt;Node8 -->
<g id="edge10_Node000008_Node000004" class="edge">
<title>Node4&#45;&gt;Node8</title>
<g id="a_edge10_Node000008_Node000004"><a xlink:title=" ">
<path fill="none" stroke="#63b8ff" d="M253.26,-1346.05C264.4,-1332.96 277.47,-1317.6 289.29,-1303.7"/>
<polygon fill="none" stroke="#63b8ff" points="250.41,-1343.99 246.6,-1353.88 255.74,-1348.53 250.41,-1343.99"/>
</a>
</g>
</g>
<!-- Node9 -->
<g id="Node000009" class="node">
<title>Node9</title>
<g id="a_Node000009"><a xlink:href="classFileSystem.html" target="_top" xlink:title=" ">
<polygon fill="white" stroke="transparent" points="622.5,-1190 530.5,-1190 530.5,-1111 622.5,-1111 622.5,-1190"/>
<text text-anchor="start" x="549" y="-1177.5" font-family="Helvetica,sans-Serif" font-size="10.00">FileSystem</text>
<text text-anchor="start" x="537" y="-1162.5" font-family="Helvetica,sans-Serif" font-size="10.00">&#45;</text>
<text text-anchor="start" x="547.5" y="-1162.5" font-family="Helvetica,sans-Serif" font-size="10.00">m_pathList</text>
<text text-anchor="start" x="534.5" y="-1147.5" font-family="Helvetica,sans-Serif" font-size="10.00">+</text>
<text text-anchor="start" x="547.5" y="-1147.5" font-family="Helvetica,sans-Serif" font-size="10.00">FileSystem()</text>
<text text-anchor="start" x="534.5" y="-1132.5" font-family="Helvetica,sans-Serif" font-size="10.00">+</text>
<text text-anchor="start" x="547.5" y="-1132.5" font-family="Helvetica,sans-Serif" font-size="10.00">addDirectory()</text>
<text text-anchor="start" x="534.5" y="-1117.5" font-family="Helvetica,sans-Serif" font-size="10.00">+</text>
<text text-anchor="start" x="547.5" y="-1117.5" font-family="Helvetica,sans-Serif" font-size="10.00">getDirectory()</text>
<polygon fill="#666666" stroke="#666666" points="530.5,-1172.5 530.5,-1172.5 622.5,-1172.5 622.5,-1172.5 530.5,-1172.5"/>
<polygon fill="#666666" stroke="#666666" points="530.5,-1157.5 530.5,-1157.5 545.5,-1157.5 545.5,-1157.5 530.5,-1157.5"/>
<polygon fill="#666666" stroke="#666666" points="545.5,-1157.5 545.5,-1157.5 622.5,-1157.5 622.5,-1157.5 545.5,-1157.5"/>
<polygon fill="none" stroke="#666666" points="530.5,-1111 530.5,-1190 622.5,-1190 622.5,-1111 530.5,-1111"/>
</a>
</g>
</g>
<!-- Node4&#45;&gt;Node9 -->
<g id="edge13_Node000009_Node000004" class="edge">
<title>Node4&#45;&gt;Node9</title>
<g id="a_edge13_Node000009_Node000004"><a xlink:title=" ">
<path fill="none" stroke="#63b8ff" d="M261.44,-1365.3C290.53,-1354.47 332.53,-1337.26 366.5,-1317 428.9,-1279.79 493.49,-1226.23 534.27,-1190.21"/>
<polygon fill="none" stroke="#63b8ff" points="259.91,-1362.13 251.73,-1368.86 262.32,-1368.71 259.91,-1362.13"/>
</a>
</g>
</g>
<!-- Node5&#45;&gt;Node3 -->
<g id="edge4_Node000003_Node000005" class="edge">
<title>Node5&#45;&gt;Node3</title>
<g id="a_edge4_Node000003_Node000005"><a xlink:title=" ">
<path fill="none" stroke="#63b8ff" d="M294.87,-316.75C271.81,-282.23 246.87,-244.89 227.05,-215.21"/>
<polygon fill="none" stroke="#63b8ff" points="226.93,-215.03 220.27,-212.26 220.26,-205.05 226.92,-207.82 226.93,-215.03"/>
</a>
</g>
<text text-anchor="middle" x="276.5" y="-226" font-family="Helvetica,sans-Serif" font-size="10.00" fill="grey"> &#45;m_udpChannel</text>
</g>
<!-- Node6&#45;&gt;Node5 -->
<g id="edge6_Node000005_Node000006" class="edge">
<title>Node6&#45;&gt;Node5</title>
<g id="a_edge6_Node000005_Node000006"><a xlink:title=" ">
<path fill="none" stroke="#63b8ff" d="M307.35,-632.85C310.15,-622.03 313.19,-610.3 316.36,-598.08"/>
<polygon fill="none" stroke="#63b8ff" points="316.42,-597.85 314.05,-591.03 319.43,-586.23 321.79,-593.04 316.42,-597.85"/>
</a>
</g>
<text text-anchor="middle" x="351.5" y="-607" font-family="Helvetica,sans-Serif" font-size="10.00" fill="grey"> &#45;m_udpWorker</text>
</g>
<!-- Node7 -->
<g id="Node000007" class="node">
<title>Node7</title>
<g id="a_Node000007"><a xlink:href="classUdpLogger.html" target="_top" xlink:title="High&#45;frequency binary logger for UDP telemetry frames.">
<polygon fill="white" stroke="transparent" points="477,-1093 344,-1093 344,-804 477,-804 477,-1093"/>
<text text-anchor="start" x="384.5" y="-1080.5" font-family="Helvetica,sans-Serif" font-size="10.00">UdpLogger</text>
<text text-anchor="start" x="351" y="-1065.5" font-family="Helvetica,sans-Serif" font-size="10.00">&#45;</text>
<text text-anchor="start" x="361.5" y="-1065.5" font-family="Helvetica,sans-Serif" font-size="10.00">m_writer</text>
<text text-anchor="start" x="351" y="-1050.5" font-family="Helvetica,sans-Serif" font-size="10.00">&#45;</text>
<text text-anchor="start" x="361.5" y="-1050.5" font-family="Helvetica,sans-Serif" font-size="10.00">m_ringBuffer</text>
<text text-anchor="start" x="351" y="-1035.5" font-family="Helvetica,sans-Serif" font-size="10.00">&#45;</text>
<text text-anchor="start" x="361.5" y="-1035.5" font-family="Helvetica,sans-Serif" font-size="10.00">m_running</text>
<text text-anchor="start" x="351" y="-1020.5" font-family="Helvetica,sans-Serif" font-size="10.00">&#45;</text>
<text text-anchor="start" x="361.5" y="-1020.5" font-family="Helvetica,sans-Serif" font-size="10.00">m_writerThread</text>
<text text-anchor="start" x="351" y="-1005.5" font-family="Helvetica,sans-Serif" font-size="10.00">&#45;</text>
<text text-anchor="start" x="361.5" y="-1005.5" font-family="Helvetica,sans-Serif" font-size="10.00">m_logDirPath</text>
<text text-anchor="start" x="351" y="-990.5" font-family="Helvetica,sans-Serif" font-size="10.00">&#45;</text>
<text text-anchor="start" x="361.5" y="-990.5" font-family="Helvetica,sans-Serif" font-size="10.00">MAX_FRAME_SIZE</text>
<text text-anchor="start" x="348.5" y="-975.5" font-family="Helvetica,sans-Serif" font-size="10.00">+</text>
<text text-anchor="start" x="361.5" y="-975.5" font-family="Helvetica,sans-Serif" font-size="10.00">UdpLogger()</text>
<text text-anchor="start" x="348.5" y="-960.5" font-family="Helvetica,sans-Serif" font-size="10.00">+</text>
<text text-anchor="start" x="361.5" y="-960.5" font-family="Helvetica,sans-Serif" font-size="10.00">~UdpLogger()</text>
<text text-anchor="start" x="348.5" y="-945.5" font-family="Helvetica,sans-Serif" font-size="10.00">+</text>
<text text-anchor="start" x="361.5" y="-945.5" font-family="Helvetica,sans-Serif" font-size="10.00">UdpLogger()</text>
<text text-anchor="start" x="348.5" y="-930.5" font-family="Helvetica,sans-Serif" font-size="10.00">+</text>
<text text-anchor="start" x="361.5" y="-930.5" font-family="Helvetica,sans-Serif" font-size="10.00">operator=()</text>
<text text-anchor="start" x="348.5" y="-915.5" font-family="Helvetica,sans-Serif" font-size="10.00">+</text>
<text text-anchor="start" x="361.5" y="-915.5" font-family="Helvetica,sans-Serif" font-size="10.00">UdpLogger()</text>
<text text-anchor="start" x="348.5" y="-900.5" font-family="Helvetica,sans-Serif" font-size="10.00">+</text>
<text text-anchor="start" x="361.5" y="-900.5" font-family="Helvetica,sans-Serif" font-size="10.00">operator=()</text>
<text text-anchor="start" x="348.5" y="-885.5" font-family="Helvetica,sans-Serif" font-size="10.00">+</text>
<text text-anchor="start" x="361.5" y="-885.5" font-family="Helvetica,sans-Serif" font-size="10.00">log()</text>
<text text-anchor="start" x="348.5" y="-870.5" font-family="Helvetica,sans-Serif" font-size="10.00">+</text>
<text text-anchor="start" x="361.5" y="-870.5" font-family="Helvetica,sans-Serif" font-size="10.00">cyclesCount()</text>
<text text-anchor="start" x="348.5" y="-855.5" font-family="Helvetica,sans-Serif" font-size="10.00">+</text>
<text text-anchor="start" x="361.5" y="-855.5" font-family="Helvetica,sans-Serif" font-size="10.00">droppedFramesCount()</text>
<text text-anchor="start" x="348.5" y="-840.5" font-family="Helvetica,sans-Serif" font-size="10.00">+</text>
<text text-anchor="start" x="361.5" y="-840.5" font-family="Helvetica,sans-Serif" font-size="10.00">start()</text>
<text text-anchor="start" x="348.5" y="-825.5" font-family="Helvetica,sans-Serif" font-size="10.00">+</text>
<text text-anchor="start" x="361.5" y="-825.5" font-family="Helvetica,sans-Serif" font-size="10.00">stop()</text>
<text text-anchor="start" x="351" y="-810.5" font-family="Helvetica,sans-Serif" font-size="10.00">&#45;</text>
<text text-anchor="start" x="361.5" y="-810.5" font-family="Helvetica,sans-Serif" font-size="10.00">writerLoop()</text>
<polygon fill="#666666" stroke="#666666" points="344.5,-1075.5 344.5,-1075.5 477.5,-1075.5 477.5,-1075.5 344.5,-1075.5"/>
<polygon fill="#666666" stroke="#666666" points="344.5,-985.5 344.5,-985.5 359.5,-985.5 359.5,-985.5 344.5,-985.5"/>
<polygon fill="#666666" stroke="#666666" points="359.5,-985.5 359.5,-985.5 477.5,-985.5 477.5,-985.5 359.5,-985.5"/>
<polygon fill="none" stroke="#666666" points="344,-804 344,-1093 477,-1093 477,-804 344,-804"/>
</a>
</g>
</g>
<!-- Node7&#45;&gt;Node5 -->
<g id="edge15_Node000005_Node000007" class="edge">
<title>Node7&#45;&gt;Node5</title>
<g id="a_edge15_Node000005_Node000007"><a xlink:title=" ">
<path fill="none" stroke="#63b8ff" d="M406.48,-803.91C403.84,-742.25 399.53,-669.46 392.5,-604 392.31,-602.19 392.11,-600.37 391.9,-598.54"/>
<polygon fill="none" stroke="#63b8ff" points="391.87,-598.3 387.19,-592.81 390.46,-586.38 395.14,-591.87 391.87,-598.3"/>
</a>
</g>
<text text-anchor="middle" x="441" y="-692.5" font-family="Helvetica,sans-Serif" font-size="10.00" fill="grey"> &#45;m_udpLogger</text>
</g>
<!-- Node7&#45;&gt;Node6 -->
<g id="edge8_Node000006_Node000007" class="edge">
<title>Node7&#45;&gt;Node6</title>
<g id="a_edge8_Node000006_Node000007"><a xlink:title=" ">
<path fill="none" stroke="#63b8ff" d="M344,-830.9C336.37,-815.97 329.01,-800.75 322.5,-786 320.02,-780.38 317.61,-774.49 315.3,-768.54"/>
<polygon fill="none" stroke="#63b8ff" points="315.2,-768.28 309.35,-764.07 310.98,-757.05 316.83,-761.26 315.2,-768.28"/>
</a>
</g>
<text text-anchor="middle" x="358" y="-778" font-family="Helvetica,sans-Serif" font-size="10.00" fill="grey"> &#45;m_udplogger</text>
</g>
<!-- Node8&#45;&gt;Node5 -->
<g id="edge14_Node000005_Node000008" class="edge">
<title>Node8&#45;&gt;Node5</title>
<g id="a_edge14_Node000005_Node000008"><a xlink:title=" ">
<path fill="none" stroke="#63b8ff" d="M357.58,-1211.87C359.17,-1210.5 360.81,-1209.2 362.5,-1208 384.84,-1192.1 399.54,-1206.41 421.5,-1190 462.87,-1159.08 470.65,-1142.47 485.5,-1093 544.28,-897.18 535.33,-830.24 481.5,-633 471.68,-597.02 454.54,-560.59 436.27,-528.28"/>
<polygon fill="none" stroke="#63b8ff" points="436.04,-527.89 429.58,-524.69 430.04,-517.49 436.51,-520.69 436.04,-527.89"/>
</a>
</g>
<text text-anchor="middle" x="545" y="-778" font-family="Helvetica,sans-Serif" font-size="10.00" fill="grey"> &#45;m_logger</text>
</g>
<!-- Node8&#45;&gt;Node6 -->
<g id="edge11_Node000006_Node000008" class="edge">
<title>Node8&#45;&gt;Node6</title>
<g id="a_edge11_Node000006_Node000008"><a xlink:title=" ">
<path fill="none" stroke="#63b8ff" d="M306.57,-1207.87C297.11,-1175.07 286.29,-1132.05 281.5,-1093 265.85,-965.51 275.57,-932.31 281.5,-804 282.02,-792.69 282.85,-780.74 283.81,-769.07"/>
<polygon fill="none" stroke="#63b8ff" points="283.82,-769 280.35,-762.68 284.86,-757.05 288.32,-763.37 283.82,-769"/>
</a>
</g>
<text text-anchor="middle" x="308" y="-946" font-family="Helvetica,sans-Serif" font-size="10.00" fill="grey"> &#45;m_logger</text>
</g>
<!-- Node8&#45;&gt;Node7 -->
<g id="edge9_Node000007_Node000008" class="edge">
<title>Node8&#45;&gt;Node7</title>
<g id="a_edge9_Node000007_Node000008"><a xlink:title=" ">
<path fill="none" stroke="#63b8ff" d="M338.46,-1207.87C346.46,-1179.17 356.76,-1142.21 367.07,-1105.27"/>
<polygon fill="none" stroke="#63b8ff" points="367.18,-1104.84 364.94,-1097.99 370.41,-1093.28 372.65,-1100.14 367.18,-1104.84"/>
</a>
</g>
<text text-anchor="middle" x="391" y="-1148" font-family="Helvetica,sans-Serif" font-size="10.00" fill="grey"> &#45;m_logger</text>
</g>
<!-- Node9&#45;&gt;Node5 -->
<g id="edge12_Node000005_Node000009" class="edge">
<title>Node9&#45;&gt;Node5</title>
<g id="a_edge12_Node000005_Node000009"><a xlink:title=" ">
<path fill="none" stroke="#63b8ff" d="M581.87,-1110.81C592.92,-1017.63 610.36,-775.79 522.5,-604 501.27,-562.49 468.69,-522.63 438.45,-490.7"/>
<polygon fill="none" stroke="#63b8ff" points="438.32,-490.56 431.28,-489 430,-481.91 437.04,-483.46 438.32,-490.56"/>
</a>
</g>
<text text-anchor="middle" x="615.5" y="-778" font-family="Helvetica,sans-Serif" font-size="10.00" fill="grey"> &#45;m_fileSystem</text>
</g>
</g>
</svg>
