<?xml version="1.0" encoding="UTF-8" standalone="no"?>
<!DOCTYPE svg PUBLIC "-//W3C//DTD SVG 1.1//EN"
 "http://www.w3.org/Graphics/SVG/1.1/DTD/svg11.dtd">
<!-- Generated by graphviz version 2.43.0 (0)
 -->
<!-- Title: Writer::logFrame Pages: 1 -->
<svg width="540pt" height="46pt"
 viewBox="0.00 0.00 540.00 46.00" xmlns="http://www.w3.org/2000/svg" xmlns:xlink="http://www.w3.org/1999/xlink">
<g id="graph0" class="graph" transform="scale(1 1) rotate(0) translate(4 42)">
<title>Writer::logFrame</title>
<!-- Node1 -->
<g id="Node000001" class="node">
<title>Node1</title>
<g id="a_Node000001"><a xlink:title=" ">
<polygon fill="#999999" stroke="#666666" points="98,-38 0,-38 0,-19 98,-19 98,-38"/>
<text text-anchor="middle" x="49" y="-26" font-family="Helvetica,sans-Serif" font-size="10.00">Writer::logFrame</text>
</a>
</g>
</g>
<!-- Node2 -->
<g id="Node000002" class="node">
<title>Node2</title>
<g id="a_Node000002"><a xlink:href="classLogger.html#a6c8bf2fc8c89d76b7f4fe25d97ad4bf3" target="_top" xlink:title="Log the messages as an error and send a signal to display it.">
<polygon fill="white" stroke="#666666" points="361,-38 282,-38 282,-19 361,-19 361,-38"/>
<text text-anchor="middle" x="321.5" y="-26" font-family="Helvetica,sans-Serif" font-size="10.00">Logger::error</text>
</a>
</g>
</g>
<!-- Node1&#45;&gt;Node2 -->
<g id="edge1_Node000001_Node000002" class="edge">
<title>Node1&#45;&gt;Node2</title>
<g id="a_edge1_Node000001_Node000002"><a xlink:title=" ">
<path fill="none" stroke="#63b8ff" d="M98.05,-28.5C146.95,-28.5 222.36,-28.5 271.57,-28.5"/>
<polygon fill="#63b8ff" stroke="#63b8ff" points="271.66,-32 281.66,-28.5 271.66,-25 271.66,-32"/>
</a>
</g>
</g>
<!-- Node4 -->
<g id="Node000004" class="node">
<title>Node4</title>
<g id="a_Node000004"><a xlink:href="classWriter.html#a8370450b521293c9b754c234d0e46a73" target="_top" xlink:title=" ">
<polygon fill="white" stroke="#666666" points="246,-19 134,-19 134,0 246,0 246,-19"/>
<text text-anchor="middle" x="190" y="-7" font-family="Helvetica,sans-Serif" font-size="10.00">Writer::flushFrames</text>
</a>
</g>
</g>
<!-- Node1&#45;&gt;Node4 -->
<g id="edge3_Node000001_Node000004" class="edge">
<title>Node1&#45;&gt;Node4</title>
<g id="a_edge3_Node000001_Node000004"><a xlink:title=" ">
<path fill="none" stroke="#63b8ff" d="M98.23,-21.91C106.45,-20.78 115.12,-19.6 123.7,-18.43"/>
<polygon fill="#63b8ff" stroke="#63b8ff" points="124.28,-21.88 133.71,-17.06 123.33,-14.94 124.28,-21.88"/>
</a>
</g>
</g>
<!-- Node3 -->
<g id="Node000003" class="node">
<title>Node3</title>
<g id="a_Node000003"><a xlink:href="classLogger.html#a02453fd0695fe06c495de714399e8bf7" target="_top" xlink:title="Signal that send the message to the rest of the app.">
<polygon fill="white" stroke="#666666" points="532,-38 397,-38 397,-19 532,-19 532,-38"/>
<text text-anchor="middle" x="464.5" y="-26" font-family="Helvetica,sans-Serif" font-size="10.00">Logger::messageLogged</text>
</a>
</g>
</g>
<!-- Node2&#45;&gt;Node3 -->
<g id="edge2_Node000002_Node000003" class="edge">
<title>Node2&#45;&gt;Node3</title>
<g id="a_edge2_Node000002_Node000003"><a xlink:title=" ">
<path fill="none" stroke="#63b8ff" d="M361.03,-28.5C369.09,-28.5 377.85,-28.5 386.75,-28.5"/>
<polygon fill="#63b8ff" stroke="#63b8ff" points="386.82,-32 396.82,-28.5 386.82,-25 386.82,-32"/>
</a>
</g>
</g>
<!-- Node4&#45;&gt;Node2 -->
<g id="edge4_Node000004_Node000002" class="edge">
<title>Node4&#45;&gt;Node2</title>
<g id="a_edge4_Node000004_Node000002"><a xlink:title=" ">
<path fill="none" stroke="#63b8ff" d="M246.3,-17.61C254.8,-18.86 263.53,-20.14 271.87,-21.37"/>
<polygon fill="#63b8ff" stroke="#63b8ff" points="271.42,-24.84 281.82,-22.82 272.43,-17.91 271.42,-24.84"/>
</a>
</g>
</g>
</g>
</svg>
