<?xml version="1.0" encoding="UTF-8" standalone="no"?>
<!DOCTYPE svg PUBLIC "-//W3C//DTD SVG 1.1//EN"
 "http://www.w3.org/Graphics/SVG/1.1/DTD/svg11.dtd">
<!-- Generated by graphviz version 2.43.0 (0)
 -->
<!-- Title: FileSystem::getDirectory Pages: 1 -->
<svg width="726pt" height="210pt"
 viewBox="0.00 0.00 726.00 209.50" xmlns="http://www.w3.org/2000/svg" xmlns:xlink="http://www.w3.org/1999/xlink">
<g id="graph0" class="graph" transform="scale(1 1) rotate(0) translate(4 205.5)">
<title>FileSystem::getDirectory</title>
<!-- Node1 -->
<g id="Node000001" class="node">
<title>Node1</title>
<g id="a_Node000001"><a xlink:title=" ">
<polygon fill="#999999" stroke="#666666" points="718,-110 581,-110 581,-91 718,-91 718,-110"/>
<text text-anchor="middle" x="649.5" y="-98" font-family="Helvetica,sans-Serif" font-size="10.00">FileSystem::getDirectory</text>
</a>
</g>
</g>
<!-- Node2 -->
<g id="Node000002" class="node">
<title>Node2</title>
<g id="a_Node000002"><a xlink:href="classExportMenuViewModel.html#a7623949a64e9609b02ae9a45ba81427d" target="_top" xlink:title=" ">
<polygon fill="white" stroke="#666666" points="535.5,-201.5 406.5,-201.5 406.5,-171.5 535.5,-171.5 535.5,-201.5"/>
<text text-anchor="start" x="414.5" y="-189.5" font-family="Helvetica,sans-Serif" font-size="10.00">ExportMenuViewModel</text>
<text text-anchor="middle" x="471" y="-178.5" font-family="Helvetica,sans-Serif" font-size="10.00">::getFileList</text>
</a>
</g>
</g>
<!-- Node1&#45;&gt;Node2 -->
<g id="edge1_Node000001_Node000002" class="edge">
<title>Node1&#45;&gt;Node2</title>
<g id="a_edge1_Node000001_Node000002"><a xlink:title=" ">
<path fill="none" stroke="#63b8ff" d="M626.35,-115.75C605.91,-129.33 574.37,-149.08 545,-162.5 537.96,-165.72 530.37,-168.71 522.83,-171.41"/>
<polygon fill="#63b8ff" stroke="#63b8ff" points="628.3,-118.65 634.65,-110.17 624.4,-112.84 628.3,-118.65"/>
</a>
</g>
</g>
<!-- Node5 -->
<g id="Node000005" class="node">
<title>Node5</title>
<g id="a_Node000005"><a xlink:href="classMainWindow.html#a384250eafddcd3cc380d59178551f0ab" target="_top" xlink:title=" ">
<polygon fill="white" stroke="#666666" points="545,-153 397,-153 397,-134 545,-134 545,-153"/>
<text text-anchor="middle" x="471" y="-141" font-family="Helvetica,sans-Serif" font-size="10.00">MainWindow::MainWindow</text>
</a>
</g>
</g>
<!-- Node1&#45;&gt;Node5 -->
<g id="edge4_Node000001_Node000005" class="edge">
<title>Node1&#45;&gt;Node5</title>
<g id="a_edge4_Node000001_Node000005"><a xlink:title=" ">
<path fill="none" stroke="#63b8ff" d="M599.38,-112.47C571.5,-119.26 537.09,-127.64 511.06,-133.98"/>
<polygon fill="#63b8ff" stroke="#63b8ff" points="600.44,-115.81 609.33,-110.04 598.78,-109.01 600.44,-115.81"/>
</a>
</g>
</g>
<!-- Node6 -->
<g id="Node000006" class="node">
<title>Node6</title>
<g id="a_Node000006"><a xlink:href="classExportMenuViewModel.html#a3384a193ce5445b24d08bb6b6fed94fb" target="_top" xlink:title=" ">
<polygon fill="white" stroke="#666666" points="535.5,-115.5 406.5,-115.5 406.5,-85.5 535.5,-85.5 535.5,-115.5"/>
<text text-anchor="start" x="414.5" y="-103.5" font-family="Helvetica,sans-Serif" font-size="10.00">ExportMenuViewModel</text>
<text text-anchor="middle" x="471" y="-92.5" font-family="Helvetica,sans-Serif" font-size="10.00">::selectPath</text>
</a>
</g>
</g>
<!-- Node1&#45;&gt;Node6 -->
<g id="edge5_Node000001_Node000006" class="edge">
<title>Node1&#45;&gt;Node6</title>
<g id="a_edge5_Node000001_Node000006"><a xlink:title=" ">
<path fill="none" stroke="#63b8ff" d="M570.62,-100.5C558.97,-100.5 547.09,-100.5 535.78,-100.5"/>
<polygon fill="#63b8ff" stroke="#63b8ff" points="570.77,-104 580.77,-100.5 570.77,-97 570.77,-104"/>
</a>
</g>
</g>
<!-- Node8 -->
<g id="Node000008" class="node">
<title>Node8</title>
<g id="a_Node000008"><a xlink:href="classTestLauncherViewModel.html#aabbd2b3afa4ec7444c902cddf150f0f9" target="_top" xlink:title=" ">
<polygon fill="white" stroke="#666666" points="541,-67.5 401,-67.5 401,-37.5 541,-37.5 541,-67.5"/>
<text text-anchor="start" x="409" y="-55.5" font-family="Helvetica,sans-Serif" font-size="10.00">TestLauncherViewModel</text>
<text text-anchor="middle" x="471" y="-44.5" font-family="Helvetica,sans-Serif" font-size="10.00">::TestLauncherViewModel</text>
</a>
</g>
</g>
<!-- Node1&#45;&gt;Node8 -->
<g id="edge8_Node000001_Node000008" class="edge">
<title>Node1&#45;&gt;Node8</title>
<g id="a_edge8_Node000001_Node000008"><a xlink:title=" ">
<path fill="none" stroke="#63b8ff" d="M603.31,-88.21C580.18,-81.92 551.82,-74.21 527.39,-67.56"/>
<polygon fill="#63b8ff" stroke="#63b8ff" points="602.64,-91.65 613.21,-90.9 604.48,-84.9 602.64,-91.65"/>
</a>
</g>
</g>
<!-- Node9 -->
<g id="Node000009" class="node">
<title>Node9</title>
<g id="a_Node000009"><a xlink:href="classUdpChannel.html#a1d69213eb88b5305686f1ef9ade76e04" target="_top" xlink:title=" ">
<polygon fill="white" stroke="#666666" points="541.5,-19 400.5,-19 400.5,0 541.5,0 541.5,-19"/>
<text text-anchor="middle" x="471" y="-7" font-family="Helvetica,sans-Serif" font-size="10.00">UdpChannel::UdpChannel</text>
</a>
</g>
</g>
<!-- Node1&#45;&gt;Node9 -->
<g id="edge9_Node000001_Node000009" class="edge">
<title>Node1&#45;&gt;Node9</title>
<g id="a_edge9_Node000001_Node000009"><a xlink:title=" ">
<path fill="none" stroke="#63b8ff" d="M629.6,-84.25C609.76,-67.96 577.05,-43.24 545,-28.5 536.79,-24.72 527.7,-21.6 518.81,-19.06"/>
<polygon fill="#63b8ff" stroke="#63b8ff" points="627.6,-87.14 637.52,-90.86 632.09,-81.76 627.6,-87.14"/>
</a>
</g>
</g>
<!-- Node3 -->
<g id="Node000003" class="node">
<title>Node3</title>
<g id="a_Node000003"><a xlink:href="classExportMenu.html#a1829a47dc07068cc9eb6067ca63eb97a" target="_top" xlink:title=" ">
<polygon fill="white" stroke="#666666" points="361,-185 176,-185 176,-166 361,-166 361,-185"/>
<text text-anchor="middle" x="268.5" y="-173" font-family="Helvetica,sans-Serif" font-size="10.00">ExportMenu::onMenuAboutToShow</text>
</a>
</g>
</g>
<!-- Node2&#45;&gt;Node3 -->
<g id="edge2_Node000002_Node000003" class="edge">
<title>Node2&#45;&gt;Node3</title>
<g id="a_edge2_Node000002_Node000003"><a xlink:title=" ">
<path fill="none" stroke="#63b8ff" d="M396.03,-182.44C384.71,-181.82 372.9,-181.17 361.24,-180.53"/>
<polygon fill="#63b8ff" stroke="#63b8ff" points="396.11,-185.95 406.29,-183 396.49,-178.96 396.11,-185.95"/>
</a>
</g>
</g>
<!-- Node4 -->
<g id="Node000004" class="node">
<title>Node4</title>
<g id="a_Node000004"><a xlink:href="classExportMenu.html#aad47eee6721b4f7a152a093c99672ac9" target="_top" xlink:title=" ">
<polygon fill="white" stroke="#666666" points="140,-152 0,-152 0,-133 140,-133 140,-152"/>
<text text-anchor="middle" x="70" y="-140" font-family="Helvetica,sans-Serif" font-size="10.00">ExportMenu::ExportMenu</text>
</a>
</g>
</g>
<!-- Node3&#45;&gt;Node4 -->
<g id="edge3_Node000003_Node000004" class="edge">
<title>Node3&#45;&gt;Node4</title>
<g id="a_edge3_Node000003_Node000004"><a xlink:title=" ">
<path fill="none" stroke="#63b8ff" d="M200.94,-164.32C177.2,-160.34 150.7,-155.88 127.85,-152.05"/>
<polygon fill="#63b8ff" stroke="#63b8ff" points="200.49,-167.79 210.93,-166 201.65,-160.89 200.49,-167.79"/>
</a>
</g>
</g>
<!-- Node7 -->
<g id="Node000007" class="node">
<title>Node7</title>
<g id="a_Node000007"><a xlink:href="classExportMenu.html#a8c000516d7139497af90f9b173ca0609" target="_top" xlink:title=" ">
<polygon fill="white" stroke="#666666" points="339.5,-136.5 197.5,-136.5 197.5,-106.5 339.5,-106.5 339.5,-136.5"/>
<text text-anchor="start" x="205.5" y="-124.5" font-family="Helvetica,sans-Serif" font-size="10.00">ExportMenu::onFileDialog</text>
<text text-anchor="middle" x="268.5" y="-113.5" font-family="Helvetica,sans-Serif" font-size="10.00">WindowRequested</text>
</a>
</g>
</g>
<!-- Node6&#45;&gt;Node7 -->
<g id="edge6_Node000006_Node000007" class="edge">
<title>Node6&#45;&gt;Node7</title>
<g id="a_edge6_Node000006_Node000007"><a xlink:title=" ">
<path fill="none" stroke="#63b8ff" d="M396.17,-108.23C377.7,-110.17 357.94,-112.24 339.66,-114.15"/>
<polygon fill="#63b8ff" stroke="#63b8ff" points="396.7,-111.7 406.29,-107.17 395.97,-104.73 396.7,-111.7"/>
</a>
</g>
</g>
<!-- Node7&#45;&gt;Node4 -->
<g id="edge7_Node000007_Node000004" class="edge">
<title>Node7&#45;&gt;Node4</title>
<g id="a_edge7_Node000007_Node000004"><a xlink:title=" ">
<path fill="none" stroke="#63b8ff" d="M187.22,-130.08C171.59,-131.75 155.33,-133.49 140.09,-135.12"/>
<polygon fill="#63b8ff" stroke="#63b8ff" points="187.82,-133.54 197.39,-128.99 187.08,-126.58 187.82,-133.54"/>
</a>
</g>
</g>
</g>
</svg>
