<?xml version="1.0" encoding="UTF-8" standalone="no"?>
<!DOCTYPE svg PUBLIC "-//W3C//DTD SVG 1.1//EN"
 "http://www.w3.org/Graphics/SVG/1.1/DTD/svg11.dtd">
<!-- Generated by graphviz version 2.43.0 (0)
 -->
<!-- Title: TestLauncherViewModel::changeDirPath Pages: 1 -->
<svg width="806pt" height="110pt"
 viewBox="0.00 0.00 806.00 110.00" xmlns="http://www.w3.org/2000/svg" xmlns:xlink="http://www.w3.org/1999/xlink">
<g id="graph0" class="graph" transform="scale(1 1) rotate(0) translate(4 106)">
<title>TestLauncherViewModel::changeDirPath</title>
<!-- Node1 -->
<g id="Node000001" class="node">
<title>Node1</title>
<g id="a_Node000001"><a xlink:title=" ">
<polygon fill="#999999" stroke="#666666" points="134,-54 0,-54 0,-24 134,-24 134,-54"/>
<text text-anchor="start" x="8" y="-42" font-family="Helvetica,sans-Serif" font-size="10.00">TestLauncherViewModel</text>
<text text-anchor="middle" x="67" y="-31" font-family="Helvetica,sans-Serif" font-size="10.00">::changeDirPath</text>
</a>
</g>
</g>
<!-- Node2 -->
<g id="Node000002" class="node">
<title>Node2</title>
<g id="a_Node000002"><a xlink:href="classTestLauncherViewModel.html#af572568c52ec0654f1b4c9d799c29aa8" target="_top" xlink:title=" ">
<polygon fill="white" stroke="#666666" points="304,-78 170,-78 170,-48 304,-48 304,-78"/>
<text text-anchor="start" x="178" y="-66" font-family="Helvetica,sans-Serif" font-size="10.00">TestLauncherViewModel</text>
<text text-anchor="middle" x="237" y="-55" font-family="Helvetica,sans-Serif" font-size="10.00">::acquireFileList</text>
</a>
</g>
</g>
<!-- Node1&#45;&gt;Node2 -->
<g id="edge1_Node000001_Node000002" class="edge">
<title>Node1&#45;&gt;Node2</title>
<g id="a_edge1_Node000001_Node000002"><a xlink:title=" ">
<path fill="none" stroke="#63b8ff" d="M134.4,-48.49C142.77,-49.68 151.39,-50.91 159.89,-52.13"/>
<polygon fill="#63b8ff" stroke="#63b8ff" points="159.41,-55.59 169.81,-53.54 160.4,-48.67 159.41,-55.59"/>
</a>
</g>
</g>
<!-- Node8 -->
<g id="Node000008" class="node">
<title>Node8</title>
<g id="a_Node000008"><a xlink:href="classTestLauncherViewModel.html#a17f6df81bd4f5e47f324060a488f93d3" target="_top" xlink:title=" ">
<polygon fill="white" stroke="#666666" points="304,-30 170,-30 170,0 304,0 304,-30"/>
<text text-anchor="start" x="178" y="-18" font-family="Helvetica,sans-Serif" font-size="10.00">TestLauncherViewModel</text>
<text text-anchor="middle" x="237" y="-7" font-family="Helvetica,sans-Serif" font-size="10.00">::fileDirPathChanged</text>
</a>
</g>
</g>
<!-- Node1&#45;&gt;Node8 -->
<g id="edge7_Node000001_Node000008" class="edge">
<title>Node1&#45;&gt;Node8</title>
<g id="a_edge7_Node000001_Node000008"><a xlink:title=" ">
<path fill="none" stroke="#63b8ff" d="M134.4,-29.51C142.77,-28.32 151.39,-27.09 159.89,-25.87"/>
<polygon fill="#63b8ff" stroke="#63b8ff" points="160.4,-29.33 169.81,-24.46 159.41,-22.41 160.4,-29.33"/>
</a>
</g>
</g>
<!-- Node3 -->
<g id="Node000003" class="node">
<title>Node3</title>
<g id="a_Node000003"><a xlink:href="classTestLauncherViewModel.html#a5b19906a8eaea4a4e50ab5a2c83453f1" target="_top" xlink:title=" ">
<polygon fill="white" stroke="#666666" points="474,-102 340,-102 340,-72 474,-72 474,-102"/>
<text text-anchor="start" x="348" y="-90" font-family="Helvetica,sans-Serif" font-size="10.00">TestLauncherViewModel</text>
<text text-anchor="middle" x="407" y="-79" font-family="Helvetica,sans-Serif" font-size="10.00">::fileListChanged</text>
</a>
</g>
</g>
<!-- Node2&#45;&gt;Node3 -->
<g id="edge2_Node000002_Node000003" class="edge">
<title>Node2&#45;&gt;Node3</title>
<g id="a_edge2_Node000002_Node000003"><a xlink:title=" ">
<path fill="none" stroke="#63b8ff" d="M304.4,-72.49C312.77,-73.68 321.39,-74.91 329.89,-76.13"/>
<polygon fill="#63b8ff" stroke="#63b8ff" points="329.41,-79.59 339.81,-77.54 330.4,-72.67 329.41,-79.59"/>
</a>
</g>
</g>
<!-- Node4 -->
<g id="Node000004" class="node">
<title>Node4</title>
<g id="a_Node000004"><a xlink:href="classTestLauncherViewModel.html#a0cc7c1daba77cf492506de410489b17b" target="_top" xlink:title=" ">
<polygon fill="white" stroke="#666666" points="474,-54 340,-54 340,-24 474,-24 474,-54"/>
<text text-anchor="start" x="348" y="-42" font-family="Helvetica,sans-Serif" font-size="10.00">TestLauncherViewModel</text>
<text text-anchor="middle" x="407" y="-31" font-family="Helvetica,sans-Serif" font-size="10.00">::selectFile</text>
</a>
</g>
</g>
<!-- Node2&#45;&gt;Node4 -->
<g id="edge3_Node000002_Node000004" class="edge">
<title>Node2&#45;&gt;Node4</title>
<g id="a_edge3_Node000002_Node000004"><a xlink:title=" ">
<path fill="none" stroke="#63b8ff" d="M304.4,-53.51C312.77,-52.32 321.39,-51.09 329.89,-49.87"/>
<polygon fill="#63b8ff" stroke="#63b8ff" points="330.4,-53.33 339.81,-48.46 329.41,-46.41 330.4,-53.33"/>
</a>
</g>
</g>
<!-- Node5 -->
<g id="Node000005" class="node">
<title>Node5</title>
<g id="a_Node000005"><a xlink:href="classTxtParser.html#afc98cc478d1afc156dfd8ead7db6a778" target="_top" xlink:title=" ">
<polygon fill="white" stroke="#666666" points="633.5,-70.5 520.5,-70.5 520.5,-51.5 633.5,-51.5 633.5,-70.5"/>
<text text-anchor="middle" x="577" y="-58.5" font-family="Helvetica,sans-Serif" font-size="10.00">TxtParser::parseFile</text>
</a>
</g>
</g>
<!-- Node4&#45;&gt;Node5 -->
<g id="edge4_Node000004_Node000005" class="edge">
<title>Node4&#45;&gt;Node5</title>
<g id="a_edge4_Node000004_Node000005"><a xlink:title=" ">
<path fill="none" stroke="#63b8ff" d="M474.4,-47.69C486.17,-49.24 498.43,-50.84 510.19,-52.38"/>
<polygon fill="#63b8ff" stroke="#63b8ff" points="510,-55.89 520.37,-53.72 510.91,-48.95 510,-55.89"/>
</a>
</g>
</g>
<!-- Node7 -->
<g id="Node000007" class="node">
<title>Node7</title>
<g id="a_Node000007"><a xlink:href="classTestLauncherViewModel.html#a4728bf3502c3d375dd66ad3555bd6ab7" target="_top" xlink:title=" ">
<polygon fill="white" stroke="#666666" points="644,-33 510,-33 510,-3 644,-3 644,-33"/>
<text text-anchor="start" x="518" y="-21" font-family="Helvetica,sans-Serif" font-size="10.00">TestLauncherViewModel</text>
<text text-anchor="middle" x="577" y="-10" font-family="Helvetica,sans-Serif" font-size="10.00">::selectedFileChanged</text>
</a>
</g>
</g>
<!-- Node4&#45;&gt;Node7 -->
<g id="edge6_Node000004_Node000007" class="edge">
<title>Node4&#45;&gt;Node7</title>
<g id="a_edge6_Node000004_Node000007"><a xlink:title=" ">
<path fill="none" stroke="#63b8ff" d="M474.4,-30.7C482.68,-29.67 491.2,-28.6 499.62,-27.55"/>
<polygon fill="#63b8ff" stroke="#63b8ff" points="500.32,-30.99 509.81,-26.27 499.45,-24.04 500.32,-30.99"/>
</a>
</g>
</g>
<!-- Node6 -->
<g id="Node000006" class="node">
<title>Node6</title>
<g id="a_Node000006"><a xlink:href="classTxtParser.html#a7cd1923d1d1fa00cc53ef4ce794a830b" target="_top" xlink:title=" ">
<polygon fill="white" stroke="#666666" points="798,-70.5 680,-70.5 680,-51.5 798,-51.5 798,-70.5"/>
<text text-anchor="middle" x="739" y="-58.5" font-family="Helvetica,sans-Serif" font-size="10.00">TxtParser::FileParsed</text>
</a>
</g>
</g>
<!-- Node5&#45;&gt;Node6 -->
<g id="edge5_Node000005_Node000006" class="edge">
<title>Node5&#45;&gt;Node6</title>
<g id="a_edge5_Node000005_Node000006"><a xlink:title=" ">
<path fill="none" stroke="#63b8ff" d="M633.51,-61C645.22,-61 657.7,-61 669.81,-61"/>
<polygon fill="#63b8ff" stroke="#63b8ff" points="669.87,-64.5 679.87,-61 669.87,-57.5 669.87,-64.5"/>
</a>
</g>
</g>
</g>
</svg>
