<?xml version="1.0" encoding="UTF-8" standalone="no"?>
<!DOCTYPE svg PUBLIC "-//W3C//DTD SVG 1.1//EN"
 "http://www.w3.org/Graphics/SVG/1.1/DTD/svg11.dtd">
<!-- Generated by graphviz version 2.43.0 (0)
 -->
<!-- Title: ActuatorSwitchViewModel::updateStatus Pages: 1 -->
<svg width="527pt" height="198pt"
 viewBox="0.00 0.00 527.00 198.00" xmlns="http://www.w3.org/2000/svg" xmlns:xlink="http://www.w3.org/1999/xlink">
<g id="graph0" class="graph" transform="scale(1 1) rotate(0) translate(4 194)">
<title>ActuatorSwitchViewModel::updateStatus</title>
<!-- Node1 -->
<g id="Node000001" class="node">
<title>Node1</title>
<g id="a_Node000001"><a xlink:title=" ">
<polygon fill="#999999" stroke="#666666" points="144,-107 0,-107 0,-77 144,-77 144,-107"/>
<text text-anchor="start" x="8" y="-95" font-family="Helvetica,sans-Serif" font-size="10.00">ActuatorSwitchViewModel</text>
<text text-anchor="middle" x="72" y="-84" font-family="Helvetica,sans-Serif" font-size="10.00">::updateStatus</text>
</a>
</g>
</g>
<!-- Node2 -->
<g id="Node000002" class="node">
<title>Node2</title>
<g id="a_Node000002"><a xlink:href="classTestBenchModel.html#ad20ac636e12877b99b3bf0e2ee8e5b07" target="_top" xlink:title=" ">
<polygon fill="white" stroke="#666666" points="334,-181.5 185,-181.5 185,-162.5 334,-162.5 334,-181.5"/>
<text text-anchor="middle" x="259.5" y="-169.5" font-family="Helvetica,sans-Serif" font-size="10.00">TestBenchModel::getStatus</text>
</a>
</g>
</g>
<!-- Node1&#45;&gt;Node2 -->
<g id="edge1_Node000001_Node000002" class="edge">
<title>Node1&#45;&gt;Node2</title>
<g id="a_edge1_Node000001_Node000002"><a xlink:title=" ">
<path fill="none" stroke="#63b8ff" d="M97.81,-107.09C119.06,-119.56 150.77,-137.08 180,-149 189.57,-152.9 200.04,-156.44 210.12,-159.51"/>
<polygon fill="#63b8ff" stroke="#63b8ff" points="209.45,-162.96 220.03,-162.42 211.42,-156.25 209.45,-162.96"/>
</a>
</g>
</g>
<!-- Node4 -->
<g id="Node000004" class="node">
<title>Node4</title>
<g id="a_Node000004"><a xlink:href="classTestBenchModel.html#ace6e3de6f5ccb11ee6e9b3f80b630377" target="_top" xlink:title=" ">
<polygon fill="white" stroke="#666666" points="339,-139.5 180,-139.5 180,-120.5 339,-120.5 339,-139.5"/>
<text text-anchor="middle" x="259.5" y="-127.5" font-family="Helvetica,sans-Serif" font-size="10.00">TestBenchModel::getStatusID</text>
</a>
</g>
</g>
<!-- Node1&#45;&gt;Node4 -->
<g id="edge3_Node000001_Node000004" class="edge">
<title>Node1&#45;&gt;Node4</title>
<g id="a_edge3_Node000001_Node000004"><a xlink:title=" ">
<path fill="none" stroke="#63b8ff" d="M144.19,-106.58C163.33,-110.5 183.76,-114.69 201.98,-118.42"/>
<polygon fill="#63b8ff" stroke="#63b8ff" points="201.36,-121.87 211.86,-120.44 202.76,-115.01 201.36,-121.87"/>
</a>
</g>
</g>
<!-- Node6 -->
<g id="Node000006" class="node">
<title>Node6</title>
<g id="a_Node000006"><a xlink:href="classActuatorSwitchViewModel.html#ab4c09aa374e91472f687b5c0c4374548" target="_top" xlink:title=" ">
<polygon fill="white" stroke="#666666" points="331.5,-64 187.5,-64 187.5,-34 331.5,-34 331.5,-64"/>
<text text-anchor="start" x="195.5" y="-52" font-family="Helvetica,sans-Serif" font-size="10.00">ActuatorSwitchViewModel</text>
<text text-anchor="middle" x="259.5" y="-41" font-family="Helvetica,sans-Serif" font-size="10.00">::setStatus</text>
</a>
</g>
</g>
<!-- Node1&#45;&gt;Node6 -->
<g id="edge5_Node000001_Node000006" class="edge">
<title>Node1&#45;&gt;Node6</title>
<g id="a_edge5_Node000001_Node000006"><a xlink:title=" ">
<path fill="none" stroke="#63b8ff" d="M137.88,-76.96C152.71,-73.52 168.58,-69.84 183.78,-66.32"/>
<polygon fill="#63b8ff" stroke="#63b8ff" points="184.71,-69.7 193.66,-64.03 183.13,-62.88 184.71,-69.7"/>
</a>
</g>
</g>
<!-- Node7 -->
<g id="Node000007" class="node">
<title>Node7</title>
<g id="a_Node000007"><a xlink:href="classActuatorSwitchViewModel.html#a7aaf2fb748566dee79c0bd0945fcc51b" target="_top" xlink:title=" ">
<polygon fill="white" stroke="#666666" points="519,-89 375,-89 375,-59 519,-59 519,-89"/>
<text text-anchor="start" x="383" y="-77" font-family="Helvetica,sans-Serif" font-size="10.00">ActuatorSwitchViewModel</text>
<text text-anchor="middle" x="447" y="-66" font-family="Helvetica,sans-Serif" font-size="10.00">::status</text>
</a>
</g>
</g>
<!-- Node1&#45;&gt;Node7 -->
<g id="edge8_Node000001_Node000007" class="edge">
<title>Node1&#45;&gt;Node7</title>
<g id="a_edge8_Node000001_Node000007"><a xlink:title=" ">
<path fill="none" stroke="#63b8ff" d="M144.04,-88.57C206.94,-85.54 298.73,-81.11 364.57,-77.93"/>
<polygon fill="#63b8ff" stroke="#63b8ff" points="365.09,-81.41 374.91,-77.43 364.75,-74.42 365.09,-81.41"/>
</a>
</g>
</g>
<!-- Node8 -->
<g id="Node000008" class="node">
<title>Node8</title>
<g id="a_Node000008"><a xlink:href="classActuatorSwitchViewModel.html#a3bbde8da90b8046f19e61bf927ca500d" target="_top" xlink:title=" ">
<polygon fill="white" stroke="#666666" points="519,-30 375,-30 375,0 519,0 519,-30"/>
<text text-anchor="start" x="383" y="-18" font-family="Helvetica,sans-Serif" font-size="10.00">ActuatorSwitchViewModel</text>
<text text-anchor="middle" x="447" y="-7" font-family="Helvetica,sans-Serif" font-size="10.00">::statusChanged</text>
</a>
</g>
</g>
<!-- Node1&#45;&gt;Node8 -->
<g id="edge9_Node000001_Node000008" class="edge">
<title>Node1&#45;&gt;Node8</title>
<g id="a_edge9_Node000001_Node000008"><a xlink:title=" ">
<path fill="none" stroke="#63b8ff" d="M90.48,-76.95C110.56,-60.7 145.23,-35.7 180,-25 239.96,-6.55 311.13,-4.86 364.75,-7.33"/>
<polygon fill="#63b8ff" stroke="#63b8ff" points="364.73,-10.84 374.9,-7.86 365.09,-3.85 364.73,-10.84"/>
</a>
</g>
</g>
<!-- Node3 -->
<g id="Node000003" class="node">
<title>Node3</title>
<g id="a_Node000003"><a xlink:href="classTestBenchStatesList.html#a9c69f8c778b31be6b13d95caa7d618b9" target="_top" xlink:title=" ">
<polygon fill="white" stroke="#666666" points="504,-190 390,-190 390,-160 504,-160 504,-190"/>
<text text-anchor="start" x="398" y="-178" font-family="Helvetica,sans-Serif" font-size="10.00">TestBenchStatesList</text>
<text text-anchor="middle" x="447" y="-167" font-family="Helvetica,sans-Serif" font-size="10.00">::getValue</text>
</a>
</g>
</g>
<!-- Node2&#45;&gt;Node3 -->
<g id="edge2_Node000002_Node000003" class="edge">
<title>Node2&#45;&gt;Node3</title>
<g id="a_edge2_Node000002_Node000003"><a xlink:title=" ">
<path fill="none" stroke="#63b8ff" d="M334.08,-173.19C349.2,-173.43 365.04,-173.69 379.88,-173.93"/>
<polygon fill="#63b8ff" stroke="#63b8ff" points="379.92,-177.43 389.97,-174.09 380.03,-170.43 379.92,-177.43"/>
</a>
</g>
</g>
<!-- Node5 -->
<g id="Node000005" class="node">
<title>Node5</title>
<g id="a_Node000005"><a xlink:href="classTestBenchStatesList.html#ad87ab49f0bb0081c228afd6dae8c9e57" target="_top" xlink:title=" ">
<polygon fill="white" stroke="#666666" points="504,-142 390,-142 390,-112 504,-112 504,-142"/>
<text text-anchor="start" x="398" y="-130" font-family="Helvetica,sans-Serif" font-size="10.00">TestBenchStatesList</text>
<text text-anchor="middle" x="447" y="-119" font-family="Helvetica,sans-Serif" font-size="10.00">::getID</text>
</a>
</g>
</g>
<!-- Node4&#45;&gt;Node5 -->
<g id="edge4_Node000004_Node000005" class="edge">
<title>Node4&#45;&gt;Node5</title>
<g id="a_edge4_Node000004_Node000005"><a xlink:title=" ">
<path fill="none" stroke="#63b8ff" d="M339.17,-128.73C352.65,-128.51 366.53,-128.29 379.65,-128.07"/>
<polygon fill="#63b8ff" stroke="#63b8ff" points="380.04,-131.57 389.98,-127.91 379.93,-124.57 380.04,-131.57"/>
</a>
</g>
</g>
<!-- Node6&#45;&gt;Node7 -->
<g id="edge6_Node000006_Node000007" class="edge">
<title>Node6&#45;&gt;Node7</title>
<g id="a_edge6_Node000006_Node000007"><a xlink:title=" ">
<path fill="none" stroke="#63b8ff" d="M331.69,-58.59C342.48,-60.05 353.69,-61.56 364.68,-63.04"/>
<polygon fill="#63b8ff" stroke="#63b8ff" points="364.32,-66.52 374.7,-64.39 365.25,-59.59 364.32,-66.52"/>
</a>
</g>
</g>
<!-- Node6&#45;&gt;Node8 -->
<g id="edge7_Node000006_Node000008" class="edge">
<title>Node6&#45;&gt;Node8</title>
<g id="a_edge7_Node000006_Node000008"><a xlink:title=" ">
<path fill="none" stroke="#63b8ff" d="M331.69,-35.95C342.48,-33.97 353.69,-31.92 364.68,-29.9"/>
<polygon fill="#63b8ff" stroke="#63b8ff" points="365.49,-33.31 374.7,-28.07 364.23,-26.43 365.49,-33.31"/>
</a>
</g>
</g>
</g>
</svg>
