<?xml version="1.0" encoding="UTF-8" standalone="no"?>
<!DOCTYPE svg PUBLIC "-//W3C//DTD SVG 1.1//EN"
 "http://www.w3.org/Graphics/SVG/1.1/DTD/svg11.dtd">
<!-- Generated by graphviz version 2.43.0 (0)
 -->
<!-- Title: Logger::error Pages: 1 -->
<!--zoomable 283 -->

<svg id="main" version="1.1" xmlns="http://www.w3.org/2000/svg" xmlns:xlink="http://www.w3.org/1999/xlink" xml:space="preserve" onload="init(evt)">
<style type="text/css"><![CDATA[
.node, .edge {opacity: 0.7;}
.node.selected, .edge.selected {opacity: 1;}
.edge:hover path { stroke: red; }
.edge:hover polygon { stroke: red; fill: red; }
]]></style>

<defs>
  <circle id="rim" cx="0" cy="0" r="7"/>
  <circle id="rim2" cx="0" cy="0" r="3.5"/>
  <g id="zoomPlus">
    <use xlink:href="#rim" fill="#404040"><set attributeName="fill" to="#808080" begin="zoomplus.mouseover" end="zoomplus.mouseout"/></use>
    <path d="M-4,0h8M0,-4v8" fill="none" stroke="white" stroke-width="1.5" pointer-events="none"/>
  </g>
  <g id="zoomMin">
    <use xlink:href="#rim" fill="#404040"><set attributeName="fill" to="#808080" begin="zoomminus.mouseover" end="zoomminus.mouseout"/></use>
    <path d="M-4,0h8" fill="none" stroke="white" stroke-width="1.5" pointer-events="none"/>
  </g>
  <g id="arrowUp" transform="translate(30 24)">
    <use xlink:href="#rim"/>
    <path pointer-events="none" fill="none" stroke="white" stroke-width="1.5" d="M0,-3.0v7 M-2.5,-0.5L0,-3.0L2.5,-0.5"/>
  </g>
  <g id="arrowRight" transform="rotate(90) translate(36 -43)">
    <use xlink:href="#rim"/>
    <path pointer-events="none" fill="none" stroke="white" stroke-width="1.5" d="M0,-3.0v7 M-2.5,-0.5L0,-3.0L2.5,-0.5"/>
  </g>
  <g id="arrowDown" transform="rotate(180) translate(-30 -48)">
    <use xlink:href="#rim"/>
    <path pointer-events="none" fill="none" stroke="white" stroke-width="1.5" d="M0,-3.0v7 M-2.5,-0.5L0,-3.0L2.5,-0.5"/>
  </g>
  <g id="arrowLeft" transform="rotate(270) translate(-36 17)">
    <use xlink:href="#rim"/>
    <path pointer-events="none" fill="none" stroke="white" stroke-width="1.5" d="M0,-3.0v7 M-2.5,-0.5L0,-3.0L2.5,-0.5"/>
  </g>
  <g id="resetDef">
    <use xlink:href="#rim2" fill="#404040"><set attributeName="fill" to="#808080" begin="reset.mouseover" end="reset.mouseout"/></use>
  </g>
</defs>
<script type="application/ecmascript">
var viewWidth = 1314;
var viewHeight = 283;
var sectionId = 'dynsection-5';
</script>
<script type="application/ecmascript" xlink:href="svg.min.js"/>
<svg id="graph" class="graph">
<g id="viewport">
<title>Logger::error</title>
<!-- Node1 -->
<g id="Node000001" class="node">
<title>Node1</title>
<g id="a_Node000001"><a xlink:title=" ">
<polygon fill="#999999" stroke="#666666" points="1306,-161.5 1227,-161.5 1227,-142.5 1306,-142.5 1306,-161.5"/>
<text text-anchor="middle" x="1266.5" y="-149.5" font-family="Helvetica,sans-Serif" font-size="10.00">Logger::error</text>
</a>
</g>
</g>
<!-- Node2 -->
<g id="Node000002" class="node">
<title>Node2</title>
<g id="a_Node000002"><a xlink:href="classWriter.html#a8370450b521293c9b754c234d0e46a73" target="_top" xlink:title=" ">
<polygon fill="white" stroke="#666666" points="1183.5,-274.5 1071.5,-274.5 1071.5,-255.5 1183.5,-255.5 1183.5,-274.5"/>
<text text-anchor="middle" x="1127.5" y="-262.5" font-family="Helvetica,sans-Serif" font-size="10.00">Writer::flushFrames</text>
</a>
</g>
</g>
<!-- Node1&#45;&gt;Node2 -->
<g id="edge1_Node000001_Node000002" class="edge">
<title>Node1&#45;&gt;Node2</title>
<g id="a_edge1_Node000001_Node000002"><a xlink:title=" ">
<path fill="none" stroke="#63b8ff" d="M1254.38,-170.15C1241.39,-190 1218.18,-221.59 1191,-241 1182.49,-247.08 1172.24,-251.85 1162.52,-255.48"/>
<polygon fill="#63b8ff" stroke="#63b8ff" points="1257.35,-172.01 1259.76,-161.69 1251.44,-168.25 1257.35,-172.01"/>
</a>
</g>
</g>
<!-- Node3 -->
<g id="Node000003" class="node">
<title>Node3</title>
<g id="a_Node000003"><a xlink:href="classWriter.html#a1fd61de67b13b9eb5cb0f3eb7d5b6e48" target="_top" xlink:title=" ">
<polygon fill="white" stroke="#666666" points="1028,-255.5 930,-255.5 930,-236.5 1028,-236.5 1028,-255.5"/>
<text text-anchor="middle" x="979" y="-243.5" font-family="Helvetica,sans-Serif" font-size="10.00">Writer::logFrame</text>
</a>
</g>
</g>
<!-- Node1&#45;&gt;Node3 -->
<g id="edge4_Node000001_Node000003" class="edge">
<title>Node1&#45;&gt;Node3</title>
<g id="a_edge4_Node000001_Node000003"><a xlink:title=" ">
<path fill="none" stroke="#63b8ff" d="M1248.38,-168.61C1234.17,-181.41 1212.82,-198.48 1191,-208 1138.29,-231 1072.35,-240.08 1028.35,-243.66"/>
<polygon fill="#63b8ff" stroke="#63b8ff" points="1250.92,-171.02 1255.87,-161.65 1246.16,-165.89 1250.92,-171.02"/>
</a>
</g>
</g>
<!-- Node4 -->
<g id="Node000004" class="node">
<title>Node4</title>
<g id="a_Node000004"><a xlink:href="classWriter.html#a919d3fddef42f073eeb766975397a55b" target="_top" xlink:title=" ">
<polygon fill="white" stroke="#666666" points="1175,-198.5 1080,-198.5 1080,-179.5 1175,-179.5 1175,-198.5"/>
<text text-anchor="middle" x="1127.5" y="-186.5" font-family="Helvetica,sans-Serif" font-size="10.00">Writer::initialise</text>
</a>
</g>
</g>
<!-- Node1&#45;&gt;Node4 -->
<g id="edge3_Node000001_Node000004" class="edge">
<title>Node1&#45;&gt;Node4</title>
<g id="a_edge3_Node000001_Node000004"><a xlink:title=" ">
<path fill="none" stroke="#63b8ff" d="M1220.37,-164.19C1202.1,-169.12 1181.31,-174.74 1164.14,-179.38"/>
<polygon fill="#63b8ff" stroke="#63b8ff" points="1221.48,-167.51 1230.22,-161.53 1219.65,-160.76 1221.48,-167.51"/>
</a>
</g>
</g>
<!-- Node5 -->
<g id="Node000005" class="node">
<title>Node5</title>
<g id="a_Node000005"><a xlink:href="classRingBuffer.html#a12a3dd68a067b130308d734be8051fb5" target="_top" xlink:title=" ">
<polygon fill="white" stroke="#666666" points="1173.5,-161.5 1081.5,-161.5 1081.5,-142.5 1173.5,-142.5 1173.5,-161.5"/>
<text text-anchor="middle" x="1127.5" y="-149.5" font-family="Helvetica,sans-Serif" font-size="10.00">RingBuffer::pull</text>
</a>
</g>
</g>
<!-- Node1&#45;&gt;Node5 -->
<g id="edge5_Node000001_Node000005" class="edge">
<title>Node1&#45;&gt;Node5</title>
<g id="a_edge5_Node000001_Node000005"><a xlink:title=" ">
<path fill="none" stroke="#63b8ff" d="M1216.94,-152C1202.8,-152 1187.43,-152 1173.52,-152"/>
<polygon fill="#63b8ff" stroke="#63b8ff" points="1216.97,-155.5 1226.97,-152 1216.97,-148.5 1216.97,-155.5"/>
</a>
</g>
</g>
<!-- Node6 -->
<g id="Node000006" class="node">
<title>Node6</title>
<g id="a_Node000006"><a xlink:href="classRingBuffer.html#a1eb45a07ee9dcd3c61045b4996cf14b3" target="_top" xlink:title=" ">
<polygon fill="white" stroke="#666666" points="1176,-124.5 1079,-124.5 1079,-105.5 1176,-105.5 1176,-124.5"/>
<text text-anchor="middle" x="1127.5" y="-112.5" font-family="Helvetica,sans-Serif" font-size="10.00">RingBuffer::push</text>
</a>
</g>
</g>
<!-- Node1&#45;&gt;Node6 -->
<g id="edge6_Node000001_Node000006" class="edge">
<title>Node1&#45;&gt;Node6</title>
<g id="a_edge6_Node000001_Node000006"><a xlink:title=" ">
<path fill="none" stroke="#63b8ff" d="M1220.37,-139.81C1202.1,-134.88 1181.31,-129.26 1164.14,-124.62"/>
<polygon fill="#63b8ff" stroke="#63b8ff" points="1219.65,-143.24 1230.22,-142.47 1221.48,-136.49 1219.65,-143.24"/>
</a>
</g>
</g>
<!-- Node7 -->
<g id="Node000007" class="node">
<title>Node7</title>
<g id="a_Node000007"><a xlink:href="classUdpLogger.html#a55781f93bfc47a004e7b7b8afaa0192c" target="_top" xlink:title=" ">
<polygon fill="white" stroke="#666666" points="1028,-67.5 930,-67.5 930,-48.5 1028,-48.5 1028,-67.5"/>
<text text-anchor="middle" x="979" y="-55.5" font-family="Helvetica,sans-Serif" font-size="10.00">UdpLogger::start</text>
</a>
</g>
</g>
<!-- Node1&#45;&gt;Node7 -->
<g id="edge7_Node000001_Node000007" class="edge">
<title>Node1&#45;&gt;Node7</title>
<g id="a_edge7_Node000001_Node000007"><a xlink:title=" ">
<path fill="none" stroke="#63b8ff" d="M1247.82,-135.3C1233.58,-122.79 1212.45,-106.31 1191,-97 1138.2,-74.09 1072.28,-64.63 1028.31,-60.73"/>
<polygon fill="#63b8ff" stroke="#63b8ff" points="1245.6,-138 1255.36,-142.11 1250.29,-132.81 1245.6,-138"/>
</a>
</g>
</g>
<!-- Node16 -->
<g id="Node000016" class="node">
<title>Node16</title>
<g id="a_Node000016"><a xlink:href="classUdpLogger.html#a4f7e8bb32128f9186dc452a57134475d" target="_top" xlink:title=" ">
<polygon fill="white" stroke="#666666" points="1191,-48.5 1064,-48.5 1064,-29.5 1191,-29.5 1191,-48.5"/>
<text text-anchor="middle" x="1127.5" y="-36.5" font-family="Helvetica,sans-Serif" font-size="10.00">UdpLogger::writerLoop</text>
</a>
</g>
</g>
<!-- Node1&#45;&gt;Node16 -->
<g id="edge16_Node000001_Node000016" class="edge">
<title>Node1&#45;&gt;Node16</title>
<g id="a_edge16_Node000001_Node000016"><a xlink:title=" ">
<path fill="none" stroke="#63b8ff" d="M1254.38,-133.85C1241.39,-114 1218.18,-82.41 1191,-63 1182.49,-56.92 1172.24,-52.15 1162.52,-48.52"/>
<polygon fill="#63b8ff" stroke="#63b8ff" points="1251.44,-135.75 1259.76,-142.31 1257.35,-131.99 1251.44,-135.75"/>
</a>
</g>
</g>
<!-- Node2&#45;&gt;Node3 -->
<g id="edge2_Node000002_Node000003" class="edge">
<title>Node2&#45;&gt;Node3</title>
<g id="a_edge2_Node000002_Node000003"><a xlink:title=" ">
<path fill="none" stroke="#63b8ff" d="M1061.08,-256.51C1050.04,-255.08 1038.76,-253.62 1028.26,-252.26"/>
<polygon fill="#63b8ff" stroke="#63b8ff" points="1060.75,-260 1071.11,-257.82 1061.65,-253.06 1060.75,-260"/>
</a>
</g>
</g>
<!-- Node8 -->
<g id="Node000008" class="node">
<title>Node8</title>
<g id="a_Node000008"><a xlink:href="classUdpChannel.html#a0ed1f8d1f6bab17f35b54db9f31ecc05" target="_top" xlink:title=" ">
<polygon fill="white" stroke="#666666" points="894,-67.5 747,-67.5 747,-48.5 894,-48.5 894,-67.5"/>
<text text-anchor="middle" x="820.5" y="-55.5" font-family="Helvetica,sans-Serif" font-size="10.00">UdpChannel::startEndpoint</text>
</a>
</g>
</g>
<!-- Node7&#45;&gt;Node8 -->
<g id="edge8_Node000007_Node000008" class="edge">
<title>Node7&#45;&gt;Node8</title>
<g id="a_edge8_Node000007_Node000008"><a xlink:title=" ">
<path fill="none" stroke="#63b8ff" d="M919.74,-58C911.35,-58 902.64,-58 894.03,-58"/>
<polygon fill="#63b8ff" stroke="#63b8ff" points="919.77,-61.5 929.77,-58 919.77,-54.5 919.77,-61.5"/>
</a>
</g>
</g>
<!-- Node9 -->
<g id="Node000009" class="node">
<title>Node9</title>
<g id="a_Node000009"><a xlink:href="classCSVLogger.html#aeb2a3cbfb18c9e190ee9558b45c2ab63" target="_top" xlink:title=" ">
<polygon fill="white" stroke="#666666" points="687,-104.5 580,-104.5 580,-85.5 687,-85.5 687,-104.5"/>
<text text-anchor="middle" x="633.5" y="-92.5" font-family="Helvetica,sans-Serif" font-size="10.00">CSVLogger::logFile</text>
</a>
</g>
</g>
<!-- Node8&#45;&gt;Node9 -->
<g id="edge9_Node000008_Node000009" class="edge">
<title>Node8&#45;&gt;Node9</title>
<g id="a_edge9_Node000008_Node000009"><a xlink:title=" ">
<path fill="none" stroke="#63b8ff" d="M761.92,-69.52C736.35,-74.63 706.62,-80.58 682.3,-85.44"/>
<polygon fill="#63b8ff" stroke="#63b8ff" points="762.74,-72.92 771.86,-67.53 761.37,-66.06 762.74,-72.92"/>
</a>
</g>
</g>
<!-- Node13 -->
<g id="Node000013" class="node">
<title>Node13</title>
<g id="a_Node000013"><a xlink:href="main_8cpp.html#a0ddf1224851353fc92bfbff6f499fa97" target="_top" xlink:title=" ">
<polygon fill="white" stroke="#666666" points="654,-67.5 613,-67.5 613,-48.5 654,-48.5 654,-67.5"/>
<text text-anchor="middle" x="633.5" y="-55.5" font-family="Helvetica,sans-Serif" font-size="10.00">main</text>
</a>
</g>
</g>
<!-- Node8&#45;&gt;Node13 -->
<g id="edge13_Node000008_Node000013" class="edge">
<title>Node8&#45;&gt;Node13</title>
<g id="a_edge13_Node000008_Node000013"><a xlink:title=" ">
<path fill="none" stroke="#63b8ff" d="M736.64,-58C706.14,-58 674.22,-58 654.35,-58"/>
<polygon fill="#63b8ff" stroke="#63b8ff" points="736.91,-61.5 746.91,-58 736.91,-54.5 736.91,-61.5"/>
</a>
</g>
</g>
<!-- Node14 -->
<g id="Node000014" class="node">
<title>Node14</title>
<g id="a_Node000014"><a xlink:href="classUdpChannelParametersViewModel.html#af74d2aa09f73fc1ce13dca3469848fa8" target="_top" xlink:title=" ">
<polygon fill="white" stroke="#666666" points="711,-30 556,-30 556,0 711,0 711,-30"/>
<text text-anchor="start" x="564" y="-18" font-family="Helvetica,sans-Serif" font-size="10.00">UdpChannelParametersView</text>
<text text-anchor="middle" x="633.5" y="-7" font-family="Helvetica,sans-Serif" font-size="10.00">Model::restartEndpoint</text>
</a>
</g>
</g>
<!-- Node8&#45;&gt;Node14 -->
<g id="edge14_Node000008_Node000014" class="edge">
<title>Node8&#45;&gt;Node14</title>
<g id="a_edge14_Node000008_Node000014"><a xlink:title=" ">
<path fill="none" stroke="#63b8ff" d="M768.55,-46.16C747.07,-41.16 721.82,-35.3 699.06,-30.01"/>
<polygon fill="#63b8ff" stroke="#63b8ff" points="767.91,-49.6 778.44,-48.46 769.49,-42.78 767.91,-49.6"/>
</a>
</g>
</g>
<!-- Node10 -->
<g id="Node000010" class="node">
<title>Node10</title>
<g id="a_Node000010"><a xlink:href="classExportMenuViewModel.html#a3384a193ce5445b24d08bb6b6fed94fb" target="_top" xlink:title=" ">
<polygon fill="white" stroke="#666666" points="501.5,-110 372.5,-110 372.5,-80 501.5,-80 501.5,-110"/>
<text text-anchor="start" x="380.5" y="-98" font-family="Helvetica,sans-Serif" font-size="10.00">ExportMenuViewModel</text>
<text text-anchor="middle" x="437" y="-87" font-family="Helvetica,sans-Serif" font-size="10.00">::selectPath</text>
</a>
</g>
</g>
<!-- Node9&#45;&gt;Node10 -->
<g id="edge10_Node000009_Node000010" class="edge">
<title>Node9&#45;&gt;Node10</title>
<g id="a_edge10_Node000009_Node000010"><a xlink:title=" ">
<path fill="none" stroke="#63b8ff" d="M569.75,-95C548,-95 523.6,-95 501.76,-95"/>
<polygon fill="#63b8ff" stroke="#63b8ff" points="569.87,-98.5 579.87,-95 569.87,-91.5 569.87,-98.5"/>
</a>
</g>
</g>
<!-- Node11 -->
<g id="Node000011" class="node">
<title>Node11</title>
<g id="a_Node000011"><a xlink:href="classExportMenu.html#a8c000516d7139497af90f9b173ca0609" target="_top" xlink:title=" ">
<polygon fill="white" stroke="#666666" points="318,-110 176,-110 176,-80 318,-80 318,-110"/>
<text text-anchor="start" x="184" y="-98" font-family="Helvetica,sans-Serif" font-size="10.00">ExportMenu::onFileDialog</text>
<text text-anchor="middle" x="247" y="-87" font-family="Helvetica,sans-Serif" font-size="10.00">WindowRequested</text>
</a>
</g>
</g>
<!-- Node10&#45;&gt;Node11 -->
<g id="edge11_Node000010_Node000011" class="edge">
<title>Node10&#45;&gt;Node11</title>
<g id="a_edge11_Node000010_Node000011"><a xlink:title=" ">
<path fill="none" stroke="#63b8ff" d="M361.96,-95C347.49,-95 332.37,-95 318.04,-95"/>
<polygon fill="#63b8ff" stroke="#63b8ff" points="362.35,-98.5 372.35,-95 362.35,-91.5 362.35,-98.5"/>
</a>
</g>
</g>
<!-- Node12 -->
<g id="Node000012" class="node">
<title>Node12</title>
<g id="a_Node000012"><a xlink:href="classExportMenu.html#aad47eee6721b4f7a152a093c99672ac9" target="_top" xlink:title=" ">
<polygon fill="white" stroke="#666666" points="140,-104.5 0,-104.5 0,-85.5 140,-85.5 140,-104.5"/>
<text text-anchor="middle" x="70" y="-92.5" font-family="Helvetica,sans-Serif" font-size="10.00">ExportMenu::ExportMenu</text>
</a>
</g>
</g>
<!-- Node11&#45;&gt;Node12 -->
<g id="edge12_Node000011_Node000012" class="edge">
<title>Node11&#45;&gt;Node12</title>
<g id="a_edge12_Node000011_Node000012"><a xlink:title=" ">
<path fill="none" stroke="#63b8ff" d="M165.8,-95C157.2,-95 148.5,-95 140.05,-95"/>
<polygon fill="#63b8ff" stroke="#63b8ff" points="165.83,-98.5 175.83,-95 165.83,-91.5 165.83,-98.5"/>
</a>
</g>
</g>
<!-- Node15 -->
<g id="Node000015" class="node">
<title>Node15</title>
<g id="a_Node000015"><a xlink:href="classUdpChannelParametersWidget.html#aef0927083aea2b20033b42465cb2b42f" target="_top" xlink:title=" ">
<polygon fill="white" stroke="#666666" points="520,-30 354,-30 354,0 520,0 520,-30"/>
<text text-anchor="start" x="362" y="-18" font-family="Helvetica,sans-Serif" font-size="10.00">UdpChannelParametersWidget</text>
<text text-anchor="middle" x="437" y="-7" font-family="Helvetica,sans-Serif" font-size="10.00">::applyParameters</text>
</a>
</g>
</g>
<!-- Node14&#45;&gt;Node15 -->
<g id="edge15_Node000014_Node000015" class="edge">
<title>Node14&#45;&gt;Node15</title>
<g id="a_edge15_Node000014_Node000015"><a xlink:title=" ">
<path fill="none" stroke="#63b8ff" d="M545.68,-15C537.24,-15 528.69,-15 520.29,-15"/>
<polygon fill="#63b8ff" stroke="#63b8ff" points="545.91,-18.5 555.91,-15 545.91,-11.5 545.91,-18.5"/>
</a>
</g>
</g>
<!-- Node16&#45;&gt;Node7 -->
<g id="edge17_Node000016_Node000007" class="edge">
<title>Node16&#45;&gt;Node7</title>
<g id="a_edge17_Node000016_Node000007"><a xlink:title=" ">
<path fill="none" stroke="#63b8ff" d="M1053.78,-48.43C1045.09,-49.56 1036.39,-50.69 1028.16,-51.75"/>
<polygon fill="#63b8ff" stroke="#63b8ff" points="1054.48,-51.87 1063.95,-47.11 1053.58,-44.93 1054.48,-51.87"/>
</a>
</g>
</g>
</g>
</svg>

<g id="navigator" transform="translate(0 0)" fill="#404254">
  <rect fill="#f2f5e9" fill-opacity="0.5" stroke="#606060" stroke-width=".5" x="0" y="0" width="60" height="60"/>
  <use id="zoomplus" xlink:href="#zoomPlus" x="17" y="9" onmousedown="handleZoom(evt,'in')"/>
  <use id="zoomminus" xlink:href="#zoomMin" x="42" y="9" onmousedown="handleZoom(evt,'out')"/>
  <use id="reset" xlink:href="#resetDef" x="30" y="36" onmousedown="handleReset()"/>
   <use id="arrowup" xlink:href="#arrowUp" x="0" y="0" onmousedown="handlePan(0,-1)"/>
  <use id="arrowright" xlink:href="#arrowRight" x="0" y="0" onmousedown="handlePan(1,0)"/>
  <use id="arrowdown" xlink:href="#arrowDown" x="0" y="0" onmousedown="handlePan(0,1)"/>
  <use id="arrowleft" xlink:href="#arrowLeft" x="0" y="0" onmousedown="handlePan(-1,0)"/>
</g>
<svg viewBox="0 0 15 15" width="100%" height="30px" preserveAspectRatio="xMaxYMin meet">
 <g id="arrow_out" transform="scale(0.3 0.3)">
  <a xlink:href="classLogger_a6c8bf2fc8c89d76b7f4fe25d97ad4bf3_icgraph_org.svg" target="_base">
   <rect id="button" ry="5" rx="5" y="6" x="6" height="38" width="38"
        fill="#f2f5e9" fill-opacity="0.5" stroke="#606060" stroke-width="1.0"/>
   <path id="arrow"
     d="M 11.500037,31.436501 C 11.940474,20.09759 22.043105,11.32322 32.158766,21.979434 L 37.068811,17.246167 C 37.068811,17.246167 37.088388,32 37.088388,32 L 22.160133,31.978069 C 22.160133,31.978069 26.997745,27.140456 26.997745,27.140456 C 18.528582,18.264221 13.291696,25.230495 11.500037,31.436501 z"
     style="fill:#404040;"/>
  </a>
 </g>
</svg>

<style type='text/css'>
<![CDATA[
[data-mouse-over-selected='false'] { opacity: 0.7; }
[data-mouse-over-selected='true']  { opacity: 1.0; }
]]>
</style>
<script type="application/ecmascript"><![CDATA[
document.addEventListener('DOMContentLoaded', (event) => {
  highlightEdges();
  highlightAdjacentNodes();
});
]]></script>
</svg>
