<?xml version="1.0" encoding="UTF-8" standalone="no"?>
<!DOCTYPE svg PUBLIC "-//W3C//DTD SVG 1.1//EN"
 "http://www.w3.org/Graphics/SVG/1.1/DTD/svg11.dtd">
<!-- Generated by graphviz version 2.43.0 (0)
 -->
<!-- Title: UdpChannel::countdownReceived Pages: 1 -->
<svg width="589pt" height="76pt"
 viewBox="0.00 0.00 589.00 75.50" xmlns="http://www.w3.org/2000/svg" xmlns:xlink="http://www.w3.org/1999/xlink">
<g id="graph0" class="graph" transform="scale(1 1) rotate(0) translate(4 71.5)">
<title>UdpChannel::countdownReceived</title>
<!-- Node1 -->
<g id="Node000001" class="node">
<title>Node1</title>
<g id="a_Node000001"><a xlink:title=" ">
<polygon fill="#999999" stroke="#666666" points="581,-40 401,-40 401,-21 581,-21 581,-40"/>
<text text-anchor="middle" x="491" y="-28" font-family="Helvetica,sans-Serif" font-size="10.00">UdpChannel::countdownReceived</text>
</a>
</g>
</g>
<!-- Node2 -->
<g id="Node000002" class="node">
<title>Node2</title>
<g id="a_Node000002"><a xlink:href="classCountdownClockViewModel.html#a3b9e3bc4f0c549d6b0438fd88880fb00" target="_top" xlink:title=" ">
<polygon fill="white" stroke="#666666" points="350,-67.5 192,-67.5 192,-37.5 350,-37.5 350,-67.5"/>
<text text-anchor="start" x="200" y="-55.5" font-family="Helvetica,sans-Serif" font-size="10.00">CountdownClockViewModel</text>
<text text-anchor="middle" x="271" y="-44.5" font-family="Helvetica,sans-Serif" font-size="10.00">::CountdownClockViewModel</text>
</a>
</g>
</g>
<!-- Node1&#45;&gt;Node2 -->
<g id="edge1_Node000001_Node000002" class="edge">
<title>Node1&#45;&gt;Node2</title>
<g id="a_edge1_Node000001_Node000002"><a xlink:title=" ">
<path fill="none" stroke="#63b8ff" d="M390.46,-40.55C377,-41.9 363.35,-43.28 350.33,-44.59"/>
<polygon fill="#63b8ff" stroke="#63b8ff" points="391.1,-44 400.7,-39.51 390.4,-37.03 391.1,-44"/>
</a>
</g>
</g>
<!-- Node3 -->
<g id="Node000003" class="node">
<title>Node3</title>
<g id="a_Node000003"><a xlink:href="classUdpChannel.html#a4f2c0c2ee1edbc192415cbb518bc44dd" target="_top" xlink:title=" ">
<polygon fill="white" stroke="#666666" points="365,-19 177,-19 177,0 365,0 365,-19"/>
<text text-anchor="middle" x="271" y="-7" font-family="Helvetica,sans-Serif" font-size="10.00">UdpChannel::onDatagramReceived</text>
</a>
</g>
</g>
<!-- Node1&#45;&gt;Node3 -->
<g id="edge2_Node000001_Node000003" class="edge">
<title>Node1&#45;&gt;Node3</title>
<g id="a_edge2_Node000001_Node000003"><a xlink:title=" ">
<path fill="none" stroke="#63b8ff" d="M390.72,-20.94C382.17,-20.11 373.54,-19.28 365.05,-18.46"/>
<polygon fill="#63b8ff" stroke="#63b8ff" points="390.41,-24.42 400.7,-21.9 391.08,-17.46 390.41,-24.42"/>
</a>
</g>
</g>
<!-- Node4 -->
<g id="Node000004" class="node">
<title>Node4</title>
<g id="a_Node000004"><a xlink:href="classUdpChannel.html#a1d69213eb88b5305686f1ef9ade76e04" target="_top" xlink:title=" ">
<polygon fill="white" stroke="#666666" points="141,-19 0,-19 0,0 141,0 141,-19"/>
<text text-anchor="middle" x="70.5" y="-7" font-family="Helvetica,sans-Serif" font-size="10.00">UdpChannel::UdpChannel</text>
</a>
</g>
</g>
<!-- Node3&#45;&gt;Node4 -->
<g id="edge3_Node000003_Node000004" class="edge">
<title>Node3&#45;&gt;Node4</title>
<g id="a_edge3_Node000003_Node000004"><a xlink:title=" ">
<path fill="none" stroke="#63b8ff" d="M166.73,-9.5C158.1,-9.5 149.52,-9.5 141.24,-9.5"/>
<polygon fill="#63b8ff" stroke="#63b8ff" points="166.85,-13 176.85,-9.5 166.85,-6 166.85,-13"/>
</a>
</g>
</g>
</g>
</svg>
