<?xml version="1.0" encoding="UTF-8" standalone="no"?>
<!DOCTYPE svg PUBLIC "-//W3C//DTD SVG 1.1//EN"
 "http://www.w3.org/Graphics/SVG/1.1/DTD/svg11.dtd">
<!-- Generated by graphviz version 2.43.0 (0)
 -->
<!-- Title: DebugDisplayViewModel::refreshDisplay Pages: 1 -->
<svg width="529pt" height="86pt"
 viewBox="0.00 0.00 529.00 86.00" xmlns="http://www.w3.org/2000/svg" xmlns:xlink="http://www.w3.org/1999/xlink">
<g id="graph0" class="graph" transform="scale(1 1) rotate(0) translate(4 82)">
<title>DebugDisplayViewModel::refreshDisplay</title>
<!-- Node1 -->
<g id="Node000001" class="node">
<title>Node1</title>
<g id="a_Node000001"><a xlink:title=" ">
<polygon fill="#999999" stroke="#666666" points="521,-54 382,-54 382,-24 521,-24 521,-54"/>
<text text-anchor="start" x="390" y="-42" font-family="Helvetica,sans-Serif" font-size="10.00">DebugDisplayViewModel</text>
<text text-anchor="middle" x="451.5" y="-31" font-family="Helvetica,sans-Serif" font-size="10.00">::refreshDisplay</text>
</a>
</g>
</g>
<!-- Node2 -->
<g id="Node000002" class="node">
<title>Node2</title>
<g id="a_Node000002"><a xlink:href="classDebugDisplayViewModel.html#adef8c701d6cca6a1901f97d6fc452c03" target="_top" xlink:title=" ">
<polygon fill="white" stroke="#666666" points="342.5,-78 197.5,-78 197.5,-48 342.5,-48 342.5,-78"/>
<text text-anchor="start" x="205.5" y="-66" font-family="Helvetica,sans-Serif" font-size="10.00">DebugDisplayViewModel</text>
<text text-anchor="middle" x="270" y="-55" font-family="Helvetica,sans-Serif" font-size="10.00">::DebugDisplayViewModel</text>
</a>
</g>
</g>
<!-- Node1&#45;&gt;Node2 -->
<g id="edge1_Node000001_Node000002" class="edge">
<title>Node1&#45;&gt;Node2</title>
<g id="a_edge1_Node000001_Node000002"><a xlink:title=" ">
<path fill="none" stroke="#63b8ff" d="M371.82,-49.52C362.09,-50.82 352.18,-52.15 342.57,-53.43"/>
<polygon fill="#63b8ff" stroke="#63b8ff" points="372.42,-52.97 381.87,-48.18 371.49,-46.03 372.42,-52.97"/>
</a>
</g>
</g>
<!-- Node3 -->
<g id="Node000003" class="node">
<title>Node3</title>
<g id="a_Node000003"><a xlink:href="classDebugDisplay.html#afb81b2c96bb6b80079f459d6fbefdd94" target="_top" xlink:title=" ">
<polygon fill="white" stroke="#666666" points="346,-30 194,-30 194,0 346,0 346,-30"/>
<text text-anchor="start" x="202" y="-18" font-family="Helvetica,sans-Serif" font-size="10.00">DebugDisplay::onNumberOf</text>
<text text-anchor="middle" x="270" y="-7" font-family="Helvetica,sans-Serif" font-size="10.00">BindingsChanged</text>
</a>
</g>
</g>
<!-- Node1&#45;&gt;Node3 -->
<g id="edge2_Node000001_Node000003" class="edge">
<title>Node1&#45;&gt;Node3</title>
<g id="a_edge2_Node000001_Node000003"><a xlink:title=" ">
<path fill="none" stroke="#63b8ff" d="M371.92,-28.49C363.37,-27.35 354.68,-26.19 346.17,-25.05"/>
<polygon fill="#63b8ff" stroke="#63b8ff" points="371.49,-31.97 381.87,-29.82 372.42,-25.03 371.49,-31.97"/>
</a>
</g>
</g>
<!-- Node4 -->
<g id="Node000004" class="node">
<title>Node4</title>
<g id="a_Node000004"><a xlink:href="classDebugDisplay.html#ac9467725d063c4814a79923d00eee04a" target="_top" xlink:title=" ">
<polygon fill="white" stroke="#666666" points="158,-24.5 0,-24.5 0,-5.5 158,-5.5 158,-24.5"/>
<text text-anchor="middle" x="79" y="-12.5" font-family="Helvetica,sans-Serif" font-size="10.00">DebugDisplay::DebugDisplay</text>
</a>
</g>
</g>
<!-- Node3&#45;&gt;Node4 -->
<g id="edge3_Node000003_Node000004" class="edge">
<title>Node3&#45;&gt;Node4</title>
<g id="a_edge3_Node000003_Node000004"><a xlink:title=" ">
<path fill="none" stroke="#63b8ff" d="M183.5,-15C175.03,-15 166.46,-15 158.08,-15"/>
<polygon fill="#63b8ff" stroke="#63b8ff" points="183.76,-18.5 193.76,-15 183.76,-11.5 183.76,-18.5"/>
</a>
</g>
</g>
</g>
</svg>
