<?xml version="1.0" encoding="UTF-8" standalone="no"?>
<!DOCTYPE svg PUBLIC "-//W3C//DTD SVG 1.1//EN"
 "http://www.w3.org/Graphics/SVG/1.1/DTD/svg11.dtd">
<!-- Generated by graphviz version 2.43.0 (0)
 -->
<!-- Title: PressureTanksModel::pressureSettingChanged Pages: 1 -->
<svg width="818pt" height="122pt"
 viewBox="0.00 0.00 818.00 121.50" xmlns="http://www.w3.org/2000/svg" xmlns:xlink="http://www.w3.org/1999/xlink">
<g id="graph0" class="graph" transform="scale(1 1) rotate(0) translate(4 117.5)">
<title>PressureTanksModel::pressureSettingChanged</title>
<!-- Node1 -->
<g id="Node000001" class="node">
<title>Node1</title>
<g id="a_Node000001"><a xlink:title=" ">
<polygon fill="#999999" stroke="#666666" points="810,-62.5 668,-62.5 668,-32.5 810,-32.5 810,-62.5"/>
<text text-anchor="start" x="676" y="-50.5" font-family="Helvetica,sans-Serif" font-size="10.00">PressureTanksModel</text>
<text text-anchor="middle" x="739" y="-39.5" font-family="Helvetica,sans-Serif" font-size="10.00">::pressureSettingChanged</text>
</a>
</g>
</g>
<!-- Node2 -->
<g id="Node000002" class="node">
<title>Node2</title>
<g id="a_Node000002"><a xlink:href="classPressureTanksModel.html#a8912c60be7aadfe6ff24fa9a52ce839e" target="_top" xlink:title=" ">
<polygon fill="white" stroke="#666666" points="578,-89.5 462,-89.5 462,-59.5 578,-59.5 578,-89.5"/>
<text text-anchor="start" x="470" y="-77.5" font-family="Helvetica,sans-Serif" font-size="10.00">PressureTanksModel</text>
<text text-anchor="middle" x="520" y="-66.5" font-family="Helvetica,sans-Serif" font-size="10.00">::setPressureSetting</text>
</a>
</g>
</g>
<!-- Node1&#45;&gt;Node2 -->
<g id="edge1_Node000001_Node000002" class="edge">
<title>Node1&#45;&gt;Node2</title>
<g id="a_edge1_Node000001_Node000002"><a xlink:title=" ">
<path fill="none" stroke="#63b8ff" d="M657.85,-57.47C631.43,-60.76 602.6,-64.35 578.24,-67.38"/>
<polygon fill="#63b8ff" stroke="#63b8ff" points="658.35,-60.94 667.85,-56.23 657.49,-53.99 658.35,-60.94"/>
</a>
</g>
</g>
<!-- Node6 -->
<g id="Node000006" class="node">
<title>Node6</title>
<g id="a_Node000006"><a xlink:href="classTankPressureSettingsIndicatorViewModel.html#abd7ce52bdceeefb3bdf1e2b446b83039" target="_top" xlink:title=" ">
<polygon fill="white" stroke="#666666" points="632,-41 408,-41 408,0 632,0 632,-41"/>
<text text-anchor="start" x="416" y="-29" font-family="Helvetica,sans-Serif" font-size="10.00">TankPressureSettingsIndicator</text>
<text text-anchor="start" x="416" y="-18" font-family="Helvetica,sans-Serif" font-size="10.00">ViewModel::TankPressureSettingsIndicator</text>
<text text-anchor="middle" x="520" y="-7" font-family="Helvetica,sans-Serif" font-size="10.00">ViewModel</text>
</a>
</g>
</g>
<!-- Node1&#45;&gt;Node6 -->
<g id="edge5_Node000001_Node000006" class="edge">
<title>Node1&#45;&gt;Node6</title>
<g id="a_edge5_Node000001_Node000006"><a xlink:title=" ">
<path fill="none" stroke="#63b8ff" d="M657.82,-37.52C649.49,-36.49 640.92,-35.42 632.33,-34.35"/>
<polygon fill="#63b8ff" stroke="#63b8ff" points="657.49,-41.01 667.85,-38.77 658.35,-34.06 657.49,-41.01"/>
</a>
</g>
</g>
<!-- Node3 -->
<g id="Node000003" class="node">
<title>Node3</title>
<g id="a_Node000003"><a xlink:href="classTankPressureControlerViewModel.html#aa2dc1cfd9ff5c8749af588c48c7b1cfc" target="_top" xlink:title=" ">
<polygon fill="white" stroke="#666666" points="372,-113.5 189,-113.5 189,-83.5 372,-83.5 372,-113.5"/>
<text text-anchor="start" x="197" y="-101.5" font-family="Helvetica,sans-Serif" font-size="10.00">TankPressureControlerView</text>
<text text-anchor="middle" x="280.5" y="-90.5" font-family="Helvetica,sans-Serif" font-size="10.00">Model::onPressureSettingSelected</text>
</a>
</g>
</g>
<!-- Node2&#45;&gt;Node3 -->
<g id="edge2_Node000002_Node000003" class="edge">
<title>Node2&#45;&gt;Node3</title>
<g id="a_edge2_Node000002_Node000003"><a xlink:title=" ">
<path fill="none" stroke="#63b8ff" d="M451.8,-81.29C427.02,-83.79 398.53,-86.67 372.03,-89.35"/>
<polygon fill="#63b8ff" stroke="#63b8ff" points="452.21,-84.77 461.81,-80.28 451.51,-77.8 452.21,-84.77"/>
</a>
</g>
</g>
<!-- Node4 -->
<g id="Node000004" class="node">
<title>Node4</title>
<g id="a_Node000004"><a xlink:href="classTankPressureControlerViewModel.html#a01a9540dffc987727660be34ed1c3b77" target="_top" xlink:title=" ">
<polygon fill="white" stroke="#666666" points="367,-65.5 194,-65.5 194,-35.5 367,-35.5 367,-65.5"/>
<text text-anchor="start" x="202" y="-53.5" font-family="Helvetica,sans-Serif" font-size="10.00">TankPressureControlerView</text>
<text text-anchor="middle" x="280.5" y="-42.5" font-family="Helvetica,sans-Serif" font-size="10.00">Model::setPressureDefaultValue</text>
</a>
</g>
</g>
<!-- Node2&#45;&gt;Node4 -->
<g id="edge3_Node000002_Node000004" class="edge">
<title>Node2&#45;&gt;Node4</title>
<g id="a_edge3_Node000002_Node000004"><a xlink:title=" ">
<path fill="none" stroke="#63b8ff" d="M451.62,-67.69C425.45,-65.05 395.15,-61.98 367.43,-59.18"/>
<polygon fill="#63b8ff" stroke="#63b8ff" points="451.51,-71.2 461.81,-68.72 452.21,-64.23 451.51,-71.2"/>
</a>
</g>
</g>
<!-- Node5 -->
<g id="Node000005" class="node">
<title>Node5</title>
<g id="a_Node000005"><a xlink:href="classTankPressureControlFrame.html#a58729819e5149e1b7c0c4648d2f728db" target="_top" xlink:title=" ">
<polygon fill="white" stroke="#666666" points="153,-65.5 0,-65.5 0,-35.5 153,-35.5 153,-65.5"/>
<text text-anchor="start" x="8" y="-53.5" font-family="Helvetica,sans-Serif" font-size="10.00">TankPressureControlFrame</text>
<text text-anchor="middle" x="76.5" y="-42.5" font-family="Helvetica,sans-Serif" font-size="10.00">::TankPressureControlFrame</text>
</a>
</g>
</g>
<!-- Node4&#45;&gt;Node5 -->
<g id="edge4_Node000004_Node000005" class="edge">
<title>Node4&#45;&gt;Node5</title>
<g id="a_edge4_Node000004_Node000005"><a xlink:title=" ">
<path fill="none" stroke="#63b8ff" d="M183.62,-50.5C173.36,-50.5 163.04,-50.5 153.06,-50.5"/>
<polygon fill="#63b8ff" stroke="#63b8ff" points="183.83,-54 193.83,-50.5 183.83,-47 183.83,-54"/>
</a>
</g>
</g>
</g>
</svg>
