<?xml version="1.0" encoding="UTF-8" standalone="no"?>
<!DOCTYPE svg PUBLIC "-//W3C//DTD SVG 1.1//EN"
 "http://www.w3.org/Graphics/SVG/1.1/DTD/svg11.dtd">
<!-- Generated by graphviz version 2.43.0 (0)
 -->
<!-- Title: GlowPlugSwitch::GlowPlugSwitch Pages: 1 -->
<svg width="863pt" height="338pt"
 viewBox="0.00 0.00 863.00 338.00" xmlns="http://www.w3.org/2000/svg" xmlns:xlink="http://www.w3.org/1999/xlink">
<g id="graph0" class="graph" transform="scale(1 1) rotate(0) translate(4 334)">
<title>GlowPlugSwitch::GlowPlugSwitch</title>
<!-- Node1 -->
<g id="Node000001" class="node">
<title>Node1</title>
<g id="a_Node000001"><a xlink:title=" ">
<polygon fill="#999999" stroke="#666666" points="146,-73 0,-73 0,-43 146,-43 146,-73"/>
<text text-anchor="start" x="8" y="-61" font-family="Helvetica,sans-Serif" font-size="10.00">GlowPlugSwitch::GlowPlug</text>
<text text-anchor="middle" x="73" y="-50" font-family="Helvetica,sans-Serif" font-size="10.00">Switch</text>
</a>
</g>
</g>
<!-- Node2 -->
<g id="Node000002" class="node">
<title>Node2</title>
<g id="a_Node000002"><a xlink:href="classActuatorSwitchWidget.html#af9fbb6ab5d0db3b3f6d6db92c7321f5b" target="_top" xlink:title=" ">
<polygon fill="white" stroke="#666666" points="316.5,-191 191.5,-191 191.5,-161 316.5,-161 316.5,-191"/>
<text text-anchor="start" x="199.5" y="-179" font-family="Helvetica,sans-Serif" font-size="10.00">ActuatorSwitchWidget</text>
<text text-anchor="middle" x="254" y="-168" font-family="Helvetica,sans-Serif" font-size="10.00">::display</text>
</a>
</g>
</g>
<!-- Node1&#45;&gt;Node2 -->
<g id="edge1_Node000001_Node000002" class="edge">
<title>Node1&#45;&gt;Node2</title>
<g id="a_edge1_Node000001_Node000002"><a xlink:title=" ">
<path fill="none" stroke="#63b8ff" d="M97.03,-73.18C128.72,-94.07 185.87,-131.74 221.49,-155.23"/>
<polygon fill="#63b8ff" stroke="#63b8ff" points="219.78,-158.29 230.05,-160.87 223.63,-152.45 219.78,-158.29"/>
</a>
</g>
</g>
<!-- Node13 -->
<g id="Node000013" class="node">
<title>Node13</title>
<g id="a_Node000013"><a xlink:href="classActuatorSwitchViewModel.html#ab4c09aa374e91472f687b5c0c4374548" target="_top" xlink:title=" ">
<polygon fill="white" stroke="#666666" points="508.5,-52 364.5,-52 364.5,-22 508.5,-22 508.5,-52"/>
<text text-anchor="start" x="372.5" y="-40" font-family="Helvetica,sans-Serif" font-size="10.00">ActuatorSwitchViewModel</text>
<text text-anchor="middle" x="436.5" y="-29" font-family="Helvetica,sans-Serif" font-size="10.00">::setStatus</text>
</a>
</g>
</g>
<!-- Node1&#45;&gt;Node13 -->
<g id="edge14_Node000001_Node000013" class="edge">
<title>Node1&#45;&gt;Node13</title>
<g id="a_edge14_Node000001_Node000013"><a xlink:title=" ">
<path fill="none" stroke="#63b8ff" d="M146.29,-53.8C206.3,-50.31 291.64,-45.36 354.06,-41.73"/>
<polygon fill="#63b8ff" stroke="#63b8ff" points="354.48,-45.21 364.26,-41.14 354.08,-38.22 354.48,-45.21"/>
</a>
</g>
</g>
<!-- Node14 -->
<g id="Node000014" class="node">
<title>Node14</title>
<g id="a_Node000014"><a xlink:href="classActuatorSwitchViewModel.html#a4fa61faec85a1b3faec129ddfa4cea77" target="_top" xlink:title=" ">
<polygon fill="white" stroke="#666666" points="326,-30 182,-30 182,0 326,0 326,-30"/>
<text text-anchor="start" x="190" y="-18" font-family="Helvetica,sans-Serif" font-size="10.00">ActuatorSwitchViewModel</text>
<text text-anchor="middle" x="254" y="-7" font-family="Helvetica,sans-Serif" font-size="10.00">::setStatusTexts</text>
</a>
</g>
</g>
<!-- Node1&#45;&gt;Node14 -->
<g id="edge17_Node000001_Node000014" class="edge">
<title>Node1&#45;&gt;Node14</title>
<g id="a_edge17_Node000001_Node000014"><a xlink:title=" ">
<path fill="none" stroke="#63b8ff" d="M136.61,-42.96C150.78,-39.56 165.94,-35.91 180.48,-32.42"/>
<polygon fill="#63b8ff" stroke="#63b8ff" points="181.52,-35.77 190.43,-30.03 179.89,-28.96 181.52,-35.77"/>
</a>
</g>
</g>
<!-- Node3 -->
<g id="Node000003" class="node">
<title>Node3</title>
<g id="a_Node000003"><a xlink:href="classActuatorSwitchViewModel.html#ac7d234b190065d18a12df125de8834bc" target="_top" xlink:title=" ">
<polygon fill="white" stroke="#666666" points="508.5,-330 364.5,-330 364.5,-300 508.5,-300 508.5,-330"/>
<text text-anchor="start" x="372.5" y="-318" font-family="Helvetica,sans-Serif" font-size="10.00">ActuatorSwitchViewModel</text>
<text text-anchor="middle" x="436.5" y="-307" font-family="Helvetica,sans-Serif" font-size="10.00">::disable</text>
</a>
</g>
</g>
<!-- Node2&#45;&gt;Node3 -->
<g id="edge2_Node000002_Node000003" class="edge">
<title>Node2&#45;&gt;Node3</title>
<g id="a_edge2_Node000002_Node000003"><a xlink:title=" ">
<path fill="none" stroke="#63b8ff" d="M265.32,-191.36C282.54,-215.88 319.49,-263.84 362,-291 364.58,-292.65 367.27,-294.19 370.05,-295.63"/>
<polygon fill="#63b8ff" stroke="#63b8ff" points="368.62,-298.82 379.15,-299.92 371.6,-292.49 368.62,-298.82"/>
</a>
</g>
</g>
<!-- Node6 -->
<g id="Node000006" class="node">
<title>Node6</title>
<g id="a_Node000006"><a xlink:href="classActuatorSwitchViewModel.html#ad30eea0fa195ce8ceb374c6d72e93be9" target="_top" xlink:title=" ">
<polygon fill="white" stroke="#666666" points="508.5,-234 364.5,-234 364.5,-204 508.5,-204 508.5,-234"/>
<text text-anchor="start" x="372.5" y="-222" font-family="Helvetica,sans-Serif" font-size="10.00">ActuatorSwitchViewModel</text>
<text text-anchor="middle" x="436.5" y="-211" font-family="Helvetica,sans-Serif" font-size="10.00">::enable</text>
</a>
</g>
</g>
<!-- Node2&#45;&gt;Node6 -->
<g id="edge5_Node000002_Node000006" class="edge">
<title>Node2&#45;&gt;Node6</title>
<g id="a_edge5_Node000002_Node000006"><a xlink:title=" ">
<path fill="none" stroke="#63b8ff" d="M316.61,-190.68C331.36,-194.19 347.24,-197.97 362.45,-201.6"/>
<polygon fill="#63b8ff" stroke="#63b8ff" points="361.78,-205.04 372.32,-203.95 363.41,-198.23 361.78,-205.04"/>
</a>
</g>
</g>
<!-- Node7 -->
<g id="Node000007" class="node">
<title>Node7</title>
<g id="a_Node000007"><a xlink:href="classActuatorSwitchViewModel.html#a15d5e4d185627320177372f1f5402c29" target="_top" xlink:title=" ">
<polygon fill="white" stroke="#666666" points="508.5,-148 364.5,-148 364.5,-118 508.5,-118 508.5,-148"/>
<text text-anchor="start" x="372.5" y="-136" font-family="Helvetica,sans-Serif" font-size="10.00">ActuatorSwitchViewModel</text>
<text text-anchor="middle" x="436.5" y="-125" font-family="Helvetica,sans-Serif" font-size="10.00">::initialise</text>
</a>
</g>
</g>
<!-- Node2&#45;&gt;Node7 -->
<g id="edge7_Node000002_Node000007" class="edge">
<title>Node2&#45;&gt;Node7</title>
<g id="a_edge7_Node000002_Node000007"><a xlink:title=" ">
<path fill="none" stroke="#63b8ff" d="M316.61,-161.32C331.36,-157.81 347.24,-154.03 362.45,-150.4"/>
<polygon fill="#63b8ff" stroke="#63b8ff" points="363.41,-153.77 372.32,-148.05 361.78,-146.96 363.41,-153.77"/>
</a>
</g>
</g>
<!-- Node8 -->
<g id="Node000008" class="node">
<title>Node8</title>
<g id="a_Node000008"><a xlink:href="classActuatorSwitchViewModel.html#a3bbde8da90b8046f19e61bf927ca500d" target="_top" xlink:title=" ">
<polygon fill="white" stroke="#666666" points="691,-148 547,-148 547,-118 691,-118 691,-148"/>
<text text-anchor="start" x="555" y="-136" font-family="Helvetica,sans-Serif" font-size="10.00">ActuatorSwitchViewModel</text>
<text text-anchor="middle" x="619" y="-125" font-family="Helvetica,sans-Serif" font-size="10.00">::statusChanged</text>
</a>
</g>
</g>
<!-- Node2&#45;&gt;Node8 -->
<g id="edge13_Node000002_Node000008" class="edge">
<title>Node2&#45;&gt;Node8</title>
<g id="a_edge13_Node000002_Node000008"><a xlink:title=" ">
<path fill="none" stroke="#63b8ff" d="M316.57,-173.96C368.6,-171.64 444.98,-166.8 511,-157 523.18,-155.19 536.05,-152.76 548.46,-150.15"/>
<polygon fill="#63b8ff" stroke="#63b8ff" points="549.27,-153.55 558.3,-148.01 547.79,-146.71 549.27,-153.55"/>
</a>
</g>
</g>
<!-- Node9 -->
<g id="Node000009" class="node">
<title>Node9</title>
<g id="a_Node000009"><a xlink:href="classActuatorSwitchViewModel.html#a166e3b6ceb009e6c088837c83b6ca62a" target="_top" xlink:title=" ">
<polygon fill="white" stroke="#666666" points="508.5,-282 364.5,-282 364.5,-252 508.5,-252 508.5,-282"/>
<text text-anchor="start" x="372.5" y="-270" font-family="Helvetica,sans-Serif" font-size="10.00">ActuatorSwitchViewModel</text>
<text text-anchor="middle" x="436.5" y="-259" font-family="Helvetica,sans-Serif" font-size="10.00">::name</text>
</a>
</g>
</g>
<!-- Node2&#45;&gt;Node9 -->
<g id="edge9_Node000002_Node000009" class="edge">
<title>Node2&#45;&gt;Node9</title>
<g id="a_edge9_Node000002_Node000009"><a xlink:title=" ">
<path fill="none" stroke="#63b8ff" d="M275.85,-191.21C296.8,-205.96 330.43,-228.23 362,-243 366.01,-244.87 370.2,-246.66 374.46,-248.36"/>
<polygon fill="#63b8ff" stroke="#63b8ff" points="373.28,-251.65 383.87,-251.92 375.76,-245.11 373.28,-251.65"/>
</a>
</g>
</g>
<!-- Node10 -->
<g id="Node000010" class="node">
<title>Node10</title>
<g id="a_Node000010"><a xlink:href="classActuatorSwitchWidget.html#a8eaf017f8cd7fcdc7e144fdfe7a2778b" target="_top" xlink:title=" ">
<polygon fill="white" stroke="#666666" points="511,-100 362,-100 362,-70 511,-70 511,-100"/>
<text text-anchor="start" x="370" y="-88" font-family="Helvetica,sans-Serif" font-size="10.00">ActuatorSwitchWidget</text>
<text text-anchor="middle" x="436.5" y="-77" font-family="Helvetica,sans-Serif" font-size="10.00">::onActuatorStatusChanged</text>
</a>
</g>
</g>
<!-- Node2&#45;&gt;Node10 -->
<g id="edge10_Node000002_Node000010" class="edge">
<title>Node2&#45;&gt;Node10</title>
<g id="a_edge10_Node000002_Node000010"><a xlink:title=" ">
<path fill="none" stroke="#63b8ff" d="M275.85,-160.79C296.8,-146.04 330.43,-123.77 362,-109 366.01,-107.13 370.2,-105.34 374.46,-103.64"/>
<polygon fill="#63b8ff" stroke="#63b8ff" points="375.76,-106.89 383.87,-100.08 373.28,-100.35 375.76,-106.89"/>
</a>
</g>
</g>
<!-- Node4 -->
<g id="Node000004" class="node">
<title>Node4</title>
<g id="a_Node000004"><a xlink:href="classUdpChannel.html#a439664ce9bf094d21d0234a1943dfc07" target="_top" xlink:title="Send data via UDP to other devices.">
<polygon fill="white" stroke="#666666" points="683,-276.5 555,-276.5 555,-257.5 683,-257.5 683,-276.5"/>
<text text-anchor="middle" x="619" y="-264.5" font-family="Helvetica,sans-Serif" font-size="10.00">UdpChannel::sendData</text>
</a>
</g>
</g>
<!-- Node3&#45;&gt;Node4 -->
<g id="edge3_Node000003_Node000004" class="edge">
<title>Node3&#45;&gt;Node4</title>
<g id="a_edge3_Node000003_Node000004"><a xlink:title=" ">
<path fill="none" stroke="#63b8ff" d="M494.12,-299.94C519.27,-293.26 548.48,-285.49 572.22,-279.17"/>
<polygon fill="#63b8ff" stroke="#63b8ff" points="573.27,-282.52 582.03,-276.56 571.47,-275.75 573.27,-282.52"/>
</a>
</g>
</g>
<!-- Node5 -->
<g id="Node000005" class="node">
<title>Node5</title>
<g id="a_Node000005"><a xlink:href="classProtocolCodec.html#a7d9ae5526622c37b683d418fd9f800c4" target="_top" xlink:title=" ">
<polygon fill="white" stroke="#666666" points="855,-276.5 727,-276.5 727,-257.5 855,-257.5 855,-276.5"/>
<text text-anchor="middle" x="791" y="-264.5" font-family="Helvetica,sans-Serif" font-size="10.00">ProtocolCodec::encode</text>
</a>
</g>
</g>
<!-- Node4&#45;&gt;Node5 -->
<g id="edge4_Node000004_Node000005" class="edge">
<title>Node4&#45;&gt;Node5</title>
<g id="a_edge4_Node000004_Node000005"><a xlink:title=" ">
<path fill="none" stroke="#63b8ff" d="M683.3,-267C694.22,-267 705.64,-267 716.79,-267"/>
<polygon fill="#63b8ff" stroke="#63b8ff" points="716.93,-270.5 726.93,-267 716.93,-263.5 716.93,-270.5"/>
</a>
</g>
</g>
<!-- Node6&#45;&gt;Node4 -->
<g id="edge6_Node000006_Node000004" class="edge">
<title>Node6&#45;&gt;Node4</title>
<g id="a_edge6_Node000006_Node000004"><a xlink:title=" ">
<path fill="none" stroke="#63b8ff" d="M494.12,-234.06C519.27,-240.74 548.48,-248.51 572.22,-254.83"/>
<polygon fill="#63b8ff" stroke="#63b8ff" points="571.47,-258.25 582.03,-257.44 573.27,-251.48 571.47,-258.25"/>
</a>
</g>
</g>
<!-- Node7&#45;&gt;Node8 -->
<g id="edge8_Node000007_Node000008" class="edge">
<title>Node7&#45;&gt;Node8</title>
<g id="a_edge8_Node000007_Node000008"><a xlink:title=" ">
<path fill="none" stroke="#63b8ff" d="M508.58,-133C517.85,-133 527.41,-133 536.83,-133"/>
<polygon fill="#63b8ff" stroke="#63b8ff" points="536.99,-136.5 546.99,-133 536.99,-129.5 536.99,-136.5"/>
</a>
</g>
</g>
<!-- Node11 -->
<g id="Node000011" class="node">
<title>Node11</title>
<g id="a_Node000011"><a xlink:href="classActuatorSwitchViewModel.html#a7aaf2fb748566dee79c0bd0945fcc51b" target="_top" xlink:title=" ">
<polygon fill="white" stroke="#666666" points="691,-52 547,-52 547,-22 691,-22 691,-52"/>
<text text-anchor="start" x="555" y="-40" font-family="Helvetica,sans-Serif" font-size="10.00">ActuatorSwitchViewModel</text>
<text text-anchor="middle" x="619" y="-29" font-family="Helvetica,sans-Serif" font-size="10.00">::status</text>
</a>
</g>
</g>
<!-- Node10&#45;&gt;Node11 -->
<g id="edge11_Node000010_Node000011" class="edge">
<title>Node10&#45;&gt;Node11</title>
<g id="a_edge11_Node000010_Node000011"><a xlink:title=" ">
<path fill="none" stroke="#63b8ff" d="M494.12,-69.94C512.43,-65.07 532.9,-59.63 551.84,-54.59"/>
<polygon fill="#63b8ff" stroke="#63b8ff" points="552.82,-57.95 561.58,-52 551.02,-51.19 552.82,-57.95"/>
</a>
</g>
</g>
<!-- Node12 -->
<g id="Node000012" class="node">
<title>Node12</title>
<g id="a_Node000012"><a xlink:href="classActuatorSwitchViewModel.html#a2461315c8f0335feb9a6f33b94e23734" target="_top" xlink:title=" ">
<polygon fill="white" stroke="#666666" points="691,-100 547,-100 547,-70 691,-70 691,-100"/>
<text text-anchor="start" x="555" y="-88" font-family="Helvetica,sans-Serif" font-size="10.00">ActuatorSwitchViewModel</text>
<text text-anchor="middle" x="619" y="-77" font-family="Helvetica,sans-Serif" font-size="10.00">::statusColor</text>
</a>
</g>
</g>
<!-- Node10&#45;&gt;Node12 -->
<g id="edge12_Node000010_Node000012" class="edge">
<title>Node10&#45;&gt;Node12</title>
<g id="a_edge12_Node000010_Node000012"><a xlink:title=" ">
<path fill="none" stroke="#63b8ff" d="M511.18,-85C519.56,-85 528.15,-85 536.62,-85"/>
<polygon fill="#63b8ff" stroke="#63b8ff" points="536.89,-88.5 546.89,-85 536.89,-81.5 536.89,-88.5"/>
</a>
</g>
</g>
<!-- Node13&#45;&gt;Node8 -->
<g id="edge16_Node000013_Node000008" class="edge">
<title>Node13&#45;&gt;Node8</title>
<g id="a_edge16_Node000013_Node000008"><a xlink:title=" ">
<path fill="none" stroke="#63b8ff" d="M495.35,-52.04C500.88,-54.6 506.2,-57.56 511,-61 532.68,-76.53 525.4,-93.36 547,-109 549.07,-110.5 551.25,-111.92 553.5,-113.24"/>
<polygon fill="#63b8ff" stroke="#63b8ff" points="552,-116.41 562.48,-117.96 555.25,-110.21 552,-116.41"/>
</a>
</g>
</g>
<!-- Node13&#45;&gt;Node11 -->
<g id="edge15_Node000013_Node000011" class="edge">
<title>Node13&#45;&gt;Node11</title>
<g id="a_edge15_Node000013_Node000011"><a xlink:title=" ">
<path fill="none" stroke="#63b8ff" d="M508.58,-37C517.85,-37 527.41,-37 536.83,-37"/>
<polygon fill="#63b8ff" stroke="#63b8ff" points="536.99,-40.5 546.99,-37 536.99,-33.5 536.99,-40.5"/>
</a>
</g>
</g>
<!-- Node14&#45;&gt;Node11 -->
<g id="edge19_Node000014_Node000011" class="edge">
<title>Node14&#45;&gt;Node11</title>
<g id="a_edge19_Node000014_Node000011"><a xlink:title=" ">
<path fill="none" stroke="#63b8ff" d="M326.13,-9.96C377.63,-7.4 448.82,-6.11 511,-13 524.27,-14.47 538.3,-16.94 551.67,-19.74"/>
<polygon fill="#63b8ff" stroke="#63b8ff" points="551.24,-23.23 561.75,-21.94 552.73,-16.39 551.24,-23.23"/>
</a>
</g>
</g>
<!-- Node14&#45;&gt;Node13 -->
<g id="edge18_Node000014_Node000013" class="edge">
<title>Node14&#45;&gt;Node13</title>
<g id="a_edge18_Node000014_Node000013"><a xlink:title=" ">
<path fill="none" stroke="#63b8ff" d="M326.08,-23.66C335.35,-24.79 344.91,-25.96 354.33,-27.11"/>
<polygon fill="#63b8ff" stroke="#63b8ff" points="354.14,-30.61 364.49,-28.34 354.98,-23.66 354.14,-30.61"/>
</a>
</g>
</g>
</g>
</svg>
