<?xml version="1.0" encoding="UTF-8" standalone="no"?>
<!DOCTYPE svg PUBLIC "-//W3C//DTD SVG 1.1//EN"
 "http://www.w3.org/Graphics/SVG/1.1/DTD/svg11.dtd">
<!-- Generated by graphviz version 2.43.0 (0)
 -->
<!-- Title: ActuatorSwitchWidget Pages: 1 -->
<svg width="222pt" height="407pt"
 viewBox="0.00 0.00 221.50 407.00" xmlns="http://www.w3.org/2000/svg" xmlns:xlink="http://www.w3.org/1999/xlink">
<g id="graph0" class="graph" transform="scale(1 1) rotate(0) translate(4 403)">
<title>ActuatorSwitchWidget</title>
<!-- Node1 -->
<g id="Node000001" class="node">
<title>Node1</title>
<g id="a_Node000001"><a xlink:title=" ">
<polygon fill="#999999" stroke="transparent" points="189.5,-314 33.5,-314 33.5,-85 189.5,-85 189.5,-314"/>
<text text-anchor="start" x="57" y="-301.5" font-family="Helvetica,sans-Serif" font-size="10.00">ActuatorSwitchWidget</text>
<text text-anchor="start" x="37.5" y="-286.5" font-family="Helvetica,sans-Serif" font-size="10.00">#</text>
<text text-anchor="start" x="50.5" y="-286.5" font-family="Helvetica,sans-Serif" font-size="10.00">m_vm</text>
<text text-anchor="start" x="37.5" y="-271.5" font-family="Helvetica,sans-Serif" font-size="10.00">#</text>
<text text-anchor="start" x="50.5" y="-271.5" font-family="Helvetica,sans-Serif" font-size="10.00">m_title</text>
<text text-anchor="start" x="37.5" y="-256.5" font-family="Helvetica,sans-Serif" font-size="10.00">#</text>
<text text-anchor="start" x="50.5" y="-256.5" font-family="Helvetica,sans-Serif" font-size="10.00">m_statusIndicator</text>
<text text-anchor="start" x="37.5" y="-241.5" font-family="Helvetica,sans-Serif" font-size="10.00">#</text>
<text text-anchor="start" x="50.5" y="-241.5" font-family="Helvetica,sans-Serif" font-size="10.00">m_defaultStatusIndicator</text>
<text text-anchor="start" x="37.5" y="-226.5" font-family="Helvetica,sans-Serif" font-size="10.00">#</text>
<text text-anchor="start" x="50.5" y="-226.5" font-family="Helvetica,sans-Serif" font-size="10.00">m_enableButton</text>
<text text-anchor="start" x="37.5" y="-211.5" font-family="Helvetica,sans-Serif" font-size="10.00">#</text>
<text text-anchor="start" x="50.5" y="-211.5" font-family="Helvetica,sans-Serif" font-size="10.00">m_disableButton</text>
<text text-anchor="start" x="37.5" y="-196.5" font-family="Helvetica,sans-Serif" font-size="10.00">#</text>
<text text-anchor="start" x="50.5" y="-196.5" font-family="Helvetica,sans-Serif" font-size="10.00">m_size</text>
<text text-anchor="start" x="37.5" y="-181.5" font-family="Helvetica,sans-Serif" font-size="10.00">+</text>
<text text-anchor="start" x="50.5" y="-181.5" font-family="Helvetica,sans-Serif" font-size="10.00">ActuatorSwitchWidget()</text>
<text text-anchor="start" x="37.5" y="-166.5" font-family="Helvetica,sans-Serif" font-size="10.00">+</text>
<text text-anchor="start" x="50.5" y="-166.5" font-family="Helvetica,sans-Serif" font-size="10.00">viewModel()</text>
<text text-anchor="start" x="37.5" y="-151.5" font-family="Helvetica,sans-Serif" font-size="10.00">+</text>
<text text-anchor="start" x="50.5" y="-151.5" font-family="Helvetica,sans-Serif" font-size="10.00">sizeHint()</text>
<text text-anchor="start" x="37.5" y="-136.5" font-family="Helvetica,sans-Serif" font-size="10.00">+</text>
<text text-anchor="start" x="50.5" y="-136.5" font-family="Helvetica,sans-Serif" font-size="10.00">display()</text>
<text text-anchor="start" x="37.5" y="-121.5" font-family="Helvetica,sans-Serif" font-size="10.00">+</text>
<text text-anchor="start" x="50.5" y="-121.5" font-family="Helvetica,sans-Serif" font-size="10.00">setFixedSize()</text>
<text text-anchor="start" x="37.5" y="-106.5" font-family="Helvetica,sans-Serif" font-size="10.00">+</text>
<text text-anchor="start" x="50.5" y="-106.5" font-family="Helvetica,sans-Serif" font-size="10.00">setFont()</text>
<text text-anchor="start" x="37.5" y="-91.5" font-family="Helvetica,sans-Serif" font-size="10.00">+</text>
<text text-anchor="start" x="50.5" y="-91.5" font-family="Helvetica,sans-Serif" font-size="10.00">onActuatorStatusChanged()</text>
<polygon fill="#666666" stroke="#666666" points="33.5,-296.5 33.5,-296.5 189.5,-296.5 189.5,-296.5 33.5,-296.5"/>
<polygon fill="#666666" stroke="#666666" points="33.5,-191.5 33.5,-191.5 48.5,-191.5 48.5,-191.5 33.5,-191.5"/>
<polygon fill="#666666" stroke="#666666" points="48.5,-191.5 48.5,-191.5 189.5,-191.5 189.5,-191.5 48.5,-191.5"/>
<polygon fill="none" stroke="#666666" points="33.5,-85 33.5,-314 189.5,-314 189.5,-85 33.5,-85"/>
</a>
</g>
</g>
<!-- Node3 -->
<g id="Node000003" class="node">
<title>Node3</title>
<g id="a_Node000003"><a xlink:href="classGlowPlugSwitch.html" target="_top" xlink:title=" ">
<polygon fill="white" stroke="transparent" points="107,-49 0,-49 0,0 107,0 107,-49"/>
<text text-anchor="start" x="14.5" y="-36.5" font-family="Helvetica,sans-Serif" font-size="10.00">GlowPlugSwitch</text>
<text text-anchor="start" x="52" y="-21.5" font-family="Helvetica,sans-Serif" font-size="10.00"> </text>
<text text-anchor="start" x="4.5" y="-6.5" font-family="Helvetica,sans-Serif" font-size="10.00">+</text>
<text text-anchor="start" x="17.5" y="-6.5" font-family="Helvetica,sans-Serif" font-size="10.00">GlowPlugSwitch()</text>
<polygon fill="#666666" stroke="#666666" points="0.5,-31.5 0.5,-31.5 107.5,-31.5 107.5,-31.5 0.5,-31.5"/>
<polygon fill="#666666" stroke="#666666" points="0.5,-16.5 0.5,-16.5 107.5,-16.5 107.5,-16.5 0.5,-16.5"/>
<polygon fill="none" stroke="#666666" points="0,0 0,-49 107,-49 107,0 0,0"/>
</a>
</g>
</g>
<!-- Node1&#45;&gt;Node3 -->
<g id="edge2_Node000001_Node000003" class="edge">
<title>Node1&#45;&gt;Node3</title>
<g id="a_edge2_Node000001_Node000003"><a xlink:title=" ">
<path fill="none" stroke="#63b8ff" d="M70.03,-74.79C66.83,-65.26 63.88,-56.47 61.39,-49.03"/>
<polygon fill="none" stroke="#63b8ff" points="66.8,-76.18 73.3,-84.55 73.44,-73.96 66.8,-76.18"/>
</a>
</g>
</g>
<!-- Node4 -->
<g id="Node000004" class="node">
<title>Node4</title>
<g id="a_Node000004"><a xlink:href="classValveSwitch.html" target="_top" xlink:title=" ">
<polygon fill="white" stroke="transparent" points="213.5,-49 125.5,-49 125.5,0 213.5,0 213.5,-49"/>
<text text-anchor="start" x="139.5" y="-36.5" font-family="Helvetica,sans-Serif" font-size="10.00">ValveSwitch</text>
<text text-anchor="start" x="167.5" y="-21.5" font-family="Helvetica,sans-Serif" font-size="10.00"> </text>
<text text-anchor="start" x="129.5" y="-6.5" font-family="Helvetica,sans-Serif" font-size="10.00">+</text>
<text text-anchor="start" x="142.5" y="-6.5" font-family="Helvetica,sans-Serif" font-size="10.00">ValveSwitch()</text>
<polygon fill="#666666" stroke="#666666" points="125.5,-31.5 125.5,-31.5 213.5,-31.5 213.5,-31.5 125.5,-31.5"/>
<polygon fill="#666666" stroke="#666666" points="125.5,-16.5 125.5,-16.5 213.5,-16.5 213.5,-16.5 125.5,-16.5"/>
<polygon fill="none" stroke="#666666" points="125.5,0 125.5,-49 213.5,-49 213.5,0 125.5,0"/>
</a>
</g>
</g>
<!-- Node1&#45;&gt;Node4 -->
<g id="edge3_Node000001_Node000004" class="edge">
<title>Node1&#45;&gt;Node4</title>
<g id="a_edge3_Node000001_Node000004"><a xlink:title=" ">
<path fill="none" stroke="#63b8ff" d="M152.97,-74.79C156.17,-65.26 159.12,-56.47 161.61,-49.03"/>
<polygon fill="none" stroke="#63b8ff" points="149.56,-73.96 149.7,-84.55 156.2,-76.18 149.56,-73.96"/>
</a>
</g>
</g>
<!-- Node2 -->
<g id="Node000002" class="node">
<title>Node2</title>
<g id="a_Node000002"><a xlink:title=" ">
<polygon fill="white" stroke="transparent" points="136,-399 87,-399 87,-350 136,-350 136,-399"/>
<text text-anchor="start" x="92.5" y="-386.5" font-family="Helvetica,sans-Serif" font-size="10.00">QFrame</text>
<text text-anchor="start" x="110" y="-371.5" font-family="Helvetica,sans-Serif" font-size="10.00"> </text>
<text text-anchor="start" x="110" y="-356.5" font-family="Helvetica,sans-Serif" font-size="10.00"> </text>
<polygon fill="#666666" stroke="#666666" points="87.5,-381.5 87.5,-381.5 136.5,-381.5 136.5,-381.5 87.5,-381.5"/>
<polygon fill="#666666" stroke="#666666" points="87.5,-366.5 87.5,-366.5 136.5,-366.5 136.5,-366.5 87.5,-366.5"/>
<polygon fill="none" stroke="#666666" points="87,-350 87,-399 136,-399 136,-350 87,-350"/>
</a>
</g>
</g>
<!-- Node2&#45;&gt;Node1 -->
<g id="edge1_Node000001_Node000002" class="edge">
<title>Node2&#45;&gt;Node1</title>
<g id="a_edge1_Node000001_Node000002"><a xlink:title=" ">
<path fill="none" stroke="#63b8ff" d="M111.5,-339.77C111.5,-331.96 111.5,-323.21 111.5,-314.01"/>
<polygon fill="none" stroke="#63b8ff" points="108,-339.81 111.5,-349.81 115,-339.81 108,-339.81"/>
</a>
</g>
</g>
</g>
</svg>
