<?xml version="1.0" encoding="UTF-8" standalone="no"?>
<!DOCTYPE svg PUBLIC "-//W3C//DTD SVG 1.1//EN"
 "http://www.w3.org/Graphics/SVG/1.1/DTD/svg11.dtd">
<!-- Generated by graphviz version 2.43.0 (0)
 -->
<!-- Title: GlowPlugSwitch Pages: 1 -->
<svg width="789pt" height="2171pt"
 viewBox="0.00 0.00 789.00 2171.00" xmlns="http://www.w3.org/2000/svg" xmlns:xlink="http://www.w3.org/1999/xlink">
<g id="graph0" class="graph" transform="scale(1 1) rotate(0) translate(4 2167)">
<title>GlowPlugSwitch</title>
<!-- Node1 -->
<g id="Node000001" class="node">
<title>Node1</title>
<g id="a_Node000001"><a xlink:title=" ">
<polygon fill="#999999" stroke="transparent" points="131.5,-49 24.5,-49 24.5,0 131.5,0 131.5,-49"/>
<text text-anchor="start" x="39" y="-36.5" font-family="Helvetica,sans-Serif" font-size="10.00">GlowPlugSwitch</text>
<text text-anchor="start" x="76.5" y="-21.5" font-family="Helvetica,sans-Serif" font-size="10.00"> </text>
<text text-anchor="start" x="29" y="-6.5" font-family="Helvetica,sans-Serif" font-size="10.00">+</text>
<text text-anchor="start" x="42" y="-6.5" font-family="Helvetica,sans-Serif" font-size="10.00">GlowPlugSwitch()</text>
<polygon fill="#666666" stroke="#666666" points="25,-31.5 25,-31.5 132,-31.5 132,-31.5 25,-31.5"/>
<polygon fill="#666666" stroke="#666666" points="25,-16.5 25,-16.5 132,-16.5 132,-16.5 25,-16.5"/>
<polygon fill="none" stroke="#666666" points="24.5,0 24.5,-49 131.5,-49 131.5,0 24.5,0"/>
</a>
</g>
</g>
<!-- Node2 -->
<g id="Node000002" class="node">
<title>Node2</title>
<g id="a_Node000002"><a xlink:href="classActuatorSwitchWidget.html" target="_top" xlink:title=" ">
<polygon fill="white" stroke="transparent" points="156,-300 0,-300 0,-86 156,-86 156,-300"/>
<text text-anchor="start" x="23.5" y="-288" font-family="Helvetica,sans-Serif" font-size="10.00">ActuatorSwitchWidget</text>
<text text-anchor="start" x="4" y="-273" font-family="Helvetica,sans-Serif" font-size="10.00">#</text>
<text text-anchor="start" x="17" y="-273" font-family="Helvetica,sans-Serif" font-size="10.00">m_title</text>
<text text-anchor="start" x="4" y="-258" font-family="Helvetica,sans-Serif" font-size="10.00">#</text>
<text text-anchor="start" x="17" y="-258" font-family="Helvetica,sans-Serif" font-size="10.00">m_statusIndicator</text>
<text text-anchor="start" x="4" y="-243" font-family="Helvetica,sans-Serif" font-size="10.00">#</text>
<text text-anchor="start" x="17" y="-243" font-family="Helvetica,sans-Serif" font-size="10.00">m_defaultStatusIndicator</text>
<text text-anchor="start" x="4" y="-228" font-family="Helvetica,sans-Serif" font-size="10.00">#</text>
<text text-anchor="start" x="17" y="-228" font-family="Helvetica,sans-Serif" font-size="10.00">m_enableButton</text>
<text text-anchor="start" x="4" y="-213" font-family="Helvetica,sans-Serif" font-size="10.00">#</text>
<text text-anchor="start" x="17" y="-213" font-family="Helvetica,sans-Serif" font-size="10.00">m_disableButton</text>
<text text-anchor="start" x="4" y="-198" font-family="Helvetica,sans-Serif" font-size="10.00">#</text>
<text text-anchor="start" x="17" y="-198" font-family="Helvetica,sans-Serif" font-size="10.00">m_size</text>
<text text-anchor="start" x="4" y="-183" font-family="Helvetica,sans-Serif" font-size="10.00">+</text>
<text text-anchor="start" x="17" y="-183" font-family="Helvetica,sans-Serif" font-size="10.00">ActuatorSwitchWidget()</text>
<text text-anchor="start" x="4" y="-168" font-family="Helvetica,sans-Serif" font-size="10.00">+</text>
<text text-anchor="start" x="17" y="-168" font-family="Helvetica,sans-Serif" font-size="10.00">viewModel()</text>
<text text-anchor="start" x="4" y="-153" font-family="Helvetica,sans-Serif" font-size="10.00">+</text>
<text text-anchor="start" x="17" y="-153" font-family="Helvetica,sans-Serif" font-size="10.00">sizeHint()</text>
<text text-anchor="start" x="4" y="-138" font-family="Helvetica,sans-Serif" font-size="10.00">+</text>
<text text-anchor="start" x="17" y="-138" font-family="Helvetica,sans-Serif" font-size="10.00">display()</text>
<text text-anchor="start" x="4" y="-123" font-family="Helvetica,sans-Serif" font-size="10.00">+</text>
<text text-anchor="start" x="17" y="-123" font-family="Helvetica,sans-Serif" font-size="10.00">setFixedSize()</text>
<text text-anchor="start" x="4" y="-108" font-family="Helvetica,sans-Serif" font-size="10.00">+</text>
<text text-anchor="start" x="17" y="-108" font-family="Helvetica,sans-Serif" font-size="10.00">setFont()</text>
<text text-anchor="start" x="4" y="-93" font-family="Helvetica,sans-Serif" font-size="10.00">+</text>
<text text-anchor="start" x="17" y="-93" font-family="Helvetica,sans-Serif" font-size="10.00">onActuatorStatusChanged()</text>
<polygon fill="#666666" stroke="#666666" points="0,-283 0,-283 156,-283 156,-283 0,-283"/>
<polygon fill="#666666" stroke="#666666" points="0,-193 0,-193 15,-193 15,-193 0,-193"/>
<polygon fill="#666666" stroke="#666666" points="15,-193 15,-193 156,-193 156,-193 15,-193"/>
<polygon fill="none" stroke="#666666" points="0,-86 0,-300 156,-300 156,-86 0,-86"/>
</a>
</g>
</g>
<!-- Node2&#45;&gt;Node1 -->
<g id="edge1_Node000001_Node000002" class="edge">
<title>Node2&#45;&gt;Node1</title>
<g id="a_edge1_Node000001_Node000002"><a xlink:title=" ">
<path fill="none" stroke="#63b8ff" d="M78,-75.58C78,-65.76 78,-56.68 78,-49.02"/>
<polygon fill="none" stroke="#63b8ff" points="74.5,-75.61 78,-85.61 81.5,-75.61 74.5,-75.61"/>
</a>
</g>
</g>
<!-- Node3 -->
<g id="Node000003" class="node">
<title>Node3</title>
<g id="a_Node000003"><a xlink:title=" ">
<polygon fill="white" stroke="transparent" points="86.5,-523.5 37.5,-523.5 37.5,-474.5 86.5,-474.5 86.5,-523.5"/>
<text text-anchor="start" x="43" y="-511" font-family="Helvetica,sans-Serif" font-size="10.00">QFrame</text>
<text text-anchor="start" x="60.5" y="-496" font-family="Helvetica,sans-Serif" font-size="10.00"> </text>
<text text-anchor="start" x="60.5" y="-481" font-family="Helvetica,sans-Serif" font-size="10.00"> </text>
<polygon fill="#666666" stroke="#666666" points="38,-506 38,-506 87,-506 87,-506 38,-506"/>
<polygon fill="#666666" stroke="#666666" points="38,-491 38,-491 87,-491 87,-491 38,-491"/>
<polygon fill="none" stroke="#666666" points="37.5,-474.5 37.5,-523.5 86.5,-523.5 86.5,-474.5 37.5,-474.5"/>
</a>
</g>
</g>
<!-- Node3&#45;&gt;Node2 -->
<g id="edge2_Node000002_Node000003" class="edge">
<title>Node3&#45;&gt;Node2</title>
<g id="a_edge2_Node000002_Node000003"><a xlink:title=" ">
<path fill="none" stroke="#63b8ff" d="M63.77,-464.29C65.85,-424.9 69.38,-357.79 72.41,-300.29"/>
<polygon fill="none" stroke="#63b8ff" points="60.27,-464.23 63.24,-474.4 67.26,-464.6 60.27,-464.23"/>
</a>
</g>
</g>
<!-- Node4 -->
<g id="Node000004" class="node">
<title>Node4</title>
<g id="a_Node000004"><a xlink:href="classActuatorSwitchViewModel.html" target="_top" xlink:title=" ">
<polygon fill="white" stroke="transparent" points="261.5,-651 104.5,-651 104.5,-347 261.5,-347 261.5,-651"/>
<text text-anchor="start" x="119.5" y="-639" font-family="Helvetica,sans-Serif" font-size="10.00">ActuatorSwitchViewModel</text>
<text text-anchor="start" x="111.5" y="-624" font-family="Helvetica,sans-Serif" font-size="10.00">&#45;</text>
<text text-anchor="start" x="122" y="-624" font-family="Helvetica,sans-Serif" font-size="10.00">m_name</text>
<text text-anchor="start" x="111.5" y="-609" font-family="Helvetica,sans-Serif" font-size="10.00">&#45;</text>
<text text-anchor="start" x="122" y="-609" font-family="Helvetica,sans-Serif" font-size="10.00">m_status</text>
<text text-anchor="start" x="111.5" y="-594" font-family="Helvetica,sans-Serif" font-size="10.00">&#45;</text>
<text text-anchor="start" x="122" y="-594" font-family="Helvetica,sans-Serif" font-size="10.00">m_statusColor</text>
<text text-anchor="start" x="111.5" y="-579" font-family="Helvetica,sans-Serif" font-size="10.00">&#45;</text>
<text text-anchor="start" x="122" y="-579" font-family="Helvetica,sans-Serif" font-size="10.00">m_defaultStatus</text>
<text text-anchor="start" x="111.5" y="-564" font-family="Helvetica,sans-Serif" font-size="10.00">&#45;</text>
<text text-anchor="start" x="122" y="-564" font-family="Helvetica,sans-Serif" font-size="10.00">m_statusTexts</text>
<text text-anchor="start" x="111.5" y="-549" font-family="Helvetica,sans-Serif" font-size="10.00">&#45;</text>
<text text-anchor="start" x="122" y="-549" font-family="Helvetica,sans-Serif" font-size="10.00">m_statusID</text>
<text text-anchor="start" x="109" y="-534" font-family="Helvetica,sans-Serif" font-size="10.00">+</text>
<text text-anchor="start" x="122" y="-534" font-family="Helvetica,sans-Serif" font-size="10.00">ActuatorSwitchViewModel()</text>
<text text-anchor="start" x="109" y="-519" font-family="Helvetica,sans-Serif" font-size="10.00">+</text>
<text text-anchor="start" x="122" y="-519" font-family="Helvetica,sans-Serif" font-size="10.00">setName()</text>
<text text-anchor="start" x="109" y="-504" font-family="Helvetica,sans-Serif" font-size="10.00">+</text>
<text text-anchor="start" x="122" y="-504" font-family="Helvetica,sans-Serif" font-size="10.00">setStatus()</text>
<text text-anchor="start" x="109" y="-489" font-family="Helvetica,sans-Serif" font-size="10.00">+</text>
<text text-anchor="start" x="122" y="-489" font-family="Helvetica,sans-Serif" font-size="10.00">setDefaultStatus()</text>
<text text-anchor="start" x="109" y="-474" font-family="Helvetica,sans-Serif" font-size="10.00">+</text>
<text text-anchor="start" x="122" y="-474" font-family="Helvetica,sans-Serif" font-size="10.00">setStatusTexts()</text>
<text text-anchor="start" x="109" y="-459" font-family="Helvetica,sans-Serif" font-size="10.00">+</text>
<text text-anchor="start" x="122" y="-459" font-family="Helvetica,sans-Serif" font-size="10.00">name()</text>
<text text-anchor="start" x="109" y="-444" font-family="Helvetica,sans-Serif" font-size="10.00">+</text>
<text text-anchor="start" x="122" y="-444" font-family="Helvetica,sans-Serif" font-size="10.00">status()</text>
<text text-anchor="start" x="109" y="-429" font-family="Helvetica,sans-Serif" font-size="10.00">+</text>
<text text-anchor="start" x="122" y="-429" font-family="Helvetica,sans-Serif" font-size="10.00">statusColor()</text>
<text text-anchor="start" x="109" y="-414" font-family="Helvetica,sans-Serif" font-size="10.00">+</text>
<text text-anchor="start" x="122" y="-414" font-family="Helvetica,sans-Serif" font-size="10.00">defaultStatus()</text>
<text text-anchor="start" x="109" y="-399" font-family="Helvetica,sans-Serif" font-size="10.00">+</text>
<text text-anchor="start" x="122" y="-399" font-family="Helvetica,sans-Serif" font-size="10.00">initialise()</text>
<text text-anchor="start" x="109" y="-384" font-family="Helvetica,sans-Serif" font-size="10.00">+</text>
<text text-anchor="start" x="122" y="-384" font-family="Helvetica,sans-Serif" font-size="10.00">updateStatus()</text>
<text text-anchor="start" x="109" y="-369" font-family="Helvetica,sans-Serif" font-size="10.00">+</text>
<text text-anchor="start" x="122" y="-369" font-family="Helvetica,sans-Serif" font-size="10.00">enable()</text>
<text text-anchor="start" x="109" y="-354" font-family="Helvetica,sans-Serif" font-size="10.00">+</text>
<text text-anchor="start" x="122" y="-354" font-family="Helvetica,sans-Serif" font-size="10.00">disable()</text>
<polygon fill="#666666" stroke="#666666" points="105,-634 105,-634 262,-634 262,-634 105,-634"/>
<polygon fill="#666666" stroke="#666666" points="105,-544 105,-544 120,-544 120,-544 105,-544"/>
<polygon fill="#666666" stroke="#666666" points="120,-544 120,-544 262,-544 262,-544 120,-544"/>
<polygon fill="none" stroke="#666666" points="104.5,-347 104.5,-651 261.5,-651 261.5,-347 104.5,-347"/>
</a>
</g>
</g>
<!-- Node4&#45;&gt;Node2 -->
<g id="edge3_Node000002_Node000004" class="edge">
<title>Node4&#45;&gt;Node2</title>
<g id="a_edge3_Node000002_Node000004"><a xlink:title=" ">
<path fill="none" stroke="#63b8ff" d="M130.81,-346.89C126.72,-335.04 122.62,-323.19 118.62,-311.62"/>
<polygon fill="none" stroke="#63b8ff" points="118.58,-311.49 112.84,-307.12 114.66,-300.15 120.4,-304.51 118.58,-311.49"/>
</a>
</g>
<text text-anchor="middle" x="146.5" y="-321" font-family="Helvetica,sans-Serif" font-size="10.00" fill="grey"> #m_vm</text>
</g>
<!-- Node5 -->
<g id="Node000005" class="node">
<title>Node5</title>
<g id="a_Node000005"><a xlink:title=" ">
<polygon fill="white" stroke="transparent" points="307,-2163 257,-2163 257,-2114 307,-2114 307,-2163"/>
<text text-anchor="start" x="262" y="-2150.5" font-family="Helvetica,sans-Serif" font-size="10.00">QObject</text>
<text text-anchor="start" x="280" y="-2135.5" font-family="Helvetica,sans-Serif" font-size="10.00"> </text>
<text text-anchor="start" x="280" y="-2120.5" font-family="Helvetica,sans-Serif" font-size="10.00"> </text>
<polygon fill="#666666" stroke="#666666" points="257,-2145.5 257,-2145.5 307,-2145.5 307,-2145.5 257,-2145.5"/>
<polygon fill="#666666" stroke="#666666" points="257,-2130.5 257,-2130.5 307,-2130.5 307,-2130.5 257,-2130.5"/>
<polygon fill="none" stroke="#666666" points="257,-2114 257,-2163 307,-2163 307,-2114 257,-2114"/>
</a>
</g>
</g>
<!-- Node5&#45;&gt;Node4 -->
<g id="edge4_Node000004_Node000005" class="edge">
<title>Node5&#45;&gt;Node4</title>
<g id="a_edge4_Node000004_Node000005"><a xlink:title=" ">
<path fill="none" stroke="#63b8ff" d="M246.74,-2132.17C192.81,-2121.8 96,-2093.45 96,-2023.5 96,-2023.5 96,-2023.5 96,-774 96,-733.2 104.87,-690.51 116.95,-651.31"/>
<polygon fill="none" stroke="#63b8ff" points="246.45,-2135.68 256.92,-2134.01 247.7,-2128.79 246.45,-2135.68"/>
</a>
</g>
</g>
<!-- Node6 -->
<g id="Node000006" class="node">
<title>Node6</title>
<g id="a_Node000006"><a xlink:href="classTimer.html" target="_top" xlink:title=" ">
<polygon fill="white" stroke="transparent" points="228,-1950 112,-1950 112,-1826 228,-1826 228,-1950"/>
<text text-anchor="start" x="155.5" y="-1938" font-family="Helvetica,sans-Serif" font-size="10.00">Timer</text>
<text text-anchor="start" x="118.5" y="-1923" font-family="Helvetica,sans-Serif" font-size="10.00">&#45;</text>
<text text-anchor="start" x="129" y="-1923" font-family="Helvetica,sans-Serif" font-size="10.00">m_lastRefresh</text>
<text text-anchor="start" x="118.5" y="-1908" font-family="Helvetica,sans-Serif" font-size="10.00">&#45;</text>
<text text-anchor="start" x="129" y="-1908" font-family="Helvetica,sans-Serif" font-size="10.00">m_periodOfRefresh</text>
<text text-anchor="start" x="118.5" y="-1893" font-family="Helvetica,sans-Serif" font-size="10.00">&#45;</text>
<text text-anchor="start" x="129" y="-1893" font-family="Helvetica,sans-Serif" font-size="10.00">m_timer</text>
<text text-anchor="start" x="116" y="-1878" font-family="Helvetica,sans-Serif" font-size="10.00">+</text>
<text text-anchor="start" x="129" y="-1878" font-family="Helvetica,sans-Serif" font-size="10.00">Timer()</text>
<text text-anchor="start" x="116" y="-1863" font-family="Helvetica,sans-Serif" font-size="10.00">+</text>
<text text-anchor="start" x="129" y="-1863" font-family="Helvetica,sans-Serif" font-size="10.00">setFrequecy()</text>
<text text-anchor="start" x="116" y="-1848" font-family="Helvetica,sans-Serif" font-size="10.00">+</text>
<text text-anchor="start" x="129" y="-1848" font-family="Helvetica,sans-Serif" font-size="10.00">setPeriod()</text>
<text text-anchor="start" x="116" y="-1833" font-family="Helvetica,sans-Serif" font-size="10.00">+</text>
<text text-anchor="start" x="129" y="-1833" font-family="Helvetica,sans-Serif" font-size="10.00">frequencyHz()</text>
<polygon fill="#666666" stroke="#666666" points="112,-1933 112,-1933 228,-1933 228,-1933 112,-1933"/>
<polygon fill="#666666" stroke="#666666" points="112,-1888 112,-1888 127,-1888 127,-1888 112,-1888"/>
<polygon fill="#666666" stroke="#666666" points="127,-1888 127,-1888 228,-1888 228,-1888 127,-1888"/>
<polygon fill="none" stroke="#666666" points="112,-1826 112,-1950 228,-1950 228,-1826 112,-1826"/>
</a>
</g>
</g>
<!-- Node5&#45;&gt;Node6 -->
<g id="edge6_Node000006_Node000005" class="edge">
<title>Node5&#45;&gt;Node6</title>
<g id="a_edge6_Node000006_Node000005"><a xlink:title=" ">
<path fill="none" stroke="#63b8ff" d="M248.91,-2116.8C241.49,-2110.86 234.27,-2103.83 229,-2096 199.59,-2052.28 184.68,-1993.92 177.22,-1950.32"/>
<polygon fill="none" stroke="#63b8ff" points="246.84,-2119.63 256.95,-2122.81 251.03,-2114.02 246.84,-2119.63"/>
</a>
</g>
</g>
<!-- Node7 -->
<g id="Node000007" class="node">
<title>Node7</title>
<g id="a_Node000007"><a xlink:href="classUdpChannel.html" target="_top" xlink:title=" ">
<polygon fill="white" stroke="transparent" points="387.5,-1233 252.5,-1233 252.5,-899 387.5,-899 387.5,-1233"/>
<text text-anchor="start" x="290.5" y="-1221" font-family="Helvetica,sans-Serif" font-size="10.00">UdpChannel</text>
<text text-anchor="start" x="259.5" y="-1206" font-family="Helvetica,sans-Serif" font-size="10.00">&#45;</text>
<text text-anchor="start" x="270" y="-1206" font-family="Helvetica,sans-Serif" font-size="10.00">m_udpWorkerThread</text>
<text text-anchor="start" x="259.5" y="-1191" font-family="Helvetica,sans-Serif" font-size="10.00">&#45;</text>
<text text-anchor="start" x="270" y="-1191" font-family="Helvetica,sans-Serif" font-size="10.00">m_udpSocket</text>
<text text-anchor="start" x="259.5" y="-1176" font-family="Helvetica,sans-Serif" font-size="10.00">&#45;</text>
<text text-anchor="start" x="270" y="-1176" font-family="Helvetica,sans-Serif" font-size="10.00">m_remoteAddr</text>
<text text-anchor="start" x="259.5" y="-1161" font-family="Helvetica,sans-Serif" font-size="10.00">&#45;</text>
<text text-anchor="start" x="270" y="-1161" font-family="Helvetica,sans-Serif" font-size="10.00">m_remotePort</text>
<text text-anchor="start" x="259.5" y="-1146" font-family="Helvetica,sans-Serif" font-size="10.00">&#45;</text>
<text text-anchor="start" x="270" y="-1146" font-family="Helvetica,sans-Serif" font-size="10.00">m_localAddr</text>
<text text-anchor="start" x="259.5" y="-1131" font-family="Helvetica,sans-Serif" font-size="10.00">&#45;</text>
<text text-anchor="start" x="270" y="-1131" font-family="Helvetica,sans-Serif" font-size="10.00">m_localPort</text>
<text text-anchor="start" x="259.5" y="-1116" font-family="Helvetica,sans-Serif" font-size="10.00">&#45;</text>
<text text-anchor="start" x="270" y="-1116" font-family="Helvetica,sans-Serif" font-size="10.00">m_lastRefresh</text>
<text text-anchor="start" x="259.5" y="-1101" font-family="Helvetica,sans-Serif" font-size="10.00">&#45;</text>
<text text-anchor="start" x="270" y="-1101" font-family="Helvetica,sans-Serif" font-size="10.00">m_periodOfRefresh</text>
<text text-anchor="start" x="259.5" y="-1086" font-family="Helvetica,sans-Serif" font-size="10.00">&#45;</text>
<text text-anchor="start" x="270" y="-1086" font-family="Helvetica,sans-Serif" font-size="10.00">m_running</text>
<text text-anchor="start" x="257" y="-1071" font-family="Helvetica,sans-Serif" font-size="10.00">+</text>
<text text-anchor="start" x="270" y="-1071" font-family="Helvetica,sans-Serif" font-size="10.00">UdpChannel()</text>
<text text-anchor="start" x="257" y="-1056" font-family="Helvetica,sans-Serif" font-size="10.00">+</text>
<text text-anchor="start" x="270" y="-1056" font-family="Helvetica,sans-Serif" font-size="10.00">~UdpChannel()</text>
<text text-anchor="start" x="257" y="-1041" font-family="Helvetica,sans-Serif" font-size="10.00">+</text>
<text text-anchor="start" x="270" y="-1041" font-family="Helvetica,sans-Serif" font-size="10.00">startEndpoint()</text>
<text text-anchor="start" x="257" y="-1026" font-family="Helvetica,sans-Serif" font-size="10.00">+</text>
<text text-anchor="start" x="270" y="-1026" font-family="Helvetica,sans-Serif" font-size="10.00">stopEndpoint()</text>
<text text-anchor="start" x="257" y="-1011" font-family="Helvetica,sans-Serif" font-size="10.00">+</text>
<text text-anchor="start" x="270" y="-1011" font-family="Helvetica,sans-Serif" font-size="10.00">sendData()</text>
<text text-anchor="start" x="257" y="-996" font-family="Helvetica,sans-Serif" font-size="10.00">+</text>
<text text-anchor="start" x="270" y="-996" font-family="Helvetica,sans-Serif" font-size="10.00">running()</text>
<text text-anchor="start" x="257" y="-981" font-family="Helvetica,sans-Serif" font-size="10.00">+</text>
<text text-anchor="start" x="270" y="-981" font-family="Helvetica,sans-Serif" font-size="10.00">remoteAddr()</text>
<text text-anchor="start" x="257" y="-966" font-family="Helvetica,sans-Serif" font-size="10.00">+</text>
<text text-anchor="start" x="270" y="-966" font-family="Helvetica,sans-Serif" font-size="10.00">remotePort()</text>
<text text-anchor="start" x="257" y="-951" font-family="Helvetica,sans-Serif" font-size="10.00">+</text>
<text text-anchor="start" x="270" y="-951" font-family="Helvetica,sans-Serif" font-size="10.00">localAddr()</text>
<text text-anchor="start" x="257" y="-936" font-family="Helvetica,sans-Serif" font-size="10.00">+</text>
<text text-anchor="start" x="270" y="-936" font-family="Helvetica,sans-Serif" font-size="10.00">localPort()</text>
<text text-anchor="start" x="270" y="-921" font-family="Helvetica,sans-Serif" font-size="10.00">and 6 more...</text>
<text text-anchor="start" x="257" y="-906" font-family="Helvetica,sans-Serif" font-size="10.00">+</text>
<text text-anchor="start" x="270" y="-906" font-family="Helvetica,sans-Serif" font-size="10.00">onDatagramReceived()</text>
<polygon fill="#666666" stroke="#666666" points="253,-1216 253,-1216 388,-1216 388,-1216 253,-1216"/>
<polygon fill="#666666" stroke="#666666" points="253,-1081 253,-1081 268,-1081 268,-1081 253,-1081"/>
<polygon fill="#666666" stroke="#666666" points="268,-1081 268,-1081 388,-1081 388,-1081 268,-1081"/>
<polygon fill="none" stroke="#666666" points="252.5,-899 252.5,-1233 387.5,-1233 387.5,-899 252.5,-899"/>
</a>
</g>
</g>
<!-- Node5&#45;&gt;Node7 -->
<g id="edge8_Node000007_Node000005" class="edge">
<title>Node5&#45;&gt;Node7</title>
<g id="a_edge8_Node000007_Node000005"><a xlink:title=" ">
<path fill="none" stroke="#63b8ff" d="M282,-2103.78C282,-2081.09 282,-2050.5 282,-2023.5 282,-2023.5 282,-2023.5 282,-1341 282,-1305.94 285.09,-1268.6 289.51,-1233.12"/>
<polygon fill="none" stroke="#63b8ff" points="278.5,-2103.92 282,-2113.92 285.5,-2103.92 278.5,-2103.92"/>
</a>
</g>
</g>
<!-- Node8 -->
<g id="Node000008" class="node">
<title>Node8</title>
<g id="a_Node000008"><a xlink:href="classUdpWorker.html" target="_top" xlink:title=" ">
<polygon fill="white" stroke="transparent" points="617,-1404 457,-1404 457,-1280 617,-1280 617,-1404"/>
<text text-anchor="start" x="510" y="-1392" font-family="Helvetica,sans-Serif" font-size="10.00">UdpWorker</text>
<text text-anchor="start" x="463.5" y="-1377" font-family="Helvetica,sans-Serif" font-size="10.00">&#45;</text>
<text text-anchor="start" x="474" y="-1377" font-family="Helvetica,sans-Serif" font-size="10.00">socket</text>
<text text-anchor="start" x="463.5" y="-1362" font-family="Helvetica,sans-Serif" font-size="10.00">&#45;</text>
<text text-anchor="start" x="474" y="-1362" font-family="Helvetica,sans-Serif" font-size="10.00">m_lastFrameSend</text>
<text text-anchor="start" x="461" y="-1347" font-family="Helvetica,sans-Serif" font-size="10.00">+</text>
<text text-anchor="start" x="474" y="-1347" font-family="Helvetica,sans-Serif" font-size="10.00">UdpWorker()</text>
<text text-anchor="start" x="461" y="-1332" font-family="Helvetica,sans-Serif" font-size="10.00">+</text>
<text text-anchor="start" x="474" y="-1332" font-family="Helvetica,sans-Serif" font-size="10.00">decimate()</text>
<text text-anchor="start" x="461" y="-1317" font-family="Helvetica,sans-Serif" font-size="10.00">+</text>
<text text-anchor="start" x="474" y="-1317" font-family="Helvetica,sans-Serif" font-size="10.00">start()</text>
<text text-anchor="start" x="461" y="-1302" font-family="Helvetica,sans-Serif" font-size="10.00">+</text>
<text text-anchor="start" x="474" y="-1302" font-family="Helvetica,sans-Serif" font-size="10.00">stop()</text>
<text text-anchor="start" x="463.5" y="-1287" font-family="Helvetica,sans-Serif" font-size="10.00">&#45;</text>
<text text-anchor="start" x="474" y="-1287" font-family="Helvetica,sans-Serif" font-size="10.00">processPendingDatagrams()</text>
<polygon fill="#666666" stroke="#666666" points="457,-1387 457,-1387 617,-1387 617,-1387 457,-1387"/>
<polygon fill="#666666" stroke="#666666" points="457,-1357 457,-1357 472,-1357 472,-1357 457,-1357"/>
<polygon fill="#666666" stroke="#666666" points="472,-1357 472,-1357 617,-1357 617,-1357 472,-1357"/>
<polygon fill="none" stroke="#666666" points="457,-1280 457,-1404 617,-1404 617,-1280 457,-1280"/>
</a>
</g>
</g>
<!-- Node5&#45;&gt;Node8 -->
<g id="edge10_Node000008_Node000005" class="edge">
<title>Node5&#45;&gt;Node8</title>
<g id="a_edge10_Node000008_Node000005"><a xlink:title=" ">
<path fill="none" stroke="#63b8ff" d="M317.06,-2126.32C343.89,-2116.49 380.64,-2100.11 407,-2077 514.61,-1982.65 542.94,-1945.1 584,-1808 625.96,-1667.89 585.53,-1494.56 557.93,-1404.24"/>
<polygon fill="none" stroke="#63b8ff" points="315.57,-2123.14 307.31,-2129.77 317.9,-2129.74 315.57,-2123.14"/>
</a>
</g>
</g>
<!-- Node10 -->
<g id="Node000010" class="node">
<title>Node10</title>
<g id="a_Node000010"><a xlink:href="classLogger.html" target="_top" xlink:title=" ">
<polygon fill="white" stroke="transparent" points="398,-2077 330,-2077 330,-1968 398,-1968 398,-2077"/>
<text text-anchor="start" x="347" y="-2064.5" font-family="Helvetica,sans-Serif" font-size="10.00">Logger</text>
<text text-anchor="start" x="362" y="-2049.5" font-family="Helvetica,sans-Serif" font-size="10.00"> </text>
<text text-anchor="start" x="334" y="-2034.5" font-family="Helvetica,sans-Serif" font-size="10.00">+</text>
<text text-anchor="start" x="347" y="-2034.5" font-family="Helvetica,sans-Serif" font-size="10.00">Logger()</text>
<text text-anchor="start" x="334" y="-2019.5" font-family="Helvetica,sans-Serif" font-size="10.00">+</text>
<text text-anchor="start" x="347" y="-2019.5" font-family="Helvetica,sans-Serif" font-size="10.00">log()</text>
<text text-anchor="start" x="334" y="-2004.5" font-family="Helvetica,sans-Serif" font-size="10.00">+</text>
<text text-anchor="start" x="347" y="-2004.5" font-family="Helvetica,sans-Serif" font-size="10.00">debug()</text>
<text text-anchor="start" x="334" y="-1989.5" font-family="Helvetica,sans-Serif" font-size="10.00">+</text>
<text text-anchor="start" x="347" y="-1989.5" font-family="Helvetica,sans-Serif" font-size="10.00">error()</text>
<text text-anchor="start" x="334" y="-1974.5" font-family="Helvetica,sans-Serif" font-size="10.00">+</text>
<text text-anchor="start" x="347" y="-1974.5" font-family="Helvetica,sans-Serif" font-size="10.00">warning()</text>
<polygon fill="#666666" stroke="#666666" points="330,-2059.5 330,-2059.5 398,-2059.5 398,-2059.5 330,-2059.5"/>
<polygon fill="#666666" stroke="#666666" points="330,-2044.5 330,-2044.5 398,-2044.5 398,-2044.5 330,-2044.5"/>
<polygon fill="none" stroke="#666666" points="330,-1968 330,-2077 398,-2077 398,-1968 330,-1968"/>
</a>
</g>
</g>
<!-- Node5&#45;&gt;Node10 -->
<g id="edge13_Node000010_Node000005" class="edge">
<title>Node5&#45;&gt;Node10</title>
<g id="a_edge13_Node000010_Node000005"><a xlink:title=" ">
<path fill="none" stroke="#63b8ff" d="M304.91,-2105.64C312.62,-2094.93 321.4,-2082.73 329.78,-2071.07"/>
<polygon fill="none" stroke="#63b8ff" points="301.99,-2103.72 298.99,-2113.88 307.67,-2107.8 301.99,-2103.72"/>
</a>
</g>
</g>
<!-- Node11 -->
<g id="Node000011" class="node">
<title>Node11</title>
<g id="a_Node000011"><a xlink:href="classFileSystem.html" target="_top" xlink:title=" ">
<polygon fill="white" stroke="transparent" points="254,-1501 162,-1501 162,-1422 254,-1422 254,-1501"/>
<text text-anchor="start" x="180.5" y="-1488.5" font-family="Helvetica,sans-Serif" font-size="10.00">FileSystem</text>
<text text-anchor="start" x="168.5" y="-1473.5" font-family="Helvetica,sans-Serif" font-size="10.00">&#45;</text>
<text text-anchor="start" x="179" y="-1473.5" font-family="Helvetica,sans-Serif" font-size="10.00">m_pathList</text>
<text text-anchor="start" x="166" y="-1458.5" font-family="Helvetica,sans-Serif" font-size="10.00">+</text>
<text text-anchor="start" x="179" y="-1458.5" font-family="Helvetica,sans-Serif" font-size="10.00">FileSystem()</text>
<text text-anchor="start" x="166" y="-1443.5" font-family="Helvetica,sans-Serif" font-size="10.00">+</text>
<text text-anchor="start" x="179" y="-1443.5" font-family="Helvetica,sans-Serif" font-size="10.00">addDirectory()</text>
<text text-anchor="start" x="166" y="-1428.5" font-family="Helvetica,sans-Serif" font-size="10.00">+</text>
<text text-anchor="start" x="179" y="-1428.5" font-family="Helvetica,sans-Serif" font-size="10.00">getDirectory()</text>
<polygon fill="#666666" stroke="#666666" points="162,-1483.5 162,-1483.5 254,-1483.5 254,-1483.5 162,-1483.5"/>
<polygon fill="#666666" stroke="#666666" points="162,-1468.5 162,-1468.5 177,-1468.5 177,-1468.5 162,-1468.5"/>
<polygon fill="#666666" stroke="#666666" points="177,-1468.5 177,-1468.5 254,-1468.5 254,-1468.5 177,-1468.5"/>
<polygon fill="none" stroke="#666666" points="162,-1422 162,-1501 254,-1501 254,-1422 162,-1422"/>
</a>
</g>
</g>
<!-- Node5&#45;&gt;Node11 -->
<g id="edge16_Node000011_Node000005" class="edge">
<title>Node5&#45;&gt;Node11</title>
<g id="a_edge16_Node000011_Node000005"><a xlink:title=" ">
<path fill="none" stroke="#63b8ff" d="M269.97,-2104.01C269.23,-2101.32 268.56,-2098.63 268,-2096 243.54,-1981.2 218.35,-1620.48 210.49,-1501.21"/>
<polygon fill="none" stroke="#63b8ff" points="266.64,-2105.08 272.9,-2113.62 273.34,-2103.04 266.64,-2105.08"/>
</a>
</g>
</g>
<!-- Node12 -->
<g id="Node000012" class="node">
<title>Node12</title>
<g id="a_Node000012"><a xlink:href="classTestBenchModel.html" target="_top" xlink:title=" ">
<polygon fill="white" stroke="transparent" points="631,-852 497,-852 497,-698 631,-698 631,-852"/>
<text text-anchor="start" x="524" y="-840" font-family="Helvetica,sans-Serif" font-size="10.00">TestBenchModel</text>
<text text-anchor="start" x="503.5" y="-825" font-family="Helvetica,sans-Serif" font-size="10.00">&#45;</text>
<text text-anchor="start" x="514" y="-825" font-family="Helvetica,sans-Serif" font-size="10.00">m_testStatus</text>
<text text-anchor="start" x="503.5" y="-810" font-family="Helvetica,sans-Serif" font-size="10.00">&#45;</text>
<text text-anchor="start" x="514" y="-810" font-family="Helvetica,sans-Serif" font-size="10.00">m_testStatusInitialised</text>
<text text-anchor="start" x="501" y="-795" font-family="Helvetica,sans-Serif" font-size="10.00">+</text>
<text text-anchor="start" x="514" y="-795" font-family="Helvetica,sans-Serif" font-size="10.00">TestBenchModel()</text>
<text text-anchor="start" x="501" y="-780" font-family="Helvetica,sans-Serif" font-size="10.00">+</text>
<text text-anchor="start" x="514" y="-780" font-family="Helvetica,sans-Serif" font-size="10.00">setTestStatus()</text>
<text text-anchor="start" x="501" y="-765" font-family="Helvetica,sans-Serif" font-size="10.00">+</text>
<text text-anchor="start" x="514" y="-765" font-family="Helvetica,sans-Serif" font-size="10.00">getTestStatus()</text>
<text text-anchor="start" x="501" y="-750" font-family="Helvetica,sans-Serif" font-size="10.00">+</text>
<text text-anchor="start" x="514" y="-750" font-family="Helvetica,sans-Serif" font-size="10.00">getStatus()</text>
<text text-anchor="start" x="501" y="-735" font-family="Helvetica,sans-Serif" font-size="10.00">+</text>
<text text-anchor="start" x="514" y="-735" font-family="Helvetica,sans-Serif" font-size="10.00">getStatus()</text>
<text text-anchor="start" x="501" y="-720" font-family="Helvetica,sans-Serif" font-size="10.00">+</text>
<text text-anchor="start" x="514" y="-720" font-family="Helvetica,sans-Serif" font-size="10.00">getStatusID()</text>
<text text-anchor="start" x="501" y="-705" font-family="Helvetica,sans-Serif" font-size="10.00">+</text>
<text text-anchor="start" x="514" y="-705" font-family="Helvetica,sans-Serif" font-size="10.00">onStatesListRecieved()</text>
<polygon fill="#666666" stroke="#666666" points="497,-835 497,-835 631,-835 631,-835 497,-835"/>
<polygon fill="#666666" stroke="#666666" points="497,-805 497,-805 512,-805 512,-805 497,-805"/>
<polygon fill="#666666" stroke="#666666" points="512,-805 512,-805 631,-805 631,-805 512,-805"/>
<polygon fill="none" stroke="#666666" points="497,-698 497,-852 631,-852 631,-698 497,-698"/>
</a>
</g>
</g>
<!-- Node5&#45;&gt;Node12 -->
<g id="edge20_Node000012_Node000005" class="edge">
<title>Node5&#45;&gt;Node12</title>
<g id="a_edge20_Node000012_Node000005"><a xlink:title=" ">
<path fill="none" stroke="#63b8ff" d="M317.37,-2134.02C408.64,-2124.07 645,-2091.73 645,-2023.5 645,-2023.5 645,-2023.5 645,-1065 645,-990.75 619.9,-909.61 597.65,-852.26"/>
<polygon fill="none" stroke="#63b8ff" points="316.81,-2130.56 307.24,-2135.1 317.55,-2137.52 316.81,-2130.56"/>
</a>
</g>
</g>
<!-- Node6&#45;&gt;Node4 -->
<g id="edge5_Node000004_Node000006" class="edge">
<title>Node6&#45;&gt;Node4</title>
<g id="a_edge5_Node000004_Node000006"><a xlink:title=" ">
<path fill="none" stroke="#63b8ff" d="M161.56,-1825.98C150.92,-1743.64 134,-1592.3 134,-1462.5 134,-1462.5 134,-1462.5 134,-774 134,-737.96 138.16,-699.67 144.05,-663.5"/>
<polygon fill="none" stroke="#63b8ff" points="144.11,-663.15 141.17,-656.57 146.11,-651.32 149.05,-657.9 144.11,-663.15"/>
</a>
</g>
<text text-anchor="middle" x="158.5" y="-1254" font-family="Helvetica,sans-Serif" font-size="10.00" fill="grey"> &#45;m_timer</text>
</g>
<!-- Node7&#45;&gt;Node4 -->
<g id="edge7_Node000004_Node000007" class="edge">
<title>Node7&#45;&gt;Node4</title>
<g id="a_edge7_Node000004_Node000007"><a xlink:title=" ">
<path fill="none" stroke="#63b8ff" d="M279.73,-898.92C261.67,-824.44 240.44,-736.88 222.47,-662.8"/>
<polygon fill="none" stroke="#63b8ff" points="222.45,-662.69 217.15,-657.8 219.62,-651.03 224.92,-655.91 222.45,-662.69"/>
</a>
</g>
<text text-anchor="middle" x="308" y="-772.5" font-family="Helvetica,sans-Serif" font-size="10.00" fill="grey"> &#45;m_udpChannel</text>
</g>
<!-- Node7&#45;&gt;Node12 -->
<g id="edge22_Node000012_Node000007" class="edge">
<title>Node7&#45;&gt;Node12</title>
<g id="a_edge22_Node000012_Node000007"><a xlink:title=" ">
<path fill="none" stroke="#63b8ff" d="M387.64,-984.88C420.02,-946.53 458.83,-900.57 491.78,-861.54"/>
<polygon fill="none" stroke="#63b8ff" points="491.85,-861.46 492.66,-854.3 499.59,-852.29 498.77,-859.46 491.85,-861.46"/>
</a>
</g>
<text text-anchor="middle" x="518" y="-873" font-family="Helvetica,sans-Serif" font-size="10.00" fill="grey"> &#45;m_udpChannel</text>
</g>
<!-- Node8&#45;&gt;Node7 -->
<g id="edge9_Node000007_Node000008" class="edge">
<title>Node8&#45;&gt;Node7</title>
<g id="a_edge9_Node000007_Node000008"><a xlink:title=" ">
<path fill="none" stroke="#63b8ff" d="M488.57,-1279.85C461.16,-1245.24 426.29,-1201.21 395.38,-1162.18"/>
<polygon fill="none" stroke="#63b8ff" points="395.07,-1161.79 388.21,-1159.57 387.62,-1152.38 394.48,-1154.6 395.07,-1161.79"/>
</a>
</g>
<text text-anchor="middle" x="509" y="-1254" font-family="Helvetica,sans-Serif" font-size="10.00" fill="grey"> &#45;m_udpWorker</text>
</g>
<!-- Node9 -->
<g id="Node000009" class="node">
<title>Node9</title>
<g id="a_Node000009"><a xlink:href="classUdpLogger.html" target="_top" xlink:title=" ">
<polygon fill="white" stroke="transparent" points="481.5,-1808 348.5,-1808 348.5,-1519 481.5,-1519 481.5,-1808"/>
<text text-anchor="start" x="389" y="-1795.5" font-family="Helvetica,sans-Serif" font-size="10.00">UdpLogger</text>
<text text-anchor="start" x="355.5" y="-1780.5" font-family="Helvetica,sans-Serif" font-size="10.00">&#45;</text>
<text text-anchor="start" x="366" y="-1780.5" font-family="Helvetica,sans-Serif" font-size="10.00">m_writer</text>
<text text-anchor="start" x="355.5" y="-1765.5" font-family="Helvetica,sans-Serif" font-size="10.00">&#45;</text>
<text text-anchor="start" x="366" y="-1765.5" font-family="Helvetica,sans-Serif" font-size="10.00">m_ringBuffer</text>
<text text-anchor="start" x="355.5" y="-1750.5" font-family="Helvetica,sans-Serif" font-size="10.00">&#45;</text>
<text text-anchor="start" x="366" y="-1750.5" font-family="Helvetica,sans-Serif" font-size="10.00">m_running</text>
<text text-anchor="start" x="355.5" y="-1735.5" font-family="Helvetica,sans-Serif" font-size="10.00">&#45;</text>
<text text-anchor="start" x="366" y="-1735.5" font-family="Helvetica,sans-Serif" font-size="10.00">m_writerThread</text>
<text text-anchor="start" x="355.5" y="-1720.5" font-family="Helvetica,sans-Serif" font-size="10.00">&#45;</text>
<text text-anchor="start" x="366" y="-1720.5" font-family="Helvetica,sans-Serif" font-size="10.00">m_logDirPath</text>
<text text-anchor="start" x="355.5" y="-1705.5" font-family="Helvetica,sans-Serif" font-size="10.00">&#45;</text>
<text text-anchor="start" x="366" y="-1705.5" font-family="Helvetica,sans-Serif" font-size="10.00">MAX_FRAME_SIZE</text>
<text text-anchor="start" x="353" y="-1690.5" font-family="Helvetica,sans-Serif" font-size="10.00">+</text>
<text text-anchor="start" x="366" y="-1690.5" font-family="Helvetica,sans-Serif" font-size="10.00">UdpLogger()</text>
<text text-anchor="start" x="353" y="-1675.5" font-family="Helvetica,sans-Serif" font-size="10.00">+</text>
<text text-anchor="start" x="366" y="-1675.5" font-family="Helvetica,sans-Serif" font-size="10.00">~UdpLogger()</text>
<text text-anchor="start" x="353" y="-1660.5" font-family="Helvetica,sans-Serif" font-size="10.00">+</text>
<text text-anchor="start" x="366" y="-1660.5" font-family="Helvetica,sans-Serif" font-size="10.00">UdpLogger()</text>
<text text-anchor="start" x="353" y="-1645.5" font-family="Helvetica,sans-Serif" font-size="10.00">+</text>
<text text-anchor="start" x="366" y="-1645.5" font-family="Helvetica,sans-Serif" font-size="10.00">operator=()</text>
<text text-anchor="start" x="353" y="-1630.5" font-family="Helvetica,sans-Serif" font-size="10.00">+</text>
<text text-anchor="start" x="366" y="-1630.5" font-family="Helvetica,sans-Serif" font-size="10.00">UdpLogger()</text>
<text text-anchor="start" x="353" y="-1615.5" font-family="Helvetica,sans-Serif" font-size="10.00">+</text>
<text text-anchor="start" x="366" y="-1615.5" font-family="Helvetica,sans-Serif" font-size="10.00">operator=()</text>
<text text-anchor="start" x="353" y="-1600.5" font-family="Helvetica,sans-Serif" font-size="10.00">+</text>
<text text-anchor="start" x="366" y="-1600.5" font-family="Helvetica,sans-Serif" font-size="10.00">log()</text>
<text text-anchor="start" x="353" y="-1585.5" font-family="Helvetica,sans-Serif" font-size="10.00">+</text>
<text text-anchor="start" x="366" y="-1585.5" font-family="Helvetica,sans-Serif" font-size="10.00">cyclesCount()</text>
<text text-anchor="start" x="353" y="-1570.5" font-family="Helvetica,sans-Serif" font-size="10.00">+</text>
<text text-anchor="start" x="366" y="-1570.5" font-family="Helvetica,sans-Serif" font-size="10.00">droppedFramesCount()</text>
<text text-anchor="start" x="353" y="-1555.5" font-family="Helvetica,sans-Serif" font-size="10.00">+</text>
<text text-anchor="start" x="366" y="-1555.5" font-family="Helvetica,sans-Serif" font-size="10.00">start()</text>
<text text-anchor="start" x="353" y="-1540.5" font-family="Helvetica,sans-Serif" font-size="10.00">+</text>
<text text-anchor="start" x="366" y="-1540.5" font-family="Helvetica,sans-Serif" font-size="10.00">stop()</text>
<text text-anchor="start" x="355.5" y="-1525.5" font-family="Helvetica,sans-Serif" font-size="10.00">&#45;</text>
<text text-anchor="start" x="366" y="-1525.5" font-family="Helvetica,sans-Serif" font-size="10.00">writerLoop()</text>
<polygon fill="#666666" stroke="#666666" points="349,-1790.5 349,-1790.5 482,-1790.5 482,-1790.5 349,-1790.5"/>
<polygon fill="#666666" stroke="#666666" points="349,-1700.5 349,-1700.5 364,-1700.5 364,-1700.5 349,-1700.5"/>
<polygon fill="#666666" stroke="#666666" points="364,-1700.5 364,-1700.5 482,-1700.5 482,-1700.5 364,-1700.5"/>
<polygon fill="none" stroke="#666666" points="348.5,-1519 348.5,-1808 481.5,-1808 481.5,-1519 348.5,-1519"/>
</a>
</g>
</g>
<!-- Node9&#45;&gt;Node7 -->
<g id="edge18_Node000007_Node000009" class="edge">
<title>Node9&#45;&gt;Node7</title>
<g id="a_edge18_Node000007_Node000009"><a xlink:title=" ">
<path fill="none" stroke="#63b8ff" d="M392.06,-1518.73C378.94,-1436.46 362.36,-1332.56 348.42,-1245.15"/>
<polygon fill="none" stroke="#63b8ff" points="348.41,-1245.06 343.51,-1239.76 346.51,-1233.21 351.41,-1238.5 348.41,-1245.06"/>
</a>
</g>
<text text-anchor="middle" x="408.5" y="-1339.5" font-family="Helvetica,sans-Serif" font-size="10.00" fill="grey"> &#45;m_udpLogger</text>
</g>
<!-- Node9&#45;&gt;Node8 -->
<g id="edge11_Node000008_Node000009" class="edge">
<title>Node9&#45;&gt;Node8</title>
<g id="a_edge11_Node000008_Node000009"><a xlink:title=" ">
<path fill="none" stroke="#63b8ff" d="M406.2,-1518.88C409.34,-1485.52 417.1,-1451.24 433,-1422 437.17,-1414.33 442.44,-1407.18 448.38,-1400.57"/>
<polygon fill="none" stroke="#63b8ff" points="448.47,-1400.47 449.8,-1393.38 456.86,-1391.89 455.53,-1398.97 448.47,-1400.47"/>
</a>
</g>
<text text-anchor="middle" x="468.5" y="-1459" font-family="Helvetica,sans-Serif" font-size="10.00" fill="grey"> &#45;m_udplogger</text>
</g>
<!-- Node10&#45;&gt;Node7 -->
<g id="edge17_Node000007_Node000010" class="edge">
<title>Node10&#45;&gt;Node7</title>
<g id="a_edge17_Node000007_Node000010"><a xlink:title=" ">
<path fill="none" stroke="#63b8ff" d="M357.28,-1967.6C352.07,-1924.47 344.92,-1862.42 340,-1808 327.69,-1671.79 323.67,-1637.68 319,-1501 317.8,-1465.91 318.95,-1457.11 319,-1422 319.08,-1364.58 319.24,-1301.94 319.4,-1245.48"/>
<polygon fill="none" stroke="#63b8ff" points="319.4,-1245.15 315.42,-1239.14 319.44,-1233.15 323.42,-1239.17 319.4,-1245.15"/>
</a>
</g>
<text text-anchor="middle" x="345.5" y="-1459" font-family="Helvetica,sans-Serif" font-size="10.00" fill="grey"> &#45;m_logger</text>
</g>
<!-- Node10&#45;&gt;Node8 -->
<g id="edge14_Node000008_Node000010" class="edge">
<title>Node10&#45;&gt;Node8</title>
<g id="a_edge14_Node000008_Node000010"><a xlink:title=" ">
<path fill="none" stroke="#63b8ff" d="M398.01,-1999.61C415.2,-1986.98 435.09,-1969.71 448,-1950 504.71,-1863.4 526.61,-1558.35 533.87,-1416.52"/>
<polygon fill="none" stroke="#63b8ff" points="533.89,-1416.12 530.19,-1409.92 534.49,-1404.13 538.18,-1410.32 533.89,-1416.12"/>
</a>
</g>
<text text-anchor="middle" x="553.5" y="-1661" font-family="Helvetica,sans-Serif" font-size="10.00" fill="grey"> &#45;m_logger</text>
</g>
<!-- Node10&#45;&gt;Node9 -->
<g id="edge12_Node000009_Node000010" class="edge">
<title>Node10&#45;&gt;Node9</title>
<g id="a_edge12_Node000009_Node000010"><a xlink:title=" ">
<path fill="none" stroke="#63b8ff" d="M371.69,-1967.67C377.3,-1928.37 385.22,-1872.97 392.75,-1820.26"/>
<polygon fill="none" stroke="#63b8ff" points="392.75,-1820.24 389.64,-1813.73 394.45,-1808.36 397.56,-1814.86 392.75,-1820.24"/>
</a>
</g>
<text text-anchor="middle" x="417.5" y="-1885.5" font-family="Helvetica,sans-Serif" font-size="10.00" fill="grey"> &#45;m_logger</text>
</g>
<!-- Node11&#45;&gt;Node7 -->
<g id="edge15_Node000007_Node000011" class="edge">
<title>Node11&#45;&gt;Node7</title>
<g id="a_edge15_Node000007_Node000011"><a xlink:title=" ">
<path fill="none" stroke="#63b8ff" d="M197.49,-1421.75C189.19,-1384.7 180.98,-1327.6 194,-1280 204.76,-1240.66 224.87,-1201.21 245.91,-1167.13"/>
<polygon fill="none" stroke="#63b8ff" points="246.07,-1166.89 245.88,-1159.68 252.46,-1156.74 252.65,-1163.95 246.07,-1166.89"/>
</a>
</g>
<text text-anchor="middle" x="231" y="-1339.5" font-family="Helvetica,sans-Serif" font-size="10.00" fill="grey"> &#45;m_fileSystem</text>
</g>
<!-- Node12&#45;&gt;Node4 -->
<g id="edge19_Node000004_Node000012" class="edge">
<title>Node12&#45;&gt;Node4</title>
<g id="a_edge19_Node000004_Node000012"><a xlink:title=" ">
<path fill="none" stroke="#63b8ff" d="M496.76,-725.65C434.15,-680.62 340.41,-613.2 271.69,-563.78"/>
<polygon fill="none" stroke="#63b8ff" points="271.48,-563.63 264.28,-563.38 261.74,-556.63 268.95,-556.88 271.48,-563.63"/>
</a>
</g>
<text text-anchor="middle" x="469" y="-672" font-family="Helvetica,sans-Serif" font-size="10.00" fill="grey"> &#45;m_testBenchM</text>
</g>
<!-- Node13 -->
<g id="Node000013" class="node">
<title>Node13</title>
<g id="a_Node000013"><a xlink:href="classTestBenchStatesList.html" target="_top" xlink:title=" ">
<polygon fill="white" stroke="transparent" points="781,-1120.5 673,-1120.5 673,-1011.5 781,-1011.5 781,-1120.5"/>
<text text-anchor="start" x="678" y="-1108" font-family="Helvetica,sans-Serif" font-size="10.00">TestBenchStatesList</text>
<text text-anchor="start" x="680.5" y="-1093" font-family="Helvetica,sans-Serif" font-size="10.00">&#45;</text>
<text text-anchor="start" x="692" y="-1093" font-family="Helvetica,sans-Serif" font-size="10.00">m_valuesDatas</text>
<text text-anchor="start" x="680.5" y="-1078" font-family="Helvetica,sans-Serif" font-size="10.00">&#45;</text>
<text text-anchor="start" x="692" y="-1078" font-family="Helvetica,sans-Serif" font-size="10.00">m_valuesNames</text>
<text text-anchor="start" x="678" y="-1063" font-family="Helvetica,sans-Serif" font-size="10.00">+</text>
<text text-anchor="start" x="692" y="-1063" font-family="Helvetica,sans-Serif" font-size="10.00">append()</text>
<text text-anchor="start" x="678" y="-1048" font-family="Helvetica,sans-Serif" font-size="10.00">+</text>
<text text-anchor="start" x="692" y="-1048" font-family="Helvetica,sans-Serif" font-size="10.00">getValue()</text>
<text text-anchor="start" x="678" y="-1033" font-family="Helvetica,sans-Serif" font-size="10.00">+</text>
<text text-anchor="start" x="692" y="-1033" font-family="Helvetica,sans-Serif" font-size="10.00">getValue()</text>
<text text-anchor="start" x="678" y="-1018" font-family="Helvetica,sans-Serif" font-size="10.00">+</text>
<text text-anchor="start" x="692" y="-1018" font-family="Helvetica,sans-Serif" font-size="10.00">getID()</text>
<polygon fill="#666666" stroke="#666666" points="673,-1103 673,-1103 781,-1103 781,-1103 673,-1103"/>
<polygon fill="#666666" stroke="#666666" points="673,-1073 673,-1073 690,-1073 690,-1073 673,-1073"/>
<polygon fill="#666666" stroke="#666666" points="690,-1073 690,-1073 781,-1073 781,-1073 690,-1073"/>
<polygon fill="none" stroke="#666666" points="673,-1011.5 673,-1120.5 781,-1120.5 781,-1011.5 673,-1011.5"/>
</a>
</g>
</g>
<!-- Node13&#45;&gt;Node12 -->
<g id="edge21_Node000012_Node000013" class="edge">
<title>Node13&#45;&gt;Node12</title>
<g id="a_edge21_Node000012_Node000013"><a xlink:title=" ">
<path fill="none" stroke="#63b8ff" d="M715.28,-1011.18C704.76,-970.29 686.66,-913.81 659,-870 653.22,-860.85 646.4,-851.92 639.1,-843.42"/>
<polygon fill="none" stroke="#63b8ff" points="639.02,-843.33 632.04,-841.52 631.02,-834.39 638,-836.19 639.02,-843.33"/>
</a>
</g>
<text text-anchor="middle" x="690" y="-873" font-family="Helvetica,sans-Serif" font-size="10.00" fill="grey"> &#45;m_states</text>
</g>
</g>
</svg>
