<?xml version="1.0" encoding="UTF-8" standalone="no"?>
<!DOCTYPE svg PUBLIC "-//W3C//DTD SVG 1.1//EN"
 "http://www.w3.org/Graphics/SVG/1.1/DTD/svg11.dtd">
<!-- Generated by graphviz version 2.43.0 (0)
 -->
<!-- Title: GraphicTab::GraphicTab Pages: 1 -->
<svg width="504pt" height="76pt"
 viewBox="0.00 0.00 504.00 75.50" xmlns="http://www.w3.org/2000/svg" xmlns:xlink="http://www.w3.org/1999/xlink">
<g id="graph0" class="graph" transform="scale(1 1) rotate(0) translate(4 71.5)">
<title>GraphicTab::GraphicTab</title>
<!-- Node1 -->
<g id="Node000001" class="node">
<title>Node1</title>
<g id="a_Node000001"><a xlink:title=" ">
<polygon fill="#999999" stroke="#666666" points="131,-40 0,-40 0,-21 131,-21 131,-40"/>
<text text-anchor="middle" x="65.5" y="-28" font-family="Helvetica,sans-Serif" font-size="10.00">GraphicTab::GraphicTab</text>
</a>
</g>
</g>
<!-- Node2 -->
<g id="Node000002" class="node">
<title>Node2</title>
<g id="a_Node000002"><a xlink:href="classPlotViewModel.html#a127a03cb99dc177fed9c16a6553860de" target="_top" xlink:title=" ">
<polygon fill="white" stroke="#666666" points="277,-40 167,-40 167,-21 277,-21 277,-40"/>
<text text-anchor="middle" x="222" y="-28" font-family="Helvetica,sans-Serif" font-size="10.00">PlotViewModel::set</text>
</a>
</g>
</g>
<!-- Node1&#45;&gt;Node2 -->
<g id="edge1_Node000001_Node000002" class="edge">
<title>Node1&#45;&gt;Node2</title>
<g id="a_edge1_Node000001_Node000002"><a xlink:title=" ">
<path fill="none" stroke="#63b8ff" d="M131.13,-30.5C139.59,-30.5 148.27,-30.5 156.72,-30.5"/>
<polygon fill="#63b8ff" stroke="#63b8ff" points="156.91,-34 166.91,-30.5 156.91,-27 156.91,-34"/>
</a>
</g>
</g>
<!-- Node3 -->
<g id="Node000003" class="node">
<title>Node3</title>
<g id="a_Node000003"><a xlink:href="classPlotViewModel.html#aa31b895b554130ab4ab47cb7b83806c0" target="_top" xlink:title=" ">
<polygon fill="white" stroke="#666666" points="496,-67.5 313,-67.5 313,-37.5 496,-37.5 496,-67.5"/>
<text text-anchor="start" x="321" y="-55.5" font-family="Helvetica,sans-Serif" font-size="10.00">PlotViewModel::curvesParameters</text>
<text text-anchor="middle" x="404.5" y="-44.5" font-family="Helvetica,sans-Serif" font-size="10.00">Changed</text>
</a>
</g>
</g>
<!-- Node2&#45;&gt;Node3 -->
<g id="edge2_Node000002_Node000003" class="edge">
<title>Node2&#45;&gt;Node3</title>
<g id="a_edge2_Node000002_Node000003"><a xlink:title=" ">
<path fill="none" stroke="#63b8ff" d="M277.16,-37.1C285.38,-38.1 294.08,-39.16 302.92,-40.24"/>
<polygon fill="#63b8ff" stroke="#63b8ff" points="302.58,-43.73 312.93,-41.46 303.43,-36.78 302.58,-43.73"/>
</a>
</g>
</g>
<!-- Node4 -->
<g id="Node000004" class="node">
<title>Node4</title>
<g id="a_Node000004"><a xlink:href="classPlotViewModel.html#a0371c868dc4ec05453b57559814f0446" target="_top" xlink:title=" ">
<polygon fill="white" stroke="#666666" points="483.5,-19 325.5,-19 325.5,0 483.5,0 483.5,-19"/>
<text text-anchor="middle" x="404.5" y="-7" font-family="Helvetica,sans-Serif" font-size="10.00">PlotViewModel::titleChanged</text>
</a>
</g>
</g>
<!-- Node2&#45;&gt;Node4 -->
<g id="edge3_Node000002_Node000004" class="edge">
<title>Node2&#45;&gt;Node4</title>
<g id="a_edge3_Node000002_Node000004"><a xlink:title=" ">
<path fill="none" stroke="#63b8ff" d="M277.16,-24.2C289.24,-22.79 302.35,-21.27 315.41,-19.75"/>
<polygon fill="#63b8ff" stroke="#63b8ff" points="315.83,-23.22 325.36,-18.59 315.02,-16.27 315.83,-23.22"/>
</a>
</g>
</g>
</g>
</svg>
