<?xml version="1.0" encoding="UTF-8" standalone="no"?>
<!DOCTYPE svg PUBLIC "-//W3C//DTD SVG 1.1//EN"
 "http://www.w3.org/Graphics/SVG/1.1/DTD/svg11.dtd">
<!-- Generated by graphviz version 2.43.0 (0)
 -->
<!-- Title: ActuatorSwitchViewModel::statusColor Pages: 1 -->
<svg width="680pt" height="102pt"
 viewBox="0.00 0.00 680.00 101.50" xmlns="http://www.w3.org/2000/svg" xmlns:xlink="http://www.w3.org/1999/xlink">
<g id="graph0" class="graph" transform="scale(1 1) rotate(0) translate(4 97.5)">
<title>ActuatorSwitchViewModel::statusColor</title>
<!-- Node1 -->
<g id="Node000001" class="node">
<title>Node1</title>
<g id="a_Node000001"><a xlink:title=" ">
<polygon fill="#999999" stroke="#666666" points="672,-69.5 528,-69.5 528,-39.5 672,-39.5 672,-69.5"/>
<text text-anchor="start" x="536" y="-57.5" font-family="Helvetica,sans-Serif" font-size="10.00">ActuatorSwitchViewModel</text>
<text text-anchor="middle" x="600" y="-46.5" font-family="Helvetica,sans-Serif" font-size="10.00">::statusColor</text>
</a>
</g>
</g>
<!-- Node2 -->
<g id="Node000002" class="node">
<title>Node2</title>
<g id="a_Node000002"><a xlink:href="classStatusTableWidget.html#a76e50b9a999c694b5d10763bd7473303" target="_top" xlink:title=" ">
<polygon fill="white" stroke="#666666" points="474,-93.5 361,-93.5 361,-63.5 474,-63.5 474,-93.5"/>
<text text-anchor="start" x="369" y="-81.5" font-family="Helvetica,sans-Serif" font-size="10.00">StatusTableWidget::</text>
<text text-anchor="middle" x="417.5" y="-70.5" font-family="Helvetica,sans-Serif" font-size="10.00">addActuator</text>
</a>
</g>
</g>
<!-- Node1&#45;&gt;Node2 -->
<g id="edge1_Node000001_Node000002" class="edge">
<title>Node1&#45;&gt;Node2</title>
<g id="a_edge1_Node000001_Node000002"><a xlink:title=" ">
<path fill="none" stroke="#63b8ff" d="M517.79,-65.3C503.04,-67.26 487.97,-69.26 474.18,-71.1"/>
<polygon fill="#63b8ff" stroke="#63b8ff" points="518.47,-68.74 527.92,-63.95 517.55,-61.8 518.47,-68.74"/>
</a>
</g>
</g>
<!-- Node4 -->
<g id="Node000004" class="node">
<title>Node4</title>
<g id="a_Node000004"><a xlink:href="classActuatorSwitchWidget.html#a8eaf017f8cd7fcdc7e144fdfe7a2778b" target="_top" xlink:title=" ">
<polygon fill="white" stroke="#666666" points="492,-45.5 343,-45.5 343,-15.5 492,-15.5 492,-45.5"/>
<text text-anchor="start" x="351" y="-33.5" font-family="Helvetica,sans-Serif" font-size="10.00">ActuatorSwitchWidget</text>
<text text-anchor="middle" x="417.5" y="-22.5" font-family="Helvetica,sans-Serif" font-size="10.00">::onActuatorStatusChanged</text>
</a>
</g>
</g>
<!-- Node1&#45;&gt;Node4 -->
<g id="edge3_Node000001_Node000004" class="edge">
<title>Node1&#45;&gt;Node4</title>
<g id="a_edge3_Node000001_Node000004"><a xlink:title=" ">
<path fill="none" stroke="#63b8ff" d="M517.93,-43.72C509.35,-42.58 500.67,-41.43 492.19,-40.3"/>
<polygon fill="#63b8ff" stroke="#63b8ff" points="517.55,-47.2 527.92,-45.05 518.47,-40.26 517.55,-47.2"/>
</a>
</g>
</g>
<!-- Node3 -->
<g id="Node000003" class="node">
<title>Node3</title>
<g id="a_Node000003"><a xlink:href="classPidTab.html#acbc2f0dd63aac6e755c0022af8b96c90" target="_top" xlink:title=" ">
<polygon fill="white" stroke="#666666" points="287.5,-88 201.5,-88 201.5,-69 287.5,-69 287.5,-88"/>
<text text-anchor="middle" x="244.5" y="-76" font-family="Helvetica,sans-Serif" font-size="10.00">PidTab::PidTab</text>
</a>
</g>
</g>
<!-- Node2&#45;&gt;Node3 -->
<g id="edge2_Node000002_Node000003" class="edge">
<title>Node2&#45;&gt;Node3</title>
<g id="a_edge2_Node000002_Node000003"><a xlink:title=" ">
<path fill="none" stroke="#63b8ff" d="M350.76,-78.5C329.6,-78.5 306.73,-78.5 287.74,-78.5"/>
<polygon fill="#63b8ff" stroke="#63b8ff" points="350.98,-82 360.98,-78.5 350.98,-75 350.98,-82"/>
</a>
</g>
</g>
<!-- Node5 -->
<g id="Node000005" class="node">
<title>Node5</title>
<g id="a_Node000005"><a xlink:href="classActuatorSwitchWidget.html#af9fbb6ab5d0db3b3f6d6db92c7321f5b" target="_top" xlink:title=" ">
<polygon fill="white" stroke="#666666" points="307,-45.5 182,-45.5 182,-15.5 307,-15.5 307,-45.5"/>
<text text-anchor="start" x="190" y="-33.5" font-family="Helvetica,sans-Serif" font-size="10.00">ActuatorSwitchWidget</text>
<text text-anchor="middle" x="244.5" y="-22.5" font-family="Helvetica,sans-Serif" font-size="10.00">::display</text>
</a>
</g>
</g>
<!-- Node4&#45;&gt;Node5 -->
<g id="edge4_Node000004_Node000005" class="edge">
<title>Node4&#45;&gt;Node5</title>
<g id="a_edge4_Node000004_Node000005"><a xlink:title=" ">
<path fill="none" stroke="#63b8ff" d="M332.85,-30.5C324.19,-30.5 315.5,-30.5 307.14,-30.5"/>
<polygon fill="#63b8ff" stroke="#63b8ff" points="332.99,-34 342.99,-30.5 332.99,-27 332.99,-34"/>
</a>
</g>
</g>
<!-- Node6 -->
<g id="Node000006" class="node">
<title>Node6</title>
<g id="a_Node000006"><a xlink:href="classGlowPlugSwitch.html#a601229de111a3002eab95e6628a809c2" target="_top" xlink:title=" ">
<polygon fill="white" stroke="#666666" points="146,-67.5 0,-67.5 0,-37.5 146,-37.5 146,-67.5"/>
<text text-anchor="start" x="8" y="-55.5" font-family="Helvetica,sans-Serif" font-size="10.00">GlowPlugSwitch::GlowPlug</text>
<text text-anchor="middle" x="73" y="-44.5" font-family="Helvetica,sans-Serif" font-size="10.00">Switch</text>
</a>
</g>
</g>
<!-- Node5&#45;&gt;Node6 -->
<g id="edge5_Node000005_Node000006" class="edge">
<title>Node5&#45;&gt;Node6</title>
<g id="a_edge5_Node000005_Node000006"><a xlink:title=" ">
<path fill="none" stroke="#63b8ff" d="M171.68,-39.82C163.27,-40.91 154.69,-42.03 146.28,-43.12"/>
<polygon fill="#63b8ff" stroke="#63b8ff" points="172.36,-43.26 181.83,-38.5 171.46,-36.32 172.36,-43.26"/>
</a>
</g>
</g>
<!-- Node7 -->
<g id="Node000007" class="node">
<title>Node7</title>
<g id="a_Node000007"><a xlink:href="classValveSwitch.html#a7764850d7ec0c40ff1cc5b6c6f1ab8f5" target="_top" xlink:title=" ">
<polygon fill="white" stroke="#666666" points="143.5,-19 2.5,-19 2.5,0 143.5,0 143.5,-19"/>
<text text-anchor="middle" x="73" y="-7" font-family="Helvetica,sans-Serif" font-size="10.00">ValveSwitch::ValveSwitch</text>
</a>
</g>
</g>
<!-- Node5&#45;&gt;Node7 -->
<g id="edge6_Node000005_Node000007" class="edge">
<title>Node5&#45;&gt;Node7</title>
<g id="a_edge6_Node000005_Node000007"><a xlink:title=" ">
<path fill="none" stroke="#63b8ff" d="M171.82,-21.62C162.49,-20.46 152.95,-19.28 143.66,-18.13"/>
<polygon fill="#63b8ff" stroke="#63b8ff" points="171.47,-25.1 181.83,-22.86 172.33,-18.16 171.47,-25.1"/>
</a>
</g>
</g>
</g>
</svg>
