<?xml version="1.0" encoding="UTF-8" standalone="no"?>
<!DOCTYPE svg PUBLIC "-//W3C//DTD SVG 1.1//EN"
 "http://www.w3.org/Graphics/SVG/1.1/DTD/svg11.dtd">
<!-- Generated by graphviz version 2.43.0 (0)
 -->
<!-- Title: DebugDisplayViewModel::DebugDisplayViewModel Pages: 1 -->
<svg width="520pt" height="162pt"
 viewBox="0.00 0.00 520.00 161.50" xmlns="http://www.w3.org/2000/svg" xmlns:xlink="http://www.w3.org/1999/xlink">
<g id="graph0" class="graph" transform="scale(1 1) rotate(0) translate(4 157.5)">
<title>DebugDisplayViewModel::DebugDisplayViewModel</title>
<!-- Node1 -->
<g id="Node000001" class="node">
<title>Node1</title>
<g id="a_Node000001"><a xlink:title=" ">
<polygon fill="#999999" stroke="#666666" points="145,-88.5 0,-88.5 0,-58.5 145,-58.5 145,-88.5"/>
<text text-anchor="start" x="8" y="-76.5" font-family="Helvetica,sans-Serif" font-size="10.00">DebugDisplayViewModel</text>
<text text-anchor="middle" x="72.5" y="-65.5" font-family="Helvetica,sans-Serif" font-size="10.00">::DebugDisplayViewModel</text>
</a>
</g>
</g>
<!-- Node2 -->
<g id="Node000002" class="node">
<title>Node2</title>
<g id="a_Node000002"><a xlink:href="classDebugDisplayViewModel.html#ac47110ea203aeec5314d620ce3b6a250" target="_top" xlink:title=" ">
<polygon fill="white" stroke="#666666" points="320,-153.5 181,-153.5 181,-123.5 320,-123.5 320,-153.5"/>
<text text-anchor="start" x="189" y="-141.5" font-family="Helvetica,sans-Serif" font-size="10.00">DebugDisplayViewModel</text>
<text text-anchor="middle" x="250.5" y="-130.5" font-family="Helvetica,sans-Serif" font-size="10.00">::displayVariable</text>
</a>
</g>
</g>
<!-- Node1&#45;&gt;Node2 -->
<g id="edge1_Node000001_Node000002" class="edge">
<title>Node1&#45;&gt;Node2</title>
<g id="a_edge1_Node000001_Node000002"><a xlink:title=" ">
<path fill="none" stroke="#63b8ff" d="M112.22,-88.56C132.63,-96.42 158.11,-106.13 181,-114.5 185.9,-116.29 191.01,-118.14 196.14,-119.96"/>
<polygon fill="#63b8ff" stroke="#63b8ff" points="195.36,-123.4 205.95,-123.44 197.7,-116.8 195.36,-123.4"/>
</a>
</g>
</g>
<!-- Node4 -->
<g id="Node000004" class="node">
<title>Node4</title>
<g id="a_Node000004"><a xlink:href="classTimer.html#a1f0198a161974b2ef0c35253e29d98ba" target="_top" xlink:title="Allow to get the effective frequency of the timer.">
<polygon fill="white" stroke="#666666" points="307,-105 194,-105 194,-86 307,-86 307,-105"/>
<text text-anchor="middle" x="250.5" y="-93" font-family="Helvetica,sans-Serif" font-size="10.00">Timer::frequencyHz</text>
</a>
</g>
</g>
<!-- Node1&#45;&gt;Node4 -->
<g id="edge3_Node000001_Node000004" class="edge">
<title>Node1&#45;&gt;Node4</title>
<g id="a_edge3_Node000001_Node000004"><a xlink:title=" ">
<path fill="none" stroke="#63b8ff" d="M145.09,-82.45C157.93,-84.05 171.25,-85.72 183.91,-87.3"/>
<polygon fill="#63b8ff" stroke="#63b8ff" points="183.55,-90.78 193.9,-88.55 184.41,-83.84 183.55,-90.78"/>
</a>
</g>
</g>
<!-- Node5 -->
<g id="Node000005" class="node">
<title>Node5</title>
<g id="a_Node000005"><a xlink:href="classDebugDisplayViewModel.html#a997e4bf3f31b3ebc687d3db9a22dc99c" target="_top" xlink:title=" ">
<polygon fill="white" stroke="#666666" points="320,-67.5 181,-67.5 181,-37.5 320,-37.5 320,-67.5"/>
<text text-anchor="start" x="189" y="-55.5" font-family="Helvetica,sans-Serif" font-size="10.00">DebugDisplayViewModel</text>
<text text-anchor="middle" x="250.5" y="-44.5" font-family="Helvetica,sans-Serif" font-size="10.00">::refreshDisplay</text>
</a>
</g>
</g>
<!-- Node1&#45;&gt;Node5 -->
<g id="edge4_Node000001_Node000005" class="edge">
<title>Node1&#45;&gt;Node5</title>
<g id="a_edge4_Node000001_Node000005"><a xlink:title=" ">
<path fill="none" stroke="#63b8ff" d="M145.09,-64.96C153.57,-63.95 162.26,-62.91 170.83,-61.89"/>
<polygon fill="#63b8ff" stroke="#63b8ff" points="171.31,-65.35 180.82,-60.69 170.48,-58.4 171.31,-65.35"/>
</a>
</g>
</g>
<!-- Node6 -->
<g id="Node000006" class="node">
<title>Node6</title>
<g id="a_Node000006"><a xlink:href="classTimer.html#ab8b4318d87a4ce20f552168be58dce1f" target="_top" xlink:title="Signal that send the pulse of the timer.">
<polygon fill="white" stroke="#666666" points="295,-19 206,-19 206,0 295,0 295,-19"/>
<text text-anchor="middle" x="250.5" y="-7" font-family="Helvetica,sans-Serif" font-size="10.00">Timer::timeout</text>
</a>
</g>
</g>
<!-- Node1&#45;&gt;Node6 -->
<g id="edge5_Node000001_Node000006" class="edge">
<title>Node1&#45;&gt;Node6</title>
<g id="a_edge5_Node000001_Node000006"><a xlink:title=" ">
<path fill="none" stroke="#63b8ff" d="M106.49,-58.42C127.55,-49.11 155.57,-37.31 181,-28.5 187.81,-26.14 195.09,-23.87 202.25,-21.76"/>
<polygon fill="#63b8ff" stroke="#63b8ff" points="203.25,-25.12 211.91,-19.01 201.33,-18.39 203.25,-25.12"/>
</a>
</g>
</g>
<!-- Node3 -->
<g id="Node000003" class="node">
<title>Node3</title>
<g id="a_Node000003"><a xlink:href="classDebugDisplayViewModel.html#ad272f1c0a025d856e9cc247e9313db04" target="_top" xlink:title=" ">
<polygon fill="white" stroke="#666666" points="512,-153.5 356,-153.5 356,-123.5 512,-123.5 512,-153.5"/>
<text text-anchor="start" x="364" y="-141.5" font-family="Helvetica,sans-Serif" font-size="10.00">DebugDisplayViewModel</text>
<text text-anchor="middle" x="434" y="-130.5" font-family="Helvetica,sans-Serif" font-size="10.00">::numberOfBindingsChanged</text>
</a>
</g>
</g>
<!-- Node2&#45;&gt;Node3 -->
<g id="edge2_Node000002_Node000003" class="edge">
<title>Node2&#45;&gt;Node3</title>
<g id="a_edge2_Node000002_Node000003"><a xlink:title=" ">
<path fill="none" stroke="#63b8ff" d="M320.12,-138.5C328.49,-138.5 337.12,-138.5 345.72,-138.5"/>
<polygon fill="#63b8ff" stroke="#63b8ff" points="345.77,-142 355.77,-138.5 345.77,-135 345.77,-142"/>
</a>
</g>
</g>
</g>
</svg>
