<?xml version="1.0" encoding="UTF-8" standalone="no"?>
<!DOCTYPE svg PUBLIC "-//W3C//DTD SVG 1.1//EN"
 "http://www.w3.org/Graphics/SVG/1.1/DTD/svg11.dtd">
<!-- Generated by graphviz version 2.43.0 (0)
 -->
<!-- Title: ActuatorSwitchViewModel::ActuatorSwitchViewModel Pages: 1 -->
<svg width="713pt" height="198pt"
 viewBox="0.00 0.00 713.00 198.00" xmlns="http://www.w3.org/2000/svg" xmlns:xlink="http://www.w3.org/1999/xlink">
<g id="graph0" class="graph" transform="scale(1 1) rotate(0) translate(4 194)">
<title>ActuatorSwitchViewModel::ActuatorSwitchViewModel</title>
<!-- Node1 -->
<g id="Node000001" class="node">
<title>Node1</title>
<g id="a_Node000001"><a xlink:title=" ">
<polygon fill="#999999" stroke="#666666" points="150,-128 0,-128 0,-98 150,-98 150,-128"/>
<text text-anchor="start" x="8" y="-116" font-family="Helvetica,sans-Serif" font-size="10.00">ActuatorSwitchViewModel</text>
<text text-anchor="middle" x="75" y="-105" font-family="Helvetica,sans-Serif" font-size="10.00">::ActuatorSwitchViewModel</text>
</a>
</g>
</g>
<!-- Node2 -->
<g id="Node000002" class="node">
<title>Node2</title>
<g id="a_Node000002"><a xlink:href="classTimer.html#ab8b4318d87a4ce20f552168be58dce1f" target="_top" xlink:title="Signal that send the pulse of the timer.">
<polygon fill="white" stroke="#666666" points="302.5,-144.5 213.5,-144.5 213.5,-125.5 302.5,-125.5 302.5,-144.5"/>
<text text-anchor="middle" x="258" y="-132.5" font-family="Helvetica,sans-Serif" font-size="10.00">Timer::timeout</text>
</a>
</g>
</g>
<!-- Node1&#45;&gt;Node2 -->
<g id="edge1_Node000001_Node000002" class="edge">
<title>Node1&#45;&gt;Node2</title>
<g id="a_edge1_Node000001_Node000002"><a xlink:title=" ">
<path fill="none" stroke="#63b8ff" d="M150.14,-122.01C167.93,-124.17 186.59,-126.44 203.25,-128.47"/>
<polygon fill="#63b8ff" stroke="#63b8ff" points="202.98,-131.96 213.33,-129.69 203.83,-125.01 202.98,-131.96"/>
</a>
</g>
</g>
<!-- Node3 -->
<g id="Node000003" class="node">
<title>Node3</title>
<g id="a_Node000003"><a xlink:href="classActuatorSwitchViewModel.html#afca1d249f6cd2a0a4ce5833d753b9420" target="_top" xlink:title=" ">
<polygon fill="white" stroke="#666666" points="330,-107 186,-107 186,-77 330,-77 330,-107"/>
<text text-anchor="start" x="194" y="-95" font-family="Helvetica,sans-Serif" font-size="10.00">ActuatorSwitchViewModel</text>
<text text-anchor="middle" x="258" y="-84" font-family="Helvetica,sans-Serif" font-size="10.00">::updateStatus</text>
</a>
</g>
</g>
<!-- Node1&#45;&gt;Node3 -->
<g id="edge2_Node000001_Node000003" class="edge">
<title>Node1&#45;&gt;Node3</title>
<g id="a_edge2_Node000001_Node000003"><a xlink:title=" ">
<path fill="none" stroke="#63b8ff" d="M150.14,-104.4C158.63,-103.41 167.32,-102.4 175.9,-101.41"/>
<polygon fill="#63b8ff" stroke="#63b8ff" points="176.36,-104.88 185.89,-100.25 175.56,-97.93 176.36,-104.88"/>
</a>
</g>
</g>
<!-- Node4 -->
<g id="Node000004" class="node">
<title>Node4</title>
<g id="a_Node000004"><a xlink:href="classTestBenchModel.html#ad20ac636e12877b99b3bf0e2ee8e5b07" target="_top" xlink:title=" ">
<polygon fill="white" stroke="#666666" points="520,-181.5 371,-181.5 371,-162.5 520,-162.5 520,-181.5"/>
<text text-anchor="middle" x="445.5" y="-169.5" font-family="Helvetica,sans-Serif" font-size="10.00">TestBenchModel::getStatus</text>
</a>
</g>
</g>
<!-- Node3&#45;&gt;Node4 -->
<g id="edge3_Node000003_Node000004" class="edge">
<title>Node3&#45;&gt;Node4</title>
<g id="a_edge3_Node000003_Node000004"><a xlink:title=" ">
<path fill="none" stroke="#63b8ff" d="M309.75,-107.13C316.75,-110 323.7,-113.28 330,-117 348.44,-127.87 347.27,-138.63 366,-149 373.32,-153.06 381.43,-156.46 389.58,-159.31"/>
<polygon fill="#63b8ff" stroke="#63b8ff" points="388.53,-162.64 399.12,-162.39 390.68,-155.98 388.53,-162.64"/>
</a>
</g>
</g>
<!-- Node6 -->
<g id="Node000006" class="node">
<title>Node6</title>
<g id="a_Node000006"><a xlink:href="classTestBenchModel.html#ace6e3de6f5ccb11ee6e9b3f80b630377" target="_top" xlink:title=" ">
<polygon fill="white" stroke="#666666" points="525,-139.5 366,-139.5 366,-120.5 525,-120.5 525,-139.5"/>
<text text-anchor="middle" x="445.5" y="-127.5" font-family="Helvetica,sans-Serif" font-size="10.00">TestBenchModel::getStatusID</text>
</a>
</g>
</g>
<!-- Node3&#45;&gt;Node6 -->
<g id="edge5_Node000003_Node000006" class="edge">
<title>Node3&#45;&gt;Node6</title>
<g id="a_edge5_Node000003_Node000006"><a xlink:title=" ">
<path fill="none" stroke="#63b8ff" d="M330.19,-106.58C349.33,-110.5 369.76,-114.69 387.98,-118.42"/>
<polygon fill="#63b8ff" stroke="#63b8ff" points="387.36,-121.87 397.86,-120.44 388.76,-115.01 387.36,-121.87"/>
</a>
</g>
</g>
<!-- Node8 -->
<g id="Node000008" class="node">
<title>Node8</title>
<g id="a_Node000008"><a xlink:href="classActuatorSwitchViewModel.html#ab4c09aa374e91472f687b5c0c4374548" target="_top" xlink:title=" ">
<polygon fill="white" stroke="#666666" points="517.5,-64 373.5,-64 373.5,-34 517.5,-34 517.5,-64"/>
<text text-anchor="start" x="381.5" y="-52" font-family="Helvetica,sans-Serif" font-size="10.00">ActuatorSwitchViewModel</text>
<text text-anchor="middle" x="445.5" y="-41" font-family="Helvetica,sans-Serif" font-size="10.00">::setStatus</text>
</a>
</g>
</g>
<!-- Node3&#45;&gt;Node8 -->
<g id="edge7_Node000003_Node000008" class="edge">
<title>Node3&#45;&gt;Node8</title>
<g id="a_edge7_Node000003_Node000008"><a xlink:title=" ">
<path fill="none" stroke="#63b8ff" d="M323.88,-76.96C338.71,-73.52 354.58,-69.84 369.78,-66.32"/>
<polygon fill="#63b8ff" stroke="#63b8ff" points="370.71,-69.7 379.66,-64.03 369.13,-62.88 370.71,-69.7"/>
</a>
</g>
</g>
<!-- Node9 -->
<g id="Node000009" class="node">
<title>Node9</title>
<g id="a_Node000009"><a xlink:href="classActuatorSwitchViewModel.html#a7aaf2fb748566dee79c0bd0945fcc51b" target="_top" xlink:title=" ">
<polygon fill="white" stroke="#666666" points="705,-89 561,-89 561,-59 705,-59 705,-89"/>
<text text-anchor="start" x="569" y="-77" font-family="Helvetica,sans-Serif" font-size="10.00">ActuatorSwitchViewModel</text>
<text text-anchor="middle" x="633" y="-66" font-family="Helvetica,sans-Serif" font-size="10.00">::status</text>
</a>
</g>
</g>
<!-- Node3&#45;&gt;Node9 -->
<g id="edge10_Node000003_Node000009" class="edge">
<title>Node3&#45;&gt;Node9</title>
<g id="a_edge10_Node000003_Node000009"><a xlink:title=" ">
<path fill="none" stroke="#63b8ff" d="M330.04,-88.57C392.94,-85.54 484.73,-81.11 550.57,-77.93"/>
<polygon fill="#63b8ff" stroke="#63b8ff" points="551.09,-81.41 560.91,-77.43 550.75,-74.42 551.09,-81.41"/>
</a>
</g>
</g>
<!-- Node10 -->
<g id="Node000010" class="node">
<title>Node10</title>
<g id="a_Node000010"><a xlink:href="classActuatorSwitchViewModel.html#a3bbde8da90b8046f19e61bf927ca500d" target="_top" xlink:title=" ">
<polygon fill="white" stroke="#666666" points="705,-30 561,-30 561,0 705,0 705,-30"/>
<text text-anchor="start" x="569" y="-18" font-family="Helvetica,sans-Serif" font-size="10.00">ActuatorSwitchViewModel</text>
<text text-anchor="middle" x="633" y="-7" font-family="Helvetica,sans-Serif" font-size="10.00">::statusChanged</text>
</a>
</g>
</g>
<!-- Node3&#45;&gt;Node10 -->
<g id="edge11_Node000003_Node000010" class="edge">
<title>Node3&#45;&gt;Node10</title>
<g id="a_edge11_Node000003_Node000010"><a xlink:title=" ">
<path fill="none" stroke="#63b8ff" d="M276.48,-76.95C296.56,-60.7 331.23,-35.7 366,-25 425.96,-6.55 497.13,-4.86 550.75,-7.33"/>
<polygon fill="#63b8ff" stroke="#63b8ff" points="550.73,-10.84 560.9,-7.86 551.09,-3.85 550.73,-10.84"/>
</a>
</g>
</g>
<!-- Node5 -->
<g id="Node000005" class="node">
<title>Node5</title>
<g id="a_Node000005"><a xlink:href="classTestBenchStatesList.html#a9c69f8c778b31be6b13d95caa7d618b9" target="_top" xlink:title=" ">
<polygon fill="white" stroke="#666666" points="690,-190 576,-190 576,-160 690,-160 690,-190"/>
<text text-anchor="start" x="584" y="-178" font-family="Helvetica,sans-Serif" font-size="10.00">TestBenchStatesList</text>
<text text-anchor="middle" x="633" y="-167" font-family="Helvetica,sans-Serif" font-size="10.00">::getValue</text>
</a>
</g>
</g>
<!-- Node4&#45;&gt;Node5 -->
<g id="edge4_Node000004_Node000005" class="edge">
<title>Node4&#45;&gt;Node5</title>
<g id="a_edge4_Node000004_Node000005"><a xlink:title=" ">
<path fill="none" stroke="#63b8ff" d="M520.08,-173.19C535.2,-173.43 551.04,-173.69 565.88,-173.93"/>
<polygon fill="#63b8ff" stroke="#63b8ff" points="565.92,-177.43 575.97,-174.09 566.03,-170.43 565.92,-177.43"/>
</a>
</g>
</g>
<!-- Node7 -->
<g id="Node000007" class="node">
<title>Node7</title>
<g id="a_Node000007"><a xlink:href="classTestBenchStatesList.html#ad87ab49f0bb0081c228afd6dae8c9e57" target="_top" xlink:title=" ">
<polygon fill="white" stroke="#666666" points="690,-142 576,-142 576,-112 690,-112 690,-142"/>
<text text-anchor="start" x="584" y="-130" font-family="Helvetica,sans-Serif" font-size="10.00">TestBenchStatesList</text>
<text text-anchor="middle" x="633" y="-119" font-family="Helvetica,sans-Serif" font-size="10.00">::getID</text>
</a>
</g>
</g>
<!-- Node6&#45;&gt;Node7 -->
<g id="edge6_Node000006_Node000007" class="edge">
<title>Node6&#45;&gt;Node7</title>
<g id="a_edge6_Node000006_Node000007"><a xlink:title=" ">
<path fill="none" stroke="#63b8ff" d="M525.17,-128.73C538.65,-128.51 552.53,-128.29 565.65,-128.07"/>
<polygon fill="#63b8ff" stroke="#63b8ff" points="566.04,-131.57 575.98,-127.91 565.93,-124.57 566.04,-131.57"/>
</a>
</g>
</g>
<!-- Node8&#45;&gt;Node9 -->
<g id="edge8_Node000008_Node000009" class="edge">
<title>Node8&#45;&gt;Node9</title>
<g id="a_edge8_Node000008_Node000009"><a xlink:title=" ">
<path fill="none" stroke="#63b8ff" d="M517.69,-58.59C528.48,-60.05 539.69,-61.56 550.68,-63.04"/>
<polygon fill="#63b8ff" stroke="#63b8ff" points="550.32,-66.52 560.7,-64.39 551.25,-59.59 550.32,-66.52"/>
</a>
</g>
</g>
<!-- Node8&#45;&gt;Node10 -->
<g id="edge9_Node000008_Node000010" class="edge">
<title>Node8&#45;&gt;Node10</title>
<g id="a_edge9_Node000008_Node000010"><a xlink:title=" ">
<path fill="none" stroke="#63b8ff" d="M517.69,-35.95C528.48,-33.97 539.69,-31.92 550.68,-29.9"/>
<polygon fill="#63b8ff" stroke="#63b8ff" points="551.49,-33.31 560.7,-28.07 550.23,-26.43 551.49,-33.31"/>
</a>
</g>
</g>
</g>
</svg>
