<?xml version="1.0" encoding="UTF-8" standalone="no"?>
<!DOCTYPE svg PUBLIC "-//W3C//DTD SVG 1.1//EN"
 "http://www.w3.org/Graphics/SVG/1.1/DTD/svg11.dtd">
<!-- Generated by graphviz version 2.43.0 (0)
 -->
<!-- Title: TestBenchModel::statesListChanged Pages: 1 -->
<svg width="549pt" height="76pt"
 viewBox="0.00 0.00 549.00 75.50" xmlns="http://www.w3.org/2000/svg" xmlns:xlink="http://www.w3.org/1999/xlink">
<g id="graph0" class="graph" transform="scale(1 1) rotate(0) translate(4 71.5)">
<title>TestBenchModel::statesListChanged</title>
<!-- Node1 -->
<g id="Node000001" class="node">
<title>Node1</title>
<g id="a_Node000001"><a xlink:title=" ">
<polygon fill="#999999" stroke="#666666" points="541,-45.5 392,-45.5 392,-15.5 541,-15.5 541,-45.5"/>
<text text-anchor="start" x="400" y="-33.5" font-family="Helvetica,sans-Serif" font-size="10.00">TestBenchModel::statesList</text>
<text text-anchor="middle" x="466.5" y="-22.5" font-family="Helvetica,sans-Serif" font-size="10.00">Changed</text>
</a>
</g>
</g>
<!-- Node2 -->
<g id="Node000002" class="node">
<title>Node2</title>
<g id="a_Node000002"><a xlink:href="classTestBenchModel.html#aa6e4ca2f6a9c047592a695c188294e50" target="_top" xlink:title=" ">
<polygon fill="white" stroke="#666666" points="344.5,-67.5 199.5,-67.5 199.5,-37.5 344.5,-37.5 344.5,-67.5"/>
<text text-anchor="start" x="207.5" y="-55.5" font-family="Helvetica,sans-Serif" font-size="10.00">TestBenchModel::onStates</text>
<text text-anchor="middle" x="272" y="-44.5" font-family="Helvetica,sans-Serif" font-size="10.00">ListRecieved</text>
</a>
</g>
</g>
<!-- Node1&#45;&gt;Node2 -->
<g id="edge1_Node000001_Node000002" class="edge">
<title>Node1&#45;&gt;Node2</title>
<g id="a_edge1_Node000001_Node000002"><a xlink:title=" ">
<path fill="none" stroke="#63b8ff" d="M381.63,-40.09C369.3,-41.49 356.7,-42.93 344.65,-44.31"/>
<polygon fill="#63b8ff" stroke="#63b8ff" points="382.36,-43.52 391.9,-38.91 381.57,-36.57 382.36,-43.52"/>
</a>
</g>
</g>
<!-- Node4 -->
<g id="Node000004" class="node">
<title>Node4</title>
<g id="a_Node000004"><a xlink:href="classPlotViewModel.html#a0e04a39ca08de4c3687003283f90d6f2" target="_top" xlink:title=" ">
<polygon fill="white" stroke="#666666" points="356,-19 188,-19 188,0 356,0 356,-19"/>
<text text-anchor="middle" x="272" y="-7" font-family="Helvetica,sans-Serif" font-size="10.00">PlotViewModel::PlotViewModel</text>
</a>
</g>
</g>
<!-- Node1&#45;&gt;Node4 -->
<g id="edge3_Node000001_Node000004" class="edge">
<title>Node1&#45;&gt;Node4</title>
<g id="a_edge3_Node000001_Node000004"><a xlink:title=" ">
<path fill="none" stroke="#63b8ff" d="M381.95,-21.39C373.41,-20.45 364.74,-19.51 356.2,-18.58"/>
<polygon fill="#63b8ff" stroke="#63b8ff" points="381.58,-24.87 391.9,-22.47 382.34,-17.91 381.58,-24.87"/>
</a>
</g>
</g>
<!-- Node3 -->
<g id="Node000003" class="node">
<title>Node3</title>
<g id="a_Node000003"><a xlink:href="classTestBenchModel.html#a0535ffdf371433af1c49e0e20c64ba21" target="_top" xlink:title=" ">
<polygon fill="white" stroke="#666666" points="152,-67.5 0,-67.5 0,-37.5 152,-37.5 152,-67.5"/>
<text text-anchor="start" x="8" y="-55.5" font-family="Helvetica,sans-Serif" font-size="10.00">TestBenchModel::TestBench</text>
<text text-anchor="middle" x="76" y="-44.5" font-family="Helvetica,sans-Serif" font-size="10.00">Model</text>
</a>
</g>
</g>
<!-- Node2&#45;&gt;Node3 -->
<g id="edge2_Node000002_Node000003" class="edge">
<title>Node2&#45;&gt;Node3</title>
<g id="a_edge2_Node000002_Node000003"><a xlink:title=" ">
<path fill="none" stroke="#63b8ff" d="M189.14,-52.5C176.92,-52.5 164.37,-52.5 152.29,-52.5"/>
<polygon fill="#63b8ff" stroke="#63b8ff" points="189.31,-56 199.31,-52.5 189.31,-49 189.31,-56"/>
</a>
</g>
</g>
</g>
</svg>
