<?xml version="1.0" encoding="UTF-8" standalone="no"?>
<!DOCTYPE svg PUBLIC "-//W3C//DTD SVG 1.1//EN"
 "http://www.w3.org/Graphics/SVG/1.1/DTD/svg11.dtd">
<!-- Generated by graphviz version 2.43.0 (0)
 -->
<!-- Title: TestTab Pages: 1 -->
<svg width="73pt" height="142pt"
 viewBox="0.00 0.00 73.00 142.00" xmlns="http://www.w3.org/2000/svg" xmlns:xlink="http://www.w3.org/1999/xlink">
<g id="graph0" class="graph" transform="scale(1 1) rotate(0) translate(4 138)">
<title>TestTab</title>
<!-- Node1 -->
<g id="Node000001" class="node">
<title>Node1</title>
<g id="a_Node000001"><a xlink:title=" ">
<polygon fill="#999999" stroke="transparent" points="65,-49 0,-49 0,0 65,0 65,-49"/>
<text text-anchor="start" x="14.5" y="-36.5" font-family="Helvetica,sans-Serif" font-size="10.00">TestTab</text>
<text text-anchor="start" x="31" y="-21.5" font-family="Helvetica,sans-Serif" font-size="10.00"> </text>
<text text-anchor="start" x="4.5" y="-6.5" font-family="Helvetica,sans-Serif" font-size="10.00">+</text>
<text text-anchor="start" x="17.5" y="-6.5" font-family="Helvetica,sans-Serif" font-size="10.00">TestTab()</text>
<polygon fill="#666666" stroke="#666666" points="0.5,-31.5 0.5,-31.5 65.5,-31.5 65.5,-31.5 0.5,-31.5"/>
<polygon fill="#666666" stroke="#666666" points="0.5,-16.5 0.5,-16.5 65.5,-16.5 65.5,-16.5 0.5,-16.5"/>
<polygon fill="none" stroke="#666666" points="0,0 0,-49 65,-49 65,0 0,0"/>
</a>
</g>
</g>
<!-- Node2 -->
<g id="Node000002" class="node">
<title>Node2</title>
<g id="a_Node000002"><a xlink:title=" ">
<polygon fill="white" stroke="transparent" points="59,-134 6,-134 6,-85 59,-85 59,-134"/>
<text text-anchor="start" x="11.5" y="-121.5" font-family="Helvetica,sans-Serif" font-size="10.00">QWidget</text>
<text text-anchor="start" x="31" y="-106.5" font-family="Helvetica,sans-Serif" font-size="10.00"> </text>
<text text-anchor="start" x="31" y="-91.5" font-family="Helvetica,sans-Serif" font-size="10.00"> </text>
<polygon fill="#666666" stroke="#666666" points="6.5,-116.5 6.5,-116.5 59.5,-116.5 59.5,-116.5 6.5,-116.5"/>
<polygon fill="#666666" stroke="#666666" points="6.5,-101.5 6.5,-101.5 59.5,-101.5 59.5,-101.5 6.5,-101.5"/>
<polygon fill="none" stroke="#666666" points="6,-85 6,-134 59,-134 59,-85 6,-85"/>
</a>
</g>
</g>
<!-- Node2&#45;&gt;Node1 -->
<g id="edge1_Node000001_Node000002" class="edge">
<title>Node2&#45;&gt;Node1</title>
<g id="a_edge1_Node000001_Node000002"><a xlink:title=" ">
<path fill="none" stroke="#63b8ff" d="M32.5,-74.77C32.5,-66.17 32.5,-57.1 32.5,-49.12"/>
<polygon fill="none" stroke="#63b8ff" points="29,-74.94 32.5,-84.94 36,-74.94 29,-74.94"/>
</a>
</g>
</g>
</g>
</svg>
