<?xml version="1.0" encoding="UTF-8" standalone="no"?>
<!DOCTYPE svg PUBLIC "-//W3C//DTD SVG 1.1//EN"
 "http://www.w3.org/Graphics/SVG/1.1/DTD/svg11.dtd">
<!-- Generated by graphviz version 2.43.0 (0)
 -->
<!-- Title: LogTerminalViewModel Pages: 1 -->
<!--zoomable 1270 -->

<svg id="main" version="1.1" xmlns="http://www.w3.org/2000/svg" xmlns:xlink="http://www.w3.org/1999/xlink" xml:space="preserve" onload="init(evt)">
<style type="text/css"><![CDATA[
.node, .edge {opacity: 0.7;}
.node.selected, .edge.selected {opacity: 1;}
.edge:hover path { stroke: red; }
.edge:hover polygon { stroke: red; fill: red; }
]]></style>

<defs>
  <circle id="rim" cx="0" cy="0" r="7"/>
  <circle id="rim2" cx="0" cy="0" r="3.5"/>
  <g id="zoomPlus">
    <use xlink:href="#rim" fill="#404040"><set attributeName="fill" to="#808080" begin="zoomplus.mouseover" end="zoomplus.mouseout"/></use>
    <path d="M-4,0h8M0,-4v8" fill="none" stroke="white" stroke-width="1.5" pointer-events="none"/>
  </g>
  <g id="zoomMin">
    <use xlink:href="#rim" fill="#404040"><set attributeName="fill" to="#808080" begin="zoomminus.mouseover" end="zoomminus.mouseout"/></use>
    <path d="M-4,0h8" fill="none" stroke="white" stroke-width="1.5" pointer-events="none"/>
  </g>
  <g id="arrowUp" transform="translate(30 24)">
    <use xlink:href="#rim"/>
    <path pointer-events="none" fill="none" stroke="white" stroke-width="1.5" d="M0,-3.0v7 M-2.5,-0.5L0,-3.0L2.5,-0.5"/>
  </g>
  <g id="arrowRight" transform="rotate(90) translate(36 -43)">
    <use xlink:href="#rim"/>
    <path pointer-events="none" fill="none" stroke="white" stroke-width="1.5" d="M0,-3.0v7 M-2.5,-0.5L0,-3.0L2.5,-0.5"/>
  </g>
  <g id="arrowDown" transform="rotate(180) translate(-30 -48)">
    <use xlink:href="#rim"/>
    <path pointer-events="none" fill="none" stroke="white" stroke-width="1.5" d="M0,-3.0v7 M-2.5,-0.5L0,-3.0L2.5,-0.5"/>
  </g>
  <g id="arrowLeft" transform="rotate(270) translate(-36 17)">
    <use xlink:href="#rim"/>
    <path pointer-events="none" fill="none" stroke="white" stroke-width="1.5" d="M0,-3.0v7 M-2.5,-0.5L0,-3.0L2.5,-0.5"/>
  </g>
  <g id="resetDef">
    <use xlink:href="#rim2" fill="#404040"><set attributeName="fill" to="#808080" begin="reset.mouseover" end="reset.mouseout"/></use>
  </g>
</defs>
<script type="application/ecmascript">
var viewWidth = 569;
var viewHeight = 1270;
var sectionId = 'dynsection-1';
</script>
<script type="application/ecmascript" xlink:href="svg.min.js"/>
<svg id="graph" class="graph">
<g id="viewport">
<title>LogTerminalViewModel</title>
<!-- Node1 -->
<g id="Node000001" class="node">
<title>Node1</title>
<g id="a_Node000001"><a xlink:title=" ">
<polygon fill="#999999" stroke="transparent" points="244,-64 102,-64 102,0 244,0 244,-64"/>
<text text-anchor="start" x="116" y="-52" font-family="Helvetica,sans-Serif" font-size="10.00">LogTerminalViewModel</text>
<text text-anchor="start" x="171" y="-37" font-family="Helvetica,sans-Serif" font-size="10.00"> </text>
<text text-anchor="start" x="106" y="-22" font-family="Helvetica,sans-Serif" font-size="10.00">+</text>
<text text-anchor="start" x="119" y="-22" font-family="Helvetica,sans-Serif" font-size="10.00">LogTerminalViewModel()</text>
<text text-anchor="start" x="106" y="-7" font-family="Helvetica,sans-Serif" font-size="10.00">+</text>
<text text-anchor="start" x="119" y="-7" font-family="Helvetica,sans-Serif" font-size="10.00">onLogReceived()</text>
<polygon fill="#666666" stroke="#666666" points="102,-47 102,-47 244,-47 244,-47 102,-47"/>
<polygon fill="#666666" stroke="#666666" points="102,-32 102,-32 244,-32 244,-32 102,-32"/>
<polygon fill="none" stroke="#666666" points="102,0 102,-64 244,-64 244,0 102,0"/>
</a>
</g>
</g>
<!-- Node2 -->
<g id="Node000002" class="node">
<title>Node2</title>
<g id="a_Node000002"><a xlink:title=" ">
<polygon fill="white" stroke="transparent" points="124,-1262 74,-1262 74,-1213 124,-1213 124,-1262"/>
<text text-anchor="start" x="79" y="-1249.5" font-family="Helvetica,sans-Serif" font-size="10.00">QObject</text>
<text text-anchor="start" x="97" y="-1234.5" font-family="Helvetica,sans-Serif" font-size="10.00"> </text>
<text text-anchor="start" x="97" y="-1219.5" font-family="Helvetica,sans-Serif" font-size="10.00"> </text>
<polygon fill="#666666" stroke="#666666" points="74,-1244.5 74,-1244.5 124,-1244.5 124,-1244.5 74,-1244.5"/>
<polygon fill="#666666" stroke="#666666" points="74,-1229.5 74,-1229.5 124,-1229.5 124,-1229.5 74,-1229.5"/>
<polygon fill="none" stroke="#666666" points="74,-1213 74,-1262 124,-1262 124,-1213 74,-1213"/>
</a>
</g>
</g>
<!-- Node2&#45;&gt;Node1 -->
<g id="edge1_Node000001_Node000002" class="edge">
<title>Node2&#45;&gt;Node1</title>
<g id="a_edge1_Node000001_Node000002"><a xlink:title=" ">
<path fill="none" stroke="#63b8ff" d="M65.16,-1216.4C36.49,-1196.53 0,-1163.24 0,-1122.5 0,-1122.5 0,-1122.5 0,-277 0,-186.64 79.92,-106.39 131.12,-64.25"/>
<polygon fill="none" stroke="#63b8ff" points="63.5,-1219.5 73.76,-1222.13 67.38,-1213.67 63.5,-1219.5"/>
</a>
</g>
</g>
<!-- Node3 -->
<g id="Node000003" class="node">
<title>Node3</title>
<g id="a_Node000003"><a xlink:href="classLogger.html" target="_top" xlink:title=" ">
<polygon fill="white" stroke="transparent" points="300,-1176 232,-1176 232,-1067 300,-1067 300,-1176"/>
<text text-anchor="start" x="249" y="-1163.5" font-family="Helvetica,sans-Serif" font-size="10.00">Logger</text>
<text text-anchor="start" x="264" y="-1148.5" font-family="Helvetica,sans-Serif" font-size="10.00"> </text>
<text text-anchor="start" x="236" y="-1133.5" font-family="Helvetica,sans-Serif" font-size="10.00">+</text>
<text text-anchor="start" x="249" y="-1133.5" font-family="Helvetica,sans-Serif" font-size="10.00">Logger()</text>
<text text-anchor="start" x="236" y="-1118.5" font-family="Helvetica,sans-Serif" font-size="10.00">+</text>
<text text-anchor="start" x="249" y="-1118.5" font-family="Helvetica,sans-Serif" font-size="10.00">log()</text>
<text text-anchor="start" x="236" y="-1103.5" font-family="Helvetica,sans-Serif" font-size="10.00">+</text>
<text text-anchor="start" x="249" y="-1103.5" font-family="Helvetica,sans-Serif" font-size="10.00">debug()</text>
<text text-anchor="start" x="236" y="-1088.5" font-family="Helvetica,sans-Serif" font-size="10.00">+</text>
<text text-anchor="start" x="249" y="-1088.5" font-family="Helvetica,sans-Serif" font-size="10.00">error()</text>
<text text-anchor="start" x="236" y="-1073.5" font-family="Helvetica,sans-Serif" font-size="10.00">+</text>
<text text-anchor="start" x="249" y="-1073.5" font-family="Helvetica,sans-Serif" font-size="10.00">warning()</text>
<polygon fill="#666666" stroke="#666666" points="232,-1158.5 232,-1158.5 300,-1158.5 300,-1158.5 232,-1158.5"/>
<polygon fill="#666666" stroke="#666666" points="232,-1143.5 232,-1143.5 300,-1143.5 300,-1143.5 232,-1143.5"/>
<polygon fill="none" stroke="#666666" points="232,-1067 232,-1176 300,-1176 300,-1067 232,-1067"/>
</a>
</g>
</g>
<!-- Node2&#45;&gt;Node3 -->
<g id="edge3_Node000003_Node000002" class="edge">
<title>Node2&#45;&gt;Node3</title>
<g id="a_edge3_Node000003_Node000002"><a xlink:title=" ">
<path fill="none" stroke="#63b8ff" d="M133.52,-1219.97C147.38,-1212.86 163.3,-1204.1 177,-1195 195.93,-1182.43 215.64,-1166.68 231.7,-1153.07"/>
<polygon fill="none" stroke="#63b8ff" points="131.66,-1216.99 124.3,-1224.61 134.81,-1223.24 131.66,-1216.99"/>
</a>
</g>
</g>
<!-- Node4 -->
<g id="Node000004" class="node">
<title>Node4</title>
<g id="a_Node000004"><a xlink:href="classUdpChannel.html" target="_top" xlink:title="UDP communication channel between the microcontroller and the HMI.">
<polygon fill="white" stroke="transparent" points="240.5,-445 105.5,-445 105.5,-111 240.5,-111 240.5,-445"/>
<text text-anchor="start" x="143.5" y="-433" font-family="Helvetica,sans-Serif" font-size="10.00">UdpChannel</text>
<text text-anchor="start" x="112.5" y="-418" font-family="Helvetica,sans-Serif" font-size="10.00">&#45;</text>
<text text-anchor="start" x="123" y="-418" font-family="Helvetica,sans-Serif" font-size="10.00">m_udpWorkerThread</text>
<text text-anchor="start" x="112.5" y="-403" font-family="Helvetica,sans-Serif" font-size="10.00">&#45;</text>
<text text-anchor="start" x="123" y="-403" font-family="Helvetica,sans-Serif" font-size="10.00">m_udpSocket</text>
<text text-anchor="start" x="112.5" y="-388" font-family="Helvetica,sans-Serif" font-size="10.00">&#45;</text>
<text text-anchor="start" x="123" y="-388" font-family="Helvetica,sans-Serif" font-size="10.00">m_remoteAddr</text>
<text text-anchor="start" x="112.5" y="-373" font-family="Helvetica,sans-Serif" font-size="10.00">&#45;</text>
<text text-anchor="start" x="123" y="-373" font-family="Helvetica,sans-Serif" font-size="10.00">m_remotePort</text>
<text text-anchor="start" x="112.5" y="-358" font-family="Helvetica,sans-Serif" font-size="10.00">&#45;</text>
<text text-anchor="start" x="123" y="-358" font-family="Helvetica,sans-Serif" font-size="10.00">m_localAddr</text>
<text text-anchor="start" x="112.5" y="-343" font-family="Helvetica,sans-Serif" font-size="10.00">&#45;</text>
<text text-anchor="start" x="123" y="-343" font-family="Helvetica,sans-Serif" font-size="10.00">m_localPort</text>
<text text-anchor="start" x="112.5" y="-328" font-family="Helvetica,sans-Serif" font-size="10.00">&#45;</text>
<text text-anchor="start" x="123" y="-328" font-family="Helvetica,sans-Serif" font-size="10.00">m_lastRefresh</text>
<text text-anchor="start" x="112.5" y="-313" font-family="Helvetica,sans-Serif" font-size="10.00">&#45;</text>
<text text-anchor="start" x="123" y="-313" font-family="Helvetica,sans-Serif" font-size="10.00">m_periodOfRefresh</text>
<text text-anchor="start" x="112.5" y="-298" font-family="Helvetica,sans-Serif" font-size="10.00">&#45;</text>
<text text-anchor="start" x="123" y="-298" font-family="Helvetica,sans-Serif" font-size="10.00">m_running</text>
<text text-anchor="start" x="110" y="-283" font-family="Helvetica,sans-Serif" font-size="10.00">+</text>
<text text-anchor="start" x="123" y="-283" font-family="Helvetica,sans-Serif" font-size="10.00">UdpChannel()</text>
<text text-anchor="start" x="110" y="-268" font-family="Helvetica,sans-Serif" font-size="10.00">+</text>
<text text-anchor="start" x="123" y="-268" font-family="Helvetica,sans-Serif" font-size="10.00">~UdpChannel()</text>
<text text-anchor="start" x="110" y="-253" font-family="Helvetica,sans-Serif" font-size="10.00">+</text>
<text text-anchor="start" x="123" y="-253" font-family="Helvetica,sans-Serif" font-size="10.00">startEndpoint()</text>
<text text-anchor="start" x="110" y="-238" font-family="Helvetica,sans-Serif" font-size="10.00">+</text>
<text text-anchor="start" x="123" y="-238" font-family="Helvetica,sans-Serif" font-size="10.00">stopEndpoint()</text>
<text text-anchor="start" x="110" y="-223" font-family="Helvetica,sans-Serif" font-size="10.00">+</text>
<text text-anchor="start" x="123" y="-223" font-family="Helvetica,sans-Serif" font-size="10.00">sendData()</text>
<text text-anchor="start" x="110" y="-208" font-family="Helvetica,sans-Serif" font-size="10.00">+</text>
<text text-anchor="start" x="123" y="-208" font-family="Helvetica,sans-Serif" font-size="10.00">running()</text>
<text text-anchor="start" x="110" y="-193" font-family="Helvetica,sans-Serif" font-size="10.00">+</text>
<text text-anchor="start" x="123" y="-193" font-family="Helvetica,sans-Serif" font-size="10.00">remoteAddr()</text>
<text text-anchor="start" x="110" y="-178" font-family="Helvetica,sans-Serif" font-size="10.00">+</text>
<text text-anchor="start" x="123" y="-178" font-family="Helvetica,sans-Serif" font-size="10.00">remotePort()</text>
<text text-anchor="start" x="110" y="-163" font-family="Helvetica,sans-Serif" font-size="10.00">+</text>
<text text-anchor="start" x="123" y="-163" font-family="Helvetica,sans-Serif" font-size="10.00">localAddr()</text>
<text text-anchor="start" x="110" y="-148" font-family="Helvetica,sans-Serif" font-size="10.00">+</text>
<text text-anchor="start" x="123" y="-148" font-family="Helvetica,sans-Serif" font-size="10.00">localPort()</text>
<text text-anchor="start" x="123" y="-133" font-family="Helvetica,sans-Serif" font-size="10.00">and 6 more...</text>
<text text-anchor="start" x="110" y="-118" font-family="Helvetica,sans-Serif" font-size="10.00">+</text>
<text text-anchor="start" x="123" y="-118" font-family="Helvetica,sans-Serif" font-size="10.00">onDatagramReceived()</text>
<polygon fill="#666666" stroke="#666666" points="106,-428 106,-428 241,-428 241,-428 106,-428"/>
<polygon fill="#666666" stroke="#666666" points="106,-293 106,-293 121,-293 121,-293 106,-293"/>
<polygon fill="#666666" stroke="#666666" points="121,-293 121,-293 241,-293 241,-293 121,-293"/>
<polygon fill="none" stroke="#666666" points="105.5,-111 105.5,-445 240.5,-445 240.5,-111 105.5,-111"/>
</a>
</g>
</g>
<!-- Node2&#45;&gt;Node4 -->
<g id="edge5_Node000004_Node000002" class="edge">
<title>Node2&#45;&gt;Node4</title>
<g id="a_edge5_Node000004_Node000002"><a xlink:title=" ">
<path fill="none" stroke="#63b8ff" d="M71.02,-1204.51C54.98,-1182.88 38,-1152.82 38,-1122.5 38,-1122.5 38,-1122.5 38,-553 38,-485.25 71.62,-416.89 105.3,-365.39"/>
<polygon fill="none" stroke="#63b8ff" points="68.44,-1206.89 77.32,-1212.67 73.98,-1202.61 68.44,-1206.89"/>
</a>
</g>
</g>
<!-- Node5 -->
<g id="Node000005" class="node">
<title>Node5</title>
<g id="a_Node000005"><a xlink:href="classUdpWorker.html" target="_top" xlink:title="UDP socket worker running on a dedicated thread.">
<polygon fill="white" stroke="transparent" points="361,-616 201,-616 201,-492 361,-492 361,-616"/>
<text text-anchor="start" x="254" y="-604" font-family="Helvetica,sans-Serif" font-size="10.00">UdpWorker</text>
<text text-anchor="start" x="207.5" y="-589" font-family="Helvetica,sans-Serif" font-size="10.00">&#45;</text>
<text text-anchor="start" x="218" y="-589" font-family="Helvetica,sans-Serif" font-size="10.00">socket</text>
<text text-anchor="start" x="207.5" y="-574" font-family="Helvetica,sans-Serif" font-size="10.00">&#45;</text>
<text text-anchor="start" x="218" y="-574" font-family="Helvetica,sans-Serif" font-size="10.00">m_lastFrameSend</text>
<text text-anchor="start" x="205" y="-559" font-family="Helvetica,sans-Serif" font-size="10.00">+</text>
<text text-anchor="start" x="218" y="-559" font-family="Helvetica,sans-Serif" font-size="10.00">UdpWorker()</text>
<text text-anchor="start" x="205" y="-544" font-family="Helvetica,sans-Serif" font-size="10.00">+</text>
<text text-anchor="start" x="218" y="-544" font-family="Helvetica,sans-Serif" font-size="10.00">start()</text>
<text text-anchor="start" x="205" y="-529" font-family="Helvetica,sans-Serif" font-size="10.00">+</text>
<text text-anchor="start" x="218" y="-529" font-family="Helvetica,sans-Serif" font-size="10.00">stop()</text>
<text text-anchor="start" x="207.5" y="-514" font-family="Helvetica,sans-Serif" font-size="10.00">&#45;</text>
<text text-anchor="start" x="218" y="-514" font-family="Helvetica,sans-Serif" font-size="10.00">decimate()</text>
<text text-anchor="start" x="207.5" y="-499" font-family="Helvetica,sans-Serif" font-size="10.00">&#45;</text>
<text text-anchor="start" x="218" y="-499" font-family="Helvetica,sans-Serif" font-size="10.00">processPendingDatagrams()</text>
<polygon fill="#666666" stroke="#666666" points="201,-599 201,-599 361,-599 361,-599 201,-599"/>
<polygon fill="#666666" stroke="#666666" points="201,-569 201,-569 216,-569 216,-569 201,-569"/>
<polygon fill="#666666" stroke="#666666" points="216,-569 216,-569 361,-569 361,-569 216,-569"/>
<polygon fill="none" stroke="#666666" points="201,-492 201,-616 361,-616 361,-492 201,-492"/>
</a>
</g>
</g>
<!-- Node2&#45;&gt;Node5 -->
<g id="edge7_Node000005_Node000002" class="edge">
<title>Node2&#45;&gt;Node5</title>
<g id="a_edge7_Node000005_Node000002"><a xlink:title=" ">
<path fill="none" stroke="#63b8ff" d="M110.44,-1203.39C111.34,-1200.56 112.2,-1197.74 113,-1195 131.7,-1130.84 137.69,-1114.87 149,-1049 180.38,-866.33 104.88,-798.64 190,-634 193.22,-627.77 197.15,-621.83 201.56,-616.19"/>
<polygon fill="none" stroke="#63b8ff" points="107.11,-1202.31 107.34,-1212.91 113.77,-1204.49 107.11,-1202.31"/>
</a>
</g>
</g>
<!-- Node7 -->
<g id="Node000007" class="node">
<title>Node7</title>
<g id="a_Node000007"><a xlink:href="classFileSystem.html" target="_top" xlink:title=" ">
<polygon fill="white" stroke="transparent" points="145,-1049 53,-1049 53,-970 145,-970 145,-1049"/>
<text text-anchor="start" x="71.5" y="-1036.5" font-family="Helvetica,sans-Serif" font-size="10.00">FileSystem</text>
<text text-anchor="start" x="59.5" y="-1021.5" font-family="Helvetica,sans-Serif" font-size="10.00">&#45;</text>
<text text-anchor="start" x="70" y="-1021.5" font-family="Helvetica,sans-Serif" font-size="10.00">m_pathList</text>
<text text-anchor="start" x="57" y="-1006.5" font-family="Helvetica,sans-Serif" font-size="10.00">+</text>
<text text-anchor="start" x="70" y="-1006.5" font-family="Helvetica,sans-Serif" font-size="10.00">FileSystem()</text>
<text text-anchor="start" x="57" y="-991.5" font-family="Helvetica,sans-Serif" font-size="10.00">+</text>
<text text-anchor="start" x="70" y="-991.5" font-family="Helvetica,sans-Serif" font-size="10.00">addDirectory()</text>
<text text-anchor="start" x="57" y="-976.5" font-family="Helvetica,sans-Serif" font-size="10.00">+</text>
<text text-anchor="start" x="70" y="-976.5" font-family="Helvetica,sans-Serif" font-size="10.00">getDirectory()</text>
<polygon fill="#666666" stroke="#666666" points="53,-1031.5 53,-1031.5 145,-1031.5 145,-1031.5 53,-1031.5"/>
<polygon fill="#666666" stroke="#666666" points="53,-1016.5 53,-1016.5 68,-1016.5 68,-1016.5 53,-1016.5"/>
<polygon fill="#666666" stroke="#666666" points="68,-1016.5 68,-1016.5 145,-1016.5 145,-1016.5 68,-1016.5"/>
<polygon fill="none" stroke="#666666" points="53,-970 53,-1049 145,-1049 145,-970 53,-970"/>
</a>
</g>
</g>
<!-- Node2&#45;&gt;Node7 -->
<g id="edge12_Node000007_Node000002" class="edge">
<title>Node2&#45;&gt;Node7</title>
<g id="a_edge12_Node000007_Node000002"><a xlink:title=" ">
<path fill="none" stroke="#63b8ff" d="M99,-1202.69C99,-1161.64 99,-1092.55 99,-1049.35"/>
<polygon fill="none" stroke="#63b8ff" points="95.5,-1202.74 99,-1212.74 102.5,-1202.74 95.5,-1202.74"/>
</a>
</g>
</g>
<!-- Node3&#45;&gt;Node1 -->
<g id="edge2_Node000001_Node000003" class="edge">
<title>Node3&#45;&gt;Node1</title>
<g id="a_edge2_Node000001_Node000003"><a xlink:title=" ">
<path fill="none" stroke="#63b8ff" d="M300.19,-1103.53C325.34,-1090.3 359.75,-1070.59 387,-1049 433.81,-1011.91 452.86,-1005.2 480,-952 509.46,-894.26 506,-873.32 506,-808.5 506,-808.5 506,-808.5 506,-277 506,-153.2 354.4,-85.38 255.78,-54.36"/>
<polygon fill="none" stroke="#63b8ff" points="255.5,-54.27 248.59,-56.34 244.03,-50.76 250.94,-48.69 255.5,-54.27"/>
</a>
</g>
<text text-anchor="middle" x="533.5" y="-551.5" font-family="Helvetica,sans-Serif" font-size="10.00" fill="grey"> &#45;m_Logger</text>
</g>
<!-- Node3&#45;&gt;Node4 -->
<g id="edge13_Node000004_Node000003" class="edge">
<title>Node3&#45;&gt;Node4</title>
<g id="a_edge13_Node000004_Node000003"><a xlink:title=" ">
<path fill="none" stroke="#63b8ff" d="M256.53,-1066.94C240.65,-975.01 208.73,-781.14 192,-616 186.79,-564.59 182.92,-508.61 180.07,-457.31"/>
<polygon fill="none" stroke="#63b8ff" points="180.06,-457.05 175.74,-451.28 179.41,-445.07 183.73,-450.84 180.06,-457.05"/>
</a>
</g>
<text text-anchor="middle" x="220.5" y="-637" font-family="Helvetica,sans-Serif" font-size="10.00" fill="grey"> &#45;m_logger</text>
</g>
<!-- Node3&#45;&gt;Node5 -->
<g id="edge10_Node000005_Node000003" class="edge">
<title>Node3&#45;&gt;Node5</title>
<g id="a_edge10_Node000005_Node000003"><a xlink:title=" ">
<path fill="none" stroke="#63b8ff" d="M266.75,-1066.96C268.03,-981.52 271.02,-809.1 276,-663 276.38,-651.72 276.86,-639.79 277.37,-628.12"/>
<polygon fill="none" stroke="#63b8ff" points="277.37,-628.09 273.65,-621.92 277.91,-616.1 281.64,-622.28 277.37,-628.09"/>
</a>
</g>
<text text-anchor="middle" x="302.5" y="-805" font-family="Helvetica,sans-Serif" font-size="10.00" fill="grey"> &#45;m_logger</text>
</g>
<!-- Node6 -->
<g id="Node000006" class="node">
<title>Node6</title>
<g id="a_Node000006"><a xlink:href="classUdpLogger.html" target="_top" xlink:title="High&#45;frequency binary logger for UDP telemetry frames.">
<polygon fill="white" stroke="transparent" points="470.5,-952 337.5,-952 337.5,-663 470.5,-663 470.5,-952"/>
<text text-anchor="start" x="378" y="-939.5" font-family="Helvetica,sans-Serif" font-size="10.00">UdpLogger</text>
<text text-anchor="start" x="344.5" y="-924.5" font-family="Helvetica,sans-Serif" font-size="10.00">&#45;</text>
<text text-anchor="start" x="355" y="-924.5" font-family="Helvetica,sans-Serif" font-size="10.00">m_writer</text>
<text text-anchor="start" x="344.5" y="-909.5" font-family="Helvetica,sans-Serif" font-size="10.00">&#45;</text>
<text text-anchor="start" x="355" y="-909.5" font-family="Helvetica,sans-Serif" font-size="10.00">m_ringBuffer</text>
<text text-anchor="start" x="344.5" y="-894.5" font-family="Helvetica,sans-Serif" font-size="10.00">&#45;</text>
<text text-anchor="start" x="355" y="-894.5" font-family="Helvetica,sans-Serif" font-size="10.00">m_running</text>
<text text-anchor="start" x="344.5" y="-879.5" font-family="Helvetica,sans-Serif" font-size="10.00">&#45;</text>
<text text-anchor="start" x="355" y="-879.5" font-family="Helvetica,sans-Serif" font-size="10.00">m_writerThread</text>
<text text-anchor="start" x="344.5" y="-864.5" font-family="Helvetica,sans-Serif" font-size="10.00">&#45;</text>
<text text-anchor="start" x="355" y="-864.5" font-family="Helvetica,sans-Serif" font-size="10.00">m_logDirPath</text>
<text text-anchor="start" x="344.5" y="-849.5" font-family="Helvetica,sans-Serif" font-size="10.00">&#45;</text>
<text text-anchor="start" x="355" y="-849.5" font-family="Helvetica,sans-Serif" font-size="10.00">MAX_FRAME_SIZE</text>
<text text-anchor="start" x="342" y="-834.5" font-family="Helvetica,sans-Serif" font-size="10.00">+</text>
<text text-anchor="start" x="355" y="-834.5" font-family="Helvetica,sans-Serif" font-size="10.00">UdpLogger()</text>
<text text-anchor="start" x="342" y="-819.5" font-family="Helvetica,sans-Serif" font-size="10.00">+</text>
<text text-anchor="start" x="355" y="-819.5" font-family="Helvetica,sans-Serif" font-size="10.00">~UdpLogger()</text>
<text text-anchor="start" x="342" y="-804.5" font-family="Helvetica,sans-Serif" font-size="10.00">+</text>
<text text-anchor="start" x="355" y="-804.5" font-family="Helvetica,sans-Serif" font-size="10.00">UdpLogger()</text>
<text text-anchor="start" x="342" y="-789.5" font-family="Helvetica,sans-Serif" font-size="10.00">+</text>
<text text-anchor="start" x="355" y="-789.5" font-family="Helvetica,sans-Serif" font-size="10.00">operator=()</text>
<text text-anchor="start" x="342" y="-774.5" font-family="Helvetica,sans-Serif" font-size="10.00">+</text>
<text text-anchor="start" x="355" y="-774.5" font-family="Helvetica,sans-Serif" font-size="10.00">UdpLogger()</text>
<text text-anchor="start" x="342" y="-759.5" font-family="Helvetica,sans-Serif" font-size="10.00">+</text>
<text text-anchor="start" x="355" y="-759.5" font-family="Helvetica,sans-Serif" font-size="10.00">operator=()</text>
<text text-anchor="start" x="342" y="-744.5" font-family="Helvetica,sans-Serif" font-size="10.00">+</text>
<text text-anchor="start" x="355" y="-744.5" font-family="Helvetica,sans-Serif" font-size="10.00">log()</text>
<text text-anchor="start" x="342" y="-729.5" font-family="Helvetica,sans-Serif" font-size="10.00">+</text>
<text text-anchor="start" x="355" y="-729.5" font-family="Helvetica,sans-Serif" font-size="10.00">cyclesCount()</text>
<text text-anchor="start" x="342" y="-714.5" font-family="Helvetica,sans-Serif" font-size="10.00">+</text>
<text text-anchor="start" x="355" y="-714.5" font-family="Helvetica,sans-Serif" font-size="10.00">droppedFramesCount()</text>
<text text-anchor="start" x="342" y="-699.5" font-family="Helvetica,sans-Serif" font-size="10.00">+</text>
<text text-anchor="start" x="355" y="-699.5" font-family="Helvetica,sans-Serif" font-size="10.00">start()</text>
<text text-anchor="start" x="342" y="-684.5" font-family="Helvetica,sans-Serif" font-size="10.00">+</text>
<text text-anchor="start" x="355" y="-684.5" font-family="Helvetica,sans-Serif" font-size="10.00">stop()</text>
<text text-anchor="start" x="344.5" y="-669.5" font-family="Helvetica,sans-Serif" font-size="10.00">&#45;</text>
<text text-anchor="start" x="355" y="-669.5" font-family="Helvetica,sans-Serif" font-size="10.00">writerLoop()</text>
<polygon fill="#666666" stroke="#666666" points="338,-934.5 338,-934.5 471,-934.5 471,-934.5 338,-934.5"/>
<polygon fill="#666666" stroke="#666666" points="338,-844.5 338,-844.5 353,-844.5 353,-844.5 338,-844.5"/>
<polygon fill="#666666" stroke="#666666" points="353,-844.5 353,-844.5 471,-844.5 471,-844.5 353,-844.5"/>
<polygon fill="none" stroke="#666666" points="337.5,-663 337.5,-952 470.5,-952 470.5,-663 337.5,-663"/>
</a>
</g>
</g>
<!-- Node3&#45;&gt;Node6 -->
<g id="edge9_Node000006_Node000003" class="edge">
<title>Node3&#45;&gt;Node6</title>
<g id="a_edge9_Node000006_Node000003"><a xlink:title=" ">
<path fill="none" stroke="#63b8ff" d="M289.72,-1066.87C302.52,-1037.93 319.05,-1000.57 335.53,-963.31"/>
<polygon fill="none" stroke="#63b8ff" points="335.55,-963.26 334.32,-956.15 340.4,-952.28 341.64,-959.39 335.55,-963.26"/>
</a>
</g>
<text text-anchor="middle" x="356.5" y="-1007" font-family="Helvetica,sans-Serif" font-size="10.00" fill="grey"> &#45;m_logger</text>
</g>
<!-- Node4&#45;&gt;Node1 -->
<g id="edge4_Node000001_Node000004" class="edge">
<title>Node4&#45;&gt;Node1</title>
<g id="a_edge4_Node000001_Node000004"><a xlink:title=" ">
<path fill="none" stroke="#63b8ff" d="M173,-110.87C173,-98.4 173,-86.63 173,-76.21"/>
<polygon fill="none" stroke="#63b8ff" points="173,-76.2 169,-70.2 173,-64.2 177,-70.2 173,-76.2"/>
</a>
</g>
<text text-anchor="middle" x="213" y="-85" font-family="Helvetica,sans-Serif" font-size="10.00" fill="grey"> &#45;m_udpChannel</text>
</g>
<!-- Node5&#45;&gt;Node4 -->
<g id="edge6_Node000004_Node000005" class="edge">
<title>Node5&#45;&gt;Node4</title>
<g id="a_edge6_Node000004_Node000005"><a xlink:title=" ">
<path fill="none" stroke="#63b8ff" d="M256.9,-491.85C252.59,-480.92 247.91,-469.05 243.04,-456.7"/>
<polygon fill="none" stroke="#63b8ff" points="242.92,-456.39 237,-452.28 238.52,-445.23 244.44,-449.34 242.92,-456.39"/>
</a>
</g>
<text text-anchor="middle" x="286" y="-466" font-family="Helvetica,sans-Serif" font-size="10.00" fill="grey"> &#45;m_udpWorker</text>
</g>
<!-- Node6&#45;&gt;Node4 -->
<g id="edge14_Node000004_Node000006" class="edge">
<title>Node6&#45;&gt;Node4</title>
<g id="a_edge14_Node000004_Node000006"><a xlink:title=" ">
<path fill="none" stroke="#63b8ff" d="M407.45,-662.89C403.99,-607.42 394,-544.74 370,-492 342.93,-432.5 292.68,-378.59 249.71,-339.9"/>
<polygon fill="none" stroke="#63b8ff" points="249.64,-339.83 242.5,-338.85 240.66,-331.87 247.81,-332.86 249.64,-339.83"/>
</a>
</g>
<text text-anchor="middle" x="438.5" y="-551.5" font-family="Helvetica,sans-Serif" font-size="10.00" fill="grey"> &#45;m_udpLogger</text>
</g>
<!-- Node6&#45;&gt;Node5 -->
<g id="edge8_Node000005_Node000006" class="edge">
<title>Node6&#45;&gt;Node5</title>
<g id="a_edge8_Node000005_Node000006"><a xlink:title=" ">
<path fill="none" stroke="#63b8ff" d="M337.35,-687.68C332.53,-679.31 327.71,-671.02 323,-663 318.25,-654.92 315.99,-653.48 312,-645 309.38,-639.44 306.87,-633.6 304.49,-627.68"/>
<polygon fill="none" stroke="#63b8ff" points="304.4,-627.43 298.51,-623.27 300.08,-616.23 305.97,-620.39 304.4,-627.43"/>
</a>
</g>
<text text-anchor="middle" x="347.5" y="-637" font-family="Helvetica,sans-Serif" font-size="10.00" fill="grey"> &#45;m_udplogger</text>
</g>
<!-- Node7&#45;&gt;Node4 -->
<g id="edge11_Node000004_Node000007" class="edge">
<title>Node7&#45;&gt;Node4</title>
<g id="a_edge11_Node000004_Node000007"><a xlink:title=" ">
<path fill="none" stroke="#63b8ff" d="M91.89,-969.78C80.46,-901.61 60.81,-755.86 77,-634 84.77,-575.5 99.44,-512.97 115.02,-456.94"/>
<polygon fill="none" stroke="#63b8ff" points="115.11,-456.64 112.88,-449.78 118.36,-445.09 120.58,-451.95 115.11,-456.64"/>
</a>
</g>
<text text-anchor="middle" x="114" y="-637" font-family="Helvetica,sans-Serif" font-size="10.00" fill="grey"> &#45;m_fileSystem</text>
</g>
</g>
</svg>

<g id="navigator" transform="translate(0 0)" fill="#404254">
  <rect fill="#f2f5e9" fill-opacity="0.5" stroke="#606060" stroke-width=".5" x="0" y="0" width="60" height="60"/>
  <use id="zoomplus" xlink:href="#zoomPlus" x="17" y="9" onmousedown="handleZoom(evt,'in')"/>
  <use id="zoomminus" xlink:href="#zoomMin" x="42" y="9" onmousedown="handleZoom(evt,'out')"/>
  <use id="reset" xlink:href="#resetDef" x="30" y="36" onmousedown="handleReset()"/>
   <use id="arrowup" xlink:href="#arrowUp" x="0" y="0" onmousedown="handlePan(0,-1)"/>
  <use id="arrowright" xlink:href="#arrowRight" x="0" y="0" onmousedown="handlePan(1,0)"/>
  <use id="arrowdown" xlink:href="#arrowDown" x="0" y="0" onmousedown="handlePan(0,1)"/>
  <use id="arrowleft" xlink:href="#arrowLeft" x="0" y="0" onmousedown="handlePan(-1,0)"/>
</g>
<svg viewBox="0 0 15 15" width="100%" height="30px" preserveAspectRatio="xMaxYMin meet">
 <g id="arrow_out" transform="scale(0.3 0.3)">
  <a xlink:href="classLogTerminalViewModel__coll__graph_org.svg" target="_base">
   <rect id="button" ry="5" rx="5" y="6" x="6" height="38" width="38"
        fill="#f2f5e9" fill-opacity="0.5" stroke="#606060" stroke-width="1.0"/>
   <path id="arrow"
     d="M 11.500037,31.436501 C 11.940474,20.09759 22.043105,11.32322 32.158766,21.979434 L 37.068811,17.246167 C 37.068811,17.246167 37.088388,32 37.088388,32 L 22.160133,31.978069 C 22.160133,31.978069 26.997745,27.140456 26.997745,27.140456 C 18.528582,18.264221 13.291696,25.230495 11.500037,31.436501 z"
     style="fill:#404040;"/>
  </a>
 </g>
</svg>

<style type='text/css'>
<![CDATA[
[data-mouse-over-selected='false'] { opacity: 0.7; }
[data-mouse-over-selected='true']  { opacity: 1.0; }
]]>
</style>
<script type="application/ecmascript"><![CDATA[
document.addEventListener('DOMContentLoaded', (event) => {
  highlightEdges();
  highlightAdjacentNodes();
});
]]></script>
</svg>
