<?xml version="1.0" encoding="UTF-8" standalone="no"?>
<!DOCTYPE svg PUBLIC "-//W3C//DTD SVG 1.1//EN"
 "http://www.w3.org/Graphics/SVG/1.1/DTD/svg11.dtd">
<!-- Generated by graphviz version 2.43.0 (0)
 -->
<!-- Title: UdpChannel::StatesListReceived Pages: 1 -->
<svg width="584pt" height="76pt"
 viewBox="0.00 0.00 584.00 75.50" xmlns="http://www.w3.org/2000/svg" xmlns:xlink="http://www.w3.org/1999/xlink">
<g id="graph0" class="graph" transform="scale(1 1) rotate(0) translate(4 71.5)">
<title>UdpChannel::StatesListReceived</title>
<!-- Node1 -->
<g id="Node000001" class="node">
<title>Node1</title>
<g id="a_Node000001"><a xlink:title=" ">
<polygon fill="#999999" stroke="#666666" points="576,-45.5 401,-45.5 401,-26.5 576,-26.5 576,-45.5"/>
<text text-anchor="middle" x="488.5" y="-33.5" font-family="Helvetica,sans-Serif" font-size="10.00">UdpChannel::StatesListReceived</text>
</a>
</g>
</g>
<!-- Node2 -->
<g id="Node000002" class="node">
<title>Node2</title>
<g id="a_Node000002"><a xlink:href="classUdpChannel.html#a4f2c0c2ee1edbc192415cbb518bc44dd" target="_top" xlink:title="Decode and dispatch an incoming UDP datagram.">
<polygon fill="white" stroke="#666666" points="365,-67.5 177,-67.5 177,-48.5 365,-48.5 365,-67.5"/>
<text text-anchor="middle" x="271" y="-55.5" font-family="Helvetica,sans-Serif" font-size="10.00">UdpChannel::onDatagramReceived</text>
</a>
</g>
</g>
<!-- Node1&#45;&gt;Node2 -->
<g id="edge1_Node000001_Node000002" class="edge">
<title>Node1&#45;&gt;Node2</title>
<g id="a_edge1_Node000001_Node000002"><a xlink:title=" ">
<path fill="none" stroke="#63b8ff" d="M390.56,-45.9C382.14,-46.76 373.63,-47.62 365.24,-48.48"/>
<polygon fill="#63b8ff" stroke="#63b8ff" points="391.19,-49.35 400.78,-44.85 390.48,-42.39 391.19,-49.35"/>
</a>
</g>
</g>
<!-- Node4 -->
<g id="Node000004" class="node">
<title>Node4</title>
<g id="a_Node000004"><a xlink:href="classTestBenchModel.html#a0535ffdf371433af1c49e0e20c64ba21" target="_top" xlink:title=" ">
<polygon fill="white" stroke="#666666" points="347,-30 195,-30 195,0 347,0 347,-30"/>
<text text-anchor="start" x="203" y="-18" font-family="Helvetica,sans-Serif" font-size="10.00">TestBenchModel::TestBench</text>
<text text-anchor="middle" x="271" y="-7" font-family="Helvetica,sans-Serif" font-size="10.00">Model</text>
</a>
</g>
</g>
<!-- Node1&#45;&gt;Node4 -->
<g id="edge3_Node000001_Node000004" class="edge">
<title>Node1&#45;&gt;Node4</title>
<g id="a_edge3_Node000001_Node000004"><a xlink:title=" ">
<path fill="none" stroke="#63b8ff" d="M390.71,-26.57C376.08,-25.14 361.18,-23.69 347.1,-22.32"/>
<polygon fill="#63b8ff" stroke="#63b8ff" points="390.49,-30.06 400.78,-27.55 391.17,-23.1 390.49,-30.06"/>
</a>
</g>
</g>
<!-- Node3 -->
<g id="Node000003" class="node">
<title>Node3</title>
<g id="a_Node000003"><a xlink:href="classUdpChannel.html#a1d69213eb88b5305686f1ef9ade76e04" target="_top" xlink:title=" ">
<polygon fill="white" stroke="#666666" points="141,-67.5 0,-67.5 0,-48.5 141,-48.5 141,-67.5"/>
<text text-anchor="middle" x="70.5" y="-55.5" font-family="Helvetica,sans-Serif" font-size="10.00">UdpChannel::UdpChannel</text>
</a>
</g>
</g>
<!-- Node2&#45;&gt;Node3 -->
<g id="edge2_Node000002_Node000003" class="edge">
<title>Node2&#45;&gt;Node3</title>
<g id="a_edge2_Node000002_Node000003"><a xlink:title=" ">
<path fill="none" stroke="#63b8ff" d="M166.73,-58C158.1,-58 149.52,-58 141.24,-58"/>
<polygon fill="#63b8ff" stroke="#63b8ff" points="166.85,-61.5 176.85,-58 166.85,-54.5 166.85,-61.5"/>
</a>
</g>
</g>
</g>
</svg>
