<?xml version="1.0" encoding="UTF-8" standalone="no"?>
<!DOCTYPE svg PUBLIC "-//W3C//DTD SVG 1.1//EN"
 "http://www.w3.org/Graphics/SVG/1.1/DTD/svg11.dtd">
<!-- Generated by graphviz version 2.43.0 (0)
 -->
<!-- Title: UdpWorker::processPendingDatagrams Pages: 1 -->
<svg width="364pt" height="138pt"
 viewBox="0.00 0.00 364.00 138.00" xmlns="http://www.w3.org/2000/svg" xmlns:xlink="http://www.w3.org/1999/xlink">
<g id="graph0" class="graph" transform="scale(1 1) rotate(0) translate(4 134)">
<title>UdpWorker::processPendingDatagrams</title>
<!-- Node1 -->
<g id="Node000001" class="node">
<title>Node1</title>
<g id="a_Node000001"><a xlink:title=" ">
<polygon fill="#999999" stroke="#666666" points="152,-79.5 0,-79.5 0,-49.5 152,-49.5 152,-79.5"/>
<text text-anchor="start" x="8" y="-67.5" font-family="Helvetica,sans-Serif" font-size="10.00">UdpWorker::processPending</text>
<text text-anchor="middle" x="76" y="-56.5" font-family="Helvetica,sans-Serif" font-size="10.00">Datagrams</text>
</a>
</g>
</g>
<!-- Node2 -->
<g id="Node000002" class="node">
<title>Node2</title>
<g id="a_Node000002"><a xlink:href="classUdpWorker.html#abf76f544794092e13cfcad6ad275f96b" target="_top" xlink:title=" ">
<polygon fill="white" stroke="#666666" points="356,-130 188,-130 188,-111 356,-111 356,-130"/>
<text text-anchor="middle" x="272" y="-118" font-family="Helvetica,sans-Serif" font-size="10.00">UdpWorker::datagramRecieved</text>
</a>
</g>
</g>
<!-- Node1&#45;&gt;Node2 -->
<g id="edge1_Node000001_Node000002" class="edge">
<title>Node1&#45;&gt;Node2</title>
<g id="a_edge1_Node000001_Node000002"><a xlink:title=" ">
<path fill="none" stroke="#63b8ff" d="M117.24,-79.54C138.16,-87.03 164.26,-95.89 188,-102.5 195.88,-104.69 204.24,-106.78 212.5,-108.71"/>
<polygon fill="#63b8ff" stroke="#63b8ff" points="211.96,-112.18 222.49,-110.97 213.51,-105.35 211.96,-112.18"/>
</a>
</g>
</g>
<!-- Node3 -->
<g id="Node000003" class="node">
<title>Node3</title>
<g id="a_Node000003"><a xlink:href="classUdpWorker.html#a45d906596983ae73bc230e6474ab44cb" target="_top" xlink:title=" ">
<polygon fill="white" stroke="#666666" points="333,-93 211,-93 211,-74 333,-74 333,-93"/>
<text text-anchor="middle" x="272" y="-81" font-family="Helvetica,sans-Serif" font-size="10.00">UdpWorker::decimate</text>
</a>
</g>
</g>
<!-- Node1&#45;&gt;Node3 -->
<g id="edge2_Node000001_Node000003" class="edge">
<title>Node1&#45;&gt;Node3</title>
<g id="a_edge2_Node000001_Node000003"><a xlink:title=" ">
<path fill="none" stroke="#63b8ff" d="M152.01,-71.85C168.01,-73.41 184.86,-75.06 200.68,-76.61"/>
<polygon fill="#63b8ff" stroke="#63b8ff" points="200.62,-80.12 210.91,-77.62 201.3,-73.16 200.62,-80.12"/>
</a>
</g>
</g>
<!-- Node4 -->
<g id="Node000004" class="node">
<title>Node4</title>
<g id="a_Node000004"><a xlink:href="classProtocolCodec.html#afcf2e22453c9281ff2761e8523f25340" target="_top" xlink:title=" ">
<polygon fill="white" stroke="#666666" points="354,-56 190,-56 190,-37 354,-37 354,-56"/>
<text text-anchor="middle" x="272" y="-44" font-family="Helvetica,sans-Serif" font-size="10.00">ProtocolCodec::isSensorFrame</text>
</a>
</g>
</g>
<!-- Node1&#45;&gt;Node4 -->
<g id="edge3_Node000001_Node000004" class="edge">
<title>Node1&#45;&gt;Node4</title>
<g id="a_edge3_Node000001_Node000004"><a xlink:title=" ">
<path fill="none" stroke="#63b8ff" d="M152.01,-57.54C161.09,-56.7 170.44,-55.83 179.73,-54.97"/>
<polygon fill="#63b8ff" stroke="#63b8ff" points="180.12,-58.45 189.76,-54.04 179.48,-51.48 180.12,-58.45"/>
</a>
</g>
</g>
<!-- Node5 -->
<g id="Node000005" class="node">
<title>Node5</title>
<g id="a_Node000005"><a xlink:href="classUdpLogger.html#af906a235ecd2b3ce89f8fe052e46991e" target="_top" xlink:title=" ">
<polygon fill="white" stroke="#666666" points="317,-19 227,-19 227,0 317,0 317,-19"/>
<text text-anchor="middle" x="272" y="-7" font-family="Helvetica,sans-Serif" font-size="10.00">UdpLogger::log</text>
</a>
</g>
</g>
<!-- Node1&#45;&gt;Node5 -->
<g id="edge4_Node000001_Node000005" class="edge">
<title>Node1&#45;&gt;Node5</title>
<g id="a_edge4_Node000001_Node000005"><a xlink:title=" ">
<path fill="none" stroke="#63b8ff" d="M120.22,-49.5C140.65,-42.66 165.44,-34.73 188,-28.5 197.31,-25.93 207.27,-23.44 216.94,-21.14"/>
<polygon fill="#63b8ff" stroke="#63b8ff" points="217.93,-24.51 226.88,-18.84 216.35,-17.69 217.93,-24.51"/>
</a>
</g>
</g>
</g>
</svg>
