<?xml version="1.0" encoding="UTF-8" standalone="no"?>
<!DOCTYPE svg PUBLIC "-//W3C//DTD SVG 1.1//EN"
 "http://www.w3.org/Graphics/SVG/1.1/DTD/svg11.dtd">
<!-- Generated by graphviz version 2.43.0 (0)
 -->
<!-- Title: AppViewModel::create Pages: 1 -->
<svg width="662pt" height="239pt"
 viewBox="0.00 0.00 662.00 238.94" xmlns="http://www.w3.org/2000/svg" xmlns:xlink="http://www.w3.org/1999/xlink">
<g id="graph0" class="graph" transform="scale(1 1) rotate(0) translate(4 234.94)">
<title>AppViewModel::create</title>
<!-- Node1 -->
<g id="Node000001" class="node">
<title>Node1</title>
<g id="a_Node000001"><a xlink:title=" ">
<polygon fill="#999999" stroke="#666666" points="654,-117.94 528,-117.94 528,-98.94 654,-98.94 654,-117.94"/>
<text text-anchor="middle" x="591" y="-105.94" font-family="Helvetica,sans-Serif" font-size="10.00">AppViewModel::create</text>
</a>
</g>
</g>
<!-- Node2 -->
<g id="Node000002" class="node">
<title>Node2</title>
<g id="a_Node000002"><a xlink:href="FilesMenuFactory_8cpp.html#ac6ee6c728cdd1a759926949e367596b4" target="_top" xlink:title=" ">
<polygon fill="white" stroke="#666666" points="277,-230.94 189,-230.94 189,-211.94 277,-211.94 277,-230.94"/>
<text text-anchor="middle" x="233" y="-218.94" font-family="Helvetica,sans-Serif" font-size="10.00">makeFileMenu</text>
</a>
</g>
</g>
<!-- Node1&#45;&gt;Node2 -->
<g id="edge1_Node000001_Node000002" class="edge">
<title>Node1&#45;&gt;Node2</title>
<g id="a_edge1_Node000001_Node000002"><a xlink:title=" ">
<path fill="none" stroke="#63b8ff" d="M575.06,-125.63C557.33,-144.74 525.9,-174.83 492,-189.44 421.13,-220 329.82,-224.01 277,-223.31"/>
<polygon fill="#63b8ff" stroke="#63b8ff" points="577.88,-127.72 581.98,-117.96 572.69,-123.03 577.88,-127.72"/>
</a>
</g>
</g>
<!-- Node4 -->
<g id="Node000004" class="node">
<title>Node4</title>
<g id="a_Node000004"><a xlink:href="GraphicTabFactory_8cpp.html#a413ec40d77621241794c116daff86ad6" target="_top" xlink:title=" ">
<polygon fill="white" stroke="#666666" points="282,-193.94 184,-193.94 184,-174.94 282,-174.94 282,-193.94"/>
<text text-anchor="middle" x="233" y="-181.94" font-family="Helvetica,sans-Serif" font-size="10.00">makeGraphicTab</text>
</a>
</g>
</g>
<!-- Node1&#45;&gt;Node4 -->
<g id="edge3_Node000001_Node000004" class="edge">
<title>Node1&#45;&gt;Node4</title>
<g id="a_edge3_Node000001_Node000004"><a xlink:title=" ">
<path fill="none" stroke="#63b8ff" d="M569.34,-123.89C550.32,-137.19 520.78,-155.6 492,-164.44 421.36,-186.16 334.97,-188.23 282.24,-186.93"/>
<polygon fill="#63b8ff" stroke="#63b8ff" points="571.45,-126.69 577.54,-118.02 567.37,-121 571.45,-126.69"/>
</a>
</g>
</g>
<!-- Node5 -->
<g id="Node000005" class="node">
<title>Node5</title>
<g id="a_Node000005"><a xlink:href="OverlayFactory_8cpp.html#a3ca844a1b8cf3620e36851dd87b154ed" target="_top" xlink:title=" ">
<polygon fill="white" stroke="#666666" points="446,-154.94 364,-154.94 364,-135.94 446,-135.94 446,-154.94"/>
<text text-anchor="middle" x="405" y="-142.94" font-family="Helvetica,sans-Serif" font-size="10.00">makeOverlay</text>
</a>
</g>
</g>
<!-- Node1&#45;&gt;Node5 -->
<g id="edge5_Node000001_Node000005" class="edge">
<title>Node1&#45;&gt;Node5</title>
<g id="a_edge5_Node000001_Node000005"><a xlink:title=" ">
<path fill="none" stroke="#63b8ff" d="M532.52,-120C504.45,-125.65 471.36,-132.3 446.06,-137.39"/>
<polygon fill="#63b8ff" stroke="#63b8ff" points="533.5,-123.38 542.62,-117.97 532.12,-116.51 533.5,-123.38"/>
</a>
</g>
</g>
<!-- Node6 -->
<g id="Node000006" class="node">
<title>Node6</title>
<g id="a_Node000006"><a xlink:href="ParametersWindowFactory_8cpp.html#ac014b3b990f0c9178e75fbdbe44f88ba" target="_top" xlink:title=" ">
<polygon fill="white" stroke="#666666" points="474,-117.94 336,-117.94 336,-98.94 474,-98.94 474,-117.94"/>
<text text-anchor="middle" x="405" y="-105.94" font-family="Helvetica,sans-Serif" font-size="10.00">makeParametersWindow</text>
</a>
</g>
</g>
<!-- Node1&#45;&gt;Node6 -->
<g id="edge7_Node000001_Node000006" class="edge">
<title>Node1&#45;&gt;Node6</title>
<g id="a_edge7_Node000001_Node000006"><a xlink:title=" ">
<path fill="none" stroke="#63b8ff" d="M517.65,-108.44C503.31,-108.44 488.29,-108.44 474.09,-108.44"/>
<polygon fill="#63b8ff" stroke="#63b8ff" points="517.96,-111.94 527.96,-108.44 517.96,-104.94 517.96,-111.94"/>
</a>
</g>
</g>
<!-- Node8 -->
<g id="Node000008" class="node">
<title>Node8</title>
<g id="a_Node000008"><a xlink:href="PidTabFactory_8cpp.html#a0786b8afab88f3413b720e1edfab985c" target="_top" xlink:title=" ">
<polygon fill="white" stroke="#666666" points="442.5,-80.94 367.5,-80.94 367.5,-61.94 442.5,-61.94 442.5,-80.94"/>
<text text-anchor="middle" x="405" y="-68.94" font-family="Helvetica,sans-Serif" font-size="10.00">makePidTab</text>
</a>
</g>
</g>
<!-- Node1&#45;&gt;Node8 -->
<g id="edge10_Node000001_Node000008" class="edge">
<title>Node1&#45;&gt;Node8</title>
<g id="a_edge10_Node000001_Node000008"><a xlink:title=" ">
<path fill="none" stroke="#63b8ff" d="M532.5,-96.88C503.2,-90.99 468.43,-84 442.77,-78.84"/>
<polygon fill="#63b8ff" stroke="#63b8ff" points="532.12,-100.38 542.62,-98.92 533.5,-93.51 532.12,-100.38"/>
</a>
</g>
</g>
<!-- Node9 -->
<g id="Node000009" class="node">
<title>Node9</title>
<g id="a_Node000009"><a xlink:href="TankPressureControlerFrameFactory_8cpp.html#a7dfd416596b7d62fee0cee4dfdaabd78" target="_top" xlink:title=" ">
<polygon fill="white" stroke="#666666" points="492,-43.94 318,-43.94 318,-24.94 492,-24.94 492,-43.94"/>
<text text-anchor="middle" x="405" y="-31.94" font-family="Helvetica,sans-Serif" font-size="10.00">makeTankPressureControlFrame</text>
</a>
</g>
</g>
<!-- Node1&#45;&gt;Node9 -->
<g id="edge12_Node000001_Node000009" class="edge">
<title>Node1&#45;&gt;Node9</title>
<g id="a_edge12_Node000001_Node000009"><a xlink:title=" ">
<path fill="none" stroke="#63b8ff" d="M568.05,-93.23C548.82,-80.56 519.68,-62.95 492,-52.44 483.16,-49.09 473.55,-46.3 464.08,-44.01"/>
<polygon fill="#63b8ff" stroke="#63b8ff" points="566.15,-96.16 576.4,-98.83 570.05,-90.35 566.15,-96.16"/>
</a>
</g>
</g>
<!-- Node10 -->
<g id="Node000010" class="node">
<title>Node10</title>
<g id="a_Node000010"><a xlink:href="TestTabFactory_8cpp.html#af93292430ddd132525a606042ffdd4a9" target="_top" xlink:title=" ">
<polygon fill="white" stroke="#666666" points="273,-41.94 193,-41.94 193,-22.94 273,-22.94 273,-41.94"/>
<text text-anchor="middle" x="233" y="-29.94" font-family="Helvetica,sans-Serif" font-size="10.00">makeTestTab</text>
</a>
</g>
</g>
<!-- Node1&#45;&gt;Node10 -->
<g id="edge15_Node000001_Node000010" class="edge">
<title>Node1&#45;&gt;Node10</title>
<g id="a_edge15_Node000001_Node000010"><a xlink:title=" ">
<path fill="none" stroke="#63b8ff" d="M577.95,-90.6C561.57,-68.11 529.91,-30.57 492,-15.44 413.62,15.83 311.22,-8 262.35,-22.86"/>
<polygon fill="#63b8ff" stroke="#63b8ff" points="575.21,-92.78 583.83,-98.94 580.93,-88.75 575.21,-92.78"/>
</a>
</g>
</g>
<!-- Node3 -->
<g id="Node000003" class="node">
<title>Node3</title>
<g id="a_Node000003"><a xlink:href="classMainWindow.html#ae2f22622b4e0955cef2b824413bf361b" target="_top" xlink:title=" ">
<polygon fill="white" stroke="#666666" points="148,-136.94 0,-136.94 0,-117.94 148,-117.94 148,-136.94"/>
<text text-anchor="middle" x="74" y="-124.94" font-family="Helvetica,sans-Serif" font-size="10.00">MainWindow::MainWindow</text>
</a>
</g>
</g>
<!-- Node2&#45;&gt;Node3 -->
<g id="edge2_Node000002_Node000003" class="edge">
<title>Node2&#45;&gt;Node3</title>
<g id="a_edge2_Node000002_Node000003"><a xlink:title=" ">
<path fill="none" stroke="#63b8ff" d="M193.67,-208.07C190.35,-206.61 187.09,-205.07 184,-203.44 146.22,-183.59 106.12,-152.74 86.78,-137.16"/>
<polygon fill="#63b8ff" stroke="#63b8ff" points="192.48,-211.37 203.06,-211.93 195.14,-204.89 192.48,-211.37"/>
</a>
</g>
</g>
<!-- Node4&#45;&gt;Node3 -->
<g id="edge4_Node000004_Node000003" class="edge">
<title>Node4&#45;&gt;Node3</title>
<g id="a_edge4_Node000004_Node000003"><a xlink:title=" ">
<path fill="none" stroke="#63b8ff" d="M196.01,-171.38C167.15,-160.9 127.32,-146.44 101.36,-137.02"/>
<polygon fill="#63b8ff" stroke="#63b8ff" points="195.13,-174.78 205.72,-174.9 197.52,-168.2 195.13,-174.78"/>
</a>
</g>
</g>
<!-- Node5&#45;&gt;Node3 -->
<g id="edge6_Node000005_Node000003" class="edge">
<title>Node5&#45;&gt;Node3</title>
<g id="a_edge6_Node000005_Node000003"><a xlink:title=" ">
<path fill="none" stroke="#63b8ff" d="M353.82,-142.7C298.97,-139.7 210.6,-134.86 148.06,-131.44"/>
<polygon fill="#63b8ff" stroke="#63b8ff" points="353.81,-146.2 363.99,-143.26 354.19,-139.21 353.81,-146.2"/>
</a>
</g>
</g>
<!-- Node7 -->
<g id="Node000007" class="node">
<title>Node7</title>
<g id="a_Node000007"><a xlink:href="ToolsMenuFactory_8cpp.html#aa473d13ba6439e110d4c304c3c992276" target="_top" xlink:title=" ">
<polygon fill="white" stroke="#666666" points="280.5,-117.94 185.5,-117.94 185.5,-98.94 280.5,-98.94 280.5,-117.94"/>
<text text-anchor="middle" x="233" y="-105.94" font-family="Helvetica,sans-Serif" font-size="10.00">makeToolsMenu</text>
</a>
</g>
</g>
<!-- Node6&#45;&gt;Node7 -->
<g id="edge8_Node000006_Node000007" class="edge">
<title>Node6&#45;&gt;Node7</title>
<g id="a_edge8_Node000006_Node000007"><a xlink:title=" ">
<path fill="none" stroke="#63b8ff" d="M325.74,-108.44C310.28,-108.44 294.52,-108.44 280.52,-108.44"/>
<polygon fill="#63b8ff" stroke="#63b8ff" points="325.83,-111.94 335.83,-108.44 325.83,-104.94 325.83,-111.94"/>
</a>
</g>
</g>
<!-- Node7&#45;&gt;Node3 -->
<g id="edge9_Node000007_Node000003" class="edge">
<title>Node7&#45;&gt;Node3</title>
<g id="a_edge9_Node000007_Node000003"><a xlink:title=" ">
<path fill="none" stroke="#63b8ff" d="M175.24,-115.31C166.48,-116.37 157.33,-117.48 148.27,-118.58"/>
<polygon fill="#63b8ff" stroke="#63b8ff" points="175.81,-118.77 185.32,-114.09 174.97,-111.82 175.81,-118.77"/>
</a>
</g>
</g>
<!-- Node8&#45;&gt;Node3 -->
<g id="edge11_Node000008_Node000003" class="edge">
<title>Node8&#45;&gt;Node3</title>
<g id="a_edge11_Node000008_Node000003"><a xlink:title=" ">
<path fill="none" stroke="#63b8ff" d="M357.39,-72.22C312.53,-73.73 243,-78.07 184,-90.44 153.49,-96.84 119.69,-109.18 97.94,-117.85"/>
<polygon fill="#63b8ff" stroke="#63b8ff" points="357.51,-75.72 367.4,-71.92 357.3,-68.72 357.51,-75.72"/>
</a>
</g>
</g>
<!-- Node9&#45;&gt;Node10 -->
<g id="edge13_Node000009_Node000010" class="edge">
<title>Node9&#45;&gt;Node10</title>
<g id="a_edge13_Node000009_Node000010"><a xlink:title=" ">
<path fill="none" stroke="#63b8ff" d="M307.31,-33.31C295.24,-33.17 283.48,-33.03 273.05,-32.9"/>
<polygon fill="#63b8ff" stroke="#63b8ff" points="307.47,-36.81 317.51,-33.43 307.55,-29.81 307.47,-36.81"/>
</a>
</g>
</g>
<!-- Node10&#45;&gt;Node3 -->
<g id="edge14_Node000010_Node000003" class="edge">
<title>Node10&#45;&gt;Node3</title>
<g id="a_edge14_Node000010_Node000003"><a xlink:title=" ">
<path fill="none" stroke="#63b8ff" d="M202.32,-46.62C196.2,-49.73 189.84,-53.1 184,-56.44 148.73,-76.66 109.17,-103.55 88.79,-117.73"/>
<polygon fill="#63b8ff" stroke="#63b8ff" points="204.25,-49.57 211.65,-41.99 201.13,-43.3 204.25,-49.57"/>
</a>
</g>
</g>
</g>
</svg>
