<?xml version="1.0" encoding="UTF-8" standalone="no"?>
<!DOCTYPE svg PUBLIC "-//W3C//DTD SVG 1.1//EN"
 "http://www.w3.org/Graphics/SVG/1.1/DTD/svg11.dtd">
<!-- Generated by graphviz version 2.43.0 (0)
 -->
<!-- Title: ActuatorSwitchViewModel::name Pages: 1 -->
<svg width="514pt" height="148pt"
 viewBox="0.00 0.00 514.00 147.50" xmlns="http://www.w3.org/2000/svg" xmlns:xlink="http://www.w3.org/1999/xlink">
<g id="graph0" class="graph" transform="scale(1 1) rotate(0) translate(4 143.5)">
<title>ActuatorSwitchViewModel::name</title>
<!-- Node1 -->
<g id="Node000001" class="node">
<title>Node1</title>
<g id="a_Node000001"><a xlink:title=" ">
<polygon fill="#999999" stroke="#666666" points="506,-91.5 362,-91.5 362,-61.5 506,-61.5 506,-91.5"/>
<text text-anchor="start" x="370" y="-79.5" font-family="Helvetica,sans-Serif" font-size="10.00">ActuatorSwitchViewModel</text>
<text text-anchor="middle" x="434" y="-68.5" font-family="Helvetica,sans-Serif" font-size="10.00">::name</text>
</a>
</g>
</g>
<!-- Node2 -->
<g id="Node000002" class="node">
<title>Node2</title>
<g id="a_Node000002"><a xlink:href="classStatusTableWidget.html#a76e50b9a999c694b5d10763bd7473303" target="_top" xlink:title=" ">
<polygon fill="white" stroke="#666666" points="310.5,-139.5 197.5,-139.5 197.5,-109.5 310.5,-109.5 310.5,-139.5"/>
<text text-anchor="start" x="205.5" y="-127.5" font-family="Helvetica,sans-Serif" font-size="10.00">StatusTableWidget::</text>
<text text-anchor="middle" x="254" y="-116.5" font-family="Helvetica,sans-Serif" font-size="10.00">addActuator</text>
</a>
</g>
</g>
<!-- Node1&#45;&gt;Node2 -->
<g id="edge1_Node000001_Node000002" class="edge">
<title>Node1&#45;&gt;Node2</title>
<g id="a_edge1_Node000001_Node000002"><a xlink:title=" ">
<path fill="none" stroke="#63b8ff" d="M367.29,-94.22C348.67,-99.24 328.59,-104.65 310.63,-109.5"/>
<polygon fill="#63b8ff" stroke="#63b8ff" points="368.42,-97.54 377.17,-91.56 366.6,-90.78 368.42,-97.54"/>
</a>
</g>
</g>
<!-- Node4 -->
<g id="Node000004" class="node">
<title>Node4</title>
<g id="a_Node000004"><a xlink:href="classActuatorSwitchWidget.html#af9fbb6ab5d0db3b3f6d6db92c7321f5b" target="_top" xlink:title=" ">
<polygon fill="white" stroke="#666666" points="316.5,-43.5 191.5,-43.5 191.5,-13.5 316.5,-13.5 316.5,-43.5"/>
<text text-anchor="start" x="199.5" y="-31.5" font-family="Helvetica,sans-Serif" font-size="10.00">ActuatorSwitchWidget</text>
<text text-anchor="middle" x="254" y="-20.5" font-family="Helvetica,sans-Serif" font-size="10.00">::display</text>
</a>
</g>
</g>
<!-- Node1&#45;&gt;Node4 -->
<g id="edge3_Node000001_Node000004" class="edge">
<title>Node1&#45;&gt;Node4</title>
<g id="a_edge3_Node000001_Node000004"><a xlink:title=" ">
<path fill="none" stroke="#63b8ff" d="M367.29,-58.78C348.67,-53.76 328.59,-48.35 310.63,-43.5"/>
<polygon fill="#63b8ff" stroke="#63b8ff" points="366.6,-62.22 377.17,-61.44 368.42,-55.46 366.6,-62.22"/>
</a>
</g>
</g>
<!-- Node7 -->
<g id="Node000007" class="node">
<title>Node7</title>
<g id="a_Node000007"><a xlink:href="classActuatorSwitchViewModel.html#a83e42640f24a341b32969d3a27dd0bc9" target="_top" xlink:title=" ">
<polygon fill="white" stroke="#666666" points="326,-91.5 182,-91.5 182,-61.5 326,-61.5 326,-91.5"/>
<text text-anchor="start" x="190" y="-79.5" font-family="Helvetica,sans-Serif" font-size="10.00">ActuatorSwitchViewModel</text>
<text text-anchor="middle" x="254" y="-68.5" font-family="Helvetica,sans-Serif" font-size="10.00">::setName</text>
</a>
</g>
</g>
<!-- Node1&#45;&gt;Node7 -->
<g id="edge6_Node000001_Node000007" class="edge">
<title>Node1&#45;&gt;Node7</title>
<g id="a_edge6_Node000001_Node000007"><a xlink:title=" ">
<path fill="none" stroke="#63b8ff" d="M351.83,-76.5C343.21,-76.5 334.49,-76.5 326,-76.5"/>
<polygon fill="#63b8ff" stroke="#63b8ff" points="351.88,-80 361.88,-76.5 351.88,-73 351.88,-80"/>
</a>
</g>
</g>
<!-- Node3 -->
<g id="Node000003" class="node">
<title>Node3</title>
<g id="a_Node000003"><a xlink:href="classPidTab.html#acbc2f0dd63aac6e755c0022af8b96c90" target="_top" xlink:title=" ">
<polygon fill="white" stroke="#666666" points="116,-119 30,-119 30,-100 116,-100 116,-119"/>
<text text-anchor="middle" x="73" y="-107" font-family="Helvetica,sans-Serif" font-size="10.00">PidTab::PidTab</text>
</a>
</g>
</g>
<!-- Node2&#45;&gt;Node3 -->
<g id="edge2_Node000002_Node000003" class="edge">
<title>Node2&#45;&gt;Node3</title>
<g id="a_edge2_Node000002_Node000003"><a xlink:title=" ">
<path fill="none" stroke="#63b8ff" d="M187.34,-119C163.6,-117.01 137.45,-114.82 116.25,-113.04"/>
<polygon fill="#63b8ff" stroke="#63b8ff" points="187.09,-122.49 197.34,-119.84 187.67,-115.51 187.09,-122.49"/>
</a>
</g>
</g>
<!-- Node5 -->
<g id="Node000005" class="node">
<title>Node5</title>
<g id="a_Node000005"><a xlink:href="classGlowPlugSwitch.html#a601229de111a3002eab95e6628a809c2" target="_top" xlink:title=" ">
<polygon fill="white" stroke="#666666" points="146,-67.5 0,-67.5 0,-37.5 146,-37.5 146,-67.5"/>
<text text-anchor="start" x="8" y="-55.5" font-family="Helvetica,sans-Serif" font-size="10.00">GlowPlugSwitch::GlowPlug</text>
<text text-anchor="middle" x="73" y="-44.5" font-family="Helvetica,sans-Serif" font-size="10.00">Switch</text>
</a>
</g>
</g>
<!-- Node4&#45;&gt;Node5 -->
<g id="edge4_Node000004_Node000005" class="edge">
<title>Node4&#45;&gt;Node5</title>
<g id="a_edge4_Node000004_Node000005"><a xlink:title=" ">
<path fill="none" stroke="#63b8ff" d="M181.35,-38.11C169.78,-39.66 157.78,-41.27 146.19,-42.82"/>
<polygon fill="#63b8ff" stroke="#63b8ff" points="181.95,-41.56 191.4,-36.76 181.02,-34.62 181.95,-41.56"/>
</a>
</g>
</g>
<!-- Node6 -->
<g id="Node000006" class="node">
<title>Node6</title>
<g id="a_Node000006"><a xlink:href="classValveSwitch.html#a7764850d7ec0c40ff1cc5b6c6f1ab8f5" target="_top" xlink:title=" ">
<polygon fill="white" stroke="#666666" points="143.5,-19 2.5,-19 2.5,0 143.5,0 143.5,-19"/>
<text text-anchor="middle" x="73" y="-7" font-family="Helvetica,sans-Serif" font-size="10.00">ValveSwitch::ValveSwitch</text>
</a>
</g>
</g>
<!-- Node4&#45;&gt;Node6 -->
<g id="edge5_Node000004_Node000006" class="edge">
<title>Node4&#45;&gt;Node6</title>
<g id="a_edge5_Node000004_Node000006"><a xlink:title=" ">
<path fill="none" stroke="#63b8ff" d="M181.16,-20.87C168.81,-19.56 155.99,-18.2 143.7,-16.9"/>
<polygon fill="#63b8ff" stroke="#63b8ff" points="181.08,-24.39 191.4,-21.96 181.82,-17.43 181.08,-24.39"/>
</a>
</g>
</g>
<!-- Node7&#45;&gt;Node3 -->
<g id="edge7_Node000007_Node000003" class="edge">
<title>Node7&#45;&gt;Node3</title>
<g id="a_edge7_Node000007_Node000003"><a xlink:title=" ">
<path fill="none" stroke="#63b8ff" d="M171.96,-91.44C152.63,-95 132.76,-98.67 116.02,-101.75"/>
<polygon fill="#63b8ff" stroke="#63b8ff" points="172.8,-94.84 182,-89.59 171.53,-87.96 172.8,-94.84"/>
</a>
</g>
</g>
</g>
</svg>
