<?xml version="1.0" encoding="UTF-8" standalone="no"?>
<!DOCTYPE svg PUBLIC "-//W3C//DTD SVG 1.1//EN"
 "http://www.w3.org/Graphics/SVG/1.1/DTD/svg11.dtd">
<!-- Generated by graphviz version 2.43.0 (0)
 -->
<!-- Title: PidTab Pages: 1 -->
<!--zoomable 1597 -->

<svg id="main" version="1.1" xmlns="http://www.w3.org/2000/svg" xmlns:xlink="http://www.w3.org/1999/xlink" xml:space="preserve" onload="init(evt)">
<style type="text/css"><![CDATA[
.node, .edge {opacity: 0.7;}
.node.selected, .edge.selected {opacity: 1;}
.edge:hover path { stroke: red; }
.edge:hover polygon { stroke: red; fill: red; }
]]></style>

<defs>
  <circle id="rim" cx="0" cy="0" r="7"/>
  <circle id="rim2" cx="0" cy="0" r="3.5"/>
  <g id="zoomPlus">
    <use xlink:href="#rim" fill="#404040"><set attributeName="fill" to="#808080" begin="zoomplus.mouseover" end="zoomplus.mouseout"/></use>
    <path d="M-4,0h8M0,-4v8" fill="none" stroke="white" stroke-width="1.5" pointer-events="none"/>
  </g>
  <g id="zoomMin">
    <use xlink:href="#rim" fill="#404040"><set attributeName="fill" to="#808080" begin="zoomminus.mouseover" end="zoomminus.mouseout"/></use>
    <path d="M-4,0h8" fill="none" stroke="white" stroke-width="1.5" pointer-events="none"/>
  </g>
  <g id="arrowUp" transform="translate(30 24)">
    <use xlink:href="#rim"/>
    <path pointer-events="none" fill="none" stroke="white" stroke-width="1.5" d="M0,-3.0v7 M-2.5,-0.5L0,-3.0L2.5,-0.5"/>
  </g>
  <g id="arrowRight" transform="rotate(90) translate(36 -43)">
    <use xlink:href="#rim"/>
    <path pointer-events="none" fill="none" stroke="white" stroke-width="1.5" d="M0,-3.0v7 M-2.5,-0.5L0,-3.0L2.5,-0.5"/>
  </g>
  <g id="arrowDown" transform="rotate(180) translate(-30 -48)">
    <use xlink:href="#rim"/>
    <path pointer-events="none" fill="none" stroke="white" stroke-width="1.5" d="M0,-3.0v7 M-2.5,-0.5L0,-3.0L2.5,-0.5"/>
  </g>
  <g id="arrowLeft" transform="rotate(270) translate(-36 17)">
    <use xlink:href="#rim"/>
    <path pointer-events="none" fill="none" stroke="white" stroke-width="1.5" d="M0,-3.0v7 M-2.5,-0.5L0,-3.0L2.5,-0.5"/>
  </g>
  <g id="resetDef">
    <use xlink:href="#rim2" fill="#404040"><set attributeName="fill" to="#808080" begin="reset.mouseover" end="reset.mouseout"/></use>
  </g>
</defs>
<script type="application/ecmascript">
var viewWidth = 506;
var viewHeight = 1597;
var sectionId = 'dynsection-1';
</script>
<script type="application/ecmascript" xlink:href="svg.min.js"/>
<svg id="graph" class="graph">
<g id="viewport">
<title>PidTab</title>
<!-- Node1 -->
<g id="Node000001" class="node">
<title>Node1</title>
<g id="a_Node000001"><a xlink:title=" ">
<polygon fill="#999999" stroke="transparent" points="216,-64 90,-64 90,0 216,0 216,-64"/>
<text text-anchor="start" x="137" y="-52" font-family="Helvetica,sans-Serif" font-size="10.00">PidTab</text>
<text text-anchor="start" x="151" y="-37" font-family="Helvetica,sans-Serif" font-size="10.00"> </text>
<text text-anchor="start" x="94" y="-22" font-family="Helvetica,sans-Serif" font-size="10.00">+</text>
<text text-anchor="start" x="107" y="-22" font-family="Helvetica,sans-Serif" font-size="10.00">PidTab()</text>
<text text-anchor="start" x="94" y="-7" font-family="Helvetica,sans-Serif" font-size="10.00">+</text>
<text text-anchor="start" x="107" y="-7" font-family="Helvetica,sans-Serif" font-size="10.00">onPIDStateChanged()</text>
<polygon fill="#666666" stroke="#666666" points="90,-47 90,-47 216,-47 216,-47 90,-47"/>
<polygon fill="#666666" stroke="#666666" points="90,-32 90,-32 216,-32 216,-32 90,-32"/>
<polygon fill="none" stroke="#666666" points="90,0 90,-64 216,-64 216,0 90,0"/>
</a>
</g>
</g>
<!-- Node2 -->
<g id="Node000002" class="node">
<title>Node2</title>
<g id="a_Node000002"><a xlink:title=" ">
<polygon fill="white" stroke="transparent" points="70.5,-175 17.5,-175 17.5,-126 70.5,-126 70.5,-175"/>
<text text-anchor="start" x="23" y="-162.5" font-family="Helvetica,sans-Serif" font-size="10.00">QWidget</text>
<text text-anchor="start" x="42.5" y="-147.5" font-family="Helvetica,sans-Serif" font-size="10.00"> </text>
<text text-anchor="start" x="42.5" y="-132.5" font-family="Helvetica,sans-Serif" font-size="10.00"> </text>
<polygon fill="#666666" stroke="#666666" points="18,-157.5 18,-157.5 71,-157.5 71,-157.5 18,-157.5"/>
<polygon fill="#666666" stroke="#666666" points="18,-142.5 18,-142.5 71,-142.5 71,-142.5 18,-142.5"/>
<polygon fill="none" stroke="#666666" points="17.5,-126 17.5,-175 70.5,-175 70.5,-126 17.5,-126"/>
</a>
</g>
</g>
<!-- Node2&#45;&gt;Node1 -->
<g id="edge1_Node000001_Node000002" class="edge">
<title>Node2&#45;&gt;Node1</title>
<g id="a_edge1_Node000001_Node000002"><a xlink:title=" ">
<path fill="none" stroke="#63b8ff" d="M72.22,-118.35C74.5,-115.86 76.79,-113.38 79,-111 93.35,-95.54 109.45,-78.54 122.96,-64.36"/>
<polygon fill="none" stroke="#63b8ff" points="69.56,-116.07 65.39,-125.81 74.72,-120.79 69.56,-116.07"/>
</a>
</g>
</g>
<!-- Node3 -->
<g id="Node000003" class="node">
<title>Node3</title>
<g id="a_Node000003"><a xlink:href="classPidViewModel.html" target="_top" xlink:title=" ">
<polygon fill="white" stroke="transparent" points="217.5,-190 88.5,-190 88.5,-111 217.5,-111 217.5,-190"/>
<text text-anchor="start" x="118.5" y="-177.5" font-family="Helvetica,sans-Serif" font-size="10.00">PidViewModel</text>
<text text-anchor="start" x="95.5" y="-162.5" font-family="Helvetica,sans-Serif" font-size="10.00">&#45;</text>
<text text-anchor="start" x="106" y="-162.5" font-family="Helvetica,sans-Serif" font-size="10.00">m_pidIsLocked</text>
<text text-anchor="start" x="93" y="-147.5" font-family="Helvetica,sans-Serif" font-size="10.00">+</text>
<text text-anchor="start" x="106" y="-147.5" font-family="Helvetica,sans-Serif" font-size="10.00">PidViewModel()</text>
<text text-anchor="start" x="93" y="-132.5" font-family="Helvetica,sans-Serif" font-size="10.00">+</text>
<text text-anchor="start" x="106" y="-132.5" font-family="Helvetica,sans-Serif" font-size="10.00">pidIsLocked()</text>
<text text-anchor="start" x="93" y="-117.5" font-family="Helvetica,sans-Serif" font-size="10.00">+</text>
<text text-anchor="start" x="106" y="-117.5" font-family="Helvetica,sans-Serif" font-size="10.00">onTestStateChanged()</text>
<polygon fill="#666666" stroke="#666666" points="89,-172.5 89,-172.5 218,-172.5 218,-172.5 89,-172.5"/>
<polygon fill="#666666" stroke="#666666" points="89,-157.5 89,-157.5 104,-157.5 104,-157.5 89,-157.5"/>
<polygon fill="#666666" stroke="#666666" points="104,-157.5 104,-157.5 218,-157.5 218,-157.5 104,-157.5"/>
<polygon fill="none" stroke="#666666" points="88.5,-111 88.5,-190 217.5,-190 217.5,-111 88.5,-111"/>
</a>
</g>
</g>
<!-- Node3&#45;&gt;Node1 -->
<g id="edge2_Node000001_Node000003" class="edge">
<title>Node3&#45;&gt;Node1</title>
<g id="a_edge2_Node000001_Node000003"><a xlink:title=" ">
<path fill="none" stroke="#63b8ff" d="M153,-110.71C153,-99.74 153,-87.74 153,-76.51"/>
<polygon fill="none" stroke="#63b8ff" points="153,-76.27 149,-70.27 153,-64.27 157,-70.27 153,-76.27"/>
</a>
</g>
<text text-anchor="middle" x="172" y="-85" font-family="Helvetica,sans-Serif" font-size="10.00" fill="grey"> &#45;m_vm</text>
</g>
<!-- Node4 -->
<g id="Node000004" class="node">
<title>Node4</title>
<g id="a_Node000004"><a xlink:title=" ">
<polygon fill="white" stroke="transparent" points="420,-1589 370,-1589 370,-1540 420,-1540 420,-1589"/>
<text text-anchor="start" x="375" y="-1576.5" font-family="Helvetica,sans-Serif" font-size="10.00">QObject</text>
<text text-anchor="start" x="393" y="-1561.5" font-family="Helvetica,sans-Serif" font-size="10.00"> </text>
<text text-anchor="start" x="393" y="-1546.5" font-family="Helvetica,sans-Serif" font-size="10.00"> </text>
<polygon fill="#666666" stroke="#666666" points="370,-1571.5 370,-1571.5 420,-1571.5 420,-1571.5 370,-1571.5"/>
<polygon fill="#666666" stroke="#666666" points="370,-1556.5 370,-1556.5 420,-1556.5 420,-1556.5 370,-1556.5"/>
<polygon fill="none" stroke="#666666" points="370,-1540 370,-1589 420,-1589 420,-1540 370,-1540"/>
</a>
</g>
</g>
<!-- Node4&#45;&gt;Node3 -->
<g id="edge3_Node000003_Node000004" class="edge">
<title>Node4&#45;&gt;Node3</title>
<g id="a_edge3_Node000003_Node000004"><a xlink:title=" ">
<path fill="none" stroke="#63b8ff" d="M359.83,-1560.92C263.07,-1552.85 0,-1524.06 0,-1449.5 0,-1449.5 0,-1449.5 0,-313 0,-258.54 46.41,-215.08 88.11,-187.02"/>
<polygon fill="none" stroke="#63b8ff" points="359.74,-1564.42 369.99,-1561.74 360.31,-1557.44 359.74,-1564.42"/>
</a>
</g>
</g>
<!-- Node5 -->
<g id="Node000005" class="node">
<title>Node5</title>
<g id="a_Node000005"><a xlink:href="classTestBenchModel.html" target="_top" xlink:title=" ">
<polygon fill="white" stroke="transparent" points="225,-391 91,-391 91,-237 225,-237 225,-391"/>
<text text-anchor="start" x="118" y="-379" font-family="Helvetica,sans-Serif" font-size="10.00">TestBenchModel</text>
<text text-anchor="start" x="97.5" y="-364" font-family="Helvetica,sans-Serif" font-size="10.00">&#45;</text>
<text text-anchor="start" x="108" y="-364" font-family="Helvetica,sans-Serif" font-size="10.00">m_testStatus</text>
<text text-anchor="start" x="97.5" y="-349" font-family="Helvetica,sans-Serif" font-size="10.00">&#45;</text>
<text text-anchor="start" x="108" y="-349" font-family="Helvetica,sans-Serif" font-size="10.00">m_testStatusInitialised</text>
<text text-anchor="start" x="95" y="-334" font-family="Helvetica,sans-Serif" font-size="10.00">+</text>
<text text-anchor="start" x="108" y="-334" font-family="Helvetica,sans-Serif" font-size="10.00">TestBenchModel()</text>
<text text-anchor="start" x="95" y="-319" font-family="Helvetica,sans-Serif" font-size="10.00">+</text>
<text text-anchor="start" x="108" y="-319" font-family="Helvetica,sans-Serif" font-size="10.00">setTestStatus()</text>
<text text-anchor="start" x="95" y="-304" font-family="Helvetica,sans-Serif" font-size="10.00">+</text>
<text text-anchor="start" x="108" y="-304" font-family="Helvetica,sans-Serif" font-size="10.00">getTestStatus()</text>
<text text-anchor="start" x="95" y="-289" font-family="Helvetica,sans-Serif" font-size="10.00">+</text>
<text text-anchor="start" x="108" y="-289" font-family="Helvetica,sans-Serif" font-size="10.00">getStatus()</text>
<text text-anchor="start" x="95" y="-274" font-family="Helvetica,sans-Serif" font-size="10.00">+</text>
<text text-anchor="start" x="108" y="-274" font-family="Helvetica,sans-Serif" font-size="10.00">getStatus()</text>
<text text-anchor="start" x="95" y="-259" font-family="Helvetica,sans-Serif" font-size="10.00">+</text>
<text text-anchor="start" x="108" y="-259" font-family="Helvetica,sans-Serif" font-size="10.00">getStatusID()</text>
<text text-anchor="start" x="95" y="-244" font-family="Helvetica,sans-Serif" font-size="10.00">+</text>
<text text-anchor="start" x="108" y="-244" font-family="Helvetica,sans-Serif" font-size="10.00">onStatesListRecieved()</text>
<polygon fill="#666666" stroke="#666666" points="91,-374 91,-374 225,-374 225,-374 91,-374"/>
<polygon fill="#666666" stroke="#666666" points="91,-344 91,-344 106,-344 106,-344 91,-344"/>
<polygon fill="#666666" stroke="#666666" points="106,-344 106,-344 225,-344 225,-344 106,-344"/>
<polygon fill="none" stroke="#666666" points="91,-237 91,-391 225,-391 225,-237 91,-237"/>
</a>
</g>
</g>
<!-- Node4&#45;&gt;Node5 -->
<g id="edge5_Node000005_Node000004" class="edge">
<title>Node4&#45;&gt;Node5</title>
<g id="a_edge5_Node000005_Node000004"><a xlink:title=" ">
<path fill="none" stroke="#63b8ff" d="M428.78,-1544.67C458.81,-1525.15 498,-1491.62 498,-1449.5 498,-1449.5 498,-1449.5 498,-604 498,-468.96 372.4,-490.85 265,-409 253.82,-400.48 249.93,-399.83 239,-391 234.5,-387.36 229.94,-383.54 225.4,-379.61"/>
<polygon fill="none" stroke="#63b8ff" points="426.82,-1541.76 420.2,-1550.03 430.53,-1547.7 426.82,-1541.76"/>
</a>
</g>
</g>
<!-- Node7 -->
<g id="Node000007" class="node">
<title>Node7</title>
<g id="a_Node000007"><a xlink:href="classUdpChannel.html" target="_top" xlink:title="UDP communication channel between the microcontroller and the HMI.">
<polygon fill="white" stroke="transparent" points="289.5,-772 154.5,-772 154.5,-438 289.5,-438 289.5,-772"/>
<text text-anchor="start" x="192.5" y="-760" font-family="Helvetica,sans-Serif" font-size="10.00">UdpChannel</text>
<text text-anchor="start" x="161.5" y="-745" font-family="Helvetica,sans-Serif" font-size="10.00">&#45;</text>
<text text-anchor="start" x="172" y="-745" font-family="Helvetica,sans-Serif" font-size="10.00">m_udpWorkerThread</text>
<text text-anchor="start" x="161.5" y="-730" font-family="Helvetica,sans-Serif" font-size="10.00">&#45;</text>
<text text-anchor="start" x="172" y="-730" font-family="Helvetica,sans-Serif" font-size="10.00">m_udpSocket</text>
<text text-anchor="start" x="161.5" y="-715" font-family="Helvetica,sans-Serif" font-size="10.00">&#45;</text>
<text text-anchor="start" x="172" y="-715" font-family="Helvetica,sans-Serif" font-size="10.00">m_remoteAddr</text>
<text text-anchor="start" x="161.5" y="-700" font-family="Helvetica,sans-Serif" font-size="10.00">&#45;</text>
<text text-anchor="start" x="172" y="-700" font-family="Helvetica,sans-Serif" font-size="10.00">m_remotePort</text>
<text text-anchor="start" x="161.5" y="-685" font-family="Helvetica,sans-Serif" font-size="10.00">&#45;</text>
<text text-anchor="start" x="172" y="-685" font-family="Helvetica,sans-Serif" font-size="10.00">m_localAddr</text>
<text text-anchor="start" x="161.5" y="-670" font-family="Helvetica,sans-Serif" font-size="10.00">&#45;</text>
<text text-anchor="start" x="172" y="-670" font-family="Helvetica,sans-Serif" font-size="10.00">m_localPort</text>
<text text-anchor="start" x="161.5" y="-655" font-family="Helvetica,sans-Serif" font-size="10.00">&#45;</text>
<text text-anchor="start" x="172" y="-655" font-family="Helvetica,sans-Serif" font-size="10.00">m_lastRefresh</text>
<text text-anchor="start" x="161.5" y="-640" font-family="Helvetica,sans-Serif" font-size="10.00">&#45;</text>
<text text-anchor="start" x="172" y="-640" font-family="Helvetica,sans-Serif" font-size="10.00">m_periodOfRefresh</text>
<text text-anchor="start" x="161.5" y="-625" font-family="Helvetica,sans-Serif" font-size="10.00">&#45;</text>
<text text-anchor="start" x="172" y="-625" font-family="Helvetica,sans-Serif" font-size="10.00">m_running</text>
<text text-anchor="start" x="159" y="-610" font-family="Helvetica,sans-Serif" font-size="10.00">+</text>
<text text-anchor="start" x="172" y="-610" font-family="Helvetica,sans-Serif" font-size="10.00">UdpChannel()</text>
<text text-anchor="start" x="159" y="-595" font-family="Helvetica,sans-Serif" font-size="10.00">+</text>
<text text-anchor="start" x="172" y="-595" font-family="Helvetica,sans-Serif" font-size="10.00">~UdpChannel()</text>
<text text-anchor="start" x="159" y="-580" font-family="Helvetica,sans-Serif" font-size="10.00">+</text>
<text text-anchor="start" x="172" y="-580" font-family="Helvetica,sans-Serif" font-size="10.00">startEndpoint()</text>
<text text-anchor="start" x="159" y="-565" font-family="Helvetica,sans-Serif" font-size="10.00">+</text>
<text text-anchor="start" x="172" y="-565" font-family="Helvetica,sans-Serif" font-size="10.00">stopEndpoint()</text>
<text text-anchor="start" x="159" y="-550" font-family="Helvetica,sans-Serif" font-size="10.00">+</text>
<text text-anchor="start" x="172" y="-550" font-family="Helvetica,sans-Serif" font-size="10.00">sendData()</text>
<text text-anchor="start" x="159" y="-535" font-family="Helvetica,sans-Serif" font-size="10.00">+</text>
<text text-anchor="start" x="172" y="-535" font-family="Helvetica,sans-Serif" font-size="10.00">running()</text>
<text text-anchor="start" x="159" y="-520" font-family="Helvetica,sans-Serif" font-size="10.00">+</text>
<text text-anchor="start" x="172" y="-520" font-family="Helvetica,sans-Serif" font-size="10.00">remoteAddr()</text>
<text text-anchor="start" x="159" y="-505" font-family="Helvetica,sans-Serif" font-size="10.00">+</text>
<text text-anchor="start" x="172" y="-505" font-family="Helvetica,sans-Serif" font-size="10.00">remotePort()</text>
<text text-anchor="start" x="159" y="-490" font-family="Helvetica,sans-Serif" font-size="10.00">+</text>
<text text-anchor="start" x="172" y="-490" font-family="Helvetica,sans-Serif" font-size="10.00">localAddr()</text>
<text text-anchor="start" x="159" y="-475" font-family="Helvetica,sans-Serif" font-size="10.00">+</text>
<text text-anchor="start" x="172" y="-475" font-family="Helvetica,sans-Serif" font-size="10.00">localPort()</text>
<text text-anchor="start" x="172" y="-460" font-family="Helvetica,sans-Serif" font-size="10.00">and 6 more...</text>
<text text-anchor="start" x="159" y="-445" font-family="Helvetica,sans-Serif" font-size="10.00">+</text>
<text text-anchor="start" x="172" y="-445" font-family="Helvetica,sans-Serif" font-size="10.00">onDatagramReceived()</text>
<polygon fill="#666666" stroke="#666666" points="155,-755 155,-755 290,-755 290,-755 155,-755"/>
<polygon fill="#666666" stroke="#666666" points="155,-620 155,-620 170,-620 170,-620 155,-620"/>
<polygon fill="#666666" stroke="#666666" points="170,-620 170,-620 290,-620 290,-620 170,-620"/>
<polygon fill="none" stroke="#666666" points="154.5,-438 154.5,-772 289.5,-772 289.5,-438 154.5,-438"/>
</a>
</g>
</g>
<!-- Node4&#45;&gt;Node7 -->
<g id="edge8_Node000007_Node000004" class="edge">
<title>Node4&#45;&gt;Node7</title>
<g id="a_edge8_Node000007_Node000004"><a xlink:title=" ">
<path fill="none" stroke="#63b8ff" d="M424.58,-1532.1C441.74,-1510.57 460,-1480.41 460,-1449.5 460,-1449.5 460,-1449.5 460,-880 460,-775.4 359.93,-691.25 289.56,-645"/>
<polygon fill="none" stroke="#63b8ff" points="421.79,-1529.98 418.1,-1539.92 427.18,-1534.46 421.79,-1529.98"/>
</a>
</g>
</g>
<!-- Node8 -->
<g id="Node000008" class="node">
<title>Node8</title>
<g id="a_Node000008"><a xlink:href="classUdpWorker.html" target="_top" xlink:title="UDP socket worker running on a dedicated thread.">
<polygon fill="white" stroke="transparent" points="432,-943 272,-943 272,-819 432,-819 432,-943"/>
<text text-anchor="start" x="325" y="-931" font-family="Helvetica,sans-Serif" font-size="10.00">UdpWorker</text>
<text text-anchor="start" x="278.5" y="-916" font-family="Helvetica,sans-Serif" font-size="10.00">&#45;</text>
<text text-anchor="start" x="289" y="-916" font-family="Helvetica,sans-Serif" font-size="10.00">socket</text>
<text text-anchor="start" x="278.5" y="-901" font-family="Helvetica,sans-Serif" font-size="10.00">&#45;</text>
<text text-anchor="start" x="289" y="-901" font-family="Helvetica,sans-Serif" font-size="10.00">m_lastFrameSend</text>
<text text-anchor="start" x="276" y="-886" font-family="Helvetica,sans-Serif" font-size="10.00">+</text>
<text text-anchor="start" x="289" y="-886" font-family="Helvetica,sans-Serif" font-size="10.00">UdpWorker()</text>
<text text-anchor="start" x="276" y="-871" font-family="Helvetica,sans-Serif" font-size="10.00">+</text>
<text text-anchor="start" x="289" y="-871" font-family="Helvetica,sans-Serif" font-size="10.00">start()</text>
<text text-anchor="start" x="276" y="-856" font-family="Helvetica,sans-Serif" font-size="10.00">+</text>
<text text-anchor="start" x="289" y="-856" font-family="Helvetica,sans-Serif" font-size="10.00">stop()</text>
<text text-anchor="start" x="278.5" y="-841" font-family="Helvetica,sans-Serif" font-size="10.00">&#45;</text>
<text text-anchor="start" x="289" y="-841" font-family="Helvetica,sans-Serif" font-size="10.00">decimate()</text>
<text text-anchor="start" x="278.5" y="-826" font-family="Helvetica,sans-Serif" font-size="10.00">&#45;</text>
<text text-anchor="start" x="289" y="-826" font-family="Helvetica,sans-Serif" font-size="10.00">processPendingDatagrams()</text>
<polygon fill="#666666" stroke="#666666" points="272,-926 272,-926 432,-926 432,-926 272,-926"/>
<polygon fill="#666666" stroke="#666666" points="272,-896 272,-896 287,-896 287,-896 272,-896"/>
<polygon fill="#666666" stroke="#666666" points="287,-896 287,-896 432,-896 432,-896 287,-896"/>
<polygon fill="none" stroke="#666666" points="272,-819 272,-943 432,-943 432,-819 272,-819"/>
</a>
</g>
</g>
<!-- Node4&#45;&gt;Node8 -->
<g id="edge10_Node000008_Node000004" class="edge">
<title>Node4&#45;&gt;Node8</title>
<g id="a_edge10_Node000008_Node000004"><a xlink:title=" ">
<path fill="none" stroke="#63b8ff" d="M400.3,-1529.85C413.29,-1440.6 442.65,-1191 400,-990 396.66,-974.24 390.85,-958 384.41,-943.04"/>
<polygon fill="none" stroke="#63b8ff" points="396.81,-1529.51 398.81,-1539.92 403.74,-1530.54 396.81,-1529.51"/>
</a>
</g>
</g>
<!-- Node10 -->
<g id="Node000010" class="node">
<title>Node10</title>
<g id="a_Node000010"><a xlink:href="classLogger.html" target="_top" xlink:title="Tool that provide the ability to display and log errors and debug messages.">
<polygon fill="white" stroke="transparent" points="318,-1503 250,-1503 250,-1394 318,-1394 318,-1503"/>
<text text-anchor="start" x="267" y="-1490.5" font-family="Helvetica,sans-Serif" font-size="10.00">Logger</text>
<text text-anchor="start" x="282" y="-1475.5" font-family="Helvetica,sans-Serif" font-size="10.00"> </text>
<text text-anchor="start" x="254" y="-1460.5" font-family="Helvetica,sans-Serif" font-size="10.00">+</text>
<text text-anchor="start" x="267" y="-1460.5" font-family="Helvetica,sans-Serif" font-size="10.00">Logger()</text>
<text text-anchor="start" x="254" y="-1445.5" font-family="Helvetica,sans-Serif" font-size="10.00">+</text>
<text text-anchor="start" x="267" y="-1445.5" font-family="Helvetica,sans-Serif" font-size="10.00">log()</text>
<text text-anchor="start" x="254" y="-1430.5" font-family="Helvetica,sans-Serif" font-size="10.00">+</text>
<text text-anchor="start" x="267" y="-1430.5" font-family="Helvetica,sans-Serif" font-size="10.00">debug()</text>
<text text-anchor="start" x="254" y="-1415.5" font-family="Helvetica,sans-Serif" font-size="10.00">+</text>
<text text-anchor="start" x="267" y="-1415.5" font-family="Helvetica,sans-Serif" font-size="10.00">error()</text>
<text text-anchor="start" x="254" y="-1400.5" font-family="Helvetica,sans-Serif" font-size="10.00">+</text>
<text text-anchor="start" x="267" y="-1400.5" font-family="Helvetica,sans-Serif" font-size="10.00">warning()</text>
<polygon fill="#666666" stroke="#666666" points="250,-1485.5 250,-1485.5 318,-1485.5 318,-1485.5 250,-1485.5"/>
<polygon fill="#666666" stroke="#666666" points="250,-1470.5 250,-1470.5 318,-1470.5 318,-1470.5 250,-1470.5"/>
<polygon fill="none" stroke="#666666" points="250,-1394 250,-1503 318,-1503 318,-1394 250,-1394"/>
</a>
</g>
</g>
<!-- Node4&#45;&gt;Node10 -->
<g id="edge13_Node000010_Node000004" class="edge">
<title>Node4&#45;&gt;Node10</title>
<g id="a_edge13_Node000010_Node000004"><a xlink:title=" ">
<path fill="none" stroke="#63b8ff" d="M364.78,-1532.47C350.43,-1517.73 333.21,-1500.04 318.36,-1484.78"/>
<polygon fill="none" stroke="#63b8ff" points="362.52,-1535.16 372,-1539.88 367.53,-1530.27 362.52,-1535.16"/>
</a>
</g>
</g>
<!-- Node11 -->
<g id="Node000011" class="node">
<title>Node11</title>
<g id="a_Node000011"><a xlink:href="classFileSystem.html" target="_top" xlink:title="File system allow the managment of files path used in the application.">
<polygon fill="white" stroke="transparent" points="114,-1376 22,-1376 22,-1297 114,-1297 114,-1376"/>
<text text-anchor="start" x="40.5" y="-1363.5" font-family="Helvetica,sans-Serif" font-size="10.00">FileSystem</text>
<text text-anchor="start" x="28.5" y="-1348.5" font-family="Helvetica,sans-Serif" font-size="10.00">&#45;</text>
<text text-anchor="start" x="39" y="-1348.5" font-family="Helvetica,sans-Serif" font-size="10.00">m_pathList</text>
<text text-anchor="start" x="26" y="-1333.5" font-family="Helvetica,sans-Serif" font-size="10.00">+</text>
<text text-anchor="start" x="39" y="-1333.5" font-family="Helvetica,sans-Serif" font-size="10.00">FileSystem()</text>
<text text-anchor="start" x="26" y="-1318.5" font-family="Helvetica,sans-Serif" font-size="10.00">+</text>
<text text-anchor="start" x="39" y="-1318.5" font-family="Helvetica,sans-Serif" font-size="10.00">getDirectory()</text>
<text text-anchor="start" x="28.5" y="-1303.5" font-family="Helvetica,sans-Serif" font-size="10.00">&#45;</text>
<text text-anchor="start" x="39" y="-1303.5" font-family="Helvetica,sans-Serif" font-size="10.00">addDirectory()</text>
<polygon fill="#666666" stroke="#666666" points="22,-1358.5 22,-1358.5 114,-1358.5 114,-1358.5 22,-1358.5"/>
<polygon fill="#666666" stroke="#666666" points="22,-1343.5 22,-1343.5 37,-1343.5 37,-1343.5 22,-1343.5"/>
<polygon fill="#666666" stroke="#666666" points="37,-1343.5 37,-1343.5 114,-1343.5 114,-1343.5 37,-1343.5"/>
<polygon fill="none" stroke="#666666" points="22,-1297 22,-1376 114,-1376 114,-1297 22,-1297"/>
</a>
</g>
</g>
<!-- Node4&#45;&gt;Node11 -->
<g id="edge16_Node000011_Node000004" class="edge">
<title>Node4&#45;&gt;Node11</title>
<g id="a_edge16_Node000011_Node000004"><a xlink:title=" ">
<path fill="none" stroke="#63b8ff" d="M359.93,-1554C327.47,-1544.25 278.67,-1527.08 241,-1503 185.67,-1467.63 132.74,-1412.88 100.32,-1376.14"/>
<polygon fill="none" stroke="#63b8ff" points="359.28,-1557.46 369.86,-1556.91 361.25,-1550.74 359.28,-1557.46"/>
</a>
</g>
</g>
<!-- Node5&#45;&gt;Node3 -->
<g id="edge4_Node000003_Node000005" class="edge">
<title>Node5&#45;&gt;Node3</title>
<g id="a_edge4_Node000003_Node000005"><a xlink:title=" ">
<path fill="none" stroke="#63b8ff" d="M155.65,-236.98C155.28,-225.21 154.91,-213.31 154.57,-202.27"/>
<polygon fill="none" stroke="#63b8ff" points="154.57,-202.23 150.39,-196.36 154.2,-190.24 158.38,-196.11 154.57,-202.23"/>
</a>
</g>
<text text-anchor="middle" x="196" y="-211" font-family="Helvetica,sans-Serif" font-size="10.00" fill="grey"> &#45;m_testBenchM</text>
</g>
<!-- Node6 -->
<g id="Node000006" class="node">
<title>Node6</title>
<g id="a_Node000006"><a xlink:href="classTestBenchStatesList.html" target="_top" xlink:title=" ">
<polygon fill="white" stroke="transparent" points="136,-659.5 28,-659.5 28,-550.5 136,-550.5 136,-659.5"/>
<text text-anchor="start" x="33" y="-647" font-family="Helvetica,sans-Serif" font-size="10.00">TestBenchStatesList</text>
<text text-anchor="start" x="35.5" y="-632" font-family="Helvetica,sans-Serif" font-size="10.00">&#45;</text>
<text text-anchor="start" x="47" y="-632" font-family="Helvetica,sans-Serif" font-size="10.00">m_valuesDatas</text>
<text text-anchor="start" x="35.5" y="-617" font-family="Helvetica,sans-Serif" font-size="10.00">&#45;</text>
<text text-anchor="start" x="47" y="-617" font-family="Helvetica,sans-Serif" font-size="10.00">m_valuesNames</text>
<text text-anchor="start" x="33" y="-602" font-family="Helvetica,sans-Serif" font-size="10.00">+</text>
<text text-anchor="start" x="47" y="-602" font-family="Helvetica,sans-Serif" font-size="10.00">append()</text>
<text text-anchor="start" x="33" y="-587" font-family="Helvetica,sans-Serif" font-size="10.00">+</text>
<text text-anchor="start" x="47" y="-587" font-family="Helvetica,sans-Serif" font-size="10.00">getValue()</text>
<text text-anchor="start" x="33" y="-572" font-family="Helvetica,sans-Serif" font-size="10.00">+</text>
<text text-anchor="start" x="47" y="-572" font-family="Helvetica,sans-Serif" font-size="10.00">getValue()</text>
<text text-anchor="start" x="33" y="-557" font-family="Helvetica,sans-Serif" font-size="10.00">+</text>
<text text-anchor="start" x="47" y="-557" font-family="Helvetica,sans-Serif" font-size="10.00">getID()</text>
<polygon fill="#666666" stroke="#666666" points="28,-642 28,-642 136,-642 136,-642 28,-642"/>
<polygon fill="#666666" stroke="#666666" points="28,-612 28,-612 45,-612 45,-612 28,-612"/>
<polygon fill="#666666" stroke="#666666" points="45,-612 45,-612 136,-612 136,-612 45,-612"/>
<polygon fill="none" stroke="#666666" points="28,-550.5 28,-659.5 136,-659.5 136,-550.5 28,-550.5"/>
</a>
</g>
</g>
<!-- Node6&#45;&gt;Node5 -->
<g id="edge6_Node000005_Node000006" class="edge">
<title>Node6&#45;&gt;Node5</title>
<g id="a_edge6_Node000005_Node000006"><a xlink:title=" ">
<path fill="none" stroke="#63b8ff" d="M92.05,-550.18C99.85,-510.78 111.57,-456.18 125,-409 125.6,-406.91 126.21,-404.79 126.85,-402.67"/>
<polygon fill="none" stroke="#63b8ff" points="126.85,-402.66 124.8,-395.75 130.39,-391.19 132.44,-398.1 126.85,-402.66"/>
</a>
</g>
<text text-anchor="middle" x="151" y="-412" font-family="Helvetica,sans-Serif" font-size="10.00" fill="grey"> &#45;m_states</text>
</g>
<!-- Node7&#45;&gt;Node5 -->
<g id="edge7_Node000005_Node000007" class="edge">
<title>Node7&#45;&gt;Node5</title>
<g id="a_edge7_Node000005_Node000007"><a xlink:title=" ">
<path fill="none" stroke="#63b8ff" d="M185.23,-437.98C182.6,-426.06 180,-414.35 177.52,-403.16"/>
<polygon fill="none" stroke="#63b8ff" points="177.48,-402.97 172.28,-397.98 174.89,-391.25 180.09,-396.25 177.48,-402.97"/>
</a>
</g>
<text text-anchor="middle" x="221" y="-412" font-family="Helvetica,sans-Serif" font-size="10.00" fill="grey"> &#45;m_udpChannel</text>
</g>
<!-- Node8&#45;&gt;Node7 -->
<g id="edge9_Node000007_Node000008" class="edge">
<title>Node8&#45;&gt;Node7</title>
<g id="a_edge9_Node000007_Node000008"><a xlink:title=" ">
<path fill="none" stroke="#63b8ff" d="M322.99,-818.85C314.48,-800.92 304.77,-780.46 294.82,-759.47"/>
<polygon fill="none" stroke="#63b8ff" points="294.74,-759.3 288.55,-755.6 289.59,-748.46 295.78,-752.17 294.74,-759.3"/>
</a>
</g>
<text text-anchor="middle" x="350" y="-793" font-family="Helvetica,sans-Serif" font-size="10.00" fill="grey"> &#45;m_udpWorker</text>
</g>
<!-- Node9 -->
<g id="Node000009" class="node">
<title>Node9</title>
<g id="a_Node000009"><a xlink:href="classUdpLogger.html" target="_top" xlink:title="High&#45;frequency binary logger for UDP telemetry frames.">
<polygon fill="white" stroke="transparent" points="296.5,-1279 163.5,-1279 163.5,-990 296.5,-990 296.5,-1279"/>
<text text-anchor="start" x="204" y="-1266.5" font-family="Helvetica,sans-Serif" font-size="10.00">UdpLogger</text>
<text text-anchor="start" x="170.5" y="-1251.5" font-family="Helvetica,sans-Serif" font-size="10.00">&#45;</text>
<text text-anchor="start" x="181" y="-1251.5" font-family="Helvetica,sans-Serif" font-size="10.00">m_writer</text>
<text text-anchor="start" x="170.5" y="-1236.5" font-family="Helvetica,sans-Serif" font-size="10.00">&#45;</text>
<text text-anchor="start" x="181" y="-1236.5" font-family="Helvetica,sans-Serif" font-size="10.00">m_ringBuffer</text>
<text text-anchor="start" x="170.5" y="-1221.5" font-family="Helvetica,sans-Serif" font-size="10.00">&#45;</text>
<text text-anchor="start" x="181" y="-1221.5" font-family="Helvetica,sans-Serif" font-size="10.00">m_running</text>
<text text-anchor="start" x="170.5" y="-1206.5" font-family="Helvetica,sans-Serif" font-size="10.00">&#45;</text>
<text text-anchor="start" x="181" y="-1206.5" font-family="Helvetica,sans-Serif" font-size="10.00">m_writerThread</text>
<text text-anchor="start" x="170.5" y="-1191.5" font-family="Helvetica,sans-Serif" font-size="10.00">&#45;</text>
<text text-anchor="start" x="181" y="-1191.5" font-family="Helvetica,sans-Serif" font-size="10.00">m_logDirPath</text>
<text text-anchor="start" x="170.5" y="-1176.5" font-family="Helvetica,sans-Serif" font-size="10.00">&#45;</text>
<text text-anchor="start" x="181" y="-1176.5" font-family="Helvetica,sans-Serif" font-size="10.00">MAX_FRAME_SIZE</text>
<text text-anchor="start" x="168" y="-1161.5" font-family="Helvetica,sans-Serif" font-size="10.00">+</text>
<text text-anchor="start" x="181" y="-1161.5" font-family="Helvetica,sans-Serif" font-size="10.00">UdpLogger()</text>
<text text-anchor="start" x="168" y="-1146.5" font-family="Helvetica,sans-Serif" font-size="10.00">+</text>
<text text-anchor="start" x="181" y="-1146.5" font-family="Helvetica,sans-Serif" font-size="10.00">~UdpLogger()</text>
<text text-anchor="start" x="168" y="-1131.5" font-family="Helvetica,sans-Serif" font-size="10.00">+</text>
<text text-anchor="start" x="181" y="-1131.5" font-family="Helvetica,sans-Serif" font-size="10.00">UdpLogger()</text>
<text text-anchor="start" x="168" y="-1116.5" font-family="Helvetica,sans-Serif" font-size="10.00">+</text>
<text text-anchor="start" x="181" y="-1116.5" font-family="Helvetica,sans-Serif" font-size="10.00">operator=()</text>
<text text-anchor="start" x="168" y="-1101.5" font-family="Helvetica,sans-Serif" font-size="10.00">+</text>
<text text-anchor="start" x="181" y="-1101.5" font-family="Helvetica,sans-Serif" font-size="10.00">UdpLogger()</text>
<text text-anchor="start" x="168" y="-1086.5" font-family="Helvetica,sans-Serif" font-size="10.00">+</text>
<text text-anchor="start" x="181" y="-1086.5" font-family="Helvetica,sans-Serif" font-size="10.00">operator=()</text>
<text text-anchor="start" x="168" y="-1071.5" font-family="Helvetica,sans-Serif" font-size="10.00">+</text>
<text text-anchor="start" x="181" y="-1071.5" font-family="Helvetica,sans-Serif" font-size="10.00">log()</text>
<text text-anchor="start" x="168" y="-1056.5" font-family="Helvetica,sans-Serif" font-size="10.00">+</text>
<text text-anchor="start" x="181" y="-1056.5" font-family="Helvetica,sans-Serif" font-size="10.00">cyclesCount()</text>
<text text-anchor="start" x="168" y="-1041.5" font-family="Helvetica,sans-Serif" font-size="10.00">+</text>
<text text-anchor="start" x="181" y="-1041.5" font-family="Helvetica,sans-Serif" font-size="10.00">droppedFramesCount()</text>
<text text-anchor="start" x="168" y="-1026.5" font-family="Helvetica,sans-Serif" font-size="10.00">+</text>
<text text-anchor="start" x="181" y="-1026.5" font-family="Helvetica,sans-Serif" font-size="10.00">start()</text>
<text text-anchor="start" x="168" y="-1011.5" font-family="Helvetica,sans-Serif" font-size="10.00">+</text>
<text text-anchor="start" x="181" y="-1011.5" font-family="Helvetica,sans-Serif" font-size="10.00">stop()</text>
<text text-anchor="start" x="170.5" y="-996.5" font-family="Helvetica,sans-Serif" font-size="10.00">&#45;</text>
<text text-anchor="start" x="181" y="-996.5" font-family="Helvetica,sans-Serif" font-size="10.00">writerLoop()</text>
<polygon fill="#666666" stroke="#666666" points="164,-1261.5 164,-1261.5 297,-1261.5 297,-1261.5 164,-1261.5"/>
<polygon fill="#666666" stroke="#666666" points="164,-1171.5 164,-1171.5 179,-1171.5 179,-1171.5 164,-1171.5"/>
<polygon fill="#666666" stroke="#666666" points="179,-1171.5 179,-1171.5 297,-1171.5 297,-1171.5 179,-1171.5"/>
<polygon fill="none" stroke="#666666" points="163.5,-990 163.5,-1279 296.5,-1279 296.5,-990 163.5,-990"/>
</a>
</g>
</g>
<!-- Node9&#45;&gt;Node7 -->
<g id="edge18_Node000007_Node000009" class="edge">
<title>Node9&#45;&gt;Node7</title>
<g id="a_edge18_Node000007_Node000009"><a xlink:title=" ">
<path fill="none" stroke="#63b8ff" d="M196.56,-989.94C193.88,-974.17 191.59,-958.29 190,-943 184.66,-891.59 186.77,-835.73 191.83,-784.54"/>
<polygon fill="none" stroke="#63b8ff" points="191.86,-784.26 188.51,-777.88 193.11,-772.32 196.46,-778.71 191.86,-784.26"/>
</a>
</g>
<text text-anchor="middle" x="226.5" y="-878.5" font-family="Helvetica,sans-Serif" font-size="10.00" fill="grey"> &#45;m_udpLogger</text>
</g>
<!-- Node9&#45;&gt;Node8 -->
<g id="edge11_Node000008_Node000009" class="edge">
<title>Node9&#45;&gt;Node8</title>
<g id="a_edge11_Node000008_Node000009"><a xlink:title=" ">
<path fill="none" stroke="#63b8ff" d="M235.67,-989.89C238.86,-979.8 242.91,-970.05 248,-961 252.24,-953.46 257.53,-946.41 263.46,-939.88"/>
<polygon fill="none" stroke="#63b8ff" points="263.49,-939.85 264.84,-932.76 271.9,-931.29 270.55,-938.37 263.49,-939.85"/>
</a>
</g>
<text text-anchor="middle" x="283.5" y="-964" font-family="Helvetica,sans-Serif" font-size="10.00" fill="grey"> &#45;m_udplogger</text>
</g>
<!-- Node10&#45;&gt;Node7 -->
<g id="edge17_Node000007_Node000010" class="edge">
<title>Node10&#45;&gt;Node7</title>
<g id="a_edge17_Node000007_Node000010"><a xlink:title=" ">
<path fill="none" stroke="#63b8ff" d="M249.83,-1415.77C218.61,-1384.4 174.32,-1333.33 154,-1279 94.04,-1118.65 124.42,-922.69 161.69,-783.67"/>
<polygon fill="none" stroke="#63b8ff" points="161.69,-783.66 159.41,-776.82 164.85,-772.09 167.13,-778.93 161.69,-783.66"/>
</a>
</g>
<text text-anchor="middle" x="153.5" y="-964" font-family="Helvetica,sans-Serif" font-size="10.00" fill="grey"> &#45;m_logger</text>
</g>
<!-- Node10&#45;&gt;Node8 -->
<g id="edge14_Node000008_Node000010" class="edge">
<title>Node10&#45;&gt;Node8</title>
<g id="a_edge14_Node000008_Node000010"><a xlink:title=" ">
<path fill="none" stroke="#63b8ff" d="M313.03,-1393.7C315.37,-1387.84 317.43,-1381.88 319,-1376 324.32,-1356.07 340.22,-1088.14 347.84,-955.44"/>
<polygon fill="none" stroke="#63b8ff" points="347.84,-955.4 344.19,-949.18 348.53,-943.42 352.18,-949.64 347.84,-955.4"/>
</a>
</g>
<text text-anchor="middle" x="371.5" y="-1132" font-family="Helvetica,sans-Serif" font-size="10.00" fill="grey"> &#45;m_logger</text>
</g>
<!-- Node10&#45;&gt;Node9 -->
<g id="edge12_Node000009_Node000010" class="edge">
<title>Node10&#45;&gt;Node9</title>
<g id="a_edge12_Node000009_Node000010"><a xlink:title=" ">
<path fill="none" stroke="#63b8ff" d="M269.87,-1393.75C268.48,-1387.78 267.16,-1381.77 266,-1376 260.54,-1348.74 255.51,-1319.6 251.05,-1291.34"/>
<polygon fill="none" stroke="#63b8ff" points="251.02,-1291.14 246.14,-1285.83 249.17,-1279.29 254.05,-1284.6 251.02,-1291.14"/>
</a>
</g>
<text text-anchor="middle" x="292.5" y="-1334" font-family="Helvetica,sans-Serif" font-size="10.00" fill="grey"> &#45;m_logger</text>
</g>
<!-- Node11&#45;&gt;Node7 -->
<g id="edge15_Node000007_Node000011" class="edge">
<title>Node11&#45;&gt;Node7</title>
<g id="a_edge15_Node000007_Node000011"><a xlink:title=" ">
<path fill="none" stroke="#63b8ff" d="M57.53,-1296.94C40.58,-1228.42 11.64,-1081.34 39,-961 57.69,-878.81 67.53,-855.15 121,-790 129.46,-779.69 136.61,-782.36 145,-772 145.7,-771.14 146.39,-770.26 147.09,-769.39"/>
<polygon fill="none" stroke="#63b8ff" points="147.12,-769.34 147.51,-762.14 154.3,-759.72 153.92,-766.92 147.12,-769.34"/>
</a>
</g>
<text text-anchor="middle" x="76" y="-964" font-family="Helvetica,sans-Serif" font-size="10.00" fill="grey"> &#45;m_fileSystem</text>
</g>
<!-- Node12 -->
<g id="Node000012" class="node">
<title>Node12</title>
<g id="a_Node000012"><a xlink:href="classLocker.html" target="_top" xlink:title=" ">
<polygon fill="white" stroke="transparent" points="304.5,-182.5 235.5,-182.5 235.5,-118.5 304.5,-118.5 304.5,-182.5"/>
<text text-anchor="start" x="254.5" y="-170.5" font-family="Helvetica,sans-Serif" font-size="10.00">Locker</text>
<text text-anchor="start" x="242.5" y="-155.5" font-family="Helvetica,sans-Serif" font-size="10.00">&#45;</text>
<text text-anchor="start" x="253" y="-155.5" font-family="Helvetica,sans-Serif" font-size="10.00">m_size</text>
<text text-anchor="start" x="240" y="-140.5" font-family="Helvetica,sans-Serif" font-size="10.00">+</text>
<text text-anchor="start" x="253" y="-140.5" font-family="Helvetica,sans-Serif" font-size="10.00">Locker()</text>
<text text-anchor="start" x="240" y="-125.5" font-family="Helvetica,sans-Serif" font-size="10.00">+</text>
<text text-anchor="start" x="253" y="-125.5" font-family="Helvetica,sans-Serif" font-size="10.00">sizeHint()</text>
<polygon fill="#666666" stroke="#666666" points="236,-165.5 236,-165.5 305,-165.5 305,-165.5 236,-165.5"/>
<polygon fill="#666666" stroke="#666666" points="236,-150.5 236,-150.5 251,-150.5 251,-150.5 236,-150.5"/>
<polygon fill="#666666" stroke="#666666" points="251,-150.5 251,-150.5 305,-150.5 305,-150.5 251,-150.5"/>
<polygon fill="none" stroke="#666666" points="235.5,-118.5 235.5,-182.5 304.5,-182.5 304.5,-118.5 235.5,-118.5"/>
</a>
</g>
</g>
<!-- Node12&#45;&gt;Node1 -->
<g id="edge19_Node000001_Node000012" class="edge">
<title>Node12&#45;&gt;Node1</title>
<g id="a_edge19_Node000001_Node000012"><a xlink:title=" ">
<path fill="none" stroke="#63b8ff" d="M238.65,-118.28C224.61,-104.31 207.9,-87.67 192.98,-72.81"/>
<polygon fill="none" stroke="#63b8ff" points="192.94,-72.77 185.87,-71.37 184.44,-64.31 191.51,-65.71 192.94,-72.77"/>
</a>
</g>
<text text-anchor="middle" x="238" y="-85" font-family="Helvetica,sans-Serif" font-size="10.00" fill="grey"> &#45;m_locker</text>
</g>
<!-- Node13 -->
<g id="Node000013" class="node">
<title>Node13</title>
<g id="a_Node000013"><a xlink:title=" ">
<polygon fill="white" stroke="transparent" points="292,-338.5 248,-338.5 248,-289.5 292,-289.5 292,-338.5"/>
<text text-anchor="start" x="253" y="-326" font-family="Helvetica,sans-Serif" font-size="10.00">QLabel</text>
<text text-anchor="start" x="268" y="-311" font-family="Helvetica,sans-Serif" font-size="10.00"> </text>
<text text-anchor="start" x="268" y="-296" font-family="Helvetica,sans-Serif" font-size="10.00"> </text>
<polygon fill="#666666" stroke="#666666" points="248,-321 248,-321 292,-321 292,-321 248,-321"/>
<polygon fill="#666666" stroke="#666666" points="248,-306 248,-306 292,-306 292,-306 248,-306"/>
<polygon fill="none" stroke="#666666" points="248,-289.5 248,-338.5 292,-338.5 292,-289.5 248,-289.5"/>
</a>
</g>
</g>
<!-- Node13&#45;&gt;Node12 -->
<g id="edge20_Node000012_Node000013" class="edge">
<title>Node13&#45;&gt;Node12</title>
<g id="a_edge20_Node000012_Node000013"><a xlink:title=" ">
<path fill="none" stroke="#63b8ff" d="M270,-278.89C270,-250.44 270,-210.22 270,-182.63"/>
<polygon fill="none" stroke="#63b8ff" points="266.5,-279.17 270,-289.17 273.5,-279.17 266.5,-279.17"/>
</a>
</g>
</g>
</g>
</svg>

<g id="navigator" transform="translate(0 0)" fill="#404254">
  <rect fill="#f2f5e9" fill-opacity="0.5" stroke="#606060" stroke-width=".5" x="0" y="0" width="60" height="60"/>
  <use id="zoomplus" xlink:href="#zoomPlus" x="17" y="9" onmousedown="handleZoom(evt,'in')"/>
  <use id="zoomminus" xlink:href="#zoomMin" x="42" y="9" onmousedown="handleZoom(evt,'out')"/>
  <use id="reset" xlink:href="#resetDef" x="30" y="36" onmousedown="handleReset()"/>
   <use id="arrowup" xlink:href="#arrowUp" x="0" y="0" onmousedown="handlePan(0,-1)"/>
  <use id="arrowright" xlink:href="#arrowRight" x="0" y="0" onmousedown="handlePan(1,0)"/>
  <use id="arrowdown" xlink:href="#arrowDown" x="0" y="0" onmousedown="handlePan(0,1)"/>
  <use id="arrowleft" xlink:href="#arrowLeft" x="0" y="0" onmousedown="handlePan(-1,0)"/>
</g>
<svg viewBox="0 0 15 15" width="100%" height="30px" preserveAspectRatio="xMaxYMin meet">
 <g id="arrow_out" transform="scale(0.3 0.3)">
  <a xlink:href="classPidTab__coll__graph_org.svg" target="_base">
   <rect id="button" ry="5" rx="5" y="6" x="6" height="38" width="38"
        fill="#f2f5e9" fill-opacity="0.5" stroke="#606060" stroke-width="1.0"/>
   <path id="arrow"
     d="M 11.500037,31.436501 C 11.940474,20.09759 22.043105,11.32322 32.158766,21.979434 L 37.068811,17.246167 C 37.068811,17.246167 37.088388,32 37.088388,32 L 22.160133,31.978069 C 22.160133,31.978069 26.997745,27.140456 26.997745,27.140456 C 18.528582,18.264221 13.291696,25.230495 11.500037,31.436501 z"
     style="fill:#404040;"/>
  </a>
 </g>
</svg>

<style type='text/css'>
<![CDATA[
[data-mouse-over-selected='false'] { opacity: 0.7; }
[data-mouse-over-selected='true']  { opacity: 1.0; }
]]>
</style>
<script type="application/ecmascript"><![CDATA[
document.addEventListener('DOMContentLoaded', (event) => {
  highlightEdges();
  highlightAdjacentNodes();
});
]]></script>
</svg>
