<?xml version="1.0" encoding="UTF-8" standalone="no"?>
<!DOCTYPE svg PUBLIC "-//W3C//DTD SVG 1.1//EN"
 "http://www.w3.org/Graphics/SVG/1.1/DTD/svg11.dtd">
<!-- Generated by graphviz version 2.43.0 (0)
 -->
<!-- Title: TankPressureControlerViewModel::onPressureSettingSelected Pages: 1 -->
<svg width="577pt" height="86pt"
 viewBox="0.00 0.00 577.00 86.00" xmlns="http://www.w3.org/2000/svg" xmlns:xlink="http://www.w3.org/1999/xlink">
<g id="graph0" class="graph" transform="scale(1 1) rotate(0) translate(4 82)">
<title>TankPressureControlerViewModel::onPressureSettingSelected</title>
<!-- Node1 -->
<g id="Node000001" class="node">
<title>Node1</title>
<g id="a_Node000001"><a xlink:title=" ">
<polygon fill="#999999" stroke="#666666" points="183,-54 0,-54 0,-24 183,-24 183,-54"/>
<text text-anchor="start" x="8" y="-42" font-family="Helvetica,sans-Serif" font-size="10.00">TankPressureControlerView</text>
<text text-anchor="middle" x="91.5" y="-31" font-family="Helvetica,sans-Serif" font-size="10.00">Model::onPressureSettingSelected</text>
</a>
</g>
</g>
<!-- Node2 -->
<g id="Node000002" class="node">
<title>Node2</title>
<g id="a_Node000002"><a xlink:href="classTankPressureControlerViewModel.html#a0c190a166a82209847f4b07e2133a753" target="_top" xlink:title=" ">
<polygon fill="white" stroke="#666666" points="391,-78 219,-78 219,-48 391,-48 391,-78"/>
<text text-anchor="start" x="227" y="-66" font-family="Helvetica,sans-Serif" font-size="10.00">TankPressureControlerView</text>
<text text-anchor="middle" x="305" y="-55" font-family="Helvetica,sans-Serif" font-size="10.00">Model::pressureSettingChanged</text>
</a>
</g>
</g>
<!-- Node1&#45;&gt;Node2 -->
<g id="edge1_Node000001_Node000002" class="edge">
<title>Node1&#45;&gt;Node2</title>
<g id="a_edge1_Node000001_Node000002"><a xlink:title=" ">
<path fill="none" stroke="#63b8ff" d="M183.12,-49.28C191.66,-50.25 200.33,-51.24 208.92,-52.21"/>
<polygon fill="#63b8ff" stroke="#63b8ff" points="208.6,-55.7 218.93,-53.35 209.39,-48.74 208.6,-55.7"/>
</a>
</g>
</g>
<!-- Node3 -->
<g id="Node000003" class="node">
<title>Node3</title>
<g id="a_Node000003"><a xlink:href="classPressureTanksModel.html#a8912c60be7aadfe6ff24fa9a52ce839e" target="_top" xlink:title=" ">
<polygon fill="white" stroke="#666666" points="363,-30 247,-30 247,0 363,0 363,-30"/>
<text text-anchor="start" x="255" y="-18" font-family="Helvetica,sans-Serif" font-size="10.00">PressureTanksModel</text>
<text text-anchor="middle" x="305" y="-7" font-family="Helvetica,sans-Serif" font-size="10.00">::setPressureSetting</text>
</a>
</g>
</g>
<!-- Node1&#45;&gt;Node3 -->
<g id="edge2_Node000001_Node000003" class="edge">
<title>Node1&#45;&gt;Node3</title>
<g id="a_edge2_Node000001_Node000003"><a xlink:title=" ">
<path fill="none" stroke="#63b8ff" d="M183.12,-28.72C201.04,-26.68 219.55,-24.58 236.53,-22.66"/>
<polygon fill="#63b8ff" stroke="#63b8ff" points="237.35,-26.09 246.9,-21.48 236.57,-19.13 237.35,-26.09"/>
</a>
</g>
</g>
<!-- Node4 -->
<g id="Node000004" class="node">
<title>Node4</title>
<g id="a_Node000004"><a xlink:href="classPressureTanksModel.html#acc5628f0ceb33f3c0a87fe7b3807015a" target="_top" xlink:title=" ">
<polygon fill="white" stroke="#666666" points="569,-30 427,-30 427,0 569,0 569,-30"/>
<text text-anchor="start" x="435" y="-18" font-family="Helvetica,sans-Serif" font-size="10.00">PressureTanksModel</text>
<text text-anchor="middle" x="498" y="-7" font-family="Helvetica,sans-Serif" font-size="10.00">::pressureSettingChanged</text>
</a>
</g>
</g>
<!-- Node3&#45;&gt;Node4 -->
<g id="edge3_Node000003_Node000004" class="edge">
<title>Node3&#45;&gt;Node4</title>
<g id="a_edge3_Node000003_Node000004"><a xlink:title=" ">
<path fill="none" stroke="#63b8ff" d="M363.05,-15C379.85,-15 398.56,-15 416.54,-15"/>
<polygon fill="#63b8ff" stroke="#63b8ff" points="416.73,-18.5 426.73,-15 416.73,-11.5 416.73,-18.5"/>
</a>
</g>
</g>
</g>
</svg>
