<?xml version="1.0" encoding="UTF-8" standalone="no"?>
<!DOCTYPE svg PUBLIC "-//W3C//DTD SVG 1.1//EN"
 "http://www.w3.org/Graphics/SVG/1.1/DTD/svg11.dtd">
<!-- Generated by graphviz version 2.43.0 (0)
 -->
<!-- Title: TestLauncherViewModel Pages: 1 -->
<svg width="708pt" height="1779pt"
 viewBox="0.00 0.00 708.00 1779.00" xmlns="http://www.w3.org/2000/svg" xmlns:xlink="http://www.w3.org/1999/xlink">
<g id="graph0" class="graph" transform="scale(1 1) rotate(0) translate(4 1775)">
<title>TestLauncherViewModel</title>
<!-- Node1 -->
<g id="Node000001" class="node">
<title>Node1</title>
<g id="a_Node000001"><a xlink:title=" ">
<polygon fill="#999999" stroke="transparent" points="166,-319 6,-319 6,0 166,0 166,-319"/>
<text text-anchor="start" x="27" y="-306.5" font-family="Helvetica,sans-Serif" font-size="10.00">TestLauncherViewModel</text>
<text text-anchor="start" x="12.5" y="-291.5" font-family="Helvetica,sans-Serif" font-size="10.00">&#45;</text>
<text text-anchor="start" x="23" y="-291.5" font-family="Helvetica,sans-Serif" font-size="10.00">m_selectedFile</text>
<text text-anchor="start" x="12.5" y="-276.5" font-family="Helvetica,sans-Serif" font-size="10.00">&#45;</text>
<text text-anchor="start" x="23" y="-276.5" font-family="Helvetica,sans-Serif" font-size="10.00">m_fileList</text>
<text text-anchor="start" x="12.5" y="-261.5" font-family="Helvetica,sans-Serif" font-size="10.00">&#45;</text>
<text text-anchor="start" x="23" y="-261.5" font-family="Helvetica,sans-Serif" font-size="10.00">m_fileDirPath</text>
<text text-anchor="start" x="12.5" y="-246.5" font-family="Helvetica,sans-Serif" font-size="10.00">&#45;</text>
<text text-anchor="start" x="23" y="-246.5" font-family="Helvetica,sans-Serif" font-size="10.00">m_sequenceParameters</text>
<text text-anchor="start" x="12.5" y="-231.5" font-family="Helvetica,sans-Serif" font-size="10.00">&#45;</text>
<text text-anchor="start" x="23" y="-231.5" font-family="Helvetica,sans-Serif" font-size="10.00">m_isBrowsingRequested</text>
<text text-anchor="start" x="12.5" y="-216.5" font-family="Helvetica,sans-Serif" font-size="10.00">&#45;</text>
<text text-anchor="start" x="23" y="-216.5" font-family="Helvetica,sans-Serif" font-size="10.00">m_isConfirmationRequested</text>
<text text-anchor="start" x="10" y="-201.5" font-family="Helvetica,sans-Serif" font-size="10.00">+</text>
<text text-anchor="start" x="23" y="-201.5" font-family="Helvetica,sans-Serif" font-size="10.00">TestLauncherViewModel()</text>
<text text-anchor="start" x="10" y="-186.5" font-family="Helvetica,sans-Serif" font-size="10.00">+</text>
<text text-anchor="start" x="23" y="-186.5" font-family="Helvetica,sans-Serif" font-size="10.00">selectedFile()</text>
<text text-anchor="start" x="10" y="-171.5" font-family="Helvetica,sans-Serif" font-size="10.00">+</text>
<text text-anchor="start" x="23" y="-171.5" font-family="Helvetica,sans-Serif" font-size="10.00">fileList()</text>
<text text-anchor="start" x="10" y="-156.5" font-family="Helvetica,sans-Serif" font-size="10.00">+</text>
<text text-anchor="start" x="23" y="-156.5" font-family="Helvetica,sans-Serif" font-size="10.00">fileDirPath()</text>
<text text-anchor="start" x="10" y="-141.5" font-family="Helvetica,sans-Serif" font-size="10.00">+</text>
<text text-anchor="start" x="23" y="-141.5" font-family="Helvetica,sans-Serif" font-size="10.00">sequenceParameters()</text>
<text text-anchor="start" x="10" y="-126.5" font-family="Helvetica,sans-Serif" font-size="10.00">+</text>
<text text-anchor="start" x="23" y="-126.5" font-family="Helvetica,sans-Serif" font-size="10.00">initialise()</text>
<text text-anchor="start" x="10" y="-111.5" font-family="Helvetica,sans-Serif" font-size="10.00">+</text>
<text text-anchor="start" x="23" y="-111.5" font-family="Helvetica,sans-Serif" font-size="10.00">acquireFileList()</text>
<text text-anchor="start" x="10" y="-96.5" font-family="Helvetica,sans-Serif" font-size="10.00">+</text>
<text text-anchor="start" x="23" y="-96.5" font-family="Helvetica,sans-Serif" font-size="10.00">confirmLaunch()</text>
<text text-anchor="start" x="10" y="-81.5" font-family="Helvetica,sans-Serif" font-size="10.00">+</text>
<text text-anchor="start" x="23" y="-81.5" font-family="Helvetica,sans-Serif" font-size="10.00">selectFile()</text>
<text text-anchor="start" x="10" y="-66.5" font-family="Helvetica,sans-Serif" font-size="10.00">+</text>
<text text-anchor="start" x="23" y="-66.5" font-family="Helvetica,sans-Serif" font-size="10.00">changeDirPath()</text>
<text text-anchor="start" x="10" y="-51.5" font-family="Helvetica,sans-Serif" font-size="10.00">+</text>
<text text-anchor="start" x="23" y="-51.5" font-family="Helvetica,sans-Serif" font-size="10.00">requestBrowse()</text>
<text text-anchor="start" x="10" y="-36.5" font-family="Helvetica,sans-Serif" font-size="10.00">+</text>
<text text-anchor="start" x="23" y="-36.5" font-family="Helvetica,sans-Serif" font-size="10.00">onFileParsed()</text>
<text text-anchor="start" x="10" y="-21.5" font-family="Helvetica,sans-Serif" font-size="10.00">+</text>
<text text-anchor="start" x="23" y="-21.5" font-family="Helvetica,sans-Serif" font-size="10.00">launchTest()</text>
<text text-anchor="start" x="10" y="-6.5" font-family="Helvetica,sans-Serif" font-size="10.00">+</text>
<text text-anchor="start" x="23" y="-6.5" font-family="Helvetica,sans-Serif" font-size="10.00">onLaunchConfirmed()</text>
<polygon fill="#666666" stroke="#666666" points="6,-301.5 6,-301.5 166,-301.5 166,-301.5 6,-301.5"/>
<polygon fill="#666666" stroke="#666666" points="6,-211.5 6,-211.5 21,-211.5 21,-211.5 6,-211.5"/>
<polygon fill="#666666" stroke="#666666" points="21,-211.5 21,-211.5 166,-211.5 166,-211.5 21,-211.5"/>
<polygon fill="none" stroke="#666666" points="6,0 6,-319 166,-319 166,0 6,0"/>
</a>
</g>
</g>
<!-- Node2 -->
<g id="Node000002" class="node">
<title>Node2</title>
<g id="a_Node000002"><a xlink:title=" ">
<polygon fill="white" stroke="transparent" points="226,-1771 176,-1771 176,-1722 226,-1722 226,-1771"/>
<text text-anchor="start" x="181" y="-1758.5" font-family="Helvetica,sans-Serif" font-size="10.00">QObject</text>
<text text-anchor="start" x="199" y="-1743.5" font-family="Helvetica,sans-Serif" font-size="10.00"> </text>
<text text-anchor="start" x="199" y="-1728.5" font-family="Helvetica,sans-Serif" font-size="10.00"> </text>
<polygon fill="#666666" stroke="#666666" points="176,-1753.5 176,-1753.5 226,-1753.5 226,-1753.5 176,-1753.5"/>
<polygon fill="#666666" stroke="#666666" points="176,-1738.5 176,-1738.5 226,-1738.5 226,-1738.5 176,-1738.5"/>
<polygon fill="none" stroke="#666666" points="176,-1722 176,-1771 226,-1771 226,-1722 176,-1722"/>
</a>
</g>
</g>
<!-- Node2&#45;&gt;Node1 -->
<g id="edge1_Node000001_Node000002" class="edge">
<title>Node2&#45;&gt;Node1</title>
<g id="a_edge1_Node000001_Node000002"><a xlink:title=" ">
<path fill="none" stroke="#63b8ff" d="M165.81,-1741.58C108.18,-1733 0,-1706.85 0,-1631.5 0,-1631.5 0,-1631.5 0,-442 0,-401.25 8.35,-358.57 19.84,-319.11"/>
<polygon fill="none" stroke="#63b8ff" points="165.56,-1745.08 175.95,-1742.99 166.53,-1738.15 165.56,-1745.08"/>
</a>
</g>
</g>
<!-- Node3 -->
<g id="Node000003" class="node">
<title>Node3</title>
<g id="a_Node000003"><a xlink:href="classUdpChannel.html" target="_top" xlink:title=" ">
<polygon fill="white" stroke="transparent" points="306.5,-901 171.5,-901 171.5,-567 306.5,-567 306.5,-901"/>
<text text-anchor="start" x="209.5" y="-889" font-family="Helvetica,sans-Serif" font-size="10.00">UdpChannel</text>
<text text-anchor="start" x="178.5" y="-874" font-family="Helvetica,sans-Serif" font-size="10.00">&#45;</text>
<text text-anchor="start" x="189" y="-874" font-family="Helvetica,sans-Serif" font-size="10.00">m_udpWorkerThread</text>
<text text-anchor="start" x="178.5" y="-859" font-family="Helvetica,sans-Serif" font-size="10.00">&#45;</text>
<text text-anchor="start" x="189" y="-859" font-family="Helvetica,sans-Serif" font-size="10.00">m_udpSocket</text>
<text text-anchor="start" x="178.5" y="-844" font-family="Helvetica,sans-Serif" font-size="10.00">&#45;</text>
<text text-anchor="start" x="189" y="-844" font-family="Helvetica,sans-Serif" font-size="10.00">m_remoteAddr</text>
<text text-anchor="start" x="178.5" y="-829" font-family="Helvetica,sans-Serif" font-size="10.00">&#45;</text>
<text text-anchor="start" x="189" y="-829" font-family="Helvetica,sans-Serif" font-size="10.00">m_remotePort</text>
<text text-anchor="start" x="178.5" y="-814" font-family="Helvetica,sans-Serif" font-size="10.00">&#45;</text>
<text text-anchor="start" x="189" y="-814" font-family="Helvetica,sans-Serif" font-size="10.00">m_localAddr</text>
<text text-anchor="start" x="178.5" y="-799" font-family="Helvetica,sans-Serif" font-size="10.00">&#45;</text>
<text text-anchor="start" x="189" y="-799" font-family="Helvetica,sans-Serif" font-size="10.00">m_localPort</text>
<text text-anchor="start" x="178.5" y="-784" font-family="Helvetica,sans-Serif" font-size="10.00">&#45;</text>
<text text-anchor="start" x="189" y="-784" font-family="Helvetica,sans-Serif" font-size="10.00">m_lastRefresh</text>
<text text-anchor="start" x="178.5" y="-769" font-family="Helvetica,sans-Serif" font-size="10.00">&#45;</text>
<text text-anchor="start" x="189" y="-769" font-family="Helvetica,sans-Serif" font-size="10.00">m_periodOfRefresh</text>
<text text-anchor="start" x="178.5" y="-754" font-family="Helvetica,sans-Serif" font-size="10.00">&#45;</text>
<text text-anchor="start" x="189" y="-754" font-family="Helvetica,sans-Serif" font-size="10.00">m_running</text>
<text text-anchor="start" x="176" y="-739" font-family="Helvetica,sans-Serif" font-size="10.00">+</text>
<text text-anchor="start" x="189" y="-739" font-family="Helvetica,sans-Serif" font-size="10.00">UdpChannel()</text>
<text text-anchor="start" x="176" y="-724" font-family="Helvetica,sans-Serif" font-size="10.00">+</text>
<text text-anchor="start" x="189" y="-724" font-family="Helvetica,sans-Serif" font-size="10.00">~UdpChannel()</text>
<text text-anchor="start" x="176" y="-709" font-family="Helvetica,sans-Serif" font-size="10.00">+</text>
<text text-anchor="start" x="189" y="-709" font-family="Helvetica,sans-Serif" font-size="10.00">startEndpoint()</text>
<text text-anchor="start" x="176" y="-694" font-family="Helvetica,sans-Serif" font-size="10.00">+</text>
<text text-anchor="start" x="189" y="-694" font-family="Helvetica,sans-Serif" font-size="10.00">stopEndpoint()</text>
<text text-anchor="start" x="176" y="-679" font-family="Helvetica,sans-Serif" font-size="10.00">+</text>
<text text-anchor="start" x="189" y="-679" font-family="Helvetica,sans-Serif" font-size="10.00">sendData()</text>
<text text-anchor="start" x="176" y="-664" font-family="Helvetica,sans-Serif" font-size="10.00">+</text>
<text text-anchor="start" x="189" y="-664" font-family="Helvetica,sans-Serif" font-size="10.00">running()</text>
<text text-anchor="start" x="176" y="-649" font-family="Helvetica,sans-Serif" font-size="10.00">+</text>
<text text-anchor="start" x="189" y="-649" font-family="Helvetica,sans-Serif" font-size="10.00">remoteAddr()</text>
<text text-anchor="start" x="176" y="-634" font-family="Helvetica,sans-Serif" font-size="10.00">+</text>
<text text-anchor="start" x="189" y="-634" font-family="Helvetica,sans-Serif" font-size="10.00">remotePort()</text>
<text text-anchor="start" x="176" y="-619" font-family="Helvetica,sans-Serif" font-size="10.00">+</text>
<text text-anchor="start" x="189" y="-619" font-family="Helvetica,sans-Serif" font-size="10.00">localAddr()</text>
<text text-anchor="start" x="176" y="-604" font-family="Helvetica,sans-Serif" font-size="10.00">+</text>
<text text-anchor="start" x="189" y="-604" font-family="Helvetica,sans-Serif" font-size="10.00">localPort()</text>
<text text-anchor="start" x="189" y="-589" font-family="Helvetica,sans-Serif" font-size="10.00">and 6 more...</text>
<text text-anchor="start" x="176" y="-574" font-family="Helvetica,sans-Serif" font-size="10.00">+</text>
<text text-anchor="start" x="189" y="-574" font-family="Helvetica,sans-Serif" font-size="10.00">onDatagramReceived()</text>
<polygon fill="#666666" stroke="#666666" points="172,-884 172,-884 307,-884 307,-884 172,-884"/>
<polygon fill="#666666" stroke="#666666" points="172,-749 172,-749 187,-749 187,-749 172,-749"/>
<polygon fill="#666666" stroke="#666666" points="187,-749 187,-749 307,-749 307,-749 187,-749"/>
<polygon fill="none" stroke="#666666" points="171.5,-567 171.5,-901 306.5,-901 306.5,-567 171.5,-567"/>
</a>
</g>
</g>
<!-- Node2&#45;&gt;Node3 -->
<g id="edge3_Node000003_Node000002" class="edge">
<title>Node2&#45;&gt;Node3</title>
<g id="a_edge3_Node000003_Node000002"><a xlink:title=" ">
<path fill="none" stroke="#63b8ff" d="M201,-1711.78C201,-1689.09 201,-1658.5 201,-1631.5 201,-1631.5 201,-1631.5 201,-1009 201,-973.94 204.09,-936.6 208.51,-901.12"/>
<polygon fill="none" stroke="#63b8ff" points="197.5,-1711.92 201,-1721.92 204.5,-1711.92 197.5,-1711.92"/>
</a>
</g>
</g>
<!-- Node4 -->
<g id="Node000004" class="node">
<title>Node4</title>
<g id="a_Node000004"><a xlink:href="classUdpWorker.html" target="_top" xlink:title=" ">
<polygon fill="white" stroke="transparent" points="536,-1072 376,-1072 376,-948 536,-948 536,-1072"/>
<text text-anchor="start" x="429" y="-1060" font-family="Helvetica,sans-Serif" font-size="10.00">UdpWorker</text>
<text text-anchor="start" x="382.5" y="-1045" font-family="Helvetica,sans-Serif" font-size="10.00">&#45;</text>
<text text-anchor="start" x="393" y="-1045" font-family="Helvetica,sans-Serif" font-size="10.00">socket</text>
<text text-anchor="start" x="382.5" y="-1030" font-family="Helvetica,sans-Serif" font-size="10.00">&#45;</text>
<text text-anchor="start" x="393" y="-1030" font-family="Helvetica,sans-Serif" font-size="10.00">m_lastFrameSend</text>
<text text-anchor="start" x="380" y="-1015" font-family="Helvetica,sans-Serif" font-size="10.00">+</text>
<text text-anchor="start" x="393" y="-1015" font-family="Helvetica,sans-Serif" font-size="10.00">UdpWorker()</text>
<text text-anchor="start" x="380" y="-1000" font-family="Helvetica,sans-Serif" font-size="10.00">+</text>
<text text-anchor="start" x="393" y="-1000" font-family="Helvetica,sans-Serif" font-size="10.00">decimate()</text>
<text text-anchor="start" x="380" y="-985" font-family="Helvetica,sans-Serif" font-size="10.00">+</text>
<text text-anchor="start" x="393" y="-985" font-family="Helvetica,sans-Serif" font-size="10.00">start()</text>
<text text-anchor="start" x="380" y="-970" font-family="Helvetica,sans-Serif" font-size="10.00">+</text>
<text text-anchor="start" x="393" y="-970" font-family="Helvetica,sans-Serif" font-size="10.00">stop()</text>
<text text-anchor="start" x="382.5" y="-955" font-family="Helvetica,sans-Serif" font-size="10.00">&#45;</text>
<text text-anchor="start" x="393" y="-955" font-family="Helvetica,sans-Serif" font-size="10.00">processPendingDatagrams()</text>
<polygon fill="#666666" stroke="#666666" points="376,-1055 376,-1055 536,-1055 536,-1055 376,-1055"/>
<polygon fill="#666666" stroke="#666666" points="376,-1025 376,-1025 391,-1025 391,-1025 376,-1025"/>
<polygon fill="#666666" stroke="#666666" points="391,-1025 391,-1025 536,-1025 536,-1025 391,-1025"/>
<polygon fill="none" stroke="#666666" points="376,-948 376,-1072 536,-1072 536,-948 376,-948"/>
</a>
</g>
</g>
<!-- Node2&#45;&gt;Node4 -->
<g id="edge5_Node000004_Node000002" class="edge">
<title>Node2&#45;&gt;Node4</title>
<g id="a_edge5_Node000004_Node000002"><a xlink:title=" ">
<path fill="none" stroke="#63b8ff" d="M235.96,-1735.54C265.17,-1725.99 306.77,-1709.38 337,-1685 433.04,-1607.54 462.66,-1578.28 501,-1461 544.73,-1327.23 505.16,-1160.17 477.5,-1072.02"/>
<polygon fill="none" stroke="#63b8ff" points="234.66,-1732.28 226.18,-1738.63 236.77,-1738.96 234.66,-1732.28"/>
</a>
</g>
</g>
<!-- Node6 -->
<g id="Node000006" class="node">
<title>Node6</title>
<g id="a_Node000006"><a xlink:href="classLogger.html" target="_top" xlink:title=" ">
<polygon fill="white" stroke="transparent" points="328,-1685 260,-1685 260,-1576 328,-1576 328,-1685"/>
<text text-anchor="start" x="277" y="-1672.5" font-family="Helvetica,sans-Serif" font-size="10.00">Logger</text>
<text text-anchor="start" x="292" y="-1657.5" font-family="Helvetica,sans-Serif" font-size="10.00"> </text>
<text text-anchor="start" x="264" y="-1642.5" font-family="Helvetica,sans-Serif" font-size="10.00">+</text>
<text text-anchor="start" x="277" y="-1642.5" font-family="Helvetica,sans-Serif" font-size="10.00">Logger()</text>
<text text-anchor="start" x="264" y="-1627.5" font-family="Helvetica,sans-Serif" font-size="10.00">+</text>
<text text-anchor="start" x="277" y="-1627.5" font-family="Helvetica,sans-Serif" font-size="10.00">log()</text>
<text text-anchor="start" x="264" y="-1612.5" font-family="Helvetica,sans-Serif" font-size="10.00">+</text>
<text text-anchor="start" x="277" y="-1612.5" font-family="Helvetica,sans-Serif" font-size="10.00">debug()</text>
<text text-anchor="start" x="264" y="-1597.5" font-family="Helvetica,sans-Serif" font-size="10.00">+</text>
<text text-anchor="start" x="277" y="-1597.5" font-family="Helvetica,sans-Serif" font-size="10.00">error()</text>
<text text-anchor="start" x="264" y="-1582.5" font-family="Helvetica,sans-Serif" font-size="10.00">+</text>
<text text-anchor="start" x="277" y="-1582.5" font-family="Helvetica,sans-Serif" font-size="10.00">warning()</text>
<polygon fill="#666666" stroke="#666666" points="260,-1667.5 260,-1667.5 328,-1667.5 328,-1667.5 260,-1667.5"/>
<polygon fill="#666666" stroke="#666666" points="260,-1652.5 260,-1652.5 328,-1652.5 328,-1652.5 260,-1652.5"/>
<polygon fill="none" stroke="#666666" points="260,-1576 260,-1685 328,-1685 328,-1576 260,-1576"/>
</a>
</g>
</g>
<!-- Node2&#45;&gt;Node6 -->
<g id="edge8_Node000006_Node000002" class="edge">
<title>Node2&#45;&gt;Node6</title>
<g id="a_edge8_Node000006_Node000002"><a xlink:title=" ">
<path fill="none" stroke="#63b8ff" d="M226.71,-1713.99C236.91,-1701.48 248.8,-1686.91 259.71,-1673.53"/>
<polygon fill="none" stroke="#63b8ff" points="223.88,-1711.92 220.27,-1721.88 229.3,-1716.34 223.88,-1711.92"/>
</a>
</g>
</g>
<!-- Node7 -->
<g id="Node000007" class="node">
<title>Node7</title>
<g id="a_Node000007"><a xlink:href="classFileSystem.html" target="_top" xlink:title=" ">
<polygon fill="white" stroke="transparent" points="179,-1558 87,-1558 87,-1479 179,-1479 179,-1558"/>
<text text-anchor="start" x="105.5" y="-1545.5" font-family="Helvetica,sans-Serif" font-size="10.00">FileSystem</text>
<text text-anchor="start" x="93.5" y="-1530.5" font-family="Helvetica,sans-Serif" font-size="10.00">&#45;</text>
<text text-anchor="start" x="104" y="-1530.5" font-family="Helvetica,sans-Serif" font-size="10.00">m_pathList</text>
<text text-anchor="start" x="91" y="-1515.5" font-family="Helvetica,sans-Serif" font-size="10.00">+</text>
<text text-anchor="start" x="104" y="-1515.5" font-family="Helvetica,sans-Serif" font-size="10.00">FileSystem()</text>
<text text-anchor="start" x="91" y="-1500.5" font-family="Helvetica,sans-Serif" font-size="10.00">+</text>
<text text-anchor="start" x="104" y="-1500.5" font-family="Helvetica,sans-Serif" font-size="10.00">addDirectory()</text>
<text text-anchor="start" x="91" y="-1485.5" font-family="Helvetica,sans-Serif" font-size="10.00">+</text>
<text text-anchor="start" x="104" y="-1485.5" font-family="Helvetica,sans-Serif" font-size="10.00">getDirectory()</text>
<polygon fill="#666666" stroke="#666666" points="87,-1540.5 87,-1540.5 179,-1540.5 179,-1540.5 87,-1540.5"/>
<polygon fill="#666666" stroke="#666666" points="87,-1525.5 87,-1525.5 102,-1525.5 102,-1525.5 87,-1525.5"/>
<polygon fill="#666666" stroke="#666666" points="102,-1525.5 102,-1525.5 179,-1525.5 179,-1525.5 102,-1525.5"/>
<polygon fill="none" stroke="#666666" points="87,-1479 87,-1558 179,-1558 179,-1479 87,-1479"/>
</a>
</g>
</g>
<!-- Node2&#45;&gt;Node7 -->
<g id="edge11_Node000007_Node000002" class="edge">
<title>Node2&#45;&gt;Node7</title>
<g id="a_edge11_Node000007_Node000002"><a xlink:title=" ">
<path fill="none" stroke="#63b8ff" d="M189.68,-1712.35C188.76,-1709.53 187.86,-1706.72 187,-1704 171.21,-1653.86 154.41,-1595.58 143.82,-1558.16"/>
<polygon fill="none" stroke="#63b8ff" points="186.37,-1713.46 192.84,-1721.85 193.01,-1711.26 186.37,-1713.46"/>
</a>
</g>
</g>
<!-- Node8 -->
<g id="Node000008" class="node">
<title>Node8</title>
<g id="a_Node000008"><a xlink:href="classTxtParser.html" target="_top" xlink:title=" ">
<polygon fill="white" stroke="transparent" points="89.5,-1154 14.5,-1154 14.5,-1090 89.5,-1090 89.5,-1154"/>
<text text-anchor="start" x="29.5" y="-1142" font-family="Helvetica,sans-Serif" font-size="10.00">TxtParser</text>
<text text-anchor="start" x="50.5" y="-1127" font-family="Helvetica,sans-Serif" font-size="10.00"> </text>
<text text-anchor="start" x="19" y="-1112" font-family="Helvetica,sans-Serif" font-size="10.00">+</text>
<text text-anchor="start" x="32" y="-1112" font-family="Helvetica,sans-Serif" font-size="10.00">TxtParser()</text>
<text text-anchor="start" x="19" y="-1097" font-family="Helvetica,sans-Serif" font-size="10.00">+</text>
<text text-anchor="start" x="32" y="-1097" font-family="Helvetica,sans-Serif" font-size="10.00">parseFile()</text>
<polygon fill="#666666" stroke="#666666" points="15,-1137 15,-1137 90,-1137 90,-1137 15,-1137"/>
<polygon fill="#666666" stroke="#666666" points="15,-1122 15,-1122 90,-1122 90,-1122 15,-1122"/>
<polygon fill="none" stroke="#666666" points="14.5,-1090 14.5,-1154 89.5,-1154 89.5,-1090 14.5,-1090"/>
</a>
</g>
</g>
<!-- Node2&#45;&gt;Node8 -->
<g id="edge15_Node000008_Node000002" class="edge">
<title>Node2&#45;&gt;Node8</title>
<g id="a_edge15_Node000008_Node000002"><a xlink:title=" ">
<path fill="none" stroke="#63b8ff" d="M169.33,-1714.41C160.91,-1705.34 152.17,-1695.13 145,-1685 108.12,-1632.92 95.18,-1619.46 78,-1558 37.01,-1411.36 44.4,-1226.45 49.43,-1154.06"/>
<polygon fill="none" stroke="#63b8ff" points="166.87,-1716.9 176.29,-1721.74 171.94,-1712.08 166.87,-1716.9"/>
</a>
</g>
</g>
<!-- Node9 -->
<g id="Node000009" class="node">
<title>Node9</title>
<g id="a_Node000009"><a xlink:href="classTestBenchModel.html" target="_top" xlink:title=" ">
<polygon fill="white" stroke="transparent" points="538,-520 404,-520 404,-366 538,-366 538,-520"/>
<text text-anchor="start" x="431" y="-508" font-family="Helvetica,sans-Serif" font-size="10.00">TestBenchModel</text>
<text text-anchor="start" x="410.5" y="-493" font-family="Helvetica,sans-Serif" font-size="10.00">&#45;</text>
<text text-anchor="start" x="421" y="-493" font-family="Helvetica,sans-Serif" font-size="10.00">m_testStatus</text>
<text text-anchor="start" x="410.5" y="-478" font-family="Helvetica,sans-Serif" font-size="10.00">&#45;</text>
<text text-anchor="start" x="421" y="-478" font-family="Helvetica,sans-Serif" font-size="10.00">m_testStatusInitialised</text>
<text text-anchor="start" x="408" y="-463" font-family="Helvetica,sans-Serif" font-size="10.00">+</text>
<text text-anchor="start" x="421" y="-463" font-family="Helvetica,sans-Serif" font-size="10.00">TestBenchModel()</text>
<text text-anchor="start" x="408" y="-448" font-family="Helvetica,sans-Serif" font-size="10.00">+</text>
<text text-anchor="start" x="421" y="-448" font-family="Helvetica,sans-Serif" font-size="10.00">setTestStatus()</text>
<text text-anchor="start" x="408" y="-433" font-family="Helvetica,sans-Serif" font-size="10.00">+</text>
<text text-anchor="start" x="421" y="-433" font-family="Helvetica,sans-Serif" font-size="10.00">getTestStatus()</text>
<text text-anchor="start" x="408" y="-418" font-family="Helvetica,sans-Serif" font-size="10.00">+</text>
<text text-anchor="start" x="421" y="-418" font-family="Helvetica,sans-Serif" font-size="10.00">getStatus()</text>
<text text-anchor="start" x="408" y="-403" font-family="Helvetica,sans-Serif" font-size="10.00">+</text>
<text text-anchor="start" x="421" y="-403" font-family="Helvetica,sans-Serif" font-size="10.00">getStatus()</text>
<text text-anchor="start" x="408" y="-388" font-family="Helvetica,sans-Serif" font-size="10.00">+</text>
<text text-anchor="start" x="421" y="-388" font-family="Helvetica,sans-Serif" font-size="10.00">getStatusID()</text>
<text text-anchor="start" x="408" y="-373" font-family="Helvetica,sans-Serif" font-size="10.00">+</text>
<text text-anchor="start" x="421" y="-373" font-family="Helvetica,sans-Serif" font-size="10.00">onStatesListRecieved()</text>
<polygon fill="#666666" stroke="#666666" points="404,-503 404,-503 538,-503 538,-503 404,-503"/>
<polygon fill="#666666" stroke="#666666" points="404,-473 404,-473 419,-473 419,-473 404,-473"/>
<polygon fill="#666666" stroke="#666666" points="419,-473 419,-473 538,-473 538,-473 419,-473"/>
<polygon fill="none" stroke="#666666" points="404,-366 404,-520 538,-520 538,-366 404,-366"/>
</a>
</g>
</g>
<!-- Node2&#45;&gt;Node9 -->
<g id="edge17_Node000009_Node000002" class="edge">
<title>Node2&#45;&gt;Node9</title>
<g id="a_edge17_Node000009_Node000002"><a xlink:title=" ">
<path fill="none" stroke="#63b8ff" d="M236.37,-1742.02C327.64,-1732.07 564,-1699.73 564,-1631.5 564,-1631.5 564,-1631.5 564,-733 564,-658.02 535.29,-577.14 509.77,-520.06"/>
<polygon fill="none" stroke="#63b8ff" points="235.81,-1738.56 226.24,-1743.1 236.55,-1745.52 235.81,-1738.56"/>
</a>
</g>
</g>
<!-- Node3&#45;&gt;Node1 -->
<g id="edge2_Node000001_Node000003" class="edge">
<title>Node3&#45;&gt;Node1</title>
<g id="a_edge2_Node000001_Node000003"><a xlink:title=" ">
<path fill="none" stroke="#63b8ff" d="M194.54,-566.64C174.78,-492.68 151.53,-405.69 131.63,-331.24"/>
<polygon fill="none" stroke="#63b8ff" points="131.56,-330.99 126.15,-326.23 128.47,-319.4 133.88,-324.16 131.56,-330.99"/>
</a>
</g>
<text text-anchor="middle" x="220" y="-440.5" font-family="Helvetica,sans-Serif" font-size="10.00" fill="grey"> &#45;m_udpChannel</text>
</g>
<!-- Node3&#45;&gt;Node9 -->
<g id="edge19_Node000009_Node000003" class="edge">
<title>Node3&#45;&gt;Node9</title>
<g id="a_edge19_Node000009_Node000003"><a xlink:title=" ">
<path fill="none" stroke="#63b8ff" d="M306.73,-648.63C336.81,-611.16 372.17,-567.11 402.36,-529.51"/>
<polygon fill="none" stroke="#63b8ff" points="402.4,-529.45 403.04,-522.27 409.92,-520.09 409.28,-527.27 402.4,-529.45"/>
</a>
</g>
<text text-anchor="middle" x="429" y="-541" font-family="Helvetica,sans-Serif" font-size="10.00" fill="grey"> &#45;m_udpChannel</text>
</g>
<!-- Node4&#45;&gt;Node3 -->
<g id="edge4_Node000003_Node000004" class="edge">
<title>Node4&#45;&gt;Node3</title>
<g id="a_edge4_Node000003_Node000004"><a xlink:title=" ">
<path fill="none" stroke="#63b8ff" d="M407.57,-947.85C380.16,-913.24 345.29,-869.21 314.38,-830.18"/>
<polygon fill="none" stroke="#63b8ff" points="314.07,-829.79 307.21,-827.57 306.62,-820.38 313.48,-822.6 314.07,-829.79"/>
</a>
</g>
<text text-anchor="middle" x="428" y="-922" font-family="Helvetica,sans-Serif" font-size="10.00" fill="grey"> &#45;m_udpWorker</text>
</g>
<!-- Node5 -->
<g id="Node000005" class="node">
<title>Node5</title>
<g id="a_Node000005"><a xlink:href="classUdpLogger.html" target="_top" xlink:title=" ">
<polygon fill="white" stroke="transparent" points="400.5,-1461 267.5,-1461 267.5,-1172 400.5,-1172 400.5,-1461"/>
<text text-anchor="start" x="308" y="-1448.5" font-family="Helvetica,sans-Serif" font-size="10.00">UdpLogger</text>
<text text-anchor="start" x="274.5" y="-1433.5" font-family="Helvetica,sans-Serif" font-size="10.00">&#45;</text>
<text text-anchor="start" x="285" y="-1433.5" font-family="Helvetica,sans-Serif" font-size="10.00">m_writer</text>
<text text-anchor="start" x="274.5" y="-1418.5" font-family="Helvetica,sans-Serif" font-size="10.00">&#45;</text>
<text text-anchor="start" x="285" y="-1418.5" font-family="Helvetica,sans-Serif" font-size="10.00">m_ringBuffer</text>
<text text-anchor="start" x="274.5" y="-1403.5" font-family="Helvetica,sans-Serif" font-size="10.00">&#45;</text>
<text text-anchor="start" x="285" y="-1403.5" font-family="Helvetica,sans-Serif" font-size="10.00">m_running</text>
<text text-anchor="start" x="274.5" y="-1388.5" font-family="Helvetica,sans-Serif" font-size="10.00">&#45;</text>
<text text-anchor="start" x="285" y="-1388.5" font-family="Helvetica,sans-Serif" font-size="10.00">m_writerThread</text>
<text text-anchor="start" x="274.5" y="-1373.5" font-family="Helvetica,sans-Serif" font-size="10.00">&#45;</text>
<text text-anchor="start" x="285" y="-1373.5" font-family="Helvetica,sans-Serif" font-size="10.00">m_logDirPath</text>
<text text-anchor="start" x="274.5" y="-1358.5" font-family="Helvetica,sans-Serif" font-size="10.00">&#45;</text>
<text text-anchor="start" x="285" y="-1358.5" font-family="Helvetica,sans-Serif" font-size="10.00">MAX_FRAME_SIZE</text>
<text text-anchor="start" x="272" y="-1343.5" font-family="Helvetica,sans-Serif" font-size="10.00">+</text>
<text text-anchor="start" x="285" y="-1343.5" font-family="Helvetica,sans-Serif" font-size="10.00">UdpLogger()</text>
<text text-anchor="start" x="272" y="-1328.5" font-family="Helvetica,sans-Serif" font-size="10.00">+</text>
<text text-anchor="start" x="285" y="-1328.5" font-family="Helvetica,sans-Serif" font-size="10.00">~UdpLogger()</text>
<text text-anchor="start" x="272" y="-1313.5" font-family="Helvetica,sans-Serif" font-size="10.00">+</text>
<text text-anchor="start" x="285" y="-1313.5" font-family="Helvetica,sans-Serif" font-size="10.00">UdpLogger()</text>
<text text-anchor="start" x="272" y="-1298.5" font-family="Helvetica,sans-Serif" font-size="10.00">+</text>
<text text-anchor="start" x="285" y="-1298.5" font-family="Helvetica,sans-Serif" font-size="10.00">operator=()</text>
<text text-anchor="start" x="272" y="-1283.5" font-family="Helvetica,sans-Serif" font-size="10.00">+</text>
<text text-anchor="start" x="285" y="-1283.5" font-family="Helvetica,sans-Serif" font-size="10.00">UdpLogger()</text>
<text text-anchor="start" x="272" y="-1268.5" font-family="Helvetica,sans-Serif" font-size="10.00">+</text>
<text text-anchor="start" x="285" y="-1268.5" font-family="Helvetica,sans-Serif" font-size="10.00">operator=()</text>
<text text-anchor="start" x="272" y="-1253.5" font-family="Helvetica,sans-Serif" font-size="10.00">+</text>
<text text-anchor="start" x="285" y="-1253.5" font-family="Helvetica,sans-Serif" font-size="10.00">log()</text>
<text text-anchor="start" x="272" y="-1238.5" font-family="Helvetica,sans-Serif" font-size="10.00">+</text>
<text text-anchor="start" x="285" y="-1238.5" font-family="Helvetica,sans-Serif" font-size="10.00">cyclesCount()</text>
<text text-anchor="start" x="272" y="-1223.5" font-family="Helvetica,sans-Serif" font-size="10.00">+</text>
<text text-anchor="start" x="285" y="-1223.5" font-family="Helvetica,sans-Serif" font-size="10.00">droppedFramesCount()</text>
<text text-anchor="start" x="272" y="-1208.5" font-family="Helvetica,sans-Serif" font-size="10.00">+</text>
<text text-anchor="start" x="285" y="-1208.5" font-family="Helvetica,sans-Serif" font-size="10.00">start()</text>
<text text-anchor="start" x="272" y="-1193.5" font-family="Helvetica,sans-Serif" font-size="10.00">+</text>
<text text-anchor="start" x="285" y="-1193.5" font-family="Helvetica,sans-Serif" font-size="10.00">stop()</text>
<text text-anchor="start" x="274.5" y="-1178.5" font-family="Helvetica,sans-Serif" font-size="10.00">&#45;</text>
<text text-anchor="start" x="285" y="-1178.5" font-family="Helvetica,sans-Serif" font-size="10.00">writerLoop()</text>
<polygon fill="#666666" stroke="#666666" points="268,-1443.5 268,-1443.5 401,-1443.5 401,-1443.5 268,-1443.5"/>
<polygon fill="#666666" stroke="#666666" points="268,-1353.5 268,-1353.5 283,-1353.5 283,-1353.5 268,-1353.5"/>
<polygon fill="#666666" stroke="#666666" points="283,-1353.5 283,-1353.5 401,-1353.5 401,-1353.5 283,-1353.5"/>
<polygon fill="none" stroke="#666666" points="267.5,-1172 267.5,-1461 400.5,-1461 400.5,-1172 267.5,-1172"/>
</a>
</g>
</g>
<!-- Node5&#45;&gt;Node3 -->
<g id="edge13_Node000003_Node000005" class="edge">
<title>Node5&#45;&gt;Node3</title>
<g id="a_edge13_Node000003_Node000005"><a xlink:title=" ">
<path fill="none" stroke="#63b8ff" d="M310.39,-1171.94C305,-1139.1 299.3,-1104.34 294,-1072 285.56,-1020.44 276.41,-964.44 268.04,-913.16"/>
<polygon fill="none" stroke="#63b8ff" points="268.03,-913.12 263.12,-907.84 266.1,-901.27 271.02,-906.55 268.03,-913.12"/>
</a>
</g>
<text text-anchor="middle" x="330.5" y="-1007.5" font-family="Helvetica,sans-Serif" font-size="10.00" fill="grey"> &#45;m_udpLogger</text>
</g>
<!-- Node5&#45;&gt;Node4 -->
<g id="edge6_Node000004_Node000005" class="edge">
<title>Node5&#45;&gt;Node4</title>
<g id="a_edge6_Node000004_Node000005"><a xlink:title=" ">
<path fill="none" stroke="#63b8ff" d="M327.5,-1171.93C331.07,-1143.5 338.43,-1114.81 352,-1090 356.19,-1082.34 361.47,-1075.2 367.42,-1068.59"/>
<polygon fill="none" stroke="#63b8ff" points="367.52,-1068.49 368.85,-1061.41 375.91,-1059.91 374.57,-1067 367.52,-1068.49"/>
</a>
</g>
<text text-anchor="middle" x="387.5" y="-1119.5" font-family="Helvetica,sans-Serif" font-size="10.00" fill="grey"> &#45;m_udplogger</text>
</g>
<!-- Node6&#45;&gt;Node3 -->
<g id="edge12_Node000003_Node000006" class="edge">
<title>Node6&#45;&gt;Node3</title>
<g id="a_edge12_Node000003_Node000006"><a xlink:title=" ">
<path fill="none" stroke="#63b8ff" d="M280.88,-1575.95C273.31,-1543 264.27,-1499.78 259,-1461 233.82,-1275.52 231.12,-1061.02 233.29,-913.53"/>
<polygon fill="none" stroke="#63b8ff" points="233.3,-913.25 229.39,-907.19 233.49,-901.25 237.39,-907.32 233.3,-913.25"/>
</a>
</g>
<text text-anchor="middle" x="261.5" y="-1119.5" font-family="Helvetica,sans-Serif" font-size="10.00" fill="grey"> &#45;m_logger</text>
</g>
<!-- Node6&#45;&gt;Node4 -->
<g id="edge9_Node000004_Node000006" class="edge">
<title>Node6&#45;&gt;Node4</title>
<g id="a_edge9_Node000004_Node000006"><a xlink:title=" ">
<path fill="none" stroke="#63b8ff" d="M328,-1602.48C342.04,-1590.05 357.65,-1574.43 369,-1558 395.6,-1519.49 398.38,-1506.34 410,-1461 427.76,-1391.69 443.55,-1193.04 451.17,-1084.3"/>
<polygon fill="none" stroke="#63b8ff" points="451.18,-1084.12 447.61,-1077.85 452.01,-1072.15 455.59,-1078.41 451.18,-1084.12"/>
</a>
</g>
<text text-anchor="middle" x="470.5" y="-1314" font-family="Helvetica,sans-Serif" font-size="10.00" fill="grey"> &#45;m_logger</text>
</g>
<!-- Node6&#45;&gt;Node5 -->
<g id="edge7_Node000005_Node000006" class="edge">
<title>Node6&#45;&gt;Node5</title>
<g id="a_edge7_Node000005_Node000006"><a xlink:title=" ">
<path fill="none" stroke="#63b8ff" d="M300.88,-1575.87C304.55,-1547.17 309.29,-1510.21 314.03,-1473.27"/>
<polygon fill="none" stroke="#63b8ff" points="314.04,-1473.18 310.84,-1466.72 315.57,-1461.28 318.77,-1467.74 314.04,-1473.18"/>
</a>
</g>
<text text-anchor="middle" x="338.5" y="-1516" font-family="Helvetica,sans-Serif" font-size="10.00" fill="grey"> &#45;m_logger</text>
</g>
<!-- Node7&#45;&gt;Node3 -->
<g id="edge10_Node000003_Node000007" class="edge">
<title>Node7&#45;&gt;Node3</title>
<g id="a_edge10_Node000003_Node000007"><a xlink:title=" ">
<path fill="none" stroke="#63b8ff" d="M125.64,-1478.83C112.51,-1403.42 88.6,-1231.68 113,-1090 123.95,-1026.42 145.17,-959.14 167.12,-900.43"/>
<polygon fill="none" stroke="#63b8ff" points="167.12,-900.42 165.5,-893.39 171.37,-889.19 172.98,-896.22 167.12,-900.42"/>
</a>
</g>
<text text-anchor="middle" x="150" y="-1119.5" font-family="Helvetica,sans-Serif" font-size="10.00" fill="grey"> &#45;m_fileSystem</text>
</g>
<!-- Node8&#45;&gt;Node1 -->
<g id="edge14_Node000001_Node000008" class="edge">
<title>Node8&#45;&gt;Node1</title>
<g id="a_edge14_Node000001_Node000008"><a xlink:title=" ">
<path fill="none" stroke="#63b8ff" d="M54.83,-1089.88C58.09,-1051.33 63,-983.63 63,-925.5 63,-925.5 63,-925.5 63,-442 63,-406.21 64.87,-367.94 67.54,-331.51"/>
<polygon fill="none" stroke="#63b8ff" points="67.57,-331.2 64.04,-324.92 68.48,-319.24 72.01,-325.53 67.57,-331.2"/>
</a>
</g>
<text text-anchor="middle" x="96" y="-731.5" font-family="Helvetica,sans-Serif" font-size="10.00" fill="grey"> &#45;m_txtParser</text>
</g>
<!-- Node9&#45;&gt;Node1 -->
<g id="edge16_Node000001_Node000009" class="edge">
<title>Node9&#45;&gt;Node1</title>
<g id="a_edge16_Node000001_Node000009"><a xlink:title=" ">
<path fill="none" stroke="#63b8ff" d="M403.94,-392.97C340.9,-346.87 246.07,-277.54 176.38,-226.58"/>
<polygon fill="none" stroke="#63b8ff" points="175.97,-226.28 168.77,-225.97 166.28,-219.2 173.49,-219.51 175.97,-226.28"/>
</a>
</g>
<text text-anchor="middle" x="375" y="-340" font-family="Helvetica,sans-Serif" font-size="10.00" fill="grey"> &#45;m_testBenchM</text>
</g>
<!-- Node10 -->
<g id="Node000010" class="node">
<title>Node10</title>
<g id="a_Node000010"><a xlink:href="classTestBenchStatesList.html" target="_top" xlink:title=" ">
<polygon fill="white" stroke="transparent" points="700,-788.5 592,-788.5 592,-679.5 700,-679.5 700,-788.5"/>
<text text-anchor="start" x="597" y="-776" font-family="Helvetica,sans-Serif" font-size="10.00">TestBenchStatesList</text>
<text text-anchor="start" x="599.5" y="-761" font-family="Helvetica,sans-Serif" font-size="10.00">&#45;</text>
<text text-anchor="start" x="611" y="-761" font-family="Helvetica,sans-Serif" font-size="10.00">m_valuesDatas</text>
<text text-anchor="start" x="599.5" y="-746" font-family="Helvetica,sans-Serif" font-size="10.00">&#45;</text>
<text text-anchor="start" x="611" y="-746" font-family="Helvetica,sans-Serif" font-size="10.00">m_valuesNames</text>
<text text-anchor="start" x="597" y="-731" font-family="Helvetica,sans-Serif" font-size="10.00">+</text>
<text text-anchor="start" x="611" y="-731" font-family="Helvetica,sans-Serif" font-size="10.00">append()</text>
<text text-anchor="start" x="597" y="-716" font-family="Helvetica,sans-Serif" font-size="10.00">+</text>
<text text-anchor="start" x="611" y="-716" font-family="Helvetica,sans-Serif" font-size="10.00">getValue()</text>
<text text-anchor="start" x="597" y="-701" font-family="Helvetica,sans-Serif" font-size="10.00">+</text>
<text text-anchor="start" x="611" y="-701" font-family="Helvetica,sans-Serif" font-size="10.00">getValue()</text>
<text text-anchor="start" x="597" y="-686" font-family="Helvetica,sans-Serif" font-size="10.00">+</text>
<text text-anchor="start" x="611" y="-686" font-family="Helvetica,sans-Serif" font-size="10.00">getID()</text>
<polygon fill="#666666" stroke="#666666" points="592,-771 592,-771 700,-771 700,-771 592,-771"/>
<polygon fill="#666666" stroke="#666666" points="592,-741 592,-741 609,-741 609,-741 592,-741"/>
<polygon fill="#666666" stroke="#666666" points="609,-741 609,-741 700,-741 700,-741 609,-741"/>
<polygon fill="none" stroke="#666666" points="592,-679.5 592,-788.5 700,-788.5 700,-679.5 592,-679.5"/>
</a>
</g>
</g>
<!-- Node10&#45;&gt;Node9 -->
<g id="edge18_Node000009_Node000010" class="edge">
<title>Node10&#45;&gt;Node9</title>
<g id="a_edge18_Node000009_Node000010"><a xlink:title=" ">
<path fill="none" stroke="#63b8ff" d="M635.11,-679.13C625,-637.95 607.04,-581.12 578,-538 569.3,-525.09 558.41,-512.84 546.94,-501.72"/>
<polygon fill="none" stroke="#63b8ff" points="546.84,-501.63 539.72,-500.45 538.07,-493.43 545.18,-494.61 546.84,-501.63"/>
</a>
</g>
<text text-anchor="middle" x="609" y="-541" font-family="Helvetica,sans-Serif" font-size="10.00" fill="grey"> &#45;m_states</text>
</g>
</g>
</svg>
