<?xml version="1.0" encoding="UTF-8" standalone="no"?>
<!DOCTYPE svg PUBLIC "-//W3C//DTD SVG 1.1//EN"
 "http://www.w3.org/Graphics/SVG/1.1/DTD/svg11.dtd">
<!-- Generated by graphviz version 2.43.0 (0)
 -->
<!-- Title: MainWindow::MainWindow Pages: 1 -->
<!--zoomable 253 -->

<svg id="main" version="1.1" xmlns="http://www.w3.org/2000/svg" xmlns:xlink="http://www.w3.org/1999/xlink" xml:space="preserve" onload="init(evt)">
<style type="text/css"><![CDATA[
.node, .edge {opacity: 0.7;}
.node.selected, .edge.selected {opacity: 1;}
.edge:hover path { stroke: red; }
.edge:hover polygon { stroke: red; fill: red; }
]]></style>

<defs>
  <circle id="rim" cx="0" cy="0" r="7"/>
  <circle id="rim2" cx="0" cy="0" r="3.5"/>
  <g id="zoomPlus">
    <use xlink:href="#rim" fill="#404040"><set attributeName="fill" to="#808080" begin="zoomplus.mouseover" end="zoomplus.mouseout"/></use>
    <path d="M-4,0h8M0,-4v8" fill="none" stroke="white" stroke-width="1.5" pointer-events="none"/>
  </g>
  <g id="zoomMin">
    <use xlink:href="#rim" fill="#404040"><set attributeName="fill" to="#808080" begin="zoomminus.mouseover" end="zoomminus.mouseout"/></use>
    <path d="M-4,0h8" fill="none" stroke="white" stroke-width="1.5" pointer-events="none"/>
  </g>
  <g id="arrowUp" transform="translate(30 24)">
    <use xlink:href="#rim"/>
    <path pointer-events="none" fill="none" stroke="white" stroke-width="1.5" d="M0,-3.0v7 M-2.5,-0.5L0,-3.0L2.5,-0.5"/>
  </g>
  <g id="arrowRight" transform="rotate(90) translate(36 -43)">
    <use xlink:href="#rim"/>
    <path pointer-events="none" fill="none" stroke="white" stroke-width="1.5" d="M0,-3.0v7 M-2.5,-0.5L0,-3.0L2.5,-0.5"/>
  </g>
  <g id="arrowDown" transform="rotate(180) translate(-30 -48)">
    <use xlink:href="#rim"/>
    <path pointer-events="none" fill="none" stroke="white" stroke-width="1.5" d="M0,-3.0v7 M-2.5,-0.5L0,-3.0L2.5,-0.5"/>
  </g>
  <g id="arrowLeft" transform="rotate(270) translate(-36 17)">
    <use xlink:href="#rim"/>
    <path pointer-events="none" fill="none" stroke="white" stroke-width="1.5" d="M0,-3.0v7 M-2.5,-0.5L0,-3.0L2.5,-0.5"/>
  </g>
  <g id="resetDef">
    <use xlink:href="#rim2" fill="#404040"><set attributeName="fill" to="#808080" begin="reset.mouseover" end="reset.mouseout"/></use>
  </g>
</defs>
<script type="application/ecmascript">
var viewWidth = 659;
var viewHeight = 253;
var sectionId = 'dynsection-2';
</script>
<script type="application/ecmascript" xlink:href="svg.min.js"/>
<svg id="graph" class="graph">
<g id="viewport">
<title>MainWindow::MainWindow</title>
<!-- Node1 -->
<g id="Node000001" class="node">
<title>Node1</title>
<g id="a_Node000001"><a xlink:title=" ">
<polygon fill="#999999" stroke="#666666" points="148,-150 0,-150 0,-131 148,-131 148,-150"/>
<text text-anchor="middle" x="74" y="-138" font-family="Helvetica,sans-Serif" font-size="10.00">MainWindow::MainWindow</text>
</a>
</g>
</g>
<!-- Node2 -->
<g id="Node000002" class="node">
<title>Node2</title>
<g id="a_Node000002"><a xlink:href="FilesMenuFactory_8cpp.html#ac6ee6c728cdd1a759926949e367596b4" target="_top" xlink:title=" ">
<polygon fill="white" stroke="#666666" points="446,-245 358,-245 358,-226 446,-226 446,-245"/>
<text text-anchor="middle" x="402" y="-233" font-family="Helvetica,sans-Serif" font-size="10.00">makeFileMenu</text>
</a>
</g>
</g>
<!-- Node1&#45;&gt;Node2 -->
<g id="edge1_Node000001_Node000002" class="edge">
<title>Node1&#45;&gt;Node2</title>
<g id="a_edge1_Node000001_Node000002"><a xlink:title=" ">
<path fill="none" stroke="#63b8ff" d="M89.48,-150.16C109.73,-163.21 148.09,-186.24 184,-198.5 238.02,-216.94 302.88,-226.46 347.53,-231.19"/>
<polygon fill="#63b8ff" stroke="#63b8ff" points="347.28,-234.68 357.59,-232.21 347.99,-227.72 347.28,-234.68"/>
</a>
</g>
</g>
<!-- Node4 -->
<g id="Node000004" class="node">
<title>Node4</title>
<g id="a_Node000004"><a xlink:href="GraphicTabFactory_8cpp.html#a413ec40d77621241794c116daff86ad6" target="_top" xlink:title=" ">
<polygon fill="white" stroke="#666666" points="451,-208 353,-208 353,-189 451,-189 451,-208"/>
<text text-anchor="middle" x="402" y="-196" font-family="Helvetica,sans-Serif" font-size="10.00">makeGraphicTab</text>
</a>
</g>
</g>
<!-- Node1&#45;&gt;Node4 -->
<g id="edge3_Node000001_Node000004" class="edge">
<title>Node1&#45;&gt;Node4</title>
<g id="a_edge3_Node000001_Node000004"><a xlink:title=" ">
<path fill="none" stroke="#63b8ff" d="M97.5,-150.16C119.22,-159.05 153.25,-171.83 184,-178.5 236.88,-189.98 298.41,-194.87 342.42,-196.96"/>
<polygon fill="#63b8ff" stroke="#63b8ff" points="342.51,-200.46 352.65,-197.41 342.82,-193.47 342.51,-200.46"/>
</a>
</g>
</g>
<!-- Node5 -->
<g id="Node000005" class="node">
<title>Node5</title>
<g id="a_Node000005"><a xlink:href="OverlayFactory_8cpp.html#a3ca844a1b8cf3620e36851dd87b154ed" target="_top" xlink:title=" ">
<polygon fill="white" stroke="#666666" points="272.5,-169 190.5,-169 190.5,-150 272.5,-150 272.5,-169"/>
<text text-anchor="middle" x="231.5" y="-157" font-family="Helvetica,sans-Serif" font-size="10.00">makeOverlay</text>
</a>
</g>
</g>
<!-- Node1&#45;&gt;Node5 -->
<g id="edge5_Node000001_Node000005" class="edge">
<title>Node1&#45;&gt;Node5</title>
<g id="a_edge5_Node000001_Node000005"><a xlink:title=" ">
<path fill="none" stroke="#63b8ff" d="M148.2,-149.44C159.07,-150.77 170.06,-152.11 180.31,-153.37"/>
<polygon fill="#63b8ff" stroke="#63b8ff" points="179.94,-156.85 190.29,-154.59 180.79,-149.9 179.94,-156.85"/>
</a>
</g>
</g>
<!-- Node6 -->
<g id="Node000006" class="node">
<title>Node6</title>
<g id="a_Node000006"><a xlink:href="PidTabFactory_8cpp.html#a0786b8afab88f3413b720e1edfab985c" target="_top" xlink:title=" ">
<polygon fill="white" stroke="#666666" points="269,-132 194,-132 194,-113 269,-113 269,-132"/>
<text text-anchor="middle" x="231.5" y="-120" font-family="Helvetica,sans-Serif" font-size="10.00">makePidTab</text>
</a>
</g>
</g>
<!-- Node1&#45;&gt;Node6 -->
<g id="edge7_Node000001_Node000006" class="edge">
<title>Node1&#45;&gt;Node6</title>
<g id="a_edge7_Node000001_Node000006"><a xlink:title=" ">
<path fill="none" stroke="#63b8ff" d="M148.2,-132.03C160.26,-130.63 172.47,-129.22 183.66,-127.92"/>
<polygon fill="#63b8ff" stroke="#63b8ff" points="184.08,-131.4 193.61,-126.77 183.28,-124.44 184.08,-131.4"/>
</a>
</g>
</g>
<!-- Node7 -->
<g id="Node000007" class="node">
<title>Node7</title>
<g id="a_Node000007"><a xlink:href="TestTabFactory_8cpp.html#af93292430ddd132525a606042ffdd4a9" target="_top" xlink:title=" ">
<polygon fill="white" stroke="#666666" points="271.5,-94 191.5,-94 191.5,-75 271.5,-75 271.5,-94"/>
<text text-anchor="middle" x="231.5" y="-82" font-family="Helvetica,sans-Serif" font-size="10.00">makeTestTab</text>
</a>
</g>
</g>
<!-- Node1&#45;&gt;Node7 -->
<g id="edge9_Node000001_Node000007" class="edge">
<title>Node1&#45;&gt;Node7</title>
<g id="a_edge9_Node000001_Node000007"><a xlink:title=" ">
<path fill="none" stroke="#63b8ff" d="M101.73,-130.87C127.36,-121.64 166.24,-107.64 194.58,-97.44"/>
<polygon fill="#63b8ff" stroke="#63b8ff" points="195.89,-100.68 204.12,-94 193.52,-94.1 195.89,-100.68"/>
</a>
</g>
</g>
<!-- Node9 -->
<g id="Node000009" class="node">
<title>Node9</title>
<g id="a_Node000009"><a xlink:href="ToolsMenuFactory_8cpp.html#aa473d13ba6439e110d4c304c3c992276" target="_top" xlink:title=" ">
<polygon fill="white" stroke="#666666" points="279,-38 184,-38 184,-19 279,-19 279,-38"/>
<text text-anchor="middle" x="231.5" y="-26" font-family="Helvetica,sans-Serif" font-size="10.00">makeToolsMenu</text>
</a>
</g>
</g>
<!-- Node1&#45;&gt;Node9 -->
<g id="edge13_Node000001_Node000009" class="edge">
<title>Node1&#45;&gt;Node9</title>
<g id="a_edge13_Node000001_Node000009"><a xlink:title=" ">
<path fill="none" stroke="#63b8ff" d="M88.26,-130.95C115.11,-111.61 176.15,-67.65 208.85,-44.09"/>
<polygon fill="#63b8ff" stroke="#63b8ff" points="211.21,-46.71 217.28,-38.02 207.12,-41.03 211.21,-46.71"/>
</a>
</g>
</g>
<!-- Node3 -->
<g id="Node000003" class="node">
<title>Node3</title>
<g id="a_Node000003"><a xlink:href="classAppViewModel.html#accb3d3a0f4d4c93741dd4d72b319d748" target="_top" xlink:title=" ">
<polygon fill="white" stroke="#666666" points="651,-132 525,-132 525,-113 651,-113 651,-132"/>
<text text-anchor="middle" x="588" y="-120" font-family="Helvetica,sans-Serif" font-size="10.00">AppViewModel::create</text>
</a>
</g>
</g>
<!-- Node2&#45;&gt;Node3 -->
<g id="edge2_Node000002_Node000003" class="edge">
<title>Node2&#45;&gt;Node3</title>
<g id="a_edge2_Node000002_Node000003"><a xlink:title=" ">
<path fill="none" stroke="#63b8ff" d="M446.19,-231.32C460.42,-228.7 475.93,-224.44 489,-217.5 525.05,-198.36 556.96,-161.96 573.98,-140.2"/>
<polygon fill="#63b8ff" stroke="#63b8ff" points="576.86,-142.2 580.13,-132.12 571.29,-137.95 576.86,-142.2"/>
</a>
</g>
</g>
<!-- Node4&#45;&gt;Node3 -->
<g id="edge4_Node000004_Node000003" class="edge">
<title>Node4&#45;&gt;Node3</title>
<g id="a_edge4_Node000004_Node000003"><a xlink:title=" ">
<path fill="none" stroke="#63b8ff" d="M444.28,-188.91C458.66,-185.07 474.75,-180.19 489,-174.5 515.13,-164.06 543.35,-148.6 562.77,-137.25"/>
<polygon fill="#63b8ff" stroke="#63b8ff" points="564.73,-140.16 571.55,-132.05 561.16,-134.14 564.73,-140.16"/>
</a>
</g>
</g>
<!-- Node5&#45;&gt;Node3 -->
<g id="edge6_Node000005_Node000003" class="edge">
<title>Node5&#45;&gt;Node3</title>
<g id="a_edge6_Node000005_Node000003"><a xlink:title=" ">
<path fill="none" stroke="#63b8ff" d="M272.55,-156.56C323.08,-152.71 412.61,-145.37 489,-136.5 497.34,-135.53 506.07,-134.42 514.74,-133.26"/>
<polygon fill="#63b8ff" stroke="#63b8ff" points="515.42,-136.7 524.85,-131.88 514.47,-129.76 515.42,-136.7"/>
</a>
</g>
</g>
<!-- Node6&#45;&gt;Node3 -->
<g id="edge8_Node000006_Node000003" class="edge">
<title>Node6&#45;&gt;Node3</title>
<g id="a_edge8_Node000006_Node000003"><a xlink:title=" ">
<path fill="none" stroke="#63b8ff" d="M269.1,-122.5C326.8,-122.5 439.99,-122.5 514.56,-122.5"/>
<polygon fill="#63b8ff" stroke="#63b8ff" points="514.82,-126 524.82,-122.5 514.82,-119 514.82,-126"/>
</a>
</g>
</g>
<!-- Node7&#45;&gt;Node3 -->
<g id="edge10_Node000007_Node000003" class="edge">
<title>Node7&#45;&gt;Node3</title>
<g id="a_edge10_Node000007_Node000003"><a xlink:title=" ">
<path fill="none" stroke="#63b8ff" d="M271.79,-88.71C330.33,-94.99 441.41,-106.89 514.83,-114.76"/>
<polygon fill="#63b8ff" stroke="#63b8ff" points="514.62,-118.26 524.93,-115.85 515.36,-111.3 514.62,-118.26"/>
</a>
</g>
</g>
<!-- Node8 -->
<g id="Node000008" class="node">
<title>Node8</title>
<g id="a_Node000008"><a xlink:href="TankPressureControlerFrameFactory_8cpp.html#a7dfd416596b7d62fee0cee4dfdaabd78" target="_top" xlink:title=" ">
<polygon fill="white" stroke="#666666" points="489,-56 315,-56 315,-37 489,-37 489,-56"/>
<text text-anchor="middle" x="402" y="-44" font-family="Helvetica,sans-Serif" font-size="10.00">makeTankPressureControlFrame</text>
</a>
</g>
</g>
<!-- Node7&#45;&gt;Node8 -->
<g id="edge11_Node000007_Node000008" class="edge">
<title>Node7&#45;&gt;Node8</title>
<g id="a_edge11_Node000007_Node000008"><a xlink:title=" ">
<path fill="none" stroke="#63b8ff" d="M271.58,-75.69C294.48,-70.52 323.7,-63.93 348.58,-58.32"/>
<polygon fill="#63b8ff" stroke="#63b8ff" points="349.6,-61.68 358.59,-56.06 348.06,-54.85 349.6,-61.68"/>
</a>
</g>
</g>
<!-- Node8&#45;&gt;Node3 -->
<g id="edge12_Node000008_Node000003" class="edge">
<title>Node8&#45;&gt;Node3</title>
<g id="a_edge12_Node000008_Node000003"><a xlink:title=" ">
<path fill="none" stroke="#63b8ff" d="M444.28,-56.09C458.66,-59.93 474.75,-64.81 489,-70.5 515.13,-80.94 543.35,-96.4 562.77,-107.75"/>
<polygon fill="#63b8ff" stroke="#63b8ff" points="561.16,-110.86 571.55,-112.95 564.73,-104.84 561.16,-110.86"/>
</a>
</g>
</g>
<!-- Node10 -->
<g id="Node000010" class="node">
<title>Node10</title>
<g id="a_Node000010"><a xlink:href="ParametersWindowFactory_8cpp.html#ac014b3b990f0c9178e75fbdbe44f88ba" target="_top" xlink:title=" ">
<polygon fill="white" stroke="#666666" points="471,-19 333,-19 333,0 471,0 471,-19"/>
<text text-anchor="middle" x="402" y="-7" font-family="Helvetica,sans-Serif" font-size="10.00">makeParametersWindow</text>
</a>
</g>
</g>
<!-- Node9&#45;&gt;Node10 -->
<g id="edge14_Node000009_Node000010" class="edge">
<title>Node9&#45;&gt;Node10</title>
<g id="a_edge14_Node000009_Node000010"><a xlink:title=" ">
<path fill="none" stroke="#63b8ff" d="M279.44,-23.21C292.89,-21.69 307.93,-19.99 322.72,-18.33"/>
<polygon fill="#63b8ff" stroke="#63b8ff" points="323.36,-21.78 332.9,-17.18 322.57,-14.82 323.36,-21.78"/>
</a>
</g>
</g>
<!-- Node10&#45;&gt;Node3 -->
<g id="edge15_Node000010_Node000003" class="edge">
<title>Node10&#45;&gt;Node3</title>
<g id="a_edge15_Node000010_Node000003"><a xlink:title=" ">
<path fill="none" stroke="#63b8ff" d="M468.26,-19.04C475.47,-21.29 482.53,-24.07 489,-27.5 525.05,-46.64 556.96,-83.04 573.98,-104.8"/>
<polygon fill="#63b8ff" stroke="#63b8ff" points="571.29,-107.05 580.13,-112.88 576.86,-102.8 571.29,-107.05"/>
</a>
</g>
</g>
</g>
</svg>

<g id="navigator" transform="translate(0 0)" fill="#404254">
  <rect fill="#f2f5e9" fill-opacity="0.5" stroke="#606060" stroke-width=".5" x="0" y="0" width="60" height="60"/>
  <use id="zoomplus" xlink:href="#zoomPlus" x="17" y="9" onmousedown="handleZoom(evt,'in')"/>
  <use id="zoomminus" xlink:href="#zoomMin" x="42" y="9" onmousedown="handleZoom(evt,'out')"/>
  <use id="reset" xlink:href="#resetDef" x="30" y="36" onmousedown="handleReset()"/>
   <use id="arrowup" xlink:href="#arrowUp" x="0" y="0" onmousedown="handlePan(0,-1)"/>
  <use id="arrowright" xlink:href="#arrowRight" x="0" y="0" onmousedown="handlePan(1,0)"/>
  <use id="arrowdown" xlink:href="#arrowDown" x="0" y="0" onmousedown="handlePan(0,1)"/>
  <use id="arrowleft" xlink:href="#arrowLeft" x="0" y="0" onmousedown="handlePan(-1,0)"/>
</g>
<svg viewBox="0 0 15 15" width="100%" height="30px" preserveAspectRatio="xMaxYMin meet">
 <g id="arrow_out" transform="scale(0.3 0.3)">
  <a xlink:href="classMainWindow_ae2f22622b4e0955cef2b824413bf361b_cgraph_org.svg" target="_base">
   <rect id="button" ry="5" rx="5" y="6" x="6" height="38" width="38"
        fill="#f2f5e9" fill-opacity="0.5" stroke="#606060" stroke-width="1.0"/>
   <path id="arrow"
     d="M 11.500037,31.436501 C 11.940474,20.09759 22.043105,11.32322 32.158766,21.979434 L 37.068811,17.246167 C 37.068811,17.246167 37.088388,32 37.088388,32 L 22.160133,31.978069 C 22.160133,31.978069 26.997745,27.140456 26.997745,27.140456 C 18.528582,18.264221 13.291696,25.230495 11.500037,31.436501 z"
     style="fill:#404040;"/>
  </a>
 </g>
</svg>

<style type='text/css'>
<![CDATA[
[data-mouse-over-selected='false'] { opacity: 0.7; }
[data-mouse-over-selected='true']  { opacity: 1.0; }
]]>
</style>
<script type="application/ecmascript"><![CDATA[
document.addEventListener('DOMContentLoaded', (event) => {
  highlightEdges();
  highlightAdjacentNodes();
});
]]></script>
</svg>
