<?xml version="1.0" encoding="UTF-8" standalone="no"?>
<!DOCTYPE svg PUBLIC "-//W3C//DTD SVG 1.1//EN"
 "http://www.w3.org/Graphics/SVG/1.1/DTD/svg11.dtd">
<!-- Generated by graphviz version 2.43.0 (0)
 -->
<!-- Title: PlotViewModel::titleChanged Pages: 1 -->
<svg width="506pt" height="64pt"
 viewBox="0.00 0.00 506.00 64.00" xmlns="http://www.w3.org/2000/svg" xmlns:xlink="http://www.w3.org/1999/xlink">
<g id="graph0" class="graph" transform="scale(1 1) rotate(0) translate(4 60)">
<title>PlotViewModel::titleChanged</title>
<!-- Node1 -->
<g id="Node000001" class="node">
<title>Node1</title>
<g id="a_Node000001"><a xlink:title=" ">
<polygon fill="#999999" stroke="#666666" points="498,-37 340,-37 340,-18 498,-18 498,-37"/>
<text text-anchor="middle" x="419" y="-25" font-family="Helvetica,sans-Serif" font-size="10.00">PlotViewModel::titleChanged</text>
</a>
</g>
</g>
<!-- Node2 -->
<g id="Node000002" class="node">
<title>Node2</title>
<g id="a_Node000002"><a xlink:href="classPlotViewModel.html#a5842c23b03eb12fe9e5f80e25a6cf923" target="_top" xlink:title=" ">
<polygon fill="white" stroke="#666666" points="304,-56 167,-56 167,-37 304,-37 304,-56"/>
<text text-anchor="middle" x="235.5" y="-44" font-family="Helvetica,sans-Serif" font-size="10.00">PlotViewModel::initialise</text>
</a>
</g>
</g>
<!-- Node1&#45;&gt;Node2 -->
<g id="edge1_Node000001_Node000002" class="edge">
<title>Node1&#45;&gt;Node2</title>
<g id="a_edge1_Node000001_Node000002"><a xlink:title=" ">
<path fill="none" stroke="#63b8ff" d="M329.87,-36.73C321.23,-37.63 312.57,-38.54 304.18,-39.41"/>
<polygon fill="#63b8ff" stroke="#63b8ff" points="330.39,-40.19 339.97,-35.67 329.66,-33.23 330.39,-40.19"/>
</a>
</g>
</g>
<!-- Node4 -->
<g id="Node000004" class="node">
<title>Node4</title>
<g id="a_Node000004"><a xlink:href="classPlotViewModel.html#a127a03cb99dc177fed9c16a6553860de" target="_top" xlink:title=" ">
<polygon fill="white" stroke="#666666" points="290.5,-19 180.5,-19 180.5,0 290.5,0 290.5,-19"/>
<text text-anchor="middle" x="235.5" y="-7" font-family="Helvetica,sans-Serif" font-size="10.00">PlotViewModel::set</text>
</a>
</g>
</g>
<!-- Node1&#45;&gt;Node4 -->
<g id="edge3_Node000001_Node000004" class="edge">
<title>Node1&#45;&gt;Node4</title>
<g id="a_edge3_Node000001_Node000004"><a xlink:title=" ">
<path fill="none" stroke="#63b8ff" d="M329.79,-18.75C316.43,-17.43 303,-16.1 290.66,-14.87"/>
<polygon fill="#63b8ff" stroke="#63b8ff" points="329.68,-22.26 339.97,-19.76 330.37,-15.29 329.68,-22.26"/>
</a>
</g>
</g>
<!-- Node3 -->
<g id="Node000003" class="node">
<title>Node3</title>
<g id="a_Node000003"><a xlink:href="classPlot.html#a5b4b38ebab6fc69bd007d591c2bc61e3" target="_top" xlink:title=" ">
<polygon fill="white" stroke="#666666" points="95.5,-56 35.5,-56 35.5,-37 95.5,-37 95.5,-56"/>
<text text-anchor="middle" x="65.5" y="-44" font-family="Helvetica,sans-Serif" font-size="10.00">Plot::Plot</text>
</a>
</g>
</g>
<!-- Node2&#45;&gt;Node3 -->
<g id="edge2_Node000002_Node000003" class="edge">
<title>Node2&#45;&gt;Node3</title>
<g id="a_edge2_Node000002_Node000003"><a xlink:title=" ">
<path fill="none" stroke="#63b8ff" d="M156.41,-46.5C134.71,-46.5 112.48,-46.5 95.56,-46.5"/>
<polygon fill="#63b8ff" stroke="#63b8ff" points="156.65,-50 166.65,-46.5 156.65,-43 156.65,-50"/>
</a>
</g>
</g>
<!-- Node5 -->
<g id="Node000005" class="node">
<title>Node5</title>
<g id="a_Node000005"><a xlink:href="classGraphicTab.html#a223c161561ddc604b6773b67a7926a79" target="_top" xlink:title=" ">
<polygon fill="white" stroke="#666666" points="131,-19 0,-19 0,0 131,0 131,-19"/>
<text text-anchor="middle" x="65.5" y="-7" font-family="Helvetica,sans-Serif" font-size="10.00">GraphicTab::GraphicTab</text>
</a>
</g>
</g>
<!-- Node4&#45;&gt;Node5 -->
<g id="edge4_Node000004_Node000005" class="edge">
<title>Node4&#45;&gt;Node5</title>
<g id="a_edge4_Node000004_Node000005"><a xlink:title=" ">
<path fill="none" stroke="#63b8ff" d="M170.27,-9.5C157.42,-9.5 143.91,-9.5 131.04,-9.5"/>
<polygon fill="#63b8ff" stroke="#63b8ff" points="170.42,-13 180.42,-9.5 170.42,-6 170.42,-13"/>
</a>
</g>
</g>
</g>
</svg>
