<?xml version="1.0" encoding="UTF-8" standalone="no"?>
<!DOCTYPE svg PUBLIC "-//W3C//DTD SVG 1.1//EN"
 "http://www.w3.org/Graphics/SVG/1.1/DTD/svg11.dtd">
<!-- Generated by graphviz version 2.43.0 (0)
 -->
<!-- Title: PlotViewModel::timeRangeButtons Pages: 1 -->
<svg width="440pt" height="60pt"
 viewBox="0.00 0.00 440.00 60.00" xmlns="http://www.w3.org/2000/svg" xmlns:xlink="http://www.w3.org/1999/xlink">

<svg id="main" version="1.1" xmlns="http://www.w3.org/2000/svg" xmlns:xlink="http://www.w3.org/1999/xlink" xml:space="preserve" onload="init(evt)">
<style type="text/css"><![CDATA[
.node, .edge {opacity: 0.7;}
.node.selected, .edge.selected {opacity: 1;}
.edge:hover path { stroke: red; }
.edge:hover polygon { stroke: red; fill: red; }
]]></style>
<script type="application/ecmascript" xlink:href="svg.min.js"/>
<svg id="graph" class="graph">
<g id="graph0" class="graph" transform="scale(1 1) rotate(0) translate(4 56)">
<title>PlotViewModel::timeRangeButtons</title>
<!-- Node1 -->
<g id="Node000001" class="node">
<title>Node1</title>
<g id="a_Node000001"><a xlink:title=" ">
<polygon fill="#999999" stroke="#666666" points="432,-30 283,-30 283,0 432,0 432,-30"/>
<text text-anchor="start" x="291" y="-18" font-family="Helvetica,sans-Serif" font-size="10.00">PlotViewModel::timeRange</text>
<text text-anchor="middle" x="357.5" y="-7" font-family="Helvetica,sans-Serif" font-size="10.00">Buttons</text>
</a>
</g>
</g>
<!-- Node2 -->
<g id="Node000002" class="node">
<title>Node2</title>
<g id="a_Node000002"><a xlink:href="classPlot.html#ace35a9b43d763b8f6371d2770ade6a24" target="_top" xlink:title=" ">
<polygon fill="white" stroke="#666666" points="247,-52 96,-52 96,-22 247,-22 247,-52"/>
<text text-anchor="start" x="104" y="-40" font-family="Helvetica,sans-Serif" font-size="10.00">Plot::onSelectedTimeRange</text>
<text text-anchor="middle" x="171.5" y="-29" font-family="Helvetica,sans-Serif" font-size="10.00">Changed</text>
</a>
</g>
</g>
<!-- Node1&#45;&gt;Node2 -->
<g id="edge1_Node000001_Node000002" class="edge">
<title>Node1&#45;&gt;Node2</title>
<g id="a_edge1_Node000001_Node000002"><a xlink:title=" ">
<path fill="none" stroke="#63b8ff" d="M272.94,-24.99C264.32,-26.02 255.61,-27.06 247.1,-28.08"/>
<polygon fill="#63b8ff" stroke="#63b8ff" points="273.47,-28.45 282.99,-23.79 272.64,-21.5 273.47,-28.45"/>
</a>
</g>
</g>
<!-- Node3 -->
<g id="Node000003" class="node">
<title>Node3</title>
<g id="a_Node000003"><a xlink:href="classPlot.html#a5b4b38ebab6fc69bd007d591c2bc61e3" target="_top" xlink:title=" ">
<polygon fill="white" stroke="#666666" points="60,-24.5 0,-24.5 0,-5.5 60,-5.5 60,-24.5"/>
<text text-anchor="middle" x="30" y="-12.5" font-family="Helvetica,sans-Serif" font-size="10.00">Plot::Plot</text>
</a>
</g>
</g>
<!-- Node1&#45;&gt;Node3 -->
<g id="edge3_Node000001_Node000003" class="edge">
<title>Node1&#45;&gt;Node3</title>
<g id="a_edge3_Node000001_Node000003"><a xlink:title=" ">
<path fill="none" stroke="#63b8ff" d="M272.71,-13.31C264.03,-13.18 255.34,-13.08 247,-13 179.89,-12.39 163.1,-11.97 96,-13 84.26,-13.18 71.33,-13.54 60.12,-13.91"/>
<polygon fill="#63b8ff" stroke="#63b8ff" points="272.82,-16.81 282.88,-13.47 272.93,-9.82 272.82,-16.81"/>
</a>
</g>
</g>
<!-- Node2&#45;&gt;Node3 -->
<g id="edge2_Node000002_Node000003" class="edge">
<title>Node2&#45;&gt;Node3</title>
<g id="a_edge2_Node000002_Node000003"><a xlink:title=" ">
<path fill="none" stroke="#63b8ff" d="M85.81,-23.64C76.66,-22.2 67.87,-20.81 60.11,-19.59"/>
<polygon fill="#63b8ff" stroke="#63b8ff" points="85.43,-27.13 95.85,-25.23 86.52,-20.21 85.43,-27.13"/>
</a>
</g>
</g>
</g>
</svg>
</svg>

<style type='text/css'>
<![CDATA[
[data-mouse-over-selected='false'] { opacity: 0.7; }
[data-mouse-over-selected='true']  { opacity: 1.0; }
]]>
</style>
<script type="application/ecmascript"><![CDATA[
document.addEventListener('DOMContentLoaded', (event) => {
  highlightEdges();
  highlightAdjacentNodes();
});
]]></script>
</svg>
