<?xml version="1.0" encoding="UTF-8" standalone="no"?>
<!DOCTYPE svg PUBLIC "-//W3C//DTD SVG 1.1//EN"
 "http://www.w3.org/Graphics/SVG/1.1/DTD/svg11.dtd">
<!-- Generated by graphviz version 2.43.0 (0)
 -->
<!-- Title: ActuatorSwitchViewModel::statusChanged Pages: 1 -->
<svg width="698pt" height="243pt"
 viewBox="0.00 0.00 698.00 243.00" xmlns="http://www.w3.org/2000/svg" xmlns:xlink="http://www.w3.org/1999/xlink">
<g id="graph0" class="graph" transform="scale(1 1) rotate(0) translate(4 239)">
<title>ActuatorSwitchViewModel::statusChanged</title>
<!-- Node1 -->
<g id="Node000001" class="node">
<title>Node1</title>
<g id="a_Node000001"><a xlink:title=" ">
<polygon fill="#999999" stroke="#666666" points="690,-149 546,-149 546,-119 690,-119 690,-149"/>
<text text-anchor="start" x="554" y="-137" font-family="Helvetica,sans-Serif" font-size="10.00">ActuatorSwitchViewModel</text>
<text text-anchor="middle" x="618" y="-126" font-family="Helvetica,sans-Serif" font-size="10.00">::statusChanged</text>
</a>
</g>
</g>
<!-- Node2 -->
<g id="Node000002" class="node">
<title>Node2</title>
<g id="a_Node000002"><a xlink:href="classStatusTableWidget.html#a76e50b9a999c694b5d10763bd7473303" target="_top" xlink:title=" ">
<polygon fill="white" stroke="#666666" points="494.5,-149 381.5,-149 381.5,-119 494.5,-119 494.5,-149"/>
<text text-anchor="start" x="389.5" y="-137" font-family="Helvetica,sans-Serif" font-size="10.00">StatusTableWidget::</text>
<text text-anchor="middle" x="438" y="-126" font-family="Helvetica,sans-Serif" font-size="10.00">addActuator</text>
</a>
</g>
</g>
<!-- Node1&#45;&gt;Node2 -->
<g id="edge1_Node000001_Node000002" class="edge">
<title>Node1&#45;&gt;Node2</title>
<g id="a_edge1_Node000001_Node000002"><a xlink:title=" ">
<path fill="none" stroke="#63b8ff" d="M535.81,-134C521.89,-134 507.71,-134 494.66,-134"/>
<polygon fill="#63b8ff" stroke="#63b8ff" points="535.88,-137.5 545.88,-134 535.88,-130.5 535.88,-137.5"/>
</a>
</g>
</g>
<!-- Node4 -->
<g id="Node000004" class="node">
<title>Node4</title>
<g id="a_Node000004"><a xlink:href="classActuatorSwitchWidget.html#af9fbb6ab5d0db3b3f6d6db92c7321f5b" target="_top" xlink:title=" ">
<polygon fill="white" stroke="#666666" points="320.5,-202 195.5,-202 195.5,-172 320.5,-172 320.5,-202"/>
<text text-anchor="start" x="203.5" y="-190" font-family="Helvetica,sans-Serif" font-size="10.00">ActuatorSwitchWidget</text>
<text text-anchor="middle" x="258" y="-179" font-family="Helvetica,sans-Serif" font-size="10.00">::display</text>
</a>
</g>
</g>
<!-- Node1&#45;&gt;Node4 -->
<g id="edge3_Node000001_Node000004" class="edge">
<title>Node1&#45;&gt;Node4</title>
<g id="a_edge3_Node000001_Node000004"><a xlink:title=" ">
<path fill="none" stroke="#63b8ff" d="M545.45,-151.14C533.65,-153.66 521.51,-156.05 510,-158 445.77,-168.88 371.6,-176.9 320.63,-181.71"/>
<polygon fill="#63b8ff" stroke="#63b8ff" points="546.23,-154.56 555.26,-149.01 544.75,-147.72 546.23,-154.56"/>
</a>
</g>
</g>
<!-- Node7 -->
<g id="Node000007" class="node">
<title>Node7</title>
<g id="a_Node000007"><a xlink:href="classActuatorSwitchViewModel.html#a15d5e4d185627320177372f1f5402c29" target="_top" xlink:title=" ">
<polygon fill="white" stroke="#666666" points="510,-235 366,-235 366,-205 510,-205 510,-235"/>
<text text-anchor="start" x="374" y="-223" font-family="Helvetica,sans-Serif" font-size="10.00">ActuatorSwitchViewModel</text>
<text text-anchor="middle" x="438" y="-212" font-family="Helvetica,sans-Serif" font-size="10.00">::initialise</text>
</a>
</g>
</g>
<!-- Node1&#45;&gt;Node7 -->
<g id="edge6_Node000001_Node000007" class="edge">
<title>Node1&#45;&gt;Node7</title>
<g id="a_edge6_Node000001_Node000007"><a xlink:title=" ">
<path fill="none" stroke="#63b8ff" d="M581.54,-154.06C560.92,-165.42 534.29,-179.61 510,-191 499.75,-195.81 488.48,-200.62 478,-204.9"/>
<polygon fill="#63b8ff" stroke="#63b8ff" points="583.51,-156.97 590.56,-149.05 580.12,-150.85 583.51,-156.97"/>
</a>
</g>
</g>
<!-- Node8 -->
<g id="Node000008" class="node">
<title>Node8</title>
<g id="a_Node000008"><a xlink:href="classActuatorSwitchViewModel.html#ab4c09aa374e91472f687b5c0c4374548" target="_top" xlink:title=" ">
<polygon fill="white" stroke="#666666" points="510,-101 366,-101 366,-71 510,-71 510,-101"/>
<text text-anchor="start" x="374" y="-89" font-family="Helvetica,sans-Serif" font-size="10.00">ActuatorSwitchViewModel</text>
<text text-anchor="middle" x="438" y="-78" font-family="Helvetica,sans-Serif" font-size="10.00">::setStatus</text>
</a>
</g>
</g>
<!-- Node1&#45;&gt;Node8 -->
<g id="edge8_Node000001_Node000008" class="edge">
<title>Node1&#45;&gt;Node8</title>
<g id="a_edge8_Node000001_Node000008"><a xlink:title=" ">
<path fill="none" stroke="#63b8ff" d="M551.29,-116.28C532.67,-111.26 512.59,-105.85 494.63,-101"/>
<polygon fill="#63b8ff" stroke="#63b8ff" points="550.6,-119.72 561.17,-118.94 552.42,-112.96 550.6,-119.72"/>
</a>
</g>
</g>
<!-- Node10 -->
<g id="Node000010" class="node">
<title>Node10</title>
<g id="a_Node000010"><a xlink:href="classActuatorSwitchViewModel.html#afca1d249f6cd2a0a4ce5833d753b9420" target="_top" xlink:title=" ">
<polygon fill="white" stroke="#666666" points="330,-30 186,-30 186,0 330,0 330,-30"/>
<text text-anchor="start" x="194" y="-18" font-family="Helvetica,sans-Serif" font-size="10.00">ActuatorSwitchViewModel</text>
<text text-anchor="middle" x="258" y="-7" font-family="Helvetica,sans-Serif" font-size="10.00">::updateStatus</text>
</a>
</g>
</g>
<!-- Node1&#45;&gt;Node10 -->
<g id="edge16_Node000001_Node000010" class="edge">
<title>Node1&#45;&gt;Node10</title>
<g id="a_edge16_Node000001_Node000010"><a xlink:title=" ">
<path fill="none" stroke="#63b8ff" d="M591.42,-112.37C570.76,-96.04 540.23,-74.38 510,-62 452.05,-38.27 381.64,-26.42 330.15,-20.56"/>
<polygon fill="#63b8ff" stroke="#63b8ff" points="589.4,-115.23 599.38,-118.78 593.79,-109.78 589.4,-115.23"/>
</a>
</g>
</g>
<!-- Node3 -->
<g id="Node000003" class="node">
<title>Node3</title>
<g id="a_Node000003"><a xlink:href="classPidTab.html#acbc2f0dd63aac6e755c0022af8b96c90" target="_top" xlink:title=" ">
<polygon fill="white" stroke="#666666" points="301,-153.5 215,-153.5 215,-134.5 301,-134.5 301,-153.5"/>
<text text-anchor="middle" x="258" y="-141.5" font-family="Helvetica,sans-Serif" font-size="10.00">PidTab::PidTab</text>
</a>
</g>
</g>
<!-- Node2&#45;&gt;Node3 -->
<g id="edge2_Node000002_Node000003" class="edge">
<title>Node2&#45;&gt;Node3</title>
<g id="a_edge2_Node000002_Node000003"><a xlink:title=" ">
<path fill="none" stroke="#63b8ff" d="M370.96,-137.71C347.57,-139.02 321.92,-140.47 301.07,-141.64"/>
<polygon fill="#63b8ff" stroke="#63b8ff" points="371.38,-141.19 381.17,-137.14 370.99,-134.2 371.38,-141.19"/>
</a>
</g>
</g>
<!-- Node5 -->
<g id="Node000005" class="node">
<title>Node5</title>
<g id="a_Node000005"><a xlink:href="classGlowPlugSwitch.html#a601229de111a3002eab95e6628a809c2" target="_top" xlink:title=" ">
<polygon fill="white" stroke="#666666" points="148,-116 2,-116 2,-86 148,-86 148,-116"/>
<text text-anchor="start" x="10" y="-104" font-family="Helvetica,sans-Serif" font-size="10.00">GlowPlugSwitch::GlowPlug</text>
<text text-anchor="middle" x="75" y="-93" font-family="Helvetica,sans-Serif" font-size="10.00">Switch</text>
</a>
</g>
</g>
<!-- Node4&#45;&gt;Node5 -->
<g id="edge4_Node000004_Node000005" class="edge">
<title>Node4&#45;&gt;Node5</title>
<g id="a_edge4_Node000004_Node000005"><a xlink:title=" ">
<path fill="none" stroke="#63b8ff" d="M201.32,-168.4C196.09,-166.36 190.92,-164.21 186,-162 155.53,-148.3 122.19,-129.19 100.29,-116.03"/>
<polygon fill="#63b8ff" stroke="#63b8ff" points="200.13,-171.7 210.72,-171.97 202.62,-165.15 200.13,-171.7"/>
</a>
</g>
</g>
<!-- Node6 -->
<g id="Node000006" class="node">
<title>Node6</title>
<g id="a_Node000006"><a xlink:href="classValveSwitch.html#a7764850d7ec0c40ff1cc5b6c6f1ab8f5" target="_top" xlink:title=" ">
<polygon fill="white" stroke="#666666" points="145.5,-174.5 4.5,-174.5 4.5,-155.5 145.5,-155.5 145.5,-174.5"/>
<text text-anchor="middle" x="75" y="-162.5" font-family="Helvetica,sans-Serif" font-size="10.00">ValveSwitch::ValveSwitch</text>
</a>
</g>
</g>
<!-- Node4&#45;&gt;Node6 -->
<g id="edge5_Node000004_Node000006" class="edge">
<title>Node4&#45;&gt;Node6</title>
<g id="a_edge5_Node000004_Node000006"><a xlink:title=" ">
<path fill="none" stroke="#63b8ff" d="M185.19,-178.27C172.21,-176.69 158.69,-175.05 145.77,-173.48"/>
<polygon fill="#63b8ff" stroke="#63b8ff" points="185.12,-181.79 195.47,-179.52 185.96,-174.84 185.12,-181.79"/>
</a>
</g>
</g>
<!-- Node7&#45;&gt;Node4 -->
<g id="edge7_Node000007_Node000004" class="edge">
<title>Node7&#45;&gt;Node4</title>
<g id="a_edge7_Node000007_Node000004"><a xlink:title=" ">
<path fill="none" stroke="#63b8ff" d="M355.95,-204.97C344.05,-202.77 331.96,-200.53 320.53,-198.41"/>
<polygon fill="#63b8ff" stroke="#63b8ff" points="355.41,-208.43 365.88,-206.82 356.69,-201.55 355.41,-208.43"/>
</a>
</g>
</g>
<!-- Node8&#45;&gt;Node3 -->
<g id="edge10_Node000008_Node000003" class="edge">
<title>Node8&#45;&gt;Node3</title>
<g id="a_edge10_Node000008_Node000003"><a xlink:title=" ">
<path fill="none" stroke="#63b8ff" d="M381.54,-104.34C376.27,-106.2 371.02,-108.11 366,-110 349.78,-116.11 346.41,-119.41 330,-125 319.85,-128.45 308.72,-131.69 298.34,-134.47"/>
<polygon fill="#63b8ff" stroke="#63b8ff" points="382.72,-107.63 391,-101.03 380.41,-101.02 382.72,-107.63"/>
</a>
</g>
</g>
<!-- Node8&#45;&gt;Node5 -->
<g id="edge9_Node000008_Node000005" class="edge">
<title>Node8&#45;&gt;Node5</title>
<g id="a_edge9_Node000008_Node000005"><a xlink:title=" ">
<path fill="none" stroke="#63b8ff" d="M355.67,-77.21C306.44,-73.35 242.46,-70.91 186,-77 168.9,-78.84 150.56,-82.26 133.85,-85.94"/>
<polygon fill="#63b8ff" stroke="#63b8ff" points="355.69,-80.72 365.94,-78.05 356.26,-73.75 355.69,-80.72"/>
</a>
</g>
</g>
<!-- Node9 -->
<g id="Node000009" class="node">
<title>Node9</title>
<g id="a_Node000009"><a xlink:href="classActuatorSwitchViewModel.html#a4fa61faec85a1b3faec129ddfa4cea77" target="_top" xlink:title=" ">
<polygon fill="white" stroke="#666666" points="330,-116 186,-116 186,-86 330,-86 330,-116"/>
<text text-anchor="start" x="194" y="-104" font-family="Helvetica,sans-Serif" font-size="10.00">ActuatorSwitchViewModel</text>
<text text-anchor="middle" x="258" y="-93" font-family="Helvetica,sans-Serif" font-size="10.00">::setStatusTexts</text>
</a>
</g>
</g>
<!-- Node8&#45;&gt;Node9 -->
<g id="edge11_Node000008_Node000009" class="edge">
<title>Node8&#45;&gt;Node9</title>
<g id="a_edge11_Node000008_Node000009"><a xlink:title=" ">
<path fill="none" stroke="#63b8ff" d="M355.83,-92.84C347.21,-93.57 338.49,-94.3 330,-95.02"/>
<polygon fill="#63b8ff" stroke="#63b8ff" points="356.21,-96.32 365.88,-91.99 355.62,-89.35 356.21,-96.32"/>
</a>
</g>
</g>
<!-- Node8&#45;&gt;Node10 -->
<g id="edge14_Node000008_Node000010" class="edge">
<title>Node8&#45;&gt;Node10</title>
<g id="a_edge14_Node000008_Node000010"><a xlink:title=" ">
<path fill="none" stroke="#63b8ff" d="M389.7,-67.13C360.6,-55.53 323.82,-40.86 296.69,-30.04"/>
<polygon fill="#63b8ff" stroke="#63b8ff" points="388.67,-70.49 399.25,-70.94 391.26,-63.99 388.67,-70.49"/>
</a>
</g>
</g>
<!-- Node9&#45;&gt;Node5 -->
<g id="edge12_Node000009_Node000005" class="edge">
<title>Node9&#45;&gt;Node5</title>
<g id="a_edge12_Node000009_Node000005"><a xlink:title=" ">
<path fill="none" stroke="#63b8ff" d="M175.95,-101C166.63,-101 157.18,-101 148,-101"/>
<polygon fill="#63b8ff" stroke="#63b8ff" points="175.98,-104.5 185.98,-101 175.98,-97.5 175.98,-104.5"/>
</a>
</g>
</g>
<!-- Node9&#45;&gt;Node6 -->
<g id="edge13_Node000009_Node000006" class="edge">
<title>Node9&#45;&gt;Node6</title>
<g id="a_edge13_Node000009_Node000006"><a xlink:title=" ">
<path fill="none" stroke="#63b8ff" d="M202.11,-119.42C196.66,-121.29 191.22,-123.17 186,-125 157.05,-135.16 123.98,-147.25 101.72,-155.46"/>
<polygon fill="#63b8ff" stroke="#63b8ff" points="203.54,-122.62 211.88,-116.08 201.28,-116 203.54,-122.62"/>
</a>
</g>
</g>
<!-- Node11 -->
<g id="Node000011" class="node">
<title>Node11</title>
<g id="a_Node000011"><a xlink:href="classActuatorSwitchViewModel.html#a1a906ea170fdf4d96d75901251c1c2a1" target="_top" xlink:title=" ">
<polygon fill="white" stroke="#666666" points="150,-30 0,-30 0,0 150,0 150,-30"/>
<text text-anchor="start" x="8" y="-18" font-family="Helvetica,sans-Serif" font-size="10.00">ActuatorSwitchViewModel</text>
<text text-anchor="middle" x="75" y="-7" font-family="Helvetica,sans-Serif" font-size="10.00">::ActuatorSwitchViewModel</text>
</a>
</g>
</g>
<!-- Node10&#45;&gt;Node11 -->
<g id="edge15_Node000010_Node000011" class="edge">
<title>Node10&#45;&gt;Node11</title>
<g id="a_edge15_Node000010_Node000011"><a xlink:title=" ">
<path fill="none" stroke="#63b8ff" d="M175.95,-15C167.34,-15 158.61,-15 150.09,-15"/>
<polygon fill="#63b8ff" stroke="#63b8ff" points="175.98,-18.5 185.98,-15 175.98,-11.5 175.98,-18.5"/>
</a>
</g>
</g>
</g>
</svg>
