<?xml version="1.0" encoding="UTF-8" standalone="no"?>
<!DOCTYPE svg PUBLIC "-//W3C//DTD SVG 1.1//EN"
 "http://www.w3.org/Graphics/SVG/1.1/DTD/svg11.dtd">
<!-- Generated by graphviz version 2.43.0 (0)
 -->
<!-- Title: TankPressureSettingsIndicatorViewModel Pages: 1 -->
<svg width="234pt" height="456pt"
 viewBox="0.00 0.00 234.00 456.00" xmlns="http://www.w3.org/2000/svg" xmlns:xlink="http://www.w3.org/1999/xlink">
<g id="graph0" class="graph" transform="scale(1 1) rotate(0) translate(4 452)">
<title>TankPressureSettingsIndicatorViewModel</title>
<!-- Node1 -->
<g id="Node000001" class="node">
<title>Node1</title>
<g id="a_Node000001"><a xlink:title=" ">
<polygon fill="#999999" stroke="transparent" points="169,-236 0,-236 0,0 169,0 169,-236"/>
<text text-anchor="start" x="11" y="-224" font-family="Helvetica,sans-Serif" font-size="10.00">TankPressureSettingsIndicator</text>
<text text-anchor="start" x="57.5" y="-213" font-family="Helvetica,sans-Serif" font-size="10.00">ViewModel</text>
<text text-anchor="start" x="7" y="-198" font-family="Helvetica,sans-Serif" font-size="10.00">&#45;</text>
<text text-anchor="start" x="17.5" y="-198" font-family="Helvetica,sans-Serif" font-size="10.00">m_tankName</text>
<text text-anchor="start" x="7" y="-183" font-family="Helvetica,sans-Serif" font-size="10.00">&#45;</text>
<text text-anchor="start" x="17.5" y="-183" font-family="Helvetica,sans-Serif" font-size="10.00">m_tankPressureSettingValue</text>
<text text-anchor="start" x="7" y="-168" font-family="Helvetica,sans-Serif" font-size="10.00">&#45;</text>
<text text-anchor="start" x="17.5" y="-168" font-family="Helvetica,sans-Serif" font-size="10.00">m_valueUnit</text>
<text text-anchor="start" x="7" y="-153" font-family="Helvetica,sans-Serif" font-size="10.00">&#45;</text>
<text text-anchor="start" x="17.5" y="-153" font-family="Helvetica,sans-Serif" font-size="10.00">m_valueMention</text>
<text text-anchor="start" x="4.5" y="-138" font-family="Helvetica,sans-Serif" font-size="10.00">+</text>
<text text-anchor="start" x="17.5" y="-138" font-family="Helvetica,sans-Serif" font-size="10.00">TankPressureSettingsIndicator</text>
<text text-anchor="start" x="17.5" y="-127" font-family="Helvetica,sans-Serif" font-size="10.00">ViewModel()</text>
<text text-anchor="start" x="4.5" y="-112" font-family="Helvetica,sans-Serif" font-size="10.00">+</text>
<text text-anchor="start" x="17.5" y="-112" font-family="Helvetica,sans-Serif" font-size="10.00">setParameters()</text>
<text text-anchor="start" x="4.5" y="-97" font-family="Helvetica,sans-Serif" font-size="10.00">+</text>
<text text-anchor="start" x="17.5" y="-97" font-family="Helvetica,sans-Serif" font-size="10.00">setTankName()</text>
<text text-anchor="start" x="4.5" y="-82" font-family="Helvetica,sans-Serif" font-size="10.00">+</text>
<text text-anchor="start" x="17.5" y="-82" font-family="Helvetica,sans-Serif" font-size="10.00">getPressureSetting()</text>
<text text-anchor="start" x="4.5" y="-67" font-family="Helvetica,sans-Serif" font-size="10.00">+</text>
<text text-anchor="start" x="17.5" y="-67" font-family="Helvetica,sans-Serif" font-size="10.00">getTankName()</text>
<text text-anchor="start" x="4.5" y="-52" font-family="Helvetica,sans-Serif" font-size="10.00">+</text>
<text text-anchor="start" x="17.5" y="-52" font-family="Helvetica,sans-Serif" font-size="10.00">getValueUnit()</text>
<text text-anchor="start" x="4.5" y="-37" font-family="Helvetica,sans-Serif" font-size="10.00">+</text>
<text text-anchor="start" x="17.5" y="-37" font-family="Helvetica,sans-Serif" font-size="10.00">getValueMention()</text>
<text text-anchor="start" x="4.5" y="-22" font-family="Helvetica,sans-Serif" font-size="10.00">+</text>
<text text-anchor="start" x="17.5" y="-22" font-family="Helvetica,sans-Serif" font-size="10.00">initialise()</text>
<text text-anchor="start" x="4.5" y="-7" font-family="Helvetica,sans-Serif" font-size="10.00">+</text>
<text text-anchor="start" x="17.5" y="-7" font-family="Helvetica,sans-Serif" font-size="10.00">onPressureSettingChanged()</text>
<polygon fill="#666666" stroke="#666666" points="0.5,-208 0.5,-208 169.5,-208 169.5,-208 0.5,-208"/>
<polygon fill="#666666" stroke="#666666" points="0.5,-148 0.5,-148 15.5,-148 15.5,-148 0.5,-148"/>
<polygon fill="#666666" stroke="#666666" points="15.5,-148 15.5,-148 169.5,-148 169.5,-148 15.5,-148"/>
<polygon fill="none" stroke="#666666" points="0,0 0,-236 169,-236 169,0 0,0"/>
</a>
</g>
</g>
<!-- Node2 -->
<g id="Node000002" class="node">
<title>Node2</title>
<g id="a_Node000002"><a xlink:title=" ">
<polygon fill="white" stroke="transparent" points="105.5,-448 55.5,-448 55.5,-399 105.5,-399 105.5,-448"/>
<text text-anchor="start" x="60.5" y="-435.5" font-family="Helvetica,sans-Serif" font-size="10.00">QObject</text>
<text text-anchor="start" x="78.5" y="-420.5" font-family="Helvetica,sans-Serif" font-size="10.00"> </text>
<text text-anchor="start" x="78.5" y="-405.5" font-family="Helvetica,sans-Serif" font-size="10.00"> </text>
<polygon fill="#666666" stroke="#666666" points="55.5,-430.5 55.5,-430.5 105.5,-430.5 105.5,-430.5 55.5,-430.5"/>
<polygon fill="#666666" stroke="#666666" points="55.5,-415.5 55.5,-415.5 105.5,-415.5 105.5,-415.5 55.5,-415.5"/>
<polygon fill="none" stroke="#666666" points="55.5,-399 55.5,-448 105.5,-448 105.5,-399 55.5,-399"/>
</a>
</g>
</g>
<!-- Node2&#45;&gt;Node1 -->
<g id="edge1_Node000001_Node000002" class="edge">
<title>Node2&#45;&gt;Node1</title>
<g id="a_edge1_Node000001_Node000002"><a xlink:title=" ">
<path fill="none" stroke="#63b8ff" d="M80.95,-388.51C81.43,-351.68 82.23,-290.86 82.95,-236.31"/>
<polygon fill="none" stroke="#63b8ff" points="77.45,-388.64 80.81,-398.68 84.45,-388.73 77.45,-388.64"/>
</a>
</g>
</g>
<!-- Node3 -->
<g id="Node000003" class="node">
<title>Node3</title>
<g id="a_Node000003"><a xlink:href="classPressureTanksModel.html" target="_top" xlink:title=" ">
<polygon fill="white" stroke="transparent" points="226,-362 97,-362 97,-283 226,-283 226,-362"/>
<text text-anchor="start" x="112" y="-349.5" font-family="Helvetica,sans-Serif" font-size="10.00">PressureTanksModel</text>
<text text-anchor="start" x="104" y="-334.5" font-family="Helvetica,sans-Serif" font-size="10.00">&#45;</text>
<text text-anchor="start" x="114.5" y="-334.5" font-family="Helvetica,sans-Serif" font-size="10.00">m_PressureSettings</text>
<text text-anchor="start" x="101.5" y="-319.5" font-family="Helvetica,sans-Serif" font-size="10.00">+</text>
<text text-anchor="start" x="114.5" y="-319.5" font-family="Helvetica,sans-Serif" font-size="10.00">PressureTanksModel()</text>
<text text-anchor="start" x="101.5" y="-304.5" font-family="Helvetica,sans-Serif" font-size="10.00">+</text>
<text text-anchor="start" x="114.5" y="-304.5" font-family="Helvetica,sans-Serif" font-size="10.00">getPressureSetting()</text>
<text text-anchor="start" x="101.5" y="-289.5" font-family="Helvetica,sans-Serif" font-size="10.00">+</text>
<text text-anchor="start" x="114.5" y="-289.5" font-family="Helvetica,sans-Serif" font-size="10.00">setPressureSetting()</text>
<polygon fill="#666666" stroke="#666666" points="97.5,-344.5 97.5,-344.5 226.5,-344.5 226.5,-344.5 97.5,-344.5"/>
<polygon fill="#666666" stroke="#666666" points="97.5,-329.5 97.5,-329.5 112.5,-329.5 112.5,-329.5 97.5,-329.5"/>
<polygon fill="#666666" stroke="#666666" points="112.5,-329.5 112.5,-329.5 226.5,-329.5 226.5,-329.5 112.5,-329.5"/>
<polygon fill="none" stroke="#666666" points="97,-283 97,-362 226,-362 226,-283 97,-283"/>
</a>
</g>
</g>
<!-- Node2&#45;&gt;Node3 -->
<g id="edge3_Node000003_Node000002" class="edge">
<title>Node2&#45;&gt;Node3</title>
<g id="a_edge3_Node000003_Node000002"><a xlink:title=" ">
<path fill="none" stroke="#63b8ff" d="M106.27,-391C113.79,-381.81 122.09,-371.67 129.92,-362.09"/>
<polygon fill="none" stroke="#63b8ff" points="103.53,-388.83 99.9,-398.79 108.94,-393.26 103.53,-388.83"/>
</a>
</g>
</g>
<!-- Node3&#45;&gt;Node1 -->
<g id="edge2_Node000001_Node000003" class="edge">
<title>Node3&#45;&gt;Node1</title>
<g id="a_edge2_Node000001_Node000003"><a xlink:title=" ">
<path fill="none" stroke="#63b8ff" d="M146.84,-282.93C142.82,-272.37 138.23,-260.31 133.41,-247.63"/>
<polygon fill="none" stroke="#63b8ff" points="133.39,-247.56 127.51,-243.38 129.12,-236.35 134.99,-240.53 133.39,-247.56"/>
</a>
</g>
<text text-anchor="middle" x="165" y="-257" font-family="Helvetica,sans-Serif" font-size="10.00" fill="grey"> &#45;m_model</text>
</g>
</g>
</svg>
