<?xml version="1.0" encoding="UTF-8" standalone="no"?>
<!DOCTYPE svg PUBLIC "-//W3C//DTD SVG 1.1//EN"
 "http://www.w3.org/Graphics/SVG/1.1/DTD/svg11.dtd">
<!-- Generated by graphviz version 2.43.0 (0)
 -->
<!-- Title: RingBuffer&lt; MAX_FRAME_SIZE &gt; Pages: 1 -->
<svg width="194pt" height="445pt"
 viewBox="0.00 0.00 194.00 445.00" xmlns="http://www.w3.org/2000/svg" xmlns:xlink="http://www.w3.org/1999/xlink">
<g id="graph0" class="graph" transform="scale(1 1) rotate(0) translate(4 441)">
<title>RingBuffer&lt; MAX_FRAME_SIZE &gt;</title>
<!-- Node1 -->
<g id="Node000001" class="node">
<title>Node1</title>
<g id="a_Node000001"><a xlink:title=" ">
<polygon fill="#999999" stroke="transparent" points="161.5,-195 20.5,-195 20.5,0 161.5,0 161.5,-195"/>
<text text-anchor="start" x="29" y="-182.5" font-family="Helvetica,sans-Serif" font-size="10.00">RingBuffer&lt; MAX_FRAME</text>
<text text-anchor="start" x="72" y="-171.5" font-family="Helvetica,sans-Serif" font-size="10.00">_SIZE &gt;</text>
<text text-anchor="start" x="27.5" y="-156.5" font-family="Helvetica,sans-Serif" font-size="10.00">&#45;</text>
<text text-anchor="start" x="38" y="-156.5" font-family="Helvetica,sans-Serif" font-size="10.00">m_cyclesCount</text>
<text text-anchor="start" x="27.5" y="-141.5" font-family="Helvetica,sans-Serif" font-size="10.00">&#45;</text>
<text text-anchor="start" x="38" y="-141.5" font-family="Helvetica,sans-Serif" font-size="10.00">m_droppedFramesCount</text>
<text text-anchor="start" x="27.5" y="-126.5" font-family="Helvetica,sans-Serif" font-size="10.00">&#45;</text>
<text text-anchor="start" x="38" y="-126.5" font-family="Helvetica,sans-Serif" font-size="10.00">m_head</text>
<text text-anchor="start" x="27.5" y="-111.5" font-family="Helvetica,sans-Serif" font-size="10.00">&#45;</text>
<text text-anchor="start" x="38" y="-111.5" font-family="Helvetica,sans-Serif" font-size="10.00">m_tail</text>
<text text-anchor="start" x="27.5" y="-96.5" font-family="Helvetica,sans-Serif" font-size="10.00">&#45;</text>
<text text-anchor="start" x="38" y="-96.5" font-family="Helvetica,sans-Serif" font-size="10.00">BUFFER_SIZE</text>
<text text-anchor="start" x="25" y="-81.5" font-family="Helvetica,sans-Serif" font-size="10.00">+</text>
<text text-anchor="start" x="38" y="-81.5" font-family="Helvetica,sans-Serif" font-size="10.00">RingBuffer()</text>
<text text-anchor="start" x="25" y="-66.5" font-family="Helvetica,sans-Serif" font-size="10.00">+</text>
<text text-anchor="start" x="38" y="-66.5" font-family="Helvetica,sans-Serif" font-size="10.00">isEmpty()</text>
<text text-anchor="start" x="25" y="-51.5" font-family="Helvetica,sans-Serif" font-size="10.00">+</text>
<text text-anchor="start" x="38" y="-51.5" font-family="Helvetica,sans-Serif" font-size="10.00">push()</text>
<text text-anchor="start" x="25" y="-36.5" font-family="Helvetica,sans-Serif" font-size="10.00">+</text>
<text text-anchor="start" x="38" y="-36.5" font-family="Helvetica,sans-Serif" font-size="10.00">pull()</text>
<text text-anchor="start" x="25" y="-21.5" font-family="Helvetica,sans-Serif" font-size="10.00">+</text>
<text text-anchor="start" x="38" y="-21.5" font-family="Helvetica,sans-Serif" font-size="10.00">cyclesCount()</text>
<text text-anchor="start" x="25" y="-6.5" font-family="Helvetica,sans-Serif" font-size="10.00">+</text>
<text text-anchor="start" x="38" y="-6.5" font-family="Helvetica,sans-Serif" font-size="10.00">droppedFramesCount()</text>
<polygon fill="#666666" stroke="#666666" points="21,-166.5 21,-166.5 162,-166.5 162,-166.5 21,-166.5"/>
<polygon fill="#666666" stroke="#666666" points="21,-91.5 21,-91.5 36,-91.5 36,-91.5 21,-91.5"/>
<polygon fill="#666666" stroke="#666666" points="36,-91.5 36,-91.5 162,-91.5 162,-91.5 36,-91.5"/>
<polygon fill="none" stroke="#666666" points="20.5,0 20.5,-195 161.5,-195 161.5,0 20.5,0"/>
</a>
</g>
</g>
<!-- Node2 -->
<g id="Node000002" class="node">
<title>Node2</title>
<g id="a_Node000002"><a xlink:title=" ">
<polygon fill="white" stroke="transparent" points="100,-321 0,-321 0,-272 100,-272 100,-321"/>
<text text-anchor="start" x="5" y="-308.5" font-family="Helvetica,sans-Serif" font-size="10.00">MAX_FRAME_SIZE</text>
<text text-anchor="start" x="48" y="-293.5" font-family="Helvetica,sans-Serif" font-size="10.00"> </text>
<text text-anchor="start" x="48" y="-278.5" font-family="Helvetica,sans-Serif" font-size="10.00"> </text>
<polygon fill="#666666" stroke="#666666" points="0,-303.5 0,-303.5 100,-303.5 100,-303.5 0,-303.5"/>
<polygon fill="#666666" stroke="#666666" points="0,-288.5 0,-288.5 100,-288.5 100,-288.5 0,-288.5"/>
<polygon fill="none" stroke="#666666" points="0,-272 0,-321 100,-321 100,-272 0,-272"/>
</a>
</g>
</g>
<!-- Node2&#45;&gt;Node1 -->
<g id="edge1_Node000001_Node000002" class="edge">
<title>Node2&#45;&gt;Node1</title>
<g id="a_edge1_Node000001_Node000002"><a xlink:title=" ">
<path fill="none" stroke="#63b8ff" d="M54.95,-271.74C58.4,-255.12 63.3,-231.61 68.37,-207.25"/>
<polygon fill="none" stroke="#63b8ff" points="68.42,-207 65.72,-200.31 70.86,-195.25 73.56,-201.94 68.42,-207"/>
</a>
</g>
<text text-anchor="middle" x="86.5" y="-216" font-family="Helvetica,sans-Serif" font-size="10.00" fill="grey"> &#45;m_ring</text>
</g>
<!-- Node3 -->
<g id="Node000003" class="node">
<title>Node3</title>
<g id="a_Node000003"><a xlink:href="classLogger.html" target="_top" xlink:title=" ">
<polygon fill="white" stroke="transparent" points="186,-351 118,-351 118,-242 186,-242 186,-351"/>
<text text-anchor="start" x="135" y="-338.5" font-family="Helvetica,sans-Serif" font-size="10.00">Logger</text>
<text text-anchor="start" x="150" y="-323.5" font-family="Helvetica,sans-Serif" font-size="10.00"> </text>
<text text-anchor="start" x="122" y="-308.5" font-family="Helvetica,sans-Serif" font-size="10.00">+</text>
<text text-anchor="start" x="135" y="-308.5" font-family="Helvetica,sans-Serif" font-size="10.00">Logger()</text>
<text text-anchor="start" x="122" y="-293.5" font-family="Helvetica,sans-Serif" font-size="10.00">+</text>
<text text-anchor="start" x="135" y="-293.5" font-family="Helvetica,sans-Serif" font-size="10.00">log()</text>
<text text-anchor="start" x="122" y="-278.5" font-family="Helvetica,sans-Serif" font-size="10.00">+</text>
<text text-anchor="start" x="135" y="-278.5" font-family="Helvetica,sans-Serif" font-size="10.00">debug()</text>
<text text-anchor="start" x="122" y="-263.5" font-family="Helvetica,sans-Serif" font-size="10.00">+</text>
<text text-anchor="start" x="135" y="-263.5" font-family="Helvetica,sans-Serif" font-size="10.00">error()</text>
<text text-anchor="start" x="122" y="-248.5" font-family="Helvetica,sans-Serif" font-size="10.00">+</text>
<text text-anchor="start" x="135" y="-248.5" font-family="Helvetica,sans-Serif" font-size="10.00">warning()</text>
<polygon fill="#666666" stroke="#666666" points="118,-333.5 118,-333.5 186,-333.5 186,-333.5 118,-333.5"/>
<polygon fill="#666666" stroke="#666666" points="118,-318.5 118,-318.5 186,-318.5 186,-318.5 118,-318.5"/>
<polygon fill="none" stroke="#666666" points="118,-242 118,-351 186,-351 186,-242 118,-242"/>
</a>
</g>
</g>
<!-- Node3&#45;&gt;Node1 -->
<g id="edge2_Node000001_Node000003" class="edge">
<title>Node3&#45;&gt;Node1</title>
<g id="a_edge2_Node000001_Node000003"><a xlink:title=" ">
<path fill="none" stroke="#63b8ff" d="M135.41,-241.93C132.02,-230.96 128.33,-219.05 124.58,-206.94"/>
<polygon fill="none" stroke="#63b8ff" points="124.52,-206.75 118.92,-202.2 120.97,-195.29 126.57,-199.84 124.52,-206.75"/>
</a>
</g>
<text text-anchor="middle" x="154.5" y="-216" font-family="Helvetica,sans-Serif" font-size="10.00" fill="grey"> &#45;m_logger</text>
</g>
<!-- Node4 -->
<g id="Node000004" class="node">
<title>Node4</title>
<g id="a_Node000004"><a xlink:title=" ">
<polygon fill="white" stroke="transparent" points="177,-437 127,-437 127,-388 177,-388 177,-437"/>
<text text-anchor="start" x="132" y="-424.5" font-family="Helvetica,sans-Serif" font-size="10.00">QObject</text>
<text text-anchor="start" x="150" y="-409.5" font-family="Helvetica,sans-Serif" font-size="10.00"> </text>
<text text-anchor="start" x="150" y="-394.5" font-family="Helvetica,sans-Serif" font-size="10.00"> </text>
<polygon fill="#666666" stroke="#666666" points="127,-419.5 127,-419.5 177,-419.5 177,-419.5 127,-419.5"/>
<polygon fill="#666666" stroke="#666666" points="127,-404.5 127,-404.5 177,-404.5 177,-404.5 127,-404.5"/>
<polygon fill="none" stroke="#666666" points="127,-388 127,-437 177,-437 177,-388 127,-388"/>
</a>
</g>
</g>
<!-- Node4&#45;&gt;Node3 -->
<g id="edge3_Node000003_Node000004" class="edge">
<title>Node4&#45;&gt;Node3</title>
<g id="a_edge3_Node000003_Node000004"><a xlink:title=" ">
<path fill="none" stroke="#63b8ff" d="M152,-377.78C152,-369.42 152,-360.24 152,-351.18"/>
<polygon fill="none" stroke="#63b8ff" points="148.5,-377.88 152,-387.88 155.5,-377.88 148.5,-377.88"/>
</a>
</g>
</g>
</g>
</svg>
