<?xml version="1.0" encoding="UTF-8" standalone="no"?>
<!DOCTYPE svg PUBLIC "-//W3C//DTD SVG 1.1//EN"
 "http://www.w3.org/Graphics/SVG/1.1/DTD/svg11.dtd">
<!-- Generated by graphviz version 2.43.0 (0)
 -->
<!-- Title: UdpWorker::datagramRecieved Pages: 1 -->
<svg width="675pt" height="57pt"
 viewBox="0.00 0.00 675.00 56.50" xmlns="http://www.w3.org/2000/svg" xmlns:xlink="http://www.w3.org/1999/xlink">
<g id="graph0" class="graph" transform="scale(1 1) rotate(0) translate(4 52.5)">
<title>UdpWorker::datagramRecieved</title>
<!-- Node1 -->
<g id="Node000001" class="node">
<title>Node1</title>
<g id="a_Node000001"><a xlink:title="Emitted when a datagram has passed logging and decimation.">
<polygon fill="#999999" stroke="#666666" points="667,-21 499,-21 499,-2 667,-2 667,-21"/>
<text text-anchor="middle" x="583" y="-9" font-family="Helvetica,sans-Serif" font-size="10.00">UdpWorker::datagramRecieved</text>
</a>
</g>
</g>
<!-- Node2 -->
<g id="Node000002" class="node">
<title>Node2</title>
<g id="a_Node000002"><a xlink:href="classUdpWorker.html#a052037523508f888aff917428879c089" target="_top" xlink:title="Drain and process all datagrams pending on the socket.">
<polygon fill="white" stroke="#666666" points="463,-48.5 311,-48.5 311,-18.5 463,-18.5 463,-48.5"/>
<text text-anchor="start" x="319" y="-36.5" font-family="Helvetica,sans-Serif" font-size="10.00">UdpWorker::processPending</text>
<text text-anchor="middle" x="387" y="-25.5" font-family="Helvetica,sans-Serif" font-size="10.00">Datagrams</text>
</a>
</g>
</g>
<!-- Node1&#45;&gt;Node2 -->
<g id="edge1_Node000001_Node000002" class="edge">
<title>Node1&#45;&gt;Node2</title>
<g id="a_edge1_Node000001_Node000002"><a xlink:title=" ">
<path fill="none" stroke="#63b8ff" d="M488.85,-22.06C480.28,-23.04 471.67,-24.01 463.28,-24.96"/>
<polygon fill="#63b8ff" stroke="#63b8ff" points="489.34,-25.53 498.88,-20.93 488.55,-18.57 489.34,-25.53"/>
</a>
</g>
</g>
<!-- Node4 -->
<g id="Node000004" class="node">
<title>Node4</title>
<g id="a_Node000004"><a xlink:href="classUdpChannel.html#a1d69213eb88b5305686f1ef9ade76e04" target="_top" xlink:title=" ">
<polygon fill="white" stroke="#666666" points="141,-19 0,-19 0,0 141,0 141,-19"/>
<text text-anchor="middle" x="70.5" y="-7" font-family="Helvetica,sans-Serif" font-size="10.00">UdpChannel::UdpChannel</text>
</a>
</g>
</g>
<!-- Node1&#45;&gt;Node4 -->
<g id="edge4_Node000001_Node000004" class="edge">
<title>Node1&#45;&gt;Node4</title>
<g id="a_edge4_Node000001_Node000004"><a xlink:title=" ">
<path fill="none" stroke="#63b8ff" d="M488.62,-9.78C479.96,-9.67 471.32,-9.57 463,-9.5 350.35,-8.55 219.45,-8.83 141.16,-9.15"/>
<polygon fill="#63b8ff" stroke="#63b8ff" points="488.73,-13.28 498.78,-9.92 488.83,-6.28 488.73,-13.28"/>
</a>
</g>
</g>
<!-- Node3 -->
<g id="Node000003" class="node">
<title>Node3</title>
<g id="a_Node000003"><a xlink:href="classUdpWorker.html#ad4f92bc17d443237d045d35ec46f3bac" target="_top" xlink:title="Bind the socket and begin receiving datagrams.">
<polygon fill="white" stroke="#666666" points="275,-40 177,-40 177,-21 275,-21 275,-40"/>
<text text-anchor="middle" x="226" y="-28" font-family="Helvetica,sans-Serif" font-size="10.00">UdpWorker::start</text>
</a>
</g>
</g>
<!-- Node2&#45;&gt;Node3 -->
<g id="edge2_Node000002_Node000003" class="edge">
<title>Node2&#45;&gt;Node3</title>
<g id="a_edge2_Node000002_Node000003"><a xlink:title=" ">
<path fill="none" stroke="#63b8ff" d="M300.53,-31.89C291.88,-31.72 283.34,-31.56 275.29,-31.41"/>
<polygon fill="#63b8ff" stroke="#63b8ff" points="300.63,-35.39 310.69,-32.08 300.76,-28.39 300.63,-35.39"/>
</a>
</g>
</g>
<!-- Node3&#45;&gt;Node4 -->
<g id="edge3_Node000003_Node000004" class="edge">
<title>Node3&#45;&gt;Node4</title>
<g id="a_edge3_Node000003_Node000004"><a xlink:title=" ">
<path fill="none" stroke="#63b8ff" d="M166.8,-22.54C158.41,-21.39 149.71,-20.2 141.12,-19.02"/>
<polygon fill="#63b8ff" stroke="#63b8ff" points="166.47,-26.03 176.85,-23.91 167.42,-19.09 166.47,-26.03"/>
</a>
</g>
</g>
</g>
</svg>
