<?xml version="1.0" encoding="UTF-8" standalone="no"?>
<!DOCTYPE svg PUBLIC "-//W3C//DTD SVG 1.1//EN"
 "http://www.w3.org/Graphics/SVG/1.1/DTD/svg11.dtd">
<!-- Generated by graphviz version 2.43.0 (0)
 -->
<!-- Title: FileSystem Pages: 1 -->
<svg width="100pt" height="172pt"
 viewBox="0.00 0.00 100.00 172.00" xmlns="http://www.w3.org/2000/svg" xmlns:xlink="http://www.w3.org/1999/xlink">
<g id="graph0" class="graph" transform="scale(1 1) rotate(0) translate(4 168)">
<title>FileSystem</title>
<!-- Node1 -->
<g id="Node000001" class="node">
<title>Node1</title>
<g id="a_Node000001"><a xlink:title="File system allow the managment of files path used in the application.">
<polygon fill="#999999" stroke="transparent" points="92,-79 0,-79 0,0 92,0 92,-79"/>
<text text-anchor="start" x="18.5" y="-66.5" font-family="Helvetica,sans-Serif" font-size="10.00">FileSystem</text>
<text text-anchor="start" x="6.5" y="-51.5" font-family="Helvetica,sans-Serif" font-size="10.00">&#45;</text>
<text text-anchor="start" x="17" y="-51.5" font-family="Helvetica,sans-Serif" font-size="10.00">m_pathList</text>
<text text-anchor="start" x="4" y="-36.5" font-family="Helvetica,sans-Serif" font-size="10.00">+</text>
<text text-anchor="start" x="17" y="-36.5" font-family="Helvetica,sans-Serif" font-size="10.00">FileSystem()</text>
<text text-anchor="start" x="4" y="-21.5" font-family="Helvetica,sans-Serif" font-size="10.00">+</text>
<text text-anchor="start" x="17" y="-21.5" font-family="Helvetica,sans-Serif" font-size="10.00">getDirectory()</text>
<text text-anchor="start" x="6.5" y="-6.5" font-family="Helvetica,sans-Serif" font-size="10.00">&#45;</text>
<text text-anchor="start" x="17" y="-6.5" font-family="Helvetica,sans-Serif" font-size="10.00">addDirectory()</text>
<polygon fill="#666666" stroke="#666666" points="0,-61.5 0,-61.5 92,-61.5 92,-61.5 0,-61.5"/>
<polygon fill="#666666" stroke="#666666" points="0,-46.5 0,-46.5 15,-46.5 15,-46.5 0,-46.5"/>
<polygon fill="#666666" stroke="#666666" points="15,-46.5 15,-46.5 92,-46.5 92,-46.5 15,-46.5"/>
<polygon fill="none" stroke="#666666" points="0,0 0,-79 92,-79 92,0 0,0"/>
</a>
</g>
</g>
<!-- Node2 -->
<g id="Node000002" class="node">
<title>Node2</title>
<g id="a_Node000002"><a xlink:title=" ">
<polygon fill="white" stroke="transparent" points="71,-164 21,-164 21,-115 71,-115 71,-164"/>
<text text-anchor="start" x="26" y="-151.5" font-family="Helvetica,sans-Serif" font-size="10.00">QObject</text>
<text text-anchor="start" x="44" y="-136.5" font-family="Helvetica,sans-Serif" font-size="10.00"> </text>
<text text-anchor="start" x="44" y="-121.5" font-family="Helvetica,sans-Serif" font-size="10.00"> </text>
<polygon fill="#666666" stroke="#666666" points="21,-146.5 21,-146.5 71,-146.5 71,-146.5 21,-146.5"/>
<polygon fill="#666666" stroke="#666666" points="21,-131.5 21,-131.5 71,-131.5 71,-131.5 21,-131.5"/>
<polygon fill="none" stroke="#666666" points="21,-115 21,-164 71,-164 71,-115 21,-115"/>
</a>
</g>
</g>
<!-- Node2&#45;&gt;Node1 -->
<g id="edge1_Node000001_Node000002" class="edge">
<title>Node2&#45;&gt;Node1</title>
<g id="a_edge1_Node000001_Node000002"><a xlink:title=" ">
<path fill="none" stroke="#63b8ff" d="M46,-104.52C46,-96.38 46,-87.63 46,-79.29"/>
<polygon fill="none" stroke="#63b8ff" points="42.5,-104.78 46,-114.78 49.5,-104.78 42.5,-104.78"/>
</a>
</g>
</g>
</g>
</svg>
