<?xml version="1.0" encoding="UTF-8" standalone="no"?>
<!DOCTYPE svg PUBLIC "-//W3C//DTD SVG 1.1//EN"
 "http://www.w3.org/Graphics/SVG/1.1/DTD/svg11.dtd">
<!-- Generated by graphviz version 2.43.0 (0)
 -->
<!-- Title: Plot::onSelectedTimeRangeChanged Pages: 1 -->
<svg width="356pt" height="172pt"
 viewBox="0.00 0.00 356.00 171.50" xmlns="http://www.w3.org/2000/svg" xmlns:xlink="http://www.w3.org/1999/xlink">
<g id="graph0" class="graph" transform="scale(1 1) rotate(0) translate(4 167.5)">
<title>Plot::onSelectedTimeRangeChanged</title>
<!-- Node1 -->
<g id="Node000001" class="node">
<title>Node1</title>
<g id="a_Node000001"><a xlink:title=" ">
<polygon fill="#999999" stroke="#666666" points="151,-102 0,-102 0,-72 151,-72 151,-102"/>
<text text-anchor="start" x="8" y="-90" font-family="Helvetica,sans-Serif" font-size="10.00">Plot::onSelectedTimeRange</text>
<text text-anchor="middle" x="75.5" y="-79" font-family="Helvetica,sans-Serif" font-size="10.00">Changed</text>
</a>
</g>
</g>
<!-- Node2 -->
<g id="Node000002" class="node">
<title>Node2</title>
<g id="a_Node000002"><a xlink:href="classPlotViewModel.html#aa3ecb219bfb82a46bf07c5986a7cc8d5" target="_top" xlink:title=" ">
<polygon fill="white" stroke="#666666" points="345,-163.5 190,-163.5 190,-144.5 345,-144.5 345,-163.5"/>
<text text-anchor="middle" x="267.5" y="-151.5" font-family="Helvetica,sans-Serif" font-size="10.00">PlotViewModel::currentTime</text>
</a>
</g>
</g>
<!-- Node1&#45;&gt;Node2 -->
<g id="edge1_Node000001_Node000002" class="edge">
<title>Node1&#45;&gt;Node2</title>
<g id="a_edge1_Node000001_Node000002"><a xlink:title=" ">
<path fill="none" stroke="#63b8ff" d="M107.36,-102.15C129.22,-112.43 159.42,-125.79 187,-135 194.48,-137.5 202.45,-139.8 210.36,-141.89"/>
<polygon fill="#63b8ff" stroke="#63b8ff" points="209.74,-145.34 220.29,-144.4 211.46,-138.55 209.74,-145.34"/>
</a>
</g>
</g>
<!-- Node3 -->
<g id="Node000003" class="node">
<title>Node3</title>
<g id="a_Node000003"><a xlink:href="classPlotViewModel.html#aa5faa65e7134c4bbe7ada8cfbe2a270d" target="_top" xlink:title=" ">
<polygon fill="white" stroke="#666666" points="348,-126 187,-126 187,-96 348,-96 348,-126"/>
<text text-anchor="start" x="195" y="-114" font-family="Helvetica,sans-Serif" font-size="10.00">PlotViewModel::selectedTime</text>
<text text-anchor="middle" x="267.5" y="-103" font-family="Helvetica,sans-Serif" font-size="10.00">Range</text>
</a>
</g>
</g>
<!-- Node1&#45;&gt;Node3 -->
<g id="edge2_Node000001_Node000003" class="edge">
<title>Node1&#45;&gt;Node3</title>
<g id="a_edge2_Node000001_Node000003"><a xlink:title=" ">
<path fill="none" stroke="#63b8ff" d="M151.05,-96.42C159.49,-97.48 168.16,-98.58 176.77,-99.67"/>
<polygon fill="#63b8ff" stroke="#63b8ff" points="176.48,-103.16 186.84,-100.94 177.36,-96.21 176.48,-103.16"/>
</a>
</g>
</g>
<!-- Node4 -->
<g id="Node000004" class="node">
<title>Node4</title>
<g id="a_Node000004"><a xlink:href="classPlotViewModel.html#af89213d56f4226b640f08a7c3a5ae195" target="_top" xlink:title=" ">
<polygon fill="white" stroke="#666666" points="342,-78 193,-78 193,-48 342,-48 342,-78"/>
<text text-anchor="start" x="201" y="-66" font-family="Helvetica,sans-Serif" font-size="10.00">PlotViewModel::timeRange</text>
<text text-anchor="middle" x="267.5" y="-55" font-family="Helvetica,sans-Serif" font-size="10.00">Buttons</text>
</a>
</g>
</g>
<!-- Node1&#45;&gt;Node4 -->
<g id="edge3_Node000001_Node000004" class="edge">
<title>Node1&#45;&gt;Node4</title>
<g id="a_edge3_Node000001_Node000004"><a xlink:title=" ">
<path fill="none" stroke="#63b8ff" d="M151.05,-77.58C161.45,-76.27 172.19,-74.91 182.75,-73.58"/>
<polygon fill="#63b8ff" stroke="#63b8ff" points="183.31,-77.04 192.79,-72.31 182.43,-70.09 183.31,-77.04"/>
</a>
</g>
</g>
<!-- Node5 -->
<g id="Node000005" class="node">
<title>Node5</title>
<g id="a_Node000005"><a xlink:href="classPlotViewModel.html#a1cf1c30c7d5d9ba0635ebff8166194b2" target="_top" xlink:title=" ">
<polygon fill="white" stroke="#666666" points="342,-30 193,-30 193,0 342,0 342,-30"/>
<text text-anchor="start" x="201" y="-18" font-family="Helvetica,sans-Serif" font-size="10.00">PlotViewModel::timeRange</text>
<text text-anchor="middle" x="267.5" y="-7" font-family="Helvetica,sans-Serif" font-size="10.00">Selected</text>
</a>
</g>
</g>
<!-- Node1&#45;&gt;Node5 -->
<g id="edge4_Node000001_Node000005" class="edge">
<title>Node1&#45;&gt;Node5</title>
<g id="a_edge4_Node000001_Node000005"><a xlink:title=" ">
<path fill="none" stroke="#63b8ff" d="M108.49,-71.92C130.34,-61.92 160.1,-48.87 187,-39 192.46,-37 198.18,-35.03 203.93,-33.13"/>
<polygon fill="#63b8ff" stroke="#63b8ff" points="205.17,-36.41 213.61,-30.02 203.02,-29.75 205.17,-36.41"/>
</a>
</g>
</g>
</g>
</svg>
