<?xml version="1.0" encoding="UTF-8" standalone="no"?>
<!DOCTYPE svg PUBLIC "-//W3C//DTD SVG 1.1//EN"
 "http://www.w3.org/Graphics/SVG/1.1/DTD/svg11.dtd">
<!-- Generated by graphviz version 2.43.0 (0)
 -->
<!-- Title: PlotViewModel::currentTime Pages: 1 -->
<svg width="457pt" height="113pt"
 viewBox="0.00 0.00 457.00 112.50" xmlns="http://www.w3.org/2000/svg" xmlns:xlink="http://www.w3.org/1999/xlink">
<g id="graph0" class="graph" transform="scale(1 1) rotate(0) translate(4 108.5)">
<title>PlotViewModel::currentTime</title>
<!-- Node1 -->
<g id="Node000001" class="node">
<title>Node1</title>
<g id="a_Node000001"><a xlink:title=" ">
<polygon fill="#999999" stroke="#666666" points="449,-67.5 294,-67.5 294,-48.5 449,-48.5 449,-67.5"/>
<text text-anchor="middle" x="371.5" y="-55.5" font-family="Helvetica,sans-Serif" font-size="10.00">PlotViewModel::currentTime</text>
</a>
</g>
</g>
<!-- Node2 -->
<g id="Node000002" class="node">
<title>Node2</title>
<g id="a_Node000002"><a xlink:href="classPlot.html#a74f12fae74e90c87c72cab9f0d2da28d" target="_top" xlink:title=" ">
<polygon fill="white" stroke="#666666" points="258,-104.5 96,-104.5 96,-85.5 258,-85.5 258,-104.5"/>
<text text-anchor="middle" x="177" y="-92.5" font-family="Helvetica,sans-Serif" font-size="10.00">Plot::onCurvesValuesChanged</text>
</a>
</g>
</g>
<!-- Node1&#45;&gt;Node2 -->
<g id="edge1_Node000001_Node000002" class="edge">
<title>Node1&#45;&gt;Node2</title>
<g id="a_edge1_Node000001_Node000002"><a xlink:title=" ">
<path fill="none" stroke="#63b8ff" d="M310.94,-69.45C284.26,-74.58 253.15,-80.56 227.74,-85.44"/>
<polygon fill="#63b8ff" stroke="#63b8ff" points="311.77,-72.85 320.93,-67.53 310.45,-65.98 311.77,-72.85"/>
</a>
</g>
</g>
<!-- Node4 -->
<g id="Node000004" class="node">
<title>Node4</title>
<g id="a_Node000004"><a xlink:href="classPlot.html#a5372a35d6baaeea8bcbed9f52b85fd30" target="_top" xlink:title=" ">
<polygon fill="white" stroke="#666666" points="219.5,-67.5 134.5,-67.5 134.5,-48.5 219.5,-48.5 219.5,-67.5"/>
<text text-anchor="middle" x="177" y="-55.5" font-family="Helvetica,sans-Serif" font-size="10.00">Plot::onReplot</text>
</a>
</g>
</g>
<!-- Node1&#45;&gt;Node4 -->
<g id="edge3_Node000001_Node000004" class="edge">
<title>Node1&#45;&gt;Node4</title>
<g id="a_edge3_Node000001_Node000004"><a xlink:title=" ">
<path fill="none" stroke="#63b8ff" d="M283.67,-58C261.35,-58 238.34,-58 219.51,-58"/>
<polygon fill="#63b8ff" stroke="#63b8ff" points="283.87,-61.5 293.87,-58 283.87,-54.5 283.87,-61.5"/>
</a>
</g>
</g>
<!-- Node5 -->
<g id="Node000005" class="node">
<title>Node5</title>
<g id="a_Node000005"><a xlink:href="classPlot.html#ace35a9b43d763b8f6371d2770ade6a24" target="_top" xlink:title=" ">
<polygon fill="white" stroke="#666666" points="252.5,-30 101.5,-30 101.5,0 252.5,0 252.5,-30"/>
<text text-anchor="start" x="109.5" y="-18" font-family="Helvetica,sans-Serif" font-size="10.00">Plot::onSelectedTimeRange</text>
<text text-anchor="middle" x="177" y="-7" font-family="Helvetica,sans-Serif" font-size="10.00">Changed</text>
</a>
</g>
</g>
<!-- Node1&#45;&gt;Node5 -->
<g id="edge5_Node000001_Node000005" class="edge">
<title>Node1&#45;&gt;Node5</title>
<g id="a_edge5_Node000001_Node000005"><a xlink:title=" ">
<path fill="none" stroke="#63b8ff" d="M317.78,-46.22C295.37,-41.22 268.97,-35.32 245.18,-30.01"/>
<polygon fill="#63b8ff" stroke="#63b8ff" points="317.26,-49.69 327.78,-48.46 318.78,-42.86 317.26,-49.69"/>
</a>
</g>
</g>
<!-- Node3 -->
<g id="Node000003" class="node">
<title>Node3</title>
<g id="a_Node000003"><a xlink:href="classPlot.html#a5b4b38ebab6fc69bd007d591c2bc61e3" target="_top" xlink:title=" ">
<polygon fill="white" stroke="#666666" points="60,-67.5 0,-67.5 0,-48.5 60,-48.5 60,-67.5"/>
<text text-anchor="middle" x="30" y="-55.5" font-family="Helvetica,sans-Serif" font-size="10.00">Plot::Plot</text>
</a>
</g>
</g>
<!-- Node2&#45;&gt;Node3 -->
<g id="edge2_Node000002_Node000003" class="edge">
<title>Node2&#45;&gt;Node3</title>
<g id="a_edge2_Node000002_Node000003"><a xlink:title=" ">
<path fill="none" stroke="#63b8ff" d="M121.52,-83.23C112.96,-81.24 104.22,-79.12 96,-77 84.16,-73.94 71.21,-70.23 60.01,-66.91"/>
<polygon fill="#63b8ff" stroke="#63b8ff" points="120.92,-86.68 131.45,-85.5 122.48,-79.86 120.92,-86.68"/>
</a>
</g>
</g>
<!-- Node4&#45;&gt;Node3 -->
<g id="edge4_Node000004_Node000003" class="edge">
<title>Node4&#45;&gt;Node3</title>
<g id="a_edge4_Node000004_Node000003"><a xlink:title=" ">
<path fill="none" stroke="#63b8ff" d="M124.43,-58C102.84,-58 78.54,-58 60.13,-58"/>
<polygon fill="#63b8ff" stroke="#63b8ff" points="124.45,-61.5 134.45,-58 124.45,-54.5 124.45,-61.5"/>
</a>
</g>
</g>
<!-- Node5&#45;&gt;Node3 -->
<g id="edge6_Node000005_Node000003" class="edge">
<title>Node5&#45;&gt;Node3</title>
<g id="a_edge6_Node000005_Node000003"><a xlink:title=" ">
<path fill="none" stroke="#63b8ff" d="M115.45,-32.96C96.39,-38.61 76.2,-44.6 60.34,-49.3"/>
<polygon fill="#63b8ff" stroke="#63b8ff" points="116.69,-36.24 125.29,-30.04 114.7,-29.53 116.69,-36.24"/>
</a>
</g>
</g>
</g>
</svg>
