<?xml version="1.0" encoding="UTF-8" standalone="no"?>
<!DOCTYPE svg PUBLIC "-//W3C//DTD SVG 1.1//EN"
 "http://www.w3.org/Graphics/SVG/1.1/DTD/svg11.dtd">
<!-- Generated by graphviz version 2.43.0 (0)
 -->
<!-- Title: TxtParser::FileParsed Pages: 1 -->
<svg width="1195pt" height="151pt"
 viewBox="0.00 0.00 1195.00 151.00" xmlns="http://www.w3.org/2000/svg" xmlns:xlink="http://www.w3.org/1999/xlink">
<g id="graph0" class="graph" transform="scale(1 1) rotate(0) translate(4 147)">
<title>TxtParser::FileParsed</title>
<!-- Node1 -->
<g id="Node000001" class="node">
<title>Node1</title>
<g id="a_Node000001"><a xlink:title=" ">
<polygon fill="#999999" stroke="#666666" points="1187,-45.5 1069,-45.5 1069,-26.5 1187,-26.5 1187,-45.5"/>
<text text-anchor="middle" x="1128" y="-33.5" font-family="Helvetica,sans-Serif" font-size="10.00">TxtParser::FileParsed</text>
</a>
</g>
</g>
<!-- Node2 -->
<g id="Node000002" class="node">
<title>Node2</title>
<g id="a_Node000002"><a xlink:href="classTxtParser.html#afc98cc478d1afc156dfd8ead7db6a778" target="_top" xlink:title=" ">
<polygon fill="white" stroke="#666666" points="1019.5,-67.5 906.5,-67.5 906.5,-48.5 1019.5,-48.5 1019.5,-67.5"/>
<text text-anchor="middle" x="963" y="-55.5" font-family="Helvetica,sans-Serif" font-size="10.00">TxtParser::parseFile</text>
</a>
</g>
</g>
<!-- Node1&#45;&gt;Node2 -->
<g id="edge1_Node000001_Node000002" class="edge">
<title>Node1&#45;&gt;Node2</title>
<g id="a_edge1_Node000001_Node000002"><a xlink:title=" ">
<path fill="none" stroke="#63b8ff" d="M1058.35,-45.27C1045.4,-47.01 1032.01,-48.82 1019.53,-50.51"/>
<polygon fill="#63b8ff" stroke="#63b8ff" points="1059.17,-48.69 1068.61,-43.88 1058.24,-41.75 1059.17,-48.69"/>
</a>
</g>
</g>
<!-- Node9 -->
<g id="Node000009" class="node">
<title>Node9</title>
<g id="a_Node000009"><a xlink:href="classTestLauncherViewModel.html#a8383814253c17f638f473f833f79b9a9" target="_top" xlink:title=" ">
<polygon fill="white" stroke="#666666" points="1033,-30 893,-30 893,0 1033,0 1033,-30"/>
<text text-anchor="start" x="901" y="-18" font-family="Helvetica,sans-Serif" font-size="10.00">TestLauncherViewModel</text>
<text text-anchor="middle" x="963" y="-7" font-family="Helvetica,sans-Serif" font-size="10.00">::TestLauncherViewModel</text>
</a>
</g>
</g>
<!-- Node1&#45;&gt;Node9 -->
<g id="edge10_Node000001_Node000009" class="edge">
<title>Node1&#45;&gt;Node9</title>
<g id="a_edge10_Node000001_Node000009"><a xlink:title=" ">
<path fill="none" stroke="#63b8ff" d="M1058.49,-27.17C1050.09,-26.09 1041.51,-24.99 1033.1,-23.9"/>
<polygon fill="#63b8ff" stroke="#63b8ff" points="1058.25,-30.67 1068.61,-28.48 1059.14,-23.73 1058.25,-30.67"/>
</a>
</g>
</g>
<!-- Node3 -->
<g id="Node000003" class="node">
<title>Node3</title>
<g id="a_Node000003"><a xlink:href="classTestLauncherViewModel.html#a0cc7c1daba77cf492506de410489b17b" target="_top" xlink:title=" ">
<polygon fill="white" stroke="#666666" points="857,-73 723,-73 723,-43 857,-43 857,-73"/>
<text text-anchor="start" x="731" y="-61" font-family="Helvetica,sans-Serif" font-size="10.00">TestLauncherViewModel</text>
<text text-anchor="middle" x="790" y="-50" font-family="Helvetica,sans-Serif" font-size="10.00">::selectFile</text>
</a>
</g>
</g>
<!-- Node2&#45;&gt;Node3 -->
<g id="edge2_Node000002_Node000003" class="edge">
<title>Node2&#45;&gt;Node3</title>
<g id="a_edge2_Node000002_Node000003"><a xlink:title=" ">
<path fill="none" stroke="#63b8ff" d="M896.36,-58C883.55,-58 870.1,-58 857.27,-58"/>
<polygon fill="#63b8ff" stroke="#63b8ff" points="896.48,-61.5 906.48,-58 896.48,-54.5 896.48,-61.5"/>
</a>
</g>
</g>
<!-- Node4 -->
<g id="Node000004" class="node">
<title>Node4</title>
<g id="a_Node000004"><a xlink:href="classTestLauncherViewModel.html#af572568c52ec0654f1b4c9d799c29aa8" target="_top" xlink:title=" ">
<polygon fill="white" stroke="#666666" points="687,-95 553,-95 553,-65 687,-65 687,-95"/>
<text text-anchor="start" x="561" y="-83" font-family="Helvetica,sans-Serif" font-size="10.00">TestLauncherViewModel</text>
<text text-anchor="middle" x="620" y="-72" font-family="Helvetica,sans-Serif" font-size="10.00">::acquireFileList</text>
</a>
</g>
</g>
<!-- Node3&#45;&gt;Node4 -->
<g id="edge3_Node000003_Node000004" class="edge">
<title>Node3&#45;&gt;Node4</title>
<g id="a_edge3_Node000003_Node000004"><a xlink:title=" ">
<path fill="none" stroke="#63b8ff" d="M712.68,-67.99C704.17,-69.11 695.56,-70.24 687.19,-71.33"/>
<polygon fill="#63b8ff" stroke="#63b8ff" points="713.14,-71.46 722.6,-66.69 712.23,-64.52 713.14,-71.46"/>
</a>
</g>
</g>
<!-- Node7 -->
<g id="Node000007" class="node">
<title>Node7</title>
<g id="a_Node000007"><a xlink:href="classTestLauncher.html#a0b2015a489c9ef4b4258626629841e5a" target="_top" xlink:title=" ">
<polygon fill="white" stroke="#666666" points="150,-89.5 0,-89.5 0,-70.5 150,-70.5 150,-89.5"/>
<text text-anchor="middle" x="75" y="-77.5" font-family="Helvetica,sans-Serif" font-size="10.00">TestLauncher::TestLauncher</text>
</a>
</g>
</g>
<!-- Node3&#45;&gt;Node7 -->
<g id="edge9_Node000003_Node000007" class="edge">
<title>Node3&#45;&gt;Node7</title>
<g id="a_edge9_Node000003_Node000007"><a xlink:title=" ">
<path fill="none" stroke="#63b8ff" d="M712.64,-52.36C597.91,-45.1 374.43,-35.68 186,-56 160.54,-58.74 132.33,-64.97 110.86,-70.39"/>
<polygon fill="#63b8ff" stroke="#63b8ff" points="712.52,-55.86 722.72,-53.01 712.97,-48.87 712.52,-55.86"/>
</a>
</g>
</g>
<!-- Node5 -->
<g id="Node000005" class="node">
<title>Node5</title>
<g id="a_Node000005"><a xlink:href="classTestLauncherViewModel.html#a9a2442b128b5385a0d96df272a4bfa0d" target="_top" xlink:title=" ">
<polygon fill="white" stroke="#666666" points="517,-140 383,-140 383,-110 517,-110 517,-140"/>
<text text-anchor="start" x="391" y="-128" font-family="Helvetica,sans-Serif" font-size="10.00">TestLauncherViewModel</text>
<text text-anchor="middle" x="450" y="-117" font-family="Helvetica,sans-Serif" font-size="10.00">::changeDirPath</text>
</a>
</g>
</g>
<!-- Node4&#45;&gt;Node5 -->
<g id="edge4_Node000004_Node000005" class="edge">
<title>Node4&#45;&gt;Node5</title>
<g id="a_edge4_Node000004_Node000005"><a xlink:title=" ">
<path fill="none" stroke="#63b8ff" d="M552.82,-97.73C537.75,-101.76 521.87,-106.02 507.26,-109.93"/>
<polygon fill="#63b8ff" stroke="#63b8ff" points="553.84,-101.08 562.59,-95.11 552.03,-94.32 553.84,-101.08"/>
</a>
</g>
</g>
<!-- Node8 -->
<g id="Node000008" class="node">
<title>Node8</title>
<g id="a_Node000008"><a xlink:href="classTestLauncherViewModel.html#ad1f588393cbe394fada11c124456f88b" target="_top" xlink:title=" ">
<polygon fill="white" stroke="#666666" points="333.5,-95 199.5,-95 199.5,-65 333.5,-65 333.5,-95"/>
<text text-anchor="start" x="207.5" y="-83" font-family="Helvetica,sans-Serif" font-size="10.00">TestLauncherViewModel</text>
<text text-anchor="middle" x="266.5" y="-72" font-family="Helvetica,sans-Serif" font-size="10.00">::initialise</text>
</a>
</g>
</g>
<!-- Node4&#45;&gt;Node8 -->
<g id="edge7_Node000004_Node000008" class="edge">
<title>Node4&#45;&gt;Node8</title>
<g id="a_edge7_Node000004_Node000008"><a xlink:title=" ">
<path fill="none" stroke="#63b8ff" d="M542.71,-80C480.34,-80 393.05,-80 333.62,-80"/>
<polygon fill="#63b8ff" stroke="#63b8ff" points="542.89,-83.5 552.89,-80 542.89,-76.5 542.89,-83.5"/>
</a>
</g>
</g>
<!-- Node6 -->
<g id="Node000006" class="node">
<title>Node6</title>
<g id="a_Node000006"><a xlink:href="classTestLauncher.html#ab4639e9ff0485292851fe88f9abff569" target="_top" xlink:title=" ">
<polygon fill="white" stroke="#666666" points="347,-143 186,-143 186,-113 347,-113 347,-143"/>
<text text-anchor="start" x="194" y="-131" font-family="Helvetica,sans-Serif" font-size="10.00">TestLauncher::showFileDialog</text>
<text text-anchor="middle" x="266.5" y="-120" font-family="Helvetica,sans-Serif" font-size="10.00">Window</text>
</a>
</g>
</g>
<!-- Node5&#45;&gt;Node6 -->
<g id="edge5_Node000005_Node000006" class="edge">
<title>Node5&#45;&gt;Node6</title>
<g id="a_edge5_Node000005_Node000006"><a xlink:title=" ">
<path fill="none" stroke="#63b8ff" d="M372.73,-126.26C364.25,-126.4 355.6,-126.54 347.08,-126.68"/>
<polygon fill="#63b8ff" stroke="#63b8ff" points="373.02,-129.76 382.96,-126.09 372.9,-122.76 373.02,-129.76"/>
</a>
</g>
</g>
<!-- Node6&#45;&gt;Node7 -->
<g id="edge6_Node000006_Node000007" class="edge">
<title>Node6&#45;&gt;Node7</title>
<g id="a_edge6_Node000006_Node000007"><a xlink:title=" ">
<path fill="none" stroke="#63b8ff" d="M196.34,-110.48C168.45,-103.42 137.35,-95.54 113.76,-89.56"/>
<polygon fill="#63b8ff" stroke="#63b8ff" points="195.51,-113.88 206.06,-112.94 197.23,-107.1 195.51,-113.88"/>
</a>
</g>
</g>
<!-- Node8&#45;&gt;Node7 -->
<g id="edge8_Node000008_Node000007" class="edge">
<title>Node8&#45;&gt;Node7</title>
<g id="a_edge8_Node000008_Node000007"><a xlink:title=" ">
<path fill="none" stroke="#63b8ff" d="M189.28,-80C176.39,-80 163.03,-80 150.2,-80"/>
<polygon fill="#63b8ff" stroke="#63b8ff" points="189.49,-83.5 199.49,-80 189.49,-76.5 189.49,-83.5"/>
</a>
</g>
</g>
</g>
</svg>
