<?xml version="1.0" encoding="UTF-8" standalone="no"?>
<!DOCTYPE svg PUBLIC "-//W3C//DTD SVG 1.1//EN"
 "http://www.w3.org/Graphics/SVG/1.1/DTD/svg11.dtd">
<!-- Generated by graphviz version 2.43.0 (0)
 -->
<!-- Title: PlotViewModel::replot Pages: 1 -->
<svg width="542pt" height="64pt"
 viewBox="0.00 0.00 542.00 64.00" xmlns="http://www.w3.org/2000/svg" xmlns:xlink="http://www.w3.org/1999/xlink">
<g id="graph0" class="graph" transform="scale(1 1) rotate(0) translate(4 60)">
<title>PlotViewModel::replot</title>
<!-- Node1 -->
<g id="Node000001" class="node">
<title>Node1</title>
<g id="a_Node000001"><a xlink:title=" ">
<polygon fill="#999999" stroke="#666666" points="534,-37 410,-37 410,-18 534,-18 534,-37"/>
<text text-anchor="middle" x="472" y="-25" font-family="Helvetica,sans-Serif" font-size="10.00">PlotViewModel::replot</text>
</a>
</g>
</g>
<!-- Node2 -->
<g id="Node000002" class="node">
<title>Node2</title>
<g id="a_Node000002"><a xlink:href="classPlotViewModel.html#a62f58f43a0e9361771712694affd307b" target="_top" xlink:title=" ">
<polygon fill="white" stroke="#666666" points="374,-56 204,-56 204,-37 374,-37 374,-56"/>
<text text-anchor="middle" x="289" y="-44" font-family="Helvetica,sans-Serif" font-size="10.00">PlotViewModel::onTimerTimout</text>
</a>
</g>
</g>
<!-- Node1&#45;&gt;Node2 -->
<g id="edge1_Node000001_Node000002" class="edge">
<title>Node1&#45;&gt;Node2</title>
<g id="a_edge1_Node000001_Node000002"><a xlink:title=" ">
<path fill="none" stroke="#63b8ff" d="M399.85,-34.97C391.44,-35.85 382.79,-36.76 374.22,-37.66"/>
<polygon fill="#63b8ff" stroke="#63b8ff" points="400.39,-38.43 409.97,-33.91 399.66,-31.47 400.39,-38.43"/>
</a>
</g>
</g>
<!-- Node4 -->
<g id="Node000004" class="node">
<title>Node4</title>
<g id="a_Node000004"><a xlink:href="classPlot.html#a5b4b38ebab6fc69bd007d591c2bc61e3" target="_top" xlink:title=" ">
<polygon fill="white" stroke="#666666" points="319,-19 259,-19 259,0 319,0 319,-19"/>
<text text-anchor="middle" x="289" y="-7" font-family="Helvetica,sans-Serif" font-size="10.00">Plot::Plot</text>
</a>
</g>
</g>
<!-- Node1&#45;&gt;Node4 -->
<g id="edge3_Node000001_Node000004" class="edge">
<title>Node1&#45;&gt;Node4</title>
<g id="a_edge3_Node000001_Node000004"><a xlink:title=" ">
<path fill="none" stroke="#63b8ff" d="M399.78,-20.42C371.73,-17.63 341.09,-14.58 319.33,-12.42"/>
<polygon fill="#63b8ff" stroke="#63b8ff" points="399.68,-23.92 409.97,-21.43 400.37,-16.96 399.68,-23.92"/>
</a>
</g>
</g>
<!-- Node3 -->
<g id="Node000003" class="node">
<title>Node3</title>
<g id="a_Node000003"><a xlink:href="classPlotViewModel.html#a0e04a39ca08de4c3687003283f90d6f2" target="_top" xlink:title=" ">
<polygon fill="white" stroke="#666666" points="168,-56 0,-56 0,-37 168,-37 168,-56"/>
<text text-anchor="middle" x="84" y="-44" font-family="Helvetica,sans-Serif" font-size="10.00">PlotViewModel::PlotViewModel</text>
</a>
</g>
</g>
<!-- Node2&#45;&gt;Node3 -->
<g id="edge2_Node000002_Node000003" class="edge">
<title>Node2&#45;&gt;Node3</title>
<g id="a_edge2_Node000002_Node000003"><a xlink:title=" ">
<path fill="none" stroke="#63b8ff" d="M193.97,-46.5C185.4,-46.5 176.77,-46.5 168.32,-46.5"/>
<polygon fill="#63b8ff" stroke="#63b8ff" points="193.97,-50 203.97,-46.5 193.97,-43 193.97,-50"/>
</a>
</g>
</g>
</g>
</svg>
