<?xml version="1.0" encoding="UTF-8" standalone="no"?>
<!DOCTYPE svg PUBLIC "-//W3C//DTD SVG 1.1//EN"
 "http://www.w3.org/Graphics/SVG/1.1/DTD/svg11.dtd">
<!-- Generated by graphviz version 2.43.0 (0)
 -->
<!-- Title: ExportMenu::ExportMenu Pages: 1 -->
<!--zoomable 278 -->

<svg id="main" version="1.1" xmlns="http://www.w3.org/2000/svg" xmlns:xlink="http://www.w3.org/1999/xlink" xml:space="preserve" onload="init(evt)">
<style type="text/css"><![CDATA[
.node, .edge {opacity: 0.7;}
.node.selected, .edge.selected {opacity: 1;}
.edge:hover path { stroke: red; }
.edge:hover polygon { stroke: red; fill: red; }
]]></style>

<defs>
  <circle id="rim" cx="0" cy="0" r="7"/>
  <circle id="rim2" cx="0" cy="0" r="3.5"/>
  <g id="zoomPlus">
    <use xlink:href="#rim" fill="#404040"><set attributeName="fill" to="#808080" begin="zoomplus.mouseover" end="zoomplus.mouseout"/></use>
    <path d="M-4,0h8M0,-4v8" fill="none" stroke="white" stroke-width="1.5" pointer-events="none"/>
  </g>
  <g id="zoomMin">
    <use xlink:href="#rim" fill="#404040"><set attributeName="fill" to="#808080" begin="zoomminus.mouseover" end="zoomminus.mouseout"/></use>
    <path d="M-4,0h8" fill="none" stroke="white" stroke-width="1.5" pointer-events="none"/>
  </g>
  <g id="arrowUp" transform="translate(30 24)">
    <use xlink:href="#rim"/>
    <path pointer-events="none" fill="none" stroke="white" stroke-width="1.5" d="M0,-3.0v7 M-2.5,-0.5L0,-3.0L2.5,-0.5"/>
  </g>
  <g id="arrowRight" transform="rotate(90) translate(36 -43)">
    <use xlink:href="#rim"/>
    <path pointer-events="none" fill="none" stroke="white" stroke-width="1.5" d="M0,-3.0v7 M-2.5,-0.5L0,-3.0L2.5,-0.5"/>
  </g>
  <g id="arrowDown" transform="rotate(180) translate(-30 -48)">
    <use xlink:href="#rim"/>
    <path pointer-events="none" fill="none" stroke="white" stroke-width="1.5" d="M0,-3.0v7 M-2.5,-0.5L0,-3.0L2.5,-0.5"/>
  </g>
  <g id="arrowLeft" transform="rotate(270) translate(-36 17)">
    <use xlink:href="#rim"/>
    <path pointer-events="none" fill="none" stroke="white" stroke-width="1.5" d="M0,-3.0v7 M-2.5,-0.5L0,-3.0L2.5,-0.5"/>
  </g>
  <g id="resetDef">
    <use xlink:href="#rim2" fill="#404040"><set attributeName="fill" to="#808080" begin="reset.mouseover" end="reset.mouseout"/></use>
  </g>
</defs>
<script type="application/ecmascript">
var viewWidth = 1540;
var viewHeight = 278;
var sectionId = 'dynsection-2';
</script>
<script type="application/ecmascript" xlink:href="svg.min.js"/>
<svg id="graph" class="graph">
<g id="viewport">
<title>ExportMenu::ExportMenu</title>
<!-- Node1 -->
<g id="Node000001" class="node">
<title>Node1</title>
<g id="a_Node000001"><a xlink:title=" ">
<polygon fill="#999999" stroke="#666666" points="140,-75.5 0,-75.5 0,-56.5 140,-56.5 140,-75.5"/>
<text text-anchor="middle" x="70" y="-63.5" font-family="Helvetica,sans-Serif" font-size="10.00">ExportMenu::ExportMenu</text>
</a>
</g>
</g>
<!-- Node2 -->
<g id="Node000002" class="node">
<title>Node2</title>
<g id="a_Node000002"><a xlink:href="classExportMenu.html#a8c000516d7139497af90f9b173ca0609" target="_top" xlink:title=" ">
<polygon fill="white" stroke="#666666" points="339.5,-148 197.5,-148 197.5,-118 339.5,-118 339.5,-148"/>
<text text-anchor="start" x="205.5" y="-136" font-family="Helvetica,sans-Serif" font-size="10.00">ExportMenu::onFileDialog</text>
<text text-anchor="middle" x="268.5" y="-125" font-family="Helvetica,sans-Serif" font-size="10.00">WindowRequested</text>
</a>
</g>
</g>
<!-- Node1&#45;&gt;Node2 -->
<g id="edge1_Node000001_Node000002" class="edge">
<title>Node1&#45;&gt;Node2</title>
<g id="a_edge1_Node000001_Node000002"><a xlink:title=" ">
<path fill="none" stroke="#63b8ff" d="M99.15,-75.6C128.96,-85.76 176.74,-102.05 213.79,-114.69"/>
<polygon fill="#63b8ff" stroke="#63b8ff" points="212.85,-118.06 223.44,-117.98 215.11,-111.44 212.85,-118.06"/>
</a>
</g>
</g>
<!-- Node19 -->
<g id="Node000019" class="node">
<title>Node19</title>
<g id="a_Node000019"><a xlink:href="classExportMenu.html#a1829a47dc07068cc9eb6067ca63eb97a" target="_top" xlink:title=" ">
<polygon fill="white" stroke="#666666" points="361,-75.5 176,-75.5 176,-56.5 361,-56.5 361,-75.5"/>
<text text-anchor="middle" x="268.5" y="-63.5" font-family="Helvetica,sans-Serif" font-size="10.00">ExportMenu::onMenuAboutToShow</text>
</a>
</g>
</g>
<!-- Node1&#45;&gt;Node19 -->
<g id="edge22_Node000001_Node000019" class="edge">
<title>Node1&#45;&gt;Node19</title>
<g id="a_edge22_Node000001_Node000019"><a xlink:title=" ">
<path fill="none" stroke="#63b8ff" d="M140,-66C148.35,-66 157,-66 165.7,-66"/>
<polygon fill="#63b8ff" stroke="#63b8ff" points="165.9,-69.5 175.9,-66 165.9,-62.5 165.9,-69.5"/>
</a>
</g>
</g>
<!-- Node22 -->
<g id="Node000022" class="node">
<title>Node22</title>
<g id="a_Node000022"><a xlink:href="classExportMenuViewModel.html#aa2125dbbb4de01624b055d7a2e0194ae" target="_top" xlink:title=" ">
<polygon fill="white" stroke="#666666" points="882,-30 735,-30 735,0 882,0 882,-30"/>
<text text-anchor="start" x="743" y="-18" font-family="Helvetica,sans-Serif" font-size="10.00">ExportMenuViewModel</text>
<text text-anchor="middle" x="808.5" y="-7" font-family="Helvetica,sans-Serif" font-size="10.00">::requestFileDialogWindow</text>
</a>
</g>
</g>
<!-- Node1&#45;&gt;Node22 -->
<g id="edge29_Node000001_Node000022" class="edge">
<title>Node1&#45;&gt;Node22</title>
<g id="a_edge29_Node000001_Node000022"><a xlink:title=" ">
<path fill="none" stroke="#63b8ff" d="M118.42,-56.5C136.4,-53.14 157.09,-49.56 176,-47 406.85,-15.71 466.06,-8.78 699,-12 707.33,-12.12 716.02,-12.28 724.69,-12.47"/>
<polygon fill="#63b8ff" stroke="#63b8ff" points="724.76,-15.98 734.84,-12.71 724.93,-8.98 724.76,-15.98"/>
</a>
</g>
</g>
<!-- Node3 -->
<g id="Node000003" class="node">
<title>Node3</title>
<g id="a_Node000003"><a xlink:href="classExportMenuViewModel.html#a3384a193ce5445b24d08bb6b6fed94fb" target="_top" xlink:title=" ">
<polygon fill="white" stroke="#666666" points="526,-160 397,-160 397,-130 526,-130 526,-160"/>
<text text-anchor="start" x="405" y="-148" font-family="Helvetica,sans-Serif" font-size="10.00">ExportMenuViewModel</text>
<text text-anchor="middle" x="461.5" y="-137" font-family="Helvetica,sans-Serif" font-size="10.00">::selectPath</text>
</a>
</g>
</g>
<!-- Node2&#45;&gt;Node3 -->
<g id="edge2_Node000002_Node000003" class="edge">
<title>Node2&#45;&gt;Node3</title>
<g id="a_edge2_Node000002_Node000003"><a xlink:title=" ">
<path fill="none" stroke="#63b8ff" d="M339.54,-137.4C354.91,-138.37 371.23,-139.39 386.74,-140.37"/>
<polygon fill="#63b8ff" stroke="#63b8ff" points="386.6,-143.86 396.8,-141 387.04,-136.88 386.6,-143.86"/>
</a>
</g>
</g>
<!-- Node4 -->
<g id="Node000004" class="node">
<title>Node4</title>
<g id="a_Node000004"><a xlink:href="classFileSystem.html#a629654905eeeb0ecbd65586c640d0158" target="_top" xlink:title="Allow to get the path to the path to a directory.">
<polygon fill="white" stroke="#666666" points="699,-136.5 562,-136.5 562,-117.5 699,-117.5 699,-136.5"/>
<text text-anchor="middle" x="630.5" y="-124.5" font-family="Helvetica,sans-Serif" font-size="10.00">FileSystem::getDirectory</text>
</a>
</g>
</g>
<!-- Node3&#45;&gt;Node4 -->
<g id="edge3_Node000003_Node000004" class="edge">
<title>Node3&#45;&gt;Node4</title>
<g id="a_edge3_Node000003_Node000004"><a xlink:title=" ">
<path fill="none" stroke="#63b8ff" d="M526.11,-138.14C534.53,-137.24 543.23,-136.3 551.84,-135.37"/>
<polygon fill="#63b8ff" stroke="#63b8ff" points="552.33,-138.84 561.9,-134.29 551.58,-131.88 552.33,-138.84"/>
</a>
</g>
</g>
<!-- Node5 -->
<g id="Node000005" class="node">
<title>Node5</title>
<g id="a_Node000005"><a xlink:href="classCSVLogger.html#aeb2a3cbfb18c9e190ee9558b45c2ab63" target="_top" xlink:title=" ">
<polygon fill="white" stroke="#666666" points="684,-173.5 577,-173.5 577,-154.5 684,-154.5 684,-173.5"/>
<text text-anchor="middle" x="630.5" y="-161.5" font-family="Helvetica,sans-Serif" font-size="10.00">CSVLogger::logFile</text>
</a>
</g>
</g>
<!-- Node3&#45;&gt;Node5 -->
<g id="edge4_Node000003_Node000005" class="edge">
<title>Node3&#45;&gt;Node5</title>
<g id="a_edge4_Node000003_Node000005"><a xlink:title=" ">
<path fill="none" stroke="#63b8ff" d="M526.11,-152.24C539.48,-153.76 553.57,-155.36 566.9,-156.88"/>
<polygon fill="#63b8ff" stroke="#63b8ff" points="566.59,-160.37 576.92,-158.02 567.38,-153.41 566.59,-160.37"/>
</a>
</g>
</g>
<!-- Node6 -->
<g id="Node000006" class="node">
<title>Node6</title>
<g id="a_Node000006"><a xlink:href="classProtocolCodec.html#ab45b52d99e2ec983883aa25c8ba6f42e" target="_top" xlink:title=" ">
<polygon fill="white" stroke="#666666" points="872.5,-191.5 744.5,-191.5 744.5,-172.5 872.5,-172.5 872.5,-191.5"/>
<text text-anchor="middle" x="808.5" y="-179.5" font-family="Helvetica,sans-Serif" font-size="10.00">ProtocolCodec::decode</text>
</a>
</g>
</g>
<!-- Node5&#45;&gt;Node6 -->
<g id="edge5_Node000005_Node000006" class="edge">
<title>Node5&#45;&gt;Node6</title>
<g id="a_edge5_Node000005_Node000006"><a xlink:title=" ">
<path fill="none" stroke="#63b8ff" d="M684.31,-169.4C699.99,-171 717.45,-172.79 734.19,-174.5"/>
<polygon fill="#63b8ff" stroke="#63b8ff" points="734.19,-178.02 744.49,-175.56 734.9,-171.06 734.19,-178.02"/>
</a>
</g>
</g>
<!-- Node8 -->
<g id="Node000008" class="node">
<title>Node8</title>
<g id="a_Node000008"><a xlink:href="classUdpChannel.html#aa8a4da515eb9941d6f26f6536b1243b4" target="_top" xlink:title="Returns whether the UDP channel is currently active.">
<polygon fill="white" stroke="#666666" points="868,-154.5 749,-154.5 749,-135.5 868,-135.5 868,-154.5"/>
<text text-anchor="middle" x="808.5" y="-142.5" font-family="Helvetica,sans-Serif" font-size="10.00">UdpChannel::running</text>
</a>
</g>
</g>
<!-- Node5&#45;&gt;Node8 -->
<g id="edge7_Node000005_Node000008" class="edge">
<title>Node5&#45;&gt;Node8</title>
<g id="a_edge7_Node000005_Node000008"><a xlink:title=" ">
<path fill="none" stroke="#63b8ff" d="M684.31,-158.3C701.48,-156.45 720.79,-154.36 738.94,-152.4"/>
<polygon fill="#63b8ff" stroke="#63b8ff" points="739.32,-155.88 748.88,-151.33 738.57,-148.92 739.32,-155.88"/>
</a>
</g>
</g>
<!-- Node9 -->
<g id="Node000009" class="node">
<title>Node9</title>
<g id="a_Node000009"><a xlink:href="classUdpChannel.html#a0ed1f8d1f6bab17f35b54db9f31ecc05" target="_top" xlink:title="Start the UDP channel and its subsystems.">
<polygon fill="white" stroke="#666666" points="882,-117.5 735,-117.5 735,-98.5 882,-98.5 882,-117.5"/>
<text text-anchor="middle" x="808.5" y="-105.5" font-family="Helvetica,sans-Serif" font-size="10.00">UdpChannel::startEndpoint</text>
</a>
</g>
</g>
<!-- Node5&#45;&gt;Node9 -->
<g id="edge8_Node000005_Node000009" class="edge">
<title>Node5&#45;&gt;Node9</title>
<g id="a_edge8_Node000005_Node000009"><a xlink:title=" ">
<path fill="none" stroke="#63b8ff" d="M670.87,-154.43C680.22,-151.74 690.07,-148.57 699,-145 715.8,-138.29 718.1,-132.45 735,-126 740.43,-123.93 746.19,-122.03 751.98,-120.31"/>
<polygon fill="#63b8ff" stroke="#63b8ff" points="753.05,-123.64 761.73,-117.57 751.16,-116.9 753.05,-123.64"/>
</a>
</g>
</g>
<!-- Node16 -->
<g id="Node000016" class="node">
<title>Node16</title>
<g id="a_Node000016"><a xlink:href="classUdpChannel.html#a818443eac8b5aa21093fe3a1f39492a4" target="_top" xlink:title="Stop the UDP channel and its subsystems.">
<polygon fill="white" stroke="#666666" points="881.5,-231.5 735.5,-231.5 735.5,-212.5 881.5,-212.5 881.5,-231.5"/>
<text text-anchor="middle" x="808.5" y="-219.5" font-family="Helvetica,sans-Serif" font-size="10.00">UdpChannel::stopEndpoint</text>
</a>
</g>
</g>
<!-- Node5&#45;&gt;Node16 -->
<g id="edge18_Node000005_Node000016" class="edge">
<title>Node5&#45;&gt;Node16</title>
<g id="a_edge18_Node000005_Node000016"><a xlink:title=" ">
<path fill="none" stroke="#63b8ff" d="M656.87,-173.56C677.73,-181.3 708.13,-192.31 735,-201 744.16,-203.96 754.04,-206.95 763.46,-209.71"/>
<polygon fill="#63b8ff" stroke="#63b8ff" points="762.49,-213.08 773.07,-212.49 764.44,-206.35 762.49,-213.08"/>
</a>
</g>
</g>
<!-- Node7 -->
<g id="Node000007" class="node">
<title>Node7</title>
<g id="a_Node000007"><a xlink:href="classTestBenchStatesList.html#ac8cae632bf7e555a42e7244fc796d4fb" target="_top" xlink:title=" ">
<polygon fill="white" stroke="#666666" points="1054,-194 940,-194 940,-164 1054,-164 1054,-194"/>
<text text-anchor="start" x="948" y="-182" font-family="Helvetica,sans-Serif" font-size="10.00">TestBenchStatesList</text>
<text text-anchor="middle" x="997" y="-171" font-family="Helvetica,sans-Serif" font-size="10.00">::append</text>
</a>
</g>
</g>
<!-- Node6&#45;&gt;Node7 -->
<g id="edge6_Node000006_Node000007" class="edge">
<title>Node6&#45;&gt;Node7</title>
<g id="a_edge6_Node000006_Node000007"><a xlink:title=" ">
<path fill="none" stroke="#63b8ff" d="M872.64,-180.98C891.01,-180.69 911.12,-180.37 929.68,-180.07"/>
<polygon fill="#63b8ff" stroke="#63b8ff" points="929.86,-183.56 939.81,-179.9 929.75,-176.57 929.86,-183.56"/>
</a>
</g>
</g>
<!-- Node10 -->
<g id="Node000010" class="node">
<title>Node10</title>
<g id="a_Node000010"><a xlink:href="classUdpLogger.html#a55781f93bfc47a004e7b7b8afaa0192c" target="_top" xlink:title="Initialize the writer and start the writer thread.">
<polygon fill="white" stroke="#666666" points="1046,-108.5 948,-108.5 948,-89.5 1046,-89.5 1046,-108.5"/>
<text text-anchor="middle" x="997" y="-96.5" font-family="Helvetica,sans-Serif" font-size="10.00">UdpLogger::start</text>
</a>
</g>
</g>
<!-- Node9&#45;&gt;Node10 -->
<g id="edge9_Node000009_Node000010" class="edge">
<title>Node9&#45;&gt;Node10</title>
<g id="a_edge9_Node000009_Node000010"><a xlink:title=" ">
<path fill="none" stroke="#63b8ff" d="M882.14,-104.49C900.61,-103.6 920.21,-102.66 937.85,-101.81"/>
<polygon fill="#63b8ff" stroke="#63b8ff" points="938.17,-105.3 947.99,-101.32 937.83,-98.3 938.17,-105.3"/>
</a>
</g>
</g>
<!-- Node15 -->
<g id="Node000015" class="node">
<title>Node15</title>
<g id="a_Node000015"><a xlink:href="classUdpChannel.html#a48718b685a3059703ffbb06980376f7e" target="_top" xlink:title="Instructs the UdpWorker to start listening.">
<polygon fill="white" stroke="#666666" points="1076,-145.5 918,-145.5 918,-126.5 1076,-126.5 1076,-145.5"/>
<text text-anchor="middle" x="997" y="-133.5" font-family="Helvetica,sans-Serif" font-size="10.00">UdpChannel::startUdpWorker</text>
</a>
</g>
</g>
<!-- Node9&#45;&gt;Node15 -->
<g id="edge17_Node000009_Node000015" class="edge">
<title>Node9&#45;&gt;Node15</title>
<g id="a_edge17_Node000009_Node000015"><a xlink:title=" ">
<path fill="none" stroke="#63b8ff" d="M872.9,-117.52C888.82,-119.91 906.03,-122.49 922.4,-124.95"/>
<polygon fill="#63b8ff" stroke="#63b8ff" points="922.05,-128.44 932.46,-126.46 923.09,-121.51 922.05,-128.44"/>
</a>
</g>
</g>
<!-- Node11 -->
<g id="Node000011" class="node">
<title>Node11</title>
<g id="a_Node000011"><a xlink:href="classLogger.html#ad89b36eb9b5a28d1f61b3c74a6975031" target="_top" xlink:title="Log the messages as a debug and send a signal to display it.">
<polygon fill="white" stroke="#666666" points="1361,-164.5 1275,-164.5 1275,-145.5 1361,-145.5 1361,-164.5"/>
<text text-anchor="middle" x="1318" y="-152.5" font-family="Helvetica,sans-Serif" font-size="10.00">Logger::debug</text>
</a>
</g>
</g>
<!-- Node10&#45;&gt;Node11 -->
<g id="edge10_Node000010_Node000011" class="edge">
<title>Node10&#45;&gt;Node11</title>
<g id="a_edge10_Node000010_Node000011"><a xlink:title=" ">
<path fill="none" stroke="#63b8ff" d="M1046.01,-108.02C1056.06,-110.48 1066.49,-113.46 1076,-117 1092.96,-123.31 1094.66,-130.84 1112,-136 1162.48,-151.01 1222.77,-155.04 1264.85,-155.75"/>
<polygon fill="#63b8ff" stroke="#63b8ff" points="1264.83,-159.25 1274.87,-155.86 1264.91,-152.25 1264.83,-159.25"/>
</a>
</g>
</g>
<!-- Node13 -->
<g id="Node000013" class="node">
<title>Node13</title>
<g id="a_Node000013"><a xlink:href="classLogger.html#a6c8bf2fc8c89d76b7f4fe25d97ad4bf3" target="_top" xlink:title="Log the messages as an error and send a signal to display it.">
<polygon fill="white" stroke="#666666" points="1357.5,-127.5 1278.5,-127.5 1278.5,-108.5 1357.5,-108.5 1357.5,-127.5"/>
<text text-anchor="middle" x="1318" y="-115.5" font-family="Helvetica,sans-Serif" font-size="10.00">Logger::error</text>
</a>
</g>
</g>
<!-- Node10&#45;&gt;Node13 -->
<g id="edge12_Node000010_Node000013" class="edge">
<title>Node10&#45;&gt;Node13</title>
<g id="a_edge12_Node000010_Node000013"><a xlink:title=" ">
<path fill="none" stroke="#63b8ff" d="M1046.21,-95.63C1095.01,-93.02 1172.53,-91.02 1239,-99 1250.99,-100.44 1263.79,-103.08 1275.49,-105.94"/>
<polygon fill="#63b8ff" stroke="#63b8ff" points="1274.88,-109.4 1285.44,-108.49 1276.62,-102.62 1274.88,-109.4"/>
</a>
</g>
</g>
<!-- Node14 -->
<g id="Node000014" class="node">
<title>Node14</title>
<g id="a_Node000014"><a xlink:href="classUdpLogger.html#a4f7e8bb32128f9186dc452a57134475d" target="_top" xlink:title="Writer loop executed on m_writerThread.">
<polygon fill="white" stroke="#666666" points="1239,-127.5 1112,-127.5 1112,-108.5 1239,-108.5 1239,-127.5"/>
<text text-anchor="middle" x="1175.5" y="-115.5" font-family="Helvetica,sans-Serif" font-size="10.00">UdpLogger::writerLoop</text>
</a>
</g>
</g>
<!-- Node10&#45;&gt;Node14 -->
<g id="edge14_Node000010_Node000014" class="edge">
<title>Node10&#45;&gt;Node14</title>
<g id="a_edge14_Node000010_Node000014"><a xlink:title=" ">
<path fill="none" stroke="#63b8ff" d="M1046.23,-104.19C1063.36,-106.04 1083.04,-108.15 1101.76,-110.17"/>
<polygon fill="#63b8ff" stroke="#63b8ff" points="1101.43,-113.65 1111.74,-111.24 1102.18,-106.69 1101.43,-113.65"/>
</a>
</g>
</g>
<!-- Node12 -->
<g id="Node000012" class="node">
<title>Node12</title>
<g id="a_Node000012"><a xlink:href="classLogger.html#a02453fd0695fe06c495de714399e8bf7" target="_top" xlink:title="Signal that send the message to the rest of the app.">
<polygon fill="white" stroke="#666666" points="1532,-145.5 1397,-145.5 1397,-126.5 1532,-126.5 1532,-145.5"/>
<text text-anchor="middle" x="1464.5" y="-133.5" font-family="Helvetica,sans-Serif" font-size="10.00">Logger::messageLogged</text>
</a>
</g>
</g>
<!-- Node11&#45;&gt;Node12 -->
<g id="edge11_Node000011_Node000012" class="edge">
<title>Node11&#45;&gt;Node12</title>
<g id="a_edge11_Node000011_Node000012"><a xlink:title=" ">
<path fill="none" stroke="#63b8ff" d="M1361.18,-149.45C1369.29,-148.39 1378.02,-147.24 1386.83,-146.08"/>
<polygon fill="#63b8ff" stroke="#63b8ff" points="1387.33,-149.55 1396.79,-144.77 1386.42,-142.6 1387.33,-149.55"/>
</a>
</g>
</g>
<!-- Node13&#45;&gt;Node12 -->
<g id="edge13_Node000013_Node000012" class="edge">
<title>Node13&#45;&gt;Node12</title>
<g id="a_edge13_Node000013_Node000012"><a xlink:title=" ">
<path fill="none" stroke="#63b8ff" d="M1357.72,-122.82C1366.75,-123.95 1376.68,-125.18 1386.72,-126.44"/>
<polygon fill="#63b8ff" stroke="#63b8ff" points="1386.42,-129.93 1396.78,-127.69 1387.28,-122.98 1386.42,-129.93"/>
</a>
</g>
</g>
<!-- Node14&#45;&gt;Node11 -->
<g id="edge15_Node000014_Node000011" class="edge">
<title>Node14&#45;&gt;Node11</title>
<g id="a_edge15_Node000014_Node000011"><a xlink:title=" ">
<path fill="none" stroke="#63b8ff" d="M1212.68,-127.53C1230.33,-132.17 1251.75,-137.82 1270.59,-142.78"/>
<polygon fill="#63b8ff" stroke="#63b8ff" points="1269.89,-146.21 1280.45,-145.38 1271.67,-139.44 1269.89,-146.21"/>
</a>
</g>
</g>
<!-- Node14&#45;&gt;Node13 -->
<g id="edge16_Node000014_Node000013" class="edge">
<title>Node14&#45;&gt;Node13</title>
<g id="a_edge16_Node000014_Node000013"><a xlink:title=" ">
<path fill="none" stroke="#63b8ff" d="M1239.35,-118C1249.01,-118 1258.86,-118 1268.16,-118"/>
<polygon fill="#63b8ff" stroke="#63b8ff" points="1268.38,-121.5 1278.38,-118 1268.38,-114.5 1268.38,-121.5"/>
</a>
</g>
</g>
<!-- Node17 -->
<g id="Node000017" class="node">
<title>Node17</title>
<g id="a_Node000017"><a xlink:href="classUdpLogger.html#a09b32cc5531b9db48cde09d12d1c321f" target="_top" xlink:title="Signal the writer loop to stop and join the writer thread.">
<polygon fill="white" stroke="#666666" points="1223.5,-217.5 1127.5,-217.5 1127.5,-198.5 1223.5,-198.5 1223.5,-217.5"/>
<text text-anchor="middle" x="1175.5" y="-205.5" font-family="Helvetica,sans-Serif" font-size="10.00">UdpLogger::stop</text>
</a>
</g>
</g>
<!-- Node16&#45;&gt;Node17 -->
<g id="edge19_Node000016_Node000017" class="edge">
<title>Node16&#45;&gt;Node17</title>
<g id="a_edge19_Node000016_Node000017"><a xlink:title=" ">
<path fill="none" stroke="#63b8ff" d="M881.61,-219.23C950.69,-216.58 1053.56,-212.64 1117.21,-210.2"/>
<polygon fill="#63b8ff" stroke="#63b8ff" points="1117.6,-213.68 1127.46,-209.8 1117.34,-206.69 1117.6,-213.68"/>
</a>
</g>
</g>
<!-- Node18 -->
<g id="Node000018" class="node">
<title>Node18</title>
<g id="a_Node000018"><a xlink:href="classUdpChannel.html#a8e42a953d827d6a78a4867ba05b6a4ca" target="_top" xlink:title="Instructs the UdpWorker to stop.">
<polygon fill="white" stroke="#666666" points="1075,-269.5 919,-269.5 919,-250.5 1075,-250.5 1075,-269.5"/>
<text text-anchor="middle" x="997" y="-257.5" font-family="Helvetica,sans-Serif" font-size="10.00">UdpChannel::stopUdpWorker</text>
</a>
</g>
</g>
<!-- Node16&#45;&gt;Node18 -->
<g id="edge21_Node000016_Node000018" class="edge">
<title>Node16&#45;&gt;Node18</title>
<g id="a_edge21_Node000016_Node000018"><a xlink:title=" ">
<path fill="none" stroke="#63b8ff" d="M856.56,-231.59C881.73,-236.72 912.9,-243.07 939.38,-248.46"/>
<polygon fill="#63b8ff" stroke="#63b8ff" points="938.78,-251.91 949.28,-250.48 940.18,-245.05 938.78,-251.91"/>
</a>
</g>
</g>
<!-- Node17&#45;&gt;Node11 -->
<g id="edge20_Node000017_Node000011" class="edge">
<title>Node17&#45;&gt;Node11</title>
<g id="a_edge20_Node000017_Node000011"><a xlink:title=" ">
<path fill="none" stroke="#63b8ff" d="M1201.94,-198.4C1224.42,-189.92 1257.41,-177.48 1282.3,-168.09"/>
<polygon fill="#63b8ff" stroke="#63b8ff" points="1283.62,-171.33 1291.75,-164.53 1281.15,-164.78 1283.62,-171.33"/>
</a>
</g>
</g>
<!-- Node20 -->
<g id="Node000020" class="node">
<title>Node20</title>
<g id="a_Node000020"><a xlink:href="classExportMenu.html#aef6d81eddb25b7196317736fcf088b21" target="_top" xlink:title=" ">
<polygon fill="white" stroke="#666666" points="519.5,-63.5 403.5,-63.5 403.5,-44.5 519.5,-44.5 519.5,-63.5"/>
<text text-anchor="middle" x="461.5" y="-51.5" font-family="Helvetica,sans-Serif" font-size="10.00">ExportMenu::addFile</text>
</a>
</g>
</g>
<!-- Node19&#45;&gt;Node20 -->
<g id="edge23_Node000019_Node000020" class="edge">
<title>Node19&#45;&gt;Node20</title>
<g id="a_edge23_Node000019_Node000020"><a xlink:title=" ">
<path fill="none" stroke="#63b8ff" d="M361.08,-60.25C371.93,-59.56 382.84,-58.88 393.25,-58.22"/>
<polygon fill="#63b8ff" stroke="#63b8ff" points="393.72,-61.7 403.49,-57.58 393.29,-54.72 393.72,-61.7"/>
</a>
</g>
</g>
<!-- Node24 -->
<g id="Node000024" class="node">
<title>Node24</title>
<g id="a_Node000024"><a xlink:href="classExportMenuViewModel.html#a7623949a64e9609b02ae9a45ba81427d" target="_top" xlink:title=" ">
<polygon fill="white" stroke="#666666" points="526,-112 397,-112 397,-82 526,-82 526,-112"/>
<text text-anchor="start" x="405" y="-100" font-family="Helvetica,sans-Serif" font-size="10.00">ExportMenuViewModel</text>
<text text-anchor="middle" x="461.5" y="-89" font-family="Helvetica,sans-Serif" font-size="10.00">::getFileList</text>
</a>
</g>
</g>
<!-- Node19&#45;&gt;Node24 -->
<g id="edge27_Node000019_Node000024" class="edge">
<title>Node19&#45;&gt;Node24</title>
<g id="a_edge27_Node000019_Node000024"><a xlink:title=" ">
<path fill="none" stroke="#63b8ff" d="M328.1,-75.51C346.59,-78.51 367.26,-81.87 386.67,-85.02"/>
<polygon fill="#63b8ff" stroke="#63b8ff" points="386.26,-88.5 396.69,-86.64 387.38,-81.59 386.26,-88.5"/>
</a>
</g>
</g>
<!-- Node21 -->
<g id="Node000021" class="node">
<title>Node21</title>
<g id="a_Node000021"><a xlink:href="classExportMenuViewModel.html#a09ec6498ecf1657151562a2c670c3981" target="_top" xlink:title=" ">
<polygon fill="white" stroke="#666666" points="695,-51 566,-51 566,-21 695,-21 695,-51"/>
<text text-anchor="start" x="574" y="-39" font-family="Helvetica,sans-Serif" font-size="10.00">ExportMenuViewModel</text>
<text text-anchor="middle" x="630.5" y="-28" font-family="Helvetica,sans-Serif" font-size="10.00">::selectAction</text>
</a>
</g>
</g>
<!-- Node20&#45;&gt;Node21 -->
<g id="edge24_Node000020_Node000021" class="edge">
<title>Node20&#45;&gt;Node21</title>
<g id="a_edge24_Node000020_Node000021"><a xlink:title=" ">
<path fill="none" stroke="#63b8ff" d="M519.5,-47.86C531.17,-46.6 543.6,-45.26 555.75,-43.95"/>
<polygon fill="#63b8ff" stroke="#63b8ff" points="556.31,-47.41 565.88,-42.86 555.56,-40.45 556.31,-47.41"/>
</a>
</g>
</g>
<!-- Node23 -->
<g id="Node000023" class="node">
<title>Node23</title>
<g id="a_Node000023"><a xlink:href="classExportMenuViewModel.html#a74c1db1b014d8f7b623535cea754605e" target="_top" xlink:title=" ">
<polygon fill="white" stroke="#666666" points="695,-99 566,-99 566,-69 695,-69 695,-99"/>
<text text-anchor="start" x="574" y="-87" font-family="Helvetica,sans-Serif" font-size="10.00">ExportMenuViewModel</text>
<text text-anchor="middle" x="630.5" y="-76" font-family="Helvetica,sans-Serif" font-size="10.00">::selectFile</text>
</a>
</g>
</g>
<!-- Node20&#45;&gt;Node23 -->
<g id="edge26_Node000020_Node000023" class="edge">
<title>Node20&#45;&gt;Node23</title>
<g id="a_edge26_Node000020_Node000023"><a xlink:title=" ">
<path fill="none" stroke="#63b8ff" d="M515.8,-63.57C528.5,-65.86 542.28,-68.33 555.72,-70.75"/>
<polygon fill="#63b8ff" stroke="#63b8ff" points="555.45,-74.25 565.91,-72.58 556.69,-67.36 555.45,-74.25"/>
</a>
</g>
</g>
<!-- Node21&#45;&gt;Node22 -->
<g id="edge25_Node000021_Node000022" class="edge">
<title>Node21&#45;&gt;Node22</title>
<g id="a_edge25_Node000021_Node000022"><a xlink:title=" ">
<path fill="none" stroke="#63b8ff" d="M695.04,-28.42C704.71,-27.26 714.82,-26.06 724.83,-24.86"/>
<polygon fill="#63b8ff" stroke="#63b8ff" points="725.27,-28.34 734.79,-23.68 724.44,-21.39 725.27,-28.34"/>
</a>
</g>
</g>
<!-- Node24&#45;&gt;Node4 -->
<g id="edge28_Node000024_Node000004" class="edge">
<title>Node24&#45;&gt;Node4</title>
<g id="a_edge28_Node000024_Node000004"><a xlink:title=" ">
<path fill="none" stroke="#63b8ff" d="M526.11,-108.43C539.33,-110.8 553.26,-113.3 566.46,-115.68"/>
<polygon fill="#63b8ff" stroke="#63b8ff" points="565.93,-119.14 576.39,-117.46 567.17,-112.25 565.93,-119.14"/>
</a>
</g>
</g>
</g>
</svg>

<g id="navigator" transform="translate(0 0)" fill="#404254">
  <rect fill="#f2f5e9" fill-opacity="0.5" stroke="#606060" stroke-width=".5" x="0" y="0" width="60" height="60"/>
  <use id="zoomplus" xlink:href="#zoomPlus" x="17" y="9" onmousedown="handleZoom(evt,'in')"/>
  <use id="zoomminus" xlink:href="#zoomMin" x="42" y="9" onmousedown="handleZoom(evt,'out')"/>
  <use id="reset" xlink:href="#resetDef" x="30" y="36" onmousedown="handleReset()"/>
   <use id="arrowup" xlink:href="#arrowUp" x="0" y="0" onmousedown="handlePan(0,-1)"/>
  <use id="arrowright" xlink:href="#arrowRight" x="0" y="0" onmousedown="handlePan(1,0)"/>
  <use id="arrowdown" xlink:href="#arrowDown" x="0" y="0" onmousedown="handlePan(0,1)"/>
  <use id="arrowleft" xlink:href="#arrowLeft" x="0" y="0" onmousedown="handlePan(-1,0)"/>
</g>
<svg viewBox="0 0 15 15" width="100%" height="30px" preserveAspectRatio="xMaxYMin meet">
 <g id="arrow_out" transform="scale(0.3 0.3)">
  <a xlink:href="classExportMenu_aad47eee6721b4f7a152a093c99672ac9_cgraph_org.svg" target="_base">
   <rect id="button" ry="5" rx="5" y="6" x="6" height="38" width="38"
        fill="#f2f5e9" fill-opacity="0.5" stroke="#606060" stroke-width="1.0"/>
   <path id="arrow"
     d="M 11.500037,31.436501 C 11.940474,20.09759 22.043105,11.32322 32.158766,21.979434 L 37.068811,17.246167 C 37.068811,17.246167 37.088388,32 37.088388,32 L 22.160133,31.978069 C 22.160133,31.978069 26.997745,27.140456 26.997745,27.140456 C 18.528582,18.264221 13.291696,25.230495 11.500037,31.436501 z"
     style="fill:#404040;"/>
  </a>
 </g>
</svg>

<style type='text/css'>
<![CDATA[
[data-mouse-over-selected='false'] { opacity: 0.7; }
[data-mouse-over-selected='true']  { opacity: 1.0; }
]]>
</style>
<script type="application/ecmascript"><![CDATA[
document.addEventListener('DOMContentLoaded', (event) => {
  highlightEdges();
  highlightAdjacentNodes();
});
]]></script>
</svg>
