<?xml version="1.0" encoding="UTF-8" standalone="no"?>
<!DOCTYPE svg PUBLIC "-//W3C//DTD SVG 1.1//EN"
 "http://www.w3.org/Graphics/SVG/1.1/DTD/svg11.dtd">
<!-- Generated by graphviz version 2.43.0 (0)
 -->
<!-- Title: TestLauncherViewModel::sequenceParametersChanged Pages: 1 -->
<svg width="537pt" height="76pt"
 viewBox="0.00 0.00 537.00 75.50" xmlns="http://www.w3.org/2000/svg" xmlns:xlink="http://www.w3.org/1999/xlink">
<g id="graph0" class="graph" transform="scale(1 1) rotate(0) translate(4 71.5)">
<title>TestLauncherViewModel::sequenceParametersChanged</title>
<!-- Node1 -->
<g id="Node000001" class="node">
<title>Node1</title>
<g id="a_Node000001"><a xlink:title=" ">
<polygon fill="#999999" stroke="#666666" points="529,-45.5 362,-45.5 362,-15.5 529,-15.5 529,-45.5"/>
<text text-anchor="start" x="370" y="-33.5" font-family="Helvetica,sans-Serif" font-size="10.00">TestLauncherViewModel</text>
<text text-anchor="middle" x="445.5" y="-22.5" font-family="Helvetica,sans-Serif" font-size="10.00">::sequenceParametersChanged</text>
</a>
</g>
</g>
<!-- Node2 -->
<g id="Node000002" class="node">
<title>Node2</title>
<g id="a_Node000002"><a xlink:href="classTestLauncherViewModel.html#a3843fc648d675f2770fd7780b104e477" target="_top" xlink:title=" ">
<polygon fill="white" stroke="#666666" points="318,-67.5 184,-67.5 184,-37.5 318,-37.5 318,-67.5"/>
<text text-anchor="start" x="192" y="-55.5" font-family="Helvetica,sans-Serif" font-size="10.00">TestLauncherViewModel</text>
<text text-anchor="middle" x="251" y="-44.5" font-family="Helvetica,sans-Serif" font-size="10.00">::onFileParsed</text>
</a>
</g>
</g>
<!-- Node1&#45;&gt;Node2 -->
<g id="edge1_Node000001_Node000002" class="edge">
<title>Node1&#45;&gt;Node2</title>
<g id="a_edge1_Node000001_Node000002"><a xlink:title=" ">
<path fill="none" stroke="#63b8ff" d="M351.79,-41.1C340.43,-42.39 329,-43.7 318.14,-44.94"/>
<polygon fill="#63b8ff" stroke="#63b8ff" points="352.21,-44.57 361.75,-39.96 351.41,-37.62 352.21,-44.57"/>
</a>
</g>
</g>
<!-- Node4 -->
<g id="Node000004" class="node">
<title>Node4</title>
<g id="a_Node000004"><a xlink:href="classTestLauncher.html#a0b2015a489c9ef4b4258626629841e5a" target="_top" xlink:title=" ">
<polygon fill="white" stroke="#666666" points="326,-19 176,-19 176,0 326,0 326,-19"/>
<text text-anchor="middle" x="251" y="-7" font-family="Helvetica,sans-Serif" font-size="10.00">TestLauncher::TestLauncher</text>
</a>
</g>
</g>
<!-- Node1&#45;&gt;Node4 -->
<g id="edge3_Node000001_Node000004" class="edge">
<title>Node1&#45;&gt;Node4</title>
<g id="a_edge3_Node000001_Node000004"><a xlink:title=" ">
<path fill="none" stroke="#63b8ff" d="M351.72,-20.38C343.16,-19.44 334.55,-18.51 326.18,-17.59"/>
<polygon fill="#63b8ff" stroke="#63b8ff" points="351.42,-23.87 361.75,-21.47 352.18,-16.91 351.42,-23.87"/>
</a>
</g>
</g>
<!-- Node3 -->
<g id="Node000003" class="node">
<title>Node3</title>
<g id="a_Node000003"><a xlink:href="classTestLauncherViewModel.html#a8383814253c17f638f473f833f79b9a9" target="_top" xlink:title=" ">
<polygon fill="white" stroke="#666666" points="140,-67.5 0,-67.5 0,-37.5 140,-37.5 140,-67.5"/>
<text text-anchor="start" x="8" y="-55.5" font-family="Helvetica,sans-Serif" font-size="10.00">TestLauncherViewModel</text>
<text text-anchor="middle" x="70" y="-44.5" font-family="Helvetica,sans-Serif" font-size="10.00">::TestLauncherViewModel</text>
</a>
</g>
</g>
<!-- Node2&#45;&gt;Node3 -->
<g id="edge2_Node000002_Node000003" class="edge">
<title>Node2&#45;&gt;Node3</title>
<g id="a_edge2_Node000002_Node000003"><a xlink:title=" ">
<path fill="none" stroke="#63b8ff" d="M173.72,-52.5C162.58,-52.5 151.16,-52.5 140.17,-52.5"/>
<polygon fill="#63b8ff" stroke="#63b8ff" points="173.86,-56 183.86,-52.5 173.86,-49 173.86,-56"/>
</a>
</g>
</g>
</g>
</svg>
