<?xml version="1.0" encoding="UTF-8" standalone="no"?>
<!DOCTYPE svg PUBLIC "-//W3C//DTD SVG 1.1//EN"
 "http://www.w3.org/Graphics/SVG/1.1/DTD/svg11.dtd">
<!-- Generated by graphviz version 2.43.0 (0)
 -->
<!-- Title: TestLauncherViewModel::TestLauncherViewModel Pages: 1 -->
<svg width="718pt" height="172pt"
 viewBox="0.00 0.00 718.00 172.00" xmlns="http://www.w3.org/2000/svg" xmlns:xlink="http://www.w3.org/1999/xlink">
<g id="graph0" class="graph" transform="scale(1 1) rotate(0) translate(4 168)">
<title>TestLauncherViewModel::TestLauncherViewModel</title>
<!-- Node1 -->
<g id="Node000001" class="node">
<title>Node1</title>
<g id="a_Node000001"><a xlink:title=" ">
<polygon fill="#999999" stroke="#666666" points="140,-99 0,-99 0,-69 140,-69 140,-99"/>
<text text-anchor="start" x="8" y="-87" font-family="Helvetica,sans-Serif" font-size="10.00">TestLauncherViewModel</text>
<text text-anchor="middle" x="70" y="-76" font-family="Helvetica,sans-Serif" font-size="10.00">::TestLauncherViewModel</text>
</a>
</g>
</g>
<!-- Node2 -->
<g id="Node000002" class="node">
<title>Node2</title>
<g id="a_Node000002"><a xlink:href="classUdpChannel.html#a365d3463ec51e0e296cf7cd1dee7ed61" target="_top" xlink:title=" ">
<polygon fill="white" stroke="#666666" points="319,-164 176,-164 176,-134 319,-134 319,-164"/>
<text text-anchor="start" x="184" y="-152" font-family="Helvetica,sans-Serif" font-size="10.00">UdpChannel::controlEvent</text>
<text text-anchor="middle" x="247.5" y="-141" font-family="Helvetica,sans-Serif" font-size="10.00">Received</text>
</a>
</g>
</g>
<!-- Node1&#45;&gt;Node2 -->
<g id="edge1_Node000001_Node000002" class="edge">
<title>Node1&#45;&gt;Node2</title>
<g id="a_edge1_Node000001_Node000002"><a xlink:title=" ">
<path fill="none" stroke="#63b8ff" d="M108.27,-99.01C128.27,-106.95 153.39,-116.74 176,-125 181.09,-126.86 186.39,-128.75 191.72,-130.61"/>
<polygon fill="#63b8ff" stroke="#63b8ff" points="190.67,-133.96 201.26,-133.93 192.97,-127.34 190.67,-133.96"/>
</a>
</g>
</g>
<!-- Node3 -->
<g id="Node000003" class="node">
<title>Node3</title>
<g id="a_Node000003"><a xlink:href="classTxtParser.html#a7cd1923d1d1fa00cc53ef4ce794a830b" target="_top" xlink:title=" ">
<polygon fill="white" stroke="#666666" points="306.5,-115.5 188.5,-115.5 188.5,-96.5 306.5,-96.5 306.5,-115.5"/>
<text text-anchor="middle" x="247.5" y="-103.5" font-family="Helvetica,sans-Serif" font-size="10.00">TxtParser::FileParsed</text>
</a>
</g>
</g>
<!-- Node1&#45;&gt;Node3 -->
<g id="edge2_Node000001_Node000003" class="edge">
<title>Node1&#45;&gt;Node3</title>
<g id="a_edge2_Node000001_Node000003"><a xlink:title=" ">
<path fill="none" stroke="#63b8ff" d="M140.11,-92.66C152.55,-94.22 165.51,-95.85 177.94,-97.41"/>
<polygon fill="#63b8ff" stroke="#63b8ff" points="177.87,-100.92 188.22,-98.69 178.74,-93.98 177.87,-100.92"/>
</a>
</g>
</g>
<!-- Node4 -->
<g id="Node000004" class="node">
<title>Node4</title>
<g id="a_Node000004"><a xlink:href="classTestLauncherViewModel.html#a3843fc648d675f2770fd7780b104e477" target="_top" xlink:title=" ">
<polygon fill="white" stroke="#666666" points="314.5,-78 180.5,-78 180.5,-48 314.5,-48 314.5,-78"/>
<text text-anchor="start" x="188.5" y="-66" font-family="Helvetica,sans-Serif" font-size="10.00">TestLauncherViewModel</text>
<text text-anchor="middle" x="247.5" y="-55" font-family="Helvetica,sans-Serif" font-size="10.00">::onFileParsed</text>
</a>
</g>
</g>
<!-- Node1&#45;&gt;Node4 -->
<g id="edge3_Node000001_Node000004" class="edge">
<title>Node1&#45;&gt;Node4</title>
<g id="a_edge3_Node000001_Node000004"><a xlink:title=" ">
<path fill="none" stroke="#63b8ff" d="M140.11,-75.73C150.04,-74.54 160.3,-73.31 170.35,-72.11"/>
<polygon fill="#63b8ff" stroke="#63b8ff" points="170.81,-75.58 180.32,-70.92 169.97,-68.63 170.81,-75.58"/>
</a>
</g>
</g>
<!-- Node6 -->
<g id="Node000006" class="node">
<title>Node6</title>
<g id="a_Node000006"><a xlink:href="classTestLauncherViewModel.html#a265a1e3bb839de77a7439a4c3dc08c0f" target="_top" xlink:title=" ">
<polygon fill="white" stroke="#666666" points="314.5,-30 180.5,-30 180.5,0 314.5,0 314.5,-30"/>
<text text-anchor="start" x="188.5" y="-18" font-family="Helvetica,sans-Serif" font-size="10.00">TestLauncherViewModel</text>
<text text-anchor="middle" x="247.5" y="-7" font-family="Helvetica,sans-Serif" font-size="10.00">::onLaunchConfirmed</text>
</a>
</g>
</g>
<!-- Node1&#45;&gt;Node6 -->
<g id="edge5_Node000001_Node000006" class="edge">
<title>Node1&#45;&gt;Node6</title>
<g id="a_edge5_Node000001_Node000006"><a xlink:title=" ">
<path fill="none" stroke="#63b8ff" d="M104.31,-68.95C124.82,-59.88 151.74,-48.31 176,-39 180.78,-37.16 185.77,-35.32 190.79,-33.52"/>
<polygon fill="#63b8ff" stroke="#63b8ff" points="192.17,-36.75 200.43,-30.11 189.83,-30.15 192.17,-36.75"/>
</a>
</g>
</g>
<!-- Node5 -->
<g id="Node000005" class="node">
<title>Node5</title>
<g id="a_Node000005"><a xlink:href="classTestLauncherViewModel.html#a34b64a79fa056641a062bf36bd74f118" target="_top" xlink:title=" ">
<polygon fill="white" stroke="#666666" points="522,-78 355,-78 355,-48 522,-48 522,-78"/>
<text text-anchor="start" x="363" y="-66" font-family="Helvetica,sans-Serif" font-size="10.00">TestLauncherViewModel</text>
<text text-anchor="middle" x="438.5" y="-55" font-family="Helvetica,sans-Serif" font-size="10.00">::sequenceParametersChanged</text>
</a>
</g>
</g>
<!-- Node4&#45;&gt;Node5 -->
<g id="edge4_Node000004_Node000005" class="edge">
<title>Node4&#45;&gt;Node5</title>
<g id="a_edge4_Node000004_Node000005"><a xlink:title=" ">
<path fill="none" stroke="#63b8ff" d="M314.6,-63C324.34,-63 334.53,-63 344.68,-63"/>
<polygon fill="#63b8ff" stroke="#63b8ff" points="344.82,-66.5 354.82,-63 344.82,-59.5 344.82,-66.5"/>
</a>
</g>
</g>
<!-- Node7 -->
<g id="Node000007" class="node">
<title>Node7</title>
<g id="a_Node000007"><a xlink:href="classTestBenchModel.html#a54c863e0fad71787463b3cca612b1ee3" target="_top" xlink:title=" ">
<polygon fill="white" stroke="#666666" points="522,-24.5 355,-24.5 355,-5.5 522,-5.5 522,-24.5"/>
<text text-anchor="middle" x="438.5" y="-12.5" font-family="Helvetica,sans-Serif" font-size="10.00">TestBenchModel::setTestStatus</text>
</a>
</g>
</g>
<!-- Node6&#45;&gt;Node7 -->
<g id="edge6_Node000006_Node000007" class="edge">
<title>Node6&#45;&gt;Node7</title>
<g id="a_edge6_Node000006_Node000007"><a xlink:title=" ">
<path fill="none" stroke="#63b8ff" d="M314.6,-15C324.34,-15 334.53,-15 344.68,-15"/>
<polygon fill="#63b8ff" stroke="#63b8ff" points="344.82,-18.5 354.82,-15 344.82,-11.5 344.82,-18.5"/>
</a>
</g>
</g>
<!-- Node8 -->
<g id="Node000008" class="node">
<title>Node8</title>
<g id="a_Node000008"><a xlink:href="classTestBenchModel.html#a0d3f80fa37e00cdbd143c2354d28d74f" target="_top" xlink:title=" ">
<polygon fill="white" stroke="#666666" points="710,-30 558,-30 558,0 710,0 710,-30"/>
<text text-anchor="start" x="566" y="-18" font-family="Helvetica,sans-Serif" font-size="10.00">TestBenchModel::testStatus</text>
<text text-anchor="middle" x="634" y="-7" font-family="Helvetica,sans-Serif" font-size="10.00">Changed</text>
</a>
</g>
</g>
<!-- Node7&#45;&gt;Node8 -->
<g id="edge7_Node000007_Node000008" class="edge">
<title>Node7&#45;&gt;Node8</title>
<g id="a_edge7_Node000007_Node000008"><a xlink:title=" ">
<path fill="none" stroke="#63b8ff" d="M522.12,-15C530.52,-15 539.06,-15 547.49,-15"/>
<polygon fill="#63b8ff" stroke="#63b8ff" points="547.7,-18.5 557.7,-15 547.7,-11.5 547.7,-18.5"/>
</a>
</g>
</g>
</g>
</svg>
