<?xml version="1.0" encoding="UTF-8" standalone="no"?>
<!DOCTYPE svg PUBLIC "-//W3C//DTD SVG 1.1//EN"
 "http://www.w3.org/Graphics/SVG/1.1/DTD/svg11.dtd">
<!-- Generated by graphviz version 2.43.0 (0)
 -->
<!-- Title: SensorValueIndicatorViewModel::sensorValueChanged Pages: 1 -->
<svg width="408pt" height="86pt"
 viewBox="0.00 0.00 408.00 86.00" xmlns="http://www.w3.org/2000/svg" xmlns:xlink="http://www.w3.org/1999/xlink">
<g id="graph0" class="graph" transform="scale(1 1) rotate(0) translate(4 82)">
<title>SensorValueIndicatorViewModel::sensorValueChanged</title>
<!-- Node1 -->
<g id="Node000001" class="node">
<title>Node1</title>
<g id="a_Node000001"><a xlink:title=" ">
<polygon fill="#999999" stroke="#666666" points="400,-54 245,-54 245,-24 400,-24 400,-54"/>
<text text-anchor="start" x="253" y="-42" font-family="Helvetica,sans-Serif" font-size="10.00">SensorValueIndicatorView</text>
<text text-anchor="middle" x="322.5" y="-31" font-family="Helvetica,sans-Serif" font-size="10.00">Model::sensorValueChanged</text>
</a>
</g>
</g>
<!-- Node2 -->
<g id="Node000002" class="node">
<title>Node2</title>
<g id="a_Node000002"><a xlink:href="classSensorValueIndicator.html#a7ae94a59dd425bf5e9c687ea422be82e" target="_top" xlink:title=" ">
<polygon fill="white" stroke="#666666" points="167,-78 42,-78 42,-48 167,-48 167,-78"/>
<text text-anchor="start" x="50" y="-66" font-family="Helvetica,sans-Serif" font-size="10.00">SensorValueIndicator</text>
<text text-anchor="middle" x="104.5" y="-55" font-family="Helvetica,sans-Serif" font-size="10.00">::SensorValueIndicator</text>
</a>
</g>
</g>
<!-- Node1&#45;&gt;Node2 -->
<g id="edge1_Node000001_Node000002" class="edge">
<title>Node1&#45;&gt;Node2</title>
<g id="a_edge1_Node000001_Node000002"><a xlink:title=" ">
<path fill="none" stroke="#63b8ff" d="M234.78,-48.64C212.12,-51.15 188.16,-53.82 167.1,-56.16"/>
<polygon fill="#63b8ff" stroke="#63b8ff" points="235.19,-52.11 244.74,-47.53 234.41,-45.15 235.19,-52.11"/>
</a>
</g>
</g>
<!-- Node3 -->
<g id="Node000003" class="node">
<title>Node3</title>
<g id="a_Node000003"><a xlink:href="classSensorValueIndicatorViewModel.html#a2c089ed56de9b166007f4e720902e528" target="_top" xlink:title=" ">
<polygon fill="white" stroke="#666666" points="209,-30 0,-30 0,0 209,0 209,-30"/>
<text text-anchor="start" x="8" y="-18" font-family="Helvetica,sans-Serif" font-size="10.00">SensorValueIndicatorView</text>
<text text-anchor="middle" x="104.5" y="-7" font-family="Helvetica,sans-Serif" font-size="10.00">Model::SensorValueIndicatorViewModel</text>
</a>
</g>
</g>
<!-- Node1&#45;&gt;Node3 -->
<g id="edge2_Node000001_Node000003" class="edge">
<title>Node1&#45;&gt;Node3</title>
<g id="a_edge2_Node000001_Node000003"><a xlink:title=" ">
<path fill="none" stroke="#63b8ff" d="M234.63,-29.35C226.26,-28.42 217.72,-27.47 209.21,-26.52"/>
<polygon fill="#63b8ff" stroke="#63b8ff" points="234.41,-32.85 244.74,-30.47 235.19,-25.89 234.41,-32.85"/>
</a>
</g>
</g>
</g>
</svg>
