<?xml version="1.0" encoding="UTF-8" standalone="no"?>
<!DOCTYPE svg PUBLIC "-//W3C//DTD SVG 1.1//EN"
 "http://www.w3.org/Graphics/SVG/1.1/DTD/svg11.dtd">
<!-- Generated by graphviz version 2.43.0 (0)
 -->
<!-- Title: CountdownClock::CountdownClock Pages: 1 -->
<svg width="585pt" height="124pt"
 viewBox="0.00 0.00 585.00 124.00" xmlns="http://www.w3.org/2000/svg" xmlns:xlink="http://www.w3.org/1999/xlink">
<g id="graph0" class="graph" transform="scale(1 1) rotate(0) translate(4 120)">
<title>CountdownClock::CountdownClock</title>
<!-- Node1 -->
<g id="Node000001" class="node">
<title>Node1</title>
<g id="a_Node000001"><a xlink:title=" ">
<polygon fill="#999999" stroke="#666666" points="159,-73 0,-73 0,-43 159,-43 159,-73"/>
<text text-anchor="start" x="8" y="-61" font-family="Helvetica,sans-Serif" font-size="10.00">CountdownClock::Countdown</text>
<text text-anchor="middle" x="79.5" y="-50" font-family="Helvetica,sans-Serif" font-size="10.00">Clock</text>
</a>
</g>
</g>
<!-- Node2 -->
<g id="Node000002" class="node">
<title>Node2</title>
<g id="a_Node000002"><a xlink:href="classCountdownClockViewModel.html#a6d6d3c5d244c8895e6c007e9c181efbb" target="_top" xlink:title=" ">
<polygon fill="white" stroke="#666666" points="368,-116 216,-116 216,-86 368,-86 368,-116"/>
<text text-anchor="start" x="224" y="-104" font-family="Helvetica,sans-Serif" font-size="10.00">CountdownClockViewModel</text>
<text text-anchor="middle" x="292" y="-93" font-family="Helvetica,sans-Serif" font-size="10.00">::initialise</text>
</a>
</g>
</g>
<!-- Node1&#45;&gt;Node2 -->
<g id="edge1_Node000001_Node000002" class="edge">
<title>Node1&#45;&gt;Node2</title>
<g id="a_edge1_Node000001_Node000002"><a xlink:title=" ">
<path fill="none" stroke="#63b8ff" d="M154.12,-73.04C171.27,-76.54 189.65,-80.3 207.2,-83.88"/>
<polygon fill="#63b8ff" stroke="#63b8ff" points="206.92,-87.4 217.42,-85.97 208.32,-80.54 206.92,-87.4"/>
</a>
</g>
</g>
<!-- Node3 -->
<g id="Node000003" class="node">
<title>Node3</title>
<g id="a_Node000003"><a xlink:href="classCountdownClockViewModel.html#a640768e7b3a9b2e4928514897f5687c4" target="_top" xlink:title=" ">
<polygon fill="white" stroke="#666666" points="577,-94 425,-94 425,-64 577,-64 577,-94"/>
<text text-anchor="start" x="433" y="-82" font-family="Helvetica,sans-Serif" font-size="10.00">CountdownClockViewModel</text>
<text text-anchor="middle" x="501" y="-71" font-family="Helvetica,sans-Serif" font-size="10.00">::timeRemainingChanged</text>
</a>
</g>
</g>
<!-- Node1&#45;&gt;Node3 -->
<g id="edge4_Node000001_Node000003" class="edge">
<title>Node1&#45;&gt;Node3</title>
<g id="a_edge4_Node000001_Node000003"><a xlink:title=" ">
<path fill="none" stroke="#63b8ff" d="M159.4,-61.95C232.17,-65.59 339.91,-70.99 414.65,-74.73"/>
<polygon fill="#63b8ff" stroke="#63b8ff" points="414.81,-78.24 424.98,-75.24 415.16,-71.25 414.81,-78.24"/>
</a>
</g>
</g>
<!-- Node4 -->
<g id="Node000004" class="node">
<title>Node4</title>
<g id="a_Node000004"><a xlink:href="classCountdownClock.html#a618b78ca3527e189cbcf45b39d32b462" target="_top" xlink:title=" ">
<polygon fill="white" stroke="#666666" points="389,-30 195,-30 195,0 389,0 389,-30"/>
<text text-anchor="start" x="203" y="-18" font-family="Helvetica,sans-Serif" font-size="10.00">CountdownClock::onTimeRemaining</text>
<text text-anchor="middle" x="292" y="-7" font-family="Helvetica,sans-Serif" font-size="10.00">Changed</text>
</a>
</g>
</g>
<!-- Node1&#45;&gt;Node4 -->
<g id="edge3_Node000001_Node000004" class="edge">
<title>Node1&#45;&gt;Node4</title>
<g id="a_edge3_Node000001_Node000004"><a xlink:title=" ">
<path fill="none" stroke="#63b8ff" d="M154.12,-42.96C171.27,-39.46 189.65,-35.7 207.2,-32.12"/>
<polygon fill="#63b8ff" stroke="#63b8ff" points="208.32,-35.46 217.42,-30.03 206.92,-28.6 208.32,-35.46"/>
</a>
</g>
</g>
<!-- Node2&#45;&gt;Node3 -->
<g id="edge2_Node000002_Node000003" class="edge">
<title>Node2&#45;&gt;Node3</title>
<g id="a_edge2_Node000002_Node000003"><a xlink:title=" ">
<path fill="none" stroke="#63b8ff" d="M368.02,-93.03C383.21,-91.41 399.28,-89.7 414.79,-88.06"/>
<polygon fill="#63b8ff" stroke="#63b8ff" points="415.31,-91.52 424.88,-86.98 414.57,-84.56 415.31,-91.52"/>
</a>
</g>
</g>
</g>
</svg>
