<?xml version="1.0" encoding="UTF-8" standalone="no"?>
<!DOCTYPE svg PUBLIC "-//W3C//DTD SVG 1.1//EN"
 "http://www.w3.org/Graphics/SVG/1.1/DTD/svg11.dtd">
<!-- Generated by graphviz version 2.43.0 (0)
 -->
<!-- Title: DebugDisplayViewModel Pages: 1 -->
<svg width="219pt" height="419pt"
 viewBox="0.00 0.00 219.00 419.00" xmlns="http://www.w3.org/2000/svg" xmlns:xlink="http://www.w3.org/1999/xlink">
<g id="graph0" class="graph" transform="scale(1 1) rotate(0) translate(4 415)">
<title>DebugDisplayViewModel</title>
<!-- Node1 -->
<g id="Node000001" class="node">
<title>Node1</title>
<g id="a_Node000001"><a xlink:title=" ">
<polygon fill="#999999" stroke="transparent" points="166,-154 0,-154 0,0 166,0 166,-154"/>
<text text-anchor="start" x="21.5" y="-142" font-family="Helvetica,sans-Serif" font-size="10.00">DebugDisplayViewModel</text>
<text text-anchor="start" x="4" y="-127" font-family="Helvetica,sans-Serif" font-size="10.00">+</text>
<text text-anchor="start" x="17" y="-127" font-family="Helvetica,sans-Serif" font-size="10.00">MAX_NUMBER_OF_BINDINGS</text>
<text text-anchor="start" x="6.5" y="-112" font-family="Helvetica,sans-Serif" font-size="10.00">&#45;</text>
<text text-anchor="start" x="17" y="-112" font-family="Helvetica,sans-Serif" font-size="10.00">m_bindings</text>
<text text-anchor="start" x="6.5" y="-97" font-family="Helvetica,sans-Serif" font-size="10.00">&#45;</text>
<text text-anchor="start" x="17" y="-97" font-family="Helvetica,sans-Serif" font-size="10.00">m_bindingCount</text>
<text text-anchor="start" x="4" y="-82" font-family="Helvetica,sans-Serif" font-size="10.00">+</text>
<text text-anchor="start" x="17" y="-82" font-family="Helvetica,sans-Serif" font-size="10.00">DebugDisplayViewModel()</text>
<text text-anchor="start" x="4" y="-67" font-family="Helvetica,sans-Serif" font-size="10.00">+</text>
<text text-anchor="start" x="17" y="-67" font-family="Helvetica,sans-Serif" font-size="10.00">displayVariable()</text>
<text text-anchor="start" x="4" y="-52" font-family="Helvetica,sans-Serif" font-size="10.00">+</text>
<text text-anchor="start" x="17" y="-52" font-family="Helvetica,sans-Serif" font-size="10.00">numberOfBindings()</text>
<text text-anchor="start" x="4" y="-37" font-family="Helvetica,sans-Serif" font-size="10.00">+</text>
<text text-anchor="start" x="17" y="-37" font-family="Helvetica,sans-Serif" font-size="10.00">maxNumberOfBidings()</text>
<text text-anchor="start" x="4" y="-22" font-family="Helvetica,sans-Serif" font-size="10.00">+</text>
<text text-anchor="start" x="17" y="-22" font-family="Helvetica,sans-Serif" font-size="10.00">getBinding()</text>
<text text-anchor="start" x="4" y="-7" font-family="Helvetica,sans-Serif" font-size="10.00">+</text>
<text text-anchor="start" x="17" y="-7" font-family="Helvetica,sans-Serif" font-size="10.00">initialise()</text>
<polygon fill="#666666" stroke="#666666" points="0,-137 0,-137 166,-137 166,-137 0,-137"/>
<polygon fill="#666666" stroke="#666666" points="0,-92 0,-92 15,-92 15,-92 0,-92"/>
<polygon fill="#666666" stroke="#666666" points="15,-92 15,-92 166,-92 166,-92 15,-92"/>
<polygon fill="none" stroke="#666666" points="0,0 0,-154 166,-154 166,0 0,0"/>
</a>
</g>
</g>
<!-- Node2 -->
<g id="Node000002" class="node">
<title>Node2</title>
<g id="a_Node000002"><a xlink:title=" ">
<polygon fill="white" stroke="transparent" points="104,-411 54,-411 54,-362 104,-362 104,-411"/>
<text text-anchor="start" x="59" y="-398.5" font-family="Helvetica,sans-Serif" font-size="10.00">QObject</text>
<text text-anchor="start" x="77" y="-383.5" font-family="Helvetica,sans-Serif" font-size="10.00"> </text>
<text text-anchor="start" x="77" y="-368.5" font-family="Helvetica,sans-Serif" font-size="10.00"> </text>
<polygon fill="#666666" stroke="#666666" points="54,-393.5 54,-393.5 104,-393.5 104,-393.5 54,-393.5"/>
<polygon fill="#666666" stroke="#666666" points="54,-378.5 54,-378.5 104,-378.5 104,-378.5 54,-378.5"/>
<polygon fill="none" stroke="#666666" points="54,-362 54,-411 104,-411 104,-362 54,-362"/>
</a>
</g>
</g>
<!-- Node2&#45;&gt;Node1 -->
<g id="edge1_Node000001_Node000002" class="edge">
<title>Node2&#45;&gt;Node1</title>
<g id="a_edge1_Node000001_Node000002"><a xlink:title=" ">
<path fill="none" stroke="#63b8ff" d="M79.44,-351.59C80.06,-304.3 81.19,-217.26 82.01,-154.02"/>
<polygon fill="none" stroke="#63b8ff" points="75.94,-351.84 79.31,-361.88 82.94,-351.93 75.94,-351.84"/>
</a>
</g>
</g>
<!-- Node3 -->
<g id="Node000003" class="node">
<title>Node3</title>
<g id="a_Node000003"><a xlink:href="classTimer.html" target="_top" xlink:title="Timer that emit a signal at a certain frequency to synchronise the refresh of the app widgets.">
<polygon fill="white" stroke="transparent" points="211,-325 95,-325 95,-201 211,-201 211,-325"/>
<text text-anchor="start" x="138.5" y="-313" font-family="Helvetica,sans-Serif" font-size="10.00">Timer</text>
<text text-anchor="start" x="101.5" y="-298" font-family="Helvetica,sans-Serif" font-size="10.00">&#45;</text>
<text text-anchor="start" x="112" y="-298" font-family="Helvetica,sans-Serif" font-size="10.00">m_lastRefresh</text>
<text text-anchor="start" x="101.5" y="-283" font-family="Helvetica,sans-Serif" font-size="10.00">&#45;</text>
<text text-anchor="start" x="112" y="-283" font-family="Helvetica,sans-Serif" font-size="10.00">m_periodOfRefresh</text>
<text text-anchor="start" x="101.5" y="-268" font-family="Helvetica,sans-Serif" font-size="10.00">&#45;</text>
<text text-anchor="start" x="112" y="-268" font-family="Helvetica,sans-Serif" font-size="10.00">m_timer</text>
<text text-anchor="start" x="99" y="-253" font-family="Helvetica,sans-Serif" font-size="10.00">+</text>
<text text-anchor="start" x="112" y="-253" font-family="Helvetica,sans-Serif" font-size="10.00">Timer()</text>
<text text-anchor="start" x="99" y="-238" font-family="Helvetica,sans-Serif" font-size="10.00">+</text>
<text text-anchor="start" x="112" y="-238" font-family="Helvetica,sans-Serif" font-size="10.00">setFrequecy()</text>
<text text-anchor="start" x="99" y="-223" font-family="Helvetica,sans-Serif" font-size="10.00">+</text>
<text text-anchor="start" x="112" y="-223" font-family="Helvetica,sans-Serif" font-size="10.00">setPeriod()</text>
<text text-anchor="start" x="99" y="-208" font-family="Helvetica,sans-Serif" font-size="10.00">+</text>
<text text-anchor="start" x="112" y="-208" font-family="Helvetica,sans-Serif" font-size="10.00">frequencyHz()</text>
<polygon fill="#666666" stroke="#666666" points="95,-308 95,-308 211,-308 211,-308 95,-308"/>
<polygon fill="#666666" stroke="#666666" points="95,-263 95,-263 110,-263 110,-263 95,-263"/>
<polygon fill="#666666" stroke="#666666" points="110,-263 110,-263 211,-263 211,-263 110,-263"/>
<polygon fill="none" stroke="#666666" points="95,-201 95,-325 211,-325 211,-201 95,-201"/>
</a>
</g>
</g>
<!-- Node2&#45;&gt;Node3 -->
<g id="edge3_Node000003_Node000002" class="edge">
<title>Node2&#45;&gt;Node3</title>
<g id="a_edge3_Node000003_Node000002"><a xlink:title=" ">
<path fill="none" stroke="#63b8ff" d="M98.69,-353.17C103.96,-344.52 109.83,-334.88 115.71,-325.22"/>
<polygon fill="none" stroke="#63b8ff" points="95.66,-351.42 93.44,-361.79 101.63,-355.07 95.66,-351.42"/>
</a>
</g>
</g>
<!-- Node3&#45;&gt;Node1 -->
<g id="edge2_Node000001_Node000003" class="edge">
<title>Node3&#45;&gt;Node1</title>
<g id="a_edge2_Node000001_Node000003"><a xlink:title=" ">
<path fill="none" stroke="#63b8ff" d="M129.79,-200.99C125.48,-189.65 120.89,-177.6 116.35,-165.65"/>
<polygon fill="none" stroke="#63b8ff" points="116.28,-165.47 110.4,-161.28 112.01,-154.25 117.88,-158.44 116.28,-165.47"/>
</a>
</g>
<text text-anchor="middle" x="146.5" y="-175" font-family="Helvetica,sans-Serif" font-size="10.00" fill="grey"> &#45;m_timer</text>
</g>
</g>
</svg>
