<?xml version="1.0" encoding="UTF-8" standalone="no"?>
<!DOCTYPE svg PUBLIC "-//W3C//DTD SVG 1.1//EN"
 "http://www.w3.org/Graphics/SVG/1.1/DTD/svg11.dtd">
<!-- Generated by graphviz version 2.43.0 (0)
 -->
<!-- Title: UdpChannel::startUdpWorker Pages: 1 -->
<svg width="1096pt" height="118pt"
 viewBox="0.00 0.00 1096.00 118.00" xmlns="http://www.w3.org/2000/svg" xmlns:xlink="http://www.w3.org/1999/xlink">
<g id="graph0" class="graph" transform="scale(1 1) rotate(0) translate(4 114)">
<title>UdpChannel::startUdpWorker</title>
<!-- Node1 -->
<g id="Node000001" class="node">
<title>Node1</title>
<g id="a_Node000001"><a xlink:title="Instructs the UdpWorker to start listening.">
<polygon fill="#999999" stroke="#666666" points="1088,-48.5 930,-48.5 930,-29.5 1088,-29.5 1088,-48.5"/>
<text text-anchor="middle" x="1009" y="-36.5" font-family="Helvetica,sans-Serif" font-size="10.00">UdpChannel::startUdpWorker</text>
</a>
</g>
</g>
<!-- Node2 -->
<g id="Node000002" class="node">
<title>Node2</title>
<g id="a_Node000002"><a xlink:href="classUdpChannel.html#a0ed1f8d1f6bab17f35b54db9f31ecc05" target="_top" xlink:title="Start the UDP channel and its subsystems.">
<polygon fill="white" stroke="#666666" points="894,-67.5 747,-67.5 747,-48.5 894,-48.5 894,-67.5"/>
<text text-anchor="middle" x="820.5" y="-55.5" font-family="Helvetica,sans-Serif" font-size="10.00">UdpChannel::startEndpoint</text>
</a>
</g>
</g>
<!-- Node1&#45;&gt;Node2 -->
<g id="edge1_Node000001_Node000002" class="edge">
<title>Node1&#45;&gt;Node2</title>
<g id="a_edge1_Node000001_Node000002"><a xlink:title=" ">
<path fill="none" stroke="#63b8ff" d="M919.9,-47.98C911.27,-48.85 902.59,-49.74 894.14,-50.6"/>
<polygon fill="#63b8ff" stroke="#63b8ff" points="920.39,-51.44 929.99,-46.95 919.68,-44.48 920.39,-51.44"/>
</a>
</g>
</g>
<!-- Node10 -->
<g id="Node000010" class="node">
<title>Node10</title>
<g id="a_Node000010"><a xlink:href="classUdpChannel.html#a1d69213eb88b5305686f1ef9ade76e04" target="_top" xlink:title=" ">
<polygon fill="white" stroke="#666666" points="891,-30.5 750,-30.5 750,-11.5 891,-11.5 891,-30.5"/>
<text text-anchor="middle" x="820.5" y="-18.5" font-family="Helvetica,sans-Serif" font-size="10.00">UdpChannel::UdpChannel</text>
</a>
</g>
</g>
<!-- Node1&#45;&gt;Node10 -->
<g id="edge9_Node000001_Node000010" class="edge">
<title>Node1&#45;&gt;Node10</title>
<g id="a_edge9_Node000001_Node000010"><a xlink:title=" ">
<path fill="none" stroke="#63b8ff" d="M919.97,-30.5C910.31,-29.57 900.57,-28.63 891.18,-27.73"/>
<polygon fill="#63b8ff" stroke="#63b8ff" points="919.7,-33.99 929.99,-31.47 920.37,-27.03 919.7,-33.99"/>
</a>
</g>
</g>
<!-- Node3 -->
<g id="Node000003" class="node">
<title>Node3</title>
<g id="a_Node000003"><a xlink:href="classCSVLogger.html#aeb2a3cbfb18c9e190ee9558b45c2ab63" target="_top" xlink:title=" ">
<polygon fill="white" stroke="#666666" points="687,-104.5 580,-104.5 580,-85.5 687,-85.5 687,-104.5"/>
<text text-anchor="middle" x="633.5" y="-92.5" font-family="Helvetica,sans-Serif" font-size="10.00">CSVLogger::logFile</text>
</a>
</g>
</g>
<!-- Node2&#45;&gt;Node3 -->
<g id="edge2_Node000002_Node000003" class="edge">
<title>Node2&#45;&gt;Node3</title>
<g id="a_edge2_Node000002_Node000003"><a xlink:title=" ">
<path fill="none" stroke="#63b8ff" d="M761.92,-69.52C736.35,-74.63 706.62,-80.58 682.3,-85.44"/>
<polygon fill="#63b8ff" stroke="#63b8ff" points="762.74,-72.92 771.86,-67.53 761.37,-66.06 762.74,-72.92"/>
</a>
</g>
</g>
<!-- Node7 -->
<g id="Node000007" class="node">
<title>Node7</title>
<g id="a_Node000007"><a xlink:href="main_8cpp.html#a0ddf1224851353fc92bfbff6f499fa97" target="_top" xlink:title=" ">
<polygon fill="white" stroke="#666666" points="654,-67.5 613,-67.5 613,-48.5 654,-48.5 654,-67.5"/>
<text text-anchor="middle" x="633.5" y="-55.5" font-family="Helvetica,sans-Serif" font-size="10.00">main</text>
</a>
</g>
</g>
<!-- Node2&#45;&gt;Node7 -->
<g id="edge6_Node000002_Node000007" class="edge">
<title>Node2&#45;&gt;Node7</title>
<g id="a_edge6_Node000002_Node000007"><a xlink:title=" ">
<path fill="none" stroke="#63b8ff" d="M736.64,-58C706.14,-58 674.22,-58 654.35,-58"/>
<polygon fill="#63b8ff" stroke="#63b8ff" points="736.91,-61.5 746.91,-58 736.91,-54.5 736.91,-61.5"/>
</a>
</g>
</g>
<!-- Node8 -->
<g id="Node000008" class="node">
<title>Node8</title>
<g id="a_Node000008"><a xlink:href="classUdpChannelParametersViewModel.html#af74d2aa09f73fc1ce13dca3469848fa8" target="_top" xlink:title=" ">
<polygon fill="white" stroke="#666666" points="711,-30 556,-30 556,0 711,0 711,-30"/>
<text text-anchor="start" x="564" y="-18" font-family="Helvetica,sans-Serif" font-size="10.00">UdpChannelParametersView</text>
<text text-anchor="middle" x="633.5" y="-7" font-family="Helvetica,sans-Serif" font-size="10.00">Model::restartEndpoint</text>
</a>
</g>
</g>
<!-- Node2&#45;&gt;Node8 -->
<g id="edge7_Node000002_Node000008" class="edge">
<title>Node2&#45;&gt;Node8</title>
<g id="a_edge7_Node000002_Node000008"><a xlink:title=" ">
<path fill="none" stroke="#63b8ff" d="M768.55,-46.16C747.07,-41.16 721.82,-35.3 699.06,-30.01"/>
<polygon fill="#63b8ff" stroke="#63b8ff" points="767.91,-49.6 778.44,-48.46 769.49,-42.78 767.91,-49.6"/>
</a>
</g>
</g>
<!-- Node4 -->
<g id="Node000004" class="node">
<title>Node4</title>
<g id="a_Node000004"><a xlink:href="classExportMenuViewModel.html#a3384a193ce5445b24d08bb6b6fed94fb" target="_top" xlink:title=" ">
<polygon fill="white" stroke="#666666" points="501.5,-110 372.5,-110 372.5,-80 501.5,-80 501.5,-110"/>
<text text-anchor="start" x="380.5" y="-98" font-family="Helvetica,sans-Serif" font-size="10.00">ExportMenuViewModel</text>
<text text-anchor="middle" x="437" y="-87" font-family="Helvetica,sans-Serif" font-size="10.00">::selectPath</text>
</a>
</g>
</g>
<!-- Node3&#45;&gt;Node4 -->
<g id="edge3_Node000003_Node000004" class="edge">
<title>Node3&#45;&gt;Node4</title>
<g id="a_edge3_Node000003_Node000004"><a xlink:title=" ">
<path fill="none" stroke="#63b8ff" d="M569.75,-95C548,-95 523.6,-95 501.76,-95"/>
<polygon fill="#63b8ff" stroke="#63b8ff" points="569.87,-98.5 579.87,-95 569.87,-91.5 569.87,-98.5"/>
</a>
</g>
</g>
<!-- Node5 -->
<g id="Node000005" class="node">
<title>Node5</title>
<g id="a_Node000005"><a xlink:href="classExportMenu.html#a8c000516d7139497af90f9b173ca0609" target="_top" xlink:title=" ">
<polygon fill="white" stroke="#666666" points="318,-110 176,-110 176,-80 318,-80 318,-110"/>
<text text-anchor="start" x="184" y="-98" font-family="Helvetica,sans-Serif" font-size="10.00">ExportMenu::onFileDialog</text>
<text text-anchor="middle" x="247" y="-87" font-family="Helvetica,sans-Serif" font-size="10.00">WindowRequested</text>
</a>
</g>
</g>
<!-- Node4&#45;&gt;Node5 -->
<g id="edge4_Node000004_Node000005" class="edge">
<title>Node4&#45;&gt;Node5</title>
<g id="a_edge4_Node000004_Node000005"><a xlink:title=" ">
<path fill="none" stroke="#63b8ff" d="M361.96,-95C347.49,-95 332.37,-95 318.04,-95"/>
<polygon fill="#63b8ff" stroke="#63b8ff" points="362.35,-98.5 372.35,-95 362.35,-91.5 362.35,-98.5"/>
</a>
</g>
</g>
<!-- Node6 -->
<g id="Node000006" class="node">
<title>Node6</title>
<g id="a_Node000006"><a xlink:href="classExportMenu.html#aad47eee6721b4f7a152a093c99672ac9" target="_top" xlink:title=" ">
<polygon fill="white" stroke="#666666" points="140,-104.5 0,-104.5 0,-85.5 140,-85.5 140,-104.5"/>
<text text-anchor="middle" x="70" y="-92.5" font-family="Helvetica,sans-Serif" font-size="10.00">ExportMenu::ExportMenu</text>
</a>
</g>
</g>
<!-- Node5&#45;&gt;Node6 -->
<g id="edge5_Node000005_Node000006" class="edge">
<title>Node5&#45;&gt;Node6</title>
<g id="a_edge5_Node000005_Node000006"><a xlink:title=" ">
<path fill="none" stroke="#63b8ff" d="M165.8,-95C157.2,-95 148.5,-95 140.05,-95"/>
<polygon fill="#63b8ff" stroke="#63b8ff" points="165.83,-98.5 175.83,-95 165.83,-91.5 165.83,-98.5"/>
</a>
</g>
</g>
<!-- Node9 -->
<g id="Node000009" class="node">
<title>Node9</title>
<g id="a_Node000009"><a xlink:href="classUdpChannelParametersWidget.html#aef0927083aea2b20033b42465cb2b42f" target="_top" xlink:title=" ">
<polygon fill="white" stroke="#666666" points="520,-30 354,-30 354,0 520,0 520,-30"/>
<text text-anchor="start" x="362" y="-18" font-family="Helvetica,sans-Serif" font-size="10.00">UdpChannelParametersWidget</text>
<text text-anchor="middle" x="437" y="-7" font-family="Helvetica,sans-Serif" font-size="10.00">::applyParameters</text>
</a>
</g>
</g>
<!-- Node8&#45;&gt;Node9 -->
<g id="edge8_Node000008_Node000009" class="edge">
<title>Node8&#45;&gt;Node9</title>
<g id="a_edge8_Node000008_Node000009"><a xlink:title=" ">
<path fill="none" stroke="#63b8ff" d="M545.68,-15C537.24,-15 528.69,-15 520.29,-15"/>
<polygon fill="#63b8ff" stroke="#63b8ff" points="545.91,-18.5 555.91,-15 545.91,-11.5 545.91,-18.5"/>
</a>
</g>
</g>
</g>
</svg>
