<?xml version="1.0" encoding="UTF-8" standalone="no"?>
<!DOCTYPE svg PUBLIC "-//W3C//DTD SVG 1.1//EN"
 "http://www.w3.org/Graphics/SVG/1.1/DTD/svg11.dtd">
<!-- Generated by graphviz version 2.43.0 (0)
 -->
<!-- Title: AckBB Pages: 1 -->
<svg width="89pt" height="157pt"
 viewBox="0.00 0.00 89.00 157.00" xmlns="http://www.w3.org/2000/svg" xmlns:xlink="http://www.w3.org/1999/xlink">
<g id="graph0" class="graph" transform="scale(1 1) rotate(0) translate(4 153)">
<title>AckBB</title>
<!-- Node1 -->
<g id="Node000001" class="node">
<title>Node1</title>
<g id="a_Node000001"><a xlink:title=" ">
<polygon fill="#999999" stroke="transparent" points="72.5,-64 8.5,-64 8.5,0 72.5,0 72.5,-64"/>
<text text-anchor="start" x="24.5" y="-52" font-family="Helvetica,sans-Serif" font-size="10.00">AckBB</text>
<text text-anchor="start" x="12.5" y="-37" font-family="Helvetica,sans-Serif" font-size="10.00">+</text>
<text text-anchor="start" x="25.5" y="-37" font-family="Helvetica,sans-Serif" font-size="10.00">tank</text>
<text text-anchor="start" x="12.5" y="-22" font-family="Helvetica,sans-Serif" font-size="10.00">+</text>
<text text-anchor="start" x="25.5" y="-22" font-family="Helvetica,sans-Serif" font-size="10.00">enlabled</text>
<text text-anchor="start" x="38.5" y="-7" font-family="Helvetica,sans-Serif" font-size="10.00"> </text>
<polygon fill="#666666" stroke="#666666" points="8.5,-47 8.5,-47 72.5,-47 72.5,-47 8.5,-47"/>
<polygon fill="#666666" stroke="#666666" points="8.5,-17 8.5,-17 23.5,-17 23.5,-17 8.5,-17"/>
<polygon fill="#666666" stroke="#666666" points="23.5,-17 23.5,-17 72.5,-17 72.5,-17 23.5,-17"/>
<polygon fill="none" stroke="#666666" points="8.5,0 8.5,-64 72.5,-64 72.5,0 8.5,0"/>
</a>
</g>
</g>
<!-- Node2 -->
<g id="Node000002" class="node">
<title>Node2</title>
<g id="a_Node000002"><a xlink:href="classMessage.html" target="_top" xlink:title=" ">
<polygon fill="white" stroke="transparent" points="81,-149 0,-149 0,-100 81,-100 81,-149"/>
<text text-anchor="start" x="19" y="-136.5" font-family="Helvetica,sans-Serif" font-size="10.00">Message</text>
<text text-anchor="start" x="39" y="-121.5" font-family="Helvetica,sans-Serif" font-size="10.00"> </text>
<text text-anchor="start" x="4.5" y="-106.5" font-family="Helvetica,sans-Serif" font-size="10.00">+</text>
<text text-anchor="start" x="17.5" y="-106.5" font-family="Helvetica,sans-Serif" font-size="10.00">~Message()</text>
<polygon fill="#666666" stroke="#666666" points="0.5,-131.5 0.5,-131.5 81.5,-131.5 81.5,-131.5 0.5,-131.5"/>
<polygon fill="#666666" stroke="#666666" points="0.5,-116.5 0.5,-116.5 81.5,-116.5 81.5,-116.5 0.5,-116.5"/>
<polygon fill="none" stroke="#666666" points="0,-100 0,-149 81,-149 81,-100 0,-100"/>
</a>
</g>
</g>
<!-- Node2&#45;&gt;Node1 -->
<g id="edge1_Node000001_Node000002" class="edge">
<title>Node2&#45;&gt;Node1</title>
<g id="a_edge1_Node000001_Node000002"><a xlink:title=" ">
<path fill="none" stroke="#8b1a1a" d="M40.5,-89.54C40.5,-81.2 40.5,-72.31 40.5,-64.11"/>
<polygon fill="none" stroke="#8b1a1a" points="37,-89.72 40.5,-99.72 44,-89.72 37,-89.72"/>
</a>
</g>
</g>
</g>
</svg>
