<?xml version="1.0" encoding="UTF-8" standalone="no"?>
<!DOCTYPE svg PUBLIC "-//W3C//DTD SVG 1.1//EN"
 "http://www.w3.org/Graphics/SVG/1.1/DTD/svg11.dtd">
<!-- Generated by graphviz version 2.43.0 (0)
 -->
<!-- Title: features/pid/misc/CloseButtonWidget.cpp Pages: 1 -->
<svg width="390pt" height="148pt"
 viewBox="0.00 0.00 389.50 148.00" xmlns="http://www.w3.org/2000/svg" xmlns:xlink="http://www.w3.org/1999/xlink">
<g id="graph0" class="graph" transform="scale(1 1) rotate(0) translate(4 144)">
<title>features/pid/misc/CloseButtonWidget.cpp</title>
<!-- Node1 -->
<g id="Node000001" class="node">
<title>Node1</title>
<g id="a_Node000001"><a xlink:title=" ">
<polygon fill="#999999" stroke="#666666" points="253.5,-140 89.5,-140 89.5,-110 253.5,-110 253.5,-140"/>
<text text-anchor="start" x="97.5" y="-128" font-family="Helvetica,sans-Serif" font-size="10.00">features/pid/misc/CloseButton</text>
<text text-anchor="middle" x="171.5" y="-117" font-family="Helvetica,sans-Serif" font-size="10.00">Widget.cpp</text>
</a>
</g>
</g>
<!-- Node2 -->
<g id="Node000002" class="node">
<title>Node2</title>
<g id="a_Node000002"><a xlink:href="CloseButtonWidget_8h.html" target="_top" xlink:title=" ">
<polygon fill="white" stroke="#666666" points="231,-74 112,-74 112,-55 231,-55 231,-74"/>
<text text-anchor="middle" x="171.5" y="-62" font-family="Helvetica,sans-Serif" font-size="10.00">CloseButtonWidget.h</text>
</a>
</g>
</g>
<!-- Node1&#45;&gt;Node2 -->
<g id="edge1_Node000001_Node000002" class="edge">
<title>Node1&#45;&gt;Node2</title>
<g id="a_edge1_Node000001_Node000002"><a xlink:title=" ">
<path fill="none" stroke="#63b8ff" d="M171.5,-109.84C171.5,-102.21 171.5,-92.7 171.5,-84.45"/>
<polygon fill="#63b8ff" stroke="#63b8ff" points="175,-84.27 171.5,-74.27 168,-84.27 175,-84.27"/>
</a>
</g>
</g>
<!-- Node3 -->
<g id="Node000003" class="node">
<title>Node3</title>
<g id="a_Node000003"><a xlink:title=" ">
<polygon fill="#e0e0e0" stroke="#999999" points="59,-19 0,-19 0,0 59,0 59,-19"/>
<text text-anchor="middle" x="29.5" y="-7" font-family="Helvetica,sans-Serif" font-size="10.00">QWidget</text>
</a>
</g>
</g>
<!-- Node2&#45;&gt;Node3 -->
<g id="edge2_Node000002_Node000003" class="edge">
<title>Node2&#45;&gt;Node3</title>
<g id="a_edge2_Node000002_Node000003"><a xlink:title=" ">
<path fill="none" stroke="#63b8ff" d="M148.69,-54.98C125.33,-46.27 88.8,-32.63 62.33,-22.75"/>
<polygon fill="#63b8ff" stroke="#63b8ff" points="63.32,-19.39 52.73,-19.17 60.87,-25.95 63.32,-19.39"/>
</a>
</g>
</g>
<!-- Node4 -->
<g id="Node000004" class="node">
<title>Node4</title>
<g id="a_Node000004"><a xlink:title=" ">
<polygon fill="#e0e0e0" stroke="#999999" points="157.5,-19 77.5,-19 77.5,0 157.5,0 157.5,-19"/>
<text text-anchor="middle" x="117.5" y="-7" font-family="Helvetica,sans-Serif" font-size="10.00">QPushButton</text>
</a>
</g>
</g>
<!-- Node2&#45;&gt;Node4 -->
<g id="edge3_Node000002_Node000004" class="edge">
<title>Node2&#45;&gt;Node4</title>
<g id="a_edge3_Node000002_Node000004"><a xlink:title=" ">
<path fill="none" stroke="#63b8ff" d="M162.58,-54.75C154.72,-47.03 143.07,-35.6 133.58,-26.28"/>
<polygon fill="#63b8ff" stroke="#63b8ff" points="135.84,-23.6 126.25,-19.09 130.94,-28.59 135.84,-23.6"/>
</a>
</g>
</g>
<!-- Node5 -->
<g id="Node000005" class="node">
<title>Node5</title>
<g id="a_Node000005"><a xlink:title=" ">
<polygon fill="#e0e0e0" stroke="#999999" points="277,-19 176,-19 176,0 277,0 277,-19"/>
<text text-anchor="middle" x="226.5" y="-7" font-family="Helvetica,sans-Serif" font-size="10.00">QCoreApplication</text>
</a>
</g>
</g>
<!-- Node2&#45;&gt;Node5 -->
<g id="edge4_Node000002_Node000005" class="edge">
<title>Node2&#45;&gt;Node5</title>
<g id="a_edge4_Node000002_Node000005"><a xlink:title=" ">
<path fill="none" stroke="#63b8ff" d="M180.58,-54.75C188.59,-47.03 200.46,-35.6 210.12,-26.28"/>
<polygon fill="#63b8ff" stroke="#63b8ff" points="212.81,-28.55 217.59,-19.09 207.96,-23.51 212.81,-28.55"/>
</a>
</g>
</g>
<!-- Node6 -->
<g id="Node000006" class="node">
<title>Node6</title>
<g id="a_Node000006"><a xlink:title=" ">
<polygon fill="#e0e0e0" stroke="#999999" points="381.5,-19 295.5,-19 295.5,0 381.5,0 381.5,-19"/>
<text text-anchor="middle" x="338.5" y="-7" font-family="Helvetica,sans-Serif" font-size="10.00">QMessageBox</text>
</a>
</g>
</g>
<!-- Node2&#45;&gt;Node6 -->
<g id="edge5_Node000002_Node000006" class="edge">
<title>Node2&#45;&gt;Node6</title>
<g id="a_edge5_Node000002_Node000006"><a xlink:title=" ">
<path fill="none" stroke="#63b8ff" d="M198.33,-54.98C226.37,-46.09 270.55,-32.07 301.8,-22.15"/>
<polygon fill="#63b8ff" stroke="#63b8ff" points="302.99,-25.44 311.46,-19.08 300.87,-18.77 302.99,-25.44"/>
</a>
</g>
</g>
</g>
</svg>
