<?xml version="1.0" encoding="UTF-8" standalone="no"?>
<!DOCTYPE svg PUBLIC "-//W3C//DTD SVG 1.1//EN"
 "http://www.w3.org/Graphics/SVG/1.1/DTD/svg11.dtd">
<!-- Generated by graphviz version 2.43.0 (0)
 -->
<!-- Title: features/test/frames/countdown_clock/CountDownClockViewModel.h Pages: 1 -->
<svg width="1004pt" height="126pt"
 viewBox="0.00 0.00 1004.00 126.00" xmlns="http://www.w3.org/2000/svg" xmlns:xlink="http://www.w3.org/1999/xlink">
<g id="graph0" class="graph" transform="scale(1 1) rotate(0) translate(4 122)">
<title>features/test/frames/countdown_clock/CountDownClockViewModel.h</title>
<!-- Node1 -->
<g id="Node000001" class="node">
<title>Node1</title>
<g id="a_Node000001"><a xlink:title=" ">
<polygon fill="#999999" stroke="#666666" points="560,-118 370,-118 370,-77 560,-77 560,-118"/>
<text text-anchor="start" x="378" y="-106" font-family="Helvetica,sans-Serif" font-size="10.00">features/test/frames</text>
<text text-anchor="start" x="378" y="-95" font-family="Helvetica,sans-Serif" font-size="10.00">/countdown_clock/CountDownClock</text>
<text text-anchor="middle" x="465" y="-84" font-family="Helvetica,sans-Serif" font-size="10.00">ViewModel.h</text>
</a>
</g>
</g>
<!-- Node2 -->
<g id="Node000002" class="node">
<title>Node2</title>
<g id="a_Node000002"><a xlink:href="TestTabFactory_8cpp.html" target="_top" xlink:title=" ">
<polygon fill="white" stroke="#666666" points="172,-30 0,-30 0,-11 172,-11 172,-30"/>
<text text-anchor="middle" x="86" y="-18" font-family="Helvetica,sans-Serif" font-size="10.00">features/test/TestTabFactory.cpp</text>
</a>
</g>
</g>
<!-- Node1&#45;&gt;Node2 -->
<g id="edge1_Node000001_Node000002" class="edge">
<title>Node1&#45;&gt;Node2</title>
<g id="a_edge1_Node000001_Node000002"><a xlink:title=" ">
<path fill="none" stroke="#63b8ff" d="M360.11,-76.25C306.5,-65.83 240.24,-52.87 181,-41 163.34,-37.46 143.84,-33.47 127.13,-30.03"/>
<polygon fill="#63b8ff" stroke="#63b8ff" points="359.48,-79.69 369.97,-78.16 360.82,-72.82 359.48,-79.69"/>
</a>
</g>
</g>
<!-- Node3 -->
<g id="Node000003" class="node">
<title>Node3</title>
<g id="a_Node000003"><a xlink:href="TestTabView_8cpp.html" target="_top" xlink:title=" ">
<polygon fill="white" stroke="#666666" points="351.5,-30 190.5,-30 190.5,-11 351.5,-11 351.5,-30"/>
<text text-anchor="middle" x="271" y="-18" font-family="Helvetica,sans-Serif" font-size="10.00">features/test/TestTabView.cpp</text>
</a>
</g>
</g>
<!-- Node1&#45;&gt;Node3 -->
<g id="edge2_Node000001_Node000003" class="edge">
<title>Node1&#45;&gt;Node3</title>
<g id="a_edge2_Node000001_Node000003"><a xlink:title=" ">
<path fill="none" stroke="#63b8ff" d="M405.1,-73.34C367.16,-58.67 320.3,-40.56 293.21,-30.09"/>
<polygon fill="#63b8ff" stroke="#63b8ff" points="403.95,-76.65 414.54,-76.99 406.47,-70.12 403.95,-76.65"/>
</a>
</g>
</g>
<!-- Node4 -->
<g id="Node000004" class="node">
<title>Node4</title>
<g id="a_Node000004"><a xlink:href="CountDownClockViewModel_8cpp.html" target="_top" xlink:title=" ">
<polygon fill="white" stroke="#666666" points="560,-41 370,-41 370,0 560,0 560,-41"/>
<text text-anchor="start" x="378" y="-29" font-family="Helvetica,sans-Serif" font-size="10.00">features/test/frames</text>
<text text-anchor="start" x="378" y="-18" font-family="Helvetica,sans-Serif" font-size="10.00">/countdown_clock/CountDownClock</text>
<text text-anchor="middle" x="465" y="-7" font-family="Helvetica,sans-Serif" font-size="10.00">ViewModel.cpp</text>
</a>
</g>
</g>
<!-- Node1&#45;&gt;Node4 -->
<g id="edge3_Node000001_Node000004" class="edge">
<title>Node1&#45;&gt;Node4</title>
<g id="a_edge3_Node000001_Node000004"><a xlink:title=" ">
<path fill="none" stroke="#63b8ff" d="M465,-66.69C465,-58.08 465,-48.9 465,-41.07"/>
<polygon fill="#63b8ff" stroke="#63b8ff" points="461.5,-66.79 465,-76.79 468.5,-66.79 461.5,-66.79"/>
</a>
</g>
</g>
<!-- Node5 -->
<g id="Node000005" class="node">
<title>Node5</title>
<g id="a_Node000005"><a xlink:href="CountdownClockWidget_8cpp.html" target="_top" xlink:title=" ">
<polygon fill="white" stroke="#666666" points="766,-41 578,-41 578,0 766,0 766,-41"/>
<text text-anchor="start" x="586" y="-29" font-family="Helvetica,sans-Serif" font-size="10.00">features/test/frames</text>
<text text-anchor="start" x="586" y="-18" font-family="Helvetica,sans-Serif" font-size="10.00">/countdown_clock/CountdownClock</text>
<text text-anchor="middle" x="672" y="-7" font-family="Helvetica,sans-Serif" font-size="10.00">Widget.cpp</text>
</a>
</g>
</g>
<!-- Node1&#45;&gt;Node5 -->
<g id="edge4_Node000001_Node000005" class="edge">
<title>Node1&#45;&gt;Node5</title>
<g id="a_edge4_Node000001_Node000005"><a xlink:title=" ">
<path fill="none" stroke="#63b8ff" d="M528.37,-73.54C557.06,-63.15 590.61,-50.99 618.06,-41.04"/>
<polygon fill="#63b8ff" stroke="#63b8ff" points="527.06,-70.29 518.85,-76.99 529.44,-76.87 527.06,-70.29"/>
</a>
</g>
</g>
<!-- Node6 -->
<g id="Node000006" class="node">
<title>Node6</title>
<g id="a_Node000006"><a xlink:href="AppViewModels_8cpp.html" target="_top" xlink:title=" ">
<polygon fill="white" stroke="#666666" points="996,-30 784,-30 784,-11 996,-11 996,-30"/>
<text text-anchor="middle" x="890" y="-18" font-family="Helvetica,sans-Serif" font-size="10.00">mvvm/viewmodels/AppViewModels.cpp</text>
</a>
</g>
</g>
<!-- Node1&#45;&gt;Node6 -->
<g id="edge5_Node000001_Node000006" class="edge">
<title>Node1&#45;&gt;Node6</title>
<g id="a_edge5_Node000001_Node000006"><a xlink:title=" ">
<path fill="none" stroke="#63b8ff" d="M569.99,-77.97C656.73,-62.66 775.92,-41.63 841.62,-30.04"/>
<polygon fill="#63b8ff" stroke="#63b8ff" points="569.35,-74.53 560.11,-79.72 570.57,-81.42 569.35,-74.53"/>
</a>
</g>
</g>
</g>
</svg>
