<?xml version="1.0" encoding="UTF-8" standalone="no"?>
<!DOCTYPE svg PUBLIC "-//W3C//DTD SVG 1.1//EN"
 "http://www.w3.org/Graphics/SVG/1.1/DTD/svg11.dtd">
<!-- Generated by graphviz version 2.43.0 (0)
 -->
<!-- Title: features/test/frames/countdown_clock/CountDownClockViewModel.cpp Pages: 1 -->
<!--zoomable 412 -->

<svg id="main" version="1.1" xmlns="http://www.w3.org/2000/svg" xmlns:xlink="http://www.w3.org/1999/xlink" xml:space="preserve" onload="init(evt)">
<style type="text/css"><![CDATA[
.node, .edge {opacity: 0.7;}
.node.selected, .edge.selected {opacity: 1;}
.edge:hover path { stroke: red; }
.edge:hover polygon { stroke: red; fill: red; }
]]></style>

<defs>
  <circle id="rim" cx="0" cy="0" r="7"/>
  <circle id="rim2" cx="0" cy="0" r="3.5"/>
  <g id="zoomPlus">
    <use xlink:href="#rim" fill="#404040"><set attributeName="fill" to="#808080" begin="zoomplus.mouseover" end="zoomplus.mouseout"/></use>
    <path d="M-4,0h8M0,-4v8" fill="none" stroke="white" stroke-width="1.5" pointer-events="none"/>
  </g>
  <g id="zoomMin">
    <use xlink:href="#rim" fill="#404040"><set attributeName="fill" to="#808080" begin="zoomminus.mouseover" end="zoomminus.mouseout"/></use>
    <path d="M-4,0h8" fill="none" stroke="white" stroke-width="1.5" pointer-events="none"/>
  </g>
  <g id="arrowUp" transform="translate(30 24)">
    <use xlink:href="#rim"/>
    <path pointer-events="none" fill="none" stroke="white" stroke-width="1.5" d="M0,-3.0v7 M-2.5,-0.5L0,-3.0L2.5,-0.5"/>
  </g>
  <g id="arrowRight" transform="rotate(90) translate(36 -43)">
    <use xlink:href="#rim"/>
    <path pointer-events="none" fill="none" stroke="white" stroke-width="1.5" d="M0,-3.0v7 M-2.5,-0.5L0,-3.0L2.5,-0.5"/>
  </g>
  <g id="arrowDown" transform="rotate(180) translate(-30 -48)">
    <use xlink:href="#rim"/>
    <path pointer-events="none" fill="none" stroke="white" stroke-width="1.5" d="M0,-3.0v7 M-2.5,-0.5L0,-3.0L2.5,-0.5"/>
  </g>
  <g id="arrowLeft" transform="rotate(270) translate(-36 17)">
    <use xlink:href="#rim"/>
    <path pointer-events="none" fill="none" stroke="white" stroke-width="1.5" d="M0,-3.0v7 M-2.5,-0.5L0,-3.0L2.5,-0.5"/>
  </g>
  <g id="resetDef">
    <use xlink:href="#rim2" fill="#404040"><set attributeName="fill" to="#808080" begin="reset.mouseover" end="reset.mouseout"/></use>
  </g>
</defs>
<script type="application/ecmascript">
var viewWidth = 966;
var viewHeight = 412;
var sectionId = 'dynsection-0';
</script>
<script type="application/ecmascript" xlink:href="svg.min.js"/>
<svg id="graph" class="graph">
<g id="viewport">
<title>features/test/frames/countdown_clock/CountDownClockViewModel.cpp</title>
<!-- Node1 -->
<g id="Node000001" class="node">
<title>Node1</title>
<g id="a_Node000001"><a xlink:title=" ">
<polygon fill="#999999" stroke="#666666" points="703.5,-404 513.5,-404 513.5,-363 703.5,-363 703.5,-404"/>
<text text-anchor="start" x="521.5" y="-392" font-family="Helvetica,sans-Serif" font-size="10.00">features/test/frames</text>
<text text-anchor="start" x="521.5" y="-381" font-family="Helvetica,sans-Serif" font-size="10.00">/countdown_clock/CountDownClock</text>
<text text-anchor="middle" x="608.5" y="-370" font-family="Helvetica,sans-Serif" font-size="10.00">ViewModel.cpp</text>
</a>
</g>
</g>
<!-- Node2 -->
<g id="Node000002" class="node">
<title>Node2</title>
<g id="a_Node000002"><a xlink:href="CountDownClockViewModel_8h.html" target="_top" xlink:title=" ">
<polygon fill="white" stroke="#666666" points="958,-321.5 795,-321.5 795,-302.5 958,-302.5 958,-321.5"/>
<text text-anchor="middle" x="876.5" y="-309.5" font-family="Helvetica,sans-Serif" font-size="10.00">CountDownClockViewModel.h</text>
</a>
</g>
</g>
<!-- Node1&#45;&gt;Node2 -->
<g id="edge1_Node000001_Node000002" class="edge">
<title>Node1&#45;&gt;Node2</title>
<g id="a_edge1_Node000001_Node000002"><a xlink:title=" ">
<path fill="none" stroke="#63b8ff" d="M683.87,-362.96C732.39,-350.37 793.7,-334.47 833.95,-324.03"/>
<polygon fill="#63b8ff" stroke="#63b8ff" points="834.91,-327.4 843.71,-321.5 833.15,-320.63 834.91,-327.4"/>
</a>
</g>
</g>
<!-- Node4 -->
<g id="Node000004" class="node">
<title>Node4</title>
<g id="a_Node000004"><a xlink:href="Messages_8h.html" target="_top" xlink:title=" ">
<polygon fill="white" stroke="#666666" points="299,-85 196,-85 196,-55 299,-55 299,-85"/>
<text text-anchor="start" x="204" y="-73" font-family="Helvetica,sans-Serif" font-size="10.00">src/core/Protocols</text>
<text text-anchor="middle" x="247.5" y="-62" font-family="Helvetica,sans-Serif" font-size="10.00">/Messages.h</text>
</a>
</g>
</g>
<!-- Node1&#45;&gt;Node4 -->
<g id="edge3_Node000001_Node000004" class="edge">
<title>Node1&#45;&gt;Node4</title>
<g id="a_edge3_Node000001_Node000004"><a xlink:title=" ">
<path fill="none" stroke="#63b8ff" d="M513.44,-367.38C406.79,-347.66 248.5,-308.9 248.5,-252.5 248.5,-252.5 248.5,-252.5 248.5,-195.5 248.5,-160.67 248.1,-120.35 247.81,-95.26"/>
<polygon fill="#63b8ff" stroke="#63b8ff" points="251.31,-95.15 247.69,-85.19 244.31,-95.23 251.31,-95.15"/>
</a>
</g>
</g>
<!-- Node12 -->
<g id="Node000012" class="node">
<title>Node12</title>
<g id="a_Node000012"><a xlink:href="UdpChannel_8h.html" target="_top" xlink:title="UDP Communicaton channel between the microcontroler and the HMI.">
<polygon fill="white" stroke="#666666" points="685,-327 532,-327 532,-297 685,-297 685,-327"/>
<text text-anchor="start" x="540" y="-315" font-family="Helvetica,sans-Serif" font-size="10.00">src/features/communication</text>
<text text-anchor="middle" x="608.5" y="-304" font-family="Helvetica,sans-Serif" font-size="10.00">/udp/UdpChannel.h</text>
</a>
</g>
</g>
<!-- Node1&#45;&gt;Node12 -->
<g id="edge12_Node000001_Node000012" class="edge">
<title>Node1&#45;&gt;Node12</title>
<g id="a_edge12_Node000001_Node000012"><a xlink:title=" ">
<path fill="none" stroke="#63b8ff" d="M608.5,-362.77C608.5,-354.85 608.5,-345.63 608.5,-337.3"/>
<polygon fill="#63b8ff" stroke="#63b8ff" points="612,-337.04 608.5,-327.04 605,-337.04 612,-337.04"/>
</a>
</g>
</g>
<!-- Node3 -->
<g id="Node000003" class="node">
<title>Node3</title>
<g id="a_Node000003"><a xlink:title=" ">
<polygon fill="#e0e0e0" stroke="#999999" points="933.5,-19 877.5,-19 877.5,0 933.5,0 933.5,-19"/>
<text text-anchor="middle" x="905.5" y="-7" font-family="Helvetica,sans-Serif" font-size="10.00">QObject</text>
</a>
</g>
</g>
<!-- Node2&#45;&gt;Node3 -->
<g id="edge2_Node000002_Node000003" class="edge">
<title>Node2&#45;&gt;Node3</title>
<g id="a_edge2_Node000002_Node000003"><a xlink:title=" ">
<path fill="none" stroke="#63b8ff" d="M886.1,-302.34C904.63,-284.62 943.5,-242.12 943.5,-197.5 943.5,-197.5 943.5,-197.5 943.5,-135 943.5,-95.63 925.9,-52.18 914.66,-28.45"/>
<polygon fill="#63b8ff" stroke="#63b8ff" points="917.71,-26.71 910.16,-19.28 911.42,-29.8 917.71,-26.71"/>
</a>
</g>
</g>
<!-- Node4&#45;&gt;Node3 -->
<g id="edge10_Node000004_Node000003" class="edge">
<title>Node4&#45;&gt;Node3</title>
<g id="a_edge10_Node000004_Node000003"><a xlink:title=" ">
<path fill="none" stroke="#63b8ff" d="M299.13,-64.41C426.8,-53.06 755.08,-23.87 867.26,-13.9"/>
<polygon fill="#63b8ff" stroke="#63b8ff" points="867.77,-17.37 877.42,-13 867.15,-10.4 867.77,-17.37"/>
</a>
</g>
</g>
<!-- Node5 -->
<g id="Node000005" class="node">
<title>Node5</title>
<g id="a_Node000005"><a xlink:title=" ">
<polygon fill="#e0e0e0" stroke="#999999" points="114,-19 63,-19 63,0 114,0 114,-19"/>
<text text-anchor="middle" x="88.5" y="-7" font-family="Helvetica,sans-Serif" font-size="10.00">variant</text>
</a>
</g>
</g>
<!-- Node4&#45;&gt;Node5 -->
<g id="edge4_Node000004_Node000005" class="edge">
<title>Node4&#45;&gt;Node5</title>
<g id="a_edge4_Node000004_Node000005"><a xlink:title=" ">
<path fill="none" stroke="#63b8ff" d="M209.42,-54.99C182.65,-45.14 147.2,-32.1 121.61,-22.68"/>
<polygon fill="#63b8ff" stroke="#63b8ff" points="122.57,-19.31 111.98,-19.14 120.16,-25.88 122.57,-19.31"/>
</a>
</g>
</g>
<!-- Node6 -->
<g id="Node000006" class="node">
<title>Node6</title>
<g id="a_Node000006"><a xlink:title=" ">
<polygon fill="#e0e0e0" stroke="#999999" points="630.5,-19 580.5,-19 580.5,0 630.5,0 630.5,-19"/>
<text text-anchor="middle" x="605.5" y="-7" font-family="Helvetica,sans-Serif" font-size="10.00">cstdint</text>
</a>
</g>
</g>
<!-- Node4&#45;&gt;Node6 -->
<g id="edge5_Node000004_Node000006" class="edge">
<title>Node4&#45;&gt;Node6</title>
<g id="a_edge5_Node000004_Node000006"><a xlink:title=" ">
<path fill="none" stroke="#63b8ff" d="M299.17,-60.56C373.09,-48.48 507.08,-26.58 570.46,-16.23"/>
<polygon fill="#63b8ff" stroke="#63b8ff" points="571.07,-19.67 580.37,-14.61 569.94,-12.76 571.07,-19.67"/>
</a>
</g>
</g>
<!-- Node7 -->
<g id="Node000007" class="node">
<title>Node7</title>
<g id="a_Node000007"><a xlink:title=" ">
<polygon fill="#e0e0e0" stroke="#999999" points="405.5,-19 361.5,-19 361.5,0 405.5,0 405.5,-19"/>
<text text-anchor="middle" x="383.5" y="-7" font-family="Helvetica,sans-Serif" font-size="10.00">string</text>
</a>
</g>
</g>
<!-- Node4&#45;&gt;Node7 -->
<g id="edge6_Node000004_Node000007" class="edge">
<title>Node4&#45;&gt;Node7</title>
<g id="a_edge6_Node000004_Node000007"><a xlink:title=" ">
<path fill="none" stroke="#63b8ff" d="M280.08,-54.99C302.56,-45.31 332.22,-32.56 354.01,-23.18"/>
<polygon fill="#63b8ff" stroke="#63b8ff" points="355.61,-26.31 363.42,-19.14 352.85,-19.88 355.61,-26.31"/>
</a>
</g>
</g>
<!-- Node8 -->
<g id="Node000008" class="node">
<title>Node8</title>
<g id="a_Node000008"><a xlink:title=" ">
<polygon fill="#e0e0e0" stroke="#999999" points="205,-19 132,-19 132,0 205,0 205,-19"/>
<text text-anchor="middle" x="168.5" y="-7" font-family="Helvetica,sans-Serif" font-size="10.00">QByteArray</text>
</a>
</g>
</g>
<!-- Node4&#45;&gt;Node8 -->
<g id="edge7_Node000004_Node000008" class="edge">
<title>Node4&#45;&gt;Node8</title>
<g id="a_edge7_Node000004_Node000008"><a xlink:title=" ">
<path fill="none" stroke="#63b8ff" d="M228.38,-54.84C216.32,-45.91 200.79,-34.41 188.56,-25.35"/>
<polygon fill="#63b8ff" stroke="#63b8ff" points="190.46,-22.4 180.34,-19.27 186.29,-28.03 190.46,-22.4"/>
</a>
</g>
</g>
<!-- Node9 -->
<g id="Node000009" class="node">
<title>Node9</title>
<g id="a_Node000009"><a xlink:title=" ">
<polygon fill="#e0e0e0" stroke="#999999" points="272,-19 223,-19 223,0 272,0 272,-19"/>
<text text-anchor="middle" x="247.5" y="-7" font-family="Helvetica,sans-Serif" font-size="10.00">QHash</text>
</a>
</g>
</g>
<!-- Node4&#45;&gt;Node9 -->
<g id="edge8_Node000004_Node000009" class="edge">
<title>Node4&#45;&gt;Node9</title>
<g id="a_edge8_Node000004_Node000009"><a xlink:title=" ">
<path fill="none" stroke="#63b8ff" d="M247.5,-54.84C247.5,-47.21 247.5,-37.7 247.5,-29.45"/>
<polygon fill="#63b8ff" stroke="#63b8ff" points="251,-29.27 247.5,-19.27 244,-29.27 251,-29.27"/>
</a>
</g>
</g>
<!-- Node10 -->
<g id="Node000010" class="node">
<title>Node10</title>
<g id="a_Node000010"><a xlink:title=" ">
<polygon fill="#e0e0e0" stroke="#999999" points="343,-19 290,-19 290,0 343,0 343,-19"/>
<text text-anchor="middle" x="316.5" y="-7" font-family="Helvetica,sans-Serif" font-size="10.00">QString</text>
</a>
</g>
</g>
<!-- Node4&#45;&gt;Node10 -->
<g id="edge9_Node000004_Node000010" class="edge">
<title>Node4&#45;&gt;Node10</title>
<g id="a_edge9_Node000004_Node000010"><a xlink:title=" ">
<path fill="none" stroke="#63b8ff" d="M264.2,-54.84C274.53,-46.09 287.78,-34.85 298.36,-25.88"/>
<polygon fill="#63b8ff" stroke="#63b8ff" points="300.8,-28.4 306.16,-19.27 296.27,-23.06 300.8,-28.4"/>
</a>
</g>
</g>
<!-- Node11 -->
<g id="Node000011" class="node">
<title>Node11</title>
<g id="a_Node000011"><a xlink:title=" ">
<polygon fill="#e0e0e0" stroke="#999999" points="45,-19 0,-19 0,0 45,0 45,-19"/>
<text text-anchor="middle" x="22.5" y="-7" font-family="Helvetica,sans-Serif" font-size="10.00">QMap</text>
</a>
</g>
</g>
<!-- Node4&#45;&gt;Node11 -->
<g id="edge11_Node000004_Node000011" class="edge">
<title>Node4&#45;&gt;Node11</title>
<g id="a_edge11_Node000004_Node000011"><a xlink:title=" ">
<path fill="none" stroke="#63b8ff" d="M195.98,-55.95C159.14,-46.57 108.14,-33.47 55.1,-19.4"/>
<polygon fill="#63b8ff" stroke="#63b8ff" points="55.74,-15.95 45.18,-16.76 53.94,-22.71 55.74,-15.95"/>
</a>
</g>
</g>
<!-- Node12&#45;&gt;Node3 -->
<g id="edge13_Node000012_Node000003" class="edge">
<title>Node12&#45;&gt;Node3</title>
<g id="a_edge13_Node000012_Node000003"><a xlink:title=" ">
<path fill="none" stroke="#63b8ff" d="M685.37,-297.3C773.37,-279.38 905.5,-244.63 905.5,-197.5 905.5,-197.5 905.5,-197.5 905.5,-135 905.5,-97.49 905.5,-53.63 905.5,-29.26"/>
<polygon fill="#63b8ff" stroke="#63b8ff" points="909,-29.25 905.5,-19.25 902,-29.25 909,-29.25"/>
</a>
</g>
</g>
<!-- Node12&#45;&gt;Node4 -->
<g id="edge16_Node000012_Node000004" class="edge">
<title>Node12&#45;&gt;Node4</title>
<g id="a_edge16_Node000012_Node000004"><a xlink:title=" ">
<path fill="none" stroke="#63b8ff" d="M536.79,-296.97C478.57,-282.51 397.27,-254.97 341.5,-206 304.48,-173.49 274.67,-123.5 259.16,-94.34"/>
<polygon fill="#63b8ff" stroke="#63b8ff" points="262.18,-92.56 254.46,-85.31 255.97,-95.8 262.18,-92.56"/>
</a>
</g>
</g>
<!-- Node13 -->
<g id="Node000013" class="node">
<title>Node13</title>
<g id="a_Node000013"><a xlink:title=" ">
<polygon fill="#e0e0e0" stroke="#999999" points="514.5,-261 456.5,-261 456.5,-242 514.5,-242 514.5,-261"/>
<text text-anchor="middle" x="485.5" y="-249" font-family="Helvetica,sans-Serif" font-size="10.00">QThread</text>
</a>
</g>
</g>
<!-- Node12&#45;&gt;Node13 -->
<g id="edge14_Node000012_Node000013" class="edge">
<title>Node12&#45;&gt;Node13</title>
<g id="a_edge14_Node000012_Node000013"><a xlink:title=" ">
<path fill="none" stroke="#63b8ff" d="M579.04,-296.99C558.88,-287.4 532.36,-274.79 512.7,-265.44"/>
<polygon fill="#63b8ff" stroke="#63b8ff" points="514.2,-262.27 503.66,-261.14 511.19,-268.6 514.2,-262.27"/>
</a>
</g>
</g>
<!-- Node14 -->
<g id="Node000014" class="node">
<title>Node14</title>
<g id="a_Node000014"><a xlink:title=" ">
<polygon fill="#e0e0e0" stroke="#999999" points="778.5,-261 702.5,-261 702.5,-242 778.5,-242 778.5,-261"/>
<text text-anchor="middle" x="740.5" y="-249" font-family="Helvetica,sans-Serif" font-size="10.00">QUdpSocket</text>
</a>
</g>
</g>
<!-- Node12&#45;&gt;Node14 -->
<g id="edge15_Node000012_Node000014" class="edge">
<title>Node12&#45;&gt;Node14</title>
<g id="a_edge15_Node000012_Node000014"><a xlink:title=" ">
<path fill="none" stroke="#63b8ff" d="M640.12,-296.99C661.85,-287.36 690.47,-274.67 711.59,-265.31"/>
<polygon fill="#63b8ff" stroke="#63b8ff" points="713.28,-268.39 721.01,-261.14 710.45,-261.99 713.28,-268.39"/>
</a>
</g>
</g>
<!-- Node15 -->
<g id="Node000015" class="node">
<title>Node15</title>
<g id="a_Node000015"><a xlink:href="UdpLogger_8h.html" target="_top" xlink:title=" ">
<polygon fill="white" stroke="#666666" points="684,-261 533,-261 533,-242 684,-242 684,-261"/>
<text text-anchor="middle" x="608.5" y="-249" font-family="Helvetica,sans-Serif" font-size="10.00">frames_logger/UdpLogger.h</text>
</a>
</g>
</g>
<!-- Node12&#45;&gt;Node15 -->
<g id="edge17_Node000012_Node000015" class="edge">
<title>Node12&#45;&gt;Node15</title>
<g id="a_edge17_Node000012_Node000015"><a xlink:title=" ">
<path fill="none" stroke="#63b8ff" d="M608.5,-296.84C608.5,-289.21 608.5,-279.7 608.5,-271.45"/>
<polygon fill="#63b8ff" stroke="#63b8ff" points="612,-271.27 608.5,-261.27 605,-271.27 612,-271.27"/>
</a>
</g>
</g>
<!-- Node15&#45;&gt;Node6 -->
<g id="edge33_Node000015_Node000006" class="edge">
<title>Node15&#45;&gt;Node6</title>
<g id="a_edge33_Node000015_Node000006"><a xlink:title=" ">
<path fill="none" stroke="#63b8ff" d="M672.37,-241.99C757.72,-227.7 893.33,-193.06 848.5,-121 803.19,-48.17 696.39,-22.89 640.69,-14.48"/>
<polygon fill="#63b8ff" stroke="#63b8ff" points="640.98,-10.98 630.59,-13.05 640,-17.91 640.98,-10.98"/>
</a>
</g>
</g>
<!-- Node16 -->
<g id="Node000016" class="node">
<title>Node16</title>
<g id="a_Node000016"><a xlink:href="RingBuffer_8h.html" target="_top" xlink:title=" ">
<polygon fill="white" stroke="#666666" points="739.5,-206 663.5,-206 663.5,-187 739.5,-187 739.5,-206"/>
<text text-anchor="middle" x="701.5" y="-194" font-family="Helvetica,sans-Serif" font-size="10.00">RingBuffer.h</text>
</a>
</g>
</g>
<!-- Node15&#45;&gt;Node16 -->
<g id="edge18_Node000015_Node000016" class="edge">
<title>Node15&#45;&gt;Node16</title>
<g id="a_edge18_Node000015_Node000016"><a xlink:title=" ">
<path fill="none" stroke="#63b8ff" d="M623.44,-241.98C638,-233.69 660.37,-220.94 677.43,-211.22"/>
<polygon fill="#63b8ff" stroke="#63b8ff" points="679.33,-214.16 686.29,-206.17 675.86,-208.08 679.33,-214.16"/>
</a>
</g>
</g>
<!-- Node19 -->
<g id="Node000019" class="node">
<title>Node19</title>
<g id="a_Node000019"><a xlink:title=" ">
<polygon fill="#e0e0e0" stroke="#999999" points="839.5,-145.5 789.5,-145.5 789.5,-126.5 839.5,-126.5 839.5,-145.5"/>
<text text-anchor="middle" x="814.5" y="-133.5" font-family="Helvetica,sans-Serif" font-size="10.00">atomic</text>
</a>
</g>
</g>
<!-- Node15&#45;&gt;Node19 -->
<g id="edge32_Node000015_Node000019" class="edge">
<title>Node15&#45;&gt;Node19</title>
<g id="a_edge32_Node000015_Node000019"><a xlink:title=" ">
<path fill="none" stroke="#63b8ff" d="M654.47,-241.99C683.06,-235.26 719.72,-223.95 748.5,-206 770.6,-192.21 790.44,-169.35 802.47,-153.75"/>
<polygon fill="#63b8ff" stroke="#63b8ff" points="805.43,-155.64 808.6,-145.53 799.82,-151.45 805.43,-155.64"/>
</a>
</g>
</g>
<!-- Node21 -->
<g id="Node000021" class="node">
<title>Node21</title>
<g id="a_Node000021"><a xlink:href="Logger_8h.html" target="_top" xlink:title=" ">
<polygon fill="white" stroke="#666666" points="503.5,-151 393.5,-151 393.5,-121 503.5,-121 503.5,-151"/>
<text text-anchor="start" x="401.5" y="-139" font-family="Helvetica,sans-Serif" font-size="10.00">src/services/Logger</text>
<text text-anchor="middle" x="448.5" y="-128" font-family="Helvetica,sans-Serif" font-size="10.00">/Logger.h</text>
</a>
</g>
</g>
<!-- Node15&#45;&gt;Node21 -->
<g id="edge37_Node000015_Node000021" class="edge">
<title>Node15&#45;&gt;Node21</title>
<g id="a_edge37_Node000015_Node000021"><a xlink:title=" ">
<path fill="none" stroke="#63b8ff" d="M613.15,-241.71C619.45,-228.47 628.59,-203.21 616.5,-187 609.99,-178.27 558.21,-163.66 513.84,-152.49"/>
<polygon fill="#63b8ff" stroke="#63b8ff" points="514.47,-149.04 503.92,-150.01 512.78,-155.83 514.47,-149.04"/>
</a>
</g>
</g>
<!-- Node23 -->
<g id="Node000023" class="node">
<title>Node23</title>
<g id="a_Node000023"><a xlink:href="Writer_8h.html" target="_top" xlink:title=" ">
<polygon fill="white" stroke="#666666" points="405,-206 350,-206 350,-187 405,-187 405,-206"/>
<text text-anchor="middle" x="377.5" y="-194" font-family="Helvetica,sans-Serif" font-size="10.00">Writer.h</text>
</a>
</g>
</g>
<!-- Node15&#45;&gt;Node23 -->
<g id="edge27_Node000015_Node000023" class="edge">
<title>Node15&#45;&gt;Node23</title>
<g id="a_edge27_Node000015_Node000023"><a xlink:title=" ">
<path fill="none" stroke="#63b8ff" d="M571.31,-241.97C534.31,-233.49 475.66,-220.04 415.45,-206.22"/>
<polygon fill="#63b8ff" stroke="#63b8ff" points="415.91,-202.73 405.38,-203.91 414.34,-209.55 415.91,-202.73"/>
</a>
</g>
</g>
<!-- Node24 -->
<g id="Node000024" class="node">
<title>Node24</title>
<g id="a_Node000024"><a xlink:title=" ">
<polygon fill="#e0e0e0" stroke="#999999" points="471.5,-206 423.5,-206 423.5,-187 471.5,-187 471.5,-206"/>
<text text-anchor="middle" x="447.5" y="-194" font-family="Helvetica,sans-Serif" font-size="10.00">thread</text>
</a>
</g>
</g>
<!-- Node15&#45;&gt;Node24 -->
<g id="edge34_Node000015_Node000024" class="edge">
<title>Node15&#45;&gt;Node24</title>
<g id="a_edge34_Node000015_Node000024"><a xlink:title=" ">
<path fill="none" stroke="#63b8ff" d="M582.63,-241.98C555.16,-232.94 511.62,-218.61 481.41,-208.66"/>
<polygon fill="#63b8ff" stroke="#63b8ff" points="482.32,-205.28 471.72,-205.47 480.13,-211.93 482.32,-205.28"/>
</a>
</g>
</g>
<!-- Node25 -->
<g id="Node000025" class="node">
<title>Node25</title>
<g id="a_Node000025"><a xlink:title=" ">
<polygon fill="#e0e0e0" stroke="#999999" points="539.5,-206 489.5,-206 489.5,-187 539.5,-187 539.5,-206"/>
<text text-anchor="middle" x="514.5" y="-194" font-family="Helvetica,sans-Serif" font-size="10.00">chrono</text>
</a>
</g>
</g>
<!-- Node15&#45;&gt;Node25 -->
<g id="edge35_Node000015_Node000025" class="edge">
<title>Node15&#45;&gt;Node25</title>
<g id="a_edge35_Node000015_Node000025"><a xlink:title=" ">
<path fill="none" stroke="#63b8ff" d="M593.4,-241.98C578.68,-233.69 556.08,-220.94 538.83,-211.22"/>
<polygon fill="#63b8ff" stroke="#63b8ff" points="540.31,-208.03 529.88,-206.17 536.87,-214.13 540.31,-208.03"/>
</a>
</g>
</g>
<!-- Node26 -->
<g id="Node000026" class="node">
<title>Node26</title>
<g id="a_Node000026"><a xlink:title=" ">
<polygon fill="#e0e0e0" stroke="#999999" points="607.5,-206 557.5,-206 557.5,-187 607.5,-187 607.5,-206"/>
<text text-anchor="middle" x="582.5" y="-194" font-family="Helvetica,sans-Serif" font-size="10.00">format</text>
</a>
</g>
</g>
<!-- Node15&#45;&gt;Node26 -->
<g id="edge36_Node000015_Node000026" class="edge">
<title>Node15&#45;&gt;Node26</title>
<g id="a_edge36_Node000015_Node000026"><a xlink:title=" ">
<path fill="none" stroke="#63b8ff" d="M604.21,-241.75C600.69,-234.57 595.59,-224.18 591.22,-215.27"/>
<polygon fill="#63b8ff" stroke="#63b8ff" points="594.26,-213.53 586.71,-206.09 587.98,-216.61 594.26,-213.53"/>
</a>
</g>
</g>
<!-- Node16&#45;&gt;Node6 -->
<g id="edge20_Node000016_Node000006" class="edge">
<title>Node16&#45;&gt;Node6</title>
<g id="a_edge20_Node000016_Node000006"><a xlink:title=" ">
<path fill="none" stroke="#63b8ff" d="M713.43,-186.8C723.33,-178.77 736.69,-165.87 742.5,-151 747.35,-138.58 748.25,-133.03 742.5,-121 720.06,-74.08 666.91,-40.71 633.79,-23.61"/>
<polygon fill="#63b8ff" stroke="#63b8ff" points="635.13,-20.36 624.62,-19.02 632,-26.62 635.13,-20.36"/>
</a>
</g>
</g>
<!-- Node17 -->
<g id="Node000017" class="node">
<title>Node17</title>
<g id="a_Node000017"><a xlink:title=" ">
<polygon fill="#e0e0e0" stroke="#999999" points="651.5,-145.5 595.5,-145.5 595.5,-126.5 651.5,-126.5 651.5,-145.5"/>
<text text-anchor="middle" x="623.5" y="-133.5" font-family="Helvetica,sans-Serif" font-size="10.00">QDebug</text>
</a>
</g>
</g>
<!-- Node16&#45;&gt;Node17 -->
<g id="edge19_Node000016_Node000017" class="edge">
<title>Node16&#45;&gt;Node17</title>
<g id="a_edge19_Node000016_Node000017"><a xlink:title=" ">
<path fill="none" stroke="#63b8ff" d="M689.99,-186.87C677.66,-177.62 657.88,-162.78 643.09,-151.69"/>
<polygon fill="#63b8ff" stroke="#63b8ff" points="645.16,-148.87 635.06,-145.67 640.96,-154.47 645.16,-148.87"/>
</a>
</g>
</g>
<!-- Node18 -->
<g id="Node000018" class="node">
<title>Node18</title>
<g id="a_Node000018"><a xlink:title=" ">
<polygon fill="#e0e0e0" stroke="#999999" points="577,-145.5 522,-145.5 522,-126.5 577,-126.5 577,-145.5"/>
<text text-anchor="middle" x="549.5" y="-133.5" font-family="Helvetica,sans-Serif" font-size="10.00">fstream</text>
</a>
</g>
</g>
<!-- Node16&#45;&gt;Node18 -->
<g id="edge21_Node000016_Node000018" class="edge">
<title>Node16&#45;&gt;Node18</title>
<g id="a_edge21_Node000016_Node000018"><a xlink:title=" ">
<path fill="none" stroke="#63b8ff" d="M679.4,-186.99C653.51,-177.03 610.42,-160.45 581.03,-149.13"/>
<polygon fill="#63b8ff" stroke="#63b8ff" points="582.22,-145.84 571.63,-145.52 579.7,-152.38 582.22,-145.84"/>
</a>
</g>
</g>
<!-- Node16&#45;&gt;Node19 -->
<g id="edge22_Node000016_Node000019" class="edge">
<title>Node16&#45;&gt;Node19</title>
<g id="a_edge22_Node000016_Node000019"><a xlink:title=" ">
<path fill="none" stroke="#63b8ff" d="M718.17,-186.87C736.78,-177.23 767.12,-161.53 788.78,-150.31"/>
<polygon fill="#63b8ff" stroke="#63b8ff" points="790.49,-153.37 797.76,-145.67 787.27,-147.16 790.49,-153.37"/>
</a>
</g>
</g>
<!-- Node20 -->
<g id="Node000020" class="node">
<title>Node20</title>
<g id="a_Node000020"><a xlink:title=" ">
<polygon fill="#e0e0e0" stroke="#999999" points="733.5,-145.5 669.5,-145.5 669.5,-126.5 733.5,-126.5 733.5,-145.5"/>
<text text-anchor="middle" x="701.5" y="-133.5" font-family="Helvetica,sans-Serif" font-size="10.00">algorithm</text>
</a>
</g>
</g>
<!-- Node16&#45;&gt;Node20 -->
<g id="edge23_Node000016_Node000020" class="edge">
<title>Node16&#45;&gt;Node20</title>
<g id="a_edge23_Node000016_Node000020"><a xlink:title=" ">
<path fill="none" stroke="#63b8ff" d="M701.5,-186.87C701.5,-178.75 701.5,-166.31 701.5,-155.89"/>
<polygon fill="#63b8ff" stroke="#63b8ff" points="705,-155.67 701.5,-145.67 698,-155.67 705,-155.67"/>
</a>
</g>
</g>
<!-- Node16&#45;&gt;Node21 -->
<g id="edge24_Node000016_Node000021" class="edge">
<title>Node16&#45;&gt;Node21</title>
<g id="a_edge24_Node000016_Node000021"><a xlink:title=" ">
<path fill="none" stroke="#63b8ff" d="M664.71,-186.99C625.18,-177.85 561.55,-163.14 513.54,-152.04"/>
<polygon fill="#63b8ff" stroke="#63b8ff" points="514.07,-148.57 503.54,-149.73 512.5,-155.39 514.07,-148.57"/>
</a>
</g>
</g>
<!-- Node21&#45;&gt;Node4 -->
<g id="edge26_Node000021_Node000004" class="edge">
<title>Node21&#45;&gt;Node4</title>
<g id="a_edge26_Node000021_Node000004"><a xlink:title=" ">
<path fill="none" stroke="#63b8ff" d="M404.39,-120.95C374.02,-111.28 333.49,-98.38 301.23,-88.11"/>
<polygon fill="#63b8ff" stroke="#63b8ff" points="302.1,-84.71 291.51,-85.01 299.97,-91.38 302.1,-84.71"/>
</a>
</g>
</g>
<!-- Node22 -->
<g id="Node000022" class="node">
<title>Node22</title>
<g id="a_Node000022"><a xlink:title=" ">
<polygon fill="#e0e0e0" stroke="#999999" points="478,-79.5 419,-79.5 419,-60.5 478,-60.5 478,-79.5"/>
<text text-anchor="middle" x="448.5" y="-67.5" font-family="Helvetica,sans-Serif" font-size="10.00">QWidget</text>
</a>
</g>
</g>
<!-- Node21&#45;&gt;Node22 -->
<g id="edge25_Node000021_Node000022" class="edge">
<title>Node21&#45;&gt;Node22</title>
<g id="a_edge25_Node000021_Node000022"><a xlink:title=" ">
<path fill="none" stroke="#63b8ff" d="M448.5,-120.8C448.5,-111.7 448.5,-99.79 448.5,-89.9"/>
<polygon fill="#63b8ff" stroke="#63b8ff" points="452,-89.84 448.5,-79.84 445,-89.84 452,-89.84"/>
</a>
</g>
</g>
<!-- Node23&#45;&gt;Node6 -->
<g id="edge28_Node000023_Node000006" class="edge">
<title>Node23&#45;&gt;Node6</title>
<g id="a_edge28_Node000023_Node000006"><a xlink:title=" ">
<path fill="none" stroke="#63b8ff" d="M376.45,-186.84C373.95,-161.87 370.59,-89.3 410.5,-55 434.16,-34.66 520.7,-20.95 570.18,-14.58"/>
<polygon fill="#63b8ff" stroke="#63b8ff" points="570.65,-18.05 580.14,-13.33 569.78,-11.1 570.65,-18.05"/>
</a>
</g>
</g>
<!-- Node23&#45;&gt;Node7 -->
<g id="edge30_Node000023_Node000007" class="edge">
<title>Node23&#45;&gt;Node7</title>
<g id="a_edge30_Node000023_Node000007"><a xlink:title=" ">
<path fill="none" stroke="#63b8ff" d="M370.61,-186.93C364.23,-178.4 355.19,-164.65 351.5,-151 340.35,-109.82 338.41,-95.61 351.5,-55 354.84,-44.62 361.6,-34.62 368.05,-26.74"/>
<polygon fill="#63b8ff" stroke="#63b8ff" points="370.79,-28.92 374.75,-19.1 365.53,-24.31 370.79,-28.92"/>
</a>
</g>
</g>
<!-- Node23&#45;&gt;Node18 -->
<g id="edge29_Node000023_Node000018" class="edge">
<title>Node23&#45;&gt;Node18</title>
<g id="a_edge29_Node000023_Node000018"><a xlink:title=" ">
<path fill="none" stroke="#63b8ff" d="M404.51,-186.98C431.85,-178.26 475.28,-164.17 512.5,-151 514.15,-150.42 515.83,-149.81 517.53,-149.19"/>
<polygon fill="#63b8ff" stroke="#63b8ff" points="519.09,-152.35 527.25,-145.6 516.66,-145.79 519.09,-152.35"/>
</a>
</g>
</g>
<!-- Node23&#45;&gt;Node21 -->
<g id="edge31_Node000023_Node000021" class="edge">
<title>Node23&#45;&gt;Node21</title>
<g id="a_edge31_Node000023_Node000021"><a xlink:title=" ">
<path fill="none" stroke="#63b8ff" d="M387.98,-186.87C397.25,-179.22 411.17,-167.76 423.32,-157.75"/>
<polygon fill="#63b8ff" stroke="#63b8ff" points="425.88,-160.17 431.37,-151.11 421.43,-154.77 425.88,-160.17"/>
</a>
</g>
</g>
</g>
</svg>

<g id="navigator" transform="translate(0 0)" fill="#404254">
  <rect fill="#f2f5e9" fill-opacity="0.5" stroke="#606060" stroke-width=".5" x="0" y="0" width="60" height="60"/>
  <use id="zoomplus" xlink:href="#zoomPlus" x="17" y="9" onmousedown="handleZoom(evt,'in')"/>
  <use id="zoomminus" xlink:href="#zoomMin" x="42" y="9" onmousedown="handleZoom(evt,'out')"/>
  <use id="reset" xlink:href="#resetDef" x="30" y="36" onmousedown="handleReset()"/>
   <use id="arrowup" xlink:href="#arrowUp" x="0" y="0" onmousedown="handlePan(0,-1)"/>
  <use id="arrowright" xlink:href="#arrowRight" x="0" y="0" onmousedown="handlePan(1,0)"/>
  <use id="arrowdown" xlink:href="#arrowDown" x="0" y="0" onmousedown="handlePan(0,1)"/>
  <use id="arrowleft" xlink:href="#arrowLeft" x="0" y="0" onmousedown="handlePan(-1,0)"/>
</g>
<svg viewBox="0 0 15 15" width="100%" height="30px" preserveAspectRatio="xMaxYMin meet">
 <g id="arrow_out" transform="scale(0.3 0.3)">
  <a xlink:href="CountDownClockViewModel_8cpp__incl_org.svg" target="_base">
   <rect id="button" ry="5" rx="5" y="6" x="6" height="38" width="38"
        fill="#f2f5e9" fill-opacity="0.5" stroke="#606060" stroke-width="1.0"/>
   <path id="arrow"
     d="M 11.500037,31.436501 C 11.940474,20.09759 22.043105,11.32322 32.158766,21.979434 L 37.068811,17.246167 C 37.068811,17.246167 37.088388,32 37.088388,32 L 22.160133,31.978069 C 22.160133,31.978069 26.997745,27.140456 26.997745,27.140456 C 18.528582,18.264221 13.291696,25.230495 11.500037,31.436501 z"
     style="fill:#404040;"/>
  </a>
 </g>
</svg>

<style type='text/css'>
<![CDATA[
[data-mouse-over-selected='false'] { opacity: 0.7; }
[data-mouse-over-selected='true']  { opacity: 1.0; }
]]>
</style>
<script type="application/ecmascript"><![CDATA[
document.addEventListener('DOMContentLoaded', (event) => {
  highlightEdges();
  highlightAdjacentNodes();
});
]]></script>
</svg>
