<?xml version="1.0" encoding="UTF-8" standalone="no"?>
<!DOCTYPE svg PUBLIC "-//W3C//DTD SVG 1.1//EN"
 "http://www.w3.org/Graphics/SVG/1.1/DTD/svg11.dtd">
<!-- Generated by graphviz version 2.43.0 (0)
 -->
<!-- Title: features/overlay/debug_display/DebugDisplayViewModel.h Pages: 1 -->
<svg width="817pt" height="170pt"
 viewBox="0.00 0.00 816.50 170.00" xmlns="http://www.w3.org/2000/svg" xmlns:xlink="http://www.w3.org/1999/xlink">
<g id="graph0" class="graph" transform="scale(1 1) rotate(0) translate(4 166)">
<title>features/overlay/debug_display/DebugDisplayViewModel.h</title>
<!-- Node1 -->
<g id="Node000001" class="node">
<title>Node1</title>
<g id="a_Node000001"><a xlink:title=" ">
<polygon fill="#999999" stroke="#666666" points="385,-162 194,-162 194,-132 385,-132 385,-162"/>
<text text-anchor="start" x="202" y="-150" font-family="Helvetica,sans-Serif" font-size="10.00">features/overlay/debug</text>
<text text-anchor="middle" x="289.5" y="-139" font-family="Helvetica,sans-Serif" font-size="10.00">_display/DebugDisplayViewModel.h</text>
</a>
</g>
</g>
<!-- Node2 -->
<g id="Node000002" class="node">
<title>Node2</title>
<g id="a_Node000002"><a xlink:href="Overlay_8cpp.html" target="_top" xlink:title=" ">
<polygon fill="white" stroke="#666666" points="157,-24.5 0,-24.5 0,-5.5 157,-5.5 157,-24.5"/>
<text text-anchor="middle" x="78.5" y="-12.5" font-family="Helvetica,sans-Serif" font-size="10.00">features/overlay/Overlay.cpp</text>
</a>
</g>
</g>
<!-- Node1&#45;&gt;Node2 -->
<g id="edge1_Node000001_Node000002" class="edge">
<title>Node1&#45;&gt;Node2</title>
<g id="a_edge1_Node000001_Node000002"><a xlink:title=" ">
<path fill="none" stroke="#63b8ff" d="M184.03,-136.25C130.35,-128.87 72.99,-116.41 56.5,-96 39.21,-74.6 59.96,-40.6 71.62,-24.71"/>
<polygon fill="#63b8ff" stroke="#63b8ff" points="183.63,-139.72 194,-137.57 184.54,-132.78 183.63,-139.72"/>
</a>
</g>
</g>
<!-- Node3 -->
<g id="Node000003" class="node">
<title>Node3</title>
<g id="a_Node000003"><a xlink:href="OverlayFactory_8cpp.html" target="_top" xlink:title=" ">
<polygon fill="white" stroke="#666666" points="203.5,-96 65.5,-96 65.5,-66 203.5,-66 203.5,-96"/>
<text text-anchor="start" x="73.5" y="-84" font-family="Helvetica,sans-Serif" font-size="10.00">features/overlay/Overlay</text>
<text text-anchor="middle" x="134.5" y="-73" font-family="Helvetica,sans-Serif" font-size="10.00">Factory.cpp</text>
</a>
</g>
</g>
<!-- Node1&#45;&gt;Node3 -->
<g id="edge2_Node000001_Node000003" class="edge">
<title>Node1&#45;&gt;Node3</title>
<g id="a_edge2_Node000001_Node000003"><a xlink:title=" ">
<path fill="none" stroke="#63b8ff" d="M246.04,-128.05C221.48,-117.91 191.23,-105.43 168.44,-96.01"/>
<polygon fill="#63b8ff" stroke="#63b8ff" points="244.91,-131.37 255.48,-131.95 247.58,-124.9 244.91,-131.37"/>
</a>
</g>
</g>
<!-- Node4 -->
<g id="Node000004" class="node">
<title>Node4</title>
<g id="a_Node000004"><a xlink:href="DebugDisplay_8h.html" target="_top" xlink:title=" ">
<polygon fill="white" stroke="#666666" points="357.5,-96 221.5,-96 221.5,-66 357.5,-66 357.5,-96"/>
<text text-anchor="start" x="229.5" y="-84" font-family="Helvetica,sans-Serif" font-size="10.00">features/overlay/debug</text>
<text text-anchor="middle" x="289.5" y="-73" font-family="Helvetica,sans-Serif" font-size="10.00">_display/DebugDisplay.h</text>
</a>
</g>
</g>
<!-- Node1&#45;&gt;Node4 -->
<g id="edge3_Node000001_Node000004" class="edge">
<title>Node1&#45;&gt;Node4</title>
<g id="a_edge3_Node000001_Node000004"><a xlink:title=" ">
<path fill="none" stroke="#63b8ff" d="M289.5,-121.54C289.5,-112.96 289.5,-103.61 289.5,-96.16"/>
<polygon fill="#63b8ff" stroke="#63b8ff" points="286,-121.8 289.5,-131.8 293,-121.8 286,-121.8"/>
</a>
</g>
</g>
<!-- Node6 -->
<g id="Node000006" class="node">
<title>Node6</title>
<g id="a_Node000006"><a xlink:href="DebugDisplayViewModel_8cpp.html" target="_top" xlink:title=" ">
<polygon fill="white" stroke="#666666" points="579,-96 376,-96 376,-66 579,-66 579,-96"/>
<text text-anchor="start" x="384" y="-84" font-family="Helvetica,sans-Serif" font-size="10.00">features/overlay/debug</text>
<text text-anchor="middle" x="477.5" y="-73" font-family="Helvetica,sans-Serif" font-size="10.00">_display/DebugDisplayViewModel.cpp</text>
</a>
</g>
</g>
<!-- Node1&#45;&gt;Node6 -->
<g id="edge6_Node000001_Node000006" class="edge">
<title>Node1&#45;&gt;Node6</title>
<g id="a_edge6_Node000001_Node000006"><a xlink:title=" ">
<path fill="none" stroke="#63b8ff" d="M340.25,-128.72C370.37,-118.47 408.08,-105.63 436.34,-96.01"/>
<polygon fill="#63b8ff" stroke="#63b8ff" points="339.1,-125.42 330.76,-131.95 341.35,-132.05 339.1,-125.42"/>
</a>
</g>
</g>
<!-- Node7 -->
<g id="Node000007" class="node">
<title>Node7</title>
<g id="a_Node000007"><a xlink:href="AppViewModels_8cpp.html" target="_top" xlink:title=" ">
<polygon fill="white" stroke="#666666" points="808.5,-90.5 596.5,-90.5 596.5,-71.5 808.5,-71.5 808.5,-90.5"/>
<text text-anchor="middle" x="702.5" y="-78.5" font-family="Helvetica,sans-Serif" font-size="10.00">mvvm/viewmodels/AppViewModels.cpp</text>
</a>
</g>
</g>
<!-- Node1&#45;&gt;Node7 -->
<g id="edge7_Node000001_Node000007" class="edge">
<title>Node1&#45;&gt;Node7</title>
<g id="a_edge7_Node000001_Node000007"><a xlink:title=" ">
<path fill="none" stroke="#63b8ff" d="M390.1,-130.41C471.11,-117.86 581.91,-100.69 647.47,-90.53"/>
<polygon fill="#63b8ff" stroke="#63b8ff" points="389.23,-127 379.88,-131.99 390.3,-133.92 389.23,-127"/>
</a>
</g>
</g>
<!-- Node4&#45;&gt;Node2 -->
<g id="edge4_Node000004_Node000002" class="edge">
<title>Node4&#45;&gt;Node2</title>
<g id="a_edge4_Node000004_Node000002"><a xlink:title=" ">
<path fill="none" stroke="#63b8ff" d="M233.62,-63.05C192.7,-50.64 138.87,-34.31 106.58,-24.52"/>
<polygon fill="#63b8ff" stroke="#63b8ff" points="232.61,-66.4 243.2,-65.95 234.64,-59.7 232.61,-66.4"/>
</a>
</g>
</g>
<!-- Node5 -->
<g id="Node000005" class="node">
<title>Node5</title>
<g id="a_Node000005"><a xlink:href="DebugDisplay_8cpp.html" target="_top" xlink:title=" ">
<polygon fill="white" stroke="#666666" points="363,-30 216,-30 216,0 363,0 363,-30"/>
<text text-anchor="start" x="224" y="-18" font-family="Helvetica,sans-Serif" font-size="10.00">features/overlay/debug</text>
<text text-anchor="middle" x="289.5" y="-7" font-family="Helvetica,sans-Serif" font-size="10.00">_display/DebugDisplay.cpp</text>
</a>
</g>
</g>
<!-- Node4&#45;&gt;Node5 -->
<g id="edge5_Node000004_Node000005" class="edge">
<title>Node4&#45;&gt;Node5</title>
<g id="a_edge5_Node000004_Node000005"><a xlink:title=" ">
<path fill="none" stroke="#63b8ff" d="M289.5,-55.54C289.5,-46.96 289.5,-37.61 289.5,-30.16"/>
<polygon fill="#63b8ff" stroke="#63b8ff" points="286,-55.8 289.5,-65.8 293,-55.8 286,-55.8"/>
</a>
</g>
</g>
</g>
</svg>
