<?xml version="1.0" encoding="UTF-8" standalone="no"?>
<!DOCTYPE svg PUBLIC "-//W3C//DTD SVG 1.1//EN"
 "http://www.w3.org/Graphics/SVG/1.1/DTD/svg11.dtd">
<!-- Generated by graphviz version 2.43.0 (0)
 -->
<!-- Title: features/overlay/debug_display/DebugDisplayViewModel.cpp Pages: 1 -->
<svg width="280pt" height="159pt"
 viewBox="0.00 0.00 280.00 159.00" xmlns="http://www.w3.org/2000/svg" xmlns:xlink="http://www.w3.org/1999/xlink">

<svg id="main" version="1.1" xmlns="http://www.w3.org/2000/svg" xmlns:xlink="http://www.w3.org/1999/xlink" xml:space="preserve" onload="init(evt)">
<style type="text/css"><![CDATA[
.node, .edge {opacity: 0.7;}
.node.selected, .edge.selected {opacity: 1;}
.edge:hover path { stroke: red; }
.edge:hover polygon { stroke: red; fill: red; }
]]></style>
<script type="application/ecmascript" xlink:href="svg.min.js"/>
<svg id="graph" class="graph">
<g id="graph0" class="graph" transform="scale(1 1) rotate(0) translate(4 155)">
<title>features/overlay/debug_display/DebugDisplayViewModel.cpp</title>
<!-- Node1 -->
<g id="Node000001" class="node">
<title>Node1</title>
<g id="a_Node000001"><a xlink:title=" ">
<polygon fill="#999999" stroke="#666666" points="247.5,-151 44.5,-151 44.5,-121 247.5,-121 247.5,-151"/>
<text text-anchor="start" x="52.5" y="-139" font-family="Helvetica,sans-Serif" font-size="10.00">features/overlay/debug</text>
<text text-anchor="middle" x="146" y="-128" font-family="Helvetica,sans-Serif" font-size="10.00">_display/DebugDisplayViewModel.cpp</text>
</a>
</g>
</g>
<!-- Node2 -->
<g id="Node000002" class="node">
<title>Node2</title>
<g id="a_Node000002"><a xlink:href="DebugDisplayViewModel_8h.html" target="_top" xlink:title=" ">
<polygon fill="white" stroke="#666666" points="148,-79.5 0,-79.5 0,-60.5 148,-60.5 148,-79.5"/>
<text text-anchor="middle" x="74" y="-67.5" font-family="Helvetica,sans-Serif" font-size="10.00">DebugDisplayViewModel.h</text>
</a>
</g>
</g>
<!-- Node1&#45;&gt;Node2 -->
<g id="edge1_Node000001_Node000002" class="edge">
<title>Node1&#45;&gt;Node2</title>
<g id="a_edge1_Node000001_Node000002"><a xlink:title=" ">
<path fill="none" stroke="#63b8ff" d="M130.02,-120.8C118.69,-110.72 103.47,-97.19 91.75,-86.78"/>
<polygon fill="#63b8ff" stroke="#63b8ff" points="93.75,-83.87 83.95,-79.84 89.1,-89.1 93.75,-83.87"/>
</a>
</g>
</g>
<!-- Node5 -->
<g id="Node000005" class="node">
<title>Node5</title>
<g id="a_Node000005"><a xlink:href="Timer_8h.html" target="_top" xlink:title="Timer that emit a signal at a certain frequency to synchronise the refresh of the app widgets.">
<polygon fill="white" stroke="#666666" points="272,-85 166,-85 166,-55 272,-55 272,-85"/>
<text text-anchor="start" x="174" y="-73" font-family="Helvetica,sans-Serif" font-size="10.00">src/services/Timer</text>
<text text-anchor="middle" x="219" y="-62" font-family="Helvetica,sans-Serif" font-size="10.00">/Timer.h</text>
</a>
</g>
</g>
<!-- Node1&#45;&gt;Node5 -->
<g id="edge4_Node000001_Node000005" class="edge">
<title>Node1&#45;&gt;Node5</title>
<g id="a_edge4_Node000001_Node000005"><a xlink:title=" ">
<path fill="none" stroke="#63b8ff" d="M162.2,-120.8C171.84,-112.34 184.25,-101.46 195.01,-92.03"/>
<polygon fill="#63b8ff" stroke="#63b8ff" points="197.63,-94.39 202.84,-85.16 193.02,-89.12 197.63,-94.39"/>
</a>
</g>
</g>
<!-- Node3 -->
<g id="Node000003" class="node">
<title>Node3</title>
<g id="a_Node000003"><a xlink:title=" ">
<polygon fill="#e0e0e0" stroke="#999999" points="63.5,-19 10.5,-19 10.5,0 63.5,0 63.5,-19"/>
<text text-anchor="middle" x="37" y="-7" font-family="Helvetica,sans-Serif" font-size="10.00">QString</text>
</a>
</g>
</g>
<!-- Node2&#45;&gt;Node3 -->
<g id="edge2_Node000002_Node000003" class="edge">
<title>Node2&#45;&gt;Node3</title>
<g id="a_edge2_Node000002_Node000003"><a xlink:title=" ">
<path fill="none" stroke="#63b8ff" d="M68.54,-60.37C63.13,-51.81 54.69,-38.47 47.9,-27.74"/>
<polygon fill="#63b8ff" stroke="#63b8ff" points="50.79,-25.75 42.48,-19.17 44.87,-29.49 50.79,-25.75"/>
</a>
</g>
</g>
<!-- Node4 -->
<g id="Node000004" class="node">
<title>Node4</title>
<g id="a_Node000004"><a xlink:title=" ">
<polygon fill="#e0e0e0" stroke="#999999" points="138,-19 82,-19 82,0 138,0 138,-19"/>
<text text-anchor="middle" x="110" y="-7" font-family="Helvetica,sans-Serif" font-size="10.00">QObject</text>
</a>
</g>
</g>
<!-- Node2&#45;&gt;Node4 -->
<g id="edge3_Node000002_Node000004" class="edge">
<title>Node2&#45;&gt;Node4</title>
<g id="a_edge3_Node000002_Node000004"><a xlink:title=" ">
<path fill="none" stroke="#63b8ff" d="M79.31,-60.37C84.58,-51.81 92.79,-38.47 99.39,-27.74"/>
<polygon fill="#63b8ff" stroke="#63b8ff" points="102.41,-29.52 104.67,-19.17 96.44,-25.85 102.41,-29.52"/>
</a>
</g>
</g>
<!-- Node6 -->
<g id="Node000006" class="node">
<title>Node6</title>
<g id="a_Node000006"><a xlink:title=" ">
<polygon fill="#e0e0e0" stroke="#999999" points="245.5,-19 192.5,-19 192.5,0 245.5,0 245.5,-19"/>
<text text-anchor="middle" x="219" y="-7" font-family="Helvetica,sans-Serif" font-size="10.00">QTimer</text>
</a>
</g>
</g>
<!-- Node5&#45;&gt;Node6 -->
<g id="edge5_Node000005_Node000006" class="edge">
<title>Node5&#45;&gt;Node6</title>
<g id="a_edge5_Node000005_Node000006"><a xlink:title=" ">
<path fill="none" stroke="#63b8ff" d="M219,-54.84C219,-47.21 219,-37.7 219,-29.45"/>
<polygon fill="#63b8ff" stroke="#63b8ff" points="222.5,-29.27 219,-19.27 215.5,-29.27 222.5,-29.27"/>
</a>
</g>
</g>
</g>
</svg>
</svg>

<style type='text/css'>
<![CDATA[
[data-mouse-over-selected='false'] { opacity: 0.7; }
[data-mouse-over-selected='true']  { opacity: 1.0; }
]]>
</style>
<script type="application/ecmascript"><![CDATA[
document.addEventListener('DOMContentLoaded', (event) => {
  highlightEdges();
  highlightAdjacentNodes();
});
]]></script>
</svg>
