<?xml version="1.0" encoding="UTF-8" standalone="no"?>
<!DOCTYPE svg PUBLIC "-//W3C//DTD SVG 1.1//EN"
 "http://www.w3.org/Graphics/SVG/1.1/DTD/svg11.dtd">
<!-- Generated by graphviz version 2.43.0 (0)
 -->
<!-- Title: features/test/frames Pages: 1 -->
<svg width="643pt" height="125pt"
 viewBox="0.00 0.00 643.00 125.00" xmlns="http://www.w3.org/2000/svg" xmlns:xlink="http://www.w3.org/1999/xlink">
<g id="graph0" class="graph" transform="scale(1 1) rotate(0) translate(4 121)">
<title>features/test/frames</title>
<g id="clust1" class="cluster">
<title>clusterdir_ca29948439d95e79d9c1acbffcb11dbb</title>
<g id="a_clust1"><a xlink:href="dir_ca29948439d95e79d9c1acbffcb11dbb.html" target="_top" xlink:title="test">
<polygon fill="#edf0f7" stroke="#7f7f7f" stroke-dasharray="5,2" points="8,-39 8,-109 627,-109 627,-39 8,-39"/>
<text text-anchor="middle" x="317.5" y="-97" font-family="Helvetica,sans-Serif" font-size="10.00">test</text>
</a>
</g>
</g>
<g id="clust2" class="cluster">
<title>clusterdir_1869347098da55d2d56bd5bb73d691a6</title>
<g id="a_clust2"><a xlink:href="dir_1869347098da55d2d56bd5bb73d691a6.html" target="_top">
<polygon fill="#edf0f7" stroke="#404040" stroke-width="2" points="16,-47 16,-82 619,-82 619,-47 16,-47"/>
</a>
</g>
</g>
<!-- dir_1869347098da55d2d56bd5bb73d691a6 -->
<g id="node1" class="node">
<title>dir_1869347098da55d2d56bd5bb73d691a6</title>
<text text-anchor="middle" x="585" y="-62" font-family="Helvetica,sans-Serif" font-size="10.00">frames</text>
</g>
<!-- dir_f1dfaa1410c903ba9a04c5e708dca189 -->
<g id="node2" class="node">
<title>dir_f1dfaa1410c903ba9a04c5e708dca189</title>
<g id="a_node2"><a xlink:href="dir_f1dfaa1410c903ba9a04c5e708dca189.html" target="_top" xlink:title="countdown_clock">
<polygon fill="#a2b4d6" stroke="#404040" points="259.5,-74 158.5,-74 158.5,-55 259.5,-55 259.5,-74"/>
<text text-anchor="middle" x="209" y="-62" font-family="Helvetica,sans-Serif" font-size="10.00">countdown_clock</text>
</a>
</g>
</g>
<!-- dir_6f85ed83f38b76f3e8bf14d57394770f -->
<g id="node7" class="node">
<title>dir_6f85ed83f38b76f3e8bf14d57394770f</title>
<g id="a_node7"><a xlink:href="dir_6f85ed83f38b76f3e8bf14d57394770f.html" target="_top" xlink:title="communication">
<polygon fill="#edf0f7" stroke="red" stroke-dasharray="5,2" points="314,-19 222,-19 222,0 314,0 314,-19"/>
<text text-anchor="middle" x="268" y="-7" font-family="Helvetica,sans-Serif" font-size="10.00">communication</text>
</a>
</g>
</g>
<!-- dir_f1dfaa1410c903ba9a04c5e708dca189&#45;&gt;dir_6f85ed83f38b76f3e8bf14d57394770f -->
<g id="edge1" class="edge">
<title>dir_f1dfaa1410c903ba9a04c5e708dca189&#45;&gt;dir_6f85ed83f38b76f3e8bf14d57394770f</title>
<g id="a_edge1"><a xlink:href="dir_000006_000003.html" target="_top">
<path fill="none" stroke="#63b8ff" d="M218.48,-54.98C227.2,-47.15 240.34,-35.34 250.9,-25.86"/>
<polygon fill="#63b8ff" stroke="#63b8ff" points="253.25,-28.46 258.35,-19.17 248.57,-23.25 253.25,-28.46"/>
</a>
</g>
<g id="a_edge1&#45;headlabel"><a xlink:href="dir_000006_000003.html" target="_top" xlink:title="1">
<text text-anchor="middle" x="252.47" y="-30.47" font-family="Helvetica,sans-Serif" font-size="10.00" fill="#63b8ff">1</text>
</a>
</g>
</g>
<!-- dir_aebb8dcc11953d78e620bbef0b9e2183 -->
<g id="node8" class="node">
<title>dir_aebb8dcc11953d78e620bbef0b9e2183</title>
<g id="a_node8"><a xlink:href="dir_aebb8dcc11953d78e620bbef0b9e2183.html" target="_top" xlink:title="core">
<polygon fill="#edf0f7" stroke="red" points="370,-19 332,-19 332,0 370,0 370,-19"/>
<text text-anchor="middle" x="351" y="-7" font-family="Helvetica,sans-Serif" font-size="10.00">core</text>
</a>
</g>
</g>
<!-- dir_f1dfaa1410c903ba9a04c5e708dca189&#45;&gt;dir_aebb8dcc11953d78e620bbef0b9e2183 -->
<g id="edge2" class="edge">
<title>dir_f1dfaa1410c903ba9a04c5e708dca189&#45;&gt;dir_aebb8dcc11953d78e620bbef0b9e2183</title>
<g id="a_edge2"><a xlink:href="dir_000006_000005.html" target="_top">
<path fill="none" stroke="#63b8ff" d="M229.17,-54.95C240.76,-50.12 255.63,-44.05 269,-39 286.46,-32.4 306.23,-25.52 321.97,-20.17"/>
<polygon fill="#63b8ff" stroke="#63b8ff" points="323.32,-23.41 331.68,-16.89 321.08,-16.78 323.32,-23.41"/>
</a>
</g>
<g id="a_edge2&#45;headlabel"><a xlink:href="dir_000006_000005.html" target="_top" xlink:title="1">
<text text-anchor="middle" x="320.82" y="-24.75" font-family="Helvetica,sans-Serif" font-size="10.00" fill="#63b8ff">1</text>
</a>
</g>
</g>
<!-- dir_a4900e10943b5ead35383584483d533b -->
<g id="node3" class="node">
<title>dir_a4900e10943b5ead35383584483d533b</title>
<g id="a_node3"><a xlink:href="dir_a4900e10943b5ead35383584483d533b.html" target="_top" xlink:title="emergency_controls">
<polygon fill="#a2b4d6" stroke="#404040" points="140,-74 24,-74 24,-55 140,-55 140,-74"/>
<text text-anchor="middle" x="82" y="-62" font-family="Helvetica,sans-Serif" font-size="10.00">emergency_controls</text>
</a>
</g>
</g>
<!-- dir_a4900e10943b5ead35383584483d533b&#45;&gt;dir_6f85ed83f38b76f3e8bf14d57394770f -->
<g id="edge3" class="edge">
<title>dir_a4900e10943b5ead35383584483d533b&#45;&gt;dir_6f85ed83f38b76f3e8bf14d57394770f</title>
<g id="a_edge3"><a xlink:href="dir_000010_000003.html" target="_top">
<path fill="none" stroke="#63b8ff" d="M103.51,-54.91C116.55,-49.89 133.58,-43.65 149,-39 171.21,-32.3 196.13,-26.13 217.4,-21.26"/>
<polygon fill="#63b8ff" stroke="#63b8ff" points="218.22,-24.66 227.21,-19.05 216.68,-17.83 218.22,-24.66"/>
</a>
</g>
<g id="a_edge3&#45;headlabel"><a xlink:href="dir_000010_000003.html" target="_top" xlink:title="1">
<text text-anchor="middle" x="215.34" y="-25.72" font-family="Helvetica,sans-Serif" font-size="10.00" fill="#63b8ff">1</text>
</a>
</g>
</g>
<!-- dir_c70a83185db8df44846395fda432aeb6 -->
<g id="node4" class="node">
<title>dir_c70a83185db8df44846395fda432aeb6</title>
<g id="a_node4"><a xlink:href="dir_c70a83185db8df44846395fda432aeb6.html" target="_top" xlink:title="tank_pressure">
<polygon fill="#a2b4d6" stroke="#404040" points="541,-74 455,-74 455,-55 541,-55 541,-74"/>
<text text-anchor="middle" x="498" y="-62" font-family="Helvetica,sans-Serif" font-size="10.00">tank_pressure</text>
</a>
</g>
</g>
<!-- dir_c70a83185db8df44846395fda432aeb6&#45;&gt;dir_6f85ed83f38b76f3e8bf14d57394770f -->
<g id="edge5" class="edge">
<title>dir_c70a83185db8df44846395fda432aeb6&#45;&gt;dir_6f85ed83f38b76f3e8bf14d57394770f</title>
<g id="a_edge5"><a xlink:href="dir_000036_000003.html" target="_top">
<path fill="none" stroke="#63b8ff" d="M482.53,-54.8C472.43,-49.47 458.78,-42.95 446,-39 443.03,-38.08 375.16,-27.32 324.11,-19.29"/>
<polygon fill="#63b8ff" stroke="#63b8ff" points="324.57,-15.82 314.15,-17.73 323.48,-22.74 324.57,-15.82"/>
</a>
</g>
<g id="a_edge5&#45;headlabel"><a xlink:href="dir_000036_000003.html" target="_top" xlink:title="2">
<text text-anchor="middle" x="328.56" y="-11.08" font-family="Helvetica,sans-Serif" font-size="10.00" fill="#63b8ff">2</text>
</a>
</g>
</g>
<!-- dir_c70a83185db8df44846395fda432aeb6&#45;&gt;dir_aebb8dcc11953d78e620bbef0b9e2183 -->
<g id="edge7" class="edge">
<title>dir_c70a83185db8df44846395fda432aeb6&#45;&gt;dir_aebb8dcc11953d78e620bbef0b9e2183</title>
<g id="a_edge7"><a xlink:href="dir_000036_000005.html" target="_top">
<path fill="none" stroke="#63b8ff" d="M481.41,-54.91C471.33,-49.89 458.11,-43.64 446,-39 442.79,-37.77 406.66,-27 379.9,-19.06"/>
<polygon fill="#63b8ff" stroke="#63b8ff" points="380.77,-15.66 370.19,-16.18 378.78,-22.38 380.77,-15.66"/>
</a>
</g>
<g id="a_edge7&#45;headlabel"><a xlink:href="dir_000036_000005.html" target="_top" xlink:title="2">
<text text-anchor="middle" x="385.03" y="-11.46" font-family="Helvetica,sans-Serif" font-size="10.00" fill="#63b8ff">2</text>
</a>
</g>
</g>
<!-- dir_952c181019b9929608092c82bceaeaab -->
<g id="node9" class="node">
<title>dir_952c181019b9929608092c82bceaeaab</title>
<g id="a_node9"><a xlink:href="dir_952c181019b9929608092c82bceaeaab.html" target="_top" xlink:title="mvvm">
<polygon fill="#edf0f7" stroke="red" points="522,-19 474,-19 474,0 522,0 522,-19"/>
<text text-anchor="middle" x="498" y="-7" font-family="Helvetica,sans-Serif" font-size="10.00">mvvm</text>
</a>
</g>
</g>
<!-- dir_c70a83185db8df44846395fda432aeb6&#45;&gt;dir_952c181019b9929608092c82bceaeaab -->
<g id="edge6" class="edge">
<title>dir_c70a83185db8df44846395fda432aeb6&#45;&gt;dir_952c181019b9929608092c82bceaeaab</title>
<g id="a_edge6"><a xlink:href="dir_000036_000025.html" target="_top">
<path fill="none" stroke="#63b8ff" d="M498,-54.75C498,-47.8 498,-37.85 498,-29.13"/>
<polygon fill="#63b8ff" stroke="#63b8ff" points="501.5,-29.09 498,-19.09 494.5,-29.09 501.5,-29.09"/>
</a>
</g>
<g id="a_edge6&#45;headlabel"><a xlink:href="dir_000036_000025.html" target="_top" xlink:title="1">
<text text-anchor="middle" x="504.34" y="-30.18" font-family="Helvetica,sans-Serif" font-size="10.00" fill="#63b8ff">1</text>
</a>
</g>
</g>
<!-- dir_1826a32a9d780ddbaf96ec88be56c4cd -->
<g id="node10" class="node">
<title>dir_1826a32a9d780ddbaf96ec88be56c4cd</title>
<g id="a_node10"><a xlink:href="dir_1826a32a9d780ddbaf96ec88be56c4cd.html" target="_top" xlink:title="services">
<polygon fill="#edf0f7" stroke="red" points="445.5,-19 388.5,-19 388.5,0 445.5,0 445.5,-19"/>
<text text-anchor="middle" x="417" y="-7" font-family="Helvetica,sans-Serif" font-size="10.00">services</text>
</a>
</g>
</g>
<!-- dir_c70a83185db8df44846395fda432aeb6&#45;&gt;dir_1826a32a9d780ddbaf96ec88be56c4cd -->
<g id="edge4" class="edge">
<title>dir_c70a83185db8df44846395fda432aeb6&#45;&gt;dir_1826a32a9d780ddbaf96ec88be56c4cd</title>
<g id="a_edge4"><a xlink:href="dir_000036_000034.html" target="_top">
<path fill="none" stroke="#63b8ff" d="M484.99,-54.98C472.54,-46.84 453.54,-34.41 438.79,-24.76"/>
<polygon fill="#63b8ff" stroke="#63b8ff" points="440.54,-21.72 430.25,-19.17 436.7,-27.57 440.54,-21.72"/>
</a>
</g>
<g id="a_edge4&#45;headlabel"><a xlink:href="dir_000036_000034.html" target="_top" xlink:title="1">
<text text-anchor="middle" x="445.1" y="-18.81" font-family="Helvetica,sans-Serif" font-size="10.00" fill="#63b8ff">1</text>
</a>
</g>
</g>
<!-- dir_4b591b3ee29f79474c080c5c42f873c6 -->
<g id="node5" class="node">
<title>dir_4b591b3ee29f79474c080c5c42f873c6</title>
<g id="a_node5"><a xlink:href="dir_4b591b3ee29f79474c080c5c42f873c6.html" target="_top" xlink:title="terminal">
<polygon fill="#a2b4d6" stroke="#404040" points="437,-74 379,-74 379,-55 437,-55 437,-74"/>
<text text-anchor="middle" x="408" y="-62" font-family="Helvetica,sans-Serif" font-size="10.00">terminal</text>
</a>
</g>
</g>
<!-- dir_4b591b3ee29f79474c080c5c42f873c6&#45;&gt;dir_6f85ed83f38b76f3e8bf14d57394770f -->
<g id="edge9" class="edge">
<title>dir_4b591b3ee29f79474c080c5c42f873c6&#45;&gt;dir_6f85ed83f38b76f3e8bf14d57394770f</title>
<g id="a_edge9"><a xlink:href="dir_000037_000003.html" target="_top">
<path fill="none" stroke="#63b8ff" d="M396.54,-54.81C389.26,-49.63 379.45,-43.25 370,-39 354.03,-31.82 335.83,-26.04 319.26,-21.61"/>
<polygon fill="#63b8ff" stroke="#63b8ff" points="319.75,-18.12 309.19,-19.02 318.01,-24.9 319.75,-18.12"/>
</a>
</g>
<g id="a_edge9&#45;headlabel"><a xlink:href="dir_000037_000003.html" target="_top" xlink:title="1">
<text text-anchor="middle" x="323.94" y="-13.76" font-family="Helvetica,sans-Serif" font-size="10.00" fill="#63b8ff">1</text>
</a>
</g>
</g>
<!-- dir_4b591b3ee29f79474c080c5c42f873c6&#45;&gt;dir_aebb8dcc11953d78e620bbef0b9e2183 -->
<g id="edge10" class="edge">
<title>dir_4b591b3ee29f79474c080c5c42f873c6&#45;&gt;dir_aebb8dcc11953d78e620bbef0b9e2183</title>
<g id="a_edge10"><a xlink:href="dir_000037_000005.html" target="_top">
<path fill="none" stroke="#63b8ff" d="M398.84,-54.98C390.5,-47.23 377.97,-35.58 367.82,-26.14"/>
<polygon fill="#63b8ff" stroke="#63b8ff" points="370.03,-23.42 360.32,-19.17 365.26,-28.54 370.03,-23.42"/>
</a>
</g>
<g id="a_edge10&#45;headlabel"><a xlink:href="dir_000037_000005.html" target="_top" xlink:title="3">
<text text-anchor="middle" x="374.6" y="-21.28" font-family="Helvetica,sans-Serif" font-size="10.00" fill="#63b8ff">3</text>
</a>
</g>
</g>
<!-- dir_4b591b3ee29f79474c080c5c42f873c6&#45;&gt;dir_1826a32a9d780ddbaf96ec88be56c4cd -->
<g id="edge8" class="edge">
<title>dir_4b591b3ee29f79474c080c5c42f873c6&#45;&gt;dir_1826a32a9d780ddbaf96ec88be56c4cd</title>
<g id="a_edge8"><a xlink:href="dir_000037_000034.html" target="_top">
<path fill="none" stroke="#63b8ff" d="M409.49,-54.75C410.67,-47.8 412.36,-37.85 413.84,-29.13"/>
<polygon fill="#63b8ff" stroke="#63b8ff" points="417.32,-29.53 415.54,-19.09 410.42,-28.36 417.32,-29.53"/>
</a>
</g>
<g id="a_edge8&#45;headlabel"><a xlink:href="dir_000037_000034.html" target="_top" xlink:title="1">
<text text-anchor="middle" x="419.52" y="-31.05" font-family="Helvetica,sans-Serif" font-size="10.00" fill="#63b8ff">1</text>
</a>
</g>
</g>
<!-- dir_5cf9491b962fee1873b116818266060f -->
<g id="node6" class="node">
<title>dir_5cf9491b962fee1873b116818266060f</title>
<g id="a_node6"><a xlink:href="dir_5cf9491b962fee1873b116818266060f.html" target="_top" xlink:title="test_launcher">
<polygon fill="#a2b4d6" stroke="#404040" points="360.5,-74 277.5,-74 277.5,-55 360.5,-55 360.5,-74"/>
<text text-anchor="middle" x="319" y="-62" font-family="Helvetica,sans-Serif" font-size="10.00">test_launcher</text>
</a>
</g>
</g>
<!-- dir_5cf9491b962fee1873b116818266060f&#45;&gt;dir_6f85ed83f38b76f3e8bf14d57394770f -->
<g id="edge12" class="edge">
<title>dir_5cf9491b962fee1873b116818266060f&#45;&gt;dir_6f85ed83f38b76f3e8bf14d57394770f</title>
<g id="a_edge12"><a xlink:href="dir_000039_000003.html" target="_top">
<path fill="none" stroke="#63b8ff" d="M310.58,-54.75C303.23,-47.11 292.37,-35.82 283.46,-26.56"/>
<polygon fill="#63b8ff" stroke="#63b8ff" points="285.72,-23.87 276.26,-19.09 280.68,-28.72 285.72,-23.87"/>
</a>
</g>
<g id="a_edge12&#45;headlabel"><a xlink:href="dir_000039_000003.html" target="_top" xlink:title="1">
<text text-anchor="middle" x="290.26" y="-21.99" font-family="Helvetica,sans-Serif" font-size="10.00" fill="#63b8ff">1</text>
</a>
</g>
</g>
<!-- dir_5cf9491b962fee1873b116818266060f&#45;&gt;dir_aebb8dcc11953d78e620bbef0b9e2183 -->
<g id="edge13" class="edge">
<title>dir_5cf9491b962fee1873b116818266060f&#45;&gt;dir_aebb8dcc11953d78e620bbef0b9e2183</title>
<g id="a_edge13"><a xlink:href="dir_000039_000005.html" target="_top">
<path fill="none" stroke="#63b8ff" d="M324.28,-54.75C328.71,-47.42 335.16,-36.73 340.62,-27.7"/>
<polygon fill="#63b8ff" stroke="#63b8ff" points="343.64,-29.46 345.81,-19.09 337.65,-25.84 343.64,-29.46"/>
</a>
</g>
<g id="a_edge13&#45;headlabel"><a xlink:href="dir_000039_000005.html" target="_top" xlink:title="2">
<text text-anchor="middle" x="344.21" y="-31.5" font-family="Helvetica,sans-Serif" font-size="10.00" fill="#63b8ff">2</text>
</a>
</g>
</g>
<!-- dir_5cf9491b962fee1873b116818266060f&#45;&gt;dir_1826a32a9d780ddbaf96ec88be56c4cd -->
<g id="edge11" class="edge">
<title>dir_5cf9491b962fee1873b116818266060f&#45;&gt;dir_1826a32a9d780ddbaf96ec88be56c4cd</title>
<g id="a_edge11"><a xlink:href="dir_000039_000034.html" target="_top">
<path fill="none" stroke="#63b8ff" d="M334.75,-54.98C350.23,-46.61 374.09,-33.7 392.14,-23.95"/>
<polygon fill="#63b8ff" stroke="#63b8ff" points="393.84,-27.01 400.97,-19.17 390.51,-20.85 393.84,-27.01"/>
</a>
</g>
<g id="a_edge11&#45;headlabel"><a xlink:href="dir_000039_000034.html" target="_top" xlink:title="2">
<text text-anchor="middle" x="392.03" y="-28.71" font-family="Helvetica,sans-Serif" font-size="10.00" fill="#63b8ff">2</text>
</a>
</g>
</g>
</g>
</svg>
