<?xml version="1.0" encoding="UTF-8" standalone="no"?>
<!DOCTYPE svg PUBLIC "-//W3C//DTD SVG 1.1//EN"
 "http://www.w3.org/Graphics/SVG/1.1/DTD/svg11.dtd">
<!-- Generated by graphviz version 2.43.0 (0)
 -->
<!-- Title: mvvm Pages: 1 -->
<svg width="195pt" height="153pt"
 viewBox="0.00 0.00 194.50 153.00" xmlns="http://www.w3.org/2000/svg" xmlns:xlink="http://www.w3.org/1999/xlink">
<g id="graph0" class="graph" transform="scale(1 1) rotate(0) translate(4 149)">
<title>mvvm</title>
<g id="clust1" class="cluster">
<title>clusterdir_2256196cd3966052bee28db29d7cc7ec</title>
<g id="a_clust1"><a xlink:href="dir_2256196cd3966052bee28db29d7cc7ec.html" target="_top">
<polygon fill="#edf0f7" stroke="#404040" stroke-width="2" points="20.5,-47 20.5,-137 178.5,-137 178.5,-47 20.5,-47"/>
</a>
</g>
</g>
<!-- dir_2256196cd3966052bee28db29d7cc7ec -->
<g id="node1" class="node">
<title>dir_2256196cd3966052bee28db29d7cc7ec</title>
<text text-anchor="middle" x="146.5" y="-117" font-family="Helvetica,sans-Serif" font-size="10.00">mvvm</text>
</g>
<!-- dir_f243446209784038ee8145a6561dcf3d -->
<g id="node2" class="node">
<title>dir_f243446209784038ee8145a6561dcf3d</title>
<g id="a_node2"><a xlink:href="dir_f243446209784038ee8145a6561dcf3d.html" target="_top" xlink:title="models">
<polygon fill="#a2b4d6" stroke="#404040" points="93,-74 40,-74 40,-55 93,-55 93,-74"/>
<text text-anchor="middle" x="66.5" y="-62" font-family="Helvetica,sans-Serif" font-size="10.00">models</text>
</a>
</g>
</g>
<!-- dir_056ec8f0377ddc4293192cbc6b19c99c -->
<g id="node4" class="node">
<title>dir_056ec8f0377ddc4293192cbc6b19c99c</title>
<g id="a_node4"><a xlink:href="dir_056ec8f0377ddc4293192cbc6b19c99c.html" target="_top" xlink:title="services">
<polygon fill="#edf0f7" stroke="red" points="57,-19 0,-19 0,0 57,0 57,-19"/>
<text text-anchor="middle" x="28.5" y="-7" font-family="Helvetica,sans-Serif" font-size="10.00">services</text>
</a>
</g>
</g>
<!-- dir_f243446209784038ee8145a6561dcf3d&#45;&gt;dir_056ec8f0377ddc4293192cbc6b19c99c -->
<g id="edge1" class="edge">
<title>dir_f243446209784038ee8145a6561dcf3d&#45;&gt;dir_056ec8f0377ddc4293192cbc6b19c99c</title>
<g id="a_edge1"><a xlink:href="dir_000023_000032.html" target="_top">
<path fill="none" stroke="#63b8ff" d="M60.23,-54.75C54.91,-47.34 47.14,-36.5 40.62,-27.41"/>
<polygon fill="#63b8ff" stroke="#63b8ff" points="43.33,-25.18 34.66,-19.09 37.64,-29.26 43.33,-25.18"/>
</a>
</g>
<g id="a_edge1&#45;headlabel"><a xlink:href="dir_000023_000032.html" target="_top" xlink:title="1">
<text text-anchor="middle" x="47.73" y="-23.94" font-family="Helvetica,sans-Serif" font-size="10.00" fill="#63b8ff">1</text>
</a>
</g>
</g>
<!-- dir_9a1a4359f87a67855aa82c0560dc9571 -->
<g id="node5" class="node">
<title>dir_9a1a4359f87a67855aa82c0560dc9571</title>
<g id="a_node5"><a xlink:href="dir_9a1a4359f87a67855aa82c0560dc9571.html" target="_top" xlink:title="features">
<polygon fill="#edf0f7" stroke="red" points="141,-19 84,-19 84,0 141,0 141,-19"/>
<text text-anchor="middle" x="112.5" y="-7" font-family="Helvetica,sans-Serif" font-size="10.00">features</text>
</a>
</g>
</g>
<!-- dir_f243446209784038ee8145a6561dcf3d&#45;&gt;dir_9a1a4359f87a67855aa82c0560dc9571 -->
<g id="edge2" class="edge">
<title>dir_f243446209784038ee8145a6561dcf3d&#45;&gt;dir_9a1a4359f87a67855aa82c0560dc9571</title>
<g id="a_edge2"><a xlink:href="dir_000023_000011.html" target="_top">
<path fill="none" stroke="#63b8ff" d="M74.1,-54.75C80.66,-47.18 90.32,-36.05 98.31,-26.84"/>
<polygon fill="#63b8ff" stroke="#63b8ff" points="101.13,-28.94 105.05,-19.09 95.85,-24.35 101.13,-28.94"/>
</a>
</g>
<g id="a_edge2&#45;headlabel"><a xlink:href="dir_000023_000011.html" target="_top" xlink:title="3">
<text text-anchor="middle" x="100.92" y="-31.01" font-family="Helvetica,sans-Serif" font-size="10.00" fill="#63b8ff">3</text>
</a>
</g>
</g>
<!-- dir_50f2748e1b96943bbff4f3e69799a46a -->
<g id="node3" class="node">
<title>dir_50f2748e1b96943bbff4f3e69799a46a</title>
<g id="a_node3"><a xlink:href="dir_50f2748e1b96943bbff4f3e69799a46a.html" target="_top" xlink:title="viewmodels">
<polygon fill="#a2b4d6" stroke="#404040" points="104.5,-129 28.5,-129 28.5,-110 104.5,-110 104.5,-129"/>
<text text-anchor="middle" x="66.5" y="-117" font-family="Helvetica,sans-Serif" font-size="10.00">viewmodels</text>
</a>
</g>
</g>
<!-- dir_50f2748e1b96943bbff4f3e69799a46a&#45;&gt;dir_f243446209784038ee8145a6561dcf3d -->
<g id="edge5" class="edge">
<title>dir_50f2748e1b96943bbff4f3e69799a46a&#45;&gt;dir_f243446209784038ee8145a6561dcf3d</title>
<g id="a_edge5"><a xlink:href="dir_000044_000023.html" target="_top">
<path fill="none" stroke="#63b8ff" d="M66.5,-109.75C66.5,-102.8 66.5,-92.85 66.5,-84.13"/>
<polygon fill="#63b8ff" stroke="#63b8ff" points="70,-84.09 66.5,-74.09 63,-84.09 70,-84.09"/>
</a>
</g>
<g id="a_edge5&#45;headlabel"><a xlink:href="dir_000044_000023.html" target="_top" xlink:title="1">
<text text-anchor="middle" x="72.84" y="-85.18" font-family="Helvetica,sans-Serif" font-size="10.00" fill="#63b8ff">1</text>
</a>
</g>
</g>
<!-- dir_50f2748e1b96943bbff4f3e69799a46a&#45;&gt;dir_056ec8f0377ddc4293192cbc6b19c99c -->
<g id="edge3" class="edge">
<title>dir_50f2748e1b96943bbff4f3e69799a46a&#45;&gt;dir_056ec8f0377ddc4293192cbc6b19c99c</title>
<g id="a_edge3"><a xlink:href="dir_000044_000032.html" target="_top">
<path fill="none" stroke="#63b8ff" d="M56.45,-109.77C47.78,-101.53 35.83,-88.34 30.5,-74 25.15,-59.61 25.03,-42.09 26.03,-29.1"/>
<polygon fill="#63b8ff" stroke="#63b8ff" points="29.52,-29.36 27.1,-19.05 22.56,-28.62 29.52,-29.36"/>
</a>
</g>
<g id="a_edge3&#45;headlabel"><a xlink:href="dir_000044_000032.html" target="_top" xlink:title="4">
<text text-anchor="middle" x="31.97" y="-30.73" font-family="Helvetica,sans-Serif" font-size="10.00" fill="#63b8ff">4</text>
</a>
</g>
</g>
<!-- dir_50f2748e1b96943bbff4f3e69799a46a&#45;&gt;dir_9a1a4359f87a67855aa82c0560dc9571 -->
<g id="edge4" class="edge">
<title>dir_50f2748e1b96943bbff4f3e69799a46a&#45;&gt;dir_9a1a4359f87a67855aa82c0560dc9571</title>
<g id="a_edge4"><a xlink:href="dir_000044_000011.html" target="_top">
<path fill="none" stroke="#63b8ff" d="M75.49,-109.85C83.63,-101.47 95.26,-88.01 101.5,-74 107.84,-59.77 110.53,-42.24 111.68,-29.2"/>
<polygon fill="#63b8ff" stroke="#63b8ff" points="115.18,-29.31 112.33,-19.1 108.19,-28.85 115.18,-29.31"/>
</a>
</g>
<g id="a_edge4&#45;headlabel"><a xlink:href="dir_000044_000011.html" target="_top" xlink:title="17">
<text text-anchor="middle" x="117.78" y="-30.58" font-family="Helvetica,sans-Serif" font-size="10.00" fill="#63b8ff">17</text>
</a>
</g>
</g>
</g>
</svg>
