<?xml version="1.0" encoding="UTF-8" standalone="no"?>
<!DOCTYPE svg PUBLIC "-//W3C//DTD SVG 1.1//EN"
 "http://www.w3.org/Graphics/SVG/1.1/DTD/svg11.dtd">
<!-- Generated by graphviz version 2.43.0 (0)
 -->
<!-- Title: features Pages: 1 -->
<svg width="514pt" height="263pt"
 viewBox="0.00 0.00 514.41 263.00" xmlns="http://www.w3.org/2000/svg" xmlns:xlink="http://www.w3.org/1999/xlink">
<g id="graph0" class="graph" transform="scale(1 1) rotate(0) translate(4 259)">
<title>features</title>
<g id="clust1" class="cluster">
<title>clusterdir_9a1a4359f87a67855aa82c0560dc9571</title>
<g id="a_clust1"><a xlink:href="dir_9a1a4359f87a67855aa82c0560dc9571.html" target="_top">
<polygon fill="#edf0f7" stroke="#404040" stroke-width="2" points="167.68,-47 167.68,-247 459.68,-247 459.68,-47 167.68,-47"/>
</a>
</g>
</g>
<!-- dir_9a1a4359f87a67855aa82c0560dc9571 -->
<g id="node1" class="node">
<title>dir_9a1a4359f87a67855aa82c0560dc9571</title>
<text text-anchor="middle" x="348.68" y="-227" font-family="Helvetica,sans-Serif" font-size="10.00">features</text>
</g>
<!-- dir_b5c486ced7f7b3058172cc29c85106d2 -->
<g id="node2" class="node">
<title>dir_b5c486ced7f7b3058172cc29c85106d2</title>
<g id="a_node2"><a xlink:href="dir_b5c486ced7f7b3058172cc29c85106d2.html" target="_top" xlink:title="communication">
<polygon fill="#a2b4d6" stroke="#404040" points="395.68,-74 303.68,-74 303.68,-55 395.68,-55 395.68,-74"/>
<text text-anchor="middle" x="349.68" y="-62" font-family="Helvetica,sans-Serif" font-size="10.00">communication</text>
</a>
</g>
</g>
<!-- dir_056ec8f0377ddc4293192cbc6b19c99c -->
<g id="node10" class="node">
<title>dir_056ec8f0377ddc4293192cbc6b19c99c</title>
<g id="a_node10"><a xlink:href="dir_056ec8f0377ddc4293192cbc6b19c99c.html" target="_top" xlink:title="services">
<polygon fill="#edf0f7" stroke="red" points="193.18,-19 136.18,-19 136.18,0 193.18,0 193.18,-19"/>
<text text-anchor="middle" x="164.68" y="-7" font-family="Helvetica,sans-Serif" font-size="10.00">services</text>
</a>
</g>
</g>
<!-- dir_b5c486ced7f7b3058172cc29c85106d2&#45;&gt;dir_056ec8f0377ddc4293192cbc6b19c99c -->
<g id="edge2" class="edge">
<title>dir_b5c486ced7f7b3058172cc29c85106d2&#45;&gt;dir_056ec8f0377ddc4293192cbc6b19c99c</title>
<g id="a_edge2"><a xlink:href="dir_000003_000032.html" target="_top">
<path fill="none" stroke="#63b8ff" d="M319.95,-54.98C288.25,-45.9 237.93,-31.49 203.21,-21.54"/>
<polygon fill="#63b8ff" stroke="#63b8ff" points="203.99,-18.12 193.41,-18.73 202.06,-24.85 203.99,-18.12"/>
</a>
</g>
<g id="a_edge2&#45;headlabel"><a xlink:href="dir_000003_000032.html" target="_top" xlink:title="5">
<text text-anchor="middle" x="208.23" y="-13.88" font-family="Helvetica,sans-Serif" font-size="10.00" fill="#63b8ff">5</text>
</a>
</g>
</g>
<!-- dir_4270bfced15e0e73154b13468c7c9ad9 -->
<g id="node11" class="node">
<title>dir_4270bfced15e0e73154b13468c7c9ad9</title>
<g id="a_node11"><a xlink:href="dir_4270bfced15e0e73154b13468c7c9ad9.html" target="_top" xlink:title="core">
<polygon fill="#edf0f7" stroke="red" points="476.68,-19 438.68,-19 438.68,0 476.68,0 476.68,-19"/>
<text text-anchor="middle" x="457.68" y="-7" font-family="Helvetica,sans-Serif" font-size="10.00">core</text>
</a>
</g>
</g>
<!-- dir_b5c486ced7f7b3058172cc29c85106d2&#45;&gt;dir_4270bfced15e0e73154b13468c7c9ad9 -->
<g id="edge1" class="edge">
<title>dir_b5c486ced7f7b3058172cc29c85106d2&#45;&gt;dir_4270bfced15e0e73154b13468c7c9ad9</title>
<g id="a_edge1"><a xlink:href="dir_000003_000005.html" target="_top">
<path fill="none" stroke="#63b8ff" d="M367.03,-54.98C384.25,-46.54 410.87,-33.47 430.82,-23.68"/>
<polygon fill="#63b8ff" stroke="#63b8ff" points="432.57,-26.72 440.01,-19.17 429.49,-20.43 432.57,-26.72"/>
</a>
</g>
<g id="a_edge1&#45;headlabel"><a xlink:href="dir_000003_000005.html" target="_top" xlink:title="2">
<text text-anchor="middle" x="430.6" y="-28.35" font-family="Helvetica,sans-Serif" font-size="10.00" fill="#63b8ff">2</text>
</a>
</g>
</g>
<!-- dir_98637938cbf3a95d7b234ef89b38d992 -->
<g id="node3" class="node">
<title>dir_98637938cbf3a95d7b234ef89b38d992</title>
<g id="a_node3"><a xlink:href="dir_98637938cbf3a95d7b234ef89b38d992.html" target="_top" xlink:title="file_export">
<polygon fill="#a2b4d6" stroke="#404040" points="377.68,-129 309.68,-129 309.68,-110 377.68,-110 377.68,-129"/>
<text text-anchor="middle" x="343.68" y="-117" font-family="Helvetica,sans-Serif" font-size="10.00">file_export</text>
</a>
</g>
</g>
<!-- dir_98637938cbf3a95d7b234ef89b38d992&#45;&gt;dir_b5c486ced7f7b3058172cc29c85106d2 -->
<g id="edge3" class="edge">
<title>dir_98637938cbf3a95d7b234ef89b38d992&#45;&gt;dir_b5c486ced7f7b3058172cc29c85106d2</title>
<g id="a_edge3"><a xlink:href="dir_000012_000003.html" target="_top">
<path fill="none" stroke="#63b8ff" d="M344.67,-109.75C345.45,-102.8 346.58,-92.85 347.57,-84.13"/>
<polygon fill="#63b8ff" stroke="#63b8ff" points="351.06,-84.42 348.7,-74.09 344.1,-83.63 351.06,-84.42"/>
</a>
</g>
<g id="a_edge3&#45;headlabel"><a xlink:href="dir_000012_000003.html" target="_top" xlink:title="2">
<text text-anchor="middle" x="353.47" y="-85.81" font-family="Helvetica,sans-Serif" font-size="10.00" fill="#63b8ff">2</text>
</a>
</g>
</g>
<!-- dir_98637938cbf3a95d7b234ef89b38d992&#45;&gt;dir_056ec8f0377ddc4293192cbc6b19c99c -->
<g id="edge4" class="edge">
<title>dir_98637938cbf3a95d7b234ef89b38d992&#45;&gt;dir_056ec8f0377ddc4293192cbc6b19c99c</title>
<g id="a_edge4"><a xlink:href="dir_000012_000032.html" target="_top">
<path fill="none" stroke="#63b8ff" d="M323.39,-109.95C304.38,-101.65 275.41,-88.24 251.68,-74 226.96,-59.17 200.47,-39.18 183.3,-25.62"/>
<polygon fill="#63b8ff" stroke="#63b8ff" points="185.23,-22.68 175.23,-19.17 180.86,-28.15 185.23,-22.68"/>
</a>
</g>
<g id="a_edge4&#45;headlabel"><a xlink:href="dir_000012_000032.html" target="_top" xlink:title="1">
<text text-anchor="middle" x="189.81" y="-20.2" font-family="Helvetica,sans-Serif" font-size="10.00" fill="#63b8ff">1</text>
</a>
</g>
</g>
<!-- dir_e108835873e171c02e9337e9776b7a87 -->
<g id="node4" class="node">
<title>dir_e108835873e171c02e9337e9776b7a87</title>
<g id="a_node4"><a xlink:href="dir_e108835873e171c02e9337e9776b7a87.html" target="_top" xlink:title="graphics">
<polygon fill="#a2b4d6" stroke="#404040" points="360.68,-184 302.68,-184 302.68,-165 360.68,-165 360.68,-184"/>
<text text-anchor="middle" x="331.68" y="-172" font-family="Helvetica,sans-Serif" font-size="10.00">graphics</text>
</a>
</g>
</g>
<!-- dir_3a88130e324a8fd3218be1d547f11d36 -->
<g id="node9" class="node">
<title>dir_3a88130e324a8fd3218be1d547f11d36</title>
<g id="a_node9"><a xlink:href="dir_3a88130e324a8fd3218be1d547f11d36.html" target="_top" xlink:title="test">
<polygon fill="#a2b4d6" stroke="#404040" points="431.18,-129 396.18,-129 396.18,-110 431.18,-110 431.18,-129"/>
<text text-anchor="middle" x="413.68" y="-117" font-family="Helvetica,sans-Serif" font-size="10.00">test</text>
</a>
</g>
</g>
<!-- dir_e108835873e171c02e9337e9776b7a87&#45;&gt;dir_3a88130e324a8fd3218be1d547f11d36 -->
<g id="edge6" class="edge">
<title>dir_e108835873e171c02e9337e9776b7a87&#45;&gt;dir_3a88130e324a8fd3218be1d547f11d36</title>
<g id="a_edge6"><a xlink:href="dir_000018_000035.html" target="_top">
<path fill="none" stroke="#63b8ff" d="M344.85,-164.98C357.45,-156.84 376.68,-144.41 391.62,-134.76"/>
<polygon fill="#63b8ff" stroke="#63b8ff" points="393.76,-137.54 400.26,-129.17 389.96,-131.66 393.76,-137.54"/>
</a>
</g>
<g id="a_edge6&#45;headlabel"><a xlink:href="dir_000018_000035.html" target="_top" xlink:title="1">
<text text-anchor="middle" x="392.29" y="-139.37" font-family="Helvetica,sans-Serif" font-size="10.00" fill="#63b8ff">1</text>
</a>
</g>
</g>
<!-- dir_e108835873e171c02e9337e9776b7a87&#45;&gt;dir_056ec8f0377ddc4293192cbc6b19c99c -->
<g id="edge7" class="edge">
<title>dir_e108835873e171c02e9337e9776b7a87&#45;&gt;dir_056ec8f0377ddc4293192cbc6b19c99c</title>
<g id="a_edge7"><a xlink:href="dir_000018_000032.html" target="_top">
<path fill="none" stroke="#63b8ff" d="M302.31,-168.96C249.78,-160.54 144.22,-142.17 133.68,-129 110.91,-100.54 121.11,-81.21 133.68,-47 136.48,-39.38 141.65,-32.27 146.98,-26.38"/>
<polygon fill="#63b8ff" stroke="#63b8ff" points="149.57,-28.74 154.13,-19.18 144.6,-23.8 149.57,-28.74"/>
</a>
</g>
<g id="a_edge7&#45;headlabel"><a xlink:href="dir_000018_000032.html" target="_top" xlink:title="1">
<text text-anchor="middle" x="149.05" y="-30.79" font-family="Helvetica,sans-Serif" font-size="10.00" fill="#63b8ff">1</text>
</a>
</g>
</g>
<!-- dir_e108835873e171c02e9337e9776b7a87&#45;&gt;dir_4270bfced15e0e73154b13468c7c9ad9 -->
<g id="edge8" class="edge">
<title>dir_e108835873e171c02e9337e9776b7a87&#45;&gt;dir_4270bfced15e0e73154b13468c7c9ad9</title>
<g id="a_edge8"><a xlink:href="dir_000018_000005.html" target="_top">
<path fill="none" stroke="#63b8ff" d="M360.75,-165.11C389.37,-156.26 430.25,-141.86 440.68,-129 463.84,-100.45 463.11,-54.77 460.44,-29.27"/>
<polygon fill="#63b8ff" stroke="#63b8ff" points="463.89,-28.59 459.16,-19.11 456.94,-29.47 463.89,-28.59"/>
</a>
</g>
<g id="a_edge8&#45;headlabel"><a xlink:href="dir_000018_000005.html" target="_top" xlink:title="1">
<text text-anchor="middle" x="467.15" y="-29.3" font-family="Helvetica,sans-Serif" font-size="10.00" fill="#63b8ff">1</text>
</a>
</g>
</g>
<!-- dir_2256196cd3966052bee28db29d7cc7ec -->
<g id="node12" class="node">
<title>dir_2256196cd3966052bee28db29d7cc7ec</title>
<g id="a_node12"><a xlink:href="dir_2256196cd3966052bee28db29d7cc7ec.html" target="_top" xlink:title="mvvm">
<polygon fill="#edf0f7" stroke="red" points="69.68,-74 21.68,-74 21.68,-55 69.68,-55 69.68,-74"/>
<text text-anchor="middle" x="45.68" y="-62" font-family="Helvetica,sans-Serif" font-size="10.00">mvvm</text>
</a>
</g>
</g>
<!-- dir_e108835873e171c02e9337e9776b7a87&#45;&gt;dir_2256196cd3966052bee28db29d7cc7ec -->
<g id="edge5" class="edge">
<title>dir_e108835873e171c02e9337e9776b7a87&#45;&gt;dir_2256196cd3966052bee28db29d7cc7ec</title>
<g id="a_edge5"><a xlink:href="dir_000018_000024.html" target="_top">
<path fill="none" stroke="#63b8ff" d="M302.63,-169C232.56,-158.13 59.88,-131.14 57.68,-129 46.01,-117.63 43.72,-98.73 43.92,-84.5"/>
<polygon fill="#63b8ff" stroke="#63b8ff" points="47.42,-84.5 44.48,-74.32 40.43,-84.12 47.42,-84.5"/>
</a>
</g>
<g id="a_edge5&#45;headlabel"><a xlink:href="dir_000018_000024.html" target="_top" xlink:title="1">
<text text-anchor="middle" x="50.06" y="-85.75" font-family="Helvetica,sans-Serif" font-size="10.00" fill="#63b8ff">1</text>
</a>
</g>
</g>
<!-- dir_a19f7f8439d68ea2047ffb19535730fb -->
<g id="node5" class="node">
<title>dir_a19f7f8439d68ea2047ffb19535730fb</title>
<g id="a_node5"><a xlink:href="dir_a19f7f8439d68ea2047ffb19535730fb.html" target="_top" xlink:title="menu_bar">
<polygon fill="#a2b4d6" stroke="#404040" points="266.18,-184 201.18,-184 201.18,-165 266.18,-165 266.18,-184"/>
<text text-anchor="middle" x="233.68" y="-172" font-family="Helvetica,sans-Serif" font-size="10.00">menu_bar</text>
</a>
</g>
</g>
<!-- dir_a19f7f8439d68ea2047ffb19535730fb&#45;&gt;dir_98637938cbf3a95d7b234ef89b38d992 -->
<g id="edge10" class="edge">
<title>dir_a19f7f8439d68ea2047ffb19535730fb&#45;&gt;dir_98637938cbf3a95d7b234ef89b38d992</title>
<g id="a_edge10"><a xlink:href="dir_000021_000012.html" target="_top">
<path fill="none" stroke="#63b8ff" d="M251.35,-164.98C268.97,-156.5 296.25,-143.35 316.6,-133.54"/>
<polygon fill="#63b8ff" stroke="#63b8ff" points="318.19,-136.66 325.68,-129.17 315.15,-130.36 318.19,-136.66"/>
</a>
</g>
<g id="a_edge10&#45;headlabel"><a xlink:href="dir_000021_000012.html" target="_top" xlink:title="3">
<text text-anchor="middle" x="316.19" y="-138.28" font-family="Helvetica,sans-Serif" font-size="10.00" fill="#63b8ff">3</text>
</a>
</g>
</g>
<!-- dir_f2363ea00840c7f617c3e9062de098a6 -->
<g id="node7" class="node">
<title>dir_f2363ea00840c7f617c3e9062de098a6</title>
<g id="a_node7"><a xlink:href="dir_f2363ea00840c7f617c3e9062de098a6.html" target="_top" xlink:title="parameters_window">
<polygon fill="#a2b4d6" stroke="#404040" points="291.68,-129 175.68,-129 175.68,-110 291.68,-110 291.68,-129"/>
<text text-anchor="middle" x="233.68" y="-117" font-family="Helvetica,sans-Serif" font-size="10.00">parameters_window</text>
</a>
</g>
</g>
<!-- dir_a19f7f8439d68ea2047ffb19535730fb&#45;&gt;dir_f2363ea00840c7f617c3e9062de098a6 -->
<g id="edge11" class="edge">
<title>dir_a19f7f8439d68ea2047ffb19535730fb&#45;&gt;dir_f2363ea00840c7f617c3e9062de098a6</title>
<g id="a_edge11"><a xlink:href="dir_000021_000026.html" target="_top">
<path fill="none" stroke="#63b8ff" d="M233.68,-164.75C233.68,-157.8 233.68,-147.85 233.68,-139.13"/>
<polygon fill="#63b8ff" stroke="#63b8ff" points="237.18,-139.09 233.68,-129.09 230.18,-139.09 237.18,-139.09"/>
</a>
</g>
<g id="a_edge11&#45;headlabel"><a xlink:href="dir_000021_000026.html" target="_top" xlink:title="1">
<text text-anchor="middle" x="240.02" y="-140.18" font-family="Helvetica,sans-Serif" font-size="10.00" fill="#63b8ff">1</text>
</a>
</g>
</g>
<!-- dir_a19f7f8439d68ea2047ffb19535730fb&#45;&gt;dir_2256196cd3966052bee28db29d7cc7ec -->
<g id="edge9" class="edge">
<title>dir_a19f7f8439d68ea2047ffb19535730fb&#45;&gt;dir_2256196cd3966052bee28db29d7cc7ec</title>
<g id="a_edge9"><a xlink:href="dir_000021_000024.html" target="_top">
<path fill="none" stroke="#63b8ff" d="M201.17,-171.61C147.05,-167.7 42.19,-156.67 19.68,-129 8.35,-115.07 19.37,-95.53 30.35,-81.82"/>
<polygon fill="#63b8ff" stroke="#63b8ff" points="33.1,-83.99 36.99,-74.13 27.8,-79.42 33.1,-83.99"/>
</a>
</g>
<g id="a_edge9&#45;headlabel"><a xlink:href="dir_000021_000024.html" target="_top" xlink:title="2">
<text text-anchor="middle" x="32.9" y="-86.07" font-family="Helvetica,sans-Serif" font-size="10.00" fill="#63b8ff">2</text>
</a>
</g>
</g>
<!-- dir_57c2784cc3a73e6b518e8b04b8d7301b -->
<g id="node6" class="node">
<title>dir_57c2784cc3a73e6b518e8b04b8d7301b</title>
<g id="a_node6"><a xlink:href="dir_57c2784cc3a73e6b518e8b04b8d7301b.html" target="_top" xlink:title="overlay">
<polygon fill="#a2b4d6" stroke="#404040" points="229.18,-239 176.18,-239 176.18,-220 229.18,-220 229.18,-239"/>
<text text-anchor="middle" x="202.68" y="-227" font-family="Helvetica,sans-Serif" font-size="10.00">overlay</text>
</a>
</g>
</g>
<!-- dir_08952b624b8f2d3ccfc42640323d32b4 -->
<g id="node8" class="node">
<title>dir_08952b624b8f2d3ccfc42640323d32b4</title>
<g id="a_node8"><a xlink:href="dir_08952b624b8f2d3ccfc42640323d32b4.html" target="_top" xlink:title="pid">
<polygon fill="#a2b4d6" stroke="#404040" points="419.68,-184 387.68,-184 387.68,-165 419.68,-165 419.68,-184"/>
<text text-anchor="middle" x="403.68" y="-172" font-family="Helvetica,sans-Serif" font-size="10.00">pid</text>
</a>
</g>
</g>
<!-- dir_57c2784cc3a73e6b518e8b04b8d7301b&#45;&gt;dir_08952b624b8f2d3ccfc42640323d32b4 -->
<g id="edge13" class="edge">
<title>dir_57c2784cc3a73e6b518e8b04b8d7301b&#45;&gt;dir_08952b624b8f2d3ccfc42640323d32b4</title>
<g id="a_edge13"><a xlink:href="dir_000025_000027.html" target="_top">
<path fill="none" stroke="#63b8ff" d="M229.37,-221.46C268.12,-211.24 339.5,-192.42 377.79,-182.32"/>
<polygon fill="#63b8ff" stroke="#63b8ff" points="378.88,-185.66 387.66,-179.72 377.1,-178.89 378.88,-185.66"/>
</a>
</g>
<g id="a_edge13&#45;headlabel"><a xlink:href="dir_000025_000027.html" target="_top" xlink:title="1">
<text text-anchor="middle" x="376.13" y="-186.82" font-family="Helvetica,sans-Serif" font-size="10.00" fill="#63b8ff">1</text>
</a>
</g>
</g>
<!-- dir_57c2784cc3a73e6b518e8b04b8d7301b&#45;&gt;dir_056ec8f0377ddc4293192cbc6b19c99c -->
<g id="edge12" class="edge">
<title>dir_57c2784cc3a73e6b518e8b04b8d7301b&#45;&gt;dir_056ec8f0377ddc4293192cbc6b19c99c</title>
<g id="a_edge12"><a xlink:href="dir_000025_000032.html" target="_top">
<path fill="none" stroke="#63b8ff" d="M176.06,-227.04C141.4,-223.94 80.33,-214.25 38.68,-184 15.04,-166.83 11.02,-157 2.68,-129 -4.29,-105.63 3.94,-56.45 12.68,-47 27.85,-30.59 86.39,-20.19 126.23,-14.86"/>
<polygon fill="#63b8ff" stroke="#63b8ff" points="126.7,-18.33 136.17,-13.58 125.81,-11.38 126.7,-18.33"/>
</a>
</g>
<g id="a_edge12&#45;headlabel"><a xlink:href="dir_000025_000032.html" target="_top" xlink:title="1">
<text text-anchor="middle" x="123.5" y="-19.1" font-family="Helvetica,sans-Serif" font-size="10.00" fill="#63b8ff">1</text>
</a>
</g>
</g>
<!-- dir_57c2784cc3a73e6b518e8b04b8d7301b&#45;&gt;dir_2256196cd3966052bee28db29d7cc7ec -->
<g id="edge14" class="edge">
<title>dir_57c2784cc3a73e6b518e8b04b8d7301b&#45;&gt;dir_2256196cd3966052bee28db29d7cc7ec</title>
<g id="a_edge14"><a xlink:href="dir_000025_000024.html" target="_top">
<path fill="none" stroke="#63b8ff" d="M175.95,-223.71C132.33,-214.29 47.06,-188.83 10.68,-129 0.94,-113 14.35,-94.14 27.28,-81.16"/>
<polygon fill="#63b8ff" stroke="#63b8ff" points="29.75,-83.65 34.67,-74.26 24.97,-78.53 29.75,-83.65"/>
</a>
</g>
<g id="a_edge14&#45;headlabel"><a xlink:href="dir_000025_000024.html" target="_top" xlink:title="1">
<text text-anchor="middle" x="29.06" y="-85.67" font-family="Helvetica,sans-Serif" font-size="10.00" fill="#63b8ff">1</text>
</a>
</g>
</g>
<!-- dir_f2363ea00840c7f617c3e9062de098a6&#45;&gt;dir_b5c486ced7f7b3058172cc29c85106d2 -->
<g id="edge16" class="edge">
<title>dir_f2363ea00840c7f617c3e9062de098a6&#45;&gt;dir_b5c486ced7f7b3058172cc29c85106d2</title>
<g id="a_edge16"><a xlink:href="dir_000026_000003.html" target="_top">
<path fill="none" stroke="#63b8ff" d="M252.31,-109.98C270.97,-101.46 299.93,-88.23 321.42,-78.41"/>
<polygon fill="#63b8ff" stroke="#63b8ff" points="323.06,-81.51 330.7,-74.17 320.15,-75.14 323.06,-81.51"/>
</a>
</g>
<g id="a_edge16&#45;headlabel"><a xlink:href="dir_000026_000003.html" target="_top" xlink:title="3">
<text text-anchor="middle" x="320.97" y="-83.09" font-family="Helvetica,sans-Serif" font-size="10.00" fill="#63b8ff">3</text>
</a>
</g>
</g>
<!-- dir_f2363ea00840c7f617c3e9062de098a6&#45;&gt;dir_2256196cd3966052bee28db29d7cc7ec -->
<g id="edge15" class="edge">
<title>dir_f2363ea00840c7f617c3e9062de098a6&#45;&gt;dir_2256196cd3966052bee28db29d7cc7ec</title>
<g id="a_edge15"><a xlink:href="dir_000026_000024.html" target="_top">
<path fill="none" stroke="#63b8ff" d="M203.47,-109.98C169.65,-100.45 114.97,-85.03 79.68,-75.09"/>
<polygon fill="#63b8ff" stroke="#63b8ff" points="80.4,-71.65 69.83,-72.31 78.51,-78.39 80.4,-71.65"/>
</a>
</g>
<g id="a_edge15&#45;headlabel"><a xlink:href="dir_000026_000024.html" target="_top" xlink:title="1">
<text text-anchor="middle" x="84.63" y="-67.4" font-family="Helvetica,sans-Serif" font-size="10.00" fill="#63b8ff">1</text>
</a>
</g>
</g>
<!-- dir_08952b624b8f2d3ccfc42640323d32b4&#45;&gt;dir_b5c486ced7f7b3058172cc29c85106d2 -->
<g id="edge21" class="edge">
<title>dir_08952b624b8f2d3ccfc42640323d32b4&#45;&gt;dir_b5c486ced7f7b3058172cc29c85106d2</title>
<g id="a_edge21"><a xlink:href="dir_000027_000003.html" target="_top">
<path fill="none" stroke="#63b8ff" d="M415.24,-164.77C430.12,-152.44 452.7,-129.27 440.68,-110 431.02,-94.54 414.27,-84.3 397.75,-77.59"/>
<polygon fill="#63b8ff" stroke="#63b8ff" points="398.69,-74.21 388.1,-74.04 396.27,-80.78 398.69,-74.21"/>
</a>
</g>
<g id="a_edge21&#45;headlabel"><a xlink:href="dir_000027_000003.html" target="_top" xlink:title="2">
<text text-anchor="middle" x="403.05" y="-70.29" font-family="Helvetica,sans-Serif" font-size="10.00" fill="#63b8ff">2</text>
</a>
</g>
</g>
<!-- dir_08952b624b8f2d3ccfc42640323d32b4&#45;&gt;dir_3a88130e324a8fd3218be1d547f11d36 -->
<g id="edge19" class="edge">
<title>dir_08952b624b8f2d3ccfc42640323d32b4&#45;&gt;dir_3a88130e324a8fd3218be1d547f11d36</title>
<g id="a_edge19"><a xlink:href="dir_000027_000035.html" target="_top">
<path fill="none" stroke="#63b8ff" d="M405.33,-164.75C406.64,-157.8 408.52,-147.85 410.16,-139.13"/>
<polygon fill="#63b8ff" stroke="#63b8ff" points="413.64,-139.56 412.06,-129.09 406.76,-138.27 413.64,-139.56"/>
</a>
</g>
<g id="a_edge19&#45;headlabel"><a xlink:href="dir_000027_000035.html" target="_top" xlink:title="6">
<text text-anchor="middle" x="415.76" y="-141.12" font-family="Helvetica,sans-Serif" font-size="10.00" fill="#63b8ff">6</text>
</a>
</g>
</g>
<!-- dir_08952b624b8f2d3ccfc42640323d32b4&#45;&gt;dir_056ec8f0377ddc4293192cbc6b19c99c -->
<g id="edge17" class="edge">
<title>dir_08952b624b8f2d3ccfc42640323d32b4&#45;&gt;dir_056ec8f0377ddc4293192cbc6b19c99c</title>
<g id="a_edge17"><a xlink:href="dir_000027_000032.html" target="_top">
<path fill="none" stroke="#63b8ff" d="M387.47,-169.21C381.86,-167.78 375.51,-166.24 369.68,-165 324.87,-155.44 196.4,-163.86 166.68,-129 142.85,-101.05 151.28,-54.47 158.56,-28.82"/>
<polygon fill="#63b8ff" stroke="#63b8ff" points="161.92,-29.82 161.52,-19.23 155.23,-27.75 161.92,-29.82"/>
</a>
</g>
<g id="a_edge17&#45;headlabel"><a xlink:href="dir_000027_000032.html" target="_top" xlink:title="2">
<text text-anchor="middle" x="163.57" y="-31.59" font-family="Helvetica,sans-Serif" font-size="10.00" fill="#63b8ff">2</text>
</a>
</g>
</g>
<!-- dir_08952b624b8f2d3ccfc42640323d32b4&#45;&gt;dir_4270bfced15e0e73154b13468c7c9ad9 -->
<g id="edge20" class="edge">
<title>dir_08952b624b8f2d3ccfc42640323d32b4&#45;&gt;dir_4270bfced15e0e73154b13468c7c9ad9</title>
<g id="a_edge20"><a xlink:href="dir_000027_000005.html" target="_top">
<path fill="none" stroke="#63b8ff" d="M419.81,-170.81C441.02,-166.32 477.49,-155.06 493.68,-129 512.91,-98.04 507.51,-80.72 493.68,-47 490.35,-38.89 484.26,-31.63 478.02,-25.75"/>
<polygon fill="#63b8ff" stroke="#63b8ff" points="480.11,-22.93 470.24,-19.09 475.56,-28.25 480.11,-22.93"/>
</a>
</g>
<g id="a_edge20&#45;headlabel"><a xlink:href="dir_000027_000005.html" target="_top" xlink:title="1">
<text text-anchor="middle" x="484.69" y="-20.61" font-family="Helvetica,sans-Serif" font-size="10.00" fill="#63b8ff">1</text>
</a>
</g>
</g>
<!-- dir_08952b624b8f2d3ccfc42640323d32b4&#45;&gt;dir_2256196cd3966052bee28db29d7cc7ec -->
<g id="edge18" class="edge">
<title>dir_08952b624b8f2d3ccfc42640323d32b4&#45;&gt;dir_2256196cd3966052bee28db29d7cc7ec</title>
<g id="a_edge18"><a xlink:href="dir_000027_000024.html" target="_top">
<path fill="none" stroke="#63b8ff" d="M387.49,-169.12C381.88,-167.69 375.52,-166.17 369.68,-165 265.65,-144.11 231.88,-169.16 133.68,-129 106.06,-117.7 78.93,-96.08 62.25,-81.23"/>
<polygon fill="#63b8ff" stroke="#63b8ff" points="64.28,-78.34 54.54,-74.17 59.56,-83.5 64.28,-78.34"/>
</a>
</g>
<g id="a_edge18&#45;headlabel"><a xlink:href="dir_000027_000024.html" target="_top" xlink:title="1">
<text text-anchor="middle" x="68.85" y="-76.17" font-family="Helvetica,sans-Serif" font-size="10.00" fill="#63b8ff">1</text>
</a>
</g>
</g>
<!-- dir_3a88130e324a8fd3218be1d547f11d36&#45;&gt;dir_b5c486ced7f7b3058172cc29c85106d2 -->
<g id="edge25" class="edge">
<title>dir_3a88130e324a8fd3218be1d547f11d36&#45;&gt;dir_b5c486ced7f7b3058172cc29c85106d2</title>
<g id="a_edge25"><a xlink:href="dir_000035_000003.html" target="_top">
<path fill="none" stroke="#63b8ff" d="M403.39,-109.98C393.84,-102.07 379.4,-90.11 367.89,-80.58"/>
<polygon fill="#63b8ff" stroke="#63b8ff" points="370.08,-77.85 360.15,-74.17 365.62,-83.24 370.08,-77.85"/>
</a>
</g>
<g id="a_edge25&#45;headlabel"><a xlink:href="dir_000035_000003.html" target="_top" xlink:title="7">
<text text-anchor="middle" x="374.66" y="-75.46" font-family="Helvetica,sans-Serif" font-size="10.00" fill="#63b8ff">7</text>
</a>
</g>
</g>
<!-- dir_3a88130e324a8fd3218be1d547f11d36&#45;&gt;dir_056ec8f0377ddc4293192cbc6b19c99c -->
<g id="edge22" class="edge">
<title>dir_3a88130e324a8fd3218be1d547f11d36&#45;&gt;dir_056ec8f0377ddc4293192cbc6b19c99c</title>
<g id="a_edge22"><a xlink:href="dir_000035_000032.html" target="_top">
<path fill="none" stroke="#63b8ff" d="M396.01,-112.79C372.48,-104.99 329.75,-90.12 294.68,-74 272.08,-63.62 267.92,-58.12 245.68,-47 228.93,-38.63 209.85,-29.99 194.41,-23.22"/>
<polygon fill="#63b8ff" stroke="#63b8ff" points="195.42,-19.84 184.86,-19.06 192.63,-26.26 195.42,-19.84"/>
</a>
</g>
<g id="a_edge22&#45;headlabel"><a xlink:href="dir_000035_000032.html" target="_top" xlink:title="4">
<text text-anchor="middle" x="199.85" y="-16.17" font-family="Helvetica,sans-Serif" font-size="10.00" fill="#63b8ff">4</text>
</a>
</g>
</g>
<!-- dir_3a88130e324a8fd3218be1d547f11d36&#45;&gt;dir_4270bfced15e0e73154b13468c7c9ad9 -->
<g id="edge24" class="edge">
<title>dir_3a88130e324a8fd3218be1d547f11d36&#45;&gt;dir_4270bfced15e0e73154b13468c7c9ad9</title>
<g id="a_edge24"><a xlink:href="dir_000035_000005.html" target="_top">
<path fill="none" stroke="#63b8ff" d="M417.28,-109.66C424.47,-92.01 440.73,-52.09 450.29,-28.64"/>
<polygon fill="#63b8ff" stroke="#63b8ff" points="453.62,-29.74 454.15,-19.16 447.13,-27.1 453.62,-29.74"/>
</a>
</g>
<g id="a_edge24&#45;headlabel"><a xlink:href="dir_000035_000005.html" target="_top" xlink:title="9">
<text text-anchor="middle" x="454.89" y="-31.64" font-family="Helvetica,sans-Serif" font-size="10.00" fill="#63b8ff">9</text>
</a>
</g>
</g>
<!-- dir_3a88130e324a8fd3218be1d547f11d36&#45;&gt;dir_2256196cd3966052bee28db29d7cc7ec -->
<g id="edge23" class="edge">
<title>dir_3a88130e324a8fd3218be1d547f11d36&#45;&gt;dir_2256196cd3966052bee28db29d7cc7ec</title>
<g id="a_edge23"><a xlink:href="dir_000035_000024.html" target="_top">
<path fill="none" stroke="#63b8ff" d="M396.08,-112.47C392.97,-111.55 389.75,-110.68 386.68,-110 275.91,-85.53 141.71,-72.87 79.89,-67.97"/>
<polygon fill="#63b8ff" stroke="#63b8ff" points="80.15,-64.48 69.91,-67.2 79.61,-71.46 80.15,-64.48"/>
</a>
</g>
<g id="a_edge23&#45;headlabel"><a xlink:href="dir_000035_000024.html" target="_top" xlink:title="2">
<text text-anchor="middle" x="83.95" y="-59.43" font-family="Helvetica,sans-Serif" font-size="10.00" fill="#63b8ff">2</text>
</a>
</g>
</g>
</g>
</svg>
