<?xml version="1.0" encoding="UTF-8" standalone="no"?>
<!DOCTYPE svg PUBLIC "-//W3C//DTD SVG 1.1//EN"
 "http://www.w3.org/Graphics/SVG/1.1/DTD/svg11.dtd">
<!-- Generated by graphviz version 2.43.0 (0)
 -->
<!-- Title: features/test/frames Pages: 1 -->
<!--zoomable 125 -->

<svg id="main" version="1.1" xmlns="http://www.w3.org/2000/svg" xmlns:xlink="http://www.w3.org/1999/xlink" xml:space="preserve" onload="init(evt)">
<style type="text/css"><![CDATA[
.node, .edge {opacity: 0.7;}
.node.selected, .edge.selected {opacity: 1;}
.edge:hover path { stroke: red; }
.edge:hover polygon { stroke: red; fill: red; }
]]></style>

<defs>
  <circle id="rim" cx="0" cy="0" r="7"/>
  <circle id="rim2" cx="0" cy="0" r="3.5"/>
  <g id="zoomPlus">
    <use xlink:href="#rim" fill="#404040"><set attributeName="fill" to="#808080" begin="zoomplus.mouseover" end="zoomplus.mouseout"/></use>
    <path d="M-4,0h8M0,-4v8" fill="none" stroke="white" stroke-width="1.5" pointer-events="none"/>
  </g>
  <g id="zoomMin">
    <use xlink:href="#rim" fill="#404040"><set attributeName="fill" to="#808080" begin="zoomminus.mouseover" end="zoomminus.mouseout"/></use>
    <path d="M-4,0h8" fill="none" stroke="white" stroke-width="1.5" pointer-events="none"/>
  </g>
  <g id="arrowUp" transform="translate(30 24)">
    <use xlink:href="#rim"/>
    <path pointer-events="none" fill="none" stroke="white" stroke-width="1.5" d="M0,-3.0v7 M-2.5,-0.5L0,-3.0L2.5,-0.5"/>
  </g>
  <g id="arrowRight" transform="rotate(90) translate(36 -43)">
    <use xlink:href="#rim"/>
    <path pointer-events="none" fill="none" stroke="white" stroke-width="1.5" d="M0,-3.0v7 M-2.5,-0.5L0,-3.0L2.5,-0.5"/>
  </g>
  <g id="arrowDown" transform="rotate(180) translate(-30 -48)">
    <use xlink:href="#rim"/>
    <path pointer-events="none" fill="none" stroke="white" stroke-width="1.5" d="M0,-3.0v7 M-2.5,-0.5L0,-3.0L2.5,-0.5"/>
  </g>
  <g id="arrowLeft" transform="rotate(270) translate(-36 17)">
    <use xlink:href="#rim"/>
    <path pointer-events="none" fill="none" stroke="white" stroke-width="1.5" d="M0,-3.0v7 M-2.5,-0.5L0,-3.0L2.5,-0.5"/>
  </g>
  <g id="resetDef">
    <use xlink:href="#rim2" fill="#404040"><set attributeName="fill" to="#808080" begin="reset.mouseover" end="reset.mouseout"/></use>
  </g>
</defs>
<script type="application/ecmascript">
var viewWidth = 644;
var viewHeight = 125;
var sectionId = 'dynsection-0';
</script>
<script type="application/ecmascript" xlink:href="svg.min.js"/>
<svg id="graph" class="graph">
<g id="viewport">
<title>features/test/frames</title>
<g id="clust1" class="cluster">
<title>clusterdir_3a88130e324a8fd3218be1d547f11d36</title>
<g id="a_clust1"><a xlink:href="dir_3a88130e324a8fd3218be1d547f11d36.html" target="_top" xlink:title="test">
<polygon fill="#edf0f7" stroke="#7f7f7f" stroke-dasharray="5,2" points="8,-39 8,-109 628,-109 628,-39 8,-39"/>
<text text-anchor="middle" x="318" y="-97" font-family="Helvetica,sans-Serif" font-size="10.00">test</text>
</a>
</g>
</g>
<g id="clust2" class="cluster">
<title>clusterdir_ab1a2f861539c64a6ace9a6ab49dcf00</title>
<g id="a_clust2"><a xlink:href="dir_ab1a2f861539c64a6ace9a6ab49dcf00.html" target="_top">
<polygon fill="#edf0f7" stroke="#404040" stroke-width="2" points="16,-47 16,-82 620,-82 620,-47 16,-47"/>
</a>
</g>
</g>
<!-- dir_ab1a2f861539c64a6ace9a6ab49dcf00 -->
<g id="node1" class="node">
<title>dir_ab1a2f861539c64a6ace9a6ab49dcf00</title>
<text text-anchor="middle" x="586" y="-62" font-family="Helvetica,sans-Serif" font-size="10.00">frames</text>
</g>
<!-- dir_615dbc22ccfe0cd72ae0afb566776e60 -->
<g id="node2" class="node">
<title>dir_615dbc22ccfe0cd72ae0afb566776e60</title>
<g id="a_node2"><a xlink:href="dir_615dbc22ccfe0cd72ae0afb566776e60.html" target="_top" xlink:title="countdown_clock">
<polygon fill="#a2b4d6" stroke="#404040" points="259.5,-74 158.5,-74 158.5,-55 259.5,-55 259.5,-74"/>
<text text-anchor="middle" x="209" y="-62" font-family="Helvetica,sans-Serif" font-size="10.00">countdown_clock</text>
</a>
</g>
</g>
<!-- dir_4270bfced15e0e73154b13468c7c9ad9 -->
<g id="node7" class="node">
<title>dir_4270bfced15e0e73154b13468c7c9ad9</title>
<g id="a_node7"><a xlink:href="dir_4270bfced15e0e73154b13468c7c9ad9.html" target="_top" xlink:title="core">
<polygon fill="#edf0f7" stroke="red" points="365,-19 327,-19 327,0 365,0 365,-19"/>
<text text-anchor="middle" x="346" y="-7" font-family="Helvetica,sans-Serif" font-size="10.00">core</text>
</a>
</g>
</g>
<!-- dir_615dbc22ccfe0cd72ae0afb566776e60&#45;&gt;dir_4270bfced15e0e73154b13468c7c9ad9 -->
<g id="edge1" class="edge">
<title>dir_615dbc22ccfe0cd72ae0afb566776e60&#45;&gt;dir_4270bfced15e0e73154b13468c7c9ad9</title>
<g id="a_edge1"><a xlink:href="dir_000006_000005.html" target="_top">
<path fill="none" stroke="#63b8ff" d="M229.48,-54.94C241.05,-50.16 255.79,-44.14 269,-39 284.97,-32.78 302.93,-26.12 317.48,-20.8"/>
<polygon fill="#63b8ff" stroke="#63b8ff" points="318.75,-24.06 326.95,-17.35 316.35,-17.49 318.75,-24.06"/>
</a>
</g>
<g id="a_edge1&#45;headlabel"><a xlink:href="dir_000006_000005.html" target="_top" xlink:title="1">
<text text-anchor="middle" x="316.34" y="-25.46" font-family="Helvetica,sans-Serif" font-size="10.00" fill="#63b8ff">1</text>
</a>
</g>
</g>
<!-- dir_b5c486ced7f7b3058172cc29c85106d2 -->
<g id="node8" class="node">
<title>dir_b5c486ced7f7b3058172cc29c85106d2</title>
<g id="a_node8"><a xlink:href="dir_b5c486ced7f7b3058172cc29c85106d2.html" target="_top" xlink:title="communication">
<polygon fill="#edf0f7" stroke="red" stroke-dasharray="5,2" points="309,-19 217,-19 217,0 309,0 309,-19"/>
<text text-anchor="middle" x="263" y="-7" font-family="Helvetica,sans-Serif" font-size="10.00">communication</text>
</a>
</g>
</g>
<!-- dir_615dbc22ccfe0cd72ae0afb566776e60&#45;&gt;dir_b5c486ced7f7b3058172cc29c85106d2 -->
<g id="edge2" class="edge">
<title>dir_615dbc22ccfe0cd72ae0afb566776e60&#45;&gt;dir_b5c486ced7f7b3058172cc29c85106d2</title>
<g id="a_edge2"><a xlink:href="dir_000006_000003.html" target="_top">
<path fill="none" stroke="#63b8ff" d="M217.92,-54.75C225.78,-47.03 237.43,-35.6 246.92,-26.28"/>
<polygon fill="#63b8ff" stroke="#63b8ff" points="249.56,-28.59 254.25,-19.09 244.66,-23.6 249.56,-28.59"/>
</a>
</g>
<g id="a_edge2&#45;headlabel"><a xlink:href="dir_000006_000003.html" target="_top" xlink:title="1">
<text text-anchor="middle" x="248.99" y="-30.64" font-family="Helvetica,sans-Serif" font-size="10.00" fill="#63b8ff">1</text>
</a>
</g>
</g>
<!-- dir_22a7659b59e9b41074a7098bc49f148a -->
<g id="node3" class="node">
<title>dir_22a7659b59e9b41074a7098bc49f148a</title>
<g id="a_node3"><a xlink:href="dir_22a7659b59e9b41074a7098bc49f148a.html" target="_top" xlink:title="emergency_controls">
<polygon fill="#a2b4d6" stroke="#404040" points="140,-74 24,-74 24,-55 140,-55 140,-74"/>
<text text-anchor="middle" x="82" y="-62" font-family="Helvetica,sans-Serif" font-size="10.00">emergency_controls</text>
</a>
</g>
</g>
<!-- dir_22a7659b59e9b41074a7098bc49f148a&#45;&gt;dir_b5c486ced7f7b3058172cc29c85106d2 -->
<g id="edge3" class="edge">
<title>dir_22a7659b59e9b41074a7098bc49f148a&#45;&gt;dir_b5c486ced7f7b3058172cc29c85106d2</title>
<g id="a_edge3"><a xlink:href="dir_000009_000003.html" target="_top">
<path fill="none" stroke="#63b8ff" d="M103.53,-54.97C116.57,-49.97 133.61,-43.72 149,-39 170.45,-32.42 194.52,-26.23 214.99,-21.31"/>
<polygon fill="#63b8ff" stroke="#63b8ff" points="215.8,-24.72 224.72,-19 214.19,-17.91 215.8,-24.72"/>
</a>
</g>
<g id="a_edge3&#45;headlabel"><a xlink:href="dir_000009_000003.html" target="_top" xlink:title="1">
<text text-anchor="middle" x="212.96" y="-25.81" font-family="Helvetica,sans-Serif" font-size="10.00" fill="#63b8ff">1</text>
</a>
</g>
</g>
<!-- dir_458d9567375f53091b5e1bda9c579a16 -->
<g id="node4" class="node">
<title>dir_458d9567375f53091b5e1bda9c579a16</title>
<g id="a_node4"><a xlink:href="dir_458d9567375f53091b5e1bda9c579a16.html" target="_top" xlink:title="tank_pressure">
<polygon fill="#a2b4d6" stroke="#404040" points="542,-74 456,-74 456,-55 542,-55 542,-74"/>
<text text-anchor="middle" x="499" y="-62" font-family="Helvetica,sans-Serif" font-size="10.00">tank_pressure</text>
</a>
</g>
</g>
<!-- dir_458d9567375f53091b5e1bda9c579a16&#45;&gt;dir_4270bfced15e0e73154b13468c7c9ad9 -->
<g id="edge6" class="edge">
<title>dir_458d9567375f53091b5e1bda9c579a16&#45;&gt;dir_4270bfced15e0e73154b13468c7c9ad9</title>
<g id="a_edge6"><a xlink:href="dir_000033_000005.html" target="_top">
<path fill="none" stroke="#63b8ff" d="M482.45,-54.82C472.38,-49.76 459.16,-43.52 447,-39 415.87,-27.44 406.94,-28.12 375,-19 374.9,-18.97 374.8,-18.94 374.7,-18.91"/>
<polygon fill="#63b8ff" stroke="#63b8ff" points="375.6,-15.53 365.02,-16.12 373.66,-22.26 375.6,-15.53"/>
</a>
</g>
<g id="a_edge6&#45;headlabel"><a xlink:href="dir_000033_000005.html" target="_top" xlink:title="2">
<text text-anchor="middle" x="379.84" y="-11.3" font-family="Helvetica,sans-Serif" font-size="10.00" fill="#63b8ff">2</text>
</a>
</g>
</g>
<!-- dir_458d9567375f53091b5e1bda9c579a16&#45;&gt;dir_b5c486ced7f7b3058172cc29c85106d2 -->
<g id="edge7" class="edge">
<title>dir_458d9567375f53091b5e1bda9c579a16&#45;&gt;dir_b5c486ced7f7b3058172cc29c85106d2</title>
<g id="a_edge7"><a xlink:href="dir_000033_000003.html" target="_top">
<path fill="none" stroke="#63b8ff" d="M483.54,-54.78C473.44,-49.44 459.79,-42.91 447,-39 446.61,-38.88 373.41,-27.56 319.46,-19.22"/>
<polygon fill="#63b8ff" stroke="#63b8ff" points="319.71,-15.72 309.3,-17.65 318.65,-22.64 319.71,-15.72"/>
</a>
</g>
<g id="a_edge7&#45;headlabel"><a xlink:href="dir_000033_000003.html" target="_top" xlink:title="2">
<text text-anchor="middle" x="323.7" y="-10.96" font-family="Helvetica,sans-Serif" font-size="10.00" fill="#63b8ff">2</text>
</a>
</g>
</g>
<!-- dir_2256196cd3966052bee28db29d7cc7ec -->
<g id="node9" class="node">
<title>dir_2256196cd3966052bee28db29d7cc7ec</title>
<g id="a_node9"><a xlink:href="dir_2256196cd3966052bee28db29d7cc7ec.html" target="_top" xlink:title="mvvm">
<polygon fill="#edf0f7" stroke="red" points="523,-19 475,-19 475,0 523,0 523,-19"/>
<text text-anchor="middle" x="499" y="-7" font-family="Helvetica,sans-Serif" font-size="10.00">mvvm</text>
</a>
</g>
</g>
<!-- dir_458d9567375f53091b5e1bda9c579a16&#45;&gt;dir_2256196cd3966052bee28db29d7cc7ec -->
<g id="edge5" class="edge">
<title>dir_458d9567375f53091b5e1bda9c579a16&#45;&gt;dir_2256196cd3966052bee28db29d7cc7ec</title>
<g id="a_edge5"><a xlink:href="dir_000033_000024.html" target="_top">
<path fill="none" stroke="#63b8ff" d="M499,-54.75C499,-47.8 499,-37.85 499,-29.13"/>
<polygon fill="#63b8ff" stroke="#63b8ff" points="502.5,-29.09 499,-19.09 495.5,-29.09 502.5,-29.09"/>
</a>
</g>
<g id="a_edge5&#45;headlabel"><a xlink:href="dir_000033_000024.html" target="_top" xlink:title="1">
<text text-anchor="middle" x="505.34" y="-30.18" font-family="Helvetica,sans-Serif" font-size="10.00" fill="#63b8ff">1</text>
</a>
</g>
</g>
<!-- dir_056ec8f0377ddc4293192cbc6b19c99c -->
<g id="node10" class="node">
<title>dir_056ec8f0377ddc4293192cbc6b19c99c</title>
<g id="a_node10"><a xlink:href="dir_056ec8f0377ddc4293192cbc6b19c99c.html" target="_top" xlink:title="services">
<polygon fill="#edf0f7" stroke="red" points="440.5,-19 383.5,-19 383.5,0 440.5,0 440.5,-19"/>
<text text-anchor="middle" x="412" y="-7" font-family="Helvetica,sans-Serif" font-size="10.00">services</text>
</a>
</g>
</g>
<!-- dir_458d9567375f53091b5e1bda9c579a16&#45;&gt;dir_056ec8f0377ddc4293192cbc6b19c99c -->
<g id="edge4" class="edge">
<title>dir_458d9567375f53091b5e1bda9c579a16&#45;&gt;dir_056ec8f0377ddc4293192cbc6b19c99c</title>
<g id="a_edge4"><a xlink:href="dir_000033_000032.html" target="_top">
<path fill="none" stroke="#63b8ff" d="M485.02,-54.98C471.53,-46.77 450.87,-34.18 434.96,-24.49"/>
<polygon fill="#63b8ff" stroke="#63b8ff" points="436.59,-21.38 426.23,-19.17 432.95,-27.36 436.59,-21.38"/>
</a>
</g>
<g id="a_edge4&#45;headlabel"><a xlink:href="dir_000033_000032.html" target="_top" xlink:title="1">
<text text-anchor="middle" x="441.14" y="-18.33" font-family="Helvetica,sans-Serif" font-size="10.00" fill="#63b8ff">1</text>
</a>
</g>
</g>
<!-- dir_5b10520dbd01d6a3526c161ca59f5100 -->
<g id="node5" class="node">
<title>dir_5b10520dbd01d6a3526c161ca59f5100</title>
<g id="a_node5"><a xlink:href="dir_5b10520dbd01d6a3526c161ca59f5100.html" target="_top" xlink:title="terminal">
<polygon fill="#a2b4d6" stroke="#404040" points="336,-74 278,-74 278,-55 336,-55 336,-74"/>
<text text-anchor="middle" x="307" y="-62" font-family="Helvetica,sans-Serif" font-size="10.00">terminal</text>
</a>
</g>
</g>
<!-- dir_5b10520dbd01d6a3526c161ca59f5100&#45;&gt;dir_4270bfced15e0e73154b13468c7c9ad9 -->
<g id="edge9" class="edge">
<title>dir_5b10520dbd01d6a3526c161ca59f5100&#45;&gt;dir_4270bfced15e0e73154b13468c7c9ad9</title>
<g id="a_edge9"><a xlink:href="dir_000034_000005.html" target="_top">
<path fill="none" stroke="#63b8ff" d="M313.44,-54.75C318.89,-47.34 326.86,-36.5 333.56,-27.41"/>
<polygon fill="#63b8ff" stroke="#63b8ff" points="336.57,-29.22 339.68,-19.09 330.93,-25.07 336.57,-29.22"/>
</a>
</g>
<g id="a_edge9&#45;headlabel"><a xlink:href="dir_000034_000005.html" target="_top" xlink:title="3">
<text text-anchor="middle" x="336.73" y="-31.3" font-family="Helvetica,sans-Serif" font-size="10.00" fill="#63b8ff">3</text>
</a>
</g>
</g>
<!-- dir_5b10520dbd01d6a3526c161ca59f5100&#45;&gt;dir_b5c486ced7f7b3058172cc29c85106d2 -->
<g id="edge10" class="edge">
<title>dir_5b10520dbd01d6a3526c161ca59f5100&#45;&gt;dir_b5c486ced7f7b3058172cc29c85106d2</title>
<g id="a_edge10"><a xlink:href="dir_000034_000003.html" target="_top">
<path fill="none" stroke="#63b8ff" d="M299.73,-54.75C293.46,-47.18 284.21,-36.05 276.57,-26.84"/>
<polygon fill="#63b8ff" stroke="#63b8ff" points="279.21,-24.55 270.13,-19.09 273.83,-29.02 279.21,-24.55"/>
</a>
</g>
<g id="a_edge10&#45;headlabel"><a xlink:href="dir_000034_000003.html" target="_top" xlink:title="1">
<text text-anchor="middle" x="283.69" y="-23" font-family="Helvetica,sans-Serif" font-size="10.00" fill="#63b8ff">1</text>
</a>
</g>
</g>
<!-- dir_5b10520dbd01d6a3526c161ca59f5100&#45;&gt;dir_056ec8f0377ddc4293192cbc6b19c99c -->
<g id="edge8" class="edge">
<title>dir_5b10520dbd01d6a3526c161ca59f5100&#45;&gt;dir_056ec8f0377ddc4293192cbc6b19c99c</title>
<g id="a_edge8"><a xlink:href="dir_000034_000032.html" target="_top">
<path fill="none" stroke="#63b8ff" d="M319.71,-54.82C327.19,-49.89 336.94,-43.76 346,-39 357.02,-33.2 369.48,-27.59 380.57,-22.91"/>
<polygon fill="#63b8ff" stroke="#63b8ff" points="382,-26.11 389.91,-19.05 379.33,-19.64 382,-26.11"/>
</a>
</g>
<g id="a_edge8&#45;headlabel"><a xlink:href="dir_000034_000032.html" target="_top" xlink:title="1">
<text text-anchor="middle" x="379.77" y="-27.6" font-family="Helvetica,sans-Serif" font-size="10.00" fill="#63b8ff">1</text>
</a>
</g>
</g>
<!-- dir_6cfb58ac3668a7a5fd0749b0eda6e151 -->
<g id="node6" class="node">
<title>dir_6cfb58ac3668a7a5fd0749b0eda6e151</title>
<g id="a_node6"><a xlink:href="dir_6cfb58ac3668a7a5fd0749b0eda6e151.html" target="_top" xlink:title="test_launcher">
<polygon fill="#a2b4d6" stroke="#404040" points="437.5,-74 354.5,-74 354.5,-55 437.5,-55 437.5,-74"/>
<text text-anchor="middle" x="396" y="-62" font-family="Helvetica,sans-Serif" font-size="10.00">test_launcher</text>
</a>
</g>
</g>
<!-- dir_6cfb58ac3668a7a5fd0749b0eda6e151&#45;&gt;dir_4270bfced15e0e73154b13468c7c9ad9 -->
<g id="edge12" class="edge">
<title>dir_6cfb58ac3668a7a5fd0749b0eda6e151&#45;&gt;dir_4270bfced15e0e73154b13468c7c9ad9</title>
<g id="a_edge12"><a xlink:href="dir_000036_000005.html" target="_top">
<path fill="none" stroke="#63b8ff" d="M387.74,-54.75C380.54,-47.11 369.89,-35.82 361.15,-26.56"/>
<polygon fill="#63b8ff" stroke="#63b8ff" points="363.51,-23.96 354.1,-19.09 358.42,-28.76 363.51,-23.96"/>
</a>
</g>
<g id="a_edge12&#45;headlabel"><a xlink:href="dir_000036_000005.html" target="_top" xlink:title="2">
<text text-anchor="middle" x="368.04" y="-22.13" font-family="Helvetica,sans-Serif" font-size="10.00" fill="#63b8ff">2</text>
</a>
</g>
</g>
<!-- dir_6cfb58ac3668a7a5fd0749b0eda6e151&#45;&gt;dir_b5c486ced7f7b3058172cc29c85106d2 -->
<g id="edge13" class="edge">
<title>dir_6cfb58ac3668a7a5fd0749b0eda6e151&#45;&gt;dir_b5c486ced7f7b3058172cc29c85106d2</title>
<g id="a_edge13"><a xlink:href="dir_000036_000003.html" target="_top">
<path fill="none" stroke="#63b8ff" d="M379.22,-54.85C369.37,-49.92 356.62,-43.79 345,-39 330.4,-32.98 314.01,-27.11 299.74,-22.28"/>
<polygon fill="#63b8ff" stroke="#63b8ff" points="300.84,-18.96 290.25,-19.11 298.63,-25.6 300.84,-18.96"/>
</a>
</g>
<g id="a_edge13&#45;headlabel"><a xlink:href="dir_000036_000003.html" target="_top" xlink:title="1">
<text text-anchor="middle" x="305.15" y="-14.9" font-family="Helvetica,sans-Serif" font-size="10.00" fill="#63b8ff">1</text>
</a>
</g>
</g>
<!-- dir_6cfb58ac3668a7a5fd0749b0eda6e151&#45;&gt;dir_056ec8f0377ddc4293192cbc6b19c99c -->
<g id="edge11" class="edge">
<title>dir_6cfb58ac3668a7a5fd0749b0eda6e151&#45;&gt;dir_056ec8f0377ddc4293192cbc6b19c99c</title>
<g id="a_edge11"><a xlink:href="dir_000036_000032.html" target="_top">
<path fill="none" stroke="#63b8ff" d="M398.64,-54.75C400.76,-47.72 403.81,-37.62 406.46,-28.84"/>
<polygon fill="#63b8ff" stroke="#63b8ff" points="409.87,-29.67 409.41,-19.09 403.17,-27.65 409.87,-29.67"/>
</a>
</g>
<g id="a_edge11&#45;headlabel"><a xlink:href="dir_000036_000032.html" target="_top" xlink:title="2">
<text text-anchor="middle" x="411.55" y="-31.44" font-family="Helvetica,sans-Serif" font-size="10.00" fill="#63b8ff">2</text>
</a>
</g>
</g>
</g>
</svg>

<g id="navigator" transform="translate(0 0)" fill="#404254">
  <rect fill="#f2f5e9" fill-opacity="0.5" stroke="#606060" stroke-width=".5" x="0" y="0" width="60" height="60"/>
  <use id="zoomplus" xlink:href="#zoomPlus" x="17" y="9" onmousedown="handleZoom(evt,'in')"/>
  <use id="zoomminus" xlink:href="#zoomMin" x="42" y="9" onmousedown="handleZoom(evt,'out')"/>
  <use id="reset" xlink:href="#resetDef" x="30" y="36" onmousedown="handleReset()"/>
   <use id="arrowup" xlink:href="#arrowUp" x="0" y="0" onmousedown="handlePan(0,-1)"/>
  <use id="arrowright" xlink:href="#arrowRight" x="0" y="0" onmousedown="handlePan(1,0)"/>
  <use id="arrowdown" xlink:href="#arrowDown" x="0" y="0" onmousedown="handlePan(0,1)"/>
  <use id="arrowleft" xlink:href="#arrowLeft" x="0" y="0" onmousedown="handlePan(-1,0)"/>
</g>
<svg viewBox="0 0 15 15" width="100%" height="30px" preserveAspectRatio="xMaxYMin meet">
 <g id="arrow_out" transform="scale(0.3 0.3)">
  <a xlink:href="dir_ab1a2f861539c64a6ace9a6ab49dcf00_dep_org.svg" target="_base">
   <rect id="button" ry="5" rx="5" y="6" x="6" height="38" width="38"
        fill="#f2f5e9" fill-opacity="0.5" stroke="#606060" stroke-width="1.0"/>
   <path id="arrow"
     d="M 11.500037,31.436501 C 11.940474,20.09759 22.043105,11.32322 32.158766,21.979434 L 37.068811,17.246167 C 37.068811,17.246167 37.088388,32 37.088388,32 L 22.160133,31.978069 C 22.160133,31.978069 26.997745,27.140456 26.997745,27.140456 C 18.528582,18.264221 13.291696,25.230495 11.500037,31.436501 z"
     style="fill:#404040;"/>
  </a>
 </g>
</svg>

<style type='text/css'>
<![CDATA[
[data-mouse-over-selected='false'] { opacity: 0.7; }
[data-mouse-over-selected='true']  { opacity: 1.0; }
]]>
</style>
<script type="application/ecmascript"><![CDATA[
document.addEventListener('DOMContentLoaded', (event) => {
  highlightEdges();
  highlightAdjacentNodes();
});
]]></script>
</svg>
