<?xml version="1.0" encoding="UTF-8" standalone="no"?>
<!DOCTYPE svg PUBLIC "-//W3C//DTD SVG 1.1//EN"
 "http://www.w3.org/Graphics/SVG/1.1/DTD/svg11.dtd">
<!-- Generated by graphviz version 2.43.0 (0)
 -->
<!-- Title: features/pid Pages: 1 -->
<svg width="370pt" height="196pt"
 viewBox="0.00 0.00 370.00 196.00" xmlns="http://www.w3.org/2000/svg" xmlns:xlink="http://www.w3.org/1999/xlink">
<g id="graph0" class="graph" transform="scale(1 1) rotate(0) translate(4 192)">
<title>features/pid</title>
<g id="clust1" class="cluster">
<title>clusterdir_751a3bd66ed682f151629a9c0f0ebd6e</title>
<g id="a_clust1"><a xlink:href="dir_751a3bd66ed682f151629a9c0f0ebd6e.html" target="_top" xlink:title="features">
<polygon fill="#edf0f7" stroke="#404040" stroke-dasharray="5,2" points="8,-8 8,-180 240,-180 240,-8 8,-8"/>
<text text-anchor="middle" x="124" y="-168" font-family="Helvetica,sans-Serif" font-size="10.00">features</text>
</a>
</g>
</g>
<g id="clust2" class="cluster">
<title>clusterdir_f7ebfbc231448c84c45ee8c3c71bcc0f</title>
<g id="a_clust2"><a xlink:href="dir_f7ebfbc231448c84c45ee8c3c71bcc0f.html" target="_top">
<polygon fill="#edf0f7" stroke="#404040" stroke-width="2" points="28,-63 28,-153 232,-153 232,-63 28,-63"/>
</a>
</g>
</g>
<!-- dir_6f85ed83f38b76f3e8bf14d57394770f -->
<g id="node1" class="node">
<title>dir_6f85ed83f38b76f3e8bf14d57394770f</title>
<g id="a_node1"><a xlink:href="dir_6f85ed83f38b76f3e8bf14d57394770f.html" target="_top" xlink:title="communication">
<polygon fill="#a2b4d6" stroke="red" points="211,-35 119,-35 119,-16 211,-16 211,-35"/>
<text text-anchor="middle" x="165" y="-23" font-family="Helvetica,sans-Serif" font-size="10.00">communication</text>
</a>
</g>
</g>
<!-- dir_ca29948439d95e79d9c1acbffcb11dbb -->
<g id="node2" class="node">
<title>dir_ca29948439d95e79d9c1acbffcb11dbb</title>
<g id="a_node2"><a xlink:href="dir_ca29948439d95e79d9c1acbffcb11dbb.html" target="_top" xlink:title="test">
<polygon fill="#a2b4d6" stroke="red" points="82.5,-35 47.5,-35 47.5,-16 82.5,-16 82.5,-35"/>
<text text-anchor="middle" x="65" y="-23" font-family="Helvetica,sans-Serif" font-size="10.00">test</text>
</a>
</g>
</g>
<!-- dir_f7ebfbc231448c84c45ee8c3c71bcc0f -->
<g id="node3" class="node">
<title>dir_f7ebfbc231448c84c45ee8c3c71bcc0f</title>
<text text-anchor="middle" x="139" y="-133" font-family="Helvetica,sans-Serif" font-size="10.00">pid</text>
</g>
<!-- dir_f7ebfbc231448c84c45ee8c3c71bcc0f&#45;&gt;dir_ca29948439d95e79d9c1acbffcb11dbb -->
<g id="edge5" class="edge">
<title>dir_f7ebfbc231448c84c45ee8c3c71bcc0f&#45;&gt;dir_ca29948439d95e79d9c1acbffcb11dbb</title>
<g id="a_edge5"><a xlink:href="dir_000028_000038.html" target="_top">
<path fill="none" stroke="#63b8ff" d="M122.68,-133.43C97.38,-130.79 49.4,-121.64 28,-90 21.28,-80.06 23.37,-74.07 28,-63 31.43,-54.81 37.69,-47.52 44.1,-41.65"/>
<polygon fill="#63b8ff" stroke="#63b8ff" points="46.64,-44.09 52.1,-35.01 42.17,-38.7 46.64,-44.09"/>
</a>
</g>
<g id="a_edge5&#45;headlabel"><a xlink:href="dir_000028_000038.html" target="_top" xlink:title="6">
<text text-anchor="middle" x="45.68" y="-46.07" font-family="Helvetica,sans-Serif" font-size="10.00" fill="#63b8ff">6</text>
</a>
</g>
</g>
<!-- dir_239e4be43137745dfcf62725c1e887c6 -->
<g id="node4" class="node">
<title>dir_239e4be43137745dfcf62725c1e887c6</title>
<g id="a_node4"><a xlink:href="dir_239e4be43137745dfcf62725c1e887c6.html" target="_top" xlink:title="actuator">
<polygon fill="#a2b4d6" stroke="#404040" points="93.5,-90 36.5,-90 36.5,-71 93.5,-71 93.5,-90"/>
<text text-anchor="middle" x="65" y="-78" font-family="Helvetica,sans-Serif" font-size="10.00">actuator</text>
</a>
</g>
</g>
<!-- dir_f7ebfbc231448c84c45ee8c3c71bcc0f&#45;&gt;dir_239e4be43137745dfcf62725c1e887c6 -->
<g id="edge1" class="edge">
<title>dir_f7ebfbc231448c84c45ee8c3c71bcc0f&#45;&gt;dir_239e4be43137745dfcf62725c1e887c6</title>
<g id="a_edge1"><a xlink:href="dir_000028_000000.html" target="_top">
<path fill="none" stroke="#63b8ff" d="M127.11,-125.98C115.85,-117.92 98.71,-105.65 85.29,-96.03"/>
<polygon fill="#63b8ff" stroke="#63b8ff" points="87.27,-93.15 77.11,-90.17 83.2,-98.84 87.27,-93.15"/>
</a>
</g>
<g id="a_edge1&#45;headlabel"><a xlink:href="dir_000028_000000.html" target="_top" xlink:title="5">
<text text-anchor="middle" x="91.85" y="-90.43" font-family="Helvetica,sans-Serif" font-size="10.00" fill="#63b8ff">5</text>
</a>
</g>
</g>
<!-- dir_6c9386e7a6581990dde19cf48d26e8e2 -->
<g id="node5" class="node">
<title>dir_6c9386e7a6581990dde19cf48d26e8e2</title>
<g id="a_node5"><a xlink:href="dir_6c9386e7a6581990dde19cf48d26e8e2.html" target="_top" xlink:title="misc">
<polygon fill="#a2b4d6" stroke="#404040" points="224,-90 184,-90 184,-71 224,-71 224,-90"/>
<text text-anchor="middle" x="204" y="-78" font-family="Helvetica,sans-Serif" font-size="10.00">misc</text>
</a>
</g>
</g>
<!-- dir_f7ebfbc231448c84c45ee8c3c71bcc0f&#45;&gt;dir_6c9386e7a6581990dde19cf48d26e8e2 -->
<g id="edge3" class="edge">
<title>dir_f7ebfbc231448c84c45ee8c3c71bcc0f&#45;&gt;dir_6c9386e7a6581990dde19cf48d26e8e2</title>
<g id="a_edge3"><a xlink:href="dir_000028_000023.html" target="_top">
<path fill="none" stroke="#63b8ff" d="M149.44,-125.98C159.15,-118.07 173.82,-106.11 185.5,-96.58"/>
<polygon fill="#63b8ff" stroke="#63b8ff" points="187.83,-99.2 193.37,-90.17 183.4,-93.78 187.83,-99.2"/>
</a>
</g>
<g id="a_edge3&#45;headlabel"><a xlink:href="dir_000028_000023.html" target="_top" xlink:title="7">
<text text-anchor="middle" x="186.84" y="-101.17" font-family="Helvetica,sans-Serif" font-size="10.00" fill="#63b8ff">7</text>
</a>
</g>
</g>
<!-- dir_54574a4abaeb6964bc3b98eb1b360218 -->
<g id="node6" class="node">
<title>dir_54574a4abaeb6964bc3b98eb1b360218</title>
<g id="a_node6"><a xlink:href="dir_54574a4abaeb6964bc3b98eb1b360218.html" target="_top" xlink:title="sensors">
<polygon fill="#a2b4d6" stroke="#404040" points="166,-90 112,-90 112,-71 166,-71 166,-90"/>
<text text-anchor="middle" x="139" y="-78" font-family="Helvetica,sans-Serif" font-size="10.00">sensors</text>
</a>
</g>
</g>
<!-- dir_f7ebfbc231448c84c45ee8c3c71bcc0f&#45;&gt;dir_54574a4abaeb6964bc3b98eb1b360218 -->
<g id="edge2" class="edge">
<title>dir_f7ebfbc231448c84c45ee8c3c71bcc0f&#45;&gt;dir_54574a4abaeb6964bc3b98eb1b360218</title>
<g id="a_edge2"><a xlink:href="dir_000028_000033.html" target="_top">
<path fill="none" stroke="#63b8ff" d="M139,-125.75C139,-118.8 139,-108.85 139,-100.13"/>
<polygon fill="#63b8ff" stroke="#63b8ff" points="142.5,-100.09 139,-90.09 135.5,-100.09 142.5,-100.09"/>
</a>
</g>
<g id="a_edge2&#45;headlabel"><a xlink:href="dir_000028_000033.html" target="_top" xlink:title="3">
<text text-anchor="middle" x="145.34" y="-101.18" font-family="Helvetica,sans-Serif" font-size="10.00" fill="#63b8ff">3</text>
</a>
</g>
</g>
<!-- dir_952c181019b9929608092c82bceaeaab -->
<g id="node8" class="node">
<title>dir_952c181019b9929608092c82bceaeaab</title>
<g id="a_node8"><a xlink:href="dir_952c181019b9929608092c82bceaeaab.html" target="_top" xlink:title="mvvm">
<polygon fill="#edf0f7" stroke="red" points="296,-90 248,-90 248,-71 296,-71 296,-90"/>
<text text-anchor="middle" x="272" y="-78" font-family="Helvetica,sans-Serif" font-size="10.00">mvvm</text>
</a>
</g>
</g>
<!-- dir_f7ebfbc231448c84c45ee8c3c71bcc0f&#45;&gt;dir_952c181019b9929608092c82bceaeaab -->
<g id="edge4" class="edge">
<title>dir_f7ebfbc231448c84c45ee8c3c71bcc0f&#45;&gt;dir_952c181019b9929608092c82bceaeaab</title>
<g id="a_edge4"><a xlink:href="dir_000028_000025.html" target="_top">
<path fill="none" stroke="#63b8ff" d="M155.04,-128.11C176.33,-119.62 214.36,-104.47 241.27,-93.75"/>
<polygon fill="#63b8ff" stroke="#63b8ff" points="242.63,-96.97 250.63,-90.02 240.04,-90.47 242.63,-96.97"/>
</a>
</g>
<g id="a_edge4&#45;headlabel"><a xlink:href="dir_000028_000025.html" target="_top" xlink:title="1">
<text text-anchor="middle" x="240.35" y="-98.44" font-family="Helvetica,sans-Serif" font-size="10.00" fill="#63b8ff">1</text>
</a>
</g>
</g>
<!-- dir_239e4be43137745dfcf62725c1e887c6&#45;&gt;dir_6f85ed83f38b76f3e8bf14d57394770f -->
<g id="edge7" class="edge">
<title>dir_239e4be43137745dfcf62725c1e887c6&#45;&gt;dir_6f85ed83f38b76f3e8bf14d57394770f</title>
<g id="a_edge7"><a xlink:href="dir_000000_000003.html" target="_top">
<path fill="none" stroke="#63b8ff" d="M81.07,-70.98C96.86,-62.61 121.22,-49.7 139.63,-39.95"/>
<polygon fill="#63b8ff" stroke="#63b8ff" points="141.44,-42.95 148.64,-35.17 138.17,-36.76 141.44,-42.95"/>
</a>
</g>
<g id="a_edge7&#45;headlabel"><a xlink:href="dir_000000_000003.html" target="_top" xlink:title="1">
<text text-anchor="middle" x="139.6" y="-44.64" font-family="Helvetica,sans-Serif" font-size="10.00" fill="#63b8ff">1</text>
</a>
</g>
</g>
<!-- dir_239e4be43137745dfcf62725c1e887c6&#45;&gt;dir_ca29948439d95e79d9c1acbffcb11dbb -->
<g id="edge8" class="edge">
<title>dir_239e4be43137745dfcf62725c1e887c6&#45;&gt;dir_ca29948439d95e79d9c1acbffcb11dbb</title>
<g id="a_edge8"><a xlink:href="dir_000000_000038.html" target="_top">
<path fill="none" stroke="#63b8ff" d="M65,-70.75C65,-63.8 65,-53.85 65,-45.13"/>
<polygon fill="#63b8ff" stroke="#63b8ff" points="68.5,-45.09 65,-35.09 61.5,-45.09 68.5,-45.09"/>
</a>
</g>
<g id="a_edge8&#45;headlabel"><a xlink:href="dir_000000_000038.html" target="_top" xlink:title="1">
<text text-anchor="middle" x="71.34" y="-46.18" font-family="Helvetica,sans-Serif" font-size="10.00" fill="#63b8ff">1</text>
</a>
</g>
</g>
<!-- dir_1826a32a9d780ddbaf96ec88be56c4cd -->
<g id="node7" class="node">
<title>dir_1826a32a9d780ddbaf96ec88be56c4cd</title>
<g id="a_node7"><a xlink:href="dir_1826a32a9d780ddbaf96ec88be56c4cd.html" target="_top" xlink:title="services">
<polygon fill="#edf0f7" stroke="red" points="305.5,-35 248.5,-35 248.5,-16 305.5,-16 305.5,-35"/>
<text text-anchor="middle" x="277" y="-23" font-family="Helvetica,sans-Serif" font-size="10.00">services</text>
</a>
</g>
</g>
<!-- dir_239e4be43137745dfcf62725c1e887c6&#45;&gt;dir_1826a32a9d780ddbaf96ec88be56c4cd -->
<g id="edge6" class="edge">
<title>dir_239e4be43137745dfcf62725c1e887c6&#45;&gt;dir_1826a32a9d780ddbaf96ec88be56c4cd</title>
<g id="a_edge6"><a xlink:href="dir_000000_000034.html" target="_top">
<path fill="none" stroke="#63b8ff" d="M82.49,-70.98C88.83,-68.13 96.13,-65.14 103,-63 160.89,-44.91 179.8,-48.73 238.46,-36.17"/>
<polygon fill="#63b8ff" stroke="#63b8ff" points="239.22,-39.59 248.23,-34.01 237.71,-32.76 239.22,-39.59"/>
</a>
</g>
<g id="a_edge6&#45;headlabel"><a xlink:href="dir_000000_000034.html" target="_top" xlink:title="1">
<text text-anchor="middle" x="236.32" y="-40.64" font-family="Helvetica,sans-Serif" font-size="10.00" fill="#63b8ff">1</text>
</a>
</g>
</g>
<!-- dir_6c9386e7a6581990dde19cf48d26e8e2&#45;&gt;dir_6f85ed83f38b76f3e8bf14d57394770f -->
<g id="edge9" class="edge">
<title>dir_6c9386e7a6581990dde19cf48d26e8e2&#45;&gt;dir_6f85ed83f38b76f3e8bf14d57394770f</title>
<g id="a_edge9"><a xlink:href="dir_000023_000003.html" target="_top">
<path fill="none" stroke="#63b8ff" d="M197.56,-70.75C192.11,-63.34 184.14,-52.5 177.44,-43.41"/>
<polygon fill="#63b8ff" stroke="#63b8ff" points="180.07,-41.07 171.32,-35.09 174.43,-45.22 180.07,-41.07"/>
</a>
</g>
<g id="a_edge9&#45;headlabel"><a xlink:href="dir_000023_000003.html" target="_top" xlink:title="1">
<text text-anchor="middle" x="184.48" y="-39.78" font-family="Helvetica,sans-Serif" font-size="10.00" fill="#63b8ff">1</text>
</a>
</g>
</g>
<!-- dir_aebb8dcc11953d78e620bbef0b9e2183 -->
<g id="node9" class="node">
<title>dir_aebb8dcc11953d78e620bbef0b9e2183</title>
<g id="a_node9"><a xlink:href="dir_aebb8dcc11953d78e620bbef0b9e2183.html" target="_top" xlink:title="core">
<polygon fill="#edf0f7" stroke="red" points="362,-35 324,-35 324,-16 362,-16 362,-35"/>
<text text-anchor="middle" x="343" y="-23" font-family="Helvetica,sans-Serif" font-size="10.00">core</text>
</a>
</g>
</g>
<!-- dir_6c9386e7a6581990dde19cf48d26e8e2&#45;&gt;dir_aebb8dcc11953d78e620bbef0b9e2183 -->
<g id="edge10" class="edge">
<title>dir_6c9386e7a6581990dde19cf48d26e8e2&#45;&gt;dir_aebb8dcc11953d78e620bbef0b9e2183</title>
<g id="a_edge10"><a xlink:href="dir_000023_000005.html" target="_top">
<path fill="none" stroke="#63b8ff" d="M221.29,-70.92C226.89,-68.26 233.16,-65.4 239,-63 264.11,-52.71 293.31,-42.62 314.36,-35.67"/>
<polygon fill="#63b8ff" stroke="#63b8ff" points="315.58,-38.95 323.99,-32.52 313.4,-32.3 315.58,-38.95"/>
</a>
</g>
<g id="a_edge10&#45;headlabel"><a xlink:href="dir_000023_000005.html" target="_top" xlink:title="1">
<text text-anchor="middle" x="313.04" y="-40.27" font-family="Helvetica,sans-Serif" font-size="10.00" fill="#63b8ff">1</text>
</a>
</g>
</g>
<!-- dir_54574a4abaeb6964bc3b98eb1b360218&#45;&gt;dir_ca29948439d95e79d9c1acbffcb11dbb -->
<g id="edge12" class="edge">
<title>dir_54574a4abaeb6964bc3b98eb1b360218&#45;&gt;dir_ca29948439d95e79d9c1acbffcb11dbb</title>
<g id="a_edge12"><a xlink:href="dir_000033_000038.html" target="_top">
<path fill="none" stroke="#63b8ff" d="M127.11,-70.98C115.85,-62.92 98.71,-50.65 85.29,-41.03"/>
<polygon fill="#63b8ff" stroke="#63b8ff" points="87.27,-38.15 77.11,-35.17 83.2,-43.84 87.27,-38.15"/>
</a>
</g>
<g id="a_edge12&#45;headlabel"><a xlink:href="dir_000033_000038.html" target="_top" xlink:title="1">
<text text-anchor="middle" x="91.85" y="-35.43" font-family="Helvetica,sans-Serif" font-size="10.00" fill="#63b8ff">1</text>
</a>
</g>
</g>
<!-- dir_54574a4abaeb6964bc3b98eb1b360218&#45;&gt;dir_1826a32a9d780ddbaf96ec88be56c4cd -->
<g id="edge11" class="edge">
<title>dir_54574a4abaeb6964bc3b98eb1b360218&#45;&gt;dir_1826a32a9d780ddbaf96ec88be56c4cd</title>
<g id="a_edge11"><a xlink:href="dir_000033_000034.html" target="_top">
<path fill="none" stroke="#63b8ff" d="M156.81,-70.97C162.57,-68.31 169.01,-65.44 175,-63 196.91,-54.08 221.9,-45.12 241.67,-38.3"/>
<polygon fill="#63b8ff" stroke="#63b8ff" points="242.87,-41.59 251.2,-35.05 240.6,-34.97 242.87,-41.59"/>
</a>
</g>
<g id="a_edge11&#45;headlabel"><a xlink:href="dir_000033_000034.html" target="_top" xlink:title="1">
<text text-anchor="middle" x="240.39" y="-42.94" font-family="Helvetica,sans-Serif" font-size="10.00" fill="#63b8ff">1</text>
</a>
</g>
</g>
</g>
</svg>
