<?xml version="1.0" encoding="UTF-8" standalone="no"?>
<!DOCTYPE svg PUBLIC "-//W3C//DTD SVG 1.1//EN"
 "http://www.w3.org/Graphics/SVG/1.1/DTD/svg11.dtd">
<!-- Generated by graphviz version 2.43.0 (0)
 -->
<!-- Title: features/test/frames/emergency_controls/EmergencyControlsViewModel.h Pages: 1 -->
<svg width="978pt" height="126pt"
 viewBox="0.00 0.00 978.00 126.00" xmlns="http://www.w3.org/2000/svg" xmlns:xlink="http://www.w3.org/1999/xlink">
<g id="graph0" class="graph" transform="scale(1 1) rotate(0) translate(4 122)">
<title>features/test/frames/emergency_controls/EmergencyControlsViewModel.h</title>
<!-- Node1 -->
<g id="Node000001" class="node">
<title>Node1</title>
<g id="a_Node000001"><a xlink:title=" ">
<polygon fill="#999999" stroke="#666666" points="546,-118 370,-118 370,-77 546,-77 546,-118"/>
<text text-anchor="start" x="378" y="-106" font-family="Helvetica,sans-Serif" font-size="10.00">features/test/frames</text>
<text text-anchor="start" x="378" y="-95" font-family="Helvetica,sans-Serif" font-size="10.00">/emergency_controls/Emergency</text>
<text text-anchor="middle" x="458" y="-84" font-family="Helvetica,sans-Serif" font-size="10.00">ControlsViewModel.h</text>
</a>
</g>
</g>
<!-- Node2 -->
<g id="Node000002" class="node">
<title>Node2</title>
<g id="a_Node000002"><a xlink:href="TestTabFactory_8cpp.html" target="_top" xlink:title=" ">
<polygon fill="white" stroke="#666666" points="172,-30 0,-30 0,-11 172,-11 172,-30"/>
<text text-anchor="middle" x="86" y="-18" font-family="Helvetica,sans-Serif" font-size="10.00">features/test/TestTabFactory.cpp</text>
</a>
</g>
</g>
<!-- Node1&#45;&gt;Node2 -->
<g id="edge1_Node000001_Node000002" class="edge">
<title>Node1&#45;&gt;Node2</title>
<g id="a_edge1_Node000001_Node000002"><a xlink:title=" ">
<path fill="none" stroke="#63b8ff" d="M359.65,-76.91C306.7,-66.34 240.27,-53.02 181,-41 163.51,-37.45 144.22,-33.5 127.61,-30.09"/>
<polygon fill="#63b8ff" stroke="#63b8ff" points="359.23,-80.4 369.72,-78.92 360.6,-73.53 359.23,-80.4"/>
</a>
</g>
</g>
<!-- Node3 -->
<g id="Node000003" class="node">
<title>Node3</title>
<g id="a_Node000003"><a xlink:href="TestTabView_8cpp.html" target="_top" xlink:title=" ">
<polygon fill="white" stroke="#666666" points="351.5,-30 190.5,-30 190.5,-11 351.5,-11 351.5,-30"/>
<text text-anchor="middle" x="271" y="-18" font-family="Helvetica,sans-Serif" font-size="10.00">features/test/TestTabView.cpp</text>
</a>
</g>
</g>
<!-- Node1&#45;&gt;Node3 -->
<g id="edge2_Node000001_Node000003" class="edge">
<title>Node1&#45;&gt;Node3</title>
<g id="a_edge2_Node000001_Node000003"><a xlink:title=" ">
<path fill="none" stroke="#63b8ff" d="M399.79,-73.16C363.31,-58.52 318.41,-40.51 292.41,-30.09"/>
<polygon fill="#63b8ff" stroke="#63b8ff" points="398.77,-76.52 409.36,-76.99 401.38,-70.02 398.77,-76.52"/>
</a>
</g>
</g>
<!-- Node4 -->
<g id="Node000004" class="node">
<title>Node4</title>
<g id="a_Node000004"><a xlink:href="EmergencyControlsViewModel_8cpp.html" target="_top" xlink:title=" ">
<polygon fill="white" stroke="#666666" points="546,-41 370,-41 370,0 546,0 546,-41"/>
<text text-anchor="start" x="378" y="-29" font-family="Helvetica,sans-Serif" font-size="10.00">features/test/frames</text>
<text text-anchor="start" x="378" y="-18" font-family="Helvetica,sans-Serif" font-size="10.00">/emergency_controls/Emergency</text>
<text text-anchor="middle" x="458" y="-7" font-family="Helvetica,sans-Serif" font-size="10.00">ControlsViewModel.cpp</text>
</a>
</g>
</g>
<!-- Node1&#45;&gt;Node4 -->
<g id="edge3_Node000001_Node000004" class="edge">
<title>Node1&#45;&gt;Node4</title>
<g id="a_edge3_Node000001_Node000004"><a xlink:title=" ">
<path fill="none" stroke="#63b8ff" d="M458,-66.69C458,-58.08 458,-48.9 458,-41.07"/>
<polygon fill="#63b8ff" stroke="#63b8ff" points="454.5,-66.79 458,-76.79 461.5,-66.79 454.5,-66.79"/>
</a>
</g>
</g>
<!-- Node5 -->
<g id="Node000005" class="node">
<title>Node5</title>
<g id="a_Node000005"><a xlink:href="EmergencyControlsWidget_8cpp.html" target="_top" xlink:title=" ">
<polygon fill="white" stroke="#666666" points="740,-41 564,-41 564,0 740,0 740,-41"/>
<text text-anchor="start" x="572" y="-29" font-family="Helvetica,sans-Serif" font-size="10.00">features/test/frames</text>
<text text-anchor="start" x="572" y="-18" font-family="Helvetica,sans-Serif" font-size="10.00">/emergency_controls/Emergency</text>
<text text-anchor="middle" x="652" y="-7" font-family="Helvetica,sans-Serif" font-size="10.00">ControlsWidget.cpp</text>
</a>
</g>
</g>
<!-- Node1&#45;&gt;Node5 -->
<g id="edge4_Node000001_Node000005" class="edge">
<title>Node1&#45;&gt;Node5</title>
<g id="a_edge4_Node000001_Node000005"><a xlink:title=" ">
<path fill="none" stroke="#63b8ff" d="M518.09,-73.27C544.82,-62.94 575.94,-50.9 601.45,-41.04"/>
<polygon fill="#63b8ff" stroke="#63b8ff" points="516.53,-70.12 508.46,-76.99 519.05,-76.65 516.53,-70.12"/>
</a>
</g>
</g>
<!-- Node6 -->
<g id="Node000006" class="node">
<title>Node6</title>
<g id="a_Node000006"><a xlink:href="AppViewModels_8cpp.html" target="_top" xlink:title=" ">
<polygon fill="white" stroke="#666666" points="970,-30 758,-30 758,-11 970,-11 970,-30"/>
<text text-anchor="middle" x="864" y="-18" font-family="Helvetica,sans-Serif" font-size="10.00">mvvm/viewmodels/AppViewModels.cpp</text>
</a>
</g>
</g>
<!-- Node1&#45;&gt;Node6 -->
<g id="edge5_Node000001_Node000006" class="edge">
<title>Node1&#45;&gt;Node6</title>
<g id="a_edge5_Node000001_Node000006"><a xlink:title=" ">
<path fill="none" stroke="#63b8ff" d="M556.07,-78.38C639.18,-63.03 754.66,-41.7 817.96,-30.01"/>
<polygon fill="#63b8ff" stroke="#63b8ff" points="555.29,-74.97 546.1,-80.23 556.57,-81.85 555.29,-74.97"/>
</a>
</g>
</g>
</g>
</svg>
