<?xml version="1.0" encoding="UTF-8" standalone="no"?>
<!DOCTYPE svg PUBLIC "-//W3C//DTD SVG 1.1//EN"
 "http://www.w3.org/Graphics/SVG/1.1/DTD/svg11.dtd">
<!-- Generated by graphviz version 2.43.0 (0)
 -->
<!-- Title: features/test/frames/emergency_controls/EmergencyControlsViewModel.cpp Pages: 1 -->
<svg width="991pt" height="412pt"
 viewBox="0.00 0.00 990.85 412.00" xmlns="http://www.w3.org/2000/svg" xmlns:xlink="http://www.w3.org/1999/xlink">
<g id="graph0" class="graph" transform="scale(1 1) rotate(0) translate(4 408)">
<title>features/test/frames/emergency_controls/EmergencyControlsViewModel.cpp</title>
<!-- Node1 -->
<g id="Node000001" class="node">
<title>Node1</title>
<g id="a_Node000001"><a xlink:title=" ">
<polygon fill="#999999" stroke="#666666" points="291.5,-404 115.5,-404 115.5,-363 291.5,-363 291.5,-404"/>
<text text-anchor="start" x="123.5" y="-392" font-family="Helvetica,sans-Serif" font-size="10.00">features/test/frames</text>
<text text-anchor="start" x="123.5" y="-381" font-family="Helvetica,sans-Serif" font-size="10.00">/emergency_controls/Emergency</text>
<text text-anchor="middle" x="203.5" y="-370" font-family="Helvetica,sans-Serif" font-size="10.00">ControlsViewModel.cpp</text>
</a>
</g>
</g>
<!-- Node2 -->
<g id="Node000002" class="node">
<title>Node2</title>
<g id="a_Node000002"><a xlink:href="EmergencyControlsViewModel_8h.html" target="_top" xlink:title=" ">
<polygon fill="white" stroke="#666666" points="175,-321.5 0,-321.5 0,-302.5 175,-302.5 175,-321.5"/>
<text text-anchor="middle" x="87.5" y="-309.5" font-family="Helvetica,sans-Serif" font-size="10.00">EmergencyControlsViewModel.h</text>
</a>
</g>
</g>
<!-- Node1&#45;&gt;Node2 -->
<g id="edge1_Node000001_Node000002" class="edge">
<title>Node1&#45;&gt;Node2</title>
<g id="a_edge1_Node000001_Node000002"><a xlink:title=" ">
<path fill="none" stroke="#63b8ff" d="M170.88,-362.96C151.65,-351.44 127.8,-337.14 110.53,-326.8"/>
<polygon fill="#63b8ff" stroke="#63b8ff" points="112.07,-323.64 101.69,-321.5 108.47,-329.65 112.07,-323.64"/>
</a>
</g>
</g>
<!-- Node4 -->
<g id="Node000004" class="node">
<title>Node4</title>
<g id="a_Node000004"><a xlink:href="UdpChannel_8h.html" target="_top" xlink:title=" ">
<polygon fill="white" stroke="#666666" points="423,-327 270,-327 270,-297 423,-297 423,-327"/>
<text text-anchor="start" x="278" y="-315" font-family="Helvetica,sans-Serif" font-size="10.00">src/features/communication</text>
<text text-anchor="middle" x="346.5" y="-304" font-family="Helvetica,sans-Serif" font-size="10.00">/udp/UdpChannel.h</text>
</a>
</g>
</g>
<!-- Node1&#45;&gt;Node4 -->
<g id="edge3_Node000001_Node000004" class="edge">
<title>Node1&#45;&gt;Node4</title>
<g id="a_edge3_Node000001_Node000004"><a xlink:title=" ">
<path fill="none" stroke="#63b8ff" d="M243.71,-362.96C263.97,-353.11 288.39,-341.24 308.35,-331.54"/>
<polygon fill="#63b8ff" stroke="#63b8ff" points="310,-334.63 317.46,-327.11 306.94,-328.34 310,-334.63"/>
</a>
</g>
</g>
<!-- Node27 -->
<g id="Node000027" class="node">
<title>Node27</title>
<g id="a_Node000027"><a xlink:href="TestBenchModel_8h.html" target="_top" xlink:title=" ">
<polygon fill="white" stroke="#666666" points="329,-145.5 206,-145.5 206,-126.5 329,-126.5 329,-145.5"/>
<text text-anchor="middle" x="267.5" y="-133.5" font-family="Helvetica,sans-Serif" font-size="10.00">../../TestBenchModel.h</text>
</a>
</g>
</g>
<!-- Node1&#45;&gt;Node27 -->
<g id="edge37_Node000001_Node000027" class="edge">
<title>Node1&#45;&gt;Node27</title>
<g id="a_edge37_Node000001_Node000027"><a xlink:title=" ">
<path fill="none" stroke="#63b8ff" d="M208.63,-362.82C220.72,-316.46 250.85,-200.87 262.65,-155.6"/>
<polygon fill="#63b8ff" stroke="#63b8ff" points="266.1,-156.25 265.23,-145.69 259.33,-154.48 266.1,-156.25"/>
</a>
</g>
</g>
<!-- Node3 -->
<g id="Node000003" class="node">
<title>Node3</title>
<g id="a_Node000003"><a xlink:title=" ">
<polygon fill="#e0e0e0" stroke="#999999" points="242.5,-19 186.5,-19 186.5,0 242.5,0 242.5,-19"/>
<text text-anchor="middle" x="214.5" y="-7" font-family="Helvetica,sans-Serif" font-size="10.00">QObject</text>
</a>
</g>
</g>
<!-- Node2&#45;&gt;Node3 -->
<g id="edge2_Node000002_Node000003" class="edge">
<title>Node2&#45;&gt;Node3</title>
<g id="a_edge2_Node000002_Node000003"><a xlink:title=" ">
<path fill="none" stroke="#63b8ff" d="M91.68,-302.4C100.36,-283.76 119.5,-238.04 119.5,-197.5 119.5,-197.5 119.5,-197.5 119.5,-135 119.5,-86.91 164.84,-45.85 192.88,-25.05"/>
<polygon fill="#63b8ff" stroke="#63b8ff" points="195.2,-27.7 201.29,-19.03 191.12,-22 195.2,-27.7"/>
</a>
</g>
</g>
<!-- Node4&#45;&gt;Node3 -->
<g id="edge4_Node000004_Node000003" class="edge">
<title>Node4&#45;&gt;Node3</title>
<g id="a_edge4_Node000004_Node000003"><a xlink:title=" ">
<path fill="none" stroke="#63b8ff" d="M313.57,-296.9C296.3,-288.34 275.65,-276.14 260.5,-261 220.5,-221.01 211.23,-205.61 196.5,-151 184.96,-108.22 198.58,-56.06 207.66,-28.92"/>
<polygon fill="#63b8ff" stroke="#63b8ff" points="211.06,-29.81 211.08,-19.21 204.46,-27.48 211.06,-29.81"/>
</a>
</g>
</g>
<!-- Node5 -->
<g id="Node000005" class="node">
<title>Node5</title>
<g id="a_Node000005"><a xlink:title=" ">
<polygon fill="#e0e0e0" stroke="#999999" points="327.5,-261 269.5,-261 269.5,-242 327.5,-242 327.5,-261"/>
<text text-anchor="middle" x="298.5" y="-249" font-family="Helvetica,sans-Serif" font-size="10.00">QThread</text>
</a>
</g>
</g>
<!-- Node4&#45;&gt;Node5 -->
<g id="edge5_Node000004_Node000005" class="edge">
<title>Node4&#45;&gt;Node5</title>
<g id="a_edge5_Node000004_Node000005"><a xlink:title=" ">
<path fill="none" stroke="#63b8ff" d="M334.88,-296.84C328.06,-288.52 319.39,-277.96 312.23,-269.23"/>
<polygon fill="#63b8ff" stroke="#63b8ff" points="314.74,-266.78 305.69,-261.27 309.33,-271.22 314.74,-266.78"/>
</a>
</g>
</g>
<!-- Node6 -->
<g id="Node000006" class="node">
<title>Node6</title>
<g id="a_Node000006"><a xlink:title=" ">
<polygon fill="#e0e0e0" stroke="#999999" points="421.5,-261 345.5,-261 345.5,-242 421.5,-242 421.5,-261"/>
<text text-anchor="middle" x="383.5" y="-249" font-family="Helvetica,sans-Serif" font-size="10.00">QUdpSocket</text>
</a>
</g>
</g>
<!-- Node4&#45;&gt;Node6 -->
<g id="edge6_Node000004_Node000006" class="edge">
<title>Node4&#45;&gt;Node6</title>
<g id="a_edge6_Node000004_Node000006"><a xlink:title=" ">
<path fill="none" stroke="#63b8ff" d="M355.46,-296.84C360.61,-288.69 367.12,-278.4 372.57,-269.78"/>
<polygon fill="#63b8ff" stroke="#63b8ff" points="375.57,-271.59 377.96,-261.27 369.65,-267.85 375.57,-271.59"/>
</a>
</g>
</g>
<!-- Node7 -->
<g id="Node000007" class="node">
<title>Node7</title>
<g id="a_Node000007"><a xlink:href="Messages_8h.html" target="_top" xlink:title=" ">
<polygon fill="white" stroke="#666666" points="489,-85 386,-85 386,-55 489,-55 489,-85"/>
<text text-anchor="start" x="394" y="-73" font-family="Helvetica,sans-Serif" font-size="10.00">src/core/Protocols</text>
<text text-anchor="middle" x="437.5" y="-62" font-family="Helvetica,sans-Serif" font-size="10.00">/Messages.h</text>
</a>
</g>
</g>
<!-- Node4&#45;&gt;Node7 -->
<g id="edge7_Node000004_Node000007" class="edge">
<title>Node4&#45;&gt;Node7</title>
<g id="a_edge7_Node000004_Node000007"><a xlink:title=" ">
<path fill="none" stroke="#63b8ff" d="M387.13,-296.86C403.51,-288.96 420.8,-277.35 430.5,-261 461.46,-208.8 451.56,-133.58 443.52,-95.33"/>
<polygon fill="#63b8ff" stroke="#63b8ff" points="446.84,-94.13 441.24,-85.14 440.01,-95.66 446.84,-94.13"/>
</a>
</g>
</g>
<!-- Node15 -->
<g id="Node000015" class="node">
<title>Node15</title>
<g id="a_Node000015"><a xlink:href="UdpLogger_8h.html" target="_top" xlink:title=" ">
<polygon fill="white" stroke="#666666" points="786,-261 635,-261 635,-242 786,-242 786,-261"/>
<text text-anchor="middle" x="710.5" y="-249" font-family="Helvetica,sans-Serif" font-size="10.00">frames_logger/UdpLogger.h</text>
</a>
</g>
</g>
<!-- Node4&#45;&gt;Node15 -->
<g id="edge16_Node000004_Node000015" class="edge">
<title>Node4&#45;&gt;Node15</title>
<g id="a_edge16_Node000004_Node000015"><a xlink:title=" ">
<path fill="none" stroke="#63b8ff" d="M423.25,-298.67C489.84,-287.96 585.06,-272.66 647.32,-262.65"/>
<polygon fill="#63b8ff" stroke="#63b8ff" points="648.08,-266.08 657.4,-261.03 646.97,-259.16 648.08,-266.08"/>
</a>
</g>
</g>
<!-- Node7&#45;&gt;Node3 -->
<g id="edge14_Node000007_Node000003" class="edge">
<title>Node7&#45;&gt;Node3</title>
<g id="a_edge14_Node000007_Node000003"><a xlink:title=" ">
<path fill="none" stroke="#63b8ff" d="M385.78,-55.43C345.09,-44.76 289.31,-30.13 252.62,-20.5"/>
<polygon fill="#63b8ff" stroke="#63b8ff" points="253.36,-17.08 242.8,-17.92 251.58,-23.85 253.36,-17.08"/>
</a>
</g>
</g>
<!-- Node8 -->
<g id="Node000008" class="node">
<title>Node8</title>
<g id="a_Node000008"><a xlink:title=" ">
<polygon fill="#e0e0e0" stroke="#999999" points="519,-19 468,-19 468,0 519,0 519,-19"/>
<text text-anchor="middle" x="493.5" y="-7" font-family="Helvetica,sans-Serif" font-size="10.00">variant</text>
</a>
</g>
</g>
<!-- Node7&#45;&gt;Node8 -->
<g id="edge8_Node000007_Node000008" class="edge">
<title>Node7&#45;&gt;Node8</title>
<g id="a_edge8_Node000007_Node000008"><a xlink:title=" ">
<path fill="none" stroke="#63b8ff" d="M451.06,-54.84C459.18,-46.35 469.55,-35.52 478,-26.69"/>
<polygon fill="#63b8ff" stroke="#63b8ff" points="480.72,-28.91 485.11,-19.27 475.67,-24.07 480.72,-28.91"/>
</a>
</g>
</g>
<!-- Node9 -->
<g id="Node000009" class="node">
<title>Node9</title>
<g id="a_Node000009"><a xlink:title=" ">
<polygon fill="#e0e0e0" stroke="#999999" points="811.5,-19 761.5,-19 761.5,0 811.5,0 811.5,-19"/>
<text text-anchor="middle" x="786.5" y="-7" font-family="Helvetica,sans-Serif" font-size="10.00">cstdint</text>
</a>
</g>
</g>
<!-- Node7&#45;&gt;Node9 -->
<g id="edge9_Node000007_Node000009" class="edge">
<title>Node7&#45;&gt;Node9</title>
<g id="a_edge9_Node000007_Node000009"><a xlink:title=" ">
<path fill="none" stroke="#63b8ff" d="M489.33,-57.73C494.11,-56.78 498.89,-55.85 503.5,-55 592.45,-38.58 697.85,-23.03 751.43,-15.4"/>
<polygon fill="#63b8ff" stroke="#63b8ff" points="752.03,-18.85 761.44,-13.98 751.05,-11.92 752.03,-18.85"/>
</a>
</g>
</g>
<!-- Node10 -->
<g id="Node000010" class="node">
<title>Node10</title>
<g id="a_Node000010"><a xlink:title=" ">
<polygon fill="#e0e0e0" stroke="#999999" points="315.5,-19 271.5,-19 271.5,0 315.5,0 315.5,-19"/>
<text text-anchor="middle" x="293.5" y="-7" font-family="Helvetica,sans-Serif" font-size="10.00">string</text>
</a>
</g>
</g>
<!-- Node7&#45;&gt;Node10 -->
<g id="edge10_Node000007_Node000010" class="edge">
<title>Node7&#45;&gt;Node10</title>
<g id="a_edge10_Node000007_Node000010"><a xlink:title=" ">
<path fill="none" stroke="#63b8ff" d="M403.01,-54.99C378.98,-45.23 347.23,-32.33 324.1,-22.93"/>
<polygon fill="#63b8ff" stroke="#63b8ff" points="325.35,-19.66 314.77,-19.14 322.71,-26.15 325.35,-19.66"/>
</a>
</g>
</g>
<!-- Node11 -->
<g id="Node000011" class="node">
<title>Node11</title>
<g id="a_Node000011"><a xlink:title=" ">
<polygon fill="#e0e0e0" stroke="#999999" points="610,-19 537,-19 537,0 610,0 610,-19"/>
<text text-anchor="middle" x="573.5" y="-7" font-family="Helvetica,sans-Serif" font-size="10.00">QByteArray</text>
</a>
</g>
</g>
<!-- Node7&#45;&gt;Node11 -->
<g id="edge11_Node000007_Node000011" class="edge">
<title>Node7&#45;&gt;Node11</title>
<g id="a_edge11_Node000007_Node000011"><a xlink:title=" ">
<path fill="none" stroke="#63b8ff" d="M470.08,-54.99C492.56,-45.31 522.22,-32.56 544.01,-23.18"/>
<polygon fill="#63b8ff" stroke="#63b8ff" points="545.61,-26.31 553.42,-19.14 542.85,-19.88 545.61,-26.31"/>
</a>
</g>
</g>
<!-- Node12 -->
<g id="Node000012" class="node">
<title>Node12</title>
<g id="a_Node000012"><a xlink:title=" ">
<polygon fill="#e0e0e0" stroke="#999999" points="677,-19 628,-19 628,0 677,0 677,-19"/>
<text text-anchor="middle" x="652.5" y="-7" font-family="Helvetica,sans-Serif" font-size="10.00">QHash</text>
</a>
</g>
</g>
<!-- Node7&#45;&gt;Node12 -->
<g id="edge12_Node000007_Node000012" class="edge">
<title>Node7&#45;&gt;Node12</title>
<g id="a_edge12_Node000007_Node000012"><a xlink:title=" ">
<path fill="none" stroke="#63b8ff" d="M489,-54.99C529.02,-44.1 583.42,-29.3 618.25,-19.82"/>
<polygon fill="#63b8ff" stroke="#63b8ff" points="619.23,-23.18 627.96,-17.18 617.39,-16.42 619.23,-23.18"/>
</a>
</g>
</g>
<!-- Node13 -->
<g id="Node000013" class="node">
<title>Node13</title>
<g id="a_Node000013"><a xlink:title=" ">
<polygon fill="#e0e0e0" stroke="#999999" points="387,-19 334,-19 334,0 387,0 387,-19"/>
<text text-anchor="middle" x="360.5" y="-7" font-family="Helvetica,sans-Serif" font-size="10.00">QString</text>
</a>
</g>
</g>
<!-- Node7&#45;&gt;Node13 -->
<g id="edge13_Node000007_Node000013" class="edge">
<title>Node7&#45;&gt;Node13</title>
<g id="a_edge13_Node000007_Node000013"><a xlink:title=" ">
<path fill="none" stroke="#63b8ff" d="M418.86,-54.84C407.11,-45.91 391.97,-34.41 380.05,-25.35"/>
<polygon fill="#63b8ff" stroke="#63b8ff" points="382.12,-22.53 372.04,-19.27 377.88,-28.1 382.12,-22.53"/>
</a>
</g>
</g>
<!-- Node14 -->
<g id="Node000014" class="node">
<title>Node14</title>
<g id="a_Node000014"><a xlink:title=" ">
<polygon fill="#e0e0e0" stroke="#999999" points="450,-19 405,-19 405,0 450,0 450,-19"/>
<text text-anchor="middle" x="427.5" y="-7" font-family="Helvetica,sans-Serif" font-size="10.00">QMap</text>
</a>
</g>
</g>
<!-- Node7&#45;&gt;Node14 -->
<g id="edge15_Node000007_Node000014" class="edge">
<title>Node7&#45;&gt;Node14</title>
<g id="a_edge15_Node000007_Node000014"><a xlink:title=" ">
<path fill="none" stroke="#63b8ff" d="M435.08,-54.84C433.76,-47.13 432.11,-37.49 430.69,-29.17"/>
<polygon fill="#63b8ff" stroke="#63b8ff" points="434.13,-28.53 429,-19.27 427.23,-29.71 434.13,-28.53"/>
</a>
</g>
</g>
<!-- Node15&#45;&gt;Node9 -->
<g id="edge32_Node000015_Node000009" class="edge">
<title>Node15&#45;&gt;Node9</title>
<g id="a_edge32_Node000015_Node000009"><a xlink:title=" ">
<path fill="none" stroke="#63b8ff" d="M786.23,-248.06C852.02,-241.2 942.01,-219.06 976.5,-151 1012.41,-80.14 885.28,-36.09 821.22,-18.83"/>
<polygon fill="#63b8ff" stroke="#63b8ff" points="822.08,-15.44 811.52,-16.3 820.3,-22.21 822.08,-15.44"/>
</a>
</g>
</g>
<!-- Node16 -->
<g id="Node000016" class="node">
<title>Node16</title>
<g id="a_Node000016"><a xlink:href="RingBuffer_8h.html" target="_top" xlink:title=" ">
<polygon fill="white" stroke="#666666" points="867.5,-206 791.5,-206 791.5,-187 867.5,-187 867.5,-206"/>
<text text-anchor="middle" x="829.5" y="-194" font-family="Helvetica,sans-Serif" font-size="10.00">RingBuffer.h</text>
</a>
</g>
</g>
<!-- Node15&#45;&gt;Node16 -->
<g id="edge17_Node000015_Node000016" class="edge">
<title>Node15&#45;&gt;Node16</title>
<g id="a_edge17_Node000015_Node000016"><a xlink:title=" ">
<path fill="none" stroke="#63b8ff" d="M729.62,-241.98C748.85,-233.42 778.73,-220.11 800.81,-210.28"/>
<polygon fill="#63b8ff" stroke="#63b8ff" points="802.32,-213.44 810.03,-206.17 799.47,-207.04 802.32,-213.44"/>
</a>
</g>
</g>
<!-- Node19 -->
<g id="Node000019" class="node">
<title>Node19</title>
<g id="a_Node000019"><a xlink:title=" ">
<polygon fill="#e0e0e0" stroke="#999999" points="967.5,-145.5 917.5,-145.5 917.5,-126.5 967.5,-126.5 967.5,-145.5"/>
<text text-anchor="middle" x="942.5" y="-133.5" font-family="Helvetica,sans-Serif" font-size="10.00">atomic</text>
</a>
</g>
</g>
<!-- Node15&#45;&gt;Node19 -->
<g id="edge31_Node000015_Node000019" class="edge">
<title>Node15&#45;&gt;Node19</title>
<g id="a_edge31_Node000015_Node000019"><a xlink:title=" ">
<path fill="none" stroke="#63b8ff" d="M773.59,-241.94C806.01,-235.53 845.18,-224.55 876.5,-206 898.91,-192.72 918.68,-169.74 930.6,-153.98"/>
<polygon fill="#63b8ff" stroke="#63b8ff" points="933.61,-155.8 936.68,-145.66 927.96,-151.67 933.61,-155.8"/>
</a>
</g>
</g>
<!-- Node21 -->
<g id="Node000021" class="node">
<title>Node21</title>
<g id="a_Node000021"><a xlink:href="Logger_8h.html" target="_top" xlink:title=" ">
<polygon fill="white" stroke="#666666" points="705.5,-151 595.5,-151 595.5,-121 705.5,-121 705.5,-151"/>
<text text-anchor="start" x="603.5" y="-139" font-family="Helvetica,sans-Serif" font-size="10.00">src/services/Logger</text>
<text text-anchor="middle" x="650.5" y="-128" font-family="Helvetica,sans-Serif" font-size="10.00">/Logger.h</text>
</a>
</g>
</g>
<!-- Node15&#45;&gt;Node21 -->
<g id="edge36_Node000015_Node000021" class="edge">
<title>Node15&#45;&gt;Node21</title>
<g id="a_edge36_Node000015_Node000021"><a xlink:title=" ">
<path fill="none" stroke="#63b8ff" d="M721.24,-241.72C735.05,-229.33 755.96,-206.08 744.5,-187 736.22,-173.22 722.72,-163.04 708.51,-155.59"/>
<polygon fill="#63b8ff" stroke="#63b8ff" points="709.64,-152.25 699.11,-151.08 706.61,-158.56 709.64,-152.25"/>
</a>
</g>
</g>
<!-- Node23 -->
<g id="Node000023" class="node">
<title>Node23</title>
<g id="a_Node000023"><a xlink:href="Writer_8h.html" target="_top" xlink:title=" ">
<polygon fill="white" stroke="#666666" points="533,-206 478,-206 478,-187 533,-187 533,-206"/>
<text text-anchor="middle" x="505.5" y="-194" font-family="Helvetica,sans-Serif" font-size="10.00">Writer.h</text>
</a>
</g>
</g>
<!-- Node15&#45;&gt;Node23 -->
<g id="edge26_Node000015_Node000023" class="edge">
<title>Node15&#45;&gt;Node23</title>
<g id="a_edge26_Node000015_Node000023"><a xlink:title=" ">
<path fill="none" stroke="#63b8ff" d="M677.56,-241.98C640.78,-232.48 581.38,-217.12 542.88,-207.17"/>
<polygon fill="#63b8ff" stroke="#63b8ff" points="543.66,-203.75 533.1,-204.63 541.9,-210.53 543.66,-203.75"/>
</a>
</g>
</g>
<!-- Node24 -->
<g id="Node000024" class="node">
<title>Node24</title>
<g id="a_Node000024"><a xlink:title=" ">
<polygon fill="#e0e0e0" stroke="#999999" points="599.5,-206 551.5,-206 551.5,-187 599.5,-187 599.5,-206"/>
<text text-anchor="middle" x="575.5" y="-194" font-family="Helvetica,sans-Serif" font-size="10.00">thread</text>
</a>
</g>
</g>
<!-- Node15&#45;&gt;Node24 -->
<g id="edge33_Node000015_Node000024" class="edge">
<title>Node15&#45;&gt;Node24</title>
<g id="a_edge33_Node000015_Node000024"><a xlink:title=" ">
<path fill="none" stroke="#63b8ff" d="M688.81,-241.98C666.7,-233.3 632.18,-219.75 607.05,-209.88"/>
<polygon fill="#63b8ff" stroke="#63b8ff" points="608.17,-206.57 597.58,-206.17 605.61,-213.08 608.17,-206.57"/>
</a>
</g>
</g>
<!-- Node25 -->
<g id="Node000025" class="node">
<title>Node25</title>
<g id="a_Node000025"><a xlink:title=" ">
<polygon fill="#e0e0e0" stroke="#999999" points="667.5,-206 617.5,-206 617.5,-187 667.5,-187 667.5,-206"/>
<text text-anchor="middle" x="642.5" y="-194" font-family="Helvetica,sans-Serif" font-size="10.00">chrono</text>
</a>
</g>
</g>
<!-- Node15&#45;&gt;Node25 -->
<g id="edge34_Node000015_Node000025" class="edge">
<title>Node15&#45;&gt;Node25</title>
<g id="a_edge34_Node000015_Node000025"><a xlink:title=" ">
<path fill="none" stroke="#63b8ff" d="M699.57,-241.98C689.42,-234.07 674.08,-222.11 661.85,-212.58"/>
<polygon fill="#63b8ff" stroke="#63b8ff" points="663.66,-209.56 653.62,-206.17 659.36,-215.08 663.66,-209.56"/>
</a>
</g>
</g>
<!-- Node26 -->
<g id="Node000026" class="node">
<title>Node26</title>
<g id="a_Node000026"><a xlink:title=" ">
<polygon fill="#e0e0e0" stroke="#999999" points="735.5,-206 685.5,-206 685.5,-187 735.5,-187 735.5,-206"/>
<text text-anchor="middle" x="710.5" y="-194" font-family="Helvetica,sans-Serif" font-size="10.00">format</text>
</a>
</g>
</g>
<!-- Node15&#45;&gt;Node26 -->
<g id="edge35_Node000015_Node000026" class="edge">
<title>Node15&#45;&gt;Node26</title>
<g id="a_edge35_Node000015_Node000026"><a xlink:title=" ">
<path fill="none" stroke="#63b8ff" d="M710.5,-241.75C710.5,-234.8 710.5,-224.85 710.5,-216.13"/>
<polygon fill="#63b8ff" stroke="#63b8ff" points="714,-216.09 710.5,-206.09 707,-216.09 714,-216.09"/>
</a>
</g>
</g>
<!-- Node16&#45;&gt;Node9 -->
<g id="edge19_Node000016_Node000009" class="edge">
<title>Node16&#45;&gt;Node9</title>
<g id="a_edge19_Node000016_Node000009"><a xlink:title=" ">
<path fill="none" stroke="#63b8ff" d="M841.43,-186.8C851.33,-178.77 864.69,-165.87 870.5,-151 875.35,-138.58 874.76,-133.64 870.5,-121 857.32,-81.89 824.18,-45.65 803.68,-25.95"/>
<polygon fill="#63b8ff" stroke="#63b8ff" points="805.96,-23.29 796.27,-19.01 801.18,-28.4 805.96,-23.29"/>
</a>
</g>
</g>
<!-- Node17 -->
<g id="Node000017" class="node">
<title>Node17</title>
<g id="a_Node000017"><a xlink:title=" ">
<polygon fill="#e0e0e0" stroke="#999999" points="779.5,-145.5 723.5,-145.5 723.5,-126.5 779.5,-126.5 779.5,-145.5"/>
<text text-anchor="middle" x="751.5" y="-133.5" font-family="Helvetica,sans-Serif" font-size="10.00">QDebug</text>
</a>
</g>
</g>
<!-- Node16&#45;&gt;Node17 -->
<g id="edge18_Node000016_Node000017" class="edge">
<title>Node16&#45;&gt;Node17</title>
<g id="a_edge18_Node000016_Node000017"><a xlink:title=" ">
<path fill="none" stroke="#63b8ff" d="M817.99,-186.87C805.66,-177.62 785.88,-162.78 771.09,-151.69"/>
<polygon fill="#63b8ff" stroke="#63b8ff" points="773.16,-148.87 763.06,-145.67 768.96,-154.47 773.16,-148.87"/>
</a>
</g>
</g>
<!-- Node18 -->
<g id="Node000018" class="node">
<title>Node18</title>
<g id="a_Node000018"><a xlink:title=" ">
<polygon fill="#e0e0e0" stroke="#999999" points="577,-145.5 522,-145.5 522,-126.5 577,-126.5 577,-145.5"/>
<text text-anchor="middle" x="549.5" y="-133.5" font-family="Helvetica,sans-Serif" font-size="10.00">fstream</text>
</a>
</g>
</g>
<!-- Node16&#45;&gt;Node18 -->
<g id="edge20_Node000016_Node000018" class="edge">
<title>Node16&#45;&gt;Node18</title>
<g id="a_edge20_Node000016_Node000018"><a xlink:title=" ">
<path fill="none" stroke="#63b8ff" d="M791.14,-190.66C742.83,-184.07 657.57,-170.78 586.5,-151 584.21,-150.36 581.87,-149.64 579.52,-148.87"/>
<polygon fill="#63b8ff" stroke="#63b8ff" points="580.62,-145.55 570.02,-145.52 578.29,-152.15 580.62,-145.55"/>
</a>
</g>
</g>
<!-- Node16&#45;&gt;Node19 -->
<g id="edge21_Node000016_Node000019" class="edge">
<title>Node16&#45;&gt;Node19</title>
<g id="a_edge21_Node000016_Node000019"><a xlink:title=" ">
<path fill="none" stroke="#63b8ff" d="M846.17,-186.87C864.78,-177.23 895.12,-161.53 916.78,-150.31"/>
<polygon fill="#63b8ff" stroke="#63b8ff" points="918.49,-153.37 925.76,-145.67 915.27,-147.16 918.49,-153.37"/>
</a>
</g>
</g>
<!-- Node20 -->
<g id="Node000020" class="node">
<title>Node20</title>
<g id="a_Node000020"><a xlink:title=" ">
<polygon fill="#e0e0e0" stroke="#999999" points="861.5,-145.5 797.5,-145.5 797.5,-126.5 861.5,-126.5 861.5,-145.5"/>
<text text-anchor="middle" x="829.5" y="-133.5" font-family="Helvetica,sans-Serif" font-size="10.00">algorithm</text>
</a>
</g>
</g>
<!-- Node16&#45;&gt;Node20 -->
<g id="edge22_Node000016_Node000020" class="edge">
<title>Node16&#45;&gt;Node20</title>
<g id="a_edge22_Node000016_Node000020"><a xlink:title=" ">
<path fill="none" stroke="#63b8ff" d="M829.5,-186.87C829.5,-178.75 829.5,-166.31 829.5,-155.89"/>
<polygon fill="#63b8ff" stroke="#63b8ff" points="833,-155.67 829.5,-145.67 826,-155.67 833,-155.67"/>
</a>
</g>
</g>
<!-- Node16&#45;&gt;Node21 -->
<g id="edge23_Node000016_Node000021" class="edge">
<title>Node16&#45;&gt;Node21</title>
<g id="a_edge23_Node000016_Node000021"><a xlink:title=" ">
<path fill="none" stroke="#63b8ff" d="M803.47,-186.99C777.26,-178.43 736.09,-164.97 703.06,-154.18"/>
<polygon fill="#63b8ff" stroke="#63b8ff" points="704.13,-150.84 693.53,-151.06 701.95,-157.5 704.13,-150.84"/>
</a>
</g>
</g>
<!-- Node21&#45;&gt;Node7 -->
<g id="edge25_Node000021_Node000007" class="edge">
<title>Node21&#45;&gt;Node7</title>
<g id="a_edge25_Node000021_Node000007"><a xlink:title=" ">
<path fill="none" stroke="#63b8ff" d="M603.76,-120.95C571.43,-111.24 528.25,-98.27 494,-87.98"/>
<polygon fill="#63b8ff" stroke="#63b8ff" points="494.72,-84.54 484.13,-85.01 492.7,-91.24 494.72,-84.54"/>
</a>
</g>
</g>
<!-- Node22 -->
<g id="Node000022" class="node">
<title>Node22</title>
<g id="a_Node000022"><a xlink:title=" ">
<polygon fill="#e0e0e0" stroke="#999999" points="680,-79.5 621,-79.5 621,-60.5 680,-60.5 680,-79.5"/>
<text text-anchor="middle" x="650.5" y="-67.5" font-family="Helvetica,sans-Serif" font-size="10.00">QWidget</text>
</a>
</g>
</g>
<!-- Node21&#45;&gt;Node22 -->
<g id="edge24_Node000021_Node000022" class="edge">
<title>Node21&#45;&gt;Node22</title>
<g id="a_edge24_Node000021_Node000022"><a xlink:title=" ">
<path fill="none" stroke="#63b8ff" d="M650.5,-120.8C650.5,-111.7 650.5,-99.79 650.5,-89.9"/>
<polygon fill="#63b8ff" stroke="#63b8ff" points="654,-89.84 650.5,-79.84 647,-89.84 654,-89.84"/>
</a>
</g>
</g>
<!-- Node23&#45;&gt;Node9 -->
<g id="edge27_Node000023_Node000009" class="edge">
<title>Node23&#45;&gt;Node9</title>
<g id="a_edge27_Node000023_Node000009"><a xlink:title=" ">
<path fill="none" stroke="#63b8ff" d="M504.07,-186.96C502.07,-172.32 499.98,-141.97 512.5,-121 539.61,-75.6 563.18,-76.49 611.5,-55 657.64,-34.48 715.01,-22.16 751.21,-15.85"/>
<polygon fill="#63b8ff" stroke="#63b8ff" points="751.99,-19.27 761.27,-14.16 750.83,-12.36 751.99,-19.27"/>
</a>
</g>
</g>
<!-- Node23&#45;&gt;Node10 -->
<g id="edge29_Node000023_Node000010" class="edge">
<title>Node23&#45;&gt;Node10</title>
<g id="a_edge29_Node000023_Node000010"><a xlink:title=" ">
<path fill="none" stroke="#63b8ff" d="M495.4,-186.98C473.56,-168.55 420.4,-123.5 376.5,-85 353.69,-65 327.71,-41.57 310.98,-26.41"/>
<polygon fill="#63b8ff" stroke="#63b8ff" points="312.9,-23.42 303.15,-19.29 308.2,-28.6 312.9,-23.42"/>
</a>
</g>
</g>
<!-- Node23&#45;&gt;Node18 -->
<g id="edge28_Node000023_Node000018" class="edge">
<title>Node23&#45;&gt;Node18</title>
<g id="a_edge28_Node000023_Node000018"><a xlink:title=" ">
<path fill="none" stroke="#63b8ff" d="M511.99,-186.87C518.49,-178.23 528.66,-164.7 536.78,-153.92"/>
<polygon fill="#63b8ff" stroke="#63b8ff" points="539.77,-155.76 542.98,-145.67 534.17,-151.56 539.77,-155.76"/>
</a>
</g>
</g>
<!-- Node23&#45;&gt;Node21 -->
<g id="edge30_Node000023_Node000021" class="edge">
<title>Node23&#45;&gt;Node21</title>
<g id="a_edge30_Node000023_Node000021"><a xlink:title=" ">
<path fill="none" stroke="#63b8ff" d="M526.58,-186.99C547.36,-178.61 579.74,-165.55 606.2,-154.87"/>
<polygon fill="#63b8ff" stroke="#63b8ff" points="607.68,-158.05 615.64,-151.06 605.06,-151.56 607.68,-158.05"/>
</a>
</g>
</g>
<!-- Node27&#45;&gt;Node3 -->
<g id="edge38_Node000027_Node000003" class="edge">
<title>Node27&#45;&gt;Node3</title>
<g id="a_edge38_Node000027_Node000003"><a xlink:title=" ">
<path fill="none" stroke="#63b8ff" d="M263.86,-126.44C255.31,-106.36 233.81,-55.87 222.21,-28.62"/>
<polygon fill="#63b8ff" stroke="#63b8ff" points="225.31,-26.95 218.17,-19.12 218.86,-29.69 225.31,-26.95"/>
</a>
</g>
</g>
<!-- Node27&#45;&gt;Node7 -->
<g id="edge40_Node000027_Node000007" class="edge">
<title>Node27&#45;&gt;Node7</title>
<g id="a_edge40_Node000027_Node000007"><a xlink:title=" ">
<path fill="none" stroke="#63b8ff" d="M290.43,-126.37C315.89,-116.78 357.69,-101.05 390.23,-88.8"/>
<polygon fill="#63b8ff" stroke="#63b8ff" points="391.88,-91.91 400.01,-85.12 389.41,-85.36 391.88,-91.91"/>
</a>
</g>
</g>
<!-- Node27&#45;&gt;Node10 -->
<g id="edge39_Node000027_Node000010" class="edge">
<title>Node27&#45;&gt;Node10</title>
<g id="a_edge39_Node000027_Node000010"><a xlink:title=" ">
<path fill="none" stroke="#63b8ff" d="M269.29,-126.44C273.46,-106.45 283.93,-56.32 289.64,-28.98"/>
<polygon fill="#63b8ff" stroke="#63b8ff" points="293.08,-29.62 291.7,-19.12 286.23,-28.19 293.08,-29.62"/>
</a>
</g>
</g>
</g>
</svg>
