<?xml version="1.0" encoding="UTF-8" standalone="no"?>
<!DOCTYPE svg PUBLIC "-//W3C//DTD SVG 1.1//EN"
 "http://www.w3.org/Graphics/SVG/1.1/DTD/svg11.dtd">
<!-- Generated by graphviz version 2.43.0 (0)
 -->
<!-- Title: features/test/frames/emergency_controls/EmergencyControlsViewModel.cpp Pages: 1 -->
<svg width="898pt" height="412pt"
 viewBox="0.00 0.00 897.80 412.00" xmlns="http://www.w3.org/2000/svg" xmlns:xlink="http://www.w3.org/1999/xlink">
<g id="graph0" class="graph" transform="scale(1 1) rotate(0) translate(4 408)">
<title>features/test/frames/emergency_controls/EmergencyControlsViewModel.cpp</title>
<!-- Node1 -->
<g id="Node000001" class="node">
<title>Node1</title>
<g id="a_Node000001"><a xlink:title=" ">
<polygon fill="#999999" stroke="#666666" points="774.3,-404 598.3,-404 598.3,-363 774.3,-363 774.3,-404"/>
<text text-anchor="start" x="606.3" y="-392" font-family="Helvetica,sans-Serif" font-size="10.00">features/test/frames</text>
<text text-anchor="start" x="606.3" y="-381" font-family="Helvetica,sans-Serif" font-size="10.00">/emergency_controls/Emergency</text>
<text text-anchor="middle" x="686.3" y="-370" font-family="Helvetica,sans-Serif" font-size="10.00">ControlsViewModel.cpp</text>
</a>
</g>
</g>
<!-- Node2 -->
<g id="Node000002" class="node">
<title>Node2</title>
<g id="a_Node000002"><a xlink:href="EmergencyControlsViewModel_8h.html" target="_top" xlink:title=" ">
<polygon fill="white" stroke="#666666" points="889.8,-321.5 714.8,-321.5 714.8,-302.5 889.8,-302.5 889.8,-321.5"/>
<text text-anchor="middle" x="802.3" y="-309.5" font-family="Helvetica,sans-Serif" font-size="10.00">EmergencyControlsViewModel.h</text>
</a>
</g>
</g>
<!-- Node1&#45;&gt;Node2 -->
<g id="edge1_Node000001_Node000002" class="edge">
<title>Node1&#45;&gt;Node2</title>
<g id="a_edge1_Node000001_Node000002"><a xlink:title=" ">
<path fill="none" stroke="#63b8ff" d="M718.92,-362.96C738.14,-351.44 762,-337.14 779.26,-326.8"/>
<polygon fill="#63b8ff" stroke="#63b8ff" points="781.33,-329.65 788.11,-321.5 777.73,-323.64 781.33,-329.65"/>
</a>
</g>
</g>
<!-- Node4 -->
<g id="Node000004" class="node">
<title>Node4</title>
<g id="a_Node000004"><a xlink:href="UdpChannel_8h.html" target="_top" xlink:title="UDP communication channel between the microcontroller and the HMI.">
<polygon fill="white" stroke="#666666" points="625.8,-327 472.8,-327 472.8,-297 625.8,-297 625.8,-327"/>
<text text-anchor="start" x="480.8" y="-315" font-family="Helvetica,sans-Serif" font-size="10.00">src/features/communication</text>
<text text-anchor="middle" x="549.3" y="-304" font-family="Helvetica,sans-Serif" font-size="10.00">/udp/UdpChannel.h</text>
</a>
</g>
</g>
<!-- Node1&#45;&gt;Node4 -->
<g id="edge3_Node000001_Node000004" class="edge">
<title>Node1&#45;&gt;Node4</title>
<g id="a_edge3_Node000001_Node000004"><a xlink:title=" ">
<path fill="none" stroke="#63b8ff" d="M647.77,-362.96C628.46,-353.16 605.18,-341.35 586.11,-331.67"/>
<polygon fill="#63b8ff" stroke="#63b8ff" points="587.62,-328.52 577.12,-327.11 584.45,-334.76 587.62,-328.52"/>
</a>
</g>
</g>
<!-- Node25 -->
<g id="Node000025" class="node">
<title>Node25</title>
<g id="a_Node000025"><a xlink:href="TestBenchModel_8h.html" target="_top" xlink:title=" ">
<polygon fill="white" stroke="#666666" points="698.8,-145.5 575.8,-145.5 575.8,-126.5 698.8,-126.5 698.8,-145.5"/>
<text text-anchor="middle" x="637.3" y="-133.5" font-family="Helvetica,sans-Serif" font-size="10.00">../../TestBenchModel.h</text>
</a>
</g>
</g>
<!-- Node1&#45;&gt;Node25 -->
<g id="edge34_Node000001_Node000025" class="edge">
<title>Node1&#45;&gt;Node25</title>
<g id="a_edge34_Node000001_Node000025"><a xlink:title=" ">
<path fill="none" stroke="#63b8ff" d="M682.37,-362.82C673.12,-316.46 650.05,-200.87 641.01,-155.6"/>
<polygon fill="#63b8ff" stroke="#63b8ff" points="644.42,-154.81 639.03,-145.69 637.56,-156.18 644.42,-154.81"/>
</a>
</g>
</g>
<!-- Node3 -->
<g id="Node000003" class="node">
<title>Node3</title>
<g id="a_Node000003"><a xlink:title=" ">
<polygon fill="#e0e0e0" stroke="#999999" points="744.3,-19 688.3,-19 688.3,0 744.3,0 744.3,-19"/>
<text text-anchor="middle" x="716.3" y="-7" font-family="Helvetica,sans-Serif" font-size="10.00">QObject</text>
</a>
</g>
</g>
<!-- Node2&#45;&gt;Node3 -->
<g id="edge2_Node000002_Node000003" class="edge">
<title>Node2&#45;&gt;Node3</title>
<g id="a_edge2_Node000002_Node000003"><a xlink:title=" ">
<path fill="none" stroke="#63b8ff" d="M799.95,-302.25C795.07,-283.3 784.3,-237 784.3,-197.5 784.3,-197.5 784.3,-197.5 784.3,-135 784.3,-91.76 752.31,-49.27 732.22,-26.84"/>
<polygon fill="#63b8ff" stroke="#63b8ff" points="734.56,-24.22 725.19,-19.27 729.43,-28.98 734.56,-24.22"/>
</a>
</g>
</g>
<!-- Node4&#45;&gt;Node3 -->
<g id="edge4_Node000004_Node000003" class="edge">
<title>Node4&#45;&gt;Node3</title>
<g id="a_edge4_Node000004_Node000003"><a xlink:title=" ">
<path fill="none" stroke="#63b8ff" d="M572.62,-296.91C610.11,-272.66 682.24,-219.02 708.3,-151 724.05,-109.88 721.59,-57.01 718.75,-29.32"/>
<polygon fill="#63b8ff" stroke="#63b8ff" points="722.19,-28.64 717.56,-19.11 715.24,-29.44 722.19,-28.64"/>
</a>
</g>
</g>
<!-- Node5 -->
<g id="Node000005" class="node">
<title>Node5</title>
<g id="a_Node000005"><a xlink:title=" ">
<polygon fill="#e0e0e0" stroke="#999999" points="479.3,-261 421.3,-261 421.3,-242 479.3,-242 479.3,-261"/>
<text text-anchor="middle" x="450.3" y="-249" font-family="Helvetica,sans-Serif" font-size="10.00">QThread</text>
</a>
</g>
</g>
<!-- Node4&#45;&gt;Node5 -->
<g id="edge5_Node000004_Node000005" class="edge">
<title>Node4&#45;&gt;Node5</title>
<g id="a_edge5_Node000004_Node000005"><a xlink:title=" ">
<path fill="none" stroke="#63b8ff" d="M525.59,-296.99C509.95,-287.75 489.56,-275.7 473.94,-266.47"/>
<polygon fill="#63b8ff" stroke="#63b8ff" points="475.31,-263.21 464.92,-261.14 471.75,-269.24 475.31,-263.21"/>
</a>
</g>
</g>
<!-- Node6 -->
<g id="Node000006" class="node">
<title>Node6</title>
<g id="a_Node000006"><a xlink:title=" ">
<polygon fill="#e0e0e0" stroke="#999999" points="611.3,-261 535.3,-261 535.3,-242 611.3,-242 611.3,-261"/>
<text text-anchor="middle" x="573.3" y="-249" font-family="Helvetica,sans-Serif" font-size="10.00">QUdpSocket</text>
</a>
</g>
</g>
<!-- Node4&#45;&gt;Node6 -->
<g id="edge6_Node000004_Node000006" class="edge">
<title>Node4&#45;&gt;Node6</title>
<g id="a_edge6_Node000004_Node000006"><a xlink:title=" ">
<path fill="none" stroke="#63b8ff" d="M555.11,-296.84C558.34,-288.95 562.4,-279.05 565.87,-270.61"/>
<polygon fill="#63b8ff" stroke="#63b8ff" points="569.14,-271.85 569.7,-261.27 562.67,-269.19 569.14,-271.85"/>
</a>
</g>
</g>
<!-- Node7 -->
<g id="Node000007" class="node">
<title>Node7</title>
<g id="a_Node000007"><a xlink:href="Messages_8h.html" target="_top" xlink:title=" ">
<polygon fill="white" stroke="#666666" points="554.8,-85 451.8,-85 451.8,-55 554.8,-55 554.8,-85"/>
<text text-anchor="start" x="459.8" y="-73" font-family="Helvetica,sans-Serif" font-size="10.00">src/core/Protocols</text>
<text text-anchor="middle" x="503.3" y="-62" font-family="Helvetica,sans-Serif" font-size="10.00">/Messages.h</text>
</a>
</g>
</g>
<!-- Node4&#45;&gt;Node7 -->
<g id="edge7_Node000004_Node000007" class="edge">
<title>Node4&#45;&gt;Node7</title>
<g id="a_edge7_Node000004_Node000007"><a xlink:title=" ">
<path fill="none" stroke="#63b8ff" d="M541.21,-296.58C536.11,-286.83 529.84,-273.5 526.3,-261 509.9,-203.05 505.19,-131.92 503.84,-95.32"/>
<polygon fill="#63b8ff" stroke="#63b8ff" points="507.33,-95 503.52,-85.12 500.34,-95.22 507.33,-95"/>
</a>
</g>
</g>
<!-- Node15 -->
<g id="Node000015" class="node">
<title>Node15</title>
<g id="a_Node000015"><a xlink:href="UdpLogger_8h.html" target="_top" xlink:title="High&#45;frequency binary logger for UDP telemetry frames.">
<polygon fill="white" stroke="#666666" points="341.8,-261 190.8,-261 190.8,-242 341.8,-242 341.8,-261"/>
<text text-anchor="middle" x="266.3" y="-249" font-family="Helvetica,sans-Serif" font-size="10.00">frames_logger/UdpLogger.h</text>
</a>
</g>
</g>
<!-- Node4&#45;&gt;Node15 -->
<g id="edge16_Node000004_Node000015" class="edge">
<title>Node4&#45;&gt;Node15</title>
<g id="a_edge16_Node000004_Node000015"><a xlink:title=" ">
<path fill="none" stroke="#63b8ff" d="M481.51,-296.99C431.19,-286.59 363.62,-272.62 317.71,-263.13"/>
<polygon fill="#63b8ff" stroke="#63b8ff" points="318.18,-259.65 307.68,-261.05 316.76,-266.51 318.18,-259.65"/>
</a>
</g>
</g>
<!-- Node7&#45;&gt;Node3 -->
<g id="edge14_Node000007_Node000003" class="edge">
<title>Node7&#45;&gt;Node3</title>
<g id="a_edge14_Node000007_Node000003"><a xlink:title=" ">
<path fill="none" stroke="#63b8ff" d="M554.32,-54.99C592.52,-44.5 643.92,-30.38 678.49,-20.88"/>
<polygon fill="#63b8ff" stroke="#63b8ff" points="679.49,-24.24 688.21,-18.22 677.64,-17.49 679.49,-24.24"/>
</a>
</g>
</g>
<!-- Node8 -->
<g id="Node000008" class="node">
<title>Node8</title>
<g id="a_Node000008"><a xlink:title=" ">
<polygon fill="#e0e0e0" stroke="#999999" points="368.8,-19 317.8,-19 317.8,0 368.8,0 368.8,-19"/>
<text text-anchor="middle" x="343.3" y="-7" font-family="Helvetica,sans-Serif" font-size="10.00">variant</text>
</a>
</g>
</g>
<!-- Node7&#45;&gt;Node8 -->
<g id="edge8_Node000007_Node000008" class="edge">
<title>Node7&#45;&gt;Node8</title>
<g id="a_edge8_Node000007_Node000008"><a xlink:title=" ">
<path fill="none" stroke="#63b8ff" d="M464.97,-54.99C438.04,-45.14 402.36,-32.1 376.61,-22.68"/>
<polygon fill="#63b8ff" stroke="#63b8ff" points="377.52,-19.29 366.93,-19.14 375.12,-25.86 377.52,-19.29"/>
</a>
</g>
</g>
<!-- Node9 -->
<g id="Node000009" class="node">
<title>Node9</title>
<g id="a_Node000009"><a xlink:title=" ">
<polygon fill="#e0e0e0" stroke="#999999" points="129.3,-19 79.3,-19 79.3,0 129.3,0 129.3,-19"/>
<text text-anchor="middle" x="104.3" y="-7" font-family="Helvetica,sans-Serif" font-size="10.00">cstdint</text>
</a>
</g>
</g>
<!-- Node7&#45;&gt;Node9 -->
<g id="edge9_Node000007_Node000009" class="edge">
<title>Node7&#45;&gt;Node9</title>
<g id="a_edge9_Node000007_Node000009"><a xlink:title=" ">
<path fill="none" stroke="#63b8ff" d="M451.49,-57.62C446.7,-56.69 441.92,-55.8 437.3,-55 329.4,-36.37 200.68,-21.14 139.69,-14.33"/>
<polygon fill="#63b8ff" stroke="#63b8ff" points="139.79,-10.82 129.46,-13.2 139.02,-17.78 139.79,-10.82"/>
</a>
</g>
</g>
<!-- Node10 -->
<g id="Node000010" class="node">
<title>Node10</title>
<g id="a_Node000010"><a xlink:title=" ">
<polygon fill="#e0e0e0" stroke="#999999" points="660.3,-19 616.3,-19 616.3,0 660.3,0 660.3,-19"/>
<text text-anchor="middle" x="638.3" y="-7" font-family="Helvetica,sans-Serif" font-size="10.00">string</text>
</a>
</g>
</g>
<!-- Node7&#45;&gt;Node10 -->
<g id="edge10_Node000007_Node000010" class="edge">
<title>Node7&#45;&gt;Node10</title>
<g id="a_edge10_Node000007_Node000010"><a xlink:title=" ">
<path fill="none" stroke="#63b8ff" d="M535.63,-54.99C557.96,-45.31 587.4,-32.56 609.03,-23.18"/>
<polygon fill="#63b8ff" stroke="#63b8ff" points="610.58,-26.33 618.36,-19.14 607.79,-19.9 610.58,-26.33"/>
</a>
</g>
</g>
<!-- Node11 -->
<g id="Node000011" class="node">
<title>Node11</title>
<g id="a_Node000011"><a xlink:title=" ">
<polygon fill="#e0e0e0" stroke="#999999" points="459.8,-19 386.8,-19 386.8,0 459.8,0 459.8,-19"/>
<text text-anchor="middle" x="423.3" y="-7" font-family="Helvetica,sans-Serif" font-size="10.00">QByteArray</text>
</a>
</g>
</g>
<!-- Node7&#45;&gt;Node11 -->
<g id="edge11_Node000007_Node000011" class="edge">
<title>Node7&#45;&gt;Node11</title>
<g id="a_edge11_Node000007_Node000011"><a xlink:title=" ">
<path fill="none" stroke="#63b8ff" d="M483.93,-54.84C471.73,-45.91 455.99,-34.41 443.61,-25.35"/>
<polygon fill="#63b8ff" stroke="#63b8ff" points="445.42,-22.34 435.29,-19.27 441.29,-27.99 445.42,-22.34"/>
</a>
</g>
</g>
<!-- Node12 -->
<g id="Node000012" class="node">
<title>Node12</title>
<g id="a_Node000012"><a xlink:title=" ">
<polygon fill="#e0e0e0" stroke="#999999" points="526.8,-19 477.8,-19 477.8,0 526.8,0 526.8,-19"/>
<text text-anchor="middle" x="502.3" y="-7" font-family="Helvetica,sans-Serif" font-size="10.00">QHash</text>
</a>
</g>
</g>
<!-- Node7&#45;&gt;Node12 -->
<g id="edge12_Node000007_Node000012" class="edge">
<title>Node7&#45;&gt;Node12</title>
<g id="a_edge12_Node000007_Node000012"><a xlink:title=" ">
<path fill="none" stroke="#63b8ff" d="M503.06,-54.84C502.93,-47.21 502.76,-37.7 502.62,-29.45"/>
<polygon fill="#63b8ff" stroke="#63b8ff" points="506.12,-29.2 502.45,-19.27 499.12,-29.32 506.12,-29.2"/>
</a>
</g>
</g>
<!-- Node13 -->
<g id="Node000013" class="node">
<title>Node13</title>
<g id="a_Node000013"><a xlink:title=" ">
<polygon fill="#e0e0e0" stroke="#999999" points="597.8,-19 544.8,-19 544.8,0 597.8,0 597.8,-19"/>
<text text-anchor="middle" x="571.3" y="-7" font-family="Helvetica,sans-Serif" font-size="10.00">QString</text>
</a>
</g>
</g>
<!-- Node7&#45;&gt;Node13 -->
<g id="edge13_Node000007_Node000013" class="edge">
<title>Node7&#45;&gt;Node13</title>
<g id="a_edge13_Node000007_Node000013"><a xlink:title=" ">
<path fill="none" stroke="#63b8ff" d="M519.76,-54.84C529.93,-46.09 542.99,-34.85 553.42,-25.88"/>
<polygon fill="#63b8ff" stroke="#63b8ff" points="555.81,-28.44 561.11,-19.27 551.25,-23.13 555.81,-28.44"/>
</a>
</g>
</g>
<!-- Node14 -->
<g id="Node000014" class="node">
<title>Node14</title>
<g id="a_Node000014"><a xlink:title=" ">
<polygon fill="#e0e0e0" stroke="#999999" points="299.8,-19 254.8,-19 254.8,0 299.8,0 299.8,-19"/>
<text text-anchor="middle" x="277.3" y="-7" font-family="Helvetica,sans-Serif" font-size="10.00">QMap</text>
</a>
</g>
</g>
<!-- Node7&#45;&gt;Node14 -->
<g id="edge15_Node000007_Node000014" class="edge">
<title>Node7&#45;&gt;Node14</title>
<g id="a_edge15_Node000007_Node000014"><a xlink:title=" ">
<path fill="none" stroke="#63b8ff" d="M451.51,-55.97C414.48,-46.6 363.21,-33.5 309.94,-19.41"/>
<polygon fill="#63b8ff" stroke="#63b8ff" points="310.54,-15.94 299.97,-16.76 308.74,-22.71 310.54,-15.94"/>
</a>
</g>
</g>
<!-- Node15&#45;&gt;Node9 -->
<g id="edge18_Node000015_Node000009" class="edge">
<title>Node15&#45;&gt;Node9</title>
<g id="a_edge18_Node000015_Node000009"><a xlink:title=" ">
<path fill="none" stroke="#63b8ff" d="M190.59,-245.72C127.88,-237.17 43,-213.88 4.3,-151 -8.88,-129.59 12.52,-63.8 19.3,-55 31.81,-38.74 51.97,-27.82 69.51,-20.87"/>
<polygon fill="#63b8ff" stroke="#63b8ff" points="70.74,-24.15 78.92,-17.41 68.33,-17.58 70.74,-24.15"/>
</a>
</g>
</g>
<!-- Node16 -->
<g id="Node000016" class="node">
<title>Node16</title>
<g id="a_Node000016"><a xlink:title=" ">
<polygon fill="#e0e0e0" stroke="#999999" points="231.3,-145.5 181.3,-145.5 181.3,-126.5 231.3,-126.5 231.3,-145.5"/>
<text text-anchor="middle" x="206.3" y="-133.5" font-family="Helvetica,sans-Serif" font-size="10.00">atomic</text>
</a>
</g>
</g>
<!-- Node15&#45;&gt;Node16 -->
<g id="edge17_Node000015_Node000016" class="edge">
<title>Node15&#45;&gt;Node16</title>
<g id="a_edge17_Node000015_Node000016"><a xlink:title=" ">
<path fill="none" stroke="#63b8ff" d="M270.15,-241.75C275.15,-228.99 282.25,-204.85 273.3,-187 265.29,-171.04 249.5,-158.87 235.26,-150.53"/>
<polygon fill="#63b8ff" stroke="#63b8ff" points="236.68,-147.32 226.23,-145.61 233.33,-153.47 236.68,-147.32"/>
</a>
</g>
</g>
<!-- Node17 -->
<g id="Node000017" class="node">
<title>Node17</title>
<g id="a_Node000017"><a xlink:title=" ">
<polygon fill="#e0e0e0" stroke="#999999" points="264.3,-206 216.3,-206 216.3,-187 264.3,-187 264.3,-206"/>
<text text-anchor="middle" x="240.3" y="-194" font-family="Helvetica,sans-Serif" font-size="10.00">thread</text>
</a>
</g>
</g>
<!-- Node15&#45;&gt;Node17 -->
<g id="edge19_Node000015_Node000017" class="edge">
<title>Node15&#45;&gt;Node17</title>
<g id="a_edge19_Node000015_Node000017"><a xlink:title=" ">
<path fill="none" stroke="#63b8ff" d="M262.01,-241.75C258.48,-234.57 253.39,-224.18 249.01,-215.27"/>
<polygon fill="#63b8ff" stroke="#63b8ff" points="252.06,-213.53 244.51,-206.09 245.77,-216.61 252.06,-213.53"/>
</a>
</g>
</g>
<!-- Node18 -->
<g id="Node000018" class="node">
<title>Node18</title>
<g id="a_Node000018"><a xlink:href="RingBuffer_8h.html" target="_top" xlink:title=" ">
<polygon fill="white" stroke="#666666" points="198.3,-206 122.3,-206 122.3,-187 198.3,-187 198.3,-206"/>
<text text-anchor="middle" x="160.3" y="-194" font-family="Helvetica,sans-Serif" font-size="10.00">RingBuffer.h</text>
</a>
</g>
</g>
<!-- Node15&#45;&gt;Node18 -->
<g id="edge20_Node000015_Node000018" class="edge">
<title>Node15&#45;&gt;Node18</title>
<g id="a_edge20_Node000015_Node000018"><a xlink:title=" ">
<path fill="none" stroke="#63b8ff" d="M249.27,-241.98C232.37,-233.54 206.23,-220.47 186.65,-210.68"/>
<polygon fill="#63b8ff" stroke="#63b8ff" points="188.15,-207.51 177.64,-206.17 185.02,-213.77 188.15,-207.51"/>
</a>
</g>
</g>
<!-- Node24 -->
<g id="Node000024" class="node">
<title>Node24</title>
<g id="a_Node000024"><a xlink:href="Writer_8h.html" target="_top" xlink:title=" ">
<polygon fill="white" stroke="#666666" points="405.8,-206 350.8,-206 350.8,-187 405.8,-187 405.8,-206"/>
<text text-anchor="middle" x="378.3" y="-194" font-family="Helvetica,sans-Serif" font-size="10.00">Writer.h</text>
</a>
</g>
</g>
<!-- Node15&#45;&gt;Node24 -->
<g id="edge29_Node000015_Node000024" class="edge">
<title>Node15&#45;&gt;Node24</title>
<g id="a_edge29_Node000015_Node000024"><a xlink:title=" ">
<path fill="none" stroke="#63b8ff" d="M284.29,-241.98C302.23,-233.5 330.01,-220.35 350.73,-210.54"/>
<polygon fill="#63b8ff" stroke="#63b8ff" points="352.43,-213.61 359.98,-206.17 349.44,-207.28 352.43,-213.61"/>
</a>
</g>
</g>
<!-- Node18&#45;&gt;Node9 -->
<g id="edge22_Node000018_Node000009" class="edge">
<title>Node18&#45;&gt;Node9</title>
<g id="a_edge22_Node000018_Node000009"><a xlink:title=" ">
<path fill="none" stroke="#63b8ff" d="M121.98,-195.43C88.08,-193.07 40.37,-183.64 16.3,-151 -16.15,-107.01 47.97,-50.97 83.24,-24.96"/>
<polygon fill="#63b8ff" stroke="#63b8ff" points="85.43,-27.7 91.51,-19.02 81.35,-22.02 85.43,-27.7"/>
</a>
</g>
</g>
<!-- Node18&#45;&gt;Node16 -->
<g id="edge24_Node000018_Node000016" class="edge">
<title>Node18&#45;&gt;Node16</title>
<g id="a_edge24_Node000018_Node000016"><a xlink:title=" ">
<path fill="none" stroke="#63b8ff" d="M167.09,-186.87C173.95,-178.14 184.73,-164.43 193.25,-153.59"/>
<polygon fill="#63b8ff" stroke="#63b8ff" points="196.05,-155.69 199.48,-145.67 190.55,-151.36 196.05,-155.69"/>
</a>
</g>
</g>
<!-- Node19 -->
<g id="Node000019" class="node">
<title>Node19</title>
<g id="a_Node000019"><a xlink:title=" ">
<polygon fill="#e0e0e0" stroke="#999999" points="81.3,-145.5 25.3,-145.5 25.3,-126.5 81.3,-126.5 81.3,-145.5"/>
<text text-anchor="middle" x="53.3" y="-133.5" font-family="Helvetica,sans-Serif" font-size="10.00">QDebug</text>
</a>
</g>
</g>
<!-- Node18&#45;&gt;Node19 -->
<g id="edge21_Node000018_Node000019" class="edge">
<title>Node18&#45;&gt;Node19</title>
<g id="a_edge21_Node000018_Node000019"><a xlink:title=" ">
<path fill="none" stroke="#63b8ff" d="M144.51,-186.87C126.97,-177.28 98.42,-161.67 77.93,-150.47"/>
<polygon fill="#63b8ff" stroke="#63b8ff" points="79.6,-147.39 69.15,-145.67 76.25,-153.54 79.6,-147.39"/>
</a>
</g>
</g>
<!-- Node20 -->
<g id="Node000020" class="node">
<title>Node20</title>
<g id="a_Node000020"><a xlink:title=" ">
<polygon fill="#e0e0e0" stroke="#999999" points="304.8,-145.5 249.8,-145.5 249.8,-126.5 304.8,-126.5 304.8,-145.5"/>
<text text-anchor="middle" x="277.3" y="-133.5" font-family="Helvetica,sans-Serif" font-size="10.00">fstream</text>
</a>
</g>
</g>
<!-- Node18&#45;&gt;Node20 -->
<g id="edge23_Node000018_Node000020" class="edge">
<title>Node18&#45;&gt;Node20</title>
<g id="a_edge23_Node000018_Node000020"><a xlink:title=" ">
<path fill="none" stroke="#63b8ff" d="M177.31,-186.99C196.72,-177.29 228.68,-161.31 251.24,-150.03"/>
<polygon fill="#63b8ff" stroke="#63b8ff" points="252.89,-153.12 260.27,-145.52 249.76,-146.86 252.89,-153.12"/>
</a>
</g>
</g>
<!-- Node21 -->
<g id="Node000021" class="node">
<title>Node21</title>
<g id="a_Node000021"><a xlink:title=" ">
<polygon fill="#e0e0e0" stroke="#999999" points="163.3,-145.5 99.3,-145.5 99.3,-126.5 163.3,-126.5 163.3,-145.5"/>
<text text-anchor="middle" x="131.3" y="-133.5" font-family="Helvetica,sans-Serif" font-size="10.00">algorithm</text>
</a>
</g>
</g>
<!-- Node18&#45;&gt;Node21 -->
<g id="edge25_Node000018_Node000021" class="edge">
<title>Node18&#45;&gt;Node21</title>
<g id="a_edge25_Node000018_Node000021"><a xlink:title=" ">
<path fill="none" stroke="#63b8ff" d="M156.02,-186.87C151.86,-178.49 145.43,-165.51 140.17,-154.89"/>
<polygon fill="#63b8ff" stroke="#63b8ff" points="143.17,-153.07 135.59,-145.67 136.9,-156.18 143.17,-153.07"/>
</a>
</g>
</g>
<!-- Node22 -->
<g id="Node000022" class="node">
<title>Node22</title>
<g id="a_Node000022"><a xlink:href="Logger_8h.html" target="_top" xlink:title="Tool that provide the ability to display and log errors and debug messages.">
<polygon fill="white" stroke="#666666" points="433.3,-151 323.3,-151 323.3,-121 433.3,-121 433.3,-151"/>
<text text-anchor="start" x="331.3" y="-139" font-family="Helvetica,sans-Serif" font-size="10.00">src/services/Logger</text>
<text text-anchor="middle" x="378.3" y="-128" font-family="Helvetica,sans-Serif" font-size="10.00">/Logger.h</text>
</a>
</g>
</g>
<!-- Node18&#45;&gt;Node22 -->
<g id="edge26_Node000018_Node000022" class="edge">
<title>Node18&#45;&gt;Node22</title>
<g id="a_edge26_Node000018_Node000022"><a xlink:title=" ">
<path fill="none" stroke="#63b8ff" d="M192,-186.99C224.4,-178.3 275.57,-164.57 316.1,-153.69"/>
<polygon fill="#63b8ff" stroke="#63b8ff" points="317.14,-157.04 325.89,-151.06 315.32,-150.28 317.14,-157.04"/>
</a>
</g>
</g>
<!-- Node22&#45;&gt;Node7 -->
<g id="edge28_Node000022_Node000007" class="edge">
<title>Node22&#45;&gt;Node7</title>
<g id="a_edge28_Node000022_Node000007"><a xlink:title=" ">
<path fill="none" stroke="#63b8ff" d="M405.73,-120.95C423.72,-111.74 447.45,-99.6 467,-89.59"/>
<polygon fill="#63b8ff" stroke="#63b8ff" points="468.62,-92.69 475.93,-85.01 465.43,-86.45 468.62,-92.69"/>
</a>
</g>
</g>
<!-- Node23 -->
<g id="Node000023" class="node">
<title>Node23</title>
<g id="a_Node000023"><a xlink:title=" ">
<polygon fill="#e0e0e0" stroke="#999999" points="394.8,-79.5 335.8,-79.5 335.8,-60.5 394.8,-60.5 394.8,-79.5"/>
<text text-anchor="middle" x="365.3" y="-67.5" font-family="Helvetica,sans-Serif" font-size="10.00">QWidget</text>
</a>
</g>
</g>
<!-- Node22&#45;&gt;Node23 -->
<g id="edge27_Node000022_Node000023" class="edge">
<title>Node22&#45;&gt;Node23</title>
<g id="a_edge27_Node000022_Node000023"><a xlink:title=" ">
<path fill="none" stroke="#63b8ff" d="M375.41,-120.8C373.57,-111.7 371.15,-99.79 369.14,-89.9"/>
<polygon fill="#63b8ff" stroke="#63b8ff" points="372.52,-88.95 367.09,-79.84 365.66,-90.34 372.52,-88.95"/>
</a>
</g>
</g>
<!-- Node24&#45;&gt;Node9 -->
<g id="edge30_Node000024_Node000009" class="edge">
<title>Node24&#45;&gt;Node9</title>
<g id="a_edge30_Node000024_Node000009"><a xlink:title=" ">
<path fill="none" stroke="#63b8ff" d="M400.09,-186.87C414.94,-179.69 433.46,-167.91 442.3,-151 463.63,-110.19 441.5,-80.71 403.3,-55 360.75,-26.36 208.86,-15.51 139.41,-11.98"/>
<polygon fill="#63b8ff" stroke="#63b8ff" points="139.55,-8.49 129.39,-11.5 139.21,-15.48 139.55,-8.49"/>
</a>
</g>
</g>
<!-- Node24&#45;&gt;Node10 -->
<g id="edge32_Node000024_Node000010" class="edge">
<title>Node24&#45;&gt;Node10</title>
<g id="a_edge32_Node000024_Node000010"><a xlink:title=" ">
<path fill="none" stroke="#63b8ff" d="M400.53,-186.85C420.63,-178.68 450.74,-165.53 475.3,-151 517.69,-125.93 527.06,-117.23 564.3,-85 585.93,-66.28 608.85,-42.51 623.35,-26.92"/>
<polygon fill="#63b8ff" stroke="#63b8ff" points="626.27,-28.91 630.48,-19.19 621.13,-24.17 626.27,-28.91"/>
</a>
</g>
</g>
<!-- Node24&#45;&gt;Node20 -->
<g id="edge31_Node000024_Node000020" class="edge">
<title>Node24&#45;&gt;Node20</title>
<g id="a_edge31_Node000024_Node000020"><a xlink:title=" ">
<path fill="none" stroke="#63b8ff" d="M363.4,-186.87C346.99,-177.36 320.37,-161.95 301.07,-150.77"/>
<polygon fill="#63b8ff" stroke="#63b8ff" points="302.67,-147.65 292.26,-145.67 299.16,-153.71 302.67,-147.65"/>
</a>
</g>
</g>
<!-- Node24&#45;&gt;Node22 -->
<g id="edge33_Node000024_Node000022" class="edge">
<title>Node24&#45;&gt;Node22</title>
<g id="a_edge33_Node000024_Node000022"><a xlink:title=" ">
<path fill="none" stroke="#63b8ff" d="M378.3,-186.87C378.3,-180.11 378.3,-170.35 378.3,-161.26"/>
<polygon fill="#63b8ff" stroke="#63b8ff" points="381.8,-161.11 378.3,-151.11 374.8,-161.11 381.8,-161.11"/>
</a>
</g>
</g>
<!-- Node25&#45;&gt;Node3 -->
<g id="edge35_Node000025_Node000003" class="edge">
<title>Node25&#45;&gt;Node3</title>
<g id="a_edge35_Node000025_Node000003"><a xlink:title=" ">
<path fill="none" stroke="#63b8ff" d="M642.73,-126.44C655.58,-106.19 688.08,-54.97 705.26,-27.9"/>
<polygon fill="#63b8ff" stroke="#63b8ff" points="708.43,-29.44 710.83,-19.12 702.52,-25.69 708.43,-29.44"/>
</a>
</g>
</g>
<!-- Node25&#45;&gt;Node7 -->
<g id="edge37_Node000025_Node000007" class="edge">
<title>Node25&#45;&gt;Node7</title>
<g id="a_edge37_Node000025_Node000007"><a xlink:title=" ">
<path fill="none" stroke="#63b8ff" d="M619.23,-126.37C599.5,-116.95 567.34,-101.59 541.89,-89.43"/>
<polygon fill="#63b8ff" stroke="#63b8ff" points="543.39,-86.27 532.85,-85.12 540.37,-92.58 543.39,-86.27"/>
</a>
</g>
</g>
<!-- Node25&#45;&gt;Node10 -->
<g id="edge36_Node000025_Node000010" class="edge">
<title>Node25&#45;&gt;Node10</title>
<g id="a_edge36_Node000025_Node000010"><a xlink:title=" ">
<path fill="none" stroke="#63b8ff" d="M637.37,-126.44C637.53,-106.54 637.93,-56.76 638.15,-29.35"/>
<polygon fill="#63b8ff" stroke="#63b8ff" points="641.65,-29.15 638.23,-19.12 634.65,-29.09 641.65,-29.15"/>
</a>
</g>
</g>
</g>
</svg>
