<?xml version="1.0" encoding="UTF-8" standalone="no"?>
<!DOCTYPE svg PUBLIC "-//W3C//DTD SVG 1.1//EN"
 "http://www.w3.org/Graphics/SVG/1.1/DTD/svg11.dtd">
<!-- Generated by graphviz version 2.43.0 (0)
 -->
<!-- Title: features/file_export/ui/ExportMenu.h Pages: 1 -->
<svg width="575pt" height="214pt"
 viewBox="0.00 0.00 575.00 214.00" xmlns="http://www.w3.org/2000/svg" xmlns:xlink="http://www.w3.org/1999/xlink">
<g id="graph0" class="graph" transform="scale(1 1) rotate(0) translate(4 210)">
<title>features/file_export/ui/ExportMenu.h</title>
<!-- Node1 -->
<g id="Node000001" class="node">
<title>Node1</title>
<g id="a_Node000001"><a xlink:title=" ">
<polygon fill="#999999" stroke="#666666" points="194.5,-206 82.5,-206 82.5,-176 194.5,-176 194.5,-206"/>
<text text-anchor="start" x="90.5" y="-194" font-family="Helvetica,sans-Serif" font-size="10.00">features/file_export</text>
<text text-anchor="middle" x="138.5" y="-183" font-family="Helvetica,sans-Serif" font-size="10.00">/ui/ExportMenu.h</text>
</a>
</g>
</g>
<!-- Node2 -->
<g id="Node000002" class="node">
<title>Node2</title>
<g id="a_Node000002"><a xlink:title=" ">
<polygon fill="#e0e0e0" stroke="#999999" points="55,-140 0,-140 0,-121 55,-121 55,-140"/>
<text text-anchor="middle" x="27.5" y="-128" font-family="Helvetica,sans-Serif" font-size="10.00">QAction</text>
</a>
</g>
</g>
<!-- Node1&#45;&gt;Node2 -->
<g id="edge1_Node000001_Node000002" class="edge">
<title>Node1&#45;&gt;Node2</title>
<g id="a_edge1_Node000001_Node000002"><a xlink:title=" ">
<path fill="none" stroke="#63b8ff" d="M111.91,-175.99C94.05,-166.58 70.66,-154.24 53.02,-144.95"/>
<polygon fill="#63b8ff" stroke="#63b8ff" points="54.37,-141.71 43.89,-140.14 51.11,-147.9 54.37,-141.71"/>
</a>
</g>
</g>
<!-- Node3 -->
<g id="Node000003" class="node">
<title>Node3</title>
<g id="a_Node000003"><a xlink:title=" ">
<polygon fill="#e0e0e0" stroke="#999999" points="124,-140 73,-140 73,-121 124,-121 124,-140"/>
<text text-anchor="middle" x="98.5" y="-128" font-family="Helvetica,sans-Serif" font-size="10.00">QMenu</text>
</a>
</g>
</g>
<!-- Node1&#45;&gt;Node3 -->
<g id="edge2_Node000001_Node000003" class="edge">
<title>Node1&#45;&gt;Node3</title>
<g id="a_edge2_Node000001_Node000003"><a xlink:title=" ">
<path fill="none" stroke="#63b8ff" d="M128.82,-175.84C123.25,-167.69 116.21,-157.4 110.32,-148.78"/>
<polygon fill="#63b8ff" stroke="#63b8ff" points="113.03,-146.55 104.49,-140.27 107.25,-150.5 113.03,-146.55"/>
</a>
</g>
</g>
<!-- Node4 -->
<g id="Node000004" class="node">
<title>Node4</title>
<g id="a_Node000004"><a xlink:title=" ">
<polygon fill="#e0e0e0" stroke="#999999" points="215,-140 142,-140 142,-121 215,-121 215,-140"/>
<text text-anchor="middle" x="178.5" y="-128" font-family="Helvetica,sans-Serif" font-size="10.00">QFileDialog</text>
</a>
</g>
</g>
<!-- Node1&#45;&gt;Node4 -->
<g id="edge3_Node000001_Node000004" class="edge">
<title>Node1&#45;&gt;Node4</title>
<g id="a_edge3_Node000001_Node000004"><a xlink:title=" ">
<path fill="none" stroke="#63b8ff" d="M148.18,-175.84C153.75,-167.69 160.79,-157.4 166.68,-148.78"/>
<polygon fill="#63b8ff" stroke="#63b8ff" points="169.75,-150.5 172.51,-140.27 163.97,-146.55 169.75,-150.5"/>
</a>
</g>
</g>
<!-- Node5 -->
<g id="Node000005" class="node">
<title>Node5</title>
<g id="a_Node000005"><a xlink:href="ExportMenuViewModel_8h.html" target="_top" xlink:title=" ">
<polygon fill="white" stroke="#666666" points="371.5,-140 233.5,-140 233.5,-121 371.5,-121 371.5,-140"/>
<text text-anchor="middle" x="302.5" y="-128" font-family="Helvetica,sans-Serif" font-size="10.00">ExportMenuViewModel.h</text>
</a>
</g>
</g>
<!-- Node1&#45;&gt;Node5 -->
<g id="edge4_Node000001_Node000005" class="edge">
<title>Node1&#45;&gt;Node5</title>
<g id="a_edge4_Node000001_Node000005"><a xlink:title=" ">
<path fill="none" stroke="#63b8ff" d="M177.78,-175.99C205.51,-166.1 242.28,-152.98 268.7,-143.56"/>
<polygon fill="#63b8ff" stroke="#63b8ff" points="270.04,-146.8 278.28,-140.14 267.69,-140.2 270.04,-146.8"/>
</a>
</g>
</g>
<!-- Node6 -->
<g id="Node000006" class="node">
<title>Node6</title>
<g id="a_Node000006"><a xlink:title=" ">
<polygon fill="#e0e0e0" stroke="#999999" points="382.5,-19 326.5,-19 326.5,0 382.5,0 382.5,-19"/>
<text text-anchor="middle" x="354.5" y="-7" font-family="Helvetica,sans-Serif" font-size="10.00">QObject</text>
</a>
</g>
</g>
<!-- Node5&#45;&gt;Node6 -->
<g id="edge5_Node000005_Node000006" class="edge">
<title>Node5&#45;&gt;Node6</title>
<g id="a_edge5_Node000005_Node000006"><a xlink:title=" ">
<path fill="none" stroke="#63b8ff" d="M272.23,-120.92C254.66,-114.21 233.98,-102.94 223.5,-85 216.77,-73.49 215.73,-65.84 223.5,-55 244.4,-25.83 285.51,-15.55 316.14,-12.05"/>
<polygon fill="#63b8ff" stroke="#63b8ff" points="316.85,-15.5 326.48,-11.07 316.2,-8.53 316.85,-15.5"/>
</a>
</g>
</g>
<!-- Node7 -->
<g id="Node000007" class="node">
<title>Node7</title>
<g id="a_Node000007"><a xlink:title=" ">
<polygon fill="#e0e0e0" stroke="#999999" points="270.5,-79.5 232.5,-79.5 232.5,-60.5 270.5,-60.5 270.5,-79.5"/>
<text text-anchor="middle" x="251.5" y="-67.5" font-family="Helvetica,sans-Serif" font-size="10.00">QDir</text>
</a>
</g>
</g>
<!-- Node5&#45;&gt;Node7 -->
<g id="edge6_Node000005_Node000007" class="edge">
<title>Node5&#45;&gt;Node7</title>
<g id="a_edge6_Node000005_Node000007"><a xlink:title=" ">
<path fill="none" stroke="#63b8ff" d="M294.97,-120.87C287.29,-112.05 275.18,-98.16 265.69,-87.27"/>
<polygon fill="#63b8ff" stroke="#63b8ff" points="268.27,-84.91 259.06,-79.67 262.99,-89.51 268.27,-84.91"/>
</a>
</g>
</g>
<!-- Node8 -->
<g id="Node000008" class="node">
<title>Node8</title>
<g id="a_Node000008"><a xlink:href="CsvExporter_8h.html" target="_top" xlink:title=" ">
<polygon fill="white" stroke="#666666" points="567,-85 438,-85 438,-55 567,-55 567,-85"/>
<text text-anchor="start" x="446" y="-73" font-family="Helvetica,sans-Serif" font-size="10.00">src/features/file_export</text>
<text text-anchor="middle" x="502.5" y="-62" font-family="Helvetica,sans-Serif" font-size="10.00">/csv/CsvExporter.h</text>
</a>
</g>
</g>
<!-- Node5&#45;&gt;Node8 -->
<g id="edge7_Node000005_Node000008" class="edge">
<title>Node5&#45;&gt;Node8</title>
<g id="a_edge7_Node000005_Node000008"><a xlink:title=" ">
<path fill="none" stroke="#63b8ff" d="M331.58,-120.99C361.12,-112.35 407.66,-98.74 444.73,-87.9"/>
<polygon fill="#63b8ff" stroke="#63b8ff" points="445.8,-91.23 454.42,-85.06 443.84,-84.51 445.8,-91.23"/>
</a>
</g>
</g>
<!-- Node11 -->
<g id="Node000011" class="node">
<title>Node11</title>
<g id="a_Node000011"><a xlink:href="FileSystem_8h.html" target="_top" xlink:title="File system allow the managment of files path used in the application.">
<polygon fill="white" stroke="#666666" points="420,-85 289,-85 289,-55 420,-55 420,-85"/>
<text text-anchor="start" x="297" y="-73" font-family="Helvetica,sans-Serif" font-size="10.00">src/services/FileSystem</text>
<text text-anchor="middle" x="354.5" y="-62" font-family="Helvetica,sans-Serif" font-size="10.00">/FileSystem.h</text>
</a>
</g>
</g>
<!-- Node5&#45;&gt;Node11 -->
<g id="edge11_Node000005_Node000011" class="edge">
<title>Node5&#45;&gt;Node11</title>
<g id="a_edge11_Node000005_Node000011"><a xlink:title=" ">
<path fill="none" stroke="#63b8ff" d="M310.17,-120.87C316.77,-113.44 326.57,-102.42 335.28,-92.62"/>
<polygon fill="#63b8ff" stroke="#63b8ff" points="337.93,-94.91 341.95,-85.11 332.69,-90.26 337.93,-94.91"/>
</a>
</g>
</g>
<!-- Node8&#45;&gt;Node6 -->
<g id="edge10_Node000008_Node000006" class="edge">
<title>Node8&#45;&gt;Node6</title>
<g id="a_edge10_Node000008_Node000006"><a xlink:title=" ">
<path fill="none" stroke="#63b8ff" d="M467.05,-54.99C442.36,-45.23 409.72,-32.33 385.95,-22.93"/>
<polygon fill="#63b8ff" stroke="#63b8ff" points="386.94,-19.56 376.36,-19.14 384.37,-26.07 386.94,-19.56"/>
</a>
</g>
</g>
<!-- Node9 -->
<g id="Node000009" class="node">
<title>Node9</title>
<g id="a_Node000009"><a xlink:title=" ">
<polygon fill="#e0e0e0" stroke="#999999" points="492.5,-19 448.5,-19 448.5,0 492.5,0 492.5,-19"/>
<text text-anchor="middle" x="470.5" y="-7" font-family="Helvetica,sans-Serif" font-size="10.00">string</text>
</a>
</g>
</g>
<!-- Node8&#45;&gt;Node9 -->
<g id="edge8_Node000008_Node000009" class="edge">
<title>Node8&#45;&gt;Node9</title>
<g id="a_edge8_Node000008_Node000009"><a xlink:title=" ">
<path fill="none" stroke="#63b8ff" d="M494.75,-54.84C490.35,-46.78 484.79,-36.62 480.1,-28.06"/>
<polygon fill="#63b8ff" stroke="#63b8ff" points="483.16,-26.36 475.3,-19.27 477.02,-29.72 483.16,-26.36"/>
</a>
</g>
</g>
<!-- Node10 -->
<g id="Node000010" class="node">
<title>Node10</title>
<g id="a_Node000010"><a xlink:title=" ">
<polygon fill="#e0e0e0" stroke="#999999" points="558,-19 511,-19 511,0 558,0 558,-19"/>
<text text-anchor="middle" x="534.5" y="-7" font-family="Helvetica,sans-Serif" font-size="10.00">vector</text>
</a>
</g>
</g>
<!-- Node8&#45;&gt;Node10 -->
<g id="edge9_Node000008_Node000010" class="edge">
<title>Node8&#45;&gt;Node10</title>
<g id="a_edge9_Node000008_Node000010"><a xlink:title=" ">
<path fill="none" stroke="#63b8ff" d="M510.25,-54.84C514.65,-46.78 520.21,-36.62 524.9,-28.06"/>
<polygon fill="#63b8ff" stroke="#63b8ff" points="527.98,-29.72 529.7,-19.27 521.84,-26.36 527.98,-29.72"/>
</a>
</g>
</g>
<!-- Node11&#45;&gt;Node6 -->
<g id="edge12_Node000011_Node000006" class="edge">
<title>Node11&#45;&gt;Node6</title>
<g id="a_edge12_Node000011_Node000006"><a xlink:title=" ">
<path fill="none" stroke="#63b8ff" d="M354.5,-54.84C354.5,-47.21 354.5,-37.7 354.5,-29.45"/>
<polygon fill="#63b8ff" stroke="#63b8ff" points="358,-29.27 354.5,-19.27 351,-29.27 358,-29.27"/>
</a>
</g>
</g>
</g>
</svg>
