<?xml version="1.0" encoding="UTF-8" standalone="no"?>
<!DOCTYPE svg PUBLIC "-//W3C//DTD SVG 1.1//EN"
 "http://www.w3.org/Graphics/SVG/1.1/DTD/svg11.dtd">
<!-- Generated by graphviz version 2.43.0 (0)
 -->
<!-- Title: features/file_export/ui/ExportMenuViewModel.h Pages: 1 -->
<svg width="357pt" height="159pt"
 viewBox="0.00 0.00 356.99 159.00" xmlns="http://www.w3.org/2000/svg" xmlns:xlink="http://www.w3.org/1999/xlink">
<g id="graph0" class="graph" transform="scale(1 1) rotate(0) translate(4 155)">
<title>features/file_export/ui/ExportMenuViewModel.h</title>
<!-- Node1 -->
<g id="Node000001" class="node">
<title>Node1</title>
<g id="a_Node000001"><a xlink:title=" ">
<polygon fill="#999999" stroke="#666666" points="160.99,-151 7.99,-151 7.99,-121 160.99,-121 160.99,-151"/>
<text text-anchor="start" x="15.99" y="-139" font-family="Helvetica,sans-Serif" font-size="10.00">features/file_export</text>
<text text-anchor="middle" x="84.49" y="-128" font-family="Helvetica,sans-Serif" font-size="10.00">/ui/ExportMenuViewModel.h</text>
</a>
</g>
</g>
<!-- Node2 -->
<g id="Node000002" class="node">
<title>Node2</title>
<g id="a_Node000002"><a xlink:title=" ">
<polygon fill="#e0e0e0" stroke="#999999" points="164.49,-19 108.49,-19 108.49,0 164.49,0 164.49,-19"/>
<text text-anchor="middle" x="136.49" y="-7" font-family="Helvetica,sans-Serif" font-size="10.00">QObject</text>
</a>
</g>
</g>
<!-- Node1&#45;&gt;Node2 -->
<g id="edge1_Node000001_Node000002" class="edge">
<title>Node1&#45;&gt;Node2</title>
<g id="a_edge1_Node000001_Node000002"><a xlink:title=" ">
<path fill="none" stroke="#63b8ff" d="M46.77,-120.88C31.06,-112.9 14.41,-101.21 5.49,-85 -0.94,-73.32 -2.27,-65.84 5.49,-55 26.39,-25.83 67.5,-15.55 98.13,-12.05"/>
<polygon fill="#63b8ff" stroke="#63b8ff" points="98.84,-15.5 108.47,-11.07 98.19,-8.53 98.84,-15.5"/>
</a>
</g>
</g>
<!-- Node3 -->
<g id="Node000003" class="node">
<title>Node3</title>
<g id="a_Node000003"><a xlink:title=" ">
<polygon fill="#e0e0e0" stroke="#999999" points="52.49,-79.5 14.49,-79.5 14.49,-60.5 52.49,-60.5 52.49,-79.5"/>
<text text-anchor="middle" x="33.49" y="-67.5" font-family="Helvetica,sans-Serif" font-size="10.00">QDir</text>
</a>
</g>
</g>
<!-- Node1&#45;&gt;Node3 -->
<g id="edge2_Node000001_Node000003" class="edge">
<title>Node1&#45;&gt;Node3</title>
<g id="a_edge2_Node000001_Node000003"><a xlink:title=" ">
<path fill="none" stroke="#63b8ff" d="M73.17,-120.8C65.38,-111.01 54.99,-97.98 46.8,-87.7"/>
<polygon fill="#63b8ff" stroke="#63b8ff" points="49.51,-85.48 40.54,-79.84 44.03,-89.85 49.51,-85.48"/>
</a>
</g>
</g>
<!-- Node4 -->
<g id="Node000004" class="node">
<title>Node4</title>
<g id="a_Node000004"><a xlink:href="CsvExporter_8h.html" target="_top" xlink:title=" ">
<polygon fill="white" stroke="#666666" points="348.99,-85 219.99,-85 219.99,-55 348.99,-55 348.99,-85"/>
<text text-anchor="start" x="227.99" y="-73" font-family="Helvetica,sans-Serif" font-size="10.00">src/features/file_export</text>
<text text-anchor="middle" x="284.49" y="-62" font-family="Helvetica,sans-Serif" font-size="10.00">/csv/CsvExporter.h</text>
</a>
</g>
</g>
<!-- Node1&#45;&gt;Node4 -->
<g id="edge3_Node000001_Node000004" class="edge">
<title>Node1&#45;&gt;Node4</title>
<g id="a_edge3_Node000001_Node000004"><a xlink:title=" ">
<path fill="none" stroke="#63b8ff" d="M128.38,-120.95C158.6,-111.28 198.93,-98.38 231.03,-88.11"/>
<polygon fill="#63b8ff" stroke="#63b8ff" points="232.24,-91.39 240.7,-85.01 230.11,-84.73 232.24,-91.39"/>
</a>
</g>
</g>
<!-- Node7 -->
<g id="Node000007" class="node">
<title>Node7</title>
<g id="a_Node000007"><a xlink:href="FileSystem_8h.html" target="_top" xlink:title=" ">
<polygon fill="white" stroke="#666666" points="201.99,-85 70.99,-85 70.99,-55 201.99,-55 201.99,-85"/>
<text text-anchor="start" x="78.99" y="-73" font-family="Helvetica,sans-Serif" font-size="10.00">src/services/FileSystem</text>
<text text-anchor="middle" x="136.49" y="-62" font-family="Helvetica,sans-Serif" font-size="10.00">/FileSystem.h</text>
</a>
</g>
</g>
<!-- Node1&#45;&gt;Node7 -->
<g id="edge7_Node000001_Node000007" class="edge">
<title>Node1&#45;&gt;Node7</title>
<g id="a_edge7_Node000001_Node000007"><a xlink:title=" ">
<path fill="none" stroke="#63b8ff" d="M96.03,-120.8C102.63,-112.68 111.05,-102.31 118.5,-93.15"/>
<polygon fill="#63b8ff" stroke="#63b8ff" points="121.39,-95.13 124.98,-85.16 115.96,-90.72 121.39,-95.13"/>
</a>
</g>
</g>
<!-- Node4&#45;&gt;Node2 -->
<g id="edge6_Node000004_Node000002" class="edge">
<title>Node4&#45;&gt;Node2</title>
<g id="a_edge6_Node000004_Node000002"><a xlink:title=" ">
<path fill="none" stroke="#63b8ff" d="M249.04,-54.99C224.35,-45.23 191.71,-32.33 167.94,-22.93"/>
<polygon fill="#63b8ff" stroke="#63b8ff" points="168.93,-19.56 158.35,-19.14 166.36,-26.07 168.93,-19.56"/>
</a>
</g>
</g>
<!-- Node5 -->
<g id="Node000005" class="node">
<title>Node5</title>
<g id="a_Node000005"><a xlink:title=" ">
<polygon fill="#e0e0e0" stroke="#999999" points="274.49,-19 230.49,-19 230.49,0 274.49,0 274.49,-19"/>
<text text-anchor="middle" x="252.49" y="-7" font-family="Helvetica,sans-Serif" font-size="10.00">string</text>
</a>
</g>
</g>
<!-- Node4&#45;&gt;Node5 -->
<g id="edge4_Node000004_Node000005" class="edge">
<title>Node4&#45;&gt;Node5</title>
<g id="a_edge4_Node000004_Node000005"><a xlink:title=" ">
<path fill="none" stroke="#63b8ff" d="M276.74,-54.84C272.34,-46.78 266.78,-36.62 262.09,-28.06"/>
<polygon fill="#63b8ff" stroke="#63b8ff" points="265.15,-26.36 257.29,-19.27 259.01,-29.72 265.15,-26.36"/>
</a>
</g>
</g>
<!-- Node6 -->
<g id="Node000006" class="node">
<title>Node6</title>
<g id="a_Node000006"><a xlink:title=" ">
<polygon fill="#e0e0e0" stroke="#999999" points="339.99,-19 292.99,-19 292.99,0 339.99,0 339.99,-19"/>
<text text-anchor="middle" x="316.49" y="-7" font-family="Helvetica,sans-Serif" font-size="10.00">vector</text>
</a>
</g>
</g>
<!-- Node4&#45;&gt;Node6 -->
<g id="edge5_Node000004_Node000006" class="edge">
<title>Node4&#45;&gt;Node6</title>
<g id="a_edge5_Node000004_Node000006"><a xlink:title=" ">
<path fill="none" stroke="#63b8ff" d="M292.24,-54.84C296.64,-46.78 302.2,-36.62 306.89,-28.06"/>
<polygon fill="#63b8ff" stroke="#63b8ff" points="309.97,-29.72 311.7,-19.27 303.83,-26.36 309.97,-29.72"/>
</a>
</g>
</g>
<!-- Node7&#45;&gt;Node2 -->
<g id="edge8_Node000007_Node000002" class="edge">
<title>Node7&#45;&gt;Node2</title>
<g id="a_edge8_Node000007_Node000002"><a xlink:title=" ">
<path fill="none" stroke="#63b8ff" d="M136.49,-54.84C136.49,-47.21 136.49,-37.7 136.49,-29.45"/>
<polygon fill="#63b8ff" stroke="#63b8ff" points="139.99,-29.27 136.49,-19.27 132.99,-29.27 139.99,-29.27"/>
</a>
</g>
</g>
</g>
</svg>
