<?xml version="1.0" encoding="UTF-8" standalone="no"?>
<!DOCTYPE svg PUBLIC "-//W3C//DTD SVG 1.1//EN"
 "http://www.w3.org/Graphics/SVG/1.1/DTD/svg11.dtd">
<!-- Generated by graphviz version 2.43.0 (0)
 -->
<!-- Title: features/file_export/ui/ExportMenuViewModel.h Pages: 1 -->
<svg width="538pt" height="170pt"
 viewBox="0.00 0.00 538.00 170.00" xmlns="http://www.w3.org/2000/svg" xmlns:xlink="http://www.w3.org/1999/xlink">
<g id="graph0" class="graph" transform="scale(1 1) rotate(0) translate(4 166)">
<title>features/file_export/ui/ExportMenuViewModel.h</title>
<!-- Node1 -->
<g id="Node000001" class="node">
<title>Node1</title>
<g id="a_Node000001"><a xlink:title=" ">
<polygon fill="#999999" stroke="#666666" points="263.5,-162 110.5,-162 110.5,-132 263.5,-132 263.5,-162"/>
<text text-anchor="start" x="118.5" y="-150" font-family="Helvetica,sans-Serif" font-size="10.00">features/file_export</text>
<text text-anchor="middle" x="187" y="-139" font-family="Helvetica,sans-Serif" font-size="10.00">/ui/ExportMenuViewModel.h</text>
</a>
</g>
</g>
<!-- Node2 -->
<g id="Node000002" class="node">
<title>Node2</title>
<g id="a_Node000002"><a xlink:href="ExportMenu_8h.html" target="_top" xlink:title=" ">
<polygon fill="white" stroke="#666666" points="112,-96 0,-96 0,-66 112,-66 112,-96"/>
<text text-anchor="start" x="8" y="-84" font-family="Helvetica,sans-Serif" font-size="10.00">features/file_export</text>
<text text-anchor="middle" x="56" y="-73" font-family="Helvetica,sans-Serif" font-size="10.00">/ui/ExportMenu.h</text>
</a>
</g>
</g>
<!-- Node1&#45;&gt;Node2 -->
<g id="edge1_Node000001_Node000002" class="edge">
<title>Node1&#45;&gt;Node2</title>
<g id="a_edge1_Node000001_Node000002"><a xlink:title=" ">
<path fill="none" stroke="#63b8ff" d="M149.16,-127.51C128.61,-117.47 103.61,-105.26 84.68,-96.01"/>
<polygon fill="#63b8ff" stroke="#63b8ff" points="147.73,-130.71 158.25,-131.95 150.8,-124.42 147.73,-130.71"/>
</a>
</g>
</g>
<!-- Node3 -->
<g id="Node000003" class="node">
<title>Node3</title>
<g id="a_Node000003"><a xlink:href="FilesMenu_8cpp.html" target="_top" xlink:title=" ">
<polygon fill="white" stroke="#666666" points="164,-30 32,-30 32,0 164,0 164,-30"/>
<text text-anchor="start" x="40" y="-18" font-family="Helvetica,sans-Serif" font-size="10.00">features/menu_bar/files</text>
<text text-anchor="middle" x="98" y="-7" font-family="Helvetica,sans-Serif" font-size="10.00">/FilesMenu.cpp</text>
</a>
</g>
</g>
<!-- Node1&#45;&gt;Node3 -->
<g id="edge3_Node000001_Node000003" class="edge">
<title>Node1&#45;&gt;Node3</title>
<g id="a_edge3_Node000001_Node000003"><a xlink:title=" ">
<path fill="none" stroke="#63b8ff" d="M171.56,-123.45C153.19,-96.61 123.06,-52.6 107.68,-30.14"/>
<polygon fill="#63b8ff" stroke="#63b8ff" points="168.77,-125.57 177.31,-131.84 174.54,-121.61 168.77,-125.57"/>
</a>
</g>
</g>
<!-- Node4 -->
<g id="Node000004" class="node">
<title>Node4</title>
<g id="a_Node000004"><a xlink:href="FilesMenuFactory_8cpp.html" target="_top" xlink:title=" ">
<polygon fill="white" stroke="#666666" points="300,-96 168,-96 168,-66 300,-66 300,-96"/>
<text text-anchor="start" x="176" y="-84" font-family="Helvetica,sans-Serif" font-size="10.00">features/menu_bar/files</text>
<text text-anchor="middle" x="234" y="-73" font-family="Helvetica,sans-Serif" font-size="10.00">/FilesMenuFactory.cpp</text>
</a>
</g>
</g>
<!-- Node1&#45;&gt;Node4 -->
<g id="edge4_Node000001_Node000004" class="edge">
<title>Node1&#45;&gt;Node4</title>
<g id="a_edge4_Node000001_Node000004"><a xlink:title=" ">
<path fill="none" stroke="#63b8ff" d="M203.5,-123.53C210.19,-114.43 217.7,-104.19 223.6,-96.16"/>
<polygon fill="#63b8ff" stroke="#63b8ff" points="200.53,-121.66 197.43,-131.8 206.17,-125.81 200.53,-121.66"/>
</a>
</g>
</g>
<!-- Node5 -->
<g id="Node000005" class="node">
<title>Node5</title>
<g id="a_Node000005"><a xlink:href="AppViewModels_8cpp.html" target="_top" xlink:title=" ">
<polygon fill="white" stroke="#666666" points="530,-90.5 318,-90.5 318,-71.5 530,-71.5 530,-90.5"/>
<text text-anchor="middle" x="424" y="-78.5" font-family="Helvetica,sans-Serif" font-size="10.00">mvvm/viewmodels/AppViewModels.cpp</text>
</a>
</g>
</g>
<!-- Node1&#45;&gt;Node5 -->
<g id="edge5_Node000001_Node000005" class="edge">
<title>Node1&#45;&gt;Node5</title>
<g id="a_edge5_Node000001_Node000005"><a xlink:title=" ">
<path fill="none" stroke="#63b8ff" d="M248.9,-129.29C294.97,-116.84 355.96,-100.37 392.46,-90.52"/>
<polygon fill="#63b8ff" stroke="#63b8ff" points="247.75,-125.97 239.01,-131.95 249.58,-132.73 247.75,-125.97"/>
</a>
</g>
</g>
<!-- Node2&#45;&gt;Node3 -->
<g id="edge2_Node000002_Node000003" class="edge">
<title>Node2&#45;&gt;Node3</title>
<g id="a_edge2_Node000002_Node000003"><a xlink:title=" ">
<path fill="none" stroke="#63b8ff" d="M70.93,-57.24C76.86,-48.21 83.49,-38.11 88.7,-30.16"/>
<polygon fill="#63b8ff" stroke="#63b8ff" points="67.88,-55.52 65.32,-65.8 73.73,-59.36 67.88,-55.52"/>
</a>
</g>
</g>
</g>
</svg>
