<?xml version="1.0" encoding="UTF-8" standalone="no"?>
<!DOCTYPE svg PUBLIC "-//W3C//DTD SVG 1.1//EN"
 "http://www.w3.org/Graphics/SVG/1.1/DTD/svg11.dtd">
<!-- Generated by graphviz version 2.43.0 (0)
 -->
<!-- Title: features/menu_bar/files/FilesMenuFactory.cpp Pages: 1 -->
<svg width="615pt" height="225pt"
 viewBox="0.00 0.00 614.50 225.00" xmlns="http://www.w3.org/2000/svg" xmlns:xlink="http://www.w3.org/1999/xlink">
<g id="graph0" class="graph" transform="scale(1 1) rotate(0) translate(4 221)">
<title>features/menu_bar/files/FilesMenuFactory.cpp</title>
<!-- Node1 -->
<g id="Node000001" class="node">
<title>Node1</title>
<g id="a_Node000001"><a xlink:title=" ">
<polygon fill="#999999" stroke="#666666" points="361,-217 229,-217 229,-187 361,-187 361,-217"/>
<text text-anchor="start" x="237" y="-205" font-family="Helvetica,sans-Serif" font-size="10.00">features/menu_bar/files</text>
<text text-anchor="middle" x="295" y="-194" font-family="Helvetica,sans-Serif" font-size="10.00">/FilesMenuFactory.cpp</text>
</a>
</g>
</g>
<!-- Node2 -->
<g id="Node000002" class="node">
<title>Node2</title>
<g id="a_Node000002"><a xlink:href="AppViewModels_8h.html" target="_top" xlink:title=" ">
<polygon fill="white" stroke="#666666" points="128,-151 0,-151 0,-121 128,-121 128,-151"/>
<text text-anchor="start" x="8" y="-139" font-family="Helvetica,sans-Serif" font-size="10.00">src/mvvm/viewmodels</text>
<text text-anchor="middle" x="64" y="-128" font-family="Helvetica,sans-Serif" font-size="10.00">/AppViewModels.h</text>
</a>
</g>
</g>
<!-- Node1&#45;&gt;Node2 -->
<g id="edge1_Node000001_Node000002" class="edge">
<title>Node1&#45;&gt;Node2</title>
<g id="a_edge1_Node000001_Node000002"><a xlink:title=" ">
<path fill="none" stroke="#63b8ff" d="M244.31,-186.95C208.95,-177.16 161.62,-164.05 124.32,-153.71"/>
<polygon fill="#63b8ff" stroke="#63b8ff" points="125.15,-150.31 114.58,-151.01 123.28,-157.06 125.15,-150.31"/>
</a>
</g>
</g>
<!-- Node5 -->
<g id="Node000005" class="node">
<title>Node5</title>
<g id="a_Node000005"><a xlink:href="FilesMenuFactory_8h.html" target="_top" xlink:title=" ">
<polygon fill="white" stroke="#666666" points="548.5,-145.5 439.5,-145.5 439.5,-126.5 548.5,-126.5 548.5,-145.5"/>
<text text-anchor="middle" x="494" y="-133.5" font-family="Helvetica,sans-Serif" font-size="10.00">FilesMenuFactory.h</text>
</a>
</g>
</g>
<!-- Node1&#45;&gt;Node5 -->
<g id="edge4_Node000001_Node000005" class="edge">
<title>Node1&#45;&gt;Node5</title>
<g id="a_edge4_Node000001_Node000005"><a xlink:title=" ">
<path fill="none" stroke="#63b8ff" d="M338.67,-186.95C374.34,-175.48 424.16,-159.46 457.67,-148.68"/>
<polygon fill="#63b8ff" stroke="#63b8ff" points="459.07,-151.91 467.52,-145.52 456.93,-145.25 459.07,-151.91"/>
</a>
</g>
</g>
<!-- Node9 -->
<g id="Node000009" class="node">
<title>Node9</title>
<g id="a_Node000009"><a xlink:href="ExportMenuViewModel_8h.html" target="_top" xlink:title=" ">
<polygon fill="white" stroke="#666666" points="371.5,-151 218.5,-151 218.5,-121 371.5,-121 371.5,-151"/>
<text text-anchor="start" x="226.5" y="-139" font-family="Helvetica,sans-Serif" font-size="10.00">src/features/file_export</text>
<text text-anchor="middle" x="295" y="-128" font-family="Helvetica,sans-Serif" font-size="10.00">/ui/ExportMenuViewModel.h</text>
</a>
</g>
</g>
<!-- Node1&#45;&gt;Node9 -->
<g id="edge8_Node000001_Node000009" class="edge">
<title>Node1&#45;&gt;Node9</title>
<g id="a_edge8_Node000001_Node000009"><a xlink:title=" ">
<path fill="none" stroke="#63b8ff" d="M295,-186.8C295,-179.34 295,-169.99 295,-161.41"/>
<polygon fill="#63b8ff" stroke="#63b8ff" points="298.5,-161.16 295,-151.16 291.5,-161.16 298.5,-161.16"/>
</a>
</g>
</g>
<!-- Node3 -->
<g id="Node000003" class="node">
<title>Node3</title>
<g id="a_Node000003"><a xlink:title=" ">
<polygon fill="#e0e0e0" stroke="#999999" points="200,-19 144,-19 144,0 200,0 200,-19"/>
<text text-anchor="middle" x="172" y="-7" font-family="Helvetica,sans-Serif" font-size="10.00">QObject</text>
</a>
</g>
</g>
<!-- Node2&#45;&gt;Node3 -->
<g id="edge2_Node000002_Node000003" class="edge">
<title>Node2&#45;&gt;Node3</title>
<g id="a_edge2_Node000002_Node000003"><a xlink:title=" ">
<path fill="none" stroke="#63b8ff" d="M47.25,-120.92C29.53,-104.3 6.14,-76.24 22,-55 47.47,-20.87 98.01,-11.85 133.35,-9.99"/>
<polygon fill="#63b8ff" stroke="#63b8ff" points="133.92,-13.47 143.79,-9.62 133.67,-6.48 133.92,-13.47"/>
</a>
</g>
</g>
<!-- Node4 -->
<g id="Node000004" class="node">
<title>Node4</title>
<g id="a_Node000004"><a xlink:title=" ">
<polygon fill="#e0e0e0" stroke="#999999" points="96.5,-79.5 31.5,-79.5 31.5,-60.5 96.5,-60.5 96.5,-79.5"/>
<text text-anchor="middle" x="64" y="-67.5" font-family="Helvetica,sans-Serif" font-size="10.00">typeindex</text>
</a>
</g>
</g>
<!-- Node2&#45;&gt;Node4 -->
<g id="edge3_Node000002_Node000004" class="edge">
<title>Node2&#45;&gt;Node4</title>
<g id="a_edge3_Node000002_Node000004"><a xlink:title=" ">
<path fill="none" stroke="#63b8ff" d="M64,-120.8C64,-111.7 64,-99.79 64,-89.9"/>
<polygon fill="#63b8ff" stroke="#63b8ff" points="67.5,-89.84 64,-79.84 60.5,-89.84 67.5,-89.84"/>
</a>
</g>
</g>
<!-- Node6 -->
<g id="Node000006" class="node">
<title>Node6</title>
<g id="a_Node000006"><a xlink:href="FilesMenu_8h.html" target="_top" xlink:title=" ">
<polygon fill="white" stroke="#666666" points="581.5,-79.5 506.5,-79.5 506.5,-60.5 581.5,-60.5 581.5,-79.5"/>
<text text-anchor="middle" x="544" y="-67.5" font-family="Helvetica,sans-Serif" font-size="10.00">FilesMenu.h</text>
</a>
</g>
</g>
<!-- Node5&#45;&gt;Node6 -->
<g id="edge5_Node000005_Node000006" class="edge">
<title>Node5&#45;&gt;Node6</title>
<g id="a_edge5_Node000005_Node000006"><a xlink:title=" ">
<path fill="none" stroke="#63b8ff" d="M500.74,-126.37C508.38,-116.59 521.01,-100.42 530.66,-88.08"/>
<polygon fill="#63b8ff" stroke="#63b8ff" points="533.64,-89.94 537.04,-79.91 528.13,-85.63 533.64,-89.94"/>
</a>
</g>
</g>
<!-- Node7 -->
<g id="Node000007" class="node">
<title>Node7</title>
<g id="a_Node000007"><a xlink:title=" ">
<polygon fill="#e0e0e0" stroke="#999999" points="533.5,-19 482.5,-19 482.5,0 533.5,0 533.5,-19"/>
<text text-anchor="middle" x="508" y="-7" font-family="Helvetica,sans-Serif" font-size="10.00">QMenu</text>
</a>
</g>
</g>
<!-- Node6&#45;&gt;Node7 -->
<g id="edge6_Node000006_Node000007" class="edge">
<title>Node6&#45;&gt;Node7</title>
<g id="a_edge6_Node000006_Node000007"><a xlink:title=" ">
<path fill="none" stroke="#63b8ff" d="M538.69,-60.37C533.42,-51.81 525.21,-38.47 518.61,-27.74"/>
<polygon fill="#63b8ff" stroke="#63b8ff" points="521.56,-25.85 513.33,-19.17 515.59,-29.52 521.56,-25.85"/>
</a>
</g>
</g>
<!-- Node8 -->
<g id="Node000008" class="node">
<title>Node8</title>
<g id="a_Node000008"><a xlink:title=" ">
<polygon fill="#e0e0e0" stroke="#999999" points="606.5,-19 551.5,-19 551.5,0 606.5,0 606.5,-19"/>
<text text-anchor="middle" x="579" y="-7" font-family="Helvetica,sans-Serif" font-size="10.00">QAction</text>
</a>
</g>
</g>
<!-- Node6&#45;&gt;Node8 -->
<g id="edge7_Node000006_Node000008" class="edge">
<title>Node6&#45;&gt;Node8</title>
<g id="a_edge7_Node000006_Node000008"><a xlink:title=" ">
<path fill="none" stroke="#63b8ff" d="M549.16,-60.37C554.23,-51.9 562.1,-38.74 568.49,-28.07"/>
<polygon fill="#63b8ff" stroke="#63b8ff" points="571.68,-29.55 573.81,-19.17 565.68,-25.95 571.68,-29.55"/>
</a>
</g>
</g>
<!-- Node9&#45;&gt;Node3 -->
<g id="edge9_Node000009_Node000003" class="edge">
<title>Node9&#45;&gt;Node3</title>
<g id="a_edge9_Node000009_Node000003"><a xlink:title=" ">
<path fill="none" stroke="#63b8ff" d="M218.27,-128.15C190.25,-121.5 161.22,-108.84 144,-85 131.17,-67.23 144.99,-42.88 157.36,-26.92"/>
<polygon fill="#63b8ff" stroke="#63b8ff" points="160.22,-28.95 163.9,-19.02 154.83,-24.49 160.22,-28.95"/>
</a>
</g>
</g>
<!-- Node10 -->
<g id="Node000010" class="node">
<title>Node10</title>
<g id="a_Node000010"><a xlink:title=" ">
<polygon fill="#e0e0e0" stroke="#999999" points="488,-79.5 450,-79.5 450,-60.5 488,-60.5 488,-79.5"/>
<text text-anchor="middle" x="469" y="-67.5" font-family="Helvetica,sans-Serif" font-size="10.00">QDir</text>
</a>
</g>
</g>
<!-- Node9&#45;&gt;Node10 -->
<g id="edge10_Node000009_Node000010" class="edge">
<title>Node9&#45;&gt;Node10</title>
<g id="a_edge10_Node000009_Node000010"><a xlink:title=" ">
<path fill="none" stroke="#63b8ff" d="M340.25,-120.91C369.11,-111.56 407.13,-98.55 440,-85 440.86,-84.65 441.73,-84.28 442.61,-83.9"/>
<polygon fill="#63b8ff" stroke="#63b8ff" points="444.33,-86.96 451.98,-79.63 441.43,-80.59 444.33,-86.96"/>
</a>
</g>
</g>
<!-- Node11 -->
<g id="Node000011" class="node">
<title>Node11</title>
<g id="a_Node000011"><a xlink:href="CsvExporter_8h.html" target="_top" xlink:title=" ">
<polygon fill="white" stroke="#666666" points="431.5,-85 302.5,-85 302.5,-55 431.5,-55 431.5,-85"/>
<text text-anchor="start" x="310.5" y="-73" font-family="Helvetica,sans-Serif" font-size="10.00">src/features/file_export</text>
<text text-anchor="middle" x="367" y="-62" font-family="Helvetica,sans-Serif" font-size="10.00">/csv/CsvExporter.h</text>
</a>
</g>
</g>
<!-- Node9&#45;&gt;Node11 -->
<g id="edge11_Node000009_Node000011" class="edge">
<title>Node9&#45;&gt;Node11</title>
<g id="a_edge11_Node000009_Node000011"><a xlink:title=" ">
<path fill="none" stroke="#63b8ff" d="M310.98,-120.8C320.49,-112.34 332.73,-101.46 343.34,-92.03"/>
<polygon fill="#63b8ff" stroke="#63b8ff" points="345.92,-94.42 351.07,-85.16 341.27,-89.19 345.92,-94.42"/>
</a>
</g>
</g>
<!-- Node14 -->
<g id="Node000014" class="node">
<title>Node14</title>
<g id="a_Node000014"><a xlink:href="FileSystem_8h.html" target="_top" xlink:title="File system allow the managment of files path used in the application.">
<polygon fill="white" stroke="#666666" points="284.5,-85 153.5,-85 153.5,-55 284.5,-55 284.5,-85"/>
<text text-anchor="start" x="161.5" y="-73" font-family="Helvetica,sans-Serif" font-size="10.00">src/services/FileSystem</text>
<text text-anchor="middle" x="219" y="-62" font-family="Helvetica,sans-Serif" font-size="10.00">/FileSystem.h</text>
</a>
</g>
</g>
<!-- Node9&#45;&gt;Node14 -->
<g id="edge15_Node000009_Node000014" class="edge">
<title>Node9&#45;&gt;Node14</title>
<g id="a_edge15_Node000009_Node000014"><a xlink:title=" ">
<path fill="none" stroke="#63b8ff" d="M278.13,-120.8C268,-112.26 254.92,-101.25 243.65,-91.75"/>
<polygon fill="#63b8ff" stroke="#63b8ff" points="245.72,-88.93 235.82,-85.16 241.21,-94.28 245.72,-88.93"/>
</a>
</g>
</g>
<!-- Node11&#45;&gt;Node3 -->
<g id="edge14_Node000011_Node000003" class="edge">
<title>Node11&#45;&gt;Node3</title>
<g id="a_edge14_Node000011_Node000003"><a xlink:title=" ">
<path fill="none" stroke="#63b8ff" d="M320.29,-54.99C286.54,-44.86 241.51,-31.35 209.97,-21.89"/>
<polygon fill="#63b8ff" stroke="#63b8ff" points="210.81,-18.49 200.23,-18.97 208.8,-25.19 210.81,-18.49"/>
</a>
</g>
</g>
<!-- Node12 -->
<g id="Node000012" class="node">
<title>Node12</title>
<g id="a_Node000012"><a xlink:title=" ">
<polygon fill="#e0e0e0" stroke="#999999" points="357,-19 313,-19 313,0 357,0 357,-19"/>
<text text-anchor="middle" x="335" y="-7" font-family="Helvetica,sans-Serif" font-size="10.00">string</text>
</a>
</g>
</g>
<!-- Node11&#45;&gt;Node12 -->
<g id="edge12_Node000011_Node000012" class="edge">
<title>Node11&#45;&gt;Node12</title>
<g id="a_edge12_Node000011_Node000012"><a xlink:title=" ">
<path fill="none" stroke="#63b8ff" d="M359.25,-54.84C354.85,-46.78 349.29,-36.62 344.6,-28.06"/>
<polygon fill="#63b8ff" stroke="#63b8ff" points="347.66,-26.36 339.8,-19.27 341.52,-29.72 347.66,-26.36"/>
</a>
</g>
</g>
<!-- Node13 -->
<g id="Node000013" class="node">
<title>Node13</title>
<g id="a_Node000013"><a xlink:title=" ">
<polygon fill="#e0e0e0" stroke="#999999" points="422.5,-19 375.5,-19 375.5,0 422.5,0 422.5,-19"/>
<text text-anchor="middle" x="399" y="-7" font-family="Helvetica,sans-Serif" font-size="10.00">vector</text>
</a>
</g>
</g>
<!-- Node11&#45;&gt;Node13 -->
<g id="edge13_Node000011_Node000013" class="edge">
<title>Node11&#45;&gt;Node13</title>
<g id="a_edge13_Node000011_Node000013"><a xlink:title=" ">
<path fill="none" stroke="#63b8ff" d="M374.75,-54.84C379.15,-46.78 384.71,-36.62 389.4,-28.06"/>
<polygon fill="#63b8ff" stroke="#63b8ff" points="392.48,-29.72 394.2,-19.27 386.34,-26.36 392.48,-29.72"/>
</a>
</g>
</g>
<!-- Node14&#45;&gt;Node3 -->
<g id="edge16_Node000014_Node000003" class="edge">
<title>Node14&#45;&gt;Node3</title>
<g id="a_edge16_Node000014_Node000003"><a xlink:title=" ">
<path fill="none" stroke="#63b8ff" d="M207.62,-54.84C200.94,-46.52 192.45,-35.96 185.44,-27.23"/>
<polygon fill="#63b8ff" stroke="#63b8ff" points="188.03,-24.87 179.04,-19.27 182.58,-29.25 188.03,-24.87"/>
</a>
</g>
</g>
</g>
</svg>
