<?xml version="1.0" encoding="UTF-8" standalone="no"?>
<!DOCTYPE svg PUBLIC "-//W3C//DTD SVG 1.1//EN"
 "http://www.w3.org/Graphics/SVG/1.1/DTD/svg11.dtd">
<!-- Generated by graphviz version 2.43.0 (0)
 -->
<!-- Title: features/menu_bar/files/FilesMenu.cpp Pages: 1 -->
<svg width="513pt" height="291pt"
 viewBox="0.00 0.00 512.50 291.00" xmlns="http://www.w3.org/2000/svg" xmlns:xlink="http://www.w3.org/1999/xlink">
<g id="graph0" class="graph" transform="scale(1 1) rotate(0) translate(4 287)">
<title>features/menu_bar/files/FilesMenu.cpp</title>
<!-- Node1 -->
<g id="Node000001" class="node">
<title>Node1</title>
<g id="a_Node000001"><a xlink:title=" ">
<polygon fill="#999999" stroke="#666666" points="244.5,-283 112.5,-283 112.5,-253 244.5,-253 244.5,-283"/>
<text text-anchor="start" x="120.5" y="-271" font-family="Helvetica,sans-Serif" font-size="10.00">features/menu_bar/files</text>
<text text-anchor="middle" x="178.5" y="-260" font-family="Helvetica,sans-Serif" font-size="10.00">/FilesMenu.cpp</text>
</a>
</g>
</g>
<!-- Node2 -->
<g id="Node000002" class="node">
<title>Node2</title>
<g id="a_Node000002"><a xlink:href="FilesMenu_8h.html" target="_top" xlink:title=" ">
<polygon fill="white" stroke="#666666" points="96,-211.5 21,-211.5 21,-192.5 96,-192.5 96,-211.5"/>
<text text-anchor="middle" x="58.5" y="-199.5" font-family="Helvetica,sans-Serif" font-size="10.00">FilesMenu.h</text>
</a>
</g>
</g>
<!-- Node1&#45;&gt;Node2 -->
<g id="edge1_Node000001_Node000002" class="edge">
<title>Node1&#45;&gt;Node2</title>
<g id="a_edge1_Node000001_Node000002"><a xlink:title=" ">
<path fill="none" stroke="#63b8ff" d="M152.17,-252.95C131.68,-242.03 103.44,-226.97 83.34,-216.25"/>
<polygon fill="#63b8ff" stroke="#63b8ff" points="84.94,-213.14 74.47,-211.52 81.65,-219.31 84.94,-213.14"/>
</a>
</g>
</g>
<!-- Node5 -->
<g id="Node000005" class="node">
<title>Node5</title>
<g id="a_Node000005"><a xlink:href="ExportMenuViewModel_8h.html" target="_top" xlink:title=" ">
<polygon fill="white" stroke="#666666" points="386,-151 233,-151 233,-121 386,-121 386,-151"/>
<text text-anchor="start" x="241" y="-139" font-family="Helvetica,sans-Serif" font-size="10.00">src/features/file_export</text>
<text text-anchor="middle" x="309.5" y="-128" font-family="Helvetica,sans-Serif" font-size="10.00">/ui/ExportMenuViewModel.h</text>
</a>
</g>
</g>
<!-- Node1&#45;&gt;Node5 -->
<g id="edge4_Node000001_Node000005" class="edge">
<title>Node1&#45;&gt;Node5</title>
<g id="a_edge4_Node000001_Node000005"><a xlink:title=" ">
<path fill="none" stroke="#63b8ff" d="M204.15,-252.81C219.21,-243.75 238.07,-231.07 252.5,-217 270.01,-199.92 285.79,-176.86 296.29,-159.89"/>
<polygon fill="#63b8ff" stroke="#63b8ff" points="299.38,-161.54 301.55,-151.17 293.39,-157.92 299.38,-161.54"/>
</a>
</g>
</g>
<!-- Node12 -->
<g id="Node000012" class="node">
<title>Node12</title>
<g id="a_Node000012"><a xlink:href="ExportMenu_8h.html" target="_top" xlink:title=" ">
<polygon fill="white" stroke="#666666" points="243,-217 114,-217 114,-187 243,-187 243,-217"/>
<text text-anchor="start" x="122" y="-205" font-family="Helvetica,sans-Serif" font-size="10.00">src/features/file_export</text>
<text text-anchor="middle" x="178.5" y="-194" font-family="Helvetica,sans-Serif" font-size="10.00">/ui/ExportMenu.h</text>
</a>
</g>
</g>
<!-- Node1&#45;&gt;Node12 -->
<g id="edge13_Node000001_Node000012" class="edge">
<title>Node1&#45;&gt;Node12</title>
<g id="a_edge13_Node000001_Node000012"><a xlink:title=" ">
<path fill="none" stroke="#63b8ff" d="M178.5,-252.8C178.5,-245.34 178.5,-235.99 178.5,-227.41"/>
<polygon fill="#63b8ff" stroke="#63b8ff" points="182,-227.16 178.5,-217.16 175,-227.16 182,-227.16"/>
</a>
</g>
</g>
<!-- Node3 -->
<g id="Node000003" class="node">
<title>Node3</title>
<g id="a_Node000003"><a xlink:title=" ">
<polygon fill="#e0e0e0" stroke="#999999" points="51,-145.5 0,-145.5 0,-126.5 51,-126.5 51,-145.5"/>
<text text-anchor="middle" x="25.5" y="-133.5" font-family="Helvetica,sans-Serif" font-size="10.00">QMenu</text>
</a>
</g>
</g>
<!-- Node2&#45;&gt;Node3 -->
<g id="edge2_Node000002_Node000003" class="edge">
<title>Node2&#45;&gt;Node3</title>
<g id="a_edge2_Node000002_Node000003"><a xlink:title=" ">
<path fill="none" stroke="#63b8ff" d="M54.05,-192.37C49.11,-182.78 40.99,-167.05 34.68,-154.8"/>
<polygon fill="#63b8ff" stroke="#63b8ff" points="37.79,-153.19 30.09,-145.91 31.56,-156.4 37.79,-153.19"/>
</a>
</g>
</g>
<!-- Node4 -->
<g id="Node000004" class="node">
<title>Node4</title>
<g id="a_Node000004"><a xlink:title=" ">
<polygon fill="#e0e0e0" stroke="#999999" points="124,-145.5 69,-145.5 69,-126.5 124,-126.5 124,-145.5"/>
<text text-anchor="middle" x="96.5" y="-133.5" font-family="Helvetica,sans-Serif" font-size="10.00">QAction</text>
</a>
</g>
</g>
<!-- Node2&#45;&gt;Node4 -->
<g id="edge3_Node000002_Node000004" class="edge">
<title>Node2&#45;&gt;Node4</title>
<g id="a_edge3_Node000002_Node000004"><a xlink:title=" ">
<path fill="none" stroke="#63b8ff" d="M63.62,-192.37C69.32,-182.78 78.66,-167.05 85.93,-154.8"/>
<polygon fill="#63b8ff" stroke="#63b8ff" points="89.12,-156.29 91.21,-145.91 83.1,-152.72 89.12,-156.29"/>
</a>
</g>
</g>
<!-- Node6 -->
<g id="Node000006" class="node">
<title>Node6</title>
<g id="a_Node000006"><a xlink:title=" ">
<polygon fill="#e0e0e0" stroke="#999999" points="263.5,-19 207.5,-19 207.5,0 263.5,0 263.5,-19"/>
<text text-anchor="middle" x="235.5" y="-7" font-family="Helvetica,sans-Serif" font-size="10.00">QObject</text>
</a>
</g>
</g>
<!-- Node5&#45;&gt;Node6 -->
<g id="edge5_Node000005_Node000006" class="edge">
<title>Node5&#45;&gt;Node6</title>
<g id="a_edge5_Node000005_Node000006"><a xlink:title=" ">
<path fill="none" stroke="#63b8ff" d="M244.7,-120.99C209.78,-111.99 171.78,-99.32 161.5,-85 153.73,-74.17 154.94,-66.61 161.5,-55 169.67,-40.55 184.62,-30.27 198.96,-23.26"/>
<polygon fill="#63b8ff" stroke="#63b8ff" points="200.51,-26.4 208.21,-19.12 197.65,-20.01 200.51,-26.4"/>
</a>
</g>
</g>
<!-- Node7 -->
<g id="Node000007" class="node">
<title>Node7</title>
<g id="a_Node000007"><a xlink:title=" ">
<polygon fill="#e0e0e0" stroke="#999999" points="504.5,-79.5 466.5,-79.5 466.5,-60.5 504.5,-60.5 504.5,-79.5"/>
<text text-anchor="middle" x="485.5" y="-67.5" font-family="Helvetica,sans-Serif" font-size="10.00">QDir</text>
</a>
</g>
</g>
<!-- Node5&#45;&gt;Node7 -->
<g id="edge6_Node000005_Node000007" class="edge">
<title>Node5&#45;&gt;Node7</title>
<g id="a_edge6_Node000005_Node000007"><a xlink:title=" ">
<path fill="none" stroke="#63b8ff" d="M356.44,-120.97C385.85,-111.73 424.33,-98.82 457.5,-85 458.36,-84.64 459.22,-84.27 460.09,-83.89"/>
<polygon fill="#63b8ff" stroke="#63b8ff" points="461.82,-86.94 469.39,-79.53 458.85,-80.61 461.82,-86.94"/>
</a>
</g>
</g>
<!-- Node8 -->
<g id="Node000008" class="node">
<title>Node8</title>
<g id="a_Node000008"><a xlink:href="CsvExporter_8h.html" target="_top" xlink:title=" ">
<polygon fill="white" stroke="#666666" points="448,-85 319,-85 319,-55 448,-55 448,-85"/>
<text text-anchor="start" x="327" y="-73" font-family="Helvetica,sans-Serif" font-size="10.00">src/features/file_export</text>
<text text-anchor="middle" x="383.5" y="-62" font-family="Helvetica,sans-Serif" font-size="10.00">/csv/CsvExporter.h</text>
</a>
</g>
</g>
<!-- Node5&#45;&gt;Node8 -->
<g id="edge7_Node000005_Node000008" class="edge">
<title>Node5&#45;&gt;Node8</title>
<g id="a_edge7_Node000005_Node000008"><a xlink:title=" ">
<path fill="none" stroke="#63b8ff" d="M325.92,-120.8C335.79,-112.26 348.52,-101.25 359.5,-91.75"/>
<polygon fill="#63b8ff" stroke="#63b8ff" points="361.85,-94.35 367.12,-85.16 357.27,-89.06 361.85,-94.35"/>
</a>
</g>
</g>
<!-- Node11 -->
<g id="Node000011" class="node">
<title>Node11</title>
<g id="a_Node000011"><a xlink:href="FileSystem_8h.html" target="_top" xlink:title=" ">
<polygon fill="white" stroke="#666666" points="301,-85 170,-85 170,-55 301,-55 301,-85"/>
<text text-anchor="start" x="178" y="-73" font-family="Helvetica,sans-Serif" font-size="10.00">src/services/FileSystem</text>
<text text-anchor="middle" x="235.5" y="-62" font-family="Helvetica,sans-Serif" font-size="10.00">/FileSystem.h</text>
</a>
</g>
</g>
<!-- Node5&#45;&gt;Node11 -->
<g id="edge11_Node000005_Node000011" class="edge">
<title>Node5&#45;&gt;Node11</title>
<g id="a_edge11_Node000005_Node000011"><a xlink:title=" ">
<path fill="none" stroke="#63b8ff" d="M293.08,-120.8C283.21,-112.26 270.48,-101.25 259.5,-91.75"/>
<polygon fill="#63b8ff" stroke="#63b8ff" points="261.73,-89.06 251.88,-85.16 257.15,-94.35 261.73,-89.06"/>
</a>
</g>
</g>
<!-- Node8&#45;&gt;Node6 -->
<g id="edge10_Node000008_Node000006" class="edge">
<title>Node8&#45;&gt;Node6</title>
<g id="a_edge10_Node000008_Node000006"><a xlink:title=" ">
<path fill="none" stroke="#63b8ff" d="M348.05,-54.99C323.36,-45.23 290.72,-32.33 266.95,-22.93"/>
<polygon fill="#63b8ff" stroke="#63b8ff" points="267.94,-19.56 257.36,-19.14 265.37,-26.07 267.94,-19.56"/>
</a>
</g>
</g>
<!-- Node9 -->
<g id="Node000009" class="node">
<title>Node9</title>
<g id="a_Node000009"><a xlink:title=" ">
<polygon fill="#e0e0e0" stroke="#999999" points="437.5,-19 393.5,-19 393.5,0 437.5,0 437.5,-19"/>
<text text-anchor="middle" x="415.5" y="-7" font-family="Helvetica,sans-Serif" font-size="10.00">string</text>
</a>
</g>
</g>
<!-- Node8&#45;&gt;Node9 -->
<g id="edge8_Node000008_Node000009" class="edge">
<title>Node8&#45;&gt;Node9</title>
<g id="a_edge8_Node000008_Node000009"><a xlink:title=" ">
<path fill="none" stroke="#63b8ff" d="M391.25,-54.84C395.65,-46.78 401.21,-36.62 405.9,-28.06"/>
<polygon fill="#63b8ff" stroke="#63b8ff" points="408.98,-29.72 410.7,-19.27 402.84,-26.36 408.98,-29.72"/>
</a>
</g>
</g>
<!-- Node10 -->
<g id="Node000010" class="node">
<title>Node10</title>
<g id="a_Node000010"><a xlink:title=" ">
<polygon fill="#e0e0e0" stroke="#999999" points="375,-19 328,-19 328,0 375,0 375,-19"/>
<text text-anchor="middle" x="351.5" y="-7" font-family="Helvetica,sans-Serif" font-size="10.00">vector</text>
</a>
</g>
</g>
<!-- Node8&#45;&gt;Node10 -->
<g id="edge9_Node000008_Node000010" class="edge">
<title>Node8&#45;&gt;Node10</title>
<g id="a_edge9_Node000008_Node000010"><a xlink:title=" ">
<path fill="none" stroke="#63b8ff" d="M375.75,-54.84C371.35,-46.78 365.79,-36.62 361.1,-28.06"/>
<polygon fill="#63b8ff" stroke="#63b8ff" points="364.16,-26.36 356.3,-19.27 358.02,-29.72 364.16,-26.36"/>
</a>
</g>
</g>
<!-- Node11&#45;&gt;Node6 -->
<g id="edge12_Node000011_Node000006" class="edge">
<title>Node11&#45;&gt;Node6</title>
<g id="a_edge12_Node000011_Node000006"><a xlink:title=" ">
<path fill="none" stroke="#63b8ff" d="M235.5,-54.84C235.5,-47.21 235.5,-37.7 235.5,-29.45"/>
<polygon fill="#63b8ff" stroke="#63b8ff" points="239,-29.27 235.5,-19.27 232,-29.27 239,-29.27"/>
</a>
</g>
</g>
<!-- Node12&#45;&gt;Node3 -->
<g id="edge15_Node000012_Node000003" class="edge">
<title>Node12&#45;&gt;Node3</title>
<g id="a_edge15_Node000012_Node000003"><a xlink:title=" ">
<path fill="none" stroke="#63b8ff" d="M144.92,-186.95C118.09,-175.73 80.84,-160.15 55.11,-149.39"/>
<polygon fill="#63b8ff" stroke="#63b8ff" points="56.44,-146.15 45.86,-145.52 53.74,-152.61 56.44,-146.15"/>
</a>
</g>
</g>
<!-- Node12&#45;&gt;Node4 -->
<g id="edge14_Node000012_Node000004" class="edge">
<title>Node12&#45;&gt;Node4</title>
<g id="a_edge14_Node000012_Node000004"><a xlink:title=" ">
<path fill="none" stroke="#63b8ff" d="M160.3,-186.8C147.14,-176.53 129.39,-162.67 115.95,-152.18"/>
<polygon fill="#63b8ff" stroke="#63b8ff" points="117.87,-149.24 107.83,-145.84 113.56,-154.76 117.87,-149.24"/>
</a>
</g>
</g>
<!-- Node12&#45;&gt;Node5 -->
<g id="edge17_Node000012_Node000005" class="edge">
<title>Node12&#45;&gt;Node5</title>
<g id="a_edge17_Node000012_Node000005"><a xlink:title=" ">
<path fill="none" stroke="#63b8ff" d="M207.25,-186.95C226.19,-177.7 251.19,-165.49 271.73,-155.45"/>
<polygon fill="#63b8ff" stroke="#63b8ff" points="273.37,-158.55 280.82,-151.01 270.3,-152.26 273.37,-158.55"/>
</a>
</g>
</g>
<!-- Node13 -->
<g id="Node000013" class="node">
<title>Node13</title>
<g id="a_Node000013"><a xlink:title=" ">
<polygon fill="#e0e0e0" stroke="#999999" points="215,-145.5 142,-145.5 142,-126.5 215,-126.5 215,-145.5"/>
<text text-anchor="middle" x="178.5" y="-133.5" font-family="Helvetica,sans-Serif" font-size="10.00">QFileDialog</text>
</a>
</g>
</g>
<!-- Node12&#45;&gt;Node13 -->
<g id="edge16_Node000012_Node000013" class="edge">
<title>Node12&#45;&gt;Node13</title>
<g id="a_edge16_Node000012_Node000013"><a xlink:title=" ">
<path fill="none" stroke="#63b8ff" d="M178.5,-186.8C178.5,-177.7 178.5,-165.79 178.5,-155.9"/>
<polygon fill="#63b8ff" stroke="#63b8ff" points="182,-155.84 178.5,-145.84 175,-155.84 182,-155.84"/>
</a>
</g>
</g>
</g>
</svg>
