<?xml version="1.0" encoding="UTF-8" standalone="no"?>
<!DOCTYPE svg PUBLIC "-//W3C//DTD SVG 1.1//EN"
 "http://www.w3.org/Graphics/SVG/1.1/DTD/svg11.dtd">
<!-- Generated by graphviz version 2.43.0 (0)
 -->
<!-- Title: services/FileSystem/FileSystem.h Pages: 1 -->
<svg width="1016pt" height="247pt"
 viewBox="0.00 0.00 1016.00 247.00" xmlns="http://www.w3.org/2000/svg" xmlns:xlink="http://www.w3.org/1999/xlink">
<g id="graph0" class="graph" transform="scale(1 1) rotate(0) translate(4 243)">
<title>services/FileSystem/FileSystem.h</title>
<!-- Node1 -->
<g id="Node000001" class="node">
<title>Node1</title>
<g id="a_Node000001"><a xlink:title="File system allow the managment of files path used in the application.">
<polygon fill="#999999" stroke="#666666" points="528,-239 414,-239 414,-209 528,-209 528,-239"/>
<text text-anchor="start" x="422" y="-227" font-family="Helvetica,sans-Serif" font-size="10.00">services/FileSystem</text>
<text text-anchor="middle" x="471" y="-216" font-family="Helvetica,sans-Serif" font-size="10.00">/FileSystem.h</text>
</a>
</g>
</g>
<!-- Node2 -->
<g id="Node000002" class="node">
<title>Node2</title>
<g id="a_Node000002"><a xlink:href="MainWindow_8cpp.html" target="_top" xlink:title=" ">
<polygon fill="white" stroke="#666666" points="120,-162 0,-162 0,-143 120,-143 120,-162"/>
<text text-anchor="middle" x="60" y="-150" font-family="Helvetica,sans-Serif" font-size="10.00">app/MainWindow.cpp</text>
</a>
</g>
</g>
<!-- Node1&#45;&gt;Node2 -->
<g id="edge1_Node000001_Node000002" class="edge">
<title>Node1&#45;&gt;Node2</title>
<g id="a_edge1_Node000001_Node000002"><a xlink:title=" ">
<path fill="none" stroke="#63b8ff" d="M403.37,-215.75C334.04,-207.7 223.33,-193.14 129,-173 115,-170.01 99.65,-165.77 87,-162.01"/>
<polygon fill="#63b8ff" stroke="#63b8ff" points="403.38,-219.27 413.71,-216.94 404.18,-212.32 403.38,-219.27"/>
</a>
</g>
</g>
<!-- Node3 -->
<g id="Node000003" class="node">
<title>Node3</title>
<g id="a_Node000003"><a xlink:href="main_8cpp.html" target="_top" xlink:title=" ">
<polygon fill="white" stroke="#666666" points="221.5,-162 138.5,-162 138.5,-143 221.5,-143 221.5,-162"/>
<text text-anchor="middle" x="180" y="-150" font-family="Helvetica,sans-Serif" font-size="10.00">app/main.cpp</text>
</a>
</g>
</g>
<!-- Node1&#45;&gt;Node3 -->
<g id="edge2_Node000001_Node000003" class="edge">
<title>Node1&#45;&gt;Node3</title>
<g id="a_edge2_Node000001_Node000003"><a xlink:title=" ">
<path fill="none" stroke="#63b8ff" d="M403.57,-211.93C355.07,-203.25 288.38,-189.83 231,-173 220.63,-169.96 209.38,-165.76 200.1,-162.04"/>
<polygon fill="#63b8ff" stroke="#63b8ff" points="403.17,-215.41 413.63,-213.71 404.39,-208.52 403.17,-215.41"/>
</a>
</g>
</g>
<!-- Node4 -->
<g id="Node000004" class="node">
<title>Node4</title>
<g id="a_Node000004"><a xlink:href="UdpChannel_8cpp.html" target="_top" xlink:title=" ">
<polygon fill="white" stroke="#666666" points="376,-167.5 240,-167.5 240,-137.5 376,-137.5 376,-167.5"/>
<text text-anchor="start" x="248" y="-155.5" font-family="Helvetica,sans-Serif" font-size="10.00">features/communication</text>
<text text-anchor="middle" x="308" y="-144.5" font-family="Helvetica,sans-Serif" font-size="10.00">/udp/UdpChannel.cpp</text>
</a>
</g>
</g>
<!-- Node1&#45;&gt;Node4 -->
<g id="edge3_Node000001_Node000004" class="edge">
<title>Node1&#45;&gt;Node4</title>
<g id="a_edge3_Node000001_Node000004"><a xlink:title=" ">
<path fill="none" stroke="#63b8ff" d="M428.69,-204.96C401.32,-193.29 366.22,-178.32 340.94,-167.54"/>
<polygon fill="#63b8ff" stroke="#63b8ff" points="427.44,-208.23 438.01,-208.94 430.19,-201.79 427.44,-208.23"/>
</a>
</g>
</g>
<!-- Node5 -->
<g id="Node000005" class="node">
<title>Node5</title>
<g id="a_Node000005"><a xlink:href="ExportMenuViewModel_8h.html" target="_top" xlink:title=" ">
<polygon fill="white" stroke="#666666" points="547.5,-167.5 394.5,-167.5 394.5,-137.5 547.5,-137.5 547.5,-167.5"/>
<text text-anchor="start" x="402.5" y="-155.5" font-family="Helvetica,sans-Serif" font-size="10.00">features/file_export</text>
<text text-anchor="middle" x="471" y="-144.5" font-family="Helvetica,sans-Serif" font-size="10.00">/ui/ExportMenuViewModel.h</text>
</a>
</g>
</g>
<!-- Node1&#45;&gt;Node5 -->
<g id="edge4_Node000001_Node000005" class="edge">
<title>Node1&#45;&gt;Node5</title>
<g id="a_edge4_Node000001_Node000005"><a xlink:title=" ">
<path fill="none" stroke="#63b8ff" d="M471,-198.75C471,-188.31 471,-176.49 471,-167.54"/>
<polygon fill="#63b8ff" stroke="#63b8ff" points="467.5,-198.94 471,-208.94 474.5,-198.94 467.5,-198.94"/>
</a>
</g>
</g>
<!-- Node10 -->
<g id="Node000010" class="node">
<title>Node10</title>
<g id="a_Node000010"><a xlink:href="TestLauncherViewModel_8cpp.html" target="_top" xlink:title=" ">
<polygon fill="white" stroke="#666666" points="718,-173 566,-173 566,-132 718,-132 718,-173"/>
<text text-anchor="start" x="574" y="-161" font-family="Helvetica,sans-Serif" font-size="10.00">features/test/frames</text>
<text text-anchor="start" x="574" y="-150" font-family="Helvetica,sans-Serif" font-size="10.00">/test_launcher/TestLauncher</text>
<text text-anchor="middle" x="642" y="-139" font-family="Helvetica,sans-Serif" font-size="10.00">ViewModel.cpp</text>
</a>
</g>
</g>
<!-- Node1&#45;&gt;Node10 -->
<g id="edge10_Node000001_Node000010" class="edge">
<title>Node1&#45;&gt;Node10</title>
<g id="a_edge10_Node000001_Node000010"><a xlink:title=" ">
<path fill="none" stroke="#63b8ff" d="M514.89,-205.16C539.04,-195.35 569.05,-183.15 593.84,-173.07"/>
<polygon fill="#63b8ff" stroke="#63b8ff" points="513.55,-201.93 505.6,-208.94 516.19,-208.41 513.55,-201.93"/>
</a>
</g>
</g>
<!-- Node11 -->
<g id="Node000011" class="node">
<title>Node11</title>
<g id="a_Node000011"><a xlink:href="AppServices_8cpp.html" target="_top" xlink:title=" ">
<polygon fill="white" stroke="#666666" points="876,-162 736,-162 736,-143 876,-143 876,-162"/>
<text text-anchor="middle" x="806" y="-150" font-family="Helvetica,sans-Serif" font-size="10.00">services/AppServices.cpp</text>
</a>
</g>
</g>
<!-- Node1&#45;&gt;Node11 -->
<g id="edge11_Node000001_Node000011" class="edge">
<title>Node1&#45;&gt;Node11</title>
<g id="a_edge11_Node000001_Node000011"><a xlink:title=" ">
<path fill="none" stroke="#63b8ff" d="M538.16,-210.82C589.9,-201.2 663.16,-187.1 727,-173 742.17,-169.65 758.89,-165.58 773.03,-162.02"/>
<polygon fill="#63b8ff" stroke="#63b8ff" points="537.3,-207.42 528.11,-212.68 538.58,-214.3 537.3,-207.42"/>
</a>
</g>
</g>
<!-- Node12 -->
<g id="Node000012" class="node">
<title>Node12</title>
<g id="a_Node000012"><a xlink:href="FileSystem_8cpp.html" target="_top" xlink:title=" ">
<polygon fill="white" stroke="#666666" points="1008,-167.5 894,-167.5 894,-137.5 1008,-137.5 1008,-167.5"/>
<text text-anchor="start" x="902" y="-155.5" font-family="Helvetica,sans-Serif" font-size="10.00">services/FileSystem</text>
<text text-anchor="middle" x="951" y="-144.5" font-family="Helvetica,sans-Serif" font-size="10.00">/FileSystem.cpp</text>
</a>
</g>
</g>
<!-- Node1&#45;&gt;Node12 -->
<g id="edge12_Node000001_Node000012" class="edge">
<title>Node1&#45;&gt;Node12</title>
<g id="a_edge12_Node000001_Node000012"><a xlink:title=" ">
<path fill="none" stroke="#63b8ff" d="M538.05,-218.37C620.39,-211.88 764.02,-197.99 885,-173 892.25,-171.5 899.87,-169.58 907.24,-167.54"/>
<polygon fill="#63b8ff" stroke="#63b8ff" points="537.77,-214.88 528.07,-219.14 538.31,-221.86 537.77,-214.88"/>
</a>
</g>
</g>
<!-- Node6 -->
<g id="Node000006" class="node">
<title>Node6</title>
<g id="a_Node000006"><a xlink:href="ExportMenu_8h.html" target="_top" xlink:title=" ">
<polygon fill="white" stroke="#666666" points="396,-96 284,-96 284,-66 396,-66 396,-96"/>
<text text-anchor="start" x="292" y="-84" font-family="Helvetica,sans-Serif" font-size="10.00">features/file_export</text>
<text text-anchor="middle" x="340" y="-73" font-family="Helvetica,sans-Serif" font-size="10.00">/ui/ExportMenu.h</text>
</a>
</g>
</g>
<!-- Node5&#45;&gt;Node6 -->
<g id="edge5_Node000005_Node000006" class="edge">
<title>Node5&#45;&gt;Node6</title>
<g id="a_edge5_Node000005_Node000006"><a xlink:title=" ">
<path fill="none" stroke="#63b8ff" d="M435.54,-132.69C413.77,-121.14 386.35,-106.59 366.47,-96.04"/>
<polygon fill="#63b8ff" stroke="#63b8ff" points="434.02,-135.84 444.49,-137.44 437.3,-129.66 434.02,-135.84"/>
</a>
</g>
</g>
<!-- Node7 -->
<g id="Node000007" class="node">
<title>Node7</title>
<g id="a_Node000007"><a xlink:href="FilesMenu_8cpp.html" target="_top" xlink:title=" ">
<polygon fill="white" stroke="#666666" points="448,-30 316,-30 316,0 448,0 448,-30"/>
<text text-anchor="start" x="324" y="-18" font-family="Helvetica,sans-Serif" font-size="10.00">features/menu_bar/files</text>
<text text-anchor="middle" x="382" y="-7" font-family="Helvetica,sans-Serif" font-size="10.00">/FilesMenu.cpp</text>
</a>
</g>
</g>
<!-- Node5&#45;&gt;Node7 -->
<g id="edge7_Node000005_Node000007" class="edge">
<title>Node5&#45;&gt;Node7</title>
<g id="a_edge7_Node000005_Node000007"><a xlink:title=" ">
<path fill="none" stroke="#63b8ff" d="M456.11,-128.83C437.61,-100.67 406.61,-53.47 391.23,-30.05"/>
<polygon fill="#63b8ff" stroke="#63b8ff" points="453.23,-130.82 461.64,-137.26 459.08,-126.98 453.23,-130.82"/>
</a>
</g>
</g>
<!-- Node8 -->
<g id="Node000008" class="node">
<title>Node8</title>
<g id="a_Node000008"><a xlink:href="FilesMenuFactory_8cpp.html" target="_top" xlink:title=" ">
<polygon fill="white" stroke="#666666" points="584,-96 452,-96 452,-66 584,-66 584,-96"/>
<text text-anchor="start" x="460" y="-84" font-family="Helvetica,sans-Serif" font-size="10.00">features/menu_bar/files</text>
<text text-anchor="middle" x="518" y="-73" font-family="Helvetica,sans-Serif" font-size="10.00">/FilesMenuFactory.cpp</text>
</a>
</g>
</g>
<!-- Node5&#45;&gt;Node8 -->
<g id="edge8_Node000005_Node000008" class="edge">
<title>Node5&#45;&gt;Node8</title>
<g id="a_edge8_Node000005_Node000008"><a xlink:title=" ">
<path fill="none" stroke="#63b8ff" d="M486.3,-128.88C493.61,-118.07 502.14,-105.46 508.5,-96.04"/>
<polygon fill="#63b8ff" stroke="#63b8ff" points="483.21,-127.19 480.51,-137.44 489.01,-131.11 483.21,-127.19"/>
</a>
</g>
</g>
<!-- Node9 -->
<g id="Node000009" class="node">
<title>Node9</title>
<g id="a_Node000009"><a xlink:href="AppViewModels_8cpp.html" target="_top" xlink:title=" ">
<polygon fill="white" stroke="#666666" points="814,-90.5 602,-90.5 602,-71.5 814,-71.5 814,-90.5"/>
<text text-anchor="middle" x="708" y="-78.5" font-family="Helvetica,sans-Serif" font-size="10.00">mvvm/viewmodels/AppViewModels.cpp</text>
</a>
</g>
</g>
<!-- Node5&#45;&gt;Node9 -->
<g id="edge9_Node000005_Node000009" class="edge">
<title>Node5&#45;&gt;Node9</title>
<g id="a_edge9_Node000005_Node000009"><a xlink:title=" ">
<path fill="none" stroke="#63b8ff" d="M528.8,-134.55C576.27,-120.63 641.53,-101.49 678.78,-90.57"/>
<polygon fill="#63b8ff" stroke="#63b8ff" points="527.57,-131.26 518.96,-137.44 529.54,-137.98 527.57,-131.26"/>
</a>
</g>
</g>
<!-- Node6&#45;&gt;Node7 -->
<g id="edge6_Node000006_Node000007" class="edge">
<title>Node6&#45;&gt;Node7</title>
<g id="a_edge6_Node000006_Node000007"><a xlink:title=" ">
<path fill="none" stroke="#63b8ff" d="M354.93,-57.24C360.86,-48.21 367.49,-38.11 372.7,-30.16"/>
<polygon fill="#63b8ff" stroke="#63b8ff" points="351.88,-55.52 349.32,-65.8 357.73,-59.36 351.88,-55.52"/>
</a>
</g>
</g>
</g>
</svg>
