<?xml version="1.0" encoding="UTF-8" standalone="no"?>
<!DOCTYPE svg PUBLIC "-//W3C//DTD SVG 1.1//EN"
 "http://www.w3.org/Graphics/SVG/1.1/DTD/svg11.dtd">
<!-- Generated by graphviz version 2.43.0 (0)
 -->
<!-- Title: features/graphics/GraphicTabView.h Pages: 1 -->
<svg width="373pt" height="170pt"
 viewBox="0.00 0.00 373.00 170.00" xmlns="http://www.w3.org/2000/svg" xmlns:xlink="http://www.w3.org/1999/xlink">
<g id="graph0" class="graph" transform="scale(1 1) rotate(0) translate(4 166)">
<title>features/graphics/GraphicTabView.h</title>
<!-- Node1 -->
<g id="Node000001" class="node">
<title>Node1</title>
<g id="a_Node000001"><a xlink:title=" ">
<polygon fill="#999999" stroke="#666666" points="285,-162 143,-162 143,-132 285,-132 285,-162"/>
<text text-anchor="start" x="151" y="-150" font-family="Helvetica,sans-Serif" font-size="10.00">features/graphics/Graphic</text>
<text text-anchor="middle" x="214" y="-139" font-family="Helvetica,sans-Serif" font-size="10.00">TabView.h</text>
</a>
</g>
</g>
<!-- Node2 -->
<g id="Node000002" class="node">
<title>Node2</title>
<g id="a_Node000002"><a xlink:href="GraphicTabFactory_8h.html" target="_top" xlink:title=" ">
<polygon fill="white" stroke="#666666" points="205,-96 63,-96 63,-66 205,-66 205,-96"/>
<text text-anchor="start" x="71" y="-84" font-family="Helvetica,sans-Serif" font-size="10.00">features/graphics/Graphic</text>
<text text-anchor="middle" x="134" y="-73" font-family="Helvetica,sans-Serif" font-size="10.00">TabFactory.h</text>
</a>
</g>
</g>
<!-- Node1&#45;&gt;Node2 -->
<g id="edge1_Node000001_Node000002" class="edge">
<title>Node1&#45;&gt;Node2</title>
<g id="a_edge1_Node000001_Node000002"><a xlink:title=" ">
<path fill="none" stroke="#63b8ff" d="M188.35,-125.48C176.39,-115.91 162.47,-104.77 151.7,-96.16"/>
<polygon fill="#63b8ff" stroke="#63b8ff" points="186.25,-128.28 196.25,-131.8 190.62,-122.82 186.25,-128.28"/>
</a>
</g>
</g>
<!-- Node5 -->
<g id="Node000005" class="node">
<title>Node5</title>
<g id="a_Node000005"><a xlink:href="GraphicTabView_8cpp.html" target="_top" xlink:title=" ">
<polygon fill="white" stroke="#666666" points="365,-96 223,-96 223,-66 365,-66 365,-96"/>
<text text-anchor="start" x="231" y="-84" font-family="Helvetica,sans-Serif" font-size="10.00">features/graphics/Graphic</text>
<text text-anchor="middle" x="294" y="-73" font-family="Helvetica,sans-Serif" font-size="10.00">TabView.cpp</text>
</a>
</g>
</g>
<!-- Node1&#45;&gt;Node5 -->
<g id="edge4_Node000001_Node000005" class="edge">
<title>Node1&#45;&gt;Node5</title>
<g id="a_edge4_Node000001_Node000005"><a xlink:title=" ">
<path fill="none" stroke="#63b8ff" d="M239.65,-125.48C251.61,-115.91 265.53,-104.77 276.3,-96.16"/>
<polygon fill="#63b8ff" stroke="#63b8ff" points="237.38,-122.82 231.75,-131.8 241.75,-128.28 237.38,-122.82"/>
</a>
</g>
</g>
<!-- Node3 -->
<g id="Node000003" class="node">
<title>Node3</title>
<g id="a_Node000003"><a xlink:href="MainWindow_8cpp.html" target="_top" xlink:title=" ">
<polygon fill="white" stroke="#666666" points="120,-24.5 0,-24.5 0,-5.5 120,-5.5 120,-24.5"/>
<text text-anchor="middle" x="60" y="-12.5" font-family="Helvetica,sans-Serif" font-size="10.00">app/MainWindow.cpp</text>
</a>
</g>
</g>
<!-- Node2&#45;&gt;Node3 -->
<g id="edge2_Node000002_Node000003" class="edge">
<title>Node2&#45;&gt;Node3</title>
<g id="a_edge2_Node000002_Node000003"><a xlink:title=" ">
<path fill="none" stroke="#63b8ff" d="M109.64,-58.93C96.25,-47.35 80.36,-33.61 70.23,-24.84"/>
<polygon fill="#63b8ff" stroke="#63b8ff" points="107.72,-61.9 117.58,-65.8 112.3,-56.61 107.72,-61.9"/>
</a>
</g>
</g>
<!-- Node4 -->
<g id="Node000004" class="node">
<title>Node4</title>
<g id="a_Node000004"><a xlink:href="GraphicTabFactory_8cpp.html" target="_top" xlink:title=" ">
<polygon fill="white" stroke="#666666" points="280,-30 138,-30 138,0 280,0 280,-30"/>
<text text-anchor="start" x="146" y="-18" font-family="Helvetica,sans-Serif" font-size="10.00">features/graphics/Graphic</text>
<text text-anchor="middle" x="209" y="-7" font-family="Helvetica,sans-Serif" font-size="10.00">TabFactory.cpp</text>
</a>
</g>
</g>
<!-- Node2&#45;&gt;Node4 -->
<g id="edge3_Node000002_Node000004" class="edge">
<title>Node2&#45;&gt;Node4</title>
<g id="a_edge3_Node000002_Node000004"><a xlink:title=" ">
<path fill="none" stroke="#63b8ff" d="M158.37,-59.2C169.51,-49.7 182.41,-38.69 192.4,-30.16"/>
<polygon fill="#63b8ff" stroke="#63b8ff" points="155.98,-56.64 150.64,-65.8 160.52,-61.97 155.98,-56.64"/>
</a>
</g>
</g>
</g>
</svg>
