<?xml version="1.0" encoding="UTF-8" standalone="no"?>
<!DOCTYPE svg PUBLIC "-//W3C//DTD SVG 1.1//EN"
 "http://www.w3.org/Graphics/SVG/1.1/DTD/svg11.dtd">
<!-- Generated by graphviz version 2.43.0 (0)
 -->
<!-- Title: features/graphics/GraphicTabFactory.cpp Pages: 1 -->
<svg width="766pt" height="214pt"
 viewBox="0.00 0.00 765.50 214.00" xmlns="http://www.w3.org/2000/svg" xmlns:xlink="http://www.w3.org/1999/xlink">
<g id="graph0" class="graph" transform="scale(1 1) rotate(0) translate(4 210)">
<title>features/graphics/GraphicTabFactory.cpp</title>
<!-- Node1 -->
<g id="Node000001" class="node">
<title>Node1</title>
<g id="a_Node000001"><a xlink:title=" ">
<polygon fill="#999999" stroke="#666666" points="323.5,-206 181.5,-206 181.5,-176 323.5,-176 323.5,-206"/>
<text text-anchor="start" x="189.5" y="-194" font-family="Helvetica,sans-Serif" font-size="10.00">features/graphics/Graphic</text>
<text text-anchor="middle" x="252.5" y="-183" font-family="Helvetica,sans-Serif" font-size="10.00">TabFactory.cpp</text>
</a>
</g>
</g>
<!-- Node2 -->
<g id="Node000002" class="node">
<title>Node2</title>
<g id="a_Node000002"><a xlink:href="GraphicTabFactory_8h.html" target="_top" xlink:title=" ">
<polygon fill="white" stroke="#666666" points="242,-140 129,-140 129,-121 242,-121 242,-140"/>
<text text-anchor="middle" x="185.5" y="-128" font-family="Helvetica,sans-Serif" font-size="10.00">GraphicTabFactory.h</text>
</a>
</g>
</g>
<!-- Node1&#45;&gt;Node2 -->
<g id="edge1_Node000001_Node000002" class="edge">
<title>Node1&#45;&gt;Node2</title>
<g id="a_edge1_Node000001_Node000002"><a xlink:title=" ">
<path fill="none" stroke="#63b8ff" d="M236.28,-175.84C226.26,-167.09 213.39,-155.85 203.12,-146.88"/>
<polygon fill="#63b8ff" stroke="#63b8ff" points="205.37,-144.21 195.54,-140.27 200.77,-149.48 205.37,-144.21"/>
</a>
</g>
</g>
<!-- Node8 -->
<g id="Node000008" class="node">
<title>Node8</title>
<g id="a_Node000008"><a xlink:href="PlotViewModel_8h.html" target="_top" xlink:title=" ">
<polygon fill="white" stroke="#666666" points="392.5,-140 272.5,-140 272.5,-121 392.5,-121 392.5,-140"/>
<text text-anchor="middle" x="332.5" y="-128" font-family="Helvetica,sans-Serif" font-size="10.00">plot/PlotViewModel.h</text>
</a>
</g>
</g>
<!-- Node1&#45;&gt;Node8 -->
<g id="edge7_Node000001_Node000008" class="edge">
<title>Node1&#45;&gt;Node8</title>
<g id="a_edge7_Node000001_Node000008"><a xlink:title=" ">
<path fill="none" stroke="#63b8ff" d="M271.87,-175.84C284.07,-166.91 299.81,-155.41 312.19,-146.35"/>
<polygon fill="#63b8ff" stroke="#63b8ff" points="314.51,-148.99 320.51,-140.27 310.37,-143.34 314.51,-148.99"/>
</a>
</g>
</g>
<!-- Node3 -->
<g id="Node000003" class="node">
<title>Node3</title>
<g id="a_Node000003"><a xlink:href="AppViewModels_8h.html" target="_top" xlink:title=" ">
<polygon fill="white" stroke="#666666" points="249.5,-85 121.5,-85 121.5,-55 249.5,-55 249.5,-85"/>
<text text-anchor="start" x="129.5" y="-73" font-family="Helvetica,sans-Serif" font-size="10.00">src/mvvm/viewmodels</text>
<text text-anchor="middle" x="185.5" y="-62" font-family="Helvetica,sans-Serif" font-size="10.00">/AppViewModels.h</text>
</a>
</g>
</g>
<!-- Node2&#45;&gt;Node3 -->
<g id="edge2_Node000002_Node000003" class="edge">
<title>Node2&#45;&gt;Node3</title>
<g id="a_edge2_Node000002_Node000003"><a xlink:title=" ">
<path fill="none" stroke="#63b8ff" d="M185.5,-120.87C185.5,-114.11 185.5,-104.35 185.5,-95.26"/>
<polygon fill="#63b8ff" stroke="#63b8ff" points="189,-95.11 185.5,-85.11 182,-95.11 189,-95.11"/>
</a>
</g>
</g>
<!-- Node6 -->
<g id="Node000006" class="node">
<title>Node6</title>
<g id="a_Node000006"><a xlink:href="GraphicTabView_8h.html" target="_top" xlink:title=" ">
<polygon fill="white" stroke="#666666" points="103,-79.5 0,-79.5 0,-60.5 103,-60.5 103,-79.5"/>
<text text-anchor="middle" x="51.5" y="-67.5" font-family="Helvetica,sans-Serif" font-size="10.00">GraphicTabView.h</text>
</a>
</g>
</g>
<!-- Node2&#45;&gt;Node6 -->
<g id="edge5_Node000002_Node000006" class="edge">
<title>Node2&#45;&gt;Node6</title>
<g id="a_edge5_Node000002_Node000006"><a xlink:title=" ">
<path fill="none" stroke="#63b8ff" d="M166.02,-120.99C143.49,-111.16 106.19,-94.88 80.31,-83.58"/>
<polygon fill="#63b8ff" stroke="#63b8ff" points="81.57,-80.31 71.01,-79.52 78.77,-86.73 81.57,-80.31"/>
</a>
</g>
</g>
<!-- Node4 -->
<g id="Node000004" class="node">
<title>Node4</title>
<g id="a_Node000004"><a xlink:title=" ">
<polygon fill="#e0e0e0" stroke="#999999" points="265.5,-19 209.5,-19 209.5,0 265.5,0 265.5,-19"/>
<text text-anchor="middle" x="237.5" y="-7" font-family="Helvetica,sans-Serif" font-size="10.00">QObject</text>
</a>
</g>
</g>
<!-- Node3&#45;&gt;Node4 -->
<g id="edge3_Node000003_Node000004" class="edge">
<title>Node3&#45;&gt;Node4</title>
<g id="a_edge3_Node000003_Node000004"><a xlink:title=" ">
<path fill="none" stroke="#63b8ff" d="M198.09,-54.84C205.56,-46.43 215.06,-35.74 222.87,-26.96"/>
<polygon fill="#63b8ff" stroke="#63b8ff" points="225.68,-29.07 229.71,-19.27 220.45,-24.41 225.68,-29.07"/>
</a>
</g>
</g>
<!-- Node5 -->
<g id="Node000005" class="node">
<title>Node5</title>
<g id="a_Node000005"><a xlink:title=" ">
<polygon fill="#e0e0e0" stroke="#999999" points="191,-19 126,-19 126,0 191,0 191,-19"/>
<text text-anchor="middle" x="158.5" y="-7" font-family="Helvetica,sans-Serif" font-size="10.00">typeindex</text>
</a>
</g>
</g>
<!-- Node3&#45;&gt;Node5 -->
<g id="edge4_Node000003_Node000005" class="edge">
<title>Node3&#45;&gt;Node5</title>
<g id="a_edge4_Node000003_Node000005"><a xlink:title=" ">
<path fill="none" stroke="#63b8ff" d="M178.96,-54.84C175.32,-46.95 170.76,-37.05 166.86,-28.61"/>
<polygon fill="#63b8ff" stroke="#63b8ff" points="169.91,-26.88 162.55,-19.27 163.56,-29.81 169.91,-26.88"/>
</a>
</g>
</g>
<!-- Node7 -->
<g id="Node000007" class="node">
<title>Node7</title>
<g id="a_Node000007"><a xlink:title=" ">
<polygon fill="#e0e0e0" stroke="#999999" points="81,-19 22,-19 22,0 81,0 81,-19"/>
<text text-anchor="middle" x="51.5" y="-7" font-family="Helvetica,sans-Serif" font-size="10.00">QWidget</text>
</a>
</g>
</g>
<!-- Node6&#45;&gt;Node7 -->
<g id="edge6_Node000006_Node000007" class="edge">
<title>Node6&#45;&gt;Node7</title>
<g id="a_edge6_Node000006_Node000007"><a xlink:title=" ">
<path fill="none" stroke="#63b8ff" d="M51.5,-60.37C51.5,-52.25 51.5,-39.81 51.5,-29.39"/>
<polygon fill="#63b8ff" stroke="#63b8ff" points="55,-29.17 51.5,-19.17 48,-29.17 55,-29.17"/>
</a>
</g>
</g>
<!-- Node8&#45;&gt;Node4 -->
<g id="edge17_Node000008_Node000004" class="edge">
<title>Node8&#45;&gt;Node4</title>
<g id="a_edge17_Node000008_Node000004"><a xlink:title=" ">
<path fill="none" stroke="#63b8ff" d="M334.34,-120.8C336.99,-105.92 340.15,-75.22 326.5,-55 314.7,-37.52 293.92,-26.59 275.41,-19.94"/>
<polygon fill="#63b8ff" stroke="#63b8ff" points="276.3,-16.55 265.71,-16.76 274.12,-23.21 276.3,-16.55"/>
</a>
</g>
</g>
<!-- Node9 -->
<g id="Node000009" class="node">
<title>Node9</title>
<g id="a_Node000009"><a xlink:href="Messages_8h.html" target="_top" xlink:title=" ">
<polygon fill="white" stroke="#666666" points="520,-85 417,-85 417,-55 520,-55 520,-85"/>
<text text-anchor="start" x="425" y="-73" font-family="Helvetica,sans-Serif" font-size="10.00">src/core/Protocols</text>
<text text-anchor="middle" x="468.5" y="-62" font-family="Helvetica,sans-Serif" font-size="10.00">/Messages.h</text>
</a>
</g>
</g>
<!-- Node8&#45;&gt;Node9 -->
<g id="edge8_Node000008_Node000009" class="edge">
<title>Node8&#45;&gt;Node9</title>
<g id="a_edge8_Node000008_Node000009"><a xlink:title=" ">
<path fill="none" stroke="#63b8ff" d="M352.28,-120.99C371.59,-112.68 401.6,-99.78 426.29,-89.16"/>
<polygon fill="#63b8ff" stroke="#63b8ff" points="428,-92.23 435.8,-85.06 425.23,-85.8 428,-92.23"/>
</a>
</g>
</g>
<!-- Node17 -->
<g id="Node000017" class="node">
<title>Node17</title>
<g id="a_Node000017"><a xlink:title=" ">
<polygon fill="#e0e0e0" stroke="#999999" points="317.5,-79.5 267.5,-79.5 267.5,-60.5 317.5,-60.5 317.5,-79.5"/>
<text text-anchor="middle" x="292.5" y="-67.5" font-family="Helvetica,sans-Serif" font-size="10.00">QColor</text>
</a>
</g>
</g>
<!-- Node8&#45;&gt;Node17 -->
<g id="edge18_Node000008_Node000017" class="edge">
<title>Node8&#45;&gt;Node17</title>
<g id="a_edge18_Node000008_Node000017"><a xlink:title=" ">
<path fill="none" stroke="#63b8ff" d="M326.6,-120.87C320.75,-112.31 311.63,-98.97 304.29,-88.24"/>
<polygon fill="#63b8ff" stroke="#63b8ff" points="306.96,-85.95 298.43,-79.67 301.18,-89.9 306.96,-85.95"/>
</a>
</g>
</g>
<!-- Node9&#45;&gt;Node4 -->
<g id="edge15_Node000009_Node000004" class="edge">
<title>Node9&#45;&gt;Node4</title>
<g id="a_edge15_Node000009_Node000004"><a xlink:title=" ">
<path fill="none" stroke="#63b8ff" d="M416.95,-55.94C374.1,-45.09 314.12,-29.9 275.53,-20.13"/>
<polygon fill="#63b8ff" stroke="#63b8ff" points="276.28,-16.71 265.73,-17.65 274.56,-23.5 276.28,-16.71"/>
</a>
</g>
</g>
<!-- Node10 -->
<g id="Node000010" class="node">
<title>Node10</title>
<g id="a_Node000010"><a xlink:title=" ">
<polygon fill="#e0e0e0" stroke="#999999" points="627,-19 576,-19 576,0 627,0 627,-19"/>
<text text-anchor="middle" x="601.5" y="-7" font-family="Helvetica,sans-Serif" font-size="10.00">variant</text>
</a>
</g>
</g>
<!-- Node9&#45;&gt;Node10 -->
<g id="edge9_Node000009_Node000010" class="edge">
<title>Node9&#45;&gt;Node10</title>
<g id="a_edge9_Node000009_Node000010"><a xlink:title=" ">
<path fill="none" stroke="#63b8ff" d="M500.36,-54.99C522.35,-45.31 551.35,-32.56 572.66,-23.18"/>
<polygon fill="#63b8ff" stroke="#63b8ff" points="574.11,-26.37 581.86,-19.14 571.3,-19.96 574.11,-26.37"/>
</a>
</g>
</g>
<!-- Node11 -->
<g id="Node000011" class="node">
<title>Node11</title>
<g id="a_Node000011"><a xlink:title=" ">
<polygon fill="#e0e0e0" stroke="#999999" points="695.5,-19 645.5,-19 645.5,0 695.5,0 695.5,-19"/>
<text text-anchor="middle" x="670.5" y="-7" font-family="Helvetica,sans-Serif" font-size="10.00">cstdint</text>
</a>
</g>
</g>
<!-- Node9&#45;&gt;Node11 -->
<g id="edge10_Node000009_Node000011" class="edge">
<title>Node9&#45;&gt;Node11</title>
<g id="a_edge10_Node000009_Node000011"><a xlink:title=" ">
<path fill="none" stroke="#63b8ff" d="M516.88,-54.99C553.48,-44.39 602.87,-30.09 635.65,-20.59"/>
<polygon fill="#63b8ff" stroke="#63b8ff" points="636.63,-23.95 645.26,-17.81 634.68,-17.23 636.63,-23.95"/>
</a>
</g>
</g>
<!-- Node12 -->
<g id="Node000012" class="node">
<title>Node12</title>
<g id="a_Node000012"><a xlink:title=" ">
<polygon fill="#e0e0e0" stroke="#999999" points="757.5,-19 713.5,-19 713.5,0 757.5,0 757.5,-19"/>
<text text-anchor="middle" x="735.5" y="-7" font-family="Helvetica,sans-Serif" font-size="10.00">string</text>
</a>
</g>
</g>
<!-- Node9&#45;&gt;Node12 -->
<g id="edge11_Node000009_Node000012" class="edge">
<title>Node9&#45;&gt;Node12</title>
<g id="a_edge11_Node000009_Node000012"><a xlink:title=" ">
<path fill="none" stroke="#63b8ff" d="M520.26,-58.95C565.96,-49.86 634.61,-35.72 703.09,-19.23"/>
<polygon fill="#63b8ff" stroke="#63b8ff" points="704.3,-22.54 713.19,-16.79 702.65,-15.74 704.3,-22.54"/>
</a>
</g>
</g>
<!-- Node13 -->
<g id="Node000013" class="node">
<title>Node13</title>
<g id="a_Node000013"><a xlink:title=" ">
<polygon fill="#e0e0e0" stroke="#999999" points="357,-19 284,-19 284,0 357,0 357,-19"/>
<text text-anchor="middle" x="320.5" y="-7" font-family="Helvetica,sans-Serif" font-size="10.00">QByteArray</text>
</a>
</g>
</g>
<!-- Node9&#45;&gt;Node13 -->
<g id="edge12_Node000009_Node000013" class="edge">
<title>Node9&#45;&gt;Node13</title>
<g id="a_edge12_Node000009_Node000013"><a xlink:title=" ">
<path fill="none" stroke="#63b8ff" d="M433.05,-54.99C408.36,-45.23 375.72,-32.33 351.95,-22.93"/>
<polygon fill="#63b8ff" stroke="#63b8ff" points="352.94,-19.56 342.36,-19.14 350.37,-26.07 352.94,-19.56"/>
</a>
</g>
</g>
<!-- Node14 -->
<g id="Node000014" class="node">
<title>Node14</title>
<g id="a_Node000014"><a xlink:title=" ">
<polygon fill="#e0e0e0" stroke="#999999" points="424,-19 375,-19 375,0 424,0 424,-19"/>
<text text-anchor="middle" x="399.5" y="-7" font-family="Helvetica,sans-Serif" font-size="10.00">QHash</text>
</a>
</g>
</g>
<!-- Node9&#45;&gt;Node14 -->
<g id="edge13_Node000009_Node000014" class="edge">
<title>Node9&#45;&gt;Node14</title>
<g id="a_edge13_Node000009_Node000014"><a xlink:title=" ">
<path fill="none" stroke="#63b8ff" d="M451.8,-54.84C441.47,-46.09 428.22,-34.85 417.64,-25.88"/>
<polygon fill="#63b8ff" stroke="#63b8ff" points="419.73,-23.06 409.84,-19.27 415.2,-28.4 419.73,-23.06"/>
</a>
</g>
</g>
<!-- Node15 -->
<g id="Node000015" class="node">
<title>Node15</title>
<g id="a_Node000015"><a xlink:title=" ">
<polygon fill="#e0e0e0" stroke="#999999" points="495,-19 442,-19 442,0 495,0 495,-19"/>
<text text-anchor="middle" x="468.5" y="-7" font-family="Helvetica,sans-Serif" font-size="10.00">QString</text>
</a>
</g>
</g>
<!-- Node9&#45;&gt;Node15 -->
<g id="edge14_Node000009_Node000015" class="edge">
<title>Node9&#45;&gt;Node15</title>
<g id="a_edge14_Node000009_Node000015"><a xlink:title=" ">
<path fill="none" stroke="#63b8ff" d="M468.5,-54.84C468.5,-47.21 468.5,-37.7 468.5,-29.45"/>
<polygon fill="#63b8ff" stroke="#63b8ff" points="472,-29.27 468.5,-19.27 465,-29.27 472,-29.27"/>
</a>
</g>
</g>
<!-- Node16 -->
<g id="Node000016" class="node">
<title>Node16</title>
<g id="a_Node000016"><a xlink:title=" ">
<polygon fill="#e0e0e0" stroke="#999999" points="558,-19 513,-19 513,0 558,0 558,-19"/>
<text text-anchor="middle" x="535.5" y="-7" font-family="Helvetica,sans-Serif" font-size="10.00">QMap</text>
</a>
</g>
</g>
<!-- Node9&#45;&gt;Node16 -->
<g id="edge16_Node000009_Node000016" class="edge">
<title>Node9&#45;&gt;Node16</title>
<g id="a_edge16_Node000009_Node000016"><a xlink:title=" ">
<path fill="none" stroke="#63b8ff" d="M484.72,-54.84C494.74,-46.09 507.61,-34.85 517.88,-25.88"/>
<polygon fill="#63b8ff" stroke="#63b8ff" points="520.23,-28.48 525.46,-19.27 515.63,-23.21 520.23,-28.48"/>
</a>
</g>
</g>
</g>
</svg>
