<?xml version="1.0" encoding="UTF-8" standalone="no"?>
<!DOCTYPE svg PUBLIC "-//W3C//DTD SVG 1.1//EN"
 "http://www.w3.org/Graphics/SVG/1.1/DTD/svg11.dtd">
<!-- Generated by graphviz version 2.43.0 (0)
 -->
<!-- Title: Graphical Class Hierarchy Pages: 1 -->
<svg width="269pt" height="582pt"
 viewBox="0.00 0.00 269.00 582.00" xmlns="http://www.w3.org/2000/svg" xmlns:xlink="http://www.w3.org/1999/xlink">
<g id="graph0" class="graph" transform="scale(1 1) rotate(0) translate(4 578)">
<title>Graphical Class Hierarchy</title>
<!-- Node0 -->
<g id="Node000000" class="node">
<title>Node0</title>
<g id="a_Node000000"><a xlink:title=" ">
<polygon fill="#e0e0e0" stroke="#999999" points="59,-296 0,-296 0,-277 59,-277 59,-296"/>
<text text-anchor="middle" x="29.5" y="-284" font-family="Helvetica,sans-Serif" font-size="10.00">QWidget</text>
</a>
</g>
</g>
<!-- Node1 -->
<g id="Node000001" class="node">
<title>Node1</title>
<g id="a_Node000001"><a xlink:href="classChrono.html" target="_top" xlink:title=" ">
<polygon fill="white" stroke="#666666" points="203.5,-574 152.5,-574 152.5,-555 203.5,-555 203.5,-574"/>
<text text-anchor="middle" x="178" y="-562" font-family="Helvetica,sans-Serif" font-size="10.00">Chrono</text>
</a>
</g>
</g>
<!-- Node0&#45;&gt;Node1 -->
<g id="edge58_Node000000_Node000001" class="edge">
<title>Node0&#45;&gt;Node1</title>
<g id="a_edge58_Node000000_Node000001"><a xlink:title=" ">
<path fill="none" stroke="#63b8ff" d="M32.73,-306.41C39.29,-361.25 60.23,-512.66 95,-546.5 110.04,-561.14 134.11,-565 152.28,-565.58"/>
<polygon fill="#63b8ff" stroke="#63b8ff" points="36.18,-305.78 31.55,-296.25 29.23,-306.59 36.18,-305.78"/>
</a>
</g>
</g>
<!-- Node2 -->
<g id="Node000002" class="node">
<title>Node2</title>
<g id="a_Node000002"><a xlink:href="classCloseButton.html" target="_top" xlink:title=" ">
<polygon fill="white" stroke="#666666" points="216,-537 140,-537 140,-518 216,-518 216,-537"/>
<text text-anchor="middle" x="178" y="-525" font-family="Helvetica,sans-Serif" font-size="10.00">CloseButton</text>
</a>
</g>
</g>
<!-- Node0&#45;&gt;Node2 -->
<g id="edge59_Node000000_Node000002" class="edge">
<title>Node0&#45;&gt;Node2</title>
<g id="a_edge59_Node000000_Node000002"><a xlink:title=" ">
<path fill="none" stroke="#63b8ff" d="M29.96,-306.46C29.94,-350.13 36.4,-454.62 95,-509.5 106.91,-520.66 124.1,-525.5 139.66,-527.41"/>
<polygon fill="#63b8ff" stroke="#63b8ff" points="33.46,-306.33 30.09,-296.29 26.47,-306.24 33.46,-306.33"/>
</a>
</g>
</g>
<!-- Node3 -->
<g id="Node000003" class="node">
<title>Node3</title>
<g id="a_Node000003"><a xlink:href="classEmergencyControls.html" target="_top" xlink:title=" ">
<polygon fill="white" stroke="#666666" points="234,-500 122,-500 122,-481 234,-481 234,-500"/>
<text text-anchor="middle" x="178" y="-488" font-family="Helvetica,sans-Serif" font-size="10.00">EmergencyControls</text>
</a>
</g>
</g>
<!-- Node0&#45;&gt;Node3 -->
<g id="edge60_Node000000_Node000003" class="edge">
<title>Node0&#45;&gt;Node3</title>
<g id="a_edge60_Node000000_Node000003"><a xlink:title=" ">
<path fill="none" stroke="#63b8ff" d="M31.34,-306.77C34.07,-345.19 45.69,-428.67 95,-472.5 102.52,-479.18 111.94,-483.57 121.69,-486.41"/>
<polygon fill="#63b8ff" stroke="#63b8ff" points="34.81,-306.17 30.74,-296.39 27.82,-306.57 34.81,-306.17"/>
</a>
</g>
</g>
<!-- Node4 -->
<g id="Node000004" class="node">
<title>Node4</title>
<g id="a_Node000004"><a xlink:href="classGraphicTab.html" target="_top" xlink:title=" ">
<polygon fill="white" stroke="#666666" points="213.5,-463 142.5,-463 142.5,-444 213.5,-444 213.5,-463"/>
<text text-anchor="middle" x="178" y="-451" font-family="Helvetica,sans-Serif" font-size="10.00">GraphicTab</text>
</a>
</g>
</g>
<!-- Node0&#45;&gt;Node4 -->
<g id="edge61_Node000000_Node000004" class="edge">
<title>Node0&#45;&gt;Node4</title>
<g id="a_edge61_Node000000_Node000004"><a xlink:title=" ">
<path fill="none" stroke="#63b8ff" d="M33.25,-306.32C38.81,-338.57 54.52,-402.15 95,-435.5 108.16,-446.34 126.42,-451.04 142.37,-452.93"/>
<polygon fill="#63b8ff" stroke="#63b8ff" points="36.69,-305.66 31.68,-296.32 29.77,-306.74 36.69,-305.66"/>
</a>
</g>
</g>
<!-- Node5 -->
<g id="Node000005" class="node">
<title>Node5</title>
<g id="a_Node000005"><a xlink:href="classOverlay.html" target="_top" xlink:title=" ">
<polygon fill="white" stroke="#666666" points="205.5,-426 150.5,-426 150.5,-407 205.5,-407 205.5,-426"/>
<text text-anchor="middle" x="178" y="-414" font-family="Helvetica,sans-Serif" font-size="10.00">Overlay</text>
</a>
</g>
</g>
<!-- Node0&#45;&gt;Node5 -->
<g id="edge62_Node000000_Node000005" class="edge">
<title>Node0&#45;&gt;Node5</title>
<g id="a_edge62_Node000000_Node000005"><a xlink:title=" ">
<path fill="none" stroke="#63b8ff" d="M36.14,-305.69C44.63,-331.04 63.16,-375.18 95,-398.5 110.99,-410.21 133.13,-414.56 150.38,-416.06"/>
<polygon fill="#63b8ff" stroke="#63b8ff" points="39.46,-304.58 33.11,-296.1 32.79,-306.69 39.46,-304.58"/>
</a>
</g>
</g>
<!-- Node6 -->
<g id="Node000006" class="node">
<title>Node6</title>
<g id="a_Node000006"><a xlink:href="classParametersWindow.html" target="_top" xlink:title=" ">
<polygon fill="white" stroke="#666666" points="233.5,-389 122.5,-389 122.5,-370 233.5,-370 233.5,-389"/>
<text text-anchor="middle" x="178" y="-377" font-family="Helvetica,sans-Serif" font-size="10.00">ParametersWindow</text>
</a>
</g>
</g>
<!-- Node0&#45;&gt;Node6 -->
<g id="edge63_Node000000_Node000006" class="edge">
<title>Node0&#45;&gt;Node6</title>
<g id="a_edge63_Node000000_Node000006"><a xlink:title=" ">
<path fill="none" stroke="#63b8ff" d="M41.24,-304.74C52.44,-322.08 71.61,-347.53 95,-361.5 103.26,-366.43 112.71,-370.02 122.19,-372.62"/>
<polygon fill="#63b8ff" stroke="#63b8ff" points="44.11,-302.72 35.87,-296.06 38.16,-306.4 44.11,-302.72"/>
</a>
</g>
</g>
<!-- Node7 -->
<g id="Node000007" class="node">
<title>Node7</title>
<g id="a_Node000007"><a xlink:href="classPidTab.html" target="_top" xlink:title=" ">
<polygon fill="white" stroke="#666666" points="202,-352 154,-352 154,-333 202,-333 202,-352"/>
<text text-anchor="middle" x="178" y="-340" font-family="Helvetica,sans-Serif" font-size="10.00">PidTab</text>
</a>
</g>
</g>
<!-- Node0&#45;&gt;Node7 -->
<g id="edge64_Node000000_Node000007" class="edge">
<title>Node0&#45;&gt;Node7</title>
<g id="a_edge64_Node000000_Node000007"><a xlink:title=" ">
<path fill="none" stroke="#63b8ff" d="M52.67,-301.93C64.72,-309.7 80.15,-318.67 95,-324.5 114.13,-332.01 137.06,-336.71 153.8,-339.41"/>
<polygon fill="#63b8ff" stroke="#63b8ff" points="54.45,-298.92 44.19,-296.31 50.59,-304.75 54.45,-298.92"/>
</a>
</g>
</g>
<!-- Node8 -->
<g id="Node000008" class="node">
<title>Node8</title>
<g id="a_Node000008"><a xlink:href="classPlot.html" target="_top" xlink:title=" ">
<polygon fill="white" stroke="#666666" points="195.5,-315 160.5,-315 160.5,-296 195.5,-296 195.5,-315"/>
<text text-anchor="middle" x="178" y="-303" font-family="Helvetica,sans-Serif" font-size="10.00">Plot</text>
</a>
</g>
</g>
<!-- Node0&#45;&gt;Node8 -->
<g id="edge65_Node000000_Node000008" class="edge">
<title>Node0&#45;&gt;Node8</title>
<g id="a_edge65_Node000000_Node000008"><a xlink:title=" ">
<path fill="none" stroke="#63b8ff" d="M69.13,-291.51C98.8,-295.36 138.3,-300.48 160.33,-303.34"/>
<polygon fill="#63b8ff" stroke="#63b8ff" points="69.46,-288.02 59.09,-290.21 68.56,-294.97 69.46,-288.02"/>
</a>
</g>
</g>
<!-- Node9 -->
<g id="Node000009" class="node">
<title>Node9</title>
<g id="a_Node000009"><a xlink:href="classTankPressureControlFrame.html" target="_top" xlink:title=" ">
<polygon fill="white" stroke="#666666" points="251.5,-278 104.5,-278 104.5,-259 251.5,-259 251.5,-278"/>
<text text-anchor="middle" x="178" y="-266" font-family="Helvetica,sans-Serif" font-size="10.00">TankPressureControlFrame</text>
</a>
</g>
</g>
<!-- Node0&#45;&gt;Node9 -->
<g id="edge66_Node000000_Node000009" class="edge">
<title>Node0&#45;&gt;Node9</title>
<g id="a_edge66_Node000000_Node000009"><a xlink:title=" ">
<path fill="none" stroke="#63b8ff" d="M69.09,-281.76C79.98,-280.42 92.21,-278.92 104.41,-277.42"/>
<polygon fill="#63b8ff" stroke="#63b8ff" points="68.59,-278.29 59.09,-282.99 69.45,-285.24 68.59,-278.29"/>
</a>
</g>
</g>
<!-- Node10 -->
<g id="Node000010" class="node">
<title>Node10</title>
<g id="a_Node000010"><a xlink:href="classTankPressureControler.html" target="_top" xlink:title=" ">
<polygon fill="white" stroke="#666666" points="241,-241 115,-241 115,-222 241,-222 241,-241"/>
<text text-anchor="middle" x="178" y="-229" font-family="Helvetica,sans-Serif" font-size="10.00">TankPressureControler</text>
</a>
</g>
</g>
<!-- Node0&#45;&gt;Node10 -->
<g id="edge67_Node000000_Node000010" class="edge">
<title>Node0&#45;&gt;Node10</title>
<g id="a_edge67_Node000000_Node000010"><a xlink:title=" ">
<path fill="none" stroke="#63b8ff" d="M53.63,-271.5C65.59,-264.29 80.65,-256.04 95,-250.5 104.68,-246.76 115.3,-243.64 125.59,-241.07"/>
<polygon fill="#63b8ff" stroke="#63b8ff" points="51.44,-268.74 44.78,-276.98 55.13,-274.69 51.44,-268.74"/>
</a>
</g>
</g>
<!-- Node11 -->
<g id="Node000011" class="node">
<title>Node11</title>
<g id="a_Node000011"><a xlink:href="classTestLauncher.html" target="_top" xlink:title=" ">
<polygon fill="white" stroke="#666666" points="218,-204 138,-204 138,-185 218,-185 218,-204"/>
<text text-anchor="middle" x="178" y="-192" font-family="Helvetica,sans-Serif" font-size="10.00">TestLauncher</text>
</a>
</g>
</g>
<!-- Node0&#45;&gt;Node11 -->
<g id="edge68_Node000000_Node000011" class="edge">
<title>Node0&#45;&gt;Node11</title>
<g id="a_edge68_Node000000_Node000011"><a xlink:title=" ">
<path fill="none" stroke="#63b8ff" d="M41.58,-268.54C52.91,-251.71 72.08,-227.16 95,-213.5 107.93,-205.79 123.73,-201.21 138,-198.49"/>
<polygon fill="#63b8ff" stroke="#63b8ff" points="38.61,-266.68 36.11,-276.98 44.48,-270.49 38.61,-266.68"/>
</a>
</g>
</g>
<!-- Node12 -->
<g id="Node000012" class="node">
<title>Node12</title>
<g id="a_Node000012"><a xlink:href="classTestTab.html" target="_top" xlink:title=" ">
<polygon fill="white" stroke="#666666" points="204.5,-167 151.5,-167 151.5,-148 204.5,-148 204.5,-167"/>
<text text-anchor="middle" x="178" y="-155" font-family="Helvetica,sans-Serif" font-size="10.00">TestTab</text>
</a>
</g>
</g>
<!-- Node0&#45;&gt;Node12 -->
<g id="edge69_Node000000_Node000012" class="edge">
<title>Node0&#45;&gt;Node12</title>
<g id="a_edge69_Node000000_Node000012"><a xlink:title=" ">
<path fill="none" stroke="#63b8ff" d="M36.53,-266.99C45.28,-242.04 63.93,-199.35 95,-176.5 111.25,-164.55 133.81,-159.96 151.15,-158.27"/>
<polygon fill="#63b8ff" stroke="#63b8ff" points="33.11,-266.18 33.29,-276.78 39.75,-268.38 33.11,-266.18"/>
</a>
</g>
</g>
<!-- Node13 -->
<g id="Node000013" class="node">
<title>Node13</title>
<g id="a_Node000013"><a xlink:href="classUdpChannelParametersWidget.html" target="_top" xlink:title=" ">
<polygon fill="white" stroke="#666666" points="261,-130 95,-130 95,-111 261,-111 261,-130"/>
<text text-anchor="middle" x="178" y="-118" font-family="Helvetica,sans-Serif" font-size="10.00">UdpChannelParametersWidget</text>
</a>
</g>
</g>
<!-- Node0&#45;&gt;Node13 -->
<g id="edge70_Node000000_Node000013" class="edge">
<title>Node0&#45;&gt;Node13</title>
<g id="a_edge70_Node000000_Node000013"><a xlink:title=" ">
<path fill="none" stroke="#63b8ff" d="M33.45,-266.58C39.26,-234.7 55.26,-172.46 95,-139.5 99.61,-135.67 104.85,-132.59 110.39,-130.1"/>
<polygon fill="#63b8ff" stroke="#63b8ff" points="29.93,-266.4 31.75,-276.84 36.84,-267.55 29.93,-266.4"/>
</a>
</g>
</g>
<!-- Node14 -->
<g id="Node000014" class="node">
<title>Node14</title>
<g id="a_Node000014"><a xlink:href="classactuatorControlFrame.html" target="_top" xlink:title=" ">
<polygon fill="white" stroke="#666666" points="239.5,-93 116.5,-93 116.5,-74 239.5,-74 239.5,-93"/>
<text text-anchor="middle" x="178" y="-81" font-family="Helvetica,sans-Serif" font-size="10.00">actuatorControlFrame</text>
</a>
</g>
</g>
<!-- Node0&#45;&gt;Node14 -->
<g id="edge71_Node000000_Node000014" class="edge">
<title>Node0&#45;&gt;Node14</title>
<g id="a_edge71_Node000000_Node000014"><a xlink:title=" ">
<path fill="none" stroke="#63b8ff" d="M31.45,-266.49C34.39,-228.57 46.34,-146.11 95,-102.5 101.09,-97.04 108.45,-93.06 116.21,-90.17"/>
<polygon fill="#63b8ff" stroke="#63b8ff" points="27.95,-266.54 30.8,-276.74 34.93,-266.99 27.95,-266.54"/>
</a>
</g>
</g>
<!-- Node15 -->
<g id="Node000015" class="node">
<title>Node15</title>
<g id="a_Node000015"><a xlink:href="classlogTerminalFrame.html" target="_top" xlink:title=" ">
<polygon fill="white" stroke="#666666" points="230,-56 126,-56 126,-37 230,-37 230,-56"/>
<text text-anchor="middle" x="178" y="-44" font-family="Helvetica,sans-Serif" font-size="10.00">logTerminalFrame</text>
</a>
</g>
</g>
<!-- Node0&#45;&gt;Node15 -->
<g id="edge72_Node000000_Node000015" class="edge">
<title>Node0&#45;&gt;Node15</title>
<g id="a_edge72_Node000000_Node000015"><a xlink:title=" ">
<path fill="none" stroke="#63b8ff" d="M30.07,-266.77C30.27,-223.58 37.14,-120.19 95,-65.5 103.39,-57.57 114.41,-52.72 125.64,-49.82"/>
<polygon fill="#63b8ff" stroke="#63b8ff" points="26.57,-266.85 30.15,-276.82 33.57,-266.8 26.57,-266.85"/>
</a>
</g>
</g>
<!-- Node16 -->
<g id="Node000016" class="node">
<title>Node16</title>
<g id="a_Node000016"><a xlink:href="classtvcControlFrame.html" target="_top" xlink:title=" ">
<polygon fill="white" stroke="#666666" points="227,-19 129,-19 129,0 227,0 227,-19"/>
<text text-anchor="middle" x="178" y="-7" font-family="Helvetica,sans-Serif" font-size="10.00">tvcControlFrame</text>
</a>
</g>
</g>
<!-- Node0&#45;&gt;Node16 -->
<g id="edge73_Node000000_Node000016" class="edge">
<title>Node0&#45;&gt;Node16</title>
<g id="a_edge73_Node000000_Node000016"><a xlink:title=" ">
<path fill="none" stroke="#63b8ff" d="M32.78,-266.76C39.44,-212.39 60.65,-62.26 95,-28.5 104.07,-19.59 116.44,-14.54 128.83,-11.76"/>
<polygon fill="#63b8ff" stroke="#63b8ff" points="29.28,-266.49 31.58,-276.83 36.24,-267.31 29.28,-266.49"/>
</a>
</g>
</g>
</g>
</svg>
