<?xml version="1.0" encoding="UTF-8" standalone="no"?>
<!DOCTYPE svg PUBLIC "-//W3C//DTD SVG 1.1//EN"
 "http://www.w3.org/Graphics/SVG/1.1/DTD/svg11.dtd">
<!-- Generated by graphviz version 2.43.0 (0)
 -->
<!-- Title: Graphical Class Hierarchy Pages: 1 -->
<svg width="355pt" height="119pt"
 viewBox="0.00 0.00 355.00 119.00" xmlns="http://www.w3.org/2000/svg" xmlns:xlink="http://www.w3.org/1999/xlink">
<g id="graph0" class="graph" transform="scale(1 1) rotate(0) translate(4 115)">
<title>Graphical Class Hierarchy</title>
<!-- Node0 -->
<g id="Node000000" class="node">
<title>Node0</title>
<g id="a_Node000000"><a xlink:title=" ">
<polygon fill="#e0e0e0" stroke="#999999" points="55,-56 0,-56 0,-37 55,-37 55,-56"/>
<text text-anchor="middle" x="27.5" y="-44" font-family="Helvetica,sans-Serif" font-size="10.00">QFrame</text>
</a>
</g>
</g>
<!-- Node1 -->
<g id="Node000001" class="node">
<title>Node1</title>
<g id="a_Node000001"><a xlink:href="classActuatorSwitchWidget.html" target="_top" xlink:title=" ">
<polygon fill="white" stroke="#666666" points="216,-93 91,-93 91,-74 216,-74 216,-93"/>
<text text-anchor="middle" x="153.5" y="-81" font-family="Helvetica,sans-Serif" font-size="10.00">ActuatorSwitchWidget</text>
</a>
</g>
</g>
<!-- Node0&#45;&gt;Node1 -->
<g id="edge14_Node000000_Node000001" class="edge">
<title>Node0&#45;&gt;Node1</title>
<g id="a_edge14_Node000000_Node000001"><a xlink:title=" ">
<path fill="none" stroke="#63b8ff" d="M64.96,-57.65C73.5,-60.25 82.56,-62.98 91,-65.5 100.27,-68.27 110.35,-71.23 119.61,-73.94"/>
<polygon fill="#63b8ff" stroke="#63b8ff" points="65.83,-54.26 55.25,-54.7 63.79,-60.96 65.83,-54.26"/>
</a>
</g>
</g>
<!-- Node4 -->
<g id="Node000004" class="node">
<title>Node4</title>
<g id="a_Node000004"><a xlink:href="classCountdownClock.html" target="_top" xlink:title=" ">
<polygon fill="white" stroke="#666666" points="202.5,-56 104.5,-56 104.5,-37 202.5,-37 202.5,-56"/>
<text text-anchor="middle" x="153.5" y="-44" font-family="Helvetica,sans-Serif" font-size="10.00">CountdownClock</text>
</a>
</g>
</g>
<!-- Node0&#45;&gt;Node4 -->
<g id="edge17_Node000000_Node000004" class="edge">
<title>Node0&#45;&gt;Node4</title>
<g id="a_edge17_Node000000_Node000004"><a xlink:title=" ">
<path fill="none" stroke="#63b8ff" d="M65.4,-46.5C77.65,-46.5 91.47,-46.5 104.43,-46.5"/>
<polygon fill="#63b8ff" stroke="#63b8ff" points="65.1,-43 55.1,-46.5 65.1,-50 65.1,-43"/>
</a>
</g>
</g>
<!-- Node5 -->
<g id="Node000005" class="node">
<title>Node5</title>
<g id="a_Node000005"><a xlink:href="classDebugDisplay.html" target="_top" xlink:title=" ">
<polygon fill="white" stroke="#666666" points="196,-19 111,-19 111,0 196,0 196,-19"/>
<text text-anchor="middle" x="153.5" y="-7" font-family="Helvetica,sans-Serif" font-size="10.00">DebugDisplay</text>
</a>
</g>
</g>
<!-- Node0&#45;&gt;Node5 -->
<g id="edge18_Node000000_Node000005" class="edge">
<title>Node0&#45;&gt;Node5</title>
<g id="a_edge18_Node000000_Node000005"><a xlink:title=" ">
<path fill="none" stroke="#63b8ff" d="M64.98,-35.62C82.49,-30.39 103.29,-24.18 120.22,-19.13"/>
<polygon fill="#63b8ff" stroke="#63b8ff" points="63.68,-32.35 55.1,-38.56 65.68,-39.06 63.68,-32.35"/>
</a>
</g>
</g>
<!-- Node2 -->
<g id="Node000002" class="node">
<title>Node2</title>
<g id="a_Node000002"><a xlink:href="classGlowPlugSwitch.html" target="_top" xlink:title=" ">
<polygon fill="white" stroke="#666666" points="347,-111 252,-111 252,-92 347,-92 347,-111"/>
<text text-anchor="middle" x="299.5" y="-99" font-family="Helvetica,sans-Serif" font-size="10.00">GlowPlugSwitch</text>
</a>
</g>
</g>
<!-- Node1&#45;&gt;Node2 -->
<g id="edge15_Node000001_Node000002" class="edge">
<title>Node1&#45;&gt;Node2</title>
<g id="a_edge15_Node000001_Node000002"><a xlink:title=" ">
<path fill="none" stroke="#63b8ff" d="M226.5,-92.5C235.12,-93.58 243.74,-94.66 251.87,-95.67"/>
<polygon fill="#63b8ff" stroke="#63b8ff" points="226.76,-89.01 216.4,-91.24 225.89,-95.95 226.76,-89.01"/>
</a>
</g>
</g>
<!-- Node3 -->
<g id="Node000003" class="node">
<title>Node3</title>
<g id="a_Node000003"><a xlink:href="classValveSwitch.html" target="_top" xlink:title=" ">
<polygon fill="white" stroke="#666666" points="337.5,-74 261.5,-74 261.5,-55 337.5,-55 337.5,-74"/>
<text text-anchor="middle" x="299.5" y="-62" font-family="Helvetica,sans-Serif" font-size="10.00">ValveSwitch</text>
</a>
</g>
</g>
<!-- Node1&#45;&gt;Node3 -->
<g id="edge16_Node000001_Node000003" class="edge">
<title>Node1&#45;&gt;Node3</title>
<g id="a_edge16_Node000001_Node000003"><a xlink:title=" ">
<path fill="none" stroke="#63b8ff" d="M226.47,-74C238.48,-72.42 250.5,-70.83 261.18,-69.42"/>
<polygon fill="#63b8ff" stroke="#63b8ff" points="225.86,-70.55 216.4,-75.33 226.78,-77.49 225.86,-70.55"/>
</a>
</g>
</g>
</g>
</svg>
