<?xml version="1.0" encoding="UTF-8" standalone="no"?>
<!DOCTYPE svg PUBLIC "-//W3C//DTD SVG 1.1//EN"
 "http://www.w3.org/Graphics/SVG/1.1/DTD/svg11.dtd">
<!-- Generated by graphviz version 2.43.0 (0)
 -->
<!-- Title: Graphical Class Hierarchy Pages: 1 -->
<svg width="170pt" height="101pt"
 viewBox="0.00 0.00 170.00 101.00" xmlns="http://www.w3.org/2000/svg" xmlns:xlink="http://www.w3.org/1999/xlink">
<g id="graph0" class="graph" transform="scale(1 1) rotate(0) translate(4 97)">
<title>Graphical Class Hierarchy</title>
<!-- Node0 -->
<g id="Node000000" class="node">
<title>Node0</title>
<g id="a_Node000000"><a xlink:title=" ">
<polygon fill="#e0e0e0" stroke="#999999" points="51,-56 0,-56 0,-37 51,-37 51,-56"/>
<text text-anchor="middle" x="25.5" y="-44" font-family="Helvetica,sans-Serif" font-size="10.00">QMenu</text>
</a>
</g>
</g>
<!-- Node1 -->
<g id="Node000001" class="node">
<title>Node1</title>
<g id="a_Node000001"><a xlink:href="classExportMenu.html" target="_top" xlink:title=" ">
<polygon fill="white" stroke="#666666" points="162,-93 87,-93 87,-74 162,-74 162,-93"/>
<text text-anchor="middle" x="124.5" y="-81" font-family="Helvetica,sans-Serif" font-size="10.00">ExportMenu</text>
</a>
</g>
</g>
<!-- Node0&#45;&gt;Node1 -->
<g id="edge27_Node000000_Node000001" class="edge">
<title>Node0&#45;&gt;Node1</title>
<g id="a_edge27_Node000000_Node000001"><a xlink:title=" ">
<path fill="none" stroke="#63b8ff" d="M60.82,-59.59C73.24,-64.33 87.01,-69.58 98.48,-73.96"/>
<polygon fill="#63b8ff" stroke="#63b8ff" points="61.82,-56.23 51.23,-55.93 59.32,-62.77 61.82,-56.23"/>
</a>
</g>
</g>
<!-- Node2 -->
<g id="Node000002" class="node">
<title>Node2</title>
<g id="a_Node000002"><a xlink:href="classFilesMenu.html" target="_top" xlink:title=" ">
<polygon fill="white" stroke="#666666" points="157.5,-56 91.5,-56 91.5,-37 157.5,-37 157.5,-56"/>
<text text-anchor="middle" x="124.5" y="-44" font-family="Helvetica,sans-Serif" font-size="10.00">FilesMenu</text>
</a>
</g>
</g>
<!-- Node0&#45;&gt;Node2 -->
<g id="edge28_Node000000_Node000002" class="edge">
<title>Node0&#45;&gt;Node2</title>
<g id="a_edge28_Node000000_Node000002"><a xlink:title=" ">
<path fill="none" stroke="#63b8ff" d="M61.46,-46.5C71.26,-46.5 81.86,-46.5 91.48,-46.5"/>
<polygon fill="#63b8ff" stroke="#63b8ff" points="61.23,-43 51.23,-46.5 61.23,-50 61.23,-43"/>
</a>
</g>
</g>
<!-- Node3 -->
<g id="Node000003" class="node">
<title>Node3</title>
<g id="a_Node000003"><a xlink:href="classToolsMenu.html" target="_top" xlink:title=" ">
<polygon fill="white" stroke="#666666" points="158.5,-19 90.5,-19 90.5,0 158.5,0 158.5,-19"/>
<text text-anchor="middle" x="124.5" y="-7" font-family="Helvetica,sans-Serif" font-size="10.00">ToolsMenu</text>
</a>
</g>
</g>
<!-- Node0&#45;&gt;Node3 -->
<g id="edge29_Node000000_Node000003" class="edge">
<title>Node0&#45;&gt;Node3</title>
<g id="a_edge29_Node000000_Node000003"><a xlink:title=" ">
<path fill="none" stroke="#63b8ff" d="M60.82,-33.41C73.24,-28.67 87.01,-23.42 98.48,-19.04"/>
<polygon fill="#63b8ff" stroke="#63b8ff" points="59.32,-30.23 51.23,-37.07 61.82,-36.77 59.32,-30.23"/>
</a>
</g>
</g>
</g>
</svg>
