<?xml version="1.0" encoding="UTF-8" standalone="no"?>
<!DOCTYPE svg PUBLIC "-//W3C//DTD SVG 1.1//EN"
 "http://www.w3.org/Graphics/SVG/1.1/DTD/svg11.dtd">
<!-- Generated by graphviz version 2.43.0 (0)
 -->
<!-- Title: features/pid/misc/initialise_valve/InitialiseValveButtonWidget.cpp Pages: 1 -->
<svg width="330pt" height="159pt"
 viewBox="0.00 0.00 330.00 159.00" xmlns="http://www.w3.org/2000/svg" xmlns:xlink="http://www.w3.org/1999/xlink">
<g id="graph0" class="graph" transform="scale(1 1) rotate(0) translate(4 155)">
<title>features/pid/misc/initialise_valve/InitialiseValveButtonWidget.cpp</title>
<!-- Node1 -->
<g id="Node000001" class="node">
<title>Node1</title>
<g id="a_Node000001"><a xlink:title=" ">
<polygon fill="#999999" stroke="#666666" points="270,-151 62,-151 62,-121 270,-121 270,-151"/>
<text text-anchor="start" x="70" y="-139" font-family="Helvetica,sans-Serif" font-size="10.00">features/pid/misc/initialise</text>
<text text-anchor="middle" x="166" y="-128" font-family="Helvetica,sans-Serif" font-size="10.00">_valve/InitialiseValveButtonWidget.cpp</text>
</a>
</g>
</g>
<!-- Node2 -->
<g id="Node000002" class="node">
<title>Node2</title>
<g id="a_Node000002"><a xlink:href="InitialiseValveButtonWidget_8h.html" target="_top" xlink:title=" ">
<polygon fill="white" stroke="#666666" points="161.5,-79.5 0.5,-79.5 0.5,-60.5 161.5,-60.5 161.5,-79.5"/>
<text text-anchor="middle" x="81" y="-67.5" font-family="Helvetica,sans-Serif" font-size="10.00">InitialiseValveButtonWidget.h</text>
</a>
</g>
</g>
<!-- Node1&#45;&gt;Node2 -->
<g id="edge1_Node000001_Node000002" class="edge">
<title>Node1&#45;&gt;Node2</title>
<g id="a_edge1_Node000001_Node000002"><a xlink:title=" ">
<path fill="none" stroke="#63b8ff" d="M147.14,-120.8C133.36,-110.43 114.74,-96.4 100.76,-85.88"/>
<polygon fill="#63b8ff" stroke="#63b8ff" points="102.84,-83.06 92.75,-79.84 98.63,-88.66 102.84,-83.06"/>
</a>
</g>
</g>
<!-- Node5 -->
<g id="Node000005" class="node">
<title>Node5</title>
<g id="a_Node000005"><a xlink:href="InitialiseValveButtonViewModel_8h.html" target="_top" xlink:title=" ">
<polygon fill="white" stroke="#666666" points="322,-85 180,-85 180,-55 322,-55 322,-85"/>
<text text-anchor="start" x="188" y="-73" font-family="Helvetica,sans-Serif" font-size="10.00">InitialiseValveButtonView</text>
<text text-anchor="middle" x="251" y="-62" font-family="Helvetica,sans-Serif" font-size="10.00">Model.h</text>
</a>
</g>
</g>
<!-- Node1&#45;&gt;Node5 -->
<g id="edge4_Node000001_Node000005" class="edge">
<title>Node1&#45;&gt;Node5</title>
<g id="a_edge4_Node000001_Node000005"><a xlink:title=" ">
<path fill="none" stroke="#63b8ff" d="M184.86,-120.8C196.42,-112.1 211.39,-100.82 224.17,-91.2"/>
<polygon fill="#63b8ff" stroke="#63b8ff" points="226.31,-93.98 232.19,-85.16 222.09,-88.38 226.31,-93.98"/>
</a>
</g>
</g>
<!-- Node3 -->
<g id="Node000003" class="node">
<title>Node3</title>
<g id="a_Node000003"><a xlink:title=" ">
<polygon fill="#e0e0e0" stroke="#999999" points="80,-19 0,-19 0,0 80,0 80,-19"/>
<text text-anchor="middle" x="40" y="-7" font-family="Helvetica,sans-Serif" font-size="10.00">QPushButton</text>
</a>
</g>
</g>
<!-- Node2&#45;&gt;Node3 -->
<g id="edge2_Node000002_Node000003" class="edge">
<title>Node2&#45;&gt;Node3</title>
<g id="a_edge2_Node000002_Node000003"><a xlink:title=" ">
<path fill="none" stroke="#63b8ff" d="M74.95,-60.37C68.89,-51.73 59.41,-38.2 51.86,-27.42"/>
<polygon fill="#63b8ff" stroke="#63b8ff" points="54.68,-25.35 46.07,-19.17 48.95,-29.37 54.68,-25.35"/>
</a>
</g>
</g>
<!-- Node4 -->
<g id="Node000004" class="node">
<title>Node4</title>
<g id="a_Node000004"><a xlink:title=" ">
<polygon fill="#e0e0e0" stroke="#999999" points="147.5,-19 98.5,-19 98.5,0 147.5,0 147.5,-19"/>
<text text-anchor="middle" x="123" y="-7" font-family="Helvetica,sans-Serif" font-size="10.00">QPoint</text>
</a>
</g>
</g>
<!-- Node2&#45;&gt;Node4 -->
<g id="edge3_Node000002_Node000004" class="edge">
<title>Node2&#45;&gt;Node4</title>
<g id="a_edge3_Node000002_Node000004"><a xlink:title=" ">
<path fill="none" stroke="#63b8ff" d="M87.2,-60.37C93.4,-51.73 103.11,-38.2 110.86,-27.42"/>
<polygon fill="#63b8ff" stroke="#63b8ff" points="113.79,-29.33 116.78,-19.17 108.1,-25.25 113.79,-29.33"/>
</a>
</g>
</g>
<!-- Node6 -->
<g id="Node000006" class="node">
<title>Node6</title>
<g id="a_Node000006"><a xlink:title=" ">
<polygon fill="#e0e0e0" stroke="#999999" points="279,-19 223,-19 223,0 279,0 279,-19"/>
<text text-anchor="middle" x="251" y="-7" font-family="Helvetica,sans-Serif" font-size="10.00">QObject</text>
</a>
</g>
</g>
<!-- Node5&#45;&gt;Node6 -->
<g id="edge5_Node000005_Node000006" class="edge">
<title>Node5&#45;&gt;Node6</title>
<g id="a_edge5_Node000005_Node000006"><a xlink:title=" ">
<path fill="none" stroke="#63b8ff" d="M251,-54.84C251,-47.21 251,-37.7 251,-29.45"/>
<polygon fill="#63b8ff" stroke="#63b8ff" points="254.5,-29.27 251,-19.27 247.5,-29.27 254.5,-29.27"/>
</a>
</g>
</g>
</g>
</svg>
