<?xml version="1.0" encoding="UTF-8" standalone="no"?>
<!DOCTYPE svg PUBLIC "-//W3C//DTD SVG 1.1//EN"
 "http://www.w3.org/Graphics/SVG/1.1/DTD/svg11.dtd">
<!-- Generated by graphviz version 2.43.0 (0)
 -->
<!-- Title: features/pid/misc/initialise_valve/InitialiseValveButtonViewModel.cpp Pages: 1 -->
<!--zoomable 412 -->

<svg id="main" version="1.1" xmlns="http://www.w3.org/2000/svg" xmlns:xlink="http://www.w3.org/1999/xlink" xml:space="preserve" onload="init(evt)">
<style type="text/css"><![CDATA[
.node, .edge {opacity: 0.7;}
.node.selected, .edge.selected {opacity: 1;}
.edge:hover path { stroke: red; }
.edge:hover polygon { stroke: red; fill: red; }
]]></style>

<defs>
  <circle id="rim" cx="0" cy="0" r="7"/>
  <circle id="rim2" cx="0" cy="0" r="3.5"/>
  <g id="zoomPlus">
    <use xlink:href="#rim" fill="#404040"><set attributeName="fill" to="#808080" begin="zoomplus.mouseover" end="zoomplus.mouseout"/></use>
    <path d="M-4,0h8M0,-4v8" fill="none" stroke="white" stroke-width="1.5" pointer-events="none"/>
  </g>
  <g id="zoomMin">
    <use xlink:href="#rim" fill="#404040"><set attributeName="fill" to="#808080" begin="zoomminus.mouseover" end="zoomminus.mouseout"/></use>
    <path d="M-4,0h8" fill="none" stroke="white" stroke-width="1.5" pointer-events="none"/>
  </g>
  <g id="arrowUp" transform="translate(30 24)">
    <use xlink:href="#rim"/>
    <path pointer-events="none" fill="none" stroke="white" stroke-width="1.5" d="M0,-3.0v7 M-2.5,-0.5L0,-3.0L2.5,-0.5"/>
  </g>
  <g id="arrowRight" transform="rotate(90) translate(36 -43)">
    <use xlink:href="#rim"/>
    <path pointer-events="none" fill="none" stroke="white" stroke-width="1.5" d="M0,-3.0v7 M-2.5,-0.5L0,-3.0L2.5,-0.5"/>
  </g>
  <g id="arrowDown" transform="rotate(180) translate(-30 -48)">
    <use xlink:href="#rim"/>
    <path pointer-events="none" fill="none" stroke="white" stroke-width="1.5" d="M0,-3.0v7 M-2.5,-0.5L0,-3.0L2.5,-0.5"/>
  </g>
  <g id="arrowLeft" transform="rotate(270) translate(-36 17)">
    <use xlink:href="#rim"/>
    <path pointer-events="none" fill="none" stroke="white" stroke-width="1.5" d="M0,-3.0v7 M-2.5,-0.5L0,-3.0L2.5,-0.5"/>
  </g>
  <g id="resetDef">
    <use xlink:href="#rim2" fill="#404040"><set attributeName="fill" to="#808080" begin="reset.mouseover" end="reset.mouseout"/></use>
  </g>
</defs>
<script type="application/ecmascript">
var viewWidth = 888;
var viewHeight = 412;
var sectionId = 'dynsection-0';
</script>
<script type="application/ecmascript" xlink:href="svg.min.js"/>
<svg id="graph" class="graph">
<g id="viewport">
<title>features/pid/misc/initialise_valve/InitialiseValveButtonViewModel.cpp</title>
<!-- Node1 -->
<g id="Node000001" class="node">
<title>Node1</title>
<g id="a_Node000001"><a xlink:title=" ">
<polygon fill="#999999" stroke="#666666" points="310.5,-404 133.5,-404 133.5,-363 310.5,-363 310.5,-404"/>
<text text-anchor="start" x="141.5" y="-392" font-family="Helvetica,sans-Serif" font-size="10.00">features/pid/misc/initialise</text>
<text text-anchor="start" x="141.5" y="-381" font-family="Helvetica,sans-Serif" font-size="10.00">_valve/InitialiseValveButtonView</text>
<text text-anchor="middle" x="222" y="-370" font-family="Helvetica,sans-Serif" font-size="10.00">Model.cpp</text>
</a>
</g>
</g>
<!-- Node2 -->
<g id="Node000002" class="node">
<title>Node2</title>
<g id="a_Node000002"><a xlink:href="InitialiseValveButtonViewModel_8h.html" target="_top" xlink:title=" ">
<polygon fill="white" stroke="#666666" points="142,-327 0,-327 0,-297 142,-297 142,-327"/>
<text text-anchor="start" x="8" y="-315" font-family="Helvetica,sans-Serif" font-size="10.00">InitialiseValveButtonView</text>
<text text-anchor="middle" x="71" y="-304" font-family="Helvetica,sans-Serif" font-size="10.00">Model.h</text>
</a>
</g>
</g>
<!-- Node1&#45;&gt;Node2 -->
<g id="edge1_Node000001_Node000002" class="edge">
<title>Node1&#45;&gt;Node2</title>
<g id="a_edge1_Node000001_Node000002"><a xlink:title=" ">
<path fill="none" stroke="#63b8ff" d="M179.54,-362.96C158.05,-353.07 132.12,-341.13 111,-331.41"/>
<polygon fill="#63b8ff" stroke="#63b8ff" points="112.21,-328.11 101.66,-327.11 109.28,-334.47 112.21,-328.11"/>
</a>
</g>
</g>
<!-- Node4 -->
<g id="Node000004" class="node">
<title>Node4</title>
<g id="a_Node000004"><a xlink:href="UdpChannel_8h.html" target="_top" xlink:title="UDP communication channel between the microcontroller and the HMI.">
<polygon fill="white" stroke="#666666" points="383.5,-327 230.5,-327 230.5,-297 383.5,-297 383.5,-327"/>
<text text-anchor="start" x="238.5" y="-315" font-family="Helvetica,sans-Serif" font-size="10.00">src/features/communication</text>
<text text-anchor="middle" x="307" y="-304" font-family="Helvetica,sans-Serif" font-size="10.00">/udp/UdpChannel.h</text>
</a>
</g>
</g>
<!-- Node1&#45;&gt;Node4 -->
<g id="edge3_Node000001_Node000004" class="edge">
<title>Node1&#45;&gt;Node4</title>
<g id="a_edge3_Node000001_Node000004"><a xlink:title=" ">
<path fill="none" stroke="#63b8ff" d="M246.13,-362.77C257.35,-353.6 270.68,-342.7 282,-333.44"/>
<polygon fill="#63b8ff" stroke="#63b8ff" points="284.3,-336.08 289.83,-327.04 279.87,-330.66 284.3,-336.08"/>
</a>
</g>
</g>
<!-- Node5 -->
<g id="Node000005" class="node">
<title>Node5</title>
<g id="a_Node000005"><a xlink:title=" ">
<polygon fill="#e0e0e0" stroke="#999999" points="682,-261 624,-261 624,-242 682,-242 682,-261"/>
<text text-anchor="middle" x="653" y="-249" font-family="Helvetica,sans-Serif" font-size="10.00">QThread</text>
</a>
</g>
</g>
<!-- Node1&#45;&gt;Node5 -->
<g id="edge35_Node000001_Node000005" class="edge">
<title>Node1&#45;&gt;Node5</title>
<g id="a_edge35_Node000001_Node000005"><a xlink:title=" ">
<path fill="none" stroke="#63b8ff" d="M286.99,-362.9C378.18,-335.39 541.18,-286.23 614.91,-263.99"/>
<polygon fill="#63b8ff" stroke="#63b8ff" points="616.15,-267.27 624.71,-261.03 614.12,-260.57 616.15,-267.27"/>
</a>
</g>
</g>
<!-- Node7 -->
<g id="Node000007" class="node">
<title>Node7</title>
<g id="a_Node000007"><a xlink:href="Messages_8h.html" target="_top" xlink:title=" ">
<polygon fill="white" stroke="#666666" points="345.5,-85 242.5,-85 242.5,-55 345.5,-55 345.5,-85"/>
<text text-anchor="start" x="250.5" y="-73" font-family="Helvetica,sans-Serif" font-size="10.00">src/core/Protocols</text>
<text text-anchor="middle" x="294" y="-62" font-family="Helvetica,sans-Serif" font-size="10.00">/Messages.h</text>
</a>
</g>
</g>
<!-- Node1&#45;&gt;Node7 -->
<g id="edge34_Node000001_Node000007" class="edge">
<title>Node1&#45;&gt;Node7</title>
<g id="a_edge34_Node000001_Node000007"><a xlink:title=" ">
<path fill="none" stroke="#63b8ff" d="M221.49,-362.79C221.17,-345.46 220.98,-319.54 222,-297 223.11,-272.48 221.36,-265.89 227,-242 239.96,-187.16 266.95,-126.55 282.43,-94.27"/>
<polygon fill="#63b8ff" stroke="#63b8ff" points="285.62,-95.72 286.84,-85.19 279.32,-92.66 285.62,-95.72"/>
</a>
</g>
</g>
<!-- Node3 -->
<g id="Node000003" class="node">
<title>Node3</title>
<g id="a_Node000003"><a xlink:title=" ">
<polygon fill="#e0e0e0" stroke="#999999" points="114,-19 58,-19 58,0 114,0 114,-19"/>
<text text-anchor="middle" x="86" y="-7" font-family="Helvetica,sans-Serif" font-size="10.00">QObject</text>
</a>
</g>
</g>
<!-- Node2&#45;&gt;Node3 -->
<g id="edge2_Node000002_Node000003" class="edge">
<title>Node2&#45;&gt;Node3</title>
<g id="a_edge2_Node000002_Node000003"><a xlink:title=" ">
<path fill="none" stroke="#63b8ff" d="M72.04,-296.68C73.5,-275.16 76,-233.2 76,-197.5 76,-197.5 76,-197.5 76,-135 76,-97.37 80.59,-53.56 83.55,-29.23"/>
<polygon fill="#63b8ff" stroke="#63b8ff" points="87.04,-29.59 84.81,-19.24 80.09,-28.72 87.04,-29.59"/>
</a>
</g>
</g>
<!-- Node4&#45;&gt;Node3 -->
<g id="edge4_Node000004_Node000003" class="edge">
<title>Node4&#45;&gt;Node3</title>
<g id="a_edge4_Node000004_Node000003"><a xlink:title=" ">
<path fill="none" stroke="#63b8ff" d="M277.09,-296.96C260.86,-288.27 241.25,-275.92 227,-261 156.94,-187.65 109.25,-72.88 92.57,-28.69"/>
<polygon fill="#63b8ff" stroke="#63b8ff" points="95.83,-27.42 89.08,-19.26 89.27,-29.85 95.83,-27.42"/>
</a>
</g>
</g>
<!-- Node4&#45;&gt;Node5 -->
<g id="edge5_Node000004_Node000005" class="edge">
<title>Node4&#45;&gt;Node5</title>
<g id="a_edge5_Node000004_Node000005"><a xlink:title=" ">
<path fill="none" stroke="#63b8ff" d="M383.8,-299.82C443.87,-290.78 529.7,-277.21 613.99,-261.1"/>
<polygon fill="#63b8ff" stroke="#63b8ff" points="614.83,-264.5 623.99,-259.17 613.51,-257.63 614.83,-264.5"/>
</a>
</g>
</g>
<!-- Node6 -->
<g id="Node000006" class="node">
<title>Node6</title>
<g id="a_Node000006"><a xlink:title=" ">
<polygon fill="#e0e0e0" stroke="#999999" points="312,-261 236,-261 236,-242 312,-242 312,-261"/>
<text text-anchor="middle" x="274" y="-249" font-family="Helvetica,sans-Serif" font-size="10.00">QUdpSocket</text>
</a>
</g>
</g>
<!-- Node4&#45;&gt;Node6 -->
<g id="edge6_Node000004_Node000006" class="edge">
<title>Node4&#45;&gt;Node6</title>
<g id="a_edge6_Node000004_Node000006"><a xlink:title=" ">
<path fill="none" stroke="#63b8ff" d="M299.01,-296.84C294.47,-288.78 288.73,-278.62 283.9,-270.06"/>
<polygon fill="#63b8ff" stroke="#63b8ff" points="286.91,-268.26 278.94,-261.27 280.81,-271.7 286.91,-268.26"/>
</a>
</g>
</g>
<!-- Node4&#45;&gt;Node7 -->
<g id="edge7_Node000004_Node000007" class="edge">
<title>Node4&#45;&gt;Node7</title>
<g id="a_edge7_Node000004_Node000007"><a xlink:title=" ">
<path fill="none" stroke="#63b8ff" d="M312.1,-296.78C315.37,-286.89 319.31,-273.32 321,-261 329.21,-201.22 312.29,-130.92 301.69,-94.91"/>
<polygon fill="#63b8ff" stroke="#63b8ff" points="305.02,-93.84 298.76,-85.29 298.32,-95.88 305.02,-93.84"/>
</a>
</g>
</g>
<!-- Node15 -->
<g id="Node000015" class="node">
<title>Node15</title>
<g id="a_Node000015"><a xlink:href="UdpLogger_8h.html" target="_top" xlink:title="High&#45;frequency binary logger for UDP telemetry frames.">
<polygon fill="white" stroke="#666666" points="605.5,-261 454.5,-261 454.5,-242 605.5,-242 605.5,-261"/>
<text text-anchor="middle" x="530" y="-249" font-family="Helvetica,sans-Serif" font-size="10.00">frames_logger/UdpLogger.h</text>
</a>
</g>
</g>
<!-- Node4&#45;&gt;Node15 -->
<g id="edge16_Node000004_Node000015" class="edge">
<title>Node4&#45;&gt;Node15</title>
<g id="a_edge16_Node000004_Node000015"><a xlink:title=" ">
<path fill="none" stroke="#63b8ff" d="M360.41,-296.99C399.4,-286.76 451.53,-273.09 487.65,-263.61"/>
<polygon fill="#63b8ff" stroke="#63b8ff" points="488.61,-266.98 497.39,-261.05 486.83,-260.21 488.61,-266.98"/>
</a>
</g>
</g>
<!-- Node7&#45;&gt;Node3 -->
<g id="edge14_Node000007_Node000003" class="edge">
<title>Node7&#45;&gt;Node3</title>
<g id="a_edge14_Node000007_Node000003"><a xlink:title=" ">
<path fill="none" stroke="#63b8ff" d="M244.18,-54.99C207.26,-44.6 157.69,-30.66 123.95,-21.17"/>
<polygon fill="#63b8ff" stroke="#63b8ff" points="124.59,-17.72 114.02,-18.38 122.7,-24.46 124.59,-17.72"/>
</a>
</g>
</g>
<!-- Node8 -->
<g id="Node000008" class="node">
<title>Node8</title>
<g id="a_Node000008"><a xlink:title=" ">
<polygon fill="#e0e0e0" stroke="#999999" points="384.5,-19 333.5,-19 333.5,0 384.5,0 384.5,-19"/>
<text text-anchor="middle" x="359" y="-7" font-family="Helvetica,sans-Serif" font-size="10.00">variant</text>
</a>
</g>
</g>
<!-- Node7&#45;&gt;Node8 -->
<g id="edge8_Node000007_Node000008" class="edge">
<title>Node7&#45;&gt;Node8</title>
<g id="a_edge8_Node000007_Node000008"><a xlink:title=" ">
<path fill="none" stroke="#63b8ff" d="M309.73,-54.84C319.36,-46.17 331.69,-35.08 341.61,-26.15"/>
<polygon fill="#63b8ff" stroke="#63b8ff" points="344.17,-28.56 349.26,-19.27 339.49,-23.35 344.17,-28.56"/>
</a>
</g>
</g>
<!-- Node9 -->
<g id="Node000009" class="node">
<title>Node9</title>
<g id="a_Node000009"><a xlink:title=" ">
<polygon fill="#e0e0e0" stroke="#999999" points="754,-19 704,-19 704,0 754,0 754,-19"/>
<text text-anchor="middle" x="729" y="-7" font-family="Helvetica,sans-Serif" font-size="10.00">cstdint</text>
</a>
</g>
</g>
<!-- Node7&#45;&gt;Node9 -->
<g id="edge9_Node000007_Node000009" class="edge">
<title>Node7&#45;&gt;Node9</title>
<g id="a_edge9_Node000007_Node000009"><a xlink:title=" ">
<path fill="none" stroke="#63b8ff" d="M345.58,-62.06C362.3,-59.8 380.94,-57.3 398,-55 505.61,-40.52 632.89,-23.42 693.49,-15.27"/>
<polygon fill="#63b8ff" stroke="#63b8ff" points="694.22,-18.7 703.67,-13.9 693.29,-11.77 694.22,-18.7"/>
</a>
</g>
</g>
<!-- Node10 -->
<g id="Node000010" class="node">
<title>Node10</title>
<g id="a_Node000010"><a xlink:title=" ">
<polygon fill="#e0e0e0" stroke="#999999" points="538,-19 494,-19 494,0 538,0 538,-19"/>
<text text-anchor="middle" x="516" y="-7" font-family="Helvetica,sans-Serif" font-size="10.00">string</text>
</a>
</g>
</g>
<!-- Node7&#45;&gt;Node10 -->
<g id="edge10_Node000007_Node000010" class="edge">
<title>Node7&#45;&gt;Node10</title>
<g id="a_edge10_Node000007_Node000010"><a xlink:title=" ">
<path fill="none" stroke="#63b8ff" d="M345.52,-55.69C381.73,-46.29 431.56,-33.28 484.15,-19.21"/>
<polygon fill="#63b8ff" stroke="#63b8ff" points="485.24,-22.54 493.99,-16.57 483.43,-15.78 485.24,-22.54"/>
</a>
</g>
</g>
<!-- Node11 -->
<g id="Node000011" class="node">
<title>Node11</title>
<g id="a_Node000011"><a xlink:title=" ">
<polygon fill="#e0e0e0" stroke="#999999" points="475.5,-19 402.5,-19 402.5,0 475.5,0 475.5,-19"/>
<text text-anchor="middle" x="439" y="-7" font-family="Helvetica,sans-Serif" font-size="10.00">QByteArray</text>
</a>
</g>
</g>
<!-- Node7&#45;&gt;Node11 -->
<g id="edge11_Node000007_Node000011" class="edge">
<title>Node7&#45;&gt;Node11</title>
<g id="a_edge11_Node000007_Node000011"><a xlink:title=" ">
<path fill="none" stroke="#63b8ff" d="M328.73,-54.99C352.92,-45.23 384.9,-32.33 408.19,-22.93"/>
<polygon fill="#63b8ff" stroke="#63b8ff" points="409.62,-26.13 417.59,-19.14 407,-19.63 409.62,-26.13"/>
</a>
</g>
</g>
<!-- Node12 -->
<g id="Node000012" class="node">
<title>Node12</title>
<g id="a_Node000012"><a xlink:title=" ">
<polygon fill="#e0e0e0" stroke="#999999" points="181.5,-19 132.5,-19 132.5,0 181.5,0 181.5,-19"/>
<text text-anchor="middle" x="157" y="-7" font-family="Helvetica,sans-Serif" font-size="10.00">QHash</text>
</a>
</g>
</g>
<!-- Node7&#45;&gt;Node12 -->
<g id="edge12_Node000007_Node000012" class="edge">
<title>Node7&#45;&gt;Node12</title>
<g id="a_edge12_Node000007_Node000012"><a xlink:title=" ">
<path fill="none" stroke="#63b8ff" d="M261.19,-54.99C238.53,-45.31 208.65,-32.56 186.7,-23.18"/>
<polygon fill="#63b8ff" stroke="#63b8ff" points="187.8,-19.85 177.23,-19.14 185.05,-26.29 187.8,-19.85"/>
</a>
</g>
</g>
<!-- Node13 -->
<g id="Node000013" class="node">
<title>Node13</title>
<g id="a_Node000013"><a xlink:title=" ">
<polygon fill="#e0e0e0" stroke="#999999" points="252.5,-19 199.5,-19 199.5,0 252.5,0 252.5,-19"/>
<text text-anchor="middle" x="226" y="-7" font-family="Helvetica,sans-Serif" font-size="10.00">QString</text>
</a>
</g>
</g>
<!-- Node7&#45;&gt;Node13 -->
<g id="edge13_Node000007_Node000013" class="edge">
<title>Node7&#45;&gt;Node13</title>
<g id="a_edge13_Node000007_Node000013"><a xlink:title=" ">
<path fill="none" stroke="#63b8ff" d="M277.54,-54.84C267.37,-46.09 254.31,-34.85 243.88,-25.88"/>
<polygon fill="#63b8ff" stroke="#63b8ff" points="246.05,-23.13 236.19,-19.27 241.49,-28.44 246.05,-23.13"/>
</a>
</g>
</g>
<!-- Node14 -->
<g id="Node000014" class="node">
<title>Node14</title>
<g id="a_Node000014"><a xlink:title=" ">
<polygon fill="#e0e0e0" stroke="#999999" points="315.5,-19 270.5,-19 270.5,0 315.5,0 315.5,-19"/>
<text text-anchor="middle" x="293" y="-7" font-family="Helvetica,sans-Serif" font-size="10.00">QMap</text>
</a>
</g>
</g>
<!-- Node7&#45;&gt;Node14 -->
<g id="edge15_Node000007_Node000014" class="edge">
<title>Node7&#45;&gt;Node14</title>
<g id="a_edge15_Node000007_Node000014"><a xlink:title=" ">
<path fill="none" stroke="#63b8ff" d="M293.76,-54.84C293.63,-47.21 293.47,-37.7 293.32,-29.45"/>
<polygon fill="#63b8ff" stroke="#63b8ff" points="296.82,-29.2 293.15,-19.27 289.82,-29.32 296.82,-29.2"/>
</a>
</g>
</g>
<!-- Node15&#45;&gt;Node9 -->
<g id="edge18_Node000015_Node000009" class="edge">
<title>Node15&#45;&gt;Node9</title>
<g id="a_edge18_Node000015_Node000009"><a xlink:title=" ">
<path fill="none" stroke="#63b8ff" d="M594.4,-242C685.57,-228.39 844.62,-198.35 875,-151 895.15,-119.6 843.79,-55.73 843,-55 821.01,-34.69 788.7,-23.26 764.09,-17.08"/>
<polygon fill="#63b8ff" stroke="#63b8ff" points="764.6,-13.61 754.06,-14.75 763.01,-20.43 764.6,-13.61"/>
</a>
</g>
</g>
<!-- Node16 -->
<g id="Node000016" class="node">
<title>Node16</title>
<g id="a_Node000016"><a xlink:title=" ">
<polygon fill="#e0e0e0" stroke="#999999" points="692,-145.5 642,-145.5 642,-126.5 692,-126.5 692,-145.5"/>
<text text-anchor="middle" x="667" y="-133.5" font-family="Helvetica,sans-Serif" font-size="10.00">atomic</text>
</a>
</g>
</g>
<!-- Node15&#45;&gt;Node16 -->
<g id="edge17_Node000015_Node000016" class="edge">
<title>Node15&#45;&gt;Node16</title>
<g id="a_edge17_Node000015_Node000016"><a xlink:title=" ">
<path fill="none" stroke="#63b8ff" d="M538,-241.81C549.87,-229.13 573.11,-205.08 595,-187 610.94,-173.84 630.23,-160.57 644.83,-151.01"/>
<polygon fill="#63b8ff" stroke="#63b8ff" points="646.74,-153.94 653.24,-145.57 642.94,-148.06 646.74,-153.94"/>
</a>
</g>
</g>
<!-- Node17 -->
<g id="Node000017" class="node">
<title>Node17</title>
<g id="a_Node000017"><a xlink:title=" ">
<polygon fill="#e0e0e0" stroke="#999999" points="746,-206 698,-206 698,-187 746,-187 746,-206"/>
<text text-anchor="middle" x="722" y="-194" font-family="Helvetica,sans-Serif" font-size="10.00">thread</text>
</a>
</g>
</g>
<!-- Node15&#45;&gt;Node17 -->
<g id="edge19_Node000015_Node000017" class="edge">
<title>Node15&#45;&gt;Node17</title>
<g id="a_edge19_Node000015_Node000017"><a xlink:title=" ">
<path fill="none" stroke="#63b8ff" d="M560.85,-241.98C595.58,-232.4 651.86,-216.86 687.88,-206.92"/>
<polygon fill="#63b8ff" stroke="#63b8ff" points="689.21,-210.18 697.91,-204.15 687.34,-203.44 689.21,-210.18"/>
</a>
</g>
</g>
<!-- Node18 -->
<g id="Node000018" class="node">
<title>Node18</title>
<g id="a_Node000018"><a xlink:href="RingBuffer_8h.html" target="_top" xlink:title=" ">
<polygon fill="white" stroke="#666666" points="680,-206 604,-206 604,-187 680,-187 680,-206"/>
<text text-anchor="middle" x="642" y="-194" font-family="Helvetica,sans-Serif" font-size="10.00">RingBuffer.h</text>
</a>
</g>
</g>
<!-- Node15&#45;&gt;Node18 -->
<g id="edge20_Node000015_Node000018" class="edge">
<title>Node15&#45;&gt;Node18</title>
<g id="a_edge20_Node000015_Node000018"><a xlink:title=" ">
<path fill="none" stroke="#63b8ff" d="M547.99,-241.98C565.93,-233.5 593.72,-220.35 614.43,-210.54"/>
<polygon fill="#63b8ff" stroke="#63b8ff" points="616.14,-213.61 623.68,-206.17 613.14,-207.28 616.14,-213.61"/>
</a>
</g>
</g>
<!-- Node24 -->
<g id="Node000024" class="node">
<title>Node24</title>
<g id="a_Node000024"><a xlink:href="Writer_8h.html" target="_top" xlink:title=" ">
<polygon fill="white" stroke="#666666" points="522.5,-206 467.5,-206 467.5,-187 522.5,-187 522.5,-206"/>
<text text-anchor="middle" x="495" y="-194" font-family="Helvetica,sans-Serif" font-size="10.00">Writer.h</text>
</a>
</g>
</g>
<!-- Node15&#45;&gt;Node24 -->
<g id="edge29_Node000015_Node000024" class="edge">
<title>Node15&#45;&gt;Node24</title>
<g id="a_edge29_Node000015_Node000024"><a xlink:title=" ">
<path fill="none" stroke="#63b8ff" d="M524.22,-241.75C519.38,-234.42 512.32,-223.73 506.36,-214.7"/>
<polygon fill="#63b8ff" stroke="#63b8ff" points="509.1,-212.5 500.67,-206.09 503.26,-216.36 509.1,-212.5"/>
</a>
</g>
</g>
<!-- Node18&#45;&gt;Node9 -->
<g id="edge22_Node000018_Node000009" class="edge">
<title>Node18&#45;&gt;Node9</title>
<g id="a_edge22_Node000018_Node000009"><a xlink:title=" ">
<path fill="none" stroke="#63b8ff" d="M680.31,-188.2C741.37,-176.49 854.19,-154.45 857,-151 896.85,-102.06 805.72,-47.83 757.07,-23.53"/>
<polygon fill="#63b8ff" stroke="#63b8ff" points="758.48,-20.32 747.96,-19.07 755.41,-26.61 758.48,-20.32"/>
</a>
</g>
</g>
<!-- Node18&#45;&gt;Node16 -->
<g id="edge24_Node000018_Node000016" class="edge">
<title>Node18&#45;&gt;Node16</title>
<g id="a_edge24_Node000018_Node000016"><a xlink:title=" ">
<path fill="none" stroke="#63b8ff" d="M645.69,-186.87C649.27,-178.49 654.82,-165.51 659.35,-154.89"/>
<polygon fill="#63b8ff" stroke="#63b8ff" points="662.58,-156.24 663.3,-145.67 656.15,-153.49 662.58,-156.24"/>
</a>
</g>
</g>
<!-- Node19 -->
<g id="Node000019" class="node">
<title>Node19</title>
<g id="a_Node000019"><a xlink:title=" ">
<polygon fill="#e0e0e0" stroke="#999999" points="766,-145.5 710,-145.5 710,-126.5 766,-126.5 766,-145.5"/>
<text text-anchor="middle" x="738" y="-133.5" font-family="Helvetica,sans-Serif" font-size="10.00">QDebug</text>
</a>
</g>
</g>
<!-- Node18&#45;&gt;Node19 -->
<g id="edge21_Node000018_Node000019" class="edge">
<title>Node18&#45;&gt;Node19</title>
<g id="a_edge21_Node000018_Node000019"><a xlink:title=" ">
<path fill="none" stroke="#63b8ff" d="M656.17,-186.87C671.69,-177.41 696.83,-162.09 715.15,-150.92"/>
<polygon fill="#63b8ff" stroke="#63b8ff" points="717.06,-153.86 723.78,-145.67 713.42,-147.88 717.06,-153.86"/>
</a>
</g>
</g>
<!-- Node20 -->
<g id="Node000020" class="node">
<title>Node20</title>
<g id="a_Node000020"><a xlink:title=" ">
<polygon fill="#e0e0e0" stroke="#999999" points="623.5,-145.5 568.5,-145.5 568.5,-126.5 623.5,-126.5 623.5,-145.5"/>
<text text-anchor="middle" x="596" y="-133.5" font-family="Helvetica,sans-Serif" font-size="10.00">fstream</text>
</a>
</g>
</g>
<!-- Node18&#45;&gt;Node20 -->
<g id="edge23_Node000018_Node000020" class="edge">
<title>Node18&#45;&gt;Node20</title>
<g id="a_edge23_Node000018_Node000020"><a xlink:title=" ">
<path fill="none" stroke="#63b8ff" d="M635.21,-186.87C628.35,-178.14 617.57,-164.43 609.05,-153.59"/>
<polygon fill="#63b8ff" stroke="#63b8ff" points="611.75,-151.36 602.82,-145.67 606.25,-155.69 611.75,-151.36"/>
</a>
</g>
</g>
<!-- Node21 -->
<g id="Node000021" class="node">
<title>Node21</title>
<g id="a_Node000021"><a xlink:title=" ">
<polygon fill="#e0e0e0" stroke="#999999" points="848,-145.5 784,-145.5 784,-126.5 848,-126.5 848,-145.5"/>
<text text-anchor="middle" x="816" y="-133.5" font-family="Helvetica,sans-Serif" font-size="10.00">algorithm</text>
</a>
</g>
</g>
<!-- Node18&#45;&gt;Node21 -->
<g id="edge25_Node000018_Node000021" class="edge">
<title>Node18&#45;&gt;Node21</title>
<g id="a_edge25_Node000018_Node000021"><a xlink:title=" ">
<path fill="none" stroke="#63b8ff" d="M668.01,-186.85C694.83,-177.92 737.86,-163.55 775,-151 777.08,-150.3 779.23,-149.57 781.39,-148.84"/>
<polygon fill="#63b8ff" stroke="#63b8ff" points="782.52,-152.15 790.86,-145.61 780.26,-145.52 782.52,-152.15"/>
</a>
</g>
</g>
<!-- Node22 -->
<g id="Node000022" class="node">
<title>Node22</title>
<g id="a_Node000022"><a xlink:href="Logger_8h.html" target="_top" xlink:title="Tool that provide the ability to display and log errors and debug messages.">
<polygon fill="white" stroke="#666666" points="550,-151 440,-151 440,-121 550,-121 550,-151"/>
<text text-anchor="start" x="448" y="-139" font-family="Helvetica,sans-Serif" font-size="10.00">src/services/Logger</text>
<text text-anchor="middle" x="495" y="-128" font-family="Helvetica,sans-Serif" font-size="10.00">/Logger.h</text>
</a>
</g>
</g>
<!-- Node18&#45;&gt;Node22 -->
<g id="edge26_Node000018_Node000022" class="edge">
<title>Node18&#45;&gt;Node22</title>
<g id="a_edge26_Node000018_Node000022"><a xlink:title=" ">
<path fill="none" stroke="#63b8ff" d="M620.62,-186.99C599.56,-178.61 566.73,-165.55 539.92,-154.87"/>
<polygon fill="#63b8ff" stroke="#63b8ff" points="540.93,-151.51 530.34,-151.06 538.34,-158.01 540.93,-151.51"/>
</a>
</g>
</g>
<!-- Node22&#45;&gt;Node7 -->
<g id="edge28_Node000022_Node000007" class="edge">
<title>Node22&#45;&gt;Node7</title>
<g id="a_edge28_Node000022_Node000007"><a xlink:title=" ">
<path fill="none" stroke="#63b8ff" d="M450.89,-120.95C420.52,-111.28 379.99,-98.38 347.73,-88.11"/>
<polygon fill="#63b8ff" stroke="#63b8ff" points="348.6,-84.71 338.01,-85.01 346.47,-91.38 348.6,-84.71"/>
</a>
</g>
</g>
<!-- Node23 -->
<g id="Node000023" class="node">
<title>Node23</title>
<g id="a_Node000023"><a xlink:title=" ">
<polygon fill="#e0e0e0" stroke="#999999" points="524.5,-79.5 465.5,-79.5 465.5,-60.5 524.5,-60.5 524.5,-79.5"/>
<text text-anchor="middle" x="495" y="-67.5" font-family="Helvetica,sans-Serif" font-size="10.00">QWidget</text>
</a>
</g>
</g>
<!-- Node22&#45;&gt;Node23 -->
<g id="edge27_Node000022_Node000023" class="edge">
<title>Node22&#45;&gt;Node23</title>
<g id="a_edge27_Node000022_Node000023"><a xlink:title=" ">
<path fill="none" stroke="#63b8ff" d="M495,-120.8C495,-111.7 495,-99.79 495,-89.9"/>
<polygon fill="#63b8ff" stroke="#63b8ff" points="498.5,-89.84 495,-79.84 491.5,-89.84 498.5,-89.84"/>
</a>
</g>
</g>
<!-- Node24&#45;&gt;Node9 -->
<g id="edge30_Node000024_Node000009" class="edge">
<title>Node24&#45;&gt;Node9</title>
<g id="a_edge30_Node000024_Node000009"><a xlink:title=" ">
<path fill="none" stroke="#63b8ff" d="M473.21,-186.87C458.36,-179.69 439.84,-167.91 431,-151 410.52,-111.82 422.6,-82.76 457,-55 492.81,-26.11 628.29,-15.51 693.5,-12.03"/>
<polygon fill="#63b8ff" stroke="#63b8ff" points="693.9,-15.51 703.71,-11.51 693.55,-8.52 693.9,-15.51"/>
</a>
</g>
</g>
<!-- Node24&#45;&gt;Node10 -->
<g id="edge32_Node000024_Node000010" class="edge">
<title>Node24&#45;&gt;Node10</title>
<g id="a_edge32_Node000024_Node000010"><a xlink:title=" ">
<path fill="none" stroke="#63b8ff" d="M467.05,-191.07C444.14,-185.8 413.11,-174.55 398,-151 374.96,-115.09 373.73,-90.09 398,-55 403.15,-47.55 450.9,-31.16 484.05,-20.48"/>
<polygon fill="#63b8ff" stroke="#63b8ff" points="485.35,-23.74 493.81,-17.37 483.22,-17.07 485.35,-23.74"/>
</a>
</g>
</g>
<!-- Node24&#45;&gt;Node20 -->
<g id="edge31_Node000024_Node000020" class="edge">
<title>Node24&#45;&gt;Node20</title>
<g id="a_edge31_Node000024_Node000020"><a xlink:title=" ">
<path fill="none" stroke="#63b8ff" d="M509.9,-186.87C526.31,-177.36 552.93,-161.95 572.23,-150.77"/>
<polygon fill="#63b8ff" stroke="#63b8ff" points="574.14,-153.71 581.04,-145.67 570.63,-147.65 574.14,-153.71"/>
</a>
</g>
</g>
<!-- Node24&#45;&gt;Node22 -->
<g id="edge33_Node000024_Node000022" class="edge">
<title>Node24&#45;&gt;Node22</title>
<g id="a_edge33_Node000024_Node000022"><a xlink:title=" ">
<path fill="none" stroke="#63b8ff" d="M495,-186.87C495,-180.11 495,-170.35 495,-161.26"/>
<polygon fill="#63b8ff" stroke="#63b8ff" points="498.5,-161.11 495,-151.11 491.5,-161.11 498.5,-161.11"/>
</a>
</g>
</g>
</g>
</svg>

<g id="navigator" transform="translate(0 0)" fill="#404254">
  <rect fill="#f2f5e9" fill-opacity="0.5" stroke="#606060" stroke-width=".5" x="0" y="0" width="60" height="60"/>
  <use id="zoomplus" xlink:href="#zoomPlus" x="17" y="9" onmousedown="handleZoom(evt,'in')"/>
  <use id="zoomminus" xlink:href="#zoomMin" x="42" y="9" onmousedown="handleZoom(evt,'out')"/>
  <use id="reset" xlink:href="#resetDef" x="30" y="36" onmousedown="handleReset()"/>
   <use id="arrowup" xlink:href="#arrowUp" x="0" y="0" onmousedown="handlePan(0,-1)"/>
  <use id="arrowright" xlink:href="#arrowRight" x="0" y="0" onmousedown="handlePan(1,0)"/>
  <use id="arrowdown" xlink:href="#arrowDown" x="0" y="0" onmousedown="handlePan(0,1)"/>
  <use id="arrowleft" xlink:href="#arrowLeft" x="0" y="0" onmousedown="handlePan(-1,0)"/>
</g>
<svg viewBox="0 0 15 15" width="100%" height="30px" preserveAspectRatio="xMaxYMin meet">
 <g id="arrow_out" transform="scale(0.3 0.3)">
  <a xlink:href="InitialiseValveButtonViewModel_8cpp__incl_org.svg" target="_base">
   <rect id="button" ry="5" rx="5" y="6" x="6" height="38" width="38"
        fill="#f2f5e9" fill-opacity="0.5" stroke="#606060" stroke-width="1.0"/>
   <path id="arrow"
     d="M 11.500037,31.436501 C 11.940474,20.09759 22.043105,11.32322 32.158766,21.979434 L 37.068811,17.246167 C 37.068811,17.246167 37.088388,32 37.088388,32 L 22.160133,31.978069 C 22.160133,31.978069 26.997745,27.140456 26.997745,27.140456 C 18.528582,18.264221 13.291696,25.230495 11.500037,31.436501 z"
     style="fill:#404040;"/>
  </a>
 </g>
</svg>

<style type='text/css'>
<![CDATA[
[data-mouse-over-selected='false'] { opacity: 0.7; }
[data-mouse-over-selected='true']  { opacity: 1.0; }
]]>
</style>
<script type="application/ecmascript"><![CDATA[
document.addEventListener('DOMContentLoaded', (event) => {
  highlightEdges();
  highlightAdjacentNodes();
});
]]></script>
</svg>
