<?xml version="1.0" encoding="UTF-8" standalone="no"?>
<!DOCTYPE svg PUBLIC "-//W3C//DTD SVG 1.1//EN"
 "http://www.w3.org/Graphics/SVG/1.1/DTD/svg11.dtd">
<!-- Generated by graphviz version 2.43.0 (0)
 -->
<!-- Title: features/pid/misc/initialise_valve/InitialiseValveButtonViewModel.h Pages: 1 -->
<svg width="972pt" height="126pt"
 viewBox="0.00 0.00 972.00 126.00" xmlns="http://www.w3.org/2000/svg" xmlns:xlink="http://www.w3.org/1999/xlink">
<g id="graph0" class="graph" transform="scale(1 1) rotate(0) translate(4 122)">
<title>features/pid/misc/initialise_valve/InitialiseValveButtonViewModel.h</title>
<!-- Node1 -->
<g id="Node000001" class="node">
<title>Node1</title>
<g id="a_Node000001"><a xlink:title=" ">
<polygon fill="#999999" stroke="#666666" points="507.5,-118 330.5,-118 330.5,-77 507.5,-77 507.5,-118"/>
<text text-anchor="start" x="338.5" y="-106" font-family="Helvetica,sans-Serif" font-size="10.00">features/pid/misc/initialise</text>
<text text-anchor="start" x="338.5" y="-95" font-family="Helvetica,sans-Serif" font-size="10.00">_valve/InitialiseValveButtonView</text>
<text text-anchor="middle" x="419" y="-84" font-family="Helvetica,sans-Serif" font-size="10.00">Model.h</text>
</a>
</g>
</g>
<!-- Node2 -->
<g id="Node000002" class="node">
<title>Node2</title>
<g id="a_Node000002"><a xlink:href="PidTab_8cpp.html" target="_top" xlink:title=" ">
<polygon fill="white" stroke="#666666" points="130,-30 0,-30 0,-11 130,-11 130,-30"/>
<text text-anchor="middle" x="65" y="-18" font-family="Helvetica,sans-Serif" font-size="10.00">features/pid/PidTab.cpp</text>
</a>
</g>
</g>
<!-- Node1&#45;&gt;Node2 -->
<g id="edge1_Node000001_Node000002" class="edge">
<title>Node1&#45;&gt;Node2</title>
<g id="a_edge1_Node000001_Node000002"><a xlink:title=" ">
<path fill="none" stroke="#63b8ff" d="M320.54,-78.53C266.73,-68.32 199.01,-54.84 139,-41 124.76,-37.72 109.09,-33.65 95.86,-30.09"/>
<polygon fill="#63b8ff" stroke="#63b8ff" points="319.95,-81.98 330.43,-80.4 321.25,-75.1 319.95,-81.98"/>
</a>
</g>
</g>
<!-- Node3 -->
<g id="Node000003" class="node">
<title>Node3</title>
<g id="a_Node000003"><a xlink:href="PidTabFactory_8cpp.html" target="_top" xlink:title=" ">
<polygon fill="white" stroke="#666666" points="312,-30 148,-30 148,-11 312,-11 312,-30"/>
<text text-anchor="middle" x="230" y="-18" font-family="Helvetica,sans-Serif" font-size="10.00">features/pid/PidTabFactory.cpp</text>
</a>
</g>
</g>
<!-- Node1&#45;&gt;Node3 -->
<g id="edge2_Node000001_Node000003" class="edge">
<title>Node1&#45;&gt;Node3</title>
<g id="a_edge2_Node000001_Node000003"><a xlink:title=" ">
<path fill="none" stroke="#63b8ff" d="M360.17,-73.16C323.29,-58.52 277.92,-40.51 251.64,-30.09"/>
<polygon fill="#63b8ff" stroke="#63b8ff" points="359.25,-76.56 369.84,-76.99 361.83,-70.05 359.25,-76.56"/>
</a>
</g>
</g>
<!-- Node4 -->
<g id="Node000004" class="node">
<title>Node4</title>
<g id="a_Node000004"><a xlink:href="InitialiseValveButtonViewModel_8cpp.html" target="_top" xlink:title=" ">
<polygon fill="white" stroke="#666666" points="507.5,-41 330.5,-41 330.5,0 507.5,0 507.5,-41"/>
<text text-anchor="start" x="338.5" y="-29" font-family="Helvetica,sans-Serif" font-size="10.00">features/pid/misc/initialise</text>
<text text-anchor="start" x="338.5" y="-18" font-family="Helvetica,sans-Serif" font-size="10.00">_valve/InitialiseValveButtonView</text>
<text text-anchor="middle" x="419" y="-7" font-family="Helvetica,sans-Serif" font-size="10.00">Model.cpp</text>
</a>
</g>
</g>
<!-- Node1&#45;&gt;Node4 -->
<g id="edge3_Node000001_Node000004" class="edge">
<title>Node1&#45;&gt;Node4</title>
<g id="a_edge3_Node000001_Node000004"><a xlink:title=" ">
<path fill="none" stroke="#63b8ff" d="M419,-66.69C419,-58.08 419,-48.9 419,-41.07"/>
<polygon fill="#63b8ff" stroke="#63b8ff" points="415.5,-66.79 419,-76.79 422.5,-66.79 415.5,-66.79"/>
</a>
</g>
</g>
<!-- Node5 -->
<g id="Node000005" class="node">
<title>Node5</title>
<g id="a_Node000005"><a xlink:href="InitialiseValveButtonWidget_8cpp.html" target="_top" xlink:title=" ">
<polygon fill="white" stroke="#666666" points="734,-35.5 526,-35.5 526,-5.5 734,-5.5 734,-35.5"/>
<text text-anchor="start" x="534" y="-23.5" font-family="Helvetica,sans-Serif" font-size="10.00">features/pid/misc/initialise</text>
<text text-anchor="middle" x="630" y="-12.5" font-family="Helvetica,sans-Serif" font-size="10.00">_valve/InitialiseValveButtonWidget.cpp</text>
</a>
</g>
</g>
<!-- Node1&#45;&gt;Node5 -->
<g id="edge4_Node000001_Node000005" class="edge">
<title>Node1&#45;&gt;Node5</title>
<g id="a_edge4_Node000001_Node000005"><a xlink:title=" ">
<path fill="none" stroke="#63b8ff" d="M483.52,-73.57C518.39,-61.17 560.33,-46.26 590.38,-35.58"/>
<polygon fill="#63b8ff" stroke="#63b8ff" points="482.14,-70.34 473.89,-76.99 484.48,-76.94 482.14,-70.34"/>
</a>
</g>
</g>
<!-- Node6 -->
<g id="Node000006" class="node">
<title>Node6</title>
<g id="a_Node000006"><a xlink:href="AppViewModels_8cpp.html" target="_top" xlink:title=" ">
<polygon fill="white" stroke="#666666" points="964,-30 752,-30 752,-11 964,-11 964,-30"/>
<text text-anchor="middle" x="858" y="-18" font-family="Helvetica,sans-Serif" font-size="10.00">mvvm/viewmodels/AppViewModels.cpp</text>
</a>
</g>
</g>
<!-- Node1&#45;&gt;Node6 -->
<g id="edge5_Node000001_Node000006" class="edge">
<title>Node1&#45;&gt;Node6</title>
<g id="a_edge5_Node000001_Node000006"><a xlink:title=" ">
<path fill="none" stroke="#63b8ff" d="M517.55,-79.66C607.82,-64.24 737.75,-42.04 808.13,-30.02"/>
<polygon fill="#63b8ff" stroke="#63b8ff" points="516.84,-76.23 507.57,-81.37 518.02,-83.13 516.84,-76.23"/>
</a>
</g>
</g>
</g>
</svg>
