<?xml version="1.0" encoding="UTF-8" standalone="no"?>
<!DOCTYPE svg PUBLIC "-//W3C//DTD SVG 1.1//EN"
 "http://www.w3.org/Graphics/SVG/1.1/DTD/svg11.dtd">
<!-- Generated by graphviz version 2.43.0 (0)
 -->
<!-- Title: services/Logger/Logger.h Pages: 1 -->
<svg width="2834pt" height="302pt"
 viewBox="0.00 0.00 2834.00 302.00" xmlns="http://www.w3.org/2000/svg" xmlns:xlink="http://www.w3.org/1999/xlink">
<g id="graph0" class="graph" transform="scale(1 1) rotate(0) translate(4 298)">
<title>services/Logger/Logger.h</title>
<!-- Node1 -->
<g id="Node000001" class="node">
<title>Node1</title>
<g id="a_Node000001"><a xlink:title=" ">
<polygon fill="#999999" stroke="#666666" points="2187.5,-294 2050.5,-294 2050.5,-275 2187.5,-275 2187.5,-294"/>
<text text-anchor="middle" x="2119" y="-282" font-family="Helvetica,sans-Serif" font-size="10.00">services/Logger/Logger.h</text>
</a>
</g>
</g>
<!-- Node2 -->
<g id="Node000002" class="node">
<title>Node2</title>
<g id="a_Node000002"><a xlink:href="UdpWorker_8cpp.html" target="_top" xlink:title=" ">
<polygon fill="white" stroke="#666666" points="136,-35.5 0,-35.5 0,-5.5 136,-5.5 136,-35.5"/>
<text text-anchor="start" x="8" y="-23.5" font-family="Helvetica,sans-Serif" font-size="10.00">features/communication</text>
<text text-anchor="middle" x="68" y="-12.5" font-family="Helvetica,sans-Serif" font-size="10.00">/udp/UdpWorker.cpp</text>
</a>
</g>
</g>
<!-- Node1&#45;&gt;Node2 -->
<g id="edge1_Node000001_Node000002" class="edge">
<title>Node1&#45;&gt;Node2</title>
<g id="a_edge1_Node000001_Node000002"><a xlink:title=" ">
<path fill="none" stroke="#63b8ff" d="M2040.09,-284.03C1715.71,-285.05 486.02,-277.41 145,-107 113.01,-91.02 88.11,-55.58 76.03,-35.71"/>
<polygon fill="#63b8ff" stroke="#63b8ff" points="2040.35,-287.53 2050.34,-283.99 2040.33,-280.53 2040.35,-287.53"/>
</a>
</g>
</g>
<!-- Node3 -->
<g id="Node000003" class="node">
<title>Node3</title>
<g id="a_Node000003"><a xlink:href="RingBuffer_8h.html" target="_top" xlink:title=" ">
<polygon fill="white" stroke="#666666" points="1972.5,-239 1799.5,-239 1799.5,-209 1972.5,-209 1972.5,-239"/>
<text text-anchor="start" x="1807.5" y="-227" font-family="Helvetica,sans-Serif" font-size="10.00">features/communication</text>
<text text-anchor="middle" x="1886" y="-216" font-family="Helvetica,sans-Serif" font-size="10.00">/udp/frames_logger/RingBuffer.h</text>
</a>
</g>
</g>
<!-- Node1&#45;&gt;Node3 -->
<g id="edge2_Node000001_Node000003" class="edge">
<title>Node1&#45;&gt;Node3</title>
<g id="a_edge2_Node000001_Node000003"><a xlink:title=" ">
<path fill="none" stroke="#63b8ff" d="M2074.96,-272.44C2037.27,-262.98 1982.8,-249.3 1942.02,-239.06"/>
<polygon fill="#63b8ff" stroke="#63b8ff" points="2074.57,-275.95 2085.12,-274.99 2076.27,-269.16 2074.57,-275.95"/>
</a>
</g>
</g>
<!-- Node4 -->
<g id="Node000004" class="node">
<title>Node4</title>
<g id="a_Node000004"><a xlink:href="UdpLogger_8h.html" target="_top" xlink:title=" ">
<polygon fill="white" stroke="#666666" points="1858.5,-173 1683.5,-173 1683.5,-143 1858.5,-143 1858.5,-173"/>
<text text-anchor="start" x="1691.5" y="-161" font-family="Helvetica,sans-Serif" font-size="10.00">features/communication</text>
<text text-anchor="middle" x="1771" y="-150" font-family="Helvetica,sans-Serif" font-size="10.00">/udp/frames_logger/UdpLogger.h</text>
</a>
</g>
</g>
<!-- Node1&#45;&gt;Node4 -->
<g id="edge23_Node000001_Node000004" class="edge">
<title>Node1&#45;&gt;Node4</title>
<g id="a_edge23_Node000001_Node000004"><a xlink:title=" ">
<path fill="none" stroke="#63b8ff" d="M2040.17,-282.7C1955.01,-280.16 1826.69,-270.96 1791,-239 1772.44,-222.38 1769.87,-191.4 1770.13,-173.25"/>
<polygon fill="#63b8ff" stroke="#63b8ff" points="2040.24,-286.2 2050.33,-282.98 2040.43,-279.2 2040.24,-286.2"/>
</a>
</g>
</g>
<!-- Node16 -->
<g id="Node000016" class="node">
<title>Node16</title>
<g id="a_Node000016"><a xlink:href="LogTerminalViewModel_8cpp.html" target="_top" xlink:title=" ">
<polygon fill="white" stroke="#666666" points="2437.5,-35.5 2240.5,-35.5 2240.5,-5.5 2437.5,-5.5 2437.5,-35.5"/>
<text text-anchor="start" x="2248.5" y="-23.5" font-family="Helvetica,sans-Serif" font-size="10.00">features/test/frames</text>
<text text-anchor="middle" x="2339" y="-12.5" font-family="Helvetica,sans-Serif" font-size="10.00">/terminal/LogTerminalViewModel.cpp</text>
</a>
</g>
</g>
<!-- Node1&#45;&gt;Node16 -->
<g id="edge26_Node000001_Node000016" class="edge">
<title>Node1&#45;&gt;Node16</title>
<g id="a_edge26_Node000001_Node000016"><a xlink:title=" ">
<path fill="none" stroke="#63b8ff" d="M2133.47,-267.16C2139.93,-259.14 2147.16,-249.06 2152,-239 2184.32,-171.88 2145.26,-132.45 2195,-77 2213.25,-56.66 2239.82,-43.71 2265.18,-35.5"/>
<polygon fill="#63b8ff" stroke="#63b8ff" points="2130.67,-265.04 2126.91,-274.95 2136.02,-269.55 2130.67,-265.04"/>
</a>
</g>
</g>
<!-- Node19 -->
<g id="Node000019" class="node">
<title>Node19</title>
<g id="a_Node000019"><a xlink:href="AppViewModels_8cpp.html" target="_top" xlink:title=" ">
<polygon fill="white" stroke="#666666" points="2668,-30 2456,-30 2456,-11 2668,-11 2668,-30"/>
<text text-anchor="middle" x="2562" y="-18" font-family="Helvetica,sans-Serif" font-size="10.00">mvvm/viewmodels/AppViewModels.cpp</text>
</a>
</g>
</g>
<!-- Node1&#45;&gt;Node19 -->
<g id="edge27_Node000001_Node000019" class="edge">
<title>Node1&#45;&gt;Node19</title>
<g id="a_edge27_Node000001_Node000019"><a xlink:title=" ">
<path fill="none" stroke="#63b8ff" d="M2140.8,-268.79C2151.09,-260.94 2162.87,-250.53 2171,-239 2215.43,-176 2173.35,-125.83 2233,-77 2307.63,-15.91 2351.9,-57.06 2447,-41 2468.27,-37.41 2491.74,-33.43 2511.91,-30.01"/>
<polygon fill="#63b8ff" stroke="#63b8ff" points="2138.64,-266.03 2132.62,-274.74 2142.76,-271.69 2138.64,-266.03"/>
</a>
</g>
</g>
<!-- Node20 -->
<g id="Node000020" class="node">
<title>Node20</title>
<g id="a_Node000020"><a xlink:href="AppServices_8cpp.html" target="_top" xlink:title=" ">
<polygon fill="white" stroke="#666666" points="2826,-30 2686,-30 2686,-11 2826,-11 2826,-30"/>
<text text-anchor="middle" x="2756" y="-18" font-family="Helvetica,sans-Serif" font-size="10.00">services/AppServices.cpp</text>
</a>
</g>
</g>
<!-- Node1&#45;&gt;Node20 -->
<g id="edge28_Node000001_Node000020" class="edge">
<title>Node1&#45;&gt;Node20</title>
<g id="a_edge28_Node000001_Node000020"><a xlink:title=" ">
<path fill="none" stroke="#63b8ff" d="M2143.59,-270.05C2172.48,-254.48 2222.06,-228.48 2266,-209 2440.66,-131.57 2658.05,-55.15 2730.9,-30.07"/>
<polygon fill="#63b8ff" stroke="#63b8ff" points="2141.75,-267.07 2134.62,-274.91 2145.08,-273.22 2141.75,-267.07"/>
</a>
</g>
</g>
<!-- Node22 -->
<g id="Node000022" class="node">
<title>Node22</title>
<g id="a_Node000022"><a xlink:href="Writer_8h.html" target="_top" xlink:title=" ">
<polygon fill="white" stroke="#666666" points="2143,-239 1991,-239 1991,-209 2143,-209 2143,-239"/>
<text text-anchor="start" x="1999" y="-227" font-family="Helvetica,sans-Serif" font-size="10.00">features/communication</text>
<text text-anchor="middle" x="2067" y="-216" font-family="Helvetica,sans-Serif" font-size="10.00">/udp/frames_logger/Writer.h</text>
</a>
</g>
</g>
<!-- Node1&#45;&gt;Node22 -->
<g id="edge24_Node000001_Node000022" class="edge">
<title>Node1&#45;&gt;Node22</title>
<g id="a_edge24_Node000001_Node000022"><a xlink:title=" ">
<path fill="none" stroke="#63b8ff" d="M2104.47,-267.15C2096.63,-258.34 2087.06,-247.56 2079.55,-239.11"/>
<polygon fill="#63b8ff" stroke="#63b8ff" points="2102.07,-269.72 2111.33,-274.87 2107.3,-265.07 2102.07,-269.72"/>
</a>
</g>
</g>
<!-- Node23 -->
<g id="Node000023" class="node">
<title>Node23</title>
<g id="a_Node000023"><a xlink:href="Logger_8cpp.html" target="_top" xlink:title=" ">
<polygon fill="white" stroke="#666666" points="2423.5,-233.5 2274.5,-233.5 2274.5,-214.5 2423.5,-214.5 2423.5,-233.5"/>
<text text-anchor="middle" x="2349" y="-221.5" font-family="Helvetica,sans-Serif" font-size="10.00">services/Logger/Logger.cpp</text>
</a>
</g>
</g>
<!-- Node1&#45;&gt;Node23 -->
<g id="edge29_Node000001_Node000023" class="edge">
<title>Node1&#45;&gt;Node23</title>
<g id="a_edge29_Node000001_Node000023"><a xlink:title=" ">
<path fill="none" stroke="#63b8ff" d="M2162.38,-272.47C2206.84,-261.16 2275.04,-243.81 2315.52,-233.52"/>
<polygon fill="#63b8ff" stroke="#63b8ff" points="2161.27,-269.14 2152.44,-274.99 2163,-275.92 2161.27,-269.14"/>
</a>
</g>
</g>
<!-- Node3&#45;&gt;Node4 -->
<g id="edge3_Node000003_Node000004" class="edge">
<title>Node3&#45;&gt;Node4</title>
<g id="a_edge3_Node000003_Node000004"><a xlink:title=" ">
<path fill="none" stroke="#63b8ff" d="M1851.8,-203.97C1833.95,-194.03 1812.49,-182.09 1796.18,-173.01"/>
<polygon fill="#63b8ff" stroke="#63b8ff" points="1850.32,-207.15 1860.76,-208.95 1853.73,-201.03 1850.32,-207.15"/>
</a>
</g>
</g>
<!-- Node5 -->
<g id="Node000005" class="node">
<title>Node5</title>
<g id="a_Node000005"><a xlink:href="UdpChannel_8h.html" target="_top" xlink:title=" ">
<polygon fill="white" stroke="#666666" points="1671,-107 1535,-107 1535,-77 1671,-77 1671,-107"/>
<text text-anchor="start" x="1543" y="-95" font-family="Helvetica,sans-Serif" font-size="10.00">features/communication</text>
<text text-anchor="middle" x="1603" y="-84" font-family="Helvetica,sans-Serif" font-size="10.00">/udp/UdpChannel.h</text>
</a>
</g>
</g>
<!-- Node4&#45;&gt;Node5 -->
<g id="edge4_Node000004_Node000005" class="edge">
<title>Node4&#45;&gt;Node5</title>
<g id="a_edge4_Node000004_Node000005"><a xlink:title=" ">
<path fill="none" stroke="#63b8ff" d="M1724.6,-139.32C1697.86,-129.14 1664.71,-116.51 1639.78,-107.01"/>
<polygon fill="#63b8ff" stroke="#63b8ff" points="1723.54,-142.67 1734.13,-142.95 1726.03,-136.12 1723.54,-142.67"/>
</a>
</g>
</g>
<!-- Node21 -->
<g id="Node000021" class="node">
<title>Node21</title>
<g id="a_Node000021"><a xlink:href="UdpWorker_8h.html" target="_top" xlink:title=" ">
<polygon fill="white" stroke="#666666" points="290,-107 154,-107 154,-77 290,-77 290,-107"/>
<text text-anchor="start" x="162" y="-95" font-family="Helvetica,sans-Serif" font-size="10.00">features/communication</text>
<text text-anchor="middle" x="222" y="-84" font-family="Helvetica,sans-Serif" font-size="10.00">/udp/UdpWorker.h</text>
</a>
</g>
</g>
<!-- Node4&#45;&gt;Node21 -->
<g id="edge20_Node000004_Node000021" class="edge">
<title>Node4&#45;&gt;Node21</title>
<g id="a_edge20_Node000004_Node000021"><a xlink:title=" ">
<path fill="none" stroke="#63b8ff" d="M1673.23,-152.96C1383.91,-141.01 536.86,-106.01 290.16,-95.82"/>
<polygon fill="#63b8ff" stroke="#63b8ff" points="1673.14,-156.46 1683.28,-153.38 1673.43,-149.47 1673.14,-156.46"/>
</a>
</g>
</g>
<!-- Node6 -->
<g id="Node000006" class="node">
<title>Node6</title>
<g id="a_Node000006"><a xlink:href="main_8cpp.html" target="_top" xlink:title=" ">
<polygon fill="white" stroke="#666666" points="1715.5,-30 1632.5,-30 1632.5,-11 1715.5,-11 1715.5,-30"/>
<text text-anchor="middle" x="1674" y="-18" font-family="Helvetica,sans-Serif" font-size="10.00">app/main.cpp</text>
</a>
</g>
</g>
<!-- Node5&#45;&gt;Node6 -->
<g id="edge5_Node000005_Node000006" class="edge">
<title>Node5&#45;&gt;Node6</title>
<g id="a_edge5_Node000005_Node000006"><a xlink:title=" ">
<path fill="none" stroke="#63b8ff" d="M1624.51,-69.94C1638.09,-56.65 1654.92,-40.17 1665.04,-30.27"/>
<polygon fill="#63b8ff" stroke="#63b8ff" points="1622.07,-67.44 1617.37,-76.94 1626.96,-72.44 1622.07,-67.44"/>
</a>
</g>
</g>
<!-- Node7 -->
<g id="Node000007" class="node">
<title>Node7</title>
<g id="a_Node000007"><a xlink:href="UdpChannel_8cpp.html" target="_top" xlink:title=" ">
<polygon fill="white" stroke="#666666" points="290,-35.5 154,-35.5 154,-5.5 290,-5.5 290,-35.5"/>
<text text-anchor="start" x="162" y="-23.5" font-family="Helvetica,sans-Serif" font-size="10.00">features/communication</text>
<text text-anchor="middle" x="222" y="-12.5" font-family="Helvetica,sans-Serif" font-size="10.00">/udp/UdpChannel.cpp</text>
</a>
</g>
</g>
<!-- Node5&#45;&gt;Node7 -->
<g id="edge6_Node000005_Node000007" class="edge">
<title>Node5&#45;&gt;Node7</title>
<g id="a_edge6_Node000005_Node000007"><a xlink:title=" ">
<path fill="none" stroke="#63b8ff" d="M1524.58,-90.15C1280.68,-87.16 537.61,-75.4 299,-41 289.86,-39.68 280.22,-37.72 270.98,-35.54"/>
<polygon fill="#63b8ff" stroke="#63b8ff" points="1524.73,-93.65 1534.77,-90.27 1524.82,-86.65 1524.73,-93.65"/>
</a>
</g>
</g>
<!-- Node8 -->
<g id="Node000008" class="node">
<title>Node8</title>
<g id="a_Node000008"><a xlink:href="UdpChannelParametersViewModel_8cpp.html" target="_top" xlink:title=" ">
<polygon fill="white" stroke="#666666" points="1900.5,-41 1733.5,-41 1733.5,0 1900.5,0 1900.5,-41"/>
<text text-anchor="start" x="1741.5" y="-29" font-family="Helvetica,sans-Serif" font-size="10.00">features/communication</text>
<text text-anchor="start" x="1741.5" y="-18" font-family="Helvetica,sans-Serif" font-size="10.00">/udp/ui/UdpChannelParameters</text>
<text text-anchor="middle" x="1817" y="-7" font-family="Helvetica,sans-Serif" font-size="10.00">ViewModel.cpp</text>
</a>
</g>
</g>
<!-- Node5&#45;&gt;Node8 -->
<g id="edge7_Node000005_Node000008" class="edge">
<title>Node5&#45;&gt;Node8</title>
<g id="a_edge7_Node000005_Node000008"><a xlink:title=" ">
<path fill="none" stroke="#63b8ff" d="M1655.93,-73.81C1686.48,-63.89 1725.01,-51.37 1756.73,-41.07"/>
<polygon fill="#63b8ff" stroke="#63b8ff" points="1654.74,-70.52 1646.31,-76.94 1656.9,-77.18 1654.74,-70.52"/>
</a>
</g>
</g>
<!-- Node9 -->
<g id="Node000009" class="node">
<title>Node9</title>
<g id="a_Node000009"><a xlink:href="CsvExporter_8cpp.html" target="_top" xlink:title=" ">
<polygon fill="white" stroke="#666666" points="2037,-35.5 1919,-35.5 1919,-5.5 2037,-5.5 2037,-35.5"/>
<text text-anchor="start" x="1927" y="-23.5" font-family="Helvetica,sans-Serif" font-size="10.00">features/file_export</text>
<text text-anchor="middle" x="1978" y="-12.5" font-family="Helvetica,sans-Serif" font-size="10.00">/csv/CsvExporter.cpp</text>
</a>
</g>
</g>
<!-- Node5&#45;&gt;Node9 -->
<g id="edge8_Node000005_Node000009" class="edge">
<title>Node5&#45;&gt;Node9</title>
<g id="a_edge8_Node000005_Node000009"><a xlink:title=" ">
<path fill="none" stroke="#63b8ff" d="M1681.27,-80.85C1743.6,-72.14 1832.88,-58.27 1910,-41 1917.07,-39.42 1924.49,-37.53 1931.73,-35.56"/>
<polygon fill="#63b8ff" stroke="#63b8ff" points="1680.54,-77.41 1671.12,-82.25 1681.5,-84.35 1680.54,-77.41"/>
</a>
</g>
</g>
<!-- Node10 -->
<g id="Node000010" class="node">
<title>Node10</title>
<g id="a_Node000010"><a xlink:href="ActuatorSwitchViewModel_8cpp.html" target="_top" xlink:title=" ">
<polygon fill="white" stroke="#666666" points="2222.5,-35.5 2055.5,-35.5 2055.5,-5.5 2222.5,-5.5 2222.5,-35.5"/>
<text text-anchor="start" x="2063.5" y="-23.5" font-family="Helvetica,sans-Serif" font-size="10.00">features/pid/actuator</text>
<text text-anchor="middle" x="2139" y="-12.5" font-family="Helvetica,sans-Serif" font-size="10.00">/ActuatorSwitchViewModel.cpp</text>
</a>
</g>
</g>
<!-- Node5&#45;&gt;Node10 -->
<g id="edge9_Node000005_Node000010" class="edge">
<title>Node5&#45;&gt;Node10</title>
<g id="a_edge9_Node000005_Node000010"><a xlink:title=" ">
<path fill="none" stroke="#63b8ff" d="M1681.18,-84.42C1769.93,-76.44 1918.89,-61.45 2046,-41 2055.77,-39.43 2066.07,-37.52 2076.12,-35.52"/>
<polygon fill="#63b8ff" stroke="#63b8ff" points="1680.84,-80.94 1671.19,-85.31 1681.47,-87.91 1680.84,-80.94"/>
</a>
</g>
</g>
<!-- Node11 -->
<g id="Node000011" class="node">
<title>Node11</title>
<g id="a_Node000011"><a xlink:href="InitialiseValveButtonViewModel_8cpp.html" target="_top" xlink:title=" ">
<polygon fill="white" stroke="#666666" points="485.5,-41 308.5,-41 308.5,0 485.5,0 485.5,-41"/>
<text text-anchor="start" x="316.5" y="-29" font-family="Helvetica,sans-Serif" font-size="10.00">features/pid/misc/initialise</text>
<text text-anchor="start" x="316.5" y="-18" font-family="Helvetica,sans-Serif" font-size="10.00">_valve/InitialiseValveButtonView</text>
<text text-anchor="middle" x="397" y="-7" font-family="Helvetica,sans-Serif" font-size="10.00">Model.cpp</text>
</a>
</g>
</g>
<!-- Node5&#45;&gt;Node11 -->
<g id="edge10_Node000005_Node000011" class="edge">
<title>Node5&#45;&gt;Node11</title>
<g id="a_edge10_Node000005_Node000011"><a xlink:title=" ">
<path fill="none" stroke="#63b8ff" d="M1524.68,-91.52C1343.02,-91.86 879.17,-87.62 495,-41 491.9,-40.62 488.75,-40.2 485.58,-39.75"/>
<polygon fill="#63b8ff" stroke="#63b8ff" points="1524.95,-95.02 1534.94,-91.5 1524.93,-88.02 1524.95,-95.02"/>
</a>
</g>
</g>
<!-- Node12 -->
<g id="Node000012" class="node">
<title>Node12</title>
<g id="a_Node000012"><a xlink:href="TestBenchModel_8cpp.html" target="_top" xlink:title=" ">
<polygon fill="white" stroke="#666666" points="686,-30 504,-30 504,-11 686,-11 686,-30"/>
<text text-anchor="middle" x="595" y="-18" font-family="Helvetica,sans-Serif" font-size="10.00">features/test/TestBenchModel.cpp</text>
</a>
</g>
</g>
<!-- Node5&#45;&gt;Node12 -->
<g id="edge11_Node000005_Node000012" class="edge">
<title>Node5&#45;&gt;Node12</title>
<g id="a_edge11_Node000005_Node000012"><a xlink:title=" ">
<path fill="none" stroke="#63b8ff" d="M1524.87,-90.31C1367.31,-88.12 1000.46,-79.01 695,-41 674.11,-38.4 651.04,-34 632.32,-30.04"/>
<polygon fill="#63b8ff" stroke="#63b8ff" points="1524.9,-93.81 1534.94,-90.44 1524.99,-86.81 1524.9,-93.81"/>
</a>
</g>
</g>
<!-- Node13 -->
<g id="Node000013" class="node">
<title>Node13</title>
<g id="a_Node000013"><a xlink:href="CountDownClockViewModel_8cpp.html" target="_top" xlink:title=" ">
<polygon fill="white" stroke="#666666" points="894,-41 704,-41 704,0 894,0 894,-41"/>
<text text-anchor="start" x="712" y="-29" font-family="Helvetica,sans-Serif" font-size="10.00">features/test/frames</text>
<text text-anchor="start" x="712" y="-18" font-family="Helvetica,sans-Serif" font-size="10.00">/countdown_clock/CountDownClock</text>
<text text-anchor="middle" x="799" y="-7" font-family="Helvetica,sans-Serif" font-size="10.00">ViewModel.cpp</text>
</a>
</g>
</g>
<!-- Node5&#45;&gt;Node13 -->
<g id="edge12_Node000005_Node000013" class="edge">
<title>Node5&#45;&gt;Node13</title>
<g id="a_edge12_Node000005_Node000013"><a xlink:title=" ">
<path fill="none" stroke="#63b8ff" d="M1524.44,-88.31C1394.63,-83.22 1127.42,-69.96 903,-41 900.08,-40.62 897.13,-40.22 894.15,-39.79"/>
<polygon fill="#63b8ff" stroke="#63b8ff" points="1524.55,-91.82 1534.68,-88.71 1524.82,-84.82 1524.55,-91.82"/>
</a>
</g>
</g>
<!-- Node14 -->
<g id="Node000014" class="node">
<title>Node14</title>
<g id="a_Node000014"><a xlink:href="EmergencyControlsViewModel_8cpp.html" target="_top" xlink:title=" ">
<polygon fill="white" stroke="#666666" points="1088,-41 912,-41 912,0 1088,0 1088,-41"/>
<text text-anchor="start" x="920" y="-29" font-family="Helvetica,sans-Serif" font-size="10.00">features/test/frames</text>
<text text-anchor="start" x="920" y="-18" font-family="Helvetica,sans-Serif" font-size="10.00">/emergency_controls/Emergency</text>
<text text-anchor="middle" x="1000" y="-7" font-family="Helvetica,sans-Serif" font-size="10.00">ControlsViewModel.cpp</text>
</a>
</g>
</g>
<!-- Node5&#45;&gt;Node14 -->
<g id="edge13_Node000005_Node000014" class="edge">
<title>Node5&#45;&gt;Node14</title>
<g id="a_edge13_Node000005_Node000014"><a xlink:title=" ">
<path fill="none" stroke="#63b8ff" d="M1524.81,-85.71C1425.14,-78.41 1247.66,-63.53 1097,-41 1094.11,-40.57 1091.18,-40.11 1088.22,-39.62"/>
<polygon fill="#63b8ff" stroke="#63b8ff" points="1524.58,-89.2 1534.8,-86.43 1525.08,-82.22 1524.58,-89.2"/>
</a>
</g>
</g>
<!-- Node15 -->
<g id="Node000015" class="node">
<title>Node15</title>
<g id="a_Node000015"><a xlink:href="TankPressureControlerViewModel_8cpp.html" target="_top" xlink:title=" ">
<polygon fill="white" stroke="#666666" points="1262,-41 1106,-41 1106,0 1262,0 1262,-41"/>
<text text-anchor="start" x="1114" y="-29" font-family="Helvetica,sans-Serif" font-size="10.00">features/test/frames</text>
<text text-anchor="start" x="1114" y="-18" font-family="Helvetica,sans-Serif" font-size="10.00">/tank_pressure/TankPressure</text>
<text text-anchor="middle" x="1184" y="-7" font-family="Helvetica,sans-Serif" font-size="10.00">ControlerViewModel.cpp</text>
</a>
</g>
</g>
<!-- Node5&#45;&gt;Node15 -->
<g id="edge14_Node000005_Node000015" class="edge">
<title>Node5&#45;&gt;Node15</title>
<g id="a_edge14_Node000005_Node000015"><a xlink:title=" ">
<path fill="none" stroke="#63b8ff" d="M1524.6,-80.79C1457.16,-71.63 1357.38,-57.16 1271,-41 1268.11,-40.46 1265.17,-39.89 1262.2,-39.3"/>
<polygon fill="#63b8ff" stroke="#63b8ff" points="1524.35,-84.29 1534.73,-82.16 1525.29,-77.35 1524.35,-84.29"/>
</a>
</g>
</g>
<!-- Node5&#45;&gt;Node16 -->
<g id="edge15_Node000005_Node000016" class="edge">
<title>Node5&#45;&gt;Node16</title>
<g id="a_edge15_Node000005_Node000016"><a xlink:title=" ">
<path fill="none" stroke="#63b8ff" d="M1681.31,-87.32C1800.55,-81.14 2034.62,-66.76 2232,-41 2243.61,-39.48 2255.87,-37.56 2267.79,-35.51"/>
<polygon fill="#63b8ff" stroke="#63b8ff" points="1680.99,-83.83 1671.18,-87.84 1681.35,-90.82 1680.99,-83.83"/>
</a>
</g>
</g>
<!-- Node17 -->
<g id="Node000017" class="node">
<title>Node17</title>
<g id="a_Node000017"><a xlink:href="TestLauncherViewModel_8cpp.html" target="_top" xlink:title=" ">
<polygon fill="white" stroke="#666666" points="1432,-41 1280,-41 1280,0 1432,0 1432,-41"/>
<text text-anchor="start" x="1288" y="-29" font-family="Helvetica,sans-Serif" font-size="10.00">features/test/frames</text>
<text text-anchor="start" x="1288" y="-18" font-family="Helvetica,sans-Serif" font-size="10.00">/test_launcher/TestLauncher</text>
<text text-anchor="middle" x="1356" y="-7" font-family="Helvetica,sans-Serif" font-size="10.00">ViewModel.cpp</text>
</a>
</g>
</g>
<!-- Node5&#45;&gt;Node17 -->
<g id="edge16_Node000005_Node000017" class="edge">
<title>Node5&#45;&gt;Node17</title>
<g id="a_edge16_Node000005_Node000017"><a xlink:title=" ">
<path fill="none" stroke="#63b8ff" d="M1543.28,-74.2C1507.8,-64.21 1462.65,-51.51 1425.56,-41.07"/>
<polygon fill="#63b8ff" stroke="#63b8ff" points="1542.44,-77.6 1553.02,-76.94 1544.34,-70.86 1542.44,-77.6"/>
</a>
</g>
</g>
<!-- Node18 -->
<g id="Node000018" class="node">
<title>Node18</title>
<g id="a_Node000018"><a xlink:href="AppModels_8cpp.html" target="_top" xlink:title=" ">
<polygon fill="white" stroke="#666666" points="1614,-30 1450,-30 1450,-11 1614,-11 1614,-30"/>
<text text-anchor="middle" x="1532" y="-18" font-family="Helvetica,sans-Serif" font-size="10.00">mvvm/models/AppModels.cpp</text>
</a>
</g>
</g>
<!-- Node5&#45;&gt;Node18 -->
<g id="edge17_Node000005_Node000018" class="edge">
<title>Node5&#45;&gt;Node18</title>
<g id="a_edge17_Node000005_Node000018"><a xlink:title=" ">
<path fill="none" stroke="#63b8ff" d="M1581.49,-69.94C1567.91,-56.65 1551.08,-40.17 1540.96,-30.27"/>
<polygon fill="#63b8ff" stroke="#63b8ff" points="1579.04,-72.44 1588.63,-76.94 1583.93,-67.44 1579.04,-72.44"/>
</a>
</g>
</g>
<!-- Node5&#45;&gt;Node19 -->
<g id="edge18_Node000005_Node000019" class="edge">
<title>Node5&#45;&gt;Node19</title>
<g id="a_edge18_Node000005_Node000019"><a xlink:title=" ">
<path fill="none" stroke="#63b8ff" d="M1681.48,-89.2C1830.91,-85.14 2166.43,-73 2447,-41 2470.74,-38.29 2497.03,-33.94 2518.47,-30.03"/>
<polygon fill="#63b8ff" stroke="#63b8ff" points="1680.95,-85.71 1671.04,-89.48 1681.13,-92.71 1680.95,-85.71"/>
</a>
</g>
</g>
<!-- Node5&#45;&gt;Node20 -->
<g id="edge19_Node000005_Node000020" class="edge">
<title>Node5&#45;&gt;Node20</title>
<g id="a_edge19_Node000005_Node000020"><a xlink:title=" ">
<path fill="none" stroke="#63b8ff" d="M1681.19,-89.34C1894.73,-84.51 2484.69,-68.94 2677,-41 2693.78,-38.56 2712.18,-34.13 2727.01,-30.1"/>
<polygon fill="#63b8ff" stroke="#63b8ff" points="1680.92,-85.85 1671,-89.57 1681.08,-92.85 1680.92,-85.85"/>
</a>
</g>
</g>
<!-- Node21&#45;&gt;Node2 -->
<g id="edge22_Node000021_Node000002" class="edge">
<title>Node21&#45;&gt;Node2</title>
<g id="a_edge22_Node000021_Node000002"><a xlink:title=" ">
<path fill="none" stroke="#63b8ff" d="M181.68,-72.81C155.88,-61.16 122.9,-46.28 99.12,-35.54"/>
<polygon fill="#63b8ff" stroke="#63b8ff" points="180.28,-76.01 190.84,-76.94 183.16,-69.63 180.28,-76.01"/>
</a>
</g>
</g>
<!-- Node21&#45;&gt;Node7 -->
<g id="edge21_Node000021_Node000007" class="edge">
<title>Node21&#45;&gt;Node7</title>
<g id="a_edge21_Node000021_Node000007"><a xlink:title=" ">
<path fill="none" stroke="#63b8ff" d="M222,-66.75C222,-56.31 222,-44.49 222,-35.54"/>
<polygon fill="#63b8ff" stroke="#63b8ff" points="218.5,-66.94 222,-76.94 225.5,-66.94 218.5,-66.94"/>
</a>
</g>
</g>
<!-- Node22&#45;&gt;Node4 -->
<g id="edge25_Node000022_Node000004" class="edge">
<title>Node22&#45;&gt;Node4</title>
<g id="a_edge25_Node000022_Node000004"><a xlink:title=" ">
<path fill="none" stroke="#63b8ff" d="M1991.98,-206.78C1943.8,-196.36 1881.85,-182.97 1835.81,-173.01"/>
<polygon fill="#63b8ff" stroke="#63b8ff" points="1991.53,-210.26 2002.04,-208.95 1993.01,-203.42 1991.53,-210.26"/>
</a>
</g>
</g>
</g>
</svg>
