<?xml version="1.0" encoding="UTF-8" standalone="no"?>
<!DOCTYPE svg PUBLIC "-//W3C//DTD SVG 1.1//EN"
 "http://www.w3.org/Graphics/SVG/1.1/DTD/svg11.dtd">
<!-- Generated by graphviz version 2.43.0 (0)
 -->
<!-- Title: services/Logger/Logger.h Pages: 1 -->
<svg width="2835pt" height="302pt"
 viewBox="0.00 0.00 2835.00 302.00" xmlns="http://www.w3.org/2000/svg" xmlns:xlink="http://www.w3.org/1999/xlink">
<g id="graph0" class="graph" transform="scale(1 1) rotate(0) translate(4 298)">
<title>services/Logger/Logger.h</title>
<!-- Node1 -->
<g id="Node000001" class="node">
<title>Node1</title>
<g id="a_Node000001"><a xlink:title=" ">
<polygon fill="#999999" stroke="#666666" points="1499.5,-294 1362.5,-294 1362.5,-275 1499.5,-275 1499.5,-294"/>
<text text-anchor="middle" x="1431" y="-282" font-family="Helvetica,sans-Serif" font-size="10.00">services/Logger/Logger.h</text>
</a>
</g>
</g>
<!-- Node2 -->
<g id="Node000002" class="node">
<title>Node2</title>
<g id="a_Node000002"><a xlink:href="MainWindow_8cpp.html" target="_top" xlink:title=" ">
<polygon fill="white" stroke="#666666" points="555,-233.5 435,-233.5 435,-214.5 555,-214.5 555,-233.5"/>
<text text-anchor="middle" x="495" y="-221.5" font-family="Helvetica,sans-Serif" font-size="10.00">app/MainWindow.cpp</text>
</a>
</g>
</g>
<!-- Node1&#45;&gt;Node2 -->
<g id="edge1_Node000001_Node000002" class="edge">
<title>Node1&#45;&gt;Node2</title>
<g id="a_edge1_Node000001_Node000002"><a xlink:title=" ">
<path fill="none" stroke="#63b8ff" d="M1352.12,-282.99C1200.07,-281.23 856.07,-273.41 569,-239 557.84,-237.66 545.82,-235.64 534.79,-233.55"/>
<polygon fill="#63b8ff" stroke="#63b8ff" points="1352.25,-286.49 1362.29,-283.11 1352.33,-279.49 1352.25,-286.49"/>
</a>
</g>
</g>
<!-- Node3 -->
<g id="Node000003" class="node">
<title>Node3</title>
<g id="a_Node000003"><a xlink:href="main_8cpp.html" target="_top" xlink:title=" ">
<polygon fill="white" stroke="#666666" points="237.5,-30 154.5,-30 154.5,-11 237.5,-11 237.5,-30"/>
<text text-anchor="middle" x="196" y="-18" font-family="Helvetica,sans-Serif" font-size="10.00">app/main.cpp</text>
</a>
</g>
</g>
<!-- Node1&#45;&gt;Node3 -->
<g id="edge2_Node000001_Node000003" class="edge">
<title>Node1&#45;&gt;Node3</title>
<g id="a_edge2_Node000001_Node000003"><a xlink:title=" ">
<path fill="none" stroke="#63b8ff" d="M1352.4,-276.08C1285.41,-269 1186.78,-256.75 1102,-239 892.98,-195.24 832.87,-198.68 640,-107 618.95,-97 618.84,-85.12 597,-77 450.42,-22.52 399.12,-77.24 247,-41 236.12,-38.41 224.43,-34.06 215,-30.13"/>
<polygon fill="#63b8ff" stroke="#63b8ff" points="1352.15,-279.58 1362.46,-277.13 1352.88,-272.61 1352.15,-279.58"/>
</a>
</g>
</g>
<!-- Node4 -->
<g id="Node000004" class="node">
<title>Node4</title>
<g id="a_Node000004"><a xlink:href="UdpWorker_8cpp.html" target="_top" xlink:title=" ">
<polygon fill="white" stroke="#666666" points="136,-35.5 0,-35.5 0,-5.5 136,-5.5 136,-35.5"/>
<text text-anchor="start" x="8" y="-23.5" font-family="Helvetica,sans-Serif" font-size="10.00">features/communication</text>
<text text-anchor="middle" x="68" y="-12.5" font-family="Helvetica,sans-Serif" font-size="10.00">/udp/UdpWorker.cpp</text>
</a>
</g>
</g>
<!-- Node1&#45;&gt;Node4 -->
<g id="edge3_Node000001_Node000004" class="edge">
<title>Node1&#45;&gt;Node4</title>
<g id="a_edge3_Node000001_Node000004"><a xlink:title=" ">
<path fill="none" stroke="#63b8ff" d="M1351.98,-279.86C1255.95,-274.6 1089.21,-262.78 948,-239 624.43,-184.52 244.19,-74.51 114.23,-35.56"/>
<polygon fill="#63b8ff" stroke="#63b8ff" points="1352.02,-283.37 1362.19,-280.41 1352.4,-276.38 1352.02,-283.37"/>
</a>
</g>
</g>
<!-- Node5 -->
<g id="Node000005" class="node">
<title>Node5</title>
<g id="a_Node000005"><a xlink:href="RingBuffer_8h.html" target="_top" xlink:title=" ">
<polygon fill="white" stroke="#666666" points="1284.5,-239 1111.5,-239 1111.5,-209 1284.5,-209 1284.5,-239"/>
<text text-anchor="start" x="1119.5" y="-227" font-family="Helvetica,sans-Serif" font-size="10.00">features/communication</text>
<text text-anchor="middle" x="1198" y="-216" font-family="Helvetica,sans-Serif" font-size="10.00">/udp/frames_logger/RingBuffer.h</text>
</a>
</g>
</g>
<!-- Node1&#45;&gt;Node5 -->
<g id="edge4_Node000001_Node000005" class="edge">
<title>Node1&#45;&gt;Node5</title>
<g id="a_edge4_Node000001_Node000005"><a xlink:title=" ">
<path fill="none" stroke="#63b8ff" d="M1386.96,-272.44C1349.27,-262.98 1294.8,-249.3 1254.02,-239.06"/>
<polygon fill="#63b8ff" stroke="#63b8ff" points="1386.57,-275.95 1397.12,-274.99 1388.27,-269.16 1386.57,-275.95"/>
</a>
</g>
</g>
<!-- Node17 -->
<g id="Node000017" class="node">
<title>Node17</title>
<g id="a_Node000017"><a xlink:href="LogTerminalViewModel_8cpp.html" target="_top" xlink:title=" ">
<polygon fill="white" stroke="#666666" points="2438.5,-35.5 2241.5,-35.5 2241.5,-5.5 2438.5,-5.5 2438.5,-35.5"/>
<text text-anchor="start" x="2249.5" y="-23.5" font-family="Helvetica,sans-Serif" font-size="10.00">features/test/frames</text>
<text text-anchor="middle" x="2340" y="-12.5" font-family="Helvetica,sans-Serif" font-size="10.00">/terminal/LogTerminalViewModel.cpp</text>
</a>
</g>
</g>
<!-- Node1&#45;&gt;Node17 -->
<g id="edge29_Node000001_Node000017" class="edge">
<title>Node1&#45;&gt;Node17</title>
<g id="a_edge29_Node000001_Node000017"><a xlink:title=" ">
<path fill="none" stroke="#63b8ff" d="M1450.47,-268.24C1460.21,-260.11 1471.85,-249.62 1481,-239 1537.18,-173.83 1512.48,-120.02 1587,-77 1649.16,-41.11 2160.71,-49.39 2232,-41 2244.11,-39.57 2256.92,-37.64 2269.31,-35.55"/>
<polygon fill="#63b8ff" stroke="#63b8ff" points="1448.06,-265.69 1442.51,-274.72 1452.48,-271.12 1448.06,-265.69"/>
</a>
</g>
</g>
<!-- Node20 -->
<g id="Node000020" class="node">
<title>Node20</title>
<g id="a_Node000020"><a xlink:href="AppViewModels_8cpp.html" target="_top" xlink:title=" ">
<polygon fill="white" stroke="#666666" points="2669,-30 2457,-30 2457,-11 2669,-11 2669,-30"/>
<text text-anchor="middle" x="2563" y="-18" font-family="Helvetica,sans-Serif" font-size="10.00">mvvm/viewmodels/AppViewModels.cpp</text>
</a>
</g>
</g>
<!-- Node1&#45;&gt;Node20 -->
<g id="edge30_Node000001_Node000020" class="edge">
<title>Node1&#45;&gt;Node20</title>
<g id="a_edge30_Node000001_Node000020"><a xlink:title=" ">
<path fill="none" stroke="#63b8ff" d="M1459.21,-270.24C1474.1,-262.42 1492.11,-251.6 1506,-239 1572.19,-179 1546.19,-119.08 1625,-77 1705.74,-33.88 2356.98,-50.67 2448,-41 2472.06,-38.44 2498.72,-34.02 2520.31,-30.04"/>
<polygon fill="#63b8ff" stroke="#63b8ff" points="1457.29,-267.29 1449.95,-274.93 1460.45,-273.53 1457.29,-267.29"/>
</a>
</g>
</g>
<!-- Node21 -->
<g id="Node000021" class="node">
<title>Node21</title>
<g id="a_Node000021"><a xlink:href="AppServices_8cpp.html" target="_top" xlink:title=" ">
<polygon fill="white" stroke="#666666" points="2827,-30 2687,-30 2687,-11 2827,-11 2827,-30"/>
<text text-anchor="middle" x="2757" y="-18" font-family="Helvetica,sans-Serif" font-size="10.00">services/AppServices.cpp</text>
</a>
</g>
</g>
<!-- Node1&#45;&gt;Node21 -->
<g id="edge31_Node000001_Node000021" class="edge">
<title>Node1&#45;&gt;Node21</title>
<g id="a_edge31_Node000001_Node000021"><a xlink:title=" ">
<path fill="none" stroke="#63b8ff" d="M1462.68,-271.38C1506.14,-255.15 1586.99,-226.39 1658,-209 2104.25,-99.71 2227.96,-133.46 2678,-41 2693.5,-37.82 2710.56,-33.69 2724.84,-30.05"/>
<polygon fill="#63b8ff" stroke="#63b8ff" points="1461.35,-268.14 1453.22,-274.94 1463.81,-274.69 1461.35,-268.14"/>
</a>
</g>
</g>
<!-- Node23 -->
<g id="Node000023" class="node">
<title>Node23</title>
<g id="a_Node000023"><a xlink:href="UdpLogger_8cpp.html" target="_top" xlink:title=" ">
<polygon fill="white" stroke="#666666" points="1535,-107 1349,-107 1349,-77 1535,-77 1535,-107"/>
<text text-anchor="start" x="1357" y="-95" font-family="Helvetica,sans-Serif" font-size="10.00">features/communication</text>
<text text-anchor="middle" x="1442" y="-84" font-family="Helvetica,sans-Serif" font-size="10.00">/udp/frames_logger/UdpLogger.cpp</text>
</a>
</g>
</g>
<!-- Node1&#45;&gt;Node23 -->
<g id="edge26_Node000001_Node000023" class="edge">
<title>Node1&#45;&gt;Node23</title>
<g id="a_edge26_Node000001_Node000023"><a xlink:title=" ">
<path fill="none" stroke="#63b8ff" d="M1446.92,-267.34C1453.57,-259.47 1460.54,-249.46 1464,-239 1479.44,-192.27 1459.34,-133.51 1448.33,-107.05"/>
<polygon fill="#63b8ff" stroke="#63b8ff" points="1444.14,-265.2 1440.02,-274.96 1449.33,-269.9 1444.14,-265.2"/>
</a>
</g>
</g>
<!-- Node24 -->
<g id="Node000024" class="node">
<title>Node24</title>
<g id="a_Node000024"><a xlink:href="Writer_8h.html" target="_top" xlink:title=" ">
<polygon fill="white" stroke="#666666" points="1455,-239 1303,-239 1303,-209 1455,-209 1455,-239"/>
<text text-anchor="start" x="1311" y="-227" font-family="Helvetica,sans-Serif" font-size="10.00">features/communication</text>
<text text-anchor="middle" x="1379" y="-216" font-family="Helvetica,sans-Serif" font-size="10.00">/udp/frames_logger/Writer.h</text>
</a>
</g>
</g>
<!-- Node1&#45;&gt;Node24 -->
<g id="edge27_Node000001_Node000024" class="edge">
<title>Node1&#45;&gt;Node24</title>
<g id="a_edge27_Node000001_Node000024"><a xlink:title=" ">
<path fill="none" stroke="#63b8ff" d="M1416.47,-267.15C1408.63,-258.34 1399.06,-247.56 1391.55,-239.11"/>
<polygon fill="#63b8ff" stroke="#63b8ff" points="1414.07,-269.72 1423.33,-274.87 1419.3,-265.07 1414.07,-269.72"/>
</a>
</g>
</g>
<!-- Node25 -->
<g id="Node000025" class="node">
<title>Node25</title>
<g id="a_Node000025"><a xlink:href="Logger_8cpp.html" target="_top" xlink:title=" ">
<polygon fill="white" stroke="#666666" points="1815.5,-233.5 1666.5,-233.5 1666.5,-214.5 1815.5,-214.5 1815.5,-233.5"/>
<text text-anchor="middle" x="1741" y="-221.5" font-family="Helvetica,sans-Serif" font-size="10.00">services/Logger/Logger.cpp</text>
</a>
</g>
</g>
<!-- Node1&#45;&gt;Node25 -->
<g id="edge32_Node000001_Node000025" class="edge">
<title>Node1&#45;&gt;Node25</title>
<g id="a_edge32_Node000001_Node000025"><a xlink:title=" ">
<path fill="none" stroke="#63b8ff" d="M1486.09,-273.1C1545.9,-261.82 1640.28,-244.01 1695.87,-233.52"/>
<polygon fill="#63b8ff" stroke="#63b8ff" points="1485.25,-269.7 1476.08,-274.99 1486.55,-276.58 1485.25,-269.7"/>
</a>
</g>
</g>
<!-- Node6 -->
<g id="Node000006" class="node">
<title>Node6</title>
<g id="a_Node000006"><a xlink:href="UdpLogger_8h.html" target="_top" xlink:title="High&#45;frequency binary logger for UDP telemetry frames.">
<polygon fill="white" stroke="#666666" points="1350.5,-173 1175.5,-173 1175.5,-143 1350.5,-143 1350.5,-173"/>
<text text-anchor="start" x="1183.5" y="-161" font-family="Helvetica,sans-Serif" font-size="10.00">features/communication</text>
<text text-anchor="middle" x="1263" y="-150" font-family="Helvetica,sans-Serif" font-size="10.00">/udp/frames_logger/UdpLogger.h</text>
</a>
</g>
</g>
<!-- Node5&#45;&gt;Node6 -->
<g id="edge5_Node000005_Node000006" class="edge">
<title>Node5&#45;&gt;Node6</title>
<g id="a_edge5_Node000005_Node000006"><a xlink:title=" ">
<path fill="none" stroke="#63b8ff" d="M1219.69,-201.65C1229.21,-192.27 1240.12,-181.53 1248.61,-173.16"/>
<polygon fill="#63b8ff" stroke="#63b8ff" points="1217.1,-199.29 1212.43,-208.8 1222.01,-204.27 1217.1,-199.29"/>
</a>
</g>
</g>
<!-- Node7 -->
<g id="Node000007" class="node">
<title>Node7</title>
<g id="a_Node000007"><a xlink:href="UdpChannel_8h.html" target="_top" xlink:title="UDP communication channel between the microcontroller and the HMI.">
<polygon fill="white" stroke="#666666" points="1331,-107 1195,-107 1195,-77 1331,-77 1331,-107"/>
<text text-anchor="start" x="1203" y="-95" font-family="Helvetica,sans-Serif" font-size="10.00">features/communication</text>
<text text-anchor="middle" x="1263" y="-84" font-family="Helvetica,sans-Serif" font-size="10.00">/udp/UdpChannel.h</text>
</a>
</g>
</g>
<!-- Node6&#45;&gt;Node7 -->
<g id="edge6_Node000006_Node000007" class="edge">
<title>Node6&#45;&gt;Node7</title>
<g id="a_edge6_Node000006_Node000007"><a xlink:title=" ">
<path fill="none" stroke="#63b8ff" d="M1263,-132.54C1263,-123.96 1263,-114.61 1263,-107.16"/>
<polygon fill="#63b8ff" stroke="#63b8ff" points="1259.5,-132.8 1263,-142.8 1266.5,-132.8 1259.5,-132.8"/>
</a>
</g>
</g>
<!-- Node22 -->
<g id="Node000022" class="node">
<title>Node22</title>
<g id="a_Node000022"><a xlink:href="UdpWorker_8h.html" target="_top" xlink:title="UDP socket worker running on a dedicated thread.">
<polygon fill="white" stroke="#666666" points="785,-107 649,-107 649,-77 785,-77 785,-107"/>
<text text-anchor="start" x="657" y="-95" font-family="Helvetica,sans-Serif" font-size="10.00">features/communication</text>
<text text-anchor="middle" x="717" y="-84" font-family="Helvetica,sans-Serif" font-size="10.00">/udp/UdpWorker.h</text>
</a>
</g>
</g>
<!-- Node6&#45;&gt;Node22 -->
<g id="edge22_Node000006_Node000022" class="edge">
<title>Node6&#45;&gt;Node22</title>
<g id="a_edge22_Node000006_Node000022"><a xlink:title=" ">
<path fill="none" stroke="#63b8ff" d="M1165.21,-145.54C1055.61,-132.69 880.78,-112.2 785.08,-100.98"/>
<polygon fill="#63b8ff" stroke="#63b8ff" points="1164.94,-149.03 1175.28,-146.72 1165.75,-142.08 1164.94,-149.03"/>
</a>
</g>
</g>
<!-- Node6&#45;&gt;Node23 -->
<g id="edge25_Node000006_Node000023" class="edge">
<title>Node6&#45;&gt;Node23</title>
<g id="a_edge25_Node000006_Node000023"><a xlink:title=" ">
<path fill="none" stroke="#63b8ff" d="M1312.07,-139.46C1340.62,-129.25 1376.13,-116.55 1402.81,-107.01"/>
<polygon fill="#63b8ff" stroke="#63b8ff" points="1310.52,-136.29 1302.28,-142.95 1312.88,-142.88 1310.52,-136.29"/>
</a>
</g>
</g>
<!-- Node7&#45;&gt;Node3 -->
<g id="edge7_Node000007_Node000003" class="edge">
<title>Node7&#45;&gt;Node3</title>
<g id="a_edge7_Node000007_Node000003"><a xlink:title=" ">
<path fill="none" stroke="#63b8ff" d="M1184.51,-88.56C962.07,-81.46 337.64,-60.05 247,-41 235.87,-38.66 223.97,-34.23 214.46,-30.18"/>
<polygon fill="#63b8ff" stroke="#63b8ff" points="1184.69,-92.07 1194.8,-88.89 1184.92,-85.07 1184.69,-92.07"/>
</a>
</g>
</g>
<!-- Node8 -->
<g id="Node000008" class="node">
<title>Node8</title>
<g id="a_Node000008"><a xlink:href="UdpChannel_8cpp.html" target="_top" xlink:title=" ">
<polygon fill="white" stroke="#666666" points="392,-35.5 256,-35.5 256,-5.5 392,-5.5 392,-35.5"/>
<text text-anchor="start" x="264" y="-23.5" font-family="Helvetica,sans-Serif" font-size="10.00">features/communication</text>
<text text-anchor="middle" x="324" y="-12.5" font-family="Helvetica,sans-Serif" font-size="10.00">/udp/UdpChannel.cpp</text>
</a>
</g>
</g>
<!-- Node7&#45;&gt;Node8 -->
<g id="edge8_Node000007_Node000008" class="edge">
<title>Node7&#45;&gt;Node8</title>
<g id="a_edge8_Node000007_Node000008"><a xlink:title=" ">
<path fill="none" stroke="#63b8ff" d="M1184.91,-88.37C1002.17,-81.92 550.86,-64.11 401,-41 392.14,-39.63 382.82,-37.7 373.83,-35.59"/>
<polygon fill="#63b8ff" stroke="#63b8ff" points="1184.86,-91.87 1194.98,-88.73 1185.11,-84.88 1184.86,-91.87"/>
</a>
</g>
</g>
<!-- Node9 -->
<g id="Node000009" class="node">
<title>Node9</title>
<g id="a_Node000009"><a xlink:href="UdpChannelParametersViewModel_8cpp.html" target="_top" xlink:title=" ">
<polygon fill="white" stroke="#666666" points="929.5,-41 762.5,-41 762.5,0 929.5,0 929.5,-41"/>
<text text-anchor="start" x="770.5" y="-29" font-family="Helvetica,sans-Serif" font-size="10.00">features/communication</text>
<text text-anchor="start" x="770.5" y="-18" font-family="Helvetica,sans-Serif" font-size="10.00">/udp/ui/UdpChannelParameters</text>
<text text-anchor="middle" x="846" y="-7" font-family="Helvetica,sans-Serif" font-size="10.00">ViewModel.cpp</text>
</a>
</g>
</g>
<!-- Node7&#45;&gt;Node9 -->
<g id="edge9_Node000007_Node000009" class="edge">
<title>Node7&#45;&gt;Node9</title>
<g id="a_edge9_Node000007_Node000009"><a xlink:title=" ">
<path fill="none" stroke="#63b8ff" d="M1184.59,-80.1C1118.85,-70.67 1022.58,-56.2 939,-41 935.92,-40.44 932.78,-39.85 929.61,-39.25"/>
<polygon fill="#63b8ff" stroke="#63b8ff" points="1184.48,-83.62 1194.87,-81.57 1185.47,-76.69 1184.48,-83.62"/>
</a>
</g>
</g>
<!-- Node10 -->
<g id="Node000010" class="node">
<title>Node10</title>
<g id="a_Node000010"><a xlink:href="CsvExporter_8cpp.html" target="_top" xlink:title=" ">
<polygon fill="white" stroke="#666666" points="1066,-35.5 948,-35.5 948,-5.5 1066,-5.5 1066,-35.5"/>
<text text-anchor="start" x="956" y="-23.5" font-family="Helvetica,sans-Serif" font-size="10.00">features/file_export</text>
<text text-anchor="middle" x="1007" y="-12.5" font-family="Helvetica,sans-Serif" font-size="10.00">/csv/CsvExporter.cpp</text>
</a>
</g>
</g>
<!-- Node7&#45;&gt;Node10 -->
<g id="edge10_Node000007_Node000010" class="edge">
<title>Node7&#45;&gt;Node10</title>
<g id="a_edge10_Node000007_Node000010"><a xlink:title=" ">
<path fill="none" stroke="#63b8ff" d="M1199.05,-74.32C1162.64,-64.74 1116.21,-52.39 1075,-41 1068.73,-39.27 1062.14,-37.41 1055.63,-35.57"/>
<polygon fill="#63b8ff" stroke="#63b8ff" points="1198.47,-77.79 1209.04,-76.94 1200.25,-71.02 1198.47,-77.79"/>
</a>
</g>
</g>
<!-- Node11 -->
<g id="Node000011" class="node">
<title>Node11</title>
<g id="a_Node000011"><a xlink:href="ActuatorSwitchViewModel_8cpp.html" target="_top" xlink:title=" ">
<polygon fill="white" stroke="#666666" points="1251.5,-35.5 1084.5,-35.5 1084.5,-5.5 1251.5,-5.5 1251.5,-35.5"/>
<text text-anchor="start" x="1092.5" y="-23.5" font-family="Helvetica,sans-Serif" font-size="10.00">features/pid/actuator</text>
<text text-anchor="middle" x="1168" y="-12.5" font-family="Helvetica,sans-Serif" font-size="10.00">/ActuatorSwitchViewModel.cpp</text>
</a>
</g>
</g>
<!-- Node7&#45;&gt;Node11 -->
<g id="edge11_Node000007_Node000011" class="edge">
<title>Node7&#45;&gt;Node11</title>
<g id="a_edge11_Node000007_Node000011"><a xlink:title=" ">
<path fill="none" stroke="#63b8ff" d="M1235.58,-70.94C1220.09,-59.6 1201.1,-45.71 1187.2,-35.54"/>
<polygon fill="#63b8ff" stroke="#63b8ff" points="1233.64,-73.86 1243.78,-76.94 1237.77,-68.21 1233.64,-73.86"/>
</a>
</g>
</g>
<!-- Node12 -->
<g id="Node000012" class="node">
<title>Node12</title>
<g id="a_Node000012"><a xlink:href="InitialiseValveButtonViewModel_8cpp.html" target="_top" xlink:title=" ">
<polygon fill="white" stroke="#666666" points="1446.5,-41 1269.5,-41 1269.5,0 1446.5,0 1446.5,-41"/>
<text text-anchor="start" x="1277.5" y="-29" font-family="Helvetica,sans-Serif" font-size="10.00">features/pid/misc/initialise</text>
<text text-anchor="start" x="1277.5" y="-18" font-family="Helvetica,sans-Serif" font-size="10.00">_valve/InitialiseValveButtonView</text>
<text text-anchor="middle" x="1358" y="-7" font-family="Helvetica,sans-Serif" font-size="10.00">Model.cpp</text>
</a>
</g>
</g>
<!-- Node7&#45;&gt;Node12 -->
<g id="edge12_Node000007_Node000012" class="edge">
<title>Node7&#45;&gt;Node12</title>
<g id="a_edge12_Node000007_Node000012"><a xlink:title=" ">
<path fill="none" stroke="#63b8ff" d="M1290.65,-70.77C1303.44,-61.42 1318.57,-50.35 1331.24,-41.07"/>
<polygon fill="#63b8ff" stroke="#63b8ff" points="1288.23,-68.21 1282.22,-76.94 1292.36,-73.86 1288.23,-68.21"/>
</a>
</g>
</g>
<!-- Node13 -->
<g id="Node000013" class="node">
<title>Node13</title>
<g id="a_Node000013"><a xlink:href="TestBenchModel_8cpp.html" target="_top" xlink:title=" ">
<polygon fill="white" stroke="#666666" points="1647,-30 1465,-30 1465,-11 1647,-11 1647,-30"/>
<text text-anchor="middle" x="1556" y="-18" font-family="Helvetica,sans-Serif" font-size="10.00">features/test/TestBenchModel.cpp</text>
</a>
</g>
</g>
<!-- Node7&#45;&gt;Node13 -->
<g id="edge13_Node000007_Node000013" class="edge">
<title>Node7&#45;&gt;Node13</title>
<g id="a_edge13_Node000007_Node000013"><a xlink:title=" ">
<path fill="none" stroke="#63b8ff" d="M1332.26,-74.57C1391.11,-60.61 1473.25,-41.13 1519.88,-30.07"/>
<polygon fill="#63b8ff" stroke="#63b8ff" points="1331.22,-71.22 1322.29,-76.94 1332.83,-78.03 1331.22,-71.22"/>
</a>
</g>
</g>
<!-- Node14 -->
<g id="Node000014" class="node">
<title>Node14</title>
<g id="a_Node000014"><a xlink:href="CountDownClockViewModel_8cpp.html" target="_top" xlink:title=" ">
<polygon fill="white" stroke="#666666" points="1855,-41 1665,-41 1665,0 1855,0 1855,-41"/>
<text text-anchor="start" x="1673" y="-29" font-family="Helvetica,sans-Serif" font-size="10.00">features/test/frames</text>
<text text-anchor="start" x="1673" y="-18" font-family="Helvetica,sans-Serif" font-size="10.00">/countdown_clock/CountDownClock</text>
<text text-anchor="middle" x="1760" y="-7" font-family="Helvetica,sans-Serif" font-size="10.00">ViewModel.cpp</text>
</a>
</g>
</g>
<!-- Node7&#45;&gt;Node14 -->
<g id="edge14_Node000007_Node000014" class="edge">
<title>Node7&#45;&gt;Node14</title>
<g id="a_edge14_Node000007_Node000014"><a xlink:title=" ">
<path fill="none" stroke="#63b8ff" d="M1341.65,-76.82C1481.6,-56.6 1519.5,-61.55 1656,-41 1658.91,-40.56 1661.86,-40.1 1664.83,-39.63"/>
<polygon fill="#63b8ff" stroke="#63b8ff" points="1340.78,-73.41 1331.39,-78.32 1341.8,-80.34 1340.78,-73.41"/>
</a>
</g>
</g>
<!-- Node15 -->
<g id="Node000015" class="node">
<title>Node15</title>
<g id="a_Node000015"><a xlink:href="EmergencyControlsViewModel_8cpp.html" target="_top" xlink:title=" ">
<polygon fill="white" stroke="#666666" points="2049,-41 1873,-41 1873,0 2049,0 2049,-41"/>
<text text-anchor="start" x="1881" y="-29" font-family="Helvetica,sans-Serif" font-size="10.00">features/test/frames</text>
<text text-anchor="start" x="1881" y="-18" font-family="Helvetica,sans-Serif" font-size="10.00">/emergency_controls/Emergency</text>
<text text-anchor="middle" x="1961" y="-7" font-family="Helvetica,sans-Serif" font-size="10.00">ControlsViewModel.cpp</text>
</a>
</g>
</g>
<!-- Node7&#45;&gt;Node15 -->
<g id="edge15_Node000007_Node000015" class="edge">
<title>Node7&#45;&gt;Node15</title>
<g id="a_edge15_Node000007_Node000015"><a xlink:title=" ">
<path fill="none" stroke="#63b8ff" d="M1341.47,-76.92C1573.4,-48.74 1635.92,-71.63 1864,-41 1866.89,-40.61 1869.83,-40.19 1872.79,-39.74"/>
<polygon fill="#63b8ff" stroke="#63b8ff" points="1340.87,-73.46 1331.37,-78.16 1341.73,-80.41 1340.87,-73.46"/>
</a>
</g>
</g>
<!-- Node16 -->
<g id="Node000016" class="node">
<title>Node16</title>
<g id="a_Node000016"><a xlink:href="TankPressureControlerViewModel_8cpp.html" target="_top" xlink:title=" ">
<polygon fill="white" stroke="#666666" points="2223,-41 2067,-41 2067,0 2223,0 2223,-41"/>
<text text-anchor="start" x="2075" y="-29" font-family="Helvetica,sans-Serif" font-size="10.00">features/test/frames</text>
<text text-anchor="start" x="2075" y="-18" font-family="Helvetica,sans-Serif" font-size="10.00">/tank_pressure/TankPressure</text>
<text text-anchor="middle" x="2145" y="-7" font-family="Helvetica,sans-Serif" font-size="10.00">ControlerViewModel.cpp</text>
</a>
</g>
</g>
<!-- Node7&#45;&gt;Node16 -->
<g id="edge16_Node000007_Node000016" class="edge">
<title>Node7&#45;&gt;Node16</title>
<g id="a_edge16_Node000007_Node000016"><a xlink:title=" ">
<path fill="none" stroke="#63b8ff" d="M1341.32,-76.96C1659.15,-41.23 1744.65,-83.65 2058,-41 2060.91,-40.6 2063.87,-40.16 2066.86,-39.67"/>
<polygon fill="#63b8ff" stroke="#63b8ff" points="1340.9,-73.48 1331.37,-78.09 1341.7,-80.44 1340.9,-73.48"/>
</a>
</g>
</g>
<!-- Node7&#45;&gt;Node17 -->
<g id="edge17_Node000007_Node000017" class="edge">
<title>Node7&#45;&gt;Node17</title>
<g id="a_edge17_Node000007_Node000017"><a xlink:title=" ">
<path fill="none" stroke="#63b8ff" d="M1341.34,-76.97C1736.1,-34.25 1840.88,-83.99 2232,-41 2244.5,-39.63 2257.73,-37.66 2270.49,-35.51"/>
<polygon fill="#63b8ff" stroke="#63b8ff" points="1340.92,-73.49 1331.36,-78.06 1341.68,-80.45 1340.92,-73.49"/>
</a>
</g>
</g>
<!-- Node18 -->
<g id="Node000018" class="node">
<title>Node18</title>
<g id="a_Node000018"><a xlink:href="TestLauncherViewModel_8cpp.html" target="_top" xlink:title=" ">
<polygon fill="white" stroke="#666666" points="562,-41 410,-41 410,0 562,0 562,-41"/>
<text text-anchor="start" x="418" y="-29" font-family="Helvetica,sans-Serif" font-size="10.00">features/test/frames</text>
<text text-anchor="start" x="418" y="-18" font-family="Helvetica,sans-Serif" font-size="10.00">/test_launcher/TestLauncher</text>
<text text-anchor="middle" x="486" y="-7" font-family="Helvetica,sans-Serif" font-size="10.00">ViewModel.cpp</text>
</a>
</g>
</g>
<!-- Node7&#45;&gt;Node18 -->
<g id="edge18_Node000007_Node000018" class="edge">
<title>Node7&#45;&gt;Node18</title>
<g id="a_edge18_Node000007_Node000018"><a xlink:title=" ">
<path fill="none" stroke="#63b8ff" d="M1184.69,-89.25C1055.98,-85.5 791.94,-74.13 571,-41 568.16,-40.57 565.26,-40.1 562.35,-39.6"/>
<polygon fill="#63b8ff" stroke="#63b8ff" points="1184.75,-92.75 1194.84,-89.54 1184.95,-85.75 1184.75,-92.75"/>
</a>
</g>
</g>
<!-- Node19 -->
<g id="Node000019" class="node">
<title>Node19</title>
<g id="a_Node000019"><a xlink:href="AppModels_8cpp.html" target="_top" xlink:title=" ">
<polygon fill="white" stroke="#666666" points="744,-30 580,-30 580,-11 744,-11 744,-30"/>
<text text-anchor="middle" x="662" y="-18" font-family="Helvetica,sans-Serif" font-size="10.00">mvvm/models/AppModels.cpp</text>
</a>
</g>
</g>
<!-- Node7&#45;&gt;Node19 -->
<g id="edge19_Node000007_Node000019" class="edge">
<title>Node7&#45;&gt;Node19</title>
<g id="a_edge19_Node000007_Node000019"><a xlink:title=" ">
<path fill="none" stroke="#63b8ff" d="M1184.57,-86.08C1084.14,-79.15 904.92,-64.65 753,-41 734.48,-38.12 714.06,-33.84 697.26,-30.03"/>
<polygon fill="#63b8ff" stroke="#63b8ff" points="1184.42,-89.58 1194.63,-86.77 1184.9,-82.6 1184.42,-89.58"/>
</a>
</g>
</g>
<!-- Node7&#45;&gt;Node20 -->
<g id="edge20_Node000007_Node000020" class="edge">
<title>Node7&#45;&gt;Node20</title>
<g id="a_edge20_Node000007_Node000020"><a xlink:title=" ">
<path fill="none" stroke="#63b8ff" d="M1341.53,-76.96C1831.69,-25.68 1961.12,-89.96 2448,-41 2472.38,-38.55 2499.4,-34.06 2521.13,-30"/>
<polygon fill="#63b8ff" stroke="#63b8ff" points="1340.93,-73.5 1331.36,-78.03 1341.67,-80.46 1340.93,-73.5"/>
</a>
</g>
</g>
<!-- Node7&#45;&gt;Node21 -->
<g id="edge21_Node000007_Node000021" class="edge">
<title>Node7&#45;&gt;Node21</title>
<g id="a_edge21_Node000007_Node000021"><a xlink:title=" ">
<path fill="none" stroke="#63b8ff" d="M1341.43,-76.98C1933.48,-16.79 2091.8,-120.29 2678,-41 2695.08,-38.69 2713.82,-34.15 2728.76,-30.04"/>
<polygon fill="#63b8ff" stroke="#63b8ff" points="1340.95,-73.51 1331.36,-78.01 1341.66,-80.47 1340.95,-73.51"/>
</a>
</g>
</g>
<!-- Node22&#45;&gt;Node4 -->
<g id="edge24_Node000022_Node000004" class="edge">
<title>Node22&#45;&gt;Node4</title>
<g id="a_edge24_Node000022_Node000004"><a xlink:title=" ">
<path fill="none" stroke="#63b8ff" d="M638.8,-81.46C624.88,-79.88 610.52,-78.33 597,-77 396.44,-57.32 343.83,-73.85 145,-41 136.29,-39.56 127.13,-37.62 118.27,-35.53"/>
<polygon fill="#63b8ff" stroke="#63b8ff" points="638.49,-84.94 648.83,-82.61 639.29,-77.99 638.49,-84.94"/>
</a>
</g>
</g>
<!-- Node22&#45;&gt;Node8 -->
<g id="edge23_Node000022_Node000008" class="edge">
<title>Node22&#45;&gt;Node8</title>
<g id="a_edge23_Node000022_Node000008"><a xlink:title=" ">
<path fill="none" stroke="#63b8ff" d="M638.34,-77.54C637.22,-77.36 636.1,-77.18 635,-77 531.14,-60.15 504.12,-61.94 401,-41 393.16,-39.41 384.92,-37.54 376.87,-35.59"/>
<polygon fill="#63b8ff" stroke="#63b8ff" points="638.12,-81.05 648.56,-79.23 639.26,-74.15 638.12,-81.05"/>
</a>
</g>
</g>
<!-- Node24&#45;&gt;Node6 -->
<g id="edge28_Node000024_Node000006" class="edge">
<title>Node24&#45;&gt;Node6</title>
<g id="a_edge28_Node000024_Node000006"><a xlink:title=" ">
<path fill="none" stroke="#63b8ff" d="M1344.51,-203.97C1326.5,-194.03 1304.85,-182.09 1288.4,-173.01"/>
<polygon fill="#63b8ff" stroke="#63b8ff" points="1343.1,-207.19 1353.54,-208.95 1346.48,-201.06 1343.1,-207.19"/>
</a>
</g>
</g>
</g>
</svg>
