<?xml version="1.0" encoding="UTF-8" standalone="no"?>
<!DOCTYPE svg PUBLIC "-//W3C//DTD SVG 1.1//EN"
 "http://www.w3.org/Graphics/SVG/1.1/DTD/svg11.dtd">
<!-- Generated by graphviz version 2.43.0 (0)
 -->
<!-- Title: features/test/frames/terminal/LogTerminalViewModel.cpp Pages: 1 -->
<!--zoomable 401 -->

<svg id="main" version="1.1" xmlns="http://www.w3.org/2000/svg" xmlns:xlink="http://www.w3.org/1999/xlink" xml:space="preserve" onload="init(evt)">
<style type="text/css"><![CDATA[
.node, .edge {opacity: 0.7;}
.node.selected, .edge.selected {opacity: 1;}
.edge:hover path { stroke: red; }
.edge:hover polygon { stroke: red; fill: red; }
]]></style>

<defs>
  <circle id="rim" cx="0" cy="0" r="7"/>
  <circle id="rim2" cx="0" cy="0" r="3.5"/>
  <g id="zoomPlus">
    <use xlink:href="#rim" fill="#404040"><set attributeName="fill" to="#808080" begin="zoomplus.mouseover" end="zoomplus.mouseout"/></use>
    <path d="M-4,0h8M0,-4v8" fill="none" stroke="white" stroke-width="1.5" pointer-events="none"/>
  </g>
  <g id="zoomMin">
    <use xlink:href="#rim" fill="#404040"><set attributeName="fill" to="#808080" begin="zoomminus.mouseover" end="zoomminus.mouseout"/></use>
    <path d="M-4,0h8" fill="none" stroke="white" stroke-width="1.5" pointer-events="none"/>
  </g>
  <g id="arrowUp" transform="translate(30 24)">
    <use xlink:href="#rim"/>
    <path pointer-events="none" fill="none" stroke="white" stroke-width="1.5" d="M0,-3.0v7 M-2.5,-0.5L0,-3.0L2.5,-0.5"/>
  </g>
  <g id="arrowRight" transform="rotate(90) translate(36 -43)">
    <use xlink:href="#rim"/>
    <path pointer-events="none" fill="none" stroke="white" stroke-width="1.5" d="M0,-3.0v7 M-2.5,-0.5L0,-3.0L2.5,-0.5"/>
  </g>
  <g id="arrowDown" transform="rotate(180) translate(-30 -48)">
    <use xlink:href="#rim"/>
    <path pointer-events="none" fill="none" stroke="white" stroke-width="1.5" d="M0,-3.0v7 M-2.5,-0.5L0,-3.0L2.5,-0.5"/>
  </g>
  <g id="arrowLeft" transform="rotate(270) translate(-36 17)">
    <use xlink:href="#rim"/>
    <path pointer-events="none" fill="none" stroke="white" stroke-width="1.5" d="M0,-3.0v7 M-2.5,-0.5L0,-3.0L2.5,-0.5"/>
  </g>
  <g id="resetDef">
    <use xlink:href="#rim2" fill="#404040"><set attributeName="fill" to="#808080" begin="reset.mouseover" end="reset.mouseout"/></use>
  </g>
</defs>
<script type="application/ecmascript">
var viewWidth = 1037;
var viewHeight = 401;
var sectionId = 'dynsection-0';
</script>
<script type="application/ecmascript" xlink:href="svg.min.js"/>
<svg id="graph" class="graph">
<g id="viewport">
<title>features/test/frames/terminal/LogTerminalViewModel.cpp</title>
<!-- Node1 -->
<g id="Node000001" class="node">
<title>Node1</title>
<g id="a_Node000001"><a xlink:title=" ">
<polygon fill="#999999" stroke="#666666" points="465,-393 268,-393 268,-363 465,-363 465,-393"/>
<text text-anchor="start" x="276" y="-381" font-family="Helvetica,sans-Serif" font-size="10.00">features/test/frames</text>
<text text-anchor="middle" x="366.5" y="-370" font-family="Helvetica,sans-Serif" font-size="10.00">/terminal/LogTerminalViewModel.cpp</text>
</a>
</g>
</g>
<!-- Node2 -->
<g id="Node000002" class="node">
<title>Node2</title>
<g id="a_Node000002"><a xlink:href="LogTerminalViewModel_8h.html" target="_top" xlink:title=" ">
<polygon fill="white" stroke="#666666" points="351,-145.5 212,-145.5 212,-126.5 351,-126.5 351,-145.5"/>
<text text-anchor="middle" x="281.5" y="-133.5" font-family="Helvetica,sans-Serif" font-size="10.00">LogTerminalViewModel.h</text>
</a>
</g>
</g>
<!-- Node1&#45;&gt;Node2 -->
<g id="edge1_Node000001_Node000002" class="edge">
<title>Node1&#45;&gt;Node2</title>
<g id="a_edge1_Node000001_Node000002"><a xlink:title=" ">
<path fill="none" stroke="#63b8ff" d="M331.92,-362.94C314.9,-354.59 295.16,-342.57 281.5,-327 260.49,-303.05 259.85,-292.22 253.5,-261 245.8,-223.13 261.73,-179.06 272.57,-154.98"/>
<polygon fill="#63b8ff" stroke="#63b8ff" points="275.85,-156.23 276.95,-145.69 269.52,-153.24 275.85,-156.23"/>
</a>
</g>
</g>
<!-- Node4 -->
<g id="Node000004" class="node">
<title>Node4</title>
<g id="a_Node000004"><a xlink:href="Messages_8h.html" target="_top" xlink:title=" ">
<polygon fill="white" stroke="#666666" points="308,-85 205,-85 205,-55 308,-55 308,-85"/>
<text text-anchor="start" x="213" y="-73" font-family="Helvetica,sans-Serif" font-size="10.00">src/core/Protocols</text>
<text text-anchor="middle" x="256.5" y="-62" font-family="Helvetica,sans-Serif" font-size="10.00">/Messages.h</text>
</a>
</g>
</g>
<!-- Node1&#45;&gt;Node4 -->
<g id="edge39_Node000001_Node000004" class="edge">
<title>Node1&#45;&gt;Node4</title>
<g id="a_edge39_Node000001_Node000004"><a xlink:title=" ">
<path fill="none" stroke="#63b8ff" d="M277.25,-362.93C215.91,-347.6 145.5,-316.13 145.5,-252.5 145.5,-252.5 145.5,-252.5 145.5,-195.5 145.5,-149.05 189.09,-111.92 221.63,-90.68"/>
<polygon fill="#63b8ff" stroke="#63b8ff" points="223.88,-93.4 230.48,-85.11 220.15,-87.48 223.88,-93.4"/>
</a>
</g>
</g>
<!-- Node12 -->
<g id="Node000012" class="node">
<title>Node12</title>
<g id="a_Node000012"><a xlink:href="Logger_8h.html" target="_top" xlink:title=" ">
<polygon fill="white" stroke="#666666" points="578.5,-151 468.5,-151 468.5,-121 578.5,-121 578.5,-151"/>
<text text-anchor="start" x="476.5" y="-139" font-family="Helvetica,sans-Serif" font-size="10.00">src/services/Logger</text>
<text text-anchor="middle" x="523.5" y="-128" font-family="Helvetica,sans-Serif" font-size="10.00">/Logger.h</text>
</a>
</g>
</g>
<!-- Node1&#45;&gt;Node12 -->
<g id="edge12_Node000001_Node000012" class="edge">
<title>Node1&#45;&gt;Node12</title>
<g id="a_edge12_Node000001_Node000012"><a xlink:title=" ">
<path fill="none" stroke="#63b8ff" d="M458.35,-362.99C518.72,-348.5 593.37,-319.32 631.5,-261 658.01,-220.46 601.94,-179.19 561.11,-155.96"/>
<polygon fill="#63b8ff" stroke="#63b8ff" points="562.59,-152.79 552.15,-151.01 559.21,-158.91 562.59,-152.79"/>
</a>
</g>
</g>
<!-- Node14 -->
<g id="Node000014" class="node">
<title>Node14</title>
<g id="a_Node000014"><a xlink:href="UdpChannel_8h.html" target="_top" xlink:title="UDP Communicaton channel between the microcontroler and the HMI.">
<polygon fill="white" stroke="#666666" points="443,-327 290,-327 290,-297 443,-297 443,-327"/>
<text text-anchor="start" x="298" y="-315" font-family="Helvetica,sans-Serif" font-size="10.00">src/features/communication</text>
<text text-anchor="middle" x="366.5" y="-304" font-family="Helvetica,sans-Serif" font-size="10.00">/udp/UdpChannel.h</text>
</a>
</g>
</g>
<!-- Node1&#45;&gt;Node14 -->
<g id="edge15_Node000001_Node000014" class="edge">
<title>Node1&#45;&gt;Node14</title>
<g id="a_edge15_Node000001_Node000014"><a xlink:title=" ">
<path fill="none" stroke="#63b8ff" d="M366.5,-362.8C366.5,-355.34 366.5,-345.99 366.5,-337.41"/>
<polygon fill="#63b8ff" stroke="#63b8ff" points="370,-337.16 366.5,-327.16 363,-337.16 370,-337.16"/>
</a>
</g>
</g>
<!-- Node19 -->
<g id="Node000019" class="node">
<title>Node19</title>
<g id="a_Node000019"><a xlink:title=" ">
<polygon fill="#e0e0e0" stroke="#999999" points="1028.5,-145.5 972.5,-145.5 972.5,-126.5 1028.5,-126.5 1028.5,-145.5"/>
<text text-anchor="middle" x="1000.5" y="-133.5" font-family="Helvetica,sans-Serif" font-size="10.00">QDebug</text>
</a>
</g>
</g>
<!-- Node1&#45;&gt;Node19 -->
<g id="edge40_Node000001_Node000019" class="edge">
<title>Node1&#45;&gt;Node19</title>
<g id="a_edge40_Node000001_Node000019"><a xlink:title=" ">
<path fill="none" stroke="#63b8ff" d="M444.11,-362.97C487.84,-354.26 543.23,-341.9 591.5,-327 730.06,-284.24 765.78,-272.77 894.5,-206 925.91,-189.71 959.78,-166.58 980.57,-151.69"/>
<polygon fill="#63b8ff" stroke="#63b8ff" points="982.84,-154.36 988.88,-145.66 978.73,-148.69 982.84,-154.36"/>
</a>
</g>
</g>
<!-- Node3 -->
<g id="Node000003" class="node">
<title>Node3</title>
<g id="a_Node000003"><a xlink:title=" ">
<polygon fill="#e0e0e0" stroke="#999999" points="417.5,-19 361.5,-19 361.5,0 417.5,0 417.5,-19"/>
<text text-anchor="middle" x="389.5" y="-7" font-family="Helvetica,sans-Serif" font-size="10.00">QObject</text>
</a>
</g>
</g>
<!-- Node2&#45;&gt;Node3 -->
<g id="edge2_Node000002_Node000003" class="edge">
<title>Node2&#45;&gt;Node3</title>
<g id="a_edge2_Node000002_Node000003"><a xlink:title=" ">
<path fill="none" stroke="#63b8ff" d="M288.92,-126.44C306.73,-105.92 352.09,-53.62 375.32,-26.84"/>
<polygon fill="#63b8ff" stroke="#63b8ff" points="378.12,-28.96 382.02,-19.12 372.83,-24.38 378.12,-28.96"/>
</a>
</g>
</g>
<!-- Node2&#45;&gt;Node4 -->
<g id="edge3_Node000002_Node000004" class="edge">
<title>Node2&#45;&gt;Node4</title>
<g id="a_edge3_Node000002_Node000004"><a xlink:title=" ">
<path fill="none" stroke="#63b8ff" d="M278.13,-126.37C274.99,-118.32 270.15,-105.94 265.85,-94.93"/>
<polygon fill="#63b8ff" stroke="#63b8ff" points="269.01,-93.4 262.11,-85.36 262.49,-95.95 269.01,-93.4"/>
</a>
</g>
</g>
<!-- Node4&#45;&gt;Node3 -->
<g id="edge10_Node000004_Node000003" class="edge">
<title>Node4&#45;&gt;Node3</title>
<g id="a_edge10_Node000004_Node000003"><a xlink:title=" ">
<path fill="none" stroke="#63b8ff" d="M288.36,-54.99C310.35,-45.31 339.35,-32.56 360.66,-23.18"/>
<polygon fill="#63b8ff" stroke="#63b8ff" points="362.11,-26.37 369.86,-19.14 359.3,-19.96 362.11,-26.37"/>
</a>
</g>
</g>
<!-- Node5 -->
<g id="Node000005" class="node">
<title>Node5</title>
<g id="a_Node000005"><a xlink:title=" ">
<polygon fill="#e0e0e0" stroke="#999999" points="343,-19 292,-19 292,0 343,0 343,-19"/>
<text text-anchor="middle" x="317.5" y="-7" font-family="Helvetica,sans-Serif" font-size="10.00">variant</text>
</a>
</g>
</g>
<!-- Node4&#45;&gt;Node5 -->
<g id="edge4_Node000004_Node000005" class="edge">
<title>Node4&#45;&gt;Node5</title>
<g id="a_edge4_Node000004_Node000005"><a xlink:title=" ">
<path fill="none" stroke="#63b8ff" d="M271.27,-54.84C280.21,-46.26 291.64,-35.3 300.9,-26.42"/>
<polygon fill="#63b8ff" stroke="#63b8ff" points="303.56,-28.71 308.36,-19.27 298.72,-23.66 303.56,-28.71"/>
</a>
</g>
</g>
<!-- Node6 -->
<g id="Node000006" class="node">
<title>Node6</title>
<g id="a_Node000006"><a xlink:title=" ">
<polygon fill="#e0e0e0" stroke="#999999" points="739.5,-19 689.5,-19 689.5,0 739.5,0 739.5,-19"/>
<text text-anchor="middle" x="714.5" y="-7" font-family="Helvetica,sans-Serif" font-size="10.00">cstdint</text>
</a>
</g>
</g>
<!-- Node4&#45;&gt;Node6 -->
<g id="edge5_Node000004_Node000006" class="edge">
<title>Node4&#45;&gt;Node6</title>
<g id="a_edge5_Node000004_Node000006"><a xlink:title=" ">
<path fill="none" stroke="#63b8ff" d="M308.15,-62.4C402.18,-50.39 599.02,-25.25 679.29,-15"/>
<polygon fill="#63b8ff" stroke="#63b8ff" points="679.9,-18.45 689.37,-13.71 679.01,-11.5 679.9,-18.45"/>
</a>
</g>
</g>
<!-- Node7 -->
<g id="Node000007" class="node">
<title>Node7</title>
<g id="a_Node000007"><a xlink:title=" ">
<polygon fill="#e0e0e0" stroke="#999999" points="554.5,-19 510.5,-19 510.5,0 554.5,0 554.5,-19"/>
<text text-anchor="middle" x="532.5" y="-7" font-family="Helvetica,sans-Serif" font-size="10.00">string</text>
</a>
</g>
</g>
<!-- Node4&#45;&gt;Node7 -->
<g id="edge6_Node000004_Node000007" class="edge">
<title>Node4&#45;&gt;Node7</title>
<g id="a_edge6_Node000004_Node000007"><a xlink:title=" ">
<path fill="none" stroke="#63b8ff" d="M308.09,-58.07C364.52,-46.11 453.19,-27.31 500.41,-17.3"/>
<polygon fill="#63b8ff" stroke="#63b8ff" points="501.32,-20.69 510.38,-15.19 499.87,-13.84 501.32,-20.69"/>
</a>
</g>
</g>
<!-- Node8 -->
<g id="Node000008" class="node">
<title>Node8</title>
<g id="a_Node000008"><a xlink:title=" ">
<polygon fill="#e0e0e0" stroke="#999999" points="73,-19 0,-19 0,0 73,0 73,-19"/>
<text text-anchor="middle" x="36.5" y="-7" font-family="Helvetica,sans-Serif" font-size="10.00">QByteArray</text>
</a>
</g>
</g>
<!-- Node4&#45;&gt;Node8 -->
<g id="edge7_Node000004_Node000008" class="edge">
<title>Node4&#45;&gt;Node8</title>
<g id="a_edge7_Node000004_Node000008"><a xlink:title=" ">
<path fill="none" stroke="#63b8ff" d="M204.92,-55.28C166.38,-45.04 114.36,-31.2 78.38,-21.64"/>
<polygon fill="#63b8ff" stroke="#63b8ff" points="79.24,-18.24 68.68,-19.06 77.44,-25.01 79.24,-18.24"/>
</a>
</g>
</g>
<!-- Node9 -->
<g id="Node000009" class="node">
<title>Node9</title>
<g id="a_Node000009"><a xlink:title=" ">
<polygon fill="#e0e0e0" stroke="#999999" points="140,-19 91,-19 91,0 140,0 140,-19"/>
<text text-anchor="middle" x="115.5" y="-7" font-family="Helvetica,sans-Serif" font-size="10.00">QHash</text>
</a>
</g>
</g>
<!-- Node4&#45;&gt;Node9 -->
<g id="edge8_Node000004_Node000009" class="edge">
<title>Node4&#45;&gt;Node9</title>
<g id="a_edge8_Node000004_Node000009"><a xlink:title=" ">
<path fill="none" stroke="#63b8ff" d="M222.73,-54.99C199.31,-45.27 168.38,-32.44 145.77,-23.06"/>
<polygon fill="#63b8ff" stroke="#63b8ff" points="146.9,-19.74 136.32,-19.14 144.22,-26.2 146.9,-19.74"/>
</a>
</g>
</g>
<!-- Node10 -->
<g id="Node000010" class="node">
<title>Node10</title>
<g id="a_Node000010"><a xlink:title=" ">
<polygon fill="#e0e0e0" stroke="#999999" points="211,-19 158,-19 158,0 211,0 211,-19"/>
<text text-anchor="middle" x="184.5" y="-7" font-family="Helvetica,sans-Serif" font-size="10.00">QString</text>
</a>
</g>
</g>
<!-- Node4&#45;&gt;Node10 -->
<g id="edge9_Node000004_Node000010" class="edge">
<title>Node4&#45;&gt;Node10</title>
<g id="a_edge9_Node000004_Node000010"><a xlink:title=" ">
<path fill="none" stroke="#63b8ff" d="M239.07,-54.84C228.19,-46 214.2,-34.63 203.11,-25.62"/>
<polygon fill="#63b8ff" stroke="#63b8ff" points="205.26,-22.86 195.29,-19.27 200.84,-28.29 205.26,-22.86"/>
</a>
</g>
</g>
<!-- Node11 -->
<g id="Node000011" class="node">
<title>Node11</title>
<g id="a_Node000011"><a xlink:title=" ">
<polygon fill="#e0e0e0" stroke="#999999" points="274,-19 229,-19 229,0 274,0 274,-19"/>
<text text-anchor="middle" x="251.5" y="-7" font-family="Helvetica,sans-Serif" font-size="10.00">QMap</text>
</a>
</g>
</g>
<!-- Node4&#45;&gt;Node11 -->
<g id="edge11_Node000004_Node000011" class="edge">
<title>Node4&#45;&gt;Node11</title>
<g id="a_edge11_Node000004_Node000011"><a xlink:title=" ">
<path fill="none" stroke="#63b8ff" d="M255.29,-54.84C254.64,-47.21 253.83,-37.7 253.12,-29.45"/>
<polygon fill="#63b8ff" stroke="#63b8ff" points="256.59,-28.93 252.25,-19.27 249.61,-29.53 256.59,-28.93"/>
</a>
</g>
</g>
<!-- Node12&#45;&gt;Node4 -->
<g id="edge14_Node000012_Node000004" class="edge">
<title>Node12&#45;&gt;Node4</title>
<g id="a_edge14_Node000012_Node000004"><a xlink:title=" ">
<path fill="none" stroke="#63b8ff" d="M468.18,-121.74C424.44,-111.26 363.42,-96.63 318.12,-85.77"/>
<polygon fill="#63b8ff" stroke="#63b8ff" points="318.67,-82.3 308.13,-83.38 317.04,-89.11 318.67,-82.3"/>
</a>
</g>
</g>
<!-- Node13 -->
<g id="Node000013" class="node">
<title>Node13</title>
<g id="a_Node000013"><a xlink:title=" ">
<polygon fill="#e0e0e0" stroke="#999999" points="553,-79.5 494,-79.5 494,-60.5 553,-60.5 553,-79.5"/>
<text text-anchor="middle" x="523.5" y="-67.5" font-family="Helvetica,sans-Serif" font-size="10.00">QWidget</text>
</a>
</g>
</g>
<!-- Node12&#45;&gt;Node13 -->
<g id="edge13_Node000012_Node000013" class="edge">
<title>Node12&#45;&gt;Node13</title>
<g id="a_edge13_Node000012_Node000013"><a xlink:title=" ">
<path fill="none" stroke="#63b8ff" d="M523.5,-120.8C523.5,-111.7 523.5,-99.79 523.5,-89.9"/>
<polygon fill="#63b8ff" stroke="#63b8ff" points="527,-89.84 523.5,-79.84 520,-89.84 527,-89.84"/>
</a>
</g>
</g>
<!-- Node14&#45;&gt;Node3 -->
<g id="edge16_Node000014_Node000003" class="edge">
<title>Node14&#45;&gt;Node3</title>
<g id="a_edge16_Node000014_Node000003"><a xlink:title=" ">
<path fill="none" stroke="#63b8ff" d="M367.58,-296.91C371.33,-247.94 383.79,-85.14 388.05,-29.41"/>
<polygon fill="#63b8ff" stroke="#63b8ff" points="391.56,-29.46 388.83,-19.22 384.58,-28.92 391.56,-29.46"/>
</a>
</g>
</g>
<!-- Node14&#45;&gt;Node4 -->
<g id="edge19_Node000014_Node000004" class="edge">
<title>Node14&#45;&gt;Node4</title>
<g id="a_edge19_Node000014_Node000004"><a xlink:title=" ">
<path fill="none" stroke="#63b8ff" d="M314.52,-296.96C293.49,-289.17 270.27,-277.6 253.5,-261 206.55,-214.52 177.33,-181.67 203.5,-121 208.42,-109.59 217.37,-99.58 226.53,-91.56"/>
<polygon fill="#63b8ff" stroke="#63b8ff" points="228.98,-94.08 234.54,-85.06 224.57,-88.65 228.98,-94.08"/>
</a>
</g>
</g>
<!-- Node15 -->
<g id="Node000015" class="node">
<title>Node15</title>
<g id="a_Node000015"><a xlink:title=" ">
<polygon fill="#e0e0e0" stroke="#999999" points="622.5,-261 564.5,-261 564.5,-242 622.5,-242 622.5,-261"/>
<text text-anchor="middle" x="593.5" y="-249" font-family="Helvetica,sans-Serif" font-size="10.00">QThread</text>
</a>
</g>
</g>
<!-- Node14&#45;&gt;Node15 -->
<g id="edge17_Node000014_Node000015" class="edge">
<title>Node14&#45;&gt;Node15</title>
<g id="a_edge17_Node000014_Node000015"><a xlink:title=" ">
<path fill="none" stroke="#63b8ff" d="M420.87,-296.99C462,-286.39 517.49,-272.09 554.33,-262.6"/>
<polygon fill="#63b8ff" stroke="#63b8ff" points="555.39,-265.94 564.2,-260.05 553.64,-259.16 555.39,-265.94"/>
</a>
</g>
</g>
<!-- Node16 -->
<g id="Node000016" class="node">
<title>Node16</title>
<g id="a_Node000016"><a xlink:title=" ">
<polygon fill="#e0e0e0" stroke="#999999" points="338.5,-261 262.5,-261 262.5,-242 338.5,-242 338.5,-261"/>
<text text-anchor="middle" x="300.5" y="-249" font-family="Helvetica,sans-Serif" font-size="10.00">QUdpSocket</text>
</a>
</g>
</g>
<!-- Node14&#45;&gt;Node16 -->
<g id="edge18_Node000014_Node000016" class="edge">
<title>Node14&#45;&gt;Node16</title>
<g id="a_edge18_Node000014_Node000016"><a xlink:title=" ">
<path fill="none" stroke="#63b8ff" d="M350.52,-296.84C340.75,-288.17 328.23,-277.08 318.16,-268.15"/>
<polygon fill="#63b8ff" stroke="#63b8ff" points="320.19,-265.28 310.39,-261.27 315.55,-270.52 320.19,-265.28"/>
</a>
</g>
</g>
<!-- Node17 -->
<g id="Node000017" class="node">
<title>Node17</title>
<g id="a_Node000017"><a xlink:href="UdpLogger_8h.html" target="_top" xlink:title=" ">
<polygon fill="white" stroke="#666666" points="546,-261 395,-261 395,-242 546,-242 546,-261"/>
<text text-anchor="middle" x="470.5" y="-249" font-family="Helvetica,sans-Serif" font-size="10.00">frames_logger/UdpLogger.h</text>
</a>
</g>
</g>
<!-- Node14&#45;&gt;Node17 -->
<g id="edge20_Node000014_Node000017" class="edge">
<title>Node14&#45;&gt;Node17</title>
<g id="a_edge20_Node000014_Node000017"><a xlink:title=" ">
<path fill="none" stroke="#63b8ff" d="M391.41,-296.99C407.99,-287.66 429.66,-275.47 446.13,-266.21"/>
<polygon fill="#63b8ff" stroke="#63b8ff" points="448.14,-269.09 455.14,-261.14 444.71,-262.99 448.14,-269.09"/>
</a>
</g>
</g>
<!-- Node17&#45;&gt;Node6 -->
<g id="edge34_Node000017_Node000006" class="edge">
<title>Node17&#45;&gt;Node6</title>
<g id="a_edge34_Node000017_Node000006"><a xlink:title=" ">
<path fill="none" stroke="#63b8ff" d="M546.05,-242.9C620.58,-234.61 725.14,-220.59 737.5,-206 781.11,-154.52 743.77,-66.16 724.41,-28.43"/>
<polygon fill="#63b8ff" stroke="#63b8ff" points="727.29,-26.39 719.5,-19.2 721.11,-29.67 727.29,-26.39"/>
</a>
</g>
</g>
<!-- Node17&#45;&gt;Node12 -->
<g id="edge38_Node000017_Node000012" class="edge">
<title>Node17&#45;&gt;Node12</title>
<g id="a_edge38_Node000017_Node000012"><a xlink:title=" ">
<path fill="none" stroke="#63b8ff" d="M531.08,-241.92C552.54,-235.65 574.55,-224.79 587.5,-206 600.08,-187.76 581.37,-169.48 560.99,-156.32"/>
<polygon fill="#63b8ff" stroke="#63b8ff" points="562.6,-153.21 552.24,-151.01 558.97,-159.19 562.6,-153.21"/>
</a>
</g>
</g>
<!-- Node18 -->
<g id="Node000018" class="node">
<title>Node18</title>
<g id="a_Node000018"><a xlink:href="RingBuffer_8h.html" target="_top" xlink:title=" ">
<polygon fill="white" stroke="#666666" points="860.5,-206 784.5,-206 784.5,-187 860.5,-187 860.5,-206"/>
<text text-anchor="middle" x="822.5" y="-194" font-family="Helvetica,sans-Serif" font-size="10.00">RingBuffer.h</text>
</a>
</g>
</g>
<!-- Node17&#45;&gt;Node18 -->
<g id="edge21_Node000017_Node000018" class="edge">
<title>Node17&#45;&gt;Node18</title>
<g id="a_edge21_Node000017_Node000018"><a xlink:title=" ">
<path fill="none" stroke="#63b8ff" d="M529.74,-241.98C590.28,-233.2 687,-219.02 770.5,-206 771.77,-205.8 773.06,-205.6 774.36,-205.39"/>
<polygon fill="#63b8ff" stroke="#63b8ff" points="775.13,-208.82 784.45,-203.79 774.03,-201.9 775.13,-208.82"/>
</a>
</g>
</g>
<!-- Node21 -->
<g id="Node000021" class="node">
<title>Node21</title>
<g id="a_Node000021"><a xlink:title=" ">
<polygon fill="#e0e0e0" stroke="#999999" points="954.5,-145.5 904.5,-145.5 904.5,-126.5 954.5,-126.5 954.5,-145.5"/>
<text text-anchor="middle" x="929.5" y="-133.5" font-family="Helvetica,sans-Serif" font-size="10.00">atomic</text>
</a>
</g>
</g>
<!-- Node17&#45;&gt;Node21 -->
<g id="edge33_Node000017_Node000021" class="edge">
<title>Node17&#45;&gt;Node21</title>
<g id="a_edge33_Node000017_Node000021"><a xlink:title=" ">
<path fill="none" stroke="#63b8ff" d="M546.21,-242.76C659.93,-231.03 862.41,-209.72 869.5,-206 891.83,-194.29 909.55,-170.55 919.78,-154.22"/>
<polygon fill="#63b8ff" stroke="#63b8ff" points="922.8,-155.98 924.92,-145.6 916.79,-152.4 922.8,-155.98"/>
</a>
</g>
</g>
<!-- Node23 -->
<g id="Node000023" class="node">
<title>Node23</title>
<g id="a_Node000023"><a xlink:href="Writer_8h.html" target="_top" xlink:title=" ">
<polygon fill="white" stroke="#666666" points="728,-206 673,-206 673,-187 728,-187 728,-206"/>
<text text-anchor="middle" x="700.5" y="-194" font-family="Helvetica,sans-Serif" font-size="10.00">Writer.h</text>
</a>
</g>
</g>
<!-- Node17&#45;&gt;Node23 -->
<g id="edge28_Node000017_Node000023" class="edge">
<title>Node17&#45;&gt;Node23</title>
<g id="a_edge28_Node000017_Node000023"><a xlink:title=" ">
<path fill="none" stroke="#63b8ff" d="M507.45,-241.98C550.13,-232.15 619.95,-216.06 662.9,-206.17"/>
<polygon fill="#63b8ff" stroke="#63b8ff" points="663.72,-209.57 672.68,-203.91 662.15,-202.75 663.72,-209.57"/>
</a>
</g>
</g>
<!-- Node24 -->
<g id="Node000024" class="node">
<title>Node24</title>
<g id="a_Node000024"><a xlink:title=" ">
<polygon fill="#e0e0e0" stroke="#999999" points="442.5,-206 394.5,-206 394.5,-187 442.5,-187 442.5,-206"/>
<text text-anchor="middle" x="418.5" y="-194" font-family="Helvetica,sans-Serif" font-size="10.00">thread</text>
</a>
</g>
</g>
<!-- Node17&#45;&gt;Node24 -->
<g id="edge35_Node000017_Node000024" class="edge">
<title>Node17&#45;&gt;Node24</title>
<g id="a_edge35_Node000017_Node000024"><a xlink:title=" ">
<path fill="none" stroke="#63b8ff" d="M461.91,-241.75C454.34,-234.03 443.12,-222.6 433.99,-213.28"/>
<polygon fill="#63b8ff" stroke="#63b8ff" points="436.43,-210.78 426.93,-206.09 431.43,-215.68 436.43,-210.78"/>
</a>
</g>
</g>
<!-- Node25 -->
<g id="Node000025" class="node">
<title>Node25</title>
<g id="a_Node000025"><a xlink:title=" ">
<polygon fill="#e0e0e0" stroke="#999999" points="510.5,-206 460.5,-206 460.5,-187 510.5,-187 510.5,-206"/>
<text text-anchor="middle" x="485.5" y="-194" font-family="Helvetica,sans-Serif" font-size="10.00">chrono</text>
</a>
</g>
</g>
<!-- Node17&#45;&gt;Node25 -->
<g id="edge36_Node000017_Node000025" class="edge">
<title>Node17&#45;&gt;Node25</title>
<g id="a_edge36_Node000017_Node000025"><a xlink:title=" ">
<path fill="none" stroke="#63b8ff" d="M472.98,-241.75C474.96,-234.72 477.82,-224.62 480.31,-215.84"/>
<polygon fill="#63b8ff" stroke="#63b8ff" points="483.71,-216.66 483.07,-206.09 476.98,-214.76 483.71,-216.66"/>
</a>
</g>
</g>
<!-- Node26 -->
<g id="Node000026" class="node">
<title>Node26</title>
<g id="a_Node000026"><a xlink:title=" ">
<polygon fill="#e0e0e0" stroke="#999999" points="578.5,-206 528.5,-206 528.5,-187 578.5,-187 578.5,-206"/>
<text text-anchor="middle" x="553.5" y="-194" font-family="Helvetica,sans-Serif" font-size="10.00">format</text>
</a>
</g>
</g>
<!-- Node17&#45;&gt;Node26 -->
<g id="edge37_Node000017_Node000026" class="edge">
<title>Node17&#45;&gt;Node26</title>
<g id="a_edge37_Node000017_Node000026"><a xlink:title=" ">
<path fill="none" stroke="#63b8ff" d="M483.84,-241.98C496.59,-233.84 516.05,-221.41 531.17,-211.76"/>
<polygon fill="#63b8ff" stroke="#63b8ff" points="533.38,-214.5 539.92,-206.17 529.61,-208.6 533.38,-214.5"/>
</a>
</g>
</g>
<!-- Node18&#45;&gt;Node6 -->
<g id="edge23_Node000018_Node000006" class="edge">
<title>Node18&#45;&gt;Node6</title>
<g id="a_edge23_Node000018_Node000006"><a xlink:title=" ">
<path fill="none" stroke="#63b8ff" d="M820.99,-186.82C816.59,-163.55 802.08,-98.6 770.5,-55 761.82,-43.02 749.09,-32.55 737.96,-24.78"/>
<polygon fill="#63b8ff" stroke="#63b8ff" points="739.75,-21.77 729.48,-19.15 735.88,-27.6 739.75,-21.77"/>
</a>
</g>
</g>
<!-- Node18&#45;&gt;Node12 -->
<g id="edge27_Node000018_Node000012" class="edge">
<title>Node18&#45;&gt;Node12</title>
<g id="a_edge27_Node000018_Node000012"><a xlink:title=" ">
<path fill="none" stroke="#63b8ff" d="M784.33,-188.03C735.07,-178.39 648.6,-161.48 588.8,-149.78"/>
<polygon fill="#63b8ff" stroke="#63b8ff" points="589.19,-146.29 578.71,-147.8 587.85,-153.16 589.19,-146.29"/>
</a>
</g>
</g>
<!-- Node18&#45;&gt;Node19 -->
<g id="edge22_Node000018_Node000019" class="edge">
<title>Node18&#45;&gt;Node19</title>
<g id="a_edge22_Node000018_Node000019"><a xlink:title=" ">
<path fill="none" stroke="#63b8ff" d="M851.28,-186.93C879.88,-178.3 924.94,-164.37 963.5,-151 965.15,-150.43 966.84,-149.83 968.54,-149.22"/>
<polygon fill="#63b8ff" stroke="#63b8ff" points="970.09,-152.38 978.27,-145.64 967.68,-145.81 970.09,-152.38"/>
</a>
</g>
</g>
<!-- Node20 -->
<g id="Node000020" class="node">
<title>Node20</title>
<g id="a_Node000020"><a xlink:title=" ">
<polygon fill="#e0e0e0" stroke="#999999" points="728,-145.5 673,-145.5 673,-126.5 728,-126.5 728,-145.5"/>
<text text-anchor="middle" x="700.5" y="-133.5" font-family="Helvetica,sans-Serif" font-size="10.00">fstream</text>
</a>
</g>
</g>
<!-- Node18&#45;&gt;Node20 -->
<g id="edge24_Node000018_Node000020" class="edge">
<title>Node18&#45;&gt;Node20</title>
<g id="a_edge24_Node000018_Node000020"><a xlink:title=" ">
<path fill="none" stroke="#63b8ff" d="M804.76,-186.99C784.43,-177.25 750.89,-161.16 727.36,-149.88"/>
<polygon fill="#63b8ff" stroke="#63b8ff" points="728.79,-146.68 718.26,-145.52 725.76,-153 728.79,-146.68"/>
</a>
</g>
</g>
<!-- Node18&#45;&gt;Node21 -->
<g id="edge25_Node000018_Node000021" class="edge">
<title>Node18&#45;&gt;Node21</title>
<g id="a_edge25_Node000018_Node000021"><a xlink:title=" ">
<path fill="none" stroke="#63b8ff" d="M838.29,-186.87C855.83,-177.28 884.38,-161.67 904.87,-150.47"/>
<polygon fill="#63b8ff" stroke="#63b8ff" points="906.55,-153.54 913.65,-145.67 903.19,-147.39 906.55,-153.54"/>
</a>
</g>
</g>
<!-- Node22 -->
<g id="Node000022" class="node">
<title>Node22</title>
<g id="a_Node000022"><a xlink:title=" ">
<polygon fill="#e0e0e0" stroke="#999999" points="886.5,-145.5 822.5,-145.5 822.5,-126.5 886.5,-126.5 886.5,-145.5"/>
<text text-anchor="middle" x="854.5" y="-133.5" font-family="Helvetica,sans-Serif" font-size="10.00">algorithm</text>
</a>
</g>
</g>
<!-- Node18&#45;&gt;Node22 -->
<g id="edge26_Node000018_Node000022" class="edge">
<title>Node18&#45;&gt;Node22</title>
<g id="a_edge26_Node000018_Node000022"><a xlink:title=" ">
<path fill="none" stroke="#63b8ff" d="M827.22,-186.87C831.85,-178.4 839.05,-165.24 844.89,-154.57"/>
<polygon fill="#63b8ff" stroke="#63b8ff" points="848.03,-156.12 849.76,-145.67 841.89,-152.76 848.03,-156.12"/>
</a>
</g>
</g>
<!-- Node23&#45;&gt;Node6 -->
<g id="edge29_Node000023_Node000006" class="edge">
<title>Node23&#45;&gt;Node6</title>
<g id="a_edge29_Node000023_Node000006"><a xlink:title=" ">
<path fill="none" stroke="#63b8ff" d="M690.34,-186.81C681.6,-178.6 669.6,-165.43 664.5,-151 660.05,-138.43 661.69,-134.03 664.5,-121 672.01,-86.17 691.44,-49.11 703.75,-27.98"/>
<polygon fill="#63b8ff" stroke="#63b8ff" points="706.86,-29.6 708.98,-19.22 700.85,-26.01 706.86,-29.6"/>
</a>
</g>
</g>
<!-- Node23&#45;&gt;Node7 -->
<g id="edge31_Node000023_Node000007" class="edge">
<title>Node23&#45;&gt;Node7</title>
<g id="a_edge31_Node000023_Node000007"><a xlink:title=" ">
<path fill="none" stroke="#63b8ff" d="M691.83,-186.74C683.06,-177.84 669.19,-163.6 657.5,-151 616.61,-106.91 569.86,-53.53 546.84,-27.06"/>
<polygon fill="#63b8ff" stroke="#63b8ff" points="549.19,-24.42 539.99,-19.16 543.9,-29.01 549.19,-24.42"/>
</a>
</g>
</g>
<!-- Node23&#45;&gt;Node12 -->
<g id="edge32_Node000023_Node000012" class="edge">
<title>Node23&#45;&gt;Node12</title>
<g id="a_edge32_Node000023_Node000012"><a xlink:title=" ">
<path fill="none" stroke="#63b8ff" d="M674.76,-186.99C648.96,-178.46 608.48,-165.09 575.89,-154.32"/>
<polygon fill="#63b8ff" stroke="#63b8ff" points="576.65,-150.88 566.05,-151.06 574.45,-157.53 576.65,-150.88"/>
</a>
</g>
</g>
<!-- Node23&#45;&gt;Node20 -->
<g id="edge30_Node000023_Node000020" class="edge">
<title>Node23&#45;&gt;Node20</title>
<g id="a_edge30_Node000023_Node000020"><a xlink:title=" ">
<path fill="none" stroke="#63b8ff" d="M700.5,-186.87C700.5,-178.75 700.5,-166.31 700.5,-155.89"/>
<polygon fill="#63b8ff" stroke="#63b8ff" points="704,-155.67 700.5,-145.67 697,-155.67 704,-155.67"/>
</a>
</g>
</g>
</g>
</svg>

<g id="navigator" transform="translate(0 0)" fill="#404254">
  <rect fill="#f2f5e9" fill-opacity="0.5" stroke="#606060" stroke-width=".5" x="0" y="0" width="60" height="60"/>
  <use id="zoomplus" xlink:href="#zoomPlus" x="17" y="9" onmousedown="handleZoom(evt,'in')"/>
  <use id="zoomminus" xlink:href="#zoomMin" x="42" y="9" onmousedown="handleZoom(evt,'out')"/>
  <use id="reset" xlink:href="#resetDef" x="30" y="36" onmousedown="handleReset()"/>
   <use id="arrowup" xlink:href="#arrowUp" x="0" y="0" onmousedown="handlePan(0,-1)"/>
  <use id="arrowright" xlink:href="#arrowRight" x="0" y="0" onmousedown="handlePan(1,0)"/>
  <use id="arrowdown" xlink:href="#arrowDown" x="0" y="0" onmousedown="handlePan(0,1)"/>
  <use id="arrowleft" xlink:href="#arrowLeft" x="0" y="0" onmousedown="handlePan(-1,0)"/>
</g>
<svg viewBox="0 0 15 15" width="100%" height="30px" preserveAspectRatio="xMaxYMin meet">
 <g id="arrow_out" transform="scale(0.3 0.3)">
  <a xlink:href="LogTerminalViewModel_8cpp__incl_org.svg" target="_base">
   <rect id="button" ry="5" rx="5" y="6" x="6" height="38" width="38"
        fill="#f2f5e9" fill-opacity="0.5" stroke="#606060" stroke-width="1.0"/>
   <path id="arrow"
     d="M 11.500037,31.436501 C 11.940474,20.09759 22.043105,11.32322 32.158766,21.979434 L 37.068811,17.246167 C 37.068811,17.246167 37.088388,32 37.088388,32 L 22.160133,31.978069 C 22.160133,31.978069 26.997745,27.140456 26.997745,27.140456 C 18.528582,18.264221 13.291696,25.230495 11.500037,31.436501 z"
     style="fill:#404040;"/>
  </a>
 </g>
</svg>

<style type='text/css'>
<![CDATA[
[data-mouse-over-selected='false'] { opacity: 0.7; }
[data-mouse-over-selected='true']  { opacity: 1.0; }
]]>
</style>
<script type="application/ecmascript"><![CDATA[
document.addEventListener('DOMContentLoaded', (event) => {
  highlightEdges();
  highlightAdjacentNodes();
});
]]></script>
</svg>
