<?xml version="1.0" encoding="UTF-8" standalone="no"?>
<!DOCTYPE svg PUBLIC "-//W3C//DTD SVG 1.1//EN"
 "http://www.w3.org/Graphics/SVG/1.1/DTD/svg11.dtd">
<!-- Generated by graphviz version 2.43.0 (0)
 -->
<!-- Title: features/test/frames/terminal/LogTerminalViewModel.cpp Pages: 1 -->
<!--zoomable 401 -->

<svg id="main" version="1.1" xmlns="http://www.w3.org/2000/svg" xmlns:xlink="http://www.w3.org/1999/xlink" xml:space="preserve" onload="init(evt)">
<style type="text/css"><![CDATA[
.node, .edge {opacity: 0.7;}
.node.selected, .edge.selected {opacity: 1;}
.edge:hover path { stroke: red; }
.edge:hover polygon { stroke: red; fill: red; }
]]></style>

<defs>
  <circle id="rim" cx="0" cy="0" r="7"/>
  <circle id="rim2" cx="0" cy="0" r="3.5"/>
  <g id="zoomPlus">
    <use xlink:href="#rim" fill="#404040"><set attributeName="fill" to="#808080" begin="zoomplus.mouseover" end="zoomplus.mouseout"/></use>
    <path d="M-4,0h8M0,-4v8" fill="none" stroke="white" stroke-width="1.5" pointer-events="none"/>
  </g>
  <g id="zoomMin">
    <use xlink:href="#rim" fill="#404040"><set attributeName="fill" to="#808080" begin="zoomminus.mouseover" end="zoomminus.mouseout"/></use>
    <path d="M-4,0h8" fill="none" stroke="white" stroke-width="1.5" pointer-events="none"/>
  </g>
  <g id="arrowUp" transform="translate(30 24)">
    <use xlink:href="#rim"/>
    <path pointer-events="none" fill="none" stroke="white" stroke-width="1.5" d="M0,-3.0v7 M-2.5,-0.5L0,-3.0L2.5,-0.5"/>
  </g>
  <g id="arrowRight" transform="rotate(90) translate(36 -43)">
    <use xlink:href="#rim"/>
    <path pointer-events="none" fill="none" stroke="white" stroke-width="1.5" d="M0,-3.0v7 M-2.5,-0.5L0,-3.0L2.5,-0.5"/>
  </g>
  <g id="arrowDown" transform="rotate(180) translate(-30 -48)">
    <use xlink:href="#rim"/>
    <path pointer-events="none" fill="none" stroke="white" stroke-width="1.5" d="M0,-3.0v7 M-2.5,-0.5L0,-3.0L2.5,-0.5"/>
  </g>
  <g id="arrowLeft" transform="rotate(270) translate(-36 17)">
    <use xlink:href="#rim"/>
    <path pointer-events="none" fill="none" stroke="white" stroke-width="1.5" d="M0,-3.0v7 M-2.5,-0.5L0,-3.0L2.5,-0.5"/>
  </g>
  <g id="resetDef">
    <use xlink:href="#rim2" fill="#404040"><set attributeName="fill" to="#808080" begin="reset.mouseover" end="reset.mouseout"/></use>
  </g>
</defs>
<script type="application/ecmascript">
var viewWidth = 878;
var viewHeight = 401;
var sectionId = 'dynsection-0';
</script>
<script type="application/ecmascript" xlink:href="svg.min.js"/>
<svg id="graph" class="graph">
<g id="viewport">
<title>features/test/frames/terminal/LogTerminalViewModel.cpp</title>
<!-- Node1 -->
<g id="Node000001" class="node">
<title>Node1</title>
<g id="a_Node000001"><a xlink:title=" ">
<polygon fill="#999999" stroke="#666666" points="342,-393 145,-393 145,-363 342,-363 342,-393"/>
<text text-anchor="start" x="153" y="-381" font-family="Helvetica,sans-Serif" font-size="10.00">features/test/frames</text>
<text text-anchor="middle" x="243.5" y="-370" font-family="Helvetica,sans-Serif" font-size="10.00">/terminal/LogTerminalViewModel.cpp</text>
</a>
</g>
</g>
<!-- Node2 -->
<g id="Node000002" class="node">
<title>Node2</title>
<g id="a_Node000002"><a xlink:href="LogTerminalViewModel_8h.html" target="_top" xlink:title=" ">
<polygon fill="white" stroke="#666666" points="139,-145.5 0,-145.5 0,-126.5 139,-126.5 139,-145.5"/>
<text text-anchor="middle" x="69.5" y="-133.5" font-family="Helvetica,sans-Serif" font-size="10.00">LogTerminalViewModel.h</text>
</a>
</g>
</g>
<!-- Node1&#45;&gt;Node2 -->
<g id="edge1_Node000001_Node000002" class="edge">
<title>Node1&#45;&gt;Node2</title>
<g id="a_edge1_Node000001_Node000002"><a xlink:title=" ">
<path fill="none" stroke="#63b8ff" d="M206.08,-362.86C188.3,-354.62 167.84,-342.71 153.5,-327 106.12,-275.11 82.2,-192.14 73.48,-155.46"/>
<polygon fill="#63b8ff" stroke="#63b8ff" points="76.88,-154.63 71.25,-145.65 70.05,-156.18 76.88,-154.63"/>
</a>
</g>
</g>
<!-- Node4 -->
<g id="Node000004" class="node">
<title>Node4</title>
<g id="a_Node000004"><a xlink:href="Messages_8h.html" target="_top" xlink:title=" ">
<polygon fill="white" stroke="#666666" points="337,-85 234,-85 234,-55 337,-55 337,-85"/>
<text text-anchor="start" x="242" y="-73" font-family="Helvetica,sans-Serif" font-size="10.00">src/core/Protocols</text>
<text text-anchor="middle" x="285.5" y="-62" font-family="Helvetica,sans-Serif" font-size="10.00">/Messages.h</text>
</a>
</g>
</g>
<!-- Node1&#45;&gt;Node4 -->
<g id="edge36_Node000001_Node000004" class="edge">
<title>Node1&#45;&gt;Node4</title>
<g id="a_edge36_Node000001_Node000004"><a xlink:title=" ">
<path fill="none" stroke="#63b8ff" d="M227.38,-362.65C205.07,-341.12 167.5,-298.08 167.5,-252.5 167.5,-252.5 167.5,-252.5 167.5,-195.5 167.5,-147.8 213.7,-111.05 248.28,-90.22"/>
<polygon fill="#63b8ff" stroke="#63b8ff" points="250.35,-93.07 257.24,-85.02 246.83,-87.02 250.35,-93.07"/>
</a>
</g>
</g>
<!-- Node12 -->
<g id="Node000012" class="node">
<title>Node12</title>
<g id="a_Node000012"><a xlink:href="Logger_8h.html" target="_top" xlink:title=" ">
<polygon fill="white" stroke="#666666" points="419.5,-151 309.5,-151 309.5,-121 419.5,-121 419.5,-151"/>
<text text-anchor="start" x="317.5" y="-139" font-family="Helvetica,sans-Serif" font-size="10.00">src/services/Logger</text>
<text text-anchor="middle" x="364.5" y="-128" font-family="Helvetica,sans-Serif" font-size="10.00">/Logger.h</text>
</a>
</g>
</g>
<!-- Node1&#45;&gt;Node12 -->
<g id="edge12_Node000001_Node000012" class="edge">
<title>Node1&#45;&gt;Node12</title>
<g id="a_edge12_Node000001_Node000012"><a xlink:title=" ">
<path fill="none" stroke="#63b8ff" d="M245.61,-362.98C248.39,-346.66 254.04,-319.11 263.5,-297 286.07,-244.22 324.89,-188.94 347.26,-159.17"/>
<polygon fill="#63b8ff" stroke="#63b8ff" points="350.1,-161.21 353.37,-151.13 344.53,-156.97 350.1,-161.21"/>
</a>
</g>
</g>
<!-- Node14 -->
<g id="Node000014" class="node">
<title>Node14</title>
<g id="a_Node000014"><a xlink:href="UdpChannel_8h.html" target="_top" xlink:title="UDP communication channel between the microcontroller and the HMI.">
<polygon fill="white" stroke="#666666" points="425,-327 272,-327 272,-297 425,-297 425,-327"/>
<text text-anchor="start" x="280" y="-315" font-family="Helvetica,sans-Serif" font-size="10.00">src/features/communication</text>
<text text-anchor="middle" x="348.5" y="-304" font-family="Helvetica,sans-Serif" font-size="10.00">/udp/UdpChannel.h</text>
</a>
</g>
</g>
<!-- Node1&#45;&gt;Node14 -->
<g id="edge15_Node000001_Node000014" class="edge">
<title>Node1&#45;&gt;Node14</title>
<g id="a_edge15_Node000001_Node000014"><a xlink:title=" ">
<path fill="none" stroke="#63b8ff" d="M266.54,-362.95C281.31,-353.95 300.69,-342.14 316.89,-332.27"/>
<polygon fill="#63b8ff" stroke="#63b8ff" points="318.79,-335.21 325.51,-327.01 315.15,-329.23 318.79,-335.21"/>
</a>
</g>
</g>
<!-- Node21 -->
<g id="Node000021" class="node">
<title>Node21</title>
<g id="a_Node000021"><a xlink:title=" ">
<polygon fill="#e0e0e0" stroke="#999999" points="869.5,-145.5 813.5,-145.5 813.5,-126.5 869.5,-126.5 869.5,-145.5"/>
<text text-anchor="middle" x="841.5" y="-133.5" font-family="Helvetica,sans-Serif" font-size="10.00">QDebug</text>
</a>
</g>
</g>
<!-- Node1&#45;&gt;Node21 -->
<g id="edge37_Node000001_Node000021" class="edge">
<title>Node1&#45;&gt;Node21</title>
<g id="a_edge37_Node000001_Node000021"><a xlink:title=" ">
<path fill="none" stroke="#63b8ff" d="M330.44,-363C418.94,-346.56 558.51,-314.51 669.5,-261 731.67,-231.03 795.04,-178.44 824.5,-152.45"/>
<polygon fill="#63b8ff" stroke="#63b8ff" points="827.07,-154.84 832.2,-145.57 822.41,-149.62 827.07,-154.84"/>
</a>
</g>
</g>
<!-- Node3 -->
<g id="Node000003" class="node">
<title>Node3</title>
<g id="a_Node000003"><a xlink:title=" ">
<polygon fill="#e0e0e0" stroke="#999999" points="86.5,-19 30.5,-19 30.5,0 86.5,0 86.5,-19"/>
<text text-anchor="middle" x="58.5" y="-7" font-family="Helvetica,sans-Serif" font-size="10.00">QObject</text>
</a>
</g>
</g>
<!-- Node2&#45;&gt;Node3 -->
<g id="edge2_Node000002_Node000003" class="edge">
<title>Node2&#45;&gt;Node3</title>
<g id="a_edge2_Node000002_Node000003"><a xlink:title=" ">
<path fill="none" stroke="#63b8ff" d="M68.74,-126.44C66.99,-106.54 62.59,-56.76 60.17,-29.35"/>
<polygon fill="#63b8ff" stroke="#63b8ff" points="63.63,-28.77 59.26,-19.12 56.66,-29.39 63.63,-28.77"/>
</a>
</g>
</g>
<!-- Node2&#45;&gt;Node4 -->
<g id="edge3_Node000002_Node000004" class="edge">
<title>Node2&#45;&gt;Node4</title>
<g id="a_edge3_Node000002_Node000004"><a xlink:title=" ">
<path fill="none" stroke="#63b8ff" d="M98.63,-126.37C131.68,-116.58 186.39,-100.37 228.1,-88.01"/>
<polygon fill="#63b8ff" stroke="#63b8ff" points="229.27,-91.31 237.86,-85.12 227.28,-84.6 229.27,-91.31"/>
</a>
</g>
</g>
<!-- Node4&#45;&gt;Node3 -->
<g id="edge10_Node000004_Node000003" class="edge">
<title>Node4&#45;&gt;Node3</title>
<g id="a_edge10_Node000004_Node000003"><a xlink:title=" ">
<path fill="none" stroke="#63b8ff" d="M233.99,-55.73C192.26,-44.97 134.41,-30.06 96.72,-20.35"/>
<polygon fill="#63b8ff" stroke="#63b8ff" points="97.21,-16.86 86.65,-17.76 95.46,-23.64 97.21,-16.86"/>
</a>
</g>
</g>
<!-- Node5 -->
<g id="Node000005" class="node">
<title>Node5</title>
<g id="a_Node000005"><a xlink:title=" ">
<polygon fill="#e0e0e0" stroke="#999999" points="448,-19 397,-19 397,0 448,0 448,-19"/>
<text text-anchor="middle" x="422.5" y="-7" font-family="Helvetica,sans-Serif" font-size="10.00">variant</text>
</a>
</g>
</g>
<!-- Node4&#45;&gt;Node5 -->
<g id="edge4_Node000004_Node000005" class="edge">
<title>Node4&#45;&gt;Node5</title>
<g id="a_edge4_Node000004_Node000005"><a xlink:title=" ">
<path fill="none" stroke="#63b8ff" d="M318.31,-54.99C340.97,-45.31 370.85,-32.56 392.8,-23.18"/>
<polygon fill="#63b8ff" stroke="#63b8ff" points="394.45,-26.29 402.27,-19.14 391.7,-19.85 394.45,-26.29"/>
</a>
</g>
</g>
<!-- Node6 -->
<g id="Node000006" class="node">
<title>Node6</title>
<g id="a_Node000006"><a xlink:title=" ">
<polygon fill="#e0e0e0" stroke="#999999" points="675.5,-19 625.5,-19 625.5,0 675.5,0 675.5,-19"/>
<text text-anchor="middle" x="650.5" y="-7" font-family="Helvetica,sans-Serif" font-size="10.00">cstdint</text>
</a>
</g>
</g>
<!-- Node4&#45;&gt;Node6 -->
<g id="edge5_Node000004_Node000006" class="edge">
<title>Node4&#45;&gt;Node6</title>
<g id="a_edge5_Node000004_Node000006"><a xlink:title=" ">
<path fill="none" stroke="#63b8ff" d="M337.02,-56.87C340.22,-56.21 343.4,-55.58 346.5,-55 443.03,-36.89 557.97,-21.81 614.9,-14.77"/>
<polygon fill="#63b8ff" stroke="#63b8ff" points="615.66,-18.2 625.16,-13.51 614.81,-11.25 615.66,-18.2"/>
</a>
</g>
</g>
<!-- Node7 -->
<g id="Node000007" class="node">
<title>Node7</title>
<g id="a_Node000007"><a xlink:title=" ">
<polygon fill="#e0e0e0" stroke="#999999" points="510.5,-19 466.5,-19 466.5,0 510.5,0 510.5,-19"/>
<text text-anchor="middle" x="488.5" y="-7" font-family="Helvetica,sans-Serif" font-size="10.00">string</text>
</a>
</g>
</g>
<!-- Node4&#45;&gt;Node7 -->
<g id="edge6_Node000004_Node000007" class="edge">
<title>Node4&#45;&gt;Node7</title>
<g id="a_edge6_Node000004_Node000007"><a xlink:title=" ">
<path fill="none" stroke="#63b8ff" d="M334.12,-54.99C372.01,-44.07 423.55,-29.22 456.42,-19.74"/>
<polygon fill="#63b8ff" stroke="#63b8ff" points="457.76,-23 466.4,-16.87 455.82,-16.27 457.76,-23"/>
</a>
</g>
</g>
<!-- Node8 -->
<g id="Node000008" class="node">
<title>Node8</title>
<g id="a_Node000008"><a xlink:title=" ">
<polygon fill="#e0e0e0" stroke="#999999" points="178,-19 105,-19 105,0 178,0 178,-19"/>
<text text-anchor="middle" x="141.5" y="-7" font-family="Helvetica,sans-Serif" font-size="10.00">QByteArray</text>
</a>
</g>
</g>
<!-- Node4&#45;&gt;Node8 -->
<g id="edge7_Node000004_Node000008" class="edge">
<title>Node4&#45;&gt;Node8</title>
<g id="a_edge7_Node000004_Node000008"><a xlink:title=" ">
<path fill="none" stroke="#63b8ff" d="M251.01,-54.99C226.98,-45.23 195.23,-32.33 172.1,-22.93"/>
<polygon fill="#63b8ff" stroke="#63b8ff" points="173.35,-19.66 162.77,-19.14 170.71,-26.15 173.35,-19.66"/>
</a>
</g>
</g>
<!-- Node9 -->
<g id="Node000009" class="node">
<title>Node9</title>
<g id="a_Node000009"><a xlink:title=" ">
<polygon fill="#e0e0e0" stroke="#999999" points="245,-19 196,-19 196,0 245,0 245,-19"/>
<text text-anchor="middle" x="220.5" y="-7" font-family="Helvetica,sans-Serif" font-size="10.00">QHash</text>
</a>
</g>
</g>
<!-- Node4&#45;&gt;Node9 -->
<g id="edge8_Node000004_Node000009" class="edge">
<title>Node4&#45;&gt;Node9</title>
<g id="a_edge8_Node000004_Node000009"><a xlink:title=" ">
<path fill="none" stroke="#63b8ff" d="M269.77,-54.84C260.14,-46.17 247.81,-35.08 237.89,-26.15"/>
<polygon fill="#63b8ff" stroke="#63b8ff" points="240.01,-23.35 230.24,-19.27 235.33,-28.56 240.01,-23.35"/>
</a>
</g>
</g>
<!-- Node10 -->
<g id="Node000010" class="node">
<title>Node10</title>
<g id="a_Node000010"><a xlink:title=" ">
<polygon fill="#e0e0e0" stroke="#999999" points="316,-19 263,-19 263,0 316,0 316,-19"/>
<text text-anchor="middle" x="289.5" y="-7" font-family="Helvetica,sans-Serif" font-size="10.00">QString</text>
</a>
</g>
</g>
<!-- Node4&#45;&gt;Node10 -->
<g id="edge9_Node000004_Node000010" class="edge">
<title>Node4&#45;&gt;Node10</title>
<g id="a_edge9_Node000004_Node000010"><a xlink:title=" ">
<path fill="none" stroke="#63b8ff" d="M286.47,-54.84C286.99,-47.21 287.64,-37.7 288.2,-29.45"/>
<polygon fill="#63b8ff" stroke="#63b8ff" points="291.71,-29.48 288.9,-19.27 284.73,-29 291.71,-29.48"/>
</a>
</g>
</g>
<!-- Node11 -->
<g id="Node000011" class="node">
<title>Node11</title>
<g id="a_Node000011"><a xlink:title=" ">
<polygon fill="#e0e0e0" stroke="#999999" points="379,-19 334,-19 334,0 379,0 379,-19"/>
<text text-anchor="middle" x="356.5" y="-7" font-family="Helvetica,sans-Serif" font-size="10.00">QMap</text>
</a>
</g>
</g>
<!-- Node4&#45;&gt;Node11 -->
<g id="edge11_Node000004_Node000011" class="edge">
<title>Node4&#45;&gt;Node11</title>
<g id="a_edge11_Node000004_Node000011"><a xlink:title=" ">
<path fill="none" stroke="#63b8ff" d="M302.69,-54.84C313.31,-46.09 326.94,-34.85 337.83,-25.88"/>
<polygon fill="#63b8ff" stroke="#63b8ff" points="340.37,-28.33 345.86,-19.27 335.92,-22.92 340.37,-28.33"/>
</a>
</g>
</g>
<!-- Node12&#45;&gt;Node4 -->
<g id="edge14_Node000012_Node000004" class="edge">
<title>Node12&#45;&gt;Node4</title>
<g id="a_edge14_Node000012_Node000004"><a xlink:title=" ">
<path fill="none" stroke="#63b8ff" d="M346.97,-120.8C336.33,-112.18 322.58,-101.04 310.78,-91.48"/>
<polygon fill="#63b8ff" stroke="#63b8ff" points="312.96,-88.74 302.98,-85.16 308.55,-94.18 312.96,-88.74"/>
</a>
</g>
</g>
<!-- Node13 -->
<g id="Node000013" class="node">
<title>Node13</title>
<g id="a_Node000013"><a xlink:title=" ">
<polygon fill="#e0e0e0" stroke="#999999" points="414,-79.5 355,-79.5 355,-60.5 414,-60.5 414,-79.5"/>
<text text-anchor="middle" x="384.5" y="-67.5" font-family="Helvetica,sans-Serif" font-size="10.00">QWidget</text>
</a>
</g>
</g>
<!-- Node12&#45;&gt;Node13 -->
<g id="edge13_Node000012_Node000013" class="edge">
<title>Node12&#45;&gt;Node13</title>
<g id="a_edge13_Node000012_Node000013"><a xlink:title=" ">
<path fill="none" stroke="#63b8ff" d="M368.94,-120.8C371.81,-111.6 375.58,-99.53 378.69,-89.58"/>
<polygon fill="#63b8ff" stroke="#63b8ff" points="382.09,-90.43 381.74,-79.84 375.41,-88.35 382.09,-90.43"/>
</a>
</g>
</g>
<!-- Node14&#45;&gt;Node3 -->
<g id="edge16_Node000014_Node000003" class="edge">
<title>Node14&#45;&gt;Node3</title>
<g id="a_edge16_Node000014_Node000003"><a xlink:title=" ">
<path fill="none" stroke="#63b8ff" d="M304.43,-296.95C262.41,-280.46 205.5,-248.69 205.5,-197.5 205.5,-197.5 205.5,-197.5 205.5,-135 205.5,-76.7 137.34,-40.07 93.85,-22.63"/>
<polygon fill="#63b8ff" stroke="#63b8ff" points="95.03,-19.34 84.44,-19 92.51,-25.87 95.03,-19.34"/>
</a>
</g>
</g>
<!-- Node14&#45;&gt;Node4 -->
<g id="edge19_Node000014_Node000004" class="edge">
<title>Node14&#45;&gt;Node4</title>
<g id="a_edge19_Node000014_Node000004"><a xlink:title=" ">
<path fill="none" stroke="#63b8ff" d="M330.13,-296.87C319.83,-287.82 307.8,-275.15 301.5,-261 276.85,-205.69 279.26,-132.4 282.64,-95.08"/>
<polygon fill="#63b8ff" stroke="#63b8ff" points="286.12,-95.43 283.65,-85.13 279.16,-94.72 286.12,-95.43"/>
</a>
</g>
</g>
<!-- Node15 -->
<g id="Node000015" class="node">
<title>Node15</title>
<g id="a_Node000015"><a xlink:title=" ">
<polygon fill="#e0e0e0" stroke="#999999" points="462.5,-261 404.5,-261 404.5,-242 462.5,-242 462.5,-261"/>
<text text-anchor="middle" x="433.5" y="-249" font-family="Helvetica,sans-Serif" font-size="10.00">QThread</text>
</a>
</g>
</g>
<!-- Node14&#45;&gt;Node15 -->
<g id="edge17_Node000014_Node000015" class="edge">
<title>Node14&#45;&gt;Node15</title>
<g id="a_edge17_Node000014_Node000015"><a xlink:title=" ">
<path fill="none" stroke="#63b8ff" d="M369.08,-296.84C382.17,-287.83 399.09,-276.18 412.3,-267.09"/>
<polygon fill="#63b8ff" stroke="#63b8ff" points="414.51,-269.82 420.76,-261.27 410.54,-264.05 414.51,-269.82"/>
</a>
</g>
</g>
<!-- Node16 -->
<g id="Node000016" class="node">
<title>Node16</title>
<g id="a_Node000016"><a xlink:title=" ">
<polygon fill="#e0e0e0" stroke="#999999" points="386.5,-261 310.5,-261 310.5,-242 386.5,-242 386.5,-261"/>
<text text-anchor="middle" x="348.5" y="-249" font-family="Helvetica,sans-Serif" font-size="10.00">QUdpSocket</text>
</a>
</g>
</g>
<!-- Node14&#45;&gt;Node16 -->
<g id="edge18_Node000014_Node000016" class="edge">
<title>Node14&#45;&gt;Node16</title>
<g id="a_edge18_Node000014_Node000016"><a xlink:title=" ">
<path fill="none" stroke="#63b8ff" d="M348.5,-296.84C348.5,-289.21 348.5,-279.7 348.5,-271.45"/>
<polygon fill="#63b8ff" stroke="#63b8ff" points="352,-271.27 348.5,-261.27 345,-271.27 352,-271.27"/>
</a>
</g>
</g>
<!-- Node17 -->
<g id="Node000017" class="node">
<title>Node17</title>
<g id="a_Node000017"><a xlink:href="UdpLogger_8h.html" target="_top" xlink:title="High&#45;frequency binary logger for UDP telemetry frames.">
<polygon fill="white" stroke="#666666" points="660,-261 509,-261 509,-242 660,-242 660,-261"/>
<text text-anchor="middle" x="584.5" y="-249" font-family="Helvetica,sans-Serif" font-size="10.00">frames_logger/UdpLogger.h</text>
</a>
</g>
</g>
<!-- Node14&#45;&gt;Node17 -->
<g id="edge20_Node000014_Node000017" class="edge">
<title>Node14&#45;&gt;Node17</title>
<g id="a_edge20_Node000014_Node000017"><a xlink:title=" ">
<path fill="none" stroke="#63b8ff" d="M405.03,-296.99C446.46,-286.72 501.93,-272.97 540.17,-263.49"/>
<polygon fill="#63b8ff" stroke="#63b8ff" points="541.13,-266.86 549.99,-261.05 539.44,-260.06 541.13,-266.86"/>
</a>
</g>
</g>
<!-- Node17&#45;&gt;Node6 -->
<g id="edge22_Node000017_Node000006" class="edge">
<title>Node17&#45;&gt;Node6</title>
<g id="a_edge22_Node000017_Node000006"><a xlink:title=" ">
<path fill="none" stroke="#63b8ff" d="M651.09,-241.92C676.47,-235.65 703.96,-224.79 723.5,-206 742.25,-187.97 738.99,-176.62 743.5,-151 751.23,-107.11 742.82,-89.41 714.5,-55 704.12,-42.39 689.3,-31.78 676.54,-24.08"/>
<polygon fill="#63b8ff" stroke="#63b8ff" points="678.11,-20.95 667.7,-19.01 674.63,-27.02 678.11,-20.95"/>
</a>
</g>
</g>
<!-- Node18 -->
<g id="Node000018" class="node">
<title>Node18</title>
<g id="a_Node000018"><a xlink:title=" ">
<polygon fill="#e0e0e0" stroke="#999999" points="637.5,-145.5 587.5,-145.5 587.5,-126.5 637.5,-126.5 637.5,-145.5"/>
<text text-anchor="middle" x="612.5" y="-133.5" font-family="Helvetica,sans-Serif" font-size="10.00">atomic</text>
</a>
</g>
</g>
<!-- Node17&#45;&gt;Node18 -->
<g id="edge21_Node000017_Node000018" class="edge">
<title>Node17&#45;&gt;Node18</title>
<g id="a_edge21_Node000017_Node000018"><a xlink:title=" ">
<path fill="none" stroke="#63b8ff" d="M586.6,-241.97C591.1,-223.73 601.75,-180.57 607.9,-155.64"/>
<polygon fill="#63b8ff" stroke="#63b8ff" points="611.37,-156.18 610.37,-145.63 604.58,-154.5 611.37,-156.18"/>
</a>
</g>
</g>
<!-- Node19 -->
<g id="Node000019" class="node">
<title>Node19</title>
<g id="a_Node000019"><a xlink:title=" ">
<polygon fill="#e0e0e0" stroke="#999999" points="582.5,-206 534.5,-206 534.5,-187 582.5,-187 582.5,-206"/>
<text text-anchor="middle" x="558.5" y="-194" font-family="Helvetica,sans-Serif" font-size="10.00">thread</text>
</a>
</g>
</g>
<!-- Node17&#45;&gt;Node19 -->
<g id="edge23_Node000017_Node000019" class="edge">
<title>Node17&#45;&gt;Node19</title>
<g id="a_edge23_Node000017_Node000019"><a xlink:title=" ">
<path fill="none" stroke="#63b8ff" d="M580.21,-241.75C576.69,-234.57 571.59,-224.18 567.22,-215.27"/>
<polygon fill="#63b8ff" stroke="#63b8ff" points="570.26,-213.53 562.71,-206.09 563.98,-216.61 570.26,-213.53"/>
</a>
</g>
</g>
<!-- Node20 -->
<g id="Node000020" class="node">
<title>Node20</title>
<g id="a_Node000020"><a xlink:href="RingBuffer_8h.html" target="_top" xlink:title=" ">
<polygon fill="white" stroke="#666666" points="714.5,-206 638.5,-206 638.5,-187 714.5,-187 714.5,-206"/>
<text text-anchor="middle" x="676.5" y="-194" font-family="Helvetica,sans-Serif" font-size="10.00">RingBuffer.h</text>
</a>
</g>
</g>
<!-- Node17&#45;&gt;Node20 -->
<g id="edge24_Node000017_Node000020" class="edge">
<title>Node17&#45;&gt;Node20</title>
<g id="a_edge24_Node000017_Node000020"><a xlink:title=" ">
<path fill="none" stroke="#63b8ff" d="M599.28,-241.98C613.68,-233.69 635.81,-220.94 652.69,-211.22"/>
<polygon fill="#63b8ff" stroke="#63b8ff" points="654.53,-214.19 661.45,-206.17 651.04,-208.13 654.53,-214.19"/>
</a>
</g>
</g>
<!-- Node24 -->
<g id="Node000024" class="node">
<title>Node24</title>
<g id="a_Node000024"><a xlink:href="Writer_8h.html" target="_top" xlink:title=" ">
<polygon fill="white" stroke="#666666" points="513,-206 458,-206 458,-187 513,-187 513,-206"/>
<text text-anchor="middle" x="485.5" y="-194" font-family="Helvetica,sans-Serif" font-size="10.00">Writer.h</text>
</a>
</g>
</g>
<!-- Node17&#45;&gt;Node24 -->
<g id="edge31_Node000017_Node000024" class="edge">
<title>Node17&#45;&gt;Node24</title>
<g id="a_edge31_Node000017_Node000024"><a xlink:title=" ">
<path fill="none" stroke="#63b8ff" d="M568.59,-241.98C552.95,-233.61 528.84,-220.7 510.62,-210.95"/>
<polygon fill="#63b8ff" stroke="#63b8ff" points="512.16,-207.8 501.7,-206.17 508.86,-213.98 512.16,-207.8"/>
</a>
</g>
</g>
<!-- Node20&#45;&gt;Node6 -->
<g id="edge26_Node000020_Node000006" class="edge">
<title>Node20&#45;&gt;Node6</title>
<g id="a_edge26_Node000020_Node000006"><a xlink:title=" ">
<path fill="none" stroke="#63b8ff" d="M692.53,-186.95C704.91,-179.35 721.15,-166.97 728.5,-151 734.08,-138.89 732.53,-133.71 728.5,-121 716.39,-82.84 685.81,-46.49 666.73,-26.47"/>
<polygon fill="#63b8ff" stroke="#63b8ff" points="669.08,-23.86 659.58,-19.16 664.08,-28.76 669.08,-23.86"/>
</a>
</g>
</g>
<!-- Node20&#45;&gt;Node12 -->
<g id="edge30_Node000020_Node000012" class="edge">
<title>Node20&#45;&gt;Node12</title>
<g id="a_edge30_Node000020_Node000012"><a xlink:title=" ">
<path fill="none" stroke="#63b8ff" d="M638.24,-188.33C586.27,-178.58 492.6,-161.02 429.49,-149.19"/>
<polygon fill="#63b8ff" stroke="#63b8ff" points="430.11,-145.74 419.64,-147.34 428.82,-152.62 430.11,-145.74"/>
</a>
</g>
</g>
<!-- Node20&#45;&gt;Node18 -->
<g id="edge28_Node000020_Node000018" class="edge">
<title>Node20&#45;&gt;Node18</title>
<g id="a_edge28_Node000020_Node000018"><a xlink:title=" ">
<path fill="none" stroke="#63b8ff" d="M667.06,-186.87C657.23,-177.88 641.61,-163.61 629.61,-152.64"/>
<polygon fill="#63b8ff" stroke="#63b8ff" points="631.72,-149.83 621.98,-145.67 627,-155 631.72,-149.83"/>
</a>
</g>
</g>
<!-- Node20&#45;&gt;Node21 -->
<g id="edge25_Node000020_Node000021" class="edge">
<title>Node20&#45;&gt;Node21</title>
<g id="a_edge25_Node000020_Node000021"><a xlink:title=" ">
<path fill="none" stroke="#63b8ff" d="M700.49,-186.99C728.72,-176.99 775.78,-160.3 807.69,-148.99"/>
<polygon fill="#63b8ff" stroke="#63b8ff" points="809.22,-152.16 817.48,-145.52 806.88,-145.56 809.22,-152.16"/>
</a>
</g>
</g>
<!-- Node22 -->
<g id="Node000022" class="node">
<title>Node22</title>
<g id="a_Node000022"><a xlink:title=" ">
<polygon fill="#e0e0e0" stroke="#999999" points="569,-145.5 514,-145.5 514,-126.5 569,-126.5 569,-145.5"/>
<text text-anchor="middle" x="541.5" y="-133.5" font-family="Helvetica,sans-Serif" font-size="10.00">fstream</text>
</a>
</g>
</g>
<!-- Node20&#45;&gt;Node22 -->
<g id="edge27_Node000020_Node000022" class="edge">
<title>Node20&#45;&gt;Node22</title>
<g id="a_edge27_Node000020_Node000022"><a xlink:title=" ">
<path fill="none" stroke="#63b8ff" d="M656.87,-186.99C634.17,-177.16 596.6,-160.88 570.53,-149.58"/>
<polygon fill="#63b8ff" stroke="#63b8ff" points="571.72,-146.28 561.15,-145.52 568.94,-152.7 571.72,-146.28"/>
</a>
</g>
</g>
<!-- Node23 -->
<g id="Node000023" class="node">
<title>Node23</title>
<g id="a_Node000023"><a xlink:title=" ">
<polygon fill="#e0e0e0" stroke="#999999" points="719.5,-145.5 655.5,-145.5 655.5,-126.5 719.5,-126.5 719.5,-145.5"/>
<text text-anchor="middle" x="687.5" y="-133.5" font-family="Helvetica,sans-Serif" font-size="10.00">algorithm</text>
</a>
</g>
</g>
<!-- Node20&#45;&gt;Node23 -->
<g id="edge29_Node000020_Node000023" class="edge">
<title>Node20&#45;&gt;Node23</title>
<g id="a_edge29_Node000020_Node000023"><a xlink:title=" ">
<path fill="none" stroke="#63b8ff" d="M678.12,-186.87C679.67,-178.66 682.04,-166.04 684.01,-155.55"/>
<polygon fill="#63b8ff" stroke="#63b8ff" points="687.46,-156.14 685.87,-145.67 680.58,-154.85 687.46,-156.14"/>
</a>
</g>
</g>
<!-- Node24&#45;&gt;Node6 -->
<g id="edge32_Node000024_Node000006" class="edge">
<title>Node24&#45;&gt;Node6</title>
<g id="a_edge32_Node000024_Node000006"><a xlink:title=" ">
<path fill="none" stroke="#63b8ff" d="M486.01,-186.95C487.26,-172.29 491.47,-141.91 505.5,-121 535.83,-75.79 590.87,-41.44 623.72,-23.78"/>
<polygon fill="#63b8ff" stroke="#63b8ff" points="625.52,-26.78 632.75,-19.04 622.27,-20.58 625.52,-26.78"/>
</a>
</g>
</g>
<!-- Node24&#45;&gt;Node7 -->
<g id="edge34_Node000024_Node000007" class="edge">
<title>Node24&#45;&gt;Node7</title>
<g id="a_edge34_Node000024_Node000007"><a xlink:title=" ">
<path fill="none" stroke="#63b8ff" d="M481.9,-186.82C478.44,-177.99 473.47,-163.81 471.5,-151 465.02,-108.83 463.76,-96.96 471.5,-55 473.17,-45.95 476.6,-36.36 479.94,-28.41"/>
<polygon fill="#63b8ff" stroke="#63b8ff" points="483.23,-29.65 484.13,-19.09 476.84,-26.78 483.23,-29.65"/>
</a>
</g>
</g>
<!-- Node24&#45;&gt;Node12 -->
<g id="edge35_Node000024_Node000012" class="edge">
<title>Node24&#45;&gt;Node12</title>
<g id="a_edge35_Node000024_Node000012"><a xlink:title=" ">
<path fill="none" stroke="#63b8ff" d="M467.91,-186.99C450.93,-178.79 424.67,-166.09 402.86,-155.55"/>
<polygon fill="#63b8ff" stroke="#63b8ff" points="404.35,-152.38 393.82,-151.18 401.3,-158.68 404.35,-152.38"/>
</a>
</g>
</g>
<!-- Node24&#45;&gt;Node22 -->
<g id="edge33_Node000024_Node000022" class="edge">
<title>Node24&#45;&gt;Node22</title>
<g id="a_edge33_Node000024_Node000022"><a xlink:title=" ">
<path fill="none" stroke="#63b8ff" d="M493.76,-186.87C502.28,-177.97 515.76,-163.89 526.23,-152.95"/>
<polygon fill="#63b8ff" stroke="#63b8ff" points="528.82,-155.31 533.2,-145.67 523.76,-150.47 528.82,-155.31"/>
</a>
</g>
</g>
</g>
</svg>

<g id="navigator" transform="translate(0 0)" fill="#404254">
  <rect fill="#f2f5e9" fill-opacity="0.5" stroke="#606060" stroke-width=".5" x="0" y="0" width="60" height="60"/>
  <use id="zoomplus" xlink:href="#zoomPlus" x="17" y="9" onmousedown="handleZoom(evt,'in')"/>
  <use id="zoomminus" xlink:href="#zoomMin" x="42" y="9" onmousedown="handleZoom(evt,'out')"/>
  <use id="reset" xlink:href="#resetDef" x="30" y="36" onmousedown="handleReset()"/>
   <use id="arrowup" xlink:href="#arrowUp" x="0" y="0" onmousedown="handlePan(0,-1)"/>
  <use id="arrowright" xlink:href="#arrowRight" x="0" y="0" onmousedown="handlePan(1,0)"/>
  <use id="arrowdown" xlink:href="#arrowDown" x="0" y="0" onmousedown="handlePan(0,1)"/>
  <use id="arrowleft" xlink:href="#arrowLeft" x="0" y="0" onmousedown="handlePan(-1,0)"/>
</g>
<svg viewBox="0 0 15 15" width="100%" height="30px" preserveAspectRatio="xMaxYMin meet">
 <g id="arrow_out" transform="scale(0.3 0.3)">
  <a xlink:href="LogTerminalViewModel_8cpp__incl_org.svg" target="_base">
   <rect id="button" ry="5" rx="5" y="6" x="6" height="38" width="38"
        fill="#f2f5e9" fill-opacity="0.5" stroke="#606060" stroke-width="1.0"/>
   <path id="arrow"
     d="M 11.500037,31.436501 C 11.940474,20.09759 22.043105,11.32322 32.158766,21.979434 L 37.068811,17.246167 C 37.068811,17.246167 37.088388,32 37.088388,32 L 22.160133,31.978069 C 22.160133,31.978069 26.997745,27.140456 26.997745,27.140456 C 18.528582,18.264221 13.291696,25.230495 11.500037,31.436501 z"
     style="fill:#404040;"/>
  </a>
 </g>
</svg>

<style type='text/css'>
<![CDATA[
[data-mouse-over-selected='false'] { opacity: 0.7; }
[data-mouse-over-selected='true']  { opacity: 1.0; }
]]>
</style>
<script type="application/ecmascript"><![CDATA[
document.addEventListener('DOMContentLoaded', (event) => {
  highlightEdges();
  highlightAdjacentNodes();
});
]]></script>
</svg>
