<?xml version="1.0" encoding="UTF-8" standalone="no"?>
<!DOCTYPE svg PUBLIC "-//W3C//DTD SVG 1.1//EN"
 "http://www.w3.org/Graphics/SVG/1.1/DTD/svg11.dtd">
<!-- Generated by graphviz version 2.43.0 (0)
 -->
<!-- Title: app/main.cpp Pages: 1 -->
<svg width="1552pt" height="390pt"
 viewBox="0.00 0.00 1551.50 390.00" xmlns="http://www.w3.org/2000/svg" xmlns:xlink="http://www.w3.org/1999/xlink">
<g id="graph0" class="graph" transform="scale(1 1) rotate(0) translate(4 386)">
<title>app/main.cpp</title>
<!-- Node1 -->
<g id="Node000001" class="node">
<title>Node1</title>
<g id="a_Node000001"><a xlink:title=" ">
<polygon fill="#999999" stroke="#666666" points="482,-382 399,-382 399,-363 482,-363 482,-382"/>
<text text-anchor="middle" x="440.5" y="-370" font-family="Helvetica,sans-Serif" font-size="10.00">app/main.cpp</text>
</a>
</g>
</g>
<!-- Node2 -->
<g id="Node000002" class="node">
<title>Node2</title>
<g id="a_Node000002"><a xlink:title=" ">
<polygon fill="#e0e0e0" stroke="#999999" points="79,-321.5 0,-321.5 0,-302.5 79,-302.5 79,-321.5"/>
<text text-anchor="middle" x="39.5" y="-309.5" font-family="Helvetica,sans-Serif" font-size="10.00">QApplication</text>
</a>
</g>
</g>
<!-- Node1&#45;&gt;Node2 -->
<g id="edge1_Node000001_Node000002" class="edge">
<title>Node1&#45;&gt;Node2</title>
<g id="a_edge1_Node000001_Node000002"><a xlink:title=" ">
<path fill="none" stroke="#63b8ff" d="M398.83,-367.87C333.41,-361.79 202.78,-348.09 93.5,-327 88.99,-326.13 84.3,-325.1 79.65,-324"/>
<polygon fill="#63b8ff" stroke="#63b8ff" points="80.17,-320.53 69.62,-321.53 78.49,-327.32 80.17,-320.53"/>
</a>
</g>
</g>
<!-- Node3 -->
<g id="Node000003" class="node">
<title>Node3</title>
<g id="a_Node000003"><a xlink:title=" ">
<polygon fill="#e0e0e0" stroke="#999999" points="197,-261 110,-261 110,-242 197,-242 197,-261"/>
<text text-anchor="middle" x="153.5" y="-249" font-family="Helvetica,sans-Serif" font-size="10.00">QMainWindow</text>
</a>
</g>
</g>
<!-- Node1&#45;&gt;Node3 -->
<g id="edge2_Node000001_Node000003" class="edge">
<title>Node1&#45;&gt;Node3</title>
<g id="a_edge2_Node000001_Node000003"><a xlink:title=" ">
<path fill="none" stroke="#63b8ff" d="M398.84,-372.03C321.7,-372.03 161.29,-367.07 126.5,-327 112.19,-310.52 125.98,-285.86 138.54,-269.48"/>
<polygon fill="#63b8ff" stroke="#63b8ff" points="141.58,-271.3 145.21,-261.34 136.16,-266.86 141.58,-271.3"/>
</a>
</g>
</g>
<!-- Node4 -->
<g id="Node000004" class="node">
<title>Node4</title>
<g id="a_Node000004"><a xlink:title=" ">
<polygon fill="#e0e0e0" stroke="#999999" points="797.5,-145.5 741.5,-145.5 741.5,-126.5 797.5,-126.5 797.5,-145.5"/>
<text text-anchor="middle" x="769.5" y="-133.5" font-family="Helvetica,sans-Serif" font-size="10.00">QDebug</text>
</a>
</g>
</g>
<!-- Node1&#45;&gt;Node4 -->
<g id="edge3_Node000001_Node000004" class="edge">
<title>Node1&#45;&gt;Node4</title>
<g id="a_edge3_Node000001_Node000004"><a xlink:title=" ">
<path fill="none" stroke="#63b8ff" d="M482.12,-372.3C561.88,-372.85 731.67,-368.94 768.5,-327 811.29,-278.27 788.95,-192.33 776.28,-155.07"/>
<polygon fill="#63b8ff" stroke="#63b8ff" points="779.53,-153.79 772.88,-145.55 772.94,-156.14 779.53,-153.79"/>
</a>
</g>
</g>
<!-- Node5 -->
<g id="Node000005" class="node">
<title>Node5</title>
<g id="a_Node000005"><a xlink:href="MainWindow_8h.html" target="_top" xlink:title=" ">
<polygon fill="white" stroke="#666666" points="261.5,-321.5 135.5,-321.5 135.5,-302.5 261.5,-302.5 261.5,-321.5"/>
<text text-anchor="middle" x="198.5" y="-309.5" font-family="Helvetica,sans-Serif" font-size="10.00">src/app/MainWindow.h</text>
</a>
</g>
</g>
<!-- Node1&#45;&gt;Node5 -->
<g id="edge4_Node000001_Node000005" class="edge">
<title>Node1&#45;&gt;Node5</title>
<g id="a_edge4_Node000001_Node000005"><a xlink:title=" ">
<path fill="none" stroke="#63b8ff" d="M405.31,-362.99C362.57,-352.66 290.38,-335.21 243.6,-323.9"/>
<polygon fill="#63b8ff" stroke="#63b8ff" points="244.27,-320.46 233.73,-321.52 242.63,-327.27 244.27,-320.46"/>
</a>
</g>
</g>
<!-- Node7 -->
<g id="Node000007" class="node">
<title>Node7</title>
<g id="a_Node000007"><a xlink:href="AppViewModels_8h.html" target="_top" xlink:title=" ">
<polygon fill="white" stroke="#666666" points="759.5,-327 631.5,-327 631.5,-297 759.5,-297 759.5,-327"/>
<text text-anchor="start" x="639.5" y="-315" font-family="Helvetica,sans-Serif" font-size="10.00">src/mvvm/viewmodels</text>
<text text-anchor="middle" x="695.5" y="-304" font-family="Helvetica,sans-Serif" font-size="10.00">/AppViewModels.h</text>
</a>
</g>
</g>
<!-- Node1&#45;&gt;Node7 -->
<g id="edge7_Node000001_Node000007" class="edge">
<title>Node1&#45;&gt;Node7</title>
<g id="a_edge7_Node000001_Node000007"><a xlink:title=" ">
<path fill="none" stroke="#63b8ff" d="M477.58,-362.99C515.88,-354.21 576.61,-340.27 624.24,-329.35"/>
<polygon fill="#63b8ff" stroke="#63b8ff" points="625.23,-332.71 634.19,-327.06 623.66,-325.89 625.23,-332.71"/>
</a>
</g>
</g>
<!-- Node9 -->
<g id="Node000009" class="node">
<title>Node9</title>
<g id="a_Node000009"><a xlink:href="AppServices_8h.html" target="_top" xlink:title=" ">
<polygon fill="white" stroke="#666666" points="425.5,-321.5 279.5,-321.5 279.5,-302.5 425.5,-302.5 425.5,-321.5"/>
<text text-anchor="middle" x="352.5" y="-309.5" font-family="Helvetica,sans-Serif" font-size="10.00">src/services/AppServices.h</text>
</a>
</g>
</g>
<!-- Node1&#45;&gt;Node9 -->
<g id="edge10_Node000001_Node000009" class="edge">
<title>Node1&#45;&gt;Node9</title>
<g id="a_edge10_Node000001_Node000009"><a xlink:title=" ">
<path fill="none" stroke="#63b8ff" d="M427.52,-362.87C413.48,-353.54 390.87,-338.51 374.14,-327.38"/>
<polygon fill="#63b8ff" stroke="#63b8ff" points="375.8,-324.29 365.54,-321.67 371.93,-330.12 375.8,-324.29"/>
</a>
</g>
</g>
<!-- Node10 -->
<g id="Node000010" class="node">
<title>Node10</title>
<g id="a_Node000010"><a xlink:href="AppModels_8h.html" target="_top" xlink:title=" ">
<polygon fill="white" stroke="#666666" points="613.5,-321.5 443.5,-321.5 443.5,-302.5 613.5,-302.5 613.5,-321.5"/>
<text text-anchor="middle" x="528.5" y="-309.5" font-family="Helvetica,sans-Serif" font-size="10.00">src/mvvm/models/AppModels.h</text>
</a>
</g>
</g>
<!-- Node1&#45;&gt;Node10 -->
<g id="edge13_Node000001_Node000010" class="edge">
<title>Node1&#45;&gt;Node10</title>
<g id="a_edge13_Node000001_Node000010"><a xlink:title=" ">
<path fill="none" stroke="#63b8ff" d="M453.48,-362.87C467.52,-353.54 490.13,-338.51 506.86,-327.38"/>
<polygon fill="#63b8ff" stroke="#63b8ff" points="509.07,-330.12 515.46,-321.67 505.2,-324.29 509.07,-330.12"/>
</a>
</g>
</g>
<!-- Node11 -->
<g id="Node000011" class="node">
<title>Node11</title>
<g id="a_Node000011"><a xlink:href="UdpChannel_8h.html" target="_top" xlink:title=" ">
<polygon fill="white" stroke="#666666" points="1081,-327 928,-327 928,-297 1081,-297 1081,-327"/>
<text text-anchor="start" x="936" y="-315" font-family="Helvetica,sans-Serif" font-size="10.00">src/features/communication</text>
<text text-anchor="middle" x="1004.5" y="-304" font-family="Helvetica,sans-Serif" font-size="10.00">/udp/UdpChannel.h</text>
</a>
</g>
</g>
<!-- Node1&#45;&gt;Node11 -->
<g id="edge16_Node000001_Node000011" class="edge">
<title>Node1&#45;&gt;Node11</title>
<g id="a_edge16_Node000001_Node000011"><a xlink:title=" ">
<path fill="none" stroke="#63b8ff" d="M482.43,-367.15C574.18,-357.63 794.36,-334.8 917.46,-322.03"/>
<polygon fill="#63b8ff" stroke="#63b8ff" points="918.02,-325.49 927.61,-320.98 917.3,-318.53 918.02,-325.49"/>
</a>
</g>
</g>
<!-- Node5&#45;&gt;Node3 -->
<g id="edge5_Node000005_Node000003" class="edge">
<title>Node5&#45;&gt;Node3</title>
<g id="a_edge5_Node000005_Node000003"><a xlink:title=" ">
<path fill="none" stroke="#63b8ff" d="M191.86,-302.37C185.21,-293.73 174.81,-280.2 166.51,-269.42"/>
<polygon fill="#63b8ff" stroke="#63b8ff" points="169.04,-266.96 160.17,-261.17 163.49,-271.23 169.04,-266.96"/>
</a>
</g>
</g>
<!-- Node6 -->
<g id="Node000006" class="node">
<title>Node6</title>
<g id="a_Node000006"><a xlink:title=" ">
<polygon fill="#e0e0e0" stroke="#999999" points="670.5,-19 614.5,-19 614.5,0 670.5,0 670.5,-19"/>
<text text-anchor="middle" x="642.5" y="-7" font-family="Helvetica,sans-Serif" font-size="10.00">QObject</text>
</a>
</g>
</g>
<!-- Node5&#45;&gt;Node6 -->
<g id="edge6_Node000005_Node000006" class="edge">
<title>Node5&#45;&gt;Node6</title>
<g id="a_edge6_Node000005_Node000006"><a xlink:title=" ">
<path fill="none" stroke="#63b8ff" d="M230.89,-302.42C275.26,-288.48 349.5,-256.37 349.5,-197.5 349.5,-197.5 349.5,-197.5 349.5,-135 349.5,-25.51 524.96,-10.92 604.32,-9.92"/>
<polygon fill="#63b8ff" stroke="#63b8ff" points="604.43,-13.42 614.41,-9.86 604.39,-6.42 604.43,-13.42"/>
</a>
</g>
</g>
<!-- Node7&#45;&gt;Node6 -->
<g id="edge8_Node000007_Node000006" class="edge">
<title>Node7&#45;&gt;Node6</title>
<g id="a_edge8_Node000007_Node000006"><a xlink:title=" ">
<path fill="none" stroke="#63b8ff" d="M691.98,-296.77C687,-275.37 678.5,-233.56 678.5,-197.5 678.5,-197.5 678.5,-197.5 678.5,-135 678.5,-95.6 661.66,-51.86 651.02,-28.14"/>
<polygon fill="#63b8ff" stroke="#63b8ff" points="654.16,-26.6 646.77,-19.01 647.81,-29.55 654.16,-26.6"/>
</a>
</g>
</g>
<!-- Node8 -->
<g id="Node000008" class="node">
<title>Node8</title>
<g id="a_Node000008"><a xlink:title=" ">
<polygon fill="#e0e0e0" stroke="#999999" points="561,-261 496,-261 496,-242 561,-242 561,-261"/>
<text text-anchor="middle" x="528.5" y="-249" font-family="Helvetica,sans-Serif" font-size="10.00">typeindex</text>
</a>
</g>
</g>
<!-- Node7&#45;&gt;Node8 -->
<g id="edge9_Node000007_Node000008" class="edge">
<title>Node7&#45;&gt;Node8</title>
<g id="a_edge9_Node000007_Node000008"><a xlink:title=" ">
<path fill="none" stroke="#63b8ff" d="M655.5,-296.99C627.26,-287.1 589.82,-273.98 562.92,-264.56"/>
<polygon fill="#63b8ff" stroke="#63b8ff" points="563.76,-261.14 553.16,-261.14 561.44,-267.75 563.76,-261.14"/>
</a>
</g>
</g>
<!-- Node9&#45;&gt;Node6 -->
<g id="edge11_Node000009_Node000006" class="edge">
<title>Node9&#45;&gt;Node6</title>
<g id="a_edge11_Node000009_Node000006"><a xlink:title=" ">
<path fill="none" stroke="#63b8ff" d="M360.43,-302.34C376.09,-284.29 409.5,-240.72 409.5,-197.5 409.5,-197.5 409.5,-197.5 409.5,-135 409.5,-47.71 538.28,-21.4 604.36,-13.64"/>
<polygon fill="#63b8ff" stroke="#63b8ff" points="604.83,-17.11 614.39,-12.55 604.07,-10.15 604.83,-17.11"/>
</a>
</g>
</g>
<!-- Node9&#45;&gt;Node8 -->
<g id="edge12_Node000009_Node000008" class="edge">
<title>Node9&#45;&gt;Node8</title>
<g id="a_edge12_Node000009_Node000008"><a xlink:title=" ">
<path fill="none" stroke="#63b8ff" d="M378.09,-302.49C408.46,-292.4 459.26,-275.51 493.32,-264.19"/>
<polygon fill="#63b8ff" stroke="#63b8ff" points="494.49,-267.49 502.88,-261.02 492.28,-260.85 494.49,-267.49"/>
</a>
</g>
</g>
<!-- Node10&#45;&gt;Node6 -->
<g id="edge14_Node000010_Node000006" class="edge">
<title>Node10&#45;&gt;Node6</title>
<g id="a_edge14_Node000010_Node000006"><a xlink:title=" ">
<path fill="none" stroke="#63b8ff" d="M540.01,-302.41C561.71,-285.15 606.5,-243.88 606.5,-197.5 606.5,-197.5 606.5,-197.5 606.5,-135 606.5,-95.6 623.34,-51.86 633.98,-28.14"/>
<polygon fill="#63b8ff" stroke="#63b8ff" points="637.19,-29.55 638.23,-19.01 630.84,-26.6 637.19,-29.55"/>
</a>
</g>
</g>
<!-- Node10&#45;&gt;Node8 -->
<g id="edge15_Node000010_Node000008" class="edge">
<title>Node10&#45;&gt;Node8</title>
<g id="a_edge15_Node000010_Node000008"><a xlink:title=" ">
<path fill="none" stroke="#63b8ff" d="M528.5,-302.37C528.5,-294.25 528.5,-281.81 528.5,-271.39"/>
<polygon fill="#63b8ff" stroke="#63b8ff" points="532,-271.17 528.5,-261.17 525,-271.17 532,-271.17"/>
</a>
</g>
</g>
<!-- Node11&#45;&gt;Node6 -->
<g id="edge17_Node000011_Node000006" class="edge">
<title>Node11&#45;&gt;Node6</title>
<g id="a_edge17_Node000011_Node000006"><a xlink:title=" ">
<path fill="none" stroke="#63b8ff" d="M937.34,-296.98C886.55,-281.98 825.5,-252.51 825.5,-197.5 825.5,-197.5 825.5,-197.5 825.5,-135 825.5,-65.51 734.18,-32.07 680.56,-18.42"/>
<polygon fill="#63b8ff" stroke="#63b8ff" points="681.24,-14.99 670.69,-16.03 679.58,-21.79 681.24,-14.99"/>
</a>
</g>
</g>
<!-- Node12 -->
<g id="Node000012" class="node">
<title>Node12</title>
<g id="a_Node000012"><a xlink:title=" ">
<polygon fill="#e0e0e0" stroke="#999999" points="1500.5,-261 1442.5,-261 1442.5,-242 1500.5,-242 1500.5,-261"/>
<text text-anchor="middle" x="1471.5" y="-249" font-family="Helvetica,sans-Serif" font-size="10.00">QThread</text>
</a>
</g>
</g>
<!-- Node11&#45;&gt;Node12 -->
<g id="edge18_Node000011_Node000012" class="edge">
<title>Node11&#45;&gt;Node12</title>
<g id="a_edge18_Node000011_Node000012"><a xlink:title=" ">
<path fill="none" stroke="#63b8ff" d="M1081.34,-303.75C1166.47,-295.3 1307.69,-280.03 1428.5,-261 1429.77,-260.8 1431.06,-260.59 1432.36,-260.37"/>
<polygon fill="#63b8ff" stroke="#63b8ff" points="1433.18,-263.78 1442.41,-258.57 1431.95,-256.89 1433.18,-263.78"/>
</a>
</g>
</g>
<!-- Node13 -->
<g id="Node000013" class="node">
<title>Node13</title>
<g id="a_Node000013"><a xlink:title=" ">
<polygon fill="#e0e0e0" stroke="#999999" points="976.5,-261 900.5,-261 900.5,-242 976.5,-242 976.5,-261"/>
<text text-anchor="middle" x="938.5" y="-249" font-family="Helvetica,sans-Serif" font-size="10.00">QUdpSocket</text>
</a>
</g>
</g>
<!-- Node11&#45;&gt;Node13 -->
<g id="edge19_Node000011_Node000013" class="edge">
<title>Node11&#45;&gt;Node13</title>
<g id="a_edge19_Node000011_Node000013"><a xlink:title=" ">
<path fill="none" stroke="#63b8ff" d="M988.52,-296.84C978.75,-288.17 966.23,-277.08 956.16,-268.15"/>
<polygon fill="#63b8ff" stroke="#63b8ff" points="958.19,-265.28 948.39,-261.27 953.55,-270.52 958.19,-265.28"/>
</a>
</g>
</g>
<!-- Node14 -->
<g id="Node000014" class="node">
<title>Node14</title>
<g id="a_Node000014"><a xlink:href="Messages_8h.html" target="_top" xlink:title=" ">
<polygon fill="white" stroke="#666666" points="1349,-85 1246,-85 1246,-55 1349,-55 1349,-85"/>
<text text-anchor="start" x="1254" y="-73" font-family="Helvetica,sans-Serif" font-size="10.00">src/core/Protocols</text>
<text text-anchor="middle" x="1297.5" y="-62" font-family="Helvetica,sans-Serif" font-size="10.00">/Messages.h</text>
</a>
</g>
</g>
<!-- Node11&#45;&gt;Node14 -->
<g id="edge20_Node000011_Node000014" class="edge">
<title>Node11&#45;&gt;Node14</title>
<g id="a_edge20_Node000011_Node000014"><a xlink:title=" ">
<path fill="none" stroke="#63b8ff" d="M1081.26,-305.78C1155.39,-296.79 1266.32,-272.36 1335.5,-206 1363.51,-179.13 1371.67,-156.28 1355.5,-121 1350.09,-109.2 1340.37,-99.12 1330.41,-91.18"/>
<polygon fill="#63b8ff" stroke="#63b8ff" points="1332.2,-88.15 1322.08,-85.01 1328.04,-93.77 1332.2,-88.15"/>
</a>
</g>
</g>
<!-- Node22 -->
<g id="Node000022" class="node">
<title>Node22</title>
<g id="a_Node000022"><a xlink:href="UdpLogger_8h.html" target="_top" xlink:title=" ">
<polygon fill="white" stroke="#666666" points="1146,-261 995,-261 995,-242 1146,-242 1146,-261"/>
<text text-anchor="middle" x="1070.5" y="-249" font-family="Helvetica,sans-Serif" font-size="10.00">frames_logger/UdpLogger.h</text>
</a>
</g>
</g>
<!-- Node11&#45;&gt;Node22 -->
<g id="edge29_Node000011_Node000022" class="edge">
<title>Node11&#45;&gt;Node22</title>
<g id="a_edge29_Node000011_Node000022"><a xlink:title=" ">
<path fill="none" stroke="#63b8ff" d="M1020.48,-296.84C1030.25,-288.17 1042.77,-277.08 1052.84,-268.15"/>
<polygon fill="#63b8ff" stroke="#63b8ff" points="1055.45,-270.52 1060.61,-261.27 1050.81,-265.28 1055.45,-270.52"/>
</a>
</g>
</g>
<!-- Node14&#45;&gt;Node6 -->
<g id="edge27_Node000014_Node000006" class="edge">
<title>Node14&#45;&gt;Node6</title>
<g id="a_edge27_Node000014_Node000006"><a xlink:title=" ">
<path fill="none" stroke="#63b8ff" d="M1245.69,-56.55C1242.59,-55.98 1239.51,-55.46 1236.5,-55 1028.27,-23.49 775.43,-13.95 680.73,-11.37"/>
<polygon fill="#63b8ff" stroke="#63b8ff" points="680.59,-7.86 670.5,-11.1 680.41,-14.86 680.59,-7.86"/>
</a>
</g>
</g>
<!-- Node15 -->
<g id="Node000015" class="node">
<title>Node15</title>
<g id="a_Node000015"><a xlink:title=" ">
<polygon fill="#e0e0e0" stroke="#999999" points="1323,-19 1272,-19 1272,0 1323,0 1323,-19"/>
<text text-anchor="middle" x="1297.5" y="-7" font-family="Helvetica,sans-Serif" font-size="10.00">variant</text>
</a>
</g>
</g>
<!-- Node14&#45;&gt;Node15 -->
<g id="edge21_Node000014_Node000015" class="edge">
<title>Node14&#45;&gt;Node15</title>
<g id="a_edge21_Node000014_Node000015"><a xlink:title=" ">
<path fill="none" stroke="#63b8ff" d="M1297.5,-54.84C1297.5,-47.21 1297.5,-37.7 1297.5,-29.45"/>
<polygon fill="#63b8ff" stroke="#63b8ff" points="1301,-29.27 1297.5,-19.27 1294,-29.27 1301,-29.27"/>
</a>
</g>
</g>
<!-- Node16 -->
<g id="Node000016" class="node">
<title>Node16</title>
<g id="a_Node000016"><a xlink:title=" ">
<polygon fill="#e0e0e0" stroke="#999999" points="1119.5,-19 1069.5,-19 1069.5,0 1119.5,0 1119.5,-19"/>
<text text-anchor="middle" x="1094.5" y="-7" font-family="Helvetica,sans-Serif" font-size="10.00">cstdint</text>
</a>
</g>
</g>
<!-- Node14&#45;&gt;Node16 -->
<g id="edge22_Node000014_Node000016" class="edge">
<title>Node14&#45;&gt;Node16</title>
<g id="a_edge22_Node000014_Node000016"><a xlink:title=" ">
<path fill="none" stroke="#63b8ff" d="M1248.88,-54.99C1211.99,-44.36 1162.18,-30 1129.23,-20.51"/>
<polygon fill="#63b8ff" stroke="#63b8ff" points="1130.16,-17.13 1119.58,-17.73 1128.22,-23.86 1130.16,-17.13"/>
</a>
</g>
</g>
<!-- Node17 -->
<g id="Node000017" class="node">
<title>Node17</title>
<g id="a_Node000017"><a xlink:title=" ">
<polygon fill="#e0e0e0" stroke="#999999" points="1543.5,-19 1499.5,-19 1499.5,0 1543.5,0 1543.5,-19"/>
<text text-anchor="middle" x="1521.5" y="-7" font-family="Helvetica,sans-Serif" font-size="10.00">string</text>
</a>
</g>
</g>
<!-- Node14&#45;&gt;Node17 -->
<g id="edge23_Node000014_Node000017" class="edge">
<title>Node14&#45;&gt;Node17</title>
<g id="a_edge23_Node000014_Node000017"><a xlink:title=" ">
<path fill="none" stroke="#63b8ff" d="M1349.16,-55.83C1385.78,-46.44 1436.33,-33.39 1489.53,-19.23"/>
<polygon fill="#63b8ff" stroke="#63b8ff" points="1490.73,-22.53 1499.49,-16.57 1488.93,-15.77 1490.73,-22.53"/>
</a>
</g>
</g>
<!-- Node18 -->
<g id="Node000018" class="node">
<title>Node18</title>
<g id="a_Node000018"><a xlink:title=" ">
<polygon fill="#e0e0e0" stroke="#999999" points="1414,-19 1341,-19 1341,0 1414,0 1414,-19"/>
<text text-anchor="middle" x="1377.5" y="-7" font-family="Helvetica,sans-Serif" font-size="10.00">QByteArray</text>
</a>
</g>
</g>
<!-- Node14&#45;&gt;Node18 -->
<g id="edge24_Node000014_Node000018" class="edge">
<title>Node14&#45;&gt;Node18</title>
<g id="a_edge24_Node000014_Node000018"><a xlink:title=" ">
<path fill="none" stroke="#63b8ff" d="M1316.87,-54.84C1329.07,-45.91 1344.81,-34.41 1357.19,-25.35"/>
<polygon fill="#63b8ff" stroke="#63b8ff" points="1359.51,-27.99 1365.51,-19.27 1355.37,-22.34 1359.51,-27.99"/>
</a>
</g>
</g>
<!-- Node19 -->
<g id="Node000019" class="node">
<title>Node19</title>
<g id="a_Node000019"><a xlink:title=" ">
<polygon fill="#e0e0e0" stroke="#999999" points="1481,-19 1432,-19 1432,0 1481,0 1481,-19"/>
<text text-anchor="middle" x="1456.5" y="-7" font-family="Helvetica,sans-Serif" font-size="10.00">QHash</text>
</a>
</g>
</g>
<!-- Node14&#45;&gt;Node19 -->
<g id="edge25_Node000014_Node000019" class="edge">
<title>Node14&#45;&gt;Node19</title>
<g id="a_edge25_Node000014_Node000019"><a xlink:title=" ">
<path fill="none" stroke="#63b8ff" d="M1335.58,-54.99C1362.35,-45.14 1397.8,-32.1 1423.39,-22.68"/>
<polygon fill="#63b8ff" stroke="#63b8ff" points="1424.84,-25.88 1433.02,-19.14 1422.43,-19.31 1424.84,-25.88"/>
</a>
</g>
</g>
<!-- Node20 -->
<g id="Node000020" class="node">
<title>Node20</title>
<g id="a_Node000020"><a xlink:title=" ">
<polygon fill="#e0e0e0" stroke="#999999" points="1191,-19 1138,-19 1138,0 1191,0 1191,-19"/>
<text text-anchor="middle" x="1164.5" y="-7" font-family="Helvetica,sans-Serif" font-size="10.00">QString</text>
</a>
</g>
</g>
<!-- Node14&#45;&gt;Node20 -->
<g id="edge26_Node000014_Node000020" class="edge">
<title>Node14&#45;&gt;Node20</title>
<g id="a_edge26_Node000014_Node000020"><a xlink:title=" ">
<path fill="none" stroke="#63b8ff" d="M1265.64,-54.99C1243.65,-45.31 1214.65,-32.56 1193.34,-23.18"/>
<polygon fill="#63b8ff" stroke="#63b8ff" points="1194.7,-19.96 1184.14,-19.14 1191.89,-26.37 1194.7,-19.96"/>
</a>
</g>
</g>
<!-- Node21 -->
<g id="Node000021" class="node">
<title>Node21</title>
<g id="a_Node000021"><a xlink:title=" ">
<polygon fill="#e0e0e0" stroke="#999999" points="1254,-19 1209,-19 1209,0 1254,0 1254,-19"/>
<text text-anchor="middle" x="1231.5" y="-7" font-family="Helvetica,sans-Serif" font-size="10.00">QMap</text>
</a>
</g>
</g>
<!-- Node14&#45;&gt;Node21 -->
<g id="edge28_Node000014_Node000021" class="edge">
<title>Node14&#45;&gt;Node21</title>
<g id="a_edge28_Node000014_Node000021"><a xlink:title=" ">
<path fill="none" stroke="#63b8ff" d="M1281.52,-54.84C1271.75,-46.17 1259.23,-35.08 1249.16,-26.15"/>
<polygon fill="#63b8ff" stroke="#63b8ff" points="1251.19,-23.28 1241.39,-19.27 1246.55,-28.52 1251.19,-23.28"/>
</a>
</g>
</g>
<!-- Node22&#45;&gt;Node16 -->
<g id="edge45_Node000022_Node000016" class="edge">
<title>Node22&#45;&gt;Node16</title>
<g id="a_edge45_Node000022_Node000016"><a xlink:title=" ">
<path fill="none" stroke="#63b8ff" d="M1058.32,-241.8C1041.07,-229.51 1008.49,-206.38 980.5,-187 957.09,-170.79 940.83,-176.16 927.5,-151 921.26,-139.22 921.19,-132.74 927.5,-121 955.47,-68.95 1019.93,-37.3 1060.08,-21.91"/>
<polygon fill="#63b8ff" stroke="#63b8ff" points="1061.32,-25.19 1069.49,-18.43 1058.89,-18.62 1061.32,-25.19"/>
</a>
</g>
</g>
<!-- Node23 -->
<g id="Node000023" class="node">
<title>Node23</title>
<g id="a_Node000023"><a xlink:href="RingBuffer_8h.html" target="_top" xlink:title=" ">
<polygon fill="white" stroke="#666666" points="1141.5,-206 1065.5,-206 1065.5,-187 1141.5,-187 1141.5,-206"/>
<text text-anchor="middle" x="1103.5" y="-194" font-family="Helvetica,sans-Serif" font-size="10.00">RingBuffer.h</text>
</a>
</g>
</g>
<!-- Node22&#45;&gt;Node23 -->
<g id="edge30_Node000022_Node000023" class="edge">
<title>Node22&#45;&gt;Node23</title>
<g id="a_edge30_Node000022_Node000023"><a xlink:title=" ">
<path fill="none" stroke="#63b8ff" d="M1075.95,-241.75C1080.51,-234.42 1087.17,-223.73 1092.79,-214.7"/>
<polygon fill="#63b8ff" stroke="#63b8ff" points="1095.84,-216.43 1098.15,-206.09 1089.9,-212.73 1095.84,-216.43"/>
</a>
</g>
</g>
<!-- Node25 -->
<g id="Node000025" class="node">
<title>Node25</title>
<g id="a_Node000025"><a xlink:title=" ">
<polygon fill="#e0e0e0" stroke="#999999" points="986.5,-145.5 936.5,-145.5 936.5,-126.5 986.5,-126.5 986.5,-145.5"/>
<text text-anchor="middle" x="961.5" y="-133.5" font-family="Helvetica,sans-Serif" font-size="10.00">atomic</text>
</a>
</g>
</g>
<!-- Node22&#45;&gt;Node25 -->
<g id="edge44_Node000022_Node000025" class="edge">
<title>Node22&#45;&gt;Node25</title>
<g id="a_edge44_Node000022_Node000025"><a xlink:title=" ">
<path fill="none" stroke="#63b8ff" d="M1062.95,-241.69C1052.22,-229.26 1031.82,-205.96 1013.5,-187 1002.1,-175.2 988.75,-162.39 978.44,-152.69"/>
<polygon fill="#63b8ff" stroke="#63b8ff" points="980.6,-149.92 970.91,-145.65 975.82,-155.04 980.6,-149.92"/>
</a>
</g>
</g>
<!-- Node27 -->
<g id="Node000027" class="node">
<title>Node27</title>
<g id="a_Node000027"><a xlink:href="Logger_8h.html" target="_top" xlink:title=" ">
<polygon fill="white" stroke="#666666" points="1346.5,-151 1236.5,-151 1236.5,-121 1346.5,-121 1346.5,-151"/>
<text text-anchor="start" x="1244.5" y="-139" font-family="Helvetica,sans-Serif" font-size="10.00">src/services/Logger</text>
<text text-anchor="middle" x="1291.5" y="-128" font-family="Helvetica,sans-Serif" font-size="10.00">/Logger.h</text>
</a>
</g>
</g>
<!-- Node22&#45;&gt;Node27 -->
<g id="edge49_Node000022_Node000027" class="edge">
<title>Node22&#45;&gt;Node27</title>
<g id="a_edge49_Node000022_Node000027"><a xlink:title=" ">
<path fill="none" stroke="#63b8ff" d="M1132,-241.94C1163.25,-235.55 1200.8,-224.58 1230.5,-206 1249.42,-194.16 1265.85,-174.72 1276.87,-159.48"/>
<polygon fill="#63b8ff" stroke="#63b8ff" points="1279.87,-161.29 1282.72,-151.09 1274.13,-157.29 1279.87,-161.29"/>
</a>
</g>
</g>
<!-- Node29 -->
<g id="Node000029" class="node">
<title>Node29</title>
<g id="a_Node000029"><a xlink:href="Writer_8h.html" target="_top" xlink:title=" ">
<polygon fill="white" stroke="#666666" points="1222,-206 1167,-206 1167,-187 1222,-187 1222,-206"/>
<text text-anchor="middle" x="1194.5" y="-194" font-family="Helvetica,sans-Serif" font-size="10.00">Writer.h</text>
</a>
</g>
</g>
<!-- Node22&#45;&gt;Node29 -->
<g id="edge39_Node000022_Node000029" class="edge">
<title>Node22&#45;&gt;Node29</title>
<g id="a_edge39_Node000022_Node000029"><a xlink:title=" ">
<path fill="none" stroke="#63b8ff" d="M1090.42,-241.98C1110.55,-233.38 1141.88,-219.99 1164.91,-210.15"/>
<polygon fill="#63b8ff" stroke="#63b8ff" points="1166.4,-213.32 1174.21,-206.17 1163.64,-206.88 1166.4,-213.32"/>
</a>
</g>
</g>
<!-- Node30 -->
<g id="Node000030" class="node">
<title>Node30</title>
<g id="a_Node000030"><a xlink:title=" ">
<polygon fill="#e0e0e0" stroke="#999999" points="1326.5,-206 1278.5,-206 1278.5,-187 1326.5,-187 1326.5,-206"/>
<text text-anchor="middle" x="1302.5" y="-194" font-family="Helvetica,sans-Serif" font-size="10.00">thread</text>
</a>
</g>
</g>
<!-- Node22&#45;&gt;Node30 -->
<g id="edge46_Node000022_Node000030" class="edge">
<title>Node22&#45;&gt;Node30</title>
<g id="a_edge46_Node000022_Node000030"><a xlink:title=" ">
<path fill="none" stroke="#63b8ff" d="M1107.77,-241.98C1152.15,-231.85 1225.62,-215.06 1268.5,-205.27"/>
<polygon fill="#63b8ff" stroke="#63b8ff" points="1269.48,-208.63 1278.45,-202.99 1267.92,-201.81 1269.48,-208.63"/>
</a>
</g>
</g>
<!-- Node31 -->
<g id="Node000031" class="node">
<title>Node31</title>
<g id="a_Node000031"><a xlink:title=" ">
<polygon fill="#e0e0e0" stroke="#999999" points="903.5,-206 853.5,-206 853.5,-187 903.5,-187 903.5,-206"/>
<text text-anchor="middle" x="878.5" y="-194" font-family="Helvetica,sans-Serif" font-size="10.00">chrono</text>
</a>
</g>
</g>
<!-- Node22&#45;&gt;Node31 -->
<g id="edge47_Node000022_Node000031" class="edge">
<title>Node22&#45;&gt;Node31</title>
<g id="a_edge47_Node000022_Node000031"><a xlink:title=" ">
<path fill="none" stroke="#63b8ff" d="M1039.65,-241.98C1005.3,-232.5 949.89,-217.21 913.83,-207.25"/>
<polygon fill="#63b8ff" stroke="#63b8ff" points="914.33,-203.76 903.75,-204.47 912.46,-210.51 914.33,-203.76"/>
</a>
</g>
</g>
<!-- Node32 -->
<g id="Node000032" class="node">
<title>Node32</title>
<g id="a_Node000032"><a xlink:title=" ">
<polygon fill="#e0e0e0" stroke="#999999" points="971.5,-206 921.5,-206 921.5,-187 971.5,-187 971.5,-206"/>
<text text-anchor="middle" x="946.5" y="-194" font-family="Helvetica,sans-Serif" font-size="10.00">format</text>
</a>
</g>
</g>
<!-- Node22&#45;&gt;Node32 -->
<g id="edge48_Node000022_Node000032" class="edge">
<title>Node22&#45;&gt;Node32</title>
<g id="a_edge48_Node000022_Node000032"><a xlink:title=" ">
<path fill="none" stroke="#63b8ff" d="M1050.58,-241.98C1030.45,-233.38 999.12,-219.99 976.09,-210.15"/>
<polygon fill="#63b8ff" stroke="#63b8ff" points="977.36,-206.88 966.79,-206.17 974.6,-213.32 977.36,-206.88"/>
</a>
</g>
</g>
<!-- Node23&#45;&gt;Node4 -->
<g id="edge31_Node000023_Node000004" class="edge">
<title>Node23&#45;&gt;Node4</title>
<g id="a_edge31_Node000023_Node000004"><a xlink:title=" ">
<path fill="none" stroke="#63b8ff" d="M1065.19,-188.79C1000.91,-177.53 872.1,-154.97 807.82,-143.71"/>
<polygon fill="#63b8ff" stroke="#63b8ff" points="808.16,-140.22 797.71,-141.94 806.95,-147.11 808.16,-140.22"/>
</a>
</g>
</g>
<!-- Node23&#45;&gt;Node16 -->
<g id="edge32_Node000023_Node000016" class="edge">
<title>Node23&#45;&gt;Node16</title>
<g id="a_edge32_Node000023_Node000016"><a xlink:title=" ">
<path fill="none" stroke="#63b8ff" d="M1103.07,-186.58C1101.68,-158.07 1097.33,-68.74 1095.42,-29.41"/>
<polygon fill="#63b8ff" stroke="#63b8ff" points="1098.91,-29.15 1094.93,-19.33 1091.92,-29.49 1098.91,-29.15"/>
</a>
</g>
</g>
<!-- Node24 -->
<g id="Node000024" class="node">
<title>Node24</title>
<g id="a_Node000024"><a xlink:title=" ">
<polygon fill="#e0e0e0" stroke="#999999" points="1180,-145.5 1125,-145.5 1125,-126.5 1180,-126.5 1180,-145.5"/>
<text text-anchor="middle" x="1152.5" y="-133.5" font-family="Helvetica,sans-Serif" font-size="10.00">fstream</text>
</a>
</g>
</g>
<!-- Node23&#45;&gt;Node24 -->
<g id="edge33_Node000023_Node000024" class="edge">
<title>Node23&#45;&gt;Node24</title>
<g id="a_edge33_Node000023_Node000024"><a xlink:title=" ">
<path fill="none" stroke="#63b8ff" d="M1110.73,-186.87C1118.04,-178.14 1129.52,-164.43 1138.6,-153.59"/>
<polygon fill="#63b8ff" stroke="#63b8ff" points="1141.5,-155.58 1145.24,-145.67 1136.14,-151.09 1141.5,-155.58"/>
</a>
</g>
</g>
<!-- Node23&#45;&gt;Node25 -->
<g id="edge34_Node000023_Node000025" class="edge">
<title>Node23&#45;&gt;Node25</title>
<g id="a_edge34_Node000023_Node000025"><a xlink:title=" ">
<path fill="none" stroke="#63b8ff" d="M1082.85,-186.99C1058.87,-177.12 1019.11,-160.73 991.67,-149.43"/>
<polygon fill="#63b8ff" stroke="#63b8ff" points="992.75,-146.09 982.17,-145.52 990.09,-152.56 992.75,-146.09"/>
</a>
</g>
</g>
<!-- Node26 -->
<g id="Node000026" class="node">
<title>Node26</title>
<g id="a_Node000026"><a xlink:title=" ">
<polygon fill="#e0e0e0" stroke="#999999" points="1068.5,-145.5 1004.5,-145.5 1004.5,-126.5 1068.5,-126.5 1068.5,-145.5"/>
<text text-anchor="middle" x="1036.5" y="-133.5" font-family="Helvetica,sans-Serif" font-size="10.00">algorithm</text>
</a>
</g>
</g>
<!-- Node23&#45;&gt;Node26 -->
<g id="edge35_Node000023_Node000026" class="edge">
<title>Node23&#45;&gt;Node26</title>
<g id="a_edge35_Node000023_Node000026"><a xlink:title=" ">
<path fill="none" stroke="#63b8ff" d="M1093.61,-186.87C1083.22,-177.8 1066.66,-163.34 1054.05,-152.32"/>
<polygon fill="#63b8ff" stroke="#63b8ff" points="1056.26,-149.61 1046.43,-145.67 1051.66,-154.88 1056.26,-149.61"/>
</a>
</g>
</g>
<!-- Node23&#45;&gt;Node27 -->
<g id="edge36_Node000023_Node000027" class="edge">
<title>Node23&#45;&gt;Node27</title>
<g id="a_edge36_Node000023_Node000027"><a xlink:title=" ">
<path fill="none" stroke="#63b8ff" d="M1130.84,-186.99C1158.48,-178.39 1201.98,-164.86 1236.75,-154.04"/>
<polygon fill="#63b8ff" stroke="#63b8ff" points="1237.79,-157.38 1246.3,-151.06 1235.71,-150.69 1237.79,-157.38"/>
</a>
</g>
</g>
<!-- Node27&#45;&gt;Node14 -->
<g id="edge38_Node000027_Node000014" class="edge">
<title>Node27&#45;&gt;Node14</title>
<g id="a_edge38_Node000027_Node000014"><a xlink:title=" ">
<path fill="none" stroke="#63b8ff" d="M1292.83,-120.8C1293.54,-113.26 1294.43,-103.78 1295.24,-95.13"/>
<polygon fill="#63b8ff" stroke="#63b8ff" points="1298.72,-95.45 1296.17,-85.16 1291.75,-94.79 1298.72,-95.45"/>
</a>
</g>
</g>
<!-- Node28 -->
<g id="Node000028" class="node">
<title>Node28</title>
<g id="a_Node000028"><a xlink:title=" ">
<polygon fill="#e0e0e0" stroke="#999999" points="1228,-79.5 1169,-79.5 1169,-60.5 1228,-60.5 1228,-79.5"/>
<text text-anchor="middle" x="1198.5" y="-67.5" font-family="Helvetica,sans-Serif" font-size="10.00">QWidget</text>
</a>
</g>
</g>
<!-- Node27&#45;&gt;Node28 -->
<g id="edge37_Node000027_Node000028" class="edge">
<title>Node27&#45;&gt;Node28</title>
<g id="a_edge37_Node000027_Node000028"><a xlink:title=" ">
<path fill="none" stroke="#63b8ff" d="M1270.86,-120.8C1255.56,-110.27 1234.79,-95.97 1219.42,-85.4"/>
<polygon fill="#63b8ff" stroke="#63b8ff" points="1221.3,-82.44 1211.08,-79.66 1217.34,-88.21 1221.3,-82.44"/>
</a>
</g>
</g>
<!-- Node29&#45;&gt;Node16 -->
<g id="edge40_Node000029_Node000016" class="edge">
<title>Node29&#45;&gt;Node16</title>
<g id="a_edge40_Node000029_Node000016"><a xlink:title=" ">
<path fill="none" stroke="#63b8ff" d="M1195.47,-186.84C1196.72,-172.52 1197.73,-143.3 1188.5,-121 1186.2,-115.44 1134.93,-56.59 1109.1,-27.12"/>
<polygon fill="#63b8ff" stroke="#63b8ff" points="1111.5,-24.54 1102.27,-19.33 1106.23,-29.15 1111.5,-24.54"/>
</a>
</g>
</g>
<!-- Node29&#45;&gt;Node17 -->
<g id="edge42_Node000029_Node000017" class="edge">
<title>Node29&#45;&gt;Node17</title>
<g id="a_edge42_Node000029_Node000017"><a xlink:title=" ">
<path fill="none" stroke="#63b8ff" d="M1222.04,-191.6C1255.22,-186.1 1311.91,-174.03 1355.5,-151 1419,-117.45 1479.79,-56.18 1506.83,-26.92"/>
<polygon fill="#63b8ff" stroke="#63b8ff" points="1509.68,-28.99 1513.82,-19.24 1504.5,-24.28 1509.68,-28.99"/>
</a>
</g>
</g>
<!-- Node29&#45;&gt;Node24 -->
<g id="edge41_Node000029_Node000024" class="edge">
<title>Node29&#45;&gt;Node24</title>
<g id="a_edge41_Node000029_Node000024"><a xlink:title=" ">
<path fill="none" stroke="#63b8ff" d="M1188.3,-186.87C1182.1,-178.23 1172.39,-164.7 1164.64,-153.92"/>
<polygon fill="#63b8ff" stroke="#63b8ff" points="1167.4,-151.75 1158.72,-145.67 1161.71,-155.83 1167.4,-151.75"/>
</a>
</g>
</g>
<!-- Node29&#45;&gt;Node27 -->
<g id="edge43_Node000029_Node000027" class="edge">
<title>Node29&#45;&gt;Node27</title>
<g id="a_edge43_Node000029_Node000027"><a xlink:title=" ">
<path fill="none" stroke="#63b8ff" d="M1208.81,-186.87C1222.1,-178.86 1242.34,-166.65 1259.47,-156.31"/>
<polygon fill="#63b8ff" stroke="#63b8ff" points="1261.34,-159.28 1268.1,-151.11 1257.73,-153.28 1261.34,-159.28"/>
</a>
</g>
</g>
</g>
</svg>
