<?xml version="1.0" encoding="UTF-8" standalone="no"?>
<!DOCTYPE svg PUBLIC "-//W3C//DTD SVG 1.1//EN"
 "http://www.w3.org/Graphics/SVG/1.1/DTD/svg11.dtd">
<!-- Generated by graphviz version 2.43.0 (0)
 -->
<!-- Title: app/MainWindow.cpp Pages: 1 -->
<svg width="1564pt" height="214pt"
 viewBox="0.00 0.00 1563.50 214.00" xmlns="http://www.w3.org/2000/svg" xmlns:xlink="http://www.w3.org/1999/xlink">
<g id="graph0" class="graph" transform="scale(1 1) rotate(0) translate(4 210)">
<title>app/MainWindow.cpp</title>
<!-- Node1 -->
<g id="Node000001" class="node">
<title>Node1</title>
<g id="a_Node000001"><a xlink:title=" ">
<polygon fill="#999999" stroke="#666666" points="867,-206 747,-206 747,-187 867,-187 867,-206"/>
<text text-anchor="middle" x="807" y="-194" font-family="Helvetica,sans-Serif" font-size="10.00">app/MainWindow.cpp</text>
</a>
</g>
</g>
<!-- Node2 -->
<g id="Node000002" class="node">
<title>Node2</title>
<g id="a_Node000002"><a xlink:title=" ">
<polygon fill="#e0e0e0" stroke="#999999" points="241.5,-19 154.5,-19 154.5,0 241.5,0 241.5,-19"/>
<text text-anchor="middle" x="198" y="-7" font-family="Helvetica,sans-Serif" font-size="10.00">QMainWindow</text>
</a>
</g>
</g>
<!-- Node1&#45;&gt;Node2 -->
<g id="edge1_Node000001_Node000002" class="edge">
<title>Node1&#45;&gt;Node2</title>
<g id="a_edge1_Node000001_Node000002"><a xlink:title=" ">
<path fill="none" stroke="#63b8ff" d="M746.78,-193.38C635.24,-188.9 400.88,-176.67 324,-151 271,-133.3 250.09,-130.02 217,-85 205.04,-68.73 200.58,-45.67 198.93,-29.53"/>
<polygon fill="#63b8ff" stroke="#63b8ff" points="202.4,-28.91 198.16,-19.2 195.42,-29.43 202.4,-28.91"/>
</a>
</g>
</g>
<!-- Node3 -->
<g id="Node000003" class="node">
<title>Node3</title>
<g id="a_Node000003"><a xlink:title=" ">
<polygon fill="#e0e0e0" stroke="#999999" points="408,-19 352,-19 352,0 408,0 408,-19"/>
<text text-anchor="middle" x="380" y="-7" font-family="Helvetica,sans-Serif" font-size="10.00">QObject</text>
</a>
</g>
</g>
<!-- Node1&#45;&gt;Node3 -->
<g id="edge2_Node000001_Node000003" class="edge">
<title>Node1&#45;&gt;Node3</title>
<g id="a_edge2_Node000001_Node000003"><a xlink:title=" ">
<path fill="none" stroke="#63b8ff" d="M746.58,-192.96C639.05,-187.86 423.4,-174.78 399,-151 366.33,-119.16 371,-59.79 376.07,-29.43"/>
<polygon fill="#63b8ff" stroke="#63b8ff" points="379.57,-29.81 377.96,-19.34 372.68,-28.53 379.57,-29.81"/>
</a>
</g>
</g>
<!-- Node4 -->
<g id="Node000004" class="node">
<title>Node4</title>
<g id="a_Node000004"><a xlink:title=" ">
<polygon fill="#e0e0e0" stroke="#999999" points="887,-145.5 831,-145.5 831,-126.5 887,-126.5 887,-145.5"/>
<text text-anchor="middle" x="859" y="-133.5" font-family="Helvetica,sans-Serif" font-size="10.00">QDebug</text>
</a>
</g>
</g>
<!-- Node1&#45;&gt;Node4 -->
<g id="edge3_Node000001_Node000004" class="edge">
<title>Node1&#45;&gt;Node4</title>
<g id="a_edge3_Node000001_Node000004"><a xlink:title=" ">
<path fill="none" stroke="#63b8ff" d="M814.67,-186.87C822.51,-178.05 834.86,-164.16 844.54,-153.27"/>
<polygon fill="#63b8ff" stroke="#63b8ff" points="847.27,-155.47 851.3,-145.67 842.04,-150.82 847.27,-155.47"/>
</a>
</g>
</g>
<!-- Node5 -->
<g id="Node000005" class="node">
<title>Node5</title>
<g id="a_Node000005"><a xlink:title=" ">
<polygon fill="#e0e0e0" stroke="#999999" points="960.5,-145.5 905.5,-145.5 905.5,-126.5 960.5,-126.5 960.5,-145.5"/>
<text text-anchor="middle" x="933" y="-133.5" font-family="Helvetica,sans-Serif" font-size="10.00">QVector</text>
</a>
</g>
</g>
<!-- Node1&#45;&gt;Node5 -->
<g id="edge4_Node000001_Node000005" class="edge">
<title>Node1&#45;&gt;Node5</title>
<g id="a_edge4_Node000001_Node000005"><a xlink:title=" ">
<path fill="none" stroke="#63b8ff" d="M825.32,-186.99C846.41,-177.2 881.26,-161.02 905.58,-149.73"/>
<polygon fill="#63b8ff" stroke="#63b8ff" points="907.06,-152.9 914.66,-145.52 904.11,-146.55 907.06,-152.9"/>
</a>
</g>
</g>
<!-- Node6 -->
<g id="Node000006" class="node">
<title>Node6</title>
<g id="a_Node000006"><a xlink:title=" ">
<polygon fill="#e0e0e0" stroke="#999999" points="1047,-145.5 979,-145.5 979,-126.5 1047,-126.5 1047,-145.5"/>
<text text-anchor="middle" x="1013" y="-133.5" font-family="Helvetica,sans-Serif" font-size="10.00">QMenuBar</text>
</a>
</g>
</g>
<!-- Node1&#45;&gt;Node6 -->
<g id="edge5_Node000001_Node000006" class="edge">
<title>Node1&#45;&gt;Node6</title>
<g id="a_edge5_Node000001_Node000006"><a xlink:title=" ">
<path fill="none" stroke="#63b8ff" d="M839.69,-186.93C872.49,-178.24 924.4,-164.22 969,-151 971.58,-150.24 974.23,-149.43 976.91,-148.61"/>
<polygon fill="#63b8ff" stroke="#63b8ff" points="978.02,-151.93 986.53,-145.61 975.94,-145.25 978.02,-151.93"/>
</a>
</g>
</g>
<!-- Node7 -->
<g id="Node000007" class="node">
<title>Node7</title>
<g id="a_Node000007"><a xlink:title=" ">
<polygon fill="#e0e0e0" stroke="#999999" points="1130.5,-145.5 1065.5,-145.5 1065.5,-126.5 1130.5,-126.5 1130.5,-145.5"/>
<text text-anchor="middle" x="1098" y="-133.5" font-family="Helvetica,sans-Serif" font-size="10.00">QShortcut</text>
</a>
</g>
</g>
<!-- Node1&#45;&gt;Node7 -->
<g id="edge6_Node000001_Node000007" class="edge">
<title>Node1&#45;&gt;Node7</title>
<g id="a_edge6_Node000001_Node000007"><a xlink:title=" ">
<path fill="none" stroke="#63b8ff" d="M867.14,-187.25C917.9,-179.69 992.27,-167.22 1056,-151 1058.79,-150.29 1061.67,-149.49 1064.54,-148.63"/>
<polygon fill="#63b8ff" stroke="#63b8ff" points="1065.7,-151.94 1074.19,-145.6 1063.6,-145.26 1065.7,-151.94"/>
</a>
</g>
</g>
<!-- Node8 -->
<g id="Node000008" class="node">
<title>Node8</title>
<g id="a_Node000008"><a xlink:title=" ">
<polygon fill="#e0e0e0" stroke="#999999" points="1243.5,-145.5 1148.5,-145.5 1148.5,-126.5 1243.5,-126.5 1243.5,-145.5"/>
<text text-anchor="middle" x="1196" y="-133.5" font-family="Helvetica,sans-Serif" font-size="10.00">QStackedLayout</text>
</a>
</g>
</g>
<!-- Node1&#45;&gt;Node8 -->
<g id="edge7_Node000001_Node000008" class="edge">
<title>Node1&#45;&gt;Node8</title>
<g id="a_edge7_Node000001_Node000008"><a xlink:title=" ">
<path fill="none" stroke="#63b8ff" d="M867.29,-189.39C934.05,-182.17 1044.72,-168.84 1139,-151 1143.82,-150.09 1148.83,-149.03 1153.81,-147.9"/>
<polygon fill="#63b8ff" stroke="#63b8ff" points="1154.95,-151.23 1163.88,-145.53 1153.34,-144.41 1154.95,-151.23"/>
</a>
</g>
</g>
<!-- Node9 -->
<g id="Node000009" class="node">
<title>Node9</title>
<g id="a_Node000009"><a xlink:href="MainWindow_8h.html" target="_top" xlink:title=" ">
<polygon fill="white" stroke="#666666" points="352,-79.5 226,-79.5 226,-60.5 352,-60.5 352,-79.5"/>
<text text-anchor="middle" x="289" y="-67.5" font-family="Helvetica,sans-Serif" font-size="10.00">src/app/MainWindow.h</text>
</a>
</g>
</g>
<!-- Node1&#45;&gt;Node9 -->
<g id="edge8_Node000001_Node000009" class="edge">
<title>Node1&#45;&gt;Node9</title>
<g id="a_edge8_Node000001_Node000009"><a xlink:title=" ">
<path fill="none" stroke="#63b8ff" d="M746.87,-194.52C642.27,-191.97 431.66,-182.92 366,-151 337.08,-136.94 313.15,-107.23 299.99,-88.24"/>
<polygon fill="#63b8ff" stroke="#63b8ff" points="302.73,-86.04 294.27,-79.66 296.91,-89.92 302.73,-86.04"/>
</a>
</g>
</g>
<!-- Node10 -->
<g id="Node000010" class="node">
<title>Node10</title>
<g id="a_Node000010"><a xlink:href="PidTabFactory_8h.html" target="_top" xlink:title=" ">
<polygon fill="white" stroke="#666666" points="170,-145.5 0,-145.5 0,-126.5 170,-126.5 170,-145.5"/>
<text text-anchor="middle" x="85" y="-133.5" font-family="Helvetica,sans-Serif" font-size="10.00">src/features/pid/PidTabFactory.h</text>
</a>
</g>
</g>
<!-- Node1&#45;&gt;Node10 -->
<g id="edge11_Node000001_Node000010" class="edge">
<title>Node1&#45;&gt;Node10</title>
<g id="a_edge11_Node000001_Node000010"><a xlink:title=" ">
<path fill="none" stroke="#63b8ff" d="M746.74,-192.58C635.38,-186.89 389.95,-172.89 184,-151 173.16,-149.85 161.69,-148.42 150.54,-146.92"/>
<polygon fill="#63b8ff" stroke="#63b8ff" points="150.8,-143.42 140.42,-145.53 149.85,-150.36 150.8,-143.42"/>
</a>
</g>
</g>
<!-- Node14 -->
<g id="Node000014" class="node">
<title>Node14</title>
<g id="a_Node000014"><a xlink:href="TestTabFactory_8h.html" target="_top" xlink:title=" ">
<polygon fill="white" stroke="#666666" points="680.5,-151 545.5,-151 545.5,-121 680.5,-121 680.5,-151"/>
<text text-anchor="start" x="553.5" y="-139" font-family="Helvetica,sans-Serif" font-size="10.00">src/features/test/TestTab</text>
<text text-anchor="middle" x="613" y="-128" font-family="Helvetica,sans-Serif" font-size="10.00">Factory.h</text>
</a>
</g>
</g>
<!-- Node1&#45;&gt;Node14 -->
<g id="edge16_Node000001_Node000014" class="edge">
<title>Node1&#45;&gt;Node14</title>
<g id="a_edge16_Node000001_Node000014"><a xlink:title=" ">
<path fill="none" stroke="#63b8ff" d="M778.79,-186.99C750.26,-178.39 705.38,-164.86 669.5,-154.04"/>
<polygon fill="#63b8ff" stroke="#63b8ff" points="670.23,-150.6 659.64,-151.06 668.2,-157.3 670.23,-150.6"/>
</a>
</g>
</g>
<!-- Node22 -->
<g id="Node000022" class="node">
<title>Node22</title>
<g id="a_Node000022"><a xlink:href="GraphicTabFactory_8h.html" target="_top" xlink:title=" ">
<polygon fill="white" stroke="#666666" points="527.5,-151 408.5,-151 408.5,-121 527.5,-121 527.5,-151"/>
<text text-anchor="start" x="416.5" y="-139" font-family="Helvetica,sans-Serif" font-size="10.00">src/features/graphics</text>
<text text-anchor="middle" x="468" y="-128" font-family="Helvetica,sans-Serif" font-size="10.00">/GraphicTabFactory.h</text>
</a>
</g>
</g>
<!-- Node1&#45;&gt;Node22 -->
<g id="edge25_Node000001_Node000022" class="edge">
<title>Node1&#45;&gt;Node22</title>
<g id="a_edge25_Node000001_Node000022"><a xlink:title=" ">
<path fill="none" stroke="#63b8ff" d="M751.09,-186.99C698.47,-178.83 617.2,-165.84 537.85,-151.3"/>
<polygon fill="#63b8ff" stroke="#63b8ff" points="538.15,-147.8 527.68,-149.43 536.88,-154.68 538.15,-147.8"/>
</a>
</g>
</g>
<!-- Node24 -->
<g id="Node000024" class="node">
<title>Node24</title>
<g id="a_Node000024"><a xlink:href="FilesMenuFactory_8h.html" target="_top" xlink:title=" ">
<polygon fill="white" stroke="#666666" points="1396.5,-151 1261.5,-151 1261.5,-121 1396.5,-121 1396.5,-151"/>
<text text-anchor="start" x="1269.5" y="-139" font-family="Helvetica,sans-Serif" font-size="10.00">src/features/menu_bar</text>
<text text-anchor="middle" x="1329" y="-128" font-family="Helvetica,sans-Serif" font-size="10.00">/files/FilesMenuFactory.h</text>
</a>
</g>
</g>
<!-- Node1&#45;&gt;Node24 -->
<g id="edge29_Node000001_Node000024" class="edge">
<title>Node1&#45;&gt;Node24</title>
<g id="a_edge29_Node000001_Node000024"><a xlink:title=" ">
<path fill="none" stroke="#63b8ff" d="M867.28,-191.01C951,-184.44 1107.4,-170.93 1251.12,-151.04"/>
<polygon fill="#63b8ff" stroke="#63b8ff" points="1252.02,-154.45 1261.44,-149.6 1251.06,-147.52 1252.02,-154.45"/>
</a>
</g>
</g>
<!-- Node28 -->
<g id="Node000028" class="node">
<title>Node28</title>
<g id="a_Node000028"><a xlink:href="ToolsMenuFactory_8h.html" target="_top" xlink:title=" ">
<polygon fill="white" stroke="#666666" points="1555.5,-151 1414.5,-151 1414.5,-121 1555.5,-121 1555.5,-151"/>
<text text-anchor="start" x="1422.5" y="-139" font-family="Helvetica,sans-Serif" font-size="10.00">src/features/menu_bar</text>
<text text-anchor="middle" x="1485" y="-128" font-family="Helvetica,sans-Serif" font-size="10.00">/tools/ToolsMenuFactory.h</text>
</a>
</g>
</g>
<!-- Node1&#45;&gt;Node28 -->
<g id="edge33_Node000001_Node000028" class="edge">
<title>Node1&#45;&gt;Node28</title>
<g id="a_edge33_Node000001_Node000028"><a xlink:title=" ">
<path fill="none" stroke="#63b8ff" d="M867.03,-193C973.26,-188.15 1201.46,-175.79 1404.44,-150.98"/>
<polygon fill="#63b8ff" stroke="#63b8ff" points="1404.89,-154.45 1414.39,-149.75 1404.03,-147.5 1404.89,-154.45"/>
</a>
</g>
</g>
<!-- Node30 -->
<g id="Node000030" class="node">
<title>Node30</title>
<g id="a_Node000030"><a xlink:href="OverlayFactory_8h.html" target="_top" xlink:title=" ">
<polygon fill="white" stroke="#666666" points="813,-151 699,-151 699,-121 813,-121 813,-151"/>
<text text-anchor="start" x="707" y="-139" font-family="Helvetica,sans-Serif" font-size="10.00">src/features/overlay</text>
<text text-anchor="middle" x="756" y="-128" font-family="Helvetica,sans-Serif" font-size="10.00">/OverlayFactory.h</text>
</a>
</g>
</g>
<!-- Node1&#45;&gt;Node30 -->
<g id="edge36_Node000001_Node000030" class="edge">
<title>Node1&#45;&gt;Node30</title>
<g id="a_edge36_Node000001_Node000030"><a xlink:title=" ">
<path fill="none" stroke="#63b8ff" d="M799.47,-186.87C793.07,-179.52 783.58,-168.63 775.1,-158.91"/>
<polygon fill="#63b8ff" stroke="#63b8ff" points="777.51,-156.35 768.31,-151.11 772.24,-160.95 777.51,-156.35"/>
</a>
</g>
</g>
<!-- Node9&#45;&gt;Node2 -->
<g id="edge9_Node000009_Node000002" class="edge">
<title>Node9&#45;&gt;Node2</title>
<g id="a_edge9_Node000009_Node000002"><a xlink:title=" ">
<path fill="none" stroke="#63b8ff" d="M275.57,-60.37C260.92,-50.95 237.24,-35.73 219.9,-24.58"/>
<polygon fill="#63b8ff" stroke="#63b8ff" points="221.79,-21.63 211.48,-19.17 218,-27.52 221.79,-21.63"/>
</a>
</g>
</g>
<!-- Node9&#45;&gt;Node3 -->
<g id="edge10_Node000009_Node000003" class="edge">
<title>Node9&#45;&gt;Node3</title>
<g id="a_edge10_Node000009_Node000003"><a xlink:title=" ">
<path fill="none" stroke="#63b8ff" d="M302.43,-60.37C317.08,-50.95 340.76,-35.73 358.1,-24.58"/>
<polygon fill="#63b8ff" stroke="#63b8ff" points="360,-27.52 366.52,-19.17 356.21,-21.63 360,-27.52"/>
</a>
</g>
</g>
<!-- Node11 -->
<g id="Node000011" class="node">
<title>Node11</title>
<g id="a_Node000011"><a xlink:href="PidTab_8h.html" target="_top" xlink:title=" ">
<polygon fill="white" stroke="#666666" points="119.5,-79.5 62.5,-79.5 62.5,-60.5 119.5,-60.5 119.5,-79.5"/>
<text text-anchor="middle" x="91" y="-67.5" font-family="Helvetica,sans-Serif" font-size="10.00">PidTab.h</text>
</a>
</g>
</g>
<!-- Node10&#45;&gt;Node11 -->
<g id="edge12_Node000010_Node000011" class="edge">
<title>Node10&#45;&gt;Node11</title>
<g id="a_edge12_Node000010_Node000011"><a xlink:title=" ">
<path fill="none" stroke="#63b8ff" d="M85.81,-126.37C86.68,-117.07 88.1,-101.98 89.23,-89.9"/>
<polygon fill="#63b8ff" stroke="#63b8ff" points="92.72,-90.19 90.17,-79.91 85.75,-89.53 92.72,-90.19"/>
</a>
</g>
</g>
<!-- Node11&#45;&gt;Node2 -->
<g id="edge13_Node000011_Node000002" class="edge">
<title>Node11&#45;&gt;Node2</title>
<g id="a_edge13_Node000011_Node000002"><a xlink:title=" ">
<path fill="none" stroke="#63b8ff" d="M106.79,-60.37C124.33,-50.78 152.88,-35.17 173.37,-23.97"/>
<polygon fill="#63b8ff" stroke="#63b8ff" points="175.05,-27.04 182.15,-19.17 171.69,-20.89 175.05,-27.04"/>
</a>
</g>
</g>
<!-- Node12 -->
<g id="Node000012" class="node">
<title>Node12</title>
<g id="a_Node000012"><a xlink:title=" ">
<polygon fill="#e0e0e0" stroke="#999999" points="50,-19 0,-19 0,0 50,0 50,-19"/>
<text text-anchor="middle" x="25" y="-7" font-family="Helvetica,sans-Serif" font-size="10.00">QLabel</text>
</a>
</g>
</g>
<!-- Node11&#45;&gt;Node12 -->
<g id="edge14_Node000011_Node000012" class="edge">
<title>Node11&#45;&gt;Node12</title>
<g id="a_edge14_Node000011_Node000012"><a xlink:title=" ">
<path fill="none" stroke="#63b8ff" d="M81.26,-60.37C71.03,-51.3 54.71,-36.84 42.28,-25.82"/>
<polygon fill="#63b8ff" stroke="#63b8ff" points="44.58,-23.18 34.78,-19.17 39.94,-28.42 44.58,-23.18"/>
</a>
</g>
</g>
<!-- Node13 -->
<g id="Node000013" class="node">
<title>Node13</title>
<g id="a_Node000013"><a xlink:title=" ">
<polygon fill="#e0e0e0" stroke="#999999" points="125.5,-19 68.5,-19 68.5,0 125.5,0 125.5,-19"/>
<text text-anchor="middle" x="97" y="-7" font-family="Helvetica,sans-Serif" font-size="10.00">QLayout</text>
</a>
</g>
</g>
<!-- Node11&#45;&gt;Node13 -->
<g id="edge15_Node000011_Node000013" class="edge">
<title>Node11&#45;&gt;Node13</title>
<g id="a_edge15_Node000011_Node000013"><a xlink:title=" ">
<path fill="none" stroke="#63b8ff" d="M91.89,-60.37C92.72,-52.25 93.99,-39.81 95.06,-29.39"/>
<polygon fill="#63b8ff" stroke="#63b8ff" points="98.57,-29.47 96.11,-19.17 91.61,-28.76 98.57,-29.47"/>
</a>
</g>
</g>
<!-- Node15 -->
<g id="Node000015" class="node">
<title>Node15</title>
<g id="a_Node000015"><a xlink:href="AppViewModels_8h.html" target="_top" xlink:title=" ">
<polygon fill="white" stroke="#666666" points="536,-85 408,-85 408,-55 536,-55 536,-85"/>
<text text-anchor="start" x="416" y="-73" font-family="Helvetica,sans-Serif" font-size="10.00">src/mvvm/viewmodels</text>
<text text-anchor="middle" x="472" y="-62" font-family="Helvetica,sans-Serif" font-size="10.00">/AppViewModels.h</text>
</a>
</g>
</g>
<!-- Node14&#45;&gt;Node15 -->
<g id="edge17_Node000014_Node000015" class="edge">
<title>Node14&#45;&gt;Node15</title>
<g id="a_edge17_Node000014_Node000015"><a xlink:title=" ">
<path fill="none" stroke="#63b8ff" d="M582.06,-120.95C561.49,-111.62 534.27,-99.27 512.05,-89.18"/>
<polygon fill="#63b8ff" stroke="#63b8ff" points="513.42,-85.96 502.87,-85.01 510.53,-92.33 513.42,-85.96"/>
</a>
</g>
</g>
<!-- Node17 -->
<g id="Node000017" class="node">
<title>Node17</title>
<g id="a_Node000017"><a xlink:href="TestTabView_8h.html" target="_top" xlink:title=" ">
<polygon fill="white" stroke="#666666" points="841.5,-79.5 756.5,-79.5 756.5,-60.5 841.5,-60.5 841.5,-79.5"/>
<text text-anchor="middle" x="799" y="-67.5" font-family="Helvetica,sans-Serif" font-size="10.00">TestTabView.h</text>
</a>
</g>
</g>
<!-- Node14&#45;&gt;Node17 -->
<g id="edge20_Node000014_Node000017" class="edge">
<title>Node14&#45;&gt;Node17</title>
<g id="a_edge20_Node000014_Node000017"><a xlink:title=" ">
<path fill="none" stroke="#63b8ff" d="M653.82,-120.95C687.01,-109.53 733.32,-93.6 764.64,-82.82"/>
<polygon fill="#63b8ff" stroke="#63b8ff" points="765.93,-86.08 774.25,-79.52 763.65,-79.46 765.93,-86.08"/>
</a>
</g>
</g>
<!-- Node15&#45;&gt;Node3 -->
<g id="edge18_Node000015_Node000003" class="edge">
<title>Node15&#45;&gt;Node3</title>
<g id="a_edge18_Node000015_Node000003"><a xlink:title=" ">
<path fill="none" stroke="#63b8ff" d="M449.73,-54.84C435.33,-45.68 416.67,-33.82 402.27,-24.66"/>
<polygon fill="#63b8ff" stroke="#63b8ff" points="403.83,-21.51 393.52,-19.09 400.08,-27.41 403.83,-21.51"/>
</a>
</g>
</g>
<!-- Node16 -->
<g id="Node000016" class="node">
<title>Node16</title>
<g id="a_Node000016"><a xlink:title=" ">
<polygon fill="#e0e0e0" stroke="#999999" points="504.5,-19 439.5,-19 439.5,0 504.5,0 504.5,-19"/>
<text text-anchor="middle" x="472" y="-7" font-family="Helvetica,sans-Serif" font-size="10.00">typeindex</text>
</a>
</g>
</g>
<!-- Node15&#45;&gt;Node16 -->
<g id="edge19_Node000015_Node000016" class="edge">
<title>Node15&#45;&gt;Node16</title>
<g id="a_edge19_Node000015_Node000016"><a xlink:title=" ">
<path fill="none" stroke="#63b8ff" d="M472,-54.84C472,-47.21 472,-37.7 472,-29.45"/>
<polygon fill="#63b8ff" stroke="#63b8ff" points="475.5,-29.27 472,-19.27 468.5,-29.27 475.5,-29.27"/>
</a>
</g>
</g>
<!-- Node18 -->
<g id="Node000018" class="node">
<title>Node18</title>
<g id="a_Node000018"><a xlink:title=" ">
<polygon fill="#e0e0e0" stroke="#999999" points="687.5,-19 628.5,-19 628.5,0 687.5,0 687.5,-19"/>
<text text-anchor="middle" x="658" y="-7" font-family="Helvetica,sans-Serif" font-size="10.00">QWidget</text>
</a>
</g>
</g>
<!-- Node17&#45;&gt;Node18 -->
<g id="edge21_Node000017_Node000018" class="edge">
<title>Node17&#45;&gt;Node18</title>
<g id="a_edge21_Node000017_Node000018"><a xlink:title=" ">
<path fill="none" stroke="#63b8ff" d="M778.5,-60.49C754.69,-50.62 715.21,-34.23 687.96,-22.93"/>
<polygon fill="#63b8ff" stroke="#63b8ff" points="689.11,-19.62 678.53,-19.02 686.42,-26.08 689.11,-19.62"/>
</a>
</g>
</g>
<!-- Node19 -->
<g id="Node000019" class="node">
<title>Node19</title>
<g id="a_Node000019"><a xlink:title=" ">
<polygon fill="#e0e0e0" stroke="#999999" points="885.5,-19 810.5,-19 810.5,0 885.5,0 885.5,-19"/>
<text text-anchor="middle" x="848" y="-7" font-family="Helvetica,sans-Serif" font-size="10.00">QTabWidget</text>
</a>
</g>
</g>
<!-- Node17&#45;&gt;Node19 -->
<g id="edge22_Node000017_Node000019" class="edge">
<title>Node17&#45;&gt;Node19</title>
<g id="a_edge22_Node000017_Node000019"><a xlink:title=" ">
<path fill="none" stroke="#63b8ff" d="M806.23,-60.37C813.54,-51.64 825.02,-37.93 834.1,-27.09"/>
<polygon fill="#63b8ff" stroke="#63b8ff" points="837,-29.08 840.74,-19.17 831.64,-24.59 837,-29.08"/>
</a>
</g>
</g>
<!-- Node20 -->
<g id="Node000020" class="node">
<title>Node20</title>
<g id="a_Node000020"><a xlink:title=" ">
<polygon fill="#e0e0e0" stroke="#999999" points="980.5,-19 903.5,-19 903.5,0 980.5,0 980.5,-19"/>
<text text-anchor="middle" x="942" y="-7" font-family="Helvetica,sans-Serif" font-size="10.00">QComboBox</text>
</a>
</g>
</g>
<!-- Node17&#45;&gt;Node20 -->
<g id="edge23_Node000017_Node000020" class="edge">
<title>Node17&#45;&gt;Node20</title>
<g id="a_edge23_Node000017_Node000020"><a xlink:title=" ">
<path fill="none" stroke="#63b8ff" d="M819.79,-60.49C843.94,-50.62 883.98,-34.23 911.62,-22.93"/>
<polygon fill="#63b8ff" stroke="#63b8ff" points="913.25,-26.04 921.18,-19.02 910.6,-19.56 913.25,-26.04"/>
</a>
</g>
</g>
<!-- Node21 -->
<g id="Node000021" class="node">
<title>Node21</title>
<g id="a_Node000021"><a xlink:title=" ">
<polygon fill="#e0e0e0" stroke="#999999" points="792.5,-19 705.5,-19 705.5,0 792.5,0 792.5,-19"/>
<text text-anchor="middle" x="749" y="-7" font-family="Helvetica,sans-Serif" font-size="10.00">QPlainTextEdit</text>
</a>
</g>
</g>
<!-- Node17&#45;&gt;Node21 -->
<g id="edge24_Node000017_Node000021" class="edge">
<title>Node17&#45;&gt;Node21</title>
<g id="a_edge24_Node000017_Node000021"><a xlink:title=" ">
<path fill="none" stroke="#63b8ff" d="M791.62,-60.37C784.09,-51.55 772.21,-37.66 762.91,-26.77"/>
<polygon fill="#63b8ff" stroke="#63b8ff" points="765.57,-24.5 756.41,-19.17 760.24,-29.04 765.57,-24.5"/>
</a>
</g>
</g>
<!-- Node22&#45;&gt;Node15 -->
<g id="edge26_Node000022_Node000015" class="edge">
<title>Node22&#45;&gt;Node15</title>
<g id="a_edge26_Node000022_Node000015"><a xlink:title=" ">
<path fill="none" stroke="#63b8ff" d="M468.89,-120.8C469.35,-113.34 469.94,-103.99 470.47,-95.41"/>
<polygon fill="#63b8ff" stroke="#63b8ff" points="473.98,-95.36 471.11,-85.16 467,-94.93 473.98,-95.36"/>
</a>
</g>
</g>
<!-- Node23 -->
<g id="Node000023" class="node">
<title>Node23</title>
<g id="a_Node000023"><a xlink:href="GraphicTabView_8h.html" target="_top" xlink:title=" ">
<polygon fill="white" stroke="#666666" points="657.5,-79.5 554.5,-79.5 554.5,-60.5 657.5,-60.5 657.5,-79.5"/>
<text text-anchor="middle" x="606" y="-67.5" font-family="Helvetica,sans-Serif" font-size="10.00">GraphicTabView.h</text>
</a>
</g>
</g>
<!-- Node22&#45;&gt;Node23 -->
<g id="edge27_Node000022_Node000023" class="edge">
<title>Node22&#45;&gt;Node23</title>
<g id="a_edge27_Node000022_Node000023"><a xlink:title=" ">
<path fill="none" stroke="#63b8ff" d="M498.28,-120.95C522.17,-109.88 555.2,-94.56 578.36,-83.82"/>
<polygon fill="#63b8ff" stroke="#63b8ff" points="580.04,-86.9 587.63,-79.52 577.09,-80.55 580.04,-86.9"/>
</a>
</g>
</g>
<!-- Node23&#45;&gt;Node18 -->
<g id="edge28_Node000023_Node000018" class="edge">
<title>Node23&#45;&gt;Node18</title>
<g id="a_edge28_Node000023_Node000018"><a xlink:title=" ">
<path fill="none" stroke="#63b8ff" d="M613.67,-60.37C621.51,-51.55 633.86,-37.66 643.54,-26.77"/>
<polygon fill="#63b8ff" stroke="#63b8ff" points="646.27,-28.97 650.3,-19.17 641.04,-24.32 646.27,-28.97"/>
</a>
</g>
</g>
<!-- Node25 -->
<g id="Node000025" class="node">
<title>Node25</title>
<g id="a_Node000025"><a xlink:href="FilesMenu_8h.html" target="_top" xlink:title=" ">
<polygon fill="white" stroke="#666666" points="1381.5,-79.5 1306.5,-79.5 1306.5,-60.5 1381.5,-60.5 1381.5,-79.5"/>
<text text-anchor="middle" x="1344" y="-67.5" font-family="Helvetica,sans-Serif" font-size="10.00">FilesMenu.h</text>
</a>
</g>
</g>
<!-- Node24&#45;&gt;Node25 -->
<g id="edge30_Node000024_Node000025" class="edge">
<title>Node24&#45;&gt;Node25</title>
<g id="a_edge30_Node000024_Node000025"><a xlink:title=" ">
<path fill="none" stroke="#63b8ff" d="M1332.33,-120.8C1334.46,-111.7 1337.25,-99.79 1339.57,-89.9"/>
<polygon fill="#63b8ff" stroke="#63b8ff" points="1343.05,-90.38 1341.93,-79.84 1336.24,-88.78 1343.05,-90.38"/>
</a>
</g>
</g>
<!-- Node26 -->
<g id="Node000026" class="node">
<title>Node26</title>
<g id="a_Node000026"><a xlink:title=" ">
<polygon fill="#e0e0e0" stroke="#999999" points="1467.5,-19 1416.5,-19 1416.5,0 1467.5,0 1467.5,-19"/>
<text text-anchor="middle" x="1442" y="-7" font-family="Helvetica,sans-Serif" font-size="10.00">QMenu</text>
</a>
</g>
</g>
<!-- Node25&#45;&gt;Node26 -->
<g id="edge31_Node000025_Node000026" class="edge">
<title>Node25&#45;&gt;Node26</title>
<g id="a_edge31_Node000025_Node000026"><a xlink:title=" ">
<path fill="none" stroke="#63b8ff" d="M1358.46,-60.37C1374.31,-50.91 1399.97,-35.59 1418.68,-24.42"/>
<polygon fill="#63b8ff" stroke="#63b8ff" points="1420.69,-27.3 1427.48,-19.17 1417.1,-21.29 1420.69,-27.3"/>
</a>
</g>
</g>
<!-- Node27 -->
<g id="Node000027" class="node">
<title>Node27</title>
<g id="a_Node000027"><a xlink:title=" ">
<polygon fill="#e0e0e0" stroke="#999999" points="1371.5,-19 1316.5,-19 1316.5,0 1371.5,0 1371.5,-19"/>
<text text-anchor="middle" x="1344" y="-7" font-family="Helvetica,sans-Serif" font-size="10.00">QAction</text>
</a>
</g>
</g>
<!-- Node25&#45;&gt;Node27 -->
<g id="edge32_Node000025_Node000027" class="edge">
<title>Node25&#45;&gt;Node27</title>
<g id="a_edge32_Node000025_Node000027"><a xlink:title=" ">
<path fill="none" stroke="#63b8ff" d="M1344,-60.37C1344,-52.25 1344,-39.81 1344,-29.39"/>
<polygon fill="#63b8ff" stroke="#63b8ff" points="1347.5,-29.17 1344,-19.17 1340.5,-29.17 1347.5,-29.17"/>
</a>
</g>
</g>
<!-- Node29 -->
<g id="Node000029" class="node">
<title>Node29</title>
<g id="a_Node000029"><a xlink:href="ToolsMenu_8h.html" target="_top" xlink:title=" ">
<polygon fill="white" stroke="#666666" points="1507.5,-79.5 1430.5,-79.5 1430.5,-60.5 1507.5,-60.5 1507.5,-79.5"/>
<text text-anchor="middle" x="1469" y="-67.5" font-family="Helvetica,sans-Serif" font-size="10.00">ToolsMenu.h</text>
</a>
</g>
</g>
<!-- Node28&#45;&gt;Node29 -->
<g id="edge34_Node000028_Node000029" class="edge">
<title>Node28&#45;&gt;Node29</title>
<g id="a_edge34_Node000028_Node000029"><a xlink:title=" ">
<path fill="none" stroke="#63b8ff" d="M1481.45,-120.8C1479.15,-111.6 1476.13,-99.53 1473.64,-89.58"/>
<polygon fill="#63b8ff" stroke="#63b8ff" points="1477.03,-88.7 1471.21,-79.84 1470.24,-90.39 1477.03,-88.7"/>
</a>
</g>
</g>
<!-- Node29&#45;&gt;Node26 -->
<g id="edge35_Node000029_Node000026" class="edge">
<title>Node29&#45;&gt;Node26</title>
<g id="a_edge35_Node000029_Node000026"><a xlink:title=" ">
<path fill="none" stroke="#63b8ff" d="M1465.02,-60.37C1461.15,-51.99 1455.16,-39.01 1450.26,-28.39"/>
<polygon fill="#63b8ff" stroke="#63b8ff" points="1453.37,-26.78 1446,-19.17 1447.01,-29.71 1453.37,-26.78"/>
</a>
</g>
</g>
<!-- Node31 -->
<g id="Node000031" class="node">
<title>Node31</title>
<g id="a_Node000031"><a xlink:href="Overlay_8h.html" target="_top" xlink:title=" ">
<polygon fill="white" stroke="#666666" points="738,-79.5 676,-79.5 676,-60.5 738,-60.5 738,-79.5"/>
<text text-anchor="middle" x="707" y="-67.5" font-family="Helvetica,sans-Serif" font-size="10.00">Overlay.h</text>
</a>
</g>
</g>
<!-- Node30&#45;&gt;Node31 -->
<g id="edge37_Node000030_Node000031" class="edge">
<title>Node30&#45;&gt;Node31</title>
<g id="a_edge37_Node000030_Node000031"><a xlink:title=" ">
<path fill="none" stroke="#63b8ff" d="M745.13,-120.8C737.71,-111.11 727.86,-98.24 720.02,-88.01"/>
<polygon fill="#63b8ff" stroke="#63b8ff" points="722.63,-85.66 713.77,-79.84 717.07,-89.91 722.63,-85.66"/>
</a>
</g>
</g>
<!-- Node31&#45;&gt;Node18 -->
<g id="edge38_Node000031_Node000018" class="edge">
<title>Node31&#45;&gt;Node18</title>
<g id="a_edge38_Node000031_Node000018"><a xlink:title=" ">
<path fill="none" stroke="#63b8ff" d="M699.77,-60.37C692.46,-51.64 680.98,-37.93 671.9,-27.09"/>
<polygon fill="#63b8ff" stroke="#63b8ff" points="674.36,-24.59 665.26,-19.17 669,-29.08 674.36,-24.59"/>
</a>
</g>
</g>
</g>
</svg>
