<?xml version="1.0" encoding="UTF-8" standalone="no"?>
<!DOCTYPE svg PUBLIC "-//W3C//DTD SVG 1.1//EN"
 "http://www.w3.org/Graphics/SVG/1.1/DTD/svg11.dtd">
<!-- Generated by graphviz version 2.43.0 (0)
 -->
<!-- Title: main Pages: 1 -->
<svg width="882pt" height="82pt"
 viewBox="0.00 0.00 882.00 82.00" xmlns="http://www.w3.org/2000/svg" xmlns:xlink="http://www.w3.org/1999/xlink">
<g id="graph0" class="graph" transform="scale(1 1) rotate(0) translate(4 78)">
<title>main</title>
<!-- Node1 -->
<g id="Node000001" class="node">
<title>Node1</title>
<g id="a_Node000001"><a xlink:title=" ">
<polygon fill="#999999" stroke="#666666" points="41,-55 0,-55 0,-36 41,-36 41,-55"/>
<text text-anchor="middle" x="20.5" y="-43" font-family="Helvetica,sans-Serif" font-size="10.00">main</text>
</a>
</g>
</g>
<!-- Node2 -->
<g id="Node000002" class="node">
<title>Node2</title>
<g id="a_Node000002"><a xlink:href="classAppServices.html#a5e4c7f374537c081ee46a028b19d4456" target="_top" xlink:title=" ">
<polygon fill="white" stroke="#666666" points="207,-74 94,-74 94,-55 207,-55 207,-74"/>
<text text-anchor="middle" x="150.5" y="-62" font-family="Helvetica,sans-Serif" font-size="10.00">AppServices::create</text>
</a>
</g>
</g>
<!-- Node1&#45;&gt;Node2 -->
<g id="edge1_Node000001_Node000002" class="edge">
<title>Node1&#45;&gt;Node2</title>
<g id="a_edge1_Node000001_Node000002"><a xlink:title=" ">
<path fill="none" stroke="#63b8ff" d="M41.22,-48.43C52.78,-50.14 68.13,-52.42 83.62,-54.72"/>
<polygon fill="#63b8ff" stroke="#63b8ff" points="83.38,-58.22 93.78,-56.23 84.41,-51.3 83.38,-58.22"/>
</a>
</g>
</g>
<!-- Node3 -->
<g id="Node000003" class="node">
<title>Node3</title>
<g id="a_Node000003"><a xlink:href="classUdpChannel.html#a0ed1f8d1f6bab17f35b54db9f31ecc05" target="_top" xlink:title="Start the UDP channel and its subsystems.">
<polygon fill="white" stroke="#666666" points="224,-37 77,-37 77,-18 224,-18 224,-37"/>
<text text-anchor="middle" x="150.5" y="-25" font-family="Helvetica,sans-Serif" font-size="10.00">UdpChannel::startEndpoint</text>
</a>
</g>
</g>
<!-- Node1&#45;&gt;Node3 -->
<g id="edge2_Node000001_Node000003" class="edge">
<title>Node1&#45;&gt;Node3</title>
<g id="a_edge2_Node000001_Node000003"><a xlink:title=" ">
<path fill="none" stroke="#63b8ff" d="M41.22,-42.73C49.79,-41.52 60.44,-40.02 71.68,-38.44"/>
<polygon fill="#63b8ff" stroke="#63b8ff" points="72.27,-41.9 81.68,-37.04 71.29,-34.96 72.27,-41.9"/>
</a>
</g>
</g>
<!-- Node4 -->
<g id="Node000004" class="node">
<title>Node4</title>
<g id="a_Node000004"><a xlink:href="classUdpLogger.html#a55781f93bfc47a004e7b7b8afaa0192c" target="_top" xlink:title="Initialize the writer and start the writer thread.">
<polygon fill="white" stroke="#666666" points="388,-56 290,-56 290,-37 388,-37 388,-56"/>
<text text-anchor="middle" x="339" y="-44" font-family="Helvetica,sans-Serif" font-size="10.00">UdpLogger::start</text>
</a>
</g>
</g>
<!-- Node3&#45;&gt;Node4 -->
<g id="edge3_Node000003_Node000004" class="edge">
<title>Node3&#45;&gt;Node4</title>
<g id="a_edge3_Node000003_Node000004"><a xlink:title=" ">
<path fill="none" stroke="#63b8ff" d="M224.14,-34.9C242.61,-36.78 262.21,-38.78 279.85,-40.58"/>
<polygon fill="#63b8ff" stroke="#63b8ff" points="279.68,-44.08 289.99,-41.61 280.39,-37.11 279.68,-44.08"/>
</a>
</g>
</g>
<!-- Node9 -->
<g id="Node000009" class="node">
<title>Node9</title>
<g id="a_Node000009"><a xlink:href="classUdpChannel.html#a48718b685a3059703ffbb06980376f7e" target="_top" xlink:title="Instructs the UdpWorker to start listening.">
<polygon fill="white" stroke="#666666" points="418,-19 260,-19 260,0 418,0 418,-19"/>
<text text-anchor="middle" x="339" y="-7" font-family="Helvetica,sans-Serif" font-size="10.00">UdpChannel::startUdpWorker</text>
</a>
</g>
</g>
<!-- Node3&#45;&gt;Node9 -->
<g id="edge11_Node000003_Node000009" class="edge">
<title>Node3&#45;&gt;Node9</title>
<g id="a_edge11_Node000003_Node000009"><a xlink:title=" ">
<path fill="none" stroke="#63b8ff" d="M224.14,-20.49C232.52,-19.68 241.13,-18.85 249.69,-18.02"/>
<polygon fill="#63b8ff" stroke="#63b8ff" points="250.08,-21.5 259.7,-17.06 249.41,-14.53 250.08,-21.5"/>
</a>
</g>
</g>
<!-- Node5 -->
<g id="Node000005" class="node">
<title>Node5</title>
<g id="a_Node000005"><a xlink:href="classLogger.html#ad89b36eb9b5a28d1f61b3c74a6975031" target="_top" xlink:title=" ">
<polygon fill="white" stroke="#666666" points="703,-74 617,-74 617,-55 703,-55 703,-74"/>
<text text-anchor="middle" x="660" y="-62" font-family="Helvetica,sans-Serif" font-size="10.00">Logger::debug</text>
</a>
</g>
</g>
<!-- Node4&#45;&gt;Node5 -->
<g id="edge4_Node000004_Node000005" class="edge">
<title>Node4&#45;&gt;Node5</title>
<g id="a_edge4_Node000004_Node000005"><a xlink:title=" ">
<path fill="none" stroke="#63b8ff" d="M386.37,-56.01C406.98,-59.78 431.6,-63.65 454,-65.5 510.25,-70.16 524.56,-65.86 581,-65.5 589.37,-65.45 598.25,-65.36 606.9,-65.26"/>
<polygon fill="#63b8ff" stroke="#63b8ff" points="606.94,-68.76 616.9,-65.14 606.86,-61.76 606.94,-68.76"/>
</a>
</g>
</g>
<!-- Node7 -->
<g id="Node000007" class="node">
<title>Node7</title>
<g id="a_Node000007"><a xlink:href="classLogger.html#a6c8bf2fc8c89d76b7f4fe25d97ad4bf3" target="_top" xlink:title=" ">
<polygon fill="white" stroke="#666666" points="699.5,-37 620.5,-37 620.5,-18 699.5,-18 699.5,-37"/>
<text text-anchor="middle" x="660" y="-25" font-family="Helvetica,sans-Serif" font-size="10.00">Logger::error</text>
</a>
</g>
</g>
<!-- Node4&#45;&gt;Node7 -->
<g id="edge6_Node000004_Node000007" class="edge">
<title>Node4&#45;&gt;Node7</title>
<g id="a_edge6_Node000004_Node000007"><a xlink:title=" ">
<path fill="none" stroke="#63b8ff" d="M386.37,-36.99C406.98,-33.22 431.6,-29.35 454,-27.5 507.3,-23.09 568.66,-23.86 610.25,-25.24"/>
<polygon fill="#63b8ff" stroke="#63b8ff" points="610.26,-28.75 620.38,-25.61 610.51,-21.75 610.26,-28.75"/>
</a>
</g>
</g>
<!-- Node8 -->
<g id="Node000008" class="node">
<title>Node8</title>
<g id="a_Node000008"><a xlink:href="classUdpLogger.html#a4f7e8bb32128f9186dc452a57134475d" target="_top" xlink:title="Writer loop executed on m_writerThread.">
<polygon fill="white" stroke="#666666" points="581,-56 454,-56 454,-37 581,-37 581,-56"/>
<text text-anchor="middle" x="517.5" y="-44" font-family="Helvetica,sans-Serif" font-size="10.00">UdpLogger::writerLoop</text>
</a>
</g>
</g>
<!-- Node4&#45;&gt;Node8 -->
<g id="edge8_Node000004_Node000008" class="edge">
<title>Node4&#45;&gt;Node8</title>
<g id="a_edge8_Node000004_Node000008"><a xlink:title=" ">
<path fill="none" stroke="#63b8ff" d="M388.23,-46.5C405.28,-46.5 424.86,-46.5 443.51,-46.5"/>
<polygon fill="#63b8ff" stroke="#63b8ff" points="443.74,-50 453.74,-46.5 443.74,-43 443.74,-50"/>
</a>
</g>
</g>
<!-- Node6 -->
<g id="Node000006" class="node">
<title>Node6</title>
<g id="a_Node000006"><a xlink:href="classLogger.html#a02453fd0695fe06c495de714399e8bf7" target="_top" xlink:title=" ">
<polygon fill="white" stroke="#666666" points="874,-55 739,-55 739,-36 874,-36 874,-55"/>
<text text-anchor="middle" x="806.5" y="-43" font-family="Helvetica,sans-Serif" font-size="10.00">Logger::messageLogged</text>
</a>
</g>
</g>
<!-- Node5&#45;&gt;Node6 -->
<g id="edge5_Node000005_Node000006" class="edge">
<title>Node5&#45;&gt;Node6</title>
<g id="a_edge5_Node000005_Node000006"><a xlink:title=" ">
<path fill="none" stroke="#63b8ff" d="M703.18,-58.95C711.29,-57.89 720.02,-56.74 728.83,-55.58"/>
<polygon fill="#63b8ff" stroke="#63b8ff" points="729.33,-59.05 738.79,-54.27 728.42,-52.1 729.33,-59.05"/>
</a>
</g>
</g>
<!-- Node7&#45;&gt;Node6 -->
<g id="edge7_Node000007_Node000006" class="edge">
<title>Node7&#45;&gt;Node6</title>
<g id="a_edge7_Node000007_Node000006"><a xlink:title=" ">
<path fill="none" stroke="#63b8ff" d="M699.72,-32.32C708.75,-33.45 718.68,-34.68 728.72,-35.94"/>
<polygon fill="#63b8ff" stroke="#63b8ff" points="728.42,-39.43 738.78,-37.19 729.28,-32.48 728.42,-39.43"/>
</a>
</g>
</g>
<!-- Node8&#45;&gt;Node5 -->
<g id="edge9_Node000008_Node000005" class="edge">
<title>Node8&#45;&gt;Node5</title>
<g id="a_edge9_Node000008_Node000005"><a xlink:title=" ">
<path fill="none" stroke="#63b8ff" d="M581.35,-54.55C589.78,-55.63 598.35,-56.73 606.57,-57.78"/>
<polygon fill="#63b8ff" stroke="#63b8ff" points="606.39,-61.29 616.76,-59.09 607.28,-54.35 606.39,-61.29"/>
</a>
</g>
</g>
<!-- Node8&#45;&gt;Node7 -->
<g id="edge10_Node000008_Node000007" class="edge">
<title>Node8&#45;&gt;Node7</title>
<g id="a_edge10_Node000008_Node000007"><a xlink:title=" ">
<path fill="none" stroke="#63b8ff" d="M581.35,-38C591.12,-36.68 601.08,-35.33 610.46,-34.06"/>
<polygon fill="#63b8ff" stroke="#63b8ff" points="610.94,-37.53 620.38,-32.72 610.01,-30.59 610.94,-37.53"/>
</a>
</g>
</g>
</g>
</svg>
