<?xml version="1.0" encoding="UTF-8" standalone="no"?>
<!DOCTYPE svg PUBLIC "-//W3C//DTD SVG 1.1//EN"
 "http://www.w3.org/Graphics/SVG/1.1/DTD/svg11.dtd">
<!-- Generated by graphviz version 2.43.0 (0)
 -->
<!-- Title: app/main.cpp Pages: 1 -->
<!--zoomable 390 -->

<svg id="main" version="1.1" xmlns="http://www.w3.org/2000/svg" xmlns:xlink="http://www.w3.org/1999/xlink" xml:space="preserve" onload="init(evt)">
<style type="text/css"><![CDATA[
.node, .edge {opacity: 0.7;}
.node.selected, .edge.selected {opacity: 1;}
.edge:hover path { stroke: red; }
.edge:hover polygon { stroke: red; fill: red; }
]]></style>

<defs>
  <circle id="rim" cx="0" cy="0" r="7"/>
  <circle id="rim2" cx="0" cy="0" r="3.5"/>
  <g id="zoomPlus">
    <use xlink:href="#rim" fill="#404040"><set attributeName="fill" to="#808080" begin="zoomplus.mouseover" end="zoomplus.mouseout"/></use>
    <path d="M-4,0h8M0,-4v8" fill="none" stroke="white" stroke-width="1.5" pointer-events="none"/>
  </g>
  <g id="zoomMin">
    <use xlink:href="#rim" fill="#404040"><set attributeName="fill" to="#808080" begin="zoomminus.mouseover" end="zoomminus.mouseout"/></use>
    <path d="M-4,0h8" fill="none" stroke="white" stroke-width="1.5" pointer-events="none"/>
  </g>
  <g id="arrowUp" transform="translate(30 24)">
    <use xlink:href="#rim"/>
    <path pointer-events="none" fill="none" stroke="white" stroke-width="1.5" d="M0,-3.0v7 M-2.5,-0.5L0,-3.0L2.5,-0.5"/>
  </g>
  <g id="arrowRight" transform="rotate(90) translate(36 -43)">
    <use xlink:href="#rim"/>
    <path pointer-events="none" fill="none" stroke="white" stroke-width="1.5" d="M0,-3.0v7 M-2.5,-0.5L0,-3.0L2.5,-0.5"/>
  </g>
  <g id="arrowDown" transform="rotate(180) translate(-30 -48)">
    <use xlink:href="#rim"/>
    <path pointer-events="none" fill="none" stroke="white" stroke-width="1.5" d="M0,-3.0v7 M-2.5,-0.5L0,-3.0L2.5,-0.5"/>
  </g>
  <g id="arrowLeft" transform="rotate(270) translate(-36 17)">
    <use xlink:href="#rim"/>
    <path pointer-events="none" fill="none" stroke="white" stroke-width="1.5" d="M0,-3.0v7 M-2.5,-0.5L0,-3.0L2.5,-0.5"/>
  </g>
  <g id="resetDef">
    <use xlink:href="#rim2" fill="#404040"><set attributeName="fill" to="#808080" begin="reset.mouseover" end="reset.mouseout"/></use>
  </g>
</defs>
<script type="application/ecmascript">
var viewWidth = 1726;
var viewHeight = 390;
var sectionId = 'dynsection-0';
</script>
<script type="application/ecmascript" xlink:href="svg.min.js"/>
<svg id="graph" class="graph">
<g id="viewport">
<title>app/main.cpp</title>
<!-- Node1 -->
<g id="Node000001" class="node">
<title>Node1</title>
<g id="a_Node000001"><a xlink:title=" ">
<polygon fill="#999999" stroke="#666666" points="653,-382 570,-382 570,-363 653,-363 653,-382"/>
<text text-anchor="middle" x="611.5" y="-370" font-family="Helvetica,sans-Serif" font-size="10.00">app/main.cpp</text>
</a>
</g>
</g>
<!-- Node2 -->
<g id="Node000002" class="node">
<title>Node2</title>
<g id="a_Node000002"><a xlink:title=" ">
<polygon fill="#e0e0e0" stroke="#999999" points="79,-321.5 0,-321.5 0,-302.5 79,-302.5 79,-321.5"/>
<text text-anchor="middle" x="39.5" y="-309.5" font-family="Helvetica,sans-Serif" font-size="10.00">QApplication</text>
</a>
</g>
</g>
<!-- Node1&#45;&gt;Node2 -->
<g id="edge1_Node000001_Node000002" class="edge">
<title>Node1&#45;&gt;Node2</title>
<g id="a_edge1_Node000001_Node000002"><a xlink:title=" ">
<path fill="none" stroke="#63b8ff" d="M569.78,-370.68C480.69,-368.34 265.52,-359.5 88.5,-327 84.29,-326.23 79.92,-325.25 75.61,-324.16"/>
<polygon fill="#63b8ff" stroke="#63b8ff" points="76.29,-320.72 65.73,-321.5 74.47,-327.48 76.29,-320.72"/>
</a>
</g>
</g>
<!-- Node3 -->
<g id="Node000003" class="node">
<title>Node3</title>
<g id="a_Node000003"><a xlink:title=" ">
<polygon fill="#e0e0e0" stroke="#999999" points="286,-261 199,-261 199,-242 286,-242 286,-261"/>
<text text-anchor="middle" x="242.5" y="-249" font-family="Helvetica,sans-Serif" font-size="10.00">QMainWindow</text>
</a>
</g>
</g>
<!-- Node1&#45;&gt;Node3 -->
<g id="edge2_Node000001_Node000003" class="edge">
<title>Node1&#45;&gt;Node3</title>
<g id="a_edge2_Node000001_Node000003"><a xlink:title=" ">
<path fill="none" stroke="#63b8ff" d="M569.79,-371.28C489.2,-370.02 315.99,-363.08 270.5,-327 253.45,-313.48 246.78,-288.39 244.17,-271.09"/>
<polygon fill="#63b8ff" stroke="#63b8ff" points="247.63,-270.57 242.98,-261.05 240.68,-271.39 247.63,-270.57"/>
</a>
</g>
</g>
<!-- Node4 -->
<g id="Node000004" class="node">
<title>Node4</title>
<g id="a_Node000004"><a xlink:title=" ">
<polygon fill="#e0e0e0" stroke="#999999" points="961.5,-145.5 905.5,-145.5 905.5,-126.5 961.5,-126.5 961.5,-145.5"/>
<text text-anchor="middle" x="933.5" y="-133.5" font-family="Helvetica,sans-Serif" font-size="10.00">QDebug</text>
</a>
</g>
</g>
<!-- Node1&#45;&gt;Node4 -->
<g id="edge3_Node000001_Node000004" class="edge">
<title>Node1&#45;&gt;Node4</title>
<g id="a_edge3_Node000001_Node000004"><a xlink:title=" ">
<path fill="none" stroke="#63b8ff" d="M653.19,-366.37C686.48,-360.77 733.23,-349.41 768.5,-327 841.62,-280.55 900.46,-192.07 923.27,-154.54"/>
<polygon fill="#63b8ff" stroke="#63b8ff" points="926.39,-156.14 928.51,-145.76 920.38,-152.55 926.39,-156.14"/>
</a>
</g>
</g>
<!-- Node5 -->
<g id="Node000005" class="node">
<title>Node5</title>
<g id="a_Node000005"><a xlink:href="MainWindow_8h.html" target="_top" xlink:title=" ">
<polygon fill="white" stroke="#666666" points="223.5,-321.5 97.5,-321.5 97.5,-302.5 223.5,-302.5 223.5,-321.5"/>
<text text-anchor="middle" x="160.5" y="-309.5" font-family="Helvetica,sans-Serif" font-size="10.00">src/app/MainWindow.h</text>
</a>
</g>
</g>
<!-- Node1&#45;&gt;Node5 -->
<g id="edge4_Node000001_Node000005" class="edge">
<title>Node1&#45;&gt;Node5</title>
<g id="a_edge4_Node000001_Node000005"><a xlink:title=" ">
<path fill="none" stroke="#63b8ff" d="M569.88,-367.39C500.71,-360.37 357.77,-345.07 237.5,-327 230.12,-325.89 222.36,-324.61 214.73,-323.29"/>
<polygon fill="#63b8ff" stroke="#63b8ff" points="215.26,-319.83 204.8,-321.54 214.04,-326.72 215.26,-319.83"/>
</a>
</g>
</g>
<!-- Node7 -->
<g id="Node000007" class="node">
<title>Node7</title>
<g id="a_Node000007"><a xlink:href="AppViewModels_8h.html" target="_top" xlink:title=" ">
<polygon fill="white" stroke="#666666" points="759.5,-327 631.5,-327 631.5,-297 759.5,-297 759.5,-327"/>
<text text-anchor="start" x="639.5" y="-315" font-family="Helvetica,sans-Serif" font-size="10.00">src/mvvm/viewmodels</text>
<text text-anchor="middle" x="695.5" y="-304" font-family="Helvetica,sans-Serif" font-size="10.00">/AppViewModels.h</text>
</a>
</g>
</g>
<!-- Node1&#45;&gt;Node7 -->
<g id="edge7_Node000001_Node000007" class="edge">
<title>Node1&#45;&gt;Node7</title>
<g id="a_edge7_Node000001_Node000007"><a xlink:title=" ">
<path fill="none" stroke="#63b8ff" d="M623.89,-362.87C635.19,-355 652.29,-343.09 666.95,-332.89"/>
<polygon fill="#63b8ff" stroke="#63b8ff" points="669.03,-335.7 675.23,-327.11 665.03,-329.96 669.03,-335.7"/>
</a>
</g>
</g>
<!-- Node9 -->
<g id="Node000009" class="node">
<title>Node9</title>
<g id="a_Node000009"><a xlink:href="AppServices_8h.html" target="_top" xlink:title=" ">
<polygon fill="white" stroke="#666666" points="425.5,-321.5 279.5,-321.5 279.5,-302.5 425.5,-302.5 425.5,-321.5"/>
<text text-anchor="middle" x="352.5" y="-309.5" font-family="Helvetica,sans-Serif" font-size="10.00">src/services/AppServices.h</text>
</a>
</g>
</g>
<!-- Node1&#45;&gt;Node9 -->
<g id="edge10_Node000001_Node000009" class="edge">
<title>Node1&#45;&gt;Node9</title>
<g id="a_edge10_Node000001_Node000009"><a xlink:title=" ">
<path fill="none" stroke="#63b8ff" d="M573.84,-362.99C527.9,-352.62 450.19,-335.07 400.14,-323.76"/>
<polygon fill="#63b8ff" stroke="#63b8ff" points="400.73,-320.31 390.21,-321.52 399.19,-327.13 400.73,-320.31"/>
</a>
</g>
</g>
<!-- Node10 -->
<g id="Node000010" class="node">
<title>Node10</title>
<g id="a_Node000010"><a xlink:href="AppModels_8h.html" target="_top" xlink:title=" ">
<polygon fill="white" stroke="#666666" points="613.5,-321.5 443.5,-321.5 443.5,-302.5 613.5,-302.5 613.5,-321.5"/>
<text text-anchor="middle" x="528.5" y="-309.5" font-family="Helvetica,sans-Serif" font-size="10.00">src/mvvm/models/AppModels.h</text>
</a>
</g>
</g>
<!-- Node1&#45;&gt;Node10 -->
<g id="edge13_Node000001_Node000010" class="edge">
<title>Node1&#45;&gt;Node10</title>
<g id="a_edge13_Node000001_Node000010"><a xlink:title=" ">
<path fill="none" stroke="#63b8ff" d="M599.25,-362.87C586.14,-353.62 565.08,-338.78 549.35,-327.69"/>
<polygon fill="#63b8ff" stroke="#63b8ff" points="550.99,-324.57 540.8,-321.67 546.95,-330.29 550.99,-324.57"/>
</a>
</g>
</g>
<!-- Node11 -->
<g id="Node000011" class="node">
<title>Node11</title>
<g id="a_Node000011"><a xlink:href="UdpChannel_8h.html" target="_top" xlink:title="UDP communication channel between the microcontroller and the HMI.">
<polygon fill="white" stroke="#666666" points="1045,-327 892,-327 892,-297 1045,-297 1045,-327"/>
<text text-anchor="start" x="900" y="-315" font-family="Helvetica,sans-Serif" font-size="10.00">src/features/communication</text>
<text text-anchor="middle" x="968.5" y="-304" font-family="Helvetica,sans-Serif" font-size="10.00">/udp/UdpChannel.h</text>
</a>
</g>
</g>
<!-- Node1&#45;&gt;Node11 -->
<g id="edge16_Node000001_Node000011" class="edge">
<title>Node1&#45;&gt;Node11</title>
<g id="a_edge16_Node000001_Node000011"><a xlink:title=" ">
<path fill="none" stroke="#63b8ff" d="M653.15,-364.67C708.93,-355.54 809.25,-339.1 881.79,-327.21"/>
<polygon fill="#63b8ff" stroke="#63b8ff" points="882.53,-330.63 891.83,-325.56 881.4,-323.73 882.53,-330.63"/>
</a>
</g>
</g>
<!-- Node28 -->
<g id="Node000028" class="node">
<title>Node28</title>
<g id="a_Node000028"><a xlink:href="Logger_8h.html" target="_top" xlink:title=" ">
<polygon fill="white" stroke="#666666" points="1472.5,-151 1362.5,-151 1362.5,-121 1472.5,-121 1472.5,-151"/>
<text text-anchor="start" x="1370.5" y="-139" font-family="Helvetica,sans-Serif" font-size="10.00">src/services/Logger</text>
<text text-anchor="middle" x="1417.5" y="-128" font-family="Helvetica,sans-Serif" font-size="10.00">/Logger.h</text>
</a>
</g>
</g>
<!-- Node1&#45;&gt;Node28 -->
<g id="edge47_Node000001_Node000028" class="edge">
<title>Node1&#45;&gt;Node28</title>
<g id="a_edge47_Node000001_Node000028"><a xlink:title=" ">
<path fill="none" stroke="#63b8ff" d="M653.05,-371.1C732.26,-369.51 909.87,-361.97 1054.5,-327 1132.48,-308.15 1149.16,-293.51 1222.5,-261 1272.84,-238.69 1287.26,-235.89 1333.5,-206 1355.7,-191.65 1378.76,-172.34 1395.08,-157.8"/>
<polygon fill="#63b8ff" stroke="#63b8ff" points="1397.44,-160.39 1402.53,-151.09 1392.76,-155.19 1397.44,-160.39"/>
</a>
</g>
</g>
<!-- Node31 -->
<g id="Node000031" class="node">
<title>Node31</title>
<g id="a_Node000031"><a xlink:href="FileSystem_8h.html" target="_top" xlink:title=" ">
<polygon fill="white" stroke="#666666" points="835,-85 704,-85 704,-55 835,-55 835,-85"/>
<text text-anchor="start" x="712" y="-73" font-family="Helvetica,sans-Serif" font-size="10.00">src/services/FileSystem</text>
<text text-anchor="middle" x="769.5" y="-62" font-family="Helvetica,sans-Serif" font-size="10.00">/FileSystem.h</text>
</a>
</g>
</g>
<!-- Node1&#45;&gt;Node31 -->
<g id="edge48_Node000001_Node000031" class="edge">
<title>Node1&#45;&gt;Node31</title>
<g id="a_edge48_Node000001_Node000031"><a xlink:title=" ">
<path fill="none" stroke="#63b8ff" d="M653.02,-367.08C715.25,-357.9 825.5,-330.61 825.5,-252.5 825.5,-252.5 825.5,-252.5 825.5,-195.5 825.5,-157.04 803,-117.32 786.52,-93.38"/>
<polygon fill="#63b8ff" stroke="#63b8ff" points="789.22,-91.13 780.56,-85.02 783.52,-95.19 789.22,-91.13"/>
</a>
</g>
</g>
<!-- Node5&#45;&gt;Node3 -->
<g id="edge5_Node000005_Node000003" class="edge">
<title>Node5&#45;&gt;Node3</title>
<g id="a_edge5_Node000005_Node000003"><a xlink:title=" ">
<path fill="none" stroke="#63b8ff" d="M172.6,-302.37C185.56,-293.12 206.36,-278.28 221.9,-267.19"/>
<polygon fill="#63b8ff" stroke="#63b8ff" points="224.24,-269.82 230.35,-261.17 220.18,-264.13 224.24,-269.82"/>
</a>
</g>
</g>
<!-- Node6 -->
<g id="Node000006" class="node">
<title>Node6</title>
<g id="a_Node000006"><a xlink:title=" ">
<polygon fill="#e0e0e0" stroke="#999999" points="703.5,-19 647.5,-19 647.5,0 703.5,0 703.5,-19"/>
<text text-anchor="middle" x="675.5" y="-7" font-family="Helvetica,sans-Serif" font-size="10.00">QObject</text>
</a>
</g>
</g>
<!-- Node5&#45;&gt;Node6 -->
<g id="edge6_Node000005_Node000006" class="edge">
<title>Node5&#45;&gt;Node6</title>
<g id="a_edge6_Node000005_Node000006"><a xlink:title=" ">
<path fill="none" stroke="#63b8ff" d="M161.13,-302.46C162.48,-283.56 165.5,-236.75 165.5,-197.5 165.5,-197.5 165.5,-197.5 165.5,-135 165.5,-37.9 518.79,-16.19 637.28,-11.64"/>
<polygon fill="#63b8ff" stroke="#63b8ff" points="637.49,-15.13 647.35,-11.27 637.23,-8.14 637.49,-15.13"/>
</a>
</g>
</g>
<!-- Node7&#45;&gt;Node6 -->
<g id="edge8_Node000007_Node000006" class="edge">
<title>Node7&#45;&gt;Node6</title>
<g id="a_edge8_Node000007_Node000006"><a xlink:title=" ">
<path fill="none" stroke="#63b8ff" d="M691.36,-296.81C685.5,-275.46 675.5,-233.72 675.5,-197.5 675.5,-197.5 675.5,-197.5 675.5,-135 675.5,-97.49 675.5,-53.63 675.5,-29.26"/>
<polygon fill="#63b8ff" stroke="#63b8ff" points="679,-29.25 675.5,-19.25 672,-29.25 679,-29.25"/>
</a>
</g>
</g>
<!-- Node8 -->
<g id="Node000008" class="node">
<title>Node8</title>
<g id="a_Node000008"><a xlink:title=" ">
<polygon fill="#e0e0e0" stroke="#999999" points="561,-261 496,-261 496,-242 561,-242 561,-261"/>
<text text-anchor="middle" x="528.5" y="-249" font-family="Helvetica,sans-Serif" font-size="10.00">typeindex</text>
</a>
</g>
</g>
<!-- Node7&#45;&gt;Node8 -->
<g id="edge9_Node000007_Node000008" class="edge">
<title>Node7&#45;&gt;Node8</title>
<g id="a_edge9_Node000007_Node000008"><a xlink:title=" ">
<path fill="none" stroke="#63b8ff" d="M655.5,-296.99C627.26,-287.1 589.82,-273.98 562.92,-264.56"/>
<polygon fill="#63b8ff" stroke="#63b8ff" points="563.76,-261.14 553.16,-261.14 561.44,-267.75 563.76,-261.14"/>
</a>
</g>
</g>
<!-- Node9&#45;&gt;Node6 -->
<g id="edge11_Node000009_Node000006" class="edge">
<title>Node9&#45;&gt;Node6</title>
<g id="a_edge11_Node000009_Node000006"><a xlink:title=" ">
<path fill="none" stroke="#63b8ff" d="M360.56,-302.37C376.5,-284.36 410.5,-240.87 410.5,-197.5 410.5,-197.5 410.5,-197.5 410.5,-135 410.5,-36.16 563.37,-15.64 636.9,-11.49"/>
<polygon fill="#63b8ff" stroke="#63b8ff" points="637.32,-14.97 647.14,-10.99 636.98,-7.98 637.32,-14.97"/>
</a>
</g>
</g>
<!-- Node9&#45;&gt;Node8 -->
<g id="edge12_Node000009_Node000008" class="edge">
<title>Node9&#45;&gt;Node8</title>
<g id="a_edge12_Node000009_Node000008"><a xlink:title=" ">
<path fill="none" stroke="#63b8ff" d="M378.09,-302.49C408.46,-292.4 459.26,-275.51 493.32,-264.19"/>
<polygon fill="#63b8ff" stroke="#63b8ff" points="494.49,-267.49 502.88,-261.02 492.28,-260.85 494.49,-267.49"/>
</a>
</g>
</g>
<!-- Node10&#45;&gt;Node6 -->
<g id="edge14_Node000010_Node000006" class="edge">
<title>Node10&#45;&gt;Node6</title>
<g id="a_edge14_Node000010_Node000006"><a xlink:title=" ">
<path fill="none" stroke="#63b8ff" d="M541.41,-302.39C565.19,-285.4 613.5,-245.01 613.5,-197.5 613.5,-197.5 613.5,-197.5 613.5,-135 613.5,-92.58 642.7,-49.75 661.02,-27.05"/>
<polygon fill="#63b8ff" stroke="#63b8ff" points="663.92,-29.04 667.65,-19.12 658.55,-24.55 663.92,-29.04"/>
</a>
</g>
</g>
<!-- Node10&#45;&gt;Node8 -->
<g id="edge15_Node000010_Node000008" class="edge">
<title>Node10&#45;&gt;Node8</title>
<g id="a_edge15_Node000010_Node000008"><a xlink:title=" ">
<path fill="none" stroke="#63b8ff" d="M528.5,-302.37C528.5,-294.25 528.5,-281.81 528.5,-271.39"/>
<polygon fill="#63b8ff" stroke="#63b8ff" points="532,-271.17 528.5,-261.17 525,-271.17 532,-271.17"/>
</a>
</g>
</g>
<!-- Node11&#45;&gt;Node6 -->
<g id="edge17_Node000011_Node000006" class="edge">
<title>Node11&#45;&gt;Node6</title>
<g id="a_edge17_Node000011_Node000006"><a xlink:title=" ">
<path fill="none" stroke="#63b8ff" d="M931.03,-296.82C914.05,-288.68 895.01,-276.87 882.5,-261 864.27,-237.86 863.5,-226.96 863.5,-197.5 863.5,-197.5 863.5,-197.5 863.5,-135 863.5,-98.46 870.03,-81.15 844.5,-55 810.41,-20.07 752.42,-11.47 714.04,-9.9"/>
<polygon fill="#63b8ff" stroke="#63b8ff" points="713.86,-6.39 703.77,-9.63 713.67,-13.39 713.86,-6.39"/>
</a>
</g>
</g>
<!-- Node12 -->
<g id="Node000012" class="node">
<title>Node12</title>
<g id="a_Node000012"><a xlink:title=" ">
<polygon fill="#e0e0e0" stroke="#999999" points="949.5,-261 891.5,-261 891.5,-242 949.5,-242 949.5,-261"/>
<text text-anchor="middle" x="920.5" y="-249" font-family="Helvetica,sans-Serif" font-size="10.00">QThread</text>
</a>
</g>
</g>
<!-- Node11&#45;&gt;Node12 -->
<g id="edge18_Node000011_Node000012" class="edge">
<title>Node11&#45;&gt;Node12</title>
<g id="a_edge18_Node000011_Node000012"><a xlink:title=" ">
<path fill="none" stroke="#63b8ff" d="M956.88,-296.84C950.06,-288.52 941.39,-277.96 934.23,-269.23"/>
<polygon fill="#63b8ff" stroke="#63b8ff" points="936.74,-266.78 927.69,-261.27 931.33,-271.22 936.74,-266.78"/>
</a>
</g>
</g>
<!-- Node13 -->
<g id="Node000013" class="node">
<title>Node13</title>
<g id="a_Node000013"><a xlink:title=" ">
<polygon fill="#e0e0e0" stroke="#999999" points="1043.5,-261 967.5,-261 967.5,-242 1043.5,-242 1043.5,-261"/>
<text text-anchor="middle" x="1005.5" y="-249" font-family="Helvetica,sans-Serif" font-size="10.00">QUdpSocket</text>
</a>
</g>
</g>
<!-- Node11&#45;&gt;Node13 -->
<g id="edge19_Node000011_Node000013" class="edge">
<title>Node11&#45;&gt;Node13</title>
<g id="a_edge19_Node000011_Node000013"><a xlink:title=" ">
<path fill="none" stroke="#63b8ff" d="M977.46,-296.84C982.61,-288.69 989.12,-278.4 994.57,-269.78"/>
<polygon fill="#63b8ff" stroke="#63b8ff" points="997.57,-271.59 999.96,-261.27 991.65,-267.85 997.57,-271.59"/>
</a>
</g>
</g>
<!-- Node14 -->
<g id="Node000014" class="node">
<title>Node14</title>
<g id="a_Node000014"><a xlink:href="Messages_8h.html" target="_top" xlink:title=" ">
<polygon fill="white" stroke="#666666" points="1543,-85 1440,-85 1440,-55 1543,-55 1543,-85"/>
<text text-anchor="start" x="1448" y="-73" font-family="Helvetica,sans-Serif" font-size="10.00">src/core/Protocols</text>
<text text-anchor="middle" x="1491.5" y="-62" font-family="Helvetica,sans-Serif" font-size="10.00">/Messages.h</text>
</a>
</g>
</g>
<!-- Node11&#45;&gt;Node14 -->
<g id="edge20_Node000011_Node000014" class="edge">
<title>Node11&#45;&gt;Node14</title>
<g id="a_edge20_Node000011_Node000014"><a xlink:title=" ">
<path fill="none" stroke="#63b8ff" d="M1045.09,-300.17C1096.04,-291.94 1164.07,-278.95 1222.5,-261 1342.05,-224.28 1406.14,-250.8 1481.5,-151 1493.33,-135.33 1495.2,-112.81 1494.47,-95.66"/>
<polygon fill="#63b8ff" stroke="#63b8ff" points="1497.93,-95 1493.7,-85.28 1490.95,-95.52 1497.93,-95"/>
</a>
</g>
</g>
<!-- Node22 -->
<g id="Node000022" class="node">
<title>Node22</title>
<g id="a_Node000022"><a xlink:href="UdpLogger_8h.html" target="_top" xlink:title="High&#45;frequency binary logger for UDP telemetry frames.">
<polygon fill="white" stroke="#666666" points="1213,-261 1062,-261 1062,-242 1213,-242 1213,-261"/>
<text text-anchor="middle" x="1137.5" y="-249" font-family="Helvetica,sans-Serif" font-size="10.00">frames_logger/UdpLogger.h</text>
</a>
</g>
</g>
<!-- Node11&#45;&gt;Node22 -->
<g id="edge29_Node000011_Node000022" class="edge">
<title>Node11&#45;&gt;Node22</title>
<g id="a_edge29_Node000011_Node000022"><a xlink:title=" ">
<path fill="none" stroke="#63b8ff" d="M1008.98,-296.99C1037.68,-287.05 1075.78,-273.86 1103.03,-264.43"/>
<polygon fill="#63b8ff" stroke="#63b8ff" points="1104.24,-267.72 1112.54,-261.14 1101.95,-261.1 1104.24,-267.72"/>
</a>
</g>
</g>
<!-- Node14&#45;&gt;Node6 -->
<g id="edge27_Node000014_Node000006" class="edge">
<title>Node14&#45;&gt;Node6</title>
<g id="a_edge27_Node000014_Node000006"><a xlink:title=" ">
<path fill="none" stroke="#63b8ff" d="M1439.9,-56.37C1437.06,-55.86 1434.25,-55.4 1431.5,-55 1158.6,-15.43 825.43,-10.83 713.91,-10.46"/>
<polygon fill="#63b8ff" stroke="#63b8ff" points="713.83,-6.96 703.82,-10.43 713.81,-13.96 713.83,-6.96"/>
</a>
</g>
</g>
<!-- Node15 -->
<g id="Node000015" class="node">
<title>Node15</title>
<g id="a_Node000015"><a xlink:title=" ">
<polygon fill="#e0e0e0" stroke="#999999" points="1560,-19 1509,-19 1509,0 1560,0 1560,-19"/>
<text text-anchor="middle" x="1534.5" y="-7" font-family="Helvetica,sans-Serif" font-size="10.00">variant</text>
</a>
</g>
</g>
<!-- Node14&#45;&gt;Node15 -->
<g id="edge21_Node000014_Node000015" class="edge">
<title>Node14&#45;&gt;Node15</title>
<g id="a_edge21_Node000014_Node000015"><a xlink:title=" ">
<path fill="none" stroke="#63b8ff" d="M1501.91,-54.84C1507.96,-46.61 1515.62,-36.18 1522,-27.51"/>
<polygon fill="#63b8ff" stroke="#63b8ff" points="1524.95,-29.4 1528.06,-19.27 1519.31,-25.25 1524.95,-29.4"/>
</a>
</g>
</g>
<!-- Node16 -->
<g id="Node000016" class="node">
<title>Node16</title>
<g id="a_Node000016"><a xlink:title=" ">
<polygon fill="#e0e0e0" stroke="#999999" points="1252.5,-19 1202.5,-19 1202.5,0 1252.5,0 1252.5,-19"/>
<text text-anchor="middle" x="1227.5" y="-7" font-family="Helvetica,sans-Serif" font-size="10.00">cstdint</text>
</a>
</g>
</g>
<!-- Node14&#45;&gt;Node16 -->
<g id="edge22_Node000014_Node000016" class="edge">
<title>Node14&#45;&gt;Node16</title>
<g id="a_edge22_Node000014_Node000016"><a xlink:title=" ">
<path fill="none" stroke="#63b8ff" d="M1439.8,-56.89C1436.99,-56.24 1434.21,-55.61 1431.5,-55 1372.3,-41.64 1303.28,-26.72 1262.6,-18"/>
<polygon fill="#63b8ff" stroke="#63b8ff" points="1263.16,-14.54 1252.65,-15.86 1261.7,-21.38 1263.16,-14.54"/>
</a>
</g>
</g>
<!-- Node17 -->
<g id="Node000017" class="node">
<title>Node17</title>
<g id="a_Node000017"><a xlink:title=" ">
<polygon fill="#e0e0e0" stroke="#999999" points="1356.5,-19 1312.5,-19 1312.5,0 1356.5,0 1356.5,-19"/>
<text text-anchor="middle" x="1334.5" y="-7" font-family="Helvetica,sans-Serif" font-size="10.00">string</text>
</a>
</g>
</g>
<!-- Node14&#45;&gt;Node17 -->
<g id="edge23_Node000014_Node000017" class="edge">
<title>Node14&#45;&gt;Node17</title>
<g id="a_edge23_Node000014_Node000017"><a xlink:title=" ">
<path fill="none" stroke="#63b8ff" d="M1453.89,-54.99C1427.15,-45.02 1391.61,-31.78 1366.28,-22.34"/>
<polygon fill="#63b8ff" stroke="#63b8ff" points="1367.36,-19.01 1356.77,-18.8 1364.92,-25.57 1367.36,-19.01"/>
</a>
</g>
</g>
<!-- Node18 -->
<g id="Node000018" class="node">
<title>Node18</title>
<g id="a_Node000018"><a xlink:title=" ">
<polygon fill="#e0e0e0" stroke="#999999" points="1651,-19 1578,-19 1578,0 1651,0 1651,-19"/>
<text text-anchor="middle" x="1614.5" y="-7" font-family="Helvetica,sans-Serif" font-size="10.00">QByteArray</text>
</a>
</g>
</g>
<!-- Node14&#45;&gt;Node18 -->
<g id="edge24_Node000014_Node000018" class="edge">
<title>Node14&#45;&gt;Node18</title>
<g id="a_edge24_Node000014_Node000018"><a xlink:title=" ">
<path fill="none" stroke="#63b8ff" d="M1520.96,-54.99C1541.12,-45.4 1567.64,-32.79 1587.3,-23.44"/>
<polygon fill="#63b8ff" stroke="#63b8ff" points="1588.81,-26.6 1596.34,-19.14 1585.8,-20.27 1588.81,-26.6"/>
</a>
</g>
</g>
<!-- Node19 -->
<g id="Node000019" class="node">
<title>Node19</title>
<g id="a_Node000019"><a xlink:title=" ">
<polygon fill="#e0e0e0" stroke="#999999" points="1718,-19 1669,-19 1669,0 1718,0 1718,-19"/>
<text text-anchor="middle" x="1693.5" y="-7" font-family="Helvetica,sans-Serif" font-size="10.00">QHash</text>
</a>
</g>
</g>
<!-- Node14&#45;&gt;Node19 -->
<g id="edge25_Node000014_Node000019" class="edge">
<title>Node14&#45;&gt;Node19</title>
<g id="a_edge25_Node000014_Node000019"><a xlink:title=" ">
<path fill="none" stroke="#63b8ff" d="M1539.88,-54.99C1576.54,-44.37 1626.01,-30.04 1658.8,-20.55"/>
<polygon fill="#63b8ff" stroke="#63b8ff" points="1660.18,-23.79 1668.82,-17.65 1658.24,-17.07 1660.18,-23.79"/>
</a>
</g>
</g>
<!-- Node20 -->
<g id="Node000020" class="node">
<title>Node20</title>
<g id="a_Node000020"><a xlink:title=" ">
<polygon fill="#e0e0e0" stroke="#999999" points="1428,-19 1375,-19 1375,0 1428,0 1428,-19"/>
<text text-anchor="middle" x="1401.5" y="-7" font-family="Helvetica,sans-Serif" font-size="10.00">QString</text>
</a>
</g>
</g>
<!-- Node14&#45;&gt;Node20 -->
<g id="edge26_Node000014_Node000020" class="edge">
<title>Node14&#45;&gt;Node20</title>
<g id="a_edge26_Node000014_Node000020"><a xlink:title=" ">
<path fill="none" stroke="#63b8ff" d="M1469.71,-54.84C1455.63,-45.68 1437.37,-33.82 1423.29,-24.66"/>
<polygon fill="#63b8ff" stroke="#63b8ff" points="1425.01,-21.61 1414.72,-19.09 1421.2,-27.48 1425.01,-21.61"/>
</a>
</g>
</g>
<!-- Node21 -->
<g id="Node000021" class="node">
<title>Node21</title>
<g id="a_Node000021"><a xlink:title=" ">
<polygon fill="#e0e0e0" stroke="#999999" points="1491,-19 1446,-19 1446,0 1491,0 1491,-19"/>
<text text-anchor="middle" x="1468.5" y="-7" font-family="Helvetica,sans-Serif" font-size="10.00">QMap</text>
</a>
</g>
</g>
<!-- Node14&#45;&gt;Node21 -->
<g id="edge28_Node000014_Node000021" class="edge">
<title>Node14&#45;&gt;Node21</title>
<g id="a_edge28_Node000014_Node000021"><a xlink:title=" ">
<path fill="none" stroke="#63b8ff" d="M1485.93,-54.84C1482.83,-46.95 1478.94,-37.05 1475.62,-28.61"/>
<polygon fill="#63b8ff" stroke="#63b8ff" points="1478.86,-27.29 1471.95,-19.27 1472.35,-29.85 1478.86,-27.29"/>
</a>
</g>
</g>
<!-- Node22&#45;&gt;Node16 -->
<g id="edge31_Node000022_Node000016" class="edge">
<title>Node22&#45;&gt;Node16</title>
<g id="a_edge31_Node000022_Node000016"><a xlink:title=" ">
<path fill="none" stroke="#63b8ff" d="M1117.31,-241.92C1075.03,-222.66 983.63,-173.56 1015.5,-121 1054.18,-57.22 1143.03,-28.53 1192.55,-17.1"/>
<polygon fill="#63b8ff" stroke="#63b8ff" points="1193.47,-20.48 1202.49,-14.91 1191.97,-13.64 1193.47,-20.48"/>
</a>
</g>
</g>
<!-- Node23 -->
<g id="Node000023" class="node">
<title>Node23</title>
<g id="a_Node000023"><a xlink:title=" ">
<polygon fill="#e0e0e0" stroke="#999999" points="1074.5,-145.5 1024.5,-145.5 1024.5,-126.5 1074.5,-126.5 1074.5,-145.5"/>
<text text-anchor="middle" x="1049.5" y="-133.5" font-family="Helvetica,sans-Serif" font-size="10.00">atomic</text>
</a>
</g>
</g>
<!-- Node22&#45;&gt;Node23 -->
<g id="edge30_Node000022_Node000023" class="edge">
<title>Node22&#45;&gt;Node23</title>
<g id="a_edge30_Node000022_Node000023"><a xlink:title=" ">
<path fill="none" stroke="#63b8ff" d="M1126.6,-241.7C1116.5,-233.22 1101.45,-219.69 1090.5,-206 1077.62,-189.89 1065.92,-169.33 1058.35,-154.86"/>
<polygon fill="#63b8ff" stroke="#63b8ff" points="1061.26,-152.87 1053.61,-145.55 1055.03,-156.05 1061.26,-152.87"/>
</a>
</g>
</g>
<!-- Node24 -->
<g id="Node000024" class="node">
<title>Node24</title>
<g id="a_Node000024"><a xlink:title=" ">
<polygon fill="#e0e0e0" stroke="#999999" points="977.5,-206 929.5,-206 929.5,-187 977.5,-187 977.5,-206"/>
<text text-anchor="middle" x="953.5" y="-194" font-family="Helvetica,sans-Serif" font-size="10.00">thread</text>
</a>
</g>
</g>
<!-- Node22&#45;&gt;Node24 -->
<g id="edge32_Node000022_Node000024" class="edge">
<title>Node22&#45;&gt;Node24</title>
<g id="a_edge32_Node000022_Node000024"><a xlink:title=" ">
<path fill="none" stroke="#63b8ff" d="M1107.94,-241.98C1075.02,-232.5 1021.92,-217.21 987.36,-207.25"/>
<polygon fill="#63b8ff" stroke="#63b8ff" points="988.28,-203.88 977.7,-204.47 986.34,-210.6 988.28,-203.88"/>
</a>
</g>
</g>
<!-- Node25 -->
<g id="Node000025" class="node">
<title>Node25</title>
<g id="a_Node000025"><a xlink:href="RingBuffer_8h.html" target="_top" xlink:title=" ">
<polygon fill="white" stroke="#666666" points="1175.5,-206 1099.5,-206 1099.5,-187 1175.5,-187 1175.5,-206"/>
<text text-anchor="middle" x="1137.5" y="-194" font-family="Helvetica,sans-Serif" font-size="10.00">RingBuffer.h</text>
</a>
</g>
</g>
<!-- Node22&#45;&gt;Node25 -->
<g id="edge33_Node000022_Node000025" class="edge">
<title>Node22&#45;&gt;Node25</title>
<g id="a_edge33_Node000022_Node000025"><a xlink:title=" ">
<path fill="none" stroke="#63b8ff" d="M1137.5,-241.75C1137.5,-234.8 1137.5,-224.85 1137.5,-216.13"/>
<polygon fill="#63b8ff" stroke="#63b8ff" points="1141,-216.09 1137.5,-206.09 1134,-216.09 1141,-216.09"/>
</a>
</g>
</g>
<!-- Node30 -->
<g id="Node000030" class="node">
<title>Node30</title>
<g id="a_Node000030"><a xlink:href="Writer_8h.html" target="_top" xlink:title=" ">
<polygon fill="white" stroke="#666666" points="1324,-206 1269,-206 1269,-187 1324,-187 1324,-206"/>
<text text-anchor="middle" x="1296.5" y="-194" font-family="Helvetica,sans-Serif" font-size="10.00">Writer.h</text>
</a>
</g>
</g>
<!-- Node22&#45;&gt;Node30 -->
<g id="edge42_Node000022_Node000030" class="edge">
<title>Node22&#45;&gt;Node30</title>
<g id="a_edge42_Node000022_Node000030"><a xlink:title=" ">
<path fill="none" stroke="#63b8ff" d="M1163.05,-241.98C1189.62,-233.13 1231.44,-219.19 1261.17,-209.28"/>
<polygon fill="#63b8ff" stroke="#63b8ff" points="1262.37,-212.56 1270.75,-206.08 1260.16,-205.92 1262.37,-212.56"/>
</a>
</g>
</g>
<!-- Node25&#45;&gt;Node4 -->
<g id="edge34_Node000025_Node000004" class="edge">
<title>Node25&#45;&gt;Node4</title>
<g id="a_edge34_Node000025_Node000004"><a xlink:title=" ">
<path fill="none" stroke="#63b8ff" d="M1107.84,-186.99C1071.75,-176.64 1010.77,-159.16 971.34,-147.85"/>
<polygon fill="#63b8ff" stroke="#63b8ff" points="972.14,-144.44 961.56,-145.05 970.21,-151.17 972.14,-144.44"/>
</a>
</g>
</g>
<!-- Node25&#45;&gt;Node16 -->
<g id="edge35_Node000025_Node000016" class="edge">
<title>Node25&#45;&gt;Node16</title>
<g id="a_edge35_Node000025_Node000016"><a xlink:title=" ">
<path fill="none" stroke="#63b8ff" d="M1143.47,-186.86C1149.42,-178.05 1158.64,-163.9 1165.5,-151 1188.15,-108.39 1209.76,-55.81 1220.48,-28.65"/>
<polygon fill="#63b8ff" stroke="#63b8ff" points="1223.77,-29.85 1224.15,-19.26 1217.25,-27.3 1223.77,-29.85"/>
</a>
</g>
</g>
<!-- Node25&#45;&gt;Node23 -->
<g id="edge37_Node000025_Node000023" class="edge">
<title>Node25&#45;&gt;Node23</title>
<g id="a_edge37_Node000025_Node000023"><a xlink:title=" ">
<path fill="none" stroke="#63b8ff" d="M1124.52,-186.87C1110.48,-177.54 1087.87,-162.51 1071.14,-151.38"/>
<polygon fill="#63b8ff" stroke="#63b8ff" points="1072.8,-148.29 1062.54,-145.67 1068.93,-154.12 1072.8,-148.29"/>
</a>
</g>
</g>
<!-- Node26 -->
<g id="Node000026" class="node">
<title>Node26</title>
<g id="a_Node000026"><a xlink:title=" ">
<polygon fill="#e0e0e0" stroke="#999999" points="1268,-145.5 1213,-145.5 1213,-126.5 1268,-126.5 1268,-145.5"/>
<text text-anchor="middle" x="1240.5" y="-133.5" font-family="Helvetica,sans-Serif" font-size="10.00">fstream</text>
</a>
</g>
</g>
<!-- Node25&#45;&gt;Node26 -->
<g id="edge36_Node000025_Node000026" class="edge">
<title>Node25&#45;&gt;Node26</title>
<g id="a_edge36_Node000025_Node000026"><a xlink:title=" ">
<path fill="none" stroke="#63b8ff" d="M1152.7,-186.87C1169.51,-177.32 1196.82,-161.81 1216.52,-150.62"/>
<polygon fill="#63b8ff" stroke="#63b8ff" points="1218.27,-153.65 1225.24,-145.67 1214.82,-147.56 1218.27,-153.65"/>
</a>
</g>
</g>
<!-- Node27 -->
<g id="Node000027" class="node">
<title>Node27</title>
<g id="a_Node000027"><a xlink:title=" ">
<polygon fill="#e0e0e0" stroke="#999999" points="1156.5,-145.5 1092.5,-145.5 1092.5,-126.5 1156.5,-126.5 1156.5,-145.5"/>
<text text-anchor="middle" x="1124.5" y="-133.5" font-family="Helvetica,sans-Serif" font-size="10.00">algorithm</text>
</a>
</g>
</g>
<!-- Node25&#45;&gt;Node27 -->
<g id="edge38_Node000025_Node000027" class="edge">
<title>Node25&#45;&gt;Node27</title>
<g id="a_edge38_Node000025_Node000027"><a xlink:title=" ">
<path fill="none" stroke="#63b8ff" d="M1135.58,-186.87C1133.76,-178.66 1130.95,-166.04 1128.62,-155.55"/>
<polygon fill="#63b8ff" stroke="#63b8ff" points="1132.01,-154.67 1126.43,-145.67 1125.18,-156.19 1132.01,-154.67"/>
</a>
</g>
</g>
<!-- Node25&#45;&gt;Node28 -->
<g id="edge39_Node000025_Node000028" class="edge">
<title>Node25&#45;&gt;Node28</title>
<g id="a_edge39_Node000025_Node000028"><a xlink:title=" ">
<path fill="none" stroke="#63b8ff" d="M1175.55,-187.55C1220.95,-178.06 1297.58,-162.05 1352.44,-150.59"/>
<polygon fill="#63b8ff" stroke="#63b8ff" points="1353.35,-153.98 1362.42,-148.51 1351.92,-147.13 1353.35,-153.98"/>
</a>
</g>
</g>
<!-- Node28&#45;&gt;Node14 -->
<g id="edge41_Node000028_Node000014" class="edge">
<title>Node28&#45;&gt;Node14</title>
<g id="a_edge41_Node000028_Node000014"><a xlink:title=" ">
<path fill="none" stroke="#63b8ff" d="M1433.92,-120.8C1443.79,-112.26 1456.52,-101.25 1467.5,-91.75"/>
<polygon fill="#63b8ff" stroke="#63b8ff" points="1469.85,-94.35 1475.12,-85.16 1465.27,-89.06 1469.85,-94.35"/>
</a>
</g>
</g>
<!-- Node29 -->
<g id="Node000029" class="node">
<title>Node29</title>
<g id="a_Node000029"><a xlink:title=" ">
<polygon fill="#e0e0e0" stroke="#999999" points="1422,-79.5 1363,-79.5 1363,-60.5 1422,-60.5 1422,-79.5"/>
<text text-anchor="middle" x="1392.5" y="-67.5" font-family="Helvetica,sans-Serif" font-size="10.00">QWidget</text>
</a>
</g>
</g>
<!-- Node28&#45;&gt;Node29 -->
<g id="edge40_Node000028_Node000029" class="edge">
<title>Node28&#45;&gt;Node29</title>
<g id="a_edge40_Node000028_Node000029"><a xlink:title=" ">
<path fill="none" stroke="#63b8ff" d="M1411.95,-120.8C1408.32,-111.5 1403.54,-99.27 1399.63,-89.26"/>
<polygon fill="#63b8ff" stroke="#63b8ff" points="1402.85,-87.89 1395.95,-79.84 1396.33,-90.43 1402.85,-87.89"/>
</a>
</g>
</g>
<!-- Node30&#45;&gt;Node16 -->
<g id="edge43_Node000030_Node000016" class="edge">
<title>Node30&#45;&gt;Node16</title>
<g id="a_edge43_Node000030_Node000016"><a xlink:title=" ">
<path fill="none" stroke="#63b8ff" d="M1294.77,-186.64C1291.89,-172.52 1285.63,-144.18 1277.5,-121 1265.65,-87.21 1247.48,-49.55 1236.61,-28.07"/>
<polygon fill="#63b8ff" stroke="#63b8ff" points="1239.73,-26.47 1232.06,-19.17 1233.5,-29.66 1239.73,-26.47"/>
</a>
</g>
</g>
<!-- Node30&#45;&gt;Node17 -->
<g id="edge45_Node000030_Node000017" class="edge">
<title>Node30&#45;&gt;Node17</title>
<g id="a_edge45_Node000030_Node000017"><a xlink:title=" ">
<path fill="none" stroke="#63b8ff" d="M1299.65,-186.73C1302.75,-177.83 1307.46,-163.6 1310.5,-151 1320.92,-107.85 1328.52,-56.19 1332.14,-29.13"/>
<polygon fill="#63b8ff" stroke="#63b8ff" points="1335.62,-29.5 1333.44,-19.14 1328.68,-28.6 1335.62,-29.5"/>
</a>
</g>
</g>
<!-- Node30&#45;&gt;Node26 -->
<g id="edge44_Node000030_Node000026" class="edge">
<title>Node30&#45;&gt;Node26</title>
<g id="a_edge44_Node000030_Node000026"><a xlink:title=" ">
<path fill="none" stroke="#63b8ff" d="M1288.24,-186.87C1279.72,-177.97 1266.24,-163.89 1255.77,-152.95"/>
<polygon fill="#63b8ff" stroke="#63b8ff" points="1258.24,-150.47 1248.8,-145.67 1253.18,-155.31 1258.24,-150.47"/>
</a>
</g>
</g>
<!-- Node30&#45;&gt;Node28 -->
<g id="edge46_Node000030_Node000028" class="edge">
<title>Node30&#45;&gt;Node28</title>
<g id="a_edge46_Node000030_Node000028"><a xlink:title=" ">
<path fill="none" stroke="#63b8ff" d="M1314.09,-186.99C1331.07,-178.79 1357.33,-166.09 1379.14,-155.55"/>
<polygon fill="#63b8ff" stroke="#63b8ff" points="1380.7,-158.68 1388.18,-151.18 1377.65,-152.38 1380.7,-158.68"/>
</a>
</g>
</g>
<!-- Node31&#45;&gt;Node6 -->
<g id="edge49_Node000031_Node000006" class="edge">
<title>Node31&#45;&gt;Node6</title>
<g id="a_edge49_Node000031_Node000006"><a xlink:title=" ">
<path fill="none" stroke="#63b8ff" d="M746.75,-54.84C731.9,-45.6 712.6,-33.59 697.84,-24.4"/>
<polygon fill="#63b8ff" stroke="#63b8ff" points="699.65,-21.41 689.31,-19.09 695.95,-27.35 699.65,-21.41"/>
</a>
</g>
</g>
</g>
</svg>

<g id="navigator" transform="translate(0 0)" fill="#404254">
  <rect fill="#f2f5e9" fill-opacity="0.5" stroke="#606060" stroke-width=".5" x="0" y="0" width="60" height="60"/>
  <use id="zoomplus" xlink:href="#zoomPlus" x="17" y="9" onmousedown="handleZoom(evt,'in')"/>
  <use id="zoomminus" xlink:href="#zoomMin" x="42" y="9" onmousedown="handleZoom(evt,'out')"/>
  <use id="reset" xlink:href="#resetDef" x="30" y="36" onmousedown="handleReset()"/>
   <use id="arrowup" xlink:href="#arrowUp" x="0" y="0" onmousedown="handlePan(0,-1)"/>
  <use id="arrowright" xlink:href="#arrowRight" x="0" y="0" onmousedown="handlePan(1,0)"/>
  <use id="arrowdown" xlink:href="#arrowDown" x="0" y="0" onmousedown="handlePan(0,1)"/>
  <use id="arrowleft" xlink:href="#arrowLeft" x="0" y="0" onmousedown="handlePan(-1,0)"/>
</g>
<svg viewBox="0 0 15 15" width="100%" height="30px" preserveAspectRatio="xMaxYMin meet">
 <g id="arrow_out" transform="scale(0.3 0.3)">
  <a xlink:href="main_8cpp__incl_org.svg" target="_base">
   <rect id="button" ry="5" rx="5" y="6" x="6" height="38" width="38"
        fill="#f2f5e9" fill-opacity="0.5" stroke="#606060" stroke-width="1.0"/>
   <path id="arrow"
     d="M 11.500037,31.436501 C 11.940474,20.09759 22.043105,11.32322 32.158766,21.979434 L 37.068811,17.246167 C 37.068811,17.246167 37.088388,32 37.088388,32 L 22.160133,31.978069 C 22.160133,31.978069 26.997745,27.140456 26.997745,27.140456 C 18.528582,18.264221 13.291696,25.230495 11.500037,31.436501 z"
     style="fill:#404040;"/>
  </a>
 </g>
</svg>

<style type='text/css'>
<![CDATA[
[data-mouse-over-selected='false'] { opacity: 0.7; }
[data-mouse-over-selected='true']  { opacity: 1.0; }
]]>
</style>
<script type="application/ecmascript"><![CDATA[
document.addEventListener('DOMContentLoaded', (event) => {
  highlightEdges();
  highlightAdjacentNodes();
});
]]></script>
</svg>
