<?xml version="1.0" encoding="UTF-8" standalone="no"?>
<!DOCTYPE svg PUBLIC "-//W3C//DTD SVG 1.1//EN"
 "http://www.w3.org/Graphics/SVG/1.1/DTD/svg11.dtd">
<!-- Generated by graphviz version 2.43.0 (0)
 -->
<!-- Title: app/MainWindow.cpp Pages: 1 -->
<svg width="1815pt" height="214pt"
 viewBox="0.00 0.00 1814.50 214.00" xmlns="http://www.w3.org/2000/svg" xmlns:xlink="http://www.w3.org/1999/xlink">
<g id="graph0" class="graph" transform="scale(1 1) rotate(0) translate(4 210)">
<title>app/MainWindow.cpp</title>
<!-- Node1 -->
<g id="Node000001" class="node">
<title>Node1</title>
<g id="a_Node000001"><a xlink:title=" ">
<polygon fill="#999999" stroke="#666666" points="1004,-206 884,-206 884,-187 1004,-187 1004,-206"/>
<text text-anchor="middle" x="944" y="-194" font-family="Helvetica,sans-Serif" font-size="10.00">app/MainWindow.cpp</text>
</a>
</g>
</g>
<!-- Node2 -->
<g id="Node000002" class="node">
<title>Node2</title>
<g id="a_Node000002"><a xlink:title=" ">
<polygon fill="#e0e0e0" stroke="#999999" points="241.5,-19 154.5,-19 154.5,0 241.5,0 241.5,-19"/>
<text text-anchor="middle" x="198" y="-7" font-family="Helvetica,sans-Serif" font-size="10.00">QMainWindow</text>
</a>
</g>
</g>
<!-- Node1&#45;&gt;Node2 -->
<g id="edge1_Node000001_Node000002" class="edge">
<title>Node1&#45;&gt;Node2</title>
<g id="a_edge1_Node000001_Node000002"><a xlink:title=" ">
<path fill="none" stroke="#63b8ff" d="M883.98,-194.82C749.36,-192.71 427.02,-184.25 324,-151 270.83,-133.84 250.09,-130.02 217,-85 205.04,-68.73 200.58,-45.67 198.93,-29.53"/>
<polygon fill="#63b8ff" stroke="#63b8ff" points="202.4,-28.91 198.16,-19.2 195.42,-29.43 202.4,-28.91"/>
</a>
</g>
</g>
<!-- Node3 -->
<g id="Node000003" class="node">
<title>Node3</title>
<g id="a_Node000003"><a xlink:title=" ">
<polygon fill="#e0e0e0" stroke="#999999" points="502,-19 446,-19 446,0 502,0 502,-19"/>
<text text-anchor="middle" x="474" y="-7" font-family="Helvetica,sans-Serif" font-size="10.00">QObject</text>
</a>
</g>
</g>
<!-- Node1&#45;&gt;Node3 -->
<g id="edge2_Node000001_Node000003" class="edge">
<title>Node1&#45;&gt;Node3</title>
<g id="a_edge2_Node000001_Node000003"><a xlink:title=" ">
<path fill="none" stroke="#63b8ff" d="M883.63,-193.44C777.33,-189.18 561.35,-177.49 491,-151 443.91,-133.27 421.98,-129.77 399,-85 392.91,-73.14 392.4,-66.59 399,-55 407.3,-40.43 422.45,-30.14 436.98,-23.15"/>
<polygon fill="#63b8ff" stroke="#63b8ff" points="438.61,-26.25 446.35,-19.02 435.79,-19.85 438.61,-26.25"/>
</a>
</g>
</g>
<!-- Node4 -->
<g id="Node000004" class="node">
<title>Node4</title>
<g id="a_Node000004"><a xlink:title=" ">
<polygon fill="#e0e0e0" stroke="#999999" points="1138,-145.5 1082,-145.5 1082,-126.5 1138,-126.5 1138,-145.5"/>
<text text-anchor="middle" x="1110" y="-133.5" font-family="Helvetica,sans-Serif" font-size="10.00">QDebug</text>
</a>
</g>
</g>
<!-- Node1&#45;&gt;Node4 -->
<g id="edge3_Node000001_Node000004" class="edge">
<title>Node1&#45;&gt;Node4</title>
<g id="a_edge3_Node000001_Node000004"><a xlink:title=" ">
<path fill="none" stroke="#63b8ff" d="M969.78,-186.86C995.87,-178.05 1037.35,-163.89 1073,-151 1074.64,-150.41 1076.32,-149.79 1078.02,-149.17"/>
<polygon fill="#63b8ff" stroke="#63b8ff" points="1079.59,-152.32 1087.73,-145.55 1077.14,-145.76 1079.59,-152.32"/>
</a>
</g>
</g>
<!-- Node5 -->
<g id="Node000005" class="node">
<title>Node5</title>
<g id="a_Node000005"><a xlink:title=" ">
<polygon fill="#e0e0e0" stroke="#999999" points="1211.5,-145.5 1156.5,-145.5 1156.5,-126.5 1211.5,-126.5 1211.5,-145.5"/>
<text text-anchor="middle" x="1184" y="-133.5" font-family="Helvetica,sans-Serif" font-size="10.00">QVector</text>
</a>
</g>
</g>
<!-- Node1&#45;&gt;Node5 -->
<g id="edge4_Node000001_Node000005" class="edge">
<title>Node1&#45;&gt;Node5</title>
<g id="a_edge4_Node000001_Node000005"><a xlink:title=" ">
<path fill="none" stroke="#63b8ff" d="M992.49,-186.93C1033.94,-179.12 1094.95,-166.46 1147,-151 1149.14,-150.36 1151.33,-149.66 1153.53,-148.93"/>
<polygon fill="#63b8ff" stroke="#63b8ff" points="1154.81,-152.19 1163.05,-145.53 1152.46,-145.59 1154.81,-152.19"/>
</a>
</g>
</g>
<!-- Node6 -->
<g id="Node000006" class="node">
<title>Node6</title>
<g id="a_Node000006"><a xlink:title=" ">
<polygon fill="#e0e0e0" stroke="#999999" points="1298,-145.5 1230,-145.5 1230,-126.5 1298,-126.5 1298,-145.5"/>
<text text-anchor="middle" x="1264" y="-133.5" font-family="Helvetica,sans-Serif" font-size="10.00">QMenuBar</text>
</a>
</g>
</g>
<!-- Node1&#45;&gt;Node6 -->
<g id="edge5_Node000001_Node000006" class="edge">
<title>Node1&#45;&gt;Node6</title>
<g id="a_edge5_Node000001_Node000006"><a xlink:title=" ">
<path fill="none" stroke="#63b8ff" d="M1004.27,-188.4C1060.52,-181.16 1146.58,-168.5 1220,-151 1223.02,-150.28 1226.14,-149.46 1229.25,-148.58"/>
<polygon fill="#63b8ff" stroke="#63b8ff" points="1230.47,-151.87 1239.05,-145.64 1228.47,-145.16 1230.47,-151.87"/>
</a>
</g>
</g>
<!-- Node7 -->
<g id="Node000007" class="node">
<title>Node7</title>
<g id="a_Node000007"><a xlink:title=" ">
<polygon fill="#e0e0e0" stroke="#999999" points="1381.5,-145.5 1316.5,-145.5 1316.5,-126.5 1381.5,-126.5 1381.5,-145.5"/>
<text text-anchor="middle" x="1349" y="-133.5" font-family="Helvetica,sans-Serif" font-size="10.00">QShortcut</text>
</a>
</g>
</g>
<!-- Node1&#45;&gt;Node7 -->
<g id="edge6_Node000001_Node000007" class="edge">
<title>Node1&#45;&gt;Node7</title>
<g id="a_edge6_Node000001_Node000007"><a xlink:title=" ">
<path fill="none" stroke="#63b8ff" d="M1004.05,-191.83C1076.55,-186.55 1201.86,-174.72 1307,-151 1310.05,-150.31 1313.19,-149.49 1316.32,-148.59"/>
<polygon fill="#63b8ff" stroke="#63b8ff" points="1317.62,-151.85 1326.13,-145.54 1315.54,-145.17 1317.62,-151.85"/>
</a>
</g>
</g>
<!-- Node8 -->
<g id="Node000008" class="node">
<title>Node8</title>
<g id="a_Node000008"><a xlink:title=" ">
<polygon fill="#e0e0e0" stroke="#999999" points="1494.5,-145.5 1399.5,-145.5 1399.5,-126.5 1494.5,-126.5 1494.5,-145.5"/>
<text text-anchor="middle" x="1447" y="-133.5" font-family="Helvetica,sans-Serif" font-size="10.00">QStackedLayout</text>
</a>
</g>
</g>
<!-- Node1&#45;&gt;Node8 -->
<g id="edge7_Node000001_Node000008" class="edge">
<title>Node1&#45;&gt;Node8</title>
<g id="a_edge7_Node000001_Node000008"><a xlink:title=" ">
<path fill="none" stroke="#63b8ff" d="M1004.24,-192.2C1090.28,-186.88 1253.11,-174.52 1390,-151 1395.14,-150.12 1400.5,-149.03 1405.8,-147.85"/>
<polygon fill="#63b8ff" stroke="#63b8ff" points="1406.87,-151.19 1415.81,-145.5 1405.27,-144.38 1406.87,-151.19"/>
</a>
</g>
</g>
<!-- Node9 -->
<g id="Node000009" class="node">
<title>Node9</title>
<g id="a_Node000009"><a xlink:href="MainWindow_8h.html" target="_top" xlink:title=" ">
<polygon fill="white" stroke="#666666" points="352,-79.5 226,-79.5 226,-60.5 352,-60.5 352,-79.5"/>
<text text-anchor="middle" x="289" y="-67.5" font-family="Helvetica,sans-Serif" font-size="10.00">src/app/MainWindow.h</text>
</a>
</g>
</g>
<!-- Node1&#45;&gt;Node9 -->
<g id="edge8_Node000001_Node000009" class="edge">
<title>Node1&#45;&gt;Node9</title>
<g id="a_edge8_Node000001_Node000009"><a xlink:title=" ">
<path fill="none" stroke="#63b8ff" d="M883.78,-196.22C754.85,-196.9 456.46,-193.66 366,-151 336.78,-137.22 312.82,-107.2 299.76,-88.11"/>
<polygon fill="#63b8ff" stroke="#63b8ff" points="302.66,-86.16 294.24,-79.73 296.82,-90.01 302.66,-86.16"/>
</a>
</g>
</g>
<!-- Node10 -->
<g id="Node000010" class="node">
<title>Node10</title>
<g id="a_Node000010"><a xlink:href="PidTabFactory_8h.html" target="_top" xlink:title=" ">
<polygon fill="white" stroke="#666666" points="170,-145.5 0,-145.5 0,-126.5 170,-126.5 170,-145.5"/>
<text text-anchor="middle" x="85" y="-133.5" font-family="Helvetica,sans-Serif" font-size="10.00">src/features/pid/PidTabFactory.h</text>
</a>
</g>
</g>
<!-- Node1&#45;&gt;Node10 -->
<g id="edge11_Node000001_Node000010" class="edge">
<title>Node1&#45;&gt;Node10</title>
<g id="a_edge11_Node000001_Node000010"><a xlink:title=" ">
<path fill="none" stroke="#63b8ff" d="M883.77,-193.65C755.05,-189.33 443.75,-176.93 184,-151 172.78,-149.88 160.88,-148.43 149.36,-146.88"/>
<polygon fill="#63b8ff" stroke="#63b8ff" points="149.75,-143.4 139.37,-145.51 148.8,-150.34 149.75,-143.4"/>
</a>
</g>
</g>
<!-- Node14 -->
<g id="Node000014" class="node">
<title>Node14</title>
<g id="a_Node000014"><a xlink:href="TestTabFactory_8h.html" target="_top" xlink:title=" ">
<polygon fill="white" stroke="#666666" points="666.5,-151 531.5,-151 531.5,-121 666.5,-121 666.5,-151"/>
<text text-anchor="start" x="539.5" y="-139" font-family="Helvetica,sans-Serif" font-size="10.00">src/features/test/TestTab</text>
<text text-anchor="middle" x="599" y="-128" font-family="Helvetica,sans-Serif" font-size="10.00">Factory.h</text>
</a>
</g>
</g>
<!-- Node1&#45;&gt;Node14 -->
<g id="edge16_Node000001_Node000014" class="edge">
<title>Node1&#45;&gt;Node14</title>
<g id="a_edge16_Node000001_Node000014"><a xlink:title=" ">
<path fill="none" stroke="#63b8ff" d="M890.62,-186.96C838.53,-178.57 756.77,-165.21 676.78,-151.29"/>
<polygon fill="#63b8ff" stroke="#63b8ff" points="676.99,-147.78 666.53,-149.51 675.78,-154.67 676.99,-147.78"/>
</a>
</g>
</g>
<!-- Node22 -->
<g id="Node000022" class="node">
<title>Node22</title>
<g id="a_Node000022"><a xlink:href="GraphicTabFactory_8h.html" target="_top" xlink:title=" ">
<polygon fill="white" stroke="#666666" points="803.5,-151 684.5,-151 684.5,-121 803.5,-121 803.5,-151"/>
<text text-anchor="start" x="692.5" y="-139" font-family="Helvetica,sans-Serif" font-size="10.00">src/features/graphics</text>
<text text-anchor="middle" x="744" y="-128" font-family="Helvetica,sans-Serif" font-size="10.00">/GraphicTabFactory.h</text>
</a>
</g>
</g>
<!-- Node1&#45;&gt;Node22 -->
<g id="edge25_Node000001_Node000022" class="edge">
<title>Node1&#45;&gt;Node22</title>
<g id="a_edge25_Node000001_Node000022"><a xlink:title=" ">
<path fill="none" stroke="#63b8ff" d="M914.92,-186.99C885.38,-178.35 838.84,-164.74 801.77,-153.9"/>
<polygon fill="#63b8ff" stroke="#63b8ff" points="802.66,-150.51 792.08,-151.06 800.7,-157.23 802.66,-150.51"/>
</a>
</g>
</g>
<!-- Node24 -->
<g id="Node000024" class="node">
<title>Node24</title>
<g id="a_Node000024"><a xlink:href="FilesMenuFactory_8h.html" target="_top" xlink:title=" ">
<polygon fill="white" stroke="#666666" points="1647.5,-151 1512.5,-151 1512.5,-121 1647.5,-121 1647.5,-151"/>
<text text-anchor="start" x="1520.5" y="-139" font-family="Helvetica,sans-Serif" font-size="10.00">src/features/menu_bar</text>
<text text-anchor="middle" x="1580" y="-128" font-family="Helvetica,sans-Serif" font-size="10.00">/files/FilesMenuFactory.h</text>
</a>
</g>
</g>
<!-- Node1&#45;&gt;Node24 -->
<g id="edge29_Node000001_Node000024" class="edge">
<title>Node1&#45;&gt;Node24</title>
<g id="a_edge29_Node000001_Node000024"><a xlink:title=" ">
<path fill="none" stroke="#63b8ff" d="M1004.18,-192.69C1105.03,-187.56 1314.69,-175.02 1502.4,-150.98"/>
<polygon fill="#63b8ff" stroke="#63b8ff" points="1502.99,-154.43 1512.45,-149.68 1502.09,-147.49 1502.99,-154.43"/>
</a>
</g>
</g>
<!-- Node28 -->
<g id="Node000028" class="node">
<title>Node28</title>
<g id="a_Node000028"><a xlink:href="ToolsMenuFactory_8h.html" target="_top" xlink:title=" ">
<polygon fill="white" stroke="#666666" points="1806.5,-151 1665.5,-151 1665.5,-121 1806.5,-121 1806.5,-151"/>
<text text-anchor="start" x="1673.5" y="-139" font-family="Helvetica,sans-Serif" font-size="10.00">src/features/menu_bar</text>
<text text-anchor="middle" x="1736" y="-128" font-family="Helvetica,sans-Serif" font-size="10.00">/tools/ToolsMenuFactory.h</text>
</a>
</g>
</g>
<!-- Node1&#45;&gt;Node28 -->
<g id="edge33_Node000001_Node000028" class="edge">
<title>Node1&#45;&gt;Node28</title>
<g id="a_edge33_Node000001_Node000028"><a xlink:title=" ">
<path fill="none" stroke="#63b8ff" d="M1004.21,-193.99C1125.43,-190.46 1407.69,-179.76 1655.12,-151"/>
<polygon fill="#63b8ff" stroke="#63b8ff" points="1655.87,-154.44 1665.39,-149.79 1655.05,-147.48 1655.87,-154.44"/>
</a>
</g>
</g>
<!-- Node30 -->
<g id="Node000030" class="node">
<title>Node30</title>
<g id="a_Node000030"><a xlink:href="OverlayFactory_8h.html" target="_top" xlink:title=" ">
<polygon fill="white" stroke="#666666" points="936,-151 822,-151 822,-121 936,-121 936,-151"/>
<text text-anchor="start" x="830" y="-139" font-family="Helvetica,sans-Serif" font-size="10.00">src/features/overlay</text>
<text text-anchor="middle" x="879" y="-128" font-family="Helvetica,sans-Serif" font-size="10.00">/OverlayFactory.h</text>
</a>
</g>
</g>
<!-- Node1&#45;&gt;Node30 -->
<g id="edge36_Node000001_Node000030" class="edge">
<title>Node1&#45;&gt;Node30</title>
<g id="a_edge36_Node000001_Node000030"><a xlink:title=" ">
<path fill="none" stroke="#63b8ff" d="M934.41,-186.87C926,-179.3 913.42,-167.98 902.37,-158.04"/>
<polygon fill="#63b8ff" stroke="#63b8ff" points="904.46,-155.2 894.68,-151.11 899.77,-160.41 904.46,-155.2"/>
</a>
</g>
</g>
<!-- Node32 -->
<g id="Node000032" class="node">
<title>Node32</title>
<g id="a_Node000032"><a xlink:href="FileSystem_8h.html" target="_top" xlink:title="File system allow the managment of files path used in the application.">
<polygon fill="white" stroke="#666666" points="539.5,-85 408.5,-85 408.5,-55 539.5,-55 539.5,-85"/>
<text text-anchor="start" x="416.5" y="-73" font-family="Helvetica,sans-Serif" font-size="10.00">src/services/FileSystem</text>
<text text-anchor="middle" x="474" y="-62" font-family="Helvetica,sans-Serif" font-size="10.00">/FileSystem.h</text>
</a>
</g>
</g>
<!-- Node1&#45;&gt;Node32 -->
<g id="edge39_Node000001_Node000032" class="edge">
<title>Node1&#45;&gt;Node32</title>
<g id="a_edge39_Node000001_Node000032"><a xlink:title=" ">
<path fill="none" stroke="#63b8ff" d="M883.67,-195.64C781.67,-194.82 580.54,-188.34 522,-151 501.72,-138.07 488.82,-113.22 481.56,-94.63"/>
<polygon fill="#63b8ff" stroke="#63b8ff" points="484.79,-93.27 478.09,-85.06 478.21,-95.66 484.79,-93.27"/>
</a>
</g>
</g>
<!-- Node33 -->
<g id="Node000033" class="node">
<title>Node33</title>
<g id="a_Node000033"><a xlink:href="Logger_8h.html" target="_top" xlink:title="Tool that provide the ability to display and log errors and debug messages.">
<polygon fill="white" stroke="#666666" points="1064,-151 954,-151 954,-121 1064,-121 1064,-151"/>
<text text-anchor="start" x="962" y="-139" font-family="Helvetica,sans-Serif" font-size="10.00">src/services/Logger</text>
<text text-anchor="middle" x="1009" y="-128" font-family="Helvetica,sans-Serif" font-size="10.00">/Logger.h</text>
</a>
</g>
</g>
<!-- Node1&#45;&gt;Node33 -->
<g id="edge41_Node000001_Node000033" class="edge">
<title>Node1&#45;&gt;Node33</title>
<g id="a_edge41_Node000001_Node000033"><a xlink:title=" ">
<path fill="none" stroke="#63b8ff" d="M953.59,-186.87C962,-179.3 974.58,-167.98 985.63,-158.04"/>
<polygon fill="#63b8ff" stroke="#63b8ff" points="988.23,-160.41 993.32,-151.11 983.54,-155.2 988.23,-160.41"/>
</a>
</g>
</g>
<!-- Node9&#45;&gt;Node2 -->
<g id="edge9_Node000009_Node000002" class="edge">
<title>Node9&#45;&gt;Node2</title>
<g id="a_edge9_Node000009_Node000002"><a xlink:title=" ">
<path fill="none" stroke="#63b8ff" d="M275.57,-60.37C260.92,-50.95 237.24,-35.73 219.9,-24.58"/>
<polygon fill="#63b8ff" stroke="#63b8ff" points="221.79,-21.63 211.48,-19.17 218,-27.52 221.79,-21.63"/>
</a>
</g>
</g>
<!-- Node9&#45;&gt;Node3 -->
<g id="edge10_Node000009_Node000003" class="edge">
<title>Node9&#45;&gt;Node3</title>
<g id="a_edge10_Node000009_Node000003"><a xlink:title=" ">
<path fill="none" stroke="#63b8ff" d="M315.9,-60.49C347.96,-50.36 401.68,-33.37 437.48,-22.05"/>
<polygon fill="#63b8ff" stroke="#63b8ff" points="438.59,-25.37 447.07,-19.02 436.48,-18.69 438.59,-25.37"/>
</a>
</g>
</g>
<!-- Node11 -->
<g id="Node000011" class="node">
<title>Node11</title>
<g id="a_Node000011"><a xlink:href="PidTab_8h.html" target="_top" xlink:title=" ">
<polygon fill="white" stroke="#666666" points="124.5,-79.5 67.5,-79.5 67.5,-60.5 124.5,-60.5 124.5,-79.5"/>
<text text-anchor="middle" x="96" y="-67.5" font-family="Helvetica,sans-Serif" font-size="10.00">PidTab.h</text>
</a>
</g>
</g>
<!-- Node10&#45;&gt;Node11 -->
<g id="edge12_Node000010_Node000011" class="edge">
<title>Node10&#45;&gt;Node11</title>
<g id="a_edge12_Node000010_Node000011"><a xlink:title=" ">
<path fill="none" stroke="#63b8ff" d="M86.48,-126.37C88.08,-117.07 90.68,-101.98 92.75,-89.9"/>
<polygon fill="#63b8ff" stroke="#63b8ff" points="96.22,-90.35 94.47,-79.91 89.33,-89.17 96.22,-90.35"/>
</a>
</g>
</g>
<!-- Node11&#45;&gt;Node2 -->
<g id="edge13_Node000011_Node000002" class="edge">
<title>Node11&#45;&gt;Node2</title>
<g id="a_edge13_Node000011_Node000002"><a xlink:title=" ">
<path fill="none" stroke="#63b8ff" d="M111.05,-60.37C127.62,-50.86 154.5,-35.45 173.99,-24.27"/>
<polygon fill="#63b8ff" stroke="#63b8ff" points="175.95,-27.18 182.89,-19.17 172.47,-21.11 175.95,-27.18"/>
</a>
</g>
</g>
<!-- Node12 -->
<g id="Node000012" class="node">
<title>Node12</title>
<g id="a_Node000012"><a xlink:title=" ">
<polygon fill="#e0e0e0" stroke="#999999" points="55,-19 5,-19 5,0 55,0 55,-19"/>
<text text-anchor="middle" x="30" y="-7" font-family="Helvetica,sans-Serif" font-size="10.00">QLabel</text>
</a>
</g>
</g>
<!-- Node11&#45;&gt;Node12 -->
<g id="edge14_Node000011_Node000012" class="edge">
<title>Node11&#45;&gt;Node12</title>
<g id="a_edge14_Node000011_Node000012"><a xlink:title=" ">
<path fill="none" stroke="#63b8ff" d="M86.26,-60.37C76.03,-51.3 59.71,-36.84 47.28,-25.82"/>
<polygon fill="#63b8ff" stroke="#63b8ff" points="49.58,-23.18 39.78,-19.17 44.94,-28.42 49.58,-23.18"/>
</a>
</g>
</g>
<!-- Node13 -->
<g id="Node000013" class="node">
<title>Node13</title>
<g id="a_Node000013"><a xlink:title=" ">
<polygon fill="#e0e0e0" stroke="#999999" points="130.5,-19 73.5,-19 73.5,0 130.5,0 130.5,-19"/>
<text text-anchor="middle" x="102" y="-7" font-family="Helvetica,sans-Serif" font-size="10.00">QLayout</text>
</a>
</g>
</g>
<!-- Node11&#45;&gt;Node13 -->
<g id="edge15_Node000011_Node000013" class="edge">
<title>Node11&#45;&gt;Node13</title>
<g id="a_edge15_Node000011_Node000013"><a xlink:title=" ">
<path fill="none" stroke="#63b8ff" d="M96.89,-60.37C97.72,-52.25 98.99,-39.81 100.06,-29.39"/>
<polygon fill="#63b8ff" stroke="#63b8ff" points="103.57,-29.47 101.11,-19.17 96.61,-28.76 103.57,-29.47"/>
</a>
</g>
</g>
<!-- Node15 -->
<g id="Node000015" class="node">
<title>Node15</title>
<g id="a_Node000015"><a xlink:href="AppViewModels_8h.html" target="_top" xlink:title=" ">
<polygon fill="white" stroke="#666666" points="686,-85 558,-85 558,-55 686,-55 686,-85"/>
<text text-anchor="start" x="566" y="-73" font-family="Helvetica,sans-Serif" font-size="10.00">src/mvvm/viewmodels</text>
<text text-anchor="middle" x="622" y="-62" font-family="Helvetica,sans-Serif" font-size="10.00">/AppViewModels.h</text>
</a>
</g>
</g>
<!-- Node14&#45;&gt;Node15 -->
<g id="edge17_Node000014_Node000015" class="edge">
<title>Node14&#45;&gt;Node15</title>
<g id="a_edge17_Node000014_Node000015"><a xlink:title=" ">
<path fill="none" stroke="#63b8ff" d="M604.1,-120.8C606.84,-113.17 610.29,-103.57 613.43,-94.84"/>
<polygon fill="#63b8ff" stroke="#63b8ff" points="616.82,-95.76 616.91,-85.16 610.23,-93.39 616.82,-95.76"/>
</a>
</g>
</g>
<!-- Node17 -->
<g id="Node000017" class="node">
<title>Node17</title>
<g id="a_Node000017"><a xlink:href="TestTabView_8h.html" target="_top" xlink:title=" ">
<polygon fill="white" stroke="#666666" points="789.5,-79.5 704.5,-79.5 704.5,-60.5 789.5,-60.5 789.5,-79.5"/>
<text text-anchor="middle" x="747" y="-67.5" font-family="Helvetica,sans-Serif" font-size="10.00">TestTabView.h</text>
</a>
</g>
</g>
<!-- Node14&#45;&gt;Node17 -->
<g id="edge20_Node000014_Node000017" class="edge">
<title>Node14&#45;&gt;Node17</title>
<g id="a_edge20_Node000014_Node000017"><a xlink:title=" ">
<path fill="none" stroke="#63b8ff" d="M631.48,-120.95C657.32,-109.78 693.15,-94.29 718.03,-83.53"/>
<polygon fill="#63b8ff" stroke="#63b8ff" points="719.51,-86.7 727.3,-79.52 716.74,-80.27 719.51,-86.7"/>
</a>
</g>
</g>
<!-- Node15&#45;&gt;Node3 -->
<g id="edge18_Node000015_Node000003" class="edge">
<title>Node15&#45;&gt;Node3</title>
<g id="a_edge18_Node000015_Node000003"><a xlink:title=" ">
<path fill="none" stroke="#63b8ff" d="M586.55,-54.99C561.86,-45.23 529.22,-32.33 505.45,-22.93"/>
<polygon fill="#63b8ff" stroke="#63b8ff" points="506.44,-19.56 495.86,-19.14 503.87,-26.07 506.44,-19.56"/>
</a>
</g>
</g>
<!-- Node16 -->
<g id="Node000016" class="node">
<title>Node16</title>
<g id="a_Node000016"><a xlink:title=" ">
<polygon fill="#e0e0e0" stroke="#999999" points="586.5,-19 521.5,-19 521.5,0 586.5,0 586.5,-19"/>
<text text-anchor="middle" x="554" y="-7" font-family="Helvetica,sans-Serif" font-size="10.00">typeindex</text>
</a>
</g>
</g>
<!-- Node15&#45;&gt;Node16 -->
<g id="edge19_Node000015_Node000016" class="edge">
<title>Node15&#45;&gt;Node16</title>
<g id="a_edge19_Node000015_Node000016"><a xlink:title=" ">
<path fill="none" stroke="#63b8ff" d="M605.54,-54.84C595.37,-46.09 582.31,-34.85 571.88,-25.88"/>
<polygon fill="#63b8ff" stroke="#63b8ff" points="574.05,-23.13 564.19,-19.27 569.49,-28.44 574.05,-23.13"/>
</a>
</g>
</g>
<!-- Node18 -->
<g id="Node000018" class="node">
<title>Node18</title>
<g id="a_Node000018"><a xlink:title=" ">
<polygon fill="#e0e0e0" stroke="#999999" points="956.5,-19 897.5,-19 897.5,0 956.5,0 956.5,-19"/>
<text text-anchor="middle" x="927" y="-7" font-family="Helvetica,sans-Serif" font-size="10.00">QWidget</text>
</a>
</g>
</g>
<!-- Node17&#45;&gt;Node18 -->
<g id="edge21_Node000017_Node000018" class="edge">
<title>Node17&#45;&gt;Node18</title>
<g id="a_edge21_Node000017_Node000018"><a xlink:title=" ">
<path fill="none" stroke="#63b8ff" d="M773.17,-60.49C804.23,-50.4 856.19,-33.51 891.02,-22.19"/>
<polygon fill="#63b8ff" stroke="#63b8ff" points="892.37,-25.44 900.79,-19.02 890.2,-18.78 892.37,-25.44"/>
</a>
</g>
</g>
<!-- Node19 -->
<g id="Node000019" class="node">
<title>Node19</title>
<g id="a_Node000019"><a xlink:title=" ">
<polygon fill="#e0e0e0" stroke="#999999" points="784.5,-19 709.5,-19 709.5,0 784.5,0 784.5,-19"/>
<text text-anchor="middle" x="747" y="-7" font-family="Helvetica,sans-Serif" font-size="10.00">QTabWidget</text>
</a>
</g>
</g>
<!-- Node17&#45;&gt;Node19 -->
<g id="edge22_Node000017_Node000019" class="edge">
<title>Node17&#45;&gt;Node19</title>
<g id="a_edge22_Node000017_Node000019"><a xlink:title=" ">
<path fill="none" stroke="#63b8ff" d="M747,-60.37C747,-52.25 747,-39.81 747,-29.39"/>
<polygon fill="#63b8ff" stroke="#63b8ff" points="750.5,-29.17 747,-19.17 743.5,-29.17 750.5,-29.17"/>
</a>
</g>
</g>
<!-- Node20 -->
<g id="Node000020" class="node">
<title>Node20</title>
<g id="a_Node000020"><a xlink:title=" ">
<polygon fill="#e0e0e0" stroke="#999999" points="879.5,-19 802.5,-19 802.5,0 879.5,0 879.5,-19"/>
<text text-anchor="middle" x="841" y="-7" font-family="Helvetica,sans-Serif" font-size="10.00">QComboBox</text>
</a>
</g>
</g>
<!-- Node17&#45;&gt;Node20 -->
<g id="edge23_Node000017_Node000020" class="edge">
<title>Node17&#45;&gt;Node20</title>
<g id="a_edge23_Node000017_Node000020"><a xlink:title=" ">
<path fill="none" stroke="#63b8ff" d="M760.87,-60.37C776,-50.95 800.46,-35.73 818.38,-24.58"/>
<polygon fill="#63b8ff" stroke="#63b8ff" points="820.43,-27.42 827.07,-19.17 816.73,-21.48 820.43,-27.42"/>
</a>
</g>
</g>
<!-- Node21 -->
<g id="Node000021" class="node">
<title>Node21</title>
<g id="a_Node000021"><a xlink:title=" ">
<polygon fill="#e0e0e0" stroke="#999999" points="691.5,-19 604.5,-19 604.5,0 691.5,0 691.5,-19"/>
<text text-anchor="middle" x="648" y="-7" font-family="Helvetica,sans-Serif" font-size="10.00">QPlainTextEdit</text>
</a>
</g>
</g>
<!-- Node17&#45;&gt;Node21 -->
<g id="edge24_Node000017_Node000021" class="edge">
<title>Node17&#45;&gt;Node21</title>
<g id="a_edge24_Node000017_Node000021"><a xlink:title=" ">
<path fill="none" stroke="#63b8ff" d="M732.39,-60.37C716.31,-50.86 690.22,-35.45 671.3,-24.27"/>
<polygon fill="#63b8ff" stroke="#63b8ff" points="673.06,-21.24 662.67,-19.17 669.5,-27.27 673.06,-21.24"/>
</a>
</g>
</g>
<!-- Node22&#45;&gt;Node15 -->
<g id="edge26_Node000022_Node000015" class="edge">
<title>Node22&#45;&gt;Node15</title>
<g id="a_edge26_Node000022_Node000015"><a xlink:title=" ">
<path fill="none" stroke="#63b8ff" d="M717.23,-120.95C699.75,-111.78 676.72,-99.71 657.69,-89.72"/>
<polygon fill="#63b8ff" stroke="#63b8ff" points="659.19,-86.56 648.71,-85.01 655.94,-92.76 659.19,-86.56"/>
</a>
</g>
</g>
<!-- Node23 -->
<g id="Node000023" class="node">
<title>Node23</title>
<g id="a_Node000023"><a xlink:href="GraphicTabView_8h.html" target="_top" xlink:title=" ">
<polygon fill="white" stroke="#666666" points="910.5,-79.5 807.5,-79.5 807.5,-60.5 910.5,-60.5 910.5,-79.5"/>
<text text-anchor="middle" x="859" y="-67.5" font-family="Helvetica,sans-Serif" font-size="10.00">GraphicTabView.h</text>
</a>
</g>
</g>
<!-- Node22&#45;&gt;Node23 -->
<g id="edge27_Node000022_Node000023" class="edge">
<title>Node22&#45;&gt;Node23</title>
<g id="a_edge27_Node000022_Node000023"><a xlink:title=" ">
<path fill="none" stroke="#63b8ff" d="M769.24,-120.95C788.78,-110.08 815.68,-95.11 834.93,-84.4"/>
<polygon fill="#63b8ff" stroke="#63b8ff" points="836.66,-87.44 843.7,-79.52 833.26,-81.32 836.66,-87.44"/>
</a>
</g>
</g>
<!-- Node23&#45;&gt;Node18 -->
<g id="edge28_Node000023_Node000018" class="edge">
<title>Node23&#45;&gt;Node18</title>
<g id="a_edge28_Node000023_Node000018"><a xlink:title=" ">
<path fill="none" stroke="#63b8ff" d="M869.03,-60.37C879.58,-51.3 896.39,-36.84 909.19,-25.82"/>
<polygon fill="#63b8ff" stroke="#63b8ff" points="911.63,-28.34 916.93,-19.17 907.06,-23.04 911.63,-28.34"/>
</a>
</g>
</g>
<!-- Node25 -->
<g id="Node000025" class="node">
<title>Node25</title>
<g id="a_Node000025"><a xlink:href="FilesMenu_8h.html" target="_top" xlink:title=" ">
<polygon fill="white" stroke="#666666" points="1632.5,-79.5 1557.5,-79.5 1557.5,-60.5 1632.5,-60.5 1632.5,-79.5"/>
<text text-anchor="middle" x="1595" y="-67.5" font-family="Helvetica,sans-Serif" font-size="10.00">FilesMenu.h</text>
</a>
</g>
</g>
<!-- Node24&#45;&gt;Node25 -->
<g id="edge30_Node000024_Node000025" class="edge">
<title>Node24&#45;&gt;Node25</title>
<g id="a_edge30_Node000024_Node000025"><a xlink:title=" ">
<path fill="none" stroke="#63b8ff" d="M1583.33,-120.8C1585.46,-111.7 1588.25,-99.79 1590.57,-89.9"/>
<polygon fill="#63b8ff" stroke="#63b8ff" points="1594.05,-90.38 1592.93,-79.84 1587.24,-88.78 1594.05,-90.38"/>
</a>
</g>
</g>
<!-- Node26 -->
<g id="Node000026" class="node">
<title>Node26</title>
<g id="a_Node000026"><a xlink:title=" ">
<polygon fill="#e0e0e0" stroke="#999999" points="1718.5,-19 1667.5,-19 1667.5,0 1718.5,0 1718.5,-19"/>
<text text-anchor="middle" x="1693" y="-7" font-family="Helvetica,sans-Serif" font-size="10.00">QMenu</text>
</a>
</g>
</g>
<!-- Node25&#45;&gt;Node26 -->
<g id="edge31_Node000025_Node000026" class="edge">
<title>Node25&#45;&gt;Node26</title>
<g id="a_edge31_Node000025_Node000026"><a xlink:title=" ">
<path fill="none" stroke="#63b8ff" d="M1609.46,-60.37C1625.31,-50.91 1650.97,-35.59 1669.68,-24.42"/>
<polygon fill="#63b8ff" stroke="#63b8ff" points="1671.69,-27.3 1678.48,-19.17 1668.1,-21.29 1671.69,-27.3"/>
</a>
</g>
</g>
<!-- Node27 -->
<g id="Node000027" class="node">
<title>Node27</title>
<g id="a_Node000027"><a xlink:title=" ">
<polygon fill="#e0e0e0" stroke="#999999" points="1622.5,-19 1567.5,-19 1567.5,0 1622.5,0 1622.5,-19"/>
<text text-anchor="middle" x="1595" y="-7" font-family="Helvetica,sans-Serif" font-size="10.00">QAction</text>
</a>
</g>
</g>
<!-- Node25&#45;&gt;Node27 -->
<g id="edge32_Node000025_Node000027" class="edge">
<title>Node25&#45;&gt;Node27</title>
<g id="a_edge32_Node000025_Node000027"><a xlink:title=" ">
<path fill="none" stroke="#63b8ff" d="M1595,-60.37C1595,-52.25 1595,-39.81 1595,-29.39"/>
<polygon fill="#63b8ff" stroke="#63b8ff" points="1598.5,-29.17 1595,-19.17 1591.5,-29.17 1598.5,-29.17"/>
</a>
</g>
</g>
<!-- Node29 -->
<g id="Node000029" class="node">
<title>Node29</title>
<g id="a_Node000029"><a xlink:href="ToolsMenu_8h.html" target="_top" xlink:title=" ">
<polygon fill="white" stroke="#666666" points="1758.5,-79.5 1681.5,-79.5 1681.5,-60.5 1758.5,-60.5 1758.5,-79.5"/>
<text text-anchor="middle" x="1720" y="-67.5" font-family="Helvetica,sans-Serif" font-size="10.00">ToolsMenu.h</text>
</a>
</g>
</g>
<!-- Node28&#45;&gt;Node29 -->
<g id="edge34_Node000028_Node000029" class="edge">
<title>Node28&#45;&gt;Node29</title>
<g id="a_edge34_Node000028_Node000029"><a xlink:title=" ">
<path fill="none" stroke="#63b8ff" d="M1732.45,-120.8C1730.15,-111.6 1727.13,-99.53 1724.64,-89.58"/>
<polygon fill="#63b8ff" stroke="#63b8ff" points="1728.03,-88.7 1722.21,-79.84 1721.24,-90.39 1728.03,-88.7"/>
</a>
</g>
</g>
<!-- Node29&#45;&gt;Node26 -->
<g id="edge35_Node000029_Node000026" class="edge">
<title>Node29&#45;&gt;Node26</title>
<g id="a_edge35_Node000029_Node000026"><a xlink:title=" ">
<path fill="none" stroke="#63b8ff" d="M1716.02,-60.37C1712.15,-51.99 1706.16,-39.01 1701.26,-28.39"/>
<polygon fill="#63b8ff" stroke="#63b8ff" points="1704.37,-26.78 1697,-19.17 1698.01,-29.71 1704.37,-26.78"/>
</a>
</g>
</g>
<!-- Node31 -->
<g id="Node000031" class="node">
<title>Node31</title>
<g id="a_Node000031"><a xlink:href="Overlay_8h.html" target="_top" xlink:title=" ">
<polygon fill="white" stroke="#666666" points="991,-79.5 929,-79.5 929,-60.5 991,-60.5 991,-79.5"/>
<text text-anchor="middle" x="960" y="-67.5" font-family="Helvetica,sans-Serif" font-size="10.00">Overlay.h</text>
</a>
</g>
</g>
<!-- Node30&#45;&gt;Node31 -->
<g id="edge37_Node000030_Node000031" class="edge">
<title>Node30&#45;&gt;Node31</title>
<g id="a_edge37_Node000030_Node000031"><a xlink:title=" ">
<path fill="none" stroke="#63b8ff" d="M896.98,-120.8C909.98,-110.53 927.51,-96.67 940.79,-86.18"/>
<polygon fill="#63b8ff" stroke="#63b8ff" points="943.13,-88.79 948.81,-79.84 938.79,-83.3 943.13,-88.79"/>
</a>
</g>
</g>
<!-- Node31&#45;&gt;Node18 -->
<g id="edge38_Node000031_Node000018" class="edge">
<title>Node31&#45;&gt;Node18</title>
<g id="a_edge38_Node000031_Node000018"><a xlink:title=" ">
<path fill="none" stroke="#63b8ff" d="M955.13,-60.37C950.35,-51.9 942.93,-38.74 936.91,-28.07"/>
<polygon fill="#63b8ff" stroke="#63b8ff" points="939.85,-26.16 931.89,-19.17 933.75,-29.6 939.85,-26.16"/>
</a>
</g>
</g>
<!-- Node32&#45;&gt;Node3 -->
<g id="edge40_Node000032_Node000003" class="edge">
<title>Node32&#45;&gt;Node3</title>
<g id="a_edge40_Node000032_Node000003"><a xlink:title=" ">
<path fill="none" stroke="#63b8ff" d="M474,-54.84C474,-47.21 474,-37.7 474,-29.45"/>
<polygon fill="#63b8ff" stroke="#63b8ff" points="477.5,-29.27 474,-19.27 470.5,-29.27 477.5,-29.27"/>
</a>
</g>
</g>
<!-- Node33&#45;&gt;Node18 -->
<g id="edge42_Node000033_Node000018" class="edge">
<title>Node33&#45;&gt;Node18</title>
<g id="a_edge42_Node000033_Node000018"><a xlink:title=" ">
<path fill="none" stroke="#63b8ff" d="M1010.96,-120.76C1012.55,-103.74 1012.78,-75.03 1000,-55 990.97,-40.83 975.65,-30.49 961.37,-23.37"/>
<polygon fill="#63b8ff" stroke="#63b8ff" points="962.76,-20.15 952.21,-19.14 959.82,-26.51 962.76,-20.15"/>
</a>
</g>
</g>
<!-- Node34 -->
<g id="Node000034" class="node">
<title>Node34</title>
<g id="a_Node000034"><a xlink:href="Messages_8h.html" target="_top" xlink:title=" ">
<polygon fill="white" stroke="#666666" points="1185.5,-85 1082.5,-85 1082.5,-55 1185.5,-55 1185.5,-85"/>
<text text-anchor="start" x="1090.5" y="-73" font-family="Helvetica,sans-Serif" font-size="10.00">src/core/Protocols</text>
<text text-anchor="middle" x="1134" y="-62" font-family="Helvetica,sans-Serif" font-size="10.00">/Messages.h</text>
</a>
</g>
</g>
<!-- Node33&#45;&gt;Node34 -->
<g id="edge43_Node000033_Node000034" class="edge">
<title>Node33&#45;&gt;Node34</title>
<g id="a_edge43_Node000033_Node000034"><a xlink:title=" ">
<path fill="none" stroke="#63b8ff" d="M1036.43,-120.95C1054.42,-111.74 1078.15,-99.6 1097.7,-89.59"/>
<polygon fill="#63b8ff" stroke="#63b8ff" points="1099.33,-92.69 1106.63,-85.01 1096.14,-86.45 1099.33,-92.69"/>
</a>
</g>
</g>
<!-- Node34&#45;&gt;Node3 -->
<g id="edge50_Node000034_Node000003" class="edge">
<title>Node34&#45;&gt;Node3</title>
<g id="a_edge50_Node000034_Node000003"><a xlink:title=" ">
<path fill="none" stroke="#63b8ff" d="M1082.49,-63.25C1057.59,-60.56 1027.26,-57.43 1000,-55 783.38,-35.7 727.14,-50.82 512,-19 511.9,-18.99 511.8,-18.97 511.7,-18.96"/>
<polygon fill="#63b8ff" stroke="#63b8ff" points="512.59,-15.56 502.14,-17.28 511.38,-22.45 512.59,-15.56"/>
</a>
</g>
</g>
<!-- Node35 -->
<g id="Node000035" class="node">
<title>Node35</title>
<g id="a_Node000035"><a xlink:title=" ">
<polygon fill="#e0e0e0" stroke="#999999" points="1159.5,-19 1108.5,-19 1108.5,0 1159.5,0 1159.5,-19"/>
<text text-anchor="middle" x="1134" y="-7" font-family="Helvetica,sans-Serif" font-size="10.00">variant</text>
</a>
</g>
</g>
<!-- Node34&#45;&gt;Node35 -->
<g id="edge44_Node000034_Node000035" class="edge">
<title>Node34&#45;&gt;Node35</title>
<g id="a_edge44_Node000034_Node000035"><a xlink:title=" ">
<path fill="none" stroke="#63b8ff" d="M1134,-54.84C1134,-47.21 1134,-37.7 1134,-29.45"/>
<polygon fill="#63b8ff" stroke="#63b8ff" points="1137.5,-29.27 1134,-19.27 1130.5,-29.27 1137.5,-29.27"/>
</a>
</g>
</g>
<!-- Node36 -->
<g id="Node000036" class="node">
<title>Node36</title>
<g id="a_Node000036"><a xlink:title=" ">
<polygon fill="#e0e0e0" stroke="#999999" points="1228,-19 1178,-19 1178,0 1228,0 1228,-19"/>
<text text-anchor="middle" x="1203" y="-7" font-family="Helvetica,sans-Serif" font-size="10.00">cstdint</text>
</a>
</g>
</g>
<!-- Node34&#45;&gt;Node36 -->
<g id="edge45_Node000034_Node000036" class="edge">
<title>Node34&#45;&gt;Node36</title>
<g id="a_edge45_Node000034_Node000036"><a xlink:title=" ">
<path fill="none" stroke="#63b8ff" d="M1150.7,-54.84C1161.03,-46.09 1174.28,-34.85 1184.86,-25.88"/>
<polygon fill="#63b8ff" stroke="#63b8ff" points="1187.3,-28.4 1192.66,-19.27 1182.77,-23.06 1187.3,-28.4"/>
</a>
</g>
</g>
<!-- Node37 -->
<g id="Node000037" class="node">
<title>Node37</title>
<g id="a_Node000037"><a xlink:title=" ">
<polygon fill="#e0e0e0" stroke="#999999" points="1290,-19 1246,-19 1246,0 1290,0 1290,-19"/>
<text text-anchor="middle" x="1268" y="-7" font-family="Helvetica,sans-Serif" font-size="10.00">string</text>
</a>
</g>
</g>
<!-- Node34&#45;&gt;Node37 -->
<g id="edge46_Node000034_Node000037" class="edge">
<title>Node34&#45;&gt;Node37</title>
<g id="a_edge46_Node000034_Node000037"><a xlink:title=" ">
<path fill="none" stroke="#63b8ff" d="M1166.1,-54.99C1188.25,-45.31 1217.48,-32.56 1238.95,-23.18"/>
<polygon fill="#63b8ff" stroke="#63b8ff" points="1240.45,-26.35 1248.21,-19.14 1237.65,-19.93 1240.45,-26.35"/>
</a>
</g>
</g>
<!-- Node38 -->
<g id="Node000038" class="node">
<title>Node38</title>
<g id="a_Node000038"><a xlink:title=" ">
<polygon fill="#e0e0e0" stroke="#999999" points="1381.5,-19 1308.5,-19 1308.5,0 1381.5,0 1381.5,-19"/>
<text text-anchor="middle" x="1345" y="-7" font-family="Helvetica,sans-Serif" font-size="10.00">QByteArray</text>
</a>
</g>
</g>
<!-- Node34&#45;&gt;Node38 -->
<g id="edge47_Node000034_Node000038" class="edge">
<title>Node34&#45;&gt;Node38</title>
<g id="a_edge47_Node000034_Node000038"><a xlink:title=" ">
<path fill="none" stroke="#63b8ff" d="M1184.54,-54.99C1221.27,-44.8 1270.33,-31.2 1304.49,-21.73"/>
<polygon fill="#63b8ff" stroke="#63b8ff" points="1305.45,-25.1 1314.15,-19.05 1303.58,-18.35 1305.45,-25.1"/>
</a>
</g>
</g>
<!-- Node39 -->
<g id="Node000039" class="node">
<title>Node39</title>
<g id="a_Node000039"><a xlink:title=" ">
<polygon fill="#e0e0e0" stroke="#999999" points="1448.5,-19 1399.5,-19 1399.5,0 1448.5,0 1448.5,-19"/>
<text text-anchor="middle" x="1424" y="-7" font-family="Helvetica,sans-Serif" font-size="10.00">QHash</text>
</a>
</g>
</g>
<!-- Node34&#45;&gt;Node39 -->
<g id="edge48_Node000034_Node000039" class="edge">
<title>Node34&#45;&gt;Node39</title>
<g id="a_edge48_Node000034_Node000039"><a xlink:title=" ">
<path fill="none" stroke="#63b8ff" d="M1185.65,-59.73C1235.34,-50.63 1312.82,-35.95 1389.34,-19.05"/>
<polygon fill="#63b8ff" stroke="#63b8ff" points="1390.15,-22.46 1399.15,-16.87 1388.63,-15.62 1390.15,-22.46"/>
</a>
</g>
</g>
<!-- Node40 -->
<g id="Node000040" class="node">
<title>Node40</title>
<g id="a_Node000040"><a xlink:title=" ">
<polygon fill="#e0e0e0" stroke="#999999" points="1027.5,-19 974.5,-19 974.5,0 1027.5,0 1027.5,-19"/>
<text text-anchor="middle" x="1001" y="-7" font-family="Helvetica,sans-Serif" font-size="10.00">QString</text>
</a>
</g>
</g>
<!-- Node34&#45;&gt;Node40 -->
<g id="edge49_Node000034_Node000040" class="edge">
<title>Node34&#45;&gt;Node40</title>
<g id="a_edge49_Node000034_Node000040"><a xlink:title=" ">
<path fill="none" stroke="#63b8ff" d="M1102.14,-54.99C1080.15,-45.31 1051.15,-32.56 1029.84,-23.18"/>
<polygon fill="#63b8ff" stroke="#63b8ff" points="1031.2,-19.96 1020.64,-19.14 1028.39,-26.37 1031.2,-19.96"/>
</a>
</g>
</g>
<!-- Node41 -->
<g id="Node000041" class="node">
<title>Node41</title>
<g id="a_Node000041"><a xlink:title=" ">
<polygon fill="#e0e0e0" stroke="#999999" points="1090.5,-19 1045.5,-19 1045.5,0 1090.5,0 1090.5,-19"/>
<text text-anchor="middle" x="1068" y="-7" font-family="Helvetica,sans-Serif" font-size="10.00">QMap</text>
</a>
</g>
</g>
<!-- Node34&#45;&gt;Node41 -->
<g id="edge51_Node000034_Node000041" class="edge">
<title>Node34&#45;&gt;Node41</title>
<g id="a_edge51_Node000034_Node000041"><a xlink:title=" ">
<path fill="none" stroke="#63b8ff" d="M1118.02,-54.84C1108.25,-46.17 1095.73,-35.08 1085.66,-26.15"/>
<polygon fill="#63b8ff" stroke="#63b8ff" points="1087.69,-23.28 1077.89,-19.27 1083.05,-28.52 1087.69,-23.28"/>
</a>
</g>
</g>
</g>
</svg>
