<?xml version="1.0" encoding="UTF-8" standalone="no"?>
<!DOCTYPE svg PUBLIC "-//W3C//DTD SVG 1.1//EN"
 "http://www.w3.org/Graphics/SVG/1.1/DTD/svg11.dtd">
<!-- Generated by graphviz version 2.43.0 (0)
 -->
<!-- Title: app/main.cpp Pages: 1 -->
<svg width="1590pt" height="390pt"
 viewBox="0.00 0.00 1589.64 390.00" xmlns="http://www.w3.org/2000/svg" xmlns:xlink="http://www.w3.org/1999/xlink">
<g id="graph0" class="graph" transform="scale(1 1) rotate(0) translate(4 386)">
<title>app/main.cpp</title>
<!-- Node1 -->
<g id="Node000001" class="node">
<title>Node1</title>
<g id="a_Node000001"><a xlink:title=" ">
<polygon fill="#999999" stroke="#666666" points="628,-382 545,-382 545,-363 628,-363 628,-382"/>
<text text-anchor="middle" x="586.5" y="-370" font-family="Helvetica,sans-Serif" font-size="10.00">app/main.cpp</text>
</a>
</g>
</g>
<!-- Node2 -->
<g id="Node000002" class="node">
<title>Node2</title>
<g id="a_Node000002"><a xlink:title=" ">
<polygon fill="#e0e0e0" stroke="#999999" points="79,-321.5 0,-321.5 0,-302.5 79,-302.5 79,-321.5"/>
<text text-anchor="middle" x="39.5" y="-309.5" font-family="Helvetica,sans-Serif" font-size="10.00">QApplication</text>
</a>
</g>
</g>
<!-- Node1&#45;&gt;Node2 -->
<g id="edge1_Node000001_Node000002" class="edge">
<title>Node1&#45;&gt;Node2</title>
<g id="a_edge1_Node000001_Node000002"><a xlink:title=" ">
<path fill="none" stroke="#63b8ff" d="M544.97,-370.05C459.77,-366.56 259.25,-355.77 93.5,-327 88.68,-326.16 83.67,-325.11 78.72,-323.97"/>
<polygon fill="#63b8ff" stroke="#63b8ff" points="79.28,-320.5 68.74,-321.51 77.61,-327.3 79.28,-320.5"/>
</a>
</g>
</g>
<!-- Node3 -->
<g id="Node000003" class="node">
<title>Node3</title>
<g id="a_Node000003"><a xlink:title=" ">
<polygon fill="#e0e0e0" stroke="#999999" points="197,-261 110,-261 110,-242 197,-242 197,-261"/>
<text text-anchor="middle" x="153.5" y="-249" font-family="Helvetica,sans-Serif" font-size="10.00">QMainWindow</text>
</a>
</g>
</g>
<!-- Node1&#45;&gt;Node3 -->
<g id="edge2_Node000001_Node000003" class="edge">
<title>Node1&#45;&gt;Node3</title>
<g id="a_edge2_Node000001_Node000003"><a xlink:title=" ">
<path fill="none" stroke="#63b8ff" d="M544.68,-370.59C436.58,-367.81 154.34,-357.67 126.5,-327 111.7,-310.69 125.97,-285.65 138.74,-269.17"/>
<polygon fill="#63b8ff" stroke="#63b8ff" points="141.46,-271.37 145.12,-261.42 136.06,-266.92 141.46,-271.37"/>
</a>
</g>
</g>
<!-- Node4 -->
<g id="Node000004" class="node">
<title>Node4</title>
<g id="a_Node000004"><a xlink:title=" ">
<polygon fill="#e0e0e0" stroke="#999999" points="1563.5,-145.5 1507.5,-145.5 1507.5,-126.5 1563.5,-126.5 1563.5,-145.5"/>
<text text-anchor="middle" x="1535.5" y="-133.5" font-family="Helvetica,sans-Serif" font-size="10.00">QDebug</text>
</a>
</g>
</g>
<!-- Node1&#45;&gt;Node4 -->
<g id="edge3_Node000001_Node000004" class="edge">
<title>Node1&#45;&gt;Node4</title>
<g id="a_edge3_Node000001_Node000004"><a xlink:title=" ">
<path fill="none" stroke="#63b8ff" d="M628.09,-367.6C702.91,-360.46 865.11,-344.42 1001.5,-327 1260.98,-293.86 1432.69,-423.85 1577.5,-206 1589.53,-187.9 1571.6,-166.43 1555.58,-152.3"/>
<polygon fill="#63b8ff" stroke="#63b8ff" points="1557.47,-149.32 1547.54,-145.63 1553.01,-154.71 1557.47,-149.32"/>
</a>
</g>
</g>
<!-- Node5 -->
<g id="Node000005" class="node">
<title>Node5</title>
<g id="a_Node000005"><a xlink:href="MainWindow_8h.html" target="_top" xlink:title=" ">
<polygon fill="white" stroke="#666666" points="261.5,-321.5 135.5,-321.5 135.5,-302.5 261.5,-302.5 261.5,-321.5"/>
<text text-anchor="middle" x="198.5" y="-309.5" font-family="Helvetica,sans-Serif" font-size="10.00">src/app/MainWindow.h</text>
</a>
</g>
</g>
<!-- Node1&#45;&gt;Node5 -->
<g id="edge4_Node000001_Node000005" class="edge">
<title>Node1&#45;&gt;Node5</title>
<g id="a_edge4_Node000001_Node000005"><a xlink:title=" ">
<path fill="none" stroke="#63b8ff" d="M544.99,-366.36C484.48,-358.7 368.58,-343.43 270.5,-327 263.92,-325.9 257.01,-324.66 250.19,-323.39"/>
<polygon fill="#63b8ff" stroke="#63b8ff" points="250.79,-319.94 240.31,-321.51 249.48,-326.82 250.79,-319.94"/>
</a>
</g>
</g>
<!-- Node7 -->
<g id="Node000007" class="node">
<title>Node7</title>
<g id="a_Node000007"><a xlink:href="AppViewModels_8h.html" target="_top" xlink:title=" ">
<polygon fill="white" stroke="#666666" points="407.5,-327 279.5,-327 279.5,-297 407.5,-297 407.5,-327"/>
<text text-anchor="start" x="287.5" y="-315" font-family="Helvetica,sans-Serif" font-size="10.00">src/mvvm/viewmodels</text>
<text text-anchor="middle" x="343.5" y="-304" font-family="Helvetica,sans-Serif" font-size="10.00">/AppViewModels.h</text>
</a>
</g>
</g>
<!-- Node1&#45;&gt;Node7 -->
<g id="edge7_Node000001_Node000007" class="edge">
<title>Node1&#45;&gt;Node7</title>
<g id="a_edge7_Node000001_Node000007"><a xlink:title=" ">
<path fill="none" stroke="#63b8ff" d="M551.17,-362.99C514.74,-354.23 457.04,-340.33 411.69,-329.42"/>
<polygon fill="#63b8ff" stroke="#63b8ff" points="412.46,-326 401.92,-327.06 410.82,-332.81 412.46,-326"/>
</a>
</g>
</g>
<!-- Node9 -->
<g id="Node000009" class="node">
<title>Node9</title>
<g id="a_Node000009"><a xlink:href="AppServices_8h.html" target="_top" xlink:title=" ">
<polygon fill="white" stroke="#666666" points="571.5,-321.5 425.5,-321.5 425.5,-302.5 571.5,-302.5 571.5,-321.5"/>
<text text-anchor="middle" x="498.5" y="-309.5" font-family="Helvetica,sans-Serif" font-size="10.00">src/services/AppServices.h</text>
</a>
</g>
</g>
<!-- Node1&#45;&gt;Node9 -->
<g id="edge10_Node000001_Node000009" class="edge">
<title>Node1&#45;&gt;Node9</title>
<g id="a_edge10_Node000001_Node000009"><a xlink:title=" ">
<path fill="none" stroke="#63b8ff" d="M573.52,-362.87C559.48,-353.54 536.87,-338.51 520.14,-327.38"/>
<polygon fill="#63b8ff" stroke="#63b8ff" points="521.8,-324.29 511.54,-321.67 517.93,-330.12 521.8,-324.29"/>
</a>
</g>
</g>
<!-- Node10 -->
<g id="Node000010" class="node">
<title>Node10</title>
<g id="a_Node000010"><a xlink:href="AppModels_8h.html" target="_top" xlink:title=" ">
<polygon fill="white" stroke="#666666" points="759.5,-321.5 589.5,-321.5 589.5,-302.5 759.5,-302.5 759.5,-321.5"/>
<text text-anchor="middle" x="674.5" y="-309.5" font-family="Helvetica,sans-Serif" font-size="10.00">src/mvvm/models/AppModels.h</text>
</a>
</g>
</g>
<!-- Node1&#45;&gt;Node10 -->
<g id="edge13_Node000001_Node000010" class="edge">
<title>Node1&#45;&gt;Node10</title>
<g id="a_edge13_Node000001_Node000010"><a xlink:title=" ">
<path fill="none" stroke="#63b8ff" d="M599.48,-362.87C613.52,-353.54 636.13,-338.51 652.86,-327.38"/>
<polygon fill="#63b8ff" stroke="#63b8ff" points="655.07,-330.12 661.46,-321.67 651.2,-324.29 655.07,-330.12"/>
</a>
</g>
</g>
<!-- Node11 -->
<g id="Node000011" class="node">
<title>Node11</title>
<g id="a_Node000011"><a xlink:href="UdpChannel_8h.html" target="_top" xlink:title=" ">
<polygon fill="white" stroke="#666666" points="969,-327 816,-327 816,-297 969,-297 969,-327"/>
<text text-anchor="start" x="824" y="-315" font-family="Helvetica,sans-Serif" font-size="10.00">src/features/communication</text>
<text text-anchor="middle" x="892.5" y="-304" font-family="Helvetica,sans-Serif" font-size="10.00">/udp/UdpChannel.h</text>
</a>
</g>
</g>
<!-- Node1&#45;&gt;Node11 -->
<g id="edge16_Node000001_Node000011" class="edge">
<title>Node1&#45;&gt;Node11</title>
<g id="a_edge16_Node000001_Node000011"><a xlink:title=" ">
<path fill="none" stroke="#63b8ff" d="M628.09,-363.55C674.43,-354.69 750.56,-340.14 809.25,-328.91"/>
<polygon fill="#63b8ff" stroke="#63b8ff" points="810.09,-332.32 819.26,-327 808.78,-325.44 810.09,-332.32"/>
</a>
</g>
</g>
<!-- Node27 -->
<g id="Node000027" class="node">
<title>Node27</title>
<g id="a_Node000027"><a xlink:href="Logger_8h.html" target="_top" xlink:title=" ">
<polygon fill="white" stroke="#666666" points="1052.5,-151 942.5,-151 942.5,-121 1052.5,-121 1052.5,-151"/>
<text text-anchor="start" x="950.5" y="-139" font-family="Helvetica,sans-Serif" font-size="10.00">src/services/Logger</text>
<text text-anchor="middle" x="997.5" y="-128" font-family="Helvetica,sans-Serif" font-size="10.00">/Logger.h</text>
</a>
</g>
</g>
<!-- Node1&#45;&gt;Node27 -->
<g id="edge50_Node000001_Node000027" class="edge">
<title>Node1&#45;&gt;Node27</title>
<g id="a_edge50_Node000001_Node000027"><a xlink:title=" ">
<path fill="none" stroke="#63b8ff" d="M628.22,-369.68C724.18,-365.09 954.21,-351.62 978.5,-327 1022.21,-282.7 1012.03,-201.2 1003.49,-160.88"/>
<polygon fill="#63b8ff" stroke="#63b8ff" points="1006.9,-160.1 1001.28,-151.12 1000.08,-161.64 1006.9,-160.1"/>
</a>
</g>
</g>
<!-- Node33 -->
<g id="Node000033" class="node">
<title>Node33</title>
<g id="a_Node000033"><a xlink:href="FileSystem_8h.html" target="_top" xlink:title=" ">
<polygon fill="white" stroke="#666666" points="788,-85 657,-85 657,-55 788,-55 788,-85"/>
<text text-anchor="start" x="665" y="-73" font-family="Helvetica,sans-Serif" font-size="10.00">src/services/FileSystem</text>
<text text-anchor="middle" x="722.5" y="-62" font-family="Helvetica,sans-Serif" font-size="10.00">/FileSystem.h</text>
</a>
</g>
</g>
<!-- Node1&#45;&gt;Node33 -->
<g id="edge51_Node000001_Node000033" class="edge">
<title>Node1&#45;&gt;Node33</title>
<g id="a_edge51_Node000001_Node000033"><a xlink:title=" ">
<path fill="none" stroke="#63b8ff" d="M628.11,-367.22C676.33,-361.31 751.38,-348.81 768.5,-327 823.65,-256.74 766.11,-142.21 737.1,-93.77"/>
<polygon fill="#63b8ff" stroke="#63b8ff" points="739.93,-91.7 731.72,-85 733.96,-95.36 739.93,-91.7"/>
</a>
</g>
</g>
<!-- Node5&#45;&gt;Node3 -->
<g id="edge5_Node000005_Node000003" class="edge">
<title>Node5&#45;&gt;Node3</title>
<g id="a_edge5_Node000005_Node000003"><a xlink:title=" ">
<path fill="none" stroke="#63b8ff" d="M191.86,-302.37C185.21,-293.73 174.81,-280.2 166.51,-269.42"/>
<polygon fill="#63b8ff" stroke="#63b8ff" points="169.04,-266.96 160.17,-261.17 163.49,-271.23 169.04,-266.96"/>
</a>
</g>
</g>
<!-- Node6 -->
<g id="Node000006" class="node">
<title>Node6</title>
<g id="a_Node000006"><a xlink:title=" ">
<polygon fill="#e0e0e0" stroke="#999999" points="656.5,-19 600.5,-19 600.5,0 656.5,0 656.5,-19"/>
<text text-anchor="middle" x="628.5" y="-7" font-family="Helvetica,sans-Serif" font-size="10.00">QObject</text>
</a>
</g>
</g>
<!-- Node5&#45;&gt;Node6 -->
<g id="edge6_Node000005_Node000006" class="edge">
<title>Node5&#45;&gt;Node6</title>
<g id="a_edge6_Node000005_Node000006"><a xlink:title=" ">
<path fill="none" stroke="#63b8ff" d="M214.08,-302.34C241.5,-285.82 295.5,-247.01 295.5,-197.5 295.5,-197.5 295.5,-197.5 295.5,-135 295.5,-69.79 358.25,-79.96 418.5,-55 475.75,-31.28 547.23,-19.6 590.3,-14.33"/>
<polygon fill="#63b8ff" stroke="#63b8ff" points="590.83,-17.79 600.35,-13.15 590.01,-10.84 590.83,-17.79"/>
</a>
</g>
</g>
<!-- Node7&#45;&gt;Node6 -->
<g id="edge8_Node000007_Node000006" class="edge">
<title>Node7&#45;&gt;Node6</title>
<g id="a_edge8_Node000007_Node000006"><a xlink:title=" ">
<path fill="none" stroke="#63b8ff" d="M356.59,-296.82C373.98,-276.46 402.5,-237.03 402.5,-197.5 402.5,-197.5 402.5,-197.5 402.5,-135 402.5,-50.35 525.66,-22.83 590.14,-14.22"/>
<polygon fill="#63b8ff" stroke="#63b8ff" points="590.84,-17.66 600.33,-12.96 589.98,-10.72 590.84,-17.66"/>
</a>
</g>
</g>
<!-- Node8 -->
<g id="Node000008" class="node">
<title>Node8</title>
<g id="a_Node000008"><a xlink:title=" ">
<polygon fill="#e0e0e0" stroke="#999999" points="592,-261 527,-261 527,-242 592,-242 592,-261"/>
<text text-anchor="middle" x="559.5" y="-249" font-family="Helvetica,sans-Serif" font-size="10.00">typeindex</text>
</a>
</g>
</g>
<!-- Node7&#45;&gt;Node8 -->
<g id="edge9_Node000007_Node000008" class="edge">
<title>Node7&#45;&gt;Node8</title>
<g id="a_edge9_Node000007_Node000008"><a xlink:title=" ">
<path fill="none" stroke="#63b8ff" d="M395.24,-296.99C432.84,-286.8 483.06,-273.2 518.03,-263.73"/>
<polygon fill="#63b8ff" stroke="#63b8ff" points="519.18,-267.05 527.92,-261.05 517.35,-260.29 519.18,-267.05"/>
</a>
</g>
</g>
<!-- Node9&#45;&gt;Node6 -->
<g id="edge11_Node000009_Node000006" class="edge">
<title>Node9&#45;&gt;Node6</title>
<g id="a_edge11_Node000009_Node000006"><a xlink:title=" ">
<path fill="none" stroke="#63b8ff" d="M498.5,-302.46C498.5,-283.55 498.5,-236.71 498.5,-197.5 498.5,-197.5 498.5,-197.5 498.5,-135 498.5,-80.12 559.68,-41.95 598.1,-23.38"/>
<polygon fill="#63b8ff" stroke="#63b8ff" points="599.74,-26.48 607.32,-19.09 596.78,-20.14 599.74,-26.48"/>
</a>
</g>
</g>
<!-- Node9&#45;&gt;Node8 -->
<g id="edge12_Node000009_Node000008" class="edge">
<title>Node9&#45;&gt;Node8</title>
<g id="a_edge12_Node000009_Node000008"><a xlink:title=" ">
<path fill="none" stroke="#63b8ff" d="M507.5,-302.37C516.87,-293.38 531.75,-279.11 543.2,-268.14"/>
<polygon fill="#63b8ff" stroke="#63b8ff" points="545.67,-270.62 550.46,-261.17 540.82,-265.56 545.67,-270.62"/>
</a>
</g>
</g>
<!-- Node10&#45;&gt;Node6 -->
<g id="edge14_Node000010_Node000006" class="edge">
<title>Node10&#45;&gt;Node6</title>
<g id="a_edge14_Node000010_Node000006"><a xlink:title=" ">
<path fill="none" stroke="#63b8ff" d="M668.3,-302.37C655.74,-284.02 628.5,-239.39 628.5,-197.5 628.5,-197.5 628.5,-197.5 628.5,-135 628.5,-97.49 628.5,-53.63 628.5,-29.26"/>
<polygon fill="#63b8ff" stroke="#63b8ff" points="632,-29.25 628.5,-19.25 625,-29.25 632,-29.25"/>
</a>
</g>
</g>
<!-- Node10&#45;&gt;Node8 -->
<g id="edge15_Node000010_Node000008" class="edge">
<title>Node10&#45;&gt;Node8</title>
<g id="a_edge15_Node000010_Node000008"><a xlink:title=" ">
<path fill="none" stroke="#63b8ff" d="M657.53,-302.37C638.59,-292.73 607.71,-277.03 585.67,-265.81"/>
<polygon fill="#63b8ff" stroke="#63b8ff" points="587.04,-262.58 576.54,-261.17 583.86,-268.82 587.04,-262.58"/>
</a>
</g>
</g>
<!-- Node11&#45;&gt;Node6 -->
<g id="edge17_Node000011_Node000006" class="edge">
<title>Node11&#45;&gt;Node6</title>
<g id="a_edge17_Node000011_Node000006"><a xlink:title=" ">
<path fill="none" stroke="#63b8ff" d="M871.11,-296.84C859.08,-287.87 844.67,-275.29 835.5,-261 819.59,-236.21 816.5,-226.96 816.5,-197.5 816.5,-197.5 816.5,-197.5 816.5,-135 816.5,-98.46 823.03,-81.15 797.5,-55 779.5,-36.56 710.97,-23 666.9,-15.96"/>
<polygon fill="#63b8ff" stroke="#63b8ff" points="667.23,-12.47 656.81,-14.39 666.15,-19.38 667.23,-12.47"/>
</a>
</g>
</g>
<!-- Node12 -->
<g id="Node000012" class="node">
<title>Node12</title>
<g id="a_Node000012"><a xlink:title=" ">
<polygon fill="#e0e0e0" stroke="#999999" points="1437.5,-261 1379.5,-261 1379.5,-242 1437.5,-242 1437.5,-261"/>
<text text-anchor="middle" x="1408.5" y="-249" font-family="Helvetica,sans-Serif" font-size="10.00">QThread</text>
</a>
</g>
</g>
<!-- Node11&#45;&gt;Node12 -->
<g id="edge18_Node000011_Node000012" class="edge">
<title>Node11&#45;&gt;Node12</title>
<g id="a_edge18_Node000011_Node000012"><a xlink:title=" ">
<path fill="none" stroke="#63b8ff" d="M969.03,-305.74C1061.59,-298.76 1222.27,-284.68 1369.01,-261.07"/>
<polygon fill="#63b8ff" stroke="#63b8ff" points="1369.8,-264.49 1379.11,-259.43 1368.67,-257.58 1369.8,-264.49"/>
</a>
</g>
</g>
<!-- Node13 -->
<g id="Node000013" class="node">
<title>Node13</title>
<g id="a_Node000013"><a xlink:title=" ">
<polygon fill="#e0e0e0" stroke="#999999" points="920.5,-261 844.5,-261 844.5,-242 920.5,-242 920.5,-261"/>
<text text-anchor="middle" x="882.5" y="-249" font-family="Helvetica,sans-Serif" font-size="10.00">QUdpSocket</text>
</a>
</g>
</g>
<!-- Node11&#45;&gt;Node13 -->
<g id="edge19_Node000011_Node000013" class="edge">
<title>Node11&#45;&gt;Node13</title>
<g id="a_edge19_Node000011_Node000013"><a xlink:title=" ">
<path fill="none" stroke="#63b8ff" d="M890.08,-296.84C888.76,-289.13 887.11,-279.49 885.69,-271.17"/>
<polygon fill="#63b8ff" stroke="#63b8ff" points="889.13,-270.53 884,-261.27 882.23,-271.71 889.13,-270.53"/>
</a>
</g>
</g>
<!-- Node14 -->
<g id="Node000014" class="node">
<title>Node14</title>
<g id="a_Node000014"><a xlink:href="Messages_8h.html" target="_top" xlink:title=" ">
<polygon fill="white" stroke="#666666" points="966,-85 863,-85 863,-55 966,-55 966,-85"/>
<text text-anchor="start" x="871" y="-73" font-family="Helvetica,sans-Serif" font-size="10.00">src/core/Protocols</text>
<text text-anchor="middle" x="914.5" y="-62" font-family="Helvetica,sans-Serif" font-size="10.00">/Messages.h</text>
</a>
</g>
</g>
<!-- Node11&#45;&gt;Node14 -->
<g id="edge20_Node000011_Node000014" class="edge">
<title>Node11&#45;&gt;Node14</title>
<g id="a_edge20_Node000011_Node000014"><a xlink:title=" ">
<path fill="none" stroke="#63b8ff" d="M906.99,-296.7C915.34,-287.41 925.04,-274.54 929.5,-261 939.44,-230.87 926.07,-139.28 918.74,-95.2"/>
<polygon fill="#63b8ff" stroke="#63b8ff" points="922.14,-94.36 917.02,-85.09 915.24,-95.53 922.14,-94.36"/>
</a>
</g>
</g>
<!-- Node22 -->
<g id="Node000022" class="node">
<title>Node22</title>
<g id="a_Node000022"><a xlink:href="UdpLogger_8h.html" target="_top" xlink:title=" ">
<polygon fill="white" stroke="#666666" points="1361,-261 1210,-261 1210,-242 1361,-242 1361,-261"/>
<text text-anchor="middle" x="1285.5" y="-249" font-family="Helvetica,sans-Serif" font-size="10.00">frames_logger/UdpLogger.h</text>
</a>
</g>
</g>
<!-- Node11&#45;&gt;Node22 -->
<g id="edge29_Node000011_Node000022" class="edge">
<title>Node11&#45;&gt;Node22</title>
<g id="a_edge29_Node000011_Node000022"><a xlink:title=" ">
<path fill="none" stroke="#63b8ff" d="M969.21,-299.58C1041.6,-288.81 1149.06,-272.81 1218.2,-262.52"/>
<polygon fill="#63b8ff" stroke="#63b8ff" points="1218.74,-265.98 1228.11,-261.04 1217.7,-259.05 1218.74,-265.98"/>
</a>
</g>
</g>
<!-- Node14&#45;&gt;Node6 -->
<g id="edge27_Node000014_Node000006" class="edge">
<title>Node14&#45;&gt;Node6</title>
<g id="a_edge27_Node000014_Node000006"><a xlink:title=" ">
<path fill="none" stroke="#63b8ff" d="M862.71,-58.41C806.23,-46.85 717.19,-28.64 666.72,-18.32"/>
<polygon fill="#63b8ff" stroke="#63b8ff" points="667.37,-14.88 656.87,-16.3 665.96,-21.74 667.37,-14.88"/>
</a>
</g>
</g>
<!-- Node15 -->
<g id="Node000015" class="node">
<title>Node15</title>
<g id="a_Node000015"><a xlink:title=" ">
<polygon fill="#e0e0e0" stroke="#999999" points="949,-19 898,-19 898,0 949,0 949,-19"/>
<text text-anchor="middle" x="923.5" y="-7" font-family="Helvetica,sans-Serif" font-size="10.00">variant</text>
</a>
</g>
</g>
<!-- Node14&#45;&gt;Node15 -->
<g id="edge21_Node000014_Node000015" class="edge">
<title>Node14&#45;&gt;Node15</title>
<g id="a_edge21_Node000014_Node000015"><a xlink:title=" ">
<path fill="none" stroke="#63b8ff" d="M916.68,-54.84C917.87,-47.13 919.35,-37.49 920.63,-29.17"/>
<polygon fill="#63b8ff" stroke="#63b8ff" points="924.09,-29.68 922.15,-19.27 917.17,-28.62 924.09,-29.68"/>
</a>
</g>
</g>
<!-- Node16 -->
<g id="Node000016" class="node">
<title>Node16</title>
<g id="a_Node000016"><a xlink:title=" ">
<polygon fill="#e0e0e0" stroke="#999999" points="1253.5,-19 1203.5,-19 1203.5,0 1253.5,0 1253.5,-19"/>
<text text-anchor="middle" x="1228.5" y="-7" font-family="Helvetica,sans-Serif" font-size="10.00">cstdint</text>
</a>
</g>
</g>
<!-- Node14&#45;&gt;Node16 -->
<g id="edge22_Node000014_Node000016" class="edge">
<title>Node14&#45;&gt;Node16</title>
<g id="a_edge22_Node000014_Node000016"><a xlink:title=" ">
<path fill="none" stroke="#63b8ff" d="M966.04,-56.97C969.24,-56.29 972.41,-55.63 975.5,-55 1052.87,-39.33 1144.21,-24.05 1193.2,-16.12"/>
<polygon fill="#63b8ff" stroke="#63b8ff" points="1193.97,-19.54 1203.28,-14.49 1192.85,-12.63 1193.97,-19.54"/>
</a>
</g>
</g>
<!-- Node17 -->
<g id="Node000017" class="node">
<title>Node17</title>
<g id="a_Node000017"><a xlink:title=" ">
<polygon fill="#e0e0e0" stroke="#999999" points="1102.5,-19 1058.5,-19 1058.5,0 1102.5,0 1102.5,-19"/>
<text text-anchor="middle" x="1080.5" y="-7" font-family="Helvetica,sans-Serif" font-size="10.00">string</text>
</a>
</g>
</g>
<!-- Node14&#45;&gt;Node17 -->
<g id="edge23_Node000014_Node000017" class="edge">
<title>Node14&#45;&gt;Node17</title>
<g id="a_edge23_Node000014_Node000017"><a xlink:title=" ">
<path fill="none" stroke="#63b8ff" d="M954.26,-54.99C983.18,-44.8 1021.81,-31.18 1048.69,-21.71"/>
<polygon fill="#63b8ff" stroke="#63b8ff" points="1050.11,-24.92 1058.37,-18.3 1047.78,-18.32 1050.11,-24.92"/>
</a>
</g>
</g>
<!-- Node18 -->
<g id="Node000018" class="node">
<title>Node18</title>
<g id="a_Node000018"><a xlink:title=" ">
<polygon fill="#e0e0e0" stroke="#999999" points="1040,-19 967,-19 967,0 1040,0 1040,-19"/>
<text text-anchor="middle" x="1003.5" y="-7" font-family="Helvetica,sans-Serif" font-size="10.00">QByteArray</text>
</a>
</g>
</g>
<!-- Node14&#45;&gt;Node18 -->
<g id="edge24_Node000014_Node000018" class="edge">
<title>Node14&#45;&gt;Node18</title>
<g id="a_edge24_Node000014_Node000018"><a xlink:title=" ">
<path fill="none" stroke="#63b8ff" d="M936.04,-54.84C949.97,-45.68 968.03,-33.82 981.95,-24.66"/>
<polygon fill="#63b8ff" stroke="#63b8ff" points="983.99,-27.51 990.42,-19.09 980.15,-21.66 983.99,-27.51"/>
</a>
</g>
</g>
<!-- Node19 -->
<g id="Node000019" class="node">
<title>Node19</title>
<g id="a_Node000019"><a xlink:title=" ">
<polygon fill="#e0e0e0" stroke="#999999" points="746,-19 697,-19 697,0 746,0 746,-19"/>
<text text-anchor="middle" x="721.5" y="-7" font-family="Helvetica,sans-Serif" font-size="10.00">QHash</text>
</a>
</g>
</g>
<!-- Node14&#45;&gt;Node19 -->
<g id="edge25_Node000014_Node000019" class="edge">
<title>Node14&#45;&gt;Node19</title>
<g id="a_edge25_Node000014_Node000019"><a xlink:title=" ">
<path fill="none" stroke="#63b8ff" d="M868.27,-54.99C833.66,-44.5 787.07,-30.37 755.74,-20.88"/>
<polygon fill="#63b8ff" stroke="#63b8ff" points="756.73,-17.52 746.15,-17.97 754.7,-24.22 756.73,-17.52"/>
</a>
</g>
</g>
<!-- Node20 -->
<g id="Node000020" class="node">
<title>Node20</title>
<g id="a_Node000020"><a xlink:title=" ">
<polygon fill="#e0e0e0" stroke="#999999" points="817,-19 764,-19 764,0 817,0 817,-19"/>
<text text-anchor="middle" x="790.5" y="-7" font-family="Helvetica,sans-Serif" font-size="10.00">QString</text>
</a>
</g>
</g>
<!-- Node14&#45;&gt;Node20 -->
<g id="edge26_Node000014_Node000020" class="edge">
<title>Node14&#45;&gt;Node20</title>
<g id="a_edge26_Node000014_Node000020"><a xlink:title=" ">
<path fill="none" stroke="#63b8ff" d="M884.8,-54.99C864.48,-45.4 837.74,-32.79 817.92,-23.44"/>
<polygon fill="#63b8ff" stroke="#63b8ff" points="819.35,-20.24 808.81,-19.14 816.36,-26.57 819.35,-20.24"/>
</a>
</g>
</g>
<!-- Node21 -->
<g id="Node000021" class="node">
<title>Node21</title>
<g id="a_Node000021"><a xlink:title=" ">
<polygon fill="#e0e0e0" stroke="#999999" points="880,-19 835,-19 835,0 880,0 880,-19"/>
<text text-anchor="middle" x="857.5" y="-7" font-family="Helvetica,sans-Serif" font-size="10.00">QMap</text>
</a>
</g>
</g>
<!-- Node14&#45;&gt;Node21 -->
<g id="edge28_Node000014_Node000021" class="edge">
<title>Node14&#45;&gt;Node21</title>
<g id="a_edge28_Node000014_Node000021"><a xlink:title=" ">
<path fill="none" stroke="#63b8ff" d="M900.7,-54.84C892.43,-46.35 881.88,-35.52 873.27,-26.69"/>
<polygon fill="#63b8ff" stroke="#63b8ff" points="875.53,-23.99 866.04,-19.27 870.51,-28.87 875.53,-23.99"/>
</a>
</g>
</g>
<!-- Node22&#45;&gt;Node16 -->
<g id="edge45_Node000022_Node000016" class="edge">
<title>Node22&#45;&gt;Node16</title>
<g id="a_edge45_Node000022_Node000016"><a xlink:title=" ">
<path fill="none" stroke="#63b8ff" d="M1302.3,-241.99C1328.81,-227.5 1379.39,-195.24 1399.5,-151 1405.02,-138.86 1405.88,-132.71 1399.5,-121 1370.69,-68.09 1304.44,-36.65 1263.38,-21.55"/>
<polygon fill="#63b8ff" stroke="#63b8ff" points="1264.36,-18.18 1253.77,-18.14 1262.03,-24.78 1264.36,-18.18"/>
</a>
</g>
</g>
<!-- Node23 -->
<g id="Node000023" class="node">
<title>Node23</title>
<g id="a_Node000023"><a xlink:href="RingBuffer_8h.html" target="_top" xlink:title=" ">
<polygon fill="white" stroke="#666666" points="1290.5,-206 1214.5,-206 1214.5,-187 1290.5,-187 1290.5,-206"/>
<text text-anchor="middle" x="1252.5" y="-194" font-family="Helvetica,sans-Serif" font-size="10.00">RingBuffer.h</text>
</a>
</g>
</g>
<!-- Node22&#45;&gt;Node23 -->
<g id="edge30_Node000022_Node000023" class="edge">
<title>Node22&#45;&gt;Node23</title>
<g id="a_edge30_Node000022_Node000023"><a xlink:title=" ">
<path fill="none" stroke="#63b8ff" d="M1280.05,-241.75C1275.49,-234.42 1268.83,-223.73 1263.21,-214.7"/>
<polygon fill="#63b8ff" stroke="#63b8ff" points="1266.1,-212.73 1257.85,-206.09 1260.16,-216.43 1266.1,-212.73"/>
</a>
</g>
</g>
<!-- Node25 -->
<g id="Node000025" class="node">
<title>Node25</title>
<g id="a_Node000025"><a xlink:title=" ">
<polygon fill="#e0e0e0" stroke="#999999" points="1390.5,-145.5 1340.5,-145.5 1340.5,-126.5 1390.5,-126.5 1390.5,-145.5"/>
<text text-anchor="middle" x="1365.5" y="-133.5" font-family="Helvetica,sans-Serif" font-size="10.00">atomic</text>
</a>
</g>
</g>
<!-- Node22&#45;&gt;Node25 -->
<g id="edge44_Node000022_Node000025" class="edge">
<title>Node22&#45;&gt;Node25</title>
<g id="a_edge44_Node000022_Node000025"><a xlink:title=" ">
<path fill="none" stroke="#63b8ff" d="M1291.51,-241.97C1304.66,-223.32 1336.17,-178.61 1353.53,-153.99"/>
<polygon fill="#63b8ff" stroke="#63b8ff" points="1356.52,-155.82 1359.42,-145.63 1350.8,-151.79 1356.52,-155.82"/>
</a>
</g>
</g>
<!-- Node22&#45;&gt;Node27 -->
<g id="edge49_Node000022_Node000027" class="edge">
<title>Node22&#45;&gt;Node27</title>
<g id="a_edge49_Node000022_Node000027"><a xlink:title=" ">
<path fill="none" stroke="#63b8ff" d="M1209.95,-242.46C1170.51,-236.19 1122.32,-225.18 1082.5,-206 1057.92,-194.16 1034.19,-173.91 1018.08,-158.4"/>
<polygon fill="#63b8ff" stroke="#63b8ff" points="1020.38,-155.76 1010.81,-151.23 1015.46,-160.74 1020.38,-155.76"/>
</a>
</g>
</g>
<!-- Node29 -->
<g id="Node000029" class="node">
<title>Node29</title>
<g id="a_Node000029"><a xlink:href="Writer_8h.html" target="_top" xlink:title=" ">
<polygon fill="white" stroke="#666666" points="1146,-206 1091,-206 1091,-187 1146,-187 1146,-206"/>
<text text-anchor="middle" x="1118.5" y="-194" font-family="Helvetica,sans-Serif" font-size="10.00">Writer.h</text>
</a>
</g>
</g>
<!-- Node22&#45;&gt;Node29 -->
<g id="edge39_Node000022_Node000029" class="edge">
<title>Node22&#45;&gt;Node29</title>
<g id="a_edge39_Node000022_Node000029"><a xlink:title=" ">
<path fill="none" stroke="#63b8ff" d="M1258.67,-241.98C1230.63,-233.09 1186.45,-219.07 1155.2,-209.15"/>
<polygon fill="#63b8ff" stroke="#63b8ff" points="1156.13,-205.77 1145.54,-206.08 1154.01,-212.44 1156.13,-205.77"/>
</a>
</g>
</g>
<!-- Node30 -->
<g id="Node000030" class="node">
<title>Node30</title>
<g id="a_Node000030"><a xlink:title=" ">
<polygon fill="#e0e0e0" stroke="#999999" points="1432.5,-206 1384.5,-206 1384.5,-187 1432.5,-187 1432.5,-206"/>
<text text-anchor="middle" x="1408.5" y="-194" font-family="Helvetica,sans-Serif" font-size="10.00">thread</text>
</a>
</g>
</g>
<!-- Node22&#45;&gt;Node30 -->
<g id="edge46_Node000022_Node000030" class="edge">
<title>Node22&#45;&gt;Node30</title>
<g id="a_edge46_Node000022_Node000030"><a xlink:title=" ">
<path fill="none" stroke="#63b8ff" d="M1305.26,-241.98C1325.23,-233.38 1356.3,-219.99 1379.15,-210.15"/>
<polygon fill="#63b8ff" stroke="#63b8ff" points="1380.58,-213.34 1388.38,-206.17 1377.81,-206.91 1380.58,-213.34"/>
</a>
</g>
</g>
<!-- Node31 -->
<g id="Node000031" class="node">
<title>Node31</title>
<g id="a_Node000031"><a xlink:title=" ">
<polygon fill="#e0e0e0" stroke="#999999" points="1500.5,-206 1450.5,-206 1450.5,-187 1500.5,-187 1500.5,-206"/>
<text text-anchor="middle" x="1475.5" y="-194" font-family="Helvetica,sans-Serif" font-size="10.00">chrono</text>
</a>
</g>
</g>
<!-- Node22&#45;&gt;Node31 -->
<g id="edge47_Node000022_Node000031" class="edge">
<title>Node22&#45;&gt;Node31</title>
<g id="a_edge47_Node000022_Node000031"><a xlink:title=" ">
<path fill="none" stroke="#63b8ff" d="M1316.03,-241.98C1349.92,-232.53 1404.55,-217.29 1440.24,-207.34"/>
<polygon fill="#63b8ff" stroke="#63b8ff" points="1441.52,-210.61 1450.22,-204.55 1439.64,-203.87 1441.52,-210.61"/>
</a>
</g>
</g>
<!-- Node32 -->
<g id="Node000032" class="node">
<title>Node32</title>
<g id="a_Node000032"><a xlink:title=" ">
<polygon fill="#e0e0e0" stroke="#999999" points="1568.5,-206 1518.5,-206 1518.5,-187 1568.5,-187 1568.5,-206"/>
<text text-anchor="middle" x="1543.5" y="-194" font-family="Helvetica,sans-Serif" font-size="10.00">format</text>
</a>
</g>
</g>
<!-- Node22&#45;&gt;Node32 -->
<g id="edge48_Node000022_Node000032" class="edge">
<title>Node22&#45;&gt;Node32</title>
<g id="a_edge48_Node000022_Node000032"><a xlink:title=" ">
<path fill="none" stroke="#63b8ff" d="M1331.97,-241.95C1375.24,-233.84 1441.77,-220.98 1508.45,-206.15"/>
<polygon fill="#63b8ff" stroke="#63b8ff" points="1509.29,-209.55 1518.28,-203.95 1507.76,-202.72 1509.29,-209.55"/>
</a>
</g>
</g>
<!-- Node23&#45;&gt;Node4 -->
<g id="edge31_Node000023_Node000004" class="edge">
<title>Node23&#45;&gt;Node4</title>
<g id="a_edge31_Node000023_Node000004"><a xlink:title=" ">
<path fill="none" stroke="#63b8ff" d="M1290.67,-187.61C1344.81,-176.42 1443.34,-156.05 1497.43,-144.87"/>
<polygon fill="#63b8ff" stroke="#63b8ff" points="1498.23,-148.28 1507.31,-142.83 1496.81,-141.42 1498.23,-148.28"/>
</a>
</g>
</g>
<!-- Node23&#45;&gt;Node16 -->
<g id="edge32_Node000023_Node000016" class="edge">
<title>Node23&#45;&gt;Node16</title>
<g id="a_edge32_Node000023_Node000016"><a xlink:title=" ">
<path fill="none" stroke="#63b8ff" d="M1264.43,-186.8C1274.33,-178.77 1287.69,-165.87 1293.5,-151 1298.35,-138.58 1297,-133.86 1293.5,-121 1283.57,-84.52 1258.2,-47.8 1242.25,-27.22"/>
<polygon fill="#63b8ff" stroke="#63b8ff" points="1244.83,-24.85 1235.87,-19.2 1239.36,-29.2 1244.83,-24.85"/>
</a>
</g>
</g>
<!-- Node24 -->
<g id="Node000024" class="node">
<title>Node24</title>
<g id="a_Node000024"><a xlink:title=" ">
<polygon fill="#e0e0e0" stroke="#999999" points="1202,-145.5 1147,-145.5 1147,-126.5 1202,-126.5 1202,-145.5"/>
<text text-anchor="middle" x="1174.5" y="-133.5" font-family="Helvetica,sans-Serif" font-size="10.00">fstream</text>
</a>
</g>
</g>
<!-- Node23&#45;&gt;Node24 -->
<g id="edge33_Node000023_Node000024" class="edge">
<title>Node23&#45;&gt;Node24</title>
<g id="a_edge33_Node000023_Node000024"><a xlink:title=" ">
<path fill="none" stroke="#63b8ff" d="M1240.99,-186.87C1228.66,-177.62 1208.88,-162.78 1194.09,-151.69"/>
<polygon fill="#63b8ff" stroke="#63b8ff" points="1196.16,-148.87 1186.06,-145.67 1191.96,-154.47 1196.16,-148.87"/>
</a>
</g>
</g>
<!-- Node23&#45;&gt;Node25 -->
<g id="edge34_Node000023_Node000025" class="edge">
<title>Node23&#45;&gt;Node25</title>
<g id="a_edge34_Node000023_Node000025"><a xlink:title=" ">
<path fill="none" stroke="#63b8ff" d="M1269.17,-186.87C1287.78,-177.23 1318.12,-161.53 1339.78,-150.31"/>
<polygon fill="#63b8ff" stroke="#63b8ff" points="1341.49,-153.37 1348.76,-145.67 1338.27,-147.16 1341.49,-153.37"/>
</a>
</g>
</g>
<!-- Node26 -->
<g id="Node000026" class="node">
<title>Node26</title>
<g id="a_Node000026"><a xlink:title=" ">
<polygon fill="#e0e0e0" stroke="#999999" points="1284.5,-145.5 1220.5,-145.5 1220.5,-126.5 1284.5,-126.5 1284.5,-145.5"/>
<text text-anchor="middle" x="1252.5" y="-133.5" font-family="Helvetica,sans-Serif" font-size="10.00">algorithm</text>
</a>
</g>
</g>
<!-- Node23&#45;&gt;Node26 -->
<g id="edge35_Node000023_Node000026" class="edge">
<title>Node23&#45;&gt;Node26</title>
<g id="a_edge35_Node000023_Node000026"><a xlink:title=" ">
<path fill="none" stroke="#63b8ff" d="M1252.5,-186.87C1252.5,-178.75 1252.5,-166.31 1252.5,-155.89"/>
<polygon fill="#63b8ff" stroke="#63b8ff" points="1256,-155.67 1252.5,-145.67 1249,-155.67 1256,-155.67"/>
</a>
</g>
</g>
<!-- Node23&#45;&gt;Node27 -->
<g id="edge36_Node000023_Node000027" class="edge">
<title>Node23&#45;&gt;Node27</title>
<g id="a_edge36_Node000023_Node000027"><a xlink:title=" ">
<path fill="none" stroke="#63b8ff" d="M1215.42,-186.99C1175.36,-177.8 1110.76,-162.98 1062.28,-151.86"/>
<polygon fill="#63b8ff" stroke="#63b8ff" points="1063.03,-148.44 1052.5,-149.62 1061.46,-155.27 1063.03,-148.44"/>
</a>
</g>
</g>
<!-- Node27&#45;&gt;Node14 -->
<g id="edge38_Node000027_Node000014" class="edge">
<title>Node27&#45;&gt;Node14</title>
<g id="a_edge38_Node000027_Node000014"><a xlink:title=" ">
<path fill="none" stroke="#63b8ff" d="M979.08,-120.8C967.9,-112.18 953.45,-101.04 941.06,-91.48"/>
<polygon fill="#63b8ff" stroke="#63b8ff" points="942.93,-88.5 932.87,-85.16 938.65,-94.04 942.93,-88.5"/>
</a>
</g>
</g>
<!-- Node28 -->
<g id="Node000028" class="node">
<title>Node28</title>
<g id="a_Node000028"><a xlink:title=" ">
<polygon fill="#e0e0e0" stroke="#999999" points="1043,-79.5 984,-79.5 984,-60.5 1043,-60.5 1043,-79.5"/>
<text text-anchor="middle" x="1013.5" y="-67.5" font-family="Helvetica,sans-Serif" font-size="10.00">QWidget</text>
</a>
</g>
</g>
<!-- Node27&#45;&gt;Node28 -->
<g id="edge37_Node000027_Node000028" class="edge">
<title>Node27&#45;&gt;Node28</title>
<g id="a_edge37_Node000027_Node000028"><a xlink:title=" ">
<path fill="none" stroke="#63b8ff" d="M1001.05,-120.8C1003.35,-111.6 1006.37,-99.53 1008.86,-89.58"/>
<polygon fill="#63b8ff" stroke="#63b8ff" points="1012.26,-90.39 1011.29,-79.84 1005.47,-88.7 1012.26,-90.39"/>
</a>
</g>
</g>
<!-- Node29&#45;&gt;Node16 -->
<g id="edge40_Node000029_Node000016" class="edge">
<title>Node29&#45;&gt;Node16</title>
<g id="a_edge40_Node000029_Node000016"><a xlink:title=" ">
<path fill="none" stroke="#63b8ff" d="M1119.62,-186.81C1121.74,-172.46 1127.15,-143.18 1138.5,-121 1157.9,-83.08 1191.91,-46.19 1212.1,-26.09"/>
<polygon fill="#63b8ff" stroke="#63b8ff" points="1214.64,-28.51 1219.35,-19.02 1209.75,-23.5 1214.64,-28.51"/>
</a>
</g>
</g>
<!-- Node29&#45;&gt;Node17 -->
<g id="edge42_Node000029_Node000017" class="edge">
<title>Node29&#45;&gt;Node17</title>
<g id="a_edge42_Node000029_Node000017"><a xlink:title=" ">
<path fill="none" stroke="#63b8ff" d="M1115.35,-186.73C1112.25,-177.83 1107.54,-163.6 1104.5,-151 1094.08,-107.85 1086.48,-56.19 1082.86,-29.13"/>
<polygon fill="#63b8ff" stroke="#63b8ff" points="1086.32,-28.6 1081.56,-19.14 1079.38,-29.5 1086.32,-28.6"/>
</a>
</g>
</g>
<!-- Node29&#45;&gt;Node24 -->
<g id="edge41_Node000029_Node000024" class="edge">
<title>Node29&#45;&gt;Node24</title>
<g id="a_edge41_Node000029_Node000024"><a xlink:title=" ">
<path fill="none" stroke="#63b8ff" d="M1126.76,-186.87C1135.28,-177.97 1148.76,-163.89 1159.23,-152.95"/>
<polygon fill="#63b8ff" stroke="#63b8ff" points="1161.82,-155.31 1166.2,-145.67 1156.76,-150.47 1161.82,-155.31"/>
</a>
</g>
</g>
<!-- Node29&#45;&gt;Node27 -->
<g id="edge43_Node000029_Node000027" class="edge">
<title>Node29&#45;&gt;Node27</title>
<g id="a_edge43_Node000029_Node000027"><a xlink:title=" ">
<path fill="none" stroke="#63b8ff" d="M1100.91,-186.99C1083.93,-178.79 1057.67,-166.09 1035.86,-155.55"/>
<polygon fill="#63b8ff" stroke="#63b8ff" points="1037.35,-152.38 1026.82,-151.18 1034.3,-158.68 1037.35,-152.38"/>
</a>
</g>
</g>
<!-- Node33&#45;&gt;Node6 -->
<g id="edge52_Node000033_Node000006" class="edge">
<title>Node33&#45;&gt;Node6</title>
<g id="a_edge52_Node000033_Node000006"><a xlink:title=" ">
<path fill="none" stroke="#63b8ff" d="M699.75,-54.84C684.9,-45.6 665.6,-33.59 650.84,-24.4"/>
<polygon fill="#63b8ff" stroke="#63b8ff" points="652.65,-21.41 642.31,-19.09 648.95,-27.35 652.65,-21.41"/>
</a>
</g>
</g>
</g>
</svg>
