<?xml version="1.0" encoding="UTF-8" standalone="no"?>
<!DOCTYPE svg PUBLIC "-//W3C//DTD SVG 1.1//EN"
 "http://www.w3.org/Graphics/SVG/1.1/DTD/svg11.dtd">
<!-- Generated by graphviz version 2.43.0 (0)
 -->
<!-- Title: features/overlay/OverlayFactory.cpp Pages: 1 -->
<svg width="432pt" height="225pt"
 viewBox="0.00 0.00 431.50 225.00" xmlns="http://www.w3.org/2000/svg" xmlns:xlink="http://www.w3.org/1999/xlink">
<g id="graph0" class="graph" transform="scale(1 1) rotate(0) translate(4 221)">
<title>features/overlay/OverlayFactory.cpp</title>
<!-- Node1 -->
<g id="Node000001" class="node">
<title>Node1</title>
<g id="a_Node000001"><a xlink:title=" ">
<polygon fill="#999999" stroke="#666666" points="249,-217 111,-217 111,-187 249,-187 249,-217"/>
<text text-anchor="start" x="119" y="-205" font-family="Helvetica,sans-Serif" font-size="10.00">features/overlay/Overlay</text>
<text text-anchor="middle" x="180" y="-194" font-family="Helvetica,sans-Serif" font-size="10.00">Factory.cpp</text>
</a>
</g>
</g>
<!-- Node2 -->
<g id="Node000002" class="node">
<title>Node2</title>
<g id="a_Node000002"><a xlink:href="OverlayFactory_8h.html" target="_top" xlink:title=" ">
<polygon fill="white" stroke="#666666" points="98,-140 0,-140 0,-121 98,-121 98,-140"/>
<text text-anchor="middle" x="49" y="-128" font-family="Helvetica,sans-Serif" font-size="10.00">OverlayFactory.h</text>
</a>
</g>
</g>
<!-- Node1&#45;&gt;Node2 -->
<g id="edge1_Node000001_Node000002" class="edge">
<title>Node1&#45;&gt;Node2</title>
<g id="a_edge1_Node000001_Node000002"><a xlink:title=" ">
<path fill="none" stroke="#63b8ff" d="M153.49,-186.94C130.33,-174.65 96.95,-156.94 74.19,-144.87"/>
<polygon fill="#63b8ff" stroke="#63b8ff" points="75.62,-141.66 65.15,-140.07 72.34,-147.85 75.62,-141.66"/>
</a>
</g>
</g>
<!-- Node5 -->
<g id="Node000005" class="node">
<title>Node5</title>
<g id="a_Node000005"><a xlink:href="AppViewModels_8h.html" target="_top" xlink:title=" ">
<polygon fill="white" stroke="#666666" points="244,-145.5 116,-145.5 116,-115.5 244,-115.5 244,-145.5"/>
<text text-anchor="start" x="124" y="-133.5" font-family="Helvetica,sans-Serif" font-size="10.00">src/mvvm/viewmodels</text>
<text text-anchor="middle" x="180" y="-122.5" font-family="Helvetica,sans-Serif" font-size="10.00">/AppViewModels.h</text>
</a>
</g>
</g>
<!-- Node1&#45;&gt;Node5 -->
<g id="edge4_Node000001_Node000005" class="edge">
<title>Node1&#45;&gt;Node5</title>
<g id="a_edge4_Node000001_Node000005"><a xlink:title=" ">
<path fill="none" stroke="#63b8ff" d="M180,-186.94C180,-177.99 180,-166.16 180,-155.73"/>
<polygon fill="#63b8ff" stroke="#63b8ff" points="183.5,-155.54 180,-145.54 176.5,-155.54 183.5,-155.54"/>
</a>
</g>
</g>
<!-- Node8 -->
<g id="Node000008" class="node">
<title>Node8</title>
<g id="a_Node000008"><a xlink:href="DebugDisplayViewModel_8h.html" target="_top" xlink:title=" ">
<polygon fill="white" stroke="#666666" points="423.5,-151 262.5,-151 262.5,-110 423.5,-110 423.5,-151"/>
<text text-anchor="start" x="270.5" y="-139" font-family="Helvetica,sans-Serif" font-size="10.00">src/features/overlay</text>
<text text-anchor="start" x="270.5" y="-128" font-family="Helvetica,sans-Serif" font-size="10.00">/debug_display/DebugDisplay</text>
<text text-anchor="middle" x="343" y="-117" font-family="Helvetica,sans-Serif" font-size="10.00">ViewModel.h</text>
</a>
</g>
</g>
<!-- Node1&#45;&gt;Node8 -->
<g id="edge7_Node000001_Node000008" class="edge">
<title>Node1&#45;&gt;Node8</title>
<g id="a_edge7_Node000001_Node000008"><a xlink:title=" ">
<path fill="none" stroke="#63b8ff" d="M212.99,-186.94C234.43,-177.79 262.93,-165.64 287.77,-155.05"/>
<polygon fill="#63b8ff" stroke="#63b8ff" points="289.27,-158.22 297.09,-151.07 286.52,-151.78 289.27,-158.22"/>
</a>
</g>
</g>
<!-- Node3 -->
<g id="Node000003" class="node">
<title>Node3</title>
<g id="a_Node000003"><a xlink:href="Overlay_8h.html" target="_top" xlink:title=" ">
<polygon fill="white" stroke="#666666" points="80,-74 18,-74 18,-55 80,-55 80,-74"/>
<text text-anchor="middle" x="49" y="-62" font-family="Helvetica,sans-Serif" font-size="10.00">Overlay.h</text>
</a>
</g>
</g>
<!-- Node2&#45;&gt;Node3 -->
<g id="edge2_Node000002_Node000003" class="edge">
<title>Node2&#45;&gt;Node3</title>
<g id="a_edge2_Node000002_Node000003"><a xlink:title=" ">
<path fill="none" stroke="#63b8ff" d="M49,-120.87C49,-111.66 49,-96.79 49,-84.77"/>
<polygon fill="#63b8ff" stroke="#63b8ff" points="52.5,-84.41 49,-74.41 45.5,-84.41 52.5,-84.41"/>
</a>
</g>
</g>
<!-- Node4 -->
<g id="Node000004" class="node">
<title>Node4</title>
<g id="a_Node000004"><a xlink:title=" ">
<polygon fill="#e0e0e0" stroke="#999999" points="78.5,-19 19.5,-19 19.5,0 78.5,0 78.5,-19"/>
<text text-anchor="middle" x="49" y="-7" font-family="Helvetica,sans-Serif" font-size="10.00">QWidget</text>
</a>
</g>
</g>
<!-- Node3&#45;&gt;Node4 -->
<g id="edge3_Node000003_Node000004" class="edge">
<title>Node3&#45;&gt;Node4</title>
<g id="a_edge3_Node000003_Node000004"><a xlink:title=" ">
<path fill="none" stroke="#63b8ff" d="M49,-54.75C49,-47.8 49,-37.85 49,-29.13"/>
<polygon fill="#63b8ff" stroke="#63b8ff" points="52.5,-29.09 49,-19.09 45.5,-29.09 52.5,-29.09"/>
</a>
</g>
</g>
<!-- Node6 -->
<g id="Node000006" class="node">
<title>Node6</title>
<g id="a_Node000006"><a xlink:title=" ">
<polygon fill="#e0e0e0" stroke="#999999" points="293,-74 237,-74 237,-55 293,-55 293,-74"/>
<text text-anchor="middle" x="265" y="-62" font-family="Helvetica,sans-Serif" font-size="10.00">QObject</text>
</a>
</g>
</g>
<!-- Node5&#45;&gt;Node6 -->
<g id="edge5_Node000005_Node000006" class="edge">
<title>Node5&#45;&gt;Node6</title>
<g id="a_edge5_Node000005_Node000006"><a xlink:title=" ">
<path fill="none" stroke="#63b8ff" d="M198.86,-115.3C212.64,-104.93 231.26,-90.9 245.24,-80.38"/>
<polygon fill="#63b8ff" stroke="#63b8ff" points="247.37,-83.16 253.25,-74.34 243.16,-77.56 247.37,-83.16"/>
</a>
</g>
</g>
<!-- Node7 -->
<g id="Node000007" class="node">
<title>Node7</title>
<g id="a_Node000007"><a xlink:title=" ">
<polygon fill="#e0e0e0" stroke="#999999" points="212.5,-74 147.5,-74 147.5,-55 212.5,-55 212.5,-74"/>
<text text-anchor="middle" x="180" y="-62" font-family="Helvetica,sans-Serif" font-size="10.00">typeindex</text>
</a>
</g>
</g>
<!-- Node5&#45;&gt;Node7 -->
<g id="edge6_Node000005_Node000007" class="edge">
<title>Node5&#45;&gt;Node7</title>
<g id="a_edge6_Node000005_Node000007"><a xlink:title=" ">
<path fill="none" stroke="#63b8ff" d="M180,-115.3C180,-106.2 180,-94.29 180,-84.4"/>
<polygon fill="#63b8ff" stroke="#63b8ff" points="183.5,-84.34 180,-74.34 176.5,-84.34 183.5,-84.34"/>
</a>
</g>
</g>
<!-- Node8&#45;&gt;Node6 -->
<g id="edge9_Node000008_Node000006" class="edge">
<title>Node8&#45;&gt;Node6</title>
<g id="a_edge9_Node000008_Node000006"><a xlink:title=" ">
<path fill="none" stroke="#63b8ff" d="M319.17,-109.95C307.72,-100.55 294.2,-89.46 283.53,-80.7"/>
<polygon fill="#63b8ff" stroke="#63b8ff" points="285.63,-77.9 275.68,-74.26 281.19,-83.31 285.63,-77.9"/>
</a>
</g>
</g>
<!-- Node9 -->
<g id="Node000009" class="node">
<title>Node9</title>
<g id="a_Node000009"><a xlink:title=" ">
<polygon fill="#e0e0e0" stroke="#999999" points="369.5,-74 316.5,-74 316.5,-55 369.5,-55 369.5,-74"/>
<text text-anchor="middle" x="343" y="-62" font-family="Helvetica,sans-Serif" font-size="10.00">QString</text>
</a>
</g>
</g>
<!-- Node8&#45;&gt;Node9 -->
<g id="edge8_Node000008_Node000009" class="edge">
<title>Node8&#45;&gt;Node9</title>
<g id="a_edge8_Node000008_Node000009"><a xlink:title=" ">
<path fill="none" stroke="#63b8ff" d="M343,-109.95C343,-101.85 343,-92.5 343,-84.47"/>
<polygon fill="#63b8ff" stroke="#63b8ff" points="346.5,-84.26 343,-74.26 339.5,-84.26 346.5,-84.26"/>
</a>
</g>
</g>
</g>
</svg>
