<?xml version="1.0" encoding="UTF-8" standalone="no"?>
<!DOCTYPE svg PUBLIC "-//W3C//DTD SVG 1.1//EN"
 "http://www.w3.org/Graphics/SVG/1.1/DTD/svg11.dtd">
<!-- Generated by graphviz version 2.43.0 (0)
 -->
<!-- Title: features/parameters_window/ParametersWindow.h Pages: 1 -->
<svg width="504pt" height="170pt"
 viewBox="0.00 0.00 503.50 170.00" xmlns="http://www.w3.org/2000/svg" xmlns:xlink="http://www.w3.org/1999/xlink">
<g id="graph0" class="graph" transform="scale(1 1) rotate(0) translate(4 166)">
<title>features/parameters_window/ParametersWindow.h</title>
<!-- Node1 -->
<g id="Node000001" class="node">
<title>Node1</title>
<g id="a_Node000001"><a xlink:title=" ">
<polygon fill="#999999" stroke="#666666" points="273.5,-162 108.5,-162 108.5,-132 273.5,-132 273.5,-162"/>
<text text-anchor="start" x="116.5" y="-150" font-family="Helvetica,sans-Serif" font-size="10.00">features/parameters</text>
<text text-anchor="middle" x="191" y="-139" font-family="Helvetica,sans-Serif" font-size="10.00">_window/ParametersWindow.h</text>
</a>
</g>
</g>
<!-- Node2 -->
<g id="Node000002" class="node">
<title>Node2</title>
<g id="a_Node000002"><a xlink:href="ParametersWindow_8cpp.html" target="_top" xlink:title=" ">
<polygon fill="white" stroke="#666666" points="176,-96 0,-96 0,-66 176,-66 176,-96"/>
<text text-anchor="start" x="8" y="-84" font-family="Helvetica,sans-Serif" font-size="10.00">features/parameters</text>
<text text-anchor="middle" x="88" y="-73" font-family="Helvetica,sans-Serif" font-size="10.00">_window/ParametersWindow.cpp</text>
</a>
</g>
</g>
<!-- Node1&#45;&gt;Node2 -->
<g id="edge1_Node000001_Node000002" class="edge">
<title>Node1&#45;&gt;Node2</title>
<g id="a_edge1_Node000001_Node000002"><a xlink:title=" ">
<path fill="none" stroke="#63b8ff" d="M159.49,-126.42C143.68,-116.6 124.9,-104.93 110.55,-96.01"/>
<polygon fill="#63b8ff" stroke="#63b8ff" points="158.06,-129.65 168.4,-131.95 161.75,-123.7 158.06,-129.65"/>
</a>
</g>
</g>
<!-- Node3 -->
<g id="Node000003" class="node">
<title>Node3</title>
<g id="a_Node000003"><a xlink:href="ParametersWindowFactory_8h.html" target="_top" xlink:title=" ">
<polygon fill="white" stroke="#666666" points="394,-96 194,-96 194,-66 394,-66 394,-96"/>
<text text-anchor="start" x="202" y="-84" font-family="Helvetica,sans-Serif" font-size="10.00">features/parameters</text>
<text text-anchor="middle" x="294" y="-73" font-family="Helvetica,sans-Serif" font-size="10.00">_window/ParametersWindowFactory.h</text>
</a>
</g>
</g>
<!-- Node1&#45;&gt;Node3 -->
<g id="edge2_Node000001_Node000003" class="edge">
<title>Node1&#45;&gt;Node3</title>
<g id="a_edge2_Node000001_Node000003"><a xlink:title=" ">
<path fill="none" stroke="#63b8ff" d="M222.51,-126.42C238.32,-116.6 257.1,-104.93 271.45,-96.01"/>
<polygon fill="#63b8ff" stroke="#63b8ff" points="220.25,-123.7 213.6,-131.95 223.94,-129.65 220.25,-123.7"/>
</a>
</g>
</g>
<!-- Node4 -->
<g id="Node000004" class="node">
<title>Node4</title>
<g id="a_Node000004"><a xlink:href="ToolsMenuFactory_8cpp.html" target="_top" xlink:title=" ">
<polygon fill="white" stroke="#666666" points="266,-30 130,-30 130,0 266,0 266,-30"/>
<text text-anchor="start" x="138" y="-18" font-family="Helvetica,sans-Serif" font-size="10.00">features/menu_bar/tools</text>
<text text-anchor="middle" x="198" y="-7" font-family="Helvetica,sans-Serif" font-size="10.00">/ToolsMenuFactory.cpp</text>
</a>
</g>
</g>
<!-- Node3&#45;&gt;Node4 -->
<g id="edge3_Node000003_Node000004" class="edge">
<title>Node3&#45;&gt;Node4</title>
<g id="a_edge3_Node000003_Node000004"><a xlink:title=" ">
<path fill="none" stroke="#63b8ff" d="M264.04,-60.03C249.51,-50.34 232.41,-38.94 219.25,-30.16"/>
<polygon fill="#63b8ff" stroke="#63b8ff" points="262.43,-63.16 272.69,-65.8 266.32,-57.34 262.43,-63.16"/>
</a>
</g>
</g>
<!-- Node5 -->
<g id="Node000005" class="node">
<title>Node5</title>
<g id="a_Node000005"><a xlink:href="ParametersWindowFactory_8cpp.html" target="_top" xlink:title=" ">
<polygon fill="white" stroke="#666666" points="495.5,-30 284.5,-30 284.5,0 495.5,0 495.5,-30"/>
<text text-anchor="start" x="292.5" y="-18" font-family="Helvetica,sans-Serif" font-size="10.00">features/parameters</text>
<text text-anchor="middle" x="390" y="-7" font-family="Helvetica,sans-Serif" font-size="10.00">_window/ParametersWindowFactory.cpp</text>
</a>
</g>
</g>
<!-- Node3&#45;&gt;Node5 -->
<g id="edge4_Node000003_Node000005" class="edge">
<title>Node3&#45;&gt;Node5</title>
<g id="a_edge4_Node000003_Node000005"><a xlink:title=" ">
<path fill="none" stroke="#63b8ff" d="M323.96,-60.03C338.49,-50.34 355.59,-38.94 368.75,-30.16"/>
<polygon fill="#63b8ff" stroke="#63b8ff" points="321.68,-57.34 315.31,-65.8 325.57,-63.16 321.68,-57.34"/>
</a>
</g>
</g>
</g>
</svg>
