<?xml version="1.0" encoding="UTF-8" standalone="no"?>
<!DOCTYPE svg PUBLIC "-//W3C//DTD SVG 1.1//EN"
 "http://www.w3.org/Graphics/SVG/1.1/DTD/svg11.dtd">
<!-- Generated by graphviz version 2.43.0 (0)
 -->
<!-- Title: features/parameters_window/ParametersWindow.cpp Pages: 1 -->
<svg width="830pt" height="170pt"
 viewBox="0.00 0.00 830.00 170.00" xmlns="http://www.w3.org/2000/svg" xmlns:xlink="http://www.w3.org/1999/xlink">
<g id="graph0" class="graph" transform="scale(1 1) rotate(0) translate(4 166)">
<title>features/parameters_window/ParametersWindow.cpp</title>
<!-- Node1 -->
<g id="Node000001" class="node">
<title>Node1</title>
<g id="a_Node000001"><a xlink:title=" ">
<polygon fill="#999999" stroke="#666666" points="473.5,-162 297.5,-162 297.5,-132 473.5,-132 473.5,-162"/>
<text text-anchor="start" x="305.5" y="-150" font-family="Helvetica,sans-Serif" font-size="10.00">features/parameters</text>
<text text-anchor="middle" x="385.5" y="-139" font-family="Helvetica,sans-Serif" font-size="10.00">_window/ParametersWindow.cpp</text>
</a>
</g>
</g>
<!-- Node2 -->
<g id="Node000002" class="node">
<title>Node2</title>
<g id="a_Node000002"><a xlink:href="ParametersWindow_8h.html" target="_top" xlink:title=" ">
<polygon fill="white" stroke="#666666" points="593,-85 474,-85 474,-66 593,-66 593,-85"/>
<text text-anchor="middle" x="533.5" y="-73" font-family="Helvetica,sans-Serif" font-size="10.00">ParametersWindow.h</text>
</a>
</g>
</g>
<!-- Node1&#45;&gt;Node2 -->
<g id="edge1_Node000001_Node000002" class="edge">
<title>Node1&#45;&gt;Node2</title>
<g id="a_edge1_Node000001_Node000002"><a xlink:title=" ">
<path fill="none" stroke="#63b8ff" d="M415.45,-131.94C441.96,-119.49 480.34,-101.46 506.07,-89.38"/>
<polygon fill="#63b8ff" stroke="#63b8ff" points="507.69,-92.49 515.25,-85.07 504.72,-86.15 507.69,-92.49"/>
</a>
</g>
</g>
<!-- Node4 -->
<g id="Node000004" class="node">
<title>Node4</title>
<g id="a_Node000004"><a xlink:title=" ">
<polygon fill="#e0e0e0" stroke="#999999" points="284,-85 209,-85 209,-66 284,-66 284,-85"/>
<text text-anchor="middle" x="246.5" y="-73" font-family="Helvetica,sans-Serif" font-size="10.00">QTabWidget</text>
</a>
</g>
</g>
<!-- Node1&#45;&gt;Node4 -->
<g id="edge3_Node000001_Node000004" class="edge">
<title>Node1&#45;&gt;Node4</title>
<g id="a_edge3_Node000001_Node000004"><a xlink:title=" ">
<path fill="none" stroke="#63b8ff" d="M357.37,-131.94C332.58,-119.54 296.75,-101.62 272.59,-89.54"/>
<polygon fill="#63b8ff" stroke="#63b8ff" points="274.15,-86.41 263.64,-85.07 271.01,-92.67 274.15,-86.41"/>
</a>
</g>
</g>
<!-- Node5 -->
<g id="Node000005" class="node">
<title>Node5</title>
<g id="a_Node000005"><a xlink:title=" ">
<polygon fill="#e0e0e0" stroke="#999999" points="382.5,-85 302.5,-85 302.5,-66 382.5,-66 382.5,-85"/>
<text text-anchor="middle" x="342.5" y="-73" font-family="Helvetica,sans-Serif" font-size="10.00">QPushButton</text>
</a>
</g>
</g>
<!-- Node1&#45;&gt;Node5 -->
<g id="edge4_Node000001_Node000005" class="edge">
<title>Node1&#45;&gt;Node5</title>
<g id="a_edge4_Node000001_Node000005"><a xlink:title=" ">
<path fill="none" stroke="#63b8ff" d="M376.8,-131.94C369.98,-120.92 360.47,-105.54 353.19,-93.78"/>
<polygon fill="#63b8ff" stroke="#63b8ff" points="356.16,-91.93 347.92,-85.27 350.21,-95.61 356.16,-91.93"/>
</a>
</g>
</g>
<!-- Node6 -->
<g id="Node000006" class="node">
<title>Node6</title>
<g id="a_Node000006"><a xlink:title=" ">
<polygon fill="#e0e0e0" stroke="#999999" points="456,-85 401,-85 401,-66 456,-66 456,-85"/>
<text text-anchor="middle" x="428.5" y="-73" font-family="Helvetica,sans-Serif" font-size="10.00">QFrame</text>
</a>
</g>
</g>
<!-- Node1&#45;&gt;Node6 -->
<g id="edge5_Node000001_Node000006" class="edge">
<title>Node1&#45;&gt;Node6</title>
<g id="a_edge5_Node000001_Node000006"><a xlink:title=" ">
<path fill="none" stroke="#63b8ff" d="M394.2,-131.94C401.02,-120.92 410.53,-105.54 417.81,-93.78"/>
<polygon fill="#63b8ff" stroke="#63b8ff" points="420.79,-95.61 423.08,-85.27 414.84,-91.93 420.79,-95.61"/>
</a>
</g>
</g>
<!-- Node7 -->
<g id="Node000007" class="node">
<title>Node7</title>
<g id="a_Node000007"><a xlink:href="UdpChannelParametersViewModel_8h.html" target="_top" xlink:title=" ">
<polygon fill="white" stroke="#666666" points="191,-96 0,-96 0,-55 191,-55 191,-96"/>
<text text-anchor="start" x="8" y="-84" font-family="Helvetica,sans-Serif" font-size="10.00">src/features/communication</text>
<text text-anchor="start" x="8" y="-73" font-family="Helvetica,sans-Serif" font-size="10.00">/udp/ui/UdpChannelParametersView</text>
<text text-anchor="middle" x="95.5" y="-62" font-family="Helvetica,sans-Serif" font-size="10.00">Model.h</text>
</a>
</g>
</g>
<!-- Node1&#45;&gt;Node7 -->
<g id="edge6_Node000001_Node000007" class="edge">
<title>Node1&#45;&gt;Node7</title>
<g id="a_edge6_Node000001_Node000007"><a xlink:title=" ">
<path fill="none" stroke="#63b8ff" d="M326.81,-131.94C286.65,-122.31 232.59,-109.35 186.83,-98.39"/>
<polygon fill="#63b8ff" stroke="#63b8ff" points="187.44,-94.93 176.9,-96.01 185.81,-101.74 187.44,-94.93"/>
</a>
</g>
</g>
<!-- Node9 -->
<g id="Node000009" class="node">
<title>Node9</title>
<g id="a_Node000009"><a xlink:href="UdpChannelParametersWidget_8h.html" target="_top" xlink:title=" ">
<polygon fill="white" stroke="#666666" points="822,-90.5 611,-90.5 611,-60.5 822,-60.5 822,-90.5"/>
<text text-anchor="start" x="619" y="-78.5" font-family="Helvetica,sans-Serif" font-size="10.00">src/features/communication</text>
<text text-anchor="middle" x="716.5" y="-67.5" font-family="Helvetica,sans-Serif" font-size="10.00">/udp/ui/UdpChannelParametersWidget.h</text>
</a>
</g>
</g>
<!-- Node1&#45;&gt;Node9 -->
<g id="edge8_Node000001_Node000009" class="edge">
<title>Node1&#45;&gt;Node9</title>
<g id="a_edge8_Node000001_Node000009"><a xlink:title=" ">
<path fill="none" stroke="#63b8ff" d="M452.48,-131.94C506.66,-120.56 582.97,-104.54 639.63,-92.64"/>
<polygon fill="#63b8ff" stroke="#63b8ff" points="640.55,-96.02 649.62,-90.54 639.11,-89.17 640.55,-96.02"/>
</a>
</g>
</g>
<!-- Node3 -->
<g id="Node000003" class="node">
<title>Node3</title>
<g id="a_Node000003"><a xlink:title=" ">
<polygon fill="#e0e0e0" stroke="#999999" points="564,-19 505,-19 505,0 564,0 564,-19"/>
<text text-anchor="middle" x="534.5" y="-7" font-family="Helvetica,sans-Serif" font-size="10.00">QWidget</text>
</a>
</g>
</g>
<!-- Node2&#45;&gt;Node3 -->
<g id="edge2_Node000002_Node000003" class="edge">
<title>Node2&#45;&gt;Node3</title>
<g id="a_edge2_Node000002_Node000003"><a xlink:title=" ">
<path fill="none" stroke="#63b8ff" d="M533.63,-65.87C533.78,-56.66 534.01,-41.79 534.2,-29.77"/>
<polygon fill="#63b8ff" stroke="#63b8ff" points="537.7,-29.46 534.36,-19.41 530.7,-29.35 537.7,-29.46"/>
</a>
</g>
</g>
<!-- Node8 -->
<g id="Node000008" class="node">
<title>Node8</title>
<g id="a_Node000008"><a xlink:title=" ">
<polygon fill="#e0e0e0" stroke="#999999" points="123.5,-19 67.5,-19 67.5,0 123.5,0 123.5,-19"/>
<text text-anchor="middle" x="95.5" y="-7" font-family="Helvetica,sans-Serif" font-size="10.00">QObject</text>
</a>
</g>
</g>
<!-- Node7&#45;&gt;Node8 -->
<g id="edge7_Node000007_Node000008" class="edge">
<title>Node7&#45;&gt;Node8</title>
<g id="a_edge7_Node000007_Node000008"><a xlink:title=" ">
<path fill="none" stroke="#63b8ff" d="M95.5,-54.95C95.5,-46.85 95.5,-37.5 95.5,-29.47"/>
<polygon fill="#63b8ff" stroke="#63b8ff" points="99,-29.26 95.5,-19.26 92,-29.26 99,-29.26"/>
</a>
</g>
</g>
<!-- Node9&#45;&gt;Node3 -->
<g id="edge10_Node000009_Node000003" class="edge">
<title>Node9&#45;&gt;Node3</title>
<g id="a_edge10_Node000009_Node000003"><a xlink:title=" ">
<path fill="none" stroke="#63b8ff" d="M676.56,-60.45C644.22,-49.08 599.16,-33.24 568.52,-22.46"/>
<polygon fill="#63b8ff" stroke="#63b8ff" points="569.32,-19.03 558.72,-19.02 566.99,-25.64 569.32,-19.03"/>
</a>
</g>
</g>
<!-- Node10 -->
<g id="Node000010" class="node">
<title>Node10</title>
<g id="a_Node000010"><a xlink:title=" ">
<polygon fill="#e0e0e0" stroke="#999999" points="711.5,-19 629.5,-19 629.5,0 711.5,0 711.5,-19"/>
<text text-anchor="middle" x="670.5" y="-7" font-family="Helvetica,sans-Serif" font-size="10.00">QFormLayout</text>
</a>
</g>
</g>
<!-- Node9&#45;&gt;Node10 -->
<g id="edge9_Node000009_Node000010" class="edge">
<title>Node9&#45;&gt;Node10</title>
<g id="a_edge9_Node000009_Node000010"><a xlink:title=" ">
<path fill="none" stroke="#63b8ff" d="M706.29,-60.3C699.33,-50.61 690.08,-37.74 682.73,-27.51"/>
<polygon fill="#63b8ff" stroke="#63b8ff" points="685.54,-25.42 676.86,-19.34 679.85,-29.51 685.54,-25.42"/>
</a>
</g>
</g>
<!-- Node11 -->
<g id="Node000011" class="node">
<title>Node11</title>
<g id="a_Node000011"><a xlink:title=" ">
<polygon fill="#e0e0e0" stroke="#999999" points="793,-19 730,-19 730,0 793,0 793,-19"/>
<text text-anchor="middle" x="761.5" y="-7" font-family="Helvetica,sans-Serif" font-size="10.00">QLineEdit</text>
</a>
</g>
</g>
<!-- Node9&#45;&gt;Node11 -->
<g id="edge11_Node000009_Node000011" class="edge">
<title>Node9&#45;&gt;Node11</title>
<g id="a_edge11_Node000009_Node000011"><a xlink:title=" ">
<path fill="none" stroke="#63b8ff" d="M726.49,-60.3C733.23,-50.71 742.16,-38 749.32,-27.82"/>
<polygon fill="#63b8ff" stroke="#63b8ff" points="752.39,-29.54 755.28,-19.34 746.67,-25.51 752.39,-29.54"/>
</a>
</g>
</g>
</g>
</svg>
