<?xml version="1.0" encoding="UTF-8" standalone="no"?>
<!DOCTYPE svg PUBLIC "-//W3C//DTD SVG 1.1//EN"
 "http://www.w3.org/Graphics/SVG/1.1/DTD/svg11.dtd">
<!-- Generated by graphviz version 2.43.0 (0)
 -->
<!-- Title: features/pid/PidTabFactory.cpp Pages: 1 -->
<svg width="1208pt" height="225pt"
 viewBox="0.00 0.00 1207.50 225.00" xmlns="http://www.w3.org/2000/svg" xmlns:xlink="http://www.w3.org/1999/xlink">
<g id="graph0" class="graph" transform="scale(1 1) rotate(0) translate(4 221)">
<title>features/pid/PidTabFactory.cpp</title>
<!-- Node1 -->
<g id="Node000001" class="node">
<title>Node1</title>
<g id="a_Node000001"><a xlink:title=" ">
<polygon fill="#999999" stroke="#666666" points="664.5,-217 500.5,-217 500.5,-198 664.5,-198 664.5,-217"/>
<text text-anchor="middle" x="582.5" y="-205" font-family="Helvetica,sans-Serif" font-size="10.00">features/pid/PidTabFactory.cpp</text>
</a>
</g>
</g>
<!-- Node2 -->
<g id="Node000002" class="node">
<title>Node2</title>
<g id="a_Node000002"><a xlink:href="PidTabFactory_8h.html" target="_top" xlink:title=" ">
<polygon fill="white" stroke="#666666" points="176,-145.5 85,-145.5 85,-126.5 176,-126.5 176,-145.5"/>
<text text-anchor="middle" x="130.5" y="-133.5" font-family="Helvetica,sans-Serif" font-size="10.00">PidTabFactory.h</text>
</a>
</g>
</g>
<!-- Node1&#45;&gt;Node2 -->
<g id="edge1_Node000001_Node000002" class="edge">
<title>Node1&#45;&gt;Node2</title>
<g id="a_edge1_Node000001_Node000002"><a xlink:title=" ">
<path fill="none" stroke="#63b8ff" d="M500.49,-204.8C419.21,-201.39 291.81,-191.32 185.5,-162 175.14,-159.14 164.27,-154.57 154.95,-150.11"/>
<polygon fill="#63b8ff" stroke="#63b8ff" points="156.4,-146.92 145.89,-145.59 153.27,-153.19 156.4,-146.92"/>
</a>
</g>
</g>
<!-- Node7 -->
<g id="Node000007" class="node">
<title>Node7</title>
<g id="a_Node000007"><a xlink:href="AppViewModels_8h.html" target="_top" xlink:title=" ">
<polygon fill="white" stroke="#666666" points="1199.5,-151 1071.5,-151 1071.5,-121 1199.5,-121 1199.5,-151"/>
<text text-anchor="start" x="1079.5" y="-139" font-family="Helvetica,sans-Serif" font-size="10.00">src/mvvm/viewmodels</text>
<text text-anchor="middle" x="1135.5" y="-128" font-family="Helvetica,sans-Serif" font-size="10.00">/AppViewModels.h</text>
</a>
</g>
</g>
<!-- Node1&#45;&gt;Node7 -->
<g id="edge6_Node000001_Node000007" class="edge">
<title>Node1&#45;&gt;Node7</title>
<g id="a_edge6_Node000001_Node000007"><a xlink:title=" ">
<path fill="none" stroke="#63b8ff" d="M664.93,-204.79C761.27,-201.43 925.02,-191.47 1062.5,-162 1071.64,-160.04 1081.22,-157.29 1090.32,-154.33"/>
<polygon fill="#63b8ff" stroke="#63b8ff" points="1091.62,-157.59 1099.96,-151.06 1089.37,-150.96 1091.62,-157.59"/>
</a>
</g>
</g>
<!-- Node10 -->
<g id="Node000010" class="node">
<title>Node10</title>
<g id="a_Node000010"><a xlink:href="PidViewModel_8h.html" target="_top" xlink:title=" ">
<polygon fill="white" stroke="#666666" points="328.5,-151 194.5,-151 194.5,-121 328.5,-121 328.5,-151"/>
<text text-anchor="start" x="202.5" y="-139" font-family="Helvetica,sans-Serif" font-size="10.00">src/features/pid/PidView</text>
<text text-anchor="middle" x="261.5" y="-128" font-family="Helvetica,sans-Serif" font-size="10.00">Model.h</text>
</a>
</g>
</g>
<!-- Node1&#45;&gt;Node10 -->
<g id="edge9_Node000001_Node000010" class="edge">
<title>Node1&#45;&gt;Node10</title>
<g id="a_edge9_Node000001_Node000010"><a xlink:title=" ">
<path fill="none" stroke="#63b8ff" d="M522.6,-197.99C472.68,-190.33 399.93,-177.86 337.5,-162 328.6,-159.74 319.23,-156.98 310.23,-154.13"/>
<polygon fill="#63b8ff" stroke="#63b8ff" points="311.23,-150.78 300.64,-151.02 309.07,-157.44 311.23,-150.78"/>
</a>
</g>
</g>
<!-- Node11 -->
<g id="Node000011" class="node">
<title>Node11</title>
<g id="a_Node000011"><a xlink:href="InitialiseValveButtonViewModel_8h.html" target="_top" xlink:title=" ">
<polygon fill="white" stroke="#666666" points="486,-156.5 347,-156.5 347,-115.5 486,-115.5 486,-156.5"/>
<text text-anchor="start" x="355" y="-144.5" font-family="Helvetica,sans-Serif" font-size="10.00">src/features/pid/misc</text>
<text text-anchor="start" x="355" y="-133.5" font-family="Helvetica,sans-Serif" font-size="10.00">/initialise_valve/Initialise</text>
<text text-anchor="middle" x="416.5" y="-122.5" font-family="Helvetica,sans-Serif" font-size="10.00">ValveButtonViewModel.h</text>
</a>
</g>
</g>
<!-- Node1&#45;&gt;Node11 -->
<g id="edge11_Node000001_Node000011" class="edge">
<title>Node1&#45;&gt;Node11</title>
<g id="a_edge11_Node000001_Node000011"><a xlink:title=" ">
<path fill="none" stroke="#63b8ff" d="M562.15,-197.98C539.94,-188.68 503.44,-173.4 472.53,-160.46"/>
<polygon fill="#63b8ff" stroke="#63b8ff" points="473.72,-157.16 463.14,-156.53 471.01,-163.62 473.72,-157.16"/>
</a>
</g>
</g>
<!-- Node12 -->
<g id="Node000012" class="node">
<title>Node12</title>
<g id="a_Node000012"><a xlink:href="ActuatorSwitchViewModel_8h.html" target="_top" xlink:title=" ">
<polygon fill="white" stroke="#666666" points="660.5,-151 504.5,-151 504.5,-121 660.5,-121 660.5,-151"/>
<text text-anchor="start" x="512.5" y="-139" font-family="Helvetica,sans-Serif" font-size="10.00">src/features/pid/actuator</text>
<text text-anchor="middle" x="582.5" y="-128" font-family="Helvetica,sans-Serif" font-size="10.00">/ActuatorSwitchViewModel.h</text>
</a>
</g>
</g>
<!-- Node1&#45;&gt;Node12 -->
<g id="edge13_Node000001_Node000012" class="edge">
<title>Node1&#45;&gt;Node12</title>
<g id="a_edge13_Node000001_Node000012"><a xlink:title=" ">
<path fill="none" stroke="#63b8ff" d="M582.5,-197.98C582.5,-188.86 582.5,-173.98 582.5,-161.2"/>
<polygon fill="#63b8ff" stroke="#63b8ff" points="586,-161.14 582.5,-151.14 579,-161.14 586,-161.14"/>
</a>
</g>
</g>
<!-- Node13 -->
<g id="Node000013" class="node">
<title>Node13</title>
<g id="a_Node000013"><a xlink:href="SensorValueIndicatorViewModel_8h.html" target="_top" xlink:title=" ">
<polygon fill="white" stroke="#666666" points="864,-151 679,-151 679,-121 864,-121 864,-151"/>
<text text-anchor="start" x="687" y="-139" font-family="Helvetica,sans-Serif" font-size="10.00">src/features/pid/sensors</text>
<text text-anchor="middle" x="771.5" y="-128" font-family="Helvetica,sans-Serif" font-size="10.00">/SensorValueIndicatorViewModel.h</text>
</a>
</g>
</g>
<!-- Node1&#45;&gt;Node13 -->
<g id="edge15_Node000001_Node000013" class="edge">
<title>Node1&#45;&gt;Node13</title>
<g id="a_edge15_Node000001_Node000013"><a xlink:title=" ">
<path fill="none" stroke="#63b8ff" d="M605.68,-197.98C634.9,-187.23 685.89,-168.48 723.63,-154.6"/>
<polygon fill="#63b8ff" stroke="#63b8ff" points="725.23,-157.74 733.41,-151.01 722.82,-151.17 725.23,-157.74"/>
</a>
</g>
</g>
<!-- Node14 -->
<g id="Node000014" class="node">
<title>Node14</title>
<g id="a_Node000014"><a xlink:href="TankPressureSettingsIndicatorViewModel_8h.html" target="_top" xlink:title=" ">
<polygon fill="white" stroke="#666666" points="1053,-162 882,-162 882,-110 1053,-110 1053,-162"/>
<text text-anchor="start" x="890" y="-150" font-family="Helvetica,sans-Serif" font-size="10.00">src/features/test/frames</text>
<text text-anchor="start" x="890" y="-139" font-family="Helvetica,sans-Serif" font-size="10.00">/tank_pressure/pressure</text>
<text text-anchor="start" x="890" y="-128" font-family="Helvetica,sans-Serif" font-size="10.00">_setting_indicator/TankPressure</text>
<text text-anchor="middle" x="967.5" y="-117" font-family="Helvetica,sans-Serif" font-size="10.00">SettingsIndicatorViewModel.h</text>
</a>
</g>
</g>
<!-- Node1&#45;&gt;Node14 -->
<g id="edge17_Node000001_Node000014" class="edge">
<title>Node1&#45;&gt;Node14</title>
<g id="a_edge17_Node000001_Node000014"><a xlink:title=" ">
<path fill="none" stroke="#63b8ff" d="M652.26,-197.99C709.02,-190.57 791.37,-178.69 871.51,-162.33"/>
<polygon fill="#63b8ff" stroke="#63b8ff" points="872.7,-165.66 881.78,-160.21 871.28,-158.8 872.7,-165.66"/>
</a>
</g>
</g>
<!-- Node3 -->
<g id="Node000003" class="node">
<title>Node3</title>
<g id="a_Node000003"><a xlink:href="PidTab_8h.html" target="_top" xlink:title=" ">
<polygon fill="white" stroke="#666666" points="159,-74 102,-74 102,-55 159,-55 159,-74"/>
<text text-anchor="middle" x="130.5" y="-62" font-family="Helvetica,sans-Serif" font-size="10.00">PidTab.h</text>
</a>
</g>
</g>
<!-- Node2&#45;&gt;Node3 -->
<g id="edge2_Node000002_Node000003" class="edge">
<title>Node2&#45;&gt;Node3</title>
<g id="a_edge2_Node000002_Node000003"><a xlink:title=" ">
<path fill="none" stroke="#63b8ff" d="M130.5,-126.48C130.5,-116.06 130.5,-98.11 130.5,-84.38"/>
<polygon fill="#63b8ff" stroke="#63b8ff" points="134,-84.09 130.5,-74.09 127,-84.09 134,-84.09"/>
</a>
</g>
</g>
<!-- Node4 -->
<g id="Node000004" class="node">
<title>Node4</title>
<g id="a_Node000004"><a xlink:title=" ">
<polygon fill="#e0e0e0" stroke="#999999" points="87,-19 0,-19 0,0 87,0 87,-19"/>
<text text-anchor="middle" x="43.5" y="-7" font-family="Helvetica,sans-Serif" font-size="10.00">QMainWindow</text>
</a>
</g>
</g>
<!-- Node3&#45;&gt;Node4 -->
<g id="edge3_Node000003_Node000004" class="edge">
<title>Node3&#45;&gt;Node4</title>
<g id="a_edge3_Node000003_Node000004"><a xlink:title=" ">
<path fill="none" stroke="#63b8ff" d="M116.52,-54.98C103.03,-46.77 82.37,-34.18 66.46,-24.49"/>
<polygon fill="#63b8ff" stroke="#63b8ff" points="68.09,-21.38 57.73,-19.17 64.45,-27.36 68.09,-21.38"/>
</a>
</g>
</g>
<!-- Node5 -->
<g id="Node000005" class="node">
<title>Node5</title>
<g id="a_Node000005"><a xlink:title=" ">
<polygon fill="#e0e0e0" stroke="#999999" points="155.5,-19 105.5,-19 105.5,0 155.5,0 155.5,-19"/>
<text text-anchor="middle" x="130.5" y="-7" font-family="Helvetica,sans-Serif" font-size="10.00">QLabel</text>
</a>
</g>
</g>
<!-- Node3&#45;&gt;Node5 -->
<g id="edge4_Node000003_Node000005" class="edge">
<title>Node3&#45;&gt;Node5</title>
<g id="a_edge4_Node000003_Node000005"><a xlink:title=" ">
<path fill="none" stroke="#63b8ff" d="M130.5,-54.75C130.5,-47.8 130.5,-37.85 130.5,-29.13"/>
<polygon fill="#63b8ff" stroke="#63b8ff" points="134,-29.09 130.5,-19.09 127,-29.09 134,-29.09"/>
</a>
</g>
</g>
<!-- Node6 -->
<g id="Node000006" class="node">
<title>Node6</title>
<g id="a_Node000006"><a xlink:title=" ">
<polygon fill="#e0e0e0" stroke="#999999" points="231,-19 174,-19 174,0 231,0 231,-19"/>
<text text-anchor="middle" x="202.5" y="-7" font-family="Helvetica,sans-Serif" font-size="10.00">QLayout</text>
</a>
</g>
</g>
<!-- Node3&#45;&gt;Node6 -->
<g id="edge5_Node000003_Node000006" class="edge">
<title>Node3&#45;&gt;Node6</title>
<g id="a_edge5_Node000003_Node000006"><a xlink:title=" ">
<path fill="none" stroke="#63b8ff" d="M142.07,-54.98C152.92,-47 169.38,-34.88 182.38,-25.31"/>
<polygon fill="#63b8ff" stroke="#63b8ff" points="184.74,-27.92 190.72,-19.17 180.59,-22.28 184.74,-27.92"/>
</a>
</g>
</g>
<!-- Node8 -->
<g id="Node000008" class="node">
<title>Node8</title>
<g id="a_Node000008"><a xlink:title=" ">
<polygon fill="#e0e0e0" stroke="#999999" points="704.5,-74 648.5,-74 648.5,-55 704.5,-55 704.5,-74"/>
<text text-anchor="middle" x="676.5" y="-62" font-family="Helvetica,sans-Serif" font-size="10.00">QObject</text>
</a>
</g>
</g>
<!-- Node7&#45;&gt;Node8 -->
<g id="edge7_Node000007_Node000008" class="edge">
<title>Node7&#45;&gt;Node8</title>
<g id="a_edge7_Node000007_Node000008"><a xlink:title=" ">
<path fill="none" stroke="#63b8ff" d="M1099.55,-120.97C1087.89,-116.89 1074.78,-112.78 1062.5,-110 937.33,-81.7 785.04,-70.89 715.05,-67.2"/>
<polygon fill="#63b8ff" stroke="#63b8ff" points="715.1,-63.7 704.94,-66.69 714.75,-70.69 715.1,-63.7"/>
</a>
</g>
</g>
<!-- Node9 -->
<g id="Node000009" class="node">
<title>Node9</title>
<g id="a_Node000009"><a xlink:title=" ">
<polygon fill="#e0e0e0" stroke="#999999" points="1168,-74 1103,-74 1103,-55 1168,-55 1168,-74"/>
<text text-anchor="middle" x="1135.5" y="-62" font-family="Helvetica,sans-Serif" font-size="10.00">typeindex</text>
</a>
</g>
</g>
<!-- Node7&#45;&gt;Node9 -->
<g id="edge8_Node000007_Node000009" class="edge">
<title>Node7&#45;&gt;Node9</title>
<g id="a_edge8_Node000007_Node000009"><a xlink:title=" ">
<path fill="none" stroke="#63b8ff" d="M1135.5,-120.94C1135.5,-110.46 1135.5,-96.05 1135.5,-84.55"/>
<polygon fill="#63b8ff" stroke="#63b8ff" points="1139,-84.27 1135.5,-74.27 1132,-84.27 1139,-84.27"/>
</a>
</g>
</g>
<!-- Node10&#45;&gt;Node8 -->
<g id="edge10_Node000010_Node000008" class="edge">
<title>Node10&#45;&gt;Node8</title>
<g id="a_edge10_Node000010_Node000008"><a xlink:title=" ">
<path fill="none" stroke="#63b8ff" d="M299.38,-120.99C311.43,-116.96 324.91,-112.87 337.5,-110 444.73,-85.55 574.32,-73.18 637.73,-68.21"/>
<polygon fill="#63b8ff" stroke="#63b8ff" points="638.35,-71.68 648.06,-67.43 637.82,-64.7 638.35,-71.68"/>
</a>
</g>
</g>
<!-- Node11&#45;&gt;Node8 -->
<g id="edge12_Node000011_Node000008" class="edge">
<title>Node11&#45;&gt;Node8</title>
<g id="a_edge12_Node000011_Node000008"><a xlink:title=" ">
<path fill="none" stroke="#63b8ff" d="M476.76,-115.48C483.07,-113.57 489.41,-111.71 495.5,-110 544.62,-96.2 601.9,-82.52 638.65,-74.05"/>
<polygon fill="#63b8ff" stroke="#63b8ff" points="639.48,-77.45 648.45,-71.8 637.92,-70.62 639.48,-77.45"/>
</a>
</g>
</g>
<!-- Node12&#45;&gt;Node8 -->
<g id="edge14_Node000012_Node000008" class="edge">
<title>Node12&#45;&gt;Node8</title>
<g id="a_edge14_Node000012_Node000008"><a xlink:title=" ">
<path fill="none" stroke="#63b8ff" d="M601.52,-120.94C617.55,-109.09 640.39,-92.2 656.65,-80.18"/>
<polygon fill="#63b8ff" stroke="#63b8ff" points="658.95,-82.83 664.91,-74.07 654.79,-77.2 658.95,-82.83"/>
</a>
</g>
</g>
<!-- Node13&#45;&gt;Node8 -->
<g id="edge16_Node000013_Node000008" class="edge">
<title>Node13&#45;&gt;Node8</title>
<g id="a_edge16_Node000013_Node000008"><a xlink:title=" ">
<path fill="none" stroke="#63b8ff" d="M752.28,-120.94C736.08,-109.09 712.99,-92.2 696.57,-80.18"/>
<polygon fill="#63b8ff" stroke="#63b8ff" points="698.35,-77.15 688.21,-74.07 694.22,-82.8 698.35,-77.15"/>
</a>
</g>
</g>
<!-- Node14&#45;&gt;Node8 -->
<g id="edge18_Node000014_Node000008" class="edge">
<title>Node14&#45;&gt;Node8</title>
<g id="a_edge18_Node000014_Node000008"><a xlink:title=" ">
<path fill="none" stroke="#63b8ff" d="M881.98,-112.11C879.12,-111.39 876.29,-110.69 873.5,-110 818.37,-96.45 754.18,-82.24 714.43,-73.62"/>
<polygon fill="#63b8ff" stroke="#63b8ff" points="715.15,-70.2 704.63,-71.51 713.67,-77.04 715.15,-70.2"/>
</a>
</g>
</g>
</g>
</svg>
