<?xml version="1.0" encoding="UTF-8" standalone="no"?>
<!DOCTYPE svg PUBLIC "-//W3C//DTD SVG 1.1//EN"
 "http://www.w3.org/Graphics/SVG/1.1/DTD/svg11.dtd">
<!-- Generated by graphviz version 2.43.0 (0)
 -->
<!-- Title: features/graphics/plot/PlotWidget.cpp Pages: 1 -->
<svg width="722pt" height="280pt"
 viewBox="0.00 0.00 722.00 280.00" xmlns="http://www.w3.org/2000/svg" xmlns:xlink="http://www.w3.org/1999/xlink">
<g id="graph0" class="graph" transform="scale(1 1) rotate(0) translate(4 276)">
<title>features/graphics/plot/PlotWidget.cpp</title>
<!-- Node1 -->
<g id="Node000001" class="node">
<title>Node1</title>
<g id="a_Node000001"><a xlink:title=" ">
<polygon fill="#999999" stroke="#666666" points="556,-272 433,-272 433,-242 556,-242 556,-272"/>
<text text-anchor="start" x="441" y="-260" font-family="Helvetica,sans-Serif" font-size="10.00">features/graphics/plot</text>
<text text-anchor="middle" x="494.5" y="-249" font-family="Helvetica,sans-Serif" font-size="10.00">/PlotWidget.cpp</text>
</a>
</g>
</g>
<!-- Node2 -->
<g id="Node000002" class="node">
<title>Node2</title>
<g id="a_Node000002"><a xlink:href="PlotWidget_8h.html" target="_top" xlink:title=" ">
<polygon fill="white" stroke="#666666" points="391,-206 312,-206 312,-187 391,-187 391,-206"/>
<text text-anchor="middle" x="351.5" y="-194" font-family="Helvetica,sans-Serif" font-size="10.00">PlotWidget.h</text>
</a>
</g>
</g>
<!-- Node1&#45;&gt;Node2 -->
<g id="edge1_Node000001_Node000002" class="edge">
<title>Node1&#45;&gt;Node2</title>
<g id="a_edge1_Node000001_Node000002"><a xlink:title=" ">
<path fill="none" stroke="#63b8ff" d="M460.25,-241.99C436.39,-232.23 404.85,-219.33 381.89,-209.93"/>
<polygon fill="#63b8ff" stroke="#63b8ff" points="383.2,-206.69 372.62,-206.14 380.55,-213.17 383.2,-206.69"/>
</a>
</g>
</g>
<!-- Node5 -->
<g id="Node000005" class="node">
<title>Node5</title>
<g id="a_Node000005"><a xlink:href="PlotViewModel_8h.html" target="_top" xlink:title=" ">
<polygon fill="white" stroke="#666666" points="506.5,-145.5 408.5,-145.5 408.5,-126.5 506.5,-126.5 506.5,-145.5"/>
<text text-anchor="middle" x="457.5" y="-133.5" font-family="Helvetica,sans-Serif" font-size="10.00">PlotViewModel.h</text>
</a>
</g>
</g>
<!-- Node1&#45;&gt;Node5 -->
<g id="edge16_Node000001_Node000005" class="edge">
<title>Node1&#45;&gt;Node5</title>
<g id="a_edge16_Node000001_Node000005"><a xlink:title=" ">
<path fill="none" stroke="#63b8ff" d="M480.01,-241.7C471.66,-232.41 461.96,-219.54 457.5,-206 452.11,-189.66 452.77,-169.94 454.38,-155.77"/>
<polygon fill="#63b8ff" stroke="#63b8ff" points="457.86,-156.16 455.79,-145.77 450.93,-155.19 457.86,-156.16"/>
</a>
</g>
</g>
<!-- Node16 -->
<g id="Node000016" class="node">
<title>Node16</title>
<g id="a_Node000016"><a xlink:title=" ">
<polygon fill="#e0e0e0" stroke="#999999" points="522,-206 467,-206 467,-187 522,-187 522,-206"/>
<text text-anchor="middle" x="494.5" y="-194" font-family="Helvetica,sans-Serif" font-size="10.00">QFrame</text>
</a>
</g>
</g>
<!-- Node1&#45;&gt;Node16 -->
<g id="edge17_Node000001_Node000016" class="edge">
<title>Node1&#45;&gt;Node16</title>
<g id="a_edge17_Node000001_Node000016"><a xlink:title=" ">
<path fill="none" stroke="#63b8ff" d="M494.5,-241.84C494.5,-234.21 494.5,-224.7 494.5,-216.45"/>
<polygon fill="#63b8ff" stroke="#63b8ff" points="498,-216.27 494.5,-206.27 491,-216.27 498,-216.27"/>
</a>
</g>
</g>
<!-- Node17 -->
<g id="Node000017" class="node">
<title>Node17</title>
<g id="a_Node000017"><a xlink:title=" ">
<polygon fill="#e0e0e0" stroke="#999999" points="623,-206 540,-206 540,-187 623,-187 623,-206"/>
<text text-anchor="middle" x="581.5" y="-194" font-family="Helvetica,sans-Serif" font-size="10.00">QHBoxLayout</text>
</a>
</g>
</g>
<!-- Node1&#45;&gt;Node17 -->
<g id="edge18_Node000001_Node000017" class="edge">
<title>Node1&#45;&gt;Node17</title>
<g id="a_edge18_Node000001_Node000017"><a xlink:title=" ">
<path fill="none" stroke="#63b8ff" d="M515.56,-241.84C529.04,-232.77 546.49,-221.04 560.05,-211.92"/>
<polygon fill="#63b8ff" stroke="#63b8ff" points="562.37,-214.58 568.72,-206.09 558.47,-208.77 562.37,-214.58"/>
</a>
</g>
</g>
<!-- Node18 -->
<g id="Node000018" class="node">
<title>Node18</title>
<g id="a_Node000018"><a xlink:title=" ">
<polygon fill="#e0e0e0" stroke="#999999" points="714,-206 641,-206 641,-187 714,-187 714,-206"/>
<text text-anchor="middle" x="677.5" y="-194" font-family="Helvetica,sans-Serif" font-size="10.00">QCheckBox</text>
</a>
</g>
</g>
<!-- Node1&#45;&gt;Node18 -->
<g id="edge19_Node000001_Node000018" class="edge">
<title>Node1&#45;&gt;Node18</title>
<g id="a_edge19_Node000001_Node000018"><a xlink:title=" ">
<path fill="none" stroke="#63b8ff" d="M538.33,-241.99C569.64,-231.98 611.28,-218.67 640.83,-209.22"/>
<polygon fill="#63b8ff" stroke="#63b8ff" points="642.28,-212.43 650.74,-206.05 640.15,-205.76 642.28,-212.43"/>
</a>
</g>
</g>
<!-- Node3 -->
<g id="Node000003" class="node">
<title>Node3</title>
<g id="a_Node000003"><a xlink:title=" ">
<polygon fill="#e0e0e0" stroke="#999999" points="221,-145.5 162,-145.5 162,-126.5 221,-126.5 221,-145.5"/>
<text text-anchor="middle" x="191.5" y="-133.5" font-family="Helvetica,sans-Serif" font-size="10.00">QWidget</text>
</a>
</g>
</g>
<!-- Node2&#45;&gt;Node3 -->
<g id="edge2_Node000002_Node000003" class="edge">
<title>Node2&#45;&gt;Node3</title>
<g id="a_edge2_Node000002_Node000003"><a xlink:title=" ">
<path fill="none" stroke="#63b8ff" d="M328.1,-186.99C303.54,-178.05 263.79,-163.57 229.5,-151 227.87,-150.4 226.19,-149.79 224.5,-149.17"/>
<polygon fill="#63b8ff" stroke="#63b8ff" points="225.4,-145.77 214.81,-145.6 222.98,-152.34 225.4,-145.77"/>
</a>
</g>
</g>
<!-- Node4 -->
<g id="Node000004" class="node">
<title>Node4</title>
<g id="a_Node000004"><a xlink:title=" ">
<polygon fill="#e0e0e0" stroke="#999999" points="390,-151 239,-151 239,-121 390,-121 390,-151"/>
<text text-anchor="start" x="247" y="-139" font-family="Helvetica,sans-Serif" font-size="10.00">dependencies/QCustomPlot</text>
<text text-anchor="middle" x="314.5" y="-128" font-family="Helvetica,sans-Serif" font-size="10.00">/qcustomplot.h</text>
</a>
</g>
</g>
<!-- Node2&#45;&gt;Node4 -->
<g id="edge3_Node000002_Node000004" class="edge">
<title>Node2&#45;&gt;Node4</title>
<g id="a_edge3_Node000002_Node000004"><a xlink:title=" ">
<path fill="none" stroke="#63b8ff" d="M346.04,-186.87C341.53,-179.74 334.92,-169.28 328.91,-159.79"/>
<polygon fill="#63b8ff" stroke="#63b8ff" points="331.73,-157.7 323.43,-151.11 325.81,-161.44 331.73,-157.7"/>
</a>
</g>
</g>
<!-- Node2&#45;&gt;Node5 -->
<g id="edge4_Node000002_Node000005" class="edge">
<title>Node2&#45;&gt;Node5</title>
<g id="a_edge4_Node000002_Node000005"><a xlink:title=" ">
<path fill="none" stroke="#63b8ff" d="M367.14,-186.87C384.44,-177.32 412.55,-161.81 432.83,-150.62"/>
<polygon fill="#63b8ff" stroke="#63b8ff" points="434.73,-153.56 441.8,-145.67 431.35,-147.43 434.73,-153.56"/>
</a>
</g>
</g>
<!-- Node6 -->
<g id="Node000006" class="node">
<title>Node6</title>
<g id="a_Node000006"><a xlink:href="Messages_8h.html" target="_top" xlink:title=" ">
<polygon fill="white" stroke="#666666" points="367,-85 264,-85 264,-55 367,-55 367,-85"/>
<text text-anchor="start" x="272" y="-73" font-family="Helvetica,sans-Serif" font-size="10.00">src/core/Protocols</text>
<text text-anchor="middle" x="315.5" y="-62" font-family="Helvetica,sans-Serif" font-size="10.00">/Messages.h</text>
</a>
</g>
</g>
<!-- Node5&#45;&gt;Node6 -->
<g id="edge5_Node000005_Node000006" class="edge">
<title>Node5&#45;&gt;Node6</title>
<g id="a_edge5_Node000005_Node000006"><a xlink:title=" ">
<path fill="none" stroke="#63b8ff" d="M438.35,-126.37C417.36,-116.91 383.07,-101.45 356.04,-89.27"/>
<polygon fill="#63b8ff" stroke="#63b8ff" points="357.37,-86.03 346.82,-85.12 354.5,-92.42 357.37,-86.03"/>
</a>
</g>
</g>
<!-- Node13 -->
<g id="Node000013" class="node">
<title>Node13</title>
<g id="a_Node000013"><a xlink:title=" ">
<polygon fill="#e0e0e0" stroke="#999999" points="548.5,-19 492.5,-19 492.5,0 548.5,0 548.5,-19"/>
<text text-anchor="middle" x="520.5" y="-7" font-family="Helvetica,sans-Serif" font-size="10.00">QObject</text>
</a>
</g>
</g>
<!-- Node5&#45;&gt;Node13 -->
<g id="edge14_Node000005_Node000013" class="edge">
<title>Node5&#45;&gt;Node13</title>
<g id="a_edge14_Node000005_Node000013"><a xlink:title=" ">
<path fill="none" stroke="#63b8ff" d="M458.05,-126.03C459.34,-110.61 463.48,-78.47 476.5,-55 482.71,-43.8 492.54,-33.48 501.33,-25.6"/>
<polygon fill="#63b8ff" stroke="#63b8ff" points="503.62,-28.24 508.98,-19.1 499.09,-22.91 503.62,-28.24"/>
</a>
</g>
</g>
<!-- Node15 -->
<g id="Node000015" class="node">
<title>Node15</title>
<g id="a_Node000015"><a xlink:title=" ">
<polygon fill="#e0e0e0" stroke="#999999" points="535.5,-79.5 485.5,-79.5 485.5,-60.5 535.5,-60.5 535.5,-79.5"/>
<text text-anchor="middle" x="510.5" y="-67.5" font-family="Helvetica,sans-Serif" font-size="10.00">QColor</text>
</a>
</g>
</g>
<!-- Node5&#45;&gt;Node15 -->
<g id="edge15_Node000005_Node000015" class="edge">
<title>Node5&#45;&gt;Node15</title>
<g id="a_edge15_Node000005_Node000015"><a xlink:title=" ">
<path fill="none" stroke="#63b8ff" d="M464.65,-126.37C472.82,-116.5 486.39,-100.11 496.66,-87.72"/>
<polygon fill="#63b8ff" stroke="#63b8ff" points="499.44,-89.84 503.13,-79.91 494.05,-85.37 499.44,-89.84"/>
</a>
</g>
</g>
<!-- Node7 -->
<g id="Node000007" class="node">
<title>Node7</title>
<g id="a_Node000007"><a xlink:title=" ">
<polygon fill="#e0e0e0" stroke="#999999" points="51,-19 0,-19 0,0 51,0 51,-19"/>
<text text-anchor="middle" x="25.5" y="-7" font-family="Helvetica,sans-Serif" font-size="10.00">variant</text>
</a>
</g>
</g>
<!-- Node6&#45;&gt;Node7 -->
<g id="edge6_Node000006_Node000007" class="edge">
<title>Node6&#45;&gt;Node7</title>
<g id="a_edge6_Node000006_Node000007"><a xlink:title=" ">
<path fill="none" stroke="#63b8ff" d="M263.59,-59.52C214.08,-50.33 137.19,-35.64 60.87,-19"/>
<polygon fill="#63b8ff" stroke="#63b8ff" points="61.6,-15.57 51.08,-16.85 60.1,-22.41 61.6,-15.57"/>
</a>
</g>
</g>
<!-- Node8 -->
<g id="Node000008" class="node">
<title>Node8</title>
<g id="a_Node000008"><a xlink:title=" ">
<polygon fill="#e0e0e0" stroke="#999999" points="119.5,-19 69.5,-19 69.5,0 119.5,0 119.5,-19"/>
<text text-anchor="middle" x="94.5" y="-7" font-family="Helvetica,sans-Serif" font-size="10.00">cstdint</text>
</a>
</g>
</g>
<!-- Node6&#45;&gt;Node8 -->
<g id="edge7_Node000006_Node000008" class="edge">
<title>Node6&#45;&gt;Node8</title>
<g id="a_edge7_Node000006_Node000008"><a xlink:title=" ">
<path fill="none" stroke="#63b8ff" d="M263.96,-55.36C222.75,-44.45 166.07,-29.44 129.85,-19.86"/>
<polygon fill="#63b8ff" stroke="#63b8ff" points="130.32,-16.36 119.76,-17.19 128.53,-23.13 130.32,-16.36"/>
</a>
</g>
</g>
<!-- Node9 -->
<g id="Node000009" class="node">
<title>Node9</title>
<g id="a_Node000009"><a xlink:title=" ">
<polygon fill="#e0e0e0" stroke="#999999" points="181.5,-19 137.5,-19 137.5,0 181.5,0 181.5,-19"/>
<text text-anchor="middle" x="159.5" y="-7" font-family="Helvetica,sans-Serif" font-size="10.00">string</text>
</a>
</g>
</g>
<!-- Node6&#45;&gt;Node9 -->
<g id="edge8_Node000006_Node000009" class="edge">
<title>Node6&#45;&gt;Node9</title>
<g id="a_edge8_Node000006_Node000009"><a xlink:title=" ">
<path fill="none" stroke="#63b8ff" d="M278.13,-54.99C251.56,-45.02 216.24,-31.78 191.07,-22.34"/>
<polygon fill="#63b8ff" stroke="#63b8ff" points="192.22,-19.03 181.63,-18.8 189.76,-25.59 192.22,-19.03"/>
</a>
</g>
</g>
<!-- Node10 -->
<g id="Node000010" class="node">
<title>Node10</title>
<g id="a_Node000010"><a xlink:title=" ">
<polygon fill="#e0e0e0" stroke="#999999" points="273,-19 200,-19 200,0 273,0 273,-19"/>
<text text-anchor="middle" x="236.5" y="-7" font-family="Helvetica,sans-Serif" font-size="10.00">QByteArray</text>
</a>
</g>
</g>
<!-- Node6&#45;&gt;Node10 -->
<g id="edge9_Node000006_Node000010" class="edge">
<title>Node6&#45;&gt;Node10</title>
<g id="a_edge9_Node000006_Node000010"><a xlink:title=" ">
<path fill="none" stroke="#63b8ff" d="M296.38,-54.84C284.32,-45.91 268.79,-34.41 256.56,-25.35"/>
<polygon fill="#63b8ff" stroke="#63b8ff" points="258.46,-22.4 248.34,-19.27 254.29,-28.03 258.46,-22.4"/>
</a>
</g>
</g>
<!-- Node11 -->
<g id="Node000011" class="node">
<title>Node11</title>
<g id="a_Node000011"><a xlink:title=" ">
<polygon fill="#e0e0e0" stroke="#999999" points="340,-19 291,-19 291,0 340,0 340,-19"/>
<text text-anchor="middle" x="315.5" y="-7" font-family="Helvetica,sans-Serif" font-size="10.00">QHash</text>
</a>
</g>
</g>
<!-- Node6&#45;&gt;Node11 -->
<g id="edge10_Node000006_Node000011" class="edge">
<title>Node6&#45;&gt;Node11</title>
<g id="a_edge10_Node000006_Node000011"><a xlink:title=" ">
<path fill="none" stroke="#63b8ff" d="M315.5,-54.84C315.5,-47.21 315.5,-37.7 315.5,-29.45"/>
<polygon fill="#63b8ff" stroke="#63b8ff" points="319,-29.27 315.5,-19.27 312,-29.27 319,-29.27"/>
</a>
</g>
</g>
<!-- Node12 -->
<g id="Node000012" class="node">
<title>Node12</title>
<g id="a_Node000012"><a xlink:title=" ">
<polygon fill="#e0e0e0" stroke="#999999" points="411,-19 358,-19 358,0 411,0 411,-19"/>
<text text-anchor="middle" x="384.5" y="-7" font-family="Helvetica,sans-Serif" font-size="10.00">QString</text>
</a>
</g>
</g>
<!-- Node6&#45;&gt;Node12 -->
<g id="edge11_Node000006_Node000012" class="edge">
<title>Node6&#45;&gt;Node12</title>
<g id="a_edge11_Node000006_Node000012"><a xlink:title=" ">
<path fill="none" stroke="#63b8ff" d="M332.2,-54.84C342.53,-46.09 355.78,-34.85 366.36,-25.88"/>
<polygon fill="#63b8ff" stroke="#63b8ff" points="368.8,-28.4 374.16,-19.27 364.27,-23.06 368.8,-28.4"/>
</a>
</g>
</g>
<!-- Node6&#45;&gt;Node13 -->
<g id="edge12_Node000006_Node000013" class="edge">
<title>Node6&#45;&gt;Node13</title>
<g id="a_edge12_Node000006_Node000013"><a xlink:title=" ">
<path fill="none" stroke="#63b8ff" d="M364.6,-54.99C400.78,-44.66 449.27,-30.83 482.51,-21.34"/>
<polygon fill="#63b8ff" stroke="#63b8ff" points="483.65,-24.66 492.3,-18.55 481.73,-17.93 483.65,-24.66"/>
</a>
</g>
</g>
<!-- Node14 -->
<g id="Node000014" class="node">
<title>Node14</title>
<g id="a_Node000014"><a xlink:title=" ">
<polygon fill="#e0e0e0" stroke="#999999" points="474,-19 429,-19 429,0 474,0 474,-19"/>
<text text-anchor="middle" x="451.5" y="-7" font-family="Helvetica,sans-Serif" font-size="10.00">QMap</text>
</a>
</g>
</g>
<!-- Node6&#45;&gt;Node14 -->
<g id="edge13_Node000006_Node000014" class="edge">
<title>Node6&#45;&gt;Node14</title>
<g id="a_edge13_Node000006_Node000014"><a xlink:title=" ">
<path fill="none" stroke="#63b8ff" d="M348.08,-54.99C370.56,-45.31 400.22,-32.56 422.01,-23.18"/>
<polygon fill="#63b8ff" stroke="#63b8ff" points="423.61,-26.31 431.42,-19.14 420.85,-19.88 423.61,-26.31"/>
</a>
</g>
</g>
</g>
</svg>
