<?xml version="1.0" encoding="UTF-8" standalone="no"?>
<!DOCTYPE svg PUBLIC "-//W3C//DTD SVG 1.1//EN"
 "http://www.w3.org/Graphics/SVG/1.1/DTD/svg11.dtd">
<!-- Generated by graphviz version 2.43.0 (0)
 -->
<!-- Title: features/graphics/plot/PlotViewModel.h Pages: 1 -->
<svg width="702pt" height="170pt"
 viewBox="0.00 0.00 702.00 170.00" xmlns="http://www.w3.org/2000/svg" xmlns:xlink="http://www.w3.org/1999/xlink">
<g id="graph0" class="graph" transform="scale(1 1) rotate(0) translate(4 166)">
<title>features/graphics/plot/PlotViewModel.h</title>
<!-- Node1 -->
<g id="Node000001" class="node">
<title>Node1</title>
<g id="a_Node000001"><a xlink:title=" ">
<polygon fill="#999999" stroke="#666666" points="373.5,-162 250.5,-162 250.5,-132 373.5,-132 373.5,-162"/>
<text text-anchor="start" x="258.5" y="-150" font-family="Helvetica,sans-Serif" font-size="10.00">features/graphics/plot</text>
<text text-anchor="middle" x="312" y="-139" font-family="Helvetica,sans-Serif" font-size="10.00">/PlotViewModel.h</text>
</a>
</g>
</g>
<!-- Node2 -->
<g id="Node000002" class="node">
<title>Node2</title>
<g id="a_Node000002"><a xlink:href="GraphicTabFactory_8cpp.html" target="_top" xlink:title=" ">
<polygon fill="white" stroke="#666666" points="142,-96 0,-96 0,-66 142,-66 142,-96"/>
<text text-anchor="start" x="8" y="-84" font-family="Helvetica,sans-Serif" font-size="10.00">features/graphics/Graphic</text>
<text text-anchor="middle" x="71" y="-73" font-family="Helvetica,sans-Serif" font-size="10.00">TabFactory.cpp</text>
</a>
</g>
</g>
<!-- Node1&#45;&gt;Node2 -->
<g id="edge1_Node000001_Node000002" class="edge">
<title>Node1&#45;&gt;Node2</title>
<g id="a_edge1_Node000001_Node000002"><a xlink:title=" ">
<path fill="none" stroke="#63b8ff" d="M249.44,-129.39C210.42,-119.03 160.78,-105.84 123.77,-96.01"/>
<polygon fill="#63b8ff" stroke="#63b8ff" points="248.55,-132.77 259.11,-131.95 250.34,-126.01 248.55,-132.77"/>
</a>
</g>
</g>
<!-- Node3 -->
<g id="Node000003" class="node">
<title>Node3</title>
<g id="a_Node000003"><a xlink:href="PlotViewModel_8cpp.html" target="_top" xlink:title=" ">
<polygon fill="white" stroke="#666666" points="283.5,-96 160.5,-96 160.5,-66 283.5,-66 283.5,-96"/>
<text text-anchor="start" x="168.5" y="-84" font-family="Helvetica,sans-Serif" font-size="10.00">features/graphics/plot</text>
<text text-anchor="middle" x="222" y="-73" font-family="Helvetica,sans-Serif" font-size="10.00">/PlotViewModel.cpp</text>
</a>
</g>
</g>
<!-- Node1&#45;&gt;Node3 -->
<g id="edge2_Node000001_Node000003" class="edge">
<title>Node1&#45;&gt;Node3</title>
<g id="a_edge2_Node000001_Node000003"><a xlink:title=" ">
<path fill="none" stroke="#63b8ff" d="M283.53,-125.75C269.99,-116.13 254.14,-104.86 241.92,-96.16"/>
<polygon fill="#63b8ff" stroke="#63b8ff" points="281.85,-128.85 292.03,-131.8 285.9,-123.15 281.85,-128.85"/>
</a>
</g>
</g>
<!-- Node4 -->
<g id="Node000004" class="node">
<title>Node4</title>
<g id="a_Node000004"><a xlink:href="PlotWidget_8cpp.html" target="_top" xlink:title=" ">
<polygon fill="white" stroke="#666666" points="373.5,-30 250.5,-30 250.5,0 373.5,0 373.5,-30"/>
<text text-anchor="start" x="258.5" y="-18" font-family="Helvetica,sans-Serif" font-size="10.00">features/graphics/plot</text>
<text text-anchor="middle" x="312" y="-7" font-family="Helvetica,sans-Serif" font-size="10.00">/PlotWidget.cpp</text>
</a>
</g>
</g>
<!-- Node1&#45;&gt;Node4 -->
<g id="edge3_Node000001_Node000004" class="edge">
<title>Node1&#45;&gt;Node4</title>
<g id="a_edge3_Node000001_Node000004"><a xlink:title=" ">
<path fill="none" stroke="#63b8ff" d="M312,-121.68C312,-94.7 312,-52.11 312,-30.14"/>
<polygon fill="#63b8ff" stroke="#63b8ff" points="308.5,-121.84 312,-131.84 315.5,-121.84 308.5,-121.84"/>
</a>
</g>
</g>
<!-- Node5 -->
<g id="Node000005" class="node">
<title>Node5</title>
<g id="a_Node000005"><a xlink:href="PlotWidget_8h.html" target="_top" xlink:title=" ">
<polygon fill="white" stroke="#666666" points="463.5,-96 340.5,-96 340.5,-66 463.5,-66 463.5,-96"/>
<text text-anchor="start" x="348.5" y="-84" font-family="Helvetica,sans-Serif" font-size="10.00">features/graphics/plot</text>
<text text-anchor="middle" x="402" y="-73" font-family="Helvetica,sans-Serif" font-size="10.00">/PlotWidget.h</text>
</a>
</g>
</g>
<!-- Node1&#45;&gt;Node5 -->
<g id="edge4_Node000001_Node000005" class="edge">
<title>Node1&#45;&gt;Node5</title>
<g id="a_edge4_Node000001_Node000005"><a xlink:title=" ">
<path fill="none" stroke="#63b8ff" d="M340.47,-125.75C354.01,-116.13 369.86,-104.86 382.08,-96.16"/>
<polygon fill="#63b8ff" stroke="#63b8ff" points="338.1,-123.15 331.97,-131.8 342.15,-128.85 338.1,-123.15"/>
</a>
</g>
</g>
<!-- Node7 -->
<g id="Node000007" class="node">
<title>Node7</title>
<g id="a_Node000007"><a xlink:href="AppViewModels_8cpp.html" target="_top" xlink:title=" ">
<polygon fill="white" stroke="#666666" points="694,-90.5 482,-90.5 482,-71.5 694,-71.5 694,-90.5"/>
<text text-anchor="middle" x="588" y="-78.5" font-family="Helvetica,sans-Serif" font-size="10.00">mvvm/viewmodels/AppViewModels.cpp</text>
</a>
</g>
</g>
<!-- Node1&#45;&gt;Node7 -->
<g id="edge7_Node000001_Node000007" class="edge">
<title>Node1&#45;&gt;Node7</title>
<g id="a_edge7_Node000001_Node000007"><a xlink:title=" ">
<path fill="none" stroke="#63b8ff" d="M382.4,-129.68C436.24,-117.19 508.31,-100.48 551.27,-90.52"/>
<polygon fill="#63b8ff" stroke="#63b8ff" points="381.52,-126.29 372.57,-131.95 383.1,-133.11 381.52,-126.29"/>
</a>
</g>
</g>
<!-- Node5&#45;&gt;Node4 -->
<g id="edge6_Node000005_Node000004" class="edge">
<title>Node5&#45;&gt;Node4</title>
<g id="a_edge6_Node000005_Node000004"><a xlink:title=" ">
<path fill="none" stroke="#63b8ff" d="M373.53,-59.75C359.99,-50.13 344.14,-38.86 331.92,-30.16"/>
<polygon fill="#63b8ff" stroke="#63b8ff" points="371.85,-62.85 382.03,-65.8 375.9,-57.15 371.85,-62.85"/>
</a>
</g>
</g>
<!-- Node6 -->
<g id="Node000006" class="node">
<title>Node6</title>
<g id="a_Node000006"><a xlink:href="GraphicTabView_8cpp.html" target="_top" xlink:title=" ">
<polygon fill="white" stroke="#666666" points="534,-30 392,-30 392,0 534,0 534,-30"/>
<text text-anchor="start" x="400" y="-18" font-family="Helvetica,sans-Serif" font-size="10.00">features/graphics/Graphic</text>
<text text-anchor="middle" x="463" y="-7" font-family="Helvetica,sans-Serif" font-size="10.00">TabView.cpp</text>
</a>
</g>
</g>
<!-- Node5&#45;&gt;Node6 -->
<g id="edge5_Node000005_Node000006" class="edge">
<title>Node5&#45;&gt;Node6</title>
<g id="a_edge5_Node000005_Node000006"><a xlink:title=" ">
<path fill="none" stroke="#63b8ff" d="M422.62,-58.37C431.49,-49.06 441.61,-38.44 449.5,-30.16"/>
<polygon fill="#63b8ff" stroke="#63b8ff" points="419.9,-56.14 415.54,-65.8 424.97,-60.97 419.9,-56.14"/>
</a>
</g>
</g>
</g>
</svg>
