<?xml version="1.0" encoding="UTF-8" standalone="no"?>
<!DOCTYPE svg PUBLIC "-//W3C//DTD SVG 1.1//EN"
 "http://www.w3.org/Graphics/SVG/1.1/DTD/svg11.dtd">
<!-- Generated by graphviz version 2.43.0 (0)
 -->
<!-- Title: features/graphics/plot/PlotViewModel.cpp Pages: 1 -->
<svg width="800pt" height="225pt"
 viewBox="0.00 0.00 800.00 225.00" xmlns="http://www.w3.org/2000/svg" xmlns:xlink="http://www.w3.org/1999/xlink">
<g id="graph0" class="graph" transform="scale(1 1) rotate(0) translate(4 221)">
<title>features/graphics/plot/PlotViewModel.cpp</title>
<!-- Node1 -->
<g id="Node000001" class="node">
<title>Node1</title>
<g id="a_Node000001"><a xlink:title=" ">
<polygon fill="#999999" stroke="#666666" points="636.5,-217 513.5,-217 513.5,-187 636.5,-187 636.5,-217"/>
<text text-anchor="start" x="521.5" y="-205" font-family="Helvetica,sans-Serif" font-size="10.00">features/graphics/plot</text>
<text text-anchor="middle" x="575" y="-194" font-family="Helvetica,sans-Serif" font-size="10.00">/PlotViewModel.cpp</text>
</a>
</g>
</g>
<!-- Node2 -->
<g id="Node000002" class="node">
<title>Node2</title>
<g id="a_Node000002"><a xlink:href="TestBenchModel_8h.html" target="_top" xlink:title=" ">
<polygon fill="white" stroke="#666666" points="388.5,-151 239.5,-151 239.5,-121 388.5,-121 388.5,-151"/>
<text text-anchor="start" x="247.5" y="-139" font-family="Helvetica,sans-Serif" font-size="10.00">src/features/test/TestBench</text>
<text text-anchor="middle" x="314" y="-128" font-family="Helvetica,sans-Serif" font-size="10.00">Model.h</text>
</a>
</g>
</g>
<!-- Node1&#45;&gt;Node2 -->
<g id="edge1_Node000001_Node000002" class="edge">
<title>Node1&#45;&gt;Node2</title>
<g id="a_edge1_Node000001_Node000002"><a xlink:title=" ">
<path fill="none" stroke="#63b8ff" d="M517.72,-186.95C477.44,-177.08 423.38,-163.82 381.08,-153.45"/>
<polygon fill="#63b8ff" stroke="#63b8ff" points="381.69,-149.99 371.14,-151.01 380.02,-156.79 381.69,-149.99"/>
</a>
</g>
</g>
<!-- Node12 -->
<g id="Node000012" class="node">
<title>Node12</title>
<g id="a_Node000012"><a xlink:href="PlotViewModel_8h.html" target="_top" xlink:title=" ">
<polygon fill="white" stroke="#666666" points="504,-145.5 406,-145.5 406,-126.5 504,-126.5 504,-145.5"/>
<text text-anchor="middle" x="455" y="-133.5" font-family="Helvetica,sans-Serif" font-size="10.00">PlotViewModel.h</text>
</a>
</g>
</g>
<!-- Node1&#45;&gt;Node12 -->
<g id="edge13_Node000001_Node000012" class="edge">
<title>Node1&#45;&gt;Node12</title>
<g id="a_edge13_Node000001_Node000012"><a xlink:title=" ">
<path fill="none" stroke="#63b8ff" d="M548.67,-186.95C528.18,-176.03 499.94,-160.97 479.84,-150.25"/>
<polygon fill="#63b8ff" stroke="#63b8ff" points="481.44,-147.14 470.97,-145.52 478.15,-153.31 481.44,-147.14"/>
</a>
</g>
</g>
<!-- Node14 -->
<g id="Node000014" class="node">
<title>Node14</title>
<g id="a_Node000014"><a xlink:href="Timer_8h.html" target="_top" xlink:title=" ">
<polygon fill="white" stroke="#666666" points="628,-151 522,-151 522,-121 628,-121 628,-151"/>
<text text-anchor="start" x="530" y="-139" font-family="Helvetica,sans-Serif" font-size="10.00">src/services/Timer</text>
<text text-anchor="middle" x="575" y="-128" font-family="Helvetica,sans-Serif" font-size="10.00">/Timer.h</text>
</a>
</g>
</g>
<!-- Node1&#45;&gt;Node14 -->
<g id="edge17_Node000001_Node000014" class="edge">
<title>Node1&#45;&gt;Node14</title>
<g id="a_edge17_Node000001_Node000014"><a xlink:title=" ">
<path fill="none" stroke="#63b8ff" d="M575,-186.8C575,-179.34 575,-169.99 575,-161.41"/>
<polygon fill="#63b8ff" stroke="#63b8ff" points="578.5,-161.16 575,-151.16 571.5,-161.16 578.5,-161.16"/>
</a>
</g>
</g>
<!-- Node16 -->
<g id="Node000016" class="node">
<title>Node16</title>
<g id="a_Node000016"><a xlink:title=" ">
<polygon fill="#e0e0e0" stroke="#999999" points="702,-145.5 646,-145.5 646,-126.5 702,-126.5 702,-145.5"/>
<text text-anchor="middle" x="674" y="-133.5" font-family="Helvetica,sans-Serif" font-size="10.00">QDebug</text>
</a>
</g>
</g>
<!-- Node1&#45;&gt;Node16 -->
<g id="edge19_Node000001_Node000016" class="edge">
<title>Node1&#45;&gt;Node16</title>
<g id="a_edge19_Node000001_Node000016"><a xlink:title=" ">
<path fill="none" stroke="#63b8ff" d="M596.97,-186.8C613.41,-176.17 635.79,-161.7 652.19,-151.1"/>
<polygon fill="#63b8ff" stroke="#63b8ff" points="654.11,-154.03 660.61,-145.66 650.31,-148.15 654.11,-154.03"/>
</a>
</g>
</g>
<!-- Node17 -->
<g id="Node000017" class="node">
<title>Node17</title>
<g id="a_Node000017"><a xlink:title=" ">
<polygon fill="#e0e0e0" stroke="#999999" points="792,-145.5 720,-145.5 720,-126.5 792,-126.5 792,-145.5"/>
<text text-anchor="middle" x="756" y="-133.5" font-family="Helvetica,sans-Serif" font-size="10.00">QDateTime</text>
</a>
</g>
</g>
<!-- Node1&#45;&gt;Node17 -->
<g id="edge20_Node000001_Node000017" class="edge">
<title>Node1&#45;&gt;Node17</title>
<g id="a_edge20_Node000001_Node000017"><a xlink:title=" ">
<path fill="none" stroke="#63b8ff" d="M614.72,-186.95C646.88,-175.58 691.7,-159.74 722.17,-148.96"/>
<polygon fill="#63b8ff" stroke="#63b8ff" points="723.65,-152.15 731.91,-145.52 721.32,-145.55 723.65,-152.15"/>
</a>
</g>
</g>
<!-- Node3 -->
<g id="Node000003" class="node">
<title>Node3</title>
<g id="a_Node000003"><a xlink:title=" ">
<polygon fill="#e0e0e0" stroke="#999999" points="548,-19 492,-19 492,0 548,0 548,-19"/>
<text text-anchor="middle" x="520" y="-7" font-family="Helvetica,sans-Serif" font-size="10.00">QObject</text>
</a>
</g>
</g>
<!-- Node2&#45;&gt;Node3 -->
<g id="edge2_Node000002_Node000003" class="edge">
<title>Node2&#45;&gt;Node3</title>
<g id="a_edge2_Node000002_Node000003"><a xlink:title=" ">
<path fill="none" stroke="#63b8ff" d="M337.23,-120.96C376.98,-96.94 457.55,-48.24 497.08,-24.35"/>
<polygon fill="#63b8ff" stroke="#63b8ff" points="499.01,-27.28 505.75,-19.11 495.39,-21.29 499.01,-27.28"/>
</a>
</g>
</g>
<!-- Node4 -->
<g id="Node000004" class="node">
<title>Node4</title>
<g id="a_Node000004"><a xlink:title=" ">
<polygon fill="#e0e0e0" stroke="#999999" points="44,-19 0,-19 0,0 44,0 44,-19"/>
<text text-anchor="middle" x="22" y="-7" font-family="Helvetica,sans-Serif" font-size="10.00">string</text>
</a>
</g>
</g>
<!-- Node2&#45;&gt;Node4 -->
<g id="edge3_Node000002_Node000004" class="edge">
<title>Node2&#45;&gt;Node4</title>
<g id="a_edge3_Node000002_Node000004"><a xlink:title=" ">
<path fill="none" stroke="#63b8ff" d="M281.07,-120.96C223.78,-96.53 106.65,-46.59 51.7,-23.16"/>
<polygon fill="#63b8ff" stroke="#63b8ff" points="52.76,-19.81 42.19,-19.11 50.02,-26.25 52.76,-19.81"/>
</a>
</g>
</g>
<!-- Node5 -->
<g id="Node000005" class="node">
<title>Node5</title>
<g id="a_Node000005"><a xlink:href="Messages_8h.html" target="_top" xlink:title=" ">
<polygon fill="white" stroke="#666666" points="365.5,-85 262.5,-85 262.5,-55 365.5,-55 365.5,-85"/>
<text text-anchor="start" x="270.5" y="-73" font-family="Helvetica,sans-Serif" font-size="10.00">src/core/Protocols</text>
<text text-anchor="middle" x="314" y="-62" font-family="Helvetica,sans-Serif" font-size="10.00">/Messages.h</text>
</a>
</g>
</g>
<!-- Node2&#45;&gt;Node5 -->
<g id="edge4_Node000002_Node000005" class="edge">
<title>Node2&#45;&gt;Node5</title>
<g id="a_edge4_Node000002_Node000005"><a xlink:title=" ">
<path fill="none" stroke="#63b8ff" d="M314,-120.8C314,-113.34 314,-103.99 314,-95.41"/>
<polygon fill="#63b8ff" stroke="#63b8ff" points="317.5,-95.16 314,-85.16 310.5,-95.16 317.5,-95.16"/>
</a>
</g>
</g>
<!-- Node5&#45;&gt;Node3 -->
<g id="edge11_Node000005_Node000003" class="edge">
<title>Node5&#45;&gt;Node3</title>
<g id="a_edge11_Node000005_Node000003"><a xlink:title=" ">
<path fill="none" stroke="#63b8ff" d="M363.34,-54.99C399.8,-44.63 448.71,-30.75 482.12,-21.26"/>
<polygon fill="#63b8ff" stroke="#63b8ff" points="483.29,-24.56 491.96,-18.46 481.38,-17.83 483.29,-24.56"/>
</a>
</g>
</g>
<!-- Node5&#45;&gt;Node4 -->
<g id="edge7_Node000005_Node000004" class="edge">
<title>Node5&#45;&gt;Node4</title>
<g id="a_edge7_Node000005_Node000004"><a xlink:title=" ">
<path fill="none" stroke="#63b8ff" d="M262.25,-60.32C211.57,-51.54 131.99,-37.02 54.26,-19.15"/>
<polygon fill="#63b8ff" stroke="#63b8ff" points="54.83,-15.69 44.3,-16.84 53.25,-22.51 54.83,-15.69"/>
</a>
</g>
</g>
<!-- Node6 -->
<g id="Node000006" class="node">
<title>Node6</title>
<g id="a_Node000006"><a xlink:title=" ">
<polygon fill="#e0e0e0" stroke="#999999" points="405.5,-19 354.5,-19 354.5,0 405.5,0 405.5,-19"/>
<text text-anchor="middle" x="380" y="-7" font-family="Helvetica,sans-Serif" font-size="10.00">variant</text>
</a>
</g>
</g>
<!-- Node5&#45;&gt;Node6 -->
<g id="edge5_Node000005_Node000006" class="edge">
<title>Node5&#45;&gt;Node6</title>
<g id="a_edge5_Node000005_Node000006"><a xlink:title=" ">
<path fill="none" stroke="#63b8ff" d="M329.98,-54.84C339.75,-46.17 352.27,-35.08 362.34,-26.15"/>
<polygon fill="#63b8ff" stroke="#63b8ff" points="364.95,-28.52 370.11,-19.27 360.31,-23.28 364.95,-28.52"/>
</a>
</g>
</g>
<!-- Node7 -->
<g id="Node000007" class="node">
<title>Node7</title>
<g id="a_Node000007"><a xlink:title=" ">
<polygon fill="#e0e0e0" stroke="#999999" points="474,-19 424,-19 424,0 474,0 474,-19"/>
<text text-anchor="middle" x="449" y="-7" font-family="Helvetica,sans-Serif" font-size="10.00">cstdint</text>
</a>
</g>
</g>
<!-- Node5&#45;&gt;Node7 -->
<g id="edge6_Node000005_Node000007" class="edge">
<title>Node5&#45;&gt;Node7</title>
<g id="a_edge6_Node000005_Node000007"><a xlink:title=" ">
<path fill="none" stroke="#63b8ff" d="M346.34,-54.99C368.66,-45.31 398.1,-32.56 419.73,-23.18"/>
<polygon fill="#63b8ff" stroke="#63b8ff" points="421.28,-26.33 429.06,-19.14 418.5,-19.9 421.28,-26.33"/>
</a>
</g>
</g>
<!-- Node8 -->
<g id="Node000008" class="node">
<title>Node8</title>
<g id="a_Node000008"><a xlink:title=" ">
<polygon fill="#e0e0e0" stroke="#999999" points="135.5,-19 62.5,-19 62.5,0 135.5,0 135.5,-19"/>
<text text-anchor="middle" x="99" y="-7" font-family="Helvetica,sans-Serif" font-size="10.00">QByteArray</text>
</a>
</g>
</g>
<!-- Node5&#45;&gt;Node8 -->
<g id="edge8_Node000005_Node000008" class="edge">
<title>Node5&#45;&gt;Node8</title>
<g id="a_edge8_Node000005_Node000008"><a xlink:title=" ">
<path fill="none" stroke="#63b8ff" d="M262.5,-54.99C225.08,-44.8 175.09,-31.2 140.27,-21.73"/>
<polygon fill="#63b8ff" stroke="#63b8ff" points="141,-18.3 130.44,-19.05 139.17,-25.06 141,-18.3"/>
</a>
</g>
</g>
<!-- Node9 -->
<g id="Node000009" class="node">
<title>Node9</title>
<g id="a_Node000009"><a xlink:title=" ">
<polygon fill="#e0e0e0" stroke="#999999" points="202.5,-19 153.5,-19 153.5,0 202.5,0 202.5,-19"/>
<text text-anchor="middle" x="178" y="-7" font-family="Helvetica,sans-Serif" font-size="10.00">QHash</text>
</a>
</g>
</g>
<!-- Node5&#45;&gt;Node9 -->
<g id="edge9_Node000005_Node000009" class="edge">
<title>Node5&#45;&gt;Node9</title>
<g id="a_edge9_Node000005_Node000009"><a xlink:title=" ">
<path fill="none" stroke="#63b8ff" d="M281.42,-54.99C258.94,-45.31 229.28,-32.56 207.49,-23.18"/>
<polygon fill="#63b8ff" stroke="#63b8ff" points="208.65,-19.88 198.08,-19.14 205.89,-26.31 208.65,-19.88"/>
</a>
</g>
</g>
<!-- Node10 -->
<g id="Node000010" class="node">
<title>Node10</title>
<g id="a_Node000010"><a xlink:title=" ">
<polygon fill="#e0e0e0" stroke="#999999" points="273.5,-19 220.5,-19 220.5,0 273.5,0 273.5,-19"/>
<text text-anchor="middle" x="247" y="-7" font-family="Helvetica,sans-Serif" font-size="10.00">QString</text>
</a>
</g>
</g>
<!-- Node5&#45;&gt;Node10 -->
<g id="edge10_Node000005_Node000010" class="edge">
<title>Node5&#45;&gt;Node10</title>
<g id="a_edge10_Node000005_Node000010"><a xlink:title=" ">
<path fill="none" stroke="#63b8ff" d="M297.78,-54.84C287.76,-46.09 274.89,-34.85 264.62,-25.88"/>
<polygon fill="#63b8ff" stroke="#63b8ff" points="266.87,-23.21 257.04,-19.27 262.27,-28.48 266.87,-23.21"/>
</a>
</g>
</g>
<!-- Node11 -->
<g id="Node000011" class="node">
<title>Node11</title>
<g id="a_Node000011"><a xlink:title=" ">
<polygon fill="#e0e0e0" stroke="#999999" points="336.5,-19 291.5,-19 291.5,0 336.5,0 336.5,-19"/>
<text text-anchor="middle" x="314" y="-7" font-family="Helvetica,sans-Serif" font-size="10.00">QMap</text>
</a>
</g>
</g>
<!-- Node5&#45;&gt;Node11 -->
<g id="edge12_Node000005_Node000011" class="edge">
<title>Node5&#45;&gt;Node11</title>
<g id="a_edge12_Node000005_Node000011"><a xlink:title=" ">
<path fill="none" stroke="#63b8ff" d="M314,-54.84C314,-47.21 314,-37.7 314,-29.45"/>
<polygon fill="#63b8ff" stroke="#63b8ff" points="317.5,-29.27 314,-19.27 310.5,-29.27 317.5,-29.27"/>
</a>
</g>
</g>
<!-- Node12&#45;&gt;Node3 -->
<g id="edge15_Node000012_Node000003" class="edge">
<title>Node12&#45;&gt;Node3</title>
<g id="a_edge15_Node000012_Node000003"><a xlink:title=" ">
<path fill="none" stroke="#63b8ff" d="M455.31,-126.48C456.19,-111.19 459.63,-78.51 473,-55 479.46,-43.63 489.76,-33.4 499.08,-25.63"/>
<polygon fill="#63b8ff" stroke="#63b8ff" points="501.53,-28.15 507.21,-19.21 497.19,-22.66 501.53,-28.15"/>
</a>
</g>
</g>
<!-- Node12&#45;&gt;Node5 -->
<g id="edge14_Node000012_Node000005" class="edge">
<title>Node12&#45;&gt;Node5</title>
<g id="a_edge14_Node000012_Node000005"><a xlink:title=" ">
<path fill="none" stroke="#63b8ff" d="M435.98,-126.37C415.14,-116.91 381.09,-101.45 354.26,-89.27"/>
<polygon fill="#63b8ff" stroke="#63b8ff" points="355.65,-86.06 345.1,-85.12 352.76,-92.44 355.65,-86.06"/>
</a>
</g>
</g>
<!-- Node13 -->
<g id="Node000013" class="node">
<title>Node13</title>
<g id="a_Node000013"><a xlink:title=" ">
<polygon fill="#e0e0e0" stroke="#999999" points="532,-79.5 482,-79.5 482,-60.5 532,-60.5 532,-79.5"/>
<text text-anchor="middle" x="507" y="-67.5" font-family="Helvetica,sans-Serif" font-size="10.00">QColor</text>
</a>
</g>
</g>
<!-- Node12&#45;&gt;Node13 -->
<g id="edge16_Node000012_Node000013" class="edge">
<title>Node12&#45;&gt;Node13</title>
<g id="a_edge16_Node000012_Node000013"><a xlink:title=" ">
<path fill="none" stroke="#63b8ff" d="M462.01,-126.37C470.03,-116.5 483.35,-100.11 493.42,-87.72"/>
<polygon fill="#63b8ff" stroke="#63b8ff" points="496.17,-89.87 499.76,-79.91 490.74,-85.46 496.17,-89.87"/>
</a>
</g>
</g>
<!-- Node15 -->
<g id="Node000015" class="node">
<title>Node15</title>
<g id="a_Node000015"><a xlink:title=" ">
<polygon fill="#e0e0e0" stroke="#999999" points="603.5,-79.5 550.5,-79.5 550.5,-60.5 603.5,-60.5 603.5,-79.5"/>
<text text-anchor="middle" x="577" y="-67.5" font-family="Helvetica,sans-Serif" font-size="10.00">QTimer</text>
</a>
</g>
</g>
<!-- Node14&#45;&gt;Node15 -->
<g id="edge18_Node000014_Node000015" class="edge">
<title>Node14&#45;&gt;Node15</title>
<g id="a_edge18_Node000014_Node000015"><a xlink:title=" ">
<path fill="none" stroke="#63b8ff" d="M575.44,-120.8C575.73,-111.7 576.1,-99.79 576.41,-89.9"/>
<polygon fill="#63b8ff" stroke="#63b8ff" points="579.91,-89.95 576.72,-79.84 572.91,-89.73 579.91,-89.95"/>
</a>
</g>
</g>
</g>
</svg>
