<?xml version="1.0" encoding="UTF-8" standalone="no"?>
<!DOCTYPE svg PUBLIC "-//W3C//DTD SVG 1.1//EN"
 "http://www.w3.org/Graphics/SVG/1.1/DTD/svg11.dtd">
<!-- Generated by graphviz version 2.43.0 (0)
 -->
<!-- Title: features/graphics/plot/PlotWidget.h Pages: 1 -->
<svg width="557pt" height="225pt"
 viewBox="0.00 0.00 556.50 225.00" xmlns="http://www.w3.org/2000/svg" xmlns:xlink="http://www.w3.org/1999/xlink">
<g id="graph0" class="graph" transform="scale(1 1) rotate(0) translate(4 221)">
<title>features/graphics/plot/PlotWidget.h</title>
<!-- Node1 -->
<g id="Node000001" class="node">
<title>Node1</title>
<g id="a_Node000001"><a xlink:title=" ">
<polygon fill="#999999" stroke="#666666" points="376,-217 253,-217 253,-187 376,-187 376,-217"/>
<text text-anchor="start" x="261" y="-205" font-family="Helvetica,sans-Serif" font-size="10.00">features/graphics/plot</text>
<text text-anchor="middle" x="314.5" y="-194" font-family="Helvetica,sans-Serif" font-size="10.00">/PlotWidget.h</text>
</a>
</g>
</g>
<!-- Node2 -->
<g id="Node000002" class="node">
<title>Node2</title>
<g id="a_Node000002"><a xlink:title=" ">
<polygon fill="#e0e0e0" stroke="#999999" points="221,-145.5 162,-145.5 162,-126.5 221,-126.5 221,-145.5"/>
<text text-anchor="middle" x="191.5" y="-133.5" font-family="Helvetica,sans-Serif" font-size="10.00">QWidget</text>
</a>
</g>
</g>
<!-- Node1&#45;&gt;Node2 -->
<g id="edge1_Node000001_Node000002" class="edge">
<title>Node1&#45;&gt;Node2</title>
<g id="a_edge1_Node000001_Node000002"><a xlink:title=" ">
<path fill="none" stroke="#63b8ff" d="M287.51,-186.95C266.51,-176.03 237.57,-160.97 216.97,-150.25"/>
<polygon fill="#63b8ff" stroke="#63b8ff" points="218.36,-147.03 207.87,-145.52 215.12,-153.24 218.36,-147.03"/>
</a>
</g>
</g>
<!-- Node3 -->
<g id="Node000003" class="node">
<title>Node3</title>
<g id="a_Node000003"><a xlink:title=" ">
<polygon fill="#e0e0e0" stroke="#999999" points="390,-151 239,-151 239,-121 390,-121 390,-151"/>
<text text-anchor="start" x="247" y="-139" font-family="Helvetica,sans-Serif" font-size="10.00">dependencies/QCustomPlot</text>
<text text-anchor="middle" x="314.5" y="-128" font-family="Helvetica,sans-Serif" font-size="10.00">/qcustomplot.h</text>
</a>
</g>
</g>
<!-- Node1&#45;&gt;Node3 -->
<g id="edge2_Node000001_Node000003" class="edge">
<title>Node1&#45;&gt;Node3</title>
<g id="a_edge2_Node000001_Node000003"><a xlink:title=" ">
<path fill="none" stroke="#63b8ff" d="M314.5,-186.8C314.5,-179.34 314.5,-169.99 314.5,-161.41"/>
<polygon fill="#63b8ff" stroke="#63b8ff" points="318,-161.16 314.5,-151.16 311,-161.16 318,-161.16"/>
</a>
</g>
</g>
<!-- Node4 -->
<g id="Node000004" class="node">
<title>Node4</title>
<g id="a_Node000004"><a xlink:href="PlotViewModel_8h.html" target="_top" xlink:title=" ">
<polygon fill="white" stroke="#666666" points="506.5,-145.5 408.5,-145.5 408.5,-126.5 506.5,-126.5 506.5,-145.5"/>
<text text-anchor="middle" x="457.5" y="-133.5" font-family="Helvetica,sans-Serif" font-size="10.00">PlotViewModel.h</text>
</a>
</g>
</g>
<!-- Node1&#45;&gt;Node4 -->
<g id="edge3_Node000001_Node000004" class="edge">
<title>Node1&#45;&gt;Node4</title>
<g id="a_edge3_Node000001_Node000004"><a xlink:title=" ">
<path fill="none" stroke="#63b8ff" d="M345.88,-186.95C370.74,-175.83 405.16,-160.42 429.18,-149.67"/>
<polygon fill="#63b8ff" stroke="#63b8ff" points="430.77,-152.8 438.47,-145.52 427.91,-146.41 430.77,-152.8"/>
</a>
</g>
</g>
<!-- Node5 -->
<g id="Node000005" class="node">
<title>Node5</title>
<g id="a_Node000005"><a xlink:href="Messages_8h.html" target="_top" xlink:title=" ">
<polygon fill="white" stroke="#666666" points="367,-85 264,-85 264,-55 367,-55 367,-85"/>
<text text-anchor="start" x="272" y="-73" font-family="Helvetica,sans-Serif" font-size="10.00">src/core/Protocols</text>
<text text-anchor="middle" x="315.5" y="-62" font-family="Helvetica,sans-Serif" font-size="10.00">/Messages.h</text>
</a>
</g>
</g>
<!-- Node4&#45;&gt;Node5 -->
<g id="edge4_Node000004_Node000005" class="edge">
<title>Node4&#45;&gt;Node5</title>
<g id="a_edge4_Node000004_Node000005"><a xlink:title=" ">
<path fill="none" stroke="#63b8ff" d="M438.35,-126.37C417.36,-116.91 383.07,-101.45 356.04,-89.27"/>
<polygon fill="#63b8ff" stroke="#63b8ff" points="357.37,-86.03 346.82,-85.12 354.5,-92.42 357.37,-86.03"/>
</a>
</g>
</g>
<!-- Node12 -->
<g id="Node000012" class="node">
<title>Node12</title>
<g id="a_Node000012"><a xlink:title=" ">
<polygon fill="#e0e0e0" stroke="#999999" points="548.5,-19 492.5,-19 492.5,0 548.5,0 548.5,-19"/>
<text text-anchor="middle" x="520.5" y="-7" font-family="Helvetica,sans-Serif" font-size="10.00">QObject</text>
</a>
</g>
</g>
<!-- Node4&#45;&gt;Node12 -->
<g id="edge13_Node000004_Node000012" class="edge">
<title>Node4&#45;&gt;Node12</title>
<g id="a_edge13_Node000004_Node000012"><a xlink:title=" ">
<path fill="none" stroke="#63b8ff" d="M458.05,-126.03C459.34,-110.61 463.48,-78.47 476.5,-55 482.71,-43.8 492.54,-33.48 501.33,-25.6"/>
<polygon fill="#63b8ff" stroke="#63b8ff" points="503.62,-28.24 508.98,-19.1 499.09,-22.91 503.62,-28.24"/>
</a>
</g>
</g>
<!-- Node14 -->
<g id="Node000014" class="node">
<title>Node14</title>
<g id="a_Node000014"><a xlink:title=" ">
<polygon fill="#e0e0e0" stroke="#999999" points="535.5,-79.5 485.5,-79.5 485.5,-60.5 535.5,-60.5 535.5,-79.5"/>
<text text-anchor="middle" x="510.5" y="-67.5" font-family="Helvetica,sans-Serif" font-size="10.00">QColor</text>
</a>
</g>
</g>
<!-- Node4&#45;&gt;Node14 -->
<g id="edge14_Node000004_Node000014" class="edge">
<title>Node4&#45;&gt;Node14</title>
<g id="a_edge14_Node000004_Node000014"><a xlink:title=" ">
<path fill="none" stroke="#63b8ff" d="M464.65,-126.37C472.82,-116.5 486.39,-100.11 496.66,-87.72"/>
<polygon fill="#63b8ff" stroke="#63b8ff" points="499.44,-89.84 503.13,-79.91 494.05,-85.37 499.44,-89.84"/>
</a>
</g>
</g>
<!-- Node6 -->
<g id="Node000006" class="node">
<title>Node6</title>
<g id="a_Node000006"><a xlink:title=" ">
<polygon fill="#e0e0e0" stroke="#999999" points="51,-19 0,-19 0,0 51,0 51,-19"/>
<text text-anchor="middle" x="25.5" y="-7" font-family="Helvetica,sans-Serif" font-size="10.00">variant</text>
</a>
</g>
</g>
<!-- Node5&#45;&gt;Node6 -->
<g id="edge5_Node000005_Node000006" class="edge">
<title>Node5&#45;&gt;Node6</title>
<g id="a_edge5_Node000005_Node000006"><a xlink:title=" ">
<path fill="none" stroke="#63b8ff" d="M263.59,-59.52C214.08,-50.33 137.19,-35.64 60.87,-19"/>
<polygon fill="#63b8ff" stroke="#63b8ff" points="61.6,-15.57 51.08,-16.85 60.1,-22.41 61.6,-15.57"/>
</a>
</g>
</g>
<!-- Node7 -->
<g id="Node000007" class="node">
<title>Node7</title>
<g id="a_Node000007"><a xlink:title=" ">
<polygon fill="#e0e0e0" stroke="#999999" points="119.5,-19 69.5,-19 69.5,0 119.5,0 119.5,-19"/>
<text text-anchor="middle" x="94.5" y="-7" font-family="Helvetica,sans-Serif" font-size="10.00">cstdint</text>
</a>
</g>
</g>
<!-- Node5&#45;&gt;Node7 -->
<g id="edge6_Node000005_Node000007" class="edge">
<title>Node5&#45;&gt;Node7</title>
<g id="a_edge6_Node000005_Node000007"><a xlink:title=" ">
<path fill="none" stroke="#63b8ff" d="M263.96,-55.36C222.75,-44.45 166.07,-29.44 129.85,-19.86"/>
<polygon fill="#63b8ff" stroke="#63b8ff" points="130.32,-16.36 119.76,-17.19 128.53,-23.13 130.32,-16.36"/>
</a>
</g>
</g>
<!-- Node8 -->
<g id="Node000008" class="node">
<title>Node8</title>
<g id="a_Node000008"><a xlink:title=" ">
<polygon fill="#e0e0e0" stroke="#999999" points="181.5,-19 137.5,-19 137.5,0 181.5,0 181.5,-19"/>
<text text-anchor="middle" x="159.5" y="-7" font-family="Helvetica,sans-Serif" font-size="10.00">string</text>
</a>
</g>
</g>
<!-- Node5&#45;&gt;Node8 -->
<g id="edge7_Node000005_Node000008" class="edge">
<title>Node5&#45;&gt;Node8</title>
<g id="a_edge7_Node000005_Node000008"><a xlink:title=" ">
<path fill="none" stroke="#63b8ff" d="M278.13,-54.99C251.56,-45.02 216.24,-31.78 191.07,-22.34"/>
<polygon fill="#63b8ff" stroke="#63b8ff" points="192.22,-19.03 181.63,-18.8 189.76,-25.59 192.22,-19.03"/>
</a>
</g>
</g>
<!-- Node9 -->
<g id="Node000009" class="node">
<title>Node9</title>
<g id="a_Node000009"><a xlink:title=" ">
<polygon fill="#e0e0e0" stroke="#999999" points="273,-19 200,-19 200,0 273,0 273,-19"/>
<text text-anchor="middle" x="236.5" y="-7" font-family="Helvetica,sans-Serif" font-size="10.00">QByteArray</text>
</a>
</g>
</g>
<!-- Node5&#45;&gt;Node9 -->
<g id="edge8_Node000005_Node000009" class="edge">
<title>Node5&#45;&gt;Node9</title>
<g id="a_edge8_Node000005_Node000009"><a xlink:title=" ">
<path fill="none" stroke="#63b8ff" d="M296.38,-54.84C284.32,-45.91 268.79,-34.41 256.56,-25.35"/>
<polygon fill="#63b8ff" stroke="#63b8ff" points="258.46,-22.4 248.34,-19.27 254.29,-28.03 258.46,-22.4"/>
</a>
</g>
</g>
<!-- Node10 -->
<g id="Node000010" class="node">
<title>Node10</title>
<g id="a_Node000010"><a xlink:title=" ">
<polygon fill="#e0e0e0" stroke="#999999" points="340,-19 291,-19 291,0 340,0 340,-19"/>
<text text-anchor="middle" x="315.5" y="-7" font-family="Helvetica,sans-Serif" font-size="10.00">QHash</text>
</a>
</g>
</g>
<!-- Node5&#45;&gt;Node10 -->
<g id="edge9_Node000005_Node000010" class="edge">
<title>Node5&#45;&gt;Node10</title>
<g id="a_edge9_Node000005_Node000010"><a xlink:title=" ">
<path fill="none" stroke="#63b8ff" d="M315.5,-54.84C315.5,-47.21 315.5,-37.7 315.5,-29.45"/>
<polygon fill="#63b8ff" stroke="#63b8ff" points="319,-29.27 315.5,-19.27 312,-29.27 319,-29.27"/>
</a>
</g>
</g>
<!-- Node11 -->
<g id="Node000011" class="node">
<title>Node11</title>
<g id="a_Node000011"><a xlink:title=" ">
<polygon fill="#e0e0e0" stroke="#999999" points="411,-19 358,-19 358,0 411,0 411,-19"/>
<text text-anchor="middle" x="384.5" y="-7" font-family="Helvetica,sans-Serif" font-size="10.00">QString</text>
</a>
</g>
</g>
<!-- Node5&#45;&gt;Node11 -->
<g id="edge10_Node000005_Node000011" class="edge">
<title>Node5&#45;&gt;Node11</title>
<g id="a_edge10_Node000005_Node000011"><a xlink:title=" ">
<path fill="none" stroke="#63b8ff" d="M332.2,-54.84C342.53,-46.09 355.78,-34.85 366.36,-25.88"/>
<polygon fill="#63b8ff" stroke="#63b8ff" points="368.8,-28.4 374.16,-19.27 364.27,-23.06 368.8,-28.4"/>
</a>
</g>
</g>
<!-- Node5&#45;&gt;Node12 -->
<g id="edge11_Node000005_Node000012" class="edge">
<title>Node5&#45;&gt;Node12</title>
<g id="a_edge11_Node000005_Node000012"><a xlink:title=" ">
<path fill="none" stroke="#63b8ff" d="M364.6,-54.99C400.78,-44.66 449.27,-30.83 482.51,-21.34"/>
<polygon fill="#63b8ff" stroke="#63b8ff" points="483.65,-24.66 492.3,-18.55 481.73,-17.93 483.65,-24.66"/>
</a>
</g>
</g>
<!-- Node13 -->
<g id="Node000013" class="node">
<title>Node13</title>
<g id="a_Node000013"><a xlink:title=" ">
<polygon fill="#e0e0e0" stroke="#999999" points="474,-19 429,-19 429,0 474,0 474,-19"/>
<text text-anchor="middle" x="451.5" y="-7" font-family="Helvetica,sans-Serif" font-size="10.00">QMap</text>
</a>
</g>
</g>
<!-- Node5&#45;&gt;Node13 -->
<g id="edge12_Node000005_Node000013" class="edge">
<title>Node5&#45;&gt;Node13</title>
<g id="a_edge12_Node000005_Node000013"><a xlink:title=" ">
<path fill="none" stroke="#63b8ff" d="M348.08,-54.99C370.56,-45.31 400.22,-32.56 422.01,-23.18"/>
<polygon fill="#63b8ff" stroke="#63b8ff" points="423.61,-26.31 431.42,-19.14 420.85,-19.88 423.61,-26.31"/>
</a>
</g>
</g>
</g>
</svg>
