<?xml version="1.0" encoding="UTF-8" standalone="no"?>
<!DOCTYPE svg PUBLIC "-//W3C//DTD SVG 1.1//EN"
 "http://www.w3.org/Graphics/SVG/1.1/DTD/svg11.dtd">
<!-- Generated by graphviz version 2.43.0 (0)
 -->
<!-- Title: features/test/frames/tank_pressure/PressureTanksModel.h Pages: 1 -->
<svg width="948pt" height="137pt"
 viewBox="0.00 0.00 947.50 137.00" xmlns="http://www.w3.org/2000/svg" xmlns:xlink="http://www.w3.org/1999/xlink">
<g id="graph0" class="graph" transform="scale(1 1) rotate(0) translate(4 133)">
<title>features/test/frames/tank_pressure/PressureTanksModel.h</title>
<!-- Node1 -->
<g id="Node000001" class="node">
<title>Node1</title>
<g id="a_Node000001"><a xlink:title=" ">
<polygon fill="#999999" stroke="#666666" points="521,-129 360,-129 360,-88 521,-88 521,-129"/>
<text text-anchor="start" x="368" y="-117" font-family="Helvetica,sans-Serif" font-size="10.00">features/test/frames</text>
<text text-anchor="start" x="368" y="-106" font-family="Helvetica,sans-Serif" font-size="10.00">/tank_pressure/PressureTanks</text>
<text text-anchor="middle" x="440.5" y="-95" font-family="Helvetica,sans-Serif" font-size="10.00">Model.h</text>
</a>
</g>
</g>
<!-- Node2 -->
<g id="Node000002" class="node">
<title>Node2</title>
<g id="a_Node000002"><a xlink:href="PressureTanksModel_8cpp.html" target="_top" xlink:title=" ">
<polygon fill="white" stroke="#666666" points="161,-46.5 0,-46.5 0,-5.5 161,-5.5 161,-46.5"/>
<text text-anchor="start" x="8" y="-34.5" font-family="Helvetica,sans-Serif" font-size="10.00">features/test/frames</text>
<text text-anchor="start" x="8" y="-23.5" font-family="Helvetica,sans-Serif" font-size="10.00">/tank_pressure/PressureTanks</text>
<text text-anchor="middle" x="80.5" y="-12.5" font-family="Helvetica,sans-Serif" font-size="10.00">Model.cpp</text>
</a>
</g>
</g>
<!-- Node1&#45;&gt;Node2 -->
<g id="edge1_Node000001_Node000002" class="edge">
<title>Node1&#45;&gt;Node2</title>
<g id="a_edge1_Node000001_Node000002"><a xlink:title=" ">
<path fill="none" stroke="#63b8ff" d="M349.87,-90.47C297.3,-80.2 229.94,-66.35 170.5,-52 163.56,-50.33 156.35,-48.49 149.17,-46.59"/>
<polygon fill="#63b8ff" stroke="#63b8ff" points="349.36,-93.94 359.84,-92.41 350.7,-87.07 349.36,-93.94"/>
</a>
</g>
</g>
<!-- Node3 -->
<g id="Node000003" class="node">
<title>Node3</title>
<g id="a_Node000003"><a xlink:href="TankPressureControlerViewModel_8cpp.html" target="_top" xlink:title=" ">
<polygon fill="white" stroke="#666666" points="335.5,-46.5 179.5,-46.5 179.5,-5.5 335.5,-5.5 335.5,-46.5"/>
<text text-anchor="start" x="187.5" y="-34.5" font-family="Helvetica,sans-Serif" font-size="10.00">features/test/frames</text>
<text text-anchor="start" x="187.5" y="-23.5" font-family="Helvetica,sans-Serif" font-size="10.00">/tank_pressure/TankPressure</text>
<text text-anchor="middle" x="257.5" y="-12.5" font-family="Helvetica,sans-Serif" font-size="10.00">ControlerViewModel.cpp</text>
</a>
</g>
</g>
<!-- Node1&#45;&gt;Node3 -->
<g id="edge2_Node000001_Node000003" class="edge">
<title>Node1&#45;&gt;Node3</title>
<g id="a_edge2_Node000001_Node000003"><a xlink:title=" ">
<path fill="none" stroke="#63b8ff" d="M386.47,-83.73C359.62,-71.92 327.56,-57.82 302.12,-46.63"/>
<polygon fill="#63b8ff" stroke="#63b8ff" points="385.17,-86.98 395.73,-87.81 387.99,-80.58 385.17,-86.98"/>
</a>
</g>
</g>
<!-- Node4 -->
<g id="Node000004" class="node">
<title>Node4</title>
<g id="a_Node000004"><a xlink:href="TankPressureSettingsIndicatorViewModel_8cpp.html" target="_top" xlink:title=" ">
<polygon fill="white" stroke="#666666" points="527,-52 354,-52 354,0 527,0 527,-52"/>
<text text-anchor="start" x="362" y="-40" font-family="Helvetica,sans-Serif" font-size="10.00">features/test/frames</text>
<text text-anchor="start" x="362" y="-29" font-family="Helvetica,sans-Serif" font-size="10.00">/tank_pressure/pressure</text>
<text text-anchor="start" x="362" y="-18" font-family="Helvetica,sans-Serif" font-size="10.00">_setting_indicator/TankPressure</text>
<text text-anchor="middle" x="440.5" y="-7" font-family="Helvetica,sans-Serif" font-size="10.00">SettingsIndicatorViewModel.cpp</text>
</a>
</g>
</g>
<!-- Node1&#45;&gt;Node4 -->
<g id="edge3_Node000001_Node000004" class="edge">
<title>Node1&#45;&gt;Node4</title>
<g id="a_edge3_Node000001_Node000004"><a xlink:title=" ">
<path fill="none" stroke="#63b8ff" d="M440.5,-77.49C440.5,-69.15 440.5,-60.19 440.5,-52.16"/>
<polygon fill="#63b8ff" stroke="#63b8ff" points="437,-77.6 440.5,-87.6 444,-77.6 437,-77.6"/>
</a>
</g>
</g>
<!-- Node5 -->
<g id="Node000005" class="node">
<title>Node5</title>
<g id="a_Node000005"><a xlink:href="AppModels_8cpp.html" target="_top" xlink:title=" ">
<polygon fill="white" stroke="#666666" points="709.5,-35.5 545.5,-35.5 545.5,-16.5 709.5,-16.5 709.5,-35.5"/>
<text text-anchor="middle" x="627.5" y="-23.5" font-family="Helvetica,sans-Serif" font-size="10.00">mvvm/models/AppModels.cpp</text>
</a>
</g>
</g>
<!-- Node1&#45;&gt;Node5 -->
<g id="edge4_Node000001_Node000005" class="edge">
<title>Node1&#45;&gt;Node5</title>
<g id="a_edge4_Node000001_Node000005"><a xlink:title=" ">
<path fill="none" stroke="#63b8ff" d="M495.57,-83.79C533.18,-67.6 580.84,-47.09 607.36,-35.67"/>
<polygon fill="#63b8ff" stroke="#63b8ff" points="494.05,-80.64 486.25,-87.81 496.81,-87.07 494.05,-80.64"/>
</a>
</g>
</g>
<!-- Node6 -->
<g id="Node000006" class="node">
<title>Node6</title>
<g id="a_Node000006"><a xlink:href="AppViewModels_8cpp.html" target="_top" xlink:title=" ">
<polygon fill="white" stroke="#666666" points="939.5,-35.5 727.5,-35.5 727.5,-16.5 939.5,-16.5 939.5,-35.5"/>
<text text-anchor="middle" x="833.5" y="-23.5" font-family="Helvetica,sans-Serif" font-size="10.00">mvvm/viewmodels/AppViewModels.cpp</text>
</a>
</g>
</g>
<!-- Node1&#45;&gt;Node6 -->
<g id="edge5_Node000001_Node000006" class="edge">
<title>Node1&#45;&gt;Node6</title>
<g id="a_edge5_Node000001_Node000006"><a xlink:title=" ">
<path fill="none" stroke="#63b8ff" d="M531.13,-89.81C585.51,-79.1 656.02,-65.03 718.5,-52 744,-46.68 772.63,-40.46 794.94,-35.55"/>
<polygon fill="#63b8ff" stroke="#63b8ff" points="530.3,-86.41 521.17,-91.77 531.65,-93.27 530.3,-86.41"/>
</a>
</g>
</g>
</g>
</svg>
