<?xml version="1.0" encoding="UTF-8" standalone="no"?>
<!DOCTYPE svg PUBLIC "-//W3C//DTD SVG 1.1//EN"
 "http://www.w3.org/Graphics/SVG/1.1/DTD/svg11.dtd">
<!-- Generated by graphviz version 2.43.0 (0)
 -->
<!-- Title: features/communication/udp/frames_logger/RingBuffer.h Pages: 1 -->
<svg width="633pt" height="225pt"
 viewBox="0.00 0.00 632.50 225.00" xmlns="http://www.w3.org/2000/svg" xmlns:xlink="http://www.w3.org/1999/xlink">
<g id="graph0" class="graph" transform="scale(1 1) rotate(0) translate(4 221)">
<title>features/communication/udp/frames_logger/RingBuffer.h</title>
<!-- Node1 -->
<g id="Node000001" class="node">
<title>Node1</title>
<g id="a_Node000001"><a xlink:title=" ">
<polygon fill="#999999" stroke="#666666" points="261.5,-217 88.5,-217 88.5,-187 261.5,-187 261.5,-217"/>
<text text-anchor="start" x="96.5" y="-205" font-family="Helvetica,sans-Serif" font-size="10.00">features/communication</text>
<text text-anchor="middle" x="175" y="-194" font-family="Helvetica,sans-Serif" font-size="10.00">/udp/frames_logger/RingBuffer.h</text>
</a>
</g>
</g>
<!-- Node2 -->
<g id="Node000002" class="node">
<title>Node2</title>
<g id="a_Node000002"><a xlink:title=" ">
<polygon fill="#e0e0e0" stroke="#999999" points="56,-145.5 0,-145.5 0,-126.5 56,-126.5 56,-145.5"/>
<text text-anchor="middle" x="28" y="-133.5" font-family="Helvetica,sans-Serif" font-size="10.00">QDebug</text>
</a>
</g>
</g>
<!-- Node1&#45;&gt;Node2 -->
<g id="edge1_Node000001_Node000002" class="edge">
<title>Node1&#45;&gt;Node2</title>
<g id="a_edge1_Node000001_Node000002"><a xlink:title=" ">
<path fill="none" stroke="#63b8ff" d="M142.74,-186.95C117.07,-175.78 81.49,-160.29 56.78,-149.53"/>
<polygon fill="#63b8ff" stroke="#63b8ff" points="58.13,-146.3 47.56,-145.52 55.33,-152.72 58.13,-146.3"/>
</a>
</g>
</g>
<!-- Node3 -->
<g id="Node000003" class="node">
<title>Node3</title>
<g id="a_Node000003"><a xlink:title=" ">
<polygon fill="#e0e0e0" stroke="#999999" points="117,-19 67,-19 67,0 117,0 117,-19"/>
<text text-anchor="middle" x="92" y="-7" font-family="Helvetica,sans-Serif" font-size="10.00">cstdint</text>
</a>
</g>
</g>
<!-- Node1&#45;&gt;Node3 -->
<g id="edge2_Node000001_Node000003" class="edge">
<title>Node1&#45;&gt;Node3</title>
<g id="a_edge2_Node000001_Node000003"><a xlink:title=" ">
<path fill="none" stroke="#63b8ff" d="M142.95,-186.86C128.21,-178.62 112.01,-166.71 103,-151 80.84,-112.39 84.62,-57.7 88.67,-29.28"/>
<polygon fill="#63b8ff" stroke="#63b8ff" points="92.16,-29.57 90.28,-19.14 85.25,-28.47 92.16,-29.57"/>
</a>
</g>
</g>
<!-- Node4 -->
<g id="Node000004" class="node">
<title>Node4</title>
<g id="a_Node000004"><a xlink:title=" ">
<polygon fill="#e0e0e0" stroke="#999999" points="167.5,-145.5 112.5,-145.5 112.5,-126.5 167.5,-126.5 167.5,-145.5"/>
<text text-anchor="middle" x="140" y="-133.5" font-family="Helvetica,sans-Serif" font-size="10.00">fstream</text>
</a>
</g>
</g>
<!-- Node1&#45;&gt;Node4 -->
<g id="edge3_Node000001_Node000004" class="edge">
<title>Node1&#45;&gt;Node4</title>
<g id="a_edge3_Node000001_Node000004"><a xlink:title=" ">
<path fill="none" stroke="#63b8ff" d="M167.23,-186.8C162.04,-177.31 155.18,-164.76 149.64,-154.63"/>
<polygon fill="#63b8ff" stroke="#63b8ff" points="152.71,-152.94 144.84,-145.84 146.56,-156.3 152.71,-152.94"/>
</a>
</g>
</g>
<!-- Node5 -->
<g id="Node000005" class="node">
<title>Node5</title>
<g id="a_Node000005"><a xlink:title=" ">
<polygon fill="#e0e0e0" stroke="#999999" points="236,-145.5 186,-145.5 186,-126.5 236,-126.5 236,-145.5"/>
<text text-anchor="middle" x="211" y="-133.5" font-family="Helvetica,sans-Serif" font-size="10.00">atomic</text>
</a>
</g>
</g>
<!-- Node1&#45;&gt;Node5 -->
<g id="edge4_Node000001_Node000005" class="edge">
<title>Node1&#45;&gt;Node5</title>
<g id="a_edge4_Node000001_Node000005"><a xlink:title=" ">
<path fill="none" stroke="#63b8ff" d="M182.99,-186.8C188.33,-177.31 195.39,-164.76 201.08,-154.63"/>
<polygon fill="#63b8ff" stroke="#63b8ff" points="204.17,-156.28 206.03,-145.84 198.07,-152.84 204.17,-156.28"/>
</a>
</g>
</g>
<!-- Node6 -->
<g id="Node000006" class="node">
<title>Node6</title>
<g id="a_Node000006"><a xlink:title=" ">
<polygon fill="#e0e0e0" stroke="#999999" points="318,-145.5 254,-145.5 254,-126.5 318,-126.5 318,-145.5"/>
<text text-anchor="middle" x="286" y="-133.5" font-family="Helvetica,sans-Serif" font-size="10.00">algorithm</text>
</a>
</g>
</g>
<!-- Node1&#45;&gt;Node6 -->
<g id="edge5_Node000001_Node000006" class="edge">
<title>Node1&#45;&gt;Node6</title>
<g id="a_edge5_Node000001_Node000006"><a xlink:title=" ">
<path fill="none" stroke="#63b8ff" d="M199.36,-186.95C218.14,-176.13 243.95,-161.24 262.51,-150.54"/>
<polygon fill="#63b8ff" stroke="#63b8ff" points="264.31,-153.54 271.23,-145.52 260.82,-147.48 264.31,-153.54"/>
</a>
</g>
</g>
<!-- Node7 -->
<g id="Node000007" class="node">
<title>Node7</title>
<g id="a_Node000007"><a xlink:href="Logger_8h.html" target="_top" xlink:title=" ">
<polygon fill="white" stroke="#666666" points="446,-151 336,-151 336,-121 446,-121 446,-151"/>
<text text-anchor="start" x="344" y="-139" font-family="Helvetica,sans-Serif" font-size="10.00">src/services/Logger</text>
<text text-anchor="middle" x="391" y="-128" font-family="Helvetica,sans-Serif" font-size="10.00">/Logger.h</text>
</a>
</g>
</g>
<!-- Node1&#45;&gt;Node7 -->
<g id="edge6_Node000001_Node000007" class="edge">
<title>Node1&#45;&gt;Node7</title>
<g id="a_edge6_Node000001_Node000007"><a xlink:title=" ">
<path fill="none" stroke="#63b8ff" d="M222.4,-186.95C255.18,-177.24 298.97,-164.27 333.71,-153.98"/>
<polygon fill="#63b8ff" stroke="#63b8ff" points="335.11,-157.21 343.71,-151.01 333.13,-150.5 335.11,-157.21"/>
</a>
</g>
</g>
<!-- Node8 -->
<g id="Node000008" class="node">
<title>Node8</title>
<g id="a_Node000008"><a xlink:title=" ">
<polygon fill="#e0e0e0" stroke="#999999" points="321.5,-79.5 262.5,-79.5 262.5,-60.5 321.5,-60.5 321.5,-79.5"/>
<text text-anchor="middle" x="292" y="-67.5" font-family="Helvetica,sans-Serif" font-size="10.00">QWidget</text>
</a>
</g>
</g>
<!-- Node7&#45;&gt;Node8 -->
<g id="edge7_Node000007_Node000008" class="edge">
<title>Node7&#45;&gt;Node8</title>
<g id="a_edge7_Node000007_Node000008"><a xlink:title=" ">
<path fill="none" stroke="#63b8ff" d="M369.03,-120.8C352.59,-110.17 330.21,-95.7 313.81,-85.1"/>
<polygon fill="#63b8ff" stroke="#63b8ff" points="315.69,-82.15 305.39,-79.66 311.89,-88.03 315.69,-82.15"/>
</a>
</g>
</g>
<!-- Node9 -->
<g id="Node000009" class="node">
<title>Node9</title>
<g id="a_Node000009"><a xlink:href="Messages_8h.html" target="_top" xlink:title=" ">
<polygon fill="white" stroke="#666666" points="442.5,-85 339.5,-85 339.5,-55 442.5,-55 442.5,-85"/>
<text text-anchor="start" x="347.5" y="-73" font-family="Helvetica,sans-Serif" font-size="10.00">src/core/Protocols</text>
<text text-anchor="middle" x="391" y="-62" font-family="Helvetica,sans-Serif" font-size="10.00">/Messages.h</text>
</a>
</g>
</g>
<!-- Node7&#45;&gt;Node9 -->
<g id="edge8_Node000007_Node000009" class="edge">
<title>Node7&#45;&gt;Node9</title>
<g id="a_edge8_Node000007_Node000009"><a xlink:title=" ">
<path fill="none" stroke="#63b8ff" d="M391,-120.8C391,-113.34 391,-103.99 391,-95.41"/>
<polygon fill="#63b8ff" stroke="#63b8ff" points="394.5,-95.16 391,-85.16 387.5,-95.16 394.5,-95.16"/>
</a>
</g>
</g>
<!-- Node9&#45;&gt;Node3 -->
<g id="edge10_Node000009_Node000003" class="edge">
<title>Node9&#45;&gt;Node3</title>
<g id="a_edge10_Node000009_Node000003"><a xlink:title=" ">
<path fill="none" stroke="#63b8ff" d="M339.32,-56.77C336.51,-56.16 333.72,-55.57 331,-55 243.86,-36.88 221.4,-35.83 134,-19 131.8,-18.58 129.54,-18.14 127.27,-17.69"/>
<polygon fill="#63b8ff" stroke="#63b8ff" points="127.8,-14.22 117.3,-15.7 126.43,-21.09 127.8,-14.22"/>
</a>
</g>
</g>
<!-- Node10 -->
<g id="Node000010" class="node">
<title>Node10</title>
<g id="a_Node000010"><a xlink:title=" ">
<polygon fill="#e0e0e0" stroke="#999999" points="194.5,-19 143.5,-19 143.5,0 194.5,0 194.5,-19"/>
<text text-anchor="middle" x="169" y="-7" font-family="Helvetica,sans-Serif" font-size="10.00">variant</text>
</a>
</g>
</g>
<!-- Node9&#45;&gt;Node10 -->
<g id="edge9_Node000009_Node000010" class="edge">
<title>Node9&#45;&gt;Node10</title>
<g id="a_edge9_Node000009_Node000010"><a xlink:title=" ">
<path fill="none" stroke="#63b8ff" d="M339.23,-55.36C297.77,-44.43 240.73,-29.4 204.35,-19.82"/>
<polygon fill="#63b8ff" stroke="#63b8ff" points="205.23,-16.43 194.67,-17.26 203.45,-23.2 205.23,-16.43"/>
</a>
</g>
</g>
<!-- Node11 -->
<g id="Node000011" class="node">
<title>Node11</title>
<g id="a_Node000011"><a xlink:title=" ">
<polygon fill="#e0e0e0" stroke="#999999" points="257,-19 213,-19 213,0 257,0 257,-19"/>
<text text-anchor="middle" x="235" y="-7" font-family="Helvetica,sans-Serif" font-size="10.00">string</text>
</a>
</g>
</g>
<!-- Node9&#45;&gt;Node11 -->
<g id="edge11_Node000009_Node000011" class="edge">
<title>Node9&#45;&gt;Node11</title>
<g id="a_edge11_Node000009_Node000011"><a xlink:title=" ">
<path fill="none" stroke="#63b8ff" d="M353.63,-54.99C327.06,-45.02 291.74,-31.78 266.57,-22.34"/>
<polygon fill="#63b8ff" stroke="#63b8ff" points="267.72,-19.03 257.13,-18.8 265.26,-25.59 267.72,-19.03"/>
</a>
</g>
</g>
<!-- Node12 -->
<g id="Node000012" class="node">
<title>Node12</title>
<g id="a_Node000012"><a xlink:title=" ">
<polygon fill="#e0e0e0" stroke="#999999" points="348.5,-19 275.5,-19 275.5,0 348.5,0 348.5,-19"/>
<text text-anchor="middle" x="312" y="-7" font-family="Helvetica,sans-Serif" font-size="10.00">QByteArray</text>
</a>
</g>
</g>
<!-- Node9&#45;&gt;Node12 -->
<g id="edge12_Node000009_Node000012" class="edge">
<title>Node9&#45;&gt;Node12</title>
<g id="a_edge12_Node000009_Node000012"><a xlink:title=" ">
<path fill="none" stroke="#63b8ff" d="M371.88,-54.84C359.82,-45.91 344.29,-34.41 332.06,-25.35"/>
<polygon fill="#63b8ff" stroke="#63b8ff" points="333.96,-22.4 323.84,-19.27 329.79,-28.03 333.96,-22.4"/>
</a>
</g>
</g>
<!-- Node13 -->
<g id="Node000013" class="node">
<title>Node13</title>
<g id="a_Node000013"><a xlink:title=" ">
<polygon fill="#e0e0e0" stroke="#999999" points="415.5,-19 366.5,-19 366.5,0 415.5,0 415.5,-19"/>
<text text-anchor="middle" x="391" y="-7" font-family="Helvetica,sans-Serif" font-size="10.00">QHash</text>
</a>
</g>
</g>
<!-- Node9&#45;&gt;Node13 -->
<g id="edge13_Node000009_Node000013" class="edge">
<title>Node9&#45;&gt;Node13</title>
<g id="a_edge13_Node000009_Node000013"><a xlink:title=" ">
<path fill="none" stroke="#63b8ff" d="M391,-54.84C391,-47.21 391,-37.7 391,-29.45"/>
<polygon fill="#63b8ff" stroke="#63b8ff" points="394.5,-29.27 391,-19.27 387.5,-29.27 394.5,-29.27"/>
</a>
</g>
</g>
<!-- Node14 -->
<g id="Node000014" class="node">
<title>Node14</title>
<g id="a_Node000014"><a xlink:title=" ">
<polygon fill="#e0e0e0" stroke="#999999" points="486.5,-19 433.5,-19 433.5,0 486.5,0 486.5,-19"/>
<text text-anchor="middle" x="460" y="-7" font-family="Helvetica,sans-Serif" font-size="10.00">QString</text>
</a>
</g>
</g>
<!-- Node9&#45;&gt;Node14 -->
<g id="edge14_Node000009_Node000014" class="edge">
<title>Node9&#45;&gt;Node14</title>
<g id="a_edge14_Node000009_Node000014"><a xlink:title=" ">
<path fill="none" stroke="#63b8ff" d="M407.7,-54.84C418.03,-46.09 431.28,-34.85 441.86,-25.88"/>
<polygon fill="#63b8ff" stroke="#63b8ff" points="444.3,-28.4 449.66,-19.27 439.77,-23.06 444.3,-28.4"/>
</a>
</g>
</g>
<!-- Node15 -->
<g id="Node000015" class="node">
<title>Node15</title>
<g id="a_Node000015"><a xlink:title=" ">
<polygon fill="#e0e0e0" stroke="#999999" points="561,-19 505,-19 505,0 561,0 561,-19"/>
<text text-anchor="middle" x="533" y="-7" font-family="Helvetica,sans-Serif" font-size="10.00">QObject</text>
</a>
</g>
</g>
<!-- Node9&#45;&gt;Node15 -->
<g id="edge15_Node000009_Node000015" class="edge">
<title>Node9&#45;&gt;Node15</title>
<g id="a_edge15_Node000009_Node000015"><a xlink:title=" ">
<path fill="none" stroke="#63b8ff" d="M425.01,-54.99C448.6,-45.27 479.74,-32.44 502.52,-23.06"/>
<polygon fill="#63b8ff" stroke="#63b8ff" points="504.12,-26.18 512.03,-19.14 501.45,-19.71 504.12,-26.18"/>
</a>
</g>
</g>
<!-- Node16 -->
<g id="Node000016" class="node">
<title>Node16</title>
<g id="a_Node000016"><a xlink:title=" ">
<polygon fill="#e0e0e0" stroke="#999999" points="624.5,-19 579.5,-19 579.5,0 624.5,0 624.5,-19"/>
<text text-anchor="middle" x="602" y="-7" font-family="Helvetica,sans-Serif" font-size="10.00">QMap</text>
</a>
</g>
</g>
<!-- Node9&#45;&gt;Node16 -->
<g id="edge16_Node000009_Node000016" class="edge">
<title>Node9&#45;&gt;Node16</title>
<g id="a_edge16_Node000009_Node000016"><a xlink:title=" ">
<path fill="none" stroke="#63b8ff" d="M441.54,-54.99C481.21,-43.99 535.25,-29.01 569.39,-19.54"/>
<polygon fill="#63b8ff" stroke="#63b8ff" points="570.6,-22.84 579.3,-16.79 568.73,-16.09 570.6,-22.84"/>
</a>
</g>
</g>
</g>
</svg>
