<?xml version="1.0" encoding="UTF-8" standalone="no"?>
<!DOCTYPE svg PUBLIC "-//W3C//DTD SVG 1.1//EN"
 "http://www.w3.org/Graphics/SVG/1.1/DTD/svg11.dtd">
<!-- Generated by graphviz version 2.43.0 (0)
 -->
<!-- Title: features/pid/sensors/SensorValueIndicatorViewModel.h Pages: 1 -->
<svg width="960pt" height="104pt"
 viewBox="0.00 0.00 960.00 104.00" xmlns="http://www.w3.org/2000/svg" xmlns:xlink="http://www.w3.org/1999/xlink">
<g id="graph0" class="graph" transform="scale(1 1) rotate(0) translate(4 100)">
<title>features/pid/sensors/SensorValueIndicatorViewModel.h</title>
<!-- Node1 -->
<g id="Node000001" class="node">
<title>Node1</title>
<g id="a_Node000001"><a xlink:title=" ">
<polygon fill="#999999" stroke="#666666" points="521.5,-96 336.5,-96 336.5,-66 521.5,-66 521.5,-96"/>
<text text-anchor="start" x="344.5" y="-84" font-family="Helvetica,sans-Serif" font-size="10.00">features/pid/sensors</text>
<text text-anchor="middle" x="429" y="-73" font-family="Helvetica,sans-Serif" font-size="10.00">/SensorValueIndicatorViewModel.h</text>
</a>
</g>
</g>
<!-- Node2 -->
<g id="Node000002" class="node">
<title>Node2</title>
<g id="a_Node000002"><a xlink:href="PidTab_8cpp.html" target="_top" xlink:title=" ">
<polygon fill="white" stroke="#666666" points="130,-24.5 0,-24.5 0,-5.5 130,-5.5 130,-24.5"/>
<text text-anchor="middle" x="65" y="-12.5" font-family="Helvetica,sans-Serif" font-size="10.00">features/pid/PidTab.cpp</text>
</a>
</g>
</g>
<!-- Node1&#45;&gt;Node2 -->
<g id="edge1_Node000001_Node000002" class="edge">
<title>Node1&#45;&gt;Node2</title>
<g id="a_edge1_Node000001_Node000002"><a xlink:title=" ">
<path fill="none" stroke="#63b8ff" d="M335.45,-64.27C278.6,-54.61 204.57,-41.85 139,-30 129.48,-28.28 119.28,-26.38 109.59,-24.56"/>
<polygon fill="#63b8ff" stroke="#63b8ff" points="335.05,-67.75 345.49,-65.97 336.22,-60.85 335.05,-67.75"/>
</a>
</g>
</g>
<!-- Node3 -->
<g id="Node000003" class="node">
<title>Node3</title>
<g id="a_Node000003"><a xlink:href="PidTabFactory_8cpp.html" target="_top" xlink:title=" ">
<polygon fill="white" stroke="#666666" points="312,-24.5 148,-24.5 148,-5.5 312,-5.5 312,-24.5"/>
<text text-anchor="middle" x="230" y="-12.5" font-family="Helvetica,sans-Serif" font-size="10.00">features/pid/PidTabFactory.cpp</text>
</a>
</g>
</g>
<!-- Node1&#45;&gt;Node3 -->
<g id="edge2_Node000001_Node000003" class="edge">
<title>Node1&#45;&gt;Node3</title>
<g id="a_edge2_Node000001_Node000003"><a xlink:title=" ">
<path fill="none" stroke="#63b8ff" d="M375.81,-62.89C337.27,-50.5 286.81,-34.27 256.48,-24.52"/>
<polygon fill="#63b8ff" stroke="#63b8ff" points="374.74,-66.23 385.33,-65.95 376.88,-59.56 374.74,-66.23"/>
</a>
</g>
</g>
<!-- Node4 -->
<g id="Node000004" class="node">
<title>Node4</title>
<g id="a_Node000004"><a xlink:href="SensorValueIndicatorViewModel_8cpp.html" target="_top" xlink:title=" ">
<polygon fill="white" stroke="#666666" points="527.5,-30 330.5,-30 330.5,0 527.5,0 527.5,-30"/>
<text text-anchor="start" x="338.5" y="-18" font-family="Helvetica,sans-Serif" font-size="10.00">features/pid/sensors</text>
<text text-anchor="middle" x="429" y="-7" font-family="Helvetica,sans-Serif" font-size="10.00">/SensorValueIndicatorViewModel.cpp</text>
</a>
</g>
</g>
<!-- Node1&#45;&gt;Node4 -->
<g id="edge3_Node000001_Node000004" class="edge">
<title>Node1&#45;&gt;Node4</title>
<g id="a_edge3_Node000001_Node000004"><a xlink:title=" ">
<path fill="none" stroke="#63b8ff" d="M429,-55.54C429,-46.96 429,-37.61 429,-30.16"/>
<polygon fill="#63b8ff" stroke="#63b8ff" points="425.5,-55.8 429,-65.8 432.5,-55.8 425.5,-55.8"/>
</a>
</g>
</g>
<!-- Node5 -->
<g id="Node000005" class="node">
<title>Node5</title>
<g id="a_Node000005"><a xlink:href="SensorValueIndicatorWidget_8cpp.html" target="_top" xlink:title=" ">
<polygon fill="white" stroke="#666666" points="722.5,-30 545.5,-30 545.5,0 722.5,0 722.5,-30"/>
<text text-anchor="start" x="553.5" y="-18" font-family="Helvetica,sans-Serif" font-size="10.00">features/pid/sensors</text>
<text text-anchor="middle" x="634" y="-7" font-family="Helvetica,sans-Serif" font-size="10.00">/SensorValueIndicatorWidget.cpp</text>
</a>
</g>
</g>
<!-- Node1&#45;&gt;Node5 -->
<g id="edge4_Node000001_Node000005" class="edge">
<title>Node1&#45;&gt;Node5</title>
<g id="a_edge4_Node000001_Node000005"><a xlink:title=" ">
<path fill="none" stroke="#63b8ff" d="M483.91,-62.86C516.83,-52.58 558.16,-39.68 589.12,-30.01"/>
<polygon fill="#63b8ff" stroke="#63b8ff" points="482.49,-59.63 473.99,-65.95 484.58,-66.32 482.49,-59.63"/>
</a>
</g>
</g>
<!-- Node6 -->
<g id="Node000006" class="node">
<title>Node6</title>
<g id="a_Node000006"><a xlink:href="AppViewModels_8cpp.html" target="_top" xlink:title=" ">
<polygon fill="white" stroke="#666666" points="952,-24.5 740,-24.5 740,-5.5 952,-5.5 952,-24.5"/>
<text text-anchor="middle" x="846" y="-12.5" font-family="Helvetica,sans-Serif" font-size="10.00">mvvm/viewmodels/AppViewModels.cpp</text>
</a>
</g>
</g>
<!-- Node1&#45;&gt;Node6 -->
<g id="edge5_Node000001_Node000006" class="edge">
<title>Node1&#45;&gt;Node6</title>
<g id="a_edge5_Node000001_Node000006"><a xlink:title=" ">
<path fill="none" stroke="#63b8ff" d="M530.33,-64.45C612.14,-51.89 724.18,-34.7 790.43,-24.53"/>
<polygon fill="#63b8ff" stroke="#63b8ff" points="529.61,-61.02 520.25,-65.99 530.67,-67.94 529.61,-61.02"/>
</a>
</g>
</g>
</g>
</svg>
