<?xml version="1.0" encoding="UTF-8" standalone="no"?>
<!DOCTYPE svg PUBLIC "-//W3C//DTD SVG 1.1//EN"
 "http://www.w3.org/Graphics/SVG/1.1/DTD/svg11.dtd">
<!-- Generated by graphviz version 2.43.0 (0)
 -->
<!-- Title: features/pid/actuator/StatusTableWidget.h Pages: 1 -->
<svg width="288pt" height="104pt"
 viewBox="0.00 0.00 287.50 104.00" xmlns="http://www.w3.org/2000/svg" xmlns:xlink="http://www.w3.org/1999/xlink">
<g id="graph0" class="graph" transform="scale(1 1) rotate(0) translate(4 100)">
<title>features/pid/actuator/StatusTableWidget.h</title>
<!-- Node1 -->
<g id="Node000001" class="node">
<title>Node1</title>
<g id="a_Node000001"><a xlink:title=" ">
<polygon fill="#999999" stroke="#666666" points="198.5,-96 79.5,-96 79.5,-66 198.5,-66 198.5,-96"/>
<text text-anchor="start" x="87.5" y="-84" font-family="Helvetica,sans-Serif" font-size="10.00">features/pid/actuator</text>
<text text-anchor="middle" x="139" y="-73" font-family="Helvetica,sans-Serif" font-size="10.00">/StatusTableWidget.h</text>
</a>
</g>
</g>
<!-- Node2 -->
<g id="Node000002" class="node">
<title>Node2</title>
<g id="a_Node000002"><a xlink:href="PidTab_8cpp.html" target="_top" xlink:title=" ">
<polygon fill="white" stroke="#666666" points="130,-24.5 0,-24.5 0,-5.5 130,-5.5 130,-24.5"/>
<text text-anchor="middle" x="65" y="-12.5" font-family="Helvetica,sans-Serif" font-size="10.00">features/pid/PidTab.cpp</text>
</a>
</g>
</g>
<!-- Node1&#45;&gt;Node2 -->
<g id="edge1_Node000001_Node000002" class="edge">
<title>Node1&#45;&gt;Node2</title>
<g id="a_edge1_Node000001_Node000002"><a xlink:title=" ">
<path fill="none" stroke="#63b8ff" d="M114.64,-58.93C101.25,-47.35 85.36,-33.61 75.23,-24.84"/>
<polygon fill="#63b8ff" stroke="#63b8ff" points="112.72,-61.9 122.58,-65.8 117.3,-56.61 112.72,-61.9"/>
</a>
</g>
</g>
<!-- Node3 -->
<g id="Node000003" class="node">
<title>Node3</title>
<g id="a_Node000003"><a xlink:href="StatusTableWidget_8cpp.html" target="_top" xlink:title=" ">
<polygon fill="white" stroke="#666666" points="279.5,-30 148.5,-30 148.5,0 279.5,0 279.5,-30"/>
<text text-anchor="start" x="156.5" y="-18" font-family="Helvetica,sans-Serif" font-size="10.00">features/pid/actuator</text>
<text text-anchor="middle" x="214" y="-7" font-family="Helvetica,sans-Serif" font-size="10.00">/StatusTableWidget.cpp</text>
</a>
</g>
</g>
<!-- Node1&#45;&gt;Node3 -->
<g id="edge2_Node000001_Node000003" class="edge">
<title>Node1&#45;&gt;Node3</title>
<g id="a_edge2_Node000001_Node000003"><a xlink:title=" ">
<path fill="none" stroke="#63b8ff" d="M163.37,-59.2C174.51,-49.7 187.41,-38.69 197.4,-30.16"/>
<polygon fill="#63b8ff" stroke="#63b8ff" points="160.98,-56.64 155.64,-65.8 165.52,-61.97 160.98,-56.64"/>
</a>
</g>
</g>
</g>
</svg>
