<?xml version="1.0" encoding="UTF-8" standalone="no"?>
<!DOCTYPE svg PUBLIC "-//W3C//DTD SVG 1.1//EN"
 "http://www.w3.org/Graphics/SVG/1.1/DTD/svg11.dtd">
<!-- Generated by graphviz version 2.43.0 (0)
 -->
<!-- Title: features/pid/actuator/StatusTableWidget.cpp Pages: 1 -->
<svg width="650pt" height="148pt"
 viewBox="0.00 0.00 650.02 148.00" xmlns="http://www.w3.org/2000/svg" xmlns:xlink="http://www.w3.org/1999/xlink">
<g id="graph0" class="graph" transform="scale(1 1) rotate(0) translate(4 144)">
<title>features/pid/actuator/StatusTableWidget.cpp</title>
<!-- Node1 -->
<g id="Node000001" class="node">
<title>Node1</title>
<g id="a_Node000001"><a xlink:title=" ">
<polygon fill="#999999" stroke="#666666" points="316.02,-140 185.02,-140 185.02,-110 316.02,-110 316.02,-140"/>
<text text-anchor="start" x="193.02" y="-128" font-family="Helvetica,sans-Serif" font-size="10.00">features/pid/actuator</text>
<text text-anchor="middle" x="250.52" y="-117" font-family="Helvetica,sans-Serif" font-size="10.00">/StatusTableWidget.cpp</text>
</a>
</g>
</g>
<!-- Node2 -->
<g id="Node000002" class="node">
<title>Node2</title>
<g id="a_Node000002"><a xlink:title=" ">
<polygon fill="#e0e0e0" stroke="#999999" points="147.52,-19 63.52,-19 63.52,0 147.52,0 147.52,-19"/>
<text text-anchor="middle" x="105.52" y="-7" font-family="Helvetica,sans-Serif" font-size="10.00">QTableWidget</text>
</a>
</g>
</g>
<!-- Node1&#45;&gt;Node2 -->
<g id="edge1_Node000001_Node000002" class="edge">
<title>Node1&#45;&gt;Node2</title>
<g id="a_edge1_Node000001_Node000002"><a xlink:title=" ">
<path fill="none" stroke="#63b8ff" d="M184.98,-119.77C120.25,-114.06 27.8,-101.28 5.52,-74 -13.98,-50.12 23.65,-32.43 58.19,-21.87"/>
<polygon fill="#63b8ff" stroke="#63b8ff" points="59.17,-25.23 67.79,-19.09 57.21,-18.51 59.17,-25.23"/>
</a>
</g>
</g>
<!-- Node3 -->
<g id="Node000003" class="node">
<title>Node3</title>
<g id="a_Node000003"><a xlink:title=" ">
<polygon fill="#e0e0e0" stroke="#999999" points="98.02,-74 15.02,-74 15.02,-55 98.02,-55 98.02,-74"/>
<text text-anchor="middle" x="56.52" y="-62" font-family="Helvetica,sans-Serif" font-size="10.00">QHeaderView</text>
</a>
</g>
</g>
<!-- Node1&#45;&gt;Node3 -->
<g id="edge2_Node000001_Node000003" class="edge">
<title>Node1&#45;&gt;Node3</title>
<g id="a_edge2_Node000001_Node000003"><a xlink:title=" ">
<path fill="none" stroke="#63b8ff" d="M204.05,-109.99C170.57,-99.89 125.95,-86.44 94.58,-76.98"/>
<polygon fill="#63b8ff" stroke="#63b8ff" points="95.47,-73.59 84.89,-74.05 93.45,-80.29 95.47,-73.59"/>
</a>
</g>
</g>
<!-- Node4 -->
<g id="Node000004" class="node">
<title>Node4</title>
<g id="a_Node000004"><a xlink:title=" ">
<polygon fill="#e0e0e0" stroke="#999999" points="460.52,-19 410.52,-19 410.52,0 460.52,0 460.52,-19"/>
<text text-anchor="middle" x="435.52" y="-7" font-family="Helvetica,sans-Serif" font-size="10.00">QLabel</text>
</a>
</g>
</g>
<!-- Node1&#45;&gt;Node4 -->
<g id="edge3_Node000001_Node000004" class="edge">
<title>Node1&#45;&gt;Node4</title>
<g id="a_edge3_Node000001_Node000004"><a xlink:title=" ">
<path fill="none" stroke="#63b8ff" d="M316.25,-117.53C348.83,-111.19 386.63,-98.67 412.52,-74 424.85,-62.26 430.59,-43.41 433.25,-29.29"/>
<polygon fill="#63b8ff" stroke="#63b8ff" points="436.74,-29.63 434.79,-19.21 429.82,-28.57 436.74,-29.63"/>
</a>
</g>
</g>
<!-- Node5 -->
<g id="Node000005" class="node">
<title>Node5</title>
<g id="a_Node000005"><a xlink:href="StatusTableWidget_8h.html" target="_top" xlink:title=" ">
<polygon fill="white" stroke="#666666" points="232.52,-74 116.52,-74 116.52,-55 232.52,-55 232.52,-74"/>
<text text-anchor="middle" x="174.52" y="-62" font-family="Helvetica,sans-Serif" font-size="10.00">StatusTableWidget.h</text>
</a>
</g>
</g>
<!-- Node1&#45;&gt;Node5 -->
<g id="edge4_Node000001_Node000005" class="edge">
<title>Node1&#45;&gt;Node5</title>
<g id="a_edge4_Node000001_Node000005"><a xlink:title=" ">
<path fill="none" stroke="#63b8ff" d="M232.12,-109.84C220.64,-101 205.87,-89.63 194.16,-80.62"/>
<polygon fill="#63b8ff" stroke="#63b8ff" points="195.97,-77.59 185.91,-74.27 191.7,-83.14 195.97,-77.59"/>
</a>
</g>
</g>
<!-- Node7 -->
<g id="Node000007" class="node">
<title>Node7</title>
<g id="a_Node000007"><a xlink:href="ActuatorSwitchViewModel_8h.html" target="_top" xlink:title=" ">
<polygon fill="white" stroke="#666666" points="404.02,-74 251.02,-74 251.02,-55 404.02,-55 404.02,-74"/>
<text text-anchor="middle" x="327.52" y="-62" font-family="Helvetica,sans-Serif" font-size="10.00">ActuatorSwitchViewModel.h</text>
</a>
</g>
</g>
<!-- Node1&#45;&gt;Node7 -->
<g id="edge7_Node000001_Node000007" class="edge">
<title>Node1&#45;&gt;Node7</title>
<g id="a_edge7_Node000001_Node000007"><a xlink:title=" ">
<path fill="none" stroke="#63b8ff" d="M269.16,-109.84C280.91,-100.91 296.05,-89.41 307.97,-80.35"/>
<polygon fill="#63b8ff" stroke="#63b8ff" points="310.14,-83.1 315.98,-74.27 305.9,-77.53 310.14,-83.1"/>
</a>
</g>
</g>
<!-- Node8 -->
<g id="Node000008" class="node">
<title>Node8</title>
<g id="a_Node000008"><a xlink:href="ActuatorSwitchWidget_8h.html" target="_top" xlink:title=" ">
<polygon fill="white" stroke="#666666" points="594.52,-74 460.52,-74 460.52,-55 594.52,-55 594.52,-74"/>
<text text-anchor="middle" x="527.52" y="-62" font-family="Helvetica,sans-Serif" font-size="10.00">ActuatorSwitchWidget.h</text>
</a>
</g>
</g>
<!-- Node1&#45;&gt;Node8 -->
<g id="edge9_Node000001_Node000008" class="edge">
<title>Node1&#45;&gt;Node8</title>
<g id="a_edge9_Node000001_Node000008"><a xlink:title=" ">
<path fill="none" stroke="#63b8ff" d="M316.17,-110.14C365.55,-99.71 432.2,-85.63 477.36,-76.09"/>
<polygon fill="#63b8ff" stroke="#63b8ff" points="478.15,-79.5 487.22,-74.01 476.71,-72.65 478.15,-79.5"/>
</a>
</g>
</g>
<!-- Node5&#45;&gt;Node2 -->
<g id="edge6_Node000005_Node000002" class="edge">
<title>Node5&#45;&gt;Node2</title>
<g id="a_edge6_Node000005_Node000002"><a xlink:title=" ">
<path fill="none" stroke="#63b8ff" d="M163.44,-54.98C153.04,-47 137.26,-34.88 124.8,-25.31"/>
<polygon fill="#63b8ff" stroke="#63b8ff" points="126.87,-22.49 116.81,-19.17 122.61,-28.04 126.87,-22.49"/>
</a>
</g>
</g>
<!-- Node6 -->
<g id="Node000006" class="node">
<title>Node6</title>
<g id="a_Node000006"><a xlink:title=" ">
<polygon fill="#e0e0e0" stroke="#999999" points="271.52,-19 215.52,-19 215.52,0 271.52,0 271.52,-19"/>
<text text-anchor="middle" x="243.52" y="-7" font-family="Helvetica,sans-Serif" font-size="10.00">QObject</text>
</a>
</g>
</g>
<!-- Node5&#45;&gt;Node6 -->
<g id="edge5_Node000005_Node000006" class="edge">
<title>Node5&#45;&gt;Node6</title>
<g id="a_edge5_Node000005_Node000006"><a xlink:title=" ">
<path fill="none" stroke="#63b8ff" d="M185.61,-54.98C196.01,-47 211.78,-34.88 224.24,-25.31"/>
<polygon fill="#63b8ff" stroke="#63b8ff" points="226.44,-28.04 232.23,-19.17 222.17,-22.49 226.44,-28.04"/>
</a>
</g>
</g>
<!-- Node7&#45;&gt;Node6 -->
<g id="edge8_Node000007_Node000006" class="edge">
<title>Node7&#45;&gt;Node6</title>
<g id="a_edge8_Node000007_Node000006"><a xlink:title=" ">
<path fill="none" stroke="#63b8ff" d="M314.03,-54.98C301.12,-46.84 281.42,-34.41 266.12,-24.76"/>
<polygon fill="#63b8ff" stroke="#63b8ff" points="267.59,-21.55 257.26,-19.17 263.85,-27.47 267.59,-21.55"/>
</a>
</g>
</g>
<!-- Node8&#45;&gt;Node4 -->
<g id="edge11_Node000008_Node000004" class="edge">
<title>Node8&#45;&gt;Node4</title>
<g id="a_edge11_Node000008_Node000004"><a xlink:title=" ">
<path fill="none" stroke="#63b8ff" d="M512.74,-54.98C498.34,-46.69 476.21,-33.94 459.33,-24.22"/>
<polygon fill="#63b8ff" stroke="#63b8ff" points="460.98,-21.13 450.57,-19.17 457.49,-27.19 460.98,-21.13"/>
</a>
</g>
</g>
<!-- Node9 -->
<g id="Node000009" class="node">
<title>Node9</title>
<g id="a_Node000009"><a xlink:title=" ">
<polygon fill="#e0e0e0" stroke="#999999" points="642.02,-19 583.02,-19 583.02,0 642.02,0 642.02,-19"/>
<text text-anchor="middle" x="612.52" y="-7" font-family="Helvetica,sans-Serif" font-size="10.00">QWidget</text>
</a>
</g>
</g>
<!-- Node8&#45;&gt;Node9 -->
<g id="edge10_Node000008_Node000009" class="edge">
<title>Node8&#45;&gt;Node9</title>
<g id="a_edge10_Node000008_Node000009"><a xlink:title=" ">
<path fill="none" stroke="#63b8ff" d="M541.18,-54.98C554.36,-46.77 574.55,-34.18 590.09,-24.49"/>
<polygon fill="#63b8ff" stroke="#63b8ff" points="591.98,-27.43 598.62,-19.17 588.28,-21.49 591.98,-27.43"/>
</a>
</g>
</g>
<!-- Node10 -->
<g id="Node000010" class="node">
<title>Node10</title>
<g id="a_Node000010"><a xlink:title=" ">
<polygon fill="#e0e0e0" stroke="#999999" points="564.52,-19 484.52,-19 484.52,0 564.52,0 564.52,-19"/>
<text text-anchor="middle" x="524.52" y="-7" font-family="Helvetica,sans-Serif" font-size="10.00">QPushButton</text>
</a>
</g>
</g>
<!-- Node8&#45;&gt;Node10 -->
<g id="edge12_Node000008_Node000010" class="edge">
<title>Node8&#45;&gt;Node10</title>
<g id="a_edge12_Node000008_Node000010"><a xlink:title=" ">
<path fill="none" stroke="#63b8ff" d="M527.03,-54.75C526.63,-47.8 526.07,-37.85 525.58,-29.13"/>
<polygon fill="#63b8ff" stroke="#63b8ff" points="529.07,-28.88 525.01,-19.09 522.08,-29.27 529.07,-28.88"/>
</a>
</g>
</g>
</g>
</svg>
