<?xml version="1.0" encoding="UTF-8" standalone="no"?>
<!DOCTYPE svg PUBLIC "-//W3C//DTD SVG 1.1//EN"
 "http://www.w3.org/Graphics/SVG/1.1/DTD/svg11.dtd">
<!-- Generated by graphviz version 2.43.0 (0)
 -->
<!-- Title: TestTabDeps Pages: 1 -->
<svg width="168pt" height="314pt"
 viewBox="0.00 0.00 168.00 314.00" xmlns="http://www.w3.org/2000/svg" xmlns:xlink="http://www.w3.org/1999/xlink">
<g id="graph0" class="graph" transform="scale(1 1) rotate(0) translate(4 310)">
<title>TestTabDeps</title>
<!-- Node1 -->
<g id="Node000001" class="node">
<title>Node1</title>
<g id="a_Node000001"><a xlink:title=" ">
<polygon fill="#999999" stroke="transparent" points="160,-94 0,-94 0,0 160,0 160,-94"/>
<text text-anchor="start" x="49.5" y="-82" font-family="Helvetica,sans-Serif" font-size="10.00">TestTabDeps</text>
<text text-anchor="start" x="4" y="-67" font-family="Helvetica,sans-Serif" font-size="10.00">+</text>
<text text-anchor="start" x="17" y="-67" font-family="Helvetica,sans-Serif" font-size="10.00">makeTestLauncherVM</text>
<text text-anchor="start" x="4" y="-52" font-family="Helvetica,sans-Serif" font-size="10.00">+</text>
<text text-anchor="start" x="17" y="-52" font-family="Helvetica,sans-Serif" font-size="10.00">makeEmergencyControlsVM</text>
<text text-anchor="start" x="4" y="-37" font-family="Helvetica,sans-Serif" font-size="10.00">+</text>
<text text-anchor="start" x="17" y="-37" font-family="Helvetica,sans-Serif" font-size="10.00">makeCountdownClockVM</text>
<text text-anchor="start" x="4" y="-22" font-family="Helvetica,sans-Serif" font-size="10.00">+</text>
<text text-anchor="start" x="17" y="-22" font-family="Helvetica,sans-Serif" font-size="10.00">makeLogTerminalVM</text>
<text text-anchor="start" x="78" y="-7" font-family="Helvetica,sans-Serif" font-size="10.00"> </text>
<polygon fill="#666666" stroke="#666666" points="0,-77 0,-77 160,-77 160,-77 0,-77"/>
<polygon fill="#666666" stroke="#666666" points="0,-17 0,-17 15,-17 15,-17 0,-17"/>
<polygon fill="#666666" stroke="#666666" points="15,-17 15,-17 160,-17 160,-17 15,-17"/>
<polygon fill="none" stroke="#666666" points="0,0 0,-94 160,-94 160,0 0,0"/>
</a>
</g>
</g>
<!-- Node2 -->
<g id="Node000002" class="node">
<title>Node2</title>
<g id="a_Node000002"><a xlink:href="classTankPressureControlFrame.html" target="_top" xlink:title=" ">
<polygon fill="white" stroke="transparent" points="160,-220 0,-220 0,-141 160,-141 160,-220"/>
<text text-anchor="start" x="14.5" y="-207.5" font-family="Helvetica,sans-Serif" font-size="10.00">TankPressureControlFrame</text>
<text text-anchor="start" x="6.5" y="-192.5" font-family="Helvetica,sans-Serif" font-size="10.00">&#45;</text>
<text text-anchor="start" x="17" y="-192.5" font-family="Helvetica,sans-Serif" font-size="10.00">m_font</text>
<text text-anchor="start" x="6.5" y="-177.5" font-family="Helvetica,sans-Serif" font-size="10.00">&#45;</text>
<text text-anchor="start" x="17" y="-177.5" font-family="Helvetica,sans-Serif" font-size="10.00">m_frame</text>
<text text-anchor="start" x="6.5" y="-162.5" font-family="Helvetica,sans-Serif" font-size="10.00">&#45;</text>
<text text-anchor="start" x="17" y="-162.5" font-family="Helvetica,sans-Serif" font-size="10.00">m_tank_layout</text>
<text text-anchor="start" x="4" y="-147.5" font-family="Helvetica,sans-Serif" font-size="10.00">+</text>
<text text-anchor="start" x="17" y="-147.5" font-family="Helvetica,sans-Serif" font-size="10.00">TankPressureControlFrame()</text>
<polygon fill="#666666" stroke="#666666" points="0,-202.5 0,-202.5 160,-202.5 160,-202.5 0,-202.5"/>
<polygon fill="#666666" stroke="#666666" points="0,-157.5 0,-157.5 15,-157.5 15,-157.5 0,-157.5"/>
<polygon fill="#666666" stroke="#666666" points="15,-157.5 15,-157.5 160,-157.5 160,-157.5 15,-157.5"/>
<polygon fill="none" stroke="#666666" points="0,-141 0,-220 160,-220 160,-141 0,-141"/>
</a>
</g>
</g>
<!-- Node2&#45;&gt;Node1 -->
<g id="edge1_Node000001_Node000002" class="edge">
<title>Node2&#45;&gt;Node1</title>
<g id="a_edge1_Node000001_Node000002"><a xlink:title=" ">
<path fill="none" stroke="#63b8ff" d="M80,-140.76C80,-130.07 80,-118.24 80,-106.7"/>
<polygon fill="none" stroke="#63b8ff" points="80,-106.36 76,-100.36 80,-94.36 84,-100.36 80,-106.36"/>
</a>
</g>
<text text-anchor="middle" x="110" y="-115" font-family="Helvetica,sans-Serif" font-size="10.00" fill="grey"> +TpcFrame</text>
</g>
<!-- Node3 -->
<g id="Node000003" class="node">
<title>Node3</title>
<g id="a_Node000003"><a xlink:title=" ">
<polygon fill="white" stroke="transparent" points="106.5,-306 53.5,-306 53.5,-257 106.5,-257 106.5,-306"/>
<text text-anchor="start" x="59" y="-293.5" font-family="Helvetica,sans-Serif" font-size="10.00">QWidget</text>
<text text-anchor="start" x="78.5" y="-278.5" font-family="Helvetica,sans-Serif" font-size="10.00"> </text>
<text text-anchor="start" x="78.5" y="-263.5" font-family="Helvetica,sans-Serif" font-size="10.00"> </text>
<polygon fill="#666666" stroke="#666666" points="54,-288.5 54,-288.5 107,-288.5 107,-288.5 54,-288.5"/>
<polygon fill="#666666" stroke="#666666" points="54,-273.5 54,-273.5 107,-273.5 107,-273.5 54,-273.5"/>
<polygon fill="none" stroke="#666666" points="53.5,-257 53.5,-306 106.5,-306 106.5,-257 53.5,-257"/>
</a>
</g>
</g>
<!-- Node3&#45;&gt;Node2 -->
<g id="edge2_Node000002_Node000003" class="edge">
<title>Node3&#45;&gt;Node2</title>
<g id="a_edge2_Node000002_Node000003"><a xlink:title=" ">
<path fill="none" stroke="#63b8ff" d="M80,-246.75C80,-238.18 80,-228.89 80,-220.09"/>
<polygon fill="none" stroke="#63b8ff" points="76.5,-246.79 80,-256.79 83.5,-246.79 76.5,-246.79"/>
</a>
</g>
</g>
</g>
</svg>
