<?xml version="1.0" encoding="UTF-8" standalone="no"?>
<!DOCTYPE svg PUBLIC "-//W3C//DTD SVG 1.1//EN"
 "http://www.w3.org/Graphics/SVG/1.1/DTD/svg11.dtd">
<!-- Generated by graphviz version 2.43.0 (0)
 -->
<!-- Title: PidTabConfig Pages: 1 -->
<svg width="298pt" height="224pt"
 viewBox="0.00 0.00 298.00 224.00" xmlns="http://www.w3.org/2000/svg" xmlns:xlink="http://www.w3.org/1999/xlink">

<svg id="main" version="1.1" xmlns="http://www.w3.org/2000/svg" xmlns:xlink="http://www.w3.org/1999/xlink" xml:space="preserve" onload="init(evt)">
<style type="text/css"><![CDATA[
.node, .edge {opacity: 0.7;}
.node.selected, .edge.selected {opacity: 1;}
.edge:hover path { stroke: red; }
.edge:hover polygon { stroke: red; fill: red; }
]]></style>
<script type="application/ecmascript" xlink:href="svg.min.js"/>
<svg id="graph" class="graph">
<g id="graph0" class="graph" transform="scale(1 1) rotate(0) translate(4 220)">
<title>PidTabConfig</title>
<!-- Node1 -->
<g id="Node000001" class="node">
<title>Node1</title>
<g id="a_Node000001"><a xlink:title=" ">
<polygon fill="#999999" stroke="transparent" points="212,-94 79,-94 79,0 212,0 212,-94"/>
<text text-anchor="start" x="114.5" y="-82" font-family="Helvetica,sans-Serif" font-size="10.00">PidTabConfig</text>
<text text-anchor="start" x="83.5" y="-67" font-family="Helvetica,sans-Serif" font-size="10.00">+</text>
<text text-anchor="start" x="96.5" y="-67" font-family="Helvetica,sans-Serif" font-size="10.00">sensorValueIndicators</text>
<text text-anchor="start" x="83.5" y="-52" font-family="Helvetica,sans-Serif" font-size="10.00">+</text>
<text text-anchor="start" x="96.5" y="-52" font-family="Helvetica,sans-Serif" font-size="10.00">valveSwitchs</text>
<text text-anchor="start" x="83.5" y="-37" font-family="Helvetica,sans-Serif" font-size="10.00">+</text>
<text text-anchor="start" x="96.5" y="-37" font-family="Helvetica,sans-Serif" font-size="10.00">tankPressureIndicators</text>
<text text-anchor="start" x="83.5" y="-22" font-family="Helvetica,sans-Serif" font-size="10.00">+</text>
<text text-anchor="start" x="96.5" y="-22" font-family="Helvetica,sans-Serif" font-size="10.00">GlowPlugSwitchs</text>
<text text-anchor="start" x="144" y="-7" font-family="Helvetica,sans-Serif" font-size="10.00"> </text>
<polygon fill="#666666" stroke="#666666" points="79.5,-77 79.5,-77 212.5,-77 212.5,-77 79.5,-77"/>
<polygon fill="#666666" stroke="#666666" points="79.5,-17 79.5,-17 94.5,-17 94.5,-17 79.5,-17"/>
<polygon fill="#666666" stroke="#666666" points="94.5,-17 94.5,-17 212.5,-17 212.5,-17 94.5,-17"/>
<polygon fill="none" stroke="#666666" points="79,0 79,-94 212,-94 212,0 79,0"/>
</a>
</g>
</g>
<!-- Node2 -->
<g id="Node000002" class="node">
<title>Node2</title>
<g id="a_Node000002"><a xlink:href="structPidTabConfig_1_1BackgroundConfig.html" target="_top" xlink:title=" ">
<polygon fill="white" stroke="transparent" points="137,-216 0,-216 0,-141 137,-141 137,-216"/>
<text text-anchor="start" x="5.5" y="-203.5" font-family="Helvetica,sans-Serif" font-size="10.00">PidTabConfig::Background</text>
<text text-anchor="start" x="53.5" y="-192.5" font-family="Helvetica,sans-Serif" font-size="10.00">Config</text>
<text text-anchor="start" x="28" y="-177.5" font-family="Helvetica,sans-Serif" font-size="10.00">+</text>
<text text-anchor="start" x="64.5" y="-177.5" font-family="Helvetica,sans-Serif" font-size="10.00">path</text>
<text text-anchor="start" x="28" y="-162.5" font-family="Helvetica,sans-Serif" font-size="10.00">+</text>
<text text-anchor="start" x="64.5" y="-162.5" font-family="Helvetica,sans-Serif" font-size="10.00">size</text>
<text text-anchor="start" x="67" y="-147.5" font-family="Helvetica,sans-Serif" font-size="10.00"> </text>
<polygon fill="#666666" stroke="#666666" points="0.5,-187.5 0.5,-187.5 137.5,-187.5 137.5,-187.5 0.5,-187.5"/>
<polygon fill="#666666" stroke="#666666" points="0.5,-157.5 0.5,-157.5 62.5,-157.5 62.5,-157.5 0.5,-157.5"/>
<polygon fill="#666666" stroke="#666666" points="62.5,-157.5 62.5,-157.5 137.5,-157.5 137.5,-157.5 62.5,-157.5"/>
<polygon fill="none" stroke="#666666" points="0,-141 0,-216 137,-216 137,-141 0,-141"/>
</a>
</g>
</g>
<!-- Node2&#45;&gt;Node1 -->
<g id="edge1_Node000001_Node000002" class="edge">
<title>Node2&#45;&gt;Node1</title>
<g id="a_edge1_Node000001_Node000002"><a xlink:title=" ">
<path fill="none" stroke="#63b8ff" d="M90.36,-140.74C97.03,-129.52 104.53,-116.91 111.79,-104.69"/>
<polygon fill="none" stroke="#63b8ff" points="111.96,-104.41 111.59,-97.21 118.09,-94.1 118.46,-101.3 111.96,-104.41"/>
</a>
</g>
<text text-anchor="middle" x="139" y="-115" font-family="Helvetica,sans-Serif" font-size="10.00" fill="grey"> +backgroud</text>
</g>
<!-- Node3 -->
<g id="Node000003" class="node">
<title>Node3</title>
<g id="a_Node000003"><a xlink:href="structPidTabConfig_1_1StatusTableConfig.html" target="_top" xlink:title=" ">
<polygon fill="white" stroke="transparent" points="290,-208.5 155,-208.5 155,-148.5 290,-148.5 290,-208.5"/>
<text text-anchor="start" x="160.5" y="-196.5" font-family="Helvetica,sans-Serif" font-size="10.00">PidTabConfig::StatusTable</text>
<text text-anchor="start" x="207.5" y="-185.5" font-family="Helvetica,sans-Serif" font-size="10.00">Config</text>
<text text-anchor="start" x="178" y="-170.5" font-family="Helvetica,sans-Serif" font-size="10.00">+</text>
<text text-anchor="start" x="209.5" y="-170.5" font-family="Helvetica,sans-Serif" font-size="10.00">position</text>
<text text-anchor="start" x="221" y="-155.5" font-family="Helvetica,sans-Serif" font-size="10.00"> </text>
<polygon fill="#666666" stroke="#666666" points="155.5,-180.5 155.5,-180.5 290.5,-180.5 290.5,-180.5 155.5,-180.5"/>
<polygon fill="#666666" stroke="#666666" points="155.5,-165.5 155.5,-165.5 207.5,-165.5 207.5,-165.5 155.5,-165.5"/>
<polygon fill="#666666" stroke="#666666" points="207.5,-165.5 207.5,-165.5 290.5,-165.5 290.5,-165.5 207.5,-165.5"/>
<polygon fill="none" stroke="#666666" points="155,-148.5 155,-208.5 290,-208.5 290,-148.5 155,-148.5"/>
</a>
</g>
</g>
<!-- Node3&#45;&gt;Node1 -->
<g id="edge2_Node000001_Node000003" class="edge">
<title>Node3&#45;&gt;Node1</title>
<g id="a_edge2_Node000001_Node000003"><a xlink:title=" ">
<path fill="none" stroke="#63b8ff" d="M205.22,-148.44C197.51,-135.47 188.15,-119.73 179.15,-104.59"/>
<polygon fill="none" stroke="#63b8ff" points="179.13,-104.56 172.63,-101.45 173,-94.25 179.5,-97.36 179.13,-104.56"/>
</a>
</g>
<text text-anchor="middle" x="222" y="-115" font-family="Helvetica,sans-Serif" font-size="10.00" fill="grey"> +statusTable</text>
</g>
</g>
</svg>
</svg>

<style type='text/css'>
<![CDATA[
[data-mouse-over-selected='false'] { opacity: 0.7; }
[data-mouse-over-selected='true']  { opacity: 1.0; }
]]>
</style>
<script type="application/ecmascript"><![CDATA[
document.addEventListener('DOMContentLoaded', (event) => {
  highlightEdges();
  highlightAdjacentNodes();
});
]]></script>
</svg>
