<?xml version="1.0" encoding="UTF-8" standalone="no"?>
<!DOCTYPE svg PUBLIC "-//W3C//DTD SVG 1.1//EN"
 "http://www.w3.org/Graphics/SVG/1.1/DTD/svg11.dtd">
<!-- Generated by graphviz version 2.43.0 (0)
 -->
<!-- Title: PidTabConfig Pages: 1 -->
<svg width="449pt" height="224pt"
 viewBox="0.00 0.00 449.00 224.00" xmlns="http://www.w3.org/2000/svg" xmlns:xlink="http://www.w3.org/1999/xlink">

<svg id="main" version="1.1" xmlns="http://www.w3.org/2000/svg" xmlns:xlink="http://www.w3.org/1999/xlink" xml:space="preserve" onload="init(evt)">
<style type="text/css"><![CDATA[
.node, .edge {opacity: 0.7;}
.node.selected, .edge.selected {opacity: 1;}
.edge:hover path { stroke: red; }
.edge:hover polygon { stroke: red; fill: red; }
]]></style>
<script type="application/ecmascript" xlink:href="svg.min.js"/>
<svg id="graph" class="graph">
<g id="graph0" class="graph" transform="scale(1 1) rotate(0) translate(4 220)">
<title>PidTabConfig</title>
<!-- Node1 -->
<g id="Node000001" class="node">
<title>Node1</title>
<g id="a_Node000001"><a xlink:title=" ">
<polygon fill="#999999" stroke="transparent" points="286,-94 153,-94 153,0 286,0 286,-94"/>
<text text-anchor="start" x="188.5" y="-82" font-family="Helvetica,sans-Serif" font-size="10.00">PidTabConfig</text>
<text text-anchor="start" x="157.5" y="-67" font-family="Helvetica,sans-Serif" font-size="10.00">+</text>
<text text-anchor="start" x="170.5" y="-67" font-family="Helvetica,sans-Serif" font-size="10.00">sensorValueIndicators</text>
<text text-anchor="start" x="157.5" y="-52" font-family="Helvetica,sans-Serif" font-size="10.00">+</text>
<text text-anchor="start" x="170.5" y="-52" font-family="Helvetica,sans-Serif" font-size="10.00">valveSwitchs</text>
<text text-anchor="start" x="157.5" y="-37" font-family="Helvetica,sans-Serif" font-size="10.00">+</text>
<text text-anchor="start" x="170.5" y="-37" font-family="Helvetica,sans-Serif" font-size="10.00">tankPressureIndicators</text>
<text text-anchor="start" x="157.5" y="-22" font-family="Helvetica,sans-Serif" font-size="10.00">+</text>
<text text-anchor="start" x="170.5" y="-22" font-family="Helvetica,sans-Serif" font-size="10.00">GlowPlugSwitchs</text>
<text text-anchor="start" x="218" y="-7" font-family="Helvetica,sans-Serif" font-size="10.00"> </text>
<polygon fill="#666666" stroke="#666666" points="153.5,-77 153.5,-77 286.5,-77 286.5,-77 153.5,-77"/>
<polygon fill="#666666" stroke="#666666" points="153.5,-17 153.5,-17 168.5,-17 168.5,-17 153.5,-17"/>
<polygon fill="#666666" stroke="#666666" points="168.5,-17 168.5,-17 286.5,-17 286.5,-17 168.5,-17"/>
<polygon fill="none" stroke="#666666" points="153,0 153,-94 286,-94 286,0 153,0"/>
</a>
</g>
</g>
<!-- Node2 -->
<g id="Node000002" class="node">
<title>Node2</title>
<g id="a_Node000002"><a xlink:href="structPidTabConfig_1_1LogoConfig.html" target="_top" xlink:title=" ">
<polygon fill="white" stroke="transparent" points="133,-203 0,-203 0,-154 133,-154 133,-203"/>
<text text-anchor="start" x="5.5" y="-190.5" font-family="Helvetica,sans-Serif" font-size="10.00">PidTabConfig::LogoConfig</text>
<text text-anchor="start" x="27" y="-175.5" font-family="Helvetica,sans-Serif" font-size="10.00">+</text>
<text text-anchor="start" x="62.5" y="-175.5" font-family="Helvetica,sans-Serif" font-size="10.00">path</text>
<text text-anchor="start" x="65" y="-160.5" font-family="Helvetica,sans-Serif" font-size="10.00"> </text>
<polygon fill="#666666" stroke="#666666" points="0.5,-185.5 0.5,-185.5 133.5,-185.5 133.5,-185.5 0.5,-185.5"/>
<polygon fill="#666666" stroke="#666666" points="0.5,-170.5 0.5,-170.5 60.5,-170.5 60.5,-170.5 0.5,-170.5"/>
<polygon fill="#666666" stroke="#666666" points="60.5,-170.5 60.5,-170.5 133.5,-170.5 133.5,-170.5 60.5,-170.5"/>
<polygon fill="none" stroke="#666666" points="0,-154 0,-203 133,-203 133,-154 0,-154"/>
</a>
</g>
</g>
<!-- Node2&#45;&gt;Node1 -->
<g id="edge1_Node000001_Node000002" class="edge">
<title>Node2&#45;&gt;Node1</title>
<g id="a_edge1_Node000001_Node000002"><a xlink:title=" ">
<path fill="none" stroke="#63b8ff" d="M94.56,-153.75C111.7,-139.25 134.34,-120.08 155.63,-102.06"/>
<polygon fill="none" stroke="#63b8ff" points="155.82,-101.9 157.81,-94.97 164.98,-94.15 162.98,-101.08 155.82,-101.9"/>
</a>
</g>
<text text-anchor="middle" x="160" y="-115" font-family="Helvetica,sans-Serif" font-size="10.00" fill="grey"> +logo</text>
</g>
<!-- Node3 -->
<g id="Node000003" class="node">
<title>Node3</title>
<g id="a_Node000003"><a xlink:href="structPidTabConfig_1_1BackgroundConfig.html" target="_top" xlink:title=" ">
<polygon fill="white" stroke="transparent" points="288,-216 151,-216 151,-141 288,-141 288,-216"/>
<text text-anchor="start" x="156.5" y="-203.5" font-family="Helvetica,sans-Serif" font-size="10.00">PidTabConfig::Background</text>
<text text-anchor="start" x="204.5" y="-192.5" font-family="Helvetica,sans-Serif" font-size="10.00">Config</text>
<text text-anchor="start" x="179" y="-177.5" font-family="Helvetica,sans-Serif" font-size="10.00">+</text>
<text text-anchor="start" x="215.5" y="-177.5" font-family="Helvetica,sans-Serif" font-size="10.00">path</text>
<text text-anchor="start" x="179" y="-162.5" font-family="Helvetica,sans-Serif" font-size="10.00">+</text>
<text text-anchor="start" x="215.5" y="-162.5" font-family="Helvetica,sans-Serif" font-size="10.00">size</text>
<text text-anchor="start" x="218" y="-147.5" font-family="Helvetica,sans-Serif" font-size="10.00"> </text>
<polygon fill="#666666" stroke="#666666" points="151.5,-187.5 151.5,-187.5 288.5,-187.5 288.5,-187.5 151.5,-187.5"/>
<polygon fill="#666666" stroke="#666666" points="151.5,-157.5 151.5,-157.5 213.5,-157.5 213.5,-157.5 151.5,-157.5"/>
<polygon fill="#666666" stroke="#666666" points="213.5,-157.5 213.5,-157.5 288.5,-157.5 288.5,-157.5 213.5,-157.5"/>
<polygon fill="none" stroke="#666666" points="151,-141 151,-216 288,-216 288,-141 151,-141"/>
</a>
</g>
</g>
<!-- Node3&#45;&gt;Node1 -->
<g id="edge2_Node000001_Node000003" class="edge">
<title>Node3&#45;&gt;Node1</title>
<g id="a_edge2_Node000001_Node000003"><a xlink:title=" ">
<path fill="none" stroke="#63b8ff" d="M219.5,-140.74C219.5,-129.97 219.5,-117.93 219.5,-106.17"/>
<polygon fill="none" stroke="#63b8ff" points="219.5,-106.1 215.5,-100.1 219.5,-94.1 223.5,-100.1 219.5,-106.1"/>
</a>
</g>
<text text-anchor="middle" x="251" y="-115" font-family="Helvetica,sans-Serif" font-size="10.00" fill="grey"> +backgroud</text>
</g>
<!-- Node4 -->
<g id="Node000004" class="node">
<title>Node4</title>
<g id="a_Node000004"><a xlink:href="structPidTabConfig_1_1StatusTableConfig.html" target="_top" xlink:title=" ">
<polygon fill="white" stroke="transparent" points="441,-208.5 306,-208.5 306,-148.5 441,-148.5 441,-208.5"/>
<text text-anchor="start" x="311.5" y="-196.5" font-family="Helvetica,sans-Serif" font-size="10.00">PidTabConfig::StatusTable</text>
<text text-anchor="start" x="358.5" y="-185.5" font-family="Helvetica,sans-Serif" font-size="10.00">Config</text>
<text text-anchor="start" x="329" y="-170.5" font-family="Helvetica,sans-Serif" font-size="10.00">+</text>
<text text-anchor="start" x="360.5" y="-170.5" font-family="Helvetica,sans-Serif" font-size="10.00">position</text>
<text text-anchor="start" x="372" y="-155.5" font-family="Helvetica,sans-Serif" font-size="10.00"> </text>
<polygon fill="#666666" stroke="#666666" points="306.5,-180.5 306.5,-180.5 441.5,-180.5 441.5,-180.5 306.5,-180.5"/>
<polygon fill="#666666" stroke="#666666" points="306.5,-165.5 306.5,-165.5 358.5,-165.5 358.5,-165.5 306.5,-165.5"/>
<polygon fill="#666666" stroke="#666666" points="358.5,-165.5 358.5,-165.5 441.5,-165.5 441.5,-165.5 358.5,-165.5"/>
<polygon fill="none" stroke="#666666" points="306,-148.5 306,-208.5 441,-208.5 441,-148.5 306,-148.5"/>
</a>
</g>
</g>
<!-- Node4&#45;&gt;Node1 -->
<g id="edge3_Node000001_Node000004" class="edge">
<title>Node4&#45;&gt;Node1</title>
<g id="a_edge3_Node000001_Node000004"><a xlink:title=" ">
<path fill="none" stroke="#63b8ff" d="M338.94,-148.44C322.63,-134.72 302.63,-117.9 283.69,-101.98"/>
<polygon fill="none" stroke="#63b8ff" points="283.68,-101.97 276.52,-101.17 274.5,-94.25 281.66,-95.05 283.68,-101.97"/>
</a>
</g>
<text text-anchor="middle" x="339" y="-115" font-family="Helvetica,sans-Serif" font-size="10.00" fill="grey"> +statusTable</text>
</g>
</g>
</svg>
</svg>

<style type='text/css'>
<![CDATA[
[data-mouse-over-selected='false'] { opacity: 0.7; }
[data-mouse-over-selected='true']  { opacity: 1.0; }
]]>
</style>
<script type="application/ecmascript"><![CDATA[
document.addEventListener('DOMContentLoaded', (event) => {
  highlightEdges();
  highlightAdjacentNodes();
});
]]></script>
</svg>
