<?xml version="1.0" encoding="UTF-8" standalone="no"?>
<!DOCTYPE svg PUBLIC "-//W3C//DTD SVG 1.1//EN"
 "http://www.w3.org/Graphics/SVG/1.1/DTD/svg11.dtd">
<!-- Generated by graphviz version 2.43.0 (0)
 -->
<!-- Title: PidTabDeps Pages: 1 -->
<!--zoomable 1638 -->

<svg id="main" version="1.1" xmlns="http://www.w3.org/2000/svg" xmlns:xlink="http://www.w3.org/1999/xlink" xml:space="preserve" onload="init(evt)">
<style type="text/css"><![CDATA[
.node, .edge {opacity: 0.7;}
.node.selected, .edge.selected {opacity: 1;}
.edge:hover path { stroke: red; }
.edge:hover polygon { stroke: red; fill: red; }
]]></style>

<defs>
  <circle id="rim" cx="0" cy="0" r="7"/>
  <circle id="rim2" cx="0" cy="0" r="3.5"/>
  <g id="zoomPlus">
    <use xlink:href="#rim" fill="#404040"><set attributeName="fill" to="#808080" begin="zoomplus.mouseover" end="zoomplus.mouseout"/></use>
    <path d="M-4,0h8M0,-4v8" fill="none" stroke="white" stroke-width="1.5" pointer-events="none"/>
  </g>
  <g id="zoomMin">
    <use xlink:href="#rim" fill="#404040"><set attributeName="fill" to="#808080" begin="zoomminus.mouseover" end="zoomminus.mouseout"/></use>
    <path d="M-4,0h8" fill="none" stroke="white" stroke-width="1.5" pointer-events="none"/>
  </g>
  <g id="arrowUp" transform="translate(30 24)">
    <use xlink:href="#rim"/>
    <path pointer-events="none" fill="none" stroke="white" stroke-width="1.5" d="M0,-3.0v7 M-2.5,-0.5L0,-3.0L2.5,-0.5"/>
  </g>
  <g id="arrowRight" transform="rotate(90) translate(36 -43)">
    <use xlink:href="#rim"/>
    <path pointer-events="none" fill="none" stroke="white" stroke-width="1.5" d="M0,-3.0v7 M-2.5,-0.5L0,-3.0L2.5,-0.5"/>
  </g>
  <g id="arrowDown" transform="rotate(180) translate(-30 -48)">
    <use xlink:href="#rim"/>
    <path pointer-events="none" fill="none" stroke="white" stroke-width="1.5" d="M0,-3.0v7 M-2.5,-0.5L0,-3.0L2.5,-0.5"/>
  </g>
  <g id="arrowLeft" transform="rotate(270) translate(-36 17)">
    <use xlink:href="#rim"/>
    <path pointer-events="none" fill="none" stroke="white" stroke-width="1.5" d="M0,-3.0v7 M-2.5,-0.5L0,-3.0L2.5,-0.5"/>
  </g>
  <g id="resetDef">
    <use xlink:href="#rim2" fill="#404040"><set attributeName="fill" to="#808080" begin="reset.mouseover" end="reset.mouseout"/></use>
  </g>
</defs>
<script type="application/ecmascript">
var viewWidth = 717;
var viewHeight = 1638;
var sectionId = 'dynsection-0';
</script>
<script type="application/ecmascript" xlink:href="svg.min.js"/>
<svg id="graph" class="graph">
<g id="viewport">
<title>PidTabDeps</title>
<!-- Node1 -->
<g id="Node000001" class="node">
<title>Node1</title>
<g id="a_Node000001"><a xlink:title=" ">
<polygon fill="#999999" stroke="transparent" points="167,-105 0,-105 0,0 167,0 167,-105"/>
<text text-anchor="start" x="55.5" y="-92.5" font-family="Helvetica,sans-Serif" font-size="10.00">PidTabDeps</text>
<text text-anchor="start" x="4.5" y="-77.5" font-family="Helvetica,sans-Serif" font-size="10.00">+</text>
<text text-anchor="start" x="17.5" y="-77.5" font-family="Helvetica,sans-Serif" font-size="10.00">makeInitialiseValveVM</text>
<text text-anchor="start" x="4.5" y="-62.5" font-family="Helvetica,sans-Serif" font-size="10.00">+</text>
<text text-anchor="start" x="17.5" y="-62.5" font-family="Helvetica,sans-Serif" font-size="10.00">makeActuatorSwitchVM</text>
<text text-anchor="start" x="4.5" y="-47.5" font-family="Helvetica,sans-Serif" font-size="10.00">+</text>
<text text-anchor="start" x="17.5" y="-47.5" font-family="Helvetica,sans-Serif" font-size="10.00">makeSensorValueIndicatorVM</text>
<text text-anchor="start" x="4.5" y="-32.5" font-family="Helvetica,sans-Serif" font-size="10.00">+</text>
<text text-anchor="start" x="17.5" y="-32.5" font-family="Helvetica,sans-Serif" font-size="10.00">makeTankPressureSettings</text>
<text text-anchor="start" x="17.5" y="-21.5" font-family="Helvetica,sans-Serif" font-size="10.00">IndicatorVM</text>
<text text-anchor="start" x="82" y="-6.5" font-family="Helvetica,sans-Serif" font-size="10.00"> </text>
<polygon fill="#666666" stroke="#666666" points="0.5,-87.5 0.5,-87.5 167.5,-87.5 167.5,-87.5 0.5,-87.5"/>
<polygon fill="#666666" stroke="#666666" points="0.5,-16.5 0.5,-16.5 15.5,-16.5 15.5,-16.5 0.5,-16.5"/>
<polygon fill="#666666" stroke="#666666" points="15.5,-16.5 15.5,-16.5 167.5,-16.5 167.5,-16.5 15.5,-16.5"/>
<polygon fill="none" stroke="#666666" points="0,0 0,-105 167,-105 167,0 0,0"/>
</a>
</g>
</g>
<!-- Node2 -->
<g id="Node000002" class="node">
<title>Node2</title>
<g id="a_Node000002"><a xlink:href="classPidViewModel.html" target="_top" xlink:title=" ">
<polygon fill="white" stroke="transparent" points="148,-231 19,-231 19,-152 148,-152 148,-231"/>
<text text-anchor="start" x="49" y="-218.5" font-family="Helvetica,sans-Serif" font-size="10.00">PidViewModel</text>
<text text-anchor="start" x="26" y="-203.5" font-family="Helvetica,sans-Serif" font-size="10.00">&#45;</text>
<text text-anchor="start" x="36.5" y="-203.5" font-family="Helvetica,sans-Serif" font-size="10.00">m_pidIsLocked</text>
<text text-anchor="start" x="23.5" y="-188.5" font-family="Helvetica,sans-Serif" font-size="10.00">+</text>
<text text-anchor="start" x="36.5" y="-188.5" font-family="Helvetica,sans-Serif" font-size="10.00">PidViewModel()</text>
<text text-anchor="start" x="23.5" y="-173.5" font-family="Helvetica,sans-Serif" font-size="10.00">+</text>
<text text-anchor="start" x="36.5" y="-173.5" font-family="Helvetica,sans-Serif" font-size="10.00">pidIsLocked()</text>
<text text-anchor="start" x="23.5" y="-158.5" font-family="Helvetica,sans-Serif" font-size="10.00">+</text>
<text text-anchor="start" x="36.5" y="-158.5" font-family="Helvetica,sans-Serif" font-size="10.00">onTestStateChanged()</text>
<polygon fill="#666666" stroke="#666666" points="19.5,-213.5 19.5,-213.5 148.5,-213.5 148.5,-213.5 19.5,-213.5"/>
<polygon fill="#666666" stroke="#666666" points="19.5,-198.5 19.5,-198.5 34.5,-198.5 34.5,-198.5 19.5,-198.5"/>
<polygon fill="#666666" stroke="#666666" points="34.5,-198.5 34.5,-198.5 148.5,-198.5 148.5,-198.5 34.5,-198.5"/>
<polygon fill="none" stroke="#666666" points="19,-152 19,-231 148,-231 148,-152 19,-152"/>
</a>
</g>
</g>
<!-- Node2&#45;&gt;Node1 -->
<g id="edge1_Node000001_Node000002" class="edge">
<title>Node2&#45;&gt;Node1</title>
<g id="a_edge1_Node000001_Node000002"><a xlink:title=" ">
<path fill="none" stroke="#63b8ff" d="M83.5,-151.97C83.5,-141.17 83.5,-129.12 83.5,-117.26"/>
<polygon fill="none" stroke="#63b8ff" points="83.5,-117.03 79.5,-111.03 83.5,-105.03 87.5,-111.03 83.5,-117.03"/>
</a>
</g>
<text text-anchor="middle" x="105" y="-126" font-family="Helvetica,sans-Serif" font-size="10.00" fill="grey"> +pidVM</text>
</g>
<!-- Node3 -->
<g id="Node000003" class="node">
<title>Node3</title>
<g id="a_Node000003"><a xlink:title=" ">
<polygon fill="white" stroke="transparent" points="318.5,-1630 268.5,-1630 268.5,-1581 318.5,-1581 318.5,-1630"/>
<text text-anchor="start" x="273.5" y="-1617.5" font-family="Helvetica,sans-Serif" font-size="10.00">QObject</text>
<text text-anchor="start" x="291.5" y="-1602.5" font-family="Helvetica,sans-Serif" font-size="10.00"> </text>
<text text-anchor="start" x="291.5" y="-1587.5" font-family="Helvetica,sans-Serif" font-size="10.00"> </text>
<polygon fill="#666666" stroke="#666666" points="268.5,-1612.5 268.5,-1612.5 318.5,-1612.5 318.5,-1612.5 268.5,-1612.5"/>
<polygon fill="#666666" stroke="#666666" points="268.5,-1597.5 268.5,-1597.5 318.5,-1597.5 318.5,-1597.5 268.5,-1597.5"/>
<polygon fill="none" stroke="#666666" points="268.5,-1581 268.5,-1630 318.5,-1630 318.5,-1581 268.5,-1581"/>
</a>
</g>
</g>
<!-- Node3&#45;&gt;Node2 -->
<g id="edge2_Node000002_Node000003" class="edge">
<title>Node3&#45;&gt;Node2</title>
<g id="a_edge2_Node000002_Node000003"><a xlink:title=" ">
<path fill="none" stroke="#63b8ff" d="M258.48,-1602.53C195.02,-1596.88 67.5,-1575 67.5,-1490.5 67.5,-1490.5 67.5,-1490.5 67.5,-354 67.5,-311.88 72.96,-263.88 77.5,-231.23"/>
<polygon fill="none" stroke="#63b8ff" points="258.2,-1606.02 268.45,-1603.34 258.76,-1599.05 258.2,-1606.02"/>
</a>
</g>
</g>
<!-- Node4 -->
<g id="Node000004" class="node">
<title>Node4</title>
<g id="a_Node000004"><a xlink:href="classTestBenchModel.html" target="_top" xlink:title=" ">
<polygon fill="white" stroke="transparent" points="575.5,-432 441.5,-432 441.5,-278 575.5,-278 575.5,-432"/>
<text text-anchor="start" x="468.5" y="-420" font-family="Helvetica,sans-Serif" font-size="10.00">TestBenchModel</text>
<text text-anchor="start" x="448" y="-405" font-family="Helvetica,sans-Serif" font-size="10.00">&#45;</text>
<text text-anchor="start" x="458.5" y="-405" font-family="Helvetica,sans-Serif" font-size="10.00">m_testStatus</text>
<text text-anchor="start" x="448" y="-390" font-family="Helvetica,sans-Serif" font-size="10.00">&#45;</text>
<text text-anchor="start" x="458.5" y="-390" font-family="Helvetica,sans-Serif" font-size="10.00">m_testStatusInitialised</text>
<text text-anchor="start" x="445.5" y="-375" font-family="Helvetica,sans-Serif" font-size="10.00">+</text>
<text text-anchor="start" x="458.5" y="-375" font-family="Helvetica,sans-Serif" font-size="10.00">TestBenchModel()</text>
<text text-anchor="start" x="445.5" y="-360" font-family="Helvetica,sans-Serif" font-size="10.00">+</text>
<text text-anchor="start" x="458.5" y="-360" font-family="Helvetica,sans-Serif" font-size="10.00">setTestStatus()</text>
<text text-anchor="start" x="445.5" y="-345" font-family="Helvetica,sans-Serif" font-size="10.00">+</text>
<text text-anchor="start" x="458.5" y="-345" font-family="Helvetica,sans-Serif" font-size="10.00">getTestStatus()</text>
<text text-anchor="start" x="445.5" y="-330" font-family="Helvetica,sans-Serif" font-size="10.00">+</text>
<text text-anchor="start" x="458.5" y="-330" font-family="Helvetica,sans-Serif" font-size="10.00">getStatus()</text>
<text text-anchor="start" x="445.5" y="-315" font-family="Helvetica,sans-Serif" font-size="10.00">+</text>
<text text-anchor="start" x="458.5" y="-315" font-family="Helvetica,sans-Serif" font-size="10.00">getStatus()</text>
<text text-anchor="start" x="445.5" y="-300" font-family="Helvetica,sans-Serif" font-size="10.00">+</text>
<text text-anchor="start" x="458.5" y="-300" font-family="Helvetica,sans-Serif" font-size="10.00">getStatusID()</text>
<text text-anchor="start" x="445.5" y="-285" font-family="Helvetica,sans-Serif" font-size="10.00">+</text>
<text text-anchor="start" x="458.5" y="-285" font-family="Helvetica,sans-Serif" font-size="10.00">onStatesListRecieved()</text>
<polygon fill="#666666" stroke="#666666" points="441.5,-415 441.5,-415 575.5,-415 575.5,-415 441.5,-415"/>
<polygon fill="#666666" stroke="#666666" points="441.5,-385 441.5,-385 456.5,-385 456.5,-385 441.5,-385"/>
<polygon fill="#666666" stroke="#666666" points="456.5,-385 456.5,-385 575.5,-385 575.5,-385 456.5,-385"/>
<polygon fill="none" stroke="#666666" points="441.5,-278 441.5,-432 575.5,-432 575.5,-278 441.5,-278"/>
</a>
</g>
</g>
<!-- Node3&#45;&gt;Node4 -->
<g id="edge4_Node000004_Node000003" class="edge">
<title>Node3&#45;&gt;Node4</title>
<g id="a_edge4_Node000004_Node000003"><a xlink:title=" ">
<path fill="none" stroke="#63b8ff" d="M328.68,-1597.84C403.68,-1582.62 572.5,-1542.6 572.5,-1490.5 572.5,-1490.5 572.5,-1490.5 572.5,-645 572.5,-571.51 552.53,-489.95 534.9,-432.26"/>
<polygon fill="none" stroke="#63b8ff" points="327.87,-1594.43 318.75,-1599.82 329.24,-1601.29 327.87,-1594.43"/>
</a>
</g>
</g>
<!-- Node6 -->
<g id="Node000006" class="node">
<title>Node6</title>
<g id="a_Node000006"><a xlink:href="classUdpChannel.html" target="_top" xlink:title=" ">
<polygon fill="white" stroke="transparent" points="384,-813 249,-813 249,-479 384,-479 384,-813"/>
<text text-anchor="start" x="287" y="-801" font-family="Helvetica,sans-Serif" font-size="10.00">UdpChannel</text>
<text text-anchor="start" x="256" y="-786" font-family="Helvetica,sans-Serif" font-size="10.00">&#45;</text>
<text text-anchor="start" x="266.5" y="-786" font-family="Helvetica,sans-Serif" font-size="10.00">m_udpWorkerThread</text>
<text text-anchor="start" x="256" y="-771" font-family="Helvetica,sans-Serif" font-size="10.00">&#45;</text>
<text text-anchor="start" x="266.5" y="-771" font-family="Helvetica,sans-Serif" font-size="10.00">m_udpSocket</text>
<text text-anchor="start" x="256" y="-756" font-family="Helvetica,sans-Serif" font-size="10.00">&#45;</text>
<text text-anchor="start" x="266.5" y="-756" font-family="Helvetica,sans-Serif" font-size="10.00">m_remoteAddr</text>
<text text-anchor="start" x="256" y="-741" font-family="Helvetica,sans-Serif" font-size="10.00">&#45;</text>
<text text-anchor="start" x="266.5" y="-741" font-family="Helvetica,sans-Serif" font-size="10.00">m_remotePort</text>
<text text-anchor="start" x="256" y="-726" font-family="Helvetica,sans-Serif" font-size="10.00">&#45;</text>
<text text-anchor="start" x="266.5" y="-726" font-family="Helvetica,sans-Serif" font-size="10.00">m_localAddr</text>
<text text-anchor="start" x="256" y="-711" font-family="Helvetica,sans-Serif" font-size="10.00">&#45;</text>
<text text-anchor="start" x="266.5" y="-711" font-family="Helvetica,sans-Serif" font-size="10.00">m_localPort</text>
<text text-anchor="start" x="256" y="-696" font-family="Helvetica,sans-Serif" font-size="10.00">&#45;</text>
<text text-anchor="start" x="266.5" y="-696" font-family="Helvetica,sans-Serif" font-size="10.00">m_lastRefresh</text>
<text text-anchor="start" x="256" y="-681" font-family="Helvetica,sans-Serif" font-size="10.00">&#45;</text>
<text text-anchor="start" x="266.5" y="-681" font-family="Helvetica,sans-Serif" font-size="10.00">m_periodOfRefresh</text>
<text text-anchor="start" x="256" y="-666" font-family="Helvetica,sans-Serif" font-size="10.00">&#45;</text>
<text text-anchor="start" x="266.5" y="-666" font-family="Helvetica,sans-Serif" font-size="10.00">m_running</text>
<text text-anchor="start" x="253.5" y="-651" font-family="Helvetica,sans-Serif" font-size="10.00">+</text>
<text text-anchor="start" x="266.5" y="-651" font-family="Helvetica,sans-Serif" font-size="10.00">UdpChannel()</text>
<text text-anchor="start" x="253.5" y="-636" font-family="Helvetica,sans-Serif" font-size="10.00">+</text>
<text text-anchor="start" x="266.5" y="-636" font-family="Helvetica,sans-Serif" font-size="10.00">~UdpChannel()</text>
<text text-anchor="start" x="253.5" y="-621" font-family="Helvetica,sans-Serif" font-size="10.00">+</text>
<text text-anchor="start" x="266.5" y="-621" font-family="Helvetica,sans-Serif" font-size="10.00">startEndpoint()</text>
<text text-anchor="start" x="253.5" y="-606" font-family="Helvetica,sans-Serif" font-size="10.00">+</text>
<text text-anchor="start" x="266.5" y="-606" font-family="Helvetica,sans-Serif" font-size="10.00">stopEndpoint()</text>
<text text-anchor="start" x="253.5" y="-591" font-family="Helvetica,sans-Serif" font-size="10.00">+</text>
<text text-anchor="start" x="266.5" y="-591" font-family="Helvetica,sans-Serif" font-size="10.00">sendData()</text>
<text text-anchor="start" x="253.5" y="-576" font-family="Helvetica,sans-Serif" font-size="10.00">+</text>
<text text-anchor="start" x="266.5" y="-576" font-family="Helvetica,sans-Serif" font-size="10.00">running()</text>
<text text-anchor="start" x="253.5" y="-561" font-family="Helvetica,sans-Serif" font-size="10.00">+</text>
<text text-anchor="start" x="266.5" y="-561" font-family="Helvetica,sans-Serif" font-size="10.00">remoteAddr()</text>
<text text-anchor="start" x="253.5" y="-546" font-family="Helvetica,sans-Serif" font-size="10.00">+</text>
<text text-anchor="start" x="266.5" y="-546" font-family="Helvetica,sans-Serif" font-size="10.00">remotePort()</text>
<text text-anchor="start" x="253.5" y="-531" font-family="Helvetica,sans-Serif" font-size="10.00">+</text>
<text text-anchor="start" x="266.5" y="-531" font-family="Helvetica,sans-Serif" font-size="10.00">localAddr()</text>
<text text-anchor="start" x="253.5" y="-516" font-family="Helvetica,sans-Serif" font-size="10.00">+</text>
<text text-anchor="start" x="266.5" y="-516" font-family="Helvetica,sans-Serif" font-size="10.00">localPort()</text>
<text text-anchor="start" x="266.5" y="-501" font-family="Helvetica,sans-Serif" font-size="10.00">and 6 more...</text>
<text text-anchor="start" x="253.5" y="-486" font-family="Helvetica,sans-Serif" font-size="10.00">+</text>
<text text-anchor="start" x="266.5" y="-486" font-family="Helvetica,sans-Serif" font-size="10.00">onDatagramReceived()</text>
<polygon fill="#666666" stroke="#666666" points="249.5,-796 249.5,-796 384.5,-796 384.5,-796 249.5,-796"/>
<polygon fill="#666666" stroke="#666666" points="249.5,-661 249.5,-661 264.5,-661 264.5,-661 249.5,-661"/>
<polygon fill="#666666" stroke="#666666" points="264.5,-661 264.5,-661 384.5,-661 384.5,-661 264.5,-661"/>
<polygon fill="none" stroke="#666666" points="249,-479 249,-813 384,-813 384,-479 249,-479"/>
</a>
</g>
</g>
<!-- Node3&#45;&gt;Node6 -->
<g id="edge7_Node000006_Node000003" class="edge">
<title>Node3&#45;&gt;Node6</title>
<g id="a_edge7_Node000006_Node000003"><a xlink:title=" ">
<path fill="none" stroke="#63b8ff" d="M281.19,-1571.54C262.35,-1519.15 227.21,-1413.29 214.5,-1320 186.88,-1117.29 194.04,-1061.13 231.5,-860 235.51,-838.47 241.72,-816.36 249,-794.92"/>
<polygon fill="none" stroke="#63b8ff" points="277.91,-1572.77 284.62,-1580.98 284.49,-1570.39 277.91,-1572.77"/>
</a>
</g>
</g>
<!-- Node7 -->
<g id="Node000007" class="node">
<title>Node7</title>
<g id="a_Node000007"><a xlink:href="classUdpWorker.html" target="_top" xlink:title=" ">
<polygon fill="white" stroke="transparent" points="482.5,-984 322.5,-984 322.5,-860 482.5,-860 482.5,-984"/>
<text text-anchor="start" x="375.5" y="-972" font-family="Helvetica,sans-Serif" font-size="10.00">UdpWorker</text>
<text text-anchor="start" x="329" y="-957" font-family="Helvetica,sans-Serif" font-size="10.00">&#45;</text>
<text text-anchor="start" x="339.5" y="-957" font-family="Helvetica,sans-Serif" font-size="10.00">socket</text>
<text text-anchor="start" x="329" y="-942" font-family="Helvetica,sans-Serif" font-size="10.00">&#45;</text>
<text text-anchor="start" x="339.5" y="-942" font-family="Helvetica,sans-Serif" font-size="10.00">m_lastFrameSend</text>
<text text-anchor="start" x="326.5" y="-927" font-family="Helvetica,sans-Serif" font-size="10.00">+</text>
<text text-anchor="start" x="339.5" y="-927" font-family="Helvetica,sans-Serif" font-size="10.00">UdpWorker()</text>
<text text-anchor="start" x="326.5" y="-912" font-family="Helvetica,sans-Serif" font-size="10.00">+</text>
<text text-anchor="start" x="339.5" y="-912" font-family="Helvetica,sans-Serif" font-size="10.00">decimate()</text>
<text text-anchor="start" x="326.5" y="-897" font-family="Helvetica,sans-Serif" font-size="10.00">+</text>
<text text-anchor="start" x="339.5" y="-897" font-family="Helvetica,sans-Serif" font-size="10.00">start()</text>
<text text-anchor="start" x="326.5" y="-882" font-family="Helvetica,sans-Serif" font-size="10.00">+</text>
<text text-anchor="start" x="339.5" y="-882" font-family="Helvetica,sans-Serif" font-size="10.00">stop()</text>
<text text-anchor="start" x="329" y="-867" font-family="Helvetica,sans-Serif" font-size="10.00">&#45;</text>
<text text-anchor="start" x="339.5" y="-867" font-family="Helvetica,sans-Serif" font-size="10.00">processPendingDatagrams()</text>
<polygon fill="#666666" stroke="#666666" points="322.5,-967 322.5,-967 482.5,-967 482.5,-967 322.5,-967"/>
<polygon fill="#666666" stroke="#666666" points="322.5,-937 322.5,-937 337.5,-937 337.5,-937 322.5,-937"/>
<polygon fill="#666666" stroke="#666666" points="337.5,-937 337.5,-937 482.5,-937 482.5,-937 337.5,-937"/>
<polygon fill="none" stroke="#666666" points="322.5,-860 322.5,-984 482.5,-984 482.5,-860 322.5,-860"/>
</a>
</g>
</g>
<!-- Node3&#45;&gt;Node7 -->
<g id="edge9_Node000007_Node000003" class="edge">
<title>Node3&#45;&gt;Node7</title>
<g id="a_edge9_Node000007_Node000003"><a xlink:title=" ">
<path fill="none" stroke="#63b8ff" d="M328.41,-1594.85C354.65,-1585.84 389.56,-1569.83 410.5,-1544 457.37,-1486.18 496.79,-1318.66 527.5,-1013 527.99,-1008.14 529.86,-1006.28 527.5,-1002 517.22,-983.34 500.46,-968.47 482.51,-956.9"/>
<polygon fill="none" stroke="#63b8ff" points="327.25,-1591.54 318.82,-1597.96 329.41,-1598.2 327.25,-1591.54"/>
</a>
</g>
</g>
<!-- Node9 -->
<g id="Node000009" class="node">
<title>Node9</title>
<g id="a_Node000009"><a xlink:href="classLogger.html" target="_top" xlink:title=" ">
<polygon fill="white" stroke="transparent" points="401.5,-1544 333.5,-1544 333.5,-1435 401.5,-1435 401.5,-1544"/>
<text text-anchor="start" x="350.5" y="-1531.5" font-family="Helvetica,sans-Serif" font-size="10.00">Logger</text>
<text text-anchor="start" x="365.5" y="-1516.5" font-family="Helvetica,sans-Serif" font-size="10.00"> </text>
<text text-anchor="start" x="337.5" y="-1501.5" font-family="Helvetica,sans-Serif" font-size="10.00">+</text>
<text text-anchor="start" x="350.5" y="-1501.5" font-family="Helvetica,sans-Serif" font-size="10.00">Logger()</text>
<text text-anchor="start" x="337.5" y="-1486.5" font-family="Helvetica,sans-Serif" font-size="10.00">+</text>
<text text-anchor="start" x="350.5" y="-1486.5" font-family="Helvetica,sans-Serif" font-size="10.00">log()</text>
<text text-anchor="start" x="337.5" y="-1471.5" font-family="Helvetica,sans-Serif" font-size="10.00">+</text>
<text text-anchor="start" x="350.5" y="-1471.5" font-family="Helvetica,sans-Serif" font-size="10.00">debug()</text>
<text text-anchor="start" x="337.5" y="-1456.5" font-family="Helvetica,sans-Serif" font-size="10.00">+</text>
<text text-anchor="start" x="350.5" y="-1456.5" font-family="Helvetica,sans-Serif" font-size="10.00">error()</text>
<text text-anchor="start" x="337.5" y="-1441.5" font-family="Helvetica,sans-Serif" font-size="10.00">+</text>
<text text-anchor="start" x="350.5" y="-1441.5" font-family="Helvetica,sans-Serif" font-size="10.00">warning()</text>
<polygon fill="#666666" stroke="#666666" points="333.5,-1526.5 333.5,-1526.5 401.5,-1526.5 401.5,-1526.5 333.5,-1526.5"/>
<polygon fill="#666666" stroke="#666666" points="333.5,-1511.5 333.5,-1511.5 401.5,-1511.5 401.5,-1511.5 333.5,-1511.5"/>
<polygon fill="none" stroke="#666666" points="333.5,-1435 333.5,-1544 401.5,-1544 401.5,-1435 333.5,-1435"/>
</a>
</g>
</g>
<!-- Node3&#45;&gt;Node9 -->
<g id="edge12_Node000009_Node000003" class="edge">
<title>Node3&#45;&gt;Node9</title>
<g id="a_edge12_Node000009_Node000003"><a xlink:title=" ">
<path fill="none" stroke="#63b8ff" d="M314.45,-1572.23C320.31,-1563.19 326.85,-1553.13 333.27,-1543.23"/>
<polygon fill="none" stroke="#63b8ff" points="311.34,-1570.59 308.83,-1580.88 317.21,-1574.4 311.34,-1570.59"/>
</a>
</g>
</g>
<!-- Node10 -->
<g id="Node000010" class="node">
<title>Node10</title>
<g id="a_Node000010"><a xlink:href="classFileSystem.html" target="_top" xlink:title=" ">
<polygon fill="white" stroke="transparent" points="177.5,-1417 85.5,-1417 85.5,-1338 177.5,-1338 177.5,-1417"/>
<text text-anchor="start" x="104" y="-1404.5" font-family="Helvetica,sans-Serif" font-size="10.00">FileSystem</text>
<text text-anchor="start" x="92" y="-1389.5" font-family="Helvetica,sans-Serif" font-size="10.00">&#45;</text>
<text text-anchor="start" x="102.5" y="-1389.5" font-family="Helvetica,sans-Serif" font-size="10.00">m_pathList</text>
<text text-anchor="start" x="89.5" y="-1374.5" font-family="Helvetica,sans-Serif" font-size="10.00">+</text>
<text text-anchor="start" x="102.5" y="-1374.5" font-family="Helvetica,sans-Serif" font-size="10.00">FileSystem()</text>
<text text-anchor="start" x="89.5" y="-1359.5" font-family="Helvetica,sans-Serif" font-size="10.00">+</text>
<text text-anchor="start" x="102.5" y="-1359.5" font-family="Helvetica,sans-Serif" font-size="10.00">addDirectory()</text>
<text text-anchor="start" x="89.5" y="-1344.5" font-family="Helvetica,sans-Serif" font-size="10.00">+</text>
<text text-anchor="start" x="102.5" y="-1344.5" font-family="Helvetica,sans-Serif" font-size="10.00">getDirectory()</text>
<polygon fill="#666666" stroke="#666666" points="85.5,-1399.5 85.5,-1399.5 177.5,-1399.5 177.5,-1399.5 85.5,-1399.5"/>
<polygon fill="#666666" stroke="#666666" points="85.5,-1384.5 85.5,-1384.5 100.5,-1384.5 100.5,-1384.5 85.5,-1384.5"/>
<polygon fill="#666666" stroke="#666666" points="100.5,-1384.5 100.5,-1384.5 177.5,-1384.5 177.5,-1384.5 100.5,-1384.5"/>
<polygon fill="none" stroke="#666666" points="85.5,-1338 85.5,-1417 177.5,-1417 177.5,-1338 85.5,-1338"/>
</a>
</g>
</g>
<!-- Node3&#45;&gt;Node10 -->
<g id="edge15_Node000010_Node000003" class="edge">
<title>Node3&#45;&gt;Node10</title>
<g id="a_edge15_Node000010_Node000003"><a xlink:title=" ">
<path fill="none" stroke="#63b8ff" d="M258.33,-1600.23C233.25,-1595.36 200.55,-1584.99 180.5,-1563 143.88,-1522.83 134.07,-1458.41 131.75,-1417.3"/>
<polygon fill="none" stroke="#63b8ff" points="257.76,-1603.68 268.21,-1601.94 258.95,-1596.78 257.76,-1603.68"/>
</a>
</g>
</g>
<!-- Node4&#45;&gt;Node2 -->
<g id="edge3_Node000002_Node000004" class="edge">
<title>Node4&#45;&gt;Node2</title>
<g id="a_edge3_Node000002_Node000004"><a xlink:title=" ">
<path fill="none" stroke="#63b8ff" d="M441.16,-328.41C364.53,-299.29 239.65,-251.84 159.57,-221.41"/>
<polygon fill="none" stroke="#63b8ff" points="159.31,-221.31 152.28,-222.91 148.09,-217.04 155.12,-215.44 159.31,-221.31"/>
</a>
</g>
<text text-anchor="middle" x="297.5" y="-252" font-family="Helvetica,sans-Serif" font-size="10.00" fill="grey"> &#45;m_testBenchM</text>
</g>
<!-- Node5 -->
<g id="Node000005" class="node">
<title>Node5</title>
<g id="a_Node000005"><a xlink:href="classTestBenchStatesList.html" target="_top" xlink:title=" ">
<polygon fill="white" stroke="transparent" points="708.5,-700.5 600.5,-700.5 600.5,-591.5 708.5,-591.5 708.5,-700.5"/>
<text text-anchor="start" x="605.5" y="-688" font-family="Helvetica,sans-Serif" font-size="10.00">TestBenchStatesList</text>
<text text-anchor="start" x="608" y="-673" font-family="Helvetica,sans-Serif" font-size="10.00">&#45;</text>
<text text-anchor="start" x="619.5" y="-673" font-family="Helvetica,sans-Serif" font-size="10.00">m_valuesDatas</text>
<text text-anchor="start" x="608" y="-658" font-family="Helvetica,sans-Serif" font-size="10.00">&#45;</text>
<text text-anchor="start" x="619.5" y="-658" font-family="Helvetica,sans-Serif" font-size="10.00">m_valuesNames</text>
<text text-anchor="start" x="605.5" y="-643" font-family="Helvetica,sans-Serif" font-size="10.00">+</text>
<text text-anchor="start" x="619.5" y="-643" font-family="Helvetica,sans-Serif" font-size="10.00">append()</text>
<text text-anchor="start" x="605.5" y="-628" font-family="Helvetica,sans-Serif" font-size="10.00">+</text>
<text text-anchor="start" x="619.5" y="-628" font-family="Helvetica,sans-Serif" font-size="10.00">getValue()</text>
<text text-anchor="start" x="605.5" y="-613" font-family="Helvetica,sans-Serif" font-size="10.00">+</text>
<text text-anchor="start" x="619.5" y="-613" font-family="Helvetica,sans-Serif" font-size="10.00">getValue()</text>
<text text-anchor="start" x="605.5" y="-598" font-family="Helvetica,sans-Serif" font-size="10.00">+</text>
<text text-anchor="start" x="619.5" y="-598" font-family="Helvetica,sans-Serif" font-size="10.00">getID()</text>
<polygon fill="#666666" stroke="#666666" points="600.5,-683 600.5,-683 708.5,-683 708.5,-683 600.5,-683"/>
<polygon fill="#666666" stroke="#666666" points="600.5,-653 600.5,-653 617.5,-653 617.5,-653 600.5,-653"/>
<polygon fill="#666666" stroke="#666666" points="617.5,-653 617.5,-653 708.5,-653 708.5,-653 617.5,-653"/>
<polygon fill="none" stroke="#666666" points="600.5,-591.5 600.5,-700.5 708.5,-700.5 708.5,-591.5 600.5,-591.5"/>
</a>
</g>
</g>
<!-- Node5&#45;&gt;Node4 -->
<g id="edge5_Node000004_Node000005" class="edge">
<title>Node5&#45;&gt;Node4</title>
<g id="a_edge5_Node000004_Node000005"><a xlink:title=" ">
<path fill="none" stroke="#63b8ff" d="M641.3,-591.08C630.1,-550.65 611.8,-494.8 586.5,-450 585.07,-447.47 583.57,-444.94 582.01,-442.42"/>
<polygon fill="none" stroke="#63b8ff" points="581.85,-442.17 575.22,-439.33 575.3,-432.12 581.93,-434.96 581.85,-442.17"/>
</a>
</g>
<text text-anchor="middle" x="617.5" y="-453" font-family="Helvetica,sans-Serif" font-size="10.00" fill="grey"> &#45;m_states</text>
</g>
<!-- Node6&#45;&gt;Node4 -->
<g id="edge6_Node000004_Node000006" class="edge">
<title>Node6&#45;&gt;Node4</title>
<g id="a_edge6_Node000004_Node000006"><a xlink:title=" ">
<path fill="none" stroke="#63b8ff" d="M384.19,-543.11C406.01,-510.26 429.98,-474.19 451,-442.56"/>
<polygon fill="none" stroke="#63b8ff" points="451.07,-442.45 451.06,-435.24 457.71,-432.45 457.72,-439.66 451.07,-442.45"/>
</a>
</g>
<text text-anchor="middle" x="480.5" y="-453" font-family="Helvetica,sans-Serif" font-size="10.00" fill="grey"> &#45;m_udpChannel</text>
</g>
<!-- Node7&#45;&gt;Node6 -->
<g id="edge8_Node000006_Node000007" class="edge">
<title>Node7&#45;&gt;Node6</title>
<g id="a_edge8_Node000006_Node000007"><a xlink:title=" ">
<path fill="none" stroke="#63b8ff" d="M383.31,-859.85C379.88,-848.92 376.15,-837.05 372.27,-824.7"/>
<polygon fill="none" stroke="#63b8ff" points="372.27,-824.68 366.65,-820.15 368.67,-813.23 374.29,-817.76 372.27,-824.68"/>
</a>
</g>
<text text-anchor="middle" x="413.5" y="-834" font-family="Helvetica,sans-Serif" font-size="10.00" fill="grey"> &#45;m_udpWorker</text>
</g>
<!-- Node8 -->
<g id="Node000008" class="node">
<title>Node8</title>
<g id="a_Node000008"><a xlink:href="classUdpLogger.html" target="_top" xlink:title=" ">
<polygon fill="white" stroke="transparent" points="356,-1320 223,-1320 223,-1031 356,-1031 356,-1320"/>
<text text-anchor="start" x="263.5" y="-1307.5" font-family="Helvetica,sans-Serif" font-size="10.00">UdpLogger</text>
<text text-anchor="start" x="230" y="-1292.5" font-family="Helvetica,sans-Serif" font-size="10.00">&#45;</text>
<text text-anchor="start" x="240.5" y="-1292.5" font-family="Helvetica,sans-Serif" font-size="10.00">m_writer</text>
<text text-anchor="start" x="230" y="-1277.5" font-family="Helvetica,sans-Serif" font-size="10.00">&#45;</text>
<text text-anchor="start" x="240.5" y="-1277.5" font-family="Helvetica,sans-Serif" font-size="10.00">m_ringBuffer</text>
<text text-anchor="start" x="230" y="-1262.5" font-family="Helvetica,sans-Serif" font-size="10.00">&#45;</text>
<text text-anchor="start" x="240.5" y="-1262.5" font-family="Helvetica,sans-Serif" font-size="10.00">m_running</text>
<text text-anchor="start" x="230" y="-1247.5" font-family="Helvetica,sans-Serif" font-size="10.00">&#45;</text>
<text text-anchor="start" x="240.5" y="-1247.5" font-family="Helvetica,sans-Serif" font-size="10.00">m_writerThread</text>
<text text-anchor="start" x="230" y="-1232.5" font-family="Helvetica,sans-Serif" font-size="10.00">&#45;</text>
<text text-anchor="start" x="240.5" y="-1232.5" font-family="Helvetica,sans-Serif" font-size="10.00">m_logDirPath</text>
<text text-anchor="start" x="230" y="-1217.5" font-family="Helvetica,sans-Serif" font-size="10.00">&#45;</text>
<text text-anchor="start" x="240.5" y="-1217.5" font-family="Helvetica,sans-Serif" font-size="10.00">MAX_FRAME_SIZE</text>
<text text-anchor="start" x="227.5" y="-1202.5" font-family="Helvetica,sans-Serif" font-size="10.00">+</text>
<text text-anchor="start" x="240.5" y="-1202.5" font-family="Helvetica,sans-Serif" font-size="10.00">UdpLogger()</text>
<text text-anchor="start" x="227.5" y="-1187.5" font-family="Helvetica,sans-Serif" font-size="10.00">+</text>
<text text-anchor="start" x="240.5" y="-1187.5" font-family="Helvetica,sans-Serif" font-size="10.00">~UdpLogger()</text>
<text text-anchor="start" x="227.5" y="-1172.5" font-family="Helvetica,sans-Serif" font-size="10.00">+</text>
<text text-anchor="start" x="240.5" y="-1172.5" font-family="Helvetica,sans-Serif" font-size="10.00">UdpLogger()</text>
<text text-anchor="start" x="227.5" y="-1157.5" font-family="Helvetica,sans-Serif" font-size="10.00">+</text>
<text text-anchor="start" x="240.5" y="-1157.5" font-family="Helvetica,sans-Serif" font-size="10.00">operator=()</text>
<text text-anchor="start" x="227.5" y="-1142.5" font-family="Helvetica,sans-Serif" font-size="10.00">+</text>
<text text-anchor="start" x="240.5" y="-1142.5" font-family="Helvetica,sans-Serif" font-size="10.00">UdpLogger()</text>
<text text-anchor="start" x="227.5" y="-1127.5" font-family="Helvetica,sans-Serif" font-size="10.00">+</text>
<text text-anchor="start" x="240.5" y="-1127.5" font-family="Helvetica,sans-Serif" font-size="10.00">operator=()</text>
<text text-anchor="start" x="227.5" y="-1112.5" font-family="Helvetica,sans-Serif" font-size="10.00">+</text>
<text text-anchor="start" x="240.5" y="-1112.5" font-family="Helvetica,sans-Serif" font-size="10.00">log()</text>
<text text-anchor="start" x="227.5" y="-1097.5" font-family="Helvetica,sans-Serif" font-size="10.00">+</text>
<text text-anchor="start" x="240.5" y="-1097.5" font-family="Helvetica,sans-Serif" font-size="10.00">cyclesCount()</text>
<text text-anchor="start" x="227.5" y="-1082.5" font-family="Helvetica,sans-Serif" font-size="10.00">+</text>
<text text-anchor="start" x="240.5" y="-1082.5" font-family="Helvetica,sans-Serif" font-size="10.00">droppedFramesCount()</text>
<text text-anchor="start" x="227.5" y="-1067.5" font-family="Helvetica,sans-Serif" font-size="10.00">+</text>
<text text-anchor="start" x="240.5" y="-1067.5" font-family="Helvetica,sans-Serif" font-size="10.00">start()</text>
<text text-anchor="start" x="227.5" y="-1052.5" font-family="Helvetica,sans-Serif" font-size="10.00">+</text>
<text text-anchor="start" x="240.5" y="-1052.5" font-family="Helvetica,sans-Serif" font-size="10.00">stop()</text>
<text text-anchor="start" x="230" y="-1037.5" font-family="Helvetica,sans-Serif" font-size="10.00">&#45;</text>
<text text-anchor="start" x="240.5" y="-1037.5" font-family="Helvetica,sans-Serif" font-size="10.00">writerLoop()</text>
<polygon fill="#666666" stroke="#666666" points="223.5,-1302.5 223.5,-1302.5 356.5,-1302.5 356.5,-1302.5 223.5,-1302.5"/>
<polygon fill="#666666" stroke="#666666" points="223.5,-1212.5 223.5,-1212.5 238.5,-1212.5 238.5,-1212.5 223.5,-1212.5"/>
<polygon fill="#666666" stroke="#666666" points="238.5,-1212.5 238.5,-1212.5 356.5,-1212.5 356.5,-1212.5 238.5,-1212.5"/>
<polygon fill="none" stroke="#666666" points="223,-1031 223,-1320 356,-1320 356,-1031 223,-1031"/>
</a>
</g>
</g>
<!-- Node8&#45;&gt;Node6 -->
<g id="edge17_Node000006_Node000008" class="edge">
<title>Node8&#45;&gt;Node6</title>
<g id="a_edge17_Node000006_Node000008"><a xlink:title=" ">
<path fill="none" stroke="#63b8ff" d="M247.28,-1030.69C236.74,-977.05 230.86,-915.68 240.5,-860 242.5,-848.47 245.06,-836.73 248.03,-825"/>
<polygon fill="none" stroke="#63b8ff" points="248.06,-824.87 245.73,-818.05 251.13,-813.27 253.46,-820.09 248.06,-824.87"/>
</a>
</g>
<text text-anchor="middle" x="277" y="-919.5" font-family="Helvetica,sans-Serif" font-size="10.00" fill="grey"> &#45;m_udpLogger</text>
</g>
<!-- Node8&#45;&gt;Node7 -->
<g id="edge10_Node000007_Node000008" class="edge">
<title>Node8&#45;&gt;Node7</title>
<g id="a_edge10_Node000007_Node000008"><a xlink:title=" ">
<path fill="none" stroke="#63b8ff" d="M295.75,-1030.69C298.82,-1020.7 302.68,-1011.03 307.5,-1002 309.65,-997.98 312.09,-994.08 314.77,-990.31"/>
<polygon fill="none" stroke="#63b8ff" points="314.95,-990.09 315.51,-982.9 322.37,-980.65 321.8,-987.84 314.95,-990.09"/>
</a>
</g>
<text text-anchor="middle" x="343" y="-1005" font-family="Helvetica,sans-Serif" font-size="10.00" fill="grey"> &#45;m_udplogger</text>
</g>
<!-- Node9&#45;&gt;Node6 -->
<g id="edge16_Node000006_Node000009" class="edge">
<title>Node9&#45;&gt;Node6</title>
<g id="a_edge16_Node000006_Node000009"><a xlink:title=" ">
<path fill="none" stroke="#63b8ff" d="M401.65,-1436.5C421.07,-1404.29 443.95,-1361.31 456.5,-1320 486.29,-1221.91 526.06,-956.52 491.5,-860 471.63,-804.52 430.39,-753.14 392.94,-714.74"/>
<polygon fill="none" stroke="#63b8ff" points="392.47,-714.27 385.41,-712.84 384.01,-705.76 391.08,-707.2 392.47,-714.27"/>
</a>
</g>
<text text-anchor="middle" x="530" y="-1005" font-family="Helvetica,sans-Serif" font-size="10.00" fill="grey"> &#45;m_logger</text>
</g>
<!-- Node9&#45;&gt;Node7 -->
<g id="edge13_Node000007_Node000009" class="edge">
<title>Node9&#45;&gt;Node7</title>
<g id="a_edge13_Node000007_Node000009"><a xlink:title=" ">
<path fill="none" stroke="#63b8ff" d="M376.39,-1434.7C377.19,-1428.74 377.92,-1422.75 378.5,-1417 393.51,-1268.25 399.21,-1093.32 401.31,-996.63"/>
<polygon fill="none" stroke="#63b8ff" points="401.32,-996.38 397.44,-990.29 401.57,-984.38 405.44,-990.46 401.32,-996.38"/>
</a>
</g>
<text text-anchor="middle" x="426" y="-1173" font-family="Helvetica,sans-Serif" font-size="10.00" fill="grey"> &#45;m_logger</text>
</g>
<!-- Node9&#45;&gt;Node8 -->
<g id="edge11_Node000008_Node000009" class="edge">
<title>Node9&#45;&gt;Node8</title>
<g id="a_edge11_Node000008_Node000009"><a xlink:title=" ">
<path fill="none" stroke="#63b8ff" d="M333.34,-1435.3C330.36,-1429.28 327.66,-1423.11 325.5,-1417 316.01,-1390.15 309.02,-1360.75 303.87,-1332.01"/>
<polygon fill="none" stroke="#63b8ff" points="303.87,-1332.01 298.91,-1326.77 301.85,-1320.18 306.8,-1325.42 303.87,-1332.01"/>
</a>
</g>
<text text-anchor="middle" x="352" y="-1375" font-family="Helvetica,sans-Serif" font-size="10.00" fill="grey"> &#45;m_logger</text>
</g>
<!-- Node10&#45;&gt;Node6 -->
<g id="edge14_Node000006_Node000010" class="edge">
<title>Node10&#45;&gt;Node6</title>
<g id="a_edge14_Node000006_Node000010"><a xlink:title=" ">
<path fill="none" stroke="#63b8ff" d="M122.69,-1337.86C108.48,-1269.53 84.25,-1123.13 106.5,-1002 121.19,-922.03 131.43,-901.75 171.5,-831 191.03,-796.51 216.71,-761.62 241.02,-731.62"/>
<polygon fill="none" stroke="#63b8ff" points="241.24,-731.34 241.95,-724.17 248.85,-722.06 248.14,-729.24 241.24,-731.34"/>
</a>
</g>
<text text-anchor="middle" x="143.5" y="-1005" font-family="Helvetica,sans-Serif" font-size="10.00" fill="grey"> &#45;m_fileSystem</text>
</g>
</g>
</svg>

<g id="navigator" transform="translate(0 0)" fill="#404254">
  <rect fill="#f2f5e9" fill-opacity="0.5" stroke="#606060" stroke-width=".5" x="0" y="0" width="60" height="60"/>
  <use id="zoomplus" xlink:href="#zoomPlus" x="17" y="9" onmousedown="handleZoom(evt,'in')"/>
  <use id="zoomminus" xlink:href="#zoomMin" x="42" y="9" onmousedown="handleZoom(evt,'out')"/>
  <use id="reset" xlink:href="#resetDef" x="30" y="36" onmousedown="handleReset()"/>
   <use id="arrowup" xlink:href="#arrowUp" x="0" y="0" onmousedown="handlePan(0,-1)"/>
  <use id="arrowright" xlink:href="#arrowRight" x="0" y="0" onmousedown="handlePan(1,0)"/>
  <use id="arrowdown" xlink:href="#arrowDown" x="0" y="0" onmousedown="handlePan(0,1)"/>
  <use id="arrowleft" xlink:href="#arrowLeft" x="0" y="0" onmousedown="handlePan(-1,0)"/>
</g>
<svg viewBox="0 0 15 15" width="100%" height="30px" preserveAspectRatio="xMaxYMin meet">
 <g id="arrow_out" transform="scale(0.3 0.3)">
  <a xlink:href="structPidTabDeps__coll__graph_org.svg" target="_base">
   <rect id="button" ry="5" rx="5" y="6" x="6" height="38" width="38"
        fill="#f2f5e9" fill-opacity="0.5" stroke="#606060" stroke-width="1.0"/>
   <path id="arrow"
     d="M 11.500037,31.436501 C 11.940474,20.09759 22.043105,11.32322 32.158766,21.979434 L 37.068811,17.246167 C 37.068811,17.246167 37.088388,32 37.088388,32 L 22.160133,31.978069 C 22.160133,31.978069 26.997745,27.140456 26.997745,27.140456 C 18.528582,18.264221 13.291696,25.230495 11.500037,31.436501 z"
     style="fill:#404040;"/>
  </a>
 </g>
</svg>

<style type='text/css'>
<![CDATA[
[data-mouse-over-selected='false'] { opacity: 0.7; }
[data-mouse-over-selected='true']  { opacity: 1.0; }
]]>
</style>
<script type="application/ecmascript"><![CDATA[
document.addEventListener('DOMContentLoaded', (event) => {
  highlightEdges();
  highlightAdjacentNodes();
});
]]></script>
</svg>
