<?xml version="1.0" encoding="UTF-8" standalone="no"?>
<!DOCTYPE svg PUBLIC "-//W3C//DTD SVG 1.1//EN"
 "http://www.w3.org/Graphics/SVG/1.1/DTD/svg11.dtd">
<!-- Generated by graphviz version 2.43.0 (0)
 -->
<!-- Title: features/test/frames/tank_pressure/TankPressureControlFrameWidget.cpp Pages: 1 -->
<svg width="872pt" height="236pt"
 viewBox="0.00 0.00 871.50 236.00" xmlns="http://www.w3.org/2000/svg" xmlns:xlink="http://www.w3.org/1999/xlink">
<g id="graph0" class="graph" transform="scale(1 1) rotate(0) translate(4 232)">
<title>features/test/frames/tank_pressure/TankPressureControlFrameWidget.cpp</title>
<!-- Node1 -->
<g id="Node000001" class="node">
<title>Node1</title>
<g id="a_Node000001"><a xlink:title=" ">
<polygon fill="#999999" stroke="#666666" points="338.5,-228 182.5,-228 182.5,-187 338.5,-187 338.5,-228"/>
<text text-anchor="start" x="190.5" y="-216" font-family="Helvetica,sans-Serif" font-size="10.00">features/test/frames</text>
<text text-anchor="start" x="190.5" y="-205" font-family="Helvetica,sans-Serif" font-size="10.00">/tank_pressure/TankPressure</text>
<text text-anchor="middle" x="260.5" y="-194" font-family="Helvetica,sans-Serif" font-size="10.00">ControlFrameWidget.cpp</text>
</a>
</g>
</g>
<!-- Node2 -->
<g id="Node000002" class="node">
<title>Node2</title>
<g id="a_Node000002"><a xlink:title=" ">
<polygon fill="#e0e0e0" stroke="#999999" points="83,-145.5 0,-145.5 0,-126.5 83,-126.5 83,-145.5"/>
<text text-anchor="middle" x="41.5" y="-133.5" font-family="Helvetica,sans-Serif" font-size="10.00">QVBoxLayout</text>
</a>
</g>
</g>
<!-- Node1&#45;&gt;Node2 -->
<g id="edge1_Node000001_Node000002" class="edge">
<title>Node1&#45;&gt;Node2</title>
<g id="a_edge1_Node000001_Node000002"><a xlink:title=" ">
<path fill="none" stroke="#63b8ff" d="M198.91,-186.96C159.93,-174.58 110.86,-159.01 77.96,-148.57"/>
<polygon fill="#63b8ff" stroke="#63b8ff" points="78.89,-145.19 68.3,-145.5 76.77,-151.86 78.89,-145.19"/>
</a>
</g>
</g>
<!-- Node3 -->
<g id="Node000003" class="node">
<title>Node3</title>
<g id="a_Node000003"><a xlink:href="TankPressureControlFrameWidget_8h.html" target="_top" xlink:title=" ">
<polygon fill="white" stroke="#666666" points="248,-151 101,-151 101,-121 248,-121 248,-151"/>
<text text-anchor="start" x="109" y="-139" font-family="Helvetica,sans-Serif" font-size="10.00">TankPressureControlFrame</text>
<text text-anchor="middle" x="174.5" y="-128" font-family="Helvetica,sans-Serif" font-size="10.00">Widget.h</text>
</a>
</g>
</g>
<!-- Node1&#45;&gt;Node3 -->
<g id="edge2_Node000001_Node000003" class="edge">
<title>Node1&#45;&gt;Node3</title>
<g id="a_edge2_Node000001_Node000003"><a xlink:title=" ">
<path fill="none" stroke="#63b8ff" d="M236.09,-186.77C224.74,-177.6 211.25,-166.7 199.79,-157.44"/>
<polygon fill="#63b8ff" stroke="#63b8ff" points="201.85,-154.6 191.87,-151.04 197.45,-160.05 201.85,-154.6"/>
</a>
</g>
</g>
<!-- Node7 -->
<g id="Node000007" class="node">
<title>Node7</title>
<g id="a_Node000007"><a xlink:href="TankPressureControlWidget_8h.html" target="_top" xlink:title=" ">
<polygon fill="white" stroke="#666666" points="426.5,-145.5 266.5,-145.5 266.5,-126.5 426.5,-126.5 426.5,-145.5"/>
<text text-anchor="middle" x="346.5" y="-133.5" font-family="Helvetica,sans-Serif" font-size="10.00">TankPressureControlWidget.h</text>
</a>
</g>
</g>
<!-- Node1&#45;&gt;Node7 -->
<g id="edge6_Node000001_Node000007" class="edge">
<title>Node1&#45;&gt;Node7</title>
<g id="a_edge6_Node000001_Node000007"><a xlink:title=" ">
<path fill="none" stroke="#63b8ff" d="M284.91,-186.77C298.47,-175.81 315.08,-162.39 327.63,-152.25"/>
<polygon fill="#63b8ff" stroke="#63b8ff" points="330.01,-154.83 335.59,-145.82 325.61,-149.38 330.01,-154.83"/>
</a>
</g>
</g>
<!-- Node11 -->
<g id="Node000011" class="node">
<title>Node11</title>
<g id="a_Node000011"><a xlink:href="TankPressureControlerViewModel_8h.html" target="_top" xlink:title=" ">
<polygon fill="white" stroke="#666666" points="603.5,-151 453.5,-151 453.5,-121 603.5,-121 603.5,-151"/>
<text text-anchor="start" x="461.5" y="-139" font-family="Helvetica,sans-Serif" font-size="10.00">TankPressureControlerView</text>
<text text-anchor="middle" x="528.5" y="-128" font-family="Helvetica,sans-Serif" font-size="10.00">Model.h</text>
</a>
</g>
</g>
<!-- Node1&#45;&gt;Node11 -->
<g id="edge12_Node000001_Node000011" class="edge">
<title>Node1&#45;&gt;Node11</title>
<g id="a_edge12_Node000001_Node000011"><a xlink:title=" ">
<path fill="none" stroke="#63b8ff" d="M335.87,-186.96C376.37,-176.45 425.78,-163.64 464.41,-153.62"/>
<polygon fill="#63b8ff" stroke="#63b8ff" points="465.7,-156.9 474.5,-151 463.94,-150.13 465.7,-156.9"/>
</a>
</g>
</g>
<!-- Node4 -->
<g id="Node000004" class="node">
<title>Node4</title>
<g id="a_Node000004"><a xlink:title=" ">
<polygon fill="#e0e0e0" stroke="#999999" points="214.5,-79.5 134.5,-79.5 134.5,-60.5 214.5,-60.5 214.5,-79.5"/>
<text text-anchor="middle" x="174.5" y="-67.5" font-family="Helvetica,sans-Serif" font-size="10.00">QPushButton</text>
</a>
</g>
</g>
<!-- Node3&#45;&gt;Node4 -->
<g id="edge3_Node000003_Node000004" class="edge">
<title>Node3&#45;&gt;Node4</title>
<g id="a_edge3_Node000003_Node000004"><a xlink:title=" ">
<path fill="none" stroke="#63b8ff" d="M174.5,-120.8C174.5,-111.7 174.5,-99.79 174.5,-89.9"/>
<polygon fill="#63b8ff" stroke="#63b8ff" points="178,-89.84 174.5,-79.84 171,-89.84 178,-89.84"/>
</a>
</g>
</g>
<!-- Node5 -->
<g id="Node000005" class="node">
<title>Node5</title>
<g id="a_Node000005"><a xlink:title=" ">
<polygon fill="#e0e0e0" stroke="#999999" points="282.5,-79.5 232.5,-79.5 232.5,-60.5 282.5,-60.5 282.5,-79.5"/>
<text text-anchor="middle" x="257.5" y="-67.5" font-family="Helvetica,sans-Serif" font-size="10.00">QLabel</text>
</a>
</g>
</g>
<!-- Node3&#45;&gt;Node5 -->
<g id="edge4_Node000003_Node000005" class="edge">
<title>Node3&#45;&gt;Node5</title>
<g id="a_edge4_Node000003_Node000005"><a xlink:title=" ">
<path fill="none" stroke="#63b8ff" d="M192.92,-120.8C206.24,-110.53 224.21,-96.67 237.81,-86.18"/>
<polygon fill="#63b8ff" stroke="#63b8ff" points="240.25,-88.72 246.03,-79.84 235.97,-83.18 240.25,-88.72"/>
</a>
</g>
</g>
<!-- Node6 -->
<g id="Node000006" class="node">
<title>Node6</title>
<g id="a_Node000006"><a xlink:title=" ">
<polygon fill="#e0e0e0" stroke="#999999" points="116,-79.5 33,-79.5 33,-60.5 116,-60.5 116,-79.5"/>
<text text-anchor="middle" x="74.5" y="-67.5" font-family="Helvetica,sans-Serif" font-size="10.00">QHBoxLayout</text>
</a>
</g>
</g>
<!-- Node3&#45;&gt;Node6 -->
<g id="edge5_Node000003_Node000006" class="edge">
<title>Node3&#45;&gt;Node6</title>
<g id="a_edge5_Node000003_Node000006"><a xlink:title=" ">
<path fill="none" stroke="#63b8ff" d="M152.31,-120.8C135.7,-110.17 113.1,-95.7 96.53,-85.1"/>
<polygon fill="#63b8ff" stroke="#63b8ff" points="98.34,-82.1 88.03,-79.66 94.56,-88 98.34,-82.1"/>
</a>
</g>
</g>
<!-- Node7&#45;&gt;Node4 -->
<g id="edge11_Node000007_Node000004" class="edge">
<title>Node7&#45;&gt;Node4</title>
<g id="a_edge11_Node000007_Node000004"><a xlink:title=" ">
<path fill="none" stroke="#63b8ff" d="M323.3,-126.37C293.34,-115.22 241.02,-95.75 207.08,-83.12"/>
<polygon fill="#63b8ff" stroke="#63b8ff" points="208.2,-79.8 197.6,-79.6 205.75,-86.36 208.2,-79.8"/>
</a>
</g>
</g>
<!-- Node7&#45;&gt;Node5 -->
<g id="edge9_Node000007_Node000005" class="edge">
<title>Node7&#45;&gt;Node5</title>
<g id="a_edge9_Node000007_Node000005"><a xlink:title=" ">
<path fill="none" stroke="#63b8ff" d="M334.5,-126.37C320.03,-115.97 295.49,-98.32 278.01,-85.75"/>
<polygon fill="#63b8ff" stroke="#63b8ff" points="279.76,-82.7 269.6,-79.7 275.67,-88.38 279.76,-82.7"/>
</a>
</g>
</g>
<!-- Node8 -->
<g id="Node000008" class="node">
<title>Node8</title>
<g id="a_Node000008"><a xlink:title=" ">
<polygon fill="#e0e0e0" stroke="#999999" points="371.5,-19 315.5,-19 315.5,0 371.5,0 371.5,-19"/>
<text text-anchor="middle" x="343.5" y="-7" font-family="Helvetica,sans-Serif" font-size="10.00">QObject</text>
</a>
</g>
</g>
<!-- Node7&#45;&gt;Node8 -->
<g id="edge7_Node000007_Node000008" class="edge">
<title>Node7&#45;&gt;Node8</title>
<g id="a_edge7_Node000007_Node000008"><a xlink:title=" ">
<path fill="none" stroke="#63b8ff" d="M342.59,-126.37C338.39,-116.58 331.98,-100.02 329.5,-85 327.32,-71.85 327.48,-68.18 329.5,-55 330.85,-46.19 333.63,-36.74 336.35,-28.82"/>
<polygon fill="#63b8ff" stroke="#63b8ff" points="339.73,-29.77 339.9,-19.18 333.16,-27.35 339.73,-29.77"/>
</a>
</g>
</g>
<!-- Node9 -->
<g id="Node000009" class="node">
<title>Node9</title>
<g id="a_Node000009"><a xlink:title=" ">
<polygon fill="#e0e0e0" stroke="#999999" points="384,-79.5 339,-79.5 339,-60.5 384,-60.5 384,-79.5"/>
<text text-anchor="middle" x="361.5" y="-67.5" font-family="Helvetica,sans-Serif" font-size="10.00">QFont</text>
</a>
</g>
</g>
<!-- Node7&#45;&gt;Node9 -->
<g id="edge8_Node000007_Node000009" class="edge">
<title>Node7&#45;&gt;Node9</title>
<g id="a_edge8_Node000007_Node000009"><a xlink:title=" ">
<path fill="none" stroke="#63b8ff" d="M348.52,-126.37C350.7,-117.07 354.24,-101.98 357.07,-89.9"/>
<polygon fill="#63b8ff" stroke="#63b8ff" points="360.54,-90.44 359.41,-79.91 353.72,-88.84 360.54,-90.44"/>
</a>
</g>
</g>
<!-- Node10 -->
<g id="Node000010" class="node">
<title>Node10</title>
<g id="a_Node000010"><a xlink:title=" ">
<polygon fill="#e0e0e0" stroke="#999999" points="500.5,-79.5 402.5,-79.5 402.5,-60.5 500.5,-60.5 500.5,-79.5"/>
<text text-anchor="middle" x="451.5" y="-67.5" font-family="Helvetica,sans-Serif" font-size="10.00">QDoubleSpinBox</text>
</a>
</g>
</g>
<!-- Node7&#45;&gt;Node10 -->
<g id="edge10_Node000007_Node000010" class="edge">
<title>Node7&#45;&gt;Node10</title>
<g id="a_edge10_Node000007_Node000010"><a xlink:title=" ">
<path fill="none" stroke="#63b8ff" d="M360.66,-126.37C378.04,-115.78 407.74,-97.67 428.43,-85.06"/>
<polygon fill="#63b8ff" stroke="#63b8ff" points="430.51,-87.89 437.23,-79.7 426.87,-81.92 430.51,-87.89"/>
</a>
</g>
</g>
<!-- Node11&#45;&gt;Node8 -->
<g id="edge13_Node000011_Node000008" class="edge">
<title>Node11&#45;&gt;Node8</title>
<g id="a_edge13_Node000011_Node000008"><a xlink:title=" ">
<path fill="none" stroke="#63b8ff" d="M529.23,-120.81C529.34,-103.02 526.71,-72.71 509.5,-55 504.96,-50.33 429.32,-31.31 381.73,-19.7"/>
<polygon fill="#63b8ff" stroke="#63b8ff" points="382.29,-16.24 371.75,-17.28 380.64,-23.04 382.29,-16.24"/>
</a>
</g>
</g>
<!-- Node12 -->
<g id="Node000012" class="node">
<title>Node12</title>
<g id="a_Node000012"><a xlink:href="Messages_8h.html" target="_top" xlink:title=" ">
<polygon fill="white" stroke="#666666" points="660,-85 557,-85 557,-55 660,-55 660,-85"/>
<text text-anchor="start" x="565" y="-73" font-family="Helvetica,sans-Serif" font-size="10.00">src/core/Protocols</text>
<text text-anchor="middle" x="608.5" y="-62" font-family="Helvetica,sans-Serif" font-size="10.00">/Messages.h</text>
</a>
</g>
</g>
<!-- Node11&#45;&gt;Node12 -->
<g id="edge14_Node000011_Node000012" class="edge">
<title>Node11&#45;&gt;Node12</title>
<g id="a_edge14_Node000011_Node000012"><a xlink:title=" ">
<path fill="none" stroke="#63b8ff" d="M546.25,-120.8C557.03,-112.18 570.95,-101.04 582.9,-91.48"/>
<polygon fill="#63b8ff" stroke="#63b8ff" points="585.17,-94.14 590.8,-85.16 580.8,-88.68 585.17,-94.14"/>
</a>
</g>
</g>
<!-- Node12&#45;&gt;Node8 -->
<g id="edge21_Node000012_Node000008" class="edge">
<title>Node12&#45;&gt;Node8</title>
<g id="a_edge21_Node000012_Node000008"><a xlink:title=" ">
<path fill="none" stroke="#63b8ff" d="M556.85,-57.83C512.88,-48.28 447.74,-34.05 381.92,-19.3"/>
<polygon fill="#63b8ff" stroke="#63b8ff" points="382.3,-15.8 371.78,-17.03 380.77,-22.63 382.3,-15.8"/>
</a>
</g>
</g>
<!-- Node13 -->
<g id="Node000013" class="node">
<title>Node13</title>
<g id="a_Node000013"><a xlink:title=" ">
<polygon fill="#e0e0e0" stroke="#999999" points="733,-19 682,-19 682,0 733,0 733,-19"/>
<text text-anchor="middle" x="707.5" y="-7" font-family="Helvetica,sans-Serif" font-size="10.00">variant</text>
</a>
</g>
</g>
<!-- Node12&#45;&gt;Node13 -->
<g id="edge15_Node000012_Node000013" class="edge">
<title>Node12&#45;&gt;Node13</title>
<g id="a_edge15_Node000012_Node000013"><a xlink:title=" ">
<path fill="none" stroke="#63b8ff" d="M632.21,-54.99C647.85,-45.75 668.24,-33.7 683.86,-24.47"/>
<polygon fill="#63b8ff" stroke="#63b8ff" points="686.05,-27.24 692.88,-19.14 682.49,-21.21 686.05,-27.24"/>
</a>
</g>
</g>
<!-- Node14 -->
<g id="Node000014" class="node">
<title>Node14</title>
<g id="a_Node000014"><a xlink:title=" ">
<polygon fill="#e0e0e0" stroke="#999999" points="801.5,-19 751.5,-19 751.5,0 801.5,0 801.5,-19"/>
<text text-anchor="middle" x="776.5" y="-7" font-family="Helvetica,sans-Serif" font-size="10.00">cstdint</text>
</a>
</g>
</g>
<!-- Node12&#45;&gt;Node14 -->
<g id="edge16_Node000012_Node000014" class="edge">
<title>Node12&#45;&gt;Node14</title>
<g id="a_edge16_Node000012_Node000014"><a xlink:title=" ">
<path fill="none" stroke="#63b8ff" d="M648.74,-54.99C677.27,-45.05 715.15,-31.86 742.23,-22.43"/>
<polygon fill="#63b8ff" stroke="#63b8ff" points="743.4,-25.73 751.69,-19.14 741.1,-19.12 743.4,-25.73"/>
</a>
</g>
</g>
<!-- Node15 -->
<g id="Node000015" class="node">
<title>Node15</title>
<g id="a_Node000015"><a xlink:title=" ">
<polygon fill="#e0e0e0" stroke="#999999" points="863.5,-19 819.5,-19 819.5,0 863.5,0 863.5,-19"/>
<text text-anchor="middle" x="841.5" y="-7" font-family="Helvetica,sans-Serif" font-size="10.00">string</text>
</a>
</g>
</g>
<!-- Node12&#45;&gt;Node15 -->
<g id="edge17_Node000012_Node000015" class="edge">
<title>Node12&#45;&gt;Node15</title>
<g id="a_edge17_Node000012_Node000015"><a xlink:title=" ">
<path fill="none" stroke="#63b8ff" d="M660.07,-56.61C698.7,-47.24 753.11,-33.87 809.38,-19.25"/>
<polygon fill="#63b8ff" stroke="#63b8ff" points="810.37,-22.61 819.17,-16.7 808.61,-15.83 810.37,-22.61"/>
</a>
</g>
</g>
<!-- Node16 -->
<g id="Node000016" class="node">
<title>Node16</title>
<g id="a_Node000016"><a xlink:title=" ">
<polygon fill="#e0e0e0" stroke="#999999" points="463,-19 390,-19 390,0 463,0 463,-19"/>
<text text-anchor="middle" x="426.5" y="-7" font-family="Helvetica,sans-Serif" font-size="10.00">QByteArray</text>
</a>
</g>
</g>
<!-- Node12&#45;&gt;Node16 -->
<g id="edge18_Node000012_Node000016" class="edge">
<title>Node12&#45;&gt;Node16</title>
<g id="a_edge18_Node000012_Node000016"><a xlink:title=" ">
<path fill="none" stroke="#63b8ff" d="M564.91,-54.99C533.77,-44.98 492.36,-31.67 462.97,-22.22"/>
<polygon fill="#63b8ff" stroke="#63b8ff" points="463.7,-18.78 453.11,-19.05 461.56,-25.45 463.7,-18.78"/>
</a>
</g>
</g>
<!-- Node17 -->
<g id="Node000017" class="node">
<title>Node17</title>
<g id="a_Node000017"><a xlink:title=" ">
<polygon fill="#e0e0e0" stroke="#999999" points="530,-19 481,-19 481,0 530,0 530,-19"/>
<text text-anchor="middle" x="505.5" y="-7" font-family="Helvetica,sans-Serif" font-size="10.00">QHash</text>
</a>
</g>
</g>
<!-- Node12&#45;&gt;Node17 -->
<g id="edge19_Node000012_Node000017" class="edge">
<title>Node12&#45;&gt;Node17</title>
<g id="a_edge19_Node000012_Node000017"><a xlink:title=" ">
<path fill="none" stroke="#63b8ff" d="M583.83,-54.99C567.41,-45.66 545.95,-33.47 529.64,-24.21"/>
<polygon fill="#63b8ff" stroke="#63b8ff" points="531.13,-21.03 520.71,-19.14 527.68,-27.12 531.13,-21.03"/>
</a>
</g>
</g>
<!-- Node18 -->
<g id="Node000018" class="node">
<title>Node18</title>
<g id="a_Node000018"><a xlink:title=" ">
<polygon fill="#e0e0e0" stroke="#999999" points="601,-19 548,-19 548,0 601,0 601,-19"/>
<text text-anchor="middle" x="574.5" y="-7" font-family="Helvetica,sans-Serif" font-size="10.00">QString</text>
</a>
</g>
</g>
<!-- Node12&#45;&gt;Node18 -->
<g id="edge20_Node000012_Node000018" class="edge">
<title>Node12&#45;&gt;Node18</title>
<g id="a_edge20_Node000012_Node000018"><a xlink:title=" ">
<path fill="none" stroke="#63b8ff" d="M600.27,-54.84C595.59,-46.78 589.68,-36.62 584.7,-28.06"/>
<polygon fill="#63b8ff" stroke="#63b8ff" points="587.65,-26.15 579.59,-19.27 581.59,-29.67 587.65,-26.15"/>
</a>
</g>
</g>
<!-- Node19 -->
<g id="Node000019" class="node">
<title>Node19</title>
<g id="a_Node000019"><a xlink:title=" ">
<polygon fill="#e0e0e0" stroke="#999999" points="664,-19 619,-19 619,0 664,0 664,-19"/>
<text text-anchor="middle" x="641.5" y="-7" font-family="Helvetica,sans-Serif" font-size="10.00">QMap</text>
</a>
</g>
</g>
<!-- Node12&#45;&gt;Node19 -->
<g id="edge22_Node000012_Node000019" class="edge">
<title>Node12&#45;&gt;Node19</title>
<g id="a_edge22_Node000012_Node000019"><a xlink:title=" ">
<path fill="none" stroke="#63b8ff" d="M616.49,-54.84C621.03,-46.78 626.77,-36.62 631.6,-28.06"/>
<polygon fill="#63b8ff" stroke="#63b8ff" points="634.69,-29.7 636.56,-19.27 628.59,-26.26 634.69,-29.7"/>
</a>
</g>
</g>
</g>
</svg>
