<?xml version="1.0" encoding="UTF-8" standalone="no"?>
<!DOCTYPE svg PUBLIC "-//W3C//DTD SVG 1.1//EN"
 "http://www.w3.org/Graphics/SVG/1.1/DTD/svg11.dtd">
<!-- Generated by graphviz version 2.43.0 (0)
 -->
<!-- Title: features/test/frames/tank_pressure/TankPressureControlerViewModel.cpp Pages: 1 -->
<svg width="1290pt" height="412pt"
 viewBox="0.00 0.00 1290.00 412.00" xmlns="http://www.w3.org/2000/svg" xmlns:xlink="http://www.w3.org/1999/xlink">
<g id="graph0" class="graph" transform="scale(1 1) rotate(0) translate(4 408)">
<title>features/test/frames/tank_pressure/TankPressureControlerViewModel.cpp</title>
<!-- Node1 -->
<g id="Node000001" class="node">
<title>Node1</title>
<g id="a_Node000001"><a xlink:title=" ">
<polygon fill="#999999" stroke="#666666" points="526,-404 370,-404 370,-363 526,-363 526,-404"/>
<text text-anchor="start" x="378" y="-392" font-family="Helvetica,sans-Serif" font-size="10.00">features/test/frames</text>
<text text-anchor="start" x="378" y="-381" font-family="Helvetica,sans-Serif" font-size="10.00">/tank_pressure/TankPressure</text>
<text text-anchor="middle" x="448" y="-370" font-family="Helvetica,sans-Serif" font-size="10.00">ControlerViewModel.cpp</text>
</a>
</g>
</g>
<!-- Node2 -->
<g id="Node000002" class="node">
<title>Node2</title>
<g id="a_Node000002"><a xlink:href="TankPressureControlerViewModel_8h.html" target="_top" xlink:title=" ">
<polygon fill="white" stroke="#666666" points="150,-151 0,-151 0,-121 150,-121 150,-151"/>
<text text-anchor="start" x="8" y="-139" font-family="Helvetica,sans-Serif" font-size="10.00">TankPressureControlerView</text>
<text text-anchor="middle" x="75" y="-128" font-family="Helvetica,sans-Serif" font-size="10.00">Model.h</text>
</a>
</g>
</g>
<!-- Node1&#45;&gt;Node2 -->
<g id="edge1_Node000001_Node000002" class="edge">
<title>Node1&#45;&gt;Node2</title>
<g id="a_edge1_Node000001_Node000002"><a xlink:title=" ">
<path fill="none" stroke="#63b8ff" d="M369.72,-379.65C318.18,-374.41 251.36,-360.89 202,-327 140.19,-284.55 100.43,-201.23 83.85,-160.52"/>
<polygon fill="#63b8ff" stroke="#63b8ff" points="87.07,-159.14 80.13,-151.14 80.56,-161.72 87.07,-159.14"/>
</a>
</g>
</g>
<!-- Node4 -->
<g id="Node000004" class="node">
<title>Node4</title>
<g id="a_Node000004"><a xlink:href="Messages_8h.html" target="_top" xlink:title=" ">
<polygon fill="white" stroke="#666666" points="582.5,-85 479.5,-85 479.5,-55 582.5,-55 582.5,-85"/>
<text text-anchor="start" x="487.5" y="-73" font-family="Helvetica,sans-Serif" font-size="10.00">src/core/Protocols</text>
<text text-anchor="middle" x="531" y="-62" font-family="Helvetica,sans-Serif" font-size="10.00">/Messages.h</text>
</a>
</g>
</g>
<!-- Node1&#45;&gt;Node4 -->
<g id="edge46_Node000001_Node000004" class="edge">
<title>Node1&#45;&gt;Node4</title>
<g id="a_edge46_Node000001_Node000004"><a xlink:title=" ">
<path fill="none" stroke="#63b8ff" d="M434.48,-362.93C427.85,-352.61 420.2,-339.53 415,-327 401.91,-295.44 396,-286.67 396,-252.5 396,-252.5 396,-252.5 396,-195.5 396,-145.03 447.63,-109.37 487.03,-89.5"/>
<polygon fill="#63b8ff" stroke="#63b8ff" points="488.77,-92.55 496.23,-85.03 485.71,-86.25 488.77,-92.55"/>
</a>
</g>
</g>
<!-- Node12 -->
<g id="Node000012" class="node">
<title>Node12</title>
<g id="a_Node000012"><a xlink:title=" ">
<polygon fill="#e0e0e0" stroke="#999999" points="1194,-145.5 1138,-145.5 1138,-126.5 1194,-126.5 1194,-145.5"/>
<text text-anchor="middle" x="1166" y="-133.5" font-family="Helvetica,sans-Serif" font-size="10.00">QDebug</text>
</a>
</g>
</g>
<!-- Node1&#45;&gt;Node12 -->
<g id="edge12_Node000001_Node000012" class="edge">
<title>Node1&#45;&gt;Node12</title>
<g id="a_edge12_Node000001_Node000012"><a xlink:title=" ">
<path fill="none" stroke="#63b8ff" d="M526.39,-368.91C645.82,-346.25 878.48,-294.29 1059,-206 1091.17,-190.27 1125.48,-166.81 1146.34,-151.71"/>
<polygon fill="#63b8ff" stroke="#63b8ff" points="1148.66,-154.34 1154.66,-145.6 1144.52,-148.69 1148.66,-154.34"/>
</a>
</g>
</g>
<!-- Node13 -->
<g id="Node000013" class="node">
<title>Node13</title>
<g id="a_Node000013"><a xlink:href="UdpChannel_8h.html" target="_top" xlink:title=" ">
<polygon fill="white" stroke="#666666" points="577.5,-327 424.5,-327 424.5,-297 577.5,-297 577.5,-327"/>
<text text-anchor="start" x="432.5" y="-315" font-family="Helvetica,sans-Serif" font-size="10.00">src/features/communication</text>
<text text-anchor="middle" x="501" y="-304" font-family="Helvetica,sans-Serif" font-size="10.00">/udp/UdpChannel.h</text>
</a>
</g>
</g>
<!-- Node1&#45;&gt;Node13 -->
<g id="edge13_Node000001_Node000013" class="edge">
<title>Node1&#45;&gt;Node13</title>
<g id="a_edge13_Node000001_Node000013"><a xlink:title=" ">
<path fill="none" stroke="#63b8ff" d="M463.05,-362.77C469.63,-354.13 477.39,-343.96 484.17,-335.08"/>
<polygon fill="#63b8ff" stroke="#63b8ff" points="487.01,-337.11 490.29,-327.04 481.45,-332.87 487.01,-337.11"/>
</a>
</g>
</g>
<!-- Node27 -->
<g id="Node000027" class="node">
<title>Node27</title>
<g id="a_Node000027"><a xlink:href="TestBenchModel_8h.html" target="_top" xlink:title=" ">
<polygon fill="white" stroke="#666666" points="367.5,-145.5 244.5,-145.5 244.5,-126.5 367.5,-126.5 367.5,-145.5"/>
<text text-anchor="middle" x="306" y="-133.5" font-family="Helvetica,sans-Serif" font-size="10.00">../../TestBenchModel.h</text>
</a>
</g>
</g>
<!-- Node1&#45;&gt;Node27 -->
<g id="edge39_Node000001_Node000027" class="edge">
<title>Node1&#45;&gt;Node27</title>
<g id="a_edge39_Node000001_Node000027"><a xlink:title=" ">
<path fill="none" stroke="#63b8ff" d="M418.84,-362.98C406.18,-353.35 392,-340.83 382,-327 341.8,-271.41 319,-191.58 310.23,-155.71"/>
<polygon fill="#63b8ff" stroke="#63b8ff" points="313.57,-154.62 307.87,-145.69 306.76,-156.23 313.57,-154.62"/>
</a>
</g>
</g>
<!-- Node28 -->
<g id="Node000028" class="node">
<title>Node28</title>
<g id="a_Node000028"><a xlink:href="PressureTanksModel_8h.html" target="_top" xlink:title=" ">
<polygon fill="white" stroke="#666666" points="369.5,-79.5 244.5,-79.5 244.5,-60.5 369.5,-60.5 369.5,-79.5"/>
<text text-anchor="middle" x="307" y="-67.5" font-family="Helvetica,sans-Serif" font-size="10.00">PressureTanksModel.h</text>
</a>
</g>
</g>
<!-- Node1&#45;&gt;Node28 -->
<g id="edge43_Node000001_Node000028" class="edge">
<title>Node1&#45;&gt;Node28</title>
<g id="a_edge43_Node000001_Node000028"><a xlink:title=" ">
<path fill="none" stroke="#63b8ff" d="M369.78,-371.53C302.43,-357.15 216,-324.64 216,-252.5 216,-252.5 216,-252.5 216,-195.5 216,-161.33 215.52,-149.07 235,-121 245.92,-105.26 263.51,-92.91 278.57,-84.42"/>
<polygon fill="#63b8ff" stroke="#63b8ff" points="280.36,-87.44 287.54,-79.64 277.07,-81.26 280.36,-87.44"/>
</a>
</g>
</g>
<!-- Node29 -->
<g id="Node000029" class="node">
<title>Node29</title>
<g id="a_Node000029"><a xlink:href="UdpCodec_8h.html" target="_top" xlink:title=" ">
<polygon fill="white" stroke="#666666" points="653.5,-151 500.5,-151 500.5,-121 653.5,-121 653.5,-151"/>
<text text-anchor="start" x="508.5" y="-139" font-family="Helvetica,sans-Serif" font-size="10.00">src/features/communication</text>
<text text-anchor="middle" x="577" y="-128" font-family="Helvetica,sans-Serif" font-size="10.00">/udp/codecs/UdpCodec.h</text>
</a>
</g>
</g>
<!-- Node1&#45;&gt;Node29 -->
<g id="edge47_Node000001_Node000029" class="edge">
<title>Node1&#45;&gt;Node29</title>
<g id="a_edge47_Node000001_Node000029"><a xlink:title=" ">
<path fill="none" stroke="#63b8ff" d="M522.66,-362.94C544.82,-354.52 567.96,-342.86 586,-327 611.26,-304.8 614.5,-293.54 623,-261 625.13,-252.83 625.67,-250.01 623,-242 616.68,-223.03 604.81,-223.96 596,-206 589.05,-191.83 584.32,-174.73 581.31,-161.1"/>
<polygon fill="#63b8ff" stroke="#63b8ff" points="584.69,-160.14 579.27,-151.03 577.83,-161.53 584.69,-160.14"/>
</a>
</g>
</g>
<!-- Node30 -->
<g id="Node000030" class="node">
<title>Node30</title>
<g id="a_Node000030"><a xlink:href="Timer_8h.html" target="_top" xlink:title=" ">
<polygon fill="white" stroke="#666666" points="1282,-327 1176,-327 1176,-297 1282,-297 1282,-327"/>
<text text-anchor="start" x="1184" y="-315" font-family="Helvetica,sans-Serif" font-size="10.00">src/services/Timer</text>
<text text-anchor="middle" x="1229" y="-304" font-family="Helvetica,sans-Serif" font-size="10.00">/Timer.h</text>
</a>
</g>
</g>
<!-- Node1&#45;&gt;Node30 -->
<g id="edge50_Node000001_Node000030" class="edge">
<title>Node1&#45;&gt;Node30</title>
<g id="a_edge50_Node000001_Node000030"><a xlink:title=" ">
<path fill="none" stroke="#63b8ff" d="M526.01,-379.72C657.68,-374.29 932.14,-359.81 1162,-327 1163.26,-326.82 1164.53,-326.63 1165.8,-326.43"/>
<polygon fill="#63b8ff" stroke="#63b8ff" points="1166.43,-329.88 1175.72,-324.78 1165.28,-322.97 1166.43,-329.88"/>
</a>
</g>
</g>
<!-- Node3 -->
<g id="Node000003" class="node">
<title>Node3</title>
<g id="a_Node000003"><a xlink:title=" ">
<polygon fill="#e0e0e0" stroke="#999999" points="244,-19 188,-19 188,0 244,0 244,-19"/>
<text text-anchor="middle" x="216" y="-7" font-family="Helvetica,sans-Serif" font-size="10.00">QObject</text>
</a>
</g>
</g>
<!-- Node2&#45;&gt;Node3 -->
<g id="edge2_Node000002_Node000003" class="edge">
<title>Node2&#45;&gt;Node3</title>
<g id="a_edge2_Node000002_Node000003"><a xlink:title=" ">
<path fill="none" stroke="#63b8ff" d="M90.65,-120.72C108.35,-104.63 138.07,-77.74 164,-55 175.17,-45.21 187.83,-34.37 197.86,-25.84"/>
<polygon fill="#63b8ff" stroke="#63b8ff" points="200.21,-28.43 205.58,-19.29 195.69,-23.09 200.21,-28.43"/>
</a>
</g>
</g>
<!-- Node2&#45;&gt;Node4 -->
<g id="edge3_Node000002_Node000004" class="edge">
<title>Node2&#45;&gt;Node4</title>
<g id="a_edge3_Node000002_Node000004"><a xlink:title=" ">
<path fill="none" stroke="#63b8ff" d="M150.04,-124.47C239.23,-111.95 386.38,-91.3 469.27,-79.66"/>
<polygon fill="#63b8ff" stroke="#63b8ff" points="469.88,-83.11 479.3,-78.26 468.91,-76.18 469.88,-83.11"/>
</a>
</g>
</g>
<!-- Node4&#45;&gt;Node3 -->
<g id="edge10_Node000004_Node000003" class="edge">
<title>Node4&#45;&gt;Node3</title>
<g id="a_edge10_Node000004_Node000003"><a xlink:title=" ">
<path fill="none" stroke="#63b8ff" d="M479.34,-59.41C416.08,-47.66 310.42,-28.03 254.09,-17.57"/>
<polygon fill="#63b8ff" stroke="#63b8ff" points="254.64,-14.12 244.17,-15.73 253.36,-21 254.64,-14.12"/>
</a>
</g>
</g>
<!-- Node5 -->
<g id="Node000005" class="node">
<title>Node5</title>
<g id="a_Node000005"><a xlink:title=" ">
<polygon fill="#e0e0e0" stroke="#999999" points="556.5,-19 505.5,-19 505.5,0 556.5,0 556.5,-19"/>
<text text-anchor="middle" x="531" y="-7" font-family="Helvetica,sans-Serif" font-size="10.00">variant</text>
</a>
</g>
</g>
<!-- Node4&#45;&gt;Node5 -->
<g id="edge4_Node000004_Node000005" class="edge">
<title>Node4&#45;&gt;Node5</title>
<g id="a_edge4_Node000004_Node000005"><a xlink:title=" ">
<path fill="none" stroke="#63b8ff" d="M531,-54.84C531,-47.21 531,-37.7 531,-29.45"/>
<polygon fill="#63b8ff" stroke="#63b8ff" points="534.5,-29.27 531,-19.27 527.5,-29.27 534.5,-29.27"/>
</a>
</g>
</g>
<!-- Node6 -->
<g id="Node000006" class="node">
<title>Node6</title>
<g id="a_Node000006"><a xlink:title=" ">
<polygon fill="#e0e0e0" stroke="#999999" points="932,-19 882,-19 882,0 932,0 932,-19"/>
<text text-anchor="middle" x="907" y="-7" font-family="Helvetica,sans-Serif" font-size="10.00">cstdint</text>
</a>
</g>
</g>
<!-- Node4&#45;&gt;Node6 -->
<g id="edge5_Node000004_Node000006" class="edge">
<title>Node4&#45;&gt;Node6</title>
<g id="a_edge5_Node000004_Node000006"><a xlink:title=" ">
<path fill="none" stroke="#63b8ff" d="M582.89,-60.93C660.53,-48.85 804.92,-26.38 871.58,-16.01"/>
<polygon fill="#63b8ff" stroke="#63b8ff" points="872.25,-19.45 881.59,-14.45 871.17,-12.53 872.25,-19.45"/>
</a>
</g>
</g>
<!-- Node7 -->
<g id="Node000007" class="node">
<title>Node7</title>
<g id="a_Node000007"><a xlink:title=" ">
<polygon fill="#e0e0e0" stroke="#999999" points="420,-19 376,-19 376,0 420,0 420,-19"/>
<text text-anchor="middle" x="398" y="-7" font-family="Helvetica,sans-Serif" font-size="10.00">string</text>
</a>
</g>
</g>
<!-- Node4&#45;&gt;Node7 -->
<g id="edge6_Node000004_Node000007" class="edge">
<title>Node4&#45;&gt;Node7</title>
<g id="a_edge6_Node000004_Node000007"><a xlink:title=" ">
<path fill="none" stroke="#63b8ff" d="M499.14,-54.99C477.15,-45.31 448.15,-32.56 426.84,-23.18"/>
<polygon fill="#63b8ff" stroke="#63b8ff" points="428.2,-19.96 417.64,-19.14 425.39,-26.37 428.2,-19.96"/>
</a>
</g>
</g>
<!-- Node8 -->
<g id="Node000008" class="node">
<title>Node8</title>
<g id="a_Node000008"><a xlink:title=" ">
<polygon fill="#e0e0e0" stroke="#999999" points="647.5,-19 574.5,-19 574.5,0 647.5,0 647.5,-19"/>
<text text-anchor="middle" x="611" y="-7" font-family="Helvetica,sans-Serif" font-size="10.00">QByteArray</text>
</a>
</g>
</g>
<!-- Node4&#45;&gt;Node8 -->
<g id="edge7_Node000004_Node000008" class="edge">
<title>Node4&#45;&gt;Node8</title>
<g id="a_edge7_Node000004_Node000008"><a xlink:title=" ">
<path fill="none" stroke="#63b8ff" d="M550.37,-54.84C562.57,-45.91 578.31,-34.41 590.69,-25.35"/>
<polygon fill="#63b8ff" stroke="#63b8ff" points="593.01,-27.99 599.01,-19.27 588.87,-22.34 593.01,-27.99"/>
</a>
</g>
</g>
<!-- Node9 -->
<g id="Node000009" class="node">
<title>Node9</title>
<g id="a_Node000009"><a xlink:title=" ">
<polygon fill="#e0e0e0" stroke="#999999" points="487.5,-19 438.5,-19 438.5,0 487.5,0 487.5,-19"/>
<text text-anchor="middle" x="463" y="-7" font-family="Helvetica,sans-Serif" font-size="10.00">QHash</text>
</a>
</g>
</g>
<!-- Node4&#45;&gt;Node9 -->
<g id="edge8_Node000004_Node000009" class="edge">
<title>Node4&#45;&gt;Node9</title>
<g id="a_edge8_Node000004_Node000009"><a xlink:title=" ">
<path fill="none" stroke="#63b8ff" d="M514.54,-54.84C504.37,-46.09 491.31,-34.85 480.88,-25.88"/>
<polygon fill="#63b8ff" stroke="#63b8ff" points="483.05,-23.13 473.19,-19.27 478.49,-28.44 483.05,-23.13"/>
</a>
</g>
</g>
<!-- Node10 -->
<g id="Node000010" class="node">
<title>Node10</title>
<g id="a_Node000010"><a xlink:title=" ">
<polygon fill="#e0e0e0" stroke="#999999" points="718.5,-19 665.5,-19 665.5,0 718.5,0 718.5,-19"/>
<text text-anchor="middle" x="692" y="-7" font-family="Helvetica,sans-Serif" font-size="10.00">QString</text>
</a>
</g>
</g>
<!-- Node4&#45;&gt;Node10 -->
<g id="edge9_Node000004_Node000010" class="edge">
<title>Node4&#45;&gt;Node10</title>
<g id="a_edge9_Node000004_Node000010"><a xlink:title=" ">
<path fill="none" stroke="#63b8ff" d="M569.56,-54.99C596.79,-45.1 632.88,-31.98 658.82,-22.56"/>
<polygon fill="#63b8ff" stroke="#63b8ff" points="660.02,-25.84 668.22,-19.14 657.63,-19.26 660.02,-25.84"/>
</a>
</g>
</g>
<!-- Node11 -->
<g id="Node000011" class="node">
<title>Node11</title>
<g id="a_Node000011"><a xlink:title=" ">
<polygon fill="#e0e0e0" stroke="#999999" points="343.5,-19 298.5,-19 298.5,0 343.5,0 343.5,-19"/>
<text text-anchor="middle" x="321" y="-7" font-family="Helvetica,sans-Serif" font-size="10.00">QMap</text>
</a>
</g>
</g>
<!-- Node4&#45;&gt;Node11 -->
<g id="edge11_Node000004_Node000011" class="edge">
<title>Node4&#45;&gt;Node11</title>
<g id="a_edge11_Node000004_Node000011"><a xlink:title=" ">
<path fill="none" stroke="#63b8ff" d="M480.7,-54.99C441.22,-43.99 387.43,-29.01 353.46,-19.54"/>
<polygon fill="#63b8ff" stroke="#63b8ff" points="354.16,-16.1 343.59,-16.79 352.28,-22.85 354.16,-16.1"/>
</a>
</g>
</g>
<!-- Node13&#45;&gt;Node3 -->
<g id="edge14_Node000013_Node000003" class="edge">
<title>Node13&#45;&gt;Node3</title>
<g id="a_edge14_Node000013_Node000003"><a xlink:title=" ">
<path fill="none" stroke="#63b8ff" d="M457.53,-296.93C397.91,-275.33 291.71,-228.2 235,-151 208.24,-114.57 210.09,-58.12 213.28,-29.11"/>
<polygon fill="#63b8ff" stroke="#63b8ff" points="216.76,-29.48 214.56,-19.11 209.82,-28.59 216.76,-29.48"/>
</a>
</g>
</g>
<!-- Node13&#45;&gt;Node4 -->
<g id="edge17_Node000013_Node000004" class="edge">
<title>Node13&#45;&gt;Node4</title>
<g id="a_edge17_Node000013_Node000004"><a xlink:title=" ">
<path fill="none" stroke="#63b8ff" d="M481.31,-296.72C470.75,-287.79 458.75,-275.29 453,-261 449.85,-253.17 451.72,-250.35 453,-242 461.54,-186.28 464.5,-170.75 491,-121 496.25,-111.14 503.55,-101.32 510.47,-93.02"/>
<polygon fill="#63b8ff" stroke="#63b8ff" points="513.27,-95.13 517.18,-85.29 507.98,-90.55 513.27,-95.13"/>
</a>
</g>
</g>
<!-- Node14 -->
<g id="Node000014" class="node">
<title>Node14</title>
<g id="a_Node000014"><a xlink:title=" ">
<polygon fill="#e0e0e0" stroke="#999999" points="520,-261 462,-261 462,-242 520,-242 520,-261"/>
<text text-anchor="middle" x="491" y="-249" font-family="Helvetica,sans-Serif" font-size="10.00">QThread</text>
</a>
</g>
</g>
<!-- Node13&#45;&gt;Node14 -->
<g id="edge15_Node000013_Node000014" class="edge">
<title>Node13&#45;&gt;Node14</title>
<g id="a_edge15_Node000013_Node000014"><a xlink:title=" ">
<path fill="none" stroke="#63b8ff" d="M498.58,-296.84C497.26,-289.13 495.61,-279.49 494.19,-271.17"/>
<polygon fill="#63b8ff" stroke="#63b8ff" points="497.63,-270.53 492.5,-261.27 490.73,-271.71 497.63,-270.53"/>
</a>
</g>
</g>
<!-- Node15 -->
<g id="Node000015" class="node">
<title>Node15</title>
<g id="a_Node000015"><a xlink:title=" ">
<polygon fill="#e0e0e0" stroke="#999999" points="614,-261 538,-261 538,-242 614,-242 614,-261"/>
<text text-anchor="middle" x="576" y="-249" font-family="Helvetica,sans-Serif" font-size="10.00">QUdpSocket</text>
</a>
</g>
</g>
<!-- Node13&#45;&gt;Node15 -->
<g id="edge16_Node000013_Node000015" class="edge">
<title>Node13&#45;&gt;Node15</title>
<g id="a_edge16_Node000013_Node000015"><a xlink:title=" ">
<path fill="none" stroke="#63b8ff" d="M519.16,-296.84C530.49,-288 545.06,-276.63 556.62,-267.62"/>
<polygon fill="#63b8ff" stroke="#63b8ff" points="559.03,-270.18 564.76,-261.27 554.72,-264.66 559.03,-270.18"/>
</a>
</g>
</g>
<!-- Node16 -->
<g id="Node000016" class="node">
<title>Node16</title>
<g id="a_Node000016"><a xlink:href="UdpLogger_8h.html" target="_top" xlink:title=" ">
<polygon fill="white" stroke="#666666" points="892.5,-261 741.5,-261 741.5,-242 892.5,-242 892.5,-261"/>
<text text-anchor="middle" x="817" y="-249" font-family="Helvetica,sans-Serif" font-size="10.00">frames_logger/UdpLogger.h</text>
</a>
</g>
</g>
<!-- Node13&#45;&gt;Node16 -->
<g id="edge18_Node000013_Node000016" class="edge">
<title>Node13&#45;&gt;Node16</title>
<g id="a_edge18_Node000013_Node000016"><a xlink:title=" ">
<path fill="none" stroke="#63b8ff" d="M576.69,-296.99C633.35,-286.5 709.6,-272.38 760.89,-262.89"/>
<polygon fill="#63b8ff" stroke="#63b8ff" points="761.6,-266.32 770.8,-261.05 760.33,-259.43 761.6,-266.32"/>
</a>
</g>
</g>
<!-- Node16&#45;&gt;Node6 -->
<g id="edge34_Node000016_Node000006" class="edge">
<title>Node16&#45;&gt;Node6</title>
<g id="a_edge34_Node000016_Node000006"><a xlink:title=" ">
<path fill="none" stroke="#63b8ff" d="M892.81,-243.95C934.43,-238.08 985.96,-226.98 1028,-206 1061.26,-189.41 1075.62,-184.84 1091,-151 1122.9,-80.81 1003.69,-36.92 941.91,-19.33"/>
<polygon fill="#63b8ff" stroke="#63b8ff" points="942.73,-15.93 932.16,-16.64 940.87,-22.67 942.73,-15.93"/>
</a>
</g>
</g>
<!-- Node17 -->
<g id="Node000017" class="node">
<title>Node17</title>
<g id="a_Node000017"><a xlink:href="RingBuffer_8h.html" target="_top" xlink:title=" ">
<polygon fill="white" stroke="#666666" points="995,-206 919,-206 919,-187 995,-187 995,-206"/>
<text text-anchor="middle" x="957" y="-194" font-family="Helvetica,sans-Serif" font-size="10.00">RingBuffer.h</text>
</a>
</g>
</g>
<!-- Node16&#45;&gt;Node17 -->
<g id="edge19_Node000016_Node000017" class="edge">
<title>Node16&#45;&gt;Node17</title>
<g id="a_edge19_Node000016_Node000017"><a xlink:title=" ">
<path fill="none" stroke="#63b8ff" d="M839.49,-241.98C862.52,-233.27 898.54,-219.63 924.63,-209.75"/>
<polygon fill="#63b8ff" stroke="#63b8ff" points="925.98,-212.98 934.1,-206.17 923.51,-206.44 925.98,-212.98"/>
</a>
</g>
</g>
<!-- Node19 -->
<g id="Node000019" class="node">
<title>Node19</title>
<g id="a_Node000019"><a xlink:title=" ">
<polygon fill="#e0e0e0" stroke="#999999" points="1082,-145.5 1032,-145.5 1032,-126.5 1082,-126.5 1082,-145.5"/>
<text text-anchor="middle" x="1057" y="-133.5" font-family="Helvetica,sans-Serif" font-size="10.00">atomic</text>
</a>
</g>
</g>
<!-- Node16&#45;&gt;Node19 -->
<g id="edge33_Node000016_Node000019" class="edge">
<title>Node16&#45;&gt;Node19</title>
<g id="a_edge33_Node000016_Node000019"><a xlink:title=" ">
<path fill="none" stroke="#63b8ff" d="M892.62,-244.31C928.63,-238.53 970.95,-227.41 1004,-206 1023.74,-193.22 1039.07,-170.46 1048.06,-154.59"/>
<polygon fill="#63b8ff" stroke="#63b8ff" points="1051.16,-156.22 1052.81,-145.75 1044.99,-152.9 1051.16,-156.22"/>
</a>
</g>
</g>
<!-- Node21 -->
<g id="Node000021" class="node">
<title>Node21</title>
<g id="a_Node000021"><a xlink:href="Logger_8h.html" target="_top" xlink:title=" ">
<polygon fill="white" stroke="#666666" points="782,-151 672,-151 672,-121 782,-121 782,-151"/>
<text text-anchor="start" x="680" y="-139" font-family="Helvetica,sans-Serif" font-size="10.00">src/services/Logger</text>
<text text-anchor="middle" x="727" y="-128" font-family="Helvetica,sans-Serif" font-size="10.00">/Logger.h</text>
</a>
</g>
</g>
<!-- Node16&#45;&gt;Node21 -->
<g id="edge38_Node000016_Node000021" class="edge">
<title>Node16&#45;&gt;Node21</title>
<g id="a_edge38_Node000016_Node000021"><a xlink:title=" ">
<path fill="none" stroke="#63b8ff" d="M816.22,-241.91C814.68,-228.92 810.24,-204 798,-187 789.21,-174.79 776.49,-164.5 764.23,-156.49"/>
<polygon fill="#63b8ff" stroke="#63b8ff" points="765.8,-153.35 755.45,-151.07 762.12,-159.3 765.8,-153.35"/>
</a>
</g>
</g>
<!-- Node23 -->
<g id="Node000023" class="node">
<title>Node23</title>
<g id="a_Node000023"><a xlink:href="Writer_8h.html" target="_top" xlink:title=" ">
<polygon fill="white" stroke="#666666" points="900.5,-206 845.5,-206 845.5,-187 900.5,-187 900.5,-206"/>
<text text-anchor="middle" x="873" y="-194" font-family="Helvetica,sans-Serif" font-size="10.00">Writer.h</text>
</a>
</g>
</g>
<!-- Node16&#45;&gt;Node23 -->
<g id="edge28_Node000016_Node000023" class="edge">
<title>Node16&#45;&gt;Node23</title>
<g id="a_edge28_Node000016_Node000023"><a xlink:title=" ">
<path fill="none" stroke="#63b8ff" d="M826,-241.98C834.19,-234.23 846.51,-222.58 856.47,-213.14"/>
<polygon fill="#63b8ff" stroke="#63b8ff" points="858.98,-215.59 863.84,-206.17 854.17,-210.5 858.98,-215.59"/>
</a>
</g>
</g>
<!-- Node24 -->
<g id="Node000024" class="node">
<title>Node24</title>
<g id="a_Node000024"><a xlink:title=" ">
<polygon fill="#e0e0e0" stroke="#999999" points="653,-206 605,-206 605,-187 653,-187 653,-206"/>
<text text-anchor="middle" x="629" y="-194" font-family="Helvetica,sans-Serif" font-size="10.00">thread</text>
</a>
</g>
</g>
<!-- Node16&#45;&gt;Node24 -->
<g id="edge35_Node000016_Node000024" class="edge">
<title>Node16&#45;&gt;Node24</title>
<g id="a_edge35_Node000016_Node000024"><a xlink:title=" ">
<path fill="none" stroke="#63b8ff" d="M786.79,-241.98C752.97,-232.45 698.29,-217.03 663,-207.09"/>
<polygon fill="#63b8ff" stroke="#63b8ff" points="663.73,-203.65 653.15,-204.31 661.83,-210.39 663.73,-203.65"/>
</a>
</g>
</g>
<!-- Node25 -->
<g id="Node000025" class="node">
<title>Node25</title>
<g id="a_Node000025"><a xlink:title=" ">
<polygon fill="#e0e0e0" stroke="#999999" points="721,-206 671,-206 671,-187 721,-187 721,-206"/>
<text text-anchor="middle" x="696" y="-194" font-family="Helvetica,sans-Serif" font-size="10.00">chrono</text>
</a>
</g>
</g>
<!-- Node16&#45;&gt;Node25 -->
<g id="edge36_Node000016_Node000025" class="edge">
<title>Node16&#45;&gt;Node25</title>
<g id="a_edge36_Node000016_Node000025"><a xlink:title=" ">
<path fill="none" stroke="#63b8ff" d="M797.56,-241.98C778.01,-233.42 747.62,-220.11 725.18,-210.28"/>
<polygon fill="#63b8ff" stroke="#63b8ff" points="726.36,-206.98 715.79,-206.17 723.55,-213.39 726.36,-206.98"/>
</a>
</g>
</g>
<!-- Node26 -->
<g id="Node000026" class="node">
<title>Node26</title>
<g id="a_Node000026"><a xlink:title=" ">
<polygon fill="#e0e0e0" stroke="#999999" points="789,-206 739,-206 739,-187 789,-187 789,-206"/>
<text text-anchor="middle" x="764" y="-194" font-family="Helvetica,sans-Serif" font-size="10.00">format</text>
</a>
</g>
</g>
<!-- Node16&#45;&gt;Node26 -->
<g id="edge37_Node000016_Node000026" class="edge">
<title>Node16&#45;&gt;Node26</title>
<g id="a_edge37_Node000016_Node000026"><a xlink:title=" ">
<path fill="none" stroke="#63b8ff" d="M808.25,-241.75C800.53,-234.03 789.1,-222.6 779.78,-213.28"/>
<polygon fill="#63b8ff" stroke="#63b8ff" points="782.14,-210.69 772.59,-206.09 777.19,-215.64 782.14,-210.69"/>
</a>
</g>
</g>
<!-- Node17&#45;&gt;Node6 -->
<g id="edge21_Node000017_Node000006" class="edge">
<title>Node17&#45;&gt;Node6</title>
<g id="a_edge21_Node000017_Node000006"><a xlink:title=" ">
<path fill="none" stroke="#63b8ff" d="M964.67,-186.7C971.52,-178.21 981.05,-164.68 985,-151 988.7,-138.19 989.03,-133.71 985,-121 972.89,-82.84 942.31,-46.49 923.23,-26.47"/>
<polygon fill="#63b8ff" stroke="#63b8ff" points="925.58,-23.86 916.08,-19.16 920.58,-28.76 925.58,-23.86"/>
</a>
</g>
</g>
<!-- Node17&#45;&gt;Node12 -->
<g id="edge20_Node000017_Node000012" class="edge">
<title>Node17&#45;&gt;Node12</title>
<g id="a_edge20_Node000017_Node000012"><a xlink:title=" ">
<path fill="none" stroke="#63b8ff" d="M987.39,-186.99C1024.65,-176.56 1087.81,-158.89 1128.17,-147.59"/>
<polygon fill="#63b8ff" stroke="#63b8ff" points="1129.23,-150.93 1137.92,-144.86 1127.34,-144.19 1129.23,-150.93"/>
</a>
</g>
</g>
<!-- Node18 -->
<g id="Node000018" class="node">
<title>Node18</title>
<g id="a_Node000018"><a xlink:title=" ">
<polygon fill="#e0e0e0" stroke="#999999" points="893.5,-145.5 838.5,-145.5 838.5,-126.5 893.5,-126.5 893.5,-145.5"/>
<text text-anchor="middle" x="866" y="-133.5" font-family="Helvetica,sans-Serif" font-size="10.00">fstream</text>
</a>
</g>
</g>
<!-- Node17&#45;&gt;Node18 -->
<g id="edge22_Node000017_Node000018" class="edge">
<title>Node17&#45;&gt;Node18</title>
<g id="a_edge22_Node000017_Node000018"><a xlink:title=" ">
<path fill="none" stroke="#63b8ff" d="M943.57,-186.87C928.92,-177.45 905.24,-162.23 887.9,-151.08"/>
<polygon fill="#63b8ff" stroke="#63b8ff" points="889.79,-148.13 879.48,-145.67 886,-154.02 889.79,-148.13"/>
</a>
</g>
</g>
<!-- Node17&#45;&gt;Node19 -->
<g id="edge23_Node000017_Node000019" class="edge">
<title>Node17&#45;&gt;Node19</title>
<g id="a_edge23_Node000017_Node000019"><a xlink:title=" ">
<path fill="none" stroke="#63b8ff" d="M971.76,-186.87C988,-177.36 1014.35,-161.95 1033.46,-150.77"/>
<polygon fill="#63b8ff" stroke="#63b8ff" points="1035.32,-153.74 1042.18,-145.67 1031.79,-147.7 1035.32,-153.74"/>
</a>
</g>
</g>
<!-- Node20 -->
<g id="Node000020" class="node">
<title>Node20</title>
<g id="a_Node000020"><a xlink:title=" ">
<polygon fill="#e0e0e0" stroke="#999999" points="976,-145.5 912,-145.5 912,-126.5 976,-126.5 976,-145.5"/>
<text text-anchor="middle" x="944" y="-133.5" font-family="Helvetica,sans-Serif" font-size="10.00">algorithm</text>
</a>
</g>
</g>
<!-- Node17&#45;&gt;Node20 -->
<g id="edge24_Node000017_Node000020" class="edge">
<title>Node17&#45;&gt;Node20</title>
<g id="a_edge24_Node000017_Node000020"><a xlink:title=" ">
<path fill="none" stroke="#63b8ff" d="M955.08,-186.87C953.26,-178.66 950.45,-166.04 948.12,-155.55"/>
<polygon fill="#63b8ff" stroke="#63b8ff" points="951.51,-154.67 945.93,-145.67 944.68,-156.19 951.51,-154.67"/>
</a>
</g>
</g>
<!-- Node17&#45;&gt;Node21 -->
<g id="edge25_Node000017_Node000021" class="edge">
<title>Node17&#45;&gt;Node21</title>
<g id="a_edge25_Node000017_Node000021"><a xlink:title=" ">
<path fill="none" stroke="#63b8ff" d="M923.56,-186.99C889.23,-178.26 834.92,-164.45 792.08,-153.55"/>
<polygon fill="#63b8ff" stroke="#63b8ff" points="792.85,-150.14 782.3,-151.06 791.12,-156.92 792.85,-150.14"/>
</a>
</g>
</g>
<!-- Node21&#45;&gt;Node4 -->
<g id="edge27_Node000021_Node000004" class="edge">
<title>Node21&#45;&gt;Node4</title>
<g id="a_edge27_Node000021_Node000004"><a xlink:title=" ">
<path fill="none" stroke="#63b8ff" d="M683.99,-120.95C654.5,-111.33 615.19,-98.49 583.8,-88.24"/>
<polygon fill="#63b8ff" stroke="#63b8ff" points="584.51,-84.79 573.91,-85.01 582.33,-91.44 584.51,-84.79"/>
</a>
</g>
</g>
<!-- Node22 -->
<g id="Node000022" class="node">
<title>Node22</title>
<g id="a_Node000022"><a xlink:title=" ">
<polygon fill="#e0e0e0" stroke="#999999" points="756.5,-79.5 697.5,-79.5 697.5,-60.5 756.5,-60.5 756.5,-79.5"/>
<text text-anchor="middle" x="727" y="-67.5" font-family="Helvetica,sans-Serif" font-size="10.00">QWidget</text>
</a>
</g>
</g>
<!-- Node21&#45;&gt;Node22 -->
<g id="edge26_Node000021_Node000022" class="edge">
<title>Node21&#45;&gt;Node22</title>
<g id="a_edge26_Node000021_Node000022"><a xlink:title=" ">
<path fill="none" stroke="#63b8ff" d="M727,-120.8C727,-111.7 727,-99.79 727,-89.9"/>
<polygon fill="#63b8ff" stroke="#63b8ff" points="730.5,-89.84 727,-79.84 723.5,-89.84 730.5,-89.84"/>
</a>
</g>
</g>
<!-- Node23&#45;&gt;Node6 -->
<g id="edge29_Node000023_Node000006" class="edge">
<title>Node23&#45;&gt;Node6</title>
<g id="a_edge29_Node000023_Node000006"><a xlink:title=" ">
<path fill="none" stroke="#63b8ff" d="M860.22,-187C849.61,-179.1 835.28,-166.27 829,-151 823.93,-138.67 824.97,-133.71 829,-121 841.11,-82.84 871.69,-46.49 890.77,-26.47"/>
<polygon fill="#63b8ff" stroke="#63b8ff" points="893.42,-28.76 897.92,-19.16 888.42,-23.86 893.42,-28.76"/>
</a>
</g>
</g>
<!-- Node23&#45;&gt;Node7 -->
<g id="edge31_Node000023_Node000007" class="edge">
<title>Node23&#45;&gt;Node7</title>
<g id="a_edge31_Node000023_Node000007"><a xlink:title=" ">
<path fill="none" stroke="#63b8ff" d="M845.38,-192.36C757.94,-182.41 492.9,-152.17 491,-151 443.96,-122.09 415.73,-59.44 404.14,-28.51"/>
<polygon fill="#63b8ff" stroke="#63b8ff" points="407.4,-27.24 400.74,-19 400.82,-29.6 407.4,-27.24"/>
</a>
</g>
</g>
<!-- Node23&#45;&gt;Node18 -->
<g id="edge30_Node000023_Node000018" class="edge">
<title>Node23&#45;&gt;Node18</title>
<g id="a_edge30_Node000023_Node000018"><a xlink:title=" ">
<path fill="none" stroke="#63b8ff" d="M871.97,-186.87C871,-178.75 869.51,-166.31 868.26,-155.89"/>
<polygon fill="#63b8ff" stroke="#63b8ff" points="871.7,-155.18 867.04,-145.67 864.75,-156.01 871.7,-155.18"/>
</a>
</g>
</g>
<!-- Node23&#45;&gt;Node21 -->
<g id="edge32_Node000023_Node000021" class="edge">
<title>Node23&#45;&gt;Node21</title>
<g id="a_edge32_Node000023_Node000021"><a xlink:title=" ">
<path fill="none" stroke="#63b8ff" d="M851.77,-186.99C830.85,-178.61 798.24,-165.55 771.61,-154.87"/>
<polygon fill="#63b8ff" stroke="#63b8ff" points="772.68,-151.53 762.1,-151.06 770.08,-158.03 772.68,-151.53"/>
</a>
</g>
</g>
<!-- Node27&#45;&gt;Node3 -->
<g id="edge40_Node000027_Node000003" class="edge">
<title>Node27&#45;&gt;Node3</title>
<g id="a_edge40_Node000027_Node000003"><a xlink:title=" ">
<path fill="none" stroke="#63b8ff" d="M287.13,-126.45C270.89,-118.14 248.09,-103.99 235,-85 223.54,-68.37 218.99,-45.38 217.18,-29.35"/>
<polygon fill="#63b8ff" stroke="#63b8ff" points="220.65,-28.76 216.3,-19.1 213.67,-29.37 220.65,-28.76"/>
</a>
</g>
</g>
<!-- Node27&#45;&gt;Node4 -->
<g id="edge42_Node000027_Node000004" class="edge">
<title>Node27&#45;&gt;Node4</title>
<g id="a_edge42_Node000027_Node000004"><a xlink:title=" ">
<path fill="none" stroke="#63b8ff" d="M336.34,-126.37C370.92,-116.54 428.24,-100.23 471.76,-87.85"/>
<polygon fill="#63b8ff" stroke="#63b8ff" points="472.71,-91.22 481.37,-85.12 470.8,-84.49 472.71,-91.22"/>
</a>
</g>
</g>
<!-- Node27&#45;&gt;Node7 -->
<g id="edge41_Node000027_Node000007" class="edge">
<title>Node27&#45;&gt;Node7</title>
<g id="a_edge41_Node000027_Node000007"><a xlink:title=" ">
<path fill="none" stroke="#63b8ff" d="M325.08,-126.48C341.5,-118.18 364.6,-104.04 378,-85 389.66,-68.43 394.52,-45.43 396.55,-29.38"/>
<polygon fill="#63b8ff" stroke="#63b8ff" points="400.06,-29.42 397.58,-19.12 393.1,-28.72 400.06,-29.42"/>
</a>
</g>
</g>
<!-- Node28&#45;&gt;Node3 -->
<g id="edge44_Node000028_Node000003" class="edge">
<title>Node28&#45;&gt;Node3</title>
<g id="a_edge44_Node000028_Node000003"><a xlink:title=" ">
<path fill="none" stroke="#63b8ff" d="M293.57,-60.37C278.92,-50.95 255.24,-35.73 237.9,-24.58"/>
<polygon fill="#63b8ff" stroke="#63b8ff" points="239.79,-21.63 229.48,-19.17 236,-27.52 239.79,-21.63"/>
</a>
</g>
</g>
<!-- Node28&#45;&gt;Node11 -->
<g id="edge45_Node000028_Node000011" class="edge">
<title>Node28&#45;&gt;Node11</title>
<g id="a_edge45_Node000028_Node000011"><a xlink:title=" ">
<path fill="none" stroke="#63b8ff" d="M309.07,-60.37C311.03,-52.16 314.05,-39.54 316.56,-29.05"/>
<polygon fill="#63b8ff" stroke="#63b8ff" points="320,-29.71 318.93,-19.17 313.19,-28.08 320,-29.71"/>
</a>
</g>
</g>
<!-- Node29&#45;&gt;Node4 -->
<g id="edge49_Node000029_Node000004" class="edge">
<title>Node29&#45;&gt;Node4</title>
<g id="a_edge49_Node000029_Node000004"><a xlink:title=" ">
<path fill="none" stroke="#63b8ff" d="M566.79,-120.8C561.01,-112.76 553.66,-102.53 547.12,-93.43"/>
<polygon fill="#63b8ff" stroke="#63b8ff" points="549.86,-91.24 541.18,-85.16 544.17,-95.33 549.86,-91.24"/>
</a>
</g>
</g>
<!-- Node29&#45;&gt;Node10 -->
<g id="edge48_Node000029_Node000010" class="edge">
<title>Node29&#45;&gt;Node10</title>
<g id="a_edge48_Node000029_Node000010"><a xlink:title=" ">
<path fill="none" stroke="#63b8ff" d="M590.19,-120.72C611.82,-97.31 654.66,-50.92 677.26,-26.46"/>
<polygon fill="#63b8ff" stroke="#63b8ff" points="679.87,-28.79 684.08,-19.07 674.73,-24.04 679.87,-28.79"/>
</a>
</g>
</g>
<!-- Node31 -->
<g id="Node000031" class="node">
<title>Node31</title>
<g id="a_Node000031"><a xlink:title=" ">
<polygon fill="#e0e0e0" stroke="#999999" points="1255.5,-261 1202.5,-261 1202.5,-242 1255.5,-242 1255.5,-261"/>
<text text-anchor="middle" x="1229" y="-249" font-family="Helvetica,sans-Serif" font-size="10.00">QTimer</text>
</a>
</g>
</g>
<!-- Node30&#45;&gt;Node31 -->
<g id="edge51_Node000030_Node000031" class="edge">
<title>Node30&#45;&gt;Node31</title>
<g id="a_edge51_Node000030_Node000031"><a xlink:title=" ">
<path fill="none" stroke="#63b8ff" d="M1229,-296.84C1229,-289.21 1229,-279.7 1229,-271.45"/>
<polygon fill="#63b8ff" stroke="#63b8ff" points="1232.5,-271.27 1229,-261.27 1225.5,-271.27 1232.5,-271.27"/>
</a>
</g>
</g>
</g>
</svg>
