<?xml version="1.0" encoding="UTF-8" standalone="no"?>
<!DOCTYPE svg PUBLIC "-//W3C//DTD SVG 1.1//EN"
 "http://www.w3.org/Graphics/SVG/1.1/DTD/svg11.dtd">
<!-- Generated by graphviz version 2.43.0 (0)
 -->
<!-- Title: features/test/frames/tank_pressure/pressure_setting_indicator/TankPressureSettingsIndicatorWidget.h Pages: 1 -->
<svg width="328pt" height="148pt"
 viewBox="0.00 0.00 327.50 148.00" xmlns="http://www.w3.org/2000/svg" xmlns:xlink="http://www.w3.org/1999/xlink">
<g id="graph0" class="graph" transform="scale(1 1) rotate(0) translate(4 144)">
<title>features/test/frames/tank_pressure/pressure_setting_indicator/TankPressureSettingsIndicatorWidget.h</title>
<!-- Node1 -->
<g id="Node000001" class="node">
<title>Node1</title>
<g id="a_Node000001"><a xlink:title=" ">
<polygon fill="#999999" stroke="#666666" points="234.5,-140 63.5,-140 63.5,-88 234.5,-88 234.5,-140"/>
<text text-anchor="start" x="71.5" y="-128" font-family="Helvetica,sans-Serif" font-size="10.00">features/test/frames</text>
<text text-anchor="start" x="71.5" y="-117" font-family="Helvetica,sans-Serif" font-size="10.00">/tank_pressure/pressure</text>
<text text-anchor="start" x="71.5" y="-106" font-family="Helvetica,sans-Serif" font-size="10.00">_setting_indicator/TankPressure</text>
<text text-anchor="middle" x="149" y="-95" font-family="Helvetica,sans-Serif" font-size="10.00">SettingsIndicatorWidget.h</text>
</a>
</g>
</g>
<!-- Node2 -->
<g id="Node000002" class="node">
<title>Node2</title>
<g id="a_Node000002"><a xlink:href="PidTab_8cpp.html" target="_top" xlink:title=" ">
<polygon fill="white" stroke="#666666" points="130,-35.5 0,-35.5 0,-16.5 130,-16.5 130,-35.5"/>
<text text-anchor="middle" x="65" y="-23.5" font-family="Helvetica,sans-Serif" font-size="10.00">features/pid/PidTab.cpp</text>
</a>
</g>
</g>
<!-- Node1&#45;&gt;Node2 -->
<g id="edge1_Node000001_Node000002" class="edge">
<title>Node1&#45;&gt;Node2</title>
<g id="a_edge1_Node000001_Node000002"><a xlink:title=" ">
<path fill="none" stroke="#63b8ff" d="M117.17,-80.42C101.38,-64.25 83.55,-45.99 73.35,-35.55"/>
<polygon fill="#63b8ff" stroke="#63b8ff" points="114.76,-82.95 124.25,-87.66 119.77,-78.06 114.76,-82.95"/>
</a>
</g>
</g>
<!-- Node3 -->
<g id="Node000003" class="node">
<title>Node3</title>
<g id="a_Node000003"><a xlink:href="TankPressureSettingsIndicatorWidget_8cpp.html" target="_top" xlink:title=" ">
<polygon fill="white" stroke="#666666" points="319.5,-52 148.5,-52 148.5,0 319.5,0 319.5,-52"/>
<text text-anchor="start" x="156.5" y="-40" font-family="Helvetica,sans-Serif" font-size="10.00">features/test/frames</text>
<text text-anchor="start" x="156.5" y="-29" font-family="Helvetica,sans-Serif" font-size="10.00">/tank_pressure/pressure</text>
<text text-anchor="start" x="156.5" y="-18" font-family="Helvetica,sans-Serif" font-size="10.00">_setting_indicator/TankPressure</text>
<text text-anchor="middle" x="234" y="-7" font-family="Helvetica,sans-Serif" font-size="10.00">SettingsIndicatorWidget.cpp</text>
</a>
</g>
</g>
<!-- Node1&#45;&gt;Node3 -->
<g id="edge2_Node000001_Node000003" class="edge">
<title>Node1&#45;&gt;Node3</title>
<g id="a_edge2_Node000001_Node000003"><a xlink:title=" ">
<path fill="none" stroke="#63b8ff" d="M181.27,-80.35C190.5,-71.01 200.42,-60.98 209.14,-52.16"/>
<polygon fill="#63b8ff" stroke="#63b8ff" points="178.58,-78.09 174.04,-87.66 183.56,-83.01 178.58,-78.09"/>
</a>
</g>
</g>
</g>
</svg>
