<?xml version="1.0" encoding="UTF-8" standalone="no"?>
<!DOCTYPE svg PUBLIC "-//W3C//DTD SVG 1.1//EN"
 "http://www.w3.org/Graphics/SVG/1.1/DTD/svg11.dtd">
<!-- Generated by graphviz version 2.43.0 (0)
 -->
<!-- Title: features/test/frames/tank_pressure/pressure_setting_indicator/TankPressureSettingsIndicatorWidget.h Pages: 1 -->
<svg width="332pt" height="115pt"
 viewBox="0.00 0.00 331.50 115.00" xmlns="http://www.w3.org/2000/svg" xmlns:xlink="http://www.w3.org/1999/xlink">
<g id="graph0" class="graph" transform="scale(1 1) rotate(0) translate(4 111)">
<title>features/test/frames/tank_pressure/pressure_setting_indicator/TankPressureSettingsIndicatorWidget.h</title>
<!-- Node1 -->
<g id="Node000001" class="node">
<title>Node1</title>
<g id="a_Node000001"><a xlink:title=" ">
<polygon fill="#999999" stroke="#666666" points="225,-107 54,-107 54,-55 225,-55 225,-107"/>
<text text-anchor="start" x="62" y="-95" font-family="Helvetica,sans-Serif" font-size="10.00">features/test/frames</text>
<text text-anchor="start" x="62" y="-84" font-family="Helvetica,sans-Serif" font-size="10.00">/tank_pressure/pressure</text>
<text text-anchor="start" x="62" y="-73" font-family="Helvetica,sans-Serif" font-size="10.00">_setting_indicator/TankPressure</text>
<text text-anchor="middle" x="139.5" y="-62" font-family="Helvetica,sans-Serif" font-size="10.00">SettingsIndicatorWidget.h</text>
</a>
</g>
</g>
<!-- Node2 -->
<g id="Node000002" class="node">
<title>Node2</title>
<g id="a_Node000002"><a xlink:title=" ">
<polygon fill="#e0e0e0" stroke="#999999" points="55,-19 0,-19 0,0 55,0 55,-19"/>
<text text-anchor="middle" x="27.5" y="-7" font-family="Helvetica,sans-Serif" font-size="10.00">QFrame</text>
</a>
</g>
</g>
<!-- Node1&#45;&gt;Node2 -->
<g id="edge1_Node000001_Node000002" class="edge">
<title>Node1&#45;&gt;Node2</title>
<g id="a_edge1_Node000001_Node000002"><a xlink:title=" ">
<path fill="none" stroke="#63b8ff" d="M99.07,-54.91C82.51,-44.64 63.99,-33.15 49.94,-24.43"/>
<polygon fill="#63b8ff" stroke="#63b8ff" points="51.76,-21.43 41.42,-19.14 48.07,-27.38 51.76,-21.43"/>
</a>
</g>
</g>
<!-- Node3 -->
<g id="Node000003" class="node">
<title>Node3</title>
<g id="a_Node000003"><a xlink:title=" ">
<polygon fill="#e0e0e0" stroke="#999999" points="123.5,-19 73.5,-19 73.5,0 123.5,0 123.5,-19"/>
<text text-anchor="middle" x="98.5" y="-7" font-family="Helvetica,sans-Serif" font-size="10.00">QLabel</text>
</a>
</g>
</g>
<!-- Node1&#45;&gt;Node3 -->
<g id="edge2_Node000001_Node000003" class="edge">
<title>Node1&#45;&gt;Node3</title>
<g id="a_edge2_Node000001_Node000003"><a xlink:title=" ">
<path fill="none" stroke="#63b8ff" d="M124.7,-54.91C119.42,-45.97 113.6,-36.1 108.79,-27.94"/>
<polygon fill="#63b8ff" stroke="#63b8ff" points="111.79,-26.14 103.69,-19.3 105.76,-29.69 111.79,-26.14"/>
</a>
</g>
</g>
<!-- Node4 -->
<g id="Node000004" class="node">
<title>Node4</title>
<g id="a_Node000004"><a xlink:title=" ">
<polygon fill="#e0e0e0" stroke="#999999" points="221.5,-19 141.5,-19 141.5,0 221.5,0 221.5,-19"/>
<text text-anchor="middle" x="181.5" y="-7" font-family="Helvetica,sans-Serif" font-size="10.00">QPushButton</text>
</a>
</g>
</g>
<!-- Node1&#45;&gt;Node4 -->
<g id="edge3_Node000001_Node000004" class="edge">
<title>Node1&#45;&gt;Node4</title>
<g id="a_edge3_Node000001_Node000004"><a xlink:title=" ">
<path fill="none" stroke="#63b8ff" d="M154.66,-54.91C160.07,-45.97 166.03,-36.1 170.96,-27.94"/>
<polygon fill="#63b8ff" stroke="#63b8ff" points="174,-29.67 176.18,-19.3 168.01,-26.05 174,-29.67"/>
</a>
</g>
</g>
<!-- Node5 -->
<g id="Node000005" class="node">
<title>Node5</title>
<g id="a_Node000005"><a xlink:title=" ">
<polygon fill="#e0e0e0" stroke="#999999" points="323.5,-19 239.5,-19 239.5,0 323.5,0 323.5,-19"/>
<text text-anchor="middle" x="281.5" y="-7" font-family="Helvetica,sans-Serif" font-size="10.00">QTableWidget</text>
</a>
</g>
</g>
<!-- Node1&#45;&gt;Node5 -->
<g id="edge4_Node000001_Node000005" class="edge">
<title>Node1&#45;&gt;Node5</title>
<g id="a_edge4_Node000001_Node000005"><a xlink:title=" ">
<path fill="none" stroke="#63b8ff" d="M190.77,-54.91C212.35,-44.35 236.57,-32.49 254.56,-23.68"/>
<polygon fill="#63b8ff" stroke="#63b8ff" points="256.41,-26.68 263.86,-19.14 253.34,-20.39 256.41,-26.68"/>
</a>
</g>
</g>
</g>
</svg>
