<?xml version="1.0" encoding="UTF-8" standalone="no"?>
<!DOCTYPE svg PUBLIC "-//W3C//DTD SVG 1.1//EN"
 "http://www.w3.org/Graphics/SVG/1.1/DTD/svg11.dtd">
<!-- Generated by graphviz version 2.43.0 (0)
 -->
<!-- Title: features/test/frames/tank_pressure/pressure_setting_indicator/TankPressureSettingsIndicatorViewModel.h Pages: 1 -->
<svg width="931pt" height="148pt"
 viewBox="0.00 0.00 931.00 148.00" xmlns="http://www.w3.org/2000/svg" xmlns:xlink="http://www.w3.org/1999/xlink">
<g id="graph0" class="graph" transform="scale(1 1) rotate(0) translate(4 144)">
<title>features/test/frames/tank_pressure/pressure_setting_indicator/TankPressureSettingsIndicatorViewModel.h</title>
<!-- Node1 -->
<g id="Node000001" class="node">
<title>Node1</title>
<g id="a_Node000001"><a xlink:title=" ">
<polygon fill="#999999" stroke="#666666" points="502.5,-140 331.5,-140 331.5,-88 502.5,-88 502.5,-140"/>
<text text-anchor="start" x="339.5" y="-128" font-family="Helvetica,sans-Serif" font-size="10.00">features/test/frames</text>
<text text-anchor="start" x="339.5" y="-117" font-family="Helvetica,sans-Serif" font-size="10.00">/tank_pressure/pressure</text>
<text text-anchor="start" x="339.5" y="-106" font-family="Helvetica,sans-Serif" font-size="10.00">_setting_indicator/TankPressure</text>
<text text-anchor="middle" x="417" y="-95" font-family="Helvetica,sans-Serif" font-size="10.00">SettingsIndicatorViewModel.h</text>
</a>
</g>
</g>
<!-- Node2 -->
<g id="Node000002" class="node">
<title>Node2</title>
<g id="a_Node000002"><a xlink:href="PidTab_8cpp.html" target="_top" xlink:title=" ">
<polygon fill="white" stroke="#666666" points="130,-35.5 0,-35.5 0,-16.5 130,-16.5 130,-35.5"/>
<text text-anchor="middle" x="65" y="-23.5" font-family="Helvetica,sans-Serif" font-size="10.00">features/pid/PidTab.cpp</text>
</a>
</g>
</g>
<!-- Node1&#45;&gt;Node2 -->
<g id="edge1_Node000001_Node000002" class="edge">
<title>Node1&#45;&gt;Node2</title>
<g id="a_edge1_Node000001_Node000002"><a xlink:title=" ">
<path fill="none" stroke="#63b8ff" d="M321.34,-94.71C267.43,-83.73 199.06,-68.68 139,-52 121.75,-47.21 102.62,-40.71 88.13,-35.54"/>
<polygon fill="#63b8ff" stroke="#63b8ff" points="320.74,-98.16 331.23,-96.72 322.13,-91.3 320.74,-98.16"/>
</a>
</g>
</g>
<!-- Node3 -->
<g id="Node000003" class="node">
<title>Node3</title>
<g id="a_Node000003"><a xlink:href="PidTabFactory_8cpp.html" target="_top" xlink:title=" ">
<polygon fill="white" stroke="#666666" points="312,-35.5 148,-35.5 148,-16.5 312,-16.5 312,-35.5"/>
<text text-anchor="middle" x="230" y="-23.5" font-family="Helvetica,sans-Serif" font-size="10.00">features/pid/PidTabFactory.cpp</text>
</a>
</g>
</g>
<!-- Node1&#45;&gt;Node3 -->
<g id="edge2_Node000001_Node000003" class="edge">
<title>Node1&#45;&gt;Node3</title>
<g id="a_edge2_Node000001_Node000003"><a xlink:title=" ">
<path fill="none" stroke="#63b8ff" d="M353.24,-83.68C316.51,-66.79 272.95,-46.75 248.7,-35.6"/>
<polygon fill="#63b8ff" stroke="#63b8ff" points="351.86,-86.9 362.41,-87.89 354.79,-80.54 351.86,-86.9"/>
</a>
</g>
</g>
<!-- Node4 -->
<g id="Node000004" class="node">
<title>Node4</title>
<g id="a_Node000004"><a xlink:href="TankPressureSettingsIndicatorViewModel_8cpp.html" target="_top" xlink:title=" ">
<polygon fill="white" stroke="#666666" points="503.5,-52 330.5,-52 330.5,0 503.5,0 503.5,-52"/>
<text text-anchor="start" x="338.5" y="-40" font-family="Helvetica,sans-Serif" font-size="10.00">features/test/frames</text>
<text text-anchor="start" x="338.5" y="-29" font-family="Helvetica,sans-Serif" font-size="10.00">/tank_pressure/pressure</text>
<text text-anchor="start" x="338.5" y="-18" font-family="Helvetica,sans-Serif" font-size="10.00">_setting_indicator/TankPressure</text>
<text text-anchor="middle" x="417" y="-7" font-family="Helvetica,sans-Serif" font-size="10.00">SettingsIndicatorViewModel.cpp</text>
</a>
</g>
</g>
<!-- Node1&#45;&gt;Node4 -->
<g id="edge3_Node000001_Node000004" class="edge">
<title>Node1&#45;&gt;Node4</title>
<g id="a_edge3_Node000001_Node000004"><a xlink:title=" ">
<path fill="none" stroke="#63b8ff" d="M417,-77.56C417,-69.04 417,-60.1 417,-52.16"/>
<polygon fill="#63b8ff" stroke="#63b8ff" points="413.5,-77.66 417,-87.66 420.5,-77.66 413.5,-77.66"/>
</a>
</g>
</g>
<!-- Node5 -->
<g id="Node000005" class="node">
<title>Node5</title>
<g id="a_Node000005"><a xlink:href="TankPressureSettingsIndicatorWidget_8cpp.html" target="_top" xlink:title=" ">
<polygon fill="white" stroke="#666666" points="692.5,-52 521.5,-52 521.5,0 692.5,0 692.5,-52"/>
<text text-anchor="start" x="529.5" y="-40" font-family="Helvetica,sans-Serif" font-size="10.00">features/test/frames</text>
<text text-anchor="start" x="529.5" y="-29" font-family="Helvetica,sans-Serif" font-size="10.00">/tank_pressure/pressure</text>
<text text-anchor="start" x="529.5" y="-18" font-family="Helvetica,sans-Serif" font-size="10.00">_setting_indicator/TankPressure</text>
<text text-anchor="middle" x="607" y="-7" font-family="Helvetica,sans-Serif" font-size="10.00">SettingsIndicatorWidget.cpp</text>
</a>
</g>
</g>
<!-- Node1&#45;&gt;Node5 -->
<g id="edge4_Node000001_Node000005" class="edge">
<title>Node1&#45;&gt;Node5</title>
<g id="a_edge4_Node000001_Node000005"><a xlink:title=" ">
<path fill="none" stroke="#63b8ff" d="M481.68,-83.73C504.35,-73.46 529.6,-62.03 551.46,-52.14"/>
<polygon fill="#63b8ff" stroke="#63b8ff" points="480.13,-80.58 472.47,-87.89 483.02,-86.96 480.13,-80.58"/>
</a>
</g>
</g>
<!-- Node6 -->
<g id="Node000006" class="node">
<title>Node6</title>
<g id="a_Node000006"><a xlink:href="AppViewModels_8cpp.html" target="_top" xlink:title=" ">
<polygon fill="white" stroke="#666666" points="923,-35.5 711,-35.5 711,-16.5 923,-16.5 923,-35.5"/>
<text text-anchor="middle" x="817" y="-23.5" font-family="Helvetica,sans-Serif" font-size="10.00">mvvm/viewmodels/AppViewModels.cpp</text>
</a>
</g>
</g>
<!-- Node1&#45;&gt;Node6 -->
<g id="edge5_Node000001_Node000006" class="edge">
<title>Node1&#45;&gt;Node6</title>
<g id="a_edge5_Node000001_Node000006"><a xlink:title=" ">
<path fill="none" stroke="#63b8ff" d="M512.55,-92.63C567.9,-80.81 638.89,-65.61 702,-52 727.26,-46.55 755.64,-40.38 777.88,-35.54"/>
<polygon fill="#63b8ff" stroke="#63b8ff" points="511.8,-89.21 502.76,-94.72 513.27,-96.05 511.8,-89.21"/>
</a>
</g>
</g>
</g>
</svg>
