<?xml version="1.0" encoding="UTF-8" standalone="no"?>
<!DOCTYPE svg PUBLIC "-//W3C//DTD SVG 1.1//EN"
 "http://www.w3.org/Graphics/SVG/1.1/DTD/svg11.dtd">
<!-- Generated by graphviz version 2.43.0 (0)
 -->
<!-- Title: features/test/frames/test_launcher/TestLaunchWidget.cpp Pages: 1 -->
<svg width="1175pt" height="214pt"
 viewBox="0.00 0.00 1175.00 214.00" xmlns="http://www.w3.org/2000/svg" xmlns:xlink="http://www.w3.org/1999/xlink">
<g id="graph0" class="graph" transform="scale(1 1) rotate(0) translate(4 210)">
<title>features/test/frames/test_launcher/TestLaunchWidget.cpp</title>
<!-- Node1 -->
<g id="Node000001" class="node">
<title>Node1</title>
<g id="a_Node000001"><a xlink:title=" ">
<polygon fill="#999999" stroke="#666666" points="412,-206 215,-206 215,-176 412,-176 412,-206"/>
<text text-anchor="start" x="223" y="-194" font-family="Helvetica,sans-Serif" font-size="10.00">features/test/frames</text>
<text text-anchor="middle" x="313.5" y="-183" font-family="Helvetica,sans-Serif" font-size="10.00">/test_launcher/TestLaunchWidget.cpp</text>
</a>
</g>
</g>
<!-- Node2 -->
<g id="Node000002" class="node">
<title>Node2</title>
<g id="a_Node000002"><a xlink:title=" ">
<polygon fill="#e0e0e0" stroke="#999999" points="83,-140 0,-140 0,-121 83,-121 83,-140"/>
<text text-anchor="middle" x="41.5" y="-128" font-family="Helvetica,sans-Serif" font-size="10.00">QVBoxLayout</text>
</a>
</g>
</g>
<!-- Node1&#45;&gt;Node2 -->
<g id="edge1_Node000001_Node000002" class="edge">
<title>Node1&#45;&gt;Node2</title>
<g id="a_edge1_Node000001_Node000002"><a xlink:title=" ">
<path fill="none" stroke="#63b8ff" d="M248.35,-175.99C200.09,-165.61 135.31,-151.68 91.19,-142.19"/>
<polygon fill="#63b8ff" stroke="#63b8ff" points="91.78,-138.73 81.27,-140.05 90.31,-145.58 91.78,-138.73"/>
</a>
</g>
</g>
<!-- Node3 -->
<g id="Node000003" class="node">
<title>Node3</title>
<g id="a_Node000003"><a xlink:title=" ">
<polygon fill="#e0e0e0" stroke="#999999" points="187.5,-140 101.5,-140 101.5,-121 187.5,-121 187.5,-140"/>
<text text-anchor="middle" x="144.5" y="-128" font-family="Helvetica,sans-Serif" font-size="10.00">QMessageBox</text>
</a>
</g>
</g>
<!-- Node1&#45;&gt;Node3 -->
<g id="edge2_Node000001_Node000003" class="edge">
<title>Node1&#45;&gt;Node3</title>
<g id="a_edge2_Node000001_Node000003"><a xlink:title=" ">
<path fill="none" stroke="#63b8ff" d="M273.02,-175.99C244.32,-166.05 206.22,-152.86 178.97,-143.43"/>
<polygon fill="#63b8ff" stroke="#63b8ff" points="180.05,-140.1 169.46,-140.14 177.76,-146.72 180.05,-140.1"/>
</a>
</g>
</g>
<!-- Node4 -->
<g id="Node000004" class="node">
<title>Node4</title>
<g id="a_Node000004"><a xlink:title=" ">
<polygon fill="#e0e0e0" stroke="#999999" points="259,-140 206,-140 206,-121 259,-121 259,-140"/>
<text text-anchor="middle" x="232.5" y="-128" font-family="Helvetica,sans-Serif" font-size="10.00">QTimer</text>
</a>
</g>
</g>
<!-- Node1&#45;&gt;Node4 -->
<g id="edge3_Node000001_Node000004" class="edge">
<title>Node1&#45;&gt;Node4</title>
<g id="a_edge3_Node000001_Node000004"><a xlink:title=" ">
<path fill="none" stroke="#63b8ff" d="M293.89,-175.84C281.53,-166.91 265.6,-155.41 253.07,-146.35"/>
<polygon fill="#63b8ff" stroke="#63b8ff" points="254.79,-143.28 244.64,-140.27 250.7,-148.96 254.79,-143.28"/>
</a>
</g>
</g>
<!-- Node5 -->
<g id="Node000005" class="node">
<title>Node5</title>
<g id="a_Node000005"><a xlink:title=" ">
<polygon fill="#e0e0e0" stroke="#999999" points="350,-140 277,-140 277,-121 350,-121 350,-140"/>
<text text-anchor="middle" x="313.5" y="-128" font-family="Helvetica,sans-Serif" font-size="10.00">QFileDialog</text>
</a>
</g>
</g>
<!-- Node1&#45;&gt;Node5 -->
<g id="edge4_Node000001_Node000005" class="edge">
<title>Node1&#45;&gt;Node5</title>
<g id="a_edge4_Node000001_Node000005"><a xlink:title=" ">
<path fill="none" stroke="#63b8ff" d="M313.5,-175.84C313.5,-168.21 313.5,-158.7 313.5,-150.45"/>
<polygon fill="#63b8ff" stroke="#63b8ff" points="317,-150.27 313.5,-140.27 310,-150.27 317,-150.27"/>
</a>
</g>
</g>
<!-- Node6 -->
<g id="Node000006" class="node">
<title>Node6</title>
<g id="a_Node000006"><a xlink:title=" ">
<polygon fill="#e0e0e0" stroke="#999999" points="424.5,-140 368.5,-140 368.5,-121 424.5,-121 424.5,-140"/>
<text text-anchor="middle" x="396.5" y="-128" font-family="Helvetica,sans-Serif" font-size="10.00">QDebug</text>
</a>
</g>
</g>
<!-- Node1&#45;&gt;Node6 -->
<g id="edge5_Node000001_Node000006" class="edge">
<title>Node1&#45;&gt;Node6</title>
<g id="a_edge5_Node000001_Node000006"><a xlink:title=" ">
<path fill="none" stroke="#63b8ff" d="M333.59,-175.84C346.38,-166.83 362.9,-155.18 375.8,-146.09"/>
<polygon fill="#63b8ff" stroke="#63b8ff" points="377.91,-148.89 384.06,-140.27 373.87,-143.17 377.91,-148.89"/>
</a>
</g>
</g>
<!-- Node7 -->
<g id="Node000007" class="node">
<title>Node7</title>
<g id="a_Node000007"><a xlink:href="TestLaunchWidget_8h.html" target="_top" xlink:title=" ">
<polygon fill="white" stroke="#666666" points="556.5,-140 442.5,-140 442.5,-121 556.5,-121 556.5,-140"/>
<text text-anchor="middle" x="499.5" y="-128" font-family="Helvetica,sans-Serif" font-size="10.00">TestLaunchWidget.h</text>
</a>
</g>
</g>
<!-- Node1&#45;&gt;Node7 -->
<g id="edge6_Node000001_Node000007" class="edge">
<title>Node1&#45;&gt;Node7</title>
<g id="a_edge6_Node000001_Node000007"><a xlink:title=" ">
<path fill="none" stroke="#63b8ff" d="M358.05,-175.99C390.01,-165.94 432.56,-152.55 462.62,-143.1"/>
<polygon fill="#63b8ff" stroke="#63b8ff" points="463.81,-146.39 472.3,-140.05 461.71,-139.72 463.81,-146.39"/>
</a>
</g>
</g>
<!-- Node14 -->
<g id="Node000014" class="node">
<title>Node14</title>
<g id="a_Node000014"><a xlink:href="TestLauncherViewModel_8h.html" target="_top" xlink:title=" ">
<polygon fill="white" stroke="#666666" points="829,-140 686,-140 686,-121 829,-121 829,-140"/>
<text text-anchor="middle" x="757.5" y="-128" font-family="Helvetica,sans-Serif" font-size="10.00">TestLauncherViewModel.h</text>
</a>
</g>
</g>
<!-- Node1&#45;&gt;Node14 -->
<g id="edge13_Node000001_Node000014" class="edge">
<title>Node1&#45;&gt;Node14</title>
<g id="a_edge13_Node000001_Node000014"><a xlink:title=" ">
<path fill="none" stroke="#63b8ff" d="M412.04,-177.02C493.78,-166.25 608.26,-151.16 682.65,-141.36"/>
<polygon fill="#63b8ff" stroke="#63b8ff" points="683.41,-144.79 692.87,-140.02 682.5,-137.85 683.41,-144.79"/>
</a>
</g>
</g>
<!-- Node8 -->
<g id="Node000008" class="node">
<title>Node8</title>
<g id="a_Node000008"><a xlink:title=" ">
<polygon fill="#e0e0e0" stroke="#999999" points="288.5,-79.5 238.5,-79.5 238.5,-60.5 288.5,-60.5 288.5,-79.5"/>
<text text-anchor="middle" x="263.5" y="-67.5" font-family="Helvetica,sans-Serif" font-size="10.00">QLabel</text>
</a>
</g>
</g>
<!-- Node7&#45;&gt;Node8 -->
<g id="edge7_Node000007_Node000008" class="edge">
<title>Node7&#45;&gt;Node8</title>
<g id="a_edge7_Node000007_Node000008"><a xlink:title=" ">
<path fill="none" stroke="#63b8ff" d="M449.48,-120.99C408.21,-113.37 348.39,-100.95 297.5,-85 295.82,-84.47 294.12,-83.9 292.4,-83.3"/>
<polygon fill="#63b8ff" stroke="#63b8ff" points="293.29,-79.89 282.7,-79.59 290.8,-86.43 293.29,-79.89"/>
</a>
</g>
</g>
<!-- Node9 -->
<g id="Node000009" class="node">
<title>Node9</title>
<g id="a_Node000009"><a xlink:title=" ">
<polygon fill="#e0e0e0" stroke="#999999" points="386.5,-79.5 306.5,-79.5 306.5,-60.5 386.5,-60.5 386.5,-79.5"/>
<text text-anchor="middle" x="346.5" y="-67.5" font-family="Helvetica,sans-Serif" font-size="10.00">QPushButton</text>
</a>
</g>
</g>
<!-- Node7&#45;&gt;Node9 -->
<g id="edge8_Node000007_Node000009" class="edge">
<title>Node7&#45;&gt;Node9</title>
<g id="a_edge8_Node000007_Node000009"><a xlink:title=" ">
<path fill="none" stroke="#63b8ff" d="M477.25,-120.99C451.19,-111.03 407.82,-94.45 378.23,-83.13"/>
<polygon fill="#63b8ff" stroke="#63b8ff" points="379.36,-79.82 368.77,-79.52 376.86,-86.36 379.36,-79.82"/>
</a>
</g>
</g>
<!-- Node10 -->
<g id="Node000010" class="node">
<title>Node10</title>
<g id="a_Node000010"><a xlink:title=" ">
<polygon fill="#e0e0e0" stroke="#999999" points="442.5,-79.5 404.5,-79.5 404.5,-60.5 442.5,-60.5 442.5,-79.5"/>
<text text-anchor="middle" x="423.5" y="-67.5" font-family="Helvetica,sans-Serif" font-size="10.00">QDir</text>
</a>
</g>
</g>
<!-- Node7&#45;&gt;Node10 -->
<g id="edge9_Node000007_Node000010" class="edge">
<title>Node7&#45;&gt;Node10</title>
<g id="a_edge9_Node000007_Node000010"><a xlink:title=" ">
<path fill="none" stroke="#63b8ff" d="M488.29,-120.87C476.39,-111.71 457.36,-97.06 442.99,-86.01"/>
<polygon fill="#63b8ff" stroke="#63b8ff" points="444.82,-82.99 434.76,-79.67 440.55,-88.54 444.82,-82.99"/>
</a>
</g>
</g>
<!-- Node11 -->
<g id="Node000011" class="node">
<title>Node11</title>
<g id="a_Node000011"><a xlink:title=" ">
<polygon fill="#e0e0e0" stroke="#999999" points="538,-79.5 461,-79.5 461,-60.5 538,-60.5 538,-79.5"/>
<text text-anchor="middle" x="499.5" y="-67.5" font-family="Helvetica,sans-Serif" font-size="10.00">QGridLayout</text>
</a>
</g>
</g>
<!-- Node7&#45;&gt;Node11 -->
<g id="edge10_Node000007_Node000011" class="edge">
<title>Node7&#45;&gt;Node11</title>
<g id="a_edge10_Node000007_Node000011"><a xlink:title=" ">
<path fill="none" stroke="#63b8ff" d="M499.5,-120.87C499.5,-112.75 499.5,-100.31 499.5,-89.89"/>
<polygon fill="#63b8ff" stroke="#63b8ff" points="503,-89.67 499.5,-79.67 496,-89.67 503,-89.67"/>
</a>
</g>
</g>
<!-- Node12 -->
<g id="Node000012" class="node">
<title>Node12</title>
<g id="a_Node000012"><a xlink:title=" ">
<polygon fill="#e0e0e0" stroke="#999999" points="663,-19 618,-19 618,0 663,0 663,-19"/>
<text text-anchor="middle" x="640.5" y="-7" font-family="Helvetica,sans-Serif" font-size="10.00">QMap</text>
</a>
</g>
</g>
<!-- Node7&#45;&gt;Node12 -->
<g id="edge11_Node000007_Node000012" class="edge">
<title>Node7&#45;&gt;Node12</title>
<g id="a_edge11_Node000007_Node000012"><a xlink:title=" ">
<path fill="none" stroke="#63b8ff" d="M509.21,-120.9C525.05,-106.92 557.48,-78.46 585.5,-55 597.39,-45.05 610.93,-34.09 621.6,-25.53"/>
<polygon fill="#63b8ff" stroke="#63b8ff" points="623.83,-28.23 629.45,-19.26 619.46,-22.77 623.83,-28.23"/>
</a>
</g>
</g>
<!-- Node13 -->
<g id="Node000013" class="node">
<title>Node13</title>
<g id="a_Node000013"><a xlink:title=" ">
<polygon fill="#e0e0e0" stroke="#999999" points="672,-79.5 595,-79.5 595,-60.5 672,-60.5 672,-79.5"/>
<text text-anchor="middle" x="633.5" y="-67.5" font-family="Helvetica,sans-Serif" font-size="10.00">QComboBox</text>
</a>
</g>
</g>
<!-- Node7&#45;&gt;Node13 -->
<g id="edge12_Node000007_Node000013" class="edge">
<title>Node7&#45;&gt;Node13</title>
<g id="a_edge12_Node000007_Node000013"><a xlink:title=" ">
<path fill="none" stroke="#63b8ff" d="M518.98,-120.99C541.51,-111.16 578.81,-94.88 604.69,-83.58"/>
<polygon fill="#63b8ff" stroke="#63b8ff" points="606.23,-86.73 613.99,-79.52 603.43,-80.31 606.23,-86.73"/>
</a>
</g>
</g>
<!-- Node14&#45;&gt;Node12 -->
<g id="edge14_Node000014_Node000012" class="edge">
<title>Node14&#45;&gt;Node12</title>
<g id="a_edge14_Node000014_Node000012"><a xlink:title=" ">
<path fill="none" stroke="#63b8ff" d="M749.09,-120.94C729.7,-101.23 681.64,-52.34 656.46,-26.73"/>
<polygon fill="#63b8ff" stroke="#63b8ff" points="658.66,-23.98 649.15,-19.3 653.67,-28.89 658.66,-23.98"/>
</a>
</g>
</g>
<!-- Node15 -->
<g id="Node000015" class="node">
<title>Node15</title>
<g id="a_Node000015"><a xlink:title=" ">
<polygon fill="#e0e0e0" stroke="#999999" points="734,-19 681,-19 681,0 734,0 734,-19"/>
<text text-anchor="middle" x="707.5" y="-7" font-family="Helvetica,sans-Serif" font-size="10.00">QString</text>
</a>
</g>
</g>
<!-- Node14&#45;&gt;Node15 -->
<g id="edge15_Node000014_Node000015" class="edge">
<title>Node14&#45;&gt;Node15</title>
<g id="a_edge15_Node000014_Node000015"><a xlink:title=" ">
<path fill="none" stroke="#63b8ff" d="M753.9,-120.94C745.84,-101.74 726.14,-54.86 715.18,-28.77"/>
<polygon fill="#63b8ff" stroke="#63b8ff" points="718.3,-27.17 711.2,-19.3 711.85,-29.88 718.3,-27.17"/>
</a>
</g>
</g>
<!-- Node16 -->
<g id="Node000016" class="node">
<title>Node16</title>
<g id="a_Node000016"><a xlink:title=" ">
<polygon fill="#e0e0e0" stroke="#999999" points="996.5,-79.5 926.5,-79.5 926.5,-60.5 996.5,-60.5 996.5,-79.5"/>
<text text-anchor="middle" x="961.5" y="-67.5" font-family="Helvetica,sans-Serif" font-size="10.00">QStringList</text>
</a>
</g>
</g>
<!-- Node14&#45;&gt;Node16 -->
<g id="edge16_Node000014_Node000016" class="edge">
<title>Node14&#45;&gt;Node16</title>
<g id="a_edge16_Node000014_Node000016"><a xlink:title=" ">
<path fill="none" stroke="#63b8ff" d="M788.95,-120.98C821.08,-112.22 872.38,-98.03 916.5,-85 919.13,-84.22 921.84,-83.41 924.57,-82.58"/>
<polygon fill="#63b8ff" stroke="#63b8ff" points="925.88,-85.84 934.41,-79.57 923.82,-79.15 925.88,-85.84"/>
</a>
</g>
</g>
<!-- Node17 -->
<g id="Node000017" class="node">
<title>Node17</title>
<g id="a_Node000017"><a xlink:title=" ">
<polygon fill="#e0e0e0" stroke="#999999" points="808.5,-19 752.5,-19 752.5,0 808.5,0 808.5,-19"/>
<text text-anchor="middle" x="780.5" y="-7" font-family="Helvetica,sans-Serif" font-size="10.00">QObject</text>
</a>
</g>
</g>
<!-- Node14&#45;&gt;Node17 -->
<g id="edge17_Node000014_Node000017" class="edge">
<title>Node14&#45;&gt;Node17</title>
<g id="a_edge17_Node000014_Node000017"><a xlink:title=" ">
<path fill="none" stroke="#63b8ff" d="M759.15,-120.94C762.85,-101.82 771.85,-55.27 776.9,-29.12"/>
<polygon fill="#63b8ff" stroke="#63b8ff" points="780.34,-29.78 778.8,-19.3 773.46,-28.46 780.34,-29.78"/>
</a>
</g>
</g>
<!-- Node18 -->
<g id="Node000018" class="node">
<title>Node18</title>
<g id="a_Node000018"><a xlink:href="Messages_8h.html" target="_top" xlink:title=" ">
<polygon fill="white" stroke="#666666" points="908,-85 805,-85 805,-55 908,-55 908,-85"/>
<text text-anchor="start" x="813" y="-73" font-family="Helvetica,sans-Serif" font-size="10.00">src/core/Protocols</text>
<text text-anchor="middle" x="856.5" y="-62" font-family="Helvetica,sans-Serif" font-size="10.00">/Messages.h</text>
</a>
</g>
</g>
<!-- Node14&#45;&gt;Node18 -->
<g id="edge18_Node000014_Node000018" class="edge">
<title>Node14&#45;&gt;Node18</title>
<g id="a_edge18_Node000014_Node000018"><a xlink:title=" ">
<path fill="none" stroke="#63b8ff" d="M772.11,-120.87C785.67,-112.86 806.33,-100.65 823.81,-90.31"/>
<polygon fill="#63b8ff" stroke="#63b8ff" points="825.79,-93.22 832.61,-85.11 822.22,-87.19 825.79,-93.22"/>
</a>
</g>
</g>
<!-- Node18&#45;&gt;Node12 -->
<g id="edge26_Node000018_Node000012" class="edge">
<title>Node18&#45;&gt;Node12</title>
<g id="a_edge26_Node000018_Node000012"><a xlink:title=" ">
<path fill="none" stroke="#63b8ff" d="M804.65,-55.04C769.88,-45.67 722.78,-32.95 673.14,-19.44"/>
<polygon fill="#63b8ff" stroke="#63b8ff" points="673.75,-15.98 663.18,-16.73 671.91,-22.73 673.75,-15.98"/>
</a>
</g>
</g>
<!-- Node18&#45;&gt;Node15 -->
<g id="edge24_Node000018_Node000015" class="edge">
<title>Node18&#45;&gt;Node15</title>
<g id="a_edge24_Node000018_Node000015"><a xlink:title=" ">
<path fill="none" stroke="#63b8ff" d="M820.81,-54.99C795.84,-45.18 762.8,-32.21 738.84,-22.81"/>
<polygon fill="#63b8ff" stroke="#63b8ff" points="740.09,-19.54 729.5,-19.14 737.53,-26.05 740.09,-19.54"/>
</a>
</g>
</g>
<!-- Node18&#45;&gt;Node17 -->
<g id="edge25_Node000018_Node000017" class="edge">
<title>Node18&#45;&gt;Node17</title>
<g id="a_edge25_Node000018_Node000017"><a xlink:title=" ">
<path fill="none" stroke="#63b8ff" d="M838.1,-54.84C826.62,-46 811.85,-34.63 800.14,-25.62"/>
<polygon fill="#63b8ff" stroke="#63b8ff" points="801.95,-22.59 791.89,-19.27 797.68,-28.14 801.95,-22.59"/>
</a>
</g>
</g>
<!-- Node19 -->
<g id="Node000019" class="node">
<title>Node19</title>
<g id="a_Node000019"><a xlink:title=" ">
<polygon fill="#e0e0e0" stroke="#999999" points="878,-19 827,-19 827,0 878,0 878,-19"/>
<text text-anchor="middle" x="852.5" y="-7" font-family="Helvetica,sans-Serif" font-size="10.00">variant</text>
</a>
</g>
</g>
<!-- Node18&#45;&gt;Node19 -->
<g id="edge19_Node000018_Node000019" class="edge">
<title>Node18&#45;&gt;Node19</title>
<g id="a_edge19_Node000018_Node000019"><a xlink:title=" ">
<path fill="none" stroke="#63b8ff" d="M855.53,-54.84C855.01,-47.21 854.36,-37.7 853.8,-29.45"/>
<polygon fill="#63b8ff" stroke="#63b8ff" points="857.27,-29 853.1,-19.27 850.29,-29.48 857.27,-29"/>
</a>
</g>
</g>
<!-- Node20 -->
<g id="Node000020" class="node">
<title>Node20</title>
<g id="a_Node000020"><a xlink:title=" ">
<polygon fill="#e0e0e0" stroke="#999999" points="946.5,-19 896.5,-19 896.5,0 946.5,0 946.5,-19"/>
<text text-anchor="middle" x="921.5" y="-7" font-family="Helvetica,sans-Serif" font-size="10.00">cstdint</text>
</a>
</g>
</g>
<!-- Node18&#45;&gt;Node20 -->
<g id="edge20_Node000018_Node000020" class="edge">
<title>Node18&#45;&gt;Node20</title>
<g id="a_edge20_Node000018_Node000020"><a xlink:title=" ">
<path fill="none" stroke="#63b8ff" d="M872.23,-54.84C881.86,-46.17 894.19,-35.08 904.11,-26.15"/>
<polygon fill="#63b8ff" stroke="#63b8ff" points="906.67,-28.56 911.76,-19.27 901.99,-23.35 906.67,-28.56"/>
</a>
</g>
</g>
<!-- Node21 -->
<g id="Node000021" class="node">
<title>Node21</title>
<g id="a_Node000021"><a xlink:title=" ">
<polygon fill="#e0e0e0" stroke="#999999" points="1008.5,-19 964.5,-19 964.5,0 1008.5,0 1008.5,-19"/>
<text text-anchor="middle" x="986.5" y="-7" font-family="Helvetica,sans-Serif" font-size="10.00">string</text>
</a>
</g>
</g>
<!-- Node18&#45;&gt;Node21 -->
<g id="edge21_Node000018_Node000021" class="edge">
<title>Node18&#45;&gt;Node21</title>
<g id="a_edge21_Node000018_Node000021"><a xlink:title=" ">
<path fill="none" stroke="#63b8ff" d="M887.64,-54.99C909.04,-45.36 937.23,-32.67 958.03,-23.31"/>
<polygon fill="#63b8ff" stroke="#63b8ff" points="959.62,-26.43 967.3,-19.14 956.75,-20.05 959.62,-26.43"/>
</a>
</g>
</g>
<!-- Node22 -->
<g id="Node000022" class="node">
<title>Node22</title>
<g id="a_Node000022"><a xlink:title=" ">
<polygon fill="#e0e0e0" stroke="#999999" points="1100,-19 1027,-19 1027,0 1100,0 1100,-19"/>
<text text-anchor="middle" x="1063.5" y="-7" font-family="Helvetica,sans-Serif" font-size="10.00">QByteArray</text>
</a>
</g>
</g>
<!-- Node18&#45;&gt;Node22 -->
<g id="edge22_Node000018_Node000022" class="edge">
<title>Node18&#45;&gt;Node22</title>
<g id="a_edge22_Node000018_Node000022"><a xlink:title=" ">
<path fill="none" stroke="#63b8ff" d="M906.08,-54.99C941.96,-44.85 989.83,-31.32 1023.33,-21.85"/>
<polygon fill="#63b8ff" stroke="#63b8ff" points="1024.56,-25.14 1033.23,-19.05 1022.66,-18.41 1024.56,-25.14"/>
</a>
</g>
</g>
<!-- Node23 -->
<g id="Node000023" class="node">
<title>Node23</title>
<g id="a_Node000023"><a xlink:title=" ">
<polygon fill="#e0e0e0" stroke="#999999" points="1167,-19 1118,-19 1118,0 1167,0 1167,-19"/>
<text text-anchor="middle" x="1142.5" y="-7" font-family="Helvetica,sans-Serif" font-size="10.00">QHash</text>
</a>
</g>
</g>
<!-- Node18&#45;&gt;Node23 -->
<g id="edge23_Node000018_Node000023" class="edge">
<title>Node18&#45;&gt;Node23</title>
<g id="a_edge23_Node000018_Node000023"><a xlink:title=" ">
<path fill="none" stroke="#63b8ff" d="M908.05,-57.01C911.25,-56.32 914.42,-55.64 917.5,-55 999.42,-37.93 1023.06,-37.82 1107.87,-19.25"/>
<polygon fill="#63b8ff" stroke="#63b8ff" points="1108.67,-22.66 1117.68,-17.08 1107.16,-15.83 1108.67,-22.66"/>
</a>
</g>
</g>
</g>
</svg>
