<?xml version="1.0" encoding="UTF-8" standalone="no"?>
<!DOCTYPE svg PUBLIC "-//W3C//DTD SVG 1.1//EN"
 "http://www.w3.org/Graphics/SVG/1.1/DTD/svg11.dtd">
<!-- Generated by graphviz version 2.43.0 (0)
 -->
<!-- Title: makeTestTab Pages: 1 -->
<svg width="460pt" height="46pt"
 viewBox="0.00 0.00 460.00 46.00" xmlns="http://www.w3.org/2000/svg" xmlns:xlink="http://www.w3.org/1999/xlink">
<g id="graph0" class="graph" transform="scale(1 1) rotate(0) translate(4 42)">
<title>makeTestTab</title>
<!-- Node1 -->
<g id="Node000001" class="node">
<title>Node1</title>
<g id="a_Node000001"><a xlink:title=" ">
<polygon fill="#999999" stroke="#666666" points="80,-38 0,-38 0,-19 80,-19 80,-38"/>
<text text-anchor="middle" x="40" y="-26" font-family="Helvetica,sans-Serif" font-size="10.00">makeTestTab</text>
</a>
</g>
</g>
<!-- Node2 -->
<g id="Node000002" class="node">
<title>Node2</title>
<g id="a_Node000002"><a xlink:href="classAppViewModel.html#accb3d3a0f4d4c93741dd4d72b319d748" target="_top" xlink:title=" ">
<polygon fill="white" stroke="#666666" points="452,-38 326,-38 326,-19 452,-19 452,-38"/>
<text text-anchor="middle" x="389" y="-26" font-family="Helvetica,sans-Serif" font-size="10.00">AppViewModel::create</text>
</a>
</g>
</g>
<!-- Node1&#45;&gt;Node2 -->
<g id="edge1_Node000001_Node000002" class="edge">
<title>Node1&#45;&gt;Node2</title>
<g id="a_edge1_Node000001_Node000002"><a xlink:title=" ">
<path fill="none" stroke="#63b8ff" d="M80.13,-28.5C137.15,-28.5 244.05,-28.5 315.64,-28.5"/>
<polygon fill="#63b8ff" stroke="#63b8ff" points="315.94,-32 325.94,-28.5 315.94,-25 315.94,-32"/>
</a>
</g>
</g>
<!-- Node3 -->
<g id="Node000003" class="node">
<title>Node3</title>
<g id="a_Node000003"><a xlink:href="TankPressureControlerFrameFactory_8cpp.html#a7dfd416596b7d62fee0cee4dfdaabd78" target="_top" xlink:title=" ">
<polygon fill="white" stroke="#666666" points="290,-19 116,-19 116,0 290,0 290,-19"/>
<text text-anchor="middle" x="203" y="-7" font-family="Helvetica,sans-Serif" font-size="10.00">makeTankPressureControlFrame</text>
</a>
</g>
</g>
<!-- Node1&#45;&gt;Node3 -->
<g id="edge2_Node000001_Node000003" class="edge">
<title>Node1&#45;&gt;Node3</title>
<g id="a_edge2_Node000001_Node000003"><a xlink:title=" ">
<path fill="none" stroke="#63b8ff" d="M80.39,-23.85C89.94,-22.72 100.54,-21.47 111.4,-20.19"/>
<polygon fill="#63b8ff" stroke="#63b8ff" points="111.89,-23.66 121.41,-19.01 111.07,-16.71 111.89,-23.66"/>
</a>
</g>
</g>
<!-- Node3&#45;&gt;Node2 -->
<g id="edge3_Node000003_Node000002" class="edge">
<title>Node3&#45;&gt;Node2</title>
<g id="a_edge3_Node000003_Node000002"><a xlink:title=" ">
<path fill="none" stroke="#63b8ff" d="M290.07,-18.39C298.65,-19.27 307.3,-20.17 315.71,-21.04"/>
<polygon fill="#63b8ff" stroke="#63b8ff" points="315.54,-24.54 325.85,-22.08 316.26,-17.57 315.54,-24.54"/>
</a>
</g>
</g>
</g>
</svg>
