<?xml version="1.0" encoding="UTF-8" standalone="no"?>
<!DOCTYPE svg PUBLIC "-//W3C//DTD SVG 1.1//EN"
 "http://www.w3.org/Graphics/SVG/1.1/DTD/svg11.dtd">
<!-- Generated by graphviz version 2.43.0 (0)
 -->
<!-- Title: features/test/TestBenchModel.h Pages: 1 -->
<svg width="1867pt" height="104pt"
 viewBox="0.00 0.00 1866.50 104.00" xmlns="http://www.w3.org/2000/svg" xmlns:xlink="http://www.w3.org/1999/xlink">
<g id="graph0" class="graph" transform="scale(1 1) rotate(0) translate(4 100)">
<title>features/test/TestBenchModel.h</title>
<!-- Node1 -->
<g id="Node000001" class="node">
<title>Node1</title>
<g id="a_Node000001"><a xlink:title=" ">
<polygon fill="#999999" stroke="#666666" points="1000.5,-96 830.5,-96 830.5,-77 1000.5,-77 1000.5,-96"/>
<text text-anchor="middle" x="915.5" y="-84" font-family="Helvetica,sans-Serif" font-size="10.00">features/test/TestBenchModel.h</text>
</a>
</g>
</g>
<!-- Node2 -->
<g id="Node000002" class="node">
<title>Node2</title>
<g id="a_Node000002"><a xlink:href="PlotViewModel_8cpp.html" target="_top" xlink:title=" ">
<polygon fill="white" stroke="#666666" points="123,-35.5 0,-35.5 0,-5.5 123,-5.5 123,-35.5"/>
<text text-anchor="start" x="8" y="-23.5" font-family="Helvetica,sans-Serif" font-size="10.00">features/graphics/plot</text>
<text text-anchor="middle" x="61.5" y="-12.5" font-family="Helvetica,sans-Serif" font-size="10.00">/PlotViewModel.cpp</text>
</a>
</g>
</g>
<!-- Node1&#45;&gt;Node2 -->
<g id="edge1_Node000001_Node000002" class="edge">
<title>Node1&#45;&gt;Node2</title>
<g id="a_edge1_Node000001_Node000002"><a xlink:title=" ">
<path fill="none" stroke="#63b8ff" d="M820.02,-82.65C641,-76.88 261.29,-62.5 131.5,-41 123.29,-39.64 114.65,-37.68 106.37,-35.53"/>
<polygon fill="#63b8ff" stroke="#63b8ff" points="820.11,-86.15 830.21,-82.98 820.33,-79.16 820.11,-86.15"/>
</a>
</g>
</g>
<!-- Node3 -->
<g id="Node000003" class="node">
<title>Node3</title>
<g id="a_Node000003"><a xlink:href="PidViewModel_8cpp.html" target="_top" xlink:title=" ">
<polygon fill="white" stroke="#666666" points="308,-30 141,-30 141,-11 308,-11 308,-30"/>
<text text-anchor="middle" x="224.5" y="-18" font-family="Helvetica,sans-Serif" font-size="10.00">features/pid/PidViewModel.cpp</text>
</a>
</g>
</g>
<!-- Node1&#45;&gt;Node3 -->
<g id="edge2_Node000001_Node000003" class="edge">
<title>Node1&#45;&gt;Node3</title>
<g id="a_edge2_Node000001_Node000003"><a xlink:title=" ">
<path fill="none" stroke="#63b8ff" d="M820.17,-82.38C701.62,-77.59 493.3,-66.19 316.5,-41 297.43,-38.28 276.39,-33.93 259.25,-30.02"/>
<polygon fill="#63b8ff" stroke="#63b8ff" points="820.17,-85.88 830.3,-82.78 820.45,-78.89 820.17,-85.88"/>
</a>
</g>
</g>
<!-- Node4 -->
<g id="Node000004" class="node">
<title>Node4</title>
<g id="a_Node000004"><a xlink:href="ActuatorSwitchViewModel_8cpp.html" target="_top" xlink:title=" ">
<polygon fill="white" stroke="#666666" points="493,-35.5 326,-35.5 326,-5.5 493,-5.5 493,-35.5"/>
<text text-anchor="start" x="334" y="-23.5" font-family="Helvetica,sans-Serif" font-size="10.00">features/pid/actuator</text>
<text text-anchor="middle" x="409.5" y="-12.5" font-family="Helvetica,sans-Serif" font-size="10.00">/ActuatorSwitchViewModel.cpp</text>
</a>
</g>
</g>
<!-- Node1&#45;&gt;Node4 -->
<g id="edge3_Node000001_Node000004" class="edge">
<title>Node1&#45;&gt;Node4</title>
<g id="a_edge3_Node000001_Node000004"><a xlink:title=" ">
<path fill="none" stroke="#63b8ff" d="M820.27,-78.04C736.13,-70.78 610.23,-58.32 501.5,-41 491.83,-39.46 481.63,-37.57 471.7,-35.58"/>
<polygon fill="#63b8ff" stroke="#63b8ff" points="820.06,-81.53 830.33,-78.9 820.66,-74.56 820.06,-81.53"/>
</a>
</g>
</g>
<!-- Node5 -->
<g id="Node000005" class="node">
<title>Node5</title>
<g id="a_Node000005"><a xlink:href="SensorValueIndicatorViewModel_8cpp.html" target="_top" xlink:title=" ">
<polygon fill="white" stroke="#666666" points="708,-35.5 511,-35.5 511,-5.5 708,-5.5 708,-35.5"/>
<text text-anchor="start" x="519" y="-23.5" font-family="Helvetica,sans-Serif" font-size="10.00">features/pid/sensors</text>
<text text-anchor="middle" x="609.5" y="-12.5" font-family="Helvetica,sans-Serif" font-size="10.00">/SensorValueIndicatorViewModel.cpp</text>
</a>
</g>
</g>
<!-- Node1&#45;&gt;Node5 -->
<g id="edge4_Node000001_Node000005" class="edge">
<title>Node1&#45;&gt;Node5</title>
<g id="a_edge4_Node000001_Node000005"><a xlink:title=" ">
<path fill="none" stroke="#63b8ff" d="M864.64,-74.86C813.14,-64.09 733.21,-47.37 676.56,-35.52"/>
<polygon fill="#63b8ff" stroke="#63b8ff" points="864.04,-78.31 874.55,-76.94 865.48,-71.46 864.04,-78.31"/>
</a>
</g>
</g>
<!-- Node6 -->
<g id="Node000006" class="node">
<title>Node6</title>
<g id="a_Node000006"><a xlink:href="TestBenchModel_8cpp.html" target="_top" xlink:title=" ">
<polygon fill="white" stroke="#666666" points="908.5,-30 726.5,-30 726.5,-11 908.5,-11 908.5,-30"/>
<text text-anchor="middle" x="817.5" y="-18" font-family="Helvetica,sans-Serif" font-size="10.00">features/test/TestBenchModel.cpp</text>
</a>
</g>
</g>
<!-- Node1&#45;&gt;Node6 -->
<g id="edge5_Node000001_Node000006" class="edge">
<title>Node1&#45;&gt;Node6</title>
<g id="a_edge5_Node000001_Node000006"><a xlink:title=" ">
<path fill="none" stroke="#63b8ff" d="M893.83,-71.35C874.57,-58.77 847.02,-40.78 830.82,-30.2"/>
<polygon fill="#63b8ff" stroke="#63b8ff" points="892,-74.33 902.28,-76.87 895.82,-68.47 892,-74.33"/>
</a>
</g>
</g>
<!-- Node7 -->
<g id="Node000007" class="node">
<title>Node7</title>
<g id="a_Node000007"><a xlink:href="EmergencyControlsViewModel_8cpp.html" target="_top" xlink:title=" ">
<polygon fill="white" stroke="#666666" points="1102.5,-41 926.5,-41 926.5,0 1102.5,0 1102.5,-41"/>
<text text-anchor="start" x="934.5" y="-29" font-family="Helvetica,sans-Serif" font-size="10.00">features/test/frames</text>
<text text-anchor="start" x="934.5" y="-18" font-family="Helvetica,sans-Serif" font-size="10.00">/emergency_controls/Emergency</text>
<text text-anchor="middle" x="1014.5" y="-7" font-family="Helvetica,sans-Serif" font-size="10.00">ControlsViewModel.cpp</text>
</a>
</g>
</g>
<!-- Node1&#45;&gt;Node7 -->
<g id="edge6_Node000001_Node000007" class="edge">
<title>Node1&#45;&gt;Node7</title>
<g id="a_edge6_Node000001_Node000007"><a xlink:title=" ">
<path fill="none" stroke="#63b8ff" d="M937.64,-71.19C951.4,-62.29 969.27,-50.74 984.32,-41.01"/>
<polygon fill="#63b8ff" stroke="#63b8ff" points="935.35,-68.5 928.85,-76.87 939.15,-74.38 935.35,-68.5"/>
</a>
</g>
</g>
<!-- Node8 -->
<g id="Node000008" class="node">
<title>Node8</title>
<g id="a_Node000008"><a xlink:href="TankPressureControlerViewModel_8cpp.html" target="_top" xlink:title=" ">
<polygon fill="white" stroke="#666666" points="1276.5,-41 1120.5,-41 1120.5,0 1276.5,0 1276.5,-41"/>
<text text-anchor="start" x="1128.5" y="-29" font-family="Helvetica,sans-Serif" font-size="10.00">features/test/frames</text>
<text text-anchor="start" x="1128.5" y="-18" font-family="Helvetica,sans-Serif" font-size="10.00">/tank_pressure/TankPressure</text>
<text text-anchor="middle" x="1198.5" y="-7" font-family="Helvetica,sans-Serif" font-size="10.00">ControlerViewModel.cpp</text>
</a>
</g>
</g>
<!-- Node1&#45;&gt;Node8 -->
<g id="edge7_Node000001_Node000008" class="edge">
<title>Node1&#45;&gt;Node8</title>
<g id="a_edge7_Node000001_Node000008"><a xlink:title=" ">
<path fill="none" stroke="#63b8ff" d="M963.27,-74.7C1006.16,-65 1069.93,-50.58 1120.26,-39.19"/>
<polygon fill="#63b8ff" stroke="#63b8ff" points="962.35,-71.32 953.37,-76.94 963.9,-78.14 962.35,-71.32"/>
</a>
</g>
</g>
<!-- Node9 -->
<g id="Node000009" class="node">
<title>Node9</title>
<g id="a_Node000009"><a xlink:href="TestLauncherViewModel_8cpp.html" target="_top" xlink:title=" ">
<polygon fill="white" stroke="#666666" points="1446.5,-41 1294.5,-41 1294.5,0 1446.5,0 1446.5,-41"/>
<text text-anchor="start" x="1302.5" y="-29" font-family="Helvetica,sans-Serif" font-size="10.00">features/test/frames</text>
<text text-anchor="start" x="1302.5" y="-18" font-family="Helvetica,sans-Serif" font-size="10.00">/test_launcher/TestLauncher</text>
<text text-anchor="middle" x="1370.5" y="-7" font-family="Helvetica,sans-Serif" font-size="10.00">ViewModel.cpp</text>
</a>
</g>
</g>
<!-- Node1&#45;&gt;Node9 -->
<g id="edge8_Node000001_Node000009" class="edge">
<title>Node1&#45;&gt;Node9</title>
<g id="a_edge8_Node000001_Node000009"><a xlink:title=" ">
<path fill="none" stroke="#63b8ff" d="M1011.1,-76.81C1086.05,-69.32 1192.82,-57.16 1285.5,-41 1288.33,-40.51 1291.22,-39.98 1294.12,-39.42"/>
<polygon fill="#63b8ff" stroke="#63b8ff" points="1010.35,-73.36 1000.74,-77.83 1011.04,-80.33 1010.35,-73.36"/>
</a>
</g>
</g>
<!-- Node10 -->
<g id="Node000010" class="node">
<title>Node10</title>
<g id="a_Node000010"><a xlink:href="AppModels_8cpp.html" target="_top" xlink:title=" ">
<polygon fill="white" stroke="#666666" points="1628.5,-30 1464.5,-30 1464.5,-11 1628.5,-11 1628.5,-30"/>
<text text-anchor="middle" x="1546.5" y="-18" font-family="Helvetica,sans-Serif" font-size="10.00">mvvm/models/AppModels.cpp</text>
</a>
</g>
</g>
<!-- Node1&#45;&gt;Node10 -->
<g id="edge9_Node000001_Node000010" class="edge">
<title>Node1&#45;&gt;Node10</title>
<g id="a_edge9_Node000001_Node000010"><a xlink:title=" ">
<path fill="none" stroke="#63b8ff" d="M1010.77,-81.37C1118.99,-75.81 1300.67,-63.87 1455.5,-41 1474.2,-38.24 1494.82,-33.93 1511.69,-30.06"/>
<polygon fill="#63b8ff" stroke="#63b8ff" points="1010.34,-77.88 1000.53,-81.88 1010.7,-84.87 1010.34,-77.88"/>
</a>
</g>
</g>
<!-- Node11 -->
<g id="Node000011" class="node">
<title>Node11</title>
<g id="a_Node000011"><a xlink:href="AppViewModels_8cpp.html" target="_top" xlink:title=" ">
<polygon fill="white" stroke="#666666" points="1858.5,-30 1646.5,-30 1646.5,-11 1858.5,-11 1858.5,-30"/>
<text text-anchor="middle" x="1752.5" y="-18" font-family="Helvetica,sans-Serif" font-size="10.00">mvvm/viewmodels/AppViewModels.cpp</text>
</a>
</g>
</g>
<!-- Node1&#45;&gt;Node11 -->
<g id="edge10_Node000001_Node000011" class="edge">
<title>Node1&#45;&gt;Node11</title>
<g id="a_edge10_Node000001_Node000011"><a xlink:title=" ">
<path fill="none" stroke="#63b8ff" d="M1010.66,-82.86C1149.03,-78.29 1413.7,-66.8 1637.5,-41 1661.24,-38.26 1687.53,-33.91 1708.97,-30"/>
<polygon fill="#63b8ff" stroke="#63b8ff" points="1010.39,-79.37 1000.51,-83.19 1010.62,-86.36 1010.39,-79.37"/>
</a>
</g>
</g>
</g>
</svg>
