<?xml version="1.0" encoding="UTF-8" standalone="no"?>
<!DOCTYPE svg PUBLIC "-//W3C//DTD SVG 1.1//EN"
 "http://www.w3.org/Graphics/SVG/1.1/DTD/svg11.dtd">
<!-- Generated by graphviz version 2.43.0 (0)
 -->
<!-- Title: features/test/TestBenchModel.cpp Pages: 1 -->
<!--zoomable 390 -->

<svg id="main" version="1.1" xmlns="http://www.w3.org/2000/svg" xmlns:xlink="http://www.w3.org/1999/xlink" xml:space="preserve" onload="init(evt)">
<style type="text/css"><![CDATA[
.node, .edge {opacity: 0.7;}
.node.selected, .edge.selected {opacity: 1;}
.edge:hover path { stroke: red; }
.edge:hover polygon { stroke: red; fill: red; }
]]></style>

<defs>
  <circle id="rim" cx="0" cy="0" r="7"/>
  <circle id="rim2" cx="0" cy="0" r="3.5"/>
  <g id="zoomPlus">
    <use xlink:href="#rim" fill="#404040"><set attributeName="fill" to="#808080" begin="zoomplus.mouseover" end="zoomplus.mouseout"/></use>
    <path d="M-4,0h8M0,-4v8" fill="none" stroke="white" stroke-width="1.5" pointer-events="none"/>
  </g>
  <g id="zoomMin">
    <use xlink:href="#rim" fill="#404040"><set attributeName="fill" to="#808080" begin="zoomminus.mouseover" end="zoomminus.mouseout"/></use>
    <path d="M-4,0h8" fill="none" stroke="white" stroke-width="1.5" pointer-events="none"/>
  </g>
  <g id="arrowUp" transform="translate(30 24)">
    <use xlink:href="#rim"/>
    <path pointer-events="none" fill="none" stroke="white" stroke-width="1.5" d="M0,-3.0v7 M-2.5,-0.5L0,-3.0L2.5,-0.5"/>
  </g>
  <g id="arrowRight" transform="rotate(90) translate(36 -43)">
    <use xlink:href="#rim"/>
    <path pointer-events="none" fill="none" stroke="white" stroke-width="1.5" d="M0,-3.0v7 M-2.5,-0.5L0,-3.0L2.5,-0.5"/>
  </g>
  <g id="arrowDown" transform="rotate(180) translate(-30 -48)">
    <use xlink:href="#rim"/>
    <path pointer-events="none" fill="none" stroke="white" stroke-width="1.5" d="M0,-3.0v7 M-2.5,-0.5L0,-3.0L2.5,-0.5"/>
  </g>
  <g id="arrowLeft" transform="rotate(270) translate(-36 17)">
    <use xlink:href="#rim"/>
    <path pointer-events="none" fill="none" stroke="white" stroke-width="1.5" d="M0,-3.0v7 M-2.5,-0.5L0,-3.0L2.5,-0.5"/>
  </g>
  <g id="resetDef">
    <use xlink:href="#rim2" fill="#404040"><set attributeName="fill" to="#808080" begin="reset.mouseover" end="reset.mouseout"/></use>
  </g>
</defs>
<script type="application/ecmascript">
var viewWidth = 839;
var viewHeight = 390;
var sectionId = 'dynsection-0';
</script>
<script type="application/ecmascript" xlink:href="svg.min.js"/>
<svg id="graph" class="graph">
<g id="viewport">
<title>features/test/TestBenchModel.cpp</title>
<!-- Node1 -->
<g id="Node000001" class="node">
<title>Node1</title>
<g id="a_Node000001"><a xlink:title=" ">
<polygon fill="#999999" stroke="#666666" points="217.5,-382 35.5,-382 35.5,-363 217.5,-363 217.5,-382"/>
<text text-anchor="middle" x="126.5" y="-370" font-family="Helvetica,sans-Serif" font-size="10.00">features/test/TestBenchModel.cpp</text>
</a>
</g>
</g>
<!-- Node2 -->
<g id="Node000002" class="node">
<title>Node2</title>
<g id="a_Node000002"><a xlink:href="TestBenchModel_8h.html" target="_top" xlink:title=" ">
<polygon fill="white" stroke="#666666" points="105,-145.5 0,-145.5 0,-126.5 105,-126.5 105,-145.5"/>
<text text-anchor="middle" x="52.5" y="-133.5" font-family="Helvetica,sans-Serif" font-size="10.00">TestBenchModel.h</text>
</a>
</g>
</g>
<!-- Node1&#45;&gt;Node2 -->
<g id="edge1_Node000001_Node000002" class="edge">
<title>Node1&#45;&gt;Node2</title>
<g id="a_edge1_Node000001_Node000002"><a xlink:title=" ">
<path fill="none" stroke="#63b8ff" d="M123.78,-362.88C113.04,-328.84 73.44,-203.37 58.38,-155.62"/>
<polygon fill="#63b8ff" stroke="#63b8ff" points="61.67,-154.44 55.33,-145.95 55,-156.54 61.67,-154.44"/>
</a>
</g>
</g>
<!-- Node12 -->
<g id="Node000012" class="node">
<title>Node12</title>
<g id="a_Node000012"><a xlink:href="UdpChannel_8h.html" target="_top" xlink:title=" ">
<polygon fill="white" stroke="#666666" points="379,-327 226,-327 226,-297 379,-297 379,-327"/>
<text text-anchor="start" x="234" y="-315" font-family="Helvetica,sans-Serif" font-size="10.00">src/features/communication</text>
<text text-anchor="middle" x="302.5" y="-304" font-family="Helvetica,sans-Serif" font-size="10.00">/udp/UdpChannel.h</text>
</a>
</g>
</g>
<!-- Node1&#45;&gt;Node12 -->
<g id="edge13_Node000001_Node000012" class="edge">
<title>Node1&#45;&gt;Node12</title>
<g id="a_edge13_Node000001_Node000012"><a xlink:title=" ">
<path fill="none" stroke="#63b8ff" d="M152.09,-362.99C177.75,-354.46 218,-341.09 250.41,-330.32"/>
<polygon fill="#63b8ff" stroke="#63b8ff" points="251.8,-333.54 260.19,-327.06 249.59,-326.9 251.8,-333.54"/>
</a>
</g>
</g>
<!-- Node3 -->
<g id="Node000003" class="node">
<title>Node3</title>
<g id="a_Node000003"><a xlink:title=" ">
<polygon fill="#e0e0e0" stroke="#999999" points="80.5,-19 24.5,-19 24.5,0 80.5,0 80.5,-19"/>
<text text-anchor="middle" x="52.5" y="-7" font-family="Helvetica,sans-Serif" font-size="10.00">QObject</text>
</a>
</g>
</g>
<!-- Node2&#45;&gt;Node3 -->
<g id="edge2_Node000002_Node000003" class="edge">
<title>Node2&#45;&gt;Node3</title>
<g id="a_edge2_Node000002_Node000003"><a xlink:title=" ">
<path fill="none" stroke="#63b8ff" d="M52.5,-126.44C52.5,-106.54 52.5,-56.76 52.5,-29.35"/>
<polygon fill="#63b8ff" stroke="#63b8ff" points="56,-29.12 52.5,-19.12 49,-29.12 56,-29.12"/>
</a>
</g>
</g>
<!-- Node4 -->
<g id="Node000004" class="node">
<title>Node4</title>
<g id="a_Node000004"><a xlink:title=" ">
<polygon fill="#e0e0e0" stroke="#999999" points="142.5,-19 98.5,-19 98.5,0 142.5,0 142.5,-19"/>
<text text-anchor="middle" x="120.5" y="-7" font-family="Helvetica,sans-Serif" font-size="10.00">string</text>
</a>
</g>
</g>
<!-- Node2&#45;&gt;Node4 -->
<g id="edge3_Node000002_Node000004" class="edge">
<title>Node2&#45;&gt;Node4</title>
<g id="a_edge3_Node000002_Node000004"><a xlink:title=" ">
<path fill="none" stroke="#63b8ff" d="M57.17,-126.44C68.24,-106.19 96.21,-54.97 111,-27.9"/>
<polygon fill="#63b8ff" stroke="#63b8ff" points="114.07,-29.57 115.79,-19.12 107.93,-26.22 114.07,-29.57"/>
</a>
</g>
</g>
<!-- Node5 -->
<g id="Node000005" class="node">
<title>Node5</title>
<g id="a_Node000005"><a xlink:href="Messages_8h.html" target="_top" xlink:title=" ">
<polygon fill="white" stroke="#666666" points="341,-85 238,-85 238,-55 341,-55 341,-85"/>
<text text-anchor="start" x="246" y="-73" font-family="Helvetica,sans-Serif" font-size="10.00">src/core/Protocols</text>
<text text-anchor="middle" x="289.5" y="-62" font-family="Helvetica,sans-Serif" font-size="10.00">/Messages.h</text>
</a>
</g>
</g>
<!-- Node2&#45;&gt;Node5 -->
<g id="edge4_Node000002_Node000005" class="edge">
<title>Node2&#45;&gt;Node5</title>
<g id="a_edge4_Node000002_Node000005"><a xlink:title=" ">
<path fill="none" stroke="#63b8ff" d="M84.46,-126.37C121.07,-116.48 181.91,-100.05 227.83,-87.65"/>
<polygon fill="#63b8ff" stroke="#63b8ff" points="228.94,-90.98 237.68,-84.99 227.11,-84.22 228.94,-90.98"/>
</a>
</g>
</g>
<!-- Node5&#45;&gt;Node3 -->
<g id="edge11_Node000005_Node000003" class="edge">
<title>Node5&#45;&gt;Node3</title>
<g id="a_edge11_Node000005_Node000003"><a xlink:title=" ">
<path fill="none" stroke="#63b8ff" d="M237.78,-56.23C193.43,-45.29 130.54,-29.76 90.64,-19.91"/>
<polygon fill="#63b8ff" stroke="#63b8ff" points="91.32,-16.48 80.77,-17.48 89.64,-23.27 91.32,-16.48"/>
</a>
</g>
</g>
<!-- Node5&#45;&gt;Node4 -->
<g id="edge7_Node000005_Node000004" class="edge">
<title>Node5&#45;&gt;Node4</title>
<g id="a_edge7_Node000005_Node000004"><a xlink:title=" ">
<path fill="none" stroke="#63b8ff" d="M249.02,-54.99C219.28,-44.69 179.44,-30.9 152.04,-21.42"/>
<polygon fill="#63b8ff" stroke="#63b8ff" points="153.15,-18.1 142.55,-18.13 150.86,-24.71 153.15,-18.1"/>
</a>
</g>
</g>
<!-- Node6 -->
<g id="Node000006" class="node">
<title>Node6</title>
<g id="a_Node000006"><a xlink:title=" ">
<polygon fill="#e0e0e0" stroke="#999999" points="212,-19 161,-19 161,0 212,0 212,-19"/>
<text text-anchor="middle" x="186.5" y="-7" font-family="Helvetica,sans-Serif" font-size="10.00">variant</text>
</a>
</g>
</g>
<!-- Node5&#45;&gt;Node6 -->
<g id="edge5_Node000005_Node000006" class="edge">
<title>Node5&#45;&gt;Node6</title>
<g id="a_edge5_Node000005_Node000006"><a xlink:title=" ">
<path fill="none" stroke="#63b8ff" d="M264.83,-54.99C248.41,-45.66 226.95,-33.47 210.64,-24.21"/>
<polygon fill="#63b8ff" stroke="#63b8ff" points="212.13,-21.03 201.71,-19.14 208.68,-27.12 212.13,-21.03"/>
</a>
</g>
</g>
<!-- Node7 -->
<g id="Node000007" class="node">
<title>Node7</title>
<g id="a_Node000007"><a xlink:title=" ">
<polygon fill="#e0e0e0" stroke="#999999" points="572.5,-19 522.5,-19 522.5,0 572.5,0 572.5,-19"/>
<text text-anchor="middle" x="547.5" y="-7" font-family="Helvetica,sans-Serif" font-size="10.00">cstdint</text>
</a>
</g>
</g>
<!-- Node5&#45;&gt;Node7 -->
<g id="edge6_Node000005_Node000007" class="edge">
<title>Node5&#45;&gt;Node7</title>
<g id="a_edge6_Node000005_Node000007"><a xlink:title=" ">
<path fill="none" stroke="#63b8ff" d="M341.08,-57.13C344.27,-56.41 347.43,-55.69 350.5,-55 419.77,-39.4 439.6,-36.26 512.17,-19.27"/>
<polygon fill="#63b8ff" stroke="#63b8ff" points="513.33,-22.59 522.27,-16.89 511.73,-15.77 513.33,-22.59"/>
</a>
</g>
</g>
<!-- Node8 -->
<g id="Node000008" class="node">
<title>Node8</title>
<g id="a_Node000008"><a xlink:title=" ">
<polygon fill="#e0e0e0" stroke="#999999" points="303,-19 230,-19 230,0 303,0 303,-19"/>
<text text-anchor="middle" x="266.5" y="-7" font-family="Helvetica,sans-Serif" font-size="10.00">QByteArray</text>
</a>
</g>
</g>
<!-- Node5&#45;&gt;Node8 -->
<g id="edge8_Node000005_Node000008" class="edge">
<title>Node5&#45;&gt;Node8</title>
<g id="a_edge8_Node000005_Node000008"><a xlink:title=" ">
<path fill="none" stroke="#63b8ff" d="M283.93,-54.84C280.83,-46.95 276.94,-37.05 273.62,-28.61"/>
<polygon fill="#63b8ff" stroke="#63b8ff" points="276.86,-27.29 269.95,-19.27 270.35,-29.85 276.86,-27.29"/>
</a>
</g>
</g>
<!-- Node9 -->
<g id="Node000009" class="node">
<title>Node9</title>
<g id="a_Node000009"><a xlink:title=" ">
<polygon fill="#e0e0e0" stroke="#999999" points="370,-19 321,-19 321,0 370,0 370,-19"/>
<text text-anchor="middle" x="345.5" y="-7" font-family="Helvetica,sans-Serif" font-size="10.00">QHash</text>
</a>
</g>
</g>
<!-- Node5&#45;&gt;Node9 -->
<g id="edge9_Node000005_Node000009" class="edge">
<title>Node5&#45;&gt;Node9</title>
<g id="a_edge9_Node000005_Node000009"><a xlink:title=" ">
<path fill="none" stroke="#63b8ff" d="M303.06,-54.84C311.18,-46.35 321.55,-35.52 330,-26.69"/>
<polygon fill="#63b8ff" stroke="#63b8ff" points="332.72,-28.91 337.11,-19.27 327.67,-24.07 332.72,-28.91"/>
</a>
</g>
</g>
<!-- Node10 -->
<g id="Node000010" class="node">
<title>Node10</title>
<g id="a_Node000010"><a xlink:title=" ">
<polygon fill="#e0e0e0" stroke="#999999" points="441,-19 388,-19 388,0 441,0 441,-19"/>
<text text-anchor="middle" x="414.5" y="-7" font-family="Helvetica,sans-Serif" font-size="10.00">QString</text>
</a>
</g>
</g>
<!-- Node5&#45;&gt;Node10 -->
<g id="edge10_Node000005_Node000010" class="edge">
<title>Node5&#45;&gt;Node10</title>
<g id="a_edge10_Node000005_Node000010"><a xlink:title=" ">
<path fill="none" stroke="#63b8ff" d="M319.44,-54.99C339.92,-45.4 366.88,-32.79 386.85,-23.44"/>
<polygon fill="#63b8ff" stroke="#63b8ff" points="388.47,-26.55 396.04,-19.14 385.5,-20.21 388.47,-26.55"/>
</a>
</g>
</g>
<!-- Node11 -->
<g id="Node000011" class="node">
<title>Node11</title>
<g id="a_Node000011"><a xlink:title=" ">
<polygon fill="#e0e0e0" stroke="#999999" points="504,-19 459,-19 459,0 504,0 504,-19"/>
<text text-anchor="middle" x="481.5" y="-7" font-family="Helvetica,sans-Serif" font-size="10.00">QMap</text>
</a>
</g>
</g>
<!-- Node5&#45;&gt;Node11 -->
<g id="edge12_Node000005_Node000011" class="edge">
<title>Node5&#45;&gt;Node11</title>
<g id="a_edge12_Node000005_Node000011"><a xlink:title=" ">
<path fill="none" stroke="#63b8ff" d="M335.49,-54.99C370.47,-44.33 417.75,-29.92 448.91,-20.43"/>
<polygon fill="#63b8ff" stroke="#63b8ff" points="450.27,-23.67 458.82,-17.41 448.23,-16.98 450.27,-23.67"/>
</a>
</g>
</g>
<!-- Node12&#45;&gt;Node3 -->
<g id="edge14_Node000012_Node000003" class="edge">
<title>Node12&#45;&gt;Node3</title>
<g id="a_edge14_Node000012_Node000003"><a xlink:title=" ">
<path fill="none" stroke="#63b8ff" d="M290.78,-296.91C249.44,-247.23 110.61,-80.35 66.25,-27.03"/>
<polygon fill="#63b8ff" stroke="#63b8ff" points="68.84,-24.67 59.75,-19.22 63.46,-29.14 68.84,-24.67"/>
</a>
</g>
</g>
<!-- Node12&#45;&gt;Node5 -->
<g id="edge17_Node000012_Node000005" class="edge">
<title>Node12&#45;&gt;Node5</title>
<g id="a_edge17_Node000012_Node000005"><a xlink:title=" ">
<path fill="none" stroke="#63b8ff" d="M225.71,-302.6C199.75,-295.67 173.34,-283.22 157.5,-261 113.53,-199.32 205.98,-125.41 257.72,-90.75"/>
<polygon fill="#63b8ff" stroke="#63b8ff" points="259.82,-93.56 266.25,-85.15 255.97,-87.71 259.82,-93.56"/>
</a>
</g>
</g>
<!-- Node13 -->
<g id="Node000013" class="node">
<title>Node13</title>
<g id="a_Node000013"><a xlink:title=" ">
<polygon fill="#e0e0e0" stroke="#999999" points="598.5,-261 540.5,-261 540.5,-242 598.5,-242 598.5,-261"/>
<text text-anchor="middle" x="569.5" y="-249" font-family="Helvetica,sans-Serif" font-size="10.00">QThread</text>
</a>
</g>
</g>
<!-- Node12&#45;&gt;Node13 -->
<g id="edge15_Node000012_Node000013" class="edge">
<title>Node12&#45;&gt;Node13</title>
<g id="a_edge15_Node000012_Node000013"><a xlink:title=" ">
<path fill="none" stroke="#63b8ff" d="M367.17,-296.97C410.72,-287.5 469.71,-274.64 530.66,-261.18"/>
<polygon fill="#63b8ff" stroke="#63b8ff" points="531.45,-264.59 540.46,-259.01 529.94,-257.75 531.45,-264.59"/>
</a>
</g>
</g>
<!-- Node14 -->
<g id="Node000014" class="node">
<title>Node14</title>
<g id="a_Node000014"><a xlink:title=" ">
<polygon fill="#e0e0e0" stroke="#999999" points="692.5,-261 616.5,-261 616.5,-242 692.5,-242 692.5,-261"/>
<text text-anchor="middle" x="654.5" y="-249" font-family="Helvetica,sans-Serif" font-size="10.00">QUdpSocket</text>
</a>
</g>
</g>
<!-- Node12&#45;&gt;Node14 -->
<g id="edge16_Node000012_Node000014" class="edge">
<title>Node12&#45;&gt;Node14</title>
<g id="a_edge16_Node000012_Node000014"><a xlink:title=" ">
<path fill="none" stroke="#63b8ff" d="M379.02,-298.81C438.39,-289.27 523.03,-275.5 606.39,-261.17"/>
<polygon fill="#63b8ff" stroke="#63b8ff" points="607.03,-264.61 616.29,-259.46 605.84,-257.71 607.03,-264.61"/>
</a>
</g>
</g>
<!-- Node15 -->
<g id="Node000015" class="node">
<title>Node15</title>
<g id="a_Node000015"><a xlink:href="UdpLogger_8h.html" target="_top" xlink:title=" ">
<polygon fill="white" stroke="#666666" points="522,-261 371,-261 371,-242 522,-242 522,-261"/>
<text text-anchor="middle" x="446.5" y="-249" font-family="Helvetica,sans-Serif" font-size="10.00">frames_logger/UdpLogger.h</text>
</a>
</g>
</g>
<!-- Node12&#45;&gt;Node15 -->
<g id="edge18_Node000012_Node000015" class="edge">
<title>Node12&#45;&gt;Node15</title>
<g id="a_edge18_Node000012_Node000015"><a xlink:title=" ">
<path fill="none" stroke="#63b8ff" d="M336.99,-296.99C361.02,-287.23 392.77,-274.33 415.9,-264.93"/>
<polygon fill="#63b8ff" stroke="#63b8ff" points="417.29,-268.15 425.23,-261.14 414.65,-261.66 417.29,-268.15"/>
</a>
</g>
</g>
<!-- Node15&#45;&gt;Node7 -->
<g id="edge34_Node000015_Node000007" class="edge">
<title>Node15&#45;&gt;Node7</title>
<g id="a_edge34_Node000015_Node000007"><a xlink:title=" ">
<path fill="none" stroke="#63b8ff" d="M448.69,-241.74C451.88,-229.37 458.23,-206.15 465.5,-187 488.13,-127.4 521.94,-59.78 538.16,-28.34"/>
<polygon fill="#63b8ff" stroke="#63b8ff" points="541.44,-29.61 542.95,-19.12 535.23,-26.38 541.44,-29.61"/>
</a>
</g>
</g>
<!-- Node16 -->
<g id="Node000016" class="node">
<title>Node16</title>
<g id="a_Node000016"><a xlink:href="RingBuffer_8h.html" target="_top" xlink:title=" ">
<polygon fill="white" stroke="#666666" points="550.5,-206 474.5,-206 474.5,-187 550.5,-187 550.5,-206"/>
<text text-anchor="middle" x="512.5" y="-194" font-family="Helvetica,sans-Serif" font-size="10.00">RingBuffer.h</text>
</a>
</g>
</g>
<!-- Node15&#45;&gt;Node16 -->
<g id="edge19_Node000015_Node000016" class="edge">
<title>Node15&#45;&gt;Node16</title>
<g id="a_edge19_Node000015_Node000016"><a xlink:title=" ">
<path fill="none" stroke="#63b8ff" d="M457.1,-241.98C466.96,-234.07 481.85,-222.11 493.72,-212.58"/>
<polygon fill="#63b8ff" stroke="#63b8ff" points="496.1,-215.16 501.7,-206.17 491.71,-209.7 496.1,-215.16"/>
</a>
</g>
</g>
<!-- Node19 -->
<g id="Node000019" class="node">
<title>Node19</title>
<g id="a_Node000019"><a xlink:title=" ">
<polygon fill="#e0e0e0" stroke="#999999" points="830.5,-145.5 780.5,-145.5 780.5,-126.5 830.5,-126.5 830.5,-145.5"/>
<text text-anchor="middle" x="805.5" y="-133.5" font-family="Helvetica,sans-Serif" font-size="10.00">atomic</text>
</a>
</g>
</g>
<!-- Node15&#45;&gt;Node19 -->
<g id="edge33_Node000015_Node000019" class="edge">
<title>Node15&#45;&gt;Node19</title>
<g id="a_edge33_Node000015_Node000019"><a xlink:title=" ">
<path fill="none" stroke="#63b8ff" d="M470.12,-241.89C493.16,-233.34 529.07,-219.57 559.5,-206 576.75,-198.31 579.66,-193.19 597.5,-187 672.11,-161.12 695.99,-174.13 771.5,-151 773.18,-150.49 774.89,-149.92 776.6,-149.32"/>
<polygon fill="#63b8ff" stroke="#63b8ff" points="778.21,-152.46 786.31,-145.63 775.72,-145.91 778.21,-152.46"/>
</a>
</g>
</g>
<!-- Node21 -->
<g id="Node000021" class="node">
<title>Node21</title>
<g id="a_Node000021"><a xlink:href="Logger_8h.html" target="_top" xlink:title=" ">
<polygon fill="white" stroke="#666666" points="418.5,-151 308.5,-151 308.5,-121 418.5,-121 418.5,-151"/>
<text text-anchor="start" x="316.5" y="-139" font-family="Helvetica,sans-Serif" font-size="10.00">src/services/Logger</text>
<text text-anchor="middle" x="363.5" y="-128" font-family="Helvetica,sans-Serif" font-size="10.00">/Logger.h</text>
</a>
</g>
</g>
<!-- Node15&#45;&gt;Node21 -->
<g id="edge38_Node000015_Node000021" class="edge">
<title>Node15&#45;&gt;Node21</title>
<g id="a_edge38_Node000015_Node000021"><a xlink:title=" ">
<path fill="none" stroke="#63b8ff" d="M407.19,-241.92C387.79,-235.48 366.09,-224.49 354.5,-206 346.08,-192.58 348.65,-174.79 353.16,-160.64"/>
<polygon fill="#63b8ff" stroke="#63b8ff" points="356.51,-161.69 356.66,-151.1 349.93,-159.28 356.51,-161.69"/>
</a>
</g>
</g>
<!-- Node23 -->
<g id="Node000023" class="node">
<title>Node23</title>
<g id="a_Node000023"><a xlink:href="Writer_8h.html" target="_top" xlink:title=" ">
<polygon fill="white" stroke="#666666" points="418,-206 363,-206 363,-187 418,-187 418,-206"/>
<text text-anchor="middle" x="390.5" y="-194" font-family="Helvetica,sans-Serif" font-size="10.00">Writer.h</text>
</a>
</g>
</g>
<!-- Node15&#45;&gt;Node23 -->
<g id="edge28_Node000015_Node000023" class="edge">
<title>Node15&#45;&gt;Node23</title>
<g id="a_edge28_Node000015_Node000023"><a xlink:title=" ">
<path fill="none" stroke="#63b8ff" d="M437.5,-241.98C429.31,-234.23 416.99,-222.58 407.03,-213.14"/>
<polygon fill="#63b8ff" stroke="#63b8ff" points="409.33,-210.5 399.66,-206.17 404.52,-215.59 409.33,-210.5"/>
</a>
</g>
</g>
<!-- Node24 -->
<g id="Node000024" class="node">
<title>Node24</title>
<g id="a_Node000024"><a xlink:title=" ">
<polygon fill="#e0e0e0" stroke="#999999" points="654.5,-206 606.5,-206 606.5,-187 654.5,-187 654.5,-206"/>
<text text-anchor="middle" x="630.5" y="-194" font-family="Helvetica,sans-Serif" font-size="10.00">thread</text>
</a>
</g>
</g>
<!-- Node15&#45;&gt;Node24 -->
<g id="edge35_Node000015_Node000024" class="edge">
<title>Node15&#45;&gt;Node24</title>
<g id="a_edge35_Node000015_Node000024"><a xlink:title=" ">
<path fill="none" stroke="#63b8ff" d="M476.06,-241.98C508.98,-232.5 562.08,-217.21 596.64,-207.25"/>
<polygon fill="#63b8ff" stroke="#63b8ff" points="597.66,-210.6 606.3,-204.47 595.72,-203.88 597.66,-210.6"/>
</a>
</g>
</g>
<!-- Node25 -->
<g id="Node000025" class="node">
<title>Node25</title>
<g id="a_Node000025"><a xlink:title=" ">
<polygon fill="#e0e0e0" stroke="#999999" points="722.5,-206 672.5,-206 672.5,-187 722.5,-187 722.5,-206"/>
<text text-anchor="middle" x="697.5" y="-194" font-family="Helvetica,sans-Serif" font-size="10.00">chrono</text>
</a>
</g>
</g>
<!-- Node15&#45;&gt;Node25 -->
<g id="edge36_Node000015_Node000025" class="edge">
<title>Node15&#45;&gt;Node25</title>
<g id="a_edge36_Node000015_Node000025"><a xlink:title=" ">
<path fill="none" stroke="#63b8ff" d="M491.09,-241.93C532.9,-233.77 597.38,-220.86 662.28,-206.2"/>
<polygon fill="#63b8ff" stroke="#63b8ff" points="663.3,-209.56 672.28,-203.93 661.75,-202.73 663.3,-209.56"/>
</a>
</g>
</g>
<!-- Node26 -->
<g id="Node000026" class="node">
<title>Node26</title>
<g id="a_Node000026"><a xlink:title=" ">
<polygon fill="#e0e0e0" stroke="#999999" points="790.5,-206 740.5,-206 740.5,-187 790.5,-187 790.5,-206"/>
<text text-anchor="middle" x="765.5" y="-194" font-family="Helvetica,sans-Serif" font-size="10.00">format</text>
</a>
</g>
</g>
<!-- Node15&#45;&gt;Node26 -->
<g id="edge37_Node000015_Node000026" class="edge">
<title>Node15&#45;&gt;Node26</title>
<g id="a_edge37_Node000015_Node000026"><a xlink:title=" ">
<path fill="none" stroke="#63b8ff" d="M511.88,-242C567.58,-234.37 649.91,-222.17 730.49,-206.05"/>
<polygon fill="#63b8ff" stroke="#63b8ff" points="731.2,-209.48 740.31,-204.07 729.81,-202.62 731.2,-209.48"/>
</a>
</g>
</g>
<!-- Node16&#45;&gt;Node7 -->
<g id="edge21_Node000016_Node000007" class="edge">
<title>Node16&#45;&gt;Node7</title>
<g id="a_edge21_Node000016_Node000007"><a xlink:title=" ">
<path fill="none" stroke="#63b8ff" d="M514.19,-186.58C519.59,-158.01 536.55,-68.36 543.97,-29.16"/>
<polygon fill="#63b8ff" stroke="#63b8ff" points="547.41,-29.81 545.83,-19.33 540.53,-28.51 547.41,-29.81"/>
</a>
</g>
</g>
<!-- Node17 -->
<g id="Node000017" class="node">
<title>Node17</title>
<g id="a_Node000017"><a xlink:title=" ">
<polygon fill="#e0e0e0" stroke="#999999" points="680.5,-145.5 624.5,-145.5 624.5,-126.5 680.5,-126.5 680.5,-145.5"/>
<text text-anchor="middle" x="652.5" y="-133.5" font-family="Helvetica,sans-Serif" font-size="10.00">QDebug</text>
</a>
</g>
</g>
<!-- Node16&#45;&gt;Node17 -->
<g id="edge20_Node000016_Node000017" class="edge">
<title>Node16&#45;&gt;Node17</title>
<g id="a_edge20_Node000016_Node000017"><a xlink:title=" ">
<path fill="none" stroke="#63b8ff" d="M532.86,-186.99C556.5,-177.12 595.7,-160.73 622.75,-149.43"/>
<polygon fill="#63b8ff" stroke="#63b8ff" points="624.24,-152.6 632.12,-145.52 621.54,-146.14 624.24,-152.6"/>
</a>
</g>
</g>
<!-- Node18 -->
<g id="Node000018" class="node">
<title>Node18</title>
<g id="a_Node000018"><a xlink:title=" ">
<polygon fill="#e0e0e0" stroke="#999999" points="606,-145.5 551,-145.5 551,-126.5 606,-126.5 606,-145.5"/>
<text text-anchor="middle" x="578.5" y="-133.5" font-family="Helvetica,sans-Serif" font-size="10.00">fstream</text>
</a>
</g>
</g>
<!-- Node16&#45;&gt;Node18 -->
<g id="edge22_Node000016_Node000018" class="edge">
<title>Node16&#45;&gt;Node18</title>
<g id="a_edge22_Node000016_Node000018"><a xlink:title=" ">
<path fill="none" stroke="#63b8ff" d="M522.24,-186.87C532.47,-177.8 548.79,-163.34 561.22,-152.32"/>
<polygon fill="#63b8ff" stroke="#63b8ff" points="563.56,-154.92 568.72,-145.67 558.92,-149.68 563.56,-154.92"/>
</a>
</g>
</g>
<!-- Node16&#45;&gt;Node19 -->
<g id="edge23_Node000016_Node000019" class="edge">
<title>Node16&#45;&gt;Node19</title>
<g id="a_edge23_Node000016_Node000019"><a xlink:title=" ">
<path fill="none" stroke="#63b8ff" d="M550.72,-189.16C620.19,-177.61 760.96,-154.03 771.5,-151 773.39,-150.46 775.31,-149.84 777.23,-149.18"/>
<polygon fill="#63b8ff" stroke="#63b8ff" points="778.58,-152.41 786.7,-145.6 776.11,-145.86 778.58,-152.41"/>
</a>
</g>
</g>
<!-- Node20 -->
<g id="Node000020" class="node">
<title>Node20</title>
<g id="a_Node000020"><a xlink:title=" ">
<polygon fill="#e0e0e0" stroke="#999999" points="762.5,-145.5 698.5,-145.5 698.5,-126.5 762.5,-126.5 762.5,-145.5"/>
<text text-anchor="middle" x="730.5" y="-133.5" font-family="Helvetica,sans-Serif" font-size="10.00">algorithm</text>
</a>
</g>
</g>
<!-- Node16&#45;&gt;Node20 -->
<g id="edge24_Node000016_Node000020" class="edge">
<title>Node16&#45;&gt;Node20</title>
<g id="a_edge24_Node000016_Node000020"><a xlink:title=" ">
<path fill="none" stroke="#63b8ff" d="M550.38,-186.93C586.39,-178.57 641.95,-165.07 689.5,-151 691.81,-150.32 694.19,-149.58 696.58,-148.83"/>
<polygon fill="#63b8ff" stroke="#63b8ff" points="697.92,-152.07 706.32,-145.63 695.73,-145.42 697.92,-152.07"/>
</a>
</g>
</g>
<!-- Node16&#45;&gt;Node21 -->
<g id="edge25_Node000016_Node000021" class="edge">
<title>Node16&#45;&gt;Node21</title>
<g id="a_edge25_Node000016_Node000021"><a xlink:title=" ">
<path fill="none" stroke="#63b8ff" d="M490.83,-186.99C469.39,-178.57 435.92,-165.43 408.67,-154.73"/>
<polygon fill="#63b8ff" stroke="#63b8ff" points="409.91,-151.46 399.32,-151.06 407.35,-157.98 409.91,-151.46"/>
</a>
</g>
</g>
<!-- Node21&#45;&gt;Node5 -->
<g id="edge27_Node000021_Node000005" class="edge">
<title>Node21&#45;&gt;Node5</title>
<g id="a_edge27_Node000021_Node000005"><a xlink:title=" ">
<path fill="none" stroke="#63b8ff" d="M347.08,-120.8C337.21,-112.26 324.48,-101.25 313.5,-91.75"/>
<polygon fill="#63b8ff" stroke="#63b8ff" points="315.73,-89.06 305.88,-85.16 311.15,-94.35 315.73,-89.06"/>
</a>
</g>
</g>
<!-- Node22 -->
<g id="Node000022" class="node">
<title>Node22</title>
<g id="a_Node000022"><a xlink:title=" ">
<polygon fill="#e0e0e0" stroke="#999999" points="418,-79.5 359,-79.5 359,-60.5 418,-60.5 418,-79.5"/>
<text text-anchor="middle" x="388.5" y="-67.5" font-family="Helvetica,sans-Serif" font-size="10.00">QWidget</text>
</a>
</g>
</g>
<!-- Node21&#45;&gt;Node22 -->
<g id="edge26_Node000021_Node000022" class="edge">
<title>Node21&#45;&gt;Node22</title>
<g id="a_edge26_Node000021_Node000022"><a xlink:title=" ">
<path fill="none" stroke="#63b8ff" d="M369.05,-120.8C372.68,-111.5 377.46,-99.27 381.37,-89.26"/>
<polygon fill="#63b8ff" stroke="#63b8ff" points="384.67,-90.43 385.05,-79.84 378.15,-87.89 384.67,-90.43"/>
</a>
</g>
</g>
<!-- Node23&#45;&gt;Node4 -->
<g id="edge31_Node000023_Node000004" class="edge">
<title>Node23&#45;&gt;Node4</title>
<g id="a_edge31_Node000023_Node000004"><a xlink:title=" ">
<path fill="none" stroke="#63b8ff" d="M369.97,-186.95C351.08,-178.74 322.59,-165.48 299.5,-151 236.17,-111.28 168.67,-53.53 137.76,-26.09"/>
<polygon fill="#63b8ff" stroke="#63b8ff" points="139.84,-23.25 130.05,-19.2 135.17,-28.47 139.84,-23.25"/>
</a>
</g>
</g>
<!-- Node23&#45;&gt;Node7 -->
<g id="edge29_Node000023_Node000007" class="edge">
<title>Node23&#45;&gt;Node7</title>
<g id="a_edge29_Node000023_Node000007"><a xlink:title=" ">
<path fill="none" stroke="#63b8ff" d="M398.07,-186.58C422.68,-157.58 500.69,-65.66 533.13,-27.43"/>
<polygon fill="#63b8ff" stroke="#63b8ff" points="536.2,-29.22 540,-19.33 530.86,-24.69 536.2,-29.22"/>
</a>
</g>
</g>
<!-- Node23&#45;&gt;Node18 -->
<g id="edge30_Node000023_Node000018" class="edge">
<title>Node23&#45;&gt;Node18</title>
<g id="a_edge30_Node000023_Node000018"><a xlink:title=" ">
<path fill="none" stroke="#63b8ff" d="M418.01,-187.35C447.41,-178.58 495.35,-164.13 536.5,-151 538.79,-150.27 541.14,-149.51 543.51,-148.74"/>
<polygon fill="#63b8ff" stroke="#63b8ff" points="544.81,-152 553.22,-145.55 542.62,-145.35 544.81,-152"/>
</a>
</g>
</g>
<!-- Node23&#45;&gt;Node21 -->
<g id="edge32_Node000023_Node000021" class="edge">
<title>Node23&#45;&gt;Node21</title>
<g id="a_edge32_Node000023_Node000021"><a xlink:title=" ">
<path fill="none" stroke="#63b8ff" d="M386.52,-186.87C383.29,-179.89 378.6,-169.71 374.29,-160.38"/>
<polygon fill="#63b8ff" stroke="#63b8ff" points="377.38,-158.73 370.01,-151.11 371.03,-161.66 377.38,-158.73"/>
</a>
</g>
</g>
</g>
</svg>

<g id="navigator" transform="translate(0 0)" fill="#404254">
  <rect fill="#f2f5e9" fill-opacity="0.5" stroke="#606060" stroke-width=".5" x="0" y="0" width="60" height="60"/>
  <use id="zoomplus" xlink:href="#zoomPlus" x="17" y="9" onmousedown="handleZoom(evt,'in')"/>
  <use id="zoomminus" xlink:href="#zoomMin" x="42" y="9" onmousedown="handleZoom(evt,'out')"/>
  <use id="reset" xlink:href="#resetDef" x="30" y="36" onmousedown="handleReset()"/>
   <use id="arrowup" xlink:href="#arrowUp" x="0" y="0" onmousedown="handlePan(0,-1)"/>
  <use id="arrowright" xlink:href="#arrowRight" x="0" y="0" onmousedown="handlePan(1,0)"/>
  <use id="arrowdown" xlink:href="#arrowDown" x="0" y="0" onmousedown="handlePan(0,1)"/>
  <use id="arrowleft" xlink:href="#arrowLeft" x="0" y="0" onmousedown="handlePan(-1,0)"/>
</g>
<svg viewBox="0 0 15 15" width="100%" height="30px" preserveAspectRatio="xMaxYMin meet">
 <g id="arrow_out" transform="scale(0.3 0.3)">
  <a xlink:href="TestBenchModel_8cpp__incl_org.svg" target="_base">
   <rect id="button" ry="5" rx="5" y="6" x="6" height="38" width="38"
        fill="#f2f5e9" fill-opacity="0.5" stroke="#606060" stroke-width="1.0"/>
   <path id="arrow"
     d="M 11.500037,31.436501 C 11.940474,20.09759 22.043105,11.32322 32.158766,21.979434 L 37.068811,17.246167 C 37.068811,17.246167 37.088388,32 37.088388,32 L 22.160133,31.978069 C 22.160133,31.978069 26.997745,27.140456 26.997745,27.140456 C 18.528582,18.264221 13.291696,25.230495 11.500037,31.436501 z"
     style="fill:#404040;"/>
  </a>
 </g>
</svg>

<style type='text/css'>
<![CDATA[
[data-mouse-over-selected='false'] { opacity: 0.7; }
[data-mouse-over-selected='true']  { opacity: 1.0; }
]]>
</style>
<script type="application/ecmascript"><![CDATA[
document.addEventListener('DOMContentLoaded', (event) => {
  highlightEdges();
  highlightAdjacentNodes();
});
]]></script>
</svg>
