<?xml version="1.0" encoding="UTF-8" standalone="no"?>
<!DOCTYPE svg PUBLIC "-//W3C//DTD SVG 1.1//EN"
 "http://www.w3.org/Graphics/SVG/1.1/DTD/svg11.dtd">
<!-- Generated by graphviz version 2.43.0 (0)
 -->
<!-- Title: features/test/frames/test_launcher/TestLauncherViewModel.cpp Pages: 1 -->
<svg width="1148pt" height="412pt"
 viewBox="0.00 0.00 1147.97 412.00" xmlns="http://www.w3.org/2000/svg" xmlns:xlink="http://www.w3.org/1999/xlink">
<g id="graph0" class="graph" transform="scale(1 1) rotate(0) translate(4 408)">
<title>features/test/frames/test_launcher/TestLauncherViewModel.cpp</title>
<!-- Node1 -->
<g id="Node000001" class="node">
<title>Node1</title>
<g id="a_Node000001"><a xlink:title=" ">
<polygon fill="#999999" stroke="#666666" points="405.5,-404 253.5,-404 253.5,-363 405.5,-363 405.5,-404"/>
<text text-anchor="start" x="261.5" y="-392" font-family="Helvetica,sans-Serif" font-size="10.00">features/test/frames</text>
<text text-anchor="start" x="261.5" y="-381" font-family="Helvetica,sans-Serif" font-size="10.00">/test_launcher/TestLauncher</text>
<text text-anchor="middle" x="329.5" y="-370" font-family="Helvetica,sans-Serif" font-size="10.00">ViewModel.cpp</text>
</a>
</g>
</g>
<!-- Node2 -->
<g id="Node000002" class="node">
<title>Node2</title>
<g id="a_Node000002"><a xlink:href="TestLauncherViewModel_8h.html" target="_top" xlink:title=" ">
<polygon fill="white" stroke="#666666" points="143,-145.5 0,-145.5 0,-126.5 143,-126.5 143,-145.5"/>
<text text-anchor="middle" x="71.5" y="-133.5" font-family="Helvetica,sans-Serif" font-size="10.00">TestLauncherViewModel.h</text>
</a>
</g>
</g>
<!-- Node1&#45;&gt;Node2 -->
<g id="edge1_Node000001_Node000002" class="edge">
<title>Node1&#45;&gt;Node2</title>
<g id="a_edge1_Node000001_Node000002"><a xlink:title=" ">
<path fill="none" stroke="#63b8ff" d="M253.21,-372C220.56,-364.2 183.95,-350.62 157.5,-327 104.63,-279.79 82.33,-193.69 74.76,-155.77"/>
<polygon fill="#63b8ff" stroke="#63b8ff" points="78.15,-154.84 72.87,-145.65 71.27,-156.12 78.15,-154.84"/>
</a>
</g>
</g>
<!-- Node7 -->
<g id="Node000007" class="node">
<title>Node7</title>
<g id="a_Node000007"><a xlink:href="Messages_8h.html" target="_top" xlink:title=" ">
<polygon fill="white" stroke="#666666" points="382,-85 279,-85 279,-55 382,-55 382,-85"/>
<text text-anchor="start" x="287" y="-73" font-family="Helvetica,sans-Serif" font-size="10.00">src/core/Protocols</text>
<text text-anchor="middle" x="330.5" y="-62" font-family="Helvetica,sans-Serif" font-size="10.00">/Messages.h</text>
</a>
</g>
</g>
<!-- Node1&#45;&gt;Node7 -->
<g id="edge45_Node000001_Node000007" class="edge">
<title>Node1&#45;&gt;Node7</title>
<g id="a_edge45_Node000001_Node000007"><a xlink:title=" ">
<path fill="none" stroke="#63b8ff" d="M273.8,-362.89C228.31,-342.9 171.5,-307.03 171.5,-252.5 171.5,-252.5 171.5,-252.5 171.5,-195.5 171.5,-161.22 168.28,-146.23 191.5,-121 202.6,-108.94 237.25,-96.47 269.17,-86.99"/>
<polygon fill="#63b8ff" stroke="#63b8ff" points="270.33,-90.3 278.96,-84.15 268.38,-83.57 270.33,-90.3"/>
</a>
</g>
</g>
<!-- Node13 -->
<g id="Node000013" class="node">
<title>Node13</title>
<g id="a_Node000013"><a xlink:href="TxtParser_8h.html" target="_top" xlink:title=" ">
<polygon fill="white" stroke="#666666" points="339,-151 200,-151 200,-121 339,-121 339,-151"/>
<text text-anchor="start" x="208" y="-139" font-family="Helvetica,sans-Serif" font-size="10.00">src/services/TXTManager</text>
<text text-anchor="middle" x="269.5" y="-128" font-family="Helvetica,sans-Serif" font-size="10.00">/TxtParser.h</text>
</a>
</g>
</g>
<!-- Node1&#45;&gt;Node13 -->
<g id="edge15_Node000001_Node000013" class="edge">
<title>Node1&#45;&gt;Node13</title>
<g id="a_edge15_Node000001_Node000013"><a xlink:title=" ">
<path fill="none" stroke="#63b8ff" d="M324.53,-362.99C321.83,-352.36 318.46,-338.96 315.5,-327 300.81,-267.58 283.99,-197.59 275.33,-161.41"/>
<polygon fill="#63b8ff" stroke="#63b8ff" points="278.65,-160.22 272.92,-151.31 271.84,-161.85 278.65,-160.22"/>
</a>
</g>
</g>
<!-- Node14 -->
<g id="Node000014" class="node">
<title>Node14</title>
<g id="a_Node000014"><a xlink:href="UdpChannel_8h.html" target="_top" xlink:title="UDP communication channel between the microcontroller and the HMI.">
<polygon fill="white" stroke="#666666" points="662,-327 509,-327 509,-297 662,-297 662,-327"/>
<text text-anchor="start" x="517" y="-315" font-family="Helvetica,sans-Serif" font-size="10.00">src/features/communication</text>
<text text-anchor="middle" x="585.5" y="-304" font-family="Helvetica,sans-Serif" font-size="10.00">/udp/UdpChannel.h</text>
</a>
</g>
</g>
<!-- Node1&#45;&gt;Node14 -->
<g id="edge18_Node000001_Node000014" class="edge">
<title>Node1&#45;&gt;Node14</title>
<g id="a_edge18_Node000001_Node000014"><a xlink:title=" ">
<path fill="none" stroke="#63b8ff" d="M401.49,-362.96C440.02,-352.5 486.98,-339.75 523.81,-329.75"/>
<polygon fill="#63b8ff" stroke="#63b8ff" points="525.18,-333 533.92,-327 523.35,-326.25 525.18,-333"/>
</a>
</g>
</g>
<!-- Node27 -->
<g id="Node000027" class="node">
<title>Node27</title>
<g id="a_Node000027"><a xlink:href="TestBenchModel_8h.html" target="_top" xlink:title=" ">
<polygon fill="white" stroke="#666666" points="519,-145.5 396,-145.5 396,-126.5 519,-126.5 519,-145.5"/>
<text text-anchor="middle" x="457.5" y="-133.5" font-family="Helvetica,sans-Serif" font-size="10.00">../../TestBenchModel.h</text>
</a>
</g>
</g>
<!-- Node1&#45;&gt;Node27 -->
<g id="edge41_Node000001_Node000027" class="edge">
<title>Node1&#45;&gt;Node27</title>
<g id="a_edge41_Node000001_Node000027"><a xlink:title=" ">
<path fill="none" stroke="#63b8ff" d="M332.32,-362.85C335.34,-345.1 341.01,-318.54 350.5,-297 375.55,-240.16 420.64,-181.51 443.45,-153.64"/>
<polygon fill="#63b8ff" stroke="#63b8ff" points="446.34,-155.65 450.03,-145.72 440.95,-151.18 446.34,-155.65"/>
</a>
</g>
</g>
<!-- Node28 -->
<g id="Node000028" class="node">
<title>Node28</title>
<g id="a_Node000028"><a xlink:href="FileSystem_8h.html" target="_top" xlink:title="File system allow the managment of files path used in the application.">
<polygon fill="white" stroke="#666666" points="490,-327 359,-327 359,-297 490,-297 490,-327"/>
<text text-anchor="start" x="367" y="-315" font-family="Helvetica,sans-Serif" font-size="10.00">src/services/FileSystem</text>
<text text-anchor="middle" x="424.5" y="-304" font-family="Helvetica,sans-Serif" font-size="10.00">/FileSystem.h</text>
</a>
</g>
</g>
<!-- Node1&#45;&gt;Node28 -->
<g id="edge46_Node000001_Node000028" class="edge">
<title>Node1&#45;&gt;Node28</title>
<g id="a_edge46_Node000001_Node000028"><a xlink:title=" ">
<path fill="none" stroke="#63b8ff" d="M356.22,-362.96C368.88,-353.69 384,-342.63 396.79,-333.27"/>
<polygon fill="#63b8ff" stroke="#63b8ff" points="399.2,-335.84 405.21,-327.11 395.07,-330.19 399.2,-335.84"/>
</a>
</g>
</g>
<!-- Node29 -->
<g id="Node000029" class="node">
<title>Node29</title>
<g id="a_Node000029"><a xlink:title=" ">
<polygon fill="#e0e0e0" stroke="#999999" points="718.5,-321.5 680.5,-321.5 680.5,-302.5 718.5,-302.5 718.5,-321.5"/>
<text text-anchor="middle" x="699.5" y="-309.5" font-family="Helvetica,sans-Serif" font-size="10.00">QDir</text>
</a>
</g>
</g>
<!-- Node1&#45;&gt;Node29 -->
<g id="edge48_Node000001_Node000029" class="edge">
<title>Node1&#45;&gt;Node29</title>
<g id="a_edge48_Node000001_Node000029"><a xlink:title=" ">
<path fill="none" stroke="#63b8ff" d="M405.76,-376.78C476.11,-369.95 582.77,-355.64 671.5,-327 672.72,-326.61 673.96,-326.16 675.19,-325.69"/>
<polygon fill="#63b8ff" stroke="#63b8ff" points="676.74,-328.83 684.45,-321.57 673.89,-322.44 676.74,-328.83"/>
</a>
</g>
</g>
<!-- Node3 -->
<g id="Node000003" class="node">
<title>Node3</title>
<g id="a_Node000003"><a xlink:title=" ">
<polygon fill="#e0e0e0" stroke="#999999" points="103,-19 58,-19 58,0 103,0 103,-19"/>
<text text-anchor="middle" x="80.5" y="-7" font-family="Helvetica,sans-Serif" font-size="10.00">QMap</text>
</a>
</g>
</g>
<!-- Node2&#45;&gt;Node3 -->
<g id="edge2_Node000002_Node000003" class="edge">
<title>Node2&#45;&gt;Node3</title>
<g id="a_edge2_Node000002_Node000003"><a xlink:title=" ">
<path fill="none" stroke="#63b8ff" d="M72.12,-126.44C73.56,-106.54 77.16,-56.76 79.14,-29.35"/>
<polygon fill="#63b8ff" stroke="#63b8ff" points="82.65,-29.34 79.88,-19.12 75.67,-28.84 82.65,-29.34"/>
</a>
</g>
</g>
<!-- Node4 -->
<g id="Node000004" class="node">
<title>Node4</title>
<g id="a_Node000004"><a xlink:title=" ">
<polygon fill="#e0e0e0" stroke="#999999" points="179,-19 126,-19 126,0 179,0 179,-19"/>
<text text-anchor="middle" x="152.5" y="-7" font-family="Helvetica,sans-Serif" font-size="10.00">QString</text>
</a>
</g>
</g>
<!-- Node2&#45;&gt;Node4 -->
<g id="edge3_Node000002_Node000004" class="edge">
<title>Node2&#45;&gt;Node4</title>
<g id="a_edge3_Node000002_Node000004"><a xlink:title=" ">
<path fill="none" stroke="#63b8ff" d="M77.07,-126.44C90.3,-106.1 123.86,-54.53 141.41,-27.54"/>
<polygon fill="#63b8ff" stroke="#63b8ff" points="144.37,-29.41 146.89,-19.12 138.51,-25.59 144.37,-29.41"/>
</a>
</g>
</g>
<!-- Node5 -->
<g id="Node000005" class="node">
<title>Node5</title>
<g id="a_Node000005"><a xlink:title=" ">
<polygon fill="#e0e0e0" stroke="#999999" points="207.5,-79.5 137.5,-79.5 137.5,-60.5 207.5,-60.5 207.5,-79.5"/>
<text text-anchor="middle" x="172.5" y="-67.5" font-family="Helvetica,sans-Serif" font-size="10.00">QStringList</text>
</a>
</g>
</g>
<!-- Node2&#45;&gt;Node5 -->
<g id="edge4_Node000002_Node000005" class="edge">
<title>Node2&#45;&gt;Node5</title>
<g id="a_edge4_Node000002_Node000005"><a xlink:title=" ">
<path fill="none" stroke="#63b8ff" d="M85.12,-126.37C101.84,-115.78 130.41,-97.67 150.31,-85.06"/>
<polygon fill="#63b8ff" stroke="#63b8ff" points="152.2,-88.01 158.77,-79.7 148.45,-82.1 152.2,-88.01"/>
</a>
</g>
</g>
<!-- Node6 -->
<g id="Node000006" class="node">
<title>Node6</title>
<g id="a_Node000006"><a xlink:title=" ">
<polygon fill="#e0e0e0" stroke="#999999" points="485.5,-19 429.5,-19 429.5,0 485.5,0 485.5,-19"/>
<text text-anchor="middle" x="457.5" y="-7" font-family="Helvetica,sans-Serif" font-size="10.00">QObject</text>
</a>
</g>
</g>
<!-- Node2&#45;&gt;Node6 -->
<g id="edge5_Node000002_Node000006" class="edge">
<title>Node2&#45;&gt;Node6</title>
<g id="a_edge5_Node000002_Node000006"><a xlink:title=" ">
<path fill="none" stroke="#63b8ff" d="M101.24,-126.42C130.97,-117.45 177.71,-102.3 216.5,-85 241.57,-73.82 244.91,-64.94 270.5,-55 277.48,-52.29 366.64,-31.49 419.28,-19.31"/>
<polygon fill="#63b8ff" stroke="#63b8ff" points="420.33,-22.66 429.29,-17 418.76,-15.84 420.33,-22.66"/>
</a>
</g>
</g>
<!-- Node2&#45;&gt;Node7 -->
<g id="edge6_Node000002_Node000007" class="edge">
<title>Node2&#45;&gt;Node7</title>
<g id="a_edge6_Node000002_Node000007"><a xlink:title=" ">
<path fill="none" stroke="#63b8ff" d="M106.16,-126.44C147.64,-116.18 217.86,-98.83 268.71,-86.27"/>
<polygon fill="#63b8ff" stroke="#63b8ff" points="269.74,-89.62 278.61,-83.82 268.06,-82.82 269.74,-89.62"/>
</a>
</g>
</g>
<!-- Node7&#45;&gt;Node3 -->
<g id="edge14_Node000007_Node000003" class="edge">
<title>Node7&#45;&gt;Node3</title>
<g id="a_edge14_Node000007_Node000003"><a xlink:title=" ">
<path fill="none" stroke="#63b8ff" d="M278.6,-56.91C235.26,-46.8 171.84,-32 116.5,-19 115.44,-18.75 114.36,-18.5 113.27,-18.24"/>
<polygon fill="#63b8ff" stroke="#63b8ff" points="113.89,-14.79 103.35,-15.9 112.28,-21.6 113.89,-14.79"/>
</a>
</g>
</g>
<!-- Node7&#45;&gt;Node4 -->
<g id="edge12_Node000007_Node000004" class="edge">
<title>Node7&#45;&gt;Node4</title>
<g id="a_edge12_Node000007_Node000004"><a xlink:title=" ">
<path fill="none" stroke="#63b8ff" d="M287.86,-54.99C257.41,-44.98 216.91,-31.67 188.17,-22.22"/>
<polygon fill="#63b8ff" stroke="#63b8ff" points="189.12,-18.85 178.53,-19.05 186.93,-25.5 189.12,-18.85"/>
</a>
</g>
</g>
<!-- Node7&#45;&gt;Node6 -->
<g id="edge13_Node000007_Node000006" class="edge">
<title>Node7&#45;&gt;Node6</title>
<g id="a_edge13_Node000007_Node000006"><a xlink:title=" ">
<path fill="none" stroke="#63b8ff" d="M360.92,-54.99C381.73,-45.4 409.12,-32.79 429.41,-23.44"/>
<polygon fill="#63b8ff" stroke="#63b8ff" points="431.13,-26.5 438.74,-19.14 428.2,-20.14 431.13,-26.5"/>
</a>
</g>
</g>
<!-- Node8 -->
<g id="Node000008" class="node">
<title>Node8</title>
<g id="a_Node000008"><a xlink:title=" ">
<polygon fill="#e0e0e0" stroke="#999999" points="253,-19 202,-19 202,0 253,0 253,-19"/>
<text text-anchor="middle" x="227.5" y="-7" font-family="Helvetica,sans-Serif" font-size="10.00">variant</text>
</a>
</g>
</g>
<!-- Node7&#45;&gt;Node8 -->
<g id="edge7_Node000007_Node000008" class="edge">
<title>Node7&#45;&gt;Node8</title>
<g id="a_edge7_Node000007_Node000008"><a xlink:title=" ">
<path fill="none" stroke="#63b8ff" d="M305.83,-54.99C289.41,-45.66 267.95,-33.47 251.64,-24.21"/>
<polygon fill="#63b8ff" stroke="#63b8ff" points="253.13,-21.03 242.71,-19.14 249.68,-27.12 253.13,-21.03"/>
</a>
</g>
</g>
<!-- Node9 -->
<g id="Node000009" class="node">
<title>Node9</title>
<g id="a_Node000009"><a xlink:title=" ">
<polygon fill="#e0e0e0" stroke="#999999" points="1106.5,-19 1056.5,-19 1056.5,0 1106.5,0 1106.5,-19"/>
<text text-anchor="middle" x="1081.5" y="-7" font-family="Helvetica,sans-Serif" font-size="10.00">cstdint</text>
</a>
</g>
</g>
<!-- Node7&#45;&gt;Node9 -->
<g id="edge8_Node000007_Node000009" class="edge">
<title>Node7&#45;&gt;Node9</title>
<g id="a_edge8_Node000007_Node000009"><a xlink:title=" ">
<path fill="none" stroke="#63b8ff" d="M382.12,-64.98C525.27,-53.83 924.69,-22.72 1046.07,-13.26"/>
<polygon fill="#63b8ff" stroke="#63b8ff" points="1046.58,-16.73 1056.28,-12.46 1046.04,-9.75 1046.58,-16.73"/>
</a>
</g>
</g>
<!-- Node10 -->
<g id="Node000010" class="node">
<title>Node10</title>
<g id="a_Node000010"><a xlink:title=" ">
<polygon fill="#e0e0e0" stroke="#999999" points="645.5,-19 601.5,-19 601.5,0 645.5,0 645.5,-19"/>
<text text-anchor="middle" x="623.5" y="-7" font-family="Helvetica,sans-Serif" font-size="10.00">string</text>
</a>
</g>
</g>
<!-- Node7&#45;&gt;Node10 -->
<g id="edge9_Node000007_Node000010" class="edge">
<title>Node7&#45;&gt;Node10</title>
<g id="a_edge9_Node000007_Node000010"><a xlink:title=" ">
<path fill="none" stroke="#63b8ff" d="M382.21,-58.68C442.64,-46.61 540.78,-27.02 591.26,-16.94"/>
<polygon fill="#63b8ff" stroke="#63b8ff" points="592.15,-20.33 601.27,-14.94 590.78,-13.46 592.15,-20.33"/>
</a>
</g>
</g>
<!-- Node11 -->
<g id="Node000011" class="node">
<title>Node11</title>
<g id="a_Node000011"><a xlink:title=" ">
<polygon fill="#e0e0e0" stroke="#999999" points="344,-19 271,-19 271,0 344,0 344,-19"/>
<text text-anchor="middle" x="307.5" y="-7" font-family="Helvetica,sans-Serif" font-size="10.00">QByteArray</text>
</a>
</g>
</g>
<!-- Node7&#45;&gt;Node11 -->
<g id="edge10_Node000007_Node000011" class="edge">
<title>Node7&#45;&gt;Node11</title>
<g id="a_edge10_Node000007_Node000011"><a xlink:title=" ">
<path fill="none" stroke="#63b8ff" d="M324.93,-54.84C321.83,-46.95 317.94,-37.05 314.62,-28.61"/>
<polygon fill="#63b8ff" stroke="#63b8ff" points="317.86,-27.29 310.95,-19.27 311.35,-29.85 317.86,-27.29"/>
</a>
</g>
</g>
<!-- Node12 -->
<g id="Node000012" class="node">
<title>Node12</title>
<g id="a_Node000012"><a xlink:title=" ">
<polygon fill="#e0e0e0" stroke="#999999" points="411,-19 362,-19 362,0 411,0 411,-19"/>
<text text-anchor="middle" x="386.5" y="-7" font-family="Helvetica,sans-Serif" font-size="10.00">QHash</text>
</a>
</g>
</g>
<!-- Node7&#45;&gt;Node12 -->
<g id="edge11_Node000007_Node000012" class="edge">
<title>Node7&#45;&gt;Node12</title>
<g id="a_edge11_Node000007_Node000012"><a xlink:title=" ">
<path fill="none" stroke="#63b8ff" d="M344.06,-54.84C352.18,-46.35 362.55,-35.52 371,-26.69"/>
<polygon fill="#63b8ff" stroke="#63b8ff" points="373.72,-28.91 378.11,-19.27 368.67,-24.07 373.72,-28.91"/>
</a>
</g>
</g>
<!-- Node13&#45;&gt;Node6 -->
<g id="edge16_Node000013_Node000006" class="edge">
<title>Node13&#45;&gt;Node6</title>
<g id="a_edge16_Node000013_Node000006"><a xlink:title=" ">
<path fill="none" stroke="#63b8ff" d="M317.84,-120.92C341.37,-112.68 369.29,-100.77 391.5,-85 414.09,-68.96 434.27,-43.8 446.2,-27.22"/>
<polygon fill="#63b8ff" stroke="#63b8ff" points="449.08,-29.21 451.94,-19.01 443.34,-25.2 449.08,-29.21"/>
</a>
</g>
</g>
<!-- Node13&#45;&gt;Node7 -->
<g id="edge17_Node000013_Node000007" class="edge">
<title>Node13&#45;&gt;Node7</title>
<g id="a_edge17_Node000013_Node000007"><a xlink:title=" ">
<path fill="none" stroke="#63b8ff" d="M283.04,-120.8C290.94,-112.51 301.06,-101.89 309.92,-92.59"/>
<polygon fill="#63b8ff" stroke="#63b8ff" points="312.63,-94.82 317,-85.16 307.57,-89.99 312.63,-94.82"/>
</a>
</g>
</g>
<!-- Node14&#45;&gt;Node6 -->
<g id="edge19_Node000014_Node000006" class="edge">
<title>Node14&#45;&gt;Node6</title>
<g id="a_edge19_Node000014_Node000006"><a xlink:title=" ">
<path fill="none" stroke="#63b8ff" d="M585.5,-296.67C585.5,-275.14 585.5,-233.17 585.5,-197.5 585.5,-197.5 585.5,-197.5 585.5,-135 585.5,-80.42 524.95,-42.02 487.14,-23.37"/>
<polygon fill="#63b8ff" stroke="#63b8ff" points="488.6,-20.19 478.07,-19.05 485.59,-26.51 488.6,-20.19"/>
</a>
</g>
</g>
<!-- Node14&#45;&gt;Node7 -->
<g id="edge22_Node000014_Node000007" class="edge">
<title>Node14&#45;&gt;Node7</title>
<g id="a_edge22_Node000014_Node000007"><a xlink:title=" ">
<path fill="none" stroke="#63b8ff" d="M564.58,-296.98C526.67,-270.97 445.2,-212.31 387.5,-151 370.83,-133.29 355.05,-110.49 344.34,-93.76"/>
<polygon fill="#63b8ff" stroke="#63b8ff" points="347.22,-91.77 338.93,-85.17 341.29,-95.5 347.22,-91.77"/>
</a>
</g>
</g>
<!-- Node15 -->
<g id="Node000015" class="node">
<title>Node15</title>
<g id="a_Node000015"><a xlink:title=" ">
<polygon fill="#e0e0e0" stroke="#999999" points="671.5,-261 613.5,-261 613.5,-242 671.5,-242 671.5,-261"/>
<text text-anchor="middle" x="642.5" y="-249" font-family="Helvetica,sans-Serif" font-size="10.00">QThread</text>
</a>
</g>
</g>
<!-- Node14&#45;&gt;Node15 -->
<g id="edge20_Node000014_Node000015" class="edge">
<title>Node14&#45;&gt;Node15</title>
<g id="a_edge20_Node000014_Node000015"><a xlink:title=" ">
<path fill="none" stroke="#63b8ff" d="M599.3,-296.84C607.57,-288.35 618.12,-277.52 626.73,-268.69"/>
<polygon fill="#63b8ff" stroke="#63b8ff" points="629.49,-270.87 633.96,-261.27 624.47,-265.99 629.49,-270.87"/>
</a>
</g>
</g>
<!-- Node16 -->
<g id="Node000016" class="node">
<title>Node16</title>
<g id="a_Node000016"><a xlink:title=" ">
<polygon fill="#e0e0e0" stroke="#999999" points="765.5,-261 689.5,-261 689.5,-242 765.5,-242 765.5,-261"/>
<text text-anchor="middle" x="727.5" y="-249" font-family="Helvetica,sans-Serif" font-size="10.00">QUdpSocket</text>
</a>
</g>
</g>
<!-- Node14&#45;&gt;Node16 -->
<g id="edge21_Node000014_Node000016" class="edge">
<title>Node14&#45;&gt;Node16</title>
<g id="a_edge21_Node000014_Node000016"><a xlink:title=" ">
<path fill="none" stroke="#63b8ff" d="M619.51,-296.99C643.1,-287.27 674.24,-274.44 697.02,-265.06"/>
<polygon fill="#63b8ff" stroke="#63b8ff" points="698.62,-268.18 706.53,-261.14 695.95,-261.71 698.62,-268.18"/>
</a>
</g>
</g>
<!-- Node17 -->
<g id="Node000017" class="node">
<title>Node17</title>
<g id="a_Node000017"><a xlink:href="UdpLogger_8h.html" target="_top" xlink:title="High&#45;frequency binary logger for UDP telemetry frames.">
<polygon fill="white" stroke="#666666" points="1024,-261 873,-261 873,-242 1024,-242 1024,-261"/>
<text text-anchor="middle" x="948.5" y="-249" font-family="Helvetica,sans-Serif" font-size="10.00">frames_logger/UdpLogger.h</text>
</a>
</g>
</g>
<!-- Node14&#45;&gt;Node17 -->
<g id="edge23_Node000014_Node000017" class="edge">
<title>Node14&#45;&gt;Node17</title>
<g id="a_edge23_Node000014_Node000017"><a xlink:title=" ">
<path fill="none" stroke="#63b8ff" d="M662.39,-298.47C665.47,-297.98 668.51,-297.48 671.5,-297 744.72,-285.16 828.84,-271.66 884.98,-262.67"/>
<polygon fill="#63b8ff" stroke="#63b8ff" points="885.81,-266.08 895.13,-261.04 884.71,-259.17 885.81,-266.08"/>
</a>
</g>
</g>
<!-- Node17&#45;&gt;Node9 -->
<g id="edge25_Node000017_Node000009" class="edge">
<title>Node17&#45;&gt;Node9</title>
<g id="a_edge25_Node000017_Node000009"><a xlink:title=" ">
<path fill="none" stroke="#63b8ff" d="M1024.17,-245.63C1053.82,-239.95 1085.86,-228.54 1107.5,-206 1154.12,-157.43 1143.28,-117.98 1119.5,-55 1115.36,-44.02 1107.22,-33.89 1099.53,-26.08"/>
<polygon fill="#63b8ff" stroke="#63b8ff" points="1101.82,-23.43 1092.16,-19.09 1097.01,-28.51 1101.82,-23.43"/>
</a>
</g>
</g>
<!-- Node18 -->
<g id="Node000018" class="node">
<title>Node18</title>
<g id="a_Node000018"><a xlink:title=" ">
<polygon fill="#e0e0e0" stroke="#999999" points="663.5,-145.5 613.5,-145.5 613.5,-126.5 663.5,-126.5 663.5,-145.5"/>
<text text-anchor="middle" x="638.5" y="-133.5" font-family="Helvetica,sans-Serif" font-size="10.00">atomic</text>
</a>
</g>
</g>
<!-- Node17&#45;&gt;Node18 -->
<g id="edge24_Node000017_Node000018" class="edge">
<title>Node17&#45;&gt;Node18</title>
<g id="a_edge24_Node000017_Node000018"><a xlink:title=" ">
<path fill="none" stroke="#63b8ff" d="M923.62,-241.95C875.08,-225.17 764.45,-186.49 672.5,-151 671.12,-150.47 669.72,-149.92 668.3,-149.36"/>
<polygon fill="#63b8ff" stroke="#63b8ff" points="669.52,-146.08 658.94,-145.59 666.91,-152.57 669.52,-146.08"/>
</a>
</g>
</g>
<!-- Node19 -->
<g id="Node000019" class="node">
<title>Node19</title>
<g id="a_Node000019"><a xlink:title=" ">
<polygon fill="#e0e0e0" stroke="#999999" points="1098.5,-206 1050.5,-206 1050.5,-187 1098.5,-187 1098.5,-206"/>
<text text-anchor="middle" x="1074.5" y="-194" font-family="Helvetica,sans-Serif" font-size="10.00">thread</text>
</a>
</g>
</g>
<!-- Node17&#45;&gt;Node19 -->
<g id="edge26_Node000017_Node000019" class="edge">
<title>Node17&#45;&gt;Node19</title>
<g id="a_edge26_Node000017_Node000019"><a xlink:title=" ">
<path fill="none" stroke="#63b8ff" d="M968.74,-241.98C989.2,-233.38 1021.03,-219.99 1044.43,-210.15"/>
<polygon fill="#63b8ff" stroke="#63b8ff" points="1046.03,-213.27 1053.89,-206.17 1043.31,-206.82 1046.03,-213.27"/>
</a>
</g>
</g>
<!-- Node20 -->
<g id="Node000020" class="node">
<title>Node20</title>
<g id="a_Node000020"><a xlink:href="RingBuffer_8h.html" target="_top" xlink:title=" ">
<polygon fill="white" stroke="#666666" points="930.5,-206 854.5,-206 854.5,-187 930.5,-187 930.5,-206"/>
<text text-anchor="middle" x="892.5" y="-194" font-family="Helvetica,sans-Serif" font-size="10.00">RingBuffer.h</text>
</a>
</g>
</g>
<!-- Node17&#45;&gt;Node20 -->
<g id="edge27_Node000017_Node000020" class="edge">
<title>Node17&#45;&gt;Node20</title>
<g id="a_edge27_Node000017_Node000020"><a xlink:title=" ">
<path fill="none" stroke="#63b8ff" d="M939.5,-241.98C931.31,-234.23 918.99,-222.58 909.03,-213.14"/>
<polygon fill="#63b8ff" stroke="#63b8ff" points="911.33,-210.5 901.66,-206.17 906.52,-215.59 911.33,-210.5"/>
</a>
</g>
</g>
<!-- Node26 -->
<g id="Node000026" class="node">
<title>Node26</title>
<g id="a_Node000026"><a xlink:href="Writer_8h.html" target="_top" xlink:title=" ">
<polygon fill="white" stroke="#666666" points="1032,-206 977,-206 977,-187 1032,-187 1032,-206"/>
<text text-anchor="middle" x="1004.5" y="-194" font-family="Helvetica,sans-Serif" font-size="10.00">Writer.h</text>
</a>
</g>
</g>
<!-- Node17&#45;&gt;Node26 -->
<g id="edge36_Node000017_Node000026" class="edge">
<title>Node17&#45;&gt;Node26</title>
<g id="a_edge36_Node000017_Node000026"><a xlink:title=" ">
<path fill="none" stroke="#63b8ff" d="M957.5,-241.98C965.69,-234.23 978.01,-222.58 987.97,-213.14"/>
<polygon fill="#63b8ff" stroke="#63b8ff" points="990.48,-215.59 995.34,-206.17 985.67,-210.5 990.48,-215.59"/>
</a>
</g>
</g>
<!-- Node20&#45;&gt;Node9 -->
<g id="edge29_Node000020_Node000009" class="edge">
<title>Node20&#45;&gt;Node9</title>
<g id="a_edge29_Node000020_Node000009"><a xlink:title=" ">
<path fill="none" stroke="#63b8ff" d="M906.94,-186.85C920.4,-178.47 940.71,-165.01 956.5,-151 1001.92,-110.71 1047.32,-54.81 1068.75,-27.24"/>
<polygon fill="#63b8ff" stroke="#63b8ff" points="1071.74,-29.1 1075.07,-19.04 1066.2,-24.83 1071.74,-29.1"/>
</a>
</g>
</g>
<!-- Node20&#45;&gt;Node18 -->
<g id="edge31_Node000020_Node000018" class="edge">
<title>Node20&#45;&gt;Node18</title>
<g id="a_edge31_Node000020_Node000018"><a xlink:title=" ">
<path fill="none" stroke="#63b8ff" d="M854.19,-190.03C809.86,-183.18 734.95,-169.98 672.5,-151 670.62,-150.43 668.7,-149.79 666.78,-149.12"/>
<polygon fill="#63b8ff" stroke="#63b8ff" points="667.92,-145.8 657.33,-145.5 665.42,-152.34 667.92,-145.8"/>
</a>
</g>
</g>
<!-- Node21 -->
<g id="Node000021" class="node">
<title>Node21</title>
<g id="a_Node000021"><a xlink:title=" ">
<polygon fill="#e0e0e0" stroke="#999999" points="819.5,-145.5 763.5,-145.5 763.5,-126.5 819.5,-126.5 819.5,-145.5"/>
<text text-anchor="middle" x="791.5" y="-133.5" font-family="Helvetica,sans-Serif" font-size="10.00">QDebug</text>
</a>
</g>
</g>
<!-- Node20&#45;&gt;Node21 -->
<g id="edge28_Node000020_Node000021" class="edge">
<title>Node20&#45;&gt;Node21</title>
<g id="a_edge28_Node000020_Node000021"><a xlink:title=" ">
<path fill="none" stroke="#63b8ff" d="M877.6,-186.87C861.19,-177.36 834.57,-161.95 815.27,-150.77"/>
<polygon fill="#63b8ff" stroke="#63b8ff" points="816.87,-147.65 806.46,-145.67 813.36,-153.71 816.87,-147.65"/>
</a>
</g>
</g>
<!-- Node22 -->
<g id="Node000022" class="node">
<title>Node22</title>
<g id="a_Node000022"><a xlink:title=" ">
<polygon fill="#e0e0e0" stroke="#999999" points="1059,-145.5 1004,-145.5 1004,-126.5 1059,-126.5 1059,-145.5"/>
<text text-anchor="middle" x="1031.5" y="-133.5" font-family="Helvetica,sans-Serif" font-size="10.00">fstream</text>
</a>
</g>
</g>
<!-- Node20&#45;&gt;Node22 -->
<g id="edge30_Node000020_Node000022" class="edge">
<title>Node20&#45;&gt;Node22</title>
<g id="a_edge30_Node000020_Node000022"><a xlink:title=" ">
<path fill="none" stroke="#63b8ff" d="M912.71,-186.99C936.18,-177.12 975.11,-160.73 1001.96,-149.43"/>
<polygon fill="#63b8ff" stroke="#63b8ff" points="1003.4,-152.62 1011.26,-145.52 1000.69,-146.17 1003.4,-152.62"/>
</a>
</g>
</g>
<!-- Node23 -->
<g id="Node000023" class="node">
<title>Node23</title>
<g id="a_Node000023"><a xlink:title=" ">
<polygon fill="#e0e0e0" stroke="#999999" points="745.5,-145.5 681.5,-145.5 681.5,-126.5 745.5,-126.5 745.5,-145.5"/>
<text text-anchor="middle" x="713.5" y="-133.5" font-family="Helvetica,sans-Serif" font-size="10.00">algorithm</text>
</a>
</g>
</g>
<!-- Node20&#45;&gt;Node23 -->
<g id="edge32_Node000020_Node000023" class="edge">
<title>Node20&#45;&gt;Node23</title>
<g id="a_edge32_Node000020_Node000023"><a xlink:title=" ">
<path fill="none" stroke="#63b8ff" d="M865.48,-186.94C837.63,-178.08 792.97,-163.77 754.5,-151 752.27,-150.26 749.98,-149.49 747.66,-148.72"/>
<polygon fill="#63b8ff" stroke="#63b8ff" points="748.79,-145.4 738.19,-145.51 746.54,-152.03 748.79,-145.4"/>
</a>
</g>
</g>
<!-- Node24 -->
<g id="Node000024" class="node">
<title>Node24</title>
<g id="a_Node000024"><a xlink:href="Logger_8h.html" target="_top" xlink:title="Tool that provide the ability to display and log errors and debug messages.">
<polygon fill="white" stroke="#666666" points="947.5,-151 837.5,-151 837.5,-121 947.5,-121 947.5,-151"/>
<text text-anchor="start" x="845.5" y="-139" font-family="Helvetica,sans-Serif" font-size="10.00">src/services/Logger</text>
<text text-anchor="middle" x="892.5" y="-128" font-family="Helvetica,sans-Serif" font-size="10.00">/Logger.h</text>
</a>
</g>
</g>
<!-- Node20&#45;&gt;Node24 -->
<g id="edge33_Node000020_Node000024" class="edge">
<title>Node20&#45;&gt;Node24</title>
<g id="a_edge33_Node000020_Node000024"><a xlink:title=" ">
<path fill="none" stroke="#63b8ff" d="M892.5,-186.87C892.5,-180.11 892.5,-170.35 892.5,-161.26"/>
<polygon fill="#63b8ff" stroke="#63b8ff" points="896,-161.11 892.5,-151.11 889,-161.11 896,-161.11"/>
</a>
</g>
</g>
<!-- Node24&#45;&gt;Node7 -->
<g id="edge35_Node000024_Node000007" class="edge">
<title>Node24&#45;&gt;Node7</title>
<g id="a_edge35_Node000024_Node000007"><a xlink:title=" ">
<path fill="none" stroke="#63b8ff" d="M837.42,-122.53C834.41,-121.98 831.42,-121.46 828.5,-121 672.38,-96.17 486.64,-81.38 392.24,-74.9"/>
<polygon fill="#63b8ff" stroke="#63b8ff" points="392.22,-71.39 382.01,-74.21 391.75,-78.37 392.22,-71.39"/>
</a>
</g>
</g>
<!-- Node25 -->
<g id="Node000025" class="node">
<title>Node25</title>
<g id="a_Node000025"><a xlink:title=" ">
<polygon fill="#e0e0e0" stroke="#999999" points="922,-79.5 863,-79.5 863,-60.5 922,-60.5 922,-79.5"/>
<text text-anchor="middle" x="892.5" y="-67.5" font-family="Helvetica,sans-Serif" font-size="10.00">QWidget</text>
</a>
</g>
</g>
<!-- Node24&#45;&gt;Node25 -->
<g id="edge34_Node000024_Node000025" class="edge">
<title>Node24&#45;&gt;Node25</title>
<g id="a_edge34_Node000024_Node000025"><a xlink:title=" ">
<path fill="none" stroke="#63b8ff" d="M892.5,-120.8C892.5,-111.7 892.5,-99.79 892.5,-89.9"/>
<polygon fill="#63b8ff" stroke="#63b8ff" points="896,-89.84 892.5,-79.84 889,-89.84 896,-89.84"/>
</a>
</g>
</g>
<!-- Node26&#45;&gt;Node9 -->
<g id="edge37_Node000026_Node000009" class="edge">
<title>Node26&#45;&gt;Node9</title>
<g id="a_edge37_Node000026_Node000009"><a xlink:title=" ">
<path fill="none" stroke="#63b8ff" d="M1031.33,-186.85C1057.16,-177.92 1093.45,-163.55 1101.5,-151 1126.02,-112.77 1104.85,-56.73 1091.08,-28.37"/>
<polygon fill="#63b8ff" stroke="#63b8ff" points="1094.1,-26.58 1086.44,-19.25 1087.86,-29.75 1094.1,-26.58"/>
</a>
</g>
</g>
<!-- Node26&#45;&gt;Node10 -->
<g id="edge39_Node000026_Node000010" class="edge">
<title>Node26&#45;&gt;Node10</title>
<g id="a_edge39_Node000026_Node000010"><a xlink:title=" ">
<path fill="none" stroke="#63b8ff" d="M1026.29,-186.87C1041.14,-179.69 1059.66,-167.91 1068.5,-151 1074.68,-139.18 1075.59,-132.29 1068.5,-121 1023.8,-49.85 750.19,-20.9 655.62,-12.94"/>
<polygon fill="#63b8ff" stroke="#63b8ff" points="655.76,-9.44 645.51,-12.11 655.19,-16.41 655.76,-9.44"/>
</a>
</g>
</g>
<!-- Node26&#45;&gt;Node22 -->
<g id="edge38_Node000026_Node000022" class="edge">
<title>Node26&#45;&gt;Node22</title>
<g id="a_edge38_Node000026_Node000022"><a xlink:title=" ">
<path fill="none" stroke="#63b8ff" d="M1008.48,-186.87C1012.35,-178.49 1018.34,-165.51 1023.24,-154.89"/>
<polygon fill="#63b8ff" stroke="#63b8ff" points="1026.49,-156.21 1027.5,-145.67 1020.13,-153.28 1026.49,-156.21"/>
</a>
</g>
</g>
<!-- Node26&#45;&gt;Node24 -->
<g id="edge40_Node000026_Node000024" class="edge">
<title>Node26&#45;&gt;Node24</title>
<g id="a_edge40_Node000026_Node000024"><a xlink:title=" ">
<path fill="none" stroke="#63b8ff" d="M987.97,-186.87C972.35,-178.71 948.4,-166.2 928.39,-155.75"/>
<polygon fill="#63b8ff" stroke="#63b8ff" points="930.01,-152.64 919.52,-151.11 926.77,-158.85 930.01,-152.64"/>
</a>
</g>
</g>
<!-- Node27&#45;&gt;Node6 -->
<g id="edge42_Node000027_Node000006" class="edge">
<title>Node27&#45;&gt;Node6</title>
<g id="a_edge42_Node000027_Node000006"><a xlink:title=" ">
<path fill="none" stroke="#63b8ff" d="M457.5,-126.44C457.5,-106.54 457.5,-56.76 457.5,-29.35"/>
<polygon fill="#63b8ff" stroke="#63b8ff" points="461,-29.12 457.5,-19.12 454,-29.12 461,-29.12"/>
</a>
</g>
</g>
<!-- Node27&#45;&gt;Node7 -->
<g id="edge44_Node000027_Node000007" class="edge">
<title>Node27&#45;&gt;Node7</title>
<g id="a_edge44_Node000027_Node000007"><a xlink:title=" ">
<path fill="none" stroke="#63b8ff" d="M440.37,-126.37C421.84,-117.03 391.73,-101.86 367.71,-89.75"/>
<polygon fill="#63b8ff" stroke="#63b8ff" points="369.02,-86.49 358.51,-85.12 365.87,-92.74 369.02,-86.49"/>
</a>
</g>
</g>
<!-- Node27&#45;&gt;Node10 -->
<g id="edge43_Node000027_Node000010" class="edge">
<title>Node27&#45;&gt;Node10</title>
<g id="a_edge43_Node000027_Node000010"><a xlink:title=" ">
<path fill="none" stroke="#63b8ff" d="M468.91,-126.44C496.87,-105.48 569.04,-51.34 603.98,-25.14"/>
<polygon fill="#63b8ff" stroke="#63b8ff" points="606.11,-27.92 612.01,-19.12 601.91,-22.32 606.11,-27.92"/>
</a>
</g>
</g>
<!-- Node28&#45;&gt;Node6 -->
<g id="edge47_Node000028_Node000006" class="edge">
<title>Node28&#45;&gt;Node6</title>
<g id="a_edge47_Node000028_Node000006"><a xlink:title=" ">
<path fill="none" stroke="#63b8ff" d="M458.76,-296.98C495.16,-279.54 547.5,-246.02 547.5,-197.5 547.5,-197.5 547.5,-197.5 547.5,-135 547.5,-87.83 504.54,-46.41 477.99,-25.31"/>
<polygon fill="#63b8ff" stroke="#63b8ff" points="480.08,-22.51 470.01,-19.2 475.82,-28.06 480.08,-22.51"/>
</a>
</g>
</g>
</g>
</svg>
