<?xml version="1.0" encoding="UTF-8" standalone="no"?>
<!DOCTYPE svg PUBLIC "-//W3C//DTD SVG 1.1//EN"
 "http://www.w3.org/Graphics/SVG/1.1/DTD/svg11.dtd">
<!-- Generated by graphviz version 2.43.0 (0)
 -->
<!-- Title: features/test/TestTabView.cpp Pages: 1 -->
<!--zoomable 214 -->

<svg id="main" version="1.1" xmlns="http://www.w3.org/2000/svg" xmlns:xlink="http://www.w3.org/1999/xlink" xml:space="preserve" onload="init(evt)">
<style type="text/css"><![CDATA[
.node, .edge {opacity: 0.7;}
.node.selected, .edge.selected {opacity: 1;}
.edge:hover path { stroke: red; }
.edge:hover polygon { stroke: red; fill: red; }
]]></style>

<defs>
  <circle id="rim" cx="0" cy="0" r="7"/>
  <circle id="rim2" cx="0" cy="0" r="3.5"/>
  <g id="zoomPlus">
    <use xlink:href="#rim" fill="#404040"><set attributeName="fill" to="#808080" begin="zoomplus.mouseover" end="zoomplus.mouseout"/></use>
    <path d="M-4,0h8M0,-4v8" fill="none" stroke="white" stroke-width="1.5" pointer-events="none"/>
  </g>
  <g id="zoomMin">
    <use xlink:href="#rim" fill="#404040"><set attributeName="fill" to="#808080" begin="zoomminus.mouseover" end="zoomminus.mouseout"/></use>
    <path d="M-4,0h8" fill="none" stroke="white" stroke-width="1.5" pointer-events="none"/>
  </g>
  <g id="arrowUp" transform="translate(30 24)">
    <use xlink:href="#rim"/>
    <path pointer-events="none" fill="none" stroke="white" stroke-width="1.5" d="M0,-3.0v7 M-2.5,-0.5L0,-3.0L2.5,-0.5"/>
  </g>
  <g id="arrowRight" transform="rotate(90) translate(36 -43)">
    <use xlink:href="#rim"/>
    <path pointer-events="none" fill="none" stroke="white" stroke-width="1.5" d="M0,-3.0v7 M-2.5,-0.5L0,-3.0L2.5,-0.5"/>
  </g>
  <g id="arrowDown" transform="rotate(180) translate(-30 -48)">
    <use xlink:href="#rim"/>
    <path pointer-events="none" fill="none" stroke="white" stroke-width="1.5" d="M0,-3.0v7 M-2.5,-0.5L0,-3.0L2.5,-0.5"/>
  </g>
  <g id="arrowLeft" transform="rotate(270) translate(-36 17)">
    <use xlink:href="#rim"/>
    <path pointer-events="none" fill="none" stroke="white" stroke-width="1.5" d="M0,-3.0v7 M-2.5,-0.5L0,-3.0L2.5,-0.5"/>
  </g>
  <g id="resetDef">
    <use xlink:href="#rim2" fill="#404040"><set attributeName="fill" to="#808080" begin="reset.mouseover" end="reset.mouseout"/></use>
  </g>
</defs>
<script type="application/ecmascript">
var viewWidth = 2565;
var viewHeight = 214;
var sectionId = 'dynsection-0';
</script>
<script type="application/ecmascript" xlink:href="svg.min.js"/>
<svg id="graph" class="graph">
<g id="viewport">
<title>features/test/TestTabView.cpp</title>
<!-- Node1 -->
<g id="Node000001" class="node">
<title>Node1</title>
<g id="a_Node000001"><a xlink:title=" ">
<polygon fill="#999999" stroke="#666666" points="1334,-206 1173,-206 1173,-187 1334,-187 1334,-206"/>
<text text-anchor="middle" x="1253.5" y="-194" font-family="Helvetica,sans-Serif" font-size="10.00">features/test/TestTabView.cpp</text>
</a>
</g>
</g>
<!-- Node2 -->
<g id="Node000002" class="node">
<title>Node2</title>
<g id="a_Node000002"><a xlink:title=" ">
<polygon fill="#e0e0e0" stroke="#999999" points="59,-79.5 0,-79.5 0,-60.5 59,-60.5 59,-79.5"/>
<text text-anchor="middle" x="29.5" y="-67.5" font-family="Helvetica,sans-Serif" font-size="10.00">QWidget</text>
</a>
</g>
</g>
<!-- Node1&#45;&gt;Node2 -->
<g id="edge1_Node000001_Node000002" class="edge">
<title>Node1&#45;&gt;Node2</title>
<g id="a_edge1_Node000001_Node000002"><a xlink:title=" ">
<path fill="none" stroke="#63b8ff" d="M1172.82,-194.41C916.09,-190.68 132.06,-177.19 84.5,-151 60.21,-137.63 44.42,-108.4 36.24,-89.22"/>
<polygon fill="#63b8ff" stroke="#63b8ff" points="39.43,-87.76 32.48,-79.76 32.93,-90.35 39.43,-87.76"/>
</a>
</g>
</g>
<!-- Node3 -->
<g id="Node000003" class="node">
<title>Node3</title>
<g id="a_Node000003"><a xlink:title=" ">
<polygon fill="#e0e0e0" stroke="#999999" points="152,-79.5 77,-79.5 77,-60.5 152,-60.5 152,-79.5"/>
<text text-anchor="middle" x="114.5" y="-67.5" font-family="Helvetica,sans-Serif" font-size="10.00">QTabWidget</text>
</a>
</g>
</g>
<!-- Node1&#45;&gt;Node3 -->
<g id="edge2_Node000001_Node000003" class="edge">
<title>Node1&#45;&gt;Node3</title>
<g id="a_edge2_Node000001_Node000003"><a xlink:title=" ">
<path fill="none" stroke="#63b8ff" d="M1172.78,-195.43C916.03,-194.81 132.8,-189.76 95.5,-151 79.32,-134.18 91.55,-106.21 102.51,-88.2"/>
<polygon fill="#63b8ff" stroke="#63b8ff" points="105.46,-90.09 107.97,-79.8 99.59,-86.28 105.46,-90.09"/>
</a>
</g>
</g>
<!-- Node4 -->
<g id="Node000004" class="node">
<title>Node4</title>
<g id="a_Node000004"><a xlink:title=" ">
<polygon fill="#e0e0e0" stroke="#999999" points="2048,-145.5 2003,-145.5 2003,-126.5 2048,-126.5 2048,-145.5"/>
<text text-anchor="middle" x="2025.5" y="-133.5" font-family="Helvetica,sans-Serif" font-size="10.00">QFont</text>
</a>
</g>
</g>
<!-- Node1&#45;&gt;Node4 -->
<g id="edge3_Node000001_Node000004" class="edge">
<title>Node1&#45;&gt;Node4</title>
<g id="a_edge3_Node000001_Node000004"><a xlink:title=" ">
<path fill="none" stroke="#63b8ff" d="M1334.25,-193.67C1498.37,-189.45 1865.69,-177.32 1988.5,-151 1991.18,-150.43 1993.92,-149.69 1996.64,-148.86"/>
<polygon fill="#63b8ff" stroke="#63b8ff" points="1997.94,-152.11 2006.25,-145.54 1995.65,-145.5 1997.94,-152.11"/>
</a>
</g>
</g>
<!-- Node5 -->
<g id="Node000005" class="node">
<title>Node5</title>
<g id="a_Node000005"><a xlink:title=" ">
<polygon fill="#e0e0e0" stroke="#999999" points="2121,-145.5 2066,-145.5 2066,-126.5 2121,-126.5 2121,-145.5"/>
<text text-anchor="middle" x="2093.5" y="-133.5" font-family="Helvetica,sans-Serif" font-size="10.00">QFrame</text>
</a>
</g>
</g>
<!-- Node1&#45;&gt;Node5 -->
<g id="edge4_Node000001_Node000005" class="edge">
<title>Node1&#45;&gt;Node5</title>
<g id="a_edge4_Node000001_Node000005"><a xlink:title=" ">
<path fill="none" stroke="#63b8ff" d="M1334.11,-194.26C1509.58,-191.03 1921.29,-180.47 2057.5,-151 2060.02,-150.45 2062.6,-149.76 2065.16,-148.96"/>
<polygon fill="#63b8ff" stroke="#63b8ff" points="2066.53,-152.19 2074.79,-145.56 2064.19,-145.59 2066.53,-152.19"/>
</a>
</g>
</g>
<!-- Node6 -->
<g id="Node000006" class="node">
<title>Node6</title>
<g id="a_Node000006"><a xlink:title=" ">
<polygon fill="#e0e0e0" stroke="#999999" points="1953,-79.5 1870,-79.5 1870,-60.5 1953,-60.5 1953,-79.5"/>
<text text-anchor="middle" x="1911.5" y="-67.5" font-family="Helvetica,sans-Serif" font-size="10.00">QHBoxLayout</text>
</a>
</g>
</g>
<!-- Node1&#45;&gt;Node6 -->
<g id="edge5_Node000001_Node000006" class="edge">
<title>Node1&#45;&gt;Node6</title>
<g id="a_edge5_Node000001_Node000006"><a xlink:title=" ">
<path fill="none" stroke="#63b8ff" d="M1334.21,-193.31C1514.24,-188.03 1934.51,-173.36 1955.5,-151 1973.63,-131.68 1949.34,-103.49 1930.28,-86.25"/>
<polygon fill="#63b8ff" stroke="#63b8ff" points="1932.43,-83.48 1922.58,-79.58 1927.85,-88.77 1932.43,-83.48"/>
</a>
</g>
</g>
<!-- Node7 -->
<g id="Node000007" class="node">
<title>Node7</title>
<g id="a_Node000007"><a xlink:title=" ">
<polygon fill="#e0e0e0" stroke="#999999" points="1351.5,-79.5 1301.5,-79.5 1301.5,-60.5 1351.5,-60.5 1351.5,-79.5"/>
<text text-anchor="middle" x="1326.5" y="-67.5" font-family="Helvetica,sans-Serif" font-size="10.00">QLabel</text>
</a>
</g>
</g>
<!-- Node1&#45;&gt;Node7 -->
<g id="edge6_Node000001_Node000007" class="edge">
<title>Node1&#45;&gt;Node7</title>
<g id="a_edge6_Node000001_Node000007"><a xlink:title=" ">
<path fill="none" stroke="#63b8ff" d="M1172.74,-195.3C1082.69,-192.34 955.91,-178.36 1006.5,-121 1048.87,-72.96 1230.56,-101.34 1292.5,-85 1294.44,-84.49 1296.42,-83.89 1298.4,-83.23"/>
<polygon fill="#63b8ff" stroke="#63b8ff" points="1299.96,-86.39 1308.1,-79.62 1297.51,-79.83 1299.96,-86.39"/>
</a>
</g>
</g>
<!-- Node8 -->
<g id="Node000008" class="node">
<title>Node8</title>
<g id="a_Node000008"><a xlink:title=" ">
<polygon fill="#e0e0e0" stroke="#999999" points="2197.5,-145.5 2139.5,-145.5 2139.5,-126.5 2197.5,-126.5 2197.5,-145.5"/>
<text text-anchor="middle" x="2168.5" y="-133.5" font-family="Helvetica,sans-Serif" font-size="10.00">QPainter</text>
</a>
</g>
</g>
<!-- Node1&#45;&gt;Node8 -->
<g id="edge7_Node000001_Node000008" class="edge">
<title>Node1&#45;&gt;Node8</title>
<g id="a_edge7_Node000001_Node000008"><a xlink:title=" ">
<path fill="none" stroke="#63b8ff" d="M1334.31,-194.51C1521.39,-191.72 1979.74,-181.85 2130.5,-151 2133.34,-150.42 2136.25,-149.66 2139.14,-148.8"/>
<polygon fill="#63b8ff" stroke="#63b8ff" points="2140.36,-152.08 2148.71,-145.57 2138.12,-145.45 2140.36,-152.08"/>
</a>
</g>
</g>
<!-- Node9 -->
<g id="Node000009" class="node">
<title>Node9</title>
<g id="a_Node000009"><a xlink:title=" ">
<polygon fill="#e0e0e0" stroke="#999999" points="2313.5,-145.5 2215.5,-145.5 2215.5,-126.5 2313.5,-126.5 2313.5,-145.5"/>
<text text-anchor="middle" x="2264.5" y="-133.5" font-family="Helvetica,sans-Serif" font-size="10.00">QDoubleSpinBox</text>
</a>
</g>
</g>
<!-- Node1&#45;&gt;Node9 -->
<g id="edge8_Node000001_Node000009" class="edge">
<title>Node1&#45;&gt;Node9</title>
<g id="a_edge8_Node000001_Node000009"><a xlink:title=" ">
<path fill="none" stroke="#63b8ff" d="M1334.06,-193.71C1532.15,-188.99 2039.05,-174.9 2206.5,-151 2212.28,-150.17 2218.33,-149.03 2224.25,-147.76"/>
<polygon fill="#63b8ff" stroke="#63b8ff" points="2225.05,-151.16 2234.01,-145.51 2223.48,-144.34 2225.05,-151.16"/>
</a>
</g>
</g>
<!-- Node10 -->
<g id="Node000010" class="node">
<title>Node10</title>
<g id="a_Node000010"><a xlink:title=" ">
<polygon fill="#e0e0e0" stroke="#999999" points="2415.5,-145.5 2331.5,-145.5 2331.5,-126.5 2415.5,-126.5 2415.5,-145.5"/>
<text text-anchor="middle" x="2373.5" y="-133.5" font-family="Helvetica,sans-Serif" font-size="10.00">QRadioButton</text>
</a>
</g>
</g>
<!-- Node1&#45;&gt;Node10 -->
<g id="edge9_Node000001_Node000010" class="edge">
<title>Node1&#45;&gt;Node10</title>
<g id="a_edge9_Node000001_Node000010"><a xlink:title=" ">
<path fill="none" stroke="#63b8ff" d="M1334.34,-194.5C1549.44,-191.47 2132.32,-180.67 2322.5,-151 2327.24,-150.26 2332.17,-149.24 2337.01,-148.08"/>
<polygon fill="#63b8ff" stroke="#63b8ff" points="2337.95,-151.46 2346.75,-145.57 2336.19,-144.68 2337.95,-151.46"/>
</a>
</g>
</g>
<!-- Node11 -->
<g id="Node000011" class="node">
<title>Node11</title>
<g id="a_Node000011"><a xlink:title=" ">
<polygon fill="#e0e0e0" stroke="#999999" points="2485.5,-145.5 2433.5,-145.5 2433.5,-126.5 2485.5,-126.5 2485.5,-145.5"/>
<text text-anchor="middle" x="2459.5" y="-133.5" font-family="Helvetica,sans-Serif" font-size="10.00">QSlider</text>
</a>
</g>
</g>
<!-- Node1&#45;&gt;Node11 -->
<g id="edge10_Node000001_Node000011" class="edge">
<title>Node1&#45;&gt;Node11</title>
<g id="a_edge10_Node000001_Node000011"><a xlink:title=" ">
<path fill="none" stroke="#63b8ff" d="M1334.33,-196.01C1563.76,-196.89 2215.91,-195.29 2424.5,-151 2426.88,-150.5 2429.3,-149.84 2431.71,-149.1"/>
<polygon fill="#63b8ff" stroke="#63b8ff" points="2433.12,-152.31 2441.34,-145.63 2430.75,-145.72 2433.12,-152.31"/>
</a>
</g>
</g>
<!-- Node12 -->
<g id="Node000012" class="node">
<title>Node12</title>
<g id="a_Node000012"><a xlink:title=" ">
<polygon fill="#e0e0e0" stroke="#999999" points="1657.5,-79.5 1577.5,-79.5 1577.5,-60.5 1657.5,-60.5 1657.5,-79.5"/>
<text text-anchor="middle" x="1617.5" y="-67.5" font-family="Helvetica,sans-Serif" font-size="10.00">QPushButton</text>
</a>
</g>
</g>
<!-- Node1&#45;&gt;Node12 -->
<g id="edge11_Node000001_Node000012" class="edge">
<title>Node1&#45;&gt;Node12</title>
<g id="a_edge11_Node000001_Node000012"><a xlink:title=" ">
<path fill="none" stroke="#63b8ff" d="M1334.12,-193.32C1457.38,-189.15 1681.09,-177.93 1705.5,-151 1728.85,-125.24 1683.41,-98.76 1649.58,-83.65"/>
<polygon fill="#63b8ff" stroke="#63b8ff" points="1650.54,-80.25 1639.97,-79.52 1647.78,-86.68 1650.54,-80.25"/>
</a>
</g>
</g>
<!-- Node13 -->
<g id="Node000013" class="node">
<title>Node13</title>
<g id="a_Node000013"><a xlink:title=" ">
<polygon fill="#e0e0e0" stroke="#999999" points="257,-79.5 170,-79.5 170,-60.5 257,-60.5 257,-79.5"/>
<text text-anchor="middle" x="213.5" y="-67.5" font-family="Helvetica,sans-Serif" font-size="10.00">QPlainTextEdit</text>
</a>
</g>
</g>
<!-- Node1&#45;&gt;Node13 -->
<g id="edge12_Node000001_Node000013" class="edge">
<title>Node1&#45;&gt;Node13</title>
<g id="a_edge12_Node000001_Node000013"><a xlink:title=" ">
<path fill="none" stroke="#63b8ff" d="M1172.93,-194.5C939.05,-191.26 274.2,-179.57 237.5,-151 218.94,-136.55 214.26,-108.28 213.33,-89.51"/>
<polygon fill="#63b8ff" stroke="#63b8ff" points="216.83,-89.43 213.14,-79.5 209.83,-89.57 216.83,-89.43"/>
</a>
</g>
</g>
<!-- Node14 -->
<g id="Node000014" class="node">
<title>Node14</title>
<g id="a_Node000014"><a xlink:title=" ">
<polygon fill="#e0e0e0" stroke="#999999" points="2557,-145.5 2504,-145.5 2504,-126.5 2557,-126.5 2557,-145.5"/>
<text text-anchor="middle" x="2530.5" y="-133.5" font-family="Helvetica,sans-Serif" font-size="10.00">QTimer</text>
</a>
</g>
</g>
<!-- Node1&#45;&gt;Node14 -->
<g id="edge13_Node000001_Node000014" class="edge">
<title>Node1&#45;&gt;Node14</title>
<g id="a_edge13_Node000001_Node000014"><a xlink:title=" ">
<path fill="none" stroke="#63b8ff" d="M1334.41,-196.12C1573.13,-197.38 2271.74,-196.94 2494.5,-151 2497.03,-150.48 2499.61,-149.8 2502.17,-149.02"/>
<polygon fill="#63b8ff" stroke="#63b8ff" points="2503.53,-152.25 2511.8,-145.63 2501.21,-145.65 2503.53,-152.25"/>
</a>
</g>
</g>
<!-- Node15 -->
<g id="Node000015" class="node">
<title>Node15</title>
<g id="a_Node000015"><a xlink:href="TestTabView_8h.html" target="_top" xlink:title=" ">
<polygon fill="white" stroke="#666666" points="190,-145.5 105,-145.5 105,-126.5 190,-126.5 190,-145.5"/>
<text text-anchor="middle" x="147.5" y="-133.5" font-family="Helvetica,sans-Serif" font-size="10.00">TestTabView.h</text>
</a>
</g>
</g>
<!-- Node1&#45;&gt;Node15 -->
<g id="edge14_Node000001_Node000015" class="edge">
<title>Node1&#45;&gt;Node15</title>
<g id="a_edge14_Node000001_Node000015"><a xlink:title=" ">
<path fill="none" stroke="#63b8ff" d="M1172.68,-194.15C960.48,-190.26 391.05,-177.6 204.5,-151 198.95,-150.21 193.16,-149.11 187.48,-147.88"/>
<polygon fill="#63b8ff" stroke="#63b8ff" points="187.99,-144.4 177.45,-145.54 186.4,-151.22 187.99,-144.4"/>
</a>
</g>
</g>
<!-- Node17 -->
<g id="Node000017" class="node">
<title>Node17</title>
<g id="a_Node000017"><a xlink:href="EmergencyControlsWidget_8h.html" target="_top" xlink:title=" ">
<polygon fill="white" stroke="#666666" points="1696.5,-151 1538.5,-151 1538.5,-121 1696.5,-121 1696.5,-151"/>
<text text-anchor="start" x="1546.5" y="-139" font-family="Helvetica,sans-Serif" font-size="10.00">frames/emergency_controls</text>
<text text-anchor="middle" x="1617.5" y="-128" font-family="Helvetica,sans-Serif" font-size="10.00">/EmergencyControlsWidget.h</text>
</a>
</g>
</g>
<!-- Node1&#45;&gt;Node17 -->
<g id="edge19_Node000001_Node000017" class="edge">
<title>Node1&#45;&gt;Node17</title>
<g id="a_edge19_Node000001_Node000017"><a xlink:title=" ">
<path fill="none" stroke="#63b8ff" d="M1306.43,-186.99C1364.5,-177.66 1458.69,-162.52 1528.23,-151.35"/>
<polygon fill="#63b8ff" stroke="#63b8ff" points="1528.99,-154.77 1538.31,-149.73 1527.88,-147.86 1528.99,-154.77"/>
</a>
</g>
</g>
<!-- Node18 -->
<g id="Node000018" class="node">
<title>Node18</title>
<g id="a_Node000018"><a xlink:href="EmergencyControlsViewModel_8h.html" target="_top" xlink:title=" ">
<polygon fill="white" stroke="#666666" points="871.5,-85 693.5,-85 693.5,-55 871.5,-55 871.5,-85"/>
<text text-anchor="start" x="701.5" y="-73" font-family="Helvetica,sans-Serif" font-size="10.00">frames/emergency_controls</text>
<text text-anchor="middle" x="782.5" y="-62" font-family="Helvetica,sans-Serif" font-size="10.00">/EmergencyControlsViewModel.h</text>
</a>
</g>
</g>
<!-- Node1&#45;&gt;Node18 -->
<g id="edge22_Node000001_Node000018" class="edge">
<title>Node1&#45;&gt;Node18</title>
<g id="a_edge22_Node000001_Node000018"><a xlink:title=" ">
<path fill="none" stroke="#63b8ff" d="M1172.83,-191.75C1054.15,-185.58 843.46,-171.84 815.5,-151 797.88,-137.87 789.62,-113.62 785.78,-95.25"/>
<polygon fill="#63b8ff" stroke="#63b8ff" points="789.19,-94.47 783.99,-85.24 782.3,-95.7 789.19,-94.47"/>
</a>
</g>
</g>
<!-- Node20 -->
<g id="Node000020" class="node">
<title>Node20</title>
<g id="a_Node000020"><a xlink:href="ActuatorControlWidget_8h.html" target="_top" xlink:title=" ">
<polygon fill="white" stroke="#666666" points="1520.5,-145.5 1346.5,-145.5 1346.5,-126.5 1520.5,-126.5 1520.5,-145.5"/>
<text text-anchor="middle" x="1433.5" y="-133.5" font-family="Helvetica,sans-Serif" font-size="10.00">frames/ActuatorControlWidget.h</text>
</a>
</g>
</g>
<!-- Node1&#45;&gt;Node20 -->
<g id="edge24_Node000001_Node000020" class="edge">
<title>Node1&#45;&gt;Node20</title>
<g id="a_edge24_Node000001_Node000020"><a xlink:title=" ">
<path fill="none" stroke="#63b8ff" d="M1279.67,-186.99C1310.73,-176.9 1362.69,-160.01 1397.52,-148.69"/>
<polygon fill="#63b8ff" stroke="#63b8ff" points="1398.87,-151.94 1407.29,-145.52 1396.7,-145.28 1398.87,-151.94"/>
</a>
</g>
</g>
<!-- Node21 -->
<g id="Node000021" class="node">
<title>Node21</title>
<g id="a_Node000021"><a xlink:href="CountdownClockWidget_8h.html" target="_top" xlink:title=" ">
<polygon fill="white" stroke="#666666" points="1160,-151 1015,-151 1015,-121 1160,-121 1160,-151"/>
<text text-anchor="start" x="1023" y="-139" font-family="Helvetica,sans-Serif" font-size="10.00">frames/countdown_clock</text>
<text text-anchor="middle" x="1087.5" y="-128" font-family="Helvetica,sans-Serif" font-size="10.00">/CountdownClockWidget.h</text>
</a>
</g>
</g>
<!-- Node1&#45;&gt;Node21 -->
<g id="edge27_Node000001_Node000021" class="edge">
<title>Node1&#45;&gt;Node21</title>
<g id="a_edge27_Node000001_Node000021"><a xlink:title=" ">
<path fill="none" stroke="#63b8ff" d="M1229.36,-186.99C1205.26,-178.5 1167.53,-165.2 1137.03,-154.45"/>
<polygon fill="#63b8ff" stroke="#63b8ff" points="1138,-151.09 1127.41,-151.06 1135.68,-157.69 1138,-151.09"/>
</a>
</g>
</g>
<!-- Node22 -->
<g id="Node000022" class="node">
<title>Node22</title>
<g id="a_Node000022"><a xlink:href="CountDownClockViewModel_8h.html" target="_top" xlink:title=" ">
<polygon fill="white" stroke="#666666" points="1093.5,-85 927.5,-85 927.5,-55 1093.5,-55 1093.5,-85"/>
<text text-anchor="start" x="935.5" y="-73" font-family="Helvetica,sans-Serif" font-size="10.00">frames/countdown_clock</text>
<text text-anchor="middle" x="1010.5" y="-62" font-family="Helvetica,sans-Serif" font-size="10.00">/CountDownClockViewModel.h</text>
</a>
</g>
</g>
<!-- Node1&#45;&gt;Node22 -->
<g id="edge29_Node000001_Node000022" class="edge">
<title>Node1&#45;&gt;Node22</title>
<g id="a_edge29_Node000001_Node000022"><a xlink:title=" ">
<path fill="none" stroke="#63b8ff" d="M1172.87,-192.75C1056.27,-187.93 852.01,-175.99 829.5,-151 796.51,-114.36 857.39,-93.66 917.26,-82.54"/>
<polygon fill="#63b8ff" stroke="#63b8ff" points="918,-85.97 927.23,-80.77 916.77,-79.07 918,-85.97"/>
</a>
</g>
</g>
<!-- Node23 -->
<g id="Node000023" class="node">
<title>Node23</title>
<g id="a_Node000023"><a xlink:href="TestLaunchWidget_8h.html" target="_top" xlink:title=" ">
<polygon fill="white" stroke="#666666" points="958.5,-151 838.5,-151 838.5,-121 958.5,-121 958.5,-151"/>
<text text-anchor="start" x="846.5" y="-139" font-family="Helvetica,sans-Serif" font-size="10.00">frames/test_launcher</text>
<text text-anchor="middle" x="898.5" y="-128" font-family="Helvetica,sans-Serif" font-size="10.00">/TestLaunchWidget.h</text>
</a>
</g>
</g>
<!-- Node1&#45;&gt;Node23 -->
<g id="edge31_Node000001_Node000023" class="edge">
<title>Node1&#45;&gt;Node23</title>
<g id="a_edge31_Node000001_Node000023"><a xlink:title=" ">
<path fill="none" stroke="#63b8ff" d="M1196.37,-186.96C1139.53,-178.35 1049.88,-164.44 972.5,-151 971.23,-150.78 969.95,-150.56 968.66,-150.33"/>
<polygon fill="#63b8ff" stroke="#63b8ff" points="969.11,-146.85 958.65,-148.54 967.87,-153.74 969.11,-146.85"/>
</a>
</g>
</g>
<!-- Node27 -->
<g id="Node000027" class="node">
<title>Node27</title>
<g id="a_Node000027"><a xlink:href="TestLauncherViewModel_8h.html" target="_top" xlink:title=" ">
<polygon fill="white" stroke="#666666" points="744.5,-151 598.5,-151 598.5,-121 744.5,-121 744.5,-151"/>
<text text-anchor="start" x="606.5" y="-139" font-family="Helvetica,sans-Serif" font-size="10.00">frames/test_launcher</text>
<text text-anchor="middle" x="671.5" y="-128" font-family="Helvetica,sans-Serif" font-size="10.00">/TestLauncherViewModel.h</text>
</a>
</g>
</g>
<!-- Node1&#45;&gt;Node27 -->
<g id="edge38_Node000001_Node000027" class="edge">
<title>Node1&#45;&gt;Node27</title>
<g id="a_edge38_Node000001_Node000027"><a xlink:title=" ">
<path fill="none" stroke="#63b8ff" d="M1172.72,-189.98C1074.57,-182.87 904.05,-169.23 758.5,-151 757.22,-150.84 755.93,-150.67 754.63,-150.51"/>
<polygon fill="#63b8ff" stroke="#63b8ff" points="754.93,-147.01 744.55,-149.13 753.99,-153.95 754.93,-147.01"/>
</a>
</g>
</g>
<!-- Node36 -->
<g id="Node000036" class="node">
<title>Node36</title>
<g id="a_Node000036"><a xlink:href="TankPressureControlFrameWidget_8h.html" target="_top" xlink:title=" ">
<polygon fill="white" stroke="#666666" points="1946.5,-151 1752.5,-151 1752.5,-121 1946.5,-121 1946.5,-151"/>
<text text-anchor="start" x="1760.5" y="-139" font-family="Helvetica,sans-Serif" font-size="10.00">frames/tank_pressure</text>
<text text-anchor="middle" x="1849.5" y="-128" font-family="Helvetica,sans-Serif" font-size="10.00">/TankPressureControlFrameWidget.h</text>
</a>
</g>
</g>
<!-- Node1&#45;&gt;Node36 -->
<g id="edge52_Node000001_Node000036" class="edge">
<title>Node1&#45;&gt;Node36</title>
<g id="a_edge52_Node000001_Node000036"><a xlink:title=" ">
<path fill="none" stroke="#63b8ff" d="M1334.25,-188.94C1430.58,-180.91 1596.44,-166.47 1738.5,-151 1739.78,-150.86 1741.06,-150.72 1742.35,-150.58"/>
<polygon fill="#63b8ff" stroke="#63b8ff" points="1742.82,-154.05 1752.36,-149.44 1742.03,-147.09 1742.82,-154.05"/>
</a>
</g>
</g>
<!-- Node37 -->
<g id="Node000037" class="node">
<title>Node37</title>
<g id="a_Node000037"><a xlink:href="TvcControlWidget_8h.html" target="_top" xlink:title=" ">
<polygon fill="white" stroke="#666666" points="1328.5,-145.5 1178.5,-145.5 1178.5,-126.5 1328.5,-126.5 1328.5,-145.5"/>
<text text-anchor="middle" x="1253.5" y="-133.5" font-family="Helvetica,sans-Serif" font-size="10.00">frames/TvcControlWidget.h</text>
</a>
</g>
</g>
<!-- Node1&#45;&gt;Node37 -->
<g id="edge56_Node000001_Node000037" class="edge">
<title>Node1&#45;&gt;Node37</title>
<g id="a_edge56_Node000001_Node000037"><a xlink:title=" ">
<path fill="none" stroke="#63b8ff" d="M1253.5,-186.87C1253.5,-178.75 1253.5,-166.31 1253.5,-155.89"/>
<polygon fill="#63b8ff" stroke="#63b8ff" points="1257,-155.67 1253.5,-145.67 1250,-155.67 1257,-155.67"/>
</a>
</g>
</g>
<!-- Node38 -->
<g id="Node000038" class="node">
<title>Node38</title>
<g id="a_Node000038"><a xlink:href="LogTerminalWidget_8h.html" target="_top" xlink:title=" ">
<polygon fill="white" stroke="#666666" points="404.5,-151 246.5,-151 246.5,-121 404.5,-121 404.5,-151"/>
<text text-anchor="start" x="254.5" y="-139" font-family="Helvetica,sans-Serif" font-size="10.00">frames/terminal/LogTerminal</text>
<text text-anchor="middle" x="325.5" y="-128" font-family="Helvetica,sans-Serif" font-size="10.00">Widget.h</text>
</a>
</g>
</g>
<!-- Node1&#45;&gt;Node38 -->
<g id="edge58_Node000001_Node000038" class="edge">
<title>Node1&#45;&gt;Node38</title>
<g id="a_edge58_Node000001_Node000038"><a xlink:title=" ">
<path fill="none" stroke="#63b8ff" d="M1172.78,-194.04C1024.58,-190.73 699,-180.61 414.7,-151.05"/>
<polygon fill="#63b8ff" stroke="#63b8ff" points="414.91,-147.55 404.6,-149.99 414.18,-154.51 414.91,-147.55"/>
</a>
</g>
</g>
<!-- Node39 -->
<g id="Node000039" class="node">
<title>Node39</title>
<g id="a_Node000039"><a xlink:href="LogTerminalViewModel_8h.html" target="_top" xlink:title=" ">
<polygon fill="white" stroke="#666666" points="580.5,-151 422.5,-151 422.5,-121 580.5,-121 580.5,-151"/>
<text text-anchor="start" x="430.5" y="-139" font-family="Helvetica,sans-Serif" font-size="10.00">frames/terminal/LogTerminal</text>
<text text-anchor="middle" x="501.5" y="-128" font-family="Helvetica,sans-Serif" font-size="10.00">ViewModel.h</text>
</a>
</g>
</g>
<!-- Node1&#45;&gt;Node39 -->
<g id="edge61_Node000001_Node000039" class="edge">
<title>Node1&#45;&gt;Node39</title>
<g id="a_edge61_Node000001_Node000039"><a xlink:title=" ">
<path fill="none" stroke="#63b8ff" d="M1172.8,-192.46C1049.5,-187.29 806.66,-175.03 590.55,-151.05"/>
<polygon fill="#63b8ff" stroke="#63b8ff" points="590.94,-147.57 580.61,-149.93 590.16,-154.52 590.94,-147.57"/>
</a>
</g>
</g>
<!-- Node15&#45;&gt;Node2 -->
<g id="edge15_Node000015_Node000002" class="edge">
<title>Node15&#45;&gt;Node2</title>
<g id="a_edge15_Node000015_Node000002"><a xlink:title=" ">
<path fill="none" stroke="#63b8ff" d="M131.59,-126.37C111.79,-115.63 77.77,-97.18 54.49,-84.55"/>
<polygon fill="#63b8ff" stroke="#63b8ff" points="56,-81.39 45.54,-79.7 52.66,-87.54 56,-81.39"/>
</a>
</g>
</g>
<!-- Node15&#45;&gt;Node3 -->
<g id="edge16_Node000015_Node000003" class="edge">
<title>Node15&#45;&gt;Node3</title>
<g id="a_edge16_Node000015_Node000003"><a xlink:title=" ">
<path fill="none" stroke="#63b8ff" d="M143.05,-126.37C138.11,-116.78 129.99,-101.05 123.68,-88.8"/>
<polygon fill="#63b8ff" stroke="#63b8ff" points="126.79,-87.19 119.09,-79.91 120.56,-90.4 126.79,-87.19"/>
</a>
</g>
</g>
<!-- Node15&#45;&gt;Node13 -->
<g id="edge18_Node000015_Node000013" class="edge">
<title>Node15&#45;&gt;Node13</title>
<g id="a_edge18_Node000015_Node000013"><a xlink:title=" ">
<path fill="none" stroke="#63b8ff" d="M156.4,-126.37C166.77,-116.31 184.13,-99.48 196.99,-87.01"/>
<polygon fill="#63b8ff" stroke="#63b8ff" points="199.57,-89.38 204.32,-79.91 194.7,-84.35 199.57,-89.38"/>
</a>
</g>
</g>
<!-- Node16 -->
<g id="Node000016" class="node">
<title>Node16</title>
<g id="a_Node000016"><a xlink:title=" ">
<polygon fill="#e0e0e0" stroke="#999999" points="352,-79.5 275,-79.5 275,-60.5 352,-60.5 352,-79.5"/>
<text text-anchor="middle" x="313.5" y="-67.5" font-family="Helvetica,sans-Serif" font-size="10.00">QComboBox</text>
</a>
</g>
</g>
<!-- Node15&#45;&gt;Node16 -->
<g id="edge17_Node000015_Node000016" class="edge">
<title>Node15&#45;&gt;Node16</title>
<g id="a_edge17_Node000015_Node000016"><a xlink:title=" ">
<path fill="none" stroke="#63b8ff" d="M169.89,-126.37C198.68,-115.27 248.87,-95.92 281.64,-83.28"/>
<polygon fill="#63b8ff" stroke="#63b8ff" points="283.13,-86.46 291.2,-79.6 280.61,-79.93 283.13,-86.46"/>
</a>
</g>
</g>
<!-- Node17&#45;&gt;Node7 -->
<g id="edge21_Node000017_Node000007" class="edge">
<title>Node17&#45;&gt;Node7</title>
<g id="a_edge21_Node000017_Node000007"><a xlink:title=" ">
<path fill="none" stroke="#63b8ff" d="M1553.64,-120.95C1494.56,-107.96 1408.94,-89.13 1361.49,-78.69"/>
<polygon fill="#63b8ff" stroke="#63b8ff" points="1362.2,-75.27 1351.68,-76.54 1360.7,-82.1 1362.2,-75.27"/>
</a>
</g>
</g>
<!-- Node17&#45;&gt;Node12 -->
<g id="edge20_Node000017_Node000012" class="edge">
<title>Node17&#45;&gt;Node12</title>
<g id="a_edge20_Node000017_Node000012"><a xlink:title=" ">
<path fill="none" stroke="#63b8ff" d="M1617.5,-120.8C1617.5,-111.7 1617.5,-99.79 1617.5,-89.9"/>
<polygon fill="#63b8ff" stroke="#63b8ff" points="1621,-89.84 1617.5,-79.84 1614,-89.84 1621,-89.84"/>
</a>
</g>
</g>
<!-- Node19 -->
<g id="Node000019" class="node">
<title>Node19</title>
<g id="a_Node000019"><a xlink:title=" ">
<polygon fill="#e0e0e0" stroke="#999999" points="693.5,-19 637.5,-19 637.5,0 693.5,0 693.5,-19"/>
<text text-anchor="middle" x="665.5" y="-7" font-family="Helvetica,sans-Serif" font-size="10.00">QObject</text>
</a>
</g>
</g>
<!-- Node18&#45;&gt;Node19 -->
<g id="edge23_Node000018_Node000019" class="edge">
<title>Node18&#45;&gt;Node19</title>
<g id="a_edge23_Node000018_Node000019"><a xlink:title=" ">
<path fill="none" stroke="#63b8ff" d="M754.48,-54.99C735.48,-45.49 710.53,-33.02 691.89,-23.69"/>
<polygon fill="#63b8ff" stroke="#63b8ff" points="693.29,-20.48 682.78,-19.14 690.16,-26.74 693.29,-20.48"/>
</a>
</g>
</g>
<!-- Node20&#45;&gt;Node7 -->
<g id="edge26_Node000020_Node000007" class="edge">
<title>Node20&#45;&gt;Node7</title>
<g id="a_edge26_Node000020_Node000007"><a xlink:title=" ">
<path fill="none" stroke="#63b8ff" d="M1419.07,-126.37C1401.28,-115.73 1370.82,-97.51 1349.72,-84.89"/>
<polygon fill="#63b8ff" stroke="#63b8ff" points="1351.42,-81.83 1341.04,-79.7 1347.83,-87.84 1351.42,-81.83"/>
</a>
</g>
</g>
<!-- Node20&#45;&gt;Node12 -->
<g id="edge25_Node000020_Node000012" class="edge">
<title>Node20&#45;&gt;Node12</title>
<g id="a_edge25_Node000020_Node000012"><a xlink:title=" ">
<path fill="none" stroke="#63b8ff" d="M1458.32,-126.37C1490.5,-115.17 1546.82,-95.58 1583.12,-82.96"/>
<polygon fill="#63b8ff" stroke="#63b8ff" points="1584.49,-86.19 1592.78,-79.6 1582.19,-79.58 1584.49,-86.19"/>
</a>
</g>
</g>
<!-- Node21&#45;&gt;Node7 -->
<g id="edge28_Node000021_Node000007" class="edge">
<title>Node21&#45;&gt;Node7</title>
<g id="a_edge28_Node000021_Node000007"><a xlink:title=" ">
<path fill="none" stroke="#63b8ff" d="M1156.09,-121C1196.26,-112.12 1247.74,-99.58 1292.5,-85 1294.17,-84.46 1295.87,-83.87 1297.58,-83.25"/>
<polygon fill="#63b8ff" stroke="#63b8ff" points="1299.2,-86.38 1307.27,-79.51 1296.68,-79.85 1299.2,-86.38"/>
</a>
</g>
</g>
<!-- Node22&#45;&gt;Node19 -->
<g id="edge30_Node000022_Node000019" class="edge">
<title>Node22&#45;&gt;Node19</title>
<g id="a_edge30_Node000022_Node000019"><a xlink:title=" ">
<path fill="none" stroke="#63b8ff" d="M927.86,-54.99C856.85,-42.95 757.64,-26.12 703.85,-17"/>
<polygon fill="#63b8ff" stroke="#63b8ff" points="704.16,-13.51 693.72,-15.28 702.99,-20.41 704.16,-13.51"/>
</a>
</g>
</g>
<!-- Node23&#45;&gt;Node7 -->
<g id="edge32_Node000023_Node000007" class="edge">
<title>Node23&#45;&gt;Node7</title>
<g id="a_edge32_Node000023_Node000007"><a xlink:title=" ">
<path fill="none" stroke="#63b8ff" d="M958.61,-123.24C963.3,-122.44 967.97,-121.68 972.5,-121 1114.02,-99.68 1153.88,-120.59 1292.5,-85 1294.66,-84.45 1296.86,-83.78 1299.06,-83.05"/>
<polygon fill="#63b8ff" stroke="#63b8ff" points="1300.34,-86.31 1308.47,-79.52 1297.88,-79.75 1300.34,-86.31"/>
</a>
</g>
</g>
<!-- Node23&#45;&gt;Node12 -->
<g id="edge33_Node000023_Node000012" class="edge">
<title>Node23&#45;&gt;Node12</title>
<g id="a_edge33_Node000023_Node000012"><a xlink:title=" ">
<path fill="none" stroke="#63b8ff" d="M958.71,-126.68C974.26,-124.68 990.99,-122.64 1006.5,-121 1214.22,-99.05 1462.56,-81.37 1567.15,-74.31"/>
<polygon fill="#63b8ff" stroke="#63b8ff" points="1567.66,-77.78 1577.41,-73.62 1567.19,-70.8 1567.66,-77.78"/>
</a>
</g>
</g>
<!-- Node23&#45;&gt;Node16 -->
<g id="edge37_Node000023_Node000016" class="edge">
<title>Node23&#45;&gt;Node16</title>
<g id="a_edge37_Node000023_Node000016"><a xlink:title=" ">
<path fill="none" stroke="#63b8ff" d="M838.19,-129.11C812.14,-126.58 781.32,-123.62 753.5,-121 578.87,-104.57 532.73,-118.2 360.5,-85 356.77,-84.28 352.91,-83.39 349.08,-82.4"/>
<polygon fill="#63b8ff" stroke="#63b8ff" points="349.7,-78.94 339.13,-79.63 347.83,-85.68 349.7,-78.94"/>
</a>
</g>
</g>
<!-- Node24 -->
<g id="Node000024" class="node">
<title>Node24</title>
<g id="a_Node000024"><a xlink:title=" ">
<polygon fill="#e0e0e0" stroke="#999999" points="1187.5,-79.5 1149.5,-79.5 1149.5,-60.5 1187.5,-60.5 1187.5,-79.5"/>
<text text-anchor="middle" x="1168.5" y="-67.5" font-family="Helvetica,sans-Serif" font-size="10.00">QDir</text>
</a>
</g>
</g>
<!-- Node23&#45;&gt;Node24 -->
<g id="edge34_Node000023_Node000024" class="edge">
<title>Node23&#45;&gt;Node24</title>
<g id="a_edge34_Node000023_Node000024"><a xlink:title=" ">
<path fill="none" stroke="#63b8ff" d="M958.73,-122.92C1023.29,-109.88 1118.78,-90.26 1135.5,-85 1137.13,-84.49 1138.8,-83.92 1140.46,-83.32"/>
<polygon fill="#63b8ff" stroke="#63b8ff" points="1141.85,-86.54 1149.89,-79.64 1139.3,-80.02 1141.85,-86.54"/>
</a>
</g>
</g>
<!-- Node25 -->
<g id="Node000025" class="node">
<title>Node25</title>
<g id="a_Node000025"><a xlink:title=" ">
<polygon fill="#e0e0e0" stroke="#999999" points="1283,-79.5 1206,-79.5 1206,-60.5 1283,-60.5 1283,-79.5"/>
<text text-anchor="middle" x="1244.5" y="-67.5" font-family="Helvetica,sans-Serif" font-size="10.00">QGridLayout</text>
</a>
</g>
</g>
<!-- Node23&#45;&gt;Node25 -->
<g id="edge35_Node000023_Node000025" class="edge">
<title>Node23&#45;&gt;Node25</title>
<g id="a_edge35_Node000023_Node000025"><a xlink:title=" ">
<path fill="none" stroke="#63b8ff" d="M958.65,-123.48C963.33,-122.62 967.99,-121.79 972.5,-121 1071.83,-103.63 1098.13,-107.16 1196.5,-85 1200.14,-84.18 1203.92,-83.24 1207.68,-82.24"/>
<polygon fill="#63b8ff" stroke="#63b8ff" points="1208.79,-85.56 1217.49,-79.52 1206.92,-78.82 1208.79,-85.56"/>
</a>
</g>
</g>
<!-- Node26 -->
<g id="Node000026" class="node">
<title>Node26</title>
<g id="a_Node000026"><a xlink:title=" ">
<polygon fill="#e0e0e0" stroke="#999999" points="922,-19 877,-19 877,0 922,0 922,-19"/>
<text text-anchor="middle" x="899.5" y="-7" font-family="Helvetica,sans-Serif" font-size="10.00">QMap</text>
</a>
</g>
</g>
<!-- Node23&#45;&gt;Node26 -->
<g id="edge36_Node000023_Node000026" class="edge">
<title>Node23&#45;&gt;Node26</title>
<g id="a_edge36_Node000023_Node000026"><a xlink:title=" ">
<path fill="none" stroke="#63b8ff" d="M958.7,-122.14C1017.21,-109.35 1097.94,-90.82 1102.5,-85 1110.73,-74.51 1110.86,-65.39 1102.5,-55 1081.5,-28.9 984.14,-17.25 932.26,-12.82"/>
<polygon fill="#63b8ff" stroke="#63b8ff" points="932.48,-9.32 922.23,-12 931.91,-16.3 932.48,-9.32"/>
</a>
</g>
</g>
<!-- Node27&#45;&gt;Node19 -->
<g id="edge42_Node000027_Node000019" class="edge">
<title>Node27&#45;&gt;Node19</title>
<g id="a_edge42_Node000027_Node000019"><a xlink:title=" ">
<path fill="none" stroke="#63b8ff" d="M670.81,-120.72C669.72,-98.12 667.6,-54.12 666.4,-29.09"/>
<polygon fill="#63b8ff" stroke="#63b8ff" points="669.89,-28.89 665.91,-19.07 662.9,-29.23 669.89,-28.89"/>
</a>
</g>
</g>
<!-- Node27&#45;&gt;Node26 -->
<g id="edge39_Node000027_Node000026" class="edge">
<title>Node27&#45;&gt;Node26</title>
<g id="a_edge39_Node000027_Node000026"><a xlink:title=" ">
<path fill="none" stroke="#63b8ff" d="M744.71,-125.62C796.96,-117.46 861.27,-103.95 880.5,-85 895.18,-70.54 899.06,-46.43 899.83,-29.56"/>
<polygon fill="#63b8ff" stroke="#63b8ff" points="903.34,-29.3 899.96,-19.25 896.34,-29.21 903.34,-29.3"/>
</a>
</g>
</g>
<!-- Node28 -->
<g id="Node000028" class="node">
<title>Node28</title>
<g id="a_Node000028"><a xlink:title=" ">
<polygon fill="#e0e0e0" stroke="#999999" points="586,-19 533,-19 533,0 586,0 586,-19"/>
<text text-anchor="middle" x="559.5" y="-7" font-family="Helvetica,sans-Serif" font-size="10.00">QString</text>
</a>
</g>
</g>
<!-- Node27&#45;&gt;Node28 -->
<g id="edge40_Node000027_Node000028" class="edge">
<title>Node27&#45;&gt;Node28</title>
<g id="a_edge40_Node000027_Node000028"><a xlink:title=" ">
<path fill="none" stroke="#63b8ff" d="M607.13,-120.93C588.24,-113.49 569.68,-102.17 558.5,-85 547.72,-68.44 550.16,-45.12 553.88,-29"/>
<polygon fill="#63b8ff" stroke="#63b8ff" points="557.31,-29.73 556.52,-19.16 550.55,-27.92 557.31,-29.73"/>
</a>
</g>
</g>
<!-- Node29 -->
<g id="Node000029" class="node">
<title>Node29</title>
<g id="a_Node000029"><a xlink:title=" ">
<polygon fill="#e0e0e0" stroke="#999999" points="637.5,-79.5 567.5,-79.5 567.5,-60.5 637.5,-60.5 637.5,-79.5"/>
<text text-anchor="middle" x="602.5" y="-67.5" font-family="Helvetica,sans-Serif" font-size="10.00">QStringList</text>
</a>
</g>
</g>
<!-- Node27&#45;&gt;Node29 -->
<g id="edge41_Node000027_Node000029" class="edge">
<title>Node27&#45;&gt;Node29</title>
<g id="a_edge41_Node000027_Node000029"><a xlink:title=" ">
<path fill="none" stroke="#63b8ff" d="M656.19,-120.8C645.32,-110.72 630.74,-97.19 619.51,-86.78"/>
<polygon fill="#63b8ff" stroke="#63b8ff" points="621.75,-84.08 612.04,-79.84 616.99,-89.21 621.75,-84.08"/>
</a>
</g>
</g>
<!-- Node30 -->
<g id="Node000030" class="node">
<title>Node30</title>
<g id="a_Node000030"><a xlink:href="Messages_8h.html" target="_top" xlink:title=" ">
<polygon fill="white" stroke="#666666" points="473,-85 370,-85 370,-55 473,-55 473,-85"/>
<text text-anchor="start" x="378" y="-73" font-family="Helvetica,sans-Serif" font-size="10.00">src/core/Protocols</text>
<text text-anchor="middle" x="421.5" y="-62" font-family="Helvetica,sans-Serif" font-size="10.00">/Messages.h</text>
</a>
</g>
</g>
<!-- Node27&#45;&gt;Node30 -->
<g id="edge43_Node000027_Node000030" class="edge">
<title>Node27&#45;&gt;Node30</title>
<g id="a_edge43_Node000027_Node000030"><a xlink:title=" ">
<path fill="none" stroke="#63b8ff" d="M616.64,-120.95C577.2,-110.86 523.99,-97.24 483.1,-86.77"/>
<polygon fill="#63b8ff" stroke="#63b8ff" points="483.8,-83.34 473.25,-84.25 482.07,-90.12 483.8,-83.34"/>
</a>
</g>
</g>
<!-- Node30&#45;&gt;Node19 -->
<g id="edge50_Node000030_Node000019" class="edge">
<title>Node30&#45;&gt;Node19</title>
<g id="a_edge50_Node000030_Node000019"><a xlink:title=" ">
<path fill="none" stroke="#63b8ff" d="M473.25,-56.59C519.41,-45.52 585.94,-29.57 627.4,-19.63"/>
<polygon fill="#63b8ff" stroke="#63b8ff" points="628.47,-22.98 637.38,-17.24 626.84,-16.17 628.47,-22.98"/>
</a>
</g>
</g>
<!-- Node30&#45;&gt;Node26 -->
<g id="edge51_Node000030_Node000026" class="edge">
<title>Node30&#45;&gt;Node26</title>
<g id="a_edge51_Node000030_Node000026"><a xlink:title=" ">
<path fill="none" stroke="#63b8ff" d="M473.11,-62.68C571.88,-50.6 785.06,-24.51 866.74,-14.51"/>
<polygon fill="#63b8ff" stroke="#63b8ff" points="867.42,-17.95 876.92,-13.26 866.57,-11 867.42,-17.95"/>
</a>
</g>
</g>
<!-- Node30&#45;&gt;Node28 -->
<g id="edge49_Node000030_Node000028" class="edge">
<title>Node30&#45;&gt;Node28</title>
<g id="a_edge49_Node000030_Node000028"><a xlink:title=" ">
<path fill="none" stroke="#63b8ff" d="M454.55,-54.99C477.48,-45.27 507.74,-32.44 529.88,-23.06"/>
<polygon fill="#63b8ff" stroke="#63b8ff" points="531.28,-26.26 539.12,-19.14 528.55,-19.82 531.28,-26.26"/>
</a>
</g>
</g>
<!-- Node31 -->
<g id="Node000031" class="node">
<title>Node31</title>
<g id="a_Node000031"><a xlink:title=" ">
<polygon fill="#e0e0e0" stroke="#999999" points="515,-19 464,-19 464,0 515,0 515,-19"/>
<text text-anchor="middle" x="489.5" y="-7" font-family="Helvetica,sans-Serif" font-size="10.00">variant</text>
</a>
</g>
</g>
<!-- Node30&#45;&gt;Node31 -->
<g id="edge44_Node000030_Node000031" class="edge">
<title>Node30&#45;&gt;Node31</title>
<g id="a_edge44_Node000030_Node000031"><a xlink:title=" ">
<path fill="none" stroke="#63b8ff" d="M437.96,-54.84C448.13,-46.09 461.19,-34.85 471.62,-25.88"/>
<polygon fill="#63b8ff" stroke="#63b8ff" points="474.01,-28.44 479.31,-19.27 469.45,-23.13 474.01,-28.44"/>
</a>
</g>
</g>
<!-- Node32 -->
<g id="Node000032" class="node">
<title>Node32</title>
<g id="a_Node000032"><a xlink:title=" ">
<polygon fill="#e0e0e0" stroke="#999999" points="225.5,-19 175.5,-19 175.5,0 225.5,0 225.5,-19"/>
<text text-anchor="middle" x="200.5" y="-7" font-family="Helvetica,sans-Serif" font-size="10.00">cstdint</text>
</a>
</g>
</g>
<!-- Node30&#45;&gt;Node32 -->
<g id="edge45_Node000030_Node000032" class="edge">
<title>Node30&#45;&gt;Node32</title>
<g id="a_edge45_Node000030_Node000032"><a xlink:title=" ">
<path fill="none" stroke="#63b8ff" d="M369.96,-55.36C328.75,-44.45 272.07,-29.44 235.85,-19.86"/>
<polygon fill="#63b8ff" stroke="#63b8ff" points="236.32,-16.36 225.76,-17.19 234.53,-23.13 236.32,-16.36"/>
</a>
</g>
</g>
<!-- Node33 -->
<g id="Node000033" class="node">
<title>Node33</title>
<g id="a_Node000033"><a xlink:title=" ">
<polygon fill="#e0e0e0" stroke="#999999" points="287.5,-19 243.5,-19 243.5,0 287.5,0 287.5,-19"/>
<text text-anchor="middle" x="265.5" y="-7" font-family="Helvetica,sans-Serif" font-size="10.00">string</text>
</a>
</g>
</g>
<!-- Node30&#45;&gt;Node33 -->
<g id="edge46_Node000030_Node000033" class="edge">
<title>Node30&#45;&gt;Node33</title>
<g id="a_edge46_Node000030_Node000033"><a xlink:title=" ">
<path fill="none" stroke="#63b8ff" d="M384.13,-54.99C357.56,-45.02 322.24,-31.78 297.07,-22.34"/>
<polygon fill="#63b8ff" stroke="#63b8ff" points="298.22,-19.03 287.63,-18.8 295.76,-25.59 298.22,-19.03"/>
</a>
</g>
</g>
<!-- Node34 -->
<g id="Node000034" class="node">
<title>Node34</title>
<g id="a_Node000034"><a xlink:title=" ">
<polygon fill="#e0e0e0" stroke="#999999" points="379,-19 306,-19 306,0 379,0 379,-19"/>
<text text-anchor="middle" x="342.5" y="-7" font-family="Helvetica,sans-Serif" font-size="10.00">QByteArray</text>
</a>
</g>
</g>
<!-- Node30&#45;&gt;Node34 -->
<g id="edge47_Node000030_Node000034" class="edge">
<title>Node30&#45;&gt;Node34</title>
<g id="a_edge47_Node000030_Node000034"><a xlink:title=" ">
<path fill="none" stroke="#63b8ff" d="M402.38,-54.84C390.32,-45.91 374.79,-34.41 362.56,-25.35"/>
<polygon fill="#63b8ff" stroke="#63b8ff" points="364.46,-22.4 354.34,-19.27 360.29,-28.03 364.46,-22.4"/>
</a>
</g>
</g>
<!-- Node35 -->
<g id="Node000035" class="node">
<title>Node35</title>
<g id="a_Node000035"><a xlink:title=" ">
<polygon fill="#e0e0e0" stroke="#999999" points="446,-19 397,-19 397,0 446,0 446,-19"/>
<text text-anchor="middle" x="421.5" y="-7" font-family="Helvetica,sans-Serif" font-size="10.00">QHash</text>
</a>
</g>
</g>
<!-- Node30&#45;&gt;Node35 -->
<g id="edge48_Node000030_Node000035" class="edge">
<title>Node30&#45;&gt;Node35</title>
<g id="a_edge48_Node000030_Node000035"><a xlink:title=" ">
<path fill="none" stroke="#63b8ff" d="M421.5,-54.84C421.5,-47.21 421.5,-37.7 421.5,-29.45"/>
<polygon fill="#63b8ff" stroke="#63b8ff" points="425,-29.27 421.5,-19.27 418,-29.27 425,-29.27"/>
</a>
</g>
</g>
<!-- Node36&#45;&gt;Node6 -->
<g id="edge55_Node000036_Node000006" class="edge">
<title>Node36&#45;&gt;Node6</title>
<g id="a_edge55_Node000036_Node000006"><a xlink:title=" ">
<path fill="none" stroke="#63b8ff" d="M1863.26,-120.8C1872.93,-110.82 1885.87,-97.46 1895.92,-87.09"/>
<polygon fill="#63b8ff" stroke="#63b8ff" points="1898.49,-89.46 1902.93,-79.84 1893.46,-84.59 1898.49,-89.46"/>
</a>
</g>
</g>
<!-- Node36&#45;&gt;Node7 -->
<g id="edge54_Node000036_Node000007" class="edge">
<title>Node36&#45;&gt;Node7</title>
<g id="a_edge54_Node000036_Node000007"><a xlink:title=" ">
<path fill="none" stroke="#63b8ff" d="M1752.35,-123.11C1634.28,-108.66 1441.03,-85.01 1361.93,-75.34"/>
<polygon fill="#63b8ff" stroke="#63b8ff" points="1361.9,-71.81 1351.55,-74.07 1361.05,-78.75 1361.9,-71.81"/>
</a>
</g>
</g>
<!-- Node36&#45;&gt;Node12 -->
<g id="edge53_Node000036_Node000012" class="edge">
<title>Node36&#45;&gt;Node12</title>
<g id="a_edge53_Node000036_Node000012"><a xlink:title=" ">
<path fill="none" stroke="#63b8ff" d="M1798.59,-120.95C1756.47,-109.34 1697.42,-93.05 1658.35,-82.27"/>
<polygon fill="#63b8ff" stroke="#63b8ff" points="1658.95,-78.8 1648.38,-79.52 1657.08,-85.55 1658.95,-78.8"/>
</a>
</g>
</g>
<!-- Node37&#45;&gt;Node7 -->
<g id="edge57_Node000037_Node000007" class="edge">
<title>Node37&#45;&gt;Node7</title>
<g id="a_edge57_Node000037_Node000007"><a xlink:title=" ">
<path fill="none" stroke="#63b8ff" d="M1263.35,-126.37C1274.93,-116.21 1294.38,-99.16 1308.64,-86.65"/>
<polygon fill="#63b8ff" stroke="#63b8ff" points="1311.13,-89.13 1316.34,-79.91 1306.52,-83.87 1311.13,-89.13"/>
</a>
</g>
</g>
<!-- Node38&#45;&gt;Node13 -->
<g id="edge59_Node000038_Node000013" class="edge">
<title>Node38&#45;&gt;Node13</title>
<g id="a_edge59_Node000038_Node000013"><a xlink:title=" ">
<path fill="none" stroke="#63b8ff" d="M300.92,-120.95C281.97,-110.13 255.92,-95.24 237.2,-84.54"/>
<polygon fill="#63b8ff" stroke="#63b8ff" points="238.82,-81.44 228.41,-79.52 235.35,-87.52 238.82,-81.44"/>
</a>
</g>
</g>
<!-- Node38&#45;&gt;Node30 -->
<g id="edge60_Node000038_Node000030" class="edge">
<title>Node38&#45;&gt;Node30</title>
<g id="a_edge60_Node000038_Node000030"><a xlink:title=" ">
<path fill="none" stroke="#63b8ff" d="M346.81,-120.8C359.98,-112.01 377.09,-100.61 391.61,-90.93"/>
<polygon fill="#63b8ff" stroke="#63b8ff" points="393.87,-93.62 400.25,-85.16 389.99,-87.8 393.87,-93.62"/>
</a>
</g>
</g>
<!-- Node39&#45;&gt;Node19 -->
<g id="edge62_Node000039_Node000019" class="edge">
<title>Node39&#45;&gt;Node19</title>
<g id="a_edge62_Node000039_Node000019"><a xlink:title=" ">
<path fill="none" stroke="#63b8ff" d="M508.47,-120.72C517.72,-103.11 535.56,-73.28 558.5,-55 578.83,-38.8 605.89,-27.61 627.72,-20.51"/>
<polygon fill="#63b8ff" stroke="#63b8ff" points="628.82,-23.83 637.33,-17.53 626.75,-17.15 628.82,-23.83"/>
</a>
</g>
</g>
<!-- Node39&#45;&gt;Node30 -->
<g id="edge63_Node000039_Node000030" class="edge">
<title>Node39&#45;&gt;Node30</title>
<g id="a_edge63_Node000039_Node000030"><a xlink:title=" ">
<path fill="none" stroke="#63b8ff" d="M483.75,-120.8C472.97,-112.18 459.05,-101.04 447.1,-91.48"/>
<polygon fill="#63b8ff" stroke="#63b8ff" points="449.2,-88.68 439.2,-85.16 444.83,-94.14 449.2,-88.68"/>
</a>
</g>
</g>
</g>
</svg>

<g id="navigator" transform="translate(0 0)" fill="#404254">
  <rect fill="#f2f5e9" fill-opacity="0.5" stroke="#606060" stroke-width=".5" x="0" y="0" width="60" height="60"/>
  <use id="zoomplus" xlink:href="#zoomPlus" x="17" y="9" onmousedown="handleZoom(evt,'in')"/>
  <use id="zoomminus" xlink:href="#zoomMin" x="42" y="9" onmousedown="handleZoom(evt,'out')"/>
  <use id="reset" xlink:href="#resetDef" x="30" y="36" onmousedown="handleReset()"/>
   <use id="arrowup" xlink:href="#arrowUp" x="0" y="0" onmousedown="handlePan(0,-1)"/>
  <use id="arrowright" xlink:href="#arrowRight" x="0" y="0" onmousedown="handlePan(1,0)"/>
  <use id="arrowdown" xlink:href="#arrowDown" x="0" y="0" onmousedown="handlePan(0,1)"/>
  <use id="arrowleft" xlink:href="#arrowLeft" x="0" y="0" onmousedown="handlePan(-1,0)"/>
</g>
<svg viewBox="0 0 15 15" width="100%" height="30px" preserveAspectRatio="xMaxYMin meet">
 <g id="arrow_out" transform="scale(0.3 0.3)">
  <a xlink:href="TestTabView_8cpp__incl_org.svg" target="_base">
   <rect id="button" ry="5" rx="5" y="6" x="6" height="38" width="38"
        fill="#f2f5e9" fill-opacity="0.5" stroke="#606060" stroke-width="1.0"/>
   <path id="arrow"
     d="M 11.500037,31.436501 C 11.940474,20.09759 22.043105,11.32322 32.158766,21.979434 L 37.068811,17.246167 C 37.068811,17.246167 37.088388,32 37.088388,32 L 22.160133,31.978069 C 22.160133,31.978069 26.997745,27.140456 26.997745,27.140456 C 18.528582,18.264221 13.291696,25.230495 11.500037,31.436501 z"
     style="fill:#404040;"/>
  </a>
 </g>
</svg>

<style type='text/css'>
<![CDATA[
[data-mouse-over-selected='false'] { opacity: 0.7; }
[data-mouse-over-selected='true']  { opacity: 1.0; }
]]>
</style>
<script type="application/ecmascript"><![CDATA[
document.addEventListener('DOMContentLoaded', (event) => {
  highlightEdges();
  highlightAdjacentNodes();
});
]]></script>
</svg>
