<?xml version="1.0" encoding="UTF-8" standalone="no"?>
<!DOCTYPE svg PUBLIC "-//W3C//DTD SVG 1.1//EN"
 "http://www.w3.org/Graphics/SVG/1.1/DTD/svg11.dtd">
<!-- Generated by graphviz version 2.43.0 (0)
 -->
<!-- Title: features/test/TestTabFactory.cpp Pages: 1 -->
<svg width="1277pt" height="225pt"
 viewBox="0.00 0.00 1276.50 225.00" xmlns="http://www.w3.org/2000/svg" xmlns:xlink="http://www.w3.org/1999/xlink">
<g id="graph0" class="graph" transform="scale(1 1) rotate(0) translate(4 221)">
<title>features/test/TestTabFactory.cpp</title>
<!-- Node1 -->
<g id="Node000001" class="node">
<title>Node1</title>
<g id="a_Node000001"><a xlink:title=" ">
<polygon fill="#999999" stroke="#666666" points="760,-217 588,-217 588,-198 760,-198 760,-217"/>
<text text-anchor="middle" x="674" y="-205" font-family="Helvetica,sans-Serif" font-size="10.00">features/test/TestTabFactory.cpp</text>
</a>
</g>
</g>
<!-- Node2 -->
<g id="Node000002" class="node">
<title>Node2</title>
<g id="a_Node000002"><a xlink:href="TestTabFactory_8h.html" target="_top" xlink:title=" ">
<polygon fill="white" stroke="#666666" points="534.5,-151 439.5,-151 439.5,-132 534.5,-132 534.5,-151"/>
<text text-anchor="middle" x="487" y="-139" font-family="Helvetica,sans-Serif" font-size="10.00">TestTabFactory.h</text>
</a>
</g>
</g>
<!-- Node1&#45;&gt;Node2 -->
<g id="edge1_Node000001_Node000002" class="edge">
<title>Node1&#45;&gt;Node2</title>
<g id="a_edge1_Node000001_Node000002"><a xlink:title=" ">
<path fill="none" stroke="#63b8ff" d="M648.78,-197.87C616.07,-186.67 558.83,-167.08 521.94,-154.46"/>
<polygon fill="#63b8ff" stroke="#63b8ff" points="522.71,-151.02 512.12,-151.1 520.45,-157.65 522.71,-151.02"/>
</a>
</g>
</g>
<!-- Node11 -->
<g id="Node000011" class="node">
<title>Node11</title>
<g id="a_Node000011"><a xlink:href="TankPressureControlerFrameFactory_8h.html" target="_top" xlink:title=" ">
<polygon fill="white" stroke="#666666" points="421,-162 261,-162 261,-121 421,-121 421,-162"/>
<text text-anchor="start" x="269" y="-150" font-family="Helvetica,sans-Serif" font-size="10.00">frames/tank_pressure</text>
<text text-anchor="start" x="269" y="-139" font-family="Helvetica,sans-Serif" font-size="10.00">/TankPressureControlerFrame</text>
<text text-anchor="middle" x="341" y="-128" font-family="Helvetica,sans-Serif" font-size="10.00">Factory.h</text>
</a>
</g>
</g>
<!-- Node1&#45;&gt;Node11 -->
<g id="edge10_Node000001_Node000011" class="edge">
<title>Node1&#45;&gt;Node11</title>
<g id="a_edge10_Node000001_Node000011"><a xlink:title=" ">
<path fill="none" stroke="#63b8ff" d="M624.37,-197.98C577.12,-189.74 503.77,-176.66 430.84,-162.14"/>
<polygon fill="#63b8ff" stroke="#63b8ff" points="431.52,-158.7 421.03,-160.17 430.14,-165.57 431.52,-158.7"/>
</a>
</g>
</g>
<!-- Node16 -->
<g id="Node000016" class="node">
<title>Node16</title>
<g id="a_Node000016"><a xlink:href="TestLauncherViewModel_8h.html" target="_top" xlink:title=" ">
<polygon fill="white" stroke="#666666" points="1153,-156.5 1007,-156.5 1007,-126.5 1153,-126.5 1153,-156.5"/>
<text text-anchor="start" x="1015" y="-144.5" font-family="Helvetica,sans-Serif" font-size="10.00">frames/test_launcher</text>
<text text-anchor="middle" x="1080" y="-133.5" font-family="Helvetica,sans-Serif" font-size="10.00">/TestLauncherViewModel.h</text>
</a>
</g>
</g>
<!-- Node1&#45;&gt;Node16 -->
<g id="edge16_Node000001_Node000016" class="edge">
<title>Node1&#45;&gt;Node16</title>
<g id="a_edge16_Node000001_Node000016"><a xlink:title=" ">
<path fill="none" stroke="#63b8ff" d="M751.59,-197.99C817.44,-190.25 914.29,-177.66 998,-162 1003.3,-161.01 1008.78,-159.9 1014.27,-158.72"/>
<polygon fill="#63b8ff" stroke="#63b8ff" points="1015.12,-162.12 1024.13,-156.55 1013.62,-155.28 1015.12,-162.12"/>
</a>
</g>
</g>
<!-- Node26 -->
<g id="Node000026" class="node">
<title>Node26</title>
<g id="a_Node000026"><a xlink:href="EmergencyControlsViewModel_8h.html" target="_top" xlink:title=" ">
<polygon fill="white" stroke="#666666" points="721,-85 543,-85 543,-55 721,-55 721,-85"/>
<text text-anchor="start" x="551" y="-73" font-family="Helvetica,sans-Serif" font-size="10.00">frames/emergency_controls</text>
<text text-anchor="middle" x="632" y="-62" font-family="Helvetica,sans-Serif" font-size="10.00">/EmergencyControlsViewModel.h</text>
</a>
</g>
</g>
<!-- Node1&#45;&gt;Node26 -->
<g id="edge30_Node000001_Node000026" class="edge">
<title>Node1&#45;&gt;Node26</title>
<g id="a_edge30_Node000001_Node000026"><a xlink:title=" ">
<path fill="none" stroke="#63b8ff" d="M664.07,-197.72C655.47,-189.46 643.58,-176.25 638,-162 629.61,-140.55 628.81,-114.1 629.7,-95.25"/>
<polygon fill="#63b8ff" stroke="#63b8ff" points="633.2,-95.34 630.36,-85.13 626.21,-94.88 633.2,-95.34"/>
</a>
</g>
</g>
<!-- Node27 -->
<g id="Node000027" class="node">
<title>Node27</title>
<g id="a_Node000027"><a xlink:href="CountDownClockViewModel_8h.html" target="_top" xlink:title=" ">
<polygon fill="white" stroke="#666666" points="813,-156.5 647,-156.5 647,-126.5 813,-126.5 813,-156.5"/>
<text text-anchor="start" x="655" y="-144.5" font-family="Helvetica,sans-Serif" font-size="10.00">frames/countdown_clock</text>
<text text-anchor="middle" x="730" y="-133.5" font-family="Helvetica,sans-Serif" font-size="10.00">/CountDownClockViewModel.h</text>
</a>
</g>
</g>
<!-- Node1&#45;&gt;Node27 -->
<g id="edge32_Node000001_Node000027" class="edge">
<title>Node1&#45;&gt;Node27</title>
<g id="a_edge32_Node000001_Node000027"><a xlink:title=" ">
<path fill="none" stroke="#63b8ff" d="M681.55,-197.87C689.02,-189.33 700.77,-175.91 710.82,-164.42"/>
<polygon fill="#63b8ff" stroke="#63b8ff" points="713.48,-166.69 717.43,-156.86 708.22,-162.08 713.48,-166.69"/>
</a>
</g>
</g>
<!-- Node28 -->
<g id="Node000028" class="node">
<title>Node28</title>
<g id="a_Node000028"><a xlink:href="LogTerminalViewModel_8h.html" target="_top" xlink:title=" ">
<polygon fill="white" stroke="#666666" points="989,-156.5 831,-156.5 831,-126.5 989,-126.5 989,-156.5"/>
<text text-anchor="start" x="839" y="-144.5" font-family="Helvetica,sans-Serif" font-size="10.00">frames/terminal/LogTerminal</text>
<text text-anchor="middle" x="910" y="-133.5" font-family="Helvetica,sans-Serif" font-size="10.00">ViewModel.h</text>
</a>
</g>
</g>
<!-- Node1&#45;&gt;Node28 -->
<g id="edge34_Node000001_Node000028" class="edge">
<title>Node1&#45;&gt;Node28</title>
<g id="a_edge34_Node000001_Node000028"><a xlink:title=" ">
<path fill="none" stroke="#63b8ff" d="M705.83,-197.87C742.16,-188.01 802.47,-171.66 848.15,-159.27"/>
<polygon fill="#63b8ff" stroke="#63b8ff" points="849.21,-162.61 857.95,-156.62 847.38,-155.86 849.21,-162.61"/>
</a>
</g>
</g>
<!-- Node3 -->
<g id="Node000003" class="node">
<title>Node3</title>
<g id="a_Node000003"><a xlink:href="AppViewModels_8h.html" target="_top" xlink:title=" ">
<polygon fill="white" stroke="#666666" points="411,-85 283,-85 283,-55 411,-55 411,-85"/>
<text text-anchor="start" x="291" y="-73" font-family="Helvetica,sans-Serif" font-size="10.00">src/mvvm/viewmodels</text>
<text text-anchor="middle" x="347" y="-62" font-family="Helvetica,sans-Serif" font-size="10.00">/AppViewModels.h</text>
</a>
</g>
</g>
<!-- Node2&#45;&gt;Node3 -->
<g id="edge2_Node000002_Node000003" class="edge">
<title>Node2&#45;&gt;Node3</title>
<g id="a_edge2_Node000002_Node000003"><a xlink:title=" ">
<path fill="none" stroke="#63b8ff" d="M469.83,-131.98C448.64,-121.46 412.01,-103.28 384.25,-89.49"/>
<polygon fill="#63b8ff" stroke="#63b8ff" points="385.73,-86.32 375.22,-85.01 382.62,-92.59 385.73,-86.32"/>
</a>
</g>
</g>
<!-- Node6 -->
<g id="Node000006" class="node">
<title>Node6</title>
<g id="a_Node000006"><a xlink:href="TestTabView_8h.html" target="_top" xlink:title=" ">
<polygon fill="white" stroke="#666666" points="524.5,-79.5 439.5,-79.5 439.5,-60.5 524.5,-60.5 524.5,-79.5"/>
<text text-anchor="middle" x="482" y="-67.5" font-family="Helvetica,sans-Serif" font-size="10.00">TestTabView.h</text>
</a>
</g>
</g>
<!-- Node2&#45;&gt;Node6 -->
<g id="edge5_Node000002_Node000006" class="edge">
<title>Node2&#45;&gt;Node6</title>
<g id="a_edge5_Node000002_Node000006"><a xlink:title=" ">
<path fill="none" stroke="#63b8ff" d="M486.39,-131.98C485.64,-121.56 484.35,-103.61 483.36,-89.88"/>
<polygon fill="#63b8ff" stroke="#63b8ff" points="486.83,-89.31 482.62,-79.59 479.84,-89.82 486.83,-89.31"/>
</a>
</g>
</g>
<!-- Node4 -->
<g id="Node000004" class="node">
<title>Node4</title>
<g id="a_Node000004"><a xlink:title=" ">
<polygon fill="#e0e0e0" stroke="#999999" points="777,-19 721,-19 721,0 777,0 777,-19"/>
<text text-anchor="middle" x="749" y="-7" font-family="Helvetica,sans-Serif" font-size="10.00">QObject</text>
</a>
</g>
</g>
<!-- Node3&#45;&gt;Node4 -->
<g id="edge3_Node000003_Node000004" class="edge">
<title>Node3&#45;&gt;Node4</title>
<g id="a_edge3_Node000003_Node000004"><a xlink:title=" ">
<path fill="none" stroke="#63b8ff" d="M411.3,-57.89C417.62,-56.88 423.93,-55.9 430,-55 551.81,-36.96 585.89,-40.95 710.82,-19.05"/>
<polygon fill="#63b8ff" stroke="#63b8ff" points="711.54,-22.48 720.78,-17.29 710.32,-15.59 711.54,-22.48"/>
</a>
</g>
</g>
<!-- Node5 -->
<g id="Node000005" class="node">
<title>Node5</title>
<g id="a_Node000005"><a xlink:title=" ">
<polygon fill="#e0e0e0" stroke="#999999" points="332.5,-19 267.5,-19 267.5,0 332.5,0 332.5,-19"/>
<text text-anchor="middle" x="300" y="-7" font-family="Helvetica,sans-Serif" font-size="10.00">typeindex</text>
</a>
</g>
</g>
<!-- Node3&#45;&gt;Node5 -->
<g id="edge4_Node000003_Node000005" class="edge">
<title>Node3&#45;&gt;Node5</title>
<g id="a_edge4_Node000003_Node000005"><a xlink:title=" ">
<path fill="none" stroke="#63b8ff" d="M335.62,-54.84C328.94,-46.52 320.45,-35.96 313.44,-27.23"/>
<polygon fill="#63b8ff" stroke="#63b8ff" points="316.03,-24.87 307.04,-19.27 310.58,-29.25 316.03,-24.87"/>
</a>
</g>
</g>
<!-- Node7 -->
<g id="Node000007" class="node">
<title>Node7</title>
<g id="a_Node000007"><a xlink:title=" ">
<polygon fill="#e0e0e0" stroke="#999999" points="409.5,-19 350.5,-19 350.5,0 409.5,0 409.5,-19"/>
<text text-anchor="middle" x="380" y="-7" font-family="Helvetica,sans-Serif" font-size="10.00">QWidget</text>
</a>
</g>
</g>
<!-- Node6&#45;&gt;Node7 -->
<g id="edge6_Node000006_Node000007" class="edge">
<title>Node6&#45;&gt;Node7</title>
<g id="a_edge6_Node000006_Node000007"><a xlink:title=" ">
<path fill="none" stroke="#63b8ff" d="M466.95,-60.37C450.38,-50.86 423.5,-35.45 404.01,-24.27"/>
<polygon fill="#63b8ff" stroke="#63b8ff" points="405.53,-21.11 395.11,-19.17 402.05,-27.18 405.53,-21.11"/>
</a>
</g>
</g>
<!-- Node8 -->
<g id="Node000008" class="node">
<title>Node8</title>
<g id="a_Node000008"><a xlink:title=" ">
<polygon fill="#e0e0e0" stroke="#999999" points="502.5,-19 427.5,-19 427.5,0 502.5,0 502.5,-19"/>
<text text-anchor="middle" x="465" y="-7" font-family="Helvetica,sans-Serif" font-size="10.00">QTabWidget</text>
</a>
</g>
</g>
<!-- Node6&#45;&gt;Node8 -->
<g id="edge7_Node000006_Node000008" class="edge">
<title>Node6&#45;&gt;Node8</title>
<g id="a_edge7_Node000006_Node000008"><a xlink:title=" ">
<path fill="none" stroke="#63b8ff" d="M479.49,-60.37C477.11,-52.16 473.44,-39.54 470.39,-29.05"/>
<polygon fill="#63b8ff" stroke="#63b8ff" points="473.67,-27.79 467.52,-19.17 466.95,-29.75 473.67,-27.79"/>
</a>
</g>
</g>
<!-- Node9 -->
<g id="Node000009" class="node">
<title>Node9</title>
<g id="a_Node000009"><a xlink:title=" ">
<polygon fill="#e0e0e0" stroke="#999999" points="597.5,-19 520.5,-19 520.5,0 597.5,0 597.5,-19"/>
<text text-anchor="middle" x="559" y="-7" font-family="Helvetica,sans-Serif" font-size="10.00">QComboBox</text>
</a>
</g>
</g>
<!-- Node6&#45;&gt;Node9 -->
<g id="edge8_Node000006_Node000009" class="edge">
<title>Node6&#45;&gt;Node9</title>
<g id="a_edge8_Node000006_Node000009"><a xlink:title=" ">
<path fill="none" stroke="#63b8ff" d="M493.36,-60.37C505.42,-51.21 524.7,-36.56 539.25,-25.51"/>
<polygon fill="#63b8ff" stroke="#63b8ff" points="541.75,-28 547.59,-19.17 537.51,-22.43 541.75,-28"/>
</a>
</g>
</g>
<!-- Node10 -->
<g id="Node000010" class="node">
<title>Node10</title>
<g id="a_Node000010"><a xlink:title=" ">
<polygon fill="#e0e0e0" stroke="#999999" points="702.5,-19 615.5,-19 615.5,0 702.5,0 702.5,-19"/>
<text text-anchor="middle" x="659" y="-7" font-family="Helvetica,sans-Serif" font-size="10.00">QPlainTextEdit</text>
</a>
</g>
</g>
<!-- Node6&#45;&gt;Node10 -->
<g id="edge9_Node000006_Node000010" class="edge">
<title>Node6&#45;&gt;Node10</title>
<g id="a_edge9_Node000006_Node000010"><a xlink:title=" ">
<path fill="none" stroke="#63b8ff" d="M507.74,-60.49C538.28,-50.4 589.37,-33.51 623.62,-22.19"/>
<polygon fill="#63b8ff" stroke="#63b8ff" points="624.84,-25.48 633.23,-19.02 622.64,-18.83 624.84,-25.48"/>
</a>
</g>
</g>
<!-- Node11&#45;&gt;Node3 -->
<g id="edge15_Node000011_Node000003" class="edge">
<title>Node11&#45;&gt;Node3</title>
<g id="a_edge15_Node000011_Node000003"><a xlink:title=" ">
<path fill="none" stroke="#63b8ff" d="M342.7,-120.77C343.4,-112.76 344.2,-103.42 344.93,-95.02"/>
<polygon fill="#63b8ff" stroke="#63b8ff" points="348.41,-95.3 345.79,-85.04 341.44,-94.7 348.41,-95.3"/>
</a>
</g>
</g>
<!-- Node12 -->
<g id="Node000012" class="node">
<title>Node12</title>
<g id="a_Node000012"><a xlink:href="TankPressureControlFrameWidget_8h.html" target="_top" xlink:title=" ">
<polygon fill="white" stroke="#666666" points="225.5,-85 78.5,-85 78.5,-55 225.5,-55 225.5,-85"/>
<text text-anchor="start" x="86.5" y="-73" font-family="Helvetica,sans-Serif" font-size="10.00">TankPressureControlFrame</text>
<text text-anchor="middle" x="152" y="-62" font-family="Helvetica,sans-Serif" font-size="10.00">Widget.h</text>
</a>
</g>
</g>
<!-- Node11&#45;&gt;Node12 -->
<g id="edge11_Node000011_Node000012" class="edge">
<title>Node11&#45;&gt;Node12</title>
<g id="a_edge11_Node000011_Node000012"><a xlink:title=" ">
<path fill="none" stroke="#63b8ff" d="M287.85,-120.96C260.14,-110.76 226.51,-98.4 199.65,-88.52"/>
<polygon fill="#63b8ff" stroke="#63b8ff" points="200.68,-85.17 190.08,-85 198.26,-91.74 200.68,-85.17"/>
</a>
</g>
</g>
<!-- Node13 -->
<g id="Node000013" class="node">
<title>Node13</title>
<g id="a_Node000013"><a xlink:title=" ">
<polygon fill="#e0e0e0" stroke="#999999" points="80,-19 0,-19 0,0 80,0 80,-19"/>
<text text-anchor="middle" x="40" y="-7" font-family="Helvetica,sans-Serif" font-size="10.00">QPushButton</text>
</a>
</g>
</g>
<!-- Node12&#45;&gt;Node13 -->
<g id="edge12_Node000012_Node000013" class="edge">
<title>Node12&#45;&gt;Node13</title>
<g id="a_edge12_Node000012_Node000013"><a xlink:title=" ">
<path fill="none" stroke="#63b8ff" d="M125.17,-54.99C107.15,-45.58 83.54,-33.24 65.75,-23.95"/>
<polygon fill="#63b8ff" stroke="#63b8ff" points="67.02,-20.67 56.54,-19.14 63.78,-26.87 67.02,-20.67"/>
</a>
</g>
</g>
<!-- Node14 -->
<g id="Node000014" class="node">
<title>Node14</title>
<g id="a_Node000014"><a xlink:title=" ">
<polygon fill="#e0e0e0" stroke="#999999" points="148,-19 98,-19 98,0 148,0 148,-19"/>
<text text-anchor="middle" x="123" y="-7" font-family="Helvetica,sans-Serif" font-size="10.00">QLabel</text>
</a>
</g>
</g>
<!-- Node12&#45;&gt;Node14 -->
<g id="edge13_Node000012_Node000014" class="edge">
<title>Node12&#45;&gt;Node14</title>
<g id="a_edge13_Node000012_Node000014"><a xlink:title=" ">
<path fill="none" stroke="#63b8ff" d="M144.98,-54.84C141.03,-46.87 136.06,-36.84 131.84,-28.33"/>
<polygon fill="#63b8ff" stroke="#63b8ff" points="134.92,-26.67 127.35,-19.27 128.65,-29.78 134.92,-26.67"/>
</a>
</g>
</g>
<!-- Node15 -->
<g id="Node000015" class="node">
<title>Node15</title>
<g id="a_Node000015"><a xlink:title=" ">
<polygon fill="#e0e0e0" stroke="#999999" points="249.5,-19 166.5,-19 166.5,0 249.5,0 249.5,-19"/>
<text text-anchor="middle" x="208" y="-7" font-family="Helvetica,sans-Serif" font-size="10.00">QHBoxLayout</text>
</a>
</g>
</g>
<!-- Node12&#45;&gt;Node15 -->
<g id="edge14_Node000012_Node000015" class="edge">
<title>Node12&#45;&gt;Node15</title>
<g id="a_edge14_Node000012_Node000015"><a xlink:title=" ">
<path fill="none" stroke="#63b8ff" d="M165.56,-54.84C173.68,-46.35 184.05,-35.52 192.5,-26.69"/>
<polygon fill="#63b8ff" stroke="#63b8ff" points="195.22,-28.91 199.61,-19.27 190.17,-24.07 195.22,-28.91"/>
</a>
</g>
</g>
<!-- Node16&#45;&gt;Node4 -->
<g id="edge20_Node000016_Node000004" class="edge">
<title>Node16&#45;&gt;Node4</title>
<g id="a_edge20_Node000016_Node000004"><a xlink:title=" ">
<path fill="none" stroke="#63b8ff" d="M1034.4,-126.48C1001.03,-115.9 954.82,-100.59 915,-85 865.15,-65.48 808.56,-39.16 775.99,-23.59"/>
<polygon fill="#63b8ff" stroke="#63b8ff" points="777.22,-20.3 766.69,-19.13 774.19,-26.61 777.22,-20.3"/>
</a>
</g>
</g>
<!-- Node17 -->
<g id="Node000017" class="node">
<title>Node17</title>
<g id="a_Node000017"><a xlink:title=" ">
<polygon fill="#e0e0e0" stroke="#999999" points="1197.5,-19 1152.5,-19 1152.5,0 1197.5,0 1197.5,-19"/>
<text text-anchor="middle" x="1175" y="-7" font-family="Helvetica,sans-Serif" font-size="10.00">QMap</text>
</a>
</g>
</g>
<!-- Node16&#45;&gt;Node17 -->
<g id="edge17_Node000016_Node000017" class="edge">
<title>Node16&#45;&gt;Node17</title>
<g id="a_edge17_Node000016_Node000017"><a xlink:title=" ">
<path fill="none" stroke="#63b8ff" d="M1080.86,-126.41C1082.62,-108.26 1087.93,-76.48 1104,-55 1114.13,-41.47 1129.68,-31.05 1143.66,-23.71"/>
<polygon fill="#63b8ff" stroke="#63b8ff" points="1145.57,-26.67 1153,-19.12 1142.48,-20.39 1145.57,-26.67"/>
</a>
</g>
</g>
<!-- Node18 -->
<g id="Node000018" class="node">
<title>Node18</title>
<g id="a_Node000018"><a xlink:title=" ">
<polygon fill="#e0e0e0" stroke="#999999" points="1268.5,-19 1215.5,-19 1215.5,0 1268.5,0 1268.5,-19"/>
<text text-anchor="middle" x="1242" y="-7" font-family="Helvetica,sans-Serif" font-size="10.00">QString</text>
</a>
</g>
</g>
<!-- Node16&#45;&gt;Node18 -->
<g id="edge18_Node000016_Node000018" class="edge">
<title>Node16&#45;&gt;Node18</title>
<g id="a_edge18_Node000016_Node000018"><a xlink:title=" ">
<path fill="none" stroke="#63b8ff" d="M1086.29,-126.22C1095.15,-107.56 1112.96,-74.92 1137,-55 1156.87,-38.54 1183.73,-27.3 1205.31,-20.24"/>
<polygon fill="#63b8ff" stroke="#63b8ff" points="1206.61,-23.5 1215.12,-17.19 1204.53,-16.82 1206.61,-23.5"/>
</a>
</g>
</g>
<!-- Node19 -->
<g id="Node000019" class="node">
<title>Node19</title>
<g id="a_Node000019"><a xlink:title=" ">
<polygon fill="#e0e0e0" stroke="#999999" points="1216,-79.5 1146,-79.5 1146,-60.5 1216,-60.5 1216,-79.5"/>
<text text-anchor="middle" x="1181" y="-67.5" font-family="Helvetica,sans-Serif" font-size="10.00">QStringList</text>
</a>
</g>
</g>
<!-- Node16&#45;&gt;Node19 -->
<g id="edge19_Node000016_Node000019" class="edge">
<title>Node16&#45;&gt;Node19</title>
<g id="a_edge19_Node000016_Node000019"><a xlink:title=" ">
<path fill="none" stroke="#63b8ff" d="M1100.44,-126.44C1117.82,-114.48 1142.66,-97.38 1160.15,-85.35"/>
<polygon fill="#63b8ff" stroke="#63b8ff" points="1162.29,-88.12 1168.55,-79.57 1158.33,-82.35 1162.29,-88.12"/>
</a>
</g>
</g>
<!-- Node20 -->
<g id="Node000020" class="node">
<title>Node20</title>
<g id="a_Node000020"><a xlink:href="Messages_8h.html" target="_top" xlink:title=" ">
<polygon fill="white" stroke="#666666" points="1026.5,-85 923.5,-85 923.5,-55 1026.5,-55 1026.5,-85"/>
<text text-anchor="start" x="931.5" y="-73" font-family="Helvetica,sans-Serif" font-size="10.00">src/core/Protocols</text>
<text text-anchor="middle" x="975" y="-62" font-family="Helvetica,sans-Serif" font-size="10.00">/Messages.h</text>
</a>
</g>
</g>
<!-- Node16&#45;&gt;Node20 -->
<g id="edge21_Node000016_Node000020" class="edge">
<title>Node16&#45;&gt;Node20</title>
<g id="a_edge21_Node000016_Node000020"><a xlink:title=" ">
<path fill="none" stroke="#63b8ff" d="M1058.75,-126.44C1043.24,-116.17 1022,-102.11 1004.8,-90.72"/>
<polygon fill="#63b8ff" stroke="#63b8ff" points="1006.49,-87.64 996.22,-85.04 1002.62,-93.48 1006.49,-87.64"/>
</a>
</g>
</g>
<!-- Node20&#45;&gt;Node4 -->
<g id="edge28_Node000020_Node000004" class="edge">
<title>Node20&#45;&gt;Node4</title>
<g id="a_edge28_Node000020_Node000004"><a xlink:title=" ">
<path fill="none" stroke="#63b8ff" d="M923.43,-55.65C881.99,-44.93 824.72,-30.1 787.28,-20.41"/>
<polygon fill="#63b8ff" stroke="#63b8ff" points="787.83,-16.94 777.27,-17.82 786.08,-23.71 787.83,-16.94"/>
</a>
</g>
</g>
<!-- Node20&#45;&gt;Node17 -->
<g id="edge29_Node000020_Node000017" class="edge">
<title>Node20&#45;&gt;Node17</title>
<g id="a_edge29_Node000020_Node000017"><a xlink:title=" ">
<path fill="none" stroke="#63b8ff" d="M1022.9,-54.99C1059.92,-44.16 1110.16,-29.47 1142.58,-19.98"/>
<polygon fill="#63b8ff" stroke="#63b8ff" points="1143.82,-23.27 1152.44,-17.1 1141.86,-16.55 1143.82,-23.27"/>
</a>
</g>
</g>
<!-- Node20&#45;&gt;Node18 -->
<g id="edge27_Node000020_Node000018" class="edge">
<title>Node20&#45;&gt;Node18</title>
<g id="a_edge27_Node000020_Node000018"><a xlink:title=" ">
<path fill="none" stroke="#63b8ff" d="M1026.69,-58.26C1071.55,-48.85 1138.51,-34.59 1205.4,-19.33"/>
<polygon fill="#63b8ff" stroke="#63b8ff" points="1206.3,-22.71 1215.26,-17.07 1204.74,-15.89 1206.3,-22.71"/>
</a>
</g>
</g>
<!-- Node21 -->
<g id="Node000021" class="node">
<title>Node21</title>
<g id="a_Node000021"><a xlink:title=" ">
<polygon fill="#e0e0e0" stroke="#999999" points="1134.5,-19 1083.5,-19 1083.5,0 1134.5,0 1134.5,-19"/>
<text text-anchor="middle" x="1109" y="-7" font-family="Helvetica,sans-Serif" font-size="10.00">variant</text>
</a>
</g>
</g>
<!-- Node20&#45;&gt;Node21 -->
<g id="edge22_Node000020_Node000021" class="edge">
<title>Node20&#45;&gt;Node21</title>
<g id="a_edge22_Node000020_Node000021"><a xlink:title=" ">
<path fill="none" stroke="#63b8ff" d="M1007.1,-54.99C1029.25,-45.31 1058.48,-32.56 1079.95,-23.18"/>
<polygon fill="#63b8ff" stroke="#63b8ff" points="1081.45,-26.35 1089.21,-19.14 1078.65,-19.93 1081.45,-26.35"/>
</a>
</g>
</g>
<!-- Node22 -->
<g id="Node000022" class="node">
<title>Node22</title>
<g id="a_Node000022"><a xlink:title=" ">
<polygon fill="#e0e0e0" stroke="#999999" points="845,-19 795,-19 795,0 845,0 845,-19"/>
<text text-anchor="middle" x="820" y="-7" font-family="Helvetica,sans-Serif" font-size="10.00">cstdint</text>
</a>
</g>
</g>
<!-- Node20&#45;&gt;Node22 -->
<g id="edge23_Node000020_Node000022" class="edge">
<title>Node20&#45;&gt;Node22</title>
<g id="a_edge23_Node000020_Node000022"><a xlink:title=" ">
<path fill="none" stroke="#63b8ff" d="M937.87,-54.99C911.78,-45.14 877.22,-32.1 852.27,-22.68"/>
<polygon fill="#63b8ff" stroke="#63b8ff" points="853.48,-19.4 842.89,-19.14 851.01,-25.94 853.48,-19.4"/>
</a>
</g>
</g>
<!-- Node23 -->
<g id="Node000023" class="node">
<title>Node23</title>
<g id="a_Node000023"><a xlink:title=" ">
<polygon fill="#e0e0e0" stroke="#999999" points="907,-19 863,-19 863,0 907,0 907,-19"/>
<text text-anchor="middle" x="885" y="-7" font-family="Helvetica,sans-Serif" font-size="10.00">string</text>
</a>
</g>
</g>
<!-- Node20&#45;&gt;Node23 -->
<g id="edge24_Node000020_Node000023" class="edge">
<title>Node20&#45;&gt;Node23</title>
<g id="a_edge24_Node000020_Node000023"><a xlink:title=" ">
<path fill="none" stroke="#63b8ff" d="M953.21,-54.84C939.13,-45.68 920.87,-33.82 906.79,-24.66"/>
<polygon fill="#63b8ff" stroke="#63b8ff" points="908.51,-21.61 898.22,-19.09 904.7,-27.48 908.51,-21.61"/>
</a>
</g>
</g>
<!-- Node24 -->
<g id="Node000024" class="node">
<title>Node24</title>
<g id="a_Node000024"><a xlink:title=" ">
<polygon fill="#e0e0e0" stroke="#999999" points="998.5,-19 925.5,-19 925.5,0 998.5,0 998.5,-19"/>
<text text-anchor="middle" x="962" y="-7" font-family="Helvetica,sans-Serif" font-size="10.00">QByteArray</text>
</a>
</g>
</g>
<!-- Node20&#45;&gt;Node24 -->
<g id="edge25_Node000020_Node000024" class="edge">
<title>Node20&#45;&gt;Node24</title>
<g id="a_edge25_Node000020_Node000024"><a xlink:title=" ">
<path fill="none" stroke="#63b8ff" d="M971.85,-54.84C970.14,-47.13 968,-37.49 966.15,-29.17"/>
<polygon fill="#63b8ff" stroke="#63b8ff" points="969.53,-28.27 963.95,-19.27 962.7,-29.79 969.53,-28.27"/>
</a>
</g>
</g>
<!-- Node25 -->
<g id="Node000025" class="node">
<title>Node25</title>
<g id="a_Node000025"><a xlink:title=" ">
<polygon fill="#e0e0e0" stroke="#999999" points="1065.5,-19 1016.5,-19 1016.5,0 1065.5,0 1065.5,-19"/>
<text text-anchor="middle" x="1041" y="-7" font-family="Helvetica,sans-Serif" font-size="10.00">QHash</text>
</a>
</g>
</g>
<!-- Node20&#45;&gt;Node25 -->
<g id="edge26_Node000020_Node000025" class="edge">
<title>Node20&#45;&gt;Node25</title>
<g id="a_edge26_Node000020_Node000025"><a xlink:title=" ">
<path fill="none" stroke="#63b8ff" d="M990.98,-54.84C1000.75,-46.17 1013.27,-35.08 1023.34,-26.15"/>
<polygon fill="#63b8ff" stroke="#63b8ff" points="1025.95,-28.52 1031.11,-19.27 1021.31,-23.28 1025.95,-28.52"/>
</a>
</g>
</g>
<!-- Node26&#45;&gt;Node4 -->
<g id="edge31_Node000026_Node000004" class="edge">
<title>Node26&#45;&gt;Node4</title>
<g id="a_edge31_Node000026_Node000004"><a xlink:title=" ">
<path fill="none" stroke="#63b8ff" d="M660.02,-54.99C679.02,-45.49 703.97,-33.02 722.61,-23.69"/>
<polygon fill="#63b8ff" stroke="#63b8ff" points="724.34,-26.74 731.72,-19.14 721.21,-20.48 724.34,-26.74"/>
</a>
</g>
</g>
<!-- Node27&#45;&gt;Node4 -->
<g id="edge33_Node000027_Node000004" class="edge">
<title>Node27&#45;&gt;Node4</title>
<g id="a_edge33_Node000027_Node000004"><a xlink:title=" ">
<path fill="none" stroke="#63b8ff" d="M732.07,-126.34C735.5,-102.84 742.39,-55.76 746.23,-29.43"/>
<polygon fill="#63b8ff" stroke="#63b8ff" points="749.74,-29.65 747.72,-19.25 742.81,-28.64 749.74,-29.65"/>
</a>
</g>
</g>
<!-- Node28&#45;&gt;Node4 -->
<g id="edge35_Node000028_Node000004" class="edge">
<title>Node28&#45;&gt;Node4</title>
<g id="a_edge35_Node000028_Node000004"><a xlink:title=" ">
<path fill="none" stroke="#63b8ff" d="M892.46,-126.34C861.92,-101.68 799.23,-51.06 767.81,-25.69"/>
<polygon fill="#63b8ff" stroke="#63b8ff" points="769.81,-22.81 759.83,-19.25 765.42,-28.25 769.81,-22.81"/>
</a>
</g>
</g>
<!-- Node28&#45;&gt;Node20 -->
<g id="edge36_Node000028_Node000020" class="edge">
<title>Node28&#45;&gt;Node20</title>
<g id="a_edge36_Node000028_Node000020"><a xlink:title=" ">
<path fill="none" stroke="#63b8ff" d="M923.15,-126.44C932.23,-116.73 944.47,-103.65 954.77,-92.63"/>
<polygon fill="#63b8ff" stroke="#63b8ff" points="957.59,-94.74 961.87,-85.04 952.48,-89.96 957.59,-94.74"/>
</a>
</g>
</g>
</g>
</svg>
