<?xml version="1.0" encoding="UTF-8" standalone="no"?>
<!DOCTYPE svg PUBLIC "-//W3C//DTD SVG 1.1//EN"
 "http://www.w3.org/Graphics/SVG/1.1/DTD/svg11.dtd">
<!-- Generated by graphviz version 2.43.0 (0)
 -->
<!-- Title: features/test/frames/test_launcher/TestLauncherViewModel.cpp Pages: 1 -->
<svg width="1217pt" height="412pt"
 viewBox="0.00 0.00 1216.50 412.00" xmlns="http://www.w3.org/2000/svg" xmlns:xlink="http://www.w3.org/1999/xlink">
<g id="graph0" class="graph" transform="scale(1 1) rotate(0) translate(4 408)">
<title>features/test/frames/test_launcher/TestLauncherViewModel.cpp</title>
<!-- Node1 -->
<g id="Node000001" class="node">
<title>Node1</title>
<g id="a_Node000001"><a xlink:title=" ">
<polygon fill="#999999" stroke="#666666" points="373.5,-404 221.5,-404 221.5,-363 373.5,-363 373.5,-404"/>
<text text-anchor="start" x="229.5" y="-392" font-family="Helvetica,sans-Serif" font-size="10.00">features/test/frames</text>
<text text-anchor="start" x="229.5" y="-381" font-family="Helvetica,sans-Serif" font-size="10.00">/test_launcher/TestLauncher</text>
<text text-anchor="middle" x="297.5" y="-370" font-family="Helvetica,sans-Serif" font-size="10.00">ViewModel.cpp</text>
</a>
</g>
</g>
<!-- Node2 -->
<g id="Node000002" class="node">
<title>Node2</title>
<g id="a_Node000002"><a xlink:href="TestLauncherViewModel_8h.html" target="_top" xlink:title=" ">
<polygon fill="white" stroke="#666666" points="143,-145.5 0,-145.5 0,-126.5 143,-126.5 143,-145.5"/>
<text text-anchor="middle" x="71.5" y="-133.5" font-family="Helvetica,sans-Serif" font-size="10.00">TestLauncherViewModel.h</text>
</a>
</g>
</g>
<!-- Node1&#45;&gt;Node2 -->
<g id="edge1_Node000001_Node000002" class="edge">
<title>Node1&#45;&gt;Node2</title>
<g id="a_edge1_Node000001_Node000002"><a xlink:title=" ">
<path fill="none" stroke="#63b8ff" d="M221.27,-364.19C198.64,-355.82 175.19,-343.87 157.5,-327 106.2,-278.09 83.07,-192.89 75.02,-155.49"/>
<polygon fill="#63b8ff" stroke="#63b8ff" points="78.42,-154.62 73,-145.51 71.56,-156.01 78.42,-154.62"/>
</a>
</g>
</g>
<!-- Node7 -->
<g id="Node000007" class="node">
<title>Node7</title>
<g id="a_Node000007"><a xlink:href="Messages_8h.html" target="_top" xlink:title=" ">
<polygon fill="white" stroke="#666666" points="359,-85 256,-85 256,-55 359,-55 359,-85"/>
<text text-anchor="start" x="264" y="-73" font-family="Helvetica,sans-Serif" font-size="10.00">src/core/Protocols</text>
<text text-anchor="middle" x="307.5" y="-62" font-family="Helvetica,sans-Serif" font-size="10.00">/Messages.h</text>
</a>
</g>
</g>
<!-- Node1&#45;&gt;Node7 -->
<g id="edge48_Node000001_Node000007" class="edge">
<title>Node1&#45;&gt;Node7</title>
<g id="a_edge48_Node000001_Node000007"><a xlink:title=" ">
<path fill="none" stroke="#63b8ff" d="M258.32,-362.99C221.34,-341.48 171.5,-303.1 171.5,-252.5 171.5,-252.5 171.5,-252.5 171.5,-195.5 171.5,-144.87 223.42,-109.27 263.1,-89.46"/>
<polygon fill="#63b8ff" stroke="#63b8ff" points="264.63,-92.61 272.12,-85.12 261.59,-86.31 264.63,-92.61"/>
</a>
</g>
</g>
<!-- Node13 -->
<g id="Node000013" class="node">
<title>Node13</title>
<g id="a_Node000013"><a xlink:href="TxtParser_8h.html" target="_top" xlink:title=" ">
<polygon fill="white" stroke="#666666" points="377,-151 238,-151 238,-121 377,-121 377,-151"/>
<text text-anchor="start" x="246" y="-139" font-family="Helvetica,sans-Serif" font-size="10.00">src/services/TXTManager</text>
<text text-anchor="middle" x="307.5" y="-128" font-family="Helvetica,sans-Serif" font-size="10.00">/TxtParser.h</text>
</a>
</g>
</g>
<!-- Node1&#45;&gt;Node13 -->
<g id="edge15_Node000001_Node000013" class="edge">
<title>Node1&#45;&gt;Node13</title>
<g id="a_edge15_Node000001_Node000013"><a xlink:title=" ">
<path fill="none" stroke="#63b8ff" d="M291.31,-362.95C288.3,-352.42 285.01,-339.13 283.5,-327 275.83,-265.25 269.69,-247.67 283.5,-187 285.59,-177.82 289.58,-168.36 293.72,-160.18"/>
<polygon fill="#63b8ff" stroke="#63b8ff" points="296.87,-161.71 298.54,-151.24 290.71,-158.38 296.87,-161.71"/>
</a>
</g>
</g>
<!-- Node14 -->
<g id="Node000014" class="node">
<title>Node14</title>
<g id="a_Node000014"><a xlink:href="UdpChannel_8h.html" target="_top" xlink:title=" ">
<polygon fill="white" stroke="#666666" points="661,-327 508,-327 508,-297 661,-297 661,-327"/>
<text text-anchor="start" x="516" y="-315" font-family="Helvetica,sans-Serif" font-size="10.00">src/features/communication</text>
<text text-anchor="middle" x="584.5" y="-304" font-family="Helvetica,sans-Serif" font-size="10.00">/udp/UdpChannel.h</text>
</a>
</g>
</g>
<!-- Node1&#45;&gt;Node14 -->
<g id="edge18_Node000001_Node000014" class="edge">
<title>Node1&#45;&gt;Node14</title>
<g id="a_edge18_Node000001_Node000014"><a xlink:title=" ">
<path fill="none" stroke="#63b8ff" d="M373.66,-364.06C418.18,-353.28 473.89,-339.78 516.86,-329.38"/>
<polygon fill="#63b8ff" stroke="#63b8ff" points="517.77,-332.76 526.66,-327.01 516.12,-325.96 517.77,-332.76"/>
</a>
</g>
</g>
<!-- Node29 -->
<g id="Node000029" class="node">
<title>Node29</title>
<g id="a_Node000029"><a xlink:href="TestBenchModel_8h.html" target="_top" xlink:title=" ">
<polygon fill="white" stroke="#666666" points="518,-145.5 395,-145.5 395,-126.5 518,-126.5 518,-145.5"/>
<text text-anchor="middle" x="456.5" y="-133.5" font-family="Helvetica,sans-Serif" font-size="10.00">../../TestBenchModel.h</text>
</a>
</g>
</g>
<!-- Node1&#45;&gt;Node29 -->
<g id="edge44_Node000001_Node000029" class="edge">
<title>Node1&#45;&gt;Node29</title>
<g id="a_edge44_Node000001_Node000029"><a xlink:title=" ">
<path fill="none" stroke="#63b8ff" d="M305.91,-362.97C313.8,-345.31 326.32,-318.79 339.5,-297 372.77,-242 419.78,-182.08 442.76,-153.7"/>
<polygon fill="#63b8ff" stroke="#63b8ff" points="445.73,-155.6 449.33,-145.64 440.3,-151.18 445.73,-155.6"/>
</a>
</g>
</g>
<!-- Node30 -->
<g id="Node000030" class="node">
<title>Node30</title>
<g id="a_Node000030"><a xlink:href="FileSystem_8h.html" target="_top" xlink:title=" ">
<polygon fill="white" stroke="#666666" points="479,-327 348,-327 348,-297 479,-297 479,-327"/>
<text text-anchor="start" x="356" y="-315" font-family="Helvetica,sans-Serif" font-size="10.00">src/services/FileSystem</text>
<text text-anchor="middle" x="413.5" y="-304" font-family="Helvetica,sans-Serif" font-size="10.00">/FileSystem.h</text>
</a>
</g>
</g>
<!-- Node1&#45;&gt;Node30 -->
<g id="edge49_Node000001_Node000030" class="edge">
<title>Node1&#45;&gt;Node30</title>
<g id="a_edge49_Node000001_Node000030"><a xlink:title=" ">
<path fill="none" stroke="#63b8ff" d="M330.12,-362.96C346.03,-353.42 365.11,-341.99 381,-332.47"/>
<polygon fill="#63b8ff" stroke="#63b8ff" points="383.17,-335.25 389.94,-327.11 379.57,-329.25 383.17,-335.25"/>
</a>
</g>
</g>
<!-- Node31 -->
<g id="Node000031" class="node">
<title>Node31</title>
<g id="a_Node000031"><a xlink:title=" ">
<polygon fill="#e0e0e0" stroke="#999999" points="717.5,-321.5 679.5,-321.5 679.5,-302.5 717.5,-302.5 717.5,-321.5"/>
<text text-anchor="middle" x="698.5" y="-309.5" font-family="Helvetica,sans-Serif" font-size="10.00">QDir</text>
</a>
</g>
</g>
<!-- Node1&#45;&gt;Node31 -->
<g id="edge51_Node000001_Node000031" class="edge">
<title>Node1&#45;&gt;Node31</title>
<g id="a_edge51_Node000001_Node000031"><a xlink:title=" ">
<path fill="none" stroke="#63b8ff" d="M373.73,-378.21C450.25,-372.28 570.76,-358.47 670.5,-327 671.72,-326.61 672.96,-326.18 674.2,-325.71"/>
<polygon fill="#63b8ff" stroke="#63b8ff" points="675.74,-328.86 683.46,-321.61 672.9,-322.46 675.74,-328.86"/>
</a>
</g>
</g>
<!-- Node3 -->
<g id="Node000003" class="node">
<title>Node3</title>
<g id="a_Node000003"><a xlink:title=" ">
<polygon fill="#e0e0e0" stroke="#999999" points="99,-19 54,-19 54,0 99,0 99,-19"/>
<text text-anchor="middle" x="76.5" y="-7" font-family="Helvetica,sans-Serif" font-size="10.00">QMap</text>
</a>
</g>
</g>
<!-- Node2&#45;&gt;Node3 -->
<g id="edge2_Node000002_Node000003" class="edge">
<title>Node2&#45;&gt;Node3</title>
<g id="a_edge2_Node000002_Node000003"><a xlink:title=" ">
<path fill="none" stroke="#63b8ff" d="M71.84,-126.44C72.64,-106.54 74.64,-56.76 75.74,-29.35"/>
<polygon fill="#63b8ff" stroke="#63b8ff" points="79.25,-29.25 76.15,-19.12 72.26,-28.97 79.25,-29.25"/>
</a>
</g>
</g>
<!-- Node4 -->
<g id="Node000004" class="node">
<title>Node4</title>
<g id="a_Node000004"><a xlink:title=" ">
<polygon fill="#e0e0e0" stroke="#999999" points="172,-19 119,-19 119,0 172,0 172,-19"/>
<text text-anchor="middle" x="145.5" y="-7" font-family="Helvetica,sans-Serif" font-size="10.00">QString</text>
</a>
</g>
</g>
<!-- Node2&#45;&gt;Node4 -->
<g id="edge3_Node000002_Node000004" class="edge">
<title>Node2&#45;&gt;Node4</title>
<g id="a_edge3_Node000002_Node000004"><a xlink:title=" ">
<path fill="none" stroke="#63b8ff" d="M76.59,-126.44C88.63,-106.19 119.07,-54.97 135.16,-27.9"/>
<polygon fill="#63b8ff" stroke="#63b8ff" points="138.28,-29.5 140.38,-19.12 132.26,-25.93 138.28,-29.5"/>
</a>
</g>
</g>
<!-- Node5 -->
<g id="Node000005" class="node">
<title>Node5</title>
<g id="a_Node000005"><a xlink:title=" ">
<polygon fill="#e0e0e0" stroke="#999999" points="199.5,-79.5 129.5,-79.5 129.5,-60.5 199.5,-60.5 199.5,-79.5"/>
<text text-anchor="middle" x="164.5" y="-67.5" font-family="Helvetica,sans-Serif" font-size="10.00">QStringList</text>
</a>
</g>
</g>
<!-- Node2&#45;&gt;Node5 -->
<g id="edge4_Node000002_Node000005" class="edge">
<title>Node2&#45;&gt;Node5</title>
<g id="a_edge4_Node000002_Node000005"><a xlink:title=" ">
<path fill="none" stroke="#63b8ff" d="M84.04,-126.37C99.3,-115.87 125.27,-98 143.57,-85.4"/>
<polygon fill="#63b8ff" stroke="#63b8ff" points="145.61,-88.25 151.86,-79.7 141.64,-82.48 145.61,-88.25"/>
</a>
</g>
</g>
<!-- Node6 -->
<g id="Node000006" class="node">
<title>Node6</title>
<g id="a_Node000006"><a xlink:title=" ">
<polygon fill="#e0e0e0" stroke="#999999" points="476.5,-19 420.5,-19 420.5,0 476.5,0 476.5,-19"/>
<text text-anchor="middle" x="448.5" y="-7" font-family="Helvetica,sans-Serif" font-size="10.00">QObject</text>
</a>
</g>
</g>
<!-- Node2&#45;&gt;Node6 -->
<g id="edge5_Node000002_Node000006" class="edge">
<title>Node2&#45;&gt;Node6</title>
<g id="a_edge5_Node000002_Node000006"><a xlink:title=" ">
<path fill="none" stroke="#63b8ff" d="M103.14,-126.46C131.7,-118.07 174.33,-103.79 208.5,-85 227.66,-74.46 227.68,-64.23 247.5,-55 312.24,-24.85 336.59,-34.41 410.03,-19.23"/>
<polygon fill="#63b8ff" stroke="#63b8ff" points="411.19,-22.56 420.22,-17.03 409.71,-15.71 411.19,-22.56"/>
</a>
</g>
</g>
<!-- Node2&#45;&gt;Node7 -->
<g id="edge6_Node000002_Node000007" class="edge">
<title>Node2&#45;&gt;Node7</title>
<g id="a_edge6_Node000002_Node000007"><a xlink:title=" ">
<path fill="none" stroke="#63b8ff" d="M103.33,-126.37C139.78,-116.48 200.36,-100.05 246.09,-87.65"/>
<polygon fill="#63b8ff" stroke="#63b8ff" points="247.16,-90.99 255.9,-84.99 245.33,-84.23 247.16,-90.99"/>
</a>
</g>
</g>
<!-- Node7&#45;&gt;Node3 -->
<g id="edge14_Node000007_Node000003" class="edge">
<title>Node7&#45;&gt;Node3</title>
<g id="a_edge14_Node000007_Node000003"><a xlink:title=" ">
<path fill="none" stroke="#63b8ff" d="M255.79,-56.01C215.83,-45.96 159.14,-31.66 109.5,-19 109.4,-18.97 109.29,-18.95 109.19,-18.92"/>
<polygon fill="#63b8ff" stroke="#63b8ff" points="109.77,-15.46 99.22,-16.37 108.04,-22.24 109.77,-15.46"/>
</a>
</g>
</g>
<!-- Node7&#45;&gt;Node4 -->
<g id="edge12_Node000007_Node000004" class="edge">
<title>Node7&#45;&gt;Node4</title>
<g id="a_edge12_Node000007_Node000004"><a xlink:title=" ">
<path fill="none" stroke="#63b8ff" d="M268.7,-54.99C241.31,-45.1 204.98,-31.98 178.89,-22.56"/>
<polygon fill="#63b8ff" stroke="#63b8ff" points="180.02,-19.24 169.42,-19.14 177.64,-25.83 180.02,-19.24"/>
</a>
</g>
</g>
<!-- Node7&#45;&gt;Node6 -->
<g id="edge13_Node000007_Node000006" class="edge">
<title>Node7&#45;&gt;Node6</title>
<g id="a_edge13_Node000007_Node000006"><a xlink:title=" ">
<path fill="none" stroke="#63b8ff" d="M341.27,-54.99C364.69,-45.27 395.62,-32.44 418.23,-23.06"/>
<polygon fill="#63b8ff" stroke="#63b8ff" points="419.78,-26.2 427.68,-19.14 417.1,-19.74 419.78,-26.2"/>
</a>
</g>
</g>
<!-- Node8 -->
<g id="Node000008" class="node">
<title>Node8</title>
<g id="a_Node000008"><a xlink:title=" ">
<polygon fill="#e0e0e0" stroke="#999999" points="244,-19 193,-19 193,0 244,0 244,-19"/>
<text text-anchor="middle" x="218.5" y="-7" font-family="Helvetica,sans-Serif" font-size="10.00">variant</text>
</a>
</g>
</g>
<!-- Node7&#45;&gt;Node8 -->
<g id="edge7_Node000007_Node000008" class="edge">
<title>Node7&#45;&gt;Node8</title>
<g id="a_edge7_Node000007_Node000008"><a xlink:title=" ">
<path fill="none" stroke="#63b8ff" d="M285.96,-54.84C272.03,-45.68 253.97,-33.82 240.05,-24.66"/>
<polygon fill="#63b8ff" stroke="#63b8ff" points="241.85,-21.66 231.58,-19.09 238.01,-27.51 241.85,-21.66"/>
</a>
</g>
</g>
<!-- Node9 -->
<g id="Node000009" class="node">
<title>Node9</title>
<g id="a_Node000009"><a xlink:title=" ">
<polygon fill="#e0e0e0" stroke="#999999" points="905.5,-19 855.5,-19 855.5,0 905.5,0 905.5,-19"/>
<text text-anchor="middle" x="880.5" y="-7" font-family="Helvetica,sans-Serif" font-size="10.00">cstdint</text>
</a>
</g>
</g>
<!-- Node7&#45;&gt;Node9 -->
<g id="edge8_Node000007_Node000009" class="edge">
<title>Node7&#45;&gt;Node9</title>
<g id="a_edge8_Node000007_Node000009"><a xlink:title=" ">
<path fill="none" stroke="#63b8ff" d="M359.11,-63.73C473.79,-52.02 747.37,-24.09 845.07,-14.12"/>
<polygon fill="#63b8ff" stroke="#63b8ff" points="845.7,-17.57 855.3,-13.07 844.99,-10.61 845.7,-17.57"/>
</a>
</g>
</g>
<!-- Node10 -->
<g id="Node000010" class="node">
<title>Node10</title>
<g id="a_Node000010"><a xlink:title=" ">
<polygon fill="#e0e0e0" stroke="#999999" points="538.5,-19 494.5,-19 494.5,0 538.5,0 538.5,-19"/>
<text text-anchor="middle" x="516.5" y="-7" font-family="Helvetica,sans-Serif" font-size="10.00">string</text>
</a>
</g>
</g>
<!-- Node7&#45;&gt;Node10 -->
<g id="edge9_Node000007_Node000010" class="edge">
<title>Node7&#45;&gt;Node10</title>
<g id="a_edge9_Node000007_Node000010"><a xlink:title=" ">
<path fill="none" stroke="#63b8ff" d="M357.56,-54.99C396.96,-43.96 450.68,-28.92 484.48,-19.46"/>
<polygon fill="#63b8ff" stroke="#63b8ff" points="485.6,-22.78 494.29,-16.72 483.71,-16.04 485.6,-22.78"/>
</a>
</g>
</g>
<!-- Node11 -->
<g id="Node000011" class="node">
<title>Node11</title>
<g id="a_Node000011"><a xlink:title=" ">
<polygon fill="#e0e0e0" stroke="#999999" points="335,-19 262,-19 262,0 335,0 335,-19"/>
<text text-anchor="middle" x="298.5" y="-7" font-family="Helvetica,sans-Serif" font-size="10.00">QByteArray</text>
</a>
</g>
</g>
<!-- Node7&#45;&gt;Node11 -->
<g id="edge10_Node000007_Node000011" class="edge">
<title>Node7&#45;&gt;Node11</title>
<g id="a_edge10_Node000007_Node000011"><a xlink:title=" ">
<path fill="none" stroke="#63b8ff" d="M305.32,-54.84C304.13,-47.13 302.65,-37.49 301.37,-29.17"/>
<polygon fill="#63b8ff" stroke="#63b8ff" points="304.83,-28.62 299.85,-19.27 297.91,-29.68 304.83,-28.62"/>
</a>
</g>
</g>
<!-- Node12 -->
<g id="Node000012" class="node">
<title>Node12</title>
<g id="a_Node000012"><a xlink:title=" ">
<polygon fill="#e0e0e0" stroke="#999999" points="402,-19 353,-19 353,0 402,0 402,-19"/>
<text text-anchor="middle" x="377.5" y="-7" font-family="Helvetica,sans-Serif" font-size="10.00">QHash</text>
</a>
</g>
</g>
<!-- Node7&#45;&gt;Node12 -->
<g id="edge11_Node000007_Node000012" class="edge">
<title>Node7&#45;&gt;Node12</title>
<g id="a_edge11_Node000007_Node000012"><a xlink:title=" ">
<path fill="none" stroke="#63b8ff" d="M324.45,-54.84C334.92,-46.09 348.36,-34.85 359.09,-25.88"/>
<polygon fill="#63b8ff" stroke="#63b8ff" points="361.58,-28.36 367.01,-19.27 357.09,-22.99 361.58,-28.36"/>
</a>
</g>
</g>
<!-- Node13&#45;&gt;Node6 -->
<g id="edge16_Node000013_Node000006" class="edge">
<title>Node13&#45;&gt;Node6</title>
<g id="a_edge16_Node000013_Node000006"><a xlink:title=" ">
<path fill="none" stroke="#63b8ff" d="M325.36,-120.85C337.66,-110.99 354.27,-97.43 368.5,-85 390.89,-65.43 415.84,-41.91 431.83,-26.6"/>
<polygon fill="#63b8ff" stroke="#63b8ff" points="434.53,-28.86 439.32,-19.41 429.68,-23.82 434.53,-28.86"/>
</a>
</g>
</g>
<!-- Node13&#45;&gt;Node7 -->
<g id="edge17_Node000013_Node000007" class="edge">
<title>Node13&#45;&gt;Node7</title>
<g id="a_edge17_Node000013_Node000007"><a xlink:title=" ">
<path fill="none" stroke="#63b8ff" d="M307.5,-120.8C307.5,-113.34 307.5,-103.99 307.5,-95.41"/>
<polygon fill="#63b8ff" stroke="#63b8ff" points="311,-95.16 307.5,-85.16 304,-95.16 311,-95.16"/>
</a>
</g>
</g>
<!-- Node14&#45;&gt;Node6 -->
<g id="edge19_Node000014_Node000006" class="edge">
<title>Node14&#45;&gt;Node6</title>
<g id="a_edge19_Node000014_Node000006"><a xlink:title=" ">
<path fill="none" stroke="#63b8ff" d="M584.5,-296.67C584.5,-275.14 584.5,-233.17 584.5,-197.5 584.5,-197.5 584.5,-197.5 584.5,-135 584.5,-78.96 520.9,-41.34 480.69,-23.16"/>
<polygon fill="#63b8ff" stroke="#63b8ff" points="481.83,-19.84 471.26,-19.06 479.04,-26.26 481.83,-19.84"/>
</a>
</g>
</g>
<!-- Node14&#45;&gt;Node7 -->
<g id="edge22_Node000014_Node000007" class="edge">
<title>Node14&#45;&gt;Node7</title>
<g id="a_edge22_Node000014_Node000007"><a xlink:title=" ">
<path fill="none" stroke="#63b8ff" d="M507.83,-300.81C423.17,-285.02 290.77,-245.82 229.5,-151 222.26,-139.8 223.1,-132.7 229.5,-121 236.71,-107.81 249.05,-97.59 261.81,-89.93"/>
<polygon fill="#63b8ff" stroke="#63b8ff" points="263.61,-92.93 270.66,-85.02 260.21,-86.81 263.61,-92.93"/>
</a>
</g>
</g>
<!-- Node15 -->
<g id="Node000015" class="node">
<title>Node15</title>
<g id="a_Node000015"><a xlink:title=" ">
<polygon fill="#e0e0e0" stroke="#999999" points="893.5,-261 835.5,-261 835.5,-242 893.5,-242 893.5,-261"/>
<text text-anchor="middle" x="864.5" y="-249" font-family="Helvetica,sans-Serif" font-size="10.00">QThread</text>
</a>
</g>
</g>
<!-- Node14&#45;&gt;Node15 -->
<g id="edge20_Node000014_Node000015" class="edge">
<title>Node14&#45;&gt;Node15</title>
<g id="a_edge20_Node000014_Node000015"><a xlink:title=" ">
<path fill="none" stroke="#63b8ff" d="M653.93,-296.97C699.98,-287.59 762,-274.82 825.65,-261.16"/>
<polygon fill="#63b8ff" stroke="#63b8ff" points="826.42,-264.57 835.46,-259.05 824.95,-257.73 826.42,-264.57"/>
</a>
</g>
</g>
<!-- Node16 -->
<g id="Node000016" class="node">
<title>Node16</title>
<g id="a_Node000016"><a xlink:title=" ">
<polygon fill="#e0e0e0" stroke="#999999" points="987.5,-261 911.5,-261 911.5,-242 987.5,-242 987.5,-261"/>
<text text-anchor="middle" x="949.5" y="-249" font-family="Helvetica,sans-Serif" font-size="10.00">QUdpSocket</text>
</a>
</g>
</g>
<!-- Node14&#45;&gt;Node16 -->
<g id="edge21_Node000014_Node000016" class="edge">
<title>Node14&#45;&gt;Node16</title>
<g id="a_edge21_Node000014_Node000016"><a xlink:title=" ">
<path fill="none" stroke="#63b8ff" d="M661.39,-298.45C664.47,-297.96 667.51,-297.48 670.5,-297 770.43,-281.11 797.95,-278.44 901.38,-261.15"/>
<polygon fill="#63b8ff" stroke="#63b8ff" points="902.01,-264.6 911.29,-259.49 900.85,-257.69 902.01,-264.6"/>
</a>
</g>
</g>
<!-- Node17 -->
<g id="Node000017" class="node">
<title>Node17</title>
<g id="a_Node000017"><a xlink:href="UdpLogger_8h.html" target="_top" xlink:title=" ">
<polygon fill="white" stroke="#666666" points="817,-261 666,-261 666,-242 817,-242 817,-261"/>
<text text-anchor="middle" x="741.5" y="-249" font-family="Helvetica,sans-Serif" font-size="10.00">frames_logger/UdpLogger.h</text>
</a>
</g>
</g>
<!-- Node14&#45;&gt;Node17 -->
<g id="edge23_Node000014_Node000017" class="edge">
<title>Node14&#45;&gt;Node17</title>
<g id="a_edge23_Node000014_Node000017"><a xlink:title=" ">
<path fill="none" stroke="#63b8ff" d="M622.11,-296.99C648.53,-287.14 683.54,-274.1 708.81,-264.68"/>
<polygon fill="#63b8ff" stroke="#63b8ff" points="710.17,-267.91 718.31,-261.14 707.72,-261.35 710.17,-267.91"/>
</a>
</g>
</g>
<!-- Node17&#45;&gt;Node9 -->
<g id="edge39_Node000017_Node000009" class="edge">
<title>Node17&#45;&gt;Node9</title>
<g id="a_edge39_Node000017_Node000009"><a xlink:title=" ">
<path fill="none" stroke="#63b8ff" d="M809.75,-241.94C853.31,-234.92 904.04,-223.28 917.5,-206 959.58,-151.96 914.28,-64.35 891.71,-27.59"/>
<polygon fill="#63b8ff" stroke="#63b8ff" points="894.59,-25.59 886.29,-19.02 888.67,-29.34 894.59,-25.59"/>
</a>
</g>
</g>
<!-- Node18 -->
<g id="Node000018" class="node">
<title>Node18</title>
<g id="a_Node000018"><a xlink:href="RingBuffer_8h.html" target="_top" xlink:title=" ">
<polygon fill="white" stroke="#666666" points="1040.5,-206 964.5,-206 964.5,-187 1040.5,-187 1040.5,-206"/>
<text text-anchor="middle" x="1002.5" y="-194" font-family="Helvetica,sans-Serif" font-size="10.00">RingBuffer.h</text>
</a>
</g>
</g>
<!-- Node17&#45;&gt;Node18 -->
<g id="edge24_Node000017_Node000018" class="edge">
<title>Node17&#45;&gt;Node18</title>
<g id="a_edge24_Node000017_Node000018"><a xlink:title=" ">
<path fill="none" stroke="#63b8ff" d="M783.43,-241.98C830.12,-232.51 905.43,-217.21 954.45,-207.26"/>
<polygon fill="#63b8ff" stroke="#63b8ff" points="955.39,-210.64 964.49,-205.22 953.99,-203.78 955.39,-210.64"/>
</a>
</g>
</g>
<!-- Node21 -->
<g id="Node000021" class="node">
<title>Node21</title>
<g id="a_Node000021"><a xlink:title=" ">
<polygon fill="#e0e0e0" stroke="#999999" points="1208.5,-145.5 1158.5,-145.5 1158.5,-126.5 1208.5,-126.5 1208.5,-145.5"/>
<text text-anchor="middle" x="1183.5" y="-133.5" font-family="Helvetica,sans-Serif" font-size="10.00">atomic</text>
</a>
</g>
</g>
<!-- Node17&#45;&gt;Node21 -->
<g id="edge38_Node000017_Node000021" class="edge">
<title>Node17&#45;&gt;Node21</title>
<g id="a_edge38_Node000017_Node000021"><a xlink:title=" ">
<path fill="none" stroke="#63b8ff" d="M817.31,-242.46C894.16,-233.79 1007.56,-219.41 1049.5,-206 1091.45,-192.58 1136.17,-166.98 1161.88,-151.01"/>
<polygon fill="#63b8ff" stroke="#63b8ff" points="1163.86,-153.9 1170.45,-145.61 1160.12,-147.98 1163.86,-153.9"/>
</a>
</g>
</g>
<!-- Node23 -->
<g id="Node000023" class="node">
<title>Node23</title>
<g id="a_Node000023"><a xlink:href="Logger_8h.html" target="_top" xlink:title=" ">
<polygon fill="white" stroke="#666666" points="731.5,-151 621.5,-151 621.5,-121 731.5,-121 731.5,-151"/>
<text text-anchor="start" x="629.5" y="-139" font-family="Helvetica,sans-Serif" font-size="10.00">src/services/Logger</text>
<text text-anchor="middle" x="676.5" y="-128" font-family="Helvetica,sans-Serif" font-size="10.00">/Logger.h</text>
</a>
</g>
</g>
<!-- Node17&#45;&gt;Node23 -->
<g id="edge43_Node000017_Node000023" class="edge">
<title>Node17&#45;&gt;Node23</title>
<g id="a_edge43_Node000017_Node000023"><a xlink:title=" ">
<path fill="none" stroke="#63b8ff" d="M696.04,-241.96C675.73,-235.64 653.66,-224.72 641.5,-206 631.71,-190.93 641.71,-172.78 653.48,-158.87"/>
<polygon fill="#63b8ff" stroke="#63b8ff" points="656.31,-160.97 660.49,-151.23 651.15,-156.24 656.31,-160.97"/>
</a>
</g>
</g>
<!-- Node25 -->
<g id="Node000025" class="node">
<title>Node25</title>
<g id="a_Node000025"><a xlink:href="Writer_8h.html" target="_top" xlink:title=" ">
<polygon fill="white" stroke="#666666" points="908,-206 853,-206 853,-187 908,-187 908,-206"/>
<text text-anchor="middle" x="880.5" y="-194" font-family="Helvetica,sans-Serif" font-size="10.00">Writer.h</text>
</a>
</g>
</g>
<!-- Node17&#45;&gt;Node25 -->
<g id="edge33_Node000017_Node000025" class="edge">
<title>Node17&#45;&gt;Node25</title>
<g id="a_edge33_Node000017_Node000025"><a xlink:title=" ">
<path fill="none" stroke="#63b8ff" d="M763.83,-241.98C786.7,-233.27 822.46,-219.63 848.36,-209.75"/>
<polygon fill="#63b8ff" stroke="#63b8ff" points="849.66,-213 857.76,-206.17 847.17,-206.46 849.66,-213"/>
</a>
</g>
</g>
<!-- Node26 -->
<g id="Node000026" class="node">
<title>Node26</title>
<g id="a_Node000026"><a xlink:title=" ">
<polygon fill="#e0e0e0" stroke="#999999" points="698.5,-206 650.5,-206 650.5,-187 698.5,-187 698.5,-206"/>
<text text-anchor="middle" x="674.5" y="-194" font-family="Helvetica,sans-Serif" font-size="10.00">thread</text>
</a>
</g>
</g>
<!-- Node17&#45;&gt;Node26 -->
<g id="edge40_Node000017_Node000026" class="edge">
<title>Node17&#45;&gt;Node26</title>
<g id="a_edge40_Node000017_Node000026"><a xlink:title=" ">
<path fill="none" stroke="#63b8ff" d="M730.74,-241.98C720.73,-234.07 705.61,-222.11 693.57,-212.58"/>
<polygon fill="#63b8ff" stroke="#63b8ff" points="695.47,-209.63 685.46,-206.17 691.13,-215.12 695.47,-209.63"/>
</a>
</g>
</g>
<!-- Node27 -->
<g id="Node000027" class="node">
<title>Node27</title>
<g id="a_Node000027"><a xlink:title=" ">
<polygon fill="#e0e0e0" stroke="#999999" points="766.5,-206 716.5,-206 716.5,-187 766.5,-187 766.5,-206"/>
<text text-anchor="middle" x="741.5" y="-194" font-family="Helvetica,sans-Serif" font-size="10.00">chrono</text>
</a>
</g>
</g>
<!-- Node17&#45;&gt;Node27 -->
<g id="edge41_Node000017_Node000027" class="edge">
<title>Node17&#45;&gt;Node27</title>
<g id="a_edge41_Node000017_Node000027"><a xlink:title=" ">
<path fill="none" stroke="#63b8ff" d="M741.5,-241.75C741.5,-234.8 741.5,-224.85 741.5,-216.13"/>
<polygon fill="#63b8ff" stroke="#63b8ff" points="745,-216.09 741.5,-206.09 738,-216.09 745,-216.09"/>
</a>
</g>
</g>
<!-- Node28 -->
<g id="Node000028" class="node">
<title>Node28</title>
<g id="a_Node000028"><a xlink:title=" ">
<polygon fill="#e0e0e0" stroke="#999999" points="834.5,-206 784.5,-206 784.5,-187 834.5,-187 834.5,-206"/>
<text text-anchor="middle" x="809.5" y="-194" font-family="Helvetica,sans-Serif" font-size="10.00">format</text>
</a>
</g>
</g>
<!-- Node17&#45;&gt;Node28 -->
<g id="edge42_Node000017_Node000028" class="edge">
<title>Node17&#45;&gt;Node28</title>
<g id="a_edge42_Node000017_Node000028"><a xlink:title=" ">
<path fill="none" stroke="#63b8ff" d="M752.43,-241.98C762.58,-234.07 777.92,-222.11 790.15,-212.58"/>
<polygon fill="#63b8ff" stroke="#63b8ff" points="792.64,-215.08 798.38,-206.17 788.34,-209.56 792.64,-215.08"/>
</a>
</g>
</g>
<!-- Node18&#45;&gt;Node9 -->
<g id="edge26_Node000018_Node000009" class="edge">
<title>Node18&#45;&gt;Node9</title>
<g id="a_edge26_Node000018_Node000009"><a xlink:title=" ">
<path fill="none" stroke="#63b8ff" d="M1000.06,-186.76C992.35,-159.5 967.91,-76.55 950.5,-55 939.77,-41.71 923.95,-31.18 910.06,-23.71"/>
<polygon fill="#63b8ff" stroke="#63b8ff" points="911.35,-20.44 900.85,-19.03 908.18,-26.68 911.35,-20.44"/>
</a>
</g>
</g>
<!-- Node19 -->
<g id="Node000019" class="node">
<title>Node19</title>
<g id="a_Node000019"><a xlink:title=" ">
<polygon fill="#e0e0e0" stroke="#999999" points="1058.5,-145.5 1002.5,-145.5 1002.5,-126.5 1058.5,-126.5 1058.5,-145.5"/>
<text text-anchor="middle" x="1030.5" y="-133.5" font-family="Helvetica,sans-Serif" font-size="10.00">QDebug</text>
</a>
</g>
</g>
<!-- Node18&#45;&gt;Node19 -->
<g id="edge25_Node000018_Node000019" class="edge">
<title>Node18&#45;&gt;Node19</title>
<g id="a_edge25_Node000018_Node000019"><a xlink:title=" ">
<path fill="none" stroke="#63b8ff" d="M1006.63,-186.87C1010.64,-178.49 1016.85,-165.51 1021.94,-154.89"/>
<polygon fill="#63b8ff" stroke="#63b8ff" points="1025.19,-156.2 1026.35,-145.67 1018.88,-153.18 1025.19,-156.2"/>
</a>
</g>
</g>
<!-- Node20 -->
<g id="Node000020" class="node">
<title>Node20</title>
<g id="a_Node000020"><a xlink:title=" ">
<polygon fill="#e0e0e0" stroke="#999999" points="908,-145.5 853,-145.5 853,-126.5 908,-126.5 908,-145.5"/>
<text text-anchor="middle" x="880.5" y="-133.5" font-family="Helvetica,sans-Serif" font-size="10.00">fstream</text>
</a>
</g>
</g>
<!-- Node18&#45;&gt;Node20 -->
<g id="edge27_Node000018_Node000020" class="edge">
<title>Node18&#45;&gt;Node20</title>
<g id="a_edge27_Node000018_Node000020"><a xlink:title=" ">
<path fill="none" stroke="#63b8ff" d="M984.76,-186.99C964.43,-177.25 930.89,-161.16 907.36,-149.88"/>
<polygon fill="#63b8ff" stroke="#63b8ff" points="908.79,-146.68 898.26,-145.52 905.76,-153 908.79,-146.68"/>
</a>
</g>
</g>
<!-- Node18&#45;&gt;Node21 -->
<g id="edge28_Node000018_Node000021" class="edge">
<title>Node18&#45;&gt;Node21</title>
<g id="a_edge28_Node000018_Node000021"><a xlink:title=" ">
<path fill="none" stroke="#63b8ff" d="M1033.76,-186.99C1063.71,-178.6 1110.07,-165.05 1149.5,-151 1150.93,-150.49 1152.38,-149.96 1153.85,-149.4"/>
<polygon fill="#63b8ff" stroke="#63b8ff" points="1155.46,-152.53 1163.49,-145.62 1152.9,-146.02 1155.46,-152.53"/>
</a>
</g>
</g>
<!-- Node22 -->
<g id="Node000022" class="node">
<title>Node22</title>
<g id="a_Node000022"><a xlink:title=" ">
<polygon fill="#e0e0e0" stroke="#999999" points="1140.5,-145.5 1076.5,-145.5 1076.5,-126.5 1140.5,-126.5 1140.5,-145.5"/>
<text text-anchor="middle" x="1108.5" y="-133.5" font-family="Helvetica,sans-Serif" font-size="10.00">algorithm</text>
</a>
</g>
</g>
<!-- Node18&#45;&gt;Node22 -->
<g id="edge29_Node000018_Node000022" class="edge">
<title>Node18&#45;&gt;Node22</title>
<g id="a_edge29_Node000018_Node000022"><a xlink:title=" ">
<path fill="none" stroke="#63b8ff" d="M1018.14,-186.87C1035.44,-177.32 1063.55,-161.81 1083.83,-150.62"/>
<polygon fill="#63b8ff" stroke="#63b8ff" points="1085.73,-153.56 1092.8,-145.67 1082.35,-147.43 1085.73,-153.56"/>
</a>
</g>
</g>
<!-- Node18&#45;&gt;Node23 -->
<g id="edge30_Node000018_Node000023" class="edge">
<title>Node18&#45;&gt;Node23</title>
<g id="a_edge30_Node000018_Node000023"><a xlink:title=" ">
<path fill="none" stroke="#63b8ff" d="M964.47,-188.67C909.83,-178.87 808.37,-160.66 741.65,-148.69"/>
<polygon fill="#63b8ff" stroke="#63b8ff" points="742.12,-145.22 731.66,-146.9 740.88,-152.11 742.12,-145.22"/>
</a>
</g>
</g>
<!-- Node23&#45;&gt;Node7 -->
<g id="edge32_Node000023_Node000007" class="edge">
<title>Node23&#45;&gt;Node7</title>
<g id="a_edge32_Node000023_Node000007"><a xlink:title=" ">
<path fill="none" stroke="#63b8ff" d="M621.26,-125.42C553.71,-113.7 439.71,-93.93 369.3,-81.72"/>
<polygon fill="#63b8ff" stroke="#63b8ff" points="369.69,-78.23 359.24,-79.97 368.5,-85.13 369.69,-78.23"/>
</a>
</g>
</g>
<!-- Node24 -->
<g id="Node000024" class="node">
<title>Node24</title>
<g id="a_Node000024"><a xlink:title=" ">
<polygon fill="#e0e0e0" stroke="#999999" points="706,-79.5 647,-79.5 647,-60.5 706,-60.5 706,-79.5"/>
<text text-anchor="middle" x="676.5" y="-67.5" font-family="Helvetica,sans-Serif" font-size="10.00">QWidget</text>
</a>
</g>
</g>
<!-- Node23&#45;&gt;Node24 -->
<g id="edge31_Node000023_Node000024" class="edge">
<title>Node23&#45;&gt;Node24</title>
<g id="a_edge31_Node000023_Node000024"><a xlink:title=" ">
<path fill="none" stroke="#63b8ff" d="M676.5,-120.8C676.5,-111.7 676.5,-99.79 676.5,-89.9"/>
<polygon fill="#63b8ff" stroke="#63b8ff" points="680,-89.84 676.5,-79.84 673,-89.84 680,-89.84"/>
</a>
</g>
</g>
<!-- Node25&#45;&gt;Node9 -->
<g id="edge34_Node000025_Node000009" class="edge">
<title>Node25&#45;&gt;Node9</title>
<g id="a_edge34_Node000025_Node000009"><a xlink:title=" ">
<path fill="none" stroke="#63b8ff" d="M870.34,-186.81C861.6,-178.6 849.6,-165.43 844.5,-151 829.16,-107.66 854.01,-54.67 869.53,-27.85"/>
<polygon fill="#63b8ff" stroke="#63b8ff" points="872.57,-29.58 874.73,-19.21 866.57,-25.97 872.57,-29.58"/>
</a>
</g>
</g>
<!-- Node25&#45;&gt;Node10 -->
<g id="edge36_Node000025_Node000010" class="edge">
<title>Node25&#45;&gt;Node10</title>
<g id="a_edge36_Node000025_Node000010"><a xlink:title=" ">
<path fill="none" stroke="#63b8ff" d="M871.54,-186.85C842.62,-159.08 751.52,-72.97 715.5,-55 660.83,-27.73 589.43,-17 548.71,-12.91"/>
<polygon fill="#63b8ff" stroke="#63b8ff" points="548.84,-9.41 538.56,-11.96 548.19,-16.38 548.84,-9.41"/>
</a>
</g>
</g>
<!-- Node25&#45;&gt;Node20 -->
<g id="edge35_Node000025_Node000020" class="edge">
<title>Node25&#45;&gt;Node20</title>
<g id="a_edge35_Node000025_Node000020"><a xlink:title=" ">
<path fill="none" stroke="#63b8ff" d="M880.5,-186.87C880.5,-178.75 880.5,-166.31 880.5,-155.89"/>
<polygon fill="#63b8ff" stroke="#63b8ff" points="884,-155.67 880.5,-145.67 877,-155.67 884,-155.67"/>
</a>
</g>
</g>
<!-- Node25&#45;&gt;Node23 -->
<g id="edge37_Node000025_Node000023" class="edge">
<title>Node25&#45;&gt;Node23</title>
<g id="a_edge37_Node000025_Node000023"><a xlink:title=" ">
<path fill="none" stroke="#63b8ff" d="M852.99,-187.61C822.91,-178.99 773.83,-164.91 735.05,-153.79"/>
<polygon fill="#63b8ff" stroke="#63b8ff" points="736.01,-150.43 725.44,-151.03 734.08,-157.15 736.01,-150.43"/>
</a>
</g>
</g>
<!-- Node29&#45;&gt;Node6 -->
<g id="edge45_Node000029_Node000006" class="edge">
<title>Node29&#45;&gt;Node6</title>
<g id="a_edge45_Node000029_Node000006"><a xlink:title=" ">
<path fill="none" stroke="#63b8ff" d="M455.95,-126.44C454.67,-106.54 451.47,-56.76 449.71,-29.35"/>
<polygon fill="#63b8ff" stroke="#63b8ff" points="453.19,-28.87 449.05,-19.12 446.2,-29.32 453.19,-28.87"/>
</a>
</g>
</g>
<!-- Node29&#45;&gt;Node7 -->
<g id="edge47_Node000029_Node000007" class="edge">
<title>Node29&#45;&gt;Node7</title>
<g id="a_edge47_Node000029_Node000007"><a xlink:title=" ">
<path fill="none" stroke="#63b8ff" d="M436.41,-126.37C414.28,-116.87 378.08,-101.32 349.67,-89.11"/>
<polygon fill="#63b8ff" stroke="#63b8ff" points="350.93,-85.85 340.36,-85.12 348.17,-92.28 350.93,-85.85"/>
</a>
</g>
</g>
<!-- Node29&#45;&gt;Node10 -->
<g id="edge46_Node000029_Node000010" class="edge">
<title>Node29&#45;&gt;Node10</title>
<g id="a_edge46_Node000029_Node000010"><a xlink:title=" ">
<path fill="none" stroke="#63b8ff" d="M460.62,-126.44C470.34,-106.27 494.85,-55.42 507.94,-28.26"/>
<polygon fill="#63b8ff" stroke="#63b8ff" points="511.16,-29.65 512.35,-19.12 504.85,-26.61 511.16,-29.65"/>
</a>
</g>
</g>
<!-- Node30&#45;&gt;Node6 -->
<g id="edge50_Node000030_Node000006" class="edge">
<title>Node30&#45;&gt;Node6</title>
<g id="a_edge50_Node000030_Node000006"><a xlink:title=" ">
<path fill="none" stroke="#63b8ff" d="M452.69,-296.85C491.92,-279.86 546.5,-247.28 546.5,-197.5 546.5,-197.5 546.5,-197.5 546.5,-135 546.5,-86.39 499.8,-45.56 470.88,-24.94"/>
<polygon fill="#63b8ff" stroke="#63b8ff" points="472.76,-21.99 462.54,-19.2 468.79,-27.75 472.76,-21.99"/>
</a>
</g>
</g>
</g>
</svg>
