<?xml version="1.0" encoding="UTF-8" standalone="no"?>
<!DOCTYPE svg PUBLIC "-//W3C//DTD SVG 1.1//EN"
 "http://www.w3.org/Graphics/SVG/1.1/DTD/svg11.dtd">
<!-- Generated by graphviz version 2.43.0 (0)
 -->
<!-- Title: features/test/TestBenchModel.cpp Pages: 1 -->
<!--zoomable 390 -->

<svg id="main" version="1.1" xmlns="http://www.w3.org/2000/svg" xmlns:xlink="http://www.w3.org/1999/xlink" xml:space="preserve" onload="init(evt)">
<style type="text/css"><![CDATA[
.node, .edge {opacity: 0.7;}
.node.selected, .edge.selected {opacity: 1;}
.edge:hover path { stroke: red; }
.edge:hover polygon { stroke: red; fill: red; }
]]></style>

<defs>
  <circle id="rim" cx="0" cy="0" r="7"/>
  <circle id="rim2" cx="0" cy="0" r="3.5"/>
  <g id="zoomPlus">
    <use xlink:href="#rim" fill="#404040"><set attributeName="fill" to="#808080" begin="zoomplus.mouseover" end="zoomplus.mouseout"/></use>
    <path d="M-4,0h8M0,-4v8" fill="none" stroke="white" stroke-width="1.5" pointer-events="none"/>
  </g>
  <g id="zoomMin">
    <use xlink:href="#rim" fill="#404040"><set attributeName="fill" to="#808080" begin="zoomminus.mouseover" end="zoomminus.mouseout"/></use>
    <path d="M-4,0h8" fill="none" stroke="white" stroke-width="1.5" pointer-events="none"/>
  </g>
  <g id="arrowUp" transform="translate(30 24)">
    <use xlink:href="#rim"/>
    <path pointer-events="none" fill="none" stroke="white" stroke-width="1.5" d="M0,-3.0v7 M-2.5,-0.5L0,-3.0L2.5,-0.5"/>
  </g>
  <g id="arrowRight" transform="rotate(90) translate(36 -43)">
    <use xlink:href="#rim"/>
    <path pointer-events="none" fill="none" stroke="white" stroke-width="1.5" d="M0,-3.0v7 M-2.5,-0.5L0,-3.0L2.5,-0.5"/>
  </g>
  <g id="arrowDown" transform="rotate(180) translate(-30 -48)">
    <use xlink:href="#rim"/>
    <path pointer-events="none" fill="none" stroke="white" stroke-width="1.5" d="M0,-3.0v7 M-2.5,-0.5L0,-3.0L2.5,-0.5"/>
  </g>
  <g id="arrowLeft" transform="rotate(270) translate(-36 17)">
    <use xlink:href="#rim"/>
    <path pointer-events="none" fill="none" stroke="white" stroke-width="1.5" d="M0,-3.0v7 M-2.5,-0.5L0,-3.0L2.5,-0.5"/>
  </g>
  <g id="resetDef">
    <use xlink:href="#rim2" fill="#404040"><set attributeName="fill" to="#808080" begin="reset.mouseover" end="reset.mouseout"/></use>
  </g>
</defs>
<script type="application/ecmascript">
var viewWidth = 769;
var viewHeight = 390;
var sectionId = 'dynsection-0';
</script>
<script type="application/ecmascript" xlink:href="svg.min.js"/>
<svg id="graph" class="graph">
<g id="viewport">
<title>features/test/TestBenchModel.cpp</title>
<!-- Node1 -->
<g id="Node000001" class="node">
<title>Node1</title>
<g id="a_Node000001"><a xlink:title=" ">
<polygon fill="#999999" stroke="#666666" points="667.12,-382 485.12,-382 485.12,-363 667.12,-363 667.12,-382"/>
<text text-anchor="middle" x="576.12" y="-370" font-family="Helvetica,sans-Serif" font-size="10.00">features/test/TestBenchModel.cpp</text>
</a>
</g>
</g>
<!-- Node2 -->
<g id="Node000002" class="node">
<title>Node2</title>
<g id="a_Node000002"><a xlink:href="TestBenchModel_8h.html" target="_top" xlink:title=" ">
<polygon fill="white" stroke="#666666" points="723.62,-145.5 618.62,-145.5 618.62,-126.5 723.62,-126.5 723.62,-145.5"/>
<text text-anchor="middle" x="671.12" y="-133.5" font-family="Helvetica,sans-Serif" font-size="10.00">TestBenchModel.h</text>
</a>
</g>
</g>
<!-- Node1&#45;&gt;Node2 -->
<g id="edge1_Node000001_Node000002" class="edge">
<title>Node1&#45;&gt;Node2</title>
<g id="a_edge1_Node000001_Node000002"><a xlink:title=" ">
<path fill="none" stroke="#63b8ff" d="M584.13,-362.91C591.73,-354.37 603.01,-340.61 610.12,-327 640.83,-268.24 659.72,-191.16 667.29,-155.98"/>
<polygon fill="#63b8ff" stroke="#63b8ff" points="670.81,-156.25 669.43,-145.75 663.96,-154.82 670.81,-156.25"/>
</a>
</g>
</g>
<!-- Node12 -->
<g id="Node000012" class="node">
<title>Node12</title>
<g id="a_Node000012"><a xlink:href="UdpChannel_8h.html" target="_top" xlink:title="UDP communication channel between the microcontroller and the HMI.">
<polygon fill="white" stroke="#666666" points="600.62,-327 447.62,-327 447.62,-297 600.62,-297 600.62,-327"/>
<text text-anchor="start" x="455.62" y="-315" font-family="Helvetica,sans-Serif" font-size="10.00">src/features/communication</text>
<text text-anchor="middle" x="524.12" y="-304" font-family="Helvetica,sans-Serif" font-size="10.00">/udp/UdpChannel.h</text>
</a>
</g>
</g>
<!-- Node1&#45;&gt;Node12 -->
<g id="edge13_Node000001_Node000012" class="edge">
<title>Node1&#45;&gt;Node12</title>
<g id="a_edge13_Node000001_Node000012"><a xlink:title=" ">
<path fill="none" stroke="#63b8ff" d="M568.45,-362.87C561.85,-355.44 552.05,-344.42 543.34,-334.62"/>
<polygon fill="#63b8ff" stroke="#63b8ff" points="545.93,-332.26 536.67,-327.11 540.7,-336.91 545.93,-332.26"/>
</a>
</g>
</g>
<!-- Node3 -->
<g id="Node000003" class="node">
<title>Node3</title>
<g id="a_Node000003"><a xlink:title=" ">
<polygon fill="#e0e0e0" stroke="#999999" points="699.12,-19 643.12,-19 643.12,0 699.12,0 699.12,-19"/>
<text text-anchor="middle" x="671.12" y="-7" font-family="Helvetica,sans-Serif" font-size="10.00">QObject</text>
</a>
</g>
</g>
<!-- Node2&#45;&gt;Node3 -->
<g id="edge2_Node000002_Node000003" class="edge">
<title>Node2&#45;&gt;Node3</title>
<g id="a_edge2_Node000002_Node000003"><a xlink:title=" ">
<path fill="none" stroke="#63b8ff" d="M671.12,-126.44C671.12,-106.54 671.12,-56.76 671.12,-29.35"/>
<polygon fill="#63b8ff" stroke="#63b8ff" points="674.62,-29.12 671.12,-19.12 667.62,-29.12 674.62,-29.12"/>
</a>
</g>
</g>
<!-- Node4 -->
<g id="Node000004" class="node">
<title>Node4</title>
<g id="a_Node000004"><a xlink:title=" ">
<polygon fill="#e0e0e0" stroke="#999999" points="761.12,-19 717.12,-19 717.12,0 761.12,0 761.12,-19"/>
<text text-anchor="middle" x="739.12" y="-7" font-family="Helvetica,sans-Serif" font-size="10.00">string</text>
</a>
</g>
</g>
<!-- Node2&#45;&gt;Node4 -->
<g id="edge3_Node000002_Node000004" class="edge">
<title>Node2&#45;&gt;Node4</title>
<g id="a_edge3_Node000002_Node000004"><a xlink:title=" ">
<path fill="none" stroke="#63b8ff" d="M675.8,-126.44C686.86,-106.19 714.83,-54.97 729.62,-27.9"/>
<polygon fill="#63b8ff" stroke="#63b8ff" points="732.7,-29.57 734.42,-19.12 726.55,-26.22 732.7,-29.57"/>
</a>
</g>
</g>
<!-- Node5 -->
<g id="Node000005" class="node">
<title>Node5</title>
<g id="a_Node000005"><a xlink:href="Messages_8h.html" target="_top" xlink:title=" ">
<polygon fill="white" stroke="#666666" points="565.62,-85 462.62,-85 462.62,-55 565.62,-55 565.62,-85"/>
<text text-anchor="start" x="470.62" y="-73" font-family="Helvetica,sans-Serif" font-size="10.00">src/core/Protocols</text>
<text text-anchor="middle" x="514.12" y="-62" font-family="Helvetica,sans-Serif" font-size="10.00">/Messages.h</text>
</a>
</g>
</g>
<!-- Node2&#45;&gt;Node5 -->
<g id="edge4_Node000002_Node000005" class="edge">
<title>Node2&#45;&gt;Node5</title>
<g id="a_edge4_Node000002_Node000005"><a xlink:title=" ">
<path fill="none" stroke="#63b8ff" d="M649.95,-126.37C626.54,-116.82 588.17,-101.18 558.17,-88.95"/>
<polygon fill="#63b8ff" stroke="#63b8ff" points="559.33,-85.65 548.75,-85.12 556.69,-92.13 559.33,-85.65"/>
</a>
</g>
</g>
<!-- Node5&#45;&gt;Node3 -->
<g id="edge11_Node000005_Node000003" class="edge">
<title>Node5&#45;&gt;Node3</title>
<g id="a_edge11_Node000005_Node000003"><a xlink:title=" ">
<path fill="none" stroke="#63b8ff" d="M551.73,-54.99C578.16,-45.14 613.17,-32.1 638.43,-22.68"/>
<polygon fill="#63b8ff" stroke="#63b8ff" points="639.79,-25.91 647.94,-19.14 637.35,-19.35 639.79,-25.91"/>
</a>
</g>
</g>
<!-- Node5&#45;&gt;Node4 -->
<g id="edge7_Node000005_Node000004" class="edge">
<title>Node5&#45;&gt;Node4</title>
<g id="a_edge7_Node000005_Node000004"><a xlink:title=" ">
<path fill="none" stroke="#63b8ff" d="M565.65,-55.95C602.56,-46.55 653.7,-33.42 707.42,-19.16"/>
<polygon fill="#63b8ff" stroke="#63b8ff" points="708.36,-22.53 717.12,-16.58 706.56,-15.77 708.36,-22.53"/>
</a>
</g>
</g>
<!-- Node6 -->
<g id="Node000006" class="node">
<title>Node6</title>
<g id="a_Node000006"><a xlink:title=" ">
<polygon fill="#e0e0e0" stroke="#999999" points="533.62,-19 482.62,-19 482.62,0 533.62,0 533.62,-19"/>
<text text-anchor="middle" x="508.12" y="-7" font-family="Helvetica,sans-Serif" font-size="10.00">variant</text>
</a>
</g>
</g>
<!-- Node5&#45;&gt;Node6 -->
<g id="edge5_Node000005_Node000006" class="edge">
<title>Node5&#45;&gt;Node6</title>
<g id="a_edge5_Node000005_Node000006"><a xlink:title=" ">
<path fill="none" stroke="#63b8ff" d="M512.67,-54.84C511.89,-47.21 510.91,-37.7 510.07,-29.45"/>
<polygon fill="#63b8ff" stroke="#63b8ff" points="513.53,-28.86 509.02,-19.27 506.56,-29.57 513.53,-28.86"/>
</a>
</g>
</g>
<!-- Node7 -->
<g id="Node000007" class="node">
<title>Node7</title>
<g id="a_Node000007"><a xlink:title=" ">
<polygon fill="#e0e0e0" stroke="#999999" points="203.12,-19 153.12,-19 153.12,0 203.12,0 203.12,-19"/>
<text text-anchor="middle" x="178.12" y="-7" font-family="Helvetica,sans-Serif" font-size="10.00">cstdint</text>
</a>
</g>
</g>
<!-- Node5&#45;&gt;Node7 -->
<g id="edge6_Node000005_Node000007" class="edge">
<title>Node5&#45;&gt;Node7</title>
<g id="a_edge6_Node000005_Node000007"><a xlink:title=" ">
<path fill="none" stroke="#63b8ff" d="M462.59,-56.92C459.39,-56.25 456.22,-55.6 453.12,-55 367.42,-38.25 265.81,-22.99 213.36,-15.45"/>
<polygon fill="#63b8ff" stroke="#63b8ff" points="213.64,-11.96 203.25,-14.01 212.65,-18.89 213.64,-11.96"/>
</a>
</g>
</g>
<!-- Node8 -->
<g id="Node000008" class="node">
<title>Node8</title>
<g id="a_Node000008"><a xlink:title=" ">
<polygon fill="#e0e0e0" stroke="#999999" points="624.62,-19 551.62,-19 551.62,0 624.62,0 624.62,-19"/>
<text text-anchor="middle" x="588.12" y="-7" font-family="Helvetica,sans-Serif" font-size="10.00">QByteArray</text>
</a>
</g>
</g>
<!-- Node5&#45;&gt;Node8 -->
<g id="edge8_Node000005_Node000008" class="edge">
<title>Node5&#45;&gt;Node8</title>
<g id="a_edge8_Node000005_Node000008"><a xlink:title=" ">
<path fill="none" stroke="#63b8ff" d="M532.04,-54.84C543.22,-46 557.6,-34.63 569,-25.62"/>
<polygon fill="#63b8ff" stroke="#63b8ff" points="571.36,-28.21 577.04,-19.27 567.02,-22.72 571.36,-28.21"/>
</a>
</g>
</g>
<!-- Node9 -->
<g id="Node000009" class="node">
<title>Node9</title>
<g id="a_Node000009"><a xlink:title=" ">
<polygon fill="#e0e0e0" stroke="#999999" points="330.62,-19 281.62,-19 281.62,0 330.62,0 330.62,-19"/>
<text text-anchor="middle" x="306.12" y="-7" font-family="Helvetica,sans-Serif" font-size="10.00">QHash</text>
</a>
</g>
</g>
<!-- Node5&#45;&gt;Node9 -->
<g id="edge9_Node000005_Node000009" class="edge">
<title>Node5&#45;&gt;Node9</title>
<g id="a_edge9_Node000005_Node000009"><a xlink:title=" ">
<path fill="none" stroke="#63b8ff" d="M464.3,-54.99C426.07,-44.24 374.29,-29.67 340.55,-20.18"/>
<polygon fill="#63b8ff" stroke="#63b8ff" points="341.27,-16.75 330.7,-17.41 339.38,-23.49 341.27,-16.75"/>
</a>
</g>
</g>
<!-- Node10 -->
<g id="Node000010" class="node">
<title>Node10</title>
<g id="a_Node000010"><a xlink:title=" ">
<polygon fill="#e0e0e0" stroke="#999999" points="401.62,-19 348.62,-19 348.62,0 401.62,0 401.62,-19"/>
<text text-anchor="middle" x="375.12" y="-7" font-family="Helvetica,sans-Serif" font-size="10.00">QString</text>
</a>
</g>
</g>
<!-- Node5&#45;&gt;Node10 -->
<g id="edge10_Node000005_Node000010" class="edge">
<title>Node5&#45;&gt;Node10</title>
<g id="a_edge10_Node000005_Node000010"><a xlink:title=" ">
<path fill="none" stroke="#63b8ff" d="M480.83,-54.99C457.74,-45.27 427.26,-32.44 404.96,-23.06"/>
<polygon fill="#63b8ff" stroke="#63b8ff" points="406.23,-19.79 395.65,-19.14 403.51,-26.24 406.23,-19.79"/>
</a>
</g>
</g>
<!-- Node11 -->
<g id="Node000011" class="node">
<title>Node11</title>
<g id="a_Node000011"><a xlink:title=" ">
<polygon fill="#e0e0e0" stroke="#999999" points="464.62,-19 419.62,-19 419.62,0 464.62,0 464.62,-19"/>
<text text-anchor="middle" x="442.12" y="-7" font-family="Helvetica,sans-Serif" font-size="10.00">QMap</text>
</a>
</g>
</g>
<!-- Node5&#45;&gt;Node11 -->
<g id="edge12_Node000005_Node000011" class="edge">
<title>Node5&#45;&gt;Node11</title>
<g id="a_edge12_Node000005_Node000011"><a xlink:title=" ">
<path fill="none" stroke="#63b8ff" d="M496.7,-54.84C485.82,-46 471.82,-34.63 460.73,-25.62"/>
<polygon fill="#63b8ff" stroke="#63b8ff" points="462.88,-22.86 452.91,-19.27 458.47,-28.29 462.88,-22.86"/>
</a>
</g>
</g>
<!-- Node12&#45;&gt;Node3 -->
<g id="edge14_Node000012_Node000003" class="edge">
<title>Node12&#45;&gt;Node3</title>
<g id="a_edge14_Node000012_Node000003"><a xlink:title=" ">
<path fill="none" stroke="#63b8ff" d="M530.01,-297C543.44,-265.29 577.67,-185.74 610.12,-121 626.9,-87.53 648.45,-49.53 660.93,-27.94"/>
<polygon fill="#63b8ff" stroke="#63b8ff" points="663.98,-29.66 665.98,-19.25 657.93,-26.14 663.98,-29.66"/>
</a>
</g>
</g>
<!-- Node12&#45;&gt;Node5 -->
<g id="edge17_Node000012_Node000005" class="edge">
<title>Node12&#45;&gt;Node5</title>
<g id="a_edge17_Node000012_Node000005"><a xlink:title=" ">
<path fill="none" stroke="#63b8ff" d="M524.48,-296.99C524.72,-286.97 525,-273.15 525.12,-261 525.21,-252.56 525.4,-250.44 525.12,-242 523.44,-189.64 518.87,-128.4 516.18,-95.28"/>
<polygon fill="#63b8ff" stroke="#63b8ff" points="519.66,-94.85 515.35,-85.17 512.68,-95.43 519.66,-94.85"/>
</a>
</g>
</g>
<!-- Node13 -->
<g id="Node000013" class="node">
<title>Node13</title>
<g id="a_Node000013"><a xlink:title=" ">
<polygon fill="#e0e0e0" stroke="#999999" points="422.12,-261 364.12,-261 364.12,-242 422.12,-242 422.12,-261"/>
<text text-anchor="middle" x="393.12" y="-249" font-family="Helvetica,sans-Serif" font-size="10.00">QThread</text>
</a>
</g>
</g>
<!-- Node12&#45;&gt;Node13 -->
<g id="edge15_Node000012_Node000013" class="edge">
<title>Node12&#45;&gt;Node13</title>
<g id="a_edge15_Node000012_Node000013"><a xlink:title=" ">
<path fill="none" stroke="#63b8ff" d="M492.75,-296.99C471.18,-287.36 442.77,-274.67 421.81,-265.31"/>
<polygon fill="#63b8ff" stroke="#63b8ff" points="423.03,-262.02 412.47,-261.14 420.17,-268.41 423.03,-262.02"/>
</a>
</g>
</g>
<!-- Node14 -->
<g id="Node000014" class="node">
<title>Node14</title>
<g id="a_Node000014"><a xlink:title=" ">
<polygon fill="#e0e0e0" stroke="#999999" points="516.12,-261 440.12,-261 440.12,-242 516.12,-242 516.12,-261"/>
<text text-anchor="middle" x="478.12" y="-249" font-family="Helvetica,sans-Serif" font-size="10.00">QUdpSocket</text>
</a>
</g>
</g>
<!-- Node12&#45;&gt;Node14 -->
<g id="edge16_Node000012_Node000014" class="edge">
<title>Node12&#45;&gt;Node14</title>
<g id="a_edge16_Node000012_Node000014"><a xlink:title=" ">
<path fill="none" stroke="#63b8ff" d="M512.99,-296.84C506.45,-288.52 498.14,-277.96 491.28,-269.23"/>
<polygon fill="#63b8ff" stroke="#63b8ff" points="493.95,-266.96 485.02,-261.27 488.45,-271.29 493.95,-266.96"/>
</a>
</g>
</g>
<!-- Node15 -->
<g id="Node000015" class="node">
<title>Node15</title>
<g id="a_Node000015"><a xlink:href="UdpLogger_8h.html" target="_top" xlink:title="High&#45;frequency binary logger for UDP telemetry frames.">
<polygon fill="white" stroke="#666666" points="320.62,-261 169.62,-261 169.62,-242 320.62,-242 320.62,-261"/>
<text text-anchor="middle" x="245.12" y="-249" font-family="Helvetica,sans-Serif" font-size="10.00">frames_logger/UdpLogger.h</text>
</a>
</g>
</g>
<!-- Node12&#45;&gt;Node15 -->
<g id="edge18_Node000012_Node000015" class="edge">
<title>Node12&#45;&gt;Node15</title>
<g id="a_edge18_Node000012_Node000015"><a xlink:title=" ">
<path fill="none" stroke="#63b8ff" d="M457.3,-296.99C407.69,-286.59 341.07,-272.62 295.81,-263.13"/>
<polygon fill="#63b8ff" stroke="#63b8ff" points="296.42,-259.68 285.92,-261.05 294.99,-266.53 296.42,-259.68"/>
</a>
</g>
</g>
<!-- Node15&#45;&gt;Node7 -->
<g id="edge20_Node000015_Node000007" class="edge">
<title>Node15&#45;&gt;Node7</title>
<g id="a_edge20_Node000015_Node000007"><a xlink:title=" ">
<path fill="none" stroke="#63b8ff" d="M169.36,-242.87C112.52,-232.54 39.22,-208.22 7.12,-151 -28.68,-87.17 83.47,-40.54 143.22,-20.85"/>
<polygon fill="#63b8ff" stroke="#63b8ff" points="144.57,-24.1 153.02,-17.71 142.43,-17.43 144.57,-24.1"/>
</a>
</g>
</g>
<!-- Node16 -->
<g id="Node000016" class="node">
<title>Node16</title>
<g id="a_Node000016"><a xlink:title=" ">
<polygon fill="#e0e0e0" stroke="#999999" points="66.12,-145.5 16.12,-145.5 16.12,-126.5 66.12,-126.5 66.12,-145.5"/>
<text text-anchor="middle" x="41.12" y="-133.5" font-family="Helvetica,sans-Serif" font-size="10.00">atomic</text>
</a>
</g>
</g>
<!-- Node15&#45;&gt;Node16 -->
<g id="edge19_Node000015_Node000016" class="edge">
<title>Node15&#45;&gt;Node16</title>
<g id="a_edge19_Node000015_Node000016"><a xlink:title=" ">
<path fill="none" stroke="#63b8ff" d="M215.92,-241.98C191.79,-234.32 157.08,-221.85 129.12,-206 102.13,-190.7 74.54,-167.6 57.62,-152.41"/>
<polygon fill="#63b8ff" stroke="#63b8ff" points="59.96,-149.82 50.22,-145.66 55.25,-154.99 59.96,-149.82"/>
</a>
</g>
</g>
<!-- Node17 -->
<g id="Node000017" class="node">
<title>Node17</title>
<g id="a_Node000017"><a xlink:title=" ">
<polygon fill="#e0e0e0" stroke="#999999" points="280.12,-206 232.12,-206 232.12,-187 280.12,-187 280.12,-206"/>
<text text-anchor="middle" x="256.12" y="-194" font-family="Helvetica,sans-Serif" font-size="10.00">thread</text>
</a>
</g>
</g>
<!-- Node15&#45;&gt;Node17 -->
<g id="edge21_Node000015_Node000017" class="edge">
<title>Node15&#45;&gt;Node17</title>
<g id="a_edge21_Node000015_Node000017"><a xlink:title=" ">
<path fill="none" stroke="#63b8ff" d="M246.94,-241.75C248.38,-234.8 250.45,-224.85 252.26,-216.13"/>
<polygon fill="#63b8ff" stroke="#63b8ff" points="255.74,-216.59 254.34,-206.09 248.88,-215.17 255.74,-216.59"/>
</a>
</g>
</g>
<!-- Node18 -->
<g id="Node000018" class="node">
<title>Node18</title>
<g id="a_Node000018"><a xlink:href="RingBuffer_8h.html" target="_top" xlink:title=" ">
<polygon fill="white" stroke="#666666" points="214.12,-206 138.12,-206 138.12,-187 214.12,-187 214.12,-206"/>
<text text-anchor="middle" x="176.12" y="-194" font-family="Helvetica,sans-Serif" font-size="10.00">RingBuffer.h</text>
</a>
</g>
</g>
<!-- Node15&#45;&gt;Node18 -->
<g id="edge22_Node000015_Node000018" class="edge">
<title>Node15&#45;&gt;Node18</title>
<g id="a_edge22_Node000015_Node000018"><a xlink:title=" ">
<path fill="none" stroke="#63b8ff" d="M234.04,-241.98C223.64,-234 207.86,-221.88 195.4,-212.31"/>
<polygon fill="#63b8ff" stroke="#63b8ff" points="197.47,-209.49 187.41,-206.17 193.21,-215.04 197.47,-209.49"/>
</a>
</g>
</g>
<!-- Node24 -->
<g id="Node000024" class="node">
<title>Node24</title>
<g id="a_Node000024"><a xlink:href="Writer_8h.html" target="_top" xlink:title=" ">
<polygon fill="white" stroke="#666666" points="389.62,-206 334.62,-206 334.62,-187 389.62,-187 389.62,-206"/>
<text text-anchor="middle" x="362.12" y="-194" font-family="Helvetica,sans-Serif" font-size="10.00">Writer.h</text>
</a>
</g>
</g>
<!-- Node15&#45;&gt;Node24 -->
<g id="edge31_Node000015_Node000024" class="edge">
<title>Node15&#45;&gt;Node24</title>
<g id="a_edge31_Node000015_Node000024"><a xlink:title=" ">
<path fill="none" stroke="#63b8ff" d="M263.92,-241.98C282.74,-233.46 311.95,-220.23 333.62,-210.41"/>
<polygon fill="#63b8ff" stroke="#63b8ff" points="335.32,-213.48 342.98,-206.17 332.43,-207.11 335.32,-213.48"/>
</a>
</g>
</g>
<!-- Node18&#45;&gt;Node7 -->
<g id="edge24_Node000018_Node000007" class="edge">
<title>Node18&#45;&gt;Node7</title>
<g id="a_edge24_Node000018_Node000007"><a xlink:title=" ">
<path fill="none" stroke="#63b8ff" d="M154.97,-186.93C140.3,-179.73 121.87,-167.88 113.12,-151 106.99,-139.16 109.62,-133.86 113.12,-121 123.06,-84.52 148.43,-47.8 164.37,-27.22"/>
<polygon fill="#63b8ff" stroke="#63b8ff" points="167.27,-29.2 170.75,-19.2 161.79,-24.85 167.27,-29.2"/>
</a>
</g>
</g>
<!-- Node18&#45;&gt;Node16 -->
<g id="edge26_Node000018_Node000016" class="edge">
<title>Node18&#45;&gt;Node16</title>
<g id="a_edge26_Node000018_Node000016"><a xlink:title=" ">
<path fill="none" stroke="#63b8ff" d="M156.49,-186.99C133.8,-177.16 96.23,-160.88 70.15,-149.58"/>
<polygon fill="#63b8ff" stroke="#63b8ff" points="71.35,-146.28 60.78,-145.52 68.56,-152.7 71.35,-146.28"/>
</a>
</g>
</g>
<!-- Node19 -->
<g id="Node000019" class="node">
<title>Node19</title>
<g id="a_Node000019"><a xlink:title=" ">
<polygon fill="#e0e0e0" stroke="#999999" points="178.12,-145.5 122.12,-145.5 122.12,-126.5 178.12,-126.5 178.12,-145.5"/>
<text text-anchor="middle" x="150.12" y="-133.5" font-family="Helvetica,sans-Serif" font-size="10.00">QDebug</text>
</a>
</g>
</g>
<!-- Node18&#45;&gt;Node19 -->
<g id="edge23_Node000018_Node000019" class="edge">
<title>Node18&#45;&gt;Node19</title>
<g id="a_edge23_Node000018_Node000019"><a xlink:title=" ">
<path fill="none" stroke="#63b8ff" d="M172.29,-186.87C168.56,-178.49 162.8,-165.51 158.08,-154.89"/>
<polygon fill="#63b8ff" stroke="#63b8ff" points="161.24,-153.38 153.98,-145.67 154.84,-156.23 161.24,-153.38"/>
</a>
</g>
</g>
<!-- Node20 -->
<g id="Node000020" class="node">
<title>Node20</title>
<g id="a_Node000020"><a xlink:title=" ">
<polygon fill="#e0e0e0" stroke="#999999" points="333.62,-145.5 278.62,-145.5 278.62,-126.5 333.62,-126.5 333.62,-145.5"/>
<text text-anchor="middle" x="306.12" y="-133.5" font-family="Helvetica,sans-Serif" font-size="10.00">fstream</text>
</a>
</g>
</g>
<!-- Node18&#45;&gt;Node20 -->
<g id="edge25_Node000018_Node000020" class="edge">
<title>Node18&#45;&gt;Node20</title>
<g id="a_edge25_Node000018_Node000020"><a xlink:title=" ">
<path fill="none" stroke="#63b8ff" d="M195.03,-186.99C216.79,-177.2 252.74,-161.02 277.84,-149.73"/>
<polygon fill="#63b8ff" stroke="#63b8ff" points="279.52,-152.81 287.2,-145.52 276.64,-146.43 279.52,-152.81"/>
</a>
</g>
</g>
<!-- Node21 -->
<g id="Node000021" class="node">
<title>Node21</title>
<g id="a_Node000021"><a xlink:title=" ">
<polygon fill="#e0e0e0" stroke="#999999" points="260.12,-145.5 196.12,-145.5 196.12,-126.5 260.12,-126.5 260.12,-145.5"/>
<text text-anchor="middle" x="228.12" y="-133.5" font-family="Helvetica,sans-Serif" font-size="10.00">algorithm</text>
</a>
</g>
</g>
<!-- Node18&#45;&gt;Node21 -->
<g id="edge27_Node000018_Node000021" class="edge">
<title>Node18&#45;&gt;Node21</title>
<g id="a_edge27_Node000018_Node000021"><a xlink:title=" ">
<path fill="none" stroke="#63b8ff" d="M183.8,-186.87C191.63,-178.05 203.98,-164.16 213.66,-153.27"/>
<polygon fill="#63b8ff" stroke="#63b8ff" points="216.39,-155.47 220.42,-145.67 211.16,-150.82 216.39,-155.47"/>
</a>
</g>
</g>
<!-- Node22 -->
<g id="Node000022" class="node">
<title>Node22</title>
<g id="a_Node000022"><a xlink:href="Logger_8h.html" target="_top" xlink:title="Tool that provide the ability to display and log errors and debug messages.">
<polygon fill="white" stroke="#666666" points="500.12,-151 390.12,-151 390.12,-121 500.12,-121 500.12,-151"/>
<text text-anchor="start" x="398.12" y="-139" font-family="Helvetica,sans-Serif" font-size="10.00">src/services/Logger</text>
<text text-anchor="middle" x="445.12" y="-128" font-family="Helvetica,sans-Serif" font-size="10.00">/Logger.h</text>
</a>
</g>
</g>
<!-- Node18&#45;&gt;Node22 -->
<g id="edge28_Node000018_Node000022" class="edge">
<title>Node18&#45;&gt;Node22</title>
<g id="a_edge28_Node000018_Node000022"><a xlink:title=" ">
<path fill="none" stroke="#63b8ff" d="M214.38,-187.18C257.35,-177.84 327.85,-162.5 379.63,-151.24"/>
<polygon fill="#63b8ff" stroke="#63b8ff" points="380.69,-154.59 389.72,-149.05 379.21,-147.75 380.69,-154.59"/>
</a>
</g>
</g>
<!-- Node22&#45;&gt;Node5 -->
<g id="edge30_Node000022_Node000005" class="edge">
<title>Node22&#45;&gt;Node5</title>
<g id="a_edge30_Node000022_Node000005"><a xlink:title=" ">
<path fill="none" stroke="#63b8ff" d="M460.44,-120.8C469.55,-112.34 481.28,-101.46 491.45,-92.03"/>
<polygon fill="#63b8ff" stroke="#63b8ff" points="493.9,-94.53 498.85,-85.16 489.14,-89.4 493.9,-94.53"/>
</a>
</g>
</g>
<!-- Node23 -->
<g id="Node000023" class="node">
<title>Node23</title>
<g id="a_Node000023"><a xlink:title=" ">
<polygon fill="#e0e0e0" stroke="#999999" points="444.62,-79.5 385.62,-79.5 385.62,-60.5 444.62,-60.5 444.62,-79.5"/>
<text text-anchor="middle" x="415.12" y="-67.5" font-family="Helvetica,sans-Serif" font-size="10.00">QWidget</text>
</a>
</g>
</g>
<!-- Node22&#45;&gt;Node23 -->
<g id="edge29_Node000022_Node000023" class="edge">
<title>Node22&#45;&gt;Node23</title>
<g id="a_edge29_Node000022_Node000023"><a xlink:title=" ">
<path fill="none" stroke="#63b8ff" d="M438.47,-120.8C434.06,-111.41 428.26,-99.02 423.54,-88.95"/>
<polygon fill="#63b8ff" stroke="#63b8ff" points="426.68,-87.41 419.27,-79.84 420.35,-90.38 426.68,-87.41"/>
</a>
</g>
</g>
<!-- Node24&#45;&gt;Node4 -->
<g id="edge34_Node000024_Node000004" class="edge">
<title>Node24&#45;&gt;Node4</title>
<g id="a_edge34_Node000024_Node000004"><a xlink:title=" ">
<path fill="none" stroke="#63b8ff" d="M389.75,-194.21C471.79,-190.12 709.82,-176.17 733.12,-151 763.87,-117.8 753.24,-59.04 745.03,-29.12"/>
<polygon fill="#63b8ff" stroke="#63b8ff" points="748.29,-27.78 742.1,-19.18 741.58,-29.76 748.29,-27.78"/>
</a>
</g>
</g>
<!-- Node24&#45;&gt;Node7 -->
<g id="edge32_Node000024_Node000007" class="edge">
<title>Node24&#45;&gt;Node7</title>
<g id="a_edge32_Node000024_Node000007"><a xlink:title=" ">
<path fill="none" stroke="#63b8ff" d="M361.74,-186.86C360.68,-172.06 356.75,-141.49 342.12,-121 308.06,-73.29 246.48,-40.07 209.24,-23.23"/>
<polygon fill="#63b8ff" stroke="#63b8ff" points="210.44,-19.93 199.88,-19.11 207.62,-26.34 210.44,-19.93"/>
</a>
</g>
</g>
<!-- Node24&#45;&gt;Node20 -->
<g id="edge33_Node000024_Node000020" class="edge">
<title>Node24&#45;&gt;Node20</title>
<g id="a_edge33_Node000024_Node000020"><a xlink:title=" ">
<path fill="none" stroke="#63b8ff" d="M353.86,-186.87C345.34,-177.97 331.86,-163.89 321.4,-152.95"/>
<polygon fill="#63b8ff" stroke="#63b8ff" points="323.86,-150.47 314.42,-145.67 318.81,-155.31 323.86,-150.47"/>
</a>
</g>
</g>
<!-- Node24&#45;&gt;Node22 -->
<g id="edge35_Node000024_Node000022" class="edge">
<title>Node24&#45;&gt;Node22</title>
<g id="a_edge35_Node000024_Node000022"><a xlink:title=" ">
<path fill="none" stroke="#63b8ff" d="M374.37,-186.87C385.53,-179 402.43,-167.09 416.91,-156.89"/>
<polygon fill="#63b8ff" stroke="#63b8ff" points="418.94,-159.74 425.1,-151.11 414.91,-154.01 418.94,-159.74"/>
</a>
</g>
</g>
</g>
</svg>

<g id="navigator" transform="translate(0 0)" fill="#404254">
  <rect fill="#f2f5e9" fill-opacity="0.5" stroke="#606060" stroke-width=".5" x="0" y="0" width="60" height="60"/>
  <use id="zoomplus" xlink:href="#zoomPlus" x="17" y="9" onmousedown="handleZoom(evt,'in')"/>
  <use id="zoomminus" xlink:href="#zoomMin" x="42" y="9" onmousedown="handleZoom(evt,'out')"/>
  <use id="reset" xlink:href="#resetDef" x="30" y="36" onmousedown="handleReset()"/>
   <use id="arrowup" xlink:href="#arrowUp" x="0" y="0" onmousedown="handlePan(0,-1)"/>
  <use id="arrowright" xlink:href="#arrowRight" x="0" y="0" onmousedown="handlePan(1,0)"/>
  <use id="arrowdown" xlink:href="#arrowDown" x="0" y="0" onmousedown="handlePan(0,1)"/>
  <use id="arrowleft" xlink:href="#arrowLeft" x="0" y="0" onmousedown="handlePan(-1,0)"/>
</g>
<svg viewBox="0 0 15 15" width="100%" height="30px" preserveAspectRatio="xMaxYMin meet">
 <g id="arrow_out" transform="scale(0.3 0.3)">
  <a xlink:href="TestBenchModel_8cpp__incl_org.svg" target="_base">
   <rect id="button" ry="5" rx="5" y="6" x="6" height="38" width="38"
        fill="#f2f5e9" fill-opacity="0.5" stroke="#606060" stroke-width="1.0"/>
   <path id="arrow"
     d="M 11.500037,31.436501 C 11.940474,20.09759 22.043105,11.32322 32.158766,21.979434 L 37.068811,17.246167 C 37.068811,17.246167 37.088388,32 37.088388,32 L 22.160133,31.978069 C 22.160133,31.978069 26.997745,27.140456 26.997745,27.140456 C 18.528582,18.264221 13.291696,25.230495 11.500037,31.436501 z"
     style="fill:#404040;"/>
  </a>
 </g>
</svg>

<style type='text/css'>
<![CDATA[
[data-mouse-over-selected='false'] { opacity: 0.7; }
[data-mouse-over-selected='true']  { opacity: 1.0; }
]]>
</style>
<script type="application/ecmascript"><![CDATA[
document.addEventListener('DOMContentLoaded', (event) => {
  highlightEdges();
  highlightAdjacentNodes();
});
]]></script>
</svg>
