<?xml version="1.0" encoding="UTF-8" standalone="no"?>
<!DOCTYPE svg PUBLIC "-//W3C//DTD SVG 1.1//EN"
 "http://www.w3.org/Graphics/SVG/1.1/DTD/svg11.dtd">
<!-- Generated by graphviz version 2.43.0 (0)
 -->
<!-- Title: services/Timer/Timer.h Pages: 1 -->
<svg width="1473pt" height="104pt"
 viewBox="0.00 0.00 1472.50 104.00" xmlns="http://www.w3.org/2000/svg" xmlns:xlink="http://www.w3.org/1999/xlink">
<g id="graph0" class="graph" transform="scale(1 1) rotate(0) translate(4 100)">
<title>services/Timer/Timer.h</title>
<!-- Node1 -->
<g id="Node000001" class="node">
<title>Node1</title>
<g id="a_Node000001"><a xlink:title=" ">
<polygon fill="#999999" stroke="#666666" points="806.5,-96 678.5,-96 678.5,-77 806.5,-77 806.5,-96"/>
<text text-anchor="middle" x="742.5" y="-84" font-family="Helvetica,sans-Serif" font-size="10.00">services/Timer/Timer.h</text>
</a>
</g>
</g>
<!-- Node2 -->
<g id="Node000002" class="node">
<title>Node2</title>
<g id="a_Node000002"><a xlink:href="PlotViewModel_8cpp.html" target="_top" xlink:title=" ">
<polygon fill="white" stroke="#666666" points="123,-35.5 0,-35.5 0,-5.5 123,-5.5 123,-35.5"/>
<text text-anchor="start" x="8" y="-23.5" font-family="Helvetica,sans-Serif" font-size="10.00">features/graphics/plot</text>
<text text-anchor="middle" x="61.5" y="-12.5" font-family="Helvetica,sans-Serif" font-size="10.00">/PlotViewModel.cpp</text>
</a>
</g>
</g>
<!-- Node1&#45;&gt;Node2 -->
<g id="edge1_Node000001_Node000002" class="edge">
<title>Node1&#45;&gt;Node2</title>
<g id="a_edge1_Node000001_Node000002"><a xlink:title=" ">
<path fill="none" stroke="#63b8ff" d="M668.06,-84.83C552.42,-82.73 322.98,-74.3 131.5,-41 123.42,-39.59 114.93,-37.65 106.76,-35.52"/>
<polygon fill="#63b8ff" stroke="#63b8ff" points="668.16,-88.34 678.22,-85.01 668.28,-81.34 668.16,-88.34"/>
</a>
</g>
</g>
<!-- Node3 -->
<g id="Node000003" class="node">
<title>Node3</title>
<g id="a_Node000003"><a xlink:href="DebugDisplayViewModel_8cpp.html" target="_top" xlink:title=" ">
<polygon fill="white" stroke="#666666" points="344,-35.5 141,-35.5 141,-5.5 344,-5.5 344,-35.5"/>
<text text-anchor="start" x="149" y="-23.5" font-family="Helvetica,sans-Serif" font-size="10.00">features/overlay/debug</text>
<text text-anchor="middle" x="242.5" y="-12.5" font-family="Helvetica,sans-Serif" font-size="10.00">_display/DebugDisplayViewModel.cpp</text>
</a>
</g>
</g>
<!-- Node1&#45;&gt;Node3 -->
<g id="edge2_Node000001_Node000003" class="edge">
<title>Node1&#45;&gt;Node3</title>
<g id="a_edge2_Node000001_Node000003"><a xlink:title=" ">
<path fill="none" stroke="#63b8ff" d="M667.87,-78.37C589.25,-70.53 461.89,-56.92 352.5,-41 341.37,-39.38 329.63,-37.49 318.14,-35.54"/>
<polygon fill="#63b8ff" stroke="#63b8ff" points="667.87,-81.89 678.16,-79.39 668.56,-74.92 667.87,-81.89"/>
</a>
</g>
</g>
<!-- Node4 -->
<g id="Node000004" class="node">
<title>Node4</title>
<g id="a_Node000004"><a xlink:href="ActuatorSwitchViewModel_8cpp.html" target="_top" xlink:title=" ">
<polygon fill="white" stroke="#666666" points="529,-35.5 362,-35.5 362,-5.5 529,-5.5 529,-35.5"/>
<text text-anchor="start" x="370" y="-23.5" font-family="Helvetica,sans-Serif" font-size="10.00">features/pid/actuator</text>
<text text-anchor="middle" x="445.5" y="-12.5" font-family="Helvetica,sans-Serif" font-size="10.00">/ActuatorSwitchViewModel.cpp</text>
</a>
</g>
</g>
<!-- Node1&#45;&gt;Node4 -->
<g id="edge3_Node000001_Node000004" class="edge">
<title>Node1&#45;&gt;Node4</title>
<g id="a_edge3_Node000001_Node000004"><a xlink:title=" ">
<path fill="none" stroke="#63b8ff" d="M692.83,-74.8C642.83,-64.02 565.46,-47.35 510.58,-35.52"/>
<polygon fill="#63b8ff" stroke="#63b8ff" points="692.24,-78.25 702.75,-76.94 693.72,-71.41 692.24,-78.25"/>
</a>
</g>
</g>
<!-- Node5 -->
<g id="Node000005" class="node">
<title>Node5</title>
<g id="a_Node000005"><a xlink:href="SensorValueIndicatorViewModel_8cpp.html" target="_top" xlink:title=" ">
<polygon fill="white" stroke="#666666" points="744,-35.5 547,-35.5 547,-5.5 744,-5.5 744,-35.5"/>
<text text-anchor="start" x="555" y="-23.5" font-family="Helvetica,sans-Serif" font-size="10.00">features/pid/sensors</text>
<text text-anchor="middle" x="645.5" y="-12.5" font-family="Helvetica,sans-Serif" font-size="10.00">/SensorValueIndicatorViewModel.cpp</text>
</a>
</g>
</g>
<!-- Node1&#45;&gt;Node5 -->
<g id="edge4_Node000001_Node000005" class="edge">
<title>Node1&#45;&gt;Node5</title>
<g id="a_edge4_Node000001_Node000005"><a xlink:title=" ">
<path fill="none" stroke="#63b8ff" d="M720.7,-71.12C704.63,-60.51 682.87,-46.16 666.89,-35.62"/>
<polygon fill="#63b8ff" stroke="#63b8ff" points="719.14,-74.28 729.42,-76.87 723,-68.44 719.14,-74.28"/>
</a>
</g>
</g>
<!-- Node6 -->
<g id="Node000006" class="node">
<title>Node6</title>
<g id="a_Node000006"><a xlink:href="TankPressureControlerViewModel_8cpp.html" target="_top" xlink:title=" ">
<polygon fill="white" stroke="#666666" points="918.5,-41 762.5,-41 762.5,0 918.5,0 918.5,-41"/>
<text text-anchor="start" x="770.5" y="-29" font-family="Helvetica,sans-Serif" font-size="10.00">features/test/frames</text>
<text text-anchor="start" x="770.5" y="-18" font-family="Helvetica,sans-Serif" font-size="10.00">/tank_pressure/TankPressure</text>
<text text-anchor="middle" x="840.5" y="-7" font-family="Helvetica,sans-Serif" font-size="10.00">ControlerViewModel.cpp</text>
</a>
</g>
</g>
<!-- Node1&#45;&gt;Node6 -->
<g id="edge5_Node000001_Node000006" class="edge">
<title>Node1&#45;&gt;Node6</title>
<g id="a_edge5_Node000001_Node000006"><a xlink:title=" ">
<path fill="none" stroke="#63b8ff" d="M764.41,-71.19C778.03,-62.29 795.73,-50.74 810.63,-41.01"/>
<polygon fill="#63b8ff" stroke="#63b8ff" points="762.18,-68.47 755.72,-76.87 766,-74.33 762.18,-68.47"/>
</a>
</g>
</g>
<!-- Node7 -->
<g id="Node000007" class="node">
<title>Node7</title>
<g id="a_Node000007"><a xlink:href="AppViewModels_8cpp.html" target="_top" xlink:title=" ">
<polygon fill="white" stroke="#666666" points="1148.5,-30 936.5,-30 936.5,-11 1148.5,-11 1148.5,-30"/>
<text text-anchor="middle" x="1042.5" y="-18" font-family="Helvetica,sans-Serif" font-size="10.00">mvvm/viewmodels/AppViewModels.cpp</text>
</a>
</g>
</g>
<!-- Node1&#45;&gt;Node7 -->
<g id="edge6_Node000001_Node000007" class="edge">
<title>Node1&#45;&gt;Node7</title>
<g id="a_edge6_Node000001_Node000007"><a xlink:title=" ">
<path fill="none" stroke="#63b8ff" d="M792.49,-74.84C851.48,-62.25 948.38,-41.58 1002.59,-30.01"/>
<polygon fill="#63b8ff" stroke="#63b8ff" points="791.7,-71.43 782.65,-76.94 793.16,-78.27 791.7,-71.43"/>
</a>
</g>
</g>
<!-- Node8 -->
<g id="Node000008" class="node">
<title>Node8</title>
<g id="a_Node000008"><a xlink:href="AppServices_8cpp.html" target="_top" xlink:title=" ">
<polygon fill="white" stroke="#666666" points="1306.5,-30 1166.5,-30 1166.5,-11 1306.5,-11 1306.5,-30"/>
<text text-anchor="middle" x="1236.5" y="-18" font-family="Helvetica,sans-Serif" font-size="10.00">services/AppServices.cpp</text>
</a>
</g>
</g>
<!-- Node1&#45;&gt;Node8 -->
<g id="edge7_Node000001_Node000008" class="edge">
<title>Node1&#45;&gt;Node8</title>
<g id="a_edge7_Node000001_Node000008"><a xlink:title=" ">
<path fill="none" stroke="#63b8ff" d="M816.64,-80.59C899.99,-74.36 1039.16,-61.85 1157.5,-41 1173.64,-38.16 1191.37,-33.89 1205.94,-30.07"/>
<polygon fill="#63b8ff" stroke="#63b8ff" points="816.22,-77.11 806.51,-81.33 816.74,-84.09 816.22,-77.11"/>
</a>
</g>
</g>
<!-- Node9 -->
<g id="Node000009" class="node">
<title>Node9</title>
<g id="a_Node000009"><a xlink:href="Timer_8cpp.html" target="_top" xlink:title=" ">
<polygon fill="white" stroke="#666666" points="1464.5,-30 1324.5,-30 1324.5,-11 1464.5,-11 1464.5,-30"/>
<text text-anchor="middle" x="1394.5" y="-18" font-family="Helvetica,sans-Serif" font-size="10.00">services/Timer/Timer.cpp</text>
</a>
</g>
</g>
<!-- Node1&#45;&gt;Node9 -->
<g id="edge8_Node000001_Node000009" class="edge">
<title>Node1&#45;&gt;Node9</title>
<g id="a_edge8_Node000001_Node000009"><a xlink:title=" ">
<path fill="none" stroke="#63b8ff" d="M817.24,-83.61C927.07,-79.96 1138.24,-69.56 1315.5,-41 1331.96,-38.35 1350.03,-34 1364.73,-30.08"/>
<polygon fill="#63b8ff" stroke="#63b8ff" points="816.81,-80.13 806.93,-83.95 817.04,-87.12 816.81,-80.13"/>
</a>
</g>
</g>
</g>
</svg>
