<?xml version="1.0" encoding="UTF-8" standalone="no"?>
<!DOCTYPE svg PUBLIC "-//W3C//DTD SVG 1.1//EN"
 "http://www.w3.org/Graphics/SVG/1.1/DTD/svg11.dtd">
<!-- Generated by graphviz version 2.43.0 (0)
 -->
<!-- Title: features/menu_bar/tools/ToolsMenuFactory.cpp Pages: 1 -->
<svg width="484pt" height="214pt"
 viewBox="0.00 0.00 483.50 214.00" xmlns="http://www.w3.org/2000/svg" xmlns:xlink="http://www.w3.org/1999/xlink">

<svg id="main" version="1.1" xmlns="http://www.w3.org/2000/svg" xmlns:xlink="http://www.w3.org/1999/xlink" xml:space="preserve" onload="init(evt)">
<style type="text/css"><![CDATA[
.node, .edge {opacity: 0.7;}
.node.selected, .edge.selected {opacity: 1;}
.edge:hover path { stroke: red; }
.edge:hover polygon { stroke: red; fill: red; }
]]></style>
<script type="application/ecmascript" xlink:href="svg.min.js"/>
<svg id="graph" class="graph">
<g id="graph0" class="graph" transform="scale(1 1) rotate(0) translate(4 210)">
<title>features/menu_bar/tools/ToolsMenuFactory.cpp</title>
<!-- Node1 -->
<g id="Node000001" class="node">
<title>Node1</title>
<g id="a_Node000001"><a xlink:title=" ">
<polygon fill="#999999" stroke="#666666" points="261.5,-206 125.5,-206 125.5,-176 261.5,-176 261.5,-206"/>
<text text-anchor="start" x="133.5" y="-194" font-family="Helvetica,sans-Serif" font-size="10.00">features/menu_bar/tools</text>
<text text-anchor="middle" x="193.5" y="-183" font-family="Helvetica,sans-Serif" font-size="10.00">/ToolsMenuFactory.cpp</text>
</a>
</g>
</g>
<!-- Node2 -->
<g id="Node000002" class="node">
<title>Node2</title>
<g id="a_Node000002"><a xlink:href="ToolsMenuFactory_8h.html" target="_top" xlink:title=" ">
<polygon fill="white" stroke="#666666" points="111,-134.5 0,-134.5 0,-115.5 111,-115.5 111,-134.5"/>
<text text-anchor="middle" x="55.5" y="-122.5" font-family="Helvetica,sans-Serif" font-size="10.00">ToolsMenuFactory.h</text>
</a>
</g>
</g>
<!-- Node1&#45;&gt;Node2 -->
<g id="edge1_Node000001_Node000002" class="edge">
<title>Node1&#45;&gt;Node2</title>
<g id="a_edge1_Node000001_Node000002"><a xlink:title=" ">
<path fill="none" stroke="#63b8ff" d="M163.22,-175.95C139.33,-164.88 106.3,-149.56 83.14,-138.82"/>
<polygon fill="#63b8ff" stroke="#63b8ff" points="84.41,-135.55 73.87,-134.52 81.46,-141.9 84.41,-135.55"/>
</a>
</g>
</g>
<!-- Node5 -->
<g id="Node000005" class="node">
<title>Node5</title>
<g id="a_Node000005"><a xlink:href="AppViewModels_8h.html" target="_top" xlink:title=" ">
<polygon fill="white" stroke="#666666" points="257.5,-140 129.5,-140 129.5,-110 257.5,-110 257.5,-140"/>
<text text-anchor="start" x="137.5" y="-128" font-family="Helvetica,sans-Serif" font-size="10.00">src/mvvm/viewmodels</text>
<text text-anchor="middle" x="193.5" y="-117" font-family="Helvetica,sans-Serif" font-size="10.00">/AppViewModels.h</text>
</a>
</g>
</g>
<!-- Node1&#45;&gt;Node5 -->
<g id="edge4_Node000001_Node000005" class="edge">
<title>Node1&#45;&gt;Node5</title>
<g id="a_edge4_Node000001_Node000005"><a xlink:title=" ">
<path fill="none" stroke="#63b8ff" d="M193.5,-175.8C193.5,-168.34 193.5,-158.99 193.5,-150.41"/>
<polygon fill="#63b8ff" stroke="#63b8ff" points="197,-150.16 193.5,-140.16 190,-150.16 197,-150.16"/>
</a>
</g>
</g>
<!-- Node8 -->
<g id="Node000008" class="node">
<title>Node8</title>
<g id="a_Node000008"><a xlink:href="ParametersWindowFactory_8h.html" target="_top" xlink:title=" ">
<polygon fill="white" stroke="#666666" points="475.5,-140 275.5,-140 275.5,-110 475.5,-110 475.5,-140"/>
<text text-anchor="start" x="283.5" y="-128" font-family="Helvetica,sans-Serif" font-size="10.00">src/features/parameters</text>
<text text-anchor="middle" x="375.5" y="-117" font-family="Helvetica,sans-Serif" font-size="10.00">_window/ParametersWindowFactory.h</text>
</a>
</g>
</g>
<!-- Node1&#45;&gt;Node8 -->
<g id="edge7_Node000001_Node000008" class="edge">
<title>Node1&#45;&gt;Node8</title>
<g id="a_edge7_Node000001_Node000008"><a xlink:title=" ">
<path fill="none" stroke="#63b8ff" d="M233.44,-175.95C260.7,-166.37 297.01,-153.6 326.09,-143.37"/>
<polygon fill="#63b8ff" stroke="#63b8ff" points="327.38,-146.63 335.65,-140.01 325.06,-140.03 327.38,-146.63"/>
</a>
</g>
</g>
<!-- Node3 -->
<g id="Node000003" class="node">
<title>Node3</title>
<g id="a_Node000003"><a xlink:href="ToolsMenu_8h.html" target="_top" xlink:title=" ">
<polygon fill="white" stroke="#666666" points="94,-74 17,-74 17,-55 94,-55 94,-74"/>
<text text-anchor="middle" x="55.5" y="-62" font-family="Helvetica,sans-Serif" font-size="10.00">ToolsMenu.h</text>
</a>
</g>
</g>
<!-- Node2&#45;&gt;Node3 -->
<g id="edge2_Node000002_Node000003" class="edge">
<title>Node2&#45;&gt;Node3</title>
<g id="a_edge2_Node000002_Node000003"><a xlink:title=" ">
<path fill="none" stroke="#63b8ff" d="M55.5,-115.37C55.5,-107.25 55.5,-94.81 55.5,-84.39"/>
<polygon fill="#63b8ff" stroke="#63b8ff" points="59,-84.17 55.5,-74.17 52,-84.17 59,-84.17"/>
</a>
</g>
</g>
<!-- Node4 -->
<g id="Node000004" class="node">
<title>Node4</title>
<g id="a_Node000004"><a xlink:title=" ">
<polygon fill="#e0e0e0" stroke="#999999" points="81,-19 30,-19 30,0 81,0 81,-19"/>
<text text-anchor="middle" x="55.5" y="-7" font-family="Helvetica,sans-Serif" font-size="10.00">QMenu</text>
</a>
</g>
</g>
<!-- Node3&#45;&gt;Node4 -->
<g id="edge3_Node000003_Node000004" class="edge">
<title>Node3&#45;&gt;Node4</title>
<g id="a_edge3_Node000003_Node000004"><a xlink:title=" ">
<path fill="none" stroke="#63b8ff" d="M55.5,-54.75C55.5,-47.8 55.5,-37.85 55.5,-29.13"/>
<polygon fill="#63b8ff" stroke="#63b8ff" points="59,-29.09 55.5,-19.09 52,-29.09 59,-29.09"/>
</a>
</g>
</g>
<!-- Node6 -->
<g id="Node000006" class="node">
<title>Node6</title>
<g id="a_Node000006"><a xlink:title=" ">
<polygon fill="#e0e0e0" stroke="#999999" points="191.5,-74 135.5,-74 135.5,-55 191.5,-55 191.5,-74"/>
<text text-anchor="middle" x="163.5" y="-62" font-family="Helvetica,sans-Serif" font-size="10.00">QObject</text>
</a>
</g>
</g>
<!-- Node5&#45;&gt;Node6 -->
<g id="edge5_Node000005_Node000006" class="edge">
<title>Node5&#45;&gt;Node6</title>
<g id="a_edge5_Node000005_Node000006"><a xlink:title=" ">
<path fill="none" stroke="#63b8ff" d="M186.24,-109.84C182.15,-101.87 177.01,-91.84 172.64,-83.33"/>
<polygon fill="#63b8ff" stroke="#63b8ff" points="175.67,-81.57 168,-74.27 169.44,-84.76 175.67,-81.57"/>
</a>
</g>
</g>
<!-- Node7 -->
<g id="Node000007" class="node">
<title>Node7</title>
<g id="a_Node000007"><a xlink:title=" ">
<polygon fill="#e0e0e0" stroke="#999999" points="275,-74 210,-74 210,-55 275,-55 275,-74"/>
<text text-anchor="middle" x="242.5" y="-62" font-family="Helvetica,sans-Serif" font-size="10.00">typeindex</text>
</a>
</g>
</g>
<!-- Node5&#45;&gt;Node7 -->
<g id="edge6_Node000005_Node000007" class="edge">
<title>Node5&#45;&gt;Node7</title>
<g id="a_edge6_Node000005_Node000007"><a xlink:title=" ">
<path fill="none" stroke="#63b8ff" d="M205.36,-109.84C212.4,-101.43 221.36,-90.74 228.71,-81.96"/>
<polygon fill="#63b8ff" stroke="#63b8ff" points="231.42,-84.18 235.16,-74.27 226.05,-79.68 231.42,-84.18"/>
</a>
</g>
</g>
<!-- Node9 -->
<g id="Node000009" class="node">
<title>Node9</title>
<g id="a_Node000009"><a xlink:href="ParametersWindow_8h.html" target="_top" xlink:title=" ">
<polygon fill="white" stroke="#666666" points="435,-74 316,-74 316,-55 435,-55 435,-74"/>
<text text-anchor="middle" x="375.5" y="-62" font-family="Helvetica,sans-Serif" font-size="10.00">ParametersWindow.h</text>
</a>
</g>
</g>
<!-- Node8&#45;&gt;Node9 -->
<g id="edge8_Node000008_Node000009" class="edge">
<title>Node8&#45;&gt;Node9</title>
<g id="a_edge8_Node000008_Node000009"><a xlink:title=" ">
<path fill="none" stroke="#63b8ff" d="M375.5,-109.84C375.5,-102.21 375.5,-92.7 375.5,-84.45"/>
<polygon fill="#63b8ff" stroke="#63b8ff" points="379,-84.27 375.5,-74.27 372,-84.27 379,-84.27"/>
</a>
</g>
</g>
<!-- Node10 -->
<g id="Node000010" class="node">
<title>Node10</title>
<g id="a_Node000010"><a xlink:title=" ">
<polygon fill="#e0e0e0" stroke="#999999" points="405,-19 346,-19 346,0 405,0 405,-19"/>
<text text-anchor="middle" x="375.5" y="-7" font-family="Helvetica,sans-Serif" font-size="10.00">QWidget</text>
</a>
</g>
</g>
<!-- Node9&#45;&gt;Node10 -->
<g id="edge9_Node000009_Node000010" class="edge">
<title>Node9&#45;&gt;Node10</title>
<g id="a_edge9_Node000009_Node000010"><a xlink:title=" ">
<path fill="none" stroke="#63b8ff" d="M375.5,-54.75C375.5,-47.8 375.5,-37.85 375.5,-29.13"/>
<polygon fill="#63b8ff" stroke="#63b8ff" points="379,-29.09 375.5,-19.09 372,-29.09 379,-29.09"/>
</a>
</g>
</g>
</g>
</svg>
</svg>

<style type='text/css'>
<![CDATA[
[data-mouse-over-selected='false'] { opacity: 0.7; }
[data-mouse-over-selected='true']  { opacity: 1.0; }
]]>
</style>
<script type="application/ecmascript"><![CDATA[
document.addEventListener('DOMContentLoaded', (event) => {
  highlightEdges();
  highlightAdjacentNodes();
});
]]></script>
</svg>
