<?xml version="1.0" encoding="UTF-8" standalone="no"?>
<!DOCTYPE svg PUBLIC "-//W3C//DTD SVG 1.1//EN"
 "http://www.w3.org/Graphics/SVG/1.1/DTD/svg11.dtd">
<!-- Generated by graphviz version 2.43.0 (0)
 -->
<!-- Title: features/test/frames/TvcControlWidget.cpp Pages: 1 -->
<svg width="661pt" height="159pt"
 viewBox="0.00 0.00 661.00 159.00" xmlns="http://www.w3.org/2000/svg" xmlns:xlink="http://www.w3.org/1999/xlink">
<g id="graph0" class="graph" transform="scale(1 1) rotate(0) translate(4 155)">
<title>features/test/frames/TvcControlWidget.cpp</title>
<!-- Node1 -->
<g id="Node000001" class="node">
<title>Node1</title>
<g id="a_Node000001"><a xlink:title=" ">
<polygon fill="#999999" stroke="#666666" points="343,-151 216,-151 216,-121 343,-121 343,-151"/>
<text text-anchor="start" x="224" y="-139" font-family="Helvetica,sans-Serif" font-size="10.00">features/test/frames</text>
<text text-anchor="middle" x="279.5" y="-128" font-family="Helvetica,sans-Serif" font-size="10.00">/TvcControlWidget.cpp</text>
</a>
</g>
</g>
<!-- Node2 -->
<g id="Node000002" class="node">
<title>Node2</title>
<g id="a_Node000002"><a xlink:title=" ">
<polygon fill="#e0e0e0" stroke="#999999" points="83,-79.5 0,-79.5 0,-60.5 83,-60.5 83,-79.5"/>
<text text-anchor="middle" x="41.5" y="-67.5" font-family="Helvetica,sans-Serif" font-size="10.00">QVBoxLayout</text>
</a>
</g>
</g>
<!-- Node1&#45;&gt;Node2 -->
<g id="edge1_Node000001_Node000002" class="edge">
<title>Node1&#45;&gt;Node2</title>
<g id="a_edge1_Node000001_Node000002"><a xlink:title=" ">
<path fill="none" stroke="#63b8ff" d="M226.68,-120.98C189.21,-111.01 137.75,-97.26 92.5,-85 89.16,-84.1 85.71,-83.16 82.24,-82.21"/>
<polygon fill="#63b8ff" stroke="#63b8ff" points="83.08,-78.81 72.51,-79.55 81.23,-85.56 83.08,-78.81"/>
</a>
</g>
</g>
<!-- Node3 -->
<g id="Node000003" class="node">
<title>Node3</title>
<g id="a_Node000003"><a xlink:title=" ">
<polygon fill="#e0e0e0" stroke="#999999" points="178,-79.5 101,-79.5 101,-60.5 178,-60.5 178,-79.5"/>
<text text-anchor="middle" x="139.5" y="-67.5" font-family="Helvetica,sans-Serif" font-size="10.00">QComboBox</text>
</a>
</g>
</g>
<!-- Node1&#45;&gt;Node3 -->
<g id="edge2_Node000001_Node000003" class="edge">
<title>Node1&#45;&gt;Node3</title>
<g id="a_edge2_Node000001_Node000003"><a xlink:title=" ">
<path fill="none" stroke="#63b8ff" d="M248.78,-120.95C224.55,-109.88 191.04,-94.56 167.54,-83.82"/>
<polygon fill="#63b8ff" stroke="#63b8ff" points="168.68,-80.49 158.13,-79.52 165.77,-86.86 168.68,-80.49"/>
</a>
</g>
</g>
<!-- Node4 -->
<g id="Node000004" class="node">
<title>Node4</title>
<g id="a_Node000004"><a xlink:title=" ">
<polygon fill="#e0e0e0" stroke="#999999" points="276.5,-79.5 196.5,-79.5 196.5,-60.5 276.5,-60.5 276.5,-79.5"/>
<text text-anchor="middle" x="236.5" y="-67.5" font-family="Helvetica,sans-Serif" font-size="10.00">QPushButton</text>
</a>
</g>
</g>
<!-- Node1&#45;&gt;Node4 -->
<g id="edge3_Node000001_Node000004" class="edge">
<title>Node1&#45;&gt;Node4</title>
<g id="a_edge3_Node000001_Node000004"><a xlink:title=" ">
<path fill="none" stroke="#63b8ff" d="M269.96,-120.8C263.52,-111.21 254.98,-98.5 248.14,-88.32"/>
<polygon fill="#63b8ff" stroke="#63b8ff" points="250.92,-86.19 242.44,-79.84 245.11,-90.1 250.92,-86.19"/>
</a>
</g>
</g>
<!-- Node5 -->
<g id="Node000005" class="node">
<title>Node5</title>
<g id="a_Node000005"><a xlink:title=" ">
<polygon fill="#e0e0e0" stroke="#999999" points="352.5,-79.5 294.5,-79.5 294.5,-60.5 352.5,-60.5 352.5,-79.5"/>
<text text-anchor="middle" x="323.5" y="-67.5" font-family="Helvetica,sans-Serif" font-size="10.00">QPainter</text>
</a>
</g>
</g>
<!-- Node1&#45;&gt;Node5 -->
<g id="edge4_Node000001_Node000005" class="edge">
<title>Node1&#45;&gt;Node5</title>
<g id="a_edge4_Node000001_Node000005"><a xlink:title=" ">
<path fill="none" stroke="#63b8ff" d="M289.27,-120.8C295.86,-111.21 304.59,-98.5 311.59,-88.32"/>
<polygon fill="#63b8ff" stroke="#63b8ff" points="314.64,-90.07 317.42,-79.84 308.87,-86.1 314.64,-90.07"/>
</a>
</g>
</g>
<!-- Node6 -->
<g id="Node000006" class="node">
<title>Node6</title>
<g id="a_Node000006"><a xlink:href="TvcControlWidget_8h.html" target="_top" xlink:title=" ">
<polygon fill="white" stroke="#666666" points="484,-79.5 371,-79.5 371,-60.5 484,-60.5 484,-79.5"/>
<text text-anchor="middle" x="427.5" y="-67.5" font-family="Helvetica,sans-Serif" font-size="10.00">TvcControlWidget.h</text>
</a>
</g>
</g>
<!-- Node1&#45;&gt;Node6 -->
<g id="edge5_Node000001_Node000006" class="edge">
<title>Node1&#45;&gt;Node6</title>
<g id="a_edge5_Node000001_Node000006"><a xlink:title=" ">
<path fill="none" stroke="#63b8ff" d="M311.98,-120.95C337.82,-109.78 373.65,-94.29 398.53,-83.53"/>
<polygon fill="#63b8ff" stroke="#63b8ff" points="400.01,-86.7 407.8,-79.52 397.24,-80.27 400.01,-86.7"/>
</a>
</g>
</g>
<!-- Node8 -->
<g id="Node000008" class="node">
<title>Node8</title>
<g id="a_Node000008"><a xlink:title=" ">
<polygon fill="#e0e0e0" stroke="#999999" points="653,-85 502,-85 502,-55 653,-55 653,-85"/>
<text text-anchor="start" x="510" y="-73" font-family="Helvetica,sans-Serif" font-size="10.00">dependencies/QCustomPlot</text>
<text text-anchor="middle" x="577.5" y="-62" font-family="Helvetica,sans-Serif" font-size="10.00">/qcustomplot.h</text>
</a>
</g>
</g>
<!-- Node1&#45;&gt;Node8 -->
<g id="edge7_Node000001_Node000008" class="edge">
<title>Node1&#45;&gt;Node8</title>
<g id="a_edge7_Node000001_Node000008"><a xlink:title=" ">
<path fill="none" stroke="#63b8ff" d="M343.06,-121.35C389.68,-111.34 453.15,-97.71 502.29,-87.15"/>
<polygon fill="#63b8ff" stroke="#63b8ff" points="503.19,-90.54 512.23,-85.02 501.72,-83.7 503.19,-90.54"/>
</a>
</g>
</g>
<!-- Node7 -->
<g id="Node000007" class="node">
<title>Node7</title>
<g id="a_Node000007"><a xlink:title=" ">
<polygon fill="#e0e0e0" stroke="#999999" points="452.5,-19 402.5,-19 402.5,0 452.5,0 452.5,-19"/>
<text text-anchor="middle" x="427.5" y="-7" font-family="Helvetica,sans-Serif" font-size="10.00">QLabel</text>
</a>
</g>
</g>
<!-- Node6&#45;&gt;Node7 -->
<g id="edge6_Node000006_Node000007" class="edge">
<title>Node6&#45;&gt;Node7</title>
<g id="a_edge6_Node000006_Node000007"><a xlink:title=" ">
<path fill="none" stroke="#63b8ff" d="M427.5,-60.37C427.5,-52.25 427.5,-39.81 427.5,-29.39"/>
<polygon fill="#63b8ff" stroke="#63b8ff" points="431,-29.17 427.5,-19.17 424,-29.17 431,-29.17"/>
</a>
</g>
</g>
</g>
</svg>
