<?xml version="1.0" encoding="UTF-8" standalone="no"?>
<!DOCTYPE svg PUBLIC "-//W3C//DTD SVG 1.1//EN"
 "http://www.w3.org/Graphics/SVG/1.1/DTD/svg11.dtd">
<!-- Generated by graphviz version 2.43.0 (0)
 -->
<!-- Title: services/TXTManager/TxtParser.h Pages: 1 -->
<svg width="557pt" height="159pt"
 viewBox="0.00 0.00 556.50 159.00" xmlns="http://www.w3.org/2000/svg" xmlns:xlink="http://www.w3.org/1999/xlink">
<g id="graph0" class="graph" transform="scale(1 1) rotate(0) translate(4 155)">
<title>services/TXTManager/TxtParser.h</title>
<!-- Node1 -->
<g id="Node000001" class="node">
<title>Node1</title>
<g id="a_Node000001"><a xlink:title=" ">
<polygon fill="#999999" stroke="#666666" points="192,-151 70,-151 70,-121 192,-121 192,-151"/>
<text text-anchor="start" x="78" y="-139" font-family="Helvetica,sans-Serif" font-size="10.00">services/TXTManager</text>
<text text-anchor="middle" x="131" y="-128" font-family="Helvetica,sans-Serif" font-size="10.00">/TxtParser.h</text>
</a>
</g>
</g>
<!-- Node2 -->
<g id="Node000002" class="node">
<title>Node2</title>
<g id="a_Node000002"><a xlink:title=" ">
<polygon fill="#e0e0e0" stroke="#999999" points="56,-19 0,-19 0,0 56,0 56,-19"/>
<text text-anchor="middle" x="28" y="-7" font-family="Helvetica,sans-Serif" font-size="10.00">QObject</text>
</a>
</g>
</g>
<!-- Node1&#45;&gt;Node2 -->
<g id="edge1_Node000001_Node000002" class="edge">
<title>Node1&#45;&gt;Node2</title>
<g id="a_edge1_Node000001_Node000002"><a xlink:title=" ">
<path fill="none" stroke="#63b8ff" d="M119.18,-120.72C99.9,-97.41 61.77,-51.33 41.47,-26.78"/>
<polygon fill="#63b8ff" stroke="#63b8ff" points="44.16,-24.54 35.09,-19.07 38.77,-29.01 44.16,-24.54"/>
</a>
</g>
</g>
<!-- Node3 -->
<g id="Node000003" class="node">
<title>Node3</title>
<g id="a_Node000003"><a xlink:href="Messages_8h.html" target="_top" xlink:title=" ">
<polygon fill="white" stroke="#666666" points="285.5,-85 182.5,-85 182.5,-55 285.5,-55 285.5,-85"/>
<text text-anchor="start" x="190.5" y="-73" font-family="Helvetica,sans-Serif" font-size="10.00">src/core/Protocols</text>
<text text-anchor="middle" x="234" y="-62" font-family="Helvetica,sans-Serif" font-size="10.00">/Messages.h</text>
</a>
</g>
</g>
<!-- Node1&#45;&gt;Node3 -->
<g id="edge2_Node000001_Node000003" class="edge">
<title>Node1&#45;&gt;Node3</title>
<g id="a_edge2_Node000001_Node000003"><a xlink:title=" ">
<path fill="none" stroke="#63b8ff" d="M153.6,-120.95C167.96,-112.03 186.74,-100.36 202.55,-90.54"/>
<polygon fill="#63b8ff" stroke="#63b8ff" points="204.8,-93.26 211.45,-85.01 201.11,-87.32 204.8,-93.26"/>
</a>
</g>
</g>
<!-- Node3&#45;&gt;Node2 -->
<g id="edge9_Node000003_Node000002" class="edge">
<title>Node3&#45;&gt;Node2</title>
<g id="a_edge9_Node000003_Node000002"><a xlink:title=" ">
<path fill="none" stroke="#63b8ff" d="M184.66,-54.99C148.2,-44.63 99.29,-30.75 65.88,-21.26"/>
<polygon fill="#63b8ff" stroke="#63b8ff" points="66.62,-17.83 56.04,-18.46 64.71,-24.56 66.62,-17.83"/>
</a>
</g>
</g>
<!-- Node4 -->
<g id="Node000004" class="node">
<title>Node4</title>
<g id="a_Node000004"><a xlink:title=" ">
<polygon fill="#e0e0e0" stroke="#999999" points="125.5,-19 74.5,-19 74.5,0 125.5,0 125.5,-19"/>
<text text-anchor="middle" x="100" y="-7" font-family="Helvetica,sans-Serif" font-size="10.00">variant</text>
</a>
</g>
</g>
<!-- Node3&#45;&gt;Node4 -->
<g id="edge3_Node000003_Node000004" class="edge">
<title>Node3&#45;&gt;Node4</title>
<g id="a_edge3_Node000003_Node000004"><a xlink:title=" ">
<path fill="none" stroke="#63b8ff" d="M201.9,-54.99C179.75,-45.31 150.52,-32.56 129.05,-23.18"/>
<polygon fill="#63b8ff" stroke="#63b8ff" points="130.35,-19.93 119.79,-19.14 127.55,-26.35 130.35,-19.93"/>
</a>
</g>
</g>
<!-- Node5 -->
<g id="Node000005" class="node">
<title>Node5</title>
<g id="a_Node000005"><a xlink:title=" ">
<polygon fill="#e0e0e0" stroke="#999999" points="194,-19 144,-19 144,0 194,0 194,-19"/>
<text text-anchor="middle" x="169" y="-7" font-family="Helvetica,sans-Serif" font-size="10.00">cstdint</text>
</a>
</g>
</g>
<!-- Node3&#45;&gt;Node5 -->
<g id="edge4_Node000003_Node000005" class="edge">
<title>Node3&#45;&gt;Node5</title>
<g id="a_edge4_Node000003_Node000005"><a xlink:title=" ">
<path fill="none" stroke="#63b8ff" d="M218.27,-54.84C208.64,-46.17 196.31,-35.08 186.39,-26.15"/>
<polygon fill="#63b8ff" stroke="#63b8ff" points="188.51,-23.35 178.74,-19.27 183.83,-28.56 188.51,-23.35"/>
</a>
</g>
</g>
<!-- Node6 -->
<g id="Node000006" class="node">
<title>Node6</title>
<g id="a_Node000006"><a xlink:title=" ">
<polygon fill="#e0e0e0" stroke="#999999" points="256,-19 212,-19 212,0 256,0 256,-19"/>
<text text-anchor="middle" x="234" y="-7" font-family="Helvetica,sans-Serif" font-size="10.00">string</text>
</a>
</g>
</g>
<!-- Node3&#45;&gt;Node6 -->
<g id="edge5_Node000003_Node000006" class="edge">
<title>Node3&#45;&gt;Node6</title>
<g id="a_edge5_Node000003_Node000006"><a xlink:title=" ">
<path fill="none" stroke="#63b8ff" d="M234,-54.84C234,-47.21 234,-37.7 234,-29.45"/>
<polygon fill="#63b8ff" stroke="#63b8ff" points="237.5,-29.27 234,-19.27 230.5,-29.27 237.5,-29.27"/>
</a>
</g>
</g>
<!-- Node7 -->
<g id="Node000007" class="node">
<title>Node7</title>
<g id="a_Node000007"><a xlink:title=" ">
<polygon fill="#e0e0e0" stroke="#999999" points="347.5,-19 274.5,-19 274.5,0 347.5,0 347.5,-19"/>
<text text-anchor="middle" x="311" y="-7" font-family="Helvetica,sans-Serif" font-size="10.00">QByteArray</text>
</a>
</g>
</g>
<!-- Node3&#45;&gt;Node7 -->
<g id="edge6_Node000003_Node000007" class="edge">
<title>Node3&#45;&gt;Node7</title>
<g id="a_edge6_Node000003_Node000007"><a xlink:title=" ">
<path fill="none" stroke="#63b8ff" d="M252.64,-54.84C264.39,-45.91 279.53,-34.41 291.45,-25.35"/>
<polygon fill="#63b8ff" stroke="#63b8ff" points="293.62,-28.1 299.46,-19.27 289.38,-22.53 293.62,-28.1"/>
</a>
</g>
</g>
<!-- Node8 -->
<g id="Node000008" class="node">
<title>Node8</title>
<g id="a_Node000008"><a xlink:title=" ">
<polygon fill="#e0e0e0" stroke="#999999" points="414.5,-19 365.5,-19 365.5,0 414.5,0 414.5,-19"/>
<text text-anchor="middle" x="390" y="-7" font-family="Helvetica,sans-Serif" font-size="10.00">QHash</text>
</a>
</g>
</g>
<!-- Node3&#45;&gt;Node8 -->
<g id="edge7_Node000003_Node000008" class="edge">
<title>Node3&#45;&gt;Node8</title>
<g id="a_edge7_Node000003_Node000008"><a xlink:title=" ">
<path fill="none" stroke="#63b8ff" d="M271.37,-54.99C297.63,-45.14 332.41,-32.1 357.52,-22.68"/>
<polygon fill="#63b8ff" stroke="#63b8ff" points="358.83,-25.93 366.96,-19.14 356.37,-19.37 358.83,-25.93"/>
</a>
</g>
</g>
<!-- Node9 -->
<g id="Node000009" class="node">
<title>Node9</title>
<g id="a_Node000009"><a xlink:title=" ">
<polygon fill="#e0e0e0" stroke="#999999" points="485.5,-19 432.5,-19 432.5,0 485.5,0 485.5,-19"/>
<text text-anchor="middle" x="459" y="-7" font-family="Helvetica,sans-Serif" font-size="10.00">QString</text>
</a>
</g>
</g>
<!-- Node3&#45;&gt;Node9 -->
<g id="edge8_Node000003_Node000009" class="edge">
<title>Node3&#45;&gt;Node9</title>
<g id="a_edge8_Node000003_Node000009"><a xlink:title=" ">
<path fill="none" stroke="#63b8ff" d="M285.62,-55.58C327.48,-44.69 385.44,-29.63 422.58,-19.97"/>
<polygon fill="#63b8ff" stroke="#63b8ff" points="423.68,-23.3 432.47,-17.4 421.91,-16.53 423.68,-23.3"/>
</a>
</g>
</g>
<!-- Node10 -->
<g id="Node000010" class="node">
<title>Node10</title>
<g id="a_Node000010"><a xlink:title=" ">
<polygon fill="#e0e0e0" stroke="#999999" points="548.5,-19 503.5,-19 503.5,0 548.5,0 548.5,-19"/>
<text text-anchor="middle" x="526" y="-7" font-family="Helvetica,sans-Serif" font-size="10.00">QMap</text>
</a>
</g>
</g>
<!-- Node3&#45;&gt;Node10 -->
<g id="edge10_Node000003_Node000010" class="edge">
<title>Node3&#45;&gt;Node10</title>
<g id="a_edge10_Node000003_Node000010"><a xlink:title=" ">
<path fill="none" stroke="#63b8ff" d="M285.75,-60.32C336.43,-51.54 416.01,-37.02 493.44,-19.23"/>
<polygon fill="#63b8ff" stroke="#63b8ff" points="494.41,-22.6 503.37,-16.93 492.83,-15.78 494.41,-22.6"/>
</a>
</g>
</g>
</g>
</svg>
