<?xml version="1.0" encoding="UTF-8" standalone="no"?>
<!DOCTYPE svg PUBLIC "-//W3C//DTD SVG 1.1//EN"
 "http://www.w3.org/Graphics/SVG/1.1/DTD/svg11.dtd">
<!-- Generated by graphviz version 2.43.0 (0)
 -->
<!-- Title: services/TXTManager/TxtParser.h Pages: 1 -->
<svg width="688pt" height="115pt"
 viewBox="0.00 0.00 688.00 115.00" xmlns="http://www.w3.org/2000/svg" xmlns:xlink="http://www.w3.org/1999/xlink">
<g id="graph0" class="graph" transform="scale(1 1) rotate(0) translate(4 111)">
<title>services/TXTManager/TxtParser.h</title>
<!-- Node1 -->
<g id="Node000001" class="node">
<title>Node1</title>
<g id="a_Node000001"><a xlink:title=" ">
<polygon fill="#999999" stroke="#666666" points="434,-107 312,-107 312,-77 434,-77 434,-107"/>
<text text-anchor="start" x="320" y="-95" font-family="Helvetica,sans-Serif" font-size="10.00">services/TXTManager</text>
<text text-anchor="middle" x="373" y="-84" font-family="Helvetica,sans-Serif" font-size="10.00">/TxtParser.h</text>
</a>
</g>
</g>
<!-- Node2 -->
<g id="Node000002" class="node">
<title>Node2</title>
<g id="a_Node000002"><a xlink:href="TestLauncherViewModel_8cpp.html" target="_top" xlink:title=" ">
<polygon fill="white" stroke="#666666" points="152,-41 0,-41 0,0 152,0 152,-41"/>
<text text-anchor="start" x="8" y="-29" font-family="Helvetica,sans-Serif" font-size="10.00">features/test/frames</text>
<text text-anchor="start" x="8" y="-18" font-family="Helvetica,sans-Serif" font-size="10.00">/test_launcher/TestLauncher</text>
<text text-anchor="middle" x="76" y="-7" font-family="Helvetica,sans-Serif" font-size="10.00">ViewModel.cpp</text>
</a>
</g>
</g>
<!-- Node1&#45;&gt;Node2 -->
<g id="edge1_Node000001_Node000002" class="edge">
<title>Node1&#45;&gt;Node2</title>
<g id="a_edge1_Node000001_Node000002"><a xlink:title=" ">
<path fill="none" stroke="#63b8ff" d="M303.15,-74.65C257.8,-64.04 198.69,-50.21 152.14,-39.32"/>
<polygon fill="#63b8ff" stroke="#63b8ff" points="302.36,-78.06 312.9,-76.94 303.96,-71.25 302.36,-78.06"/>
</a>
</g>
</g>
<!-- Node3 -->
<g id="Node000003" class="node">
<title>Node3</title>
<g id="a_Node000003"><a xlink:href="AppViewModels_8cpp.html" target="_top" xlink:title=" ">
<polygon fill="white" stroke="#666666" points="382,-30 170,-30 170,-11 382,-11 382,-30"/>
<text text-anchor="middle" x="276" y="-18" font-family="Helvetica,sans-Serif" font-size="10.00">mvvm/viewmodels/AppViewModels.cpp</text>
</a>
</g>
</g>
<!-- Node1&#45;&gt;Node3 -->
<g id="edge2_Node000001_Node000003" class="edge">
<title>Node1&#45;&gt;Node3</title>
<g id="a_edge2_Node000001_Node000003"><a xlink:title=" ">
<path fill="none" stroke="#63b8ff" d="M345.09,-71C326.17,-57.45 302.12,-40.21 287.96,-30.07"/>
<polygon fill="#63b8ff" stroke="#63b8ff" points="343.2,-73.96 353.37,-76.94 347.28,-68.27 343.2,-73.96"/>
</a>
</g>
</g>
<!-- Node4 -->
<g id="Node000004" class="node">
<title>Node4</title>
<g id="a_Node000004"><a xlink:href="AppServices_8cpp.html" target="_top" xlink:title=" ">
<polygon fill="white" stroke="#666666" points="540,-30 400,-30 400,-11 540,-11 540,-30"/>
<text text-anchor="middle" x="470" y="-18" font-family="Helvetica,sans-Serif" font-size="10.00">services/AppServices.cpp</text>
</a>
</g>
</g>
<!-- Node1&#45;&gt;Node4 -->
<g id="edge3_Node000001_Node000004" class="edge">
<title>Node1&#45;&gt;Node4</title>
<g id="a_edge3_Node000001_Node000004"><a xlink:title=" ">
<path fill="none" stroke="#63b8ff" d="M400.91,-71C419.83,-57.45 443.88,-40.21 458.04,-30.07"/>
<polygon fill="#63b8ff" stroke="#63b8ff" points="398.72,-68.27 392.63,-76.94 402.8,-73.96 398.72,-68.27"/>
</a>
</g>
</g>
<!-- Node5 -->
<g id="Node000005" class="node">
<title>Node5</title>
<g id="a_Node000005"><a xlink:href="TxtParser_8cpp.html" target="_top" xlink:title=" ">
<polygon fill="white" stroke="#666666" points="680,-35.5 558,-35.5 558,-5.5 680,-5.5 680,-35.5"/>
<text text-anchor="start" x="566" y="-23.5" font-family="Helvetica,sans-Serif" font-size="10.00">services/TXTManager</text>
<text text-anchor="middle" x="619" y="-12.5" font-family="Helvetica,sans-Serif" font-size="10.00">/TxtParser.cpp</text>
</a>
</g>
</g>
<!-- Node1&#45;&gt;Node5 -->
<g id="edge4_Node000001_Node000005" class="edge">
<title>Node1&#45;&gt;Node5</title>
<g id="a_edge4_Node000001_Node000005"><a xlink:title=" ">
<path fill="none" stroke="#63b8ff" d="M432.58,-74.17C474.44,-62.34 529.8,-46.7 569.29,-35.54"/>
<polygon fill="#63b8ff" stroke="#63b8ff" points="431.45,-70.85 422.78,-76.94 433.36,-77.58 431.45,-70.85"/>
</a>
</g>
</g>
</g>
</svg>
