<?xml version="1.0" encoding="UTF-8" standalone="no"?>
<!DOCTYPE svg PUBLIC "-//W3C//DTD SVG 1.1//EN"
 "http://www.w3.org/Graphics/SVG/1.1/DTD/svg11.dtd">
<!-- Generated by graphviz version 2.43.0 (0)
 -->
<!-- Title: features/communication/udp/ui/UdpChannelParametersWidget.h Pages: 1 -->
<svg width="249pt" height="104pt"
 viewBox="0.00 0.00 248.50 104.00" xmlns="http://www.w3.org/2000/svg" xmlns:xlink="http://www.w3.org/1999/xlink">
<g id="graph0" class="graph" transform="scale(1 1) rotate(0) translate(4 100)">
<title>features/communication/udp/ui/UdpChannelParametersWidget.h</title>
<!-- Node1 -->
<g id="Node000001" class="node">
<title>Node1</title>
<g id="a_Node000001"><a xlink:title=" ">
<polygon fill="#999999" stroke="#666666" points="213.5,-96 46.5,-96 46.5,-55 213.5,-55 213.5,-96"/>
<text text-anchor="start" x="54.5" y="-84" font-family="Helvetica,sans-Serif" font-size="10.00">features/communication</text>
<text text-anchor="start" x="54.5" y="-73" font-family="Helvetica,sans-Serif" font-size="10.00">/udp/ui/UdpChannelParameters</text>
<text text-anchor="middle" x="130" y="-62" font-family="Helvetica,sans-Serif" font-size="10.00">Widget.h</text>
</a>
</g>
</g>
<!-- Node2 -->
<g id="Node000002" class="node">
<title>Node2</title>
<g id="a_Node000002"><a xlink:title=" ">
<polygon fill="#e0e0e0" stroke="#999999" points="82,-19 0,-19 0,0 82,0 82,-19"/>
<text text-anchor="middle" x="41" y="-7" font-family="Helvetica,sans-Serif" font-size="10.00">QFormLayout</text>
</a>
</g>
</g>
<!-- Node1&#45;&gt;Node2 -->
<g id="edge1_Node000001_Node000002" class="edge">
<title>Node1&#45;&gt;Node2</title>
<g id="a_edge1_Node000001_Node000002"><a xlink:title=" ">
<path fill="none" stroke="#63b8ff" d="M102.81,-54.95C89.49,-45.37 73.7,-34.02 61.42,-25.19"/>
<polygon fill="#63b8ff" stroke="#63b8ff" points="63.34,-22.26 53.18,-19.26 59.26,-27.94 63.34,-22.26"/>
</a>
</g>
</g>
<!-- Node3 -->
<g id="Node000003" class="node">
<title>Node3</title>
<g id="a_Node000003"><a xlink:title=" ">
<polygon fill="#e0e0e0" stroke="#999999" points="159.5,-19 100.5,-19 100.5,0 159.5,0 159.5,-19"/>
<text text-anchor="middle" x="130" y="-7" font-family="Helvetica,sans-Serif" font-size="10.00">QWidget</text>
</a>
</g>
</g>
<!-- Node1&#45;&gt;Node3 -->
<g id="edge2_Node000001_Node000003" class="edge">
<title>Node1&#45;&gt;Node3</title>
<g id="a_edge2_Node000001_Node000003"><a xlink:title=" ">
<path fill="none" stroke="#63b8ff" d="M130,-54.95C130,-46.85 130,-37.5 130,-29.47"/>
<polygon fill="#63b8ff" stroke="#63b8ff" points="133.5,-29.26 130,-19.26 126.5,-29.26 133.5,-29.26"/>
</a>
</g>
</g>
<!-- Node4 -->
<g id="Node000004" class="node">
<title>Node4</title>
<g id="a_Node000004"><a xlink:title=" ">
<polygon fill="#e0e0e0" stroke="#999999" points="240.5,-19 177.5,-19 177.5,0 240.5,0 240.5,-19"/>
<text text-anchor="middle" x="209" y="-7" font-family="Helvetica,sans-Serif" font-size="10.00">QLineEdit</text>
</a>
</g>
</g>
<!-- Node1&#45;&gt;Node4 -->
<g id="edge3_Node000001_Node000004" class="edge">
<title>Node1&#45;&gt;Node4</title>
<g id="a_edge3_Node000001_Node000004"><a xlink:title=" ">
<path fill="none" stroke="#63b8ff" d="M154.13,-54.95C165.73,-45.55 179.43,-34.46 190.23,-25.7"/>
<polygon fill="#63b8ff" stroke="#63b8ff" points="192.62,-28.27 198.19,-19.26 188.21,-22.84 192.62,-28.27"/>
</a>
</g>
</g>
</g>
</svg>
