<?xml version="1.0" encoding="UTF-8" standalone="no"?>
<!DOCTYPE svg PUBLIC "-//W3C//DTD SVG 1.1//EN"
 "http://www.w3.org/Graphics/SVG/1.1/DTD/svg11.dtd">
<!-- Generated by graphviz version 2.43.0 (0)
 -->
<!-- Title: features/communication/udp/codecs/UdpCodec.h Pages: 1 -->
<svg width="774pt" height="115pt"
 viewBox="0.00 0.00 774.00 115.00" xmlns="http://www.w3.org/2000/svg" xmlns:xlink="http://www.w3.org/1999/xlink">
<g id="graph0" class="graph" transform="scale(1 1) rotate(0) translate(4 111)">
<title>features/communication/udp/codecs/UdpCodec.h</title>
<!-- Node1 -->
<g id="Node000001" class="node">
<title>Node1</title>
<g id="a_Node000001"><a xlink:title=" ">
<polygon fill="#999999" stroke="#666666" points="450,-107 314,-107 314,-77 450,-77 450,-107"/>
<text text-anchor="start" x="322" y="-95" font-family="Helvetica,sans-Serif" font-size="10.00">features/communication</text>
<text text-anchor="middle" x="382" y="-84" font-family="Helvetica,sans-Serif" font-size="10.00">/udp/codecs/UdpCodec.h</text>
</a>
</g>
</g>
<!-- Node2 -->
<g id="Node000002" class="node">
<title>Node2</title>
<g id="a_Node000002"><a xlink:href="UdpChannel_8cpp.html" target="_top" xlink:title=" ">
<polygon fill="white" stroke="#666666" points="136,-35.5 0,-35.5 0,-5.5 136,-5.5 136,-35.5"/>
<text text-anchor="start" x="8" y="-23.5" font-family="Helvetica,sans-Serif" font-size="10.00">features/communication</text>
<text text-anchor="middle" x="68" y="-12.5" font-family="Helvetica,sans-Serif" font-size="10.00">/udp/UdpChannel.cpp</text>
</a>
</g>
</g>
<!-- Node1&#45;&gt;Node2 -->
<g id="edge1_Node000001_Node000002" class="edge">
<title>Node1&#45;&gt;Node2</title>
<g id="a_edge1_Node000001_Node000002"><a xlink:title=" ">
<path fill="none" stroke="#63b8ff" d="M303.94,-75.35C257.64,-65.87 197.86,-53.26 145,-41 137.61,-39.29 129.84,-37.41 122.2,-35.52"/>
<polygon fill="#63b8ff" stroke="#63b8ff" points="303.41,-78.82 313.9,-77.39 304.81,-71.96 303.41,-78.82"/>
</a>
</g>
</g>
<!-- Node3 -->
<g id="Node000003" class="node">
<title>Node3</title>
<g id="a_Node000003"><a xlink:href="UdpWorker_8cpp.html" target="_top" xlink:title=" ">
<polygon fill="white" stroke="#666666" points="290,-35.5 154,-35.5 154,-5.5 290,-5.5 290,-35.5"/>
<text text-anchor="start" x="162" y="-23.5" font-family="Helvetica,sans-Serif" font-size="10.00">features/communication</text>
<text text-anchor="middle" x="222" y="-12.5" font-family="Helvetica,sans-Serif" font-size="10.00">/udp/UdpWorker.cpp</text>
</a>
</g>
</g>
<!-- Node1&#45;&gt;Node3 -->
<g id="edge2_Node000001_Node000003" class="edge">
<title>Node1&#45;&gt;Node3</title>
<g id="a_edge2_Node000001_Node000003"><a xlink:title=" ">
<path fill="none" stroke="#63b8ff" d="M340.11,-72.81C313.3,-61.16 279.04,-46.28 254.33,-35.54"/>
<polygon fill="#63b8ff" stroke="#63b8ff" points="339.06,-76.16 349.62,-76.94 341.84,-69.74 339.06,-76.16"/>
</a>
</g>
</g>
<!-- Node4 -->
<g id="Node000004" class="node">
<title>Node4</title>
<g id="a_Node000004"><a xlink:href="UdpCodec_8cpp.html" target="_top" xlink:title=" ">
<polygon fill="white" stroke="#666666" points="455.5,-35.5 308.5,-35.5 308.5,-5.5 455.5,-5.5 455.5,-35.5"/>
<text text-anchor="start" x="316.5" y="-23.5" font-family="Helvetica,sans-Serif" font-size="10.00">features/communication</text>
<text text-anchor="middle" x="382" y="-12.5" font-family="Helvetica,sans-Serif" font-size="10.00">/udp/codecs/UdpCodec.cpp</text>
</a>
</g>
</g>
<!-- Node1&#45;&gt;Node4 -->
<g id="edge3_Node000001_Node000004" class="edge">
<title>Node1&#45;&gt;Node4</title>
<g id="a_edge3_Node000001_Node000004"><a xlink:title=" ">
<path fill="none" stroke="#63b8ff" d="M382,-66.75C382,-56.31 382,-44.49 382,-35.54"/>
<polygon fill="#63b8ff" stroke="#63b8ff" points="378.5,-66.94 382,-76.94 385.5,-66.94 378.5,-66.94"/>
</a>
</g>
</g>
<!-- Node5 -->
<g id="Node000005" class="node">
<title>Node5</title>
<g id="a_Node000005"><a xlink:href="CsvExporter_8cpp.html" target="_top" xlink:title=" ">
<polygon fill="white" stroke="#666666" points="592,-35.5 474,-35.5 474,-5.5 592,-5.5 592,-35.5"/>
<text text-anchor="start" x="482" y="-23.5" font-family="Helvetica,sans-Serif" font-size="10.00">features/file_export</text>
<text text-anchor="middle" x="533" y="-12.5" font-family="Helvetica,sans-Serif" font-size="10.00">/csv/CsvExporter.cpp</text>
</a>
</g>
</g>
<!-- Node1&#45;&gt;Node5 -->
<g id="edge4_Node000001_Node000005" class="edge">
<title>Node1&#45;&gt;Node5</title>
<g id="a_edge4_Node000001_Node000005"><a xlink:title=" ">
<path fill="none" stroke="#63b8ff" d="M421.86,-72.65C447.12,-61.03 479.27,-46.23 502.49,-35.54"/>
<polygon fill="#63b8ff" stroke="#63b8ff" points="420.18,-69.58 412.56,-76.94 423.1,-75.93 420.18,-69.58"/>
</a>
</g>
</g>
<!-- Node6 -->
<g id="Node000006" class="node">
<title>Node6</title>
<g id="a_Node000006"><a xlink:href="TankPressureControlerViewModel_8cpp.html" target="_top" xlink:title=" ">
<polygon fill="white" stroke="#666666" points="766,-41 610,-41 610,0 766,0 766,-41"/>
<text text-anchor="start" x="618" y="-29" font-family="Helvetica,sans-Serif" font-size="10.00">features/test/frames</text>
<text text-anchor="start" x="618" y="-18" font-family="Helvetica,sans-Serif" font-size="10.00">/tank_pressure/TankPressure</text>
<text text-anchor="middle" x="688" y="-7" font-family="Helvetica,sans-Serif" font-size="10.00">ControlerViewModel.cpp</text>
</a>
</g>
</g>
<!-- Node1&#45;&gt;Node6 -->
<g id="edge5_Node000001_Node000006" class="edge">
<title>Node1&#45;&gt;Node6</title>
<g id="a_edge5_Node000001_Node000006"><a xlink:title=" ">
<path fill="none" stroke="#63b8ff" d="M453.69,-74.72C500.54,-64.08 561.73,-50.18 609.83,-39.25"/>
<polygon fill="#63b8ff" stroke="#63b8ff" points="452.9,-71.31 443.92,-76.94 454.45,-78.13 452.9,-71.31"/>
</a>
</g>
</g>
</g>
</svg>
