<?xml version="1.0" encoding="UTF-8" standalone="no"?>
<!DOCTYPE svg PUBLIC "-//W3C//DTD SVG 1.1//EN"
 "http://www.w3.org/Graphics/SVG/1.1/DTD/svg11.dtd">
<!-- Generated by graphviz version 2.43.0 (0)
 -->
<!-- Title: features/communication/udp/UdpChannel.h Pages: 1 -->
<svg width="807pt" height="335pt"
 viewBox="0.00 0.00 806.97 335.00" xmlns="http://www.w3.org/2000/svg" xmlns:xlink="http://www.w3.org/1999/xlink">
<g id="graph0" class="graph" transform="scale(1 1) rotate(0) translate(4 331)">
<title>features/communication/udp/UdpChannel.h</title>
<!-- Node1 -->
<g id="Node000001" class="node">
<title>Node1</title>
<g id="a_Node000001"><a xlink:title="UDP Communicaton channel between the microcontroler and the HMI.">
<polygon fill="#999999" stroke="#666666" points="238,-327 102,-327 102,-297 238,-297 238,-327"/>
<text text-anchor="start" x="110" y="-315" font-family="Helvetica,sans-Serif" font-size="10.00">features/communication</text>
<text text-anchor="middle" x="170" y="-304" font-family="Helvetica,sans-Serif" font-size="10.00">/udp/UdpChannel.h</text>
</a>
</g>
</g>
<!-- Node2 -->
<g id="Node000002" class="node">
<title>Node2</title>
<g id="a_Node000002"><a xlink:title=" ">
<polygon fill="#e0e0e0" stroke="#999999" points="56,-19 0,-19 0,0 56,0 56,-19"/>
<text text-anchor="middle" x="28" y="-7" font-family="Helvetica,sans-Serif" font-size="10.00">QObject</text>
</a>
</g>
</g>
<!-- Node1&#45;&gt;Node2 -->
<g id="edge1_Node000001_Node000002" class="edge">
<title>Node1&#45;&gt;Node2</title>
<g id="a_edge1_Node000001_Node000002"><a xlink:title=" ">
<path fill="none" stroke="#63b8ff" d="M105.91,-296.93C84.66,-289.42 62.5,-278.06 47,-261 27.19,-239.2 28,-226.96 28,-197.5 28,-197.5 28,-197.5 28,-135 28,-97.49 28,-53.63 28,-29.26"/>
<polygon fill="#63b8ff" stroke="#63b8ff" points="31.5,-29.25 28,-19.25 24.5,-29.25 31.5,-29.25"/>
</a>
</g>
</g>
<!-- Node3 -->
<g id="Node000003" class="node">
<title>Node3</title>
<g id="a_Node000003"><a xlink:title=" ">
<polygon fill="#e0e0e0" stroke="#999999" points="114,-261 56,-261 56,-242 114,-242 114,-261"/>
<text text-anchor="middle" x="85" y="-249" font-family="Helvetica,sans-Serif" font-size="10.00">QThread</text>
</a>
</g>
</g>
<!-- Node1&#45;&gt;Node3 -->
<g id="edge2_Node000001_Node000003" class="edge">
<title>Node1&#45;&gt;Node3</title>
<g id="a_edge2_Node000001_Node000003"><a xlink:title=" ">
<path fill="none" stroke="#63b8ff" d="M149.42,-296.84C136.33,-287.83 119.41,-276.18 106.2,-267.09"/>
<polygon fill="#63b8ff" stroke="#63b8ff" points="107.96,-264.05 97.74,-261.27 103.99,-269.82 107.96,-264.05"/>
</a>
</g>
</g>
<!-- Node4 -->
<g id="Node000004" class="node">
<title>Node4</title>
<g id="a_Node000004"><a xlink:title=" ">
<polygon fill="#e0e0e0" stroke="#999999" points="208,-261 132,-261 132,-242 208,-242 208,-261"/>
<text text-anchor="middle" x="170" y="-249" font-family="Helvetica,sans-Serif" font-size="10.00">QUdpSocket</text>
</a>
</g>
</g>
<!-- Node1&#45;&gt;Node4 -->
<g id="edge3_Node000001_Node000004" class="edge">
<title>Node1&#45;&gt;Node4</title>
<g id="a_edge3_Node000001_Node000004"><a xlink:title=" ">
<path fill="none" stroke="#63b8ff" d="M170,-296.84C170,-289.21 170,-279.7 170,-271.45"/>
<polygon fill="#63b8ff" stroke="#63b8ff" points="173.5,-271.27 170,-261.27 166.5,-271.27 173.5,-271.27"/>
</a>
</g>
</g>
<!-- Node5 -->
<g id="Node000005" class="node">
<title>Node5</title>
<g id="a_Node000005"><a xlink:href="Messages_8h.html" target="_top" xlink:title=" ">
<polygon fill="white" stroke="#666666" points="287.5,-85 184.5,-85 184.5,-55 287.5,-55 287.5,-85"/>
<text text-anchor="start" x="192.5" y="-73" font-family="Helvetica,sans-Serif" font-size="10.00">src/core/Protocols</text>
<text text-anchor="middle" x="236" y="-62" font-family="Helvetica,sans-Serif" font-size="10.00">/Messages.h</text>
</a>
</g>
</g>
<!-- Node1&#45;&gt;Node5 -->
<g id="edge4_Node000001_Node000005" class="edge">
<title>Node1&#45;&gt;Node5</title>
<g id="a_edge4_Node000001_Node000005"><a xlink:title=" ">
<path fill="none" stroke="#63b8ff" d="M188.29,-296.83C198.57,-287.77 210.58,-275.1 217,-261 242.01,-206.04 241.05,-133.1 238.41,-95.59"/>
<polygon fill="#63b8ff" stroke="#63b8ff" points="241.86,-94.83 237.57,-85.14 234.89,-95.39 241.86,-94.83"/>
</a>
</g>
</g>
<!-- Node13 -->
<g id="Node000013" class="node">
<title>Node13</title>
<g id="a_Node000013"><a xlink:href="UdpLogger_8h.html" target="_top" xlink:title=" ">
<polygon fill="white" stroke="#666666" points="657.5,-261 506.5,-261 506.5,-242 657.5,-242 657.5,-261"/>
<text text-anchor="middle" x="582" y="-249" font-family="Helvetica,sans-Serif" font-size="10.00">frames_logger/UdpLogger.h</text>
</a>
</g>
</g>
<!-- Node1&#45;&gt;Node13 -->
<g id="edge13_Node000001_Node000013" class="edge">
<title>Node1&#45;&gt;Node13</title>
<g id="a_edge13_Node000001_Node000013"><a xlink:title=" ">
<path fill="none" stroke="#63b8ff" d="M238.03,-301.34C313.72,-290.59 435.38,-273.32 511.89,-262.46"/>
<polygon fill="#63b8ff" stroke="#63b8ff" points="512.5,-265.9 521.91,-261.03 511.52,-258.97 512.5,-265.9"/>
</a>
</g>
</g>
<!-- Node5&#45;&gt;Node2 -->
<g id="edge11_Node000005_Node000002" class="edge">
<title>Node5&#45;&gt;Node2</title>
<g id="a_edge11_Node000005_Node000002"><a xlink:title=" ">
<path fill="none" stroke="#63b8ff" d="M186.18,-54.99C149.26,-44.6 99.69,-30.66 65.95,-21.17"/>
<polygon fill="#63b8ff" stroke="#63b8ff" points="66.59,-17.72 56.02,-18.38 64.7,-24.46 66.59,-17.72"/>
</a>
</g>
</g>
<!-- Node6 -->
<g id="Node000006" class="node">
<title>Node6</title>
<g id="a_Node000006"><a xlink:title=" ">
<polygon fill="#e0e0e0" stroke="#999999" points="326.5,-19 275.5,-19 275.5,0 326.5,0 326.5,-19"/>
<text text-anchor="middle" x="301" y="-7" font-family="Helvetica,sans-Serif" font-size="10.00">variant</text>
</a>
</g>
</g>
<!-- Node5&#45;&gt;Node6 -->
<g id="edge5_Node000005_Node000006" class="edge">
<title>Node5&#45;&gt;Node6</title>
<g id="a_edge5_Node000005_Node000006"><a xlink:title=" ">
<path fill="none" stroke="#63b8ff" d="M251.73,-54.84C261.36,-46.17 273.69,-35.08 283.61,-26.15"/>
<polygon fill="#63b8ff" stroke="#63b8ff" points="286.17,-28.56 291.26,-19.27 281.49,-23.35 286.17,-28.56"/>
</a>
</g>
</g>
<!-- Node7 -->
<g id="Node000007" class="node">
<title>Node7</title>
<g id="a_Node000007"><a xlink:title=" ">
<polygon fill="#e0e0e0" stroke="#999999" points="641,-19 591,-19 591,0 641,0 641,-19"/>
<text text-anchor="middle" x="616" y="-7" font-family="Helvetica,sans-Serif" font-size="10.00">cstdint</text>
</a>
</g>
</g>
<!-- Node5&#45;&gt;Node7 -->
<g id="edge6_Node000005_Node000007" class="edge">
<title>Node5&#45;&gt;Node7</title>
<g id="a_edge6_Node000005_Node000007"><a xlink:title=" ">
<path fill="none" stroke="#63b8ff" d="M287.52,-56.84C290.72,-56.19 293.9,-55.57 297,-55 399.25,-36.17 521.24,-21.22 580.37,-14.44"/>
<polygon fill="#63b8ff" stroke="#63b8ff" points="581.11,-17.88 590.65,-13.28 580.32,-10.93 581.11,-17.88"/>
</a>
</g>
</g>
<!-- Node8 -->
<g id="Node000008" class="node">
<title>Node8</title>
<g id="a_Node000008"><a xlink:title=" ">
<polygon fill="#e0e0e0" stroke="#999999" points="480,-19 436,-19 436,0 480,0 480,-19"/>
<text text-anchor="middle" x="458" y="-7" font-family="Helvetica,sans-Serif" font-size="10.00">string</text>
</a>
</g>
</g>
<!-- Node5&#45;&gt;Node8 -->
<g id="edge7_Node000005_Node000008" class="edge">
<title>Node5&#45;&gt;Node8</title>
<g id="a_edge7_Node000005_Node000008"><a xlink:title=" ">
<path fill="none" stroke="#63b8ff" d="M287.52,-55.69C323.73,-46.29 373.56,-33.28 426.15,-19.21"/>
<polygon fill="#63b8ff" stroke="#63b8ff" points="427.24,-22.54 435.99,-16.57 425.43,-15.78 427.24,-22.54"/>
</a>
</g>
</g>
<!-- Node9 -->
<g id="Node000009" class="node">
<title>Node9</title>
<g id="a_Node000009"><a xlink:title=" ">
<polygon fill="#e0e0e0" stroke="#999999" points="417.5,-19 344.5,-19 344.5,0 417.5,0 417.5,-19"/>
<text text-anchor="middle" x="381" y="-7" font-family="Helvetica,sans-Serif" font-size="10.00">QByteArray</text>
</a>
</g>
</g>
<!-- Node5&#45;&gt;Node9 -->
<g id="edge8_Node000005_Node000009" class="edge">
<title>Node5&#45;&gt;Node9</title>
<g id="a_edge8_Node000005_Node000009"><a xlink:title=" ">
<path fill="none" stroke="#63b8ff" d="M270.73,-54.99C294.92,-45.23 326.9,-32.33 350.19,-22.93"/>
<polygon fill="#63b8ff" stroke="#63b8ff" points="351.62,-26.13 359.59,-19.14 349,-19.63 351.62,-26.13"/>
</a>
</g>
</g>
<!-- Node10 -->
<g id="Node000010" class="node">
<title>Node10</title>
<g id="a_Node000010"><a xlink:title=" ">
<polygon fill="#e0e0e0" stroke="#999999" points="123.5,-19 74.5,-19 74.5,0 123.5,0 123.5,-19"/>
<text text-anchor="middle" x="99" y="-7" font-family="Helvetica,sans-Serif" font-size="10.00">QHash</text>
</a>
</g>
</g>
<!-- Node5&#45;&gt;Node10 -->
<g id="edge9_Node000005_Node000010" class="edge">
<title>Node5&#45;&gt;Node10</title>
<g id="a_edge9_Node000005_Node000010"><a xlink:title=" ">
<path fill="none" stroke="#63b8ff" d="M203.19,-54.99C180.53,-45.31 150.65,-32.56 128.7,-23.18"/>
<polygon fill="#63b8ff" stroke="#63b8ff" points="129.8,-19.85 119.23,-19.14 127.05,-26.29 129.8,-19.85"/>
</a>
</g>
</g>
<!-- Node11 -->
<g id="Node000011" class="node">
<title>Node11</title>
<g id="a_Node000011"><a xlink:title=" ">
<polygon fill="#e0e0e0" stroke="#999999" points="194.5,-19 141.5,-19 141.5,0 194.5,0 194.5,-19"/>
<text text-anchor="middle" x="168" y="-7" font-family="Helvetica,sans-Serif" font-size="10.00">QString</text>
</a>
</g>
</g>
<!-- Node5&#45;&gt;Node11 -->
<g id="edge10_Node000005_Node000011" class="edge">
<title>Node5&#45;&gt;Node11</title>
<g id="a_edge10_Node000005_Node000011"><a xlink:title=" ">
<path fill="none" stroke="#63b8ff" d="M219.54,-54.84C209.37,-46.09 196.31,-34.85 185.88,-25.88"/>
<polygon fill="#63b8ff" stroke="#63b8ff" points="188.05,-23.13 178.19,-19.27 183.49,-28.44 188.05,-23.13"/>
</a>
</g>
</g>
<!-- Node12 -->
<g id="Node000012" class="node">
<title>Node12</title>
<g id="a_Node000012"><a xlink:title=" ">
<polygon fill="#e0e0e0" stroke="#999999" points="257.5,-19 212.5,-19 212.5,0 257.5,0 257.5,-19"/>
<text text-anchor="middle" x="235" y="-7" font-family="Helvetica,sans-Serif" font-size="10.00">QMap</text>
</a>
</g>
</g>
<!-- Node5&#45;&gt;Node12 -->
<g id="edge12_Node000005_Node000012" class="edge">
<title>Node5&#45;&gt;Node12</title>
<g id="a_edge12_Node000005_Node000012"><a xlink:title=" ">
<path fill="none" stroke="#63b8ff" d="M235.76,-54.84C235.63,-47.21 235.47,-37.7 235.32,-29.45"/>
<polygon fill="#63b8ff" stroke="#63b8ff" points="238.82,-29.2 235.15,-19.27 231.82,-29.32 238.82,-29.2"/>
</a>
</g>
</g>
<!-- Node13&#45;&gt;Node7 -->
<g id="edge29_Node000013_Node000007" class="edge">
<title>Node13&#45;&gt;Node7</title>
<g id="a_edge29_Node000013_Node000007"><a xlink:title=" ">
<path fill="none" stroke="#63b8ff" d="M657.92,-247.52C694.86,-242.58 737.9,-231.22 769,-206 790,-188.97 789.08,-177.38 795,-151 797.92,-137.99 801.47,-132.66 795,-121 768.06,-72.48 736.25,-84.11 689,-55 672.31,-44.72 653.41,-33.2 639.03,-24.46"/>
<polygon fill="#63b8ff" stroke="#63b8ff" points="640.66,-21.36 630.29,-19.16 637.02,-27.34 640.66,-21.36"/>
</a>
</g>
</g>
<!-- Node14 -->
<g id="Node000014" class="node">
<title>Node14</title>
<g id="a_Node000014"><a xlink:href="RingBuffer_8h.html" target="_top" xlink:title=" ">
<polygon fill="white" stroke="#666666" points="540,-206 464,-206 464,-187 540,-187 540,-206"/>
<text text-anchor="middle" x="502" y="-194" font-family="Helvetica,sans-Serif" font-size="10.00">RingBuffer.h</text>
</a>
</g>
</g>
<!-- Node13&#45;&gt;Node14 -->
<g id="edge14_Node000013_Node000014" class="edge">
<title>Node13&#45;&gt;Node14</title>
<g id="a_edge14_Node000013_Node000014"><a xlink:title=" ">
<path fill="none" stroke="#63b8ff" d="M569.15,-241.98C556.86,-233.84 538.09,-221.41 523.52,-211.76"/>
<polygon fill="#63b8ff" stroke="#63b8ff" points="525.36,-208.78 515.09,-206.17 521.49,-214.61 525.36,-208.78"/>
</a>
</g>
</g>
<!-- Node17 -->
<g id="Node000017" class="node">
<title>Node17</title>
<g id="a_Node000017"><a xlink:title=" ">
<polygon fill="#e0e0e0" stroke="#999999" points="786,-145.5 736,-145.5 736,-126.5 786,-126.5 786,-145.5"/>
<text text-anchor="middle" x="761" y="-133.5" font-family="Helvetica,sans-Serif" font-size="10.00">atomic</text>
</a>
</g>
</g>
<!-- Node13&#45;&gt;Node17 -->
<g id="edge28_Node000013_Node000017" class="edge">
<title>Node13&#45;&gt;Node17</title>
<g id="a_edge28_Node000013_Node000017"><a xlink:title=" ">
<path fill="none" stroke="#63b8ff" d="M641.06,-241.99C683.72,-234.59 736.3,-222.47 751,-206 762.95,-192.61 764.41,-171.6 763.53,-156.28"/>
<polygon fill="#63b8ff" stroke="#63b8ff" points="766.97,-155.51 762.53,-145.89 760,-156.18 766.97,-155.51"/>
</a>
</g>
</g>
<!-- Node19 -->
<g id="Node000019" class="node">
<title>Node19</title>
<g id="a_Node000019"><a xlink:href="Logger_8h.html" target="_top" xlink:title=" ">
<polygon fill="white" stroke="#666666" points="374,-151 264,-151 264,-121 374,-121 374,-151"/>
<text text-anchor="start" x="272" y="-139" font-family="Helvetica,sans-Serif" font-size="10.00">src/services/Logger</text>
<text text-anchor="middle" x="319" y="-128" font-family="Helvetica,sans-Serif" font-size="10.00">/Logger.h</text>
</a>
</g>
</g>
<!-- Node13&#45;&gt;Node19 -->
<g id="edge33_Node000013_Node000019" class="edge">
<title>Node13&#45;&gt;Node19</title>
<g id="a_edge33_Node000013_Node000019"><a xlink:title=" ">
<path fill="none" stroke="#63b8ff" d="M506.32,-244.63C467.12,-238.96 419.71,-227.84 382,-206 362.29,-194.58 345.24,-174.93 333.87,-159.51"/>
<polygon fill="#63b8ff" stroke="#63b8ff" points="336.49,-157.15 327.85,-151.01 330.78,-161.2 336.49,-157.15"/>
</a>
</g>
</g>
<!-- Node21 -->
<g id="Node000021" class="node">
<title>Node21</title>
<g id="a_Node000021"><a xlink:href="Writer_8h.html" target="_top" xlink:title=" ">
<polygon fill="white" stroke="#666666" points="445.5,-206 390.5,-206 390.5,-187 445.5,-187 445.5,-206"/>
<text text-anchor="middle" x="418" y="-194" font-family="Helvetica,sans-Serif" font-size="10.00">Writer.h</text>
</a>
</g>
</g>
<!-- Node13&#45;&gt;Node21 -->
<g id="edge23_Node000013_Node000021" class="edge">
<title>Node13&#45;&gt;Node21</title>
<g id="a_edge23_Node000013_Node000021"><a xlink:title=" ">
<path fill="none" stroke="#63b8ff" d="M555.65,-241.98C528.24,-233.13 485.11,-219.19 454.44,-209.28"/>
<polygon fill="#63b8ff" stroke="#63b8ff" points="455.15,-205.83 444.56,-206.08 453,-212.49 455.15,-205.83"/>
</a>
</g>
</g>
<!-- Node22 -->
<g id="Node000022" class="node">
<title>Node22</title>
<g id="a_Node000022"><a xlink:title=" ">
<polygon fill="#e0e0e0" stroke="#999999" points="606,-206 558,-206 558,-187 606,-187 606,-206"/>
<text text-anchor="middle" x="582" y="-194" font-family="Helvetica,sans-Serif" font-size="10.00">thread</text>
</a>
</g>
</g>
<!-- Node13&#45;&gt;Node22 -->
<g id="edge30_Node000013_Node000022" class="edge">
<title>Node13&#45;&gt;Node22</title>
<g id="a_edge30_Node000013_Node000022"><a xlink:title=" ">
<path fill="none" stroke="#63b8ff" d="M582,-241.75C582,-234.8 582,-224.85 582,-216.13"/>
<polygon fill="#63b8ff" stroke="#63b8ff" points="585.5,-216.09 582,-206.09 578.5,-216.09 585.5,-216.09"/>
</a>
</g>
</g>
<!-- Node23 -->
<g id="Node000023" class="node">
<title>Node23</title>
<g id="a_Node000023"><a xlink:title=" ">
<polygon fill="#e0e0e0" stroke="#999999" points="674,-206 624,-206 624,-187 674,-187 674,-206"/>
<text text-anchor="middle" x="649" y="-194" font-family="Helvetica,sans-Serif" font-size="10.00">chrono</text>
</a>
</g>
</g>
<!-- Node13&#45;&gt;Node23 -->
<g id="edge31_Node000013_Node000023" class="edge">
<title>Node13&#45;&gt;Node23</title>
<g id="a_edge31_Node000013_Node000023"><a xlink:title=" ">
<path fill="none" stroke="#63b8ff" d="M592.76,-241.98C602.77,-234.07 617.89,-222.11 629.93,-212.58"/>
<polygon fill="#63b8ff" stroke="#63b8ff" points="632.37,-215.12 638.04,-206.17 628.03,-209.63 632.37,-215.12"/>
</a>
</g>
</g>
<!-- Node24 -->
<g id="Node000024" class="node">
<title>Node24</title>
<g id="a_Node000024"><a xlink:title=" ">
<polygon fill="#e0e0e0" stroke="#999999" points="742,-206 692,-206 692,-187 742,-187 742,-206"/>
<text text-anchor="middle" x="717" y="-194" font-family="Helvetica,sans-Serif" font-size="10.00">format</text>
</a>
</g>
</g>
<!-- Node13&#45;&gt;Node24 -->
<g id="edge32_Node000013_Node000024" class="edge">
<title>Node13&#45;&gt;Node24</title>
<g id="a_edge32_Node000013_Node000024"><a xlink:title=" ">
<path fill="none" stroke="#63b8ff" d="M603.69,-241.98C625.8,-233.3 660.32,-219.75 685.45,-209.88"/>
<polygon fill="#63b8ff" stroke="#63b8ff" points="686.89,-213.08 694.92,-206.17 684.33,-206.57 686.89,-213.08"/>
</a>
</g>
</g>
<!-- Node14&#45;&gt;Node7 -->
<g id="edge16_Node000014_Node000007" class="edge">
<title>Node14&#45;&gt;Node7</title>
<g id="a_edge16_Node000014_Node000007"><a xlink:title=" ">
<path fill="none" stroke="#63b8ff" d="M540.43,-187.62C593.79,-176.5 684.35,-156.89 689,-151 721.24,-110.19 665.94,-52.95 634.9,-25.87"/>
<polygon fill="#63b8ff" stroke="#63b8ff" points="636.77,-22.86 626.88,-19.06 632.24,-28.2 636.77,-22.86"/>
</a>
</g>
</g>
<!-- Node15 -->
<g id="Node000015" class="node">
<title>Node15</title>
<g id="a_Node000015"><a xlink:title=" ">
<polygon fill="#e0e0e0" stroke="#999999" points="598,-145.5 542,-145.5 542,-126.5 598,-126.5 598,-145.5"/>
<text text-anchor="middle" x="570" y="-133.5" font-family="Helvetica,sans-Serif" font-size="10.00">QDebug</text>
</a>
</g>
</g>
<!-- Node14&#45;&gt;Node15 -->
<g id="edge15_Node000014_Node000015" class="edge">
<title>Node14&#45;&gt;Node15</title>
<g id="a_edge15_Node000014_Node000015"><a xlink:title=" ">
<path fill="none" stroke="#63b8ff" d="M512.03,-186.87C522.58,-177.8 539.39,-163.34 552.19,-152.32"/>
<polygon fill="#63b8ff" stroke="#63b8ff" points="554.63,-154.84 559.93,-145.67 550.06,-149.54 554.63,-154.84"/>
</a>
</g>
</g>
<!-- Node16 -->
<g id="Node000016" class="node">
<title>Node16</title>
<g id="a_Node000016"><a xlink:title=" ">
<polygon fill="#e0e0e0" stroke="#999999" points="523.5,-145.5 468.5,-145.5 468.5,-126.5 523.5,-126.5 523.5,-145.5"/>
<text text-anchor="middle" x="496" y="-133.5" font-family="Helvetica,sans-Serif" font-size="10.00">fstream</text>
</a>
</g>
</g>
<!-- Node14&#45;&gt;Node16 -->
<g id="edge17_Node000014_Node000016" class="edge">
<title>Node14&#45;&gt;Node16</title>
<g id="a_edge17_Node000014_Node000016"><a xlink:title=" ">
<path fill="none" stroke="#63b8ff" d="M501.11,-186.87C500.28,-178.75 499.01,-166.31 497.94,-155.89"/>
<polygon fill="#63b8ff" stroke="#63b8ff" points="501.39,-155.26 496.89,-145.67 494.43,-155.97 501.39,-155.26"/>
</a>
</g>
</g>
<!-- Node14&#45;&gt;Node17 -->
<g id="edge18_Node000014_Node000017" class="edge">
<title>Node14&#45;&gt;Node17</title>
<g id="a_edge18_Node000014_Node000017"><a xlink:title=" ">
<path fill="none" stroke="#63b8ff" d="M540.17,-188.47C593.71,-178.5 688.31,-160.4 722,-151 724.43,-150.32 726.92,-149.57 729.41,-148.77"/>
<polygon fill="#63b8ff" stroke="#63b8ff" points="730.56,-152.08 738.91,-145.56 728.31,-145.45 730.56,-152.08"/>
</a>
</g>
</g>
<!-- Node18 -->
<g id="Node000018" class="node">
<title>Node18</title>
<g id="a_Node000018"><a xlink:title=" ">
<polygon fill="#e0e0e0" stroke="#999999" points="680,-145.5 616,-145.5 616,-126.5 680,-126.5 680,-145.5"/>
<text text-anchor="middle" x="648" y="-133.5" font-family="Helvetica,sans-Serif" font-size="10.00">algorithm</text>
</a>
</g>
</g>
<!-- Node14&#45;&gt;Node18 -->
<g id="edge19_Node000014_Node000018" class="edge">
<title>Node14&#45;&gt;Node18</title>
<g id="a_edge19_Node000014_Node000018"><a xlink:title=" ">
<path fill="none" stroke="#63b8ff" d="M523.23,-186.99C547.99,-177.07 589.12,-160.59 617.35,-149.28"/>
<polygon fill="#63b8ff" stroke="#63b8ff" points="618.76,-152.49 626.74,-145.52 616.16,-145.99 618.76,-152.49"/>
</a>
</g>
</g>
<!-- Node14&#45;&gt;Node19 -->
<g id="edge20_Node000014_Node000019" class="edge">
<title>Node14&#45;&gt;Node19</title>
<g id="a_edge20_Node000014_Node000019"><a xlink:title=" ">
<path fill="none" stroke="#63b8ff" d="M475.39,-186.99C448.59,-178.43 406.5,-164.97 372.73,-154.18"/>
<polygon fill="#63b8ff" stroke="#63b8ff" points="373.59,-150.78 363,-151.06 371.46,-157.44 373.59,-150.78"/>
</a>
</g>
</g>
<!-- Node19&#45;&gt;Node5 -->
<g id="edge22_Node000019_Node000005" class="edge">
<title>Node19&#45;&gt;Node5</title>
<g id="a_edge22_Node000019_Node000005"><a xlink:title=" ">
<path fill="none" stroke="#63b8ff" d="M300.58,-120.8C289.4,-112.18 274.95,-101.04 262.56,-91.48"/>
<polygon fill="#63b8ff" stroke="#63b8ff" points="264.43,-88.5 254.37,-85.16 260.15,-94.04 264.43,-88.5"/>
</a>
</g>
</g>
<!-- Node20 -->
<g id="Node000020" class="node">
<title>Node20</title>
<g id="a_Node000020"><a xlink:title=" ">
<polygon fill="#e0e0e0" stroke="#999999" points="364.5,-79.5 305.5,-79.5 305.5,-60.5 364.5,-60.5 364.5,-79.5"/>
<text text-anchor="middle" x="335" y="-67.5" font-family="Helvetica,sans-Serif" font-size="10.00">QWidget</text>
</a>
</g>
</g>
<!-- Node19&#45;&gt;Node20 -->
<g id="edge21_Node000019_Node000020" class="edge">
<title>Node19&#45;&gt;Node20</title>
<g id="a_edge21_Node000019_Node000020"><a xlink:title=" ">
<path fill="none" stroke="#63b8ff" d="M322.55,-120.8C324.85,-111.6 327.87,-99.53 330.36,-89.58"/>
<polygon fill="#63b8ff" stroke="#63b8ff" points="333.76,-90.39 332.79,-79.84 326.97,-88.7 333.76,-90.39"/>
</a>
</g>
</g>
<!-- Node21&#45;&gt;Node7 -->
<g id="edge24_Node000021_Node000007" class="edge">
<title>Node21&#45;&gt;Node7</title>
<g id="a_edge24_Node000021_Node000007"><a xlink:title=" ">
<path fill="none" stroke="#63b8ff" d="M421.36,-186.91C427.42,-172.19 441.3,-141.73 460,-121 498.64,-78.16 556.74,-42.55 590.05,-24.1"/>
<polygon fill="#63b8ff" stroke="#63b8ff" points="592.04,-27 599.15,-19.15 588.69,-20.86 592.04,-27"/>
</a>
</g>
</g>
<!-- Node21&#45;&gt;Node8 -->
<g id="edge26_Node000021_Node000008" class="edge">
<title>Node21&#45;&gt;Node8</title>
<g id="a_edge26_Node000021_Node000008"><a xlink:title=" ">
<path fill="none" stroke="#63b8ff" d="M416.87,-186.94C414.26,-164.51 409.21,-102.45 426,-55 429.64,-44.72 436.43,-34.73 442.82,-26.83"/>
<polygon fill="#63b8ff" stroke="#63b8ff" points="445.55,-29.02 449.43,-19.16 440.25,-24.45 445.55,-29.02"/>
</a>
</g>
</g>
<!-- Node21&#45;&gt;Node16 -->
<g id="edge25_Node000021_Node000016" class="edge">
<title>Node21&#45;&gt;Node16</title>
<g id="a_edge25_Node000021_Node000016"><a xlink:title=" ">
<path fill="none" stroke="#63b8ff" d="M429.51,-186.87C441.84,-177.62 461.62,-162.78 476.41,-151.69"/>
<polygon fill="#63b8ff" stroke="#63b8ff" points="478.54,-154.47 484.44,-145.67 474.34,-148.87 478.54,-154.47"/>
</a>
</g>
</g>
<!-- Node21&#45;&gt;Node19 -->
<g id="edge27_Node000021_Node000019" class="edge">
<title>Node21&#45;&gt;Node19</title>
<g id="a_edge27_Node000021_Node000019"><a xlink:title=" ">
<path fill="none" stroke="#63b8ff" d="M403.39,-186.87C389.83,-178.86 369.17,-166.65 351.69,-156.31"/>
<polygon fill="#63b8ff" stroke="#63b8ff" points="353.28,-153.19 342.89,-151.11 349.71,-159.22 353.28,-153.19"/>
</a>
</g>
</g>
</g>
</svg>
