<?xml version="1.0" encoding="UTF-8" standalone="no"?>
<!DOCTYPE svg PUBLIC "-//W3C//DTD SVG 1.1//EN"
 "http://www.w3.org/Graphics/SVG/1.1/DTD/svg11.dtd">
<!-- Generated by graphviz version 2.43.0 (0)
 -->
<!-- Title: features/communication/udp/ui/UdpChannelParametersViewModel.cpp Pages: 1 -->
<svg width="809pt" height="412pt"
 viewBox="0.00 0.00 808.81 412.00" xmlns="http://www.w3.org/2000/svg" xmlns:xlink="http://www.w3.org/1999/xlink">
<g id="graph0" class="graph" transform="scale(1 1) rotate(0) translate(4 408)">
<title>features/communication/udp/ui/UdpChannelParametersViewModel.cpp</title>
<!-- Node1 -->
<g id="Node000001" class="node">
<title>Node1</title>
<g id="a_Node000001"><a xlink:title=" ">
<polygon fill="#999999" stroke="#666666" points="732.81,-404 565.81,-404 565.81,-363 732.81,-363 732.81,-404"/>
<text text-anchor="start" x="573.81" y="-392" font-family="Helvetica,sans-Serif" font-size="10.00">features/communication</text>
<text text-anchor="start" x="573.81" y="-381" font-family="Helvetica,sans-Serif" font-size="10.00">/udp/ui/UdpChannelParameters</text>
<text text-anchor="middle" x="649.31" y="-370" font-family="Helvetica,sans-Serif" font-size="10.00">ViewModel.cpp</text>
</a>
</g>
</g>
<!-- Node2 -->
<g id="Node000002" class="node">
<title>Node2</title>
<g id="a_Node000002"><a xlink:href="UdpChannelParametersViewModel_8h.html" target="_top" xlink:title=" ">
<polygon fill="white" stroke="#666666" points="800.81,-327 645.81,-327 645.81,-297 800.81,-297 800.81,-327"/>
<text text-anchor="start" x="653.81" y="-315" font-family="Helvetica,sans-Serif" font-size="10.00">UdpChannelParametersView</text>
<text text-anchor="middle" x="723.31" y="-304" font-family="Helvetica,sans-Serif" font-size="10.00">Model.h</text>
</a>
</g>
</g>
<!-- Node1&#45;&gt;Node2 -->
<g id="edge1_Node000001_Node000002" class="edge">
<title>Node1&#45;&gt;Node2</title>
<g id="a_edge1_Node000001_Node000002"><a xlink:title=" ">
<path fill="none" stroke="#63b8ff" d="M670.31,-362.77C679.89,-353.78 691.23,-343.12 700.97,-333.98"/>
<polygon fill="#63b8ff" stroke="#63b8ff" points="703.47,-336.44 708.36,-327.04 698.67,-331.33 703.47,-336.44"/>
</a>
</g>
</g>
<!-- Node4 -->
<g id="Node000004" class="node">
<title>Node4</title>
<g id="a_Node000004"><a xlink:href="UdpChannel_8h.html" target="_top" xlink:title=" ">
<polygon fill="white" stroke="#666666" points="625.31,-321.5 531.31,-321.5 531.31,-302.5 625.31,-302.5 625.31,-321.5"/>
<text text-anchor="middle" x="578.31" y="-309.5" font-family="Helvetica,sans-Serif" font-size="10.00">../UdpChannel.h</text>
</a>
</g>
</g>
<!-- Node1&#45;&gt;Node4 -->
<g id="edge3_Node000001_Node000004" class="edge">
<title>Node1&#45;&gt;Node4</title>
<g id="a_edge3_Node000001_Node000004"><a xlink:title=" ">
<path fill="none" stroke="#63b8ff" d="M629.15,-362.77C618.17,-352.02 604.77,-338.91 594.49,-328.84"/>
<polygon fill="#63b8ff" stroke="#63b8ff" points="596.91,-326.31 587.32,-321.82 592.01,-331.32 596.91,-326.31"/>
</a>
</g>
</g>
<!-- Node3 -->
<g id="Node000003" class="node">
<title>Node3</title>
<g id="a_Node000003"><a xlink:title=" ">
<polygon fill="#e0e0e0" stroke="#999999" points="760.31,-19 704.31,-19 704.31,0 760.31,0 760.31,-19"/>
<text text-anchor="middle" x="732.31" y="-7" font-family="Helvetica,sans-Serif" font-size="10.00">QObject</text>
</a>
</g>
</g>
<!-- Node2&#45;&gt;Node3 -->
<g id="edge2_Node000002_Node000003" class="edge">
<title>Node2&#45;&gt;Node3</title>
<g id="a_edge2_Node000002_Node000003"><a xlink:title=" ">
<path fill="none" stroke="#63b8ff" d="M724.96,-296.69C727.31,-275.19 731.31,-233.25 731.31,-197.5 731.31,-197.5 731.31,-197.5 731.31,-135 731.31,-97.49 731.77,-53.63 732.06,-29.26"/>
<polygon fill="#63b8ff" stroke="#63b8ff" points="735.56,-29.3 732.19,-19.25 728.56,-29.21 735.56,-29.3"/>
</a>
</g>
</g>
<!-- Node4&#45;&gt;Node3 -->
<g id="edge4_Node000004_Node000003" class="edge">
<title>Node4&#45;&gt;Node3</title>
<g id="a_edge4_Node000004_Node000003"><a xlink:title=" ">
<path fill="none" stroke="#63b8ff" d="M596.46,-302.26C626.99,-286.16 685.31,-248.68 685.31,-197.5 685.31,-197.5 685.31,-197.5 685.31,-135 685.31,-94.57 707.27,-51.24 721.17,-27.86"/>
<polygon fill="#63b8ff" stroke="#63b8ff" points="724.28,-29.48 726.54,-19.13 718.32,-25.81 724.28,-29.48"/>
</a>
</g>
</g>
<!-- Node5 -->
<g id="Node000005" class="node">
<title>Node5</title>
<g id="a_Node000005"><a xlink:title=" ">
<polygon fill="#e0e0e0" stroke="#999999" points="518.31,-261 460.31,-261 460.31,-242 518.31,-242 518.31,-261"/>
<text text-anchor="middle" x="489.31" y="-249" font-family="Helvetica,sans-Serif" font-size="10.00">QThread</text>
</a>
</g>
</g>
<!-- Node4&#45;&gt;Node5 -->
<g id="edge5_Node000004_Node000005" class="edge">
<title>Node4&#45;&gt;Node5</title>
<g id="a_edge5_Node000004_Node000005"><a xlink:title=" ">
<path fill="none" stroke="#63b8ff" d="M565.17,-302.37C550.98,-293.04 528.11,-278.01 511.19,-266.88"/>
<polygon fill="#63b8ff" stroke="#63b8ff" points="512.77,-263.74 502.49,-261.17 508.93,-269.58 512.77,-263.74"/>
</a>
</g>
</g>
<!-- Node6 -->
<g id="Node000006" class="node">
<title>Node6</title>
<g id="a_Node000006"><a xlink:title=" ">
<polygon fill="#e0e0e0" stroke="#999999" points="612.31,-261 536.31,-261 536.31,-242 612.31,-242 612.31,-261"/>
<text text-anchor="middle" x="574.31" y="-249" font-family="Helvetica,sans-Serif" font-size="10.00">QUdpSocket</text>
</a>
</g>
</g>
<!-- Node4&#45;&gt;Node6 -->
<g id="edge6_Node000004_Node000006" class="edge">
<title>Node4&#45;&gt;Node6</title>
<g id="a_edge6_Node000004_Node000006"><a xlink:title=" ">
<path fill="none" stroke="#63b8ff" d="M577.72,-302.37C577.16,-294.25 576.31,-281.81 575.6,-271.39"/>
<polygon fill="#63b8ff" stroke="#63b8ff" points="579.07,-270.91 574.9,-261.17 572.09,-271.38 579.07,-270.91"/>
</a>
</g>
</g>
<!-- Node7 -->
<g id="Node000007" class="node">
<title>Node7</title>
<g id="a_Node000007"><a xlink:href="Messages_8h.html" target="_top" xlink:title=" ">
<polygon fill="white" stroke="#666666" points="571.81,-85 468.81,-85 468.81,-55 571.81,-55 571.81,-85"/>
<text text-anchor="start" x="476.81" y="-73" font-family="Helvetica,sans-Serif" font-size="10.00">src/core/Protocols</text>
<text text-anchor="middle" x="520.31" y="-62" font-family="Helvetica,sans-Serif" font-size="10.00">/Messages.h</text>
</a>
</g>
</g>
<!-- Node4&#45;&gt;Node7 -->
<g id="edge7_Node000004_Node000007" class="edge">
<title>Node4&#45;&gt;Node7</title>
<g id="a_edge7_Node000004_Node000007"><a xlink:title=" ">
<path fill="none" stroke="#63b8ff" d="M589.22,-302.43C599.73,-293.41 614.94,-278.18 621.31,-261 624.24,-253.08 623.53,-250.15 621.31,-242 605.27,-183.33 563.37,-124.31 538.87,-93.29"/>
<polygon fill="#63b8ff" stroke="#63b8ff" points="541.45,-90.91 532.46,-85.31 535.99,-95.3 541.45,-90.91"/>
</a>
</g>
</g>
<!-- Node15 -->
<g id="Node000015" class="node">
<title>Node15</title>
<g id="a_Node000015"><a xlink:href="UdpLogger_8h.html" target="_top" xlink:title=" ">
<polygon fill="white" stroke="#666666" points="431.81,-261 280.81,-261 280.81,-242 431.81,-242 431.81,-261"/>
<text text-anchor="middle" x="356.31" y="-249" font-family="Helvetica,sans-Serif" font-size="10.00">frames_logger/UdpLogger.h</text>
</a>
</g>
</g>
<!-- Node4&#45;&gt;Node15 -->
<g id="edge16_Node000004_Node000015" class="edge">
<title>Node4&#45;&gt;Node15</title>
<g id="a_edge16_Node000004_Node000015"><a xlink:title=" ">
<path fill="none" stroke="#63b8ff" d="M546.03,-302.49C507.06,-292.23 441.43,-274.93 398.49,-263.62"/>
<polygon fill="#63b8ff" stroke="#63b8ff" points="399.19,-260.18 388.63,-261.02 397.4,-266.95 399.19,-260.18"/>
</a>
</g>
</g>
<!-- Node7&#45;&gt;Node3 -->
<g id="edge14_Node000007_Node000003" class="edge">
<title>Node7&#45;&gt;Node3</title>
<g id="a_edge14_Node000007_Node000003"><a xlink:title=" ">
<path fill="none" stroke="#63b8ff" d="M571.09,-54.99C608.99,-44.53 659.97,-30.46 694.37,-20.97"/>
<polygon fill="#63b8ff" stroke="#63b8ff" points="695.34,-24.33 704.05,-18.3 693.48,-17.58 695.34,-24.33"/>
</a>
</g>
</g>
<!-- Node8 -->
<g id="Node000008" class="node">
<title>Node8</title>
<g id="a_Node000008"><a xlink:title=" ">
<polygon fill="#e0e0e0" stroke="#999999" points="465.81,-19 414.81,-19 414.81,0 465.81,0 465.81,-19"/>
<text text-anchor="middle" x="440.31" y="-7" font-family="Helvetica,sans-Serif" font-size="10.00">variant</text>
</a>
</g>
</g>
<!-- Node7&#45;&gt;Node8 -->
<g id="edge8_Node000007_Node000008" class="edge">
<title>Node7&#45;&gt;Node8</title>
<g id="a_edge8_Node000007_Node000008"><a xlink:title=" ">
<path fill="none" stroke="#63b8ff" d="M500.94,-54.84C488.74,-45.91 473,-34.41 460.62,-25.35"/>
<polygon fill="#63b8ff" stroke="#63b8ff" points="462.43,-22.34 452.29,-19.27 458.3,-27.99 462.43,-22.34"/>
</a>
</g>
</g>
<!-- Node9 -->
<g id="Node000009" class="node">
<title>Node9</title>
<g id="a_Node000009"><a xlink:title=" ">
<polygon fill="#e0e0e0" stroke="#999999" points="262.31,-19 212.31,-19 212.31,0 262.31,0 262.31,-19"/>
<text text-anchor="middle" x="237.31" y="-7" font-family="Helvetica,sans-Serif" font-size="10.00">cstdint</text>
</a>
</g>
</g>
<!-- Node7&#45;&gt;Node9 -->
<g id="edge9_Node000007_Node000009" class="edge">
<title>Node7&#45;&gt;Node9</title>
<g id="a_edge9_Node000007_Node000009"><a xlink:title=" ">
<path fill="none" stroke="#63b8ff" d="M468.63,-56.8C465.81,-56.18 463.03,-55.58 460.31,-55 377.09,-37.33 355.44,-37.04 272.31,-19 272.21,-18.98 272.11,-18.96 272.01,-18.94"/>
<polygon fill="#63b8ff" stroke="#63b8ff" points="273.03,-15.58 262.51,-16.78 271.48,-22.41 273.03,-15.58"/>
</a>
</g>
</g>
<!-- Node10 -->
<g id="Node000010" class="node">
<title>Node10</title>
<g id="a_Node000010"><a xlink:title=" ">
<polygon fill="#e0e0e0" stroke="#999999" points="686.31,-19 642.31,-19 642.31,0 686.31,0 686.31,-19"/>
<text text-anchor="middle" x="664.31" y="-7" font-family="Helvetica,sans-Serif" font-size="10.00">string</text>
</a>
</g>
</g>
<!-- Node7&#45;&gt;Node10 -->
<g id="edge10_Node000007_Node000010" class="edge">
<title>Node7&#45;&gt;Node10</title>
<g id="a_edge10_Node000007_Node000010"><a xlink:title=" ">
<path fill="none" stroke="#63b8ff" d="M554.8,-54.99C578.82,-45.23 610.58,-32.33 633.71,-22.93"/>
<polygon fill="#63b8ff" stroke="#63b8ff" points="635.09,-26.15 643.04,-19.14 632.46,-19.66 635.09,-26.15"/>
</a>
</g>
</g>
<!-- Node11 -->
<g id="Node000011" class="node">
<title>Node11</title>
<g id="a_Node000011"><a xlink:title=" ">
<polygon fill="#e0e0e0" stroke="#999999" points="556.81,-19 483.81,-19 483.81,0 556.81,0 556.81,-19"/>
<text text-anchor="middle" x="520.31" y="-7" font-family="Helvetica,sans-Serif" font-size="10.00">QByteArray</text>
</a>
</g>
</g>
<!-- Node7&#45;&gt;Node11 -->
<g id="edge11_Node000007_Node000011" class="edge">
<title>Node7&#45;&gt;Node11</title>
<g id="a_edge11_Node000007_Node000011"><a xlink:title=" ">
<path fill="none" stroke="#63b8ff" d="M520.31,-54.84C520.31,-47.21 520.31,-37.7 520.31,-29.45"/>
<polygon fill="#63b8ff" stroke="#63b8ff" points="523.81,-29.27 520.31,-19.27 516.81,-29.27 523.81,-29.27"/>
</a>
</g>
</g>
<!-- Node12 -->
<g id="Node000012" class="node">
<title>Node12</title>
<g id="a_Node000012"><a xlink:title=" ">
<polygon fill="#e0e0e0" stroke="#999999" points="623.81,-19 574.81,-19 574.81,0 623.81,0 623.81,-19"/>
<text text-anchor="middle" x="599.31" y="-7" font-family="Helvetica,sans-Serif" font-size="10.00">QHash</text>
</a>
</g>
</g>
<!-- Node7&#45;&gt;Node12 -->
<g id="edge12_Node000007_Node000012" class="edge">
<title>Node7&#45;&gt;Node12</title>
<g id="a_edge12_Node000007_Node000012"><a xlink:title=" ">
<path fill="none" stroke="#63b8ff" d="M539.43,-54.84C551.48,-45.91 567.02,-34.41 579.25,-25.35"/>
<polygon fill="#63b8ff" stroke="#63b8ff" points="581.52,-28.03 587.47,-19.27 577.35,-22.4 581.52,-28.03"/>
</a>
</g>
</g>
<!-- Node13 -->
<g id="Node000013" class="node">
<title>Node13</title>
<g id="a_Node000013"><a xlink:title=" ">
<polygon fill="#e0e0e0" stroke="#999999" points="333.81,-19 280.81,-19 280.81,0 333.81,0 333.81,-19"/>
<text text-anchor="middle" x="307.31" y="-7" font-family="Helvetica,sans-Serif" font-size="10.00">QString</text>
</a>
</g>
</g>
<!-- Node7&#45;&gt;Node13 -->
<g id="edge13_Node000007_Node000013" class="edge">
<title>Node7&#45;&gt;Node13</title>
<g id="a_edge13_Node000007_Node000013"><a xlink:title=" ">
<path fill="none" stroke="#63b8ff" d="M469.29,-54.99C430.53,-44.34 378.17,-29.96 343.6,-20.47"/>
<polygon fill="#63b8ff" stroke="#63b8ff" points="344.49,-17.08 333.92,-17.81 342.63,-23.83 344.49,-17.08"/>
</a>
</g>
</g>
<!-- Node14 -->
<g id="Node000014" class="node">
<title>Node14</title>
<g id="a_Node000014"><a xlink:title=" ">
<polygon fill="#e0e0e0" stroke="#999999" points="396.81,-19 351.81,-19 351.81,0 396.81,0 396.81,-19"/>
<text text-anchor="middle" x="374.31" y="-7" font-family="Helvetica,sans-Serif" font-size="10.00">QMap</text>
</a>
</g>
</g>
<!-- Node7&#45;&gt;Node14 -->
<g id="edge15_Node000007_Node000014" class="edge">
<title>Node7&#45;&gt;Node14</title>
<g id="a_edge15_Node000007_Node000014"><a xlink:title=" ">
<path fill="none" stroke="#63b8ff" d="M485.34,-54.99C460.98,-45.23 428.78,-32.33 405.33,-22.93"/>
<polygon fill="#63b8ff" stroke="#63b8ff" points="406.45,-19.61 395.87,-19.14 403.85,-26.11 406.45,-19.61"/>
</a>
</g>
</g>
<!-- Node15&#45;&gt;Node9 -->
<g id="edge32_Node000015_Node000009" class="edge">
<title>Node15&#45;&gt;Node9</title>
<g id="a_edge32_Node000015_Node000009"><a xlink:title=" ">
<path fill="none" stroke="#63b8ff" d="M280.72,-243.88C229.98,-237.8 162.25,-226.5 105.31,-206 58.68,-189.21 33.25,-193.82 8.31,-151 -38.56,-70.55 126.89,-30.14 202.05,-16.24"/>
<polygon fill="#63b8ff" stroke="#63b8ff" points="202.8,-19.66 212.02,-14.45 201.56,-12.77 202.8,-19.66"/>
</a>
</g>
</g>
<!-- Node16 -->
<g id="Node000016" class="node">
<title>Node16</title>
<g id="a_Node000016"><a xlink:href="RingBuffer_8h.html" target="_top" xlink:title=" ">
<polygon fill="white" stroke="#666666" points="296.31,-206 220.31,-206 220.31,-187 296.31,-187 296.31,-206"/>
<text text-anchor="middle" x="258.31" y="-194" font-family="Helvetica,sans-Serif" font-size="10.00">RingBuffer.h</text>
</a>
</g>
</g>
<!-- Node15&#45;&gt;Node16 -->
<g id="edge17_Node000015_Node000016" class="edge">
<title>Node15&#45;&gt;Node16</title>
<g id="a_edge17_Node000015_Node000016"><a xlink:title=" ">
<path fill="none" stroke="#63b8ff" d="M340.56,-241.98C325.08,-233.61 301.21,-220.7 283.17,-210.95"/>
<polygon fill="#63b8ff" stroke="#63b8ff" points="284.8,-207.85 274.34,-206.17 281.47,-214.01 284.8,-207.85"/>
</a>
</g>
</g>
<!-- Node19 -->
<g id="Node000019" class="node">
<title>Node19</title>
<g id="a_Node000019"><a xlink:title=" ">
<polygon fill="#e0e0e0" stroke="#999999" points="67.31,-145.5 17.31,-145.5 17.31,-126.5 67.31,-126.5 67.31,-145.5"/>
<text text-anchor="middle" x="42.31" y="-133.5" font-family="Helvetica,sans-Serif" font-size="10.00">atomic</text>
</a>
</g>
</g>
<!-- Node15&#45;&gt;Node19 -->
<g id="edge31_Node000015_Node000019" class="edge">
<title>Node15&#45;&gt;Node19</title>
<g id="a_edge31_Node000015_Node000019"><a xlink:title=" ">
<path fill="none" stroke="#63b8ff" d="M322.94,-241.96C293.2,-233.94 248.71,-220.97 211.31,-206 193.78,-198.98 190.63,-194.52 173.31,-187 131.12,-168.69 119.13,-167.76 76.31,-151 74.93,-150.46 73.53,-149.91 72.11,-149.34"/>
<polygon fill="#63b8ff" stroke="#63b8ff" points="73.34,-146.06 62.76,-145.56 70.71,-152.55 73.34,-146.06"/>
</a>
</g>
</g>
<!-- Node21 -->
<g id="Node000021" class="node">
<title>Node21</title>
<g id="a_Node000021"><a xlink:href="Logger_8h.html" target="_top" xlink:title=" ">
<polygon fill="white" stroke="#666666" points="501.31,-151 391.31,-151 391.31,-121 501.31,-121 501.31,-151"/>
<text text-anchor="start" x="399.31" y="-139" font-family="Helvetica,sans-Serif" font-size="10.00">src/services/Logger</text>
<text text-anchor="middle" x="446.31" y="-128" font-family="Helvetica,sans-Serif" font-size="10.00">/Logger.h</text>
</a>
</g>
</g>
<!-- Node15&#45;&gt;Node21 -->
<g id="edge36_Node000015_Node000021" class="edge">
<title>Node15&#45;&gt;Node21</title>
<g id="a_edge36_Node000015_Node000021"><a xlink:title=" ">
<path fill="none" stroke="#63b8ff" d="M363.78,-241.72C371.33,-232.8 383.27,-218.56 393.31,-206 405.61,-190.61 419.13,-172.99 429.44,-159.41"/>
<polygon fill="#63b8ff" stroke="#63b8ff" points="432.46,-161.22 435.7,-151.13 426.88,-156.99 432.46,-161.22"/>
</a>
</g>
</g>
<!-- Node23 -->
<g id="Node000023" class="node">
<title>Node23</title>
<g id="a_Node000023"><a xlink:href="Writer_8h.html" target="_top" xlink:title=" ">
<polygon fill="white" stroke="#666666" points="383.81,-206 328.81,-206 328.81,-187 383.81,-187 383.81,-206"/>
<text text-anchor="middle" x="356.31" y="-194" font-family="Helvetica,sans-Serif" font-size="10.00">Writer.h</text>
</a>
</g>
</g>
<!-- Node15&#45;&gt;Node23 -->
<g id="edge26_Node000015_Node000023" class="edge">
<title>Node15&#45;&gt;Node23</title>
<g id="a_edge26_Node000015_Node000023"><a xlink:title=" ">
<path fill="none" stroke="#63b8ff" d="M356.31,-241.75C356.31,-234.8 356.31,-224.85 356.31,-216.13"/>
<polygon fill="#63b8ff" stroke="#63b8ff" points="359.81,-216.09 356.31,-206.09 352.81,-216.09 359.81,-216.09"/>
</a>
</g>
</g>
<!-- Node24 -->
<g id="Node000024" class="node">
<title>Node24</title>
<g id="a_Node000024"><a xlink:title=" ">
<polygon fill="#e0e0e0" stroke="#999999" points="488.31,-206 440.31,-206 440.31,-187 488.31,-187 488.31,-206"/>
<text text-anchor="middle" x="464.31" y="-194" font-family="Helvetica,sans-Serif" font-size="10.00">thread</text>
</a>
</g>
</g>
<!-- Node15&#45;&gt;Node24 -->
<g id="edge33_Node000015_Node000024" class="edge">
<title>Node15&#45;&gt;Node24</title>
<g id="a_edge33_Node000015_Node000024"><a xlink:title=" ">
<path fill="none" stroke="#63b8ff" d="M373.66,-241.98C390.88,-233.54 417.5,-220.47 437.45,-210.68"/>
<polygon fill="#63b8ff" stroke="#63b8ff" points="439.2,-213.72 446.64,-206.17 436.12,-207.43 439.2,-213.72"/>
</a>
</g>
</g>
<!-- Node25 -->
<g id="Node000025" class="node">
<title>Node25</title>
<g id="a_Node000025"><a xlink:title=" ">
<polygon fill="#e0e0e0" stroke="#999999" points="556.31,-206 506.31,-206 506.31,-187 556.31,-187 556.31,-206"/>
<text text-anchor="middle" x="531.31" y="-194" font-family="Helvetica,sans-Serif" font-size="10.00">chrono</text>
</a>
</g>
</g>
<!-- Node15&#45;&gt;Node25 -->
<g id="edge34_Node000015_Node000025" class="edge">
<title>Node15&#45;&gt;Node25</title>
<g id="a_edge34_Node000015_Node000025"><a xlink:title=" ">
<path fill="none" stroke="#63b8ff" d="M384.42,-241.98C414.89,-232.76 463.56,-218.02 496.44,-208.06"/>
<polygon fill="#63b8ff" stroke="#63b8ff" points="497.54,-211.38 506.1,-205.13 495.51,-204.68 497.54,-211.38"/>
</a>
</g>
</g>
<!-- Node26 -->
<g id="Node000026" class="node">
<title>Node26</title>
<g id="a_Node000026"><a xlink:title=" ">
<polygon fill="#e0e0e0" stroke="#999999" points="164.31,-206 114.31,-206 114.31,-187 164.31,-187 164.31,-206"/>
<text text-anchor="middle" x="139.31" y="-194" font-family="Helvetica,sans-Serif" font-size="10.00">format</text>
</a>
</g>
</g>
<!-- Node15&#45;&gt;Node26 -->
<g id="edge35_Node000015_Node000026" class="edge">
<title>Node15&#45;&gt;Node26</title>
<g id="a_edge35_Node000015_Node000026"><a xlink:title=" ">
<path fill="none" stroke="#63b8ff" d="M321.44,-241.98C281.1,-232.13 215.06,-216 174.56,-206.11"/>
<polygon fill="#63b8ff" stroke="#63b8ff" points="175.14,-202.65 164.59,-203.68 173.48,-209.45 175.14,-202.65"/>
</a>
</g>
</g>
<!-- Node16&#45;&gt;Node9 -->
<g id="edge19_Node000016_Node000009" class="edge">
<title>Node16&#45;&gt;Node9</title>
<g id="a_edge19_Node000016_Node000009"><a xlink:title=" ">
<path fill="none" stroke="#63b8ff" d="M257.29,-186.58C254.06,-158.07 243.92,-68.74 239.45,-29.41"/>
<polygon fill="#63b8ff" stroke="#63b8ff" points="242.91,-28.87 238.31,-19.33 235.96,-29.66 242.91,-28.87"/>
</a>
</g>
</g>
<!-- Node17 -->
<g id="Node000017" class="node">
<title>Node17</title>
<g id="a_Node000017"><a xlink:title=" ">
<polygon fill="#e0e0e0" stroke="#999999" points="223.31,-145.5 167.31,-145.5 167.31,-126.5 223.31,-126.5 223.31,-145.5"/>
<text text-anchor="middle" x="195.31" y="-133.5" font-family="Helvetica,sans-Serif" font-size="10.00">QDebug</text>
</a>
</g>
</g>
<!-- Node16&#45;&gt;Node17 -->
<g id="edge18_Node000016_Node000017" class="edge">
<title>Node16&#45;&gt;Node17</title>
<g id="a_edge18_Node000016_Node000017"><a xlink:title=" ">
<path fill="none" stroke="#63b8ff" d="M249.01,-186.87C239.33,-177.88 223.97,-163.61 212.14,-152.64"/>
<polygon fill="#63b8ff" stroke="#63b8ff" points="214.35,-149.91 204.64,-145.67 209.59,-155.04 214.35,-149.91"/>
</a>
</g>
</g>
<!-- Node18 -->
<g id="Node000018" class="node">
<title>Node18</title>
<g id="a_Node000018"><a xlink:title=" ">
<polygon fill="#e0e0e0" stroke="#999999" points="334.81,-145.5 279.81,-145.5 279.81,-126.5 334.81,-126.5 334.81,-145.5"/>
<text text-anchor="middle" x="307.31" y="-133.5" font-family="Helvetica,sans-Serif" font-size="10.00">fstream</text>
</a>
</g>
</g>
<!-- Node16&#45;&gt;Node18 -->
<g id="edge20_Node000016_Node000018" class="edge">
<title>Node16&#45;&gt;Node18</title>
<g id="a_edge20_Node000016_Node000018"><a xlink:title=" ">
<path fill="none" stroke="#63b8ff" d="M265.54,-186.87C272.85,-178.14 284.33,-164.43 293.41,-153.59"/>
<polygon fill="#63b8ff" stroke="#63b8ff" points="296.31,-155.58 300.05,-145.67 290.94,-151.09 296.31,-155.58"/>
</a>
</g>
</g>
<!-- Node16&#45;&gt;Node19 -->
<g id="edge21_Node000016_Node000019" class="edge">
<title>Node16&#45;&gt;Node19</title>
<g id="a_edge21_Node000016_Node000019"><a xlink:title=" ">
<path fill="none" stroke="#63b8ff" d="M220.19,-187.93C183.04,-180.15 125.17,-166.93 76.31,-151 74.64,-150.46 72.93,-149.87 71.22,-149.25"/>
<polygon fill="#63b8ff" stroke="#63b8ff" points="72.13,-145.85 61.54,-145.51 69.6,-152.38 72.13,-145.85"/>
</a>
</g>
</g>
<!-- Node20 -->
<g id="Node000020" class="node">
<title>Node20</title>
<g id="a_Node000020"><a xlink:title=" ">
<polygon fill="#e0e0e0" stroke="#999999" points="149.31,-145.5 85.31,-145.5 85.31,-126.5 149.31,-126.5 149.31,-145.5"/>
<text text-anchor="middle" x="117.31" y="-133.5" font-family="Helvetica,sans-Serif" font-size="10.00">algorithm</text>
</a>
</g>
</g>
<!-- Node16&#45;&gt;Node20 -->
<g id="edge22_Node000016_Node000020" class="edge">
<title>Node16&#45;&gt;Node20</title>
<g id="a_edge22_Node000016_Node000020"><a xlink:title=" ">
<path fill="none" stroke="#63b8ff" d="M237.8,-186.99C214,-177.12 174.51,-160.73 147.27,-149.43"/>
<polygon fill="#63b8ff" stroke="#63b8ff" points="148.41,-146.12 137.83,-145.52 145.73,-152.58 148.41,-146.12"/>
</a>
</g>
</g>
<!-- Node16&#45;&gt;Node21 -->
<g id="edge23_Node000016_Node000021" class="edge">
<title>Node16&#45;&gt;Node21</title>
<g id="a_edge23_Node000016_Node000021"><a xlink:title=" ">
<path fill="none" stroke="#63b8ff" d="M285.64,-186.99C313.29,-178.39 356.79,-164.86 391.55,-154.04"/>
<polygon fill="#63b8ff" stroke="#63b8ff" points="392.6,-157.38 401.11,-151.06 390.52,-150.69 392.6,-157.38"/>
</a>
</g>
</g>
<!-- Node21&#45;&gt;Node7 -->
<g id="edge25_Node000021_Node000007" class="edge">
<title>Node21&#45;&gt;Node7</title>
<g id="a_edge25_Node000021_Node000007"><a xlink:title=" ">
<path fill="none" stroke="#63b8ff" d="M462.73,-120.8C472.6,-112.26 485.33,-101.25 496.31,-91.75"/>
<polygon fill="#63b8ff" stroke="#63b8ff" points="498.66,-94.35 503.93,-85.16 494.08,-89.06 498.66,-94.35"/>
</a>
</g>
</g>
<!-- Node22 -->
<g id="Node000022" class="node">
<title>Node22</title>
<g id="a_Node000022"><a xlink:title=" ">
<polygon fill="#e0e0e0" stroke="#999999" points="450.81,-79.5 391.81,-79.5 391.81,-60.5 450.81,-60.5 450.81,-79.5"/>
<text text-anchor="middle" x="421.31" y="-67.5" font-family="Helvetica,sans-Serif" font-size="10.00">QWidget</text>
</a>
</g>
</g>
<!-- Node21&#45;&gt;Node22 -->
<g id="edge24_Node000021_Node000022" class="edge">
<title>Node21&#45;&gt;Node22</title>
<g id="a_edge24_Node000021_Node000022"><a xlink:title=" ">
<path fill="none" stroke="#63b8ff" d="M440.76,-120.8C437.13,-111.5 432.35,-99.27 428.44,-89.26"/>
<polygon fill="#63b8ff" stroke="#63b8ff" points="431.66,-87.89 424.76,-79.84 425.14,-90.43 431.66,-87.89"/>
</a>
</g>
</g>
<!-- Node23&#45;&gt;Node9 -->
<g id="edge27_Node000023_Node000009" class="edge">
<title>Node23&#45;&gt;Node9</title>
<g id="a_edge27_Node000023_Node000009"><a xlink:title=" ">
<path fill="none" stroke="#63b8ff" d="M356.55,-186.72C356.61,-172.24 355.22,-142.79 344.31,-121 323.76,-80 282.62,-44.27 257.77,-25.2"/>
<polygon fill="#63b8ff" stroke="#63b8ff" points="259.82,-22.37 249.72,-19.17 255.62,-27.97 259.82,-22.37"/>
</a>
</g>
</g>
<!-- Node23&#45;&gt;Node10 -->
<g id="edge29_Node000023_Node000010" class="edge">
<title>Node23&#45;&gt;Node10</title>
<g id="a_edge29_Node000023_Node000010"><a xlink:title=" ">
<path fill="none" stroke="#63b8ff" d="M383.93,-191.44C415.94,-185.87 469.51,-173.84 510.31,-151 570.12,-117.51 625.72,-56.67 650.61,-27.28"/>
<polygon fill="#63b8ff" stroke="#63b8ff" points="653.6,-29.15 657.31,-19.23 648.22,-24.67 653.6,-29.15"/>
</a>
</g>
</g>
<!-- Node23&#45;&gt;Node18 -->
<g id="edge28_Node000023_Node000018" class="edge">
<title>Node23&#45;&gt;Node18</title>
<g id="a_edge28_Node000023_Node000018"><a xlink:title=" ">
<path fill="none" stroke="#63b8ff" d="M349.08,-186.87C341.77,-178.14 330.28,-164.43 321.2,-153.59"/>
<polygon fill="#63b8ff" stroke="#63b8ff" points="323.67,-151.09 314.57,-145.67 318.3,-155.58 323.67,-151.09"/>
</a>
</g>
</g>
<!-- Node23&#45;&gt;Node21 -->
<g id="edge30_Node000023_Node000021" class="edge">
<title>Node23&#45;&gt;Node21</title>
<g id="a_edge30_Node000023_Node000021"><a xlink:title=" ">
<path fill="none" stroke="#63b8ff" d="M369.59,-186.87C381.8,-178.93 400.35,-166.87 416.15,-156.6"/>
<polygon fill="#63b8ff" stroke="#63b8ff" points="418.11,-159.5 424.59,-151.11 414.3,-153.63 418.11,-159.5"/>
</a>
</g>
</g>
</g>
</svg>
