<?xml version="1.0" encoding="UTF-8" standalone="no"?>
<!DOCTYPE svg PUBLIC "-//W3C//DTD SVG 1.1//EN"
 "http://www.w3.org/Graphics/SVG/1.1/DTD/svg11.dtd">
<!-- Generated by graphviz version 2.43.0 (0)
 -->
<!-- Title: features/communication/udp/UdpChannel.h Pages: 1 -->
<svg width="832pt" height="335pt"
 viewBox="0.00 0.00 832.32 335.00" xmlns="http://www.w3.org/2000/svg" xmlns:xlink="http://www.w3.org/1999/xlink">
<g id="graph0" class="graph" transform="scale(1 1) rotate(0) translate(4 331)">
<title>features/communication/udp/UdpChannel.h</title>
<!-- Node1 -->
<g id="Node000001" class="node">
<title>Node1</title>
<g id="a_Node000001"><a xlink:title="UDP communication channel between the microcontroller and the HMI.">
<polygon fill="#999999" stroke="#666666" points="210.2,-327 74.2,-327 74.2,-297 210.2,-297 210.2,-327"/>
<text text-anchor="start" x="82.2" y="-315" font-family="Helvetica,sans-Serif" font-size="10.00">features/communication</text>
<text text-anchor="middle" x="142.2" y="-304" font-family="Helvetica,sans-Serif" font-size="10.00">/udp/UdpChannel.h</text>
</a>
</g>
</g>
<!-- Node2 -->
<g id="Node000002" class="node">
<title>Node2</title>
<g id="a_Node000002"><a xlink:title=" ">
<polygon fill="#e0e0e0" stroke="#999999" points="65.2,-19 9.2,-19 9.2,0 65.2,0 65.2,-19"/>
<text text-anchor="middle" x="37.2" y="-7" font-family="Helvetica,sans-Serif" font-size="10.00">QObject</text>
</a>
</g>
</g>
<!-- Node1&#45;&gt;Node2 -->
<g id="edge1_Node000001_Node000002" class="edge">
<title>Node1&#45;&gt;Node2</title>
<g id="a_edge1_Node000001_Node000002"><a xlink:title=" ">
<path fill="none" stroke="#63b8ff" d="M78.12,-296.93C56.87,-289.42 34.71,-278.06 19.2,-261 -0.61,-239.2 0.2,-226.96 0.2,-197.5 0.2,-197.5 0.2,-197.5 0.2,-135 0.2,-95.72 17.34,-52.24 28.29,-28.47"/>
<polygon fill="#63b8ff" stroke="#63b8ff" points="31.52,-29.82 32.67,-19.29 25.2,-26.81 31.52,-29.82"/>
</a>
</g>
</g>
<!-- Node3 -->
<g id="Node000003" class="node">
<title>Node3</title>
<g id="a_Node000003"><a xlink:title=" ">
<polygon fill="#e0e0e0" stroke="#999999" points="86.2,-261 28.2,-261 28.2,-242 86.2,-242 86.2,-261"/>
<text text-anchor="middle" x="57.2" y="-249" font-family="Helvetica,sans-Serif" font-size="10.00">QThread</text>
</a>
</g>
</g>
<!-- Node1&#45;&gt;Node3 -->
<g id="edge2_Node000001_Node000003" class="edge">
<title>Node1&#45;&gt;Node3</title>
<g id="a_edge2_Node000001_Node000003"><a xlink:title=" ">
<path fill="none" stroke="#63b8ff" d="M121.63,-296.84C108.53,-287.83 91.62,-276.18 78.4,-267.09"/>
<polygon fill="#63b8ff" stroke="#63b8ff" points="80.16,-264.05 69.94,-261.27 76.19,-269.82 80.16,-264.05"/>
</a>
</g>
</g>
<!-- Node4 -->
<g id="Node000004" class="node">
<title>Node4</title>
<g id="a_Node000004"><a xlink:title=" ">
<polygon fill="#e0e0e0" stroke="#999999" points="180.2,-261 104.2,-261 104.2,-242 180.2,-242 180.2,-261"/>
<text text-anchor="middle" x="142.2" y="-249" font-family="Helvetica,sans-Serif" font-size="10.00">QUdpSocket</text>
</a>
</g>
</g>
<!-- Node1&#45;&gt;Node4 -->
<g id="edge3_Node000001_Node000004" class="edge">
<title>Node1&#45;&gt;Node4</title>
<g id="a_edge3_Node000001_Node000004"><a xlink:title=" ">
<path fill="none" stroke="#63b8ff" d="M142.2,-296.84C142.2,-289.21 142.2,-279.7 142.2,-271.45"/>
<polygon fill="#63b8ff" stroke="#63b8ff" points="145.7,-271.27 142.2,-261.27 138.7,-271.27 145.7,-271.27"/>
</a>
</g>
</g>
<!-- Node5 -->
<g id="Node000005" class="node">
<title>Node5</title>
<g id="a_Node000005"><a xlink:href="Messages_8h.html" target="_top" xlink:title=" ">
<polygon fill="white" stroke="#666666" points="328.7,-85 225.7,-85 225.7,-55 328.7,-55 328.7,-85"/>
<text text-anchor="start" x="233.7" y="-73" font-family="Helvetica,sans-Serif" font-size="10.00">src/core/Protocols</text>
<text text-anchor="middle" x="277.2" y="-62" font-family="Helvetica,sans-Serif" font-size="10.00">/Messages.h</text>
</a>
</g>
</g>
<!-- Node1&#45;&gt;Node5 -->
<g id="edge4_Node000001_Node000005" class="edge">
<title>Node1&#45;&gt;Node5</title>
<g id="a_edge4_Node000001_Node000005"><a xlink:title=" ">
<path fill="none" stroke="#63b8ff" d="M157.96,-296.77C167.81,-287.31 180.27,-274.23 189.2,-261 226.59,-205.66 255.64,-131.89 269.06,-94.65"/>
<polygon fill="#63b8ff" stroke="#63b8ff" points="272.38,-95.75 272.43,-85.16 265.79,-93.41 272.38,-95.75"/>
</a>
</g>
</g>
<!-- Node13 -->
<g id="Node000013" class="node">
<title>Node13</title>
<g id="a_Node000013"><a xlink:href="UdpLogger_8h.html" target="_top" xlink:title="High&#45;frequency binary logger for UDP telemetry frames.">
<polygon fill="white" stroke="#666666" points="636.7,-261 485.7,-261 485.7,-242 636.7,-242 636.7,-261"/>
<text text-anchor="middle" x="561.2" y="-249" font-family="Helvetica,sans-Serif" font-size="10.00">frames_logger/UdpLogger.h</text>
</a>
</g>
</g>
<!-- Node1&#45;&gt;Node13 -->
<g id="edge13_Node000001_Node000013" class="edge">
<title>Node1&#45;&gt;Node13</title>
<g id="a_edge13_Node000001_Node000013"><a xlink:title=" ">
<path fill="none" stroke="#63b8ff" d="M210.46,-301.47C287.35,-290.73 411.78,-273.36 489.9,-262.45"/>
<polygon fill="#63b8ff" stroke="#63b8ff" points="490.72,-265.88 500.14,-261.03 489.75,-258.94 490.72,-265.88"/>
</a>
</g>
</g>
<!-- Node5&#45;&gt;Node2 -->
<g id="edge11_Node000005_Node000002" class="edge">
<title>Node5&#45;&gt;Node2</title>
<g id="a_edge11_Node000005_Node000002"><a xlink:title=" ">
<path fill="none" stroke="#63b8ff" d="M225.42,-56.38C180.2,-45.36 115.62,-29.61 75.08,-19.73"/>
<polygon fill="#63b8ff" stroke="#63b8ff" points="75.86,-16.32 65.31,-17.35 74.2,-23.12 75.86,-16.32"/>
</a>
</g>
</g>
<!-- Node6 -->
<g id="Node000006" class="node">
<title>Node6</title>
<g id="a_Node000006"><a xlink:title=" ">
<polygon fill="#e0e0e0" stroke="#999999" points="435.7,-19 384.7,-19 384.7,0 435.7,0 435.7,-19"/>
<text text-anchor="middle" x="410.2" y="-7" font-family="Helvetica,sans-Serif" font-size="10.00">variant</text>
</a>
</g>
</g>
<!-- Node5&#45;&gt;Node6 -->
<g id="edge5_Node000005_Node000006" class="edge">
<title>Node5&#45;&gt;Node6</title>
<g id="a_edge5_Node000005_Node000006"><a xlink:title=" ">
<path fill="none" stroke="#63b8ff" d="M309.06,-54.99C331.05,-45.31 360.06,-32.56 381.37,-23.18"/>
<polygon fill="#63b8ff" stroke="#63b8ff" points="382.82,-26.37 390.56,-19.14 380,-19.96 382.82,-26.37"/>
</a>
</g>
</g>
<!-- Node7 -->
<g id="Node000007" class="node">
<title>Node7</title>
<g id="a_Node000007"><a xlink:title=" ">
<polygon fill="#e0e0e0" stroke="#999999" points="596.2,-19 546.2,-19 546.2,0 596.2,0 596.2,-19"/>
<text text-anchor="middle" x="571.2" y="-7" font-family="Helvetica,sans-Serif" font-size="10.00">cstdint</text>
</a>
</g>
</g>
<!-- Node5&#45;&gt;Node7 -->
<g id="edge6_Node000005_Node000007" class="edge">
<title>Node5&#45;&gt;Node7</title>
<g id="a_edge6_Node000005_Node000007"><a xlink:title=" ">
<path fill="none" stroke="#63b8ff" d="M329.06,-57.87C333.84,-56.89 338.61,-55.92 343.2,-55 428.78,-37.95 450.89,-37.3 536.2,-19 536.3,-18.98 536.4,-18.96 536.5,-18.94"/>
<polygon fill="#63b8ff" stroke="#63b8ff" points="537.02,-22.41 546.01,-16.79 535.48,-15.58 537.02,-22.41"/>
</a>
</g>
</g>
<!-- Node8 -->
<g id="Node000008" class="node">
<title>Node8</title>
<g id="a_Node000008"><a xlink:title=" ">
<polygon fill="#e0e0e0" stroke="#999999" points="165.2,-19 121.2,-19 121.2,0 165.2,0 165.2,-19"/>
<text text-anchor="middle" x="143.2" y="-7" font-family="Helvetica,sans-Serif" font-size="10.00">string</text>
</a>
</g>
</g>
<!-- Node5&#45;&gt;Node8 -->
<g id="edge7_Node000005_Node000008" class="edge">
<title>Node5&#45;&gt;Node8</title>
<g id="a_edge7_Node000005_Node000008"><a xlink:title=" ">
<path fill="none" stroke="#63b8ff" d="M245.11,-54.99C222.95,-45.31 193.73,-32.56 172.26,-23.18"/>
<polygon fill="#63b8ff" stroke="#63b8ff" points="173.56,-19.93 162.99,-19.14 170.76,-26.35 173.56,-19.93"/>
</a>
</g>
</g>
<!-- Node9 -->
<g id="Node000009" class="node">
<title>Node9</title>
<g id="a_Node000009"><a xlink:title=" ">
<polygon fill="#e0e0e0" stroke="#999999" points="526.7,-19 453.7,-19 453.7,0 526.7,0 526.7,-19"/>
<text text-anchor="middle" x="490.2" y="-7" font-family="Helvetica,sans-Serif" font-size="10.00">QByteArray</text>
</a>
</g>
</g>
<!-- Node5&#45;&gt;Node9 -->
<g id="edge8_Node000005_Node000009" class="edge">
<title>Node5&#45;&gt;Node9</title>
<g id="a_edge8_Node000005_Node000009"><a xlink:title=" ">
<path fill="none" stroke="#63b8ff" d="M328.22,-54.99C365.3,-44.8 414.83,-31.2 449.31,-21.73"/>
<polygon fill="#63b8ff" stroke="#63b8ff" points="450.34,-25.08 459.06,-19.05 448.49,-18.33 450.34,-25.08"/>
</a>
</g>
</g>
<!-- Node10 -->
<g id="Node000010" class="node">
<title>Node10</title>
<g id="a_Node000010"><a xlink:title=" ">
<polygon fill="#e0e0e0" stroke="#999999" points="232.7,-19 183.7,-19 183.7,0 232.7,0 232.7,-19"/>
<text text-anchor="middle" x="208.2" y="-7" font-family="Helvetica,sans-Serif" font-size="10.00">QHash</text>
</a>
</g>
</g>
<!-- Node5&#45;&gt;Node10 -->
<g id="edge9_Node000005_Node000010" class="edge">
<title>Node5&#45;&gt;Node10</title>
<g id="a_edge9_Node000005_Node000010"><a xlink:title=" ">
<path fill="none" stroke="#63b8ff" d="M260.5,-54.84C250.18,-46.09 236.93,-34.85 226.35,-25.88"/>
<polygon fill="#63b8ff" stroke="#63b8ff" points="228.43,-23.06 218.54,-19.27 223.91,-28.4 228.43,-23.06"/>
</a>
</g>
</g>
<!-- Node11 -->
<g id="Node000011" class="node">
<title>Node11</title>
<g id="a_Node000011"><a xlink:title=" ">
<polygon fill="#e0e0e0" stroke="#999999" points="303.7,-19 250.7,-19 250.7,0 303.7,0 303.7,-19"/>
<text text-anchor="middle" x="277.2" y="-7" font-family="Helvetica,sans-Serif" font-size="10.00">QString</text>
</a>
</g>
</g>
<!-- Node5&#45;&gt;Node11 -->
<g id="edge10_Node000005_Node000011" class="edge">
<title>Node5&#45;&gt;Node11</title>
<g id="a_edge10_Node000005_Node000011"><a xlink:title=" ">
<path fill="none" stroke="#63b8ff" d="M277.2,-54.84C277.2,-47.21 277.2,-37.7 277.2,-29.45"/>
<polygon fill="#63b8ff" stroke="#63b8ff" points="280.7,-29.27 277.2,-19.27 273.7,-29.27 280.7,-29.27"/>
</a>
</g>
</g>
<!-- Node12 -->
<g id="Node000012" class="node">
<title>Node12</title>
<g id="a_Node000012"><a xlink:title=" ">
<polygon fill="#e0e0e0" stroke="#999999" points="366.7,-19 321.7,-19 321.7,0 366.7,0 366.7,-19"/>
<text text-anchor="middle" x="344.2" y="-7" font-family="Helvetica,sans-Serif" font-size="10.00">QMap</text>
</a>
</g>
</g>
<!-- Node5&#45;&gt;Node12 -->
<g id="edge12_Node000005_Node000012" class="edge">
<title>Node5&#45;&gt;Node12</title>
<g id="a_edge12_Node000005_Node000012"><a xlink:title=" ">
<path fill="none" stroke="#63b8ff" d="M293.42,-54.84C303.45,-46.09 316.31,-34.85 326.58,-25.88"/>
<polygon fill="#63b8ff" stroke="#63b8ff" points="328.93,-28.48 334.16,-19.27 324.33,-23.21 328.93,-28.48"/>
</a>
</g>
</g>
<!-- Node13&#45;&gt;Node7 -->
<g id="edge15_Node000013_Node000007" class="edge">
<title>Node13&#45;&gt;Node7</title>
<g id="a_edge15_Node000013_Node000007"><a xlink:title=" ">
<path fill="none" stroke="#63b8ff" d="M636.92,-243.4C696.29,-233.37 775.17,-209.21 814.2,-151 869.01,-69.27 686.15,-29.06 606.47,-15.72"/>
<polygon fill="#63b8ff" stroke="#63b8ff" points="606.83,-12.23 596.4,-14.08 605.71,-19.14 606.83,-12.23"/>
</a>
</g>
</g>
<!-- Node14 -->
<g id="Node000014" class="node">
<title>Node14</title>
<g id="a_Node000014"><a xlink:title=" ">
<polygon fill="#e0e0e0" stroke="#999999" points="805.2,-145.5 755.2,-145.5 755.2,-126.5 805.2,-126.5 805.2,-145.5"/>
<text text-anchor="middle" x="780.2" y="-133.5" font-family="Helvetica,sans-Serif" font-size="10.00">atomic</text>
</a>
</g>
</g>
<!-- Node13&#45;&gt;Node14 -->
<g id="edge14_Node000013_Node000014" class="edge">
<title>Node13&#45;&gt;Node14</title>
<g id="a_edge14_Node000013_Node000014"><a xlink:title=" ">
<path fill="none" stroke="#63b8ff" d="M578.23,-241.85C595.79,-232.91 623.94,-218.55 648.2,-206 685.44,-186.75 728.44,-164.21 754.98,-150.27"/>
<polygon fill="#63b8ff" stroke="#63b8ff" points="756.75,-153.29 763.97,-145.54 753.49,-147.1 756.75,-153.29"/>
</a>
</g>
</g>
<!-- Node15 -->
<g id="Node000015" class="node">
<title>Node15</title>
<g id="a_Node000015"><a xlink:title=" ">
<polygon fill="#e0e0e0" stroke="#999999" points="545.2,-206 497.2,-206 497.2,-187 545.2,-187 545.2,-206"/>
<text text-anchor="middle" x="521.2" y="-194" font-family="Helvetica,sans-Serif" font-size="10.00">thread</text>
</a>
</g>
</g>
<!-- Node13&#45;&gt;Node15 -->
<g id="edge16_Node000013_Node000015" class="edge">
<title>Node13&#45;&gt;Node15</title>
<g id="a_edge16_Node000013_Node000015"><a xlink:title=" ">
<path fill="none" stroke="#63b8ff" d="M554.6,-241.75C548.95,-234.26 540.66,-223.28 533.75,-214.13"/>
<polygon fill="#63b8ff" stroke="#63b8ff" points="536.5,-211.96 527.69,-206.09 530.92,-216.18 536.5,-211.96"/>
</a>
</g>
</g>
<!-- Node16 -->
<g id="Node000016" class="node">
<title>Node16</title>
<g id="a_Node000016"><a xlink:href="RingBuffer_8h.html" target="_top" xlink:title=" ">
<polygon fill="white" stroke="#666666" points="639.2,-206 563.2,-206 563.2,-187 639.2,-187 639.2,-206"/>
<text text-anchor="middle" x="601.2" y="-194" font-family="Helvetica,sans-Serif" font-size="10.00">RingBuffer.h</text>
</a>
</g>
</g>
<!-- Node13&#45;&gt;Node16 -->
<g id="edge17_Node000013_Node000016" class="edge">
<title>Node13&#45;&gt;Node16</title>
<g id="a_edge17_Node000013_Node000016"><a xlink:title=" ">
<path fill="none" stroke="#63b8ff" d="M567.81,-241.75C573.46,-234.26 581.75,-223.28 588.65,-214.13"/>
<polygon fill="#63b8ff" stroke="#63b8ff" points="591.49,-216.18 594.72,-206.09 585.9,-211.96 591.49,-216.18"/>
</a>
</g>
</g>
<!-- Node22 -->
<g id="Node000022" class="node">
<title>Node22</title>
<g id="a_Node000022"><a xlink:href="Writer_8h.html" target="_top" xlink:title=" ">
<polygon fill="white" stroke="#666666" points="441.7,-206 386.7,-206 386.7,-187 441.7,-187 441.7,-206"/>
<text text-anchor="middle" x="414.2" y="-194" font-family="Helvetica,sans-Serif" font-size="10.00">Writer.h</text>
</a>
</g>
</g>
<!-- Node13&#45;&gt;Node22 -->
<g id="edge26_Node000013_Node000022" class="edge">
<title>Node13&#45;&gt;Node22</title>
<g id="a_edge26_Node000013_Node000022"><a xlink:title=" ">
<path fill="none" stroke="#63b8ff" d="M537.59,-241.98C513.3,-233.23 475.25,-219.51 447.83,-209.62"/>
<polygon fill="#63b8ff" stroke="#63b8ff" points="448.85,-206.27 438.25,-206.17 446.47,-212.85 448.85,-206.27"/>
</a>
</g>
</g>
<!-- Node16&#45;&gt;Node7 -->
<g id="edge19_Node000016_Node000007" class="edge">
<title>Node16&#45;&gt;Node7</title>
<g id="a_edge19_Node000016_Node000007"><a xlink:title=" ">
<path fill="none" stroke="#63b8ff" d="M598.73,-186.7C596.29,-177.76 592.59,-163.51 590.2,-151 581.94,-107.63 575.93,-56.06 573.07,-29.07"/>
<polygon fill="#63b8ff" stroke="#63b8ff" points="576.55,-28.69 572.04,-19.11 569.59,-29.41 576.55,-28.69"/>
</a>
</g>
</g>
<!-- Node16&#45;&gt;Node14 -->
<g id="edge21_Node000016_Node000014" class="edge">
<title>Node16&#45;&gt;Node14</title>
<g id="a_edge21_Node000016_Node000014"><a xlink:title=" ">
<path fill="none" stroke="#63b8ff" d="M632.03,-186.94C661.57,-178.53 707.29,-164.95 746.2,-151 747.63,-150.49 749.09,-149.95 750.55,-149.4"/>
<polygon fill="#63b8ff" stroke="#63b8ff" points="752.17,-152.52 760.19,-145.6 749.6,-146.01 752.17,-152.52"/>
</a>
</g>
</g>
<!-- Node17 -->
<g id="Node000017" class="node">
<title>Node17</title>
<g id="a_Node000017"><a xlink:title=" ">
<polygon fill="#e0e0e0" stroke="#999999" points="737.2,-145.5 681.2,-145.5 681.2,-126.5 737.2,-126.5 737.2,-145.5"/>
<text text-anchor="middle" x="709.2" y="-133.5" font-family="Helvetica,sans-Serif" font-size="10.00">QDebug</text>
</a>
</g>
</g>
<!-- Node16&#45;&gt;Node17 -->
<g id="edge18_Node000016_Node000017" class="edge">
<title>Node16&#45;&gt;Node17</title>
<g id="a_edge18_Node000016_Node000017"><a xlink:title=" ">
<path fill="none" stroke="#63b8ff" d="M617.14,-186.87C634.85,-177.28 663.66,-161.67 684.34,-150.47"/>
<polygon fill="#63b8ff" stroke="#63b8ff" points="686.08,-153.51 693.2,-145.67 682.74,-147.35 686.08,-153.51"/>
</a>
</g>
</g>
<!-- Node18 -->
<g id="Node000018" class="node">
<title>Node18</title>
<g id="a_Node000018"><a xlink:title=" ">
<polygon fill="#e0e0e0" stroke="#999999" points="542.7,-145.5 487.7,-145.5 487.7,-126.5 542.7,-126.5 542.7,-145.5"/>
<text text-anchor="middle" x="515.2" y="-133.5" font-family="Helvetica,sans-Serif" font-size="10.00">fstream</text>
</a>
</g>
</g>
<!-- Node16&#45;&gt;Node18 -->
<g id="edge20_Node000016_Node000018" class="edge">
<title>Node16&#45;&gt;Node18</title>
<g id="a_edge20_Node000016_Node000018"><a xlink:title=" ">
<path fill="none" stroke="#63b8ff" d="M588.51,-186.87C574.79,-177.54 552.7,-162.51 536.35,-151.38"/>
<polygon fill="#63b8ff" stroke="#63b8ff" points="538.18,-148.4 527.95,-145.67 534.24,-154.19 538.18,-148.4"/>
</a>
</g>
</g>
<!-- Node19 -->
<g id="Node000019" class="node">
<title>Node19</title>
<g id="a_Node000019"><a xlink:title=" ">
<polygon fill="#e0e0e0" stroke="#999999" points="663.2,-145.5 599.2,-145.5 599.2,-126.5 663.2,-126.5 663.2,-145.5"/>
<text text-anchor="middle" x="631.2" y="-133.5" font-family="Helvetica,sans-Serif" font-size="10.00">algorithm</text>
</a>
</g>
</g>
<!-- Node16&#45;&gt;Node19 -->
<g id="edge22_Node000016_Node000019" class="edge">
<title>Node16&#45;&gt;Node19</title>
<g id="a_edge22_Node000016_Node000019"><a xlink:title=" ">
<path fill="none" stroke="#63b8ff" d="M605.63,-186.87C609.97,-178.4 616.72,-165.24 622.2,-154.57"/>
<polygon fill="#63b8ff" stroke="#63b8ff" points="625.31,-156.16 626.76,-145.67 619.08,-152.97 625.31,-156.16"/>
</a>
</g>
</g>
<!-- Node20 -->
<g id="Node000020" class="node">
<title>Node20</title>
<g id="a_Node000020"><a xlink:href="Logger_8h.html" target="_top" xlink:title="Tool that provide the ability to display and log errors and debug messages.">
<polygon fill="white" stroke="#666666" points="469.2,-151 359.2,-151 359.2,-121 469.2,-121 469.2,-151"/>
<text text-anchor="start" x="367.2" y="-139" font-family="Helvetica,sans-Serif" font-size="10.00">src/services/Logger</text>
<text text-anchor="middle" x="414.2" y="-128" font-family="Helvetica,sans-Serif" font-size="10.00">/Logger.h</text>
</a>
</g>
</g>
<!-- Node16&#45;&gt;Node20 -->
<g id="edge23_Node000016_Node000020" class="edge">
<title>Node16&#45;&gt;Node20</title>
<g id="a_edge23_Node000016_Node000020"><a xlink:title=" ">
<path fill="none" stroke="#63b8ff" d="M574.01,-186.99C546.63,-178.43 503.62,-164.97 469.11,-154.18"/>
<polygon fill="#63b8ff" stroke="#63b8ff" points="469.75,-150.71 459.16,-151.06 467.66,-157.39 469.75,-150.71"/>
</a>
</g>
</g>
<!-- Node20&#45;&gt;Node5 -->
<g id="edge25_Node000020_Node000005" class="edge">
<title>Node20&#45;&gt;Node5</title>
<g id="a_edge25_Node000020_Node000005"><a xlink:title=" ">
<path fill="none" stroke="#63b8ff" d="M384.14,-120.95C364.24,-111.66 337.95,-99.38 316.41,-89.32"/>
<polygon fill="#63b8ff" stroke="#63b8ff" points="317.74,-86.07 307.2,-85.01 314.78,-92.42 317.74,-86.07"/>
</a>
</g>
</g>
<!-- Node21 -->
<g id="Node000021" class="node">
<title>Node21</title>
<g id="a_Node000021"><a xlink:title=" ">
<polygon fill="#e0e0e0" stroke="#999999" points="444.7,-79.5 385.7,-79.5 385.7,-60.5 444.7,-60.5 444.7,-79.5"/>
<text text-anchor="middle" x="415.2" y="-67.5" font-family="Helvetica,sans-Serif" font-size="10.00">QWidget</text>
</a>
</g>
</g>
<!-- Node20&#45;&gt;Node21 -->
<g id="edge24_Node000020_Node000021" class="edge">
<title>Node20&#45;&gt;Node21</title>
<g id="a_edge24_Node000020_Node000021"><a xlink:title=" ">
<path fill="none" stroke="#63b8ff" d="M414.43,-120.8C414.57,-111.7 414.75,-99.79 414.91,-89.9"/>
<polygon fill="#63b8ff" stroke="#63b8ff" points="418.41,-89.9 415.07,-79.84 411.41,-89.79 418.41,-89.9"/>
</a>
</g>
</g>
<!-- Node22&#45;&gt;Node7 -->
<g id="edge27_Node000022_Node000007" class="edge">
<title>Node22&#45;&gt;Node7</title>
<g id="a_edge27_Node000022_Node000007"><a xlink:title=" ">
<path fill="none" stroke="#63b8ff" d="M392.41,-186.87C377.56,-179.69 359.04,-167.91 350.2,-151 329.67,-111.72 343.38,-83.64 377.2,-55 432.5,-8.18 465.66,-35.55 536.2,-19 536.3,-18.98 536.4,-18.95 536.5,-18.93"/>
<polygon fill="#63b8ff" stroke="#63b8ff" points="537.06,-22.39 545.98,-16.68 535.44,-15.58 537.06,-22.39"/>
</a>
</g>
</g>
<!-- Node22&#45;&gt;Node8 -->
<g id="edge29_Node000022_Node000008" class="edge">
<title>Node22&#45;&gt;Node8</title>
<g id="a_edge29_Node000022_Node000008"><a xlink:title=" ">
<path fill="none" stroke="#63b8ff" d="M394.95,-186.91C358.41,-170.14 277.3,-130.68 217.2,-85 194.18,-67.5 171.28,-43.08 157.19,-27.04"/>
<polygon fill="#63b8ff" stroke="#63b8ff" points="159.5,-24.37 150.32,-19.09 154.2,-28.94 159.5,-24.37"/>
</a>
</g>
</g>
<!-- Node22&#45;&gt;Node18 -->
<g id="edge28_Node000022_Node000018" class="edge">
<title>Node22&#45;&gt;Node18</title>
<g id="a_edge28_Node000022_Node000018"><a xlink:title=" ">
<path fill="none" stroke="#63b8ff" d="M429.11,-186.87C445.52,-177.36 472.13,-161.95 491.43,-150.77"/>
<polygon fill="#63b8ff" stroke="#63b8ff" points="493.34,-153.71 500.24,-145.67 489.83,-147.65 493.34,-153.71"/>
</a>
</g>
</g>
<!-- Node22&#45;&gt;Node20 -->
<g id="edge30_Node000022_Node000020" class="edge">
<title>Node22&#45;&gt;Node20</title>
<g id="a_edge30_Node000022_Node000020"><a xlink:title=" ">
<path fill="none" stroke="#63b8ff" d="M414.2,-186.87C414.2,-180.11 414.2,-170.35 414.2,-161.26"/>
<polygon fill="#63b8ff" stroke="#63b8ff" points="417.7,-161.11 414.2,-151.11 410.7,-161.11 417.7,-161.11"/>
</a>
</g>
</g>
</g>
</svg>
