<?xml version="1.0" encoding="UTF-8" standalone="no"?>
<!DOCTYPE svg PUBLIC "-//W3C//DTD SVG 1.1//EN"
 "http://www.w3.org/Graphics/SVG/1.1/DTD/svg11.dtd">
<!-- Generated by graphviz version 2.43.0 (0)
 -->
<!-- Title: features/communication/udp/UdpChannel.cpp Pages: 1 -->
<!--zoomable 390 -->

<svg id="main" version="1.1" xmlns="http://www.w3.org/2000/svg" xmlns:xlink="http://www.w3.org/1999/xlink" xml:space="preserve" onload="init(evt)">
<style type="text/css"><![CDATA[
.node, .edge {opacity: 0.7;}
.node.selected, .edge.selected {opacity: 1;}
.edge:hover path { stroke: red; }
.edge:hover polygon { stroke: red; fill: red; }
]]></style>

<defs>
  <circle id="rim" cx="0" cy="0" r="7"/>
  <circle id="rim2" cx="0" cy="0" r="3.5"/>
  <g id="zoomPlus">
    <use xlink:href="#rim" fill="#404040"><set attributeName="fill" to="#808080" begin="zoomplus.mouseover" end="zoomplus.mouseout"/></use>
    <path d="M-4,0h8M0,-4v8" fill="none" stroke="white" stroke-width="1.5" pointer-events="none"/>
  </g>
  <g id="zoomMin">
    <use xlink:href="#rim" fill="#404040"><set attributeName="fill" to="#808080" begin="zoomminus.mouseover" end="zoomminus.mouseout"/></use>
    <path d="M-4,0h8" fill="none" stroke="white" stroke-width="1.5" pointer-events="none"/>
  </g>
  <g id="arrowUp" transform="translate(30 24)">
    <use xlink:href="#rim"/>
    <path pointer-events="none" fill="none" stroke="white" stroke-width="1.5" d="M0,-3.0v7 M-2.5,-0.5L0,-3.0L2.5,-0.5"/>
  </g>
  <g id="arrowRight" transform="rotate(90) translate(36 -43)">
    <use xlink:href="#rim"/>
    <path pointer-events="none" fill="none" stroke="white" stroke-width="1.5" d="M0,-3.0v7 M-2.5,-0.5L0,-3.0L2.5,-0.5"/>
  </g>
  <g id="arrowDown" transform="rotate(180) translate(-30 -48)">
    <use xlink:href="#rim"/>
    <path pointer-events="none" fill="none" stroke="white" stroke-width="1.5" d="M0,-3.0v7 M-2.5,-0.5L0,-3.0L2.5,-0.5"/>
  </g>
  <g id="arrowLeft" transform="rotate(270) translate(-36 17)">
    <use xlink:href="#rim"/>
    <path pointer-events="none" fill="none" stroke="white" stroke-width="1.5" d="M0,-3.0v7 M-2.5,-0.5L0,-3.0L2.5,-0.5"/>
  </g>
  <g id="resetDef">
    <use xlink:href="#rim2" fill="#404040"><set attributeName="fill" to="#808080" begin="reset.mouseover" end="reset.mouseout"/></use>
  </g>
</defs>
<script type="application/ecmascript">
var viewWidth = 1064;
var viewHeight = 390;
var sectionId = 'dynsection-0';
</script>
<script type="application/ecmascript" xlink:href="svg.min.js"/>
<svg id="graph" class="graph">
<g id="viewport">
<title>features/communication/udp/UdpChannel.cpp</title>
<!-- Node1 -->
<g id="Node000001" class="node">
<title>Node1</title>
<g id="a_Node000001"><a xlink:title=" ">
<polygon fill="#999999" stroke="#666666" points="590.5,-382 454.5,-382 454.5,-352 590.5,-352 590.5,-382"/>
<text text-anchor="start" x="462.5" y="-370" font-family="Helvetica,sans-Serif" font-size="10.00">features/communication</text>
<text text-anchor="middle" x="522.5" y="-359" font-family="Helvetica,sans-Serif" font-size="10.00">/udp/UdpChannel.cpp</text>
</a>
</g>
</g>
<!-- Node2 -->
<g id="Node000002" class="node">
<title>Node2</title>
<g id="a_Node000002"><a xlink:href="UdpChannel_8h.html" target="_top" xlink:title="UDP communication channel between the microcontroller and the HMI.">
<polygon fill="white" stroke="#666666" points="449,-316 364,-316 364,-297 449,-297 449,-316"/>
<text text-anchor="middle" x="406.5" y="-304" font-family="Helvetica,sans-Serif" font-size="10.00">UdpChannel.h</text>
</a>
</g>
</g>
<!-- Node1&#45;&gt;Node2 -->
<g id="edge1_Node000001_Node000002" class="edge">
<title>Node1&#45;&gt;Node2</title>
<g id="a_edge1_Node000001_Node000002"><a xlink:title=" ">
<path fill="none" stroke="#63b8ff" d="M494.72,-351.99C475.88,-342.49 451.15,-330.02 432.66,-320.69"/>
<polygon fill="#63b8ff" stroke="#63b8ff" points="434.14,-317.52 423.63,-316.14 430.98,-323.77 434.14,-317.52"/>
</a>
</g>
</g>
<!-- Node18 -->
<g id="Node000018" class="node">
<title>Node18</title>
<g id="a_Node000018"><a xlink:title=" ">
<polygon fill="#e0e0e0" stroke="#999999" points="953.5,-145.5 897.5,-145.5 897.5,-126.5 953.5,-126.5 953.5,-145.5"/>
<text text-anchor="middle" x="925.5" y="-133.5" font-family="Helvetica,sans-Serif" font-size="10.00">QDebug</text>
</a>
</g>
</g>
<!-- Node1&#45;&gt;Node18 -->
<g id="edge42_Node000001_Node000018" class="edge">
<title>Node1&#45;&gt;Node18</title>
<g id="a_edge42_Node000001_Node000018"><a xlink:title=" ">
<path fill="none" stroke="#63b8ff" d="M559.8,-351.84C606.62,-333.46 688.74,-299.19 754.5,-261 813.38,-226.8 876.8,-176.98 907.2,-152.19"/>
<polygon fill="#63b8ff" stroke="#63b8ff" points="909.7,-154.67 915.21,-145.62 905.26,-149.26 909.7,-154.67"/>
</a>
</g>
</g>
<!-- Node24 -->
<g id="Node000024" class="node">
<title>Node24</title>
<g id="a_Node000024"><a xlink:href="UdpWorker_8h.html" target="_top" xlink:title="UDP socket worker running on a dedicated thread.">
<polygon fill="white" stroke="#666666" points="561.5,-316 483.5,-316 483.5,-297 561.5,-297 561.5,-316"/>
<text text-anchor="middle" x="522.5" y="-304" font-family="Helvetica,sans-Serif" font-size="10.00">UdpWorker.h</text>
</a>
</g>
</g>
<!-- Node1&#45;&gt;Node24 -->
<g id="edge32_Node000001_Node000024" class="edge">
<title>Node1&#45;&gt;Node24</title>
<g id="a_edge32_Node000001_Node000024"><a xlink:title=" ">
<path fill="none" stroke="#63b8ff" d="M522.5,-351.84C522.5,-344.21 522.5,-334.7 522.5,-326.45"/>
<polygon fill="#63b8ff" stroke="#63b8ff" points="526,-326.27 522.5,-316.27 519,-326.27 526,-326.27"/>
</a>
</g>
</g>
<!-- Node26 -->
<g id="Node000026" class="node">
<title>Node26</title>
<g id="a_Node000026"><a xlink:href="UdpCodec_8h.html" target="_top" xlink:title=" ">
<polygon fill="white" stroke="#666666" points="337.5,-145.5 225.5,-145.5 225.5,-126.5 337.5,-126.5 337.5,-145.5"/>
<text text-anchor="middle" x="281.5" y="-133.5" font-family="Helvetica,sans-Serif" font-size="10.00">codecs/UdpCodec.h</text>
</a>
</g>
</g>
<!-- Node1&#45;&gt;Node26 -->
<g id="edge37_Node000001_Node000026" class="edge">
<title>Node1&#45;&gt;Node26</title>
<g id="a_edge37_Node000001_Node000026"><a xlink:title=" ">
<path fill="none" stroke="#63b8ff" d="M454.25,-360.32C392.51,-350.97 306,-326.26 270.5,-261 252.15,-227.28 264.56,-180.66 273.88,-155.27"/>
<polygon fill="#63b8ff" stroke="#63b8ff" points="277.2,-156.38 277.58,-145.79 270.68,-153.83 277.2,-156.38"/>
</a>
</g>
</g>
<!-- Node27 -->
<g id="Node000027" class="node">
<title>Node27</title>
<g id="a_Node000027"><a xlink:href="FileSystem_8h.html" target="_top" xlink:title=" ">
<polygon fill="white" stroke="#666666" points="131,-85 0,-85 0,-55 131,-55 131,-85"/>
<text text-anchor="start" x="8" y="-73" font-family="Helvetica,sans-Serif" font-size="10.00">src/services/FileSystem</text>
<text text-anchor="middle" x="65.5" y="-62" font-family="Helvetica,sans-Serif" font-size="10.00">/FileSystem.h</text>
</a>
</g>
</g>
<!-- Node1&#45;&gt;Node27 -->
<g id="edge40_Node000001_Node000027" class="edge">
<title>Node1&#45;&gt;Node27</title>
<g id="a_edge40_Node000001_Node000027"><a xlink:title=" ">
<path fill="none" stroke="#63b8ff" d="M454.05,-362.03C332.93,-353.11 93.5,-326.17 93.5,-252.5 93.5,-252.5 93.5,-252.5 93.5,-195.5 93.5,-159.83 82.43,-119.78 74.21,-94.97"/>
<polygon fill="#63b8ff" stroke="#63b8ff" points="77.45,-93.65 70.9,-85.33 70.83,-95.93 77.45,-93.65"/>
</a>
</g>
</g>
<!-- Node28 -->
<g id="Node000028" class="node">
<title>Node28</title>
<g id="a_Node000028"><a xlink:title=" ">
<polygon fill="#e0e0e0" stroke="#999999" points="989,-316 936,-316 936,-297 989,-297 989,-316"/>
<text text-anchor="middle" x="962.5" y="-304" font-family="Helvetica,sans-Serif" font-size="10.00">QTimer</text>
</a>
</g>
</g>
<!-- Node1&#45;&gt;Node28 -->
<g id="edge43_Node000001_Node000028" class="edge">
<title>Node1&#45;&gt;Node28</title>
<g id="a_edge43_Node000001_Node000028"><a xlink:title=" ">
<path fill="none" stroke="#63b8ff" d="M590.51,-359.15C670.12,-350.74 805.8,-335.21 921.5,-316 922.79,-315.79 924.1,-315.56 925.43,-315.32"/>
<polygon fill="#63b8ff" stroke="#63b8ff" points="926.48,-318.69 935.65,-313.39 925.17,-311.81 926.48,-318.69"/>
</a>
</g>
</g>
<!-- Node29 -->
<g id="Node000029" class="node">
<title>Node29</title>
<g id="a_Node000029"><a xlink:title=" ">
<polygon fill="#e0e0e0" stroke="#999999" points="1056,-316 1007,-316 1007,-297 1056,-297 1056,-316"/>
<text text-anchor="middle" x="1031.5" y="-304" font-family="Helvetica,sans-Serif" font-size="10.00">QTime</text>
</a>
</g>
</g>
<!-- Node1&#45;&gt;Node29 -->
<g id="edge44_Node000001_Node000029" class="edge">
<title>Node1&#45;&gt;Node29</title>
<g id="a_edge44_Node000001_Node000029"><a xlink:title=" ">
<path fill="none" stroke="#63b8ff" d="M590.74,-362.01C681.48,-355.99 846.93,-342.57 996.44,-316.14"/>
<polygon fill="#63b8ff" stroke="#63b8ff" points="997.49,-319.51 1006.72,-314.3 996.26,-312.62 997.49,-319.51"/>
</a>
</g>
</g>
<!-- Node3 -->
<g id="Node000003" class="node">
<title>Node3</title>
<g id="a_Node000003"><a xlink:title=" ">
<polygon fill="#e0e0e0" stroke="#999999" points="171.5,-19 115.5,-19 115.5,0 171.5,0 171.5,-19"/>
<text text-anchor="middle" x="143.5" y="-7" font-family="Helvetica,sans-Serif" font-size="10.00">QObject</text>
</a>
</g>
</g>
<!-- Node2&#45;&gt;Node3 -->
<g id="edge2_Node000002_Node000003" class="edge">
<title>Node2&#45;&gt;Node3</title>
<g id="a_edge2_Node000002_Node000003"><a xlink:title=" ">
<path fill="none" stroke="#63b8ff" d="M363.61,-299.77C311.36,-290.29 224.94,-266 183.5,-206 145.3,-150.7 142.03,-66.94 142.68,-29.61"/>
<polygon fill="#63b8ff" stroke="#63b8ff" points="146.19,-29.32 142.99,-19.22 139.19,-29.11 146.19,-29.32"/>
</a>
</g>
</g>
<!-- Node4 -->
<g id="Node000004" class="node">
<title>Node4</title>
<g id="a_Node000004"><a xlink:title=" ">
<polygon fill="#e0e0e0" stroke="#999999" points="337.5,-261 279.5,-261 279.5,-242 337.5,-242 337.5,-261"/>
<text text-anchor="middle" x="308.5" y="-249" font-family="Helvetica,sans-Serif" font-size="10.00">QThread</text>
</a>
</g>
</g>
<!-- Node2&#45;&gt;Node4 -->
<g id="edge3_Node000002_Node000004" class="edge">
<title>Node2&#45;&gt;Node4</title>
<g id="a_edge3_Node000002_Node000004"><a xlink:title=" ">
<path fill="none" stroke="#63b8ff" d="M390.75,-296.98C375.27,-288.61 351.41,-275.7 333.36,-265.95"/>
<polygon fill="#63b8ff" stroke="#63b8ff" points="334.99,-262.85 324.53,-261.17 331.66,-269.01 334.99,-262.85"/>
</a>
</g>
</g>
<!-- Node5 -->
<g id="Node000005" class="node">
<title>Node5</title>
<g id="a_Node000005"><a xlink:title=" ">
<polygon fill="#e0e0e0" stroke="#999999" points="469.5,-261 393.5,-261 393.5,-242 469.5,-242 469.5,-261"/>
<text text-anchor="middle" x="431.5" y="-249" font-family="Helvetica,sans-Serif" font-size="10.00">QUdpSocket</text>
</a>
</g>
</g>
<!-- Node2&#45;&gt;Node5 -->
<g id="edge4_Node000002_Node000005" class="edge">
<title>Node2&#45;&gt;Node5</title>
<g id="a_edge4_Node000002_Node000005"><a xlink:title=" ">
<path fill="none" stroke="#63b8ff" d="M410.63,-296.75C414.01,-289.57 418.92,-279.18 423.12,-270.27"/>
<polygon fill="#63b8ff" stroke="#63b8ff" points="426.35,-271.63 427.45,-261.09 420.02,-268.64 426.35,-271.63"/>
</a>
</g>
</g>
<!-- Node6 -->
<g id="Node000006" class="node">
<title>Node6</title>
<g id="a_Node000006"><a xlink:href="Messages_8h.html" target="_top" xlink:title=" ">
<polygon fill="white" stroke="#666666" points="387,-85 284,-85 284,-55 387,-55 387,-85"/>
<text text-anchor="start" x="292" y="-73" font-family="Helvetica,sans-Serif" font-size="10.00">src/core/Protocols</text>
<text text-anchor="middle" x="335.5" y="-62" font-family="Helvetica,sans-Serif" font-size="10.00">/Messages.h</text>
</a>
</g>
</g>
<!-- Node2&#45;&gt;Node6 -->
<g id="edge5_Node000002_Node000006" class="edge">
<title>Node2&#45;&gt;Node6</title>
<g id="a_edge5_Node000002_Node000006"><a xlink:title=" ">
<path fill="none" stroke="#63b8ff" d="M401.57,-296.87C396.7,-288.08 389.3,-273.93 384.5,-261 373.1,-230.32 351.21,-138.65 341,-94.83"/>
<polygon fill="#63b8ff" stroke="#63b8ff" points="344.39,-93.98 338.72,-85.03 337.57,-95.56 344.39,-93.98"/>
</a>
</g>
</g>
<!-- Node14 -->
<g id="Node000014" class="node">
<title>Node14</title>
<g id="a_Node000014"><a xlink:href="UdpLogger_8h.html" target="_top" xlink:title="High&#45;frequency binary logger for UDP telemetry frames.">
<polygon fill="white" stroke="#666666" points="677,-261 526,-261 526,-242 677,-242 677,-261"/>
<text text-anchor="middle" x="601.5" y="-249" font-family="Helvetica,sans-Serif" font-size="10.00">frames_logger/UdpLogger.h</text>
</a>
</g>
</g>
<!-- Node2&#45;&gt;Node14 -->
<g id="edge14_Node000002_Node000014" class="edge">
<title>Node2&#45;&gt;Node14</title>
<g id="a_edge14_Node000002_Node000014"><a xlink:title=" ">
<path fill="none" stroke="#63b8ff" d="M437.83,-296.98C470.99,-287.97 523.5,-273.7 560.06,-263.76"/>
<polygon fill="#63b8ff" stroke="#63b8ff" points="561.19,-267.08 569.92,-261.08 559.36,-260.33 561.19,-267.08"/>
</a>
</g>
</g>
<!-- Node6&#45;&gt;Node3 -->
<g id="edge12_Node000006_Node000003" class="edge">
<title>Node6&#45;&gt;Node3</title>
<g id="a_edge12_Node000006_Node000003"><a xlink:title=" ">
<path fill="none" stroke="#63b8ff" d="M289.51,-54.99C256.38,-44.89 212.21,-31.44 181.16,-21.98"/>
<polygon fill="#63b8ff" stroke="#63b8ff" points="182.16,-18.62 171.57,-19.05 180.12,-25.32 182.16,-18.62"/>
</a>
</g>
</g>
<!-- Node7 -->
<g id="Node000007" class="node">
<title>Node7</title>
<g id="a_Node000007"><a xlink:title=" ">
<polygon fill="#e0e0e0" stroke="#999999" points="442,-19 391,-19 391,0 442,0 442,-19"/>
<text text-anchor="middle" x="416.5" y="-7" font-family="Helvetica,sans-Serif" font-size="10.00">variant</text>
</a>
</g>
</g>
<!-- Node6&#45;&gt;Node7 -->
<g id="edge6_Node000006_Node000007" class="edge">
<title>Node6&#45;&gt;Node7</title>
<g id="a_edge6_Node000006_Node000007"><a xlink:title=" ">
<path fill="none" stroke="#63b8ff" d="M355.11,-54.84C367.47,-45.91 383.4,-34.41 395.93,-25.35"/>
<polygon fill="#63b8ff" stroke="#63b8ff" points="398.3,-27.96 404.36,-19.27 394.21,-22.28 398.3,-27.96"/>
</a>
</g>
</g>
<!-- Node8 -->
<g id="Node000008" class="node">
<title>Node8</title>
<g id="a_Node000008"><a xlink:title=" ">
<polygon fill="#e0e0e0" stroke="#999999" points="726.5,-19 676.5,-19 676.5,0 726.5,0 726.5,-19"/>
<text text-anchor="middle" x="701.5" y="-7" font-family="Helvetica,sans-Serif" font-size="10.00">cstdint</text>
</a>
</g>
</g>
<!-- Node6&#45;&gt;Node8 -->
<g id="edge7_Node000006_Node000008" class="edge">
<title>Node6&#45;&gt;Node8</title>
<g id="a_edge7_Node000006_Node000008"><a xlink:title=" ">
<path fill="none" stroke="#63b8ff" d="M387.16,-60.74C462.57,-48.69 600.87,-26.58 665.91,-16.19"/>
<polygon fill="#63b8ff" stroke="#63b8ff" points="666.75,-19.6 676.07,-14.56 665.64,-12.69 666.75,-19.6"/>
</a>
</g>
</g>
<!-- Node9 -->
<g id="Node000009" class="node">
<title>Node9</title>
<g id="a_Node000009"><a xlink:title=" ">
<polygon fill="#e0e0e0" stroke="#999999" points="595.5,-19 551.5,-19 551.5,0 595.5,0 595.5,-19"/>
<text text-anchor="middle" x="573.5" y="-7" font-family="Helvetica,sans-Serif" font-size="10.00">string</text>
</a>
</g>
</g>
<!-- Node6&#45;&gt;Node9 -->
<g id="edge8_Node000006_Node000009" class="edge">
<title>Node6&#45;&gt;Node9</title>
<g id="a_edge8_Node000006_Node000009"><a xlink:title=" ">
<path fill="none" stroke="#63b8ff" d="M387.08,-57C426.81,-47.66 483.35,-34.13 541.45,-19.21"/>
<polygon fill="#63b8ff" stroke="#63b8ff" points="542.36,-22.6 551.17,-16.71 540.61,-15.82 542.36,-22.6"/>
</a>
</g>
</g>
<!-- Node10 -->
<g id="Node000010" class="node">
<title>Node10</title>
<g id="a_Node000010"><a xlink:title=" ">
<polygon fill="#e0e0e0" stroke="#999999" points="533,-19 460,-19 460,0 533,0 533,-19"/>
<text text-anchor="middle" x="496.5" y="-7" font-family="Helvetica,sans-Serif" font-size="10.00">QByteArray</text>
</a>
</g>
</g>
<!-- Node6&#45;&gt;Node10 -->
<g id="edge9_Node000006_Node000010" class="edge">
<title>Node6&#45;&gt;Node10</title>
<g id="a_edge9_Node000006_Node000010"><a xlink:title=" ">
<path fill="none" stroke="#63b8ff" d="M374.06,-54.99C401.29,-45.1 437.38,-31.98 463.32,-22.56"/>
<polygon fill="#63b8ff" stroke="#63b8ff" points="464.52,-25.84 472.72,-19.14 462.13,-19.26 464.52,-25.84"/>
</a>
</g>
</g>
<!-- Node11 -->
<g id="Node000011" class="node">
<title>Node11</title>
<g id="a_Node000011"><a xlink:title=" ">
<polygon fill="#e0e0e0" stroke="#999999" points="310,-19 261,-19 261,0 310,0 310,-19"/>
<text text-anchor="middle" x="285.5" y="-7" font-family="Helvetica,sans-Serif" font-size="10.00">QHash</text>
</a>
</g>
</g>
<!-- Node6&#45;&gt;Node11 -->
<g id="edge10_Node000006_Node000011" class="edge">
<title>Node6&#45;&gt;Node11</title>
<g id="a_edge10_Node000006_Node000011"><a xlink:title=" ">
<path fill="none" stroke="#63b8ff" d="M323.4,-54.84C316.21,-46.43 307.07,-35.74 299.57,-26.96"/>
<polygon fill="#63b8ff" stroke="#63b8ff" points="302.15,-24.59 292.99,-19.27 296.83,-29.14 302.15,-24.59"/>
</a>
</g>
</g>
<!-- Node12 -->
<g id="Node000012" class="node">
<title>Node12</title>
<g id="a_Node000012"><a xlink:title=" ">
<polygon fill="#e0e0e0" stroke="#999999" points="243,-19 190,-19 190,0 243,0 243,-19"/>
<text text-anchor="middle" x="216.5" y="-7" font-family="Helvetica,sans-Serif" font-size="10.00">QString</text>
</a>
</g>
</g>
<!-- Node6&#45;&gt;Node12 -->
<g id="edge11_Node000006_Node000012" class="edge">
<title>Node6&#45;&gt;Node12</title>
<g id="a_edge11_Node000006_Node000012"><a xlink:title=" ">
<path fill="none" stroke="#63b8ff" d="M307,-54.99C287.59,-45.45 262.07,-32.9 243.08,-23.57"/>
<polygon fill="#63b8ff" stroke="#63b8ff" points="244.59,-20.41 234.07,-19.14 241.5,-26.69 244.59,-20.41"/>
</a>
</g>
</g>
<!-- Node13 -->
<g id="Node000013" class="node">
<title>Node13</title>
<g id="a_Node000013"><a xlink:title=" ">
<polygon fill="#e0e0e0" stroke="#999999" points="373,-19 328,-19 328,0 373,0 373,-19"/>
<text text-anchor="middle" x="350.5" y="-7" font-family="Helvetica,sans-Serif" font-size="10.00">QMap</text>
</a>
</g>
</g>
<!-- Node6&#45;&gt;Node13 -->
<g id="edge13_Node000006_Node000013" class="edge">
<title>Node6&#45;&gt;Node13</title>
<g id="a_edge13_Node000006_Node000013"><a xlink:title=" ">
<path fill="none" stroke="#63b8ff" d="M339.13,-54.84C341.11,-47.13 343.58,-37.49 345.71,-29.17"/>
<polygon fill="#63b8ff" stroke="#63b8ff" points="349.16,-29.82 348.25,-19.27 342.38,-28.08 349.16,-29.82"/>
</a>
</g>
</g>
<!-- Node14&#45;&gt;Node8 -->
<g id="edge16_Node000014_Node000008" class="edge">
<title>Node14&#45;&gt;Node8</title>
<g id="a_edge16_Node000014_Node000008"><a xlink:title=" ">
<path fill="none" stroke="#63b8ff" d="M656.65,-241.98C691.82,-235.21 737.73,-223.86 775.5,-206 812.87,-188.33 831.82,-187.87 850.5,-151 880.53,-91.73 787.33,-44.13 734.8,-22.74"/>
<polygon fill="#63b8ff" stroke="#63b8ff" points="736.09,-19.48 725.5,-19.05 733.51,-25.99 736.09,-19.48"/>
</a>
</g>
</g>
<!-- Node15 -->
<g id="Node000015" class="node">
<title>Node15</title>
<g id="a_Node000015"><a xlink:title=" ">
<polygon fill="#e0e0e0" stroke="#999999" points="841.5,-145.5 791.5,-145.5 791.5,-126.5 841.5,-126.5 841.5,-145.5"/>
<text text-anchor="middle" x="816.5" y="-133.5" font-family="Helvetica,sans-Serif" font-size="10.00">atomic</text>
</a>
</g>
</g>
<!-- Node14&#45;&gt;Node15 -->
<g id="edge15_Node000014_Node000015" class="edge">
<title>Node14&#45;&gt;Node15</title>
<g id="a_edge15_Node000014_Node000015"><a xlink:title=" ">
<path fill="none" stroke="#63b8ff" d="M653.19,-241.93C683.19,-235.33 720.79,-224.17 750.5,-206 772.72,-192.41 792.53,-169.5 804.52,-153.84"/>
<polygon fill="#63b8ff" stroke="#63b8ff" points="807.5,-155.7 810.63,-145.58 801.87,-151.53 807.5,-155.7"/>
</a>
</g>
</g>
<!-- Node16 -->
<g id="Node000016" class="node">
<title>Node16</title>
<g id="a_Node000016"><a xlink:title=" ">
<polygon fill="#e0e0e0" stroke="#999999" points="539.5,-206 491.5,-206 491.5,-187 539.5,-187 539.5,-206"/>
<text text-anchor="middle" x="515.5" y="-194" font-family="Helvetica,sans-Serif" font-size="10.00">thread</text>
</a>
</g>
</g>
<!-- Node14&#45;&gt;Node16 -->
<g id="edge17_Node000014_Node000016" class="edge">
<title>Node14&#45;&gt;Node16</title>
<g id="a_edge17_Node000014_Node000016"><a xlink:title=" ">
<path fill="none" stroke="#63b8ff" d="M587.68,-241.98C574.35,-233.77 553.92,-221.18 538.19,-211.49"/>
<polygon fill="#63b8ff" stroke="#63b8ff" points="539.92,-208.44 529.57,-206.17 536.25,-214.4 539.92,-208.44"/>
</a>
</g>
</g>
<!-- Node17 -->
<g id="Node000017" class="node">
<title>Node17</title>
<g id="a_Node000017"><a xlink:href="RingBuffer_8h.html" target="_top" xlink:title=" ">
<polygon fill="white" stroke="#666666" points="741.5,-206 665.5,-206 665.5,-187 741.5,-187 741.5,-206"/>
<text text-anchor="middle" x="703.5" y="-194" font-family="Helvetica,sans-Serif" font-size="10.00">RingBuffer.h</text>
</a>
</g>
</g>
<!-- Node14&#45;&gt;Node17 -->
<g id="edge18_Node000014_Node000017" class="edge">
<title>Node14&#45;&gt;Node17</title>
<g id="a_edge18_Node000014_Node000017"><a xlink:title=" ">
<path fill="none" stroke="#63b8ff" d="M617.89,-241.98C634.07,-233.57 659.07,-220.59 677.88,-210.81"/>
<polygon fill="#63b8ff" stroke="#63b8ff" points="679.55,-213.89 686.81,-206.17 676.33,-207.68 679.55,-213.89"/>
</a>
</g>
</g>
<!-- Node23 -->
<g id="Node000023" class="node">
<title>Node23</title>
<g id="a_Node000023"><a xlink:href="Writer_8h.html" target="_top" xlink:title=" ">
<polygon fill="white" stroke="#666666" points="613,-206 558,-206 558,-187 613,-187 613,-206"/>
<text text-anchor="middle" x="585.5" y="-194" font-family="Helvetica,sans-Serif" font-size="10.00">Writer.h</text>
</a>
</g>
</g>
<!-- Node14&#45;&gt;Node23 -->
<g id="edge27_Node000014_Node000023" class="edge">
<title>Node14&#45;&gt;Node23</title>
<g id="a_edge27_Node000014_Node000023"><a xlink:title=" ">
<path fill="none" stroke="#63b8ff" d="M598.86,-241.75C596.74,-234.72 593.69,-224.62 591.04,-215.84"/>
<polygon fill="#63b8ff" stroke="#63b8ff" points="594.33,-214.65 588.09,-206.09 587.63,-216.67 594.33,-214.65"/>
</a>
</g>
</g>
<!-- Node17&#45;&gt;Node8 -->
<g id="edge20_Node000017_Node000008" class="edge">
<title>Node17&#45;&gt;Node8</title>
<g id="a_edge20_Node000017_Node000008"><a xlink:title=" ">
<path fill="none" stroke="#63b8ff" d="M715.43,-186.8C725.33,-178.77 738.69,-165.87 744.5,-151 761.51,-107.43 732.09,-54.18 714.03,-27.48"/>
<polygon fill="#63b8ff" stroke="#63b8ff" points="716.82,-25.37 708.2,-19.21 711.09,-29.4 716.82,-25.37"/>
</a>
</g>
</g>
<!-- Node17&#45;&gt;Node15 -->
<g id="edge22_Node000017_Node000015" class="edge">
<title>Node17&#45;&gt;Node15</title>
<g id="a_edge22_Node000017_Node000015"><a xlink:title=" ">
<path fill="none" stroke="#63b8ff" d="M720.17,-186.87C738.78,-177.23 769.12,-161.53 790.78,-150.31"/>
<polygon fill="#63b8ff" stroke="#63b8ff" points="792.49,-153.37 799.76,-145.67 789.27,-147.16 792.49,-153.37"/>
</a>
</g>
</g>
<!-- Node17&#45;&gt;Node18 -->
<g id="edge19_Node000017_Node000018" class="edge">
<title>Node17&#45;&gt;Node18</title>
<g id="a_edge19_Node000017_Node000018"><a xlink:title=" ">
<path fill="none" stroke="#63b8ff" d="M735.78,-186.99C776.08,-176.37 844.91,-158.24 887.65,-146.97"/>
<polygon fill="#63b8ff" stroke="#63b8ff" points="888.62,-150.34 897.4,-144.4 886.84,-143.57 888.62,-150.34"/>
</a>
</g>
</g>
<!-- Node19 -->
<g id="Node000019" class="node">
<title>Node19</title>
<g id="a_Node000019"><a xlink:title=" ">
<polygon fill="#e0e0e0" stroke="#999999" points="653,-145.5 598,-145.5 598,-126.5 653,-126.5 653,-145.5"/>
<text text-anchor="middle" x="625.5" y="-133.5" font-family="Helvetica,sans-Serif" font-size="10.00">fstream</text>
</a>
</g>
</g>
<!-- Node17&#45;&gt;Node19 -->
<g id="edge21_Node000017_Node000019" class="edge">
<title>Node17&#45;&gt;Node19</title>
<g id="a_edge21_Node000017_Node000019"><a xlink:title=" ">
<path fill="none" stroke="#63b8ff" d="M691.99,-186.87C679.66,-177.62 659.88,-162.78 645.09,-151.69"/>
<polygon fill="#63b8ff" stroke="#63b8ff" points="647.16,-148.87 637.06,-145.67 642.96,-154.47 647.16,-148.87"/>
</a>
</g>
</g>
<!-- Node20 -->
<g id="Node000020" class="node">
<title>Node20</title>
<g id="a_Node000020"><a xlink:title=" ">
<polygon fill="#e0e0e0" stroke="#999999" points="735.5,-145.5 671.5,-145.5 671.5,-126.5 735.5,-126.5 735.5,-145.5"/>
<text text-anchor="middle" x="703.5" y="-133.5" font-family="Helvetica,sans-Serif" font-size="10.00">algorithm</text>
</a>
</g>
</g>
<!-- Node17&#45;&gt;Node20 -->
<g id="edge23_Node000017_Node000020" class="edge">
<title>Node17&#45;&gt;Node20</title>
<g id="a_edge23_Node000017_Node000020"><a xlink:title=" ">
<path fill="none" stroke="#63b8ff" d="M703.5,-186.87C703.5,-178.75 703.5,-166.31 703.5,-155.89"/>
<polygon fill="#63b8ff" stroke="#63b8ff" points="707,-155.67 703.5,-145.67 700,-155.67 707,-155.67"/>
</a>
</g>
</g>
<!-- Node21 -->
<g id="Node000021" class="node">
<title>Node21</title>
<g id="a_Node000021"><a xlink:href="Logger_8h.html" target="_top" xlink:title=" ">
<polygon fill="white" stroke="#666666" points="541.5,-151 431.5,-151 431.5,-121 541.5,-121 541.5,-151"/>
<text text-anchor="start" x="439.5" y="-139" font-family="Helvetica,sans-Serif" font-size="10.00">src/services/Logger</text>
<text text-anchor="middle" x="486.5" y="-128" font-family="Helvetica,sans-Serif" font-size="10.00">/Logger.h</text>
</a>
</g>
</g>
<!-- Node17&#45;&gt;Node21 -->
<g id="edge24_Node000017_Node000021" class="edge">
<title>Node17&#45;&gt;Node21</title>
<g id="a_edge24_Node000017_Node000021"><a xlink:title=" ">
<path fill="none" stroke="#63b8ff" d="M671.95,-186.99C639.69,-178.3 588.75,-164.57 548.42,-153.69"/>
<polygon fill="#63b8ff" stroke="#63b8ff" points="549.24,-150.29 538.67,-151.06 547.41,-157.05 549.24,-150.29"/>
</a>
</g>
</g>
<!-- Node21&#45;&gt;Node6 -->
<g id="edge26_Node000021_Node000006" class="edge">
<title>Node21&#45;&gt;Node6</title>
<g id="a_edge26_Node000021_Node000006"><a xlink:title=" ">
<path fill="none" stroke="#63b8ff" d="M453.36,-120.95C431.23,-111.58 401.93,-99.16 378.08,-89.05"/>
<polygon fill="#63b8ff" stroke="#63b8ff" points="379.13,-85.69 368.56,-85.01 376.4,-92.14 379.13,-85.69"/>
</a>
</g>
</g>
<!-- Node22 -->
<g id="Node000022" class="node">
<title>Node22</title>
<g id="a_Node000022"><a xlink:title=" ">
<polygon fill="#e0e0e0" stroke="#999999" points="516,-79.5 457,-79.5 457,-60.5 516,-60.5 516,-79.5"/>
<text text-anchor="middle" x="486.5" y="-67.5" font-family="Helvetica,sans-Serif" font-size="10.00">QWidget</text>
</a>
</g>
</g>
<!-- Node21&#45;&gt;Node22 -->
<g id="edge25_Node000021_Node000022" class="edge">
<title>Node21&#45;&gt;Node22</title>
<g id="a_edge25_Node000021_Node000022"><a xlink:title=" ">
<path fill="none" stroke="#63b8ff" d="M486.5,-120.8C486.5,-111.7 486.5,-99.79 486.5,-89.9"/>
<polygon fill="#63b8ff" stroke="#63b8ff" points="490,-89.84 486.5,-79.84 483,-89.84 490,-89.84"/>
</a>
</g>
</g>
<!-- Node23&#45;&gt;Node8 -->
<g id="edge28_Node000023_Node000008" class="edge">
<title>Node23&#45;&gt;Node8</title>
<g id="a_edge28_Node000023_Node000008"><a xlink:title=" ">
<path fill="none" stroke="#63b8ff" d="M584.02,-186.76C581.98,-172.34 579.61,-142.97 589.5,-121 608.74,-78.26 652.51,-43.17 679.28,-24.67"/>
<polygon fill="#63b8ff" stroke="#63b8ff" points="681.3,-27.53 687.65,-19.05 677.39,-21.72 681.3,-27.53"/>
</a>
</g>
</g>
<!-- Node23&#45;&gt;Node9 -->
<g id="edge30_Node000023_Node000009" class="edge">
<title>Node23&#45;&gt;Node9</title>
<g id="a_edge30_Node000023_Node000009"><a xlink:title=" ">
<path fill="none" stroke="#63b8ff" d="M557.99,-188.91C512.63,-177.91 426.68,-156.48 422.5,-151 402.63,-124.98 441.07,-62.19 448.5,-55 455.45,-48.28 507.07,-31.23 541.76,-20.29"/>
<polygon fill="#63b8ff" stroke="#63b8ff" points="542.98,-23.57 551.48,-17.25 540.89,-16.89 542.98,-23.57"/>
</a>
</g>
</g>
<!-- Node23&#45;&gt;Node19 -->
<g id="edge29_Node000023_Node000019" class="edge">
<title>Node23&#45;&gt;Node19</title>
<g id="a_edge29_Node000023_Node000019"><a xlink:title=" ">
<path fill="none" stroke="#63b8ff" d="M591.4,-186.87C597.25,-178.31 606.37,-164.97 613.71,-154.24"/>
<polygon fill="#63b8ff" stroke="#63b8ff" points="616.82,-155.9 619.57,-145.67 611.04,-151.95 616.82,-155.9"/>
</a>
</g>
</g>
<!-- Node23&#45;&gt;Node21 -->
<g id="edge31_Node000023_Node000021" class="edge">
<title>Node23&#45;&gt;Node21</title>
<g id="a_edge31_Node000023_Node000021"><a xlink:title=" ">
<path fill="none" stroke="#63b8ff" d="M570.89,-186.87C557.33,-178.86 536.67,-166.65 519.19,-156.31"/>
<polygon fill="#63b8ff" stroke="#63b8ff" points="520.78,-153.19 510.39,-151.11 517.21,-159.22 520.78,-153.19"/>
</a>
</g>
</g>
<!-- Node24&#45;&gt;Node3 -->
<g id="edge33_Node000024_Node000003" class="edge">
<title>Node24&#45;&gt;Node3</title>
<g id="a_edge33_Node000024_Node000003"><a xlink:title=" ">
<path fill="none" stroke="#63b8ff" d="M518.68,-296.8C512.29,-283.2 498.15,-256.93 478.5,-242 380.34,-167.44 309.74,-231.63 216.5,-151 196.42,-133.64 165.1,-62.53 150.92,-28.63"/>
<polygon fill="#63b8ff" stroke="#63b8ff" points="154.01,-26.95 146.95,-19.05 147.54,-29.63 154.01,-26.95"/>
</a>
</g>
</g>
<!-- Node24&#45;&gt;Node5 -->
<g id="edge34_Node000024_Node000005" class="edge">
<title>Node24&#45;&gt;Node5</title>
<g id="a_edge34_Node000024_Node000005"><a xlink:title=" ">
<path fill="none" stroke="#63b8ff" d="M507.88,-296.98C493.64,-288.69 471.75,-275.94 455.05,-266.22"/>
<polygon fill="#63b8ff" stroke="#63b8ff" points="456.79,-263.18 446.39,-261.17 453.27,-269.23 456.79,-263.18"/>
</a>
</g>
</g>
<!-- Node24&#45;&gt;Node14 -->
<g id="edge36_Node000024_Node000014" class="edge">
<title>Node24&#45;&gt;Node14</title>
<g id="a_edge36_Node000024_Node000014"><a xlink:title=" ">
<path fill="none" stroke="#63b8ff" d="M535.19,-296.98C547.33,-288.84 565.86,-276.41 580.25,-266.76"/>
<polygon fill="#63b8ff" stroke="#63b8ff" points="582.22,-269.65 588.58,-261.17 578.32,-263.84 582.22,-269.65"/>
</a>
</g>
</g>
<!-- Node25 -->
<g id="Node000025" class="node">
<title>Node25</title>
<g id="a_Node000025"><a xlink:title=" ">
<polygon fill="#e0e0e0" stroke="#999999" points="745.5,-261 695.5,-261 695.5,-242 745.5,-242 745.5,-261"/>
<text text-anchor="middle" x="720.5" y="-249" font-family="Helvetica,sans-Serif" font-size="10.00">chrono</text>
</a>
</g>
</g>
<!-- Node24&#45;&gt;Node25 -->
<g id="edge35_Node000024_Node000025" class="edge">
<title>Node24&#45;&gt;Node25</title>
<g id="a_edge35_Node000024_Node000025"><a xlink:title=" ">
<path fill="none" stroke="#63b8ff" d="M554.31,-296.98C590.18,-287.38 648.34,-271.82 685.48,-261.87"/>
<polygon fill="#63b8ff" stroke="#63b8ff" points="686.61,-265.2 695.36,-259.23 684.8,-258.43 686.61,-265.2"/>
</a>
</g>
</g>
<!-- Node26&#45;&gt;Node6 -->
<g id="edge39_Node000026_Node000006" class="edge">
<title>Node26&#45;&gt;Node6</title>
<g id="a_edge39_Node000026_Node000006"><a xlink:title=" ">
<path fill="none" stroke="#63b8ff" d="M288.78,-126.37C295.92,-117.91 307.09,-104.67 316.72,-93.25"/>
<polygon fill="#63b8ff" stroke="#63b8ff" points="319.61,-95.26 323.38,-85.36 314.26,-90.75 319.61,-95.26"/>
</a>
</g>
</g>
<!-- Node26&#45;&gt;Node12 -->
<g id="edge38_Node000026_Node000012" class="edge">
<title>Node26&#45;&gt;Node12</title>
<g id="a_edge38_Node000026_Node000012"><a xlink:title=" ">
<path fill="none" stroke="#63b8ff" d="M277.03,-126.44C266.5,-106.27 239.95,-55.42 225.77,-28.26"/>
<polygon fill="#63b8ff" stroke="#63b8ff" points="228.73,-26.36 221,-19.12 222.52,-29.6 228.73,-26.36"/>
</a>
</g>
</g>
<!-- Node27&#45;&gt;Node3 -->
<g id="edge41_Node000027_Node000003" class="edge">
<title>Node27&#45;&gt;Node3</title>
<g id="a_edge41_Node000027_Node000003"><a xlink:title=" ">
<path fill="none" stroke="#63b8ff" d="M84.38,-54.84C96.28,-45.91 111.62,-34.41 123.7,-25.35"/>
<polygon fill="#63b8ff" stroke="#63b8ff" points="125.91,-28.07 131.81,-19.27 121.71,-22.47 125.91,-28.07"/>
</a>
</g>
</g>
</g>
</svg>

<g id="navigator" transform="translate(0 0)" fill="#404254">
  <rect fill="#f2f5e9" fill-opacity="0.5" stroke="#606060" stroke-width=".5" x="0" y="0" width="60" height="60"/>
  <use id="zoomplus" xlink:href="#zoomPlus" x="17" y="9" onmousedown="handleZoom(evt,'in')"/>
  <use id="zoomminus" xlink:href="#zoomMin" x="42" y="9" onmousedown="handleZoom(evt,'out')"/>
  <use id="reset" xlink:href="#resetDef" x="30" y="36" onmousedown="handleReset()"/>
   <use id="arrowup" xlink:href="#arrowUp" x="0" y="0" onmousedown="handlePan(0,-1)"/>
  <use id="arrowright" xlink:href="#arrowRight" x="0" y="0" onmousedown="handlePan(1,0)"/>
  <use id="arrowdown" xlink:href="#arrowDown" x="0" y="0" onmousedown="handlePan(0,1)"/>
  <use id="arrowleft" xlink:href="#arrowLeft" x="0" y="0" onmousedown="handlePan(-1,0)"/>
</g>
<svg viewBox="0 0 15 15" width="100%" height="30px" preserveAspectRatio="xMaxYMin meet">
 <g id="arrow_out" transform="scale(0.3 0.3)">
  <a xlink:href="UdpChannel_8cpp__incl_org.svg" target="_base">
   <rect id="button" ry="5" rx="5" y="6" x="6" height="38" width="38"
        fill="#f2f5e9" fill-opacity="0.5" stroke="#606060" stroke-width="1.0"/>
   <path id="arrow"
     d="M 11.500037,31.436501 C 11.940474,20.09759 22.043105,11.32322 32.158766,21.979434 L 37.068811,17.246167 C 37.068811,17.246167 37.088388,32 37.088388,32 L 22.160133,31.978069 C 22.160133,31.978069 26.997745,27.140456 26.997745,27.140456 C 18.528582,18.264221 13.291696,25.230495 11.500037,31.436501 z"
     style="fill:#404040;"/>
  </a>
 </g>
</svg>

<style type='text/css'>
<![CDATA[
[data-mouse-over-selected='false'] { opacity: 0.7; }
[data-mouse-over-selected='true']  { opacity: 1.0; }
]]>
</style>
<script type="application/ecmascript"><![CDATA[
document.addEventListener('DOMContentLoaded', (event) => {
  highlightEdges();
  highlightAdjacentNodes();
});
]]></script>
</svg>
