<?xml version="1.0" encoding="UTF-8" standalone="no"?>
<!DOCTYPE svg PUBLIC "-//W3C//DTD SVG 1.1//EN"
 "http://www.w3.org/Graphics/SVG/1.1/DTD/svg11.dtd">
<!-- Generated by graphviz version 2.43.0 (0)
 -->
<!-- Title: features/communication/udp/codecs/UdpCodec.cpp Pages: 1 -->
<svg width="557pt" height="214pt"
 viewBox="0.00 0.00 557.00 214.00" xmlns="http://www.w3.org/2000/svg" xmlns:xlink="http://www.w3.org/1999/xlink">
<g id="graph0" class="graph" transform="scale(1 1) rotate(0) translate(4 210)">
<title>features/communication/udp/codecs/UdpCodec.cpp</title>
<!-- Node1 -->
<g id="Node000001" class="node">
<title>Node1</title>
<g id="a_Node000001"><a xlink:title=" ">
<polygon fill="#999999" stroke="#666666" points="346,-206 199,-206 199,-176 346,-176 346,-206"/>
<text text-anchor="start" x="207" y="-194" font-family="Helvetica,sans-Serif" font-size="10.00">features/communication</text>
<text text-anchor="middle" x="272.5" y="-183" font-family="Helvetica,sans-Serif" font-size="10.00">/udp/codecs/UdpCodec.cpp</text>
</a>
</g>
</g>
<!-- Node2 -->
<g id="Node000002" class="node">
<title>Node2</title>
<g id="a_Node000002"><a xlink:href="UdpCodec_8h.html" target="_top" xlink:title=" ">
<polygon fill="white" stroke="#666666" points="166,-140 91,-140 91,-121 166,-121 166,-140"/>
<text text-anchor="middle" x="128.5" y="-128" font-family="Helvetica,sans-Serif" font-size="10.00">UdpCodec.h</text>
</a>
</g>
</g>
<!-- Node1&#45;&gt;Node2 -->
<g id="edge1_Node000001_Node000002" class="edge">
<title>Node1&#45;&gt;Node2</title>
<g id="a_edge1_Node000001_Node000002"><a xlink:title=" ">
<path fill="none" stroke="#63b8ff" d="M238.01,-175.99C213.98,-166.23 182.23,-153.33 159.1,-143.93"/>
<polygon fill="#63b8ff" stroke="#63b8ff" points="160.35,-140.66 149.77,-140.14 157.71,-147.15 160.35,-140.66"/>
</a>
</g>
</g>
<!-- Node12 -->
<g id="Node000012" class="node">
<title>Node12</title>
<g id="a_Node000012"><a xlink:title=" ">
<polygon fill="#e0e0e0" stroke="#999999" points="267,-140 184,-140 184,-121 267,-121 267,-140"/>
<text text-anchor="middle" x="225.5" y="-128" font-family="Helvetica,sans-Serif" font-size="10.00">QDataStream</text>
</a>
</g>
</g>
<!-- Node1&#45;&gt;Node12 -->
<g id="edge12_Node000001_Node000012" class="edge">
<title>Node1&#45;&gt;Node12</title>
<g id="a_edge12_Node000001_Node000012"><a xlink:title=" ">
<path fill="none" stroke="#63b8ff" d="M261.12,-175.84C254.44,-167.52 245.95,-156.96 238.94,-148.23"/>
<polygon fill="#63b8ff" stroke="#63b8ff" points="241.53,-145.87 232.54,-140.27 236.08,-150.25 241.53,-145.87"/>
</a>
</g>
</g>
<!-- Node13 -->
<g id="Node000013" class="node">
<title>Node13</title>
<g id="a_Node000013"><a xlink:title=" ">
<polygon fill="#e0e0e0" stroke="#999999" points="353.5,-140 285.5,-140 285.5,-121 353.5,-121 353.5,-140"/>
<text text-anchor="middle" x="319.5" y="-128" font-family="Helvetica,sans-Serif" font-size="10.00">QIODevice</text>
</a>
</g>
</g>
<!-- Node1&#45;&gt;Node13 -->
<g id="edge13_Node000001_Node000013" class="edge">
<title>Node1&#45;&gt;Node13</title>
<g id="a_edge13_Node000001_Node000013"><a xlink:title=" ">
<path fill="none" stroke="#63b8ff" d="M283.88,-175.84C290.56,-167.52 299.05,-156.96 306.06,-148.23"/>
<polygon fill="#63b8ff" stroke="#63b8ff" points="308.92,-150.25 312.46,-140.27 303.47,-145.87 308.92,-150.25"/>
</a>
</g>
</g>
<!-- Node14 -->
<g id="Node000014" class="node">
<title>Node14</title>
<g id="a_Node000014"><a xlink:title=" ">
<polygon fill="#e0e0e0" stroke="#999999" points="427.5,-140 371.5,-140 371.5,-121 427.5,-121 427.5,-140"/>
<text text-anchor="middle" x="399.5" y="-128" font-family="Helvetica,sans-Serif" font-size="10.00">QDebug</text>
</a>
</g>
</g>
<!-- Node1&#45;&gt;Node14 -->
<g id="edge14_Node000001_Node000014" class="edge">
<title>Node1&#45;&gt;Node14</title>
<g id="a_edge14_Node000001_Node000014"><a xlink:title=" ">
<path fill="none" stroke="#63b8ff" d="M302.92,-175.99C323.73,-166.4 351.12,-153.79 371.41,-144.44"/>
<polygon fill="#63b8ff" stroke="#63b8ff" points="373.13,-147.5 380.74,-140.14 370.2,-141.14 373.13,-147.5"/>
</a>
</g>
</g>
<!-- Node3 -->
<g id="Node000003" class="node">
<title>Node3</title>
<g id="a_Node000003"><a xlink:title=" ">
<polygon fill="#e0e0e0" stroke="#999999" points="53,-19 0,-19 0,0 53,0 53,-19"/>
<text text-anchor="middle" x="26.5" y="-7" font-family="Helvetica,sans-Serif" font-size="10.00">QString</text>
</a>
</g>
</g>
<!-- Node2&#45;&gt;Node3 -->
<g id="edge2_Node000002_Node000003" class="edge">
<title>Node2&#45;&gt;Node3</title>
<g id="a_edge2_Node000002_Node000003"><a xlink:title=" ">
<path fill="none" stroke="#63b8ff" d="M121.16,-120.94C104.34,-101.31 62.72,-52.76 40.7,-27.07"/>
<polygon fill="#63b8ff" stroke="#63b8ff" points="43.21,-24.62 34.04,-19.3 37.89,-29.17 43.21,-24.62"/>
</a>
</g>
</g>
<!-- Node4 -->
<g id="Node000004" class="node">
<title>Node4</title>
<g id="a_Node000004"><a xlink:href="Messages_8h.html" target="_top" xlink:title=" ">
<polygon fill="white" stroke="#666666" points="282,-85 179,-85 179,-55 282,-55 282,-85"/>
<text text-anchor="start" x="187" y="-73" font-family="Helvetica,sans-Serif" font-size="10.00">src/core/Protocols</text>
<text text-anchor="middle" x="230.5" y="-62" font-family="Helvetica,sans-Serif" font-size="10.00">/Messages.h</text>
</a>
</g>
</g>
<!-- Node2&#45;&gt;Node4 -->
<g id="edge3_Node000002_Node000004" class="edge">
<title>Node2&#45;&gt;Node4</title>
<g id="a_edge3_Node000002_Node000004"><a xlink:title=" ">
<path fill="none" stroke="#63b8ff" d="M143.55,-120.87C157.52,-112.86 178.81,-100.65 196.82,-90.31"/>
<polygon fill="#63b8ff" stroke="#63b8ff" points="198.96,-93.13 205.89,-85.11 195.47,-87.05 198.96,-93.13"/>
</a>
</g>
</g>
<!-- Node4&#45;&gt;Node3 -->
<g id="edge9_Node000004_Node000003" class="edge">
<title>Node4&#45;&gt;Node3</title>
<g id="a_edge9_Node000004_Node000003"><a xlink:title=" ">
<path fill="none" stroke="#63b8ff" d="M181.64,-54.99C145.1,-44.51 95.95,-30.42 62.85,-20.92"/>
<polygon fill="#63b8ff" stroke="#63b8ff" points="63.7,-17.53 53.12,-18.13 61.77,-24.25 63.7,-17.53"/>
</a>
</g>
</g>
<!-- Node5 -->
<g id="Node000005" class="node">
<title>Node5</title>
<g id="a_Node000005"><a xlink:title=" ">
<polygon fill="#e0e0e0" stroke="#999999" points="122,-19 71,-19 71,0 122,0 122,-19"/>
<text text-anchor="middle" x="96.5" y="-7" font-family="Helvetica,sans-Serif" font-size="10.00">variant</text>
</a>
</g>
</g>
<!-- Node4&#45;&gt;Node5 -->
<g id="edge4_Node000004_Node000005" class="edge">
<title>Node4&#45;&gt;Node5</title>
<g id="a_edge4_Node000004_Node000005"><a xlink:title=" ">
<path fill="none" stroke="#63b8ff" d="M198.4,-54.99C176.25,-45.31 147.02,-32.56 125.55,-23.18"/>
<polygon fill="#63b8ff" stroke="#63b8ff" points="126.85,-19.93 116.29,-19.14 124.05,-26.35 126.85,-19.93"/>
</a>
</g>
</g>
<!-- Node6 -->
<g id="Node000006" class="node">
<title>Node6</title>
<g id="a_Node000006"><a xlink:title=" ">
<polygon fill="#e0e0e0" stroke="#999999" points="190.5,-19 140.5,-19 140.5,0 190.5,0 190.5,-19"/>
<text text-anchor="middle" x="165.5" y="-7" font-family="Helvetica,sans-Serif" font-size="10.00">cstdint</text>
</a>
</g>
</g>
<!-- Node4&#45;&gt;Node6 -->
<g id="edge5_Node000004_Node000006" class="edge">
<title>Node4&#45;&gt;Node6</title>
<g id="a_edge5_Node000004_Node000006"><a xlink:title=" ">
<path fill="none" stroke="#63b8ff" d="M214.77,-54.84C205.14,-46.17 192.81,-35.08 182.89,-26.15"/>
<polygon fill="#63b8ff" stroke="#63b8ff" points="185.01,-23.35 175.24,-19.27 180.33,-28.56 185.01,-23.35"/>
</a>
</g>
</g>
<!-- Node7 -->
<g id="Node000007" class="node">
<title>Node7</title>
<g id="a_Node000007"><a xlink:title=" ">
<polygon fill="#e0e0e0" stroke="#999999" points="252.5,-19 208.5,-19 208.5,0 252.5,0 252.5,-19"/>
<text text-anchor="middle" x="230.5" y="-7" font-family="Helvetica,sans-Serif" font-size="10.00">string</text>
</a>
</g>
</g>
<!-- Node4&#45;&gt;Node7 -->
<g id="edge6_Node000004_Node000007" class="edge">
<title>Node4&#45;&gt;Node7</title>
<g id="a_edge6_Node000004_Node000007"><a xlink:title=" ">
<path fill="none" stroke="#63b8ff" d="M230.5,-54.84C230.5,-47.21 230.5,-37.7 230.5,-29.45"/>
<polygon fill="#63b8ff" stroke="#63b8ff" points="234,-29.27 230.5,-19.27 227,-29.27 234,-29.27"/>
</a>
</g>
</g>
<!-- Node8 -->
<g id="Node000008" class="node">
<title>Node8</title>
<g id="a_Node000008"><a xlink:title=" ">
<polygon fill="#e0e0e0" stroke="#999999" points="344,-19 271,-19 271,0 344,0 344,-19"/>
<text text-anchor="middle" x="307.5" y="-7" font-family="Helvetica,sans-Serif" font-size="10.00">QByteArray</text>
</a>
</g>
</g>
<!-- Node4&#45;&gt;Node8 -->
<g id="edge7_Node000004_Node000008" class="edge">
<title>Node4&#45;&gt;Node8</title>
<g id="a_edge7_Node000004_Node000008"><a xlink:title=" ">
<path fill="none" stroke="#63b8ff" d="M249.14,-54.84C260.89,-45.91 276.03,-34.41 287.95,-25.35"/>
<polygon fill="#63b8ff" stroke="#63b8ff" points="290.12,-28.1 295.96,-19.27 285.88,-22.53 290.12,-28.1"/>
</a>
</g>
</g>
<!-- Node9 -->
<g id="Node000009" class="node">
<title>Node9</title>
<g id="a_Node000009"><a xlink:title=" ">
<polygon fill="#e0e0e0" stroke="#999999" points="411,-19 362,-19 362,0 411,0 411,-19"/>
<text text-anchor="middle" x="386.5" y="-7" font-family="Helvetica,sans-Serif" font-size="10.00">QHash</text>
</a>
</g>
</g>
<!-- Node4&#45;&gt;Node9 -->
<g id="edge8_Node000004_Node000009" class="edge">
<title>Node4&#45;&gt;Node9</title>
<g id="a_edge8_Node000004_Node000009"><a xlink:title=" ">
<path fill="none" stroke="#63b8ff" d="M267.87,-54.99C294.13,-45.14 328.91,-32.1 354.02,-22.68"/>
<polygon fill="#63b8ff" stroke="#63b8ff" points="355.33,-25.93 363.46,-19.14 352.87,-19.37 355.33,-25.93"/>
</a>
</g>
</g>
<!-- Node10 -->
<g id="Node000010" class="node">
<title>Node10</title>
<g id="a_Node000010"><a xlink:title=" ">
<polygon fill="#e0e0e0" stroke="#999999" points="485.5,-19 429.5,-19 429.5,0 485.5,0 485.5,-19"/>
<text text-anchor="middle" x="457.5" y="-7" font-family="Helvetica,sans-Serif" font-size="10.00">QObject</text>
</a>
</g>
</g>
<!-- Node4&#45;&gt;Node10 -->
<g id="edge10_Node000004_Node000010" class="edge">
<title>Node4&#45;&gt;Node10</title>
<g id="a_edge10_Node000004_Node000010"><a xlink:title=" ">
<path fill="none" stroke="#63b8ff" d="M282.01,-55.73C323.74,-44.97 381.59,-30.06 419.28,-20.35"/>
<polygon fill="#63b8ff" stroke="#63b8ff" points="420.54,-23.64 429.35,-17.76 418.79,-16.86 420.54,-23.64"/>
</a>
</g>
</g>
<!-- Node11 -->
<g id="Node000011" class="node">
<title>Node11</title>
<g id="a_Node000011"><a xlink:title=" ">
<polygon fill="#e0e0e0" stroke="#999999" points="549,-19 504,-19 504,0 549,0 549,-19"/>
<text text-anchor="middle" x="526.5" y="-7" font-family="Helvetica,sans-Serif" font-size="10.00">QMap</text>
</a>
</g>
</g>
<!-- Node4&#45;&gt;Node11 -->
<g id="edge11_Node000004_Node000011" class="edge">
<title>Node4&#45;&gt;Node11</title>
<g id="a_edge11_Node000004_Node000011"><a xlink:title=" ">
<path fill="none" stroke="#63b8ff" d="M282.33,-60.33C333.54,-51.5 414.3,-36.9 493.65,-19.05"/>
<polygon fill="#63b8ff" stroke="#63b8ff" points="494.85,-22.37 503.82,-16.74 493.3,-15.54 494.85,-22.37"/>
</a>
</g>
</g>
</g>
</svg>
