<?xml version="1.0" encoding="UTF-8" standalone="no"?>
<!DOCTYPE svg PUBLIC "-//W3C//DTD SVG 1.1//EN"
 "http://www.w3.org/Graphics/SVG/1.1/DTD/svg11.dtd">
<!-- Generated by graphviz version 2.43.0 (0)
 -->
<!-- Title: features/communication/udp/ui/UdpChannelParametersViewModel.cpp Pages: 1 -->
<!--zoomable 412 -->

<svg id="main" version="1.1" xmlns="http://www.w3.org/2000/svg" xmlns:xlink="http://www.w3.org/1999/xlink" xml:space="preserve" onload="init(evt)">
<style type="text/css"><![CDATA[
.node, .edge {opacity: 0.7;}
.node.selected, .edge.selected {opacity: 1;}
.edge:hover path { stroke: red; }
.edge:hover polygon { stroke: red; fill: red; }
]]></style>

<defs>
  <circle id="rim" cx="0" cy="0" r="7"/>
  <circle id="rim2" cx="0" cy="0" r="3.5"/>
  <g id="zoomPlus">
    <use xlink:href="#rim" fill="#404040"><set attributeName="fill" to="#808080" begin="zoomplus.mouseover" end="zoomplus.mouseout"/></use>
    <path d="M-4,0h8M0,-4v8" fill="none" stroke="white" stroke-width="1.5" pointer-events="none"/>
  </g>
  <g id="zoomMin">
    <use xlink:href="#rim" fill="#404040"><set attributeName="fill" to="#808080" begin="zoomminus.mouseover" end="zoomminus.mouseout"/></use>
    <path d="M-4,0h8" fill="none" stroke="white" stroke-width="1.5" pointer-events="none"/>
  </g>
  <g id="arrowUp" transform="translate(30 24)">
    <use xlink:href="#rim"/>
    <path pointer-events="none" fill="none" stroke="white" stroke-width="1.5" d="M0,-3.0v7 M-2.5,-0.5L0,-3.0L2.5,-0.5"/>
  </g>
  <g id="arrowRight" transform="rotate(90) translate(36 -43)">
    <use xlink:href="#rim"/>
    <path pointer-events="none" fill="none" stroke="white" stroke-width="1.5" d="M0,-3.0v7 M-2.5,-0.5L0,-3.0L2.5,-0.5"/>
  </g>
  <g id="arrowDown" transform="rotate(180) translate(-30 -48)">
    <use xlink:href="#rim"/>
    <path pointer-events="none" fill="none" stroke="white" stroke-width="1.5" d="M0,-3.0v7 M-2.5,-0.5L0,-3.0L2.5,-0.5"/>
  </g>
  <g id="arrowLeft" transform="rotate(270) translate(-36 17)">
    <use xlink:href="#rim"/>
    <path pointer-events="none" fill="none" stroke="white" stroke-width="1.5" d="M0,-3.0v7 M-2.5,-0.5L0,-3.0L2.5,-0.5"/>
  </g>
  <g id="resetDef">
    <use xlink:href="#rim2" fill="#404040"><set attributeName="fill" to="#808080" begin="reset.mouseover" end="reset.mouseout"/></use>
  </g>
</defs>
<script type="application/ecmascript">
var viewWidth = 839;
var viewHeight = 412;
var sectionId = 'dynsection-0';
</script>
<script type="application/ecmascript" xlink:href="svg.min.js"/>
<svg id="graph" class="graph">
<g id="viewport">
<title>features/communication/udp/ui/UdpChannelParametersViewModel.cpp</title>
<!-- Node1 -->
<g id="Node000001" class="node">
<title>Node1</title>
<g id="a_Node000001"><a xlink:title=" ">
<polygon fill="#999999" stroke="#666666" points="241.5,-404 74.5,-404 74.5,-363 241.5,-363 241.5,-404"/>
<text text-anchor="start" x="82.5" y="-392" font-family="Helvetica,sans-Serif" font-size="10.00">features/communication</text>
<text text-anchor="start" x="82.5" y="-381" font-family="Helvetica,sans-Serif" font-size="10.00">/udp/ui/UdpChannelParameters</text>
<text text-anchor="middle" x="158" y="-370" font-family="Helvetica,sans-Serif" font-size="10.00">ViewModel.cpp</text>
</a>
</g>
</g>
<!-- Node2 -->
<g id="Node000002" class="node">
<title>Node2</title>
<g id="a_Node000002"><a xlink:href="UdpChannelParametersViewModel_8h.html" target="_top" xlink:title=" ">
<polygon fill="white" stroke="#666666" points="164.5,-327 9.5,-327 9.5,-297 164.5,-297 164.5,-327"/>
<text text-anchor="start" x="17.5" y="-315" font-family="Helvetica,sans-Serif" font-size="10.00">UdpChannelParametersView</text>
<text text-anchor="middle" x="87" y="-304" font-family="Helvetica,sans-Serif" font-size="10.00">Model.h</text>
</a>
</g>
</g>
<!-- Node1&#45;&gt;Node2 -->
<g id="edge1_Node000001_Node000002" class="edge">
<title>Node1&#45;&gt;Node2</title>
<g id="a_edge1_Node000001_Node000002"><a xlink:title=" ">
<path fill="none" stroke="#63b8ff" d="M137.84,-362.77C128.75,-353.87 117.99,-343.33 108.71,-334.25"/>
<polygon fill="#63b8ff" stroke="#63b8ff" points="110.94,-331.53 101.34,-327.04 106.04,-336.53 110.94,-331.53"/>
</a>
</g>
</g>
<!-- Node4 -->
<g id="Node000004" class="node">
<title>Node4</title>
<g id="a_Node000004"><a xlink:href="UdpChannel_8h.html" target="_top" xlink:title="UDP communication channel between the microcontroller and the HMI.">
<polygon fill="white" stroke="#666666" points="293,-321.5 199,-321.5 199,-302.5 293,-302.5 293,-321.5"/>
<text text-anchor="middle" x="246" y="-309.5" font-family="Helvetica,sans-Serif" font-size="10.00">../UdpChannel.h</text>
</a>
</g>
</g>
<!-- Node1&#45;&gt;Node4 -->
<g id="edge3_Node000001_Node000004" class="edge">
<title>Node1&#45;&gt;Node4</title>
<g id="a_edge3_Node000001_Node000004"><a xlink:title=" ">
<path fill="none" stroke="#63b8ff" d="M182.98,-362.77C196.85,-351.81 213.85,-338.39 226.69,-328.25"/>
<polygon fill="#63b8ff" stroke="#63b8ff" points="229.15,-330.76 234.83,-321.82 224.82,-325.27 229.15,-330.76"/>
</a>
</g>
</g>
<!-- Node3 -->
<g id="Node000003" class="node">
<title>Node3</title>
<g id="a_Node000003"><a xlink:title=" ">
<polygon fill="#e0e0e0" stroke="#999999" points="56,-19 0,-19 0,0 56,0 56,-19"/>
<text text-anchor="middle" x="28" y="-7" font-family="Helvetica,sans-Serif" font-size="10.00">QObject</text>
</a>
</g>
</g>
<!-- Node2&#45;&gt;Node3 -->
<g id="edge2_Node000002_Node000003" class="edge">
<title>Node2&#45;&gt;Node3</title>
<g id="a_edge2_Node000002_Node000003"><a xlink:title=" ">
<path fill="none" stroke="#63b8ff" d="M84.72,-296.71C81.5,-275.23 76,-233.33 76,-197.5 76,-197.5 76,-197.5 76,-135 76,-94.46 53.57,-51.17 39.38,-27.83"/>
<polygon fill="#63b8ff" stroke="#63b8ff" points="42.18,-25.71 33.89,-19.12 36.25,-29.44 42.18,-25.71"/>
</a>
</g>
</g>
<!-- Node4&#45;&gt;Node3 -->
<g id="edge4_Node000004_Node000003" class="edge">
<title>Node4&#45;&gt;Node3</title>
<g id="a_edge4_Node000004_Node000003"><a xlink:title=" ">
<path fill="none" stroke="#63b8ff" d="M225.97,-302.39C193.02,-286.73 131,-250.24 131,-197.5 131,-197.5 131,-197.5 131,-135 131,-85.43 81.92,-44.97 51.52,-24.66"/>
<polygon fill="#63b8ff" stroke="#63b8ff" points="53.06,-21.49 42.76,-19.02 49.27,-27.38 53.06,-21.49"/>
</a>
</g>
</g>
<!-- Node5 -->
<g id="Node000005" class="node">
<title>Node5</title>
<g id="a_Node000005"><a xlink:title=" ">
<polygon fill="#e0e0e0" stroke="#999999" points="285,-261 227,-261 227,-242 285,-242 285,-261"/>
<text text-anchor="middle" x="256" y="-249" font-family="Helvetica,sans-Serif" font-size="10.00">QThread</text>
</a>
</g>
</g>
<!-- Node4&#45;&gt;Node5 -->
<g id="edge5_Node000004_Node000005" class="edge">
<title>Node4&#45;&gt;Node5</title>
<g id="a_edge5_Node000004_Node000005"><a xlink:title=" ">
<path fill="none" stroke="#63b8ff" d="M247.48,-302.37C248.88,-294.16 251.04,-281.54 252.83,-271.05"/>
<polygon fill="#63b8ff" stroke="#63b8ff" points="256.28,-271.61 254.52,-261.17 249.38,-270.43 256.28,-271.61"/>
</a>
</g>
</g>
<!-- Node6 -->
<g id="Node000006" class="node">
<title>Node6</title>
<g id="a_Node000006"><a xlink:title=" ">
<polygon fill="#e0e0e0" stroke="#999999" points="379,-261 303,-261 303,-242 379,-242 379,-261"/>
<text text-anchor="middle" x="341" y="-249" font-family="Helvetica,sans-Serif" font-size="10.00">QUdpSocket</text>
</a>
</g>
</g>
<!-- Node4&#45;&gt;Node6 -->
<g id="edge6_Node000004_Node000006" class="edge">
<title>Node4&#45;&gt;Node6</title>
<g id="a_edge6_Node000004_Node000006"><a xlink:title=" ">
<path fill="none" stroke="#63b8ff" d="M260.02,-302.37C275.31,-292.95 300.03,-277.73 318.14,-266.58"/>
<polygon fill="#63b8ff" stroke="#63b8ff" points="320.25,-269.39 326.92,-261.17 316.57,-263.43 320.25,-269.39"/>
</a>
</g>
</g>
<!-- Node7 -->
<g id="Node000007" class="node">
<title>Node7</title>
<g id="a_Node000007"><a xlink:href="Messages_8h.html" target="_top" xlink:title=" ">
<polygon fill="white" stroke="#666666" points="270.5,-85 167.5,-85 167.5,-55 270.5,-55 270.5,-85"/>
<text text-anchor="start" x="175.5" y="-73" font-family="Helvetica,sans-Serif" font-size="10.00">src/core/Protocols</text>
<text text-anchor="middle" x="219" y="-62" font-family="Helvetica,sans-Serif" font-size="10.00">/Messages.h</text>
</a>
</g>
</g>
<!-- Node4&#45;&gt;Node7 -->
<g id="edge7_Node000004_Node000007" class="edge">
<title>Node4&#45;&gt;Node7</title>
<g id="a_edge7_Node000004_Node000007"><a xlink:title=" ">
<path fill="none" stroke="#63b8ff" d="M239.35,-302.39C232.45,-292.87 222.12,-276.79 218,-261 202.9,-203.15 209.69,-131.97 214.93,-95.34"/>
<polygon fill="#63b8ff" stroke="#63b8ff" points="218.44,-95.55 216.49,-85.13 211.52,-94.49 218.44,-95.55"/>
</a>
</g>
</g>
<!-- Node15 -->
<g id="Node000015" class="node">
<title>Node15</title>
<g id="a_Node000015"><a xlink:href="UdpLogger_8h.html" target="_top" xlink:title="High&#45;frequency binary logger for UDP telemetry frames.">
<polygon fill="white" stroke="#666666" points="601.5,-261 450.5,-261 450.5,-242 601.5,-242 601.5,-261"/>
<text text-anchor="middle" x="526" y="-249" font-family="Helvetica,sans-Serif" font-size="10.00">frames_logger/UdpLogger.h</text>
</a>
</g>
</g>
<!-- Node4&#45;&gt;Node15 -->
<g id="edge16_Node000004_Node000015" class="edge">
<title>Node4&#45;&gt;Node15</title>
<g id="a_edge16_Node000004_Node000015"><a xlink:title=" ">
<path fill="none" stroke="#63b8ff" d="M286.71,-302.49C336.59,-292.07 421.09,-274.42 475.18,-263.12"/>
<polygon fill="#63b8ff" stroke="#63b8ff" points="476.16,-266.49 485.24,-261.02 474.73,-259.64 476.16,-266.49"/>
</a>
</g>
</g>
<!-- Node7&#45;&gt;Node3 -->
<g id="edge14_Node000007_Node000003" class="edge">
<title>Node7&#45;&gt;Node3</title>
<g id="a_edge14_Node000007_Node000003"><a xlink:title=" ">
<path fill="none" stroke="#63b8ff" d="M173.25,-54.99C140.43,-44.94 96.73,-31.55 65.87,-22.1"/>
<polygon fill="#63b8ff" stroke="#63b8ff" points="66.51,-18.64 55.93,-19.05 64.46,-25.33 66.51,-18.64"/>
</a>
</g>
</g>
<!-- Node8 -->
<g id="Node000008" class="node">
<title>Node8</title>
<g id="a_Node000008"><a xlink:title=" ">
<polygon fill="#e0e0e0" stroke="#999999" points="125.5,-19 74.5,-19 74.5,0 125.5,0 125.5,-19"/>
<text text-anchor="middle" x="100" y="-7" font-family="Helvetica,sans-Serif" font-size="10.00">variant</text>
</a>
</g>
</g>
<!-- Node7&#45;&gt;Node8 -->
<g id="edge8_Node000007_Node000008" class="edge">
<title>Node7&#45;&gt;Node8</title>
<g id="a_edge8_Node000007_Node000008"><a xlink:title=" ">
<path fill="none" stroke="#63b8ff" d="M190.5,-54.99C171.09,-45.45 145.57,-32.9 126.58,-23.57"/>
<polygon fill="#63b8ff" stroke="#63b8ff" points="128.09,-20.41 117.57,-19.14 125,-26.69 128.09,-20.41"/>
</a>
</g>
</g>
<!-- Node9 -->
<g id="Node000009" class="node">
<title>Node9</title>
<g id="a_Node000009"><a xlink:title=" ">
<polygon fill="#e0e0e0" stroke="#999999" points="609,-19 559,-19 559,0 609,0 609,-19"/>
<text text-anchor="middle" x="584" y="-7" font-family="Helvetica,sans-Serif" font-size="10.00">cstdint</text>
</a>
</g>
</g>
<!-- Node7&#45;&gt;Node9 -->
<g id="edge9_Node000007_Node000009" class="edge">
<title>Node7&#45;&gt;Node9</title>
<g id="a_edge9_Node000007_Node000009"><a xlink:title=" ">
<path fill="none" stroke="#63b8ff" d="M270.52,-60.74C345.72,-48.69 483.64,-26.58 548.51,-16.19"/>
<polygon fill="#63b8ff" stroke="#63b8ff" points="549.32,-19.6 558.64,-14.56 548.21,-12.69 549.32,-19.6"/>
</a>
</g>
</g>
<!-- Node10 -->
<g id="Node000010" class="node">
<title>Node10</title>
<g id="a_Node000010"><a xlink:title=" ">
<polygon fill="#e0e0e0" stroke="#999999" points="480,-19 436,-19 436,0 480,0 480,-19"/>
<text text-anchor="middle" x="458" y="-7" font-family="Helvetica,sans-Serif" font-size="10.00">string</text>
</a>
</g>
</g>
<!-- Node7&#45;&gt;Node10 -->
<g id="edge10_Node000007_Node000010" class="edge">
<title>Node7&#45;&gt;Node10</title>
<g id="a_edge10_Node000007_Node000010"><a xlink:title=" ">
<path fill="none" stroke="#63b8ff" d="M270.83,-57.02C310.75,-47.69 367.57,-34.17 425.92,-19.22"/>
<polygon fill="#63b8ff" stroke="#63b8ff" points="426.86,-22.59 435.67,-16.71 425.11,-15.81 426.86,-22.59"/>
</a>
</g>
</g>
<!-- Node11 -->
<g id="Node000011" class="node">
<title>Node11</title>
<g id="a_Node000011"><a xlink:title=" ">
<polygon fill="#e0e0e0" stroke="#999999" points="216.5,-19 143.5,-19 143.5,0 216.5,0 216.5,-19"/>
<text text-anchor="middle" x="180" y="-7" font-family="Helvetica,sans-Serif" font-size="10.00">QByteArray</text>
</a>
</g>
</g>
<!-- Node7&#45;&gt;Node11 -->
<g id="edge11_Node000007_Node000011" class="edge">
<title>Node7&#45;&gt;Node11</title>
<g id="a_edge11_Node000007_Node000011"><a xlink:title=" ">
<path fill="none" stroke="#63b8ff" d="M209.56,-54.84C204.13,-46.69 197.27,-36.4 191.52,-27.78"/>
<polygon fill="#63b8ff" stroke="#63b8ff" points="194.3,-25.65 185.84,-19.27 188.48,-29.53 194.3,-25.65"/>
</a>
</g>
</g>
<!-- Node12 -->
<g id="Node000012" class="node">
<title>Node12</title>
<g id="a_Node000012"><a xlink:title=" ">
<polygon fill="#e0e0e0" stroke="#999999" points="283.5,-19 234.5,-19 234.5,0 283.5,0 283.5,-19"/>
<text text-anchor="middle" x="259" y="-7" font-family="Helvetica,sans-Serif" font-size="10.00">QHash</text>
</a>
</g>
</g>
<!-- Node7&#45;&gt;Node12 -->
<g id="edge12_Node000007_Node000012" class="edge">
<title>Node7&#45;&gt;Node12</title>
<g id="a_edge12_Node000007_Node000012"><a xlink:title=" ">
<path fill="none" stroke="#63b8ff" d="M228.68,-54.84C234.25,-46.69 241.29,-36.4 247.18,-27.78"/>
<polygon fill="#63b8ff" stroke="#63b8ff" points="250.25,-29.5 253.01,-19.27 244.47,-25.55 250.25,-29.5"/>
</a>
</g>
</g>
<!-- Node13 -->
<g id="Node000013" class="node">
<title>Node13</title>
<g id="a_Node000013"><a xlink:title=" ">
<polygon fill="#e0e0e0" stroke="#999999" points="354.5,-19 301.5,-19 301.5,0 354.5,0 354.5,-19"/>
<text text-anchor="middle" x="328" y="-7" font-family="Helvetica,sans-Serif" font-size="10.00">QString</text>
</a>
</g>
</g>
<!-- Node7&#45;&gt;Node13 -->
<g id="edge13_Node000007_Node000013" class="edge">
<title>Node7&#45;&gt;Node13</title>
<g id="a_edge13_Node000007_Node000013"><a xlink:title=" ">
<path fill="none" stroke="#63b8ff" d="M245.11,-54.99C262.64,-45.58 285.62,-33.24 302.94,-23.95"/>
<polygon fill="#63b8ff" stroke="#63b8ff" points="304.75,-26.95 311.9,-19.14 301.44,-20.78 304.75,-26.95"/>
</a>
</g>
</g>
<!-- Node14 -->
<g id="Node000014" class="node">
<title>Node14</title>
<g id="a_Node000014"><a xlink:title=" ">
<polygon fill="#e0e0e0" stroke="#999999" points="417.5,-19 372.5,-19 372.5,0 417.5,0 417.5,-19"/>
<text text-anchor="middle" x="395" y="-7" font-family="Helvetica,sans-Serif" font-size="10.00">QMap</text>
</a>
</g>
</g>
<!-- Node7&#45;&gt;Node14 -->
<g id="edge15_Node000007_Node000014" class="edge">
<title>Node7&#45;&gt;Node14</title>
<g id="a_edge15_Node000007_Node000014"><a xlink:title=" ">
<path fill="none" stroke="#63b8ff" d="M261.16,-54.99C292.27,-44.65 333.99,-30.78 362.53,-21.29"/>
<polygon fill="#63b8ff" stroke="#63b8ff" points="363.65,-24.61 372.03,-18.13 361.44,-17.97 363.65,-24.61"/>
</a>
</g>
</g>
<!-- Node15&#45;&gt;Node9 -->
<g id="edge18_Node000015_Node000009" class="edge">
<title>Node15&#45;&gt;Node9</title>
<g id="a_edge18_Node000015_Node000009"><a xlink:title=" ">
<path fill="none" stroke="#63b8ff" d="M601.67,-248.4C671.36,-241.94 771.12,-220.21 820,-151 875.42,-72.54 697.47,-30.56 619.12,-16.23"/>
<polygon fill="#63b8ff" stroke="#63b8ff" points="619.66,-12.77 609.2,-14.47 618.44,-19.66 619.66,-12.77"/>
</a>
</g>
</g>
<!-- Node16 -->
<g id="Node000016" class="node">
<title>Node16</title>
<g id="a_Node000016"><a xlink:title=" ">
<polygon fill="#e0e0e0" stroke="#999999" points="617,-145.5 567,-145.5 567,-126.5 617,-126.5 617,-145.5"/>
<text text-anchor="middle" x="592" y="-133.5" font-family="Helvetica,sans-Serif" font-size="10.00">atomic</text>
</a>
</g>
</g>
<!-- Node15&#45;&gt;Node16 -->
<g id="edge17_Node000015_Node000016" class="edge">
<title>Node15&#45;&gt;Node16</title>
<g id="a_edge17_Node000015_Node000016"><a xlink:title=" ">
<path fill="none" stroke="#63b8ff" d="M530.96,-241.97C541.76,-223.4 567.57,-179.01 581.93,-154.32"/>
<polygon fill="#63b8ff" stroke="#63b8ff" points="584.98,-156.03 586.98,-145.63 578.93,-152.52 584.98,-156.03"/>
</a>
</g>
</g>
<!-- Node17 -->
<g id="Node000017" class="node">
<title>Node17</title>
<g id="a_Node000017"><a xlink:title=" ">
<polygon fill="#e0e0e0" stroke="#999999" points="524,-206 476,-206 476,-187 524,-187 524,-206"/>
<text text-anchor="middle" x="500" y="-194" font-family="Helvetica,sans-Serif" font-size="10.00">thread</text>
</a>
</g>
</g>
<!-- Node15&#45;&gt;Node17 -->
<g id="edge19_Node000015_Node000017" class="edge">
<title>Node15&#45;&gt;Node17</title>
<g id="a_edge19_Node000015_Node000017"><a xlink:title=" ">
<path fill="none" stroke="#63b8ff" d="M521.71,-241.75C518.19,-234.57 513.09,-224.18 508.72,-215.27"/>
<polygon fill="#63b8ff" stroke="#63b8ff" points="511.76,-213.53 504.21,-206.09 505.48,-216.61 511.76,-213.53"/>
</a>
</g>
</g>
<!-- Node18 -->
<g id="Node000018" class="node">
<title>Node18</title>
<g id="a_Node000018"><a xlink:href="RingBuffer_8h.html" target="_top" xlink:title=" ">
<polygon fill="white" stroke="#666666" points="656,-206 580,-206 580,-187 656,-187 656,-206"/>
<text text-anchor="middle" x="618" y="-194" font-family="Helvetica,sans-Serif" font-size="10.00">RingBuffer.h</text>
</a>
</g>
</g>
<!-- Node15&#45;&gt;Node18 -->
<g id="edge20_Node000015_Node000018" class="edge">
<title>Node15&#45;&gt;Node18</title>
<g id="a_edge20_Node000015_Node000018"><a xlink:title=" ">
<path fill="none" stroke="#63b8ff" d="M540.78,-241.98C555.18,-233.69 577.31,-220.94 594.19,-211.22"/>
<polygon fill="#63b8ff" stroke="#63b8ff" points="596.03,-214.19 602.95,-206.17 592.54,-208.13 596.03,-214.19"/>
</a>
</g>
</g>
<!-- Node24 -->
<g id="Node000024" class="node">
<title>Node24</title>
<g id="a_Node000024"><a xlink:href="Writer_8h.html" target="_top" xlink:title=" ">
<polygon fill="white" stroke="#666666" points="420.5,-206 365.5,-206 365.5,-187 420.5,-187 420.5,-206"/>
<text text-anchor="middle" x="393" y="-194" font-family="Helvetica,sans-Serif" font-size="10.00">Writer.h</text>
</a>
</g>
</g>
<!-- Node15&#45;&gt;Node24 -->
<g id="edge29_Node000015_Node000024" class="edge">
<title>Node15&#45;&gt;Node24</title>
<g id="a_edge29_Node000015_Node000024"><a xlink:title=" ">
<path fill="none" stroke="#63b8ff" d="M504.63,-241.98C482.85,-233.3 448.84,-219.75 424.08,-209.88"/>
<polygon fill="#63b8ff" stroke="#63b8ff" points="425.34,-206.62 414.76,-206.17 422.75,-213.12 425.34,-206.62"/>
</a>
</g>
</g>
<!-- Node18&#45;&gt;Node9 -->
<g id="edge22_Node000018_Node000009" class="edge">
<title>Node18&#45;&gt;Node9</title>
<g id="a_edge22_Node000018_Node000009"><a xlink:title=" ">
<path fill="none" stroke="#63b8ff" d="M620.57,-186.72C624.3,-172.73 630.32,-144.54 626,-121 619.72,-86.83 603.38,-49.53 593.03,-28.18"/>
<polygon fill="#63b8ff" stroke="#63b8ff" points="596.09,-26.46 588.5,-19.07 589.82,-29.58 596.09,-26.46"/>
</a>
</g>
</g>
<!-- Node18&#45;&gt;Node16 -->
<g id="edge24_Node000018_Node000016" class="edge">
<title>Node18&#45;&gt;Node16</title>
<g id="a_edge24_Node000018_Node000016"><a xlink:title=" ">
<path fill="none" stroke="#63b8ff" d="M614.16,-186.87C610.44,-178.49 604.67,-165.51 599.95,-154.89"/>
<polygon fill="#63b8ff" stroke="#63b8ff" points="603.11,-153.38 595.85,-145.67 596.72,-156.23 603.11,-153.38"/>
</a>
</g>
</g>
<!-- Node19 -->
<g id="Node000019" class="node">
<title>Node19</title>
<g id="a_Node000019"><a xlink:title=" ">
<polygon fill="#e0e0e0" stroke="#999999" points="811,-145.5 755,-145.5 755,-126.5 811,-126.5 811,-145.5"/>
<text text-anchor="middle" x="783" y="-133.5" font-family="Helvetica,sans-Serif" font-size="10.00">QDebug</text>
</a>
</g>
</g>
<!-- Node18&#45;&gt;Node19 -->
<g id="edge21_Node000018_Node000019" class="edge">
<title>Node18&#45;&gt;Node19</title>
<g id="a_edge21_Node000018_Node000019"><a xlink:title=" ">
<path fill="none" stroke="#63b8ff" d="M643.57,-186.84C669.46,-178.01 710.62,-163.84 746,-151 747.64,-150.4 749.32,-149.79 751.02,-149.16"/>
<polygon fill="#63b8ff" stroke="#63b8ff" points="752.59,-152.31 760.73,-145.54 750.14,-145.76 752.59,-152.31"/>
</a>
</g>
</g>
<!-- Node20 -->
<g id="Node000020" class="node">
<title>Node20</title>
<g id="a_Node000020"><a xlink:title=" ">
<polygon fill="#e0e0e0" stroke="#999999" points="420.5,-145.5 365.5,-145.5 365.5,-126.5 420.5,-126.5 420.5,-145.5"/>
<text text-anchor="middle" x="393" y="-133.5" font-family="Helvetica,sans-Serif" font-size="10.00">fstream</text>
</a>
</g>
</g>
<!-- Node18&#45;&gt;Node20 -->
<g id="edge23_Node000018_Node000020" class="edge">
<title>Node18&#45;&gt;Node20</title>
<g id="a_edge23_Node000018_Node000020"><a xlink:title=" ">
<path fill="none" stroke="#63b8ff" d="M579.8,-187.97C541.54,-180.08 481.15,-166.66 430,-151 428.08,-150.41 426.11,-149.78 424.14,-149.11"/>
<polygon fill="#63b8ff" stroke="#63b8ff" points="424.95,-145.68 414.36,-145.62 422.6,-152.28 424.95,-145.68"/>
</a>
</g>
</g>
<!-- Node21 -->
<g id="Node000021" class="node">
<title>Node21</title>
<g id="a_Node000021"><a xlink:title=" ">
<polygon fill="#e0e0e0" stroke="#999999" points="737,-145.5 673,-145.5 673,-126.5 737,-126.5 737,-145.5"/>
<text text-anchor="middle" x="705" y="-133.5" font-family="Helvetica,sans-Serif" font-size="10.00">algorithm</text>
</a>
</g>
</g>
<!-- Node18&#45;&gt;Node21 -->
<g id="edge25_Node000018_Node000021" class="edge">
<title>Node18&#45;&gt;Node21</title>
<g id="a_edge25_Node000018_Node000021"><a xlink:title=" ">
<path fill="none" stroke="#63b8ff" d="M630.84,-186.87C644.72,-177.54 667.07,-162.51 683.61,-151.38"/>
<polygon fill="#63b8ff" stroke="#63b8ff" points="685.76,-154.15 692.11,-145.67 681.86,-148.34 685.76,-154.15"/>
</a>
</g>
</g>
<!-- Node22 -->
<g id="Node000022" class="node">
<title>Node22</title>
<g id="a_Node000022"><a xlink:href="Logger_8h.html" target="_top" xlink:title="Tool that provide the ability to display and log errors and debug messages.">
<polygon fill="white" stroke="#666666" points="549,-151 439,-151 439,-121 549,-121 549,-151"/>
<text text-anchor="start" x="447" y="-139" font-family="Helvetica,sans-Serif" font-size="10.00">src/services/Logger</text>
<text text-anchor="middle" x="494" y="-128" font-family="Helvetica,sans-Serif" font-size="10.00">/Logger.h</text>
</a>
</g>
</g>
<!-- Node18&#45;&gt;Node22 -->
<g id="edge26_Node000018_Node000022" class="edge">
<title>Node18&#45;&gt;Node22</title>
<g id="a_edge26_Node000018_Node000022"><a xlink:title=" ">
<path fill="none" stroke="#63b8ff" d="M599.97,-186.99C582.57,-178.79 555.66,-166.09 533.31,-155.55"/>
<polygon fill="#63b8ff" stroke="#63b8ff" points="534.59,-152.28 524.05,-151.18 531.6,-158.61 534.59,-152.28"/>
</a>
</g>
</g>
<!-- Node22&#45;&gt;Node7 -->
<g id="edge28_Node000022_Node000007" class="edge">
<title>Node22&#45;&gt;Node7</title>
<g id="a_edge28_Node000022_Node000007"><a xlink:title=" ">
<path fill="none" stroke="#63b8ff" d="M438.68,-122.13C392.85,-111.46 327.77,-96.31 280.35,-85.28"/>
<polygon fill="#63b8ff" stroke="#63b8ff" points="281.05,-81.85 270.51,-82.99 279.46,-88.66 281.05,-81.85"/>
</a>
</g>
</g>
<!-- Node23 -->
<g id="Node000023" class="node">
<title>Node23</title>
<g id="a_Node000023"><a xlink:title=" ">
<polygon fill="#e0e0e0" stroke="#999999" points="523.5,-79.5 464.5,-79.5 464.5,-60.5 523.5,-60.5 523.5,-79.5"/>
<text text-anchor="middle" x="494" y="-67.5" font-family="Helvetica,sans-Serif" font-size="10.00">QWidget</text>
</a>
</g>
</g>
<!-- Node22&#45;&gt;Node23 -->
<g id="edge27_Node000022_Node000023" class="edge">
<title>Node22&#45;&gt;Node23</title>
<g id="a_edge27_Node000022_Node000023"><a xlink:title=" ">
<path fill="none" stroke="#63b8ff" d="M494,-120.8C494,-111.7 494,-99.79 494,-89.9"/>
<polygon fill="#63b8ff" stroke="#63b8ff" points="497.5,-89.84 494,-79.84 490.5,-89.84 497.5,-89.84"/>
</a>
</g>
</g>
<!-- Node24&#45;&gt;Node9 -->
<g id="edge30_Node000024_Node000009" class="edge">
<title>Node24&#45;&gt;Node9</title>
<g id="a_edge30_Node000024_Node000009"><a xlink:title=" ">
<path fill="none" stroke="#63b8ff" d="M383.1,-186.67C368.58,-172.6 344.53,-144.3 357,-121 394.91,-50.17 494.89,-24.12 548.63,-15.04"/>
<polygon fill="#63b8ff" stroke="#63b8ff" points="549.4,-18.46 558.73,-13.44 548.31,-11.55 549.4,-18.46"/>
</a>
</g>
</g>
<!-- Node24&#45;&gt;Node10 -->
<g id="edge32_Node000024_Node000010" class="edge">
<title>Node24&#45;&gt;Node10</title>
<g id="a_edge32_Node000024_Node000010"><a xlink:title=" ">
<path fill="none" stroke="#63b8ff" d="M368.19,-186.95C352.16,-179.99 332.57,-168.42 323,-151 302.46,-113.6 297.99,-89.57 323,-55 326.14,-50.66 387.03,-31.77 425.95,-20.04"/>
<polygon fill="#63b8ff" stroke="#63b8ff" points="427.23,-23.31 435.8,-17.08 425.22,-16.6 427.23,-23.31"/>
</a>
</g>
</g>
<!-- Node24&#45;&gt;Node20 -->
<g id="edge31_Node000024_Node000020" class="edge">
<title>Node24&#45;&gt;Node20</title>
<g id="a_edge31_Node000024_Node000020"><a xlink:title=" ">
<path fill="none" stroke="#63b8ff" d="M393,-186.87C393,-178.75 393,-166.31 393,-155.89"/>
<polygon fill="#63b8ff" stroke="#63b8ff" points="396.5,-155.67 393,-145.67 389.5,-155.67 396.5,-155.67"/>
</a>
</g>
</g>
<!-- Node24&#45;&gt;Node22 -->
<g id="edge33_Node000024_Node000022" class="edge">
<title>Node24&#45;&gt;Node22</title>
<g id="a_edge33_Node000024_Node000022"><a xlink:title=" ">
<path fill="none" stroke="#63b8ff" d="M407.9,-186.87C421.73,-178.86 442.81,-166.65 460.65,-156.31"/>
<polygon fill="#63b8ff" stroke="#63b8ff" points="462.73,-159.16 469.63,-151.11 459.22,-153.1 462.73,-159.16"/>
</a>
</g>
</g>
</g>
</svg>

<g id="navigator" transform="translate(0 0)" fill="#404254">
  <rect fill="#f2f5e9" fill-opacity="0.5" stroke="#606060" stroke-width=".5" x="0" y="0" width="60" height="60"/>
  <use id="zoomplus" xlink:href="#zoomPlus" x="17" y="9" onmousedown="handleZoom(evt,'in')"/>
  <use id="zoomminus" xlink:href="#zoomMin" x="42" y="9" onmousedown="handleZoom(evt,'out')"/>
  <use id="reset" xlink:href="#resetDef" x="30" y="36" onmousedown="handleReset()"/>
   <use id="arrowup" xlink:href="#arrowUp" x="0" y="0" onmousedown="handlePan(0,-1)"/>
  <use id="arrowright" xlink:href="#arrowRight" x="0" y="0" onmousedown="handlePan(1,0)"/>
  <use id="arrowdown" xlink:href="#arrowDown" x="0" y="0" onmousedown="handlePan(0,1)"/>
  <use id="arrowleft" xlink:href="#arrowLeft" x="0" y="0" onmousedown="handlePan(-1,0)"/>
</g>
<svg viewBox="0 0 15 15" width="100%" height="30px" preserveAspectRatio="xMaxYMin meet">
 <g id="arrow_out" transform="scale(0.3 0.3)">
  <a xlink:href="UdpChannelParametersViewModel_8cpp__incl_org.svg" target="_base">
   <rect id="button" ry="5" rx="5" y="6" x="6" height="38" width="38"
        fill="#f2f5e9" fill-opacity="0.5" stroke="#606060" stroke-width="1.0"/>
   <path id="arrow"
     d="M 11.500037,31.436501 C 11.940474,20.09759 22.043105,11.32322 32.158766,21.979434 L 37.068811,17.246167 C 37.068811,17.246167 37.088388,32 37.088388,32 L 22.160133,31.978069 C 22.160133,31.978069 26.997745,27.140456 26.997745,27.140456 C 18.528582,18.264221 13.291696,25.230495 11.500037,31.436501 z"
     style="fill:#404040;"/>
  </a>
 </g>
</svg>

<style type='text/css'>
<![CDATA[
[data-mouse-over-selected='false'] { opacity: 0.7; }
[data-mouse-over-selected='true']  { opacity: 1.0; }
]]>
</style>
<script type="application/ecmascript"><![CDATA[
document.addEventListener('DOMContentLoaded', (event) => {
  highlightEdges();
  highlightAdjacentNodes();
});
]]></script>
</svg>
