<?xml version="1.0" encoding="UTF-8" standalone="no"?>
<!DOCTYPE svg PUBLIC "-//W3C//DTD SVG 1.1//EN"
 "http://www.w3.org/Graphics/SVG/1.1/DTD/svg11.dtd">
<!-- Generated by graphviz version 2.43.0 (0)
 -->
<!-- Title: features/communication/udp/frames_logger/UdpLogger.h Pages: 1 -->
<!--zoomable 280 -->

<svg id="main" version="1.1" xmlns="http://www.w3.org/2000/svg" xmlns:xlink="http://www.w3.org/1999/xlink" xml:space="preserve" onload="init(evt)">
<style type="text/css"><![CDATA[
.node, .edge {opacity: 0.7;}
.node.selected, .edge.selected {opacity: 1;}
.edge:hover path { stroke: red; }
.edge:hover polygon { stroke: red; fill: red; }
]]></style>

<defs>
  <circle id="rim" cx="0" cy="0" r="7"/>
  <circle id="rim2" cx="0" cy="0" r="3.5"/>
  <g id="zoomPlus">
    <use xlink:href="#rim" fill="#404040"><set attributeName="fill" to="#808080" begin="zoomplus.mouseover" end="zoomplus.mouseout"/></use>
    <path d="M-4,0h8M0,-4v8" fill="none" stroke="white" stroke-width="1.5" pointer-events="none"/>
  </g>
  <g id="zoomMin">
    <use xlink:href="#rim" fill="#404040"><set attributeName="fill" to="#808080" begin="zoomminus.mouseover" end="zoomminus.mouseout"/></use>
    <path d="M-4,0h8" fill="none" stroke="white" stroke-width="1.5" pointer-events="none"/>
  </g>
  <g id="arrowUp" transform="translate(30 24)">
    <use xlink:href="#rim"/>
    <path pointer-events="none" fill="none" stroke="white" stroke-width="1.5" d="M0,-3.0v7 M-2.5,-0.5L0,-3.0L2.5,-0.5"/>
  </g>
  <g id="arrowRight" transform="rotate(90) translate(36 -43)">
    <use xlink:href="#rim"/>
    <path pointer-events="none" fill="none" stroke="white" stroke-width="1.5" d="M0,-3.0v7 M-2.5,-0.5L0,-3.0L2.5,-0.5"/>
  </g>
  <g id="arrowDown" transform="rotate(180) translate(-30 -48)">
    <use xlink:href="#rim"/>
    <path pointer-events="none" fill="none" stroke="white" stroke-width="1.5" d="M0,-3.0v7 M-2.5,-0.5L0,-3.0L2.5,-0.5"/>
  </g>
  <g id="arrowLeft" transform="rotate(270) translate(-36 17)">
    <use xlink:href="#rim"/>
    <path pointer-events="none" fill="none" stroke="white" stroke-width="1.5" d="M0,-3.0v7 M-2.5,-0.5L0,-3.0L2.5,-0.5"/>
  </g>
  <g id="resetDef">
    <use xlink:href="#rim2" fill="#404040"><set attributeName="fill" to="#808080" begin="reset.mouseover" end="reset.mouseout"/></use>
  </g>
</defs>
<script type="application/ecmascript">
var viewWidth = 839;
var viewHeight = 280;
var sectionId = 'dynsection-0';
</script>
<script type="application/ecmascript" xlink:href="svg.min.js"/>
<svg id="graph" class="graph">
<g id="viewport">
<title>features/communication/udp/frames_logger/UdpLogger.h</title>
<!-- Node1 -->
<g id="Node000001" class="node">
<title>Node1</title>
<g id="a_Node000001"><a xlink:title=" ">
<polygon fill="#999999" stroke="#666666" points="668.5,-272 493.5,-272 493.5,-242 668.5,-242 668.5,-272"/>
<text text-anchor="start" x="501.5" y="-260" font-family="Helvetica,sans-Serif" font-size="10.00">features/communication</text>
<text text-anchor="middle" x="581" y="-249" font-family="Helvetica,sans-Serif" font-size="10.00">/udp/frames_logger/UdpLogger.h</text>
</a>
</g>
</g>
<!-- Node2 -->
<g id="Node000002" class="node">
<title>Node2</title>
<g id="a_Node000002"><a xlink:href="RingBuffer_8h.html" target="_top" xlink:title=" ">
<polygon fill="white" stroke="#666666" points="351,-206 275,-206 275,-187 351,-187 351,-206"/>
<text text-anchor="middle" x="313" y="-194" font-family="Helvetica,sans-Serif" font-size="10.00">RingBuffer.h</text>
</a>
</g>
</g>
<!-- Node1&#45;&gt;Node2 -->
<g id="edge1_Node000001_Node000002" class="edge">
<title>Node1&#45;&gt;Node2</title>
<g id="a_edge1_Node000001_Node000002"><a xlink:title=" ">
<path fill="none" stroke="#63b8ff" d="M516.81,-241.99C468.92,-231.54 404.54,-217.48 361.05,-207.99"/>
<polygon fill="#63b8ff" stroke="#63b8ff" points="361.53,-204.51 351.02,-205.8 360.04,-211.35 361.53,-204.51"/>
</a>
</g>
</g>
<!-- Node4 -->
<g id="Node000004" class="node">
<title>Node4</title>
<g id="a_Node000004"><a xlink:title=" ">
<polygon fill="#e0e0e0" stroke="#999999" points="606,-19 556,-19 556,0 606,0 606,-19"/>
<text text-anchor="middle" x="581" y="-7" font-family="Helvetica,sans-Serif" font-size="10.00">cstdint</text>
</a>
</g>
</g>
<!-- Node1&#45;&gt;Node4 -->
<g id="edge24_Node000001_Node000004" class="edge">
<title>Node1&#45;&gt;Node4</title>
<g id="a_edge24_Node000001_Node000004"><a xlink:title=" ">
<path fill="none" stroke="#63b8ff" d="M584.25,-241.65C586.34,-231.7 588.87,-218.12 590,-206 596.24,-139.18 598.4,-121.7 591,-55 590.04,-46.34 588.06,-36.91 586.11,-28.97"/>
<polygon fill="#63b8ff" stroke="#63b8ff" points="589.49,-28.06 583.57,-19.27 582.72,-29.83 589.49,-28.06"/>
</a>
</g>
</g>
<!-- Node6 -->
<g id="Node000006" class="node">
<title>Node6</title>
<g id="a_Node000006"><a xlink:title=" ">
<polygon fill="#e0e0e0" stroke="#999999" points="129,-145.5 79,-145.5 79,-126.5 129,-126.5 129,-145.5"/>
<text text-anchor="middle" x="104" y="-133.5" font-family="Helvetica,sans-Serif" font-size="10.00">atomic</text>
</a>
</g>
</g>
<!-- Node1&#45;&gt;Node6 -->
<g id="edge23_Node000001_Node000006" class="edge">
<title>Node1&#45;&gt;Node6</title>
<g id="a_edge23_Node000001_Node000006"><a xlink:title=" ">
<path fill="none" stroke="#63b8ff" d="M493.18,-247.9C429.28,-240.6 341.17,-227.62 266,-206 216.16,-191.67 161.24,-166.03 129.85,-150.37"/>
<polygon fill="#63b8ff" stroke="#63b8ff" points="131.03,-147.04 120.53,-145.66 127.88,-153.29 131.03,-147.04"/>
</a>
</g>
</g>
<!-- Node8 -->
<g id="Node000008" class="node">
<title>Node8</title>
<g id="a_Node000008"><a xlink:href="Logger_8h.html" target="_top" xlink:title=" ">
<polygon fill="white" stroke="#666666" points="525,-151 415,-151 415,-121 525,-121 525,-151"/>
<text text-anchor="start" x="423" y="-139" font-family="Helvetica,sans-Serif" font-size="10.00">src/services/Logger</text>
<text text-anchor="middle" x="470" y="-128" font-family="Helvetica,sans-Serif" font-size="10.00">/Logger.h</text>
</a>
</g>
</g>
<!-- Node1&#45;&gt;Node8 -->
<g id="edge28_Node000001_Node000008" class="edge">
<title>Node1&#45;&gt;Node8</title>
<g id="a_edge28_Node000001_Node000008"><a xlink:title=" ">
<path fill="none" stroke="#63b8ff" d="M559.75,-241.94C546.59,-232.65 529.82,-219.69 517,-206 503.83,-191.94 491.67,-173.89 483.02,-159.77"/>
<polygon fill="#63b8ff" stroke="#63b8ff" points="486,-157.93 477.86,-151.15 479.99,-161.53 486,-157.93"/>
</a>
</g>
</g>
<!-- Node18 -->
<g id="Node000018" class="node">
<title>Node18</title>
<g id="a_Node000018"><a xlink:href="Writer_8h.html" target="_top" xlink:title=" ">
<polygon fill="white" stroke="#666666" points="580.5,-206 525.5,-206 525.5,-187 580.5,-187 580.5,-206"/>
<text text-anchor="middle" x="553" y="-194" font-family="Helvetica,sans-Serif" font-size="10.00">Writer.h</text>
</a>
</g>
</g>
<!-- Node1&#45;&gt;Node18 -->
<g id="edge18_Node000001_Node000018" class="edge">
<title>Node1&#45;&gt;Node18</title>
<g id="a_edge18_Node000001_Node000018"><a xlink:title=" ">
<path fill="none" stroke="#63b8ff" d="M574.22,-241.84C570.41,-233.87 565.61,-223.84 561.54,-215.33"/>
<polygon fill="#63b8ff" stroke="#63b8ff" points="564.67,-213.77 557.2,-206.27 558.36,-216.8 564.67,-213.77"/>
</a>
</g>
</g>
<!-- Node19 -->
<g id="Node000019" class="node">
<title>Node19</title>
<g id="a_Node000019"><a xlink:title=" ">
<polygon fill="#e0e0e0" stroke="#999999" points="695,-206 647,-206 647,-187 695,-187 695,-206"/>
<text text-anchor="middle" x="671" y="-194" font-family="Helvetica,sans-Serif" font-size="10.00">thread</text>
</a>
</g>
</g>
<!-- Node1&#45;&gt;Node19 -->
<g id="edge25_Node000001_Node000019" class="edge">
<title>Node1&#45;&gt;Node19</title>
<g id="a_edge25_Node000001_Node000019"><a xlink:title=" ">
<path fill="none" stroke="#63b8ff" d="M602.79,-241.84C616.87,-232.68 635.13,-220.82 649.21,-211.66"/>
<polygon fill="#63b8ff" stroke="#63b8ff" points="651.3,-214.48 657.78,-206.09 647.49,-208.61 651.3,-214.48"/>
</a>
</g>
</g>
<!-- Node20 -->
<g id="Node000020" class="node">
<title>Node20</title>
<g id="a_Node000020"><a xlink:title=" ">
<polygon fill="#e0e0e0" stroke="#999999" points="763,-206 713,-206 713,-187 763,-187 763,-206"/>
<text text-anchor="middle" x="738" y="-194" font-family="Helvetica,sans-Serif" font-size="10.00">chrono</text>
</a>
</g>
</g>
<!-- Node1&#45;&gt;Node20 -->
<g id="edge26_Node000001_Node000020" class="edge">
<title>Node1&#45;&gt;Node20</title>
<g id="a_edge26_Node000001_Node000020"><a xlink:title=" ">
<path fill="none" stroke="#63b8ff" d="M618.61,-241.99C645.03,-232.14 680.04,-219.1 705.31,-209.68"/>
<polygon fill="#63b8ff" stroke="#63b8ff" points="706.67,-212.91 714.81,-206.14 704.22,-206.35 706.67,-212.91"/>
</a>
</g>
</g>
<!-- Node21 -->
<g id="Node000021" class="node">
<title>Node21</title>
<g id="a_Node000021"><a xlink:title=" ">
<polygon fill="#e0e0e0" stroke="#999999" points="831,-206 781,-206 781,-187 831,-187 831,-206"/>
<text text-anchor="middle" x="806" y="-194" font-family="Helvetica,sans-Serif" font-size="10.00">format</text>
</a>
</g>
</g>
<!-- Node1&#45;&gt;Node21 -->
<g id="edge27_Node000001_Node000021" class="edge">
<title>Node1&#45;&gt;Node21</title>
<g id="a_edge27_Node000001_Node000021"><a xlink:title=" ">
<path fill="none" stroke="#63b8ff" d="M634.89,-241.99C677.02,-231.04 734.35,-216.13 770.78,-206.66"/>
<polygon fill="#63b8ff" stroke="#63b8ff" points="772.12,-209.93 780.92,-204.02 770.36,-203.15 772.12,-209.93"/>
</a>
</g>
</g>
<!-- Node3 -->
<g id="Node000003" class="node">
<title>Node3</title>
<g id="a_Node000003"><a xlink:title=" ">
<polygon fill="#e0e0e0" stroke="#999999" points="203,-145.5 147,-145.5 147,-126.5 203,-126.5 203,-145.5"/>
<text text-anchor="middle" x="175" y="-133.5" font-family="Helvetica,sans-Serif" font-size="10.00">QDebug</text>
</a>
</g>
</g>
<!-- Node2&#45;&gt;Node3 -->
<g id="edge2_Node000002_Node000003" class="edge">
<title>Node2&#45;&gt;Node3</title>
<g id="a_edge2_Node000002_Node000003"><a xlink:title=" ">
<path fill="none" stroke="#63b8ff" d="M292.93,-186.99C269.63,-177.12 230.99,-160.73 204.32,-149.43"/>
<polygon fill="#63b8ff" stroke="#63b8ff" points="205.66,-146.2 195.09,-145.52 202.93,-152.64 205.66,-146.2"/>
</a>
</g>
</g>
<!-- Node2&#45;&gt;Node4 -->
<g id="edge3_Node000002_Node000004" class="edge">
<title>Node2&#45;&gt;Node4</title>
<g id="a_edge3_Node000002_Node000004"><a xlink:title=" ">
<path fill="none" stroke="#63b8ff" d="M313.38,-186.85C314.41,-172.04 318.32,-141.45 333,-121 363.83,-78.04 384.14,-77.48 432,-55 469.32,-37.47 515.15,-25.02 546.04,-17.82"/>
<polygon fill="#63b8ff" stroke="#63b8ff" points="546.94,-21.21 555.92,-15.59 545.39,-14.38 546.94,-21.21"/>
</a>
</g>
</g>
<!-- Node5 -->
<g id="Node000005" class="node">
<title>Node5</title>
<g id="a_Node000005"><a xlink:title=" ">
<polygon fill="#e0e0e0" stroke="#999999" points="396.5,-145.5 341.5,-145.5 341.5,-126.5 396.5,-126.5 396.5,-145.5"/>
<text text-anchor="middle" x="369" y="-133.5" font-family="Helvetica,sans-Serif" font-size="10.00">fstream</text>
</a>
</g>
</g>
<!-- Node2&#45;&gt;Node5 -->
<g id="edge4_Node000002_Node000005" class="edge">
<title>Node2&#45;&gt;Node5</title>
<g id="a_edge4_Node000002_Node000005"><a xlink:title=" ">
<path fill="none" stroke="#63b8ff" d="M321.26,-186.87C329.78,-177.97 343.26,-163.89 353.73,-152.95"/>
<polygon fill="#63b8ff" stroke="#63b8ff" points="356.32,-155.31 360.7,-145.67 351.26,-150.47 356.32,-155.31"/>
</a>
</g>
</g>
<!-- Node2&#45;&gt;Node6 -->
<g id="edge5_Node000002_Node000006" class="edge">
<title>Node2&#45;&gt;Node6</title>
<g id="a_edge5_Node000002_Node000006"><a xlink:title=" ">
<path fill="none" stroke="#63b8ff" d="M274.66,-187.4C238.9,-179.45 184.28,-166.33 138,-151 136.38,-150.46 134.72,-149.88 133.05,-149.28"/>
<polygon fill="#63b8ff" stroke="#63b8ff" points="134.19,-145.96 123.6,-145.62 131.66,-152.49 134.19,-145.96"/>
</a>
</g>
</g>
<!-- Node7 -->
<g id="Node000007" class="node">
<title>Node7</title>
<g id="a_Node000007"><a xlink:title=" ">
<polygon fill="#e0e0e0" stroke="#999999" points="285,-145.5 221,-145.5 221,-126.5 285,-126.5 285,-145.5"/>
<text text-anchor="middle" x="253" y="-133.5" font-family="Helvetica,sans-Serif" font-size="10.00">algorithm</text>
</a>
</g>
</g>
<!-- Node2&#45;&gt;Node7 -->
<g id="edge6_Node000002_Node000007" class="edge">
<title>Node2&#45;&gt;Node7</title>
<g id="a_edge6_Node000002_Node000007"><a xlink:title=" ">
<path fill="none" stroke="#63b8ff" d="M304.15,-186.87C295.02,-177.97 280.58,-163.89 269.36,-152.95"/>
<polygon fill="#63b8ff" stroke="#63b8ff" points="271.49,-150.14 261.89,-145.67 266.61,-155.15 271.49,-150.14"/>
</a>
</g>
</g>
<!-- Node2&#45;&gt;Node8 -->
<g id="edge7_Node000002_Node000008" class="edge">
<title>Node2&#45;&gt;Node8</title>
<g id="a_edge7_Node000002_Node000008"><a xlink:title=" ">
<path fill="none" stroke="#63b8ff" d="M335.83,-186.99C358.52,-178.54 394,-165.32 422.78,-154.59"/>
<polygon fill="#63b8ff" stroke="#63b8ff" points="424.11,-157.84 432.25,-151.06 421.66,-151.28 424.11,-157.84"/>
</a>
</g>
</g>
<!-- Node9 -->
<g id="Node000009" class="node">
<title>Node9</title>
<g id="a_Node000009"><a xlink:title=" ">
<polygon fill="#e0e0e0" stroke="#999999" points="499.5,-79.5 440.5,-79.5 440.5,-60.5 499.5,-60.5 499.5,-79.5"/>
<text text-anchor="middle" x="470" y="-67.5" font-family="Helvetica,sans-Serif" font-size="10.00">QWidget</text>
</a>
</g>
</g>
<!-- Node8&#45;&gt;Node9 -->
<g id="edge8_Node000008_Node000009" class="edge">
<title>Node8&#45;&gt;Node9</title>
<g id="a_edge8_Node000008_Node000009"><a xlink:title=" ">
<path fill="none" stroke="#63b8ff" d="M470,-120.8C470,-111.7 470,-99.79 470,-89.9"/>
<polygon fill="#63b8ff" stroke="#63b8ff" points="473.5,-89.84 470,-79.84 466.5,-89.84 473.5,-89.84"/>
</a>
</g>
</g>
<!-- Node10 -->
<g id="Node000010" class="node">
<title>Node10</title>
<g id="a_Node000010"><a xlink:href="Messages_8h.html" target="_top" xlink:title=" ">
<polygon fill="white" stroke="#666666" points="289.5,-85 186.5,-85 186.5,-55 289.5,-55 289.5,-85"/>
<text text-anchor="start" x="194.5" y="-73" font-family="Helvetica,sans-Serif" font-size="10.00">src/core/Protocols</text>
<text text-anchor="middle" x="238" y="-62" font-family="Helvetica,sans-Serif" font-size="10.00">/Messages.h</text>
</a>
</g>
</g>
<!-- Node8&#45;&gt;Node10 -->
<g id="edge9_Node000008_Node000010" class="edge">
<title>Node8&#45;&gt;Node10</title>
<g id="a_edge9_Node000008_Node000010"><a xlink:title=" ">
<path fill="none" stroke="#63b8ff" d="M419.09,-120.95C383.58,-111.16 336.04,-98.05 298.58,-87.71"/>
<polygon fill="#63b8ff" stroke="#63b8ff" points="299.37,-84.3 288.79,-85.01 297.5,-91.05 299.37,-84.3"/>
</a>
</g>
</g>
<!-- Node10&#45;&gt;Node4 -->
<g id="edge11_Node000010_Node000004" class="edge">
<title>Node10&#45;&gt;Node4</title>
<g id="a_edge11_Node000010_Node000004"><a xlink:title=" ">
<path fill="none" stroke="#63b8ff" d="M289.83,-57.75C294.62,-56.79 299.39,-55.86 304,-55 306.97,-54.45 471.46,-28.06 545.52,-16.19"/>
<polygon fill="#63b8ff" stroke="#63b8ff" points="546.45,-19.58 555.77,-14.55 545.34,-12.67 546.45,-19.58"/>
</a>
</g>
</g>
<!-- Node11 -->
<g id="Node000011" class="node">
<title>Node11</title>
<g id="a_Node000011"><a xlink:title=" ">
<polygon fill="#e0e0e0" stroke="#999999" points="188.5,-19 137.5,-19 137.5,0 188.5,0 188.5,-19"/>
<text text-anchor="middle" x="163" y="-7" font-family="Helvetica,sans-Serif" font-size="10.00">variant</text>
</a>
</g>
</g>
<!-- Node10&#45;&gt;Node11 -->
<g id="edge10_Node000010_Node000011" class="edge">
<title>Node10&#45;&gt;Node11</title>
<g id="a_edge10_Node000010_Node000011"><a xlink:title=" ">
<path fill="none" stroke="#63b8ff" d="M219.84,-54.84C208.51,-46 193.94,-34.63 182.38,-25.62"/>
<polygon fill="#63b8ff" stroke="#63b8ff" points="184.28,-22.66 174.24,-19.27 179.97,-28.18 184.28,-22.66"/>
</a>
</g>
</g>
<!-- Node12 -->
<g id="Node000012" class="node">
<title>Node12</title>
<g id="a_Node000012"><a xlink:title=" ">
<polygon fill="#e0e0e0" stroke="#999999" points="519,-19 475,-19 475,0 519,0 519,-19"/>
<text text-anchor="middle" x="497" y="-7" font-family="Helvetica,sans-Serif" font-size="10.00">string</text>
</a>
</g>
</g>
<!-- Node10&#45;&gt;Node12 -->
<g id="edge12_Node000010_Node000012" class="edge">
<title>Node10&#45;&gt;Node12</title>
<g id="a_edge12_Node000010_Node000012"><a xlink:title=" ">
<path fill="none" stroke="#63b8ff" d="M289.79,-57.3C342.13,-45.48 421.35,-27.59 465.12,-17.7"/>
<polygon fill="#63b8ff" stroke="#63b8ff" points="465.95,-21.1 474.93,-15.48 464.41,-14.27 465.95,-21.1"/>
</a>
</g>
</g>
<!-- Node13 -->
<g id="Node000013" class="node">
<title>Node13</title>
<g id="a_Node000013"><a xlink:title=" ">
<polygon fill="#e0e0e0" stroke="#999999" points="279.5,-19 206.5,-19 206.5,0 279.5,0 279.5,-19"/>
<text text-anchor="middle" x="243" y="-7" font-family="Helvetica,sans-Serif" font-size="10.00">QByteArray</text>
</a>
</g>
</g>
<!-- Node10&#45;&gt;Node13 -->
<g id="edge13_Node000010_Node000013" class="edge">
<title>Node10&#45;&gt;Node13</title>
<g id="a_edge13_Node000010_Node000013"><a xlink:title=" ">
<path fill="none" stroke="#63b8ff" d="M239.21,-54.84C239.86,-47.21 240.67,-37.7 241.38,-29.45"/>
<polygon fill="#63b8ff" stroke="#63b8ff" points="244.89,-29.53 242.25,-19.27 237.91,-28.93 244.89,-29.53"/>
</a>
</g>
</g>
<!-- Node14 -->
<g id="Node000014" class="node">
<title>Node14</title>
<g id="a_Node000014"><a xlink:title=" ">
<polygon fill="#e0e0e0" stroke="#999999" points="346.5,-19 297.5,-19 297.5,0 346.5,0 346.5,-19"/>
<text text-anchor="middle" x="322" y="-7" font-family="Helvetica,sans-Serif" font-size="10.00">QHash</text>
</a>
</g>
</g>
<!-- Node10&#45;&gt;Node14 -->
<g id="edge14_Node000010_Node000014" class="edge">
<title>Node10&#45;&gt;Node14</title>
<g id="a_edge14_Node000010_Node000014"><a xlink:title=" ">
<path fill="none" stroke="#63b8ff" d="M258.33,-54.84C271.27,-45.83 287.99,-34.18 301.05,-25.09"/>
<polygon fill="#63b8ff" stroke="#63b8ff" points="303.21,-27.85 309.41,-19.27 299.21,-22.11 303.21,-27.85"/>
</a>
</g>
</g>
<!-- Node15 -->
<g id="Node000015" class="node">
<title>Node15</title>
<g id="a_Node000015"><a xlink:title=" ">
<polygon fill="#e0e0e0" stroke="#999999" points="417.5,-19 364.5,-19 364.5,0 417.5,0 417.5,-19"/>
<text text-anchor="middle" x="391" y="-7" font-family="Helvetica,sans-Serif" font-size="10.00">QString</text>
</a>
</g>
</g>
<!-- Node10&#45;&gt;Node15 -->
<g id="edge15_Node000010_Node000015" class="edge">
<title>Node10&#45;&gt;Node15</title>
<g id="a_edge15_Node000010_Node000015"><a xlink:title=" ">
<path fill="none" stroke="#63b8ff" d="M274.65,-54.99C300.29,-45.18 334.22,-32.21 358.82,-22.81"/>
<polygon fill="#63b8ff" stroke="#63b8ff" points="360.31,-25.98 368.41,-19.14 357.81,-19.44 360.31,-25.98"/>
</a>
</g>
</g>
<!-- Node16 -->
<g id="Node000016" class="node">
<title>Node16</title>
<g id="a_Node000016"><a xlink:title=" ">
<polygon fill="#e0e0e0" stroke="#999999" points="56,-19 0,-19 0,0 56,0 56,-19"/>
<text text-anchor="middle" x="28" y="-7" font-family="Helvetica,sans-Serif" font-size="10.00">QObject</text>
</a>
</g>
</g>
<!-- Node10&#45;&gt;Node16 -->
<g id="edge16_Node000010_Node000016" class="edge">
<title>Node10&#45;&gt;Node16</title>
<g id="a_edge16_Node000010_Node000016"><a xlink:title=" ">
<path fill="none" stroke="#63b8ff" d="M187.7,-54.99C150.42,-44.6 100.38,-30.66 66.32,-21.17"/>
<polygon fill="#63b8ff" stroke="#63b8ff" points="66.86,-17.69 56.29,-18.38 64.98,-24.44 66.86,-17.69"/>
</a>
</g>
</g>
<!-- Node17 -->
<g id="Node000017" class="node">
<title>Node17</title>
<g id="a_Node000017"><a xlink:title=" ">
<polygon fill="#e0e0e0" stroke="#999999" points="119.5,-19 74.5,-19 74.5,0 119.5,0 119.5,-19"/>
<text text-anchor="middle" x="97" y="-7" font-family="Helvetica,sans-Serif" font-size="10.00">QMap</text>
</a>
</g>
</g>
<!-- Node10&#45;&gt;Node17 -->
<g id="edge17_Node000010_Node000017" class="edge">
<title>Node10&#45;&gt;Node17</title>
<g id="a_edge17_Node000010_Node000017"><a xlink:title=" ">
<path fill="none" stroke="#63b8ff" d="M204.23,-54.99C180.81,-45.27 149.88,-32.44 127.27,-23.06"/>
<polygon fill="#63b8ff" stroke="#63b8ff" points="128.4,-19.74 117.82,-19.14 125.72,-26.2 128.4,-19.74"/>
</a>
</g>
</g>
<!-- Node18&#45;&gt;Node4 -->
<g id="edge19_Node000018_Node000004" class="edge">
<title>Node18&#45;&gt;Node4</title>
<g id="a_edge19_Node000018_Node000004"><a xlink:title=" ">
<path fill="none" stroke="#63b8ff" d="M556.33,-186.78C559.58,-177.9 564.4,-163.69 567,-151 575.82,-107.92 579.16,-56.23 580.36,-29.15"/>
<polygon fill="#63b8ff" stroke="#63b8ff" points="583.86,-29.28 580.76,-19.15 576.86,-29 583.86,-29.28"/>
</a>
</g>
</g>
<!-- Node18&#45;&gt;Node5 -->
<g id="edge20_Node000018_Node000005" class="edge">
<title>Node18&#45;&gt;Node5</title>
<g id="a_edge20_Node000018_Node000005"><a xlink:title=" ">
<path fill="none" stroke="#63b8ff" d="M525.46,-187.77C495.79,-179.3 447.27,-165.04 406,-151 404.15,-150.37 402.25,-149.71 400.34,-149.02"/>
<polygon fill="#63b8ff" stroke="#63b8ff" points="401.42,-145.69 390.82,-145.54 399.01,-152.27 401.42,-145.69"/>
</a>
</g>
</g>
<!-- Node18&#45;&gt;Node8 -->
<g id="edge22_Node000018_Node000008" class="edge">
<title>Node18&#45;&gt;Node8</title>
<g id="a_edge22_Node000018_Node000008"><a xlink:title=" ">
<path fill="none" stroke="#63b8ff" d="M540.75,-186.87C529.6,-179 512.7,-167.09 498.21,-156.89"/>
<polygon fill="#63b8ff" stroke="#63b8ff" points="500.22,-154.01 490.03,-151.11 496.18,-159.74 500.22,-154.01"/>
</a>
</g>
</g>
<!-- Node18&#45;&gt;Node12 -->
<g id="edge21_Node000018_Node000012" class="edge">
<title>Node18&#45;&gt;Node12</title>
<g id="a_edge21_Node000018_Node000012"><a xlink:title=" ">
<path fill="none" stroke="#63b8ff" d="M550.98,-186.73C547.72,-172.74 540.94,-144.56 534,-121 524.32,-88.13 511.25,-50.38 503.52,-28.6"/>
<polygon fill="#63b8ff" stroke="#63b8ff" points="506.76,-27.27 500.09,-19.03 500.16,-29.62 506.76,-27.27"/>
</a>
</g>
</g>
</g>
</svg>

<g id="navigator" transform="translate(0 0)" fill="#404254">
  <rect fill="#f2f5e9" fill-opacity="0.5" stroke="#606060" stroke-width=".5" x="0" y="0" width="60" height="60"/>
  <use id="zoomplus" xlink:href="#zoomPlus" x="17" y="9" onmousedown="handleZoom(evt,'in')"/>
  <use id="zoomminus" xlink:href="#zoomMin" x="42" y="9" onmousedown="handleZoom(evt,'out')"/>
  <use id="reset" xlink:href="#resetDef" x="30" y="36" onmousedown="handleReset()"/>
   <use id="arrowup" xlink:href="#arrowUp" x="0" y="0" onmousedown="handlePan(0,-1)"/>
  <use id="arrowright" xlink:href="#arrowRight" x="0" y="0" onmousedown="handlePan(1,0)"/>
  <use id="arrowdown" xlink:href="#arrowDown" x="0" y="0" onmousedown="handlePan(0,1)"/>
  <use id="arrowleft" xlink:href="#arrowLeft" x="0" y="0" onmousedown="handlePan(-1,0)"/>
</g>
<svg viewBox="0 0 15 15" width="100%" height="30px" preserveAspectRatio="xMaxYMin meet">
 <g id="arrow_out" transform="scale(0.3 0.3)">
  <a xlink:href="UdpLogger_8h__incl_org.svg" target="_base">
   <rect id="button" ry="5" rx="5" y="6" x="6" height="38" width="38"
        fill="#f2f5e9" fill-opacity="0.5" stroke="#606060" stroke-width="1.0"/>
   <path id="arrow"
     d="M 11.500037,31.436501 C 11.940474,20.09759 22.043105,11.32322 32.158766,21.979434 L 37.068811,17.246167 C 37.068811,17.246167 37.088388,32 37.088388,32 L 22.160133,31.978069 C 22.160133,31.978069 26.997745,27.140456 26.997745,27.140456 C 18.528582,18.264221 13.291696,25.230495 11.500037,31.436501 z"
     style="fill:#404040;"/>
  </a>
 </g>
</svg>

<style type='text/css'>
<![CDATA[
[data-mouse-over-selected='false'] { opacity: 0.7; }
[data-mouse-over-selected='true']  { opacity: 1.0; }
]]>
</style>
<script type="application/ecmascript"><![CDATA[
document.addEventListener('DOMContentLoaded', (event) => {
  highlightEdges();
  highlightAdjacentNodes();
});
]]></script>
</svg>
