<?xml version="1.0" encoding="UTF-8" standalone="no"?>
<!DOCTYPE svg PUBLIC "-//W3C//DTD SVG 1.1//EN"
 "http://www.w3.org/Graphics/SVG/1.1/DTD/svg11.dtd">
<!-- Generated by graphviz version 2.43.0 (0)
 -->
<!-- Title: features/communication/udp/frames_logger/UdpLogger.cpp Pages: 1 -->
<!--zoomable 335 -->

<svg id="main" version="1.1" xmlns="http://www.w3.org/2000/svg" xmlns:xlink="http://www.w3.org/1999/xlink" xml:space="preserve" onload="init(evt)">
<style type="text/css"><![CDATA[
.node, .edge {opacity: 0.7;}
.node.selected, .edge.selected {opacity: 1;}
.edge:hover path { stroke: red; }
.edge:hover polygon { stroke: red; fill: red; }
]]></style>

<defs>
  <circle id="rim" cx="0" cy="0" r="7"/>
  <circle id="rim2" cx="0" cy="0" r="3.5"/>
  <g id="zoomPlus">
    <use xlink:href="#rim" fill="#404040"><set attributeName="fill" to="#808080" begin="zoomplus.mouseover" end="zoomplus.mouseout"/></use>
    <path d="M-4,0h8M0,-4v8" fill="none" stroke="white" stroke-width="1.5" pointer-events="none"/>
  </g>
  <g id="zoomMin">
    <use xlink:href="#rim" fill="#404040"><set attributeName="fill" to="#808080" begin="zoomminus.mouseover" end="zoomminus.mouseout"/></use>
    <path d="M-4,0h8" fill="none" stroke="white" stroke-width="1.5" pointer-events="none"/>
  </g>
  <g id="arrowUp" transform="translate(30 24)">
    <use xlink:href="#rim"/>
    <path pointer-events="none" fill="none" stroke="white" stroke-width="1.5" d="M0,-3.0v7 M-2.5,-0.5L0,-3.0L2.5,-0.5"/>
  </g>
  <g id="arrowRight" transform="rotate(90) translate(36 -43)">
    <use xlink:href="#rim"/>
    <path pointer-events="none" fill="none" stroke="white" stroke-width="1.5" d="M0,-3.0v7 M-2.5,-0.5L0,-3.0L2.5,-0.5"/>
  </g>
  <g id="arrowDown" transform="rotate(180) translate(-30 -48)">
    <use xlink:href="#rim"/>
    <path pointer-events="none" fill="none" stroke="white" stroke-width="1.5" d="M0,-3.0v7 M-2.5,-0.5L0,-3.0L2.5,-0.5"/>
  </g>
  <g id="arrowLeft" transform="rotate(270) translate(-36 17)">
    <use xlink:href="#rim"/>
    <path pointer-events="none" fill="none" stroke="white" stroke-width="1.5" d="M0,-3.0v7 M-2.5,-0.5L0,-3.0L2.5,-0.5"/>
  </g>
  <g id="resetDef">
    <use xlink:href="#rim2" fill="#404040"><set attributeName="fill" to="#808080" begin="reset.mouseover" end="reset.mouseout"/></use>
  </g>
</defs>
<script type="application/ecmascript">
var viewWidth = 722;
var viewHeight = 335;
var sectionId = 'dynsection-0';
</script>
<script type="application/ecmascript" xlink:href="svg.min.js"/>
<svg id="graph" class="graph">
<g id="viewport">
<title>features/communication/udp/frames_logger/UdpLogger.cpp</title>
<!-- Node1 -->
<g id="Node000001" class="node">
<title>Node1</title>
<g id="a_Node000001"><a xlink:title=" ">
<polygon fill="#999999" stroke="#666666" points="549.44,-327 363.44,-327 363.44,-297 549.44,-297 549.44,-327"/>
<text text-anchor="start" x="371.44" y="-315" font-family="Helvetica,sans-Serif" font-size="10.00">features/communication</text>
<text text-anchor="middle" x="456.44" y="-304" font-family="Helvetica,sans-Serif" font-size="10.00">/udp/frames_logger/UdpLogger.cpp</text>
</a>
</g>
</g>
<!-- Node2 -->
<g id="Node000002" class="node">
<title>Node2</title>
<g id="a_Node000002"><a xlink:href="UdpLogger_8h.html" target="_top" xlink:title="High&#45;frequency binary logger for UDP telemetry frames.">
<polygon fill="white" stroke="#666666" points="272.94,-261 195.94,-261 195.94,-242 272.94,-242 272.94,-261"/>
<text text-anchor="middle" x="234.44" y="-249" font-family="Helvetica,sans-Serif" font-size="10.00">UdpLogger.h</text>
</a>
</g>
</g>
<!-- Node1&#45;&gt;Node2 -->
<g id="edge1_Node000001_Node000002" class="edge">
<title>Node1&#45;&gt;Node2</title>
<g id="a_edge1_Node000001_Node000002"><a xlink:title=" ">
<path fill="none" stroke="#63b8ff" d="M403.26,-296.99C364.45,-286.76 312.56,-273.09 276.6,-263.61"/>
<polygon fill="#63b8ff" stroke="#63b8ff" points="277.46,-260.22 266.9,-261.05 275.68,-266.99 277.46,-260.22"/>
</a>
</g>
</g>
<!-- Node10 -->
<g id="Node000010" class="node">
<title>Node10</title>
<g id="a_Node000010"><a xlink:href="Logger_8h.html" target="_top" xlink:title=" ">
<polygon fill="white" stroke="#666666" points="499.44,-151 389.44,-151 389.44,-121 499.44,-121 499.44,-151"/>
<text text-anchor="start" x="397.44" y="-139" font-family="Helvetica,sans-Serif" font-size="10.00">src/services/Logger</text>
<text text-anchor="middle" x="444.44" y="-128" font-family="Helvetica,sans-Serif" font-size="10.00">/Logger.h</text>
</a>
</g>
</g>
<!-- Node1&#45;&gt;Node10 -->
<g id="edge27_Node000001_Node000010" class="edge">
<title>Node1&#45;&gt;Node10</title>
<g id="a_edge27_Node000001_Node000010"><a xlink:title=" ">
<path fill="none" stroke="#63b8ff" d="M454.04,-296.6C452.47,-286.64 450.52,-273.05 449.44,-261 446.33,-226.42 445.15,-186.24 444.71,-161.21"/>
<polygon fill="#63b8ff" stroke="#63b8ff" points="448.21,-161.11 444.56,-151.16 441.21,-161.21 448.21,-161.11"/>
</a>
</g>
</g>
<!-- Node21 -->
<g id="Node000021" class="node">
<title>Node21</title>
<g id="a_Node000021"><a xlink:title=" ">
<polygon fill="#e0e0e0" stroke="#999999" points="508.44,-261 458.44,-261 458.44,-242 508.44,-242 508.44,-261"/>
<text text-anchor="middle" x="483.44" y="-249" font-family="Helvetica,sans-Serif" font-size="10.00">chrono</text>
</a>
</g>
</g>
<!-- Node1&#45;&gt;Node21 -->
<g id="edge28_Node000001_Node000021" class="edge">
<title>Node1&#45;&gt;Node21</title>
<g id="a_edge28_Node000001_Node000021"><a xlink:title=" ">
<path fill="none" stroke="#63b8ff" d="M462.97,-296.84C466.61,-288.95 471.18,-279.05 475.08,-270.61"/>
<polygon fill="#63b8ff" stroke="#63b8ff" points="478.38,-271.81 479.39,-261.27 472.02,-268.88 478.38,-271.81"/>
</a>
</g>
</g>
<!-- Node22 -->
<g id="Node000022" class="node">
<title>Node22</title>
<g id="a_Node000022"><a xlink:title=" ">
<polygon fill="#e0e0e0" stroke="#999999" points="576.44,-261 526.44,-261 526.44,-242 576.44,-242 576.44,-261"/>
<text text-anchor="middle" x="551.44" y="-249" font-family="Helvetica,sans-Serif" font-size="10.00">format</text>
</a>
</g>
</g>
<!-- Node1&#45;&gt;Node22 -->
<g id="edge29_Node000001_Node000022" class="edge">
<title>Node1&#45;&gt;Node22</title>
<g id="a_edge29_Node000001_Node000022"><a xlink:title=" ">
<path fill="none" stroke="#63b8ff" d="M479.44,-296.84C494.44,-287.6 513.94,-275.59 528.86,-266.4"/>
<polygon fill="#63b8ff" stroke="#63b8ff" points="530.8,-269.32 537.48,-261.09 527.13,-263.36 530.8,-269.32"/>
</a>
</g>
</g>
<!-- Node3 -->
<g id="Node000003" class="node">
<title>Node3</title>
<g id="a_Node000003"><a xlink:title=" ">
<polygon fill="#e0e0e0" stroke="#999999" points="259.44,-145.5 209.44,-145.5 209.44,-126.5 259.44,-126.5 259.44,-145.5"/>
<text text-anchor="middle" x="234.44" y="-133.5" font-family="Helvetica,sans-Serif" font-size="10.00">atomic</text>
</a>
</g>
</g>
<!-- Node2&#45;&gt;Node3 -->
<g id="edge2_Node000002_Node000003" class="edge">
<title>Node2&#45;&gt;Node3</title>
<g id="a_edge2_Node000002_Node000003"><a xlink:title=" ">
<path fill="none" stroke="#63b8ff" d="M238.04,-241.82C241.49,-232.99 246.47,-218.81 248.44,-206 251.07,-188.84 246.48,-169.48 241.86,-155.65"/>
<polygon fill="#63b8ff" stroke="#63b8ff" points="245.01,-154.07 238.29,-145.88 238.44,-156.48 245.01,-154.07"/>
</a>
</g>
</g>
<!-- Node4 -->
<g id="Node000004" class="node">
<title>Node4</title>
<g id="a_Node000004"><a xlink:title=" ">
<polygon fill="#e0e0e0" stroke="#999999" points="160.44,-19 110.44,-19 110.44,0 160.44,0 160.44,-19"/>
<text text-anchor="middle" x="135.44" y="-7" font-family="Helvetica,sans-Serif" font-size="10.00">cstdint</text>
</a>
</g>
</g>
<!-- Node2&#45;&gt;Node4 -->
<g id="edge3_Node000002_Node000004" class="edge">
<title>Node2&#45;&gt;Node4</title>
<g id="a_edge3_Node000002_Node000004"><a xlink:title=" ">
<path fill="none" stroke="#63b8ff" d="M195.76,-247.53C140.88,-240.92 43.02,-219.59 6.44,-151 -22.81,-96.17 60.14,-46.23 106.51,-23.47"/>
<polygon fill="#63b8ff" stroke="#63b8ff" points="108.28,-26.5 115.8,-19.04 105.26,-20.19 108.28,-26.5"/>
</a>
</g>
</g>
<!-- Node5 -->
<g id="Node000005" class="node">
<title>Node5</title>
<g id="a_Node000005"><a xlink:title=" ">
<polygon fill="#e0e0e0" stroke="#999999" points="145.44,-206 97.44,-206 97.44,-187 145.44,-187 145.44,-206"/>
<text text-anchor="middle" x="121.44" y="-194" font-family="Helvetica,sans-Serif" font-size="10.00">thread</text>
</a>
</g>
</g>
<!-- Node2&#45;&gt;Node5 -->
<g id="edge4_Node000002_Node000005" class="edge">
<title>Node2&#45;&gt;Node5</title>
<g id="a_edge4_Node000002_Node000005"><a xlink:title=" ">
<path fill="none" stroke="#63b8ff" d="M216.28,-241.98C198.19,-233.5 170.15,-220.35 149.25,-210.54"/>
<polygon fill="#63b8ff" stroke="#63b8ff" points="150.46,-207.25 139.92,-206.17 147.49,-213.59 150.46,-207.25"/>
</a>
</g>
</g>
<!-- Node6 -->
<g id="Node000006" class="node">
<title>Node6</title>
<g id="a_Node000006"><a xlink:href="RingBuffer_8h.html" target="_top" xlink:title=" ">
<polygon fill="white" stroke="#666666" points="239.44,-206 163.44,-206 163.44,-187 239.44,-187 239.44,-206"/>
<text text-anchor="middle" x="201.44" y="-194" font-family="Helvetica,sans-Serif" font-size="10.00">RingBuffer.h</text>
</a>
</g>
</g>
<!-- Node2&#45;&gt;Node6 -->
<g id="edge5_Node000002_Node000006" class="edge">
<title>Node2&#45;&gt;Node6</title>
<g id="a_edge5_Node000002_Node000006"><a xlink:title=" ">
<path fill="none" stroke="#63b8ff" d="M228.99,-241.75C224.42,-234.42 217.77,-223.73 212.15,-214.7"/>
<polygon fill="#63b8ff" stroke="#63b8ff" points="215.04,-212.73 206.79,-206.09 209.1,-216.43 215.04,-212.73"/>
</a>
</g>
</g>
<!-- Node20 -->
<g id="Node000020" class="node">
<title>Node20</title>
<g id="a_Node000020"><a xlink:href="Writer_8h.html" target="_top" xlink:title=" ">
<polygon fill="white" stroke="#666666" points="388.94,-206 333.94,-206 333.94,-187 388.94,-187 388.94,-206"/>
<text text-anchor="middle" x="361.44" y="-194" font-family="Helvetica,sans-Serif" font-size="10.00">Writer.h</text>
</a>
</g>
</g>
<!-- Node2&#45;&gt;Node20 -->
<g id="edge22_Node000002_Node000020" class="edge">
<title>Node2&#45;&gt;Node20</title>
<g id="a_edge22_Node000002_Node000020"><a xlink:title=" ">
<path fill="none" stroke="#63b8ff" d="M254.84,-241.98C275.46,-233.38 307.55,-219.99 331.13,-210.15"/>
<polygon fill="#63b8ff" stroke="#63b8ff" points="332.78,-213.25 340.66,-206.17 330.09,-206.79 332.78,-213.25"/>
</a>
</g>
</g>
<!-- Node6&#45;&gt;Node3 -->
<g id="edge9_Node000006_Node000003" class="edge">
<title>Node6&#45;&gt;Node3</title>
<g id="a_edge9_Node000006_Node000003"><a xlink:title=" ">
<path fill="none" stroke="#63b8ff" d="M206.31,-186.87C211.08,-178.4 218.51,-165.24 224.53,-154.57"/>
<polygon fill="#63b8ff" stroke="#63b8ff" points="227.68,-156.1 229.55,-145.67 221.59,-152.66 227.68,-156.1"/>
</a>
</g>
</g>
<!-- Node6&#45;&gt;Node4 -->
<g id="edge7_Node000006_Node000004" class="edge">
<title>Node6&#45;&gt;Node4</title>
<g id="a_edge7_Node000006_Node000004"><a xlink:title=" ">
<path fill="none" stroke="#63b8ff" d="M173.79,-186.98C156.86,-180.17 136.55,-168.76 126.44,-151 104.24,-112.01 118.5,-56.7 128.35,-28.52"/>
<polygon fill="#63b8ff" stroke="#63b8ff" points="131.63,-29.73 131.82,-19.14 125.07,-27.3 131.63,-29.73"/>
</a>
</g>
</g>
<!-- Node7 -->
<g id="Node000007" class="node">
<title>Node7</title>
<g id="a_Node000007"><a xlink:title=" ">
<polygon fill="#e0e0e0" stroke="#999999" points="191.44,-145.5 135.44,-145.5 135.44,-126.5 191.44,-126.5 191.44,-145.5"/>
<text text-anchor="middle" x="163.44" y="-133.5" font-family="Helvetica,sans-Serif" font-size="10.00">QDebug</text>
</a>
</g>
</g>
<!-- Node6&#45;&gt;Node7 -->
<g id="edge6_Node000006_Node000007" class="edge">
<title>Node6&#45;&gt;Node7</title>
<g id="a_edge6_Node000006_Node000007"><a xlink:title=" ">
<path fill="none" stroke="#63b8ff" d="M195.83,-186.87C190.27,-178.31 181.61,-164.97 174.64,-154.24"/>
<polygon fill="#63b8ff" stroke="#63b8ff" points="177.45,-152.15 169.07,-145.67 171.58,-155.96 177.45,-152.15"/>
</a>
</g>
</g>
<!-- Node8 -->
<g id="Node000008" class="node">
<title>Node8</title>
<g id="a_Node000008"><a xlink:title=" ">
<polygon fill="#e0e0e0" stroke="#999999" points="332.94,-145.5 277.94,-145.5 277.94,-126.5 332.94,-126.5 332.94,-145.5"/>
<text text-anchor="middle" x="305.44" y="-133.5" font-family="Helvetica,sans-Serif" font-size="10.00">fstream</text>
</a>
</g>
</g>
<!-- Node6&#45;&gt;Node8 -->
<g id="edge8_Node000006_Node000008" class="edge">
<title>Node6&#45;&gt;Node8</title>
<g id="a_edge8_Node000006_Node000008"><a xlink:title=" ">
<path fill="none" stroke="#63b8ff" d="M216.78,-186.87C233.76,-177.32 261.34,-161.81 281.23,-150.62"/>
<polygon fill="#63b8ff" stroke="#63b8ff" points="283.03,-153.62 290.03,-145.67 279.6,-147.52 283.03,-153.62"/>
</a>
</g>
</g>
<!-- Node9 -->
<g id="Node000009" class="node">
<title>Node9</title>
<g id="a_Node000009"><a xlink:title=" ">
<polygon fill="#e0e0e0" stroke="#999999" points="79.44,-145.5 15.44,-145.5 15.44,-126.5 79.44,-126.5 79.44,-145.5"/>
<text text-anchor="middle" x="47.44" y="-133.5" font-family="Helvetica,sans-Serif" font-size="10.00">algorithm</text>
</a>
</g>
</g>
<!-- Node6&#45;&gt;Node9 -->
<g id="edge10_Node000006_Node000009" class="edge">
<title>Node6&#45;&gt;Node9</title>
<g id="a_edge10_Node000006_Node000009"><a xlink:title=" ">
<path fill="none" stroke="#63b8ff" d="M179.05,-186.99C152.81,-177.03 109.16,-160.45 79.38,-149.13"/>
<polygon fill="#63b8ff" stroke="#63b8ff" points="80.45,-145.8 69.86,-145.52 77.96,-152.34 80.45,-145.8"/>
</a>
</g>
</g>
<!-- Node6&#45;&gt;Node10 -->
<g id="edge11_Node000006_Node000010" class="edge">
<title>Node6&#45;&gt;Node10</title>
<g id="a_edge11_Node000006_Node000010"><a xlink:title=" ">
<path fill="none" stroke="#63b8ff" d="M236.77,-186.99C274.05,-178.02 333.63,-163.68 379.43,-152.65"/>
<polygon fill="#63b8ff" stroke="#63b8ff" points="380.38,-156.02 389.28,-150.28 378.74,-149.22 380.38,-156.02"/>
</a>
</g>
</g>
<!-- Node11 -->
<g id="Node000011" class="node">
<title>Node11</title>
<g id="a_Node000011"><a xlink:title=" ">
<polygon fill="#e0e0e0" stroke="#999999" points="448.94,-79.5 389.94,-79.5 389.94,-60.5 448.94,-60.5 448.94,-79.5"/>
<text text-anchor="middle" x="419.44" y="-67.5" font-family="Helvetica,sans-Serif" font-size="10.00">QWidget</text>
</a>
</g>
</g>
<!-- Node10&#45;&gt;Node11 -->
<g id="edge12_Node000010_Node000011" class="edge">
<title>Node10&#45;&gt;Node11</title>
<g id="a_edge12_Node000010_Node000011"><a xlink:title=" ">
<path fill="none" stroke="#63b8ff" d="M438.89,-120.8C435.26,-111.5 430.48,-99.27 426.57,-89.26"/>
<polygon fill="#63b8ff" stroke="#63b8ff" points="429.79,-87.89 422.89,-79.84 423.27,-90.43 429.79,-87.89"/>
</a>
</g>
</g>
<!-- Node12 -->
<g id="Node000012" class="node">
<title>Node12</title>
<g id="a_Node000012"><a xlink:href="Messages_8h.html" target="_top" xlink:title=" ">
<polygon fill="white" stroke="#666666" points="569.94,-85 466.94,-85 466.94,-55 569.94,-55 569.94,-85"/>
<text text-anchor="start" x="474.94" y="-73" font-family="Helvetica,sans-Serif" font-size="10.00">src/core/Protocols</text>
<text text-anchor="middle" x="518.44" y="-62" font-family="Helvetica,sans-Serif" font-size="10.00">/Messages.h</text>
</a>
</g>
</g>
<!-- Node10&#45;&gt;Node12 -->
<g id="edge13_Node000010_Node000012" class="edge">
<title>Node10&#45;&gt;Node12</title>
<g id="a_edge13_Node000010_Node000012"><a xlink:title=" ">
<path fill="none" stroke="#63b8ff" d="M460.86,-120.8C470.73,-112.26 483.46,-101.25 494.44,-91.75"/>
<polygon fill="#63b8ff" stroke="#63b8ff" points="496.79,-94.35 502.06,-85.16 492.21,-89.06 496.79,-94.35"/>
</a>
</g>
</g>
<!-- Node12&#45;&gt;Node4 -->
<g id="edge15_Node000012_Node000004" class="edge">
<title>Node12&#45;&gt;Node4</title>
<g id="a_edge15_Node000012_Node000004"><a xlink:title=" ">
<path fill="none" stroke="#63b8ff" d="M466.92,-56.84C463.72,-56.19 460.54,-55.57 457.44,-55 353.76,-35.98 229.96,-21.02 170.59,-14.33"/>
<polygon fill="#63b8ff" stroke="#63b8ff" points="170.94,-10.85 160.61,-13.21 170.16,-17.8 170.94,-10.85"/>
</a>
</g>
</g>
<!-- Node13 -->
<g id="Node000013" class="node">
<title>Node13</title>
<g id="a_Node000013"><a xlink:title=" ">
<polygon fill="#e0e0e0" stroke="#999999" points="651.94,-19 600.94,-19 600.94,0 651.94,0 651.94,-19"/>
<text text-anchor="middle" x="626.44" y="-7" font-family="Helvetica,sans-Serif" font-size="10.00">variant</text>
</a>
</g>
</g>
<!-- Node12&#45;&gt;Node13 -->
<g id="edge14_Node000012_Node000013" class="edge">
<title>Node12&#45;&gt;Node13</title>
<g id="a_edge14_Node000012_Node000013"><a xlink:title=" ">
<path fill="none" stroke="#63b8ff" d="M544.31,-54.99C561.68,-45.58 584.45,-33.24 601.61,-23.95"/>
<polygon fill="#63b8ff" stroke="#63b8ff" points="603.36,-26.98 610.49,-19.14 600.03,-20.82 603.36,-26.98"/>
</a>
</g>
</g>
<!-- Node14 -->
<g id="Node000014" class="node">
<title>Node14</title>
<g id="a_Node000014"><a xlink:title=" ">
<polygon fill="#e0e0e0" stroke="#999999" points="714.44,-19 670.44,-19 670.44,0 714.44,0 714.44,-19"/>
<text text-anchor="middle" x="692.44" y="-7" font-family="Helvetica,sans-Serif" font-size="10.00">string</text>
</a>
</g>
</g>
<!-- Node12&#45;&gt;Node14 -->
<g id="edge16_Node000012_Node000014" class="edge">
<title>Node12&#45;&gt;Node14</title>
<g id="a_edge16_Node000012_Node000014"><a xlink:title=" ">
<path fill="none" stroke="#63b8ff" d="M560.12,-54.99C590.92,-44.63 632.24,-30.74 660.46,-21.25"/>
<polygon fill="#63b8ff" stroke="#63b8ff" points="661.86,-24.47 670.22,-17.97 659.63,-17.84 661.86,-24.47"/>
</a>
</g>
</g>
<!-- Node15 -->
<g id="Node000015" class="node">
<title>Node15</title>
<g id="a_Node000015"><a xlink:title=" ">
<polygon fill="#e0e0e0" stroke="#999999" points="306.94,-19 233.94,-19 233.94,0 306.94,0 306.94,-19"/>
<text text-anchor="middle" x="270.44" y="-7" font-family="Helvetica,sans-Serif" font-size="10.00">QByteArray</text>
</a>
</g>
</g>
<!-- Node12&#45;&gt;Node15 -->
<g id="edge17_Node000012_Node000015" class="edge">
<title>Node12&#45;&gt;Node15</title>
<g id="a_edge17_Node000012_Node000015"><a xlink:title=" ">
<path fill="none" stroke="#63b8ff" d="M466.75,-56.81C422.46,-46.36 359.26,-31.45 316.63,-21.4"/>
<polygon fill="#63b8ff" stroke="#63b8ff" points="317.33,-17.97 306.8,-19.08 315.73,-24.78 317.33,-17.97"/>
</a>
</g>
</g>
<!-- Node16 -->
<g id="Node000016" class="node">
<title>Node16</title>
<g id="a_Node000016"><a xlink:title=" ">
<polygon fill="#e0e0e0" stroke="#999999" points="373.94,-19 324.94,-19 324.94,0 373.94,0 373.94,-19"/>
<text text-anchor="middle" x="349.44" y="-7" font-family="Helvetica,sans-Serif" font-size="10.00">QHash</text>
</a>
</g>
</g>
<!-- Node12&#45;&gt;Node16 -->
<g id="edge18_Node000012_Node000016" class="edge">
<title>Node12&#45;&gt;Node16</title>
<g id="a_edge18_Node000012_Node000016"><a xlink:title=" ">
<path fill="none" stroke="#63b8ff" d="M477.96,-54.99C449.26,-45.05 411.16,-31.86 383.91,-22.43"/>
<polygon fill="#63b8ff" stroke="#63b8ff" points="384.99,-19.1 374.4,-19.14 382.7,-25.72 384.99,-19.1"/>
</a>
</g>
</g>
<!-- Node17 -->
<g id="Node000017" class="node">
<title>Node17</title>
<g id="a_Node000017"><a xlink:title=" ">
<polygon fill="#e0e0e0" stroke="#999999" points="444.94,-19 391.94,-19 391.94,0 444.94,0 444.94,-19"/>
<text text-anchor="middle" x="418.44" y="-7" font-family="Helvetica,sans-Serif" font-size="10.00">QString</text>
</a>
</g>
</g>
<!-- Node12&#45;&gt;Node17 -->
<g id="edge19_Node000012_Node000017" class="edge">
<title>Node12&#45;&gt;Node17</title>
<g id="a_edge19_Node000012_Node000017"><a xlink:title=" ">
<path fill="none" stroke="#63b8ff" d="M494.49,-54.99C478.55,-45.66 457.71,-33.47 441.87,-24.21"/>
<polygon fill="#63b8ff" stroke="#63b8ff" points="443.61,-21.17 433.21,-19.14 440.07,-27.21 443.61,-21.17"/>
</a>
</g>
</g>
<!-- Node18 -->
<g id="Node000018" class="node">
<title>Node18</title>
<g id="a_Node000018"><a xlink:title=" ">
<polygon fill="#e0e0e0" stroke="#999999" points="519.44,-19 463.44,-19 463.44,0 519.44,0 519.44,-19"/>
<text text-anchor="middle" x="491.44" y="-7" font-family="Helvetica,sans-Serif" font-size="10.00">QObject</text>
</a>
</g>
</g>
<!-- Node12&#45;&gt;Node18 -->
<g id="edge20_Node000012_Node000018" class="edge">
<title>Node12&#45;&gt;Node18</title>
<g id="a_edge20_Node000012_Node000018"><a xlink:title=" ">
<path fill="none" stroke="#63b8ff" d="M511.9,-54.84C508.26,-46.95 503.69,-37.05 499.8,-28.61"/>
<polygon fill="#63b8ff" stroke="#63b8ff" points="502.85,-26.88 495.48,-19.27 496.5,-29.81 502.85,-26.88"/>
</a>
</g>
</g>
<!-- Node19 -->
<g id="Node000019" class="node">
<title>Node19</title>
<g id="a_Node000019"><a xlink:title=" ">
<polygon fill="#e0e0e0" stroke="#999999" points="582.94,-19 537.94,-19 537.94,0 582.94,0 582.94,-19"/>
<text text-anchor="middle" x="560.44" y="-7" font-family="Helvetica,sans-Serif" font-size="10.00">QMap</text>
</a>
</g>
</g>
<!-- Node12&#45;&gt;Node19 -->
<g id="edge21_Node000012_Node000019" class="edge">
<title>Node12&#45;&gt;Node19</title>
<g id="a_edge21_Node000012_Node000019"><a xlink:title=" ">
<path fill="none" stroke="#63b8ff" d="M528.61,-54.84C534.52,-46.61 542,-36.18 548.23,-27.51"/>
<polygon fill="#63b8ff" stroke="#63b8ff" points="551.16,-29.43 554.15,-19.27 545.47,-25.35 551.16,-29.43"/>
</a>
</g>
</g>
<!-- Node20&#45;&gt;Node4 -->
<g id="edge23_Node000020_Node000004" class="edge">
<title>Node20&#45;&gt;Node4</title>
<g id="a_edge23_Node000020_Node000004"><a xlink:title=" ">
<path fill="none" stroke="#63b8ff" d="M361.27,-186.7C360.53,-171.66 357.08,-140.73 341.44,-121 297.14,-65.12 216.6,-33.89 170.44,-19.8"/>
<polygon fill="#63b8ff" stroke="#63b8ff" points="171.17,-16.37 160.59,-16.89 169.19,-23.08 171.17,-16.37"/>
</a>
</g>
</g>
<!-- Node20&#45;&gt;Node8 -->
<g id="edge24_Node000020_Node000008" class="edge">
<title>Node20&#45;&gt;Node8</title>
<g id="a_edge24_Node000020_Node000008"><a xlink:title=" ">
<path fill="none" stroke="#63b8ff" d="M353.18,-186.87C344.66,-177.97 331.18,-163.89 320.71,-152.95"/>
<polygon fill="#63b8ff" stroke="#63b8ff" points="323.18,-150.47 313.74,-145.67 318.12,-155.31 323.18,-150.47"/>
</a>
</g>
</g>
<!-- Node20&#45;&gt;Node10 -->
<g id="edge26_Node000020_Node000010" class="edge">
<title>Node20&#45;&gt;Node10</title>
<g id="a_edge26_Node000020_Node000010"><a xlink:title=" ">
<path fill="none" stroke="#63b8ff" d="M373.69,-186.87C384.84,-179 401.74,-167.09 416.23,-156.89"/>
<polygon fill="#63b8ff" stroke="#63b8ff" points="418.26,-159.74 424.41,-151.11 414.22,-154.01 418.26,-159.74"/>
</a>
</g>
</g>
<!-- Node20&#45;&gt;Node14 -->
<g id="edge25_Node000020_Node000014" class="edge">
<title>Node20&#45;&gt;Node14</title>
<g id="a_edge25_Node000020_Node000014"><a xlink:title=" ">
<path fill="none" stroke="#63b8ff" d="M389.11,-190.23C419.53,-183.74 469.27,-171.04 508.44,-151 576.79,-116.02 645.59,-55 676.11,-26.29"/>
<polygon fill="#63b8ff" stroke="#63b8ff" points="678.84,-28.53 683.67,-19.1 674.01,-23.46 678.84,-28.53"/>
</a>
</g>
</g>
</g>
</svg>

<g id="navigator" transform="translate(0 0)" fill="#404254">
  <rect fill="#f2f5e9" fill-opacity="0.5" stroke="#606060" stroke-width=".5" x="0" y="0" width="60" height="60"/>
  <use id="zoomplus" xlink:href="#zoomPlus" x="17" y="9" onmousedown="handleZoom(evt,'in')"/>
  <use id="zoomminus" xlink:href="#zoomMin" x="42" y="9" onmousedown="handleZoom(evt,'out')"/>
  <use id="reset" xlink:href="#resetDef" x="30" y="36" onmousedown="handleReset()"/>
   <use id="arrowup" xlink:href="#arrowUp" x="0" y="0" onmousedown="handlePan(0,-1)"/>
  <use id="arrowright" xlink:href="#arrowRight" x="0" y="0" onmousedown="handlePan(1,0)"/>
  <use id="arrowdown" xlink:href="#arrowDown" x="0" y="0" onmousedown="handlePan(0,1)"/>
  <use id="arrowleft" xlink:href="#arrowLeft" x="0" y="0" onmousedown="handlePan(-1,0)"/>
</g>
<svg viewBox="0 0 15 15" width="100%" height="30px" preserveAspectRatio="xMaxYMin meet">
 <g id="arrow_out" transform="scale(0.3 0.3)">
  <a xlink:href="UdpLogger_8cpp__incl_org.svg" target="_base">
   <rect id="button" ry="5" rx="5" y="6" x="6" height="38" width="38"
        fill="#f2f5e9" fill-opacity="0.5" stroke="#606060" stroke-width="1.0"/>
   <path id="arrow"
     d="M 11.500037,31.436501 C 11.940474,20.09759 22.043105,11.32322 32.158766,21.979434 L 37.068811,17.246167 C 37.068811,17.246167 37.088388,32 37.088388,32 L 22.160133,31.978069 C 22.160133,31.978069 26.997745,27.140456 26.997745,27.140456 C 18.528582,18.264221 13.291696,25.230495 11.500037,31.436501 z"
     style="fill:#404040;"/>
  </a>
 </g>
</svg>

<style type='text/css'>
<![CDATA[
[data-mouse-over-selected='false'] { opacity: 0.7; }
[data-mouse-over-selected='true']  { opacity: 1.0; }
]]>
</style>
<script type="application/ecmascript"><![CDATA[
document.addEventListener('DOMContentLoaded', (event) => {
  highlightEdges();
  highlightAdjacentNodes();
});
]]></script>
</svg>
