<?xml version="1.0" encoding="UTF-8" standalone="no"?>
<!DOCTYPE svg PUBLIC "-//W3C//DTD SVG 1.1//EN"
 "http://www.w3.org/Graphics/SVG/1.1/DTD/svg11.dtd">
<!-- Generated by graphviz version 2.43.0 (0)
 -->
<!-- Title: features/communication/udp/frames_logger/UdpLogger.h Pages: 1 -->
<!--zoomable 280 -->

<svg id="main" version="1.1" xmlns="http://www.w3.org/2000/svg" xmlns:xlink="http://www.w3.org/1999/xlink" xml:space="preserve" onload="init(evt)">
<style type="text/css"><![CDATA[
.node, .edge {opacity: 0.7;}
.node.selected, .edge.selected {opacity: 1;}
.edge:hover path { stroke: red; }
.edge:hover polygon { stroke: red; fill: red; }
]]></style>

<defs>
  <circle id="rim" cx="0" cy="0" r="7"/>
  <circle id="rim2" cx="0" cy="0" r="3.5"/>
  <g id="zoomPlus">
    <use xlink:href="#rim" fill="#404040"><set attributeName="fill" to="#808080" begin="zoomplus.mouseover" end="zoomplus.mouseout"/></use>
    <path d="M-4,0h8M0,-4v8" fill="none" stroke="white" stroke-width="1.5" pointer-events="none"/>
  </g>
  <g id="zoomMin">
    <use xlink:href="#rim" fill="#404040"><set attributeName="fill" to="#808080" begin="zoomminus.mouseover" end="zoomminus.mouseout"/></use>
    <path d="M-4,0h8" fill="none" stroke="white" stroke-width="1.5" pointer-events="none"/>
  </g>
  <g id="arrowUp" transform="translate(30 24)">
    <use xlink:href="#rim"/>
    <path pointer-events="none" fill="none" stroke="white" stroke-width="1.5" d="M0,-3.0v7 M-2.5,-0.5L0,-3.0L2.5,-0.5"/>
  </g>
  <g id="arrowRight" transform="rotate(90) translate(36 -43)">
    <use xlink:href="#rim"/>
    <path pointer-events="none" fill="none" stroke="white" stroke-width="1.5" d="M0,-3.0v7 M-2.5,-0.5L0,-3.0L2.5,-0.5"/>
  </g>
  <g id="arrowDown" transform="rotate(180) translate(-30 -48)">
    <use xlink:href="#rim"/>
    <path pointer-events="none" fill="none" stroke="white" stroke-width="1.5" d="M0,-3.0v7 M-2.5,-0.5L0,-3.0L2.5,-0.5"/>
  </g>
  <g id="arrowLeft" transform="rotate(270) translate(-36 17)">
    <use xlink:href="#rim"/>
    <path pointer-events="none" fill="none" stroke="white" stroke-width="1.5" d="M0,-3.0v7 M-2.5,-0.5L0,-3.0L2.5,-0.5"/>
  </g>
  <g id="resetDef">
    <use xlink:href="#rim2" fill="#404040"><set attributeName="fill" to="#808080" begin="reset.mouseover" end="reset.mouseout"/></use>
  </g>
</defs>
<script type="application/ecmascript">
var viewWidth = 798;
var viewHeight = 280;
var sectionId = 'dynsection-0';
</script>
<script type="application/ecmascript" xlink:href="svg.min.js"/>
<svg id="graph" class="graph">
<g id="viewport">
<title>features/communication/udp/frames_logger/UdpLogger.h</title>
<!-- Node1 -->
<g id="Node000001" class="node">
<title>Node1</title>
<g id="a_Node000001"><a xlink:title="High&#45;frequency binary logger for UDP telemetry frames.">
<polygon fill="#999999" stroke="#666666" points="308.96,-272 133.96,-272 133.96,-242 308.96,-242 308.96,-272"/>
<text text-anchor="start" x="141.96" y="-260" font-family="Helvetica,sans-Serif" font-size="10.00">features/communication</text>
<text text-anchor="middle" x="221.46" y="-249" font-family="Helvetica,sans-Serif" font-size="10.00">/udp/frames_logger/UdpLogger.h</text>
</a>
</g>
</g>
<!-- Node2 -->
<g id="Node000002" class="node">
<title>Node2</title>
<g id="a_Node000002"><a xlink:title=" ">
<polygon fill="#e0e0e0" stroke="#999999" points="68.46,-145.5 18.46,-145.5 18.46,-126.5 68.46,-126.5 68.46,-145.5"/>
<text text-anchor="middle" x="43.46" y="-133.5" font-family="Helvetica,sans-Serif" font-size="10.00">atomic</text>
</a>
</g>
</g>
<!-- Node1&#45;&gt;Node2 -->
<g id="edge1_Node000001_Node000002" class="edge">
<title>Node1&#45;&gt;Node2</title>
<g id="a_edge1_Node000001_Node000002"><a xlink:title=" ">
<path fill="none" stroke="#63b8ff" d="M200.35,-241.88C166.19,-219.05 99.21,-174.27 64.87,-151.31"/>
<polygon fill="#63b8ff" stroke="#63b8ff" points="66.75,-148.36 56.49,-145.71 62.86,-154.18 66.75,-148.36"/>
</a>
</g>
</g>
<!-- Node3 -->
<g id="Node000003" class="node">
<title>Node3</title>
<g id="a_Node000003"><a xlink:title=" ">
<polygon fill="#e0e0e0" stroke="#999999" points="286.46,-19 236.46,-19 236.46,0 286.46,0 286.46,-19"/>
<text text-anchor="middle" x="261.46" y="-7" font-family="Helvetica,sans-Serif" font-size="10.00">cstdint</text>
</a>
</g>
</g>
<!-- Node1&#45;&gt;Node3 -->
<g id="edge2_Node000001_Node000003" class="edge">
<title>Node1&#45;&gt;Node3</title>
<g id="a_edge2_Node000001_Node000003"><a xlink:title=" ">
<path fill="none" stroke="#63b8ff" d="M153.7,-241.98C77.27,-222.83 -31.41,-183.55 9.46,-121 58.05,-46.65 168.99,-22.01 226.08,-14.09"/>
<polygon fill="#63b8ff" stroke="#63b8ff" points="226.62,-17.55 236.08,-12.8 225.72,-10.61 226.62,-17.55"/>
</a>
</g>
</g>
<!-- Node4 -->
<g id="Node000004" class="node">
<title>Node4</title>
<g id="a_Node000004"><a xlink:title=" ">
<polygon fill="#e0e0e0" stroke="#999999" points="479.46,-206 431.46,-206 431.46,-187 479.46,-187 479.46,-206"/>
<text text-anchor="middle" x="455.46" y="-194" font-family="Helvetica,sans-Serif" font-size="10.00">thread</text>
</a>
</g>
</g>
<!-- Node1&#45;&gt;Node4 -->
<g id="edge3_Node000001_Node000004" class="edge">
<title>Node1&#45;&gt;Node4</title>
<g id="a_edge3_Node000001_Node000004"><a xlink:title=" ">
<path fill="none" stroke="#63b8ff" d="M278.68,-241.9C316.64,-232.52 367.82,-219.81 421.6,-206.2"/>
<polygon fill="#63b8ff" stroke="#63b8ff" points="422.48,-209.59 431.32,-203.74 420.77,-202.8 422.48,-209.59"/>
</a>
</g>
</g>
<!-- Node5 -->
<g id="Node000005" class="node">
<title>Node5</title>
<g id="a_Node000005"><a xlink:href="RingBuffer_8h.html" target="_top" xlink:title=" ">
<polygon fill="white" stroke="#666666" points="259.46,-206 183.46,-206 183.46,-187 259.46,-187 259.46,-206"/>
<text text-anchor="middle" x="221.46" y="-194" font-family="Helvetica,sans-Serif" font-size="10.00">RingBuffer.h</text>
</a>
</g>
</g>
<!-- Node1&#45;&gt;Node5 -->
<g id="edge4_Node000001_Node000005" class="edge">
<title>Node1&#45;&gt;Node5</title>
<g id="a_edge4_Node000001_Node000005"><a xlink:title=" ">
<path fill="none" stroke="#63b8ff" d="M221.46,-241.84C221.46,-234.21 221.46,-224.7 221.46,-216.45"/>
<polygon fill="#63b8ff" stroke="#63b8ff" points="224.96,-216.27 221.46,-206.27 217.96,-216.27 224.96,-216.27"/>
</a>
</g>
</g>
<!-- Node19 -->
<g id="Node000019" class="node">
<title>Node19</title>
<g id="a_Node000019"><a xlink:href="Writer_8h.html" target="_top" xlink:title=" ">
<polygon fill="white" stroke="#666666" points="412.96,-206 357.96,-206 357.96,-187 412.96,-187 412.96,-206"/>
<text text-anchor="middle" x="385.46" y="-194" font-family="Helvetica,sans-Serif" font-size="10.00">Writer.h</text>
</a>
</g>
</g>
<!-- Node1&#45;&gt;Node19 -->
<g id="edge21_Node000001_Node000019" class="edge">
<title>Node1&#45;&gt;Node19</title>
<g id="a_edge21_Node000001_Node000019"><a xlink:title=" ">
<path fill="none" stroke="#63b8ff" d="M260.75,-241.99C288.47,-232.1 325.25,-218.98 351.67,-209.56"/>
<polygon fill="#63b8ff" stroke="#63b8ff" points="353,-212.8 361.24,-206.14 350.65,-206.2 353,-212.8"/>
</a>
</g>
</g>
<!-- Node5&#45;&gt;Node2 -->
<g id="edge8_Node000005_Node000002" class="edge">
<title>Node5&#45;&gt;Node2</title>
<g id="a_edge8_Node000005_Node000002"><a xlink:title=" ">
<path fill="none" stroke="#63b8ff" d="M191.14,-187C161.81,-178.57 116.24,-164.94 77.46,-151 76.04,-150.49 74.58,-149.95 73.12,-149.39"/>
<polygon fill="#63b8ff" stroke="#63b8ff" points="74.07,-146.01 63.48,-145.6 71.5,-152.52 74.07,-146.01"/>
</a>
</g>
</g>
<!-- Node5&#45;&gt;Node3 -->
<g id="edge6_Node000005_Node000003" class="edge">
<title>Node5&#45;&gt;Node3</title>
<g id="a_edge6_Node000005_Node000003"><a xlink:title=" ">
<path fill="none" stroke="#63b8ff" d="M224.03,-186.68C226.59,-177.73 230.54,-163.47 233.46,-151 243.64,-107.56 253.3,-56.02 258.17,-29.05"/>
<polygon fill="#63b8ff" stroke="#63b8ff" points="261.64,-29.56 259.96,-19.1 254.75,-28.32 261.64,-29.56"/>
</a>
</g>
</g>
<!-- Node6 -->
<g id="Node000006" class="node">
<title>Node6</title>
<g id="a_Node000006"><a xlink:title=" ">
<polygon fill="#e0e0e0" stroke="#999999" points="142.46,-145.5 86.46,-145.5 86.46,-126.5 142.46,-126.5 142.46,-145.5"/>
<text text-anchor="middle" x="114.46" y="-133.5" font-family="Helvetica,sans-Serif" font-size="10.00">QDebug</text>
</a>
</g>
</g>
<!-- Node5&#45;&gt;Node6 -->
<g id="edge5_Node000005_Node000006" class="edge">
<title>Node5&#45;&gt;Node6</title>
<g id="a_edge5_Node000005_Node000006"><a xlink:title=" ">
<path fill="none" stroke="#63b8ff" d="M205.68,-186.87C188.13,-177.28 159.58,-161.67 139.09,-150.47"/>
<polygon fill="#63b8ff" stroke="#63b8ff" points="140.77,-147.39 130.32,-145.67 137.41,-153.54 140.77,-147.39"/>
</a>
</g>
</g>
<!-- Node7 -->
<g id="Node000007" class="node">
<title>Node7</title>
<g id="a_Node000007"><a xlink:title=" ">
<polygon fill="#e0e0e0" stroke="#999999" points="463.96,-145.5 408.96,-145.5 408.96,-126.5 463.96,-126.5 463.96,-145.5"/>
<text text-anchor="middle" x="436.46" y="-133.5" font-family="Helvetica,sans-Serif" font-size="10.00">fstream</text>
</a>
</g>
</g>
<!-- Node5&#45;&gt;Node7 -->
<g id="edge7_Node000005_Node000007" class="edge">
<title>Node5&#45;&gt;Node7</title>
<g id="a_edge7_Node000005_Node000007"><a xlink:title=" ">
<path fill="none" stroke="#63b8ff" d="M259.67,-187.31C295.96,-179.21 351.89,-165.89 399.46,-151 401.38,-150.4 403.34,-149.75 405.31,-149.08"/>
<polygon fill="#63b8ff" stroke="#63b8ff" points="406.86,-152.24 415.09,-145.57 404.5,-145.66 406.86,-152.24"/>
</a>
</g>
</g>
<!-- Node8 -->
<g id="Node000008" class="node">
<title>Node8</title>
<g id="a_Node000008"><a xlink:title=" ">
<polygon fill="#e0e0e0" stroke="#999999" points="224.46,-145.5 160.46,-145.5 160.46,-126.5 224.46,-126.5 224.46,-145.5"/>
<text text-anchor="middle" x="192.46" y="-133.5" font-family="Helvetica,sans-Serif" font-size="10.00">algorithm</text>
</a>
</g>
</g>
<!-- Node5&#45;&gt;Node8 -->
<g id="edge9_Node000005_Node000008" class="edge">
<title>Node5&#45;&gt;Node8</title>
<g id="a_edge9_Node000005_Node000008"><a xlink:title=" ">
<path fill="none" stroke="#63b8ff" d="M217.18,-186.87C213.03,-178.49 206.6,-165.51 201.33,-154.89"/>
<polygon fill="#63b8ff" stroke="#63b8ff" points="204.34,-153.07 196.76,-145.67 198.07,-156.18 204.34,-153.07"/>
</a>
</g>
</g>
<!-- Node9 -->
<g id="Node000009" class="node">
<title>Node9</title>
<g id="a_Node000009"><a xlink:href="Logger_8h.html" target="_top" xlink:title=" ">
<polygon fill="white" stroke="#666666" points="390.46,-151 280.46,-151 280.46,-121 390.46,-121 390.46,-151"/>
<text text-anchor="start" x="288.46" y="-139" font-family="Helvetica,sans-Serif" font-size="10.00">src/services/Logger</text>
<text text-anchor="middle" x="335.46" y="-128" font-family="Helvetica,sans-Serif" font-size="10.00">/Logger.h</text>
</a>
</g>
</g>
<!-- Node5&#45;&gt;Node9 -->
<g id="edge10_Node000005_Node000009" class="edge">
<title>Node5&#45;&gt;Node9</title>
<g id="a_edge10_Node000005_Node000009"><a xlink:title=" ">
<path fill="none" stroke="#63b8ff" d="M238.28,-186.87C254.18,-178.71 278.57,-166.2 298.93,-155.75"/>
<polygon fill="#63b8ff" stroke="#63b8ff" points="300.66,-158.79 307.96,-151.11 297.46,-152.57 300.66,-158.79"/>
</a>
</g>
</g>
<!-- Node10 -->
<g id="Node000010" class="node">
<title>Node10</title>
<g id="a_Node000010"><a xlink:title=" ">
<polygon fill="#e0e0e0" stroke="#999999" points="364.96,-79.5 305.96,-79.5 305.96,-60.5 364.96,-60.5 364.96,-79.5"/>
<text text-anchor="middle" x="335.46" y="-67.5" font-family="Helvetica,sans-Serif" font-size="10.00">QWidget</text>
</a>
</g>
</g>
<!-- Node9&#45;&gt;Node10 -->
<g id="edge11_Node000009_Node000010" class="edge">
<title>Node9&#45;&gt;Node10</title>
<g id="a_edge11_Node000009_Node000010"><a xlink:title=" ">
<path fill="none" stroke="#63b8ff" d="M335.46,-120.8C335.46,-111.7 335.46,-99.79 335.46,-89.9"/>
<polygon fill="#63b8ff" stroke="#63b8ff" points="338.96,-89.84 335.46,-79.84 331.96,-89.84 338.96,-89.84"/>
</a>
</g>
</g>
<!-- Node11 -->
<g id="Node000011" class="node">
<title>Node11</title>
<g id="a_Node000011"><a xlink:href="Messages_8h.html" target="_top" xlink:title=" ">
<polygon fill="white" stroke="#666666" points="620.96,-85 517.96,-85 517.96,-55 620.96,-55 620.96,-85"/>
<text text-anchor="start" x="525.96" y="-73" font-family="Helvetica,sans-Serif" font-size="10.00">src/core/Protocols</text>
<text text-anchor="middle" x="569.46" y="-62" font-family="Helvetica,sans-Serif" font-size="10.00">/Messages.h</text>
</a>
</g>
</g>
<!-- Node9&#45;&gt;Node11 -->
<g id="edge12_Node000009_Node000011" class="edge">
<title>Node9&#45;&gt;Node11</title>
<g id="a_edge12_Node000009_Node000011"><a xlink:title=" ">
<path fill="none" stroke="#63b8ff" d="M386.82,-120.95C422.63,-111.16 470.58,-98.05 508.36,-87.71"/>
<polygon fill="#63b8ff" stroke="#63b8ff" points="509.51,-91.03 518.23,-85.01 507.66,-84.27 509.51,-91.03"/>
</a>
</g>
</g>
<!-- Node11&#45;&gt;Node3 -->
<g id="edge14_Node000011_Node000003" class="edge">
<title>Node11&#45;&gt;Node3</title>
<g id="a_edge14_Node000011_Node000003"><a xlink:title=" ">
<path fill="none" stroke="#63b8ff" d="M517.62,-57.83C512.83,-56.86 508.06,-55.9 503.46,-55 413.96,-37.54 390.96,-36.48 301.46,-19 299.98,-18.71 298.47,-18.41 296.95,-18.1"/>
<polygon fill="#63b8ff" stroke="#63b8ff" points="297.33,-14.61 286.83,-16.02 295.92,-21.47 297.33,-14.61"/>
</a>
</g>
</g>
<!-- Node12 -->
<g id="Node000012" class="node">
<title>Node12</title>
<g id="a_Node000012"><a xlink:title=" ">
<polygon fill="#e0e0e0" stroke="#999999" points="727.96,-19 676.96,-19 676.96,0 727.96,0 727.96,-19"/>
<text text-anchor="middle" x="702.46" y="-7" font-family="Helvetica,sans-Serif" font-size="10.00">variant</text>
</a>
</g>
</g>
<!-- Node11&#45;&gt;Node12 -->
<g id="edge13_Node000011_Node000012" class="edge">
<title>Node11&#45;&gt;Node12</title>
<g id="a_edge13_Node000011_Node000012"><a xlink:title=" ">
<path fill="none" stroke="#63b8ff" d="M601.32,-54.99C623.31,-45.31 652.32,-32.56 673.63,-23.18"/>
<polygon fill="#63b8ff" stroke="#63b8ff" points="675.08,-26.37 682.82,-19.14 672.26,-19.96 675.08,-26.37"/>
</a>
</g>
</g>
<!-- Node13 -->
<g id="Node000013" class="node">
<title>Node13</title>
<g id="a_Node000013"><a xlink:title=" ">
<polygon fill="#e0e0e0" stroke="#999999" points="790.46,-19 746.46,-19 746.46,0 790.46,0 790.46,-19"/>
<text text-anchor="middle" x="768.46" y="-7" font-family="Helvetica,sans-Serif" font-size="10.00">string</text>
</a>
</g>
</g>
<!-- Node11&#45;&gt;Node13 -->
<g id="edge15_Node000011_Node000013" class="edge">
<title>Node11&#45;&gt;Node13</title>
<g id="a_edge15_Node000011_Node000013"><a xlink:title=" ">
<path fill="none" stroke="#63b8ff" d="M617.13,-54.99C654.07,-44.13 704.23,-29.38 736.48,-19.9"/>
<polygon fill="#63b8ff" stroke="#63b8ff" points="737.67,-23.2 746.28,-17.02 735.7,-16.48 737.67,-23.2"/>
</a>
</g>
</g>
<!-- Node14 -->
<g id="Node000014" class="node">
<title>Node14</title>
<g id="a_Node000014"><a xlink:title=" ">
<polygon fill="#e0e0e0" stroke="#999999" points="382.96,-19 309.96,-19 309.96,0 382.96,0 382.96,-19"/>
<text text-anchor="middle" x="346.46" y="-7" font-family="Helvetica,sans-Serif" font-size="10.00">QByteArray</text>
</a>
</g>
</g>
<!-- Node11&#45;&gt;Node14 -->
<g id="edge16_Node000011_Node000014" class="edge">
<title>Node11&#45;&gt;Node14</title>
<g id="a_edge16_Node000011_Node000014"><a xlink:title=" ">
<path fill="none" stroke="#63b8ff" d="M517.74,-55.43C478.58,-45.16 425.45,-31.22 388.79,-21.6"/>
<polygon fill="#63b8ff" stroke="#63b8ff" points="389.48,-18.17 378.92,-19.01 387.7,-24.94 389.48,-18.17"/>
</a>
</g>
</g>
<!-- Node15 -->
<g id="Node000015" class="node">
<title>Node15</title>
<g id="a_Node000015"><a xlink:title=" ">
<polygon fill="#e0e0e0" stroke="#999999" points="449.96,-19 400.96,-19 400.96,0 449.96,0 449.96,-19"/>
<text text-anchor="middle" x="425.46" y="-7" font-family="Helvetica,sans-Serif" font-size="10.00">QHash</text>
</a>
</g>
</g>
<!-- Node11&#45;&gt;Node15 -->
<g id="edge17_Node000011_Node000015" class="edge">
<title>Node11&#45;&gt;Node15</title>
<g id="a_edge17_Node000011_Node000015"><a xlink:title=" ">
<path fill="none" stroke="#63b8ff" d="M534.97,-54.99C510.95,-45.23 479.19,-32.33 456.06,-22.93"/>
<polygon fill="#63b8ff" stroke="#63b8ff" points="457.31,-19.66 446.73,-19.14 454.68,-26.15 457.31,-19.66"/>
</a>
</g>
</g>
<!-- Node16 -->
<g id="Node000016" class="node">
<title>Node16</title>
<g id="a_Node000016"><a xlink:title=" ">
<polygon fill="#e0e0e0" stroke="#999999" points="520.96,-19 467.96,-19 467.96,0 520.96,0 520.96,-19"/>
<text text-anchor="middle" x="494.46" y="-7" font-family="Helvetica,sans-Serif" font-size="10.00">QString</text>
</a>
</g>
</g>
<!-- Node11&#45;&gt;Node16 -->
<g id="edge18_Node000011_Node000016" class="edge">
<title>Node11&#45;&gt;Node16</title>
<g id="a_edge18_Node000011_Node000016"><a xlink:title=" ">
<path fill="none" stroke="#63b8ff" d="M551.31,-54.84C539.98,-46 525.4,-34.63 513.85,-25.62"/>
<polygon fill="#63b8ff" stroke="#63b8ff" points="515.74,-22.66 505.7,-19.27 511.43,-28.18 515.74,-22.66"/>
</a>
</g>
</g>
<!-- Node17 -->
<g id="Node000017" class="node">
<title>Node17</title>
<g id="a_Node000017"><a xlink:title=" ">
<polygon fill="#e0e0e0" stroke="#999999" points="595.46,-19 539.46,-19 539.46,0 595.46,0 595.46,-19"/>
<text text-anchor="middle" x="567.46" y="-7" font-family="Helvetica,sans-Serif" font-size="10.00">QObject</text>
</a>
</g>
</g>
<!-- Node11&#45;&gt;Node17 -->
<g id="edge19_Node000011_Node000017" class="edge">
<title>Node11&#45;&gt;Node17</title>
<g id="a_edge19_Node000011_Node000017"><a xlink:title=" ">
<path fill="none" stroke="#63b8ff" d="M568.98,-54.84C568.72,-47.21 568.39,-37.7 568.11,-29.45"/>
<polygon fill="#63b8ff" stroke="#63b8ff" points="571.6,-29.14 567.76,-19.27 564.61,-29.38 571.6,-29.14"/>
</a>
</g>
</g>
<!-- Node18 -->
<g id="Node000018" class="node">
<title>Node18</title>
<g id="a_Node000018"><a xlink:title=" ">
<polygon fill="#e0e0e0" stroke="#999999" points="658.96,-19 613.96,-19 613.96,0 658.96,0 658.96,-19"/>
<text text-anchor="middle" x="636.46" y="-7" font-family="Helvetica,sans-Serif" font-size="10.00">QMap</text>
</a>
</g>
</g>
<!-- Node11&#45;&gt;Node18 -->
<g id="edge20_Node000011_Node000018" class="edge">
<title>Node11&#45;&gt;Node18</title>
<g id="a_edge20_Node000011_Node000018"><a xlink:title=" ">
<path fill="none" stroke="#63b8ff" d="M585.68,-54.84C595.71,-46.09 608.57,-34.85 618.84,-25.88"/>
<polygon fill="#63b8ff" stroke="#63b8ff" points="621.19,-28.48 626.42,-19.27 616.59,-23.21 621.19,-28.48"/>
</a>
</g>
</g>
<!-- Node19&#45;&gt;Node3 -->
<g id="edge22_Node000019_Node000003" class="edge">
<title>Node19&#45;&gt;Node3</title>
<g id="a_edge22_Node000019_Node000003"><a xlink:title=" ">
<path fill="none" stroke="#63b8ff" d="M412.99,-189.71C433.59,-183.77 460.37,-172.29 473.46,-151 480.45,-139.64 479.75,-132.76 473.46,-121 448.51,-74.38 421.33,-79.49 374.46,-55 349.23,-41.81 319.18,-30.16 296.42,-22.09"/>
<polygon fill="#63b8ff" stroke="#63b8ff" points="297.42,-18.73 286.83,-18.75 295.12,-25.34 297.42,-18.73"/>
</a>
</g>
</g>
<!-- Node19&#45;&gt;Node7 -->
<g id="edge23_Node000019_Node000007" class="edge">
<title>Node19&#45;&gt;Node7</title>
<g id="a_edge23_Node000019_Node000007"><a xlink:title=" ">
<path fill="none" stroke="#63b8ff" d="M392.99,-186.87C400.67,-178.05 412.79,-164.16 422.28,-153.27"/>
<polygon fill="#63b8ff" stroke="#63b8ff" points="424.97,-155.51 428.91,-145.67 419.7,-150.91 424.97,-155.51"/>
</a>
</g>
</g>
<!-- Node19&#45;&gt;Node9 -->
<g id="edge25_Node000019_Node000009" class="edge">
<title>Node19&#45;&gt;Node9</title>
<g id="a_edge25_Node000019_Node000009"><a xlink:title=" ">
<path fill="none" stroke="#63b8ff" d="M378.09,-186.87C371.8,-179.52 362.5,-168.63 354.19,-158.91"/>
<polygon fill="#63b8ff" stroke="#63b8ff" points="356.68,-156.44 347.53,-151.11 351.36,-160.99 356.68,-156.44"/>
</a>
</g>
</g>
<!-- Node19&#45;&gt;Node13 -->
<g id="edge24_Node000019_Node000013" class="edge">
<title>Node19&#45;&gt;Node13</title>
<g id="a_edge24_Node000019_Node000013"><a xlink:title=" ">
<path fill="none" stroke="#63b8ff" d="M406.27,-186.84C427.33,-178.02 460.79,-163.84 489.46,-151 552.61,-122.72 568.66,-116.11 630.46,-85 670.93,-64.63 717.09,-39.27 744.44,-24.01"/>
<polygon fill="#63b8ff" stroke="#63b8ff" points="746.28,-26.99 753.3,-19.06 742.86,-20.88 746.28,-26.99"/>
</a>
</g>
</g>
</g>
</svg>

<g id="navigator" transform="translate(0 0)" fill="#404254">
  <rect fill="#f2f5e9" fill-opacity="0.5" stroke="#606060" stroke-width=".5" x="0" y="0" width="60" height="60"/>
  <use id="zoomplus" xlink:href="#zoomPlus" x="17" y="9" onmousedown="handleZoom(evt,'in')"/>
  <use id="zoomminus" xlink:href="#zoomMin" x="42" y="9" onmousedown="handleZoom(evt,'out')"/>
  <use id="reset" xlink:href="#resetDef" x="30" y="36" onmousedown="handleReset()"/>
   <use id="arrowup" xlink:href="#arrowUp" x="0" y="0" onmousedown="handlePan(0,-1)"/>
  <use id="arrowright" xlink:href="#arrowRight" x="0" y="0" onmousedown="handlePan(1,0)"/>
  <use id="arrowdown" xlink:href="#arrowDown" x="0" y="0" onmousedown="handlePan(0,1)"/>
  <use id="arrowleft" xlink:href="#arrowLeft" x="0" y="0" onmousedown="handlePan(-1,0)"/>
</g>
<svg viewBox="0 0 15 15" width="100%" height="30px" preserveAspectRatio="xMaxYMin meet">
 <g id="arrow_out" transform="scale(0.3 0.3)">
  <a xlink:href="UdpLogger_8h__incl_org.svg" target="_base">
   <rect id="button" ry="5" rx="5" y="6" x="6" height="38" width="38"
        fill="#f2f5e9" fill-opacity="0.5" stroke="#606060" stroke-width="1.0"/>
   <path id="arrow"
     d="M 11.500037,31.436501 C 11.940474,20.09759 22.043105,11.32322 32.158766,21.979434 L 37.068811,17.246167 C 37.068811,17.246167 37.088388,32 37.088388,32 L 22.160133,31.978069 C 22.160133,31.978069 26.997745,27.140456 26.997745,27.140456 C 18.528582,18.264221 13.291696,25.230495 11.500037,31.436501 z"
     style="fill:#404040;"/>
  </a>
 </g>
</svg>

<style type='text/css'>
<![CDATA[
[data-mouse-over-selected='false'] { opacity: 0.7; }
[data-mouse-over-selected='true']  { opacity: 1.0; }
]]>
</style>
<script type="application/ecmascript"><![CDATA[
document.addEventListener('DOMContentLoaded', (event) => {
  highlightEdges();
  highlightAdjacentNodes();
});
]]></script>
</svg>
