<?xml version="1.0" encoding="UTF-8" standalone="no"?>
<!DOCTYPE svg PUBLIC "-//W3C//DTD SVG 1.1//EN"
 "http://www.w3.org/Graphics/SVG/1.1/DTD/svg11.dtd">
<!-- Generated by graphviz version 2.43.0 (0)
 -->
<!-- Title: features/communication/udp/frames_logger/UdpLogger.cpp Pages: 1 -->
<!--zoomable 335 -->

<svg id="main" version="1.1" xmlns="http://www.w3.org/2000/svg" xmlns:xlink="http://www.w3.org/1999/xlink" xml:space="preserve" onload="init(evt)">
<style type="text/css"><![CDATA[
.node, .edge {opacity: 0.7;}
.node.selected, .edge.selected {opacity: 1;}
.edge:hover path { stroke: red; }
.edge:hover polygon { stroke: red; fill: red; }
]]></style>

<defs>
  <circle id="rim" cx="0" cy="0" r="7"/>
  <circle id="rim2" cx="0" cy="0" r="3.5"/>
  <g id="zoomPlus">
    <use xlink:href="#rim" fill="#404040"><set attributeName="fill" to="#808080" begin="zoomplus.mouseover" end="zoomplus.mouseout"/></use>
    <path d="M-4,0h8M0,-4v8" fill="none" stroke="white" stroke-width="1.5" pointer-events="none"/>
  </g>
  <g id="zoomMin">
    <use xlink:href="#rim" fill="#404040"><set attributeName="fill" to="#808080" begin="zoomminus.mouseover" end="zoomminus.mouseout"/></use>
    <path d="M-4,0h8" fill="none" stroke="white" stroke-width="1.5" pointer-events="none"/>
  </g>
  <g id="arrowUp" transform="translate(30 24)">
    <use xlink:href="#rim"/>
    <path pointer-events="none" fill="none" stroke="white" stroke-width="1.5" d="M0,-3.0v7 M-2.5,-0.5L0,-3.0L2.5,-0.5"/>
  </g>
  <g id="arrowRight" transform="rotate(90) translate(36 -43)">
    <use xlink:href="#rim"/>
    <path pointer-events="none" fill="none" stroke="white" stroke-width="1.5" d="M0,-3.0v7 M-2.5,-0.5L0,-3.0L2.5,-0.5"/>
  </g>
  <g id="arrowDown" transform="rotate(180) translate(-30 -48)">
    <use xlink:href="#rim"/>
    <path pointer-events="none" fill="none" stroke="white" stroke-width="1.5" d="M0,-3.0v7 M-2.5,-0.5L0,-3.0L2.5,-0.5"/>
  </g>
  <g id="arrowLeft" transform="rotate(270) translate(-36 17)">
    <use xlink:href="#rim"/>
    <path pointer-events="none" fill="none" stroke="white" stroke-width="1.5" d="M0,-3.0v7 M-2.5,-0.5L0,-3.0L2.5,-0.5"/>
  </g>
  <g id="resetDef">
    <use xlink:href="#rim2" fill="#404040"><set attributeName="fill" to="#808080" begin="reset.mouseover" end="reset.mouseout"/></use>
  </g>
</defs>
<script type="application/ecmascript">
var viewWidth = 726;
var viewHeight = 335;
var sectionId = 'dynsection-0';
</script>
<script type="application/ecmascript" xlink:href="svg.min.js"/>
<svg id="graph" class="graph">
<g id="viewport">
<title>features/communication/udp/frames_logger/UdpLogger.cpp</title>
<!-- Node1 -->
<g id="Node000001" class="node">
<title>Node1</title>
<g id="a_Node000001"><a xlink:title=" ">
<polygon fill="#999999" stroke="#666666" points="466.49,-327 280.49,-327 280.49,-297 466.49,-297 466.49,-327"/>
<text text-anchor="start" x="288.49" y="-315" font-family="Helvetica,sans-Serif" font-size="10.00">features/communication</text>
<text text-anchor="middle" x="373.49" y="-304" font-family="Helvetica,sans-Serif" font-size="10.00">/udp/frames_logger/UdpLogger.cpp</text>
</a>
</g>
</g>
<!-- Node2 -->
<g id="Node000002" class="node">
<title>Node2</title>
<g id="a_Node000002"><a xlink:href="UdpLogger_8h.html" target="_top" xlink:title="High&#45;frequency binary logger for UDP telemetry frames.">
<polygon fill="white" stroke="#666666" points="234.99,-261 157.99,-261 157.99,-242 234.99,-242 234.99,-261"/>
<text text-anchor="middle" x="196.49" y="-249" font-family="Helvetica,sans-Serif" font-size="10.00">UdpLogger.h</text>
</a>
</g>
</g>
<!-- Node1&#45;&gt;Node2 -->
<g id="edge1_Node000001_Node000002" class="edge">
<title>Node1&#45;&gt;Node2</title>
<g id="a_edge1_Node000001_Node000002"><a xlink:title=" ">
<path fill="none" stroke="#63b8ff" d="M331.09,-296.99C300.81,-286.98 260.54,-273.67 231.96,-264.22"/>
<polygon fill="#63b8ff" stroke="#63b8ff" points="232.96,-260.87 222.37,-261.05 230.77,-267.52 232.96,-260.87"/>
</a>
</g>
</g>
<!-- Node6 -->
<g id="Node000006" class="node">
<title>Node6</title>
<g id="a_Node000006"><a xlink:href="RingBuffer_8h.html" target="_top" xlink:title=" ">
<polygon fill="white" stroke="#666666" points="265.49,-206 189.49,-206 189.49,-187 265.49,-187 265.49,-206"/>
<text text-anchor="middle" x="227.49" y="-194" font-family="Helvetica,sans-Serif" font-size="10.00">RingBuffer.h</text>
</a>
</g>
</g>
<!-- Node1&#45;&gt;Node6 -->
<g id="edge27_Node000001_Node000006" class="edge">
<title>Node1&#45;&gt;Node6</title>
<g id="a_edge27_Node000001_Node000006"><a xlink:title=" ">
<path fill="none" stroke="#63b8ff" d="M355.29,-296.85C327.58,-275.31 275.05,-234.47 246.73,-212.46"/>
<polygon fill="#63b8ff" stroke="#63b8ff" points="248.81,-209.64 238.77,-206.27 244.52,-215.17 248.81,-209.64"/>
</a>
</g>
</g>
<!-- Node10 -->
<g id="Node000010" class="node">
<title>Node10</title>
<g id="a_Node000010"><a xlink:href="Logger_8h.html" target="_top" xlink:title=" ">
<polygon fill="white" stroke="#666666" points="499.49,-151 389.49,-151 389.49,-121 499.49,-121 499.49,-151"/>
<text text-anchor="start" x="397.49" y="-139" font-family="Helvetica,sans-Serif" font-size="10.00">src/services/Logger</text>
<text text-anchor="middle" x="444.49" y="-128" font-family="Helvetica,sans-Serif" font-size="10.00">/Logger.h</text>
</a>
</g>
</g>
<!-- Node1&#45;&gt;Node10 -->
<g id="edge29_Node000001_Node000010" class="edge">
<title>Node1&#45;&gt;Node10</title>
<g id="a_edge29_Node000001_Node000010"><a xlink:title=" ">
<path fill="none" stroke="#63b8ff" d="M379.3,-296.76C391.47,-266.94 419.75,-197.63 434.75,-160.88"/>
<polygon fill="#63b8ff" stroke="#63b8ff" points="438.06,-162.02 438.6,-151.44 431.58,-159.37 438.06,-162.02"/>
</a>
</g>
</g>
<!-- Node20 -->
<g id="Node000020" class="node">
<title>Node20</title>
<g id="a_Node000020"><a xlink:href="Writer_8h.html" target="_top" xlink:title=" ">
<polygon fill="white" stroke="#666666" points="363.99,-206 308.99,-206 308.99,-187 363.99,-187 363.99,-206"/>
<text text-anchor="middle" x="336.49" y="-194" font-family="Helvetica,sans-Serif" font-size="10.00">Writer.h</text>
</a>
</g>
</g>
<!-- Node1&#45;&gt;Node20 -->
<g id="edge28_Node000001_Node000020" class="edge">
<title>Node1&#45;&gt;Node20</title>
<g id="a_edge28_Node000001_Node000020"><a xlink:title=" ">
<path fill="none" stroke="#63b8ff" d="M368.8,-296.63C362.12,-276.12 349.84,-238.47 342.5,-215.93"/>
<polygon fill="#63b8ff" stroke="#63b8ff" points="345.76,-214.65 339.33,-206.23 339.11,-216.82 345.76,-214.65"/>
</a>
</g>
</g>
<!-- Node21 -->
<g id="Node000021" class="node">
<title>Node21</title>
<g id="a_Node000021"><a xlink:title=" ">
<polygon fill="#e0e0e0" stroke="#999999" points="470.49,-261 420.49,-261 420.49,-242 470.49,-242 470.49,-261"/>
<text text-anchor="middle" x="445.49" y="-249" font-family="Helvetica,sans-Serif" font-size="10.00">chrono</text>
</a>
</g>
</g>
<!-- Node1&#45;&gt;Node21 -->
<g id="edge30_Node000001_Node000021" class="edge">
<title>Node1&#45;&gt;Node21</title>
<g id="a_edge30_Node000001_Node000021"><a xlink:title=" ">
<path fill="none" stroke="#63b8ff" d="M390.92,-296.84C401.8,-288 415.79,-276.63 426.88,-267.62"/>
<polygon fill="#63b8ff" stroke="#63b8ff" points="429.15,-270.29 434.7,-261.27 424.73,-264.86 429.15,-270.29"/>
</a>
</g>
</g>
<!-- Node22 -->
<g id="Node000022" class="node">
<title>Node22</title>
<g id="a_Node000022"><a xlink:title=" ">
<polygon fill="#e0e0e0" stroke="#999999" points="538.49,-261 488.49,-261 488.49,-242 538.49,-242 538.49,-261"/>
<text text-anchor="middle" x="513.49" y="-249" font-family="Helvetica,sans-Serif" font-size="10.00">format</text>
</a>
</g>
</g>
<!-- Node1&#45;&gt;Node22 -->
<g id="edge31_Node000001_Node000022" class="edge">
<title>Node1&#45;&gt;Node22</title>
<g id="a_edge31_Node000001_Node000022"><a xlink:title=" ">
<path fill="none" stroke="#63b8ff" d="M407.02,-296.99C430.28,-287.27 460.98,-274.44 483.44,-265.06"/>
<polygon fill="#63b8ff" stroke="#63b8ff" points="484.94,-268.22 492.81,-261.14 482.24,-261.77 484.94,-268.22"/>
</a>
</g>
</g>
<!-- Node3 -->
<g id="Node000003" class="node">
<title>Node3</title>
<g id="a_Node000003"><a xlink:title=" ">
<polygon fill="#e0e0e0" stroke="#999999" points="65.49,-145.5 15.49,-145.5 15.49,-126.5 65.49,-126.5 65.49,-145.5"/>
<text text-anchor="middle" x="40.49" y="-133.5" font-family="Helvetica,sans-Serif" font-size="10.00">atomic</text>
</a>
</g>
</g>
<!-- Node2&#45;&gt;Node3 -->
<g id="edge2_Node000002_Node000003" class="edge">
<title>Node2&#45;&gt;Node3</title>
<g id="a_edge2_Node000002_Node000003"><a xlink:title=" ">
<path fill="none" stroke="#63b8ff" d="M177.45,-241.88C160.3,-233.71 134.73,-220.57 114.49,-206 92.35,-190.07 69.85,-168.08 55.57,-153.25"/>
<polygon fill="#63b8ff" stroke="#63b8ff" points="57.95,-150.67 48.53,-145.82 52.87,-155.49 57.95,-150.67"/>
</a>
</g>
</g>
<!-- Node4 -->
<g id="Node000004" class="node">
<title>Node4</title>
<g id="a_Node000004"><a xlink:title=" ">
<polygon fill="#e0e0e0" stroke="#999999" points="153.49,-19 103.49,-19 103.49,0 153.49,0 153.49,-19"/>
<text text-anchor="middle" x="128.49" y="-7" font-family="Helvetica,sans-Serif" font-size="10.00">cstdint</text>
</a>
</g>
</g>
<!-- Node2&#45;&gt;Node4 -->
<g id="edge3_Node000002_Node000004" class="edge">
<title>Node2&#45;&gt;Node4</title>
<g id="a_edge3_Node000002_Node000004"><a xlink:title=" ">
<path fill="none" stroke="#63b8ff" d="M157.93,-243.52C111.7,-232.8 36.7,-207.26 6.49,-151 -22.2,-97.57 56.79,-46.95 100.96,-23.75"/>
<polygon fill="#63b8ff" stroke="#63b8ff" points="102.76,-26.76 110.07,-19.09 99.57,-20.53 102.76,-26.76"/>
</a>
</g>
</g>
<!-- Node5 -->
<g id="Node000005" class="node">
<title>Node5</title>
<g id="a_Node000005"><a xlink:title=" ">
<polygon fill="#e0e0e0" stroke="#999999" points="171.49,-206 123.49,-206 123.49,-187 171.49,-187 171.49,-206"/>
<text text-anchor="middle" x="147.49" y="-194" font-family="Helvetica,sans-Serif" font-size="10.00">thread</text>
</a>
</g>
</g>
<!-- Node2&#45;&gt;Node5 -->
<g id="edge4_Node000002_Node000005" class="edge">
<title>Node2&#45;&gt;Node5</title>
<g id="a_edge4_Node000002_Node000005"><a xlink:title=" ">
<path fill="none" stroke="#63b8ff" d="M188.4,-241.75C181.33,-234.11 170.9,-222.82 162.34,-213.56"/>
<polygon fill="#63b8ff" stroke="#63b8ff" points="164.79,-211.06 155.43,-206.09 159.65,-215.81 164.79,-211.06"/>
</a>
</g>
</g>
<!-- Node2&#45;&gt;Node6 -->
<g id="edge5_Node000002_Node000006" class="edge">
<title>Node2&#45;&gt;Node6</title>
<g id="a_edge5_Node000002_Node000006"><a xlink:title=" ">
<path fill="none" stroke="#63b8ff" d="M201.61,-241.75C205.85,-234.49 212.02,-223.95 217.26,-214.98"/>
<polygon fill="#63b8ff" stroke="#63b8ff" points="220.44,-216.49 222.47,-206.09 214.4,-212.95 220.44,-216.49"/>
</a>
</g>
</g>
<!-- Node2&#45;&gt;Node20 -->
<g id="edge22_Node000002_Node000020" class="edge">
<title>Node2&#45;&gt;Node20</title>
<g id="a_edge22_Node000002_Node000020"><a xlink:title=" ">
<path fill="none" stroke="#63b8ff" d="M218.98,-241.98C242.01,-233.27 278.03,-219.63 304.12,-209.75"/>
<polygon fill="#63b8ff" stroke="#63b8ff" points="305.47,-212.98 313.59,-206.17 302.99,-206.44 305.47,-212.98"/>
</a>
</g>
</g>
<!-- Node6&#45;&gt;Node3 -->
<g id="edge9_Node000006_Node000003" class="edge">
<title>Node6&#45;&gt;Node3</title>
<g id="a_edge9_Node000006_Node000003"><a xlink:title=" ">
<path fill="none" stroke="#63b8ff" d="M197.3,-186.93C167.29,-178.29 120.01,-164.35 79.49,-151 77.59,-150.38 75.65,-149.72 73.69,-149.05"/>
<polygon fill="#63b8ff" stroke="#63b8ff" points="74.53,-145.64 63.93,-145.64 72.22,-152.24 74.53,-145.64"/>
</a>
</g>
</g>
<!-- Node6&#45;&gt;Node4 -->
<g id="edge7_Node000006_Node000004" class="edge">
<title>Node6&#45;&gt;Node4</title>
<g id="a_edge7_Node000006_Node000004"><a xlink:title=" ">
<path fill="none" stroke="#63b8ff" d="M193.75,-186.98C163.35,-178.55 122.02,-164.91 112.49,-151 86.78,-113.48 106.66,-56.69 119.61,-28.17"/>
<polygon fill="#63b8ff" stroke="#63b8ff" points="122.82,-29.56 123.97,-19.02 116.5,-26.54 122.82,-29.56"/>
</a>
</g>
</g>
<!-- Node7 -->
<g id="Node000007" class="node">
<title>Node7</title>
<g id="a_Node000007"><a xlink:title=" ">
<polygon fill="#e0e0e0" stroke="#999999" points="177.49,-145.5 121.49,-145.5 121.49,-126.5 177.49,-126.5 177.49,-145.5"/>
<text text-anchor="middle" x="149.49" y="-133.5" font-family="Helvetica,sans-Serif" font-size="10.00">QDebug</text>
</a>
</g>
</g>
<!-- Node6&#45;&gt;Node7 -->
<g id="edge6_Node000006_Node000007" class="edge">
<title>Node6&#45;&gt;Node7</title>
<g id="a_edge6_Node000006_Node000007"><a xlink:title=" ">
<path fill="none" stroke="#63b8ff" d="M215.98,-186.87C203.65,-177.62 183.87,-162.78 169.08,-151.69"/>
<polygon fill="#63b8ff" stroke="#63b8ff" points="171.15,-148.87 161.05,-145.67 166.95,-154.47 171.15,-148.87"/>
</a>
</g>
</g>
<!-- Node8 -->
<g id="Node000008" class="node">
<title>Node8</title>
<g id="a_Node000008"><a xlink:title=" ">
<polygon fill="#e0e0e0" stroke="#999999" points="332.99,-145.5 277.99,-145.5 277.99,-126.5 332.99,-126.5 332.99,-145.5"/>
<text text-anchor="middle" x="305.49" y="-133.5" font-family="Helvetica,sans-Serif" font-size="10.00">fstream</text>
</a>
</g>
</g>
<!-- Node6&#45;&gt;Node8 -->
<g id="edge8_Node000006_Node000008" class="edge">
<title>Node6&#45;&gt;Node8</title>
<g id="a_edge8_Node000006_Node000008"><a xlink:title=" ">
<path fill="none" stroke="#63b8ff" d="M239,-186.87C251.33,-177.62 271.11,-162.78 285.9,-151.69"/>
<polygon fill="#63b8ff" stroke="#63b8ff" points="288.03,-154.47 293.93,-145.67 283.83,-148.87 288.03,-154.47"/>
</a>
</g>
</g>
<!-- Node9 -->
<g id="Node000009" class="node">
<title>Node9</title>
<g id="a_Node000009"><a xlink:title=" ">
<polygon fill="#e0e0e0" stroke="#999999" points="259.49,-145.5 195.49,-145.5 195.49,-126.5 259.49,-126.5 259.49,-145.5"/>
<text text-anchor="middle" x="227.49" y="-133.5" font-family="Helvetica,sans-Serif" font-size="10.00">algorithm</text>
</a>
</g>
</g>
<!-- Node6&#45;&gt;Node9 -->
<g id="edge10_Node000006_Node000009" class="edge">
<title>Node6&#45;&gt;Node9</title>
<g id="a_edge10_Node000006_Node000009"><a xlink:title=" ">
<path fill="none" stroke="#63b8ff" d="M227.49,-186.87C227.49,-178.75 227.49,-166.31 227.49,-155.89"/>
<polygon fill="#63b8ff" stroke="#63b8ff" points="230.99,-155.67 227.49,-145.67 223.99,-155.67 230.99,-155.67"/>
</a>
</g>
</g>
<!-- Node6&#45;&gt;Node10 -->
<g id="edge11_Node000006_Node000010" class="edge">
<title>Node6&#45;&gt;Node10</title>
<g id="a_edge11_Node000006_Node000010"><a xlink:title=" ">
<path fill="none" stroke="#63b8ff" d="M259.04,-186.99C291.3,-178.3 342.24,-164.57 382.57,-153.69"/>
<polygon fill="#63b8ff" stroke="#63b8ff" points="383.57,-157.05 392.32,-151.06 381.75,-150.29 383.57,-157.05"/>
</a>
</g>
</g>
<!-- Node11 -->
<g id="Node000011" class="node">
<title>Node11</title>
<g id="a_Node000011"><a xlink:title=" ">
<polygon fill="#e0e0e0" stroke="#999999" points="448.99,-79.5 389.99,-79.5 389.99,-60.5 448.99,-60.5 448.99,-79.5"/>
<text text-anchor="middle" x="419.49" y="-67.5" font-family="Helvetica,sans-Serif" font-size="10.00">QWidget</text>
</a>
</g>
</g>
<!-- Node10&#45;&gt;Node11 -->
<g id="edge12_Node000010_Node000011" class="edge">
<title>Node10&#45;&gt;Node11</title>
<g id="a_edge12_Node000010_Node000011"><a xlink:title=" ">
<path fill="none" stroke="#63b8ff" d="M438.94,-120.8C435.31,-111.5 430.53,-99.27 426.62,-89.26"/>
<polygon fill="#63b8ff" stroke="#63b8ff" points="429.84,-87.89 422.94,-79.84 423.32,-90.43 429.84,-87.89"/>
</a>
</g>
</g>
<!-- Node12 -->
<g id="Node000012" class="node">
<title>Node12</title>
<g id="a_Node000012"><a xlink:href="Messages_8h.html" target="_top" xlink:title=" ">
<polygon fill="white" stroke="#666666" points="569.99,-85 466.99,-85 466.99,-55 569.99,-55 569.99,-85"/>
<text text-anchor="start" x="474.99" y="-73" font-family="Helvetica,sans-Serif" font-size="10.00">src/core/Protocols</text>
<text text-anchor="middle" x="518.49" y="-62" font-family="Helvetica,sans-Serif" font-size="10.00">/Messages.h</text>
</a>
</g>
</g>
<!-- Node10&#45;&gt;Node12 -->
<g id="edge13_Node000010_Node000012" class="edge">
<title>Node10&#45;&gt;Node12</title>
<g id="a_edge13_Node000010_Node000012"><a xlink:title=" ">
<path fill="none" stroke="#63b8ff" d="M460.91,-120.8C470.78,-112.26 483.51,-101.25 494.49,-91.75"/>
<polygon fill="#63b8ff" stroke="#63b8ff" points="496.84,-94.35 502.11,-85.16 492.26,-89.06 496.84,-94.35"/>
</a>
</g>
</g>
<!-- Node12&#45;&gt;Node4 -->
<g id="edge15_Node000012_Node000004" class="edge">
<title>Node12&#45;&gt;Node4</title>
<g id="a_edge15_Node000012_Node000004"><a xlink:title=" ">
<path fill="none" stroke="#63b8ff" d="M466.84,-56.62C464.02,-56.05 461.22,-55.5 458.49,-55 352.02,-35.45 224.74,-20.69 164.06,-14.17"/>
<polygon fill="#63b8ff" stroke="#63b8ff" points="164.19,-10.67 153.87,-13.09 163.45,-17.63 164.19,-10.67"/>
</a>
</g>
</g>
<!-- Node13 -->
<g id="Node000013" class="node">
<title>Node13</title>
<g id="a_Node000013"><a xlink:title=" ">
<polygon fill="#e0e0e0" stroke="#999999" points="352.99,-19 301.99,-19 301.99,0 352.99,0 352.99,-19"/>
<text text-anchor="middle" x="327.49" y="-7" font-family="Helvetica,sans-Serif" font-size="10.00">variant</text>
</a>
</g>
</g>
<!-- Node12&#45;&gt;Node13 -->
<g id="edge14_Node000012_Node000013" class="edge">
<title>Node12&#45;&gt;Node13</title>
<g id="a_edge14_Node000012_Node000013"><a xlink:title=" ">
<path fill="none" stroke="#63b8ff" d="M472.74,-54.99C439.13,-44.69 394.11,-30.9 363.14,-21.42"/>
<polygon fill="#63b8ff" stroke="#63b8ff" points="363.8,-17.96 353.22,-18.38 361.75,-24.66 363.8,-17.96"/>
</a>
</g>
</g>
<!-- Node14 -->
<g id="Node000014" class="node">
<title>Node14</title>
<g id="a_Node000014"><a xlink:title=" ">
<polygon fill="#e0e0e0" stroke="#999999" points="718.49,-19 674.49,-19 674.49,0 718.49,0 718.49,-19"/>
<text text-anchor="middle" x="696.49" y="-7" font-family="Helvetica,sans-Serif" font-size="10.00">string</text>
</a>
</g>
</g>
<!-- Node12&#45;&gt;Node14 -->
<g id="edge16_Node000012_Node000014" class="edge">
<title>Node12&#45;&gt;Node14</title>
<g id="a_edge16_Node000012_Node000014"><a xlink:title=" ">
<path fill="none" stroke="#63b8ff" d="M561.12,-54.99C592.96,-44.53 635.77,-30.46 664.66,-20.96"/>
<polygon fill="#63b8ff" stroke="#63b8ff" points="665.84,-24.26 674.25,-17.81 663.66,-17.61 665.84,-24.26"/>
</a>
</g>
</g>
<!-- Node15 -->
<g id="Node000015" class="node">
<title>Node15</title>
<g id="a_Node000015"><a xlink:title=" ">
<polygon fill="#e0e0e0" stroke="#999999" points="443.99,-19 370.99,-19 370.99,0 443.99,0 443.99,-19"/>
<text text-anchor="middle" x="407.49" y="-7" font-family="Helvetica,sans-Serif" font-size="10.00">QByteArray</text>
</a>
</g>
</g>
<!-- Node12&#45;&gt;Node15 -->
<g id="edge17_Node000012_Node000015" class="edge">
<title>Node12&#45;&gt;Node15</title>
<g id="a_edge17_Node000012_Node000015"><a xlink:title=" ">
<path fill="none" stroke="#63b8ff" d="M491.9,-54.99C474.04,-45.58 450.64,-33.24 433.01,-23.95"/>
<polygon fill="#63b8ff" stroke="#63b8ff" points="434.36,-20.71 423.88,-19.14 431.1,-26.9 434.36,-20.71"/>
</a>
</g>
</g>
<!-- Node16 -->
<g id="Node000016" class="node">
<title>Node16</title>
<g id="a_Node000016"><a xlink:title=" ">
<polygon fill="#e0e0e0" stroke="#999999" points="510.99,-19 461.99,-19 461.99,0 510.99,0 510.99,-19"/>
<text text-anchor="middle" x="486.49" y="-7" font-family="Helvetica,sans-Serif" font-size="10.00">QHash</text>
</a>
</g>
</g>
<!-- Node12&#45;&gt;Node16 -->
<g id="edge18_Node000012_Node000016" class="edge">
<title>Node12&#45;&gt;Node16</title>
<g id="a_edge18_Node000012_Node000016"><a xlink:title=" ">
<path fill="none" stroke="#63b8ff" d="M510.74,-54.84C506.33,-46.78 500.78,-36.62 496.09,-28.06"/>
<polygon fill="#63b8ff" stroke="#63b8ff" points="499.15,-26.36 491.28,-19.27 493.01,-29.72 499.15,-26.36"/>
</a>
</g>
</g>
<!-- Node17 -->
<g id="Node000017" class="node">
<title>Node17</title>
<g id="a_Node000017"><a xlink:title=" ">
<polygon fill="#e0e0e0" stroke="#999999" points="581.99,-19 528.99,-19 528.99,0 581.99,0 581.99,-19"/>
<text text-anchor="middle" x="555.49" y="-7" font-family="Helvetica,sans-Serif" font-size="10.00">QString</text>
</a>
</g>
</g>
<!-- Node12&#45;&gt;Node17 -->
<g id="edge19_Node000012_Node000017" class="edge">
<title>Node12&#45;&gt;Node17</title>
<g id="a_edge19_Node000012_Node000017"><a xlink:title=" ">
<path fill="none" stroke="#63b8ff" d="M527.45,-54.84C532.6,-46.69 539.11,-36.4 544.56,-27.78"/>
<polygon fill="#63b8ff" stroke="#63b8ff" points="547.56,-29.59 549.94,-19.27 541.64,-25.85 547.56,-29.59"/>
</a>
</g>
</g>
<!-- Node18 -->
<g id="Node000018" class="node">
<title>Node18</title>
<g id="a_Node000018"><a xlink:title=" ">
<polygon fill="#e0e0e0" stroke="#999999" points="656.49,-19 600.49,-19 600.49,0 656.49,0 656.49,-19"/>
<text text-anchor="middle" x="628.49" y="-7" font-family="Helvetica,sans-Serif" font-size="10.00">QObject</text>
</a>
</g>
</g>
<!-- Node12&#45;&gt;Node18 -->
<g id="edge20_Node000012_Node000018" class="edge">
<title>Node12&#45;&gt;Node18</title>
<g id="a_edge20_Node000012_Node000018"><a xlink:title=" ">
<path fill="none" stroke="#63b8ff" d="M544.84,-54.99C562.53,-45.58 585.72,-33.24 603.2,-23.95"/>
<polygon fill="#63b8ff" stroke="#63b8ff" points="605.06,-26.92 612.24,-19.14 601.77,-20.74 605.06,-26.92"/>
</a>
</g>
</g>
<!-- Node19 -->
<g id="Node000019" class="node">
<title>Node19</title>
<g id="a_Node000019"><a xlink:title=" ">
<polygon fill="#e0e0e0" stroke="#999999" points="283.99,-19 238.99,-19 238.99,0 283.99,0 283.99,-19"/>
<text text-anchor="middle" x="261.49" y="-7" font-family="Helvetica,sans-Serif" font-size="10.00">QMap</text>
</a>
</g>
</g>
<!-- Node12&#45;&gt;Node19 -->
<g id="edge21_Node000012_Node000019" class="edge">
<title>Node12&#45;&gt;Node19</title>
<g id="a_edge21_Node000012_Node000019"><a xlink:title=" ">
<path fill="none" stroke="#63b8ff" d="M466.79,-56.89C463.98,-56.24 461.2,-55.61 458.49,-55 388.28,-39.15 368.08,-36.81 293.99,-19.03"/>
<polygon fill="#63b8ff" stroke="#63b8ff" points="294.72,-15.61 284.18,-16.66 293.08,-22.41 294.72,-15.61"/>
</a>
</g>
</g>
<!-- Node20&#45;&gt;Node4 -->
<g id="edge23_Node000020_Node000004" class="edge">
<title>Node20&#45;&gt;Node4</title>
<g id="a_edge23_Node000020_Node000004"><a xlink:title=" ">
<path fill="none" stroke="#63b8ff" d="M340.22,-186.93C345.99,-172.25 355.18,-141.83 342.49,-121 303.4,-56.82 213.73,-28.29 163.76,-16.99"/>
<polygon fill="#63b8ff" stroke="#63b8ff" points="164.24,-13.52 153.73,-14.83 162.77,-20.36 164.24,-13.52"/>
</a>
</g>
</g>
<!-- Node20&#45;&gt;Node8 -->
<g id="edge24_Node000020_Node000008" class="edge">
<title>Node20&#45;&gt;Node8</title>
<g id="a_edge24_Node000020_Node000008"><a xlink:title=" ">
<path fill="none" stroke="#63b8ff" d="M331.91,-186.87C327.43,-178.4 320.45,-165.24 314.8,-154.57"/>
<polygon fill="#63b8ff" stroke="#63b8ff" points="317.86,-152.86 310.08,-145.67 311.67,-156.14 317.86,-152.86"/>
</a>
</g>
</g>
<!-- Node20&#45;&gt;Node10 -->
<g id="edge26_Node000020_Node000010" class="edge">
<title>Node20&#45;&gt;Node10</title>
<g id="a_edge26_Node000020_Node000010"><a xlink:title=" ">
<path fill="none" stroke="#63b8ff" d="M352.42,-186.87C367.42,-178.75 390.38,-166.31 409.62,-155.89"/>
<polygon fill="#63b8ff" stroke="#63b8ff" points="411.31,-158.96 418.43,-151.11 407.97,-152.8 411.31,-158.96"/>
</a>
</g>
</g>
<!-- Node20&#45;&gt;Node14 -->
<g id="edge25_Node000020_Node000014" class="edge">
<title>Node20&#45;&gt;Node14</title>
<g id="a_edge25_Node000020_Node000014"><a xlink:title=" ">
<path fill="none" stroke="#63b8ff" d="M364.14,-191.73C399.1,-186.22 460.52,-174.02 508.49,-151 578.97,-117.17 649.4,-55.14 680.27,-26.17"/>
<polygon fill="#63b8ff" stroke="#63b8ff" points="682.73,-28.67 687.57,-19.24 677.91,-23.59 682.73,-28.67"/>
</a>
</g>
</g>
</g>
</svg>

<g id="navigator" transform="translate(0 0)" fill="#404254">
  <rect fill="#f2f5e9" fill-opacity="0.5" stroke="#606060" stroke-width=".5" x="0" y="0" width="60" height="60"/>
  <use id="zoomplus" xlink:href="#zoomPlus" x="17" y="9" onmousedown="handleZoom(evt,'in')"/>
  <use id="zoomminus" xlink:href="#zoomMin" x="42" y="9" onmousedown="handleZoom(evt,'out')"/>
  <use id="reset" xlink:href="#resetDef" x="30" y="36" onmousedown="handleReset()"/>
   <use id="arrowup" xlink:href="#arrowUp" x="0" y="0" onmousedown="handlePan(0,-1)"/>
  <use id="arrowright" xlink:href="#arrowRight" x="0" y="0" onmousedown="handlePan(1,0)"/>
  <use id="arrowdown" xlink:href="#arrowDown" x="0" y="0" onmousedown="handlePan(0,1)"/>
  <use id="arrowleft" xlink:href="#arrowLeft" x="0" y="0" onmousedown="handlePan(-1,0)"/>
</g>
<svg viewBox="0 0 15 15" width="100%" height="30px" preserveAspectRatio="xMaxYMin meet">
 <g id="arrow_out" transform="scale(0.3 0.3)">
  <a xlink:href="UdpLogger_8cpp__incl_org.svg" target="_base">
   <rect id="button" ry="5" rx="5" y="6" x="6" height="38" width="38"
        fill="#f2f5e9" fill-opacity="0.5" stroke="#606060" stroke-width="1.0"/>
   <path id="arrow"
     d="M 11.500037,31.436501 C 11.940474,20.09759 22.043105,11.32322 32.158766,21.979434 L 37.068811,17.246167 C 37.068811,17.246167 37.088388,32 37.088388,32 L 22.160133,31.978069 C 22.160133,31.978069 26.997745,27.140456 26.997745,27.140456 C 18.528582,18.264221 13.291696,25.230495 11.500037,31.436501 z"
     style="fill:#404040;"/>
  </a>
 </g>
</svg>

<style type='text/css'>
<![CDATA[
[data-mouse-over-selected='false'] { opacity: 0.7; }
[data-mouse-over-selected='true']  { opacity: 1.0; }
]]>
</style>
<script type="application/ecmascript"><![CDATA[
document.addEventListener('DOMContentLoaded', (event) => {
  highlightEdges();
  highlightAdjacentNodes();
});
]]></script>
</svg>
