<?xml version="1.0" encoding="UTF-8" standalone="no"?>
<!DOCTYPE svg PUBLIC "-//W3C//DTD SVG 1.1//EN"
 "http://www.w3.org/Graphics/SVG/1.1/DTD/svg11.dtd">
<!-- Generated by graphviz version 2.43.0 (0)
 -->
<!-- Title: features/communication/udp/UdpWorker.h Pages: 1 -->
<svg width="779pt" height="335pt"
 viewBox="0.00 0.00 778.54 335.00" xmlns="http://www.w3.org/2000/svg" xmlns:xlink="http://www.w3.org/1999/xlink">
<g id="graph0" class="graph" transform="scale(1 1) rotate(0) translate(4 331)">
<title>features/communication/udp/UdpWorker.h</title>
<!-- Node1 -->
<g id="Node000001" class="node">
<title>Node1</title>
<g id="a_Node000001"><a xlink:title=" ">
<polygon fill="#999999" stroke="#666666" points="330,-327 194,-327 194,-297 330,-297 330,-327"/>
<text text-anchor="start" x="202" y="-315" font-family="Helvetica,sans-Serif" font-size="10.00">features/communication</text>
<text text-anchor="middle" x="262" y="-304" font-family="Helvetica,sans-Serif" font-size="10.00">/udp/UdpWorker.h</text>
</a>
</g>
</g>
<!-- Node2 -->
<g id="Node000002" class="node">
<title>Node2</title>
<g id="a_Node000002"><a xlink:title=" ">
<polygon fill="#e0e0e0" stroke="#999999" points="56,-19 0,-19 0,0 56,0 56,-19"/>
<text text-anchor="middle" x="28" y="-7" font-family="Helvetica,sans-Serif" font-size="10.00">QObject</text>
</a>
</g>
</g>
<!-- Node1&#45;&gt;Node2 -->
<g id="edge1_Node000001_Node000002" class="edge">
<title>Node1&#45;&gt;Node2</title>
<g id="a_edge1_Node000001_Node000002"><a xlink:title=" ">
<path fill="none" stroke="#63b8ff" d="M193.79,-300.79C136.19,-287.84 63,-259.25 63,-197.5 63,-197.5 63,-197.5 63,-135 63,-95.69 46.63,-51.91 36.28,-28.17"/>
<polygon fill="#63b8ff" stroke="#63b8ff" points="39.46,-26.7 32.15,-19.02 33.07,-29.58 39.46,-26.7"/>
</a>
</g>
</g>
<!-- Node3 -->
<g id="Node000003" class="node">
<title>Node3</title>
<g id="a_Node000003"><a xlink:title=" ">
<polygon fill="#e0e0e0" stroke="#999999" points="267,-261 191,-261 191,-242 267,-242 267,-261"/>
<text text-anchor="middle" x="229" y="-249" font-family="Helvetica,sans-Serif" font-size="10.00">QUdpSocket</text>
</a>
</g>
</g>
<!-- Node1&#45;&gt;Node3 -->
<g id="edge2_Node000001_Node000003" class="edge">
<title>Node1&#45;&gt;Node3</title>
<g id="a_edge2_Node000001_Node000003"><a xlink:title=" ">
<path fill="none" stroke="#63b8ff" d="M254.01,-296.84C249.47,-288.78 243.73,-278.62 238.9,-270.06"/>
<polygon fill="#63b8ff" stroke="#63b8ff" points="241.91,-268.26 233.94,-261.27 235.81,-271.7 241.91,-268.26"/>
</a>
</g>
</g>
<!-- Node4 -->
<g id="Node000004" class="node">
<title>Node4</title>
<g id="a_Node000004"><a xlink:title=" ">
<polygon fill="#e0e0e0" stroke="#999999" points="320,-206 270,-206 270,-187 320,-187 320,-206"/>
<text text-anchor="middle" x="295" y="-194" font-family="Helvetica,sans-Serif" font-size="10.00">chrono</text>
</a>
</g>
</g>
<!-- Node1&#45;&gt;Node4 -->
<g id="edge3_Node000001_Node000004" class="edge">
<title>Node1&#45;&gt;Node4</title>
<g id="a_edge3_Node000001_Node000004"><a xlink:title=" ">
<path fill="none" stroke="#63b8ff" d="M266.18,-296.63C272.14,-276.12 283.09,-238.47 289.64,-215.93"/>
<polygon fill="#63b8ff" stroke="#63b8ff" points="293.03,-216.81 292.46,-206.23 286.31,-214.85 293.03,-216.81"/>
</a>
</g>
</g>
<!-- Node5 -->
<g id="Node000005" class="node">
<title>Node5</title>
<g id="a_Node000005"><a xlink:href="UdpLogger_8h.html" target="_top" xlink:title=" ">
<polygon fill="white" stroke="#666666" points="593.5,-261 442.5,-261 442.5,-242 593.5,-242 593.5,-261"/>
<text text-anchor="middle" x="518" y="-249" font-family="Helvetica,sans-Serif" font-size="10.00">frames_logger/UdpLogger.h</text>
</a>
</g>
</g>
<!-- Node1&#45;&gt;Node5 -->
<g id="edge4_Node000001_Node000005" class="edge">
<title>Node1&#45;&gt;Node5</title>
<g id="a_edge4_Node000001_Node000005"><a xlink:title=" ">
<path fill="none" stroke="#63b8ff" d="M323.32,-296.99C368.55,-286.65 429.2,-272.79 470.71,-263.31"/>
<polygon fill="#63b8ff" stroke="#63b8ff" points="471.6,-266.69 480.57,-261.05 470.04,-259.87 471.6,-266.69"/>
</a>
</g>
</g>
<!-- Node5&#45;&gt;Node4 -->
<g id="edge30_Node000005_Node000004" class="edge">
<title>Node5&#45;&gt;Node4</title>
<g id="a_edge30_Node000005_Node000004"><a xlink:title=" ">
<path fill="none" stroke="#63b8ff" d="M481.59,-241.95C443.71,-233.04 382.68,-218.63 330,-206 329.9,-205.98 329.8,-205.95 329.7,-205.93"/>
<polygon fill="#63b8ff" stroke="#63b8ff" points="330.77,-202.59 320.23,-203.65 329.13,-209.39 330.77,-202.59"/>
</a>
</g>
</g>
<!-- Node6 -->
<g id="Node000006" class="node">
<title>Node6</title>
<g id="a_Node000006"><a xlink:href="RingBuffer_8h.html" target="_top" xlink:title=" ">
<polygon fill="white" stroke="#666666" points="556,-206 480,-206 480,-187 556,-187 556,-206"/>
<text text-anchor="middle" x="518" y="-194" font-family="Helvetica,sans-Serif" font-size="10.00">RingBuffer.h</text>
</a>
</g>
</g>
<!-- Node5&#45;&gt;Node6 -->
<g id="edge5_Node000005_Node000006" class="edge">
<title>Node5&#45;&gt;Node6</title>
<g id="a_edge5_Node000005_Node000006"><a xlink:title=" ">
<path fill="none" stroke="#63b8ff" d="M518,-241.75C518,-234.8 518,-224.85 518,-216.13"/>
<polygon fill="#63b8ff" stroke="#63b8ff" points="521.5,-216.09 518,-206.09 514.5,-216.09 521.5,-216.09"/>
</a>
</g>
</g>
<!-- Node8 -->
<g id="Node000008" class="node">
<title>Node8</title>
<g id="a_Node000008"><a xlink:title=" ">
<polygon fill="#e0e0e0" stroke="#999999" points="548,-19 498,-19 498,0 548,0 548,-19"/>
<text text-anchor="middle" x="523" y="-7" font-family="Helvetica,sans-Serif" font-size="10.00">cstdint</text>
</a>
</g>
</g>
<!-- Node5&#45;&gt;Node8 -->
<g id="edge28_Node000005_Node000008" class="edge">
<title>Node5&#45;&gt;Node8</title>
<g id="a_edge28_Node000005_Node000008"><a xlink:title=" ">
<path fill="none" stroke="#63b8ff" d="M593.75,-247.61C657.38,-240.37 741.7,-217.94 766,-151 799.2,-59.57 632.88,-25.3 558.01,-14.64"/>
<polygon fill="#63b8ff" stroke="#63b8ff" points="558.46,-11.17 548.08,-13.29 557.52,-18.1 558.46,-11.17"/>
</a>
</g>
</g>
<!-- Node10 -->
<g id="Node000010" class="node">
<title>Node10</title>
<g id="a_Node000010"><a xlink:title=" ">
<polygon fill="#e0e0e0" stroke="#999999" points="757,-145.5 707,-145.5 707,-126.5 757,-126.5 757,-145.5"/>
<text text-anchor="middle" x="732" y="-133.5" font-family="Helvetica,sans-Serif" font-size="10.00">atomic</text>
</a>
</g>
</g>
<!-- Node5&#45;&gt;Node10 -->
<g id="edge27_Node000005_Node000010" class="edge">
<title>Node5&#45;&gt;Node10</title>
<g id="a_edge27_Node000005_Node000010"><a xlink:title=" ">
<path fill="none" stroke="#63b8ff" d="M593.71,-246.59C628.95,-241.34 669.5,-229.99 699,-206 714.58,-193.32 723.27,-171.53 727.77,-155.83"/>
<polygon fill="#63b8ff" stroke="#63b8ff" points="731.28,-156.24 730.35,-145.68 724.5,-154.52 731.28,-156.24"/>
</a>
</g>
</g>
<!-- Node12 -->
<g id="Node000012" class="node">
<title>Node12</title>
<g id="a_Node000012"><a xlink:href="Logger_8h.html" target="_top" xlink:title=" ">
<polygon fill="white" stroke="#666666" points="495,-151 385,-151 385,-121 495,-121 495,-151"/>
<text text-anchor="start" x="393" y="-139" font-family="Helvetica,sans-Serif" font-size="10.00">src/services/Logger</text>
<text text-anchor="middle" x="440" y="-128" font-family="Helvetica,sans-Serif" font-size="10.00">/Logger.h</text>
</a>
</g>
</g>
<!-- Node5&#45;&gt;Node12 -->
<g id="edge32_Node000005_Node000012" class="edge">
<title>Node5&#45;&gt;Node12</title>
<g id="a_edge32_Node000005_Node000012"><a xlink:title=" ">
<path fill="none" stroke="#63b8ff" d="M506.73,-241.98C496.38,-233.69 481.15,-220.29 471,-206 461.09,-192.04 453.23,-174.41 447.91,-160.46"/>
<polygon fill="#63b8ff" stroke="#63b8ff" points="451.2,-159.26 444.49,-151.06 444.62,-161.66 451.2,-159.26"/>
</a>
</g>
</g>
<!-- Node21 -->
<g id="Node000021" class="node">
<title>Node21</title>
<g id="a_Node000021"><a xlink:href="Writer_8h.html" target="_top" xlink:title=" ">
<polygon fill="white" stroke="#666666" points="393.5,-206 338.5,-206 338.5,-187 393.5,-187 393.5,-206"/>
<text text-anchor="middle" x="366" y="-194" font-family="Helvetica,sans-Serif" font-size="10.00">Writer.h</text>
</a>
</g>
</g>
<!-- Node5&#45;&gt;Node21 -->
<g id="edge22_Node000005_Node000021" class="edge">
<title>Node5&#45;&gt;Node21</title>
<g id="a_edge22_Node000005_Node000021"><a xlink:title=" ">
<path fill="none" stroke="#63b8ff" d="M493.58,-241.98C468.28,-233.16 428.55,-219.31 400.14,-209.41"/>
<polygon fill="#63b8ff" stroke="#63b8ff" points="401.21,-206.07 390.61,-206.08 398.9,-212.68 401.21,-206.07"/>
</a>
</g>
</g>
<!-- Node22 -->
<g id="Node000022" class="node">
<title>Node22</title>
<g id="a_Node000022"><a xlink:title=" ">
<polygon fill="#e0e0e0" stroke="#999999" points="622,-206 574,-206 574,-187 622,-187 622,-206"/>
<text text-anchor="middle" x="598" y="-194" font-family="Helvetica,sans-Serif" font-size="10.00">thread</text>
</a>
</g>
</g>
<!-- Node5&#45;&gt;Node22 -->
<g id="edge29_Node000005_Node000022" class="edge">
<title>Node5&#45;&gt;Node22</title>
<g id="a_edge29_Node000005_Node000022"><a xlink:title=" ">
<path fill="none" stroke="#63b8ff" d="M530.85,-241.98C543.14,-233.84 561.91,-221.41 576.48,-211.76"/>
<polygon fill="#63b8ff" stroke="#63b8ff" points="578.51,-214.61 584.91,-206.17 574.64,-208.78 578.51,-214.61"/>
</a>
</g>
</g>
<!-- Node23 -->
<g id="Node000023" class="node">
<title>Node23</title>
<g id="a_Node000023"><a xlink:title=" ">
<polygon fill="#e0e0e0" stroke="#999999" points="690,-206 640,-206 640,-187 690,-187 690,-206"/>
<text text-anchor="middle" x="665" y="-194" font-family="Helvetica,sans-Serif" font-size="10.00">format</text>
</a>
</g>
</g>
<!-- Node5&#45;&gt;Node23 -->
<g id="edge31_Node000005_Node000023" class="edge">
<title>Node5&#45;&gt;Node23</title>
<g id="a_edge31_Node000005_Node000023"><a xlink:title=" ">
<path fill="none" stroke="#63b8ff" d="M541.62,-241.98C565.9,-233.23 603.95,-219.51 631.37,-209.62"/>
<polygon fill="#63b8ff" stroke="#63b8ff" points="632.73,-212.85 640.95,-206.17 630.36,-206.27 632.73,-212.85"/>
</a>
</g>
</g>
<!-- Node7 -->
<g id="Node000007" class="node">
<title>Node7</title>
<g id="a_Node000007"><a xlink:title=" ">
<polygon fill="#e0e0e0" stroke="#999999" points="689,-145.5 633,-145.5 633,-126.5 689,-126.5 689,-145.5"/>
<text text-anchor="middle" x="661" y="-133.5" font-family="Helvetica,sans-Serif" font-size="10.00">QDebug</text>
</a>
</g>
</g>
<!-- Node6&#45;&gt;Node7 -->
<g id="edge6_Node000006_Node000007" class="edge">
<title>Node6&#45;&gt;Node7</title>
<g id="a_edge6_Node000006_Node000007"><a xlink:title=" ">
<path fill="none" stroke="#63b8ff" d="M538.79,-186.99C562.94,-177.12 602.98,-160.73 630.62,-149.43"/>
<polygon fill="#63b8ff" stroke="#63b8ff" points="632.25,-152.54 640.18,-145.52 629.6,-146.06 632.25,-152.54"/>
</a>
</g>
</g>
<!-- Node6&#45;&gt;Node8 -->
<g id="edge7_Node000006_Node000008" class="edge">
<title>Node6&#45;&gt;Node8</title>
<g id="a_edge7_Node000006_Node000008"><a xlink:title=" ">
<path fill="none" stroke="#63b8ff" d="M518.24,-186.58C519.01,-158.07 521.43,-68.74 522.49,-29.41"/>
<polygon fill="#63b8ff" stroke="#63b8ff" points="525.99,-29.42 522.76,-19.33 518.99,-29.24 525.99,-29.42"/>
</a>
</g>
</g>
<!-- Node9 -->
<g id="Node000009" class="node">
<title>Node9</title>
<g id="a_Node000009"><a xlink:title=" ">
<polygon fill="#e0e0e0" stroke="#999999" points="366.5,-145.5 311.5,-145.5 311.5,-126.5 366.5,-126.5 366.5,-145.5"/>
<text text-anchor="middle" x="339" y="-133.5" font-family="Helvetica,sans-Serif" font-size="10.00">fstream</text>
</a>
</g>
</g>
<!-- Node6&#45;&gt;Node9 -->
<g id="edge8_Node000006_Node000009" class="edge">
<title>Node6&#45;&gt;Node9</title>
<g id="a_edge8_Node000006_Node000009"><a xlink:title=" ">
<path fill="none" stroke="#63b8ff" d="M489.01,-186.95C460.2,-178.33 414.82,-164.42 376,-151 374.15,-150.36 372.25,-149.69 370.34,-149"/>
<polygon fill="#63b8ff" stroke="#63b8ff" points="371.43,-145.67 360.84,-145.5 369.01,-152.24 371.43,-145.67"/>
</a>
</g>
</g>
<!-- Node6&#45;&gt;Node10 -->
<g id="edge9_Node000006_Node000010" class="edge">
<title>Node6&#45;&gt;Node10</title>
<g id="a_edge9_Node000006_Node000010"><a xlink:title=" ">
<path fill="none" stroke="#63b8ff" d="M556.04,-187.81C592.79,-179.99 649.82,-166.78 698,-151 699.63,-150.47 701.29,-149.89 702.95,-149.29"/>
<polygon fill="#63b8ff" stroke="#63b8ff" points="704.34,-152.51 712.41,-145.65 701.82,-145.98 704.34,-152.51"/>
</a>
</g>
</g>
<!-- Node11 -->
<g id="Node000011" class="node">
<title>Node11</title>
<g id="a_Node000011"><a xlink:title=" ">
<polygon fill="#e0e0e0" stroke="#999999" points="615,-145.5 551,-145.5 551,-126.5 615,-126.5 615,-145.5"/>
<text text-anchor="middle" x="583" y="-133.5" font-family="Helvetica,sans-Serif" font-size="10.00">algorithm</text>
</a>
</g>
</g>
<!-- Node6&#45;&gt;Node11 -->
<g id="edge10_Node000006_Node000011" class="edge">
<title>Node6&#45;&gt;Node11</title>
<g id="a_edge10_Node000006_Node000011"><a xlink:title=" ">
<path fill="none" stroke="#63b8ff" d="M527.59,-186.87C537.58,-177.88 553.43,-163.61 565.63,-152.64"/>
<polygon fill="#63b8ff" stroke="#63b8ff" points="568.28,-154.96 573.37,-145.67 563.6,-149.76 568.28,-154.96"/>
</a>
</g>
</g>
<!-- Node6&#45;&gt;Node12 -->
<g id="edge11_Node000006_Node000012" class="edge">
<title>Node6&#45;&gt;Node12</title>
<g id="a_edge11_Node000006_Node000012"><a xlink:title=" ">
<path fill="none" stroke="#63b8ff" d="M506.49,-186.87C496.1,-179.08 480.42,-167.32 466.9,-157.17"/>
<polygon fill="#63b8ff" stroke="#63b8ff" points="468.92,-154.31 458.82,-151.11 464.72,-159.91 468.92,-154.31"/>
</a>
</g>
</g>
<!-- Node13 -->
<g id="Node000013" class="node">
<title>Node13</title>
<g id="a_Node000013"><a xlink:title=" ">
<polygon fill="#e0e0e0" stroke="#999999" points="469.5,-79.5 410.5,-79.5 410.5,-60.5 469.5,-60.5 469.5,-79.5"/>
<text text-anchor="middle" x="440" y="-67.5" font-family="Helvetica,sans-Serif" font-size="10.00">QWidget</text>
</a>
</g>
</g>
<!-- Node12&#45;&gt;Node13 -->
<g id="edge12_Node000012_Node000013" class="edge">
<title>Node12&#45;&gt;Node13</title>
<g id="a_edge12_Node000012_Node000013"><a xlink:title=" ">
<path fill="none" stroke="#63b8ff" d="M440,-120.8C440,-111.7 440,-99.79 440,-89.9"/>
<polygon fill="#63b8ff" stroke="#63b8ff" points="443.5,-89.84 440,-79.84 436.5,-89.84 443.5,-89.84"/>
</a>
</g>
</g>
<!-- Node14 -->
<g id="Node000014" class="node">
<title>Node14</title>
<g id="a_Node000014"><a xlink:href="Messages_8h.html" target="_top" xlink:title=" ">
<polygon fill="white" stroke="#666666" points="267.5,-85 164.5,-85 164.5,-55 267.5,-55 267.5,-85"/>
<text text-anchor="start" x="172.5" y="-73" font-family="Helvetica,sans-Serif" font-size="10.00">src/core/Protocols</text>
<text text-anchor="middle" x="216" y="-62" font-family="Helvetica,sans-Serif" font-size="10.00">/Messages.h</text>
</a>
</g>
</g>
<!-- Node12&#45;&gt;Node14 -->
<g id="edge13_Node000012_Node000014" class="edge">
<title>Node12&#45;&gt;Node14</title>
<g id="a_edge13_Node000012_Node000014"><a xlink:title=" ">
<path fill="none" stroke="#63b8ff" d="M390.84,-120.95C356.7,-111.2 311.05,-98.16 274.95,-87.84"/>
<polygon fill="#63b8ff" stroke="#63b8ff" points="275.62,-84.39 265.04,-85.01 273.7,-91.12 275.62,-84.39"/>
</a>
</g>
</g>
<!-- Node14&#45;&gt;Node2 -->
<g id="edge20_Node000014_Node000002" class="edge">
<title>Node14&#45;&gt;Node2</title>
<g id="a_edge20_Node000014_Node000002"><a xlink:title=" ">
<path fill="none" stroke="#63b8ff" d="M170.97,-54.99C138.66,-44.94 95.66,-31.55 65.27,-22.1"/>
<polygon fill="#63b8ff" stroke="#63b8ff" points="66.08,-18.68 55.49,-19.05 64,-25.37 66.08,-18.68"/>
</a>
</g>
</g>
<!-- Node14&#45;&gt;Node8 -->
<g id="edge15_Node000014_Node000008" class="edge">
<title>Node14&#45;&gt;Node8</title>
<g id="a_edge15_Node000014_Node000008"><a xlink:title=" ">
<path fill="none" stroke="#63b8ff" d="M267.84,-57.81C272.63,-56.84 277.4,-55.89 282,-55 370.56,-37.91 395.93,-38.29 487.79,-19.13"/>
<polygon fill="#63b8ff" stroke="#63b8ff" points="488.73,-22.5 497.8,-17.02 487.29,-15.66 488.73,-22.5"/>
</a>
</g>
</g>
<!-- Node15 -->
<g id="Node000015" class="node">
<title>Node15</title>
<g id="a_Node000015"><a xlink:title=" ">
<polygon fill="#e0e0e0" stroke="#999999" points="388.5,-19 337.5,-19 337.5,0 388.5,0 388.5,-19"/>
<text text-anchor="middle" x="363" y="-7" font-family="Helvetica,sans-Serif" font-size="10.00">variant</text>
</a>
</g>
</g>
<!-- Node14&#45;&gt;Node15 -->
<g id="edge14_Node000014_Node000015" class="edge">
<title>Node14&#45;&gt;Node15</title>
<g id="a_edge14_Node000014_Node000015"><a xlink:title=" ">
<path fill="none" stroke="#63b8ff" d="M251.21,-54.99C275.74,-45.23 308.15,-32.33 331.76,-22.93"/>
<polygon fill="#63b8ff" stroke="#63b8ff" points="333.29,-26.09 341.29,-19.14 330.71,-19.58 333.29,-26.09"/>
</a>
</g>
</g>
<!-- Node16 -->
<g id="Node000016" class="node">
<title>Node16</title>
<g id="a_Node000016"><a xlink:title=" ">
<polygon fill="#e0e0e0" stroke="#999999" points="118,-19 74,-19 74,0 118,0 118,-19"/>
<text text-anchor="middle" x="96" y="-7" font-family="Helvetica,sans-Serif" font-size="10.00">string</text>
</a>
</g>
</g>
<!-- Node14&#45;&gt;Node16 -->
<g id="edge16_Node000014_Node000016" class="edge">
<title>Node14&#45;&gt;Node16</title>
<g id="a_edge16_Node000014_Node000016"><a xlink:title=" ">
<path fill="none" stroke="#63b8ff" d="M187.26,-54.99C167.68,-45.45 141.95,-32.9 122.8,-23.57"/>
<polygon fill="#63b8ff" stroke="#63b8ff" points="124.24,-20.38 113.72,-19.14 121.18,-26.67 124.24,-20.38"/>
</a>
</g>
</g>
<!-- Node17 -->
<g id="Node000017" class="node">
<title>Node17</title>
<g id="a_Node000017"><a xlink:title=" ">
<polygon fill="#e0e0e0" stroke="#999999" points="479.5,-19 406.5,-19 406.5,0 479.5,0 479.5,-19"/>
<text text-anchor="middle" x="443" y="-7" font-family="Helvetica,sans-Serif" font-size="10.00">QByteArray</text>
</a>
</g>
</g>
<!-- Node14&#45;&gt;Node17 -->
<g id="edge17_Node000014_Node000017" class="edge">
<title>Node14&#45;&gt;Node17</title>
<g id="a_edge17_Node000014_Node000017"><a xlink:title=" ">
<path fill="none" stroke="#63b8ff" d="M267.51,-55.73C307.45,-45.43 362.15,-31.34 399.81,-21.63"/>
<polygon fill="#63b8ff" stroke="#63b8ff" points="401.15,-24.9 409.96,-19.02 399.4,-18.12 401.15,-24.9"/>
</a>
</g>
</g>
<!-- Node18 -->
<g id="Node000018" class="node">
<title>Node18</title>
<g id="a_Node000018"><a xlink:title=" ">
<polygon fill="#e0e0e0" stroke="#999999" points="185.5,-19 136.5,-19 136.5,0 185.5,0 185.5,-19"/>
<text text-anchor="middle" x="161" y="-7" font-family="Helvetica,sans-Serif" font-size="10.00">QHash</text>
</a>
</g>
</g>
<!-- Node14&#45;&gt;Node18 -->
<g id="edge18_Node000014_Node000018" class="edge">
<title>Node14&#45;&gt;Node18</title>
<g id="a_edge18_Node000014_Node000018"><a xlink:title=" ">
<path fill="none" stroke="#63b8ff" d="M202.69,-54.84C194.7,-46.35 184.52,-35.52 176.22,-26.69"/>
<polygon fill="#63b8ff" stroke="#63b8ff" points="178.64,-24.15 169.24,-19.27 173.54,-28.95 178.64,-24.15"/>
</a>
</g>
</g>
<!-- Node19 -->
<g id="Node000019" class="node">
<title>Node19</title>
<g id="a_Node000019"><a xlink:title=" ">
<polygon fill="#e0e0e0" stroke="#999999" points="256.5,-19 203.5,-19 203.5,0 256.5,0 256.5,-19"/>
<text text-anchor="middle" x="230" y="-7" font-family="Helvetica,sans-Serif" font-size="10.00">QString</text>
</a>
</g>
</g>
<!-- Node14&#45;&gt;Node19 -->
<g id="edge19_Node000014_Node000019" class="edge">
<title>Node14&#45;&gt;Node19</title>
<g id="a_edge19_Node000014_Node000019"><a xlink:title=" ">
<path fill="none" stroke="#63b8ff" d="M219.39,-54.84C221.23,-47.13 223.54,-37.49 225.53,-29.17"/>
<polygon fill="#63b8ff" stroke="#63b8ff" points="228.98,-29.81 227.9,-19.27 222.17,-28.18 228.98,-29.81"/>
</a>
</g>
</g>
<!-- Node20 -->
<g id="Node000020" class="node">
<title>Node20</title>
<g id="a_Node000020"><a xlink:title=" ">
<polygon fill="#e0e0e0" stroke="#999999" points="319.5,-19 274.5,-19 274.5,0 319.5,0 319.5,-19"/>
<text text-anchor="middle" x="297" y="-7" font-family="Helvetica,sans-Serif" font-size="10.00">QMap</text>
</a>
</g>
</g>
<!-- Node14&#45;&gt;Node20 -->
<g id="edge21_Node000014_Node000020" class="edge">
<title>Node14&#45;&gt;Node20</title>
<g id="a_edge21_Node000014_Node000020"><a xlink:title=" ">
<path fill="none" stroke="#63b8ff" d="M235.61,-54.84C247.97,-45.91 263.9,-34.41 276.43,-25.35"/>
<polygon fill="#63b8ff" stroke="#63b8ff" points="278.8,-27.96 284.86,-19.27 274.71,-22.28 278.8,-27.96"/>
</a>
</g>
</g>
<!-- Node21&#45;&gt;Node8 -->
<g id="edge23_Node000021_Node000008" class="edge">
<title>Node21&#45;&gt;Node8</title>
<g id="a_edge23_Node000021_Node000008"><a xlink:title=" ">
<path fill="none" stroke="#63b8ff" d="M344.21,-186.87C329.36,-179.69 310.84,-167.91 302,-151 295.82,-139.18 295.68,-132.74 302,-121 327.24,-74.11 354.47,-79.02 402,-55 429.92,-40.89 463.41,-28.93 488.08,-20.97"/>
<polygon fill="#63b8ff" stroke="#63b8ff" points="489.25,-24.27 497.73,-17.91 487.14,-17.59 489.25,-24.27"/>
</a>
</g>
</g>
<!-- Node21&#45;&gt;Node9 -->
<g id="edge24_Node000021_Node000009" class="edge">
<title>Node21&#45;&gt;Node9</title>
<g id="a_edge24_Node000021_Node000009"><a xlink:title=" ">
<path fill="none" stroke="#63b8ff" d="M362.02,-186.87C358.15,-178.49 352.16,-165.51 347.26,-154.89"/>
<polygon fill="#63b8ff" stroke="#63b8ff" points="350.37,-153.28 343,-145.67 344.01,-156.21 350.37,-153.28"/>
</a>
</g>
</g>
<!-- Node21&#45;&gt;Node12 -->
<g id="edge26_Node000021_Node000012" class="edge">
<title>Node21&#45;&gt;Node12</title>
<g id="a_edge26_Node000021_Node000012"><a xlink:title=" ">
<path fill="none" stroke="#63b8ff" d="M376.92,-186.87C386.68,-179.15 401.37,-167.54 414.12,-157.46"/>
<polygon fill="#63b8ff" stroke="#63b8ff" points="416.47,-160.06 422.15,-151.11 412.13,-154.57 416.47,-160.06"/>
</a>
</g>
</g>
<!-- Node21&#45;&gt;Node16 -->
<g id="edge25_Node000021_Node000016" class="edge">
<title>Node21&#45;&gt;Node16</title>
<g id="a_edge25_Node000021_Node000016"><a xlink:title=" ">
<path fill="none" stroke="#63b8ff" d="M342.58,-187C301.51,-171.32 215.19,-134.85 155,-85 135.03,-68.46 117.34,-44.15 106.66,-27.85"/>
<polygon fill="#63b8ff" stroke="#63b8ff" points="109.54,-25.85 101.22,-19.29 103.63,-29.61 109.54,-25.85"/>
</a>
</g>
</g>
</g>
</svg>
