<?xml version="1.0" encoding="UTF-8" standalone="no"?>
<!DOCTYPE svg PUBLIC "-//W3C//DTD SVG 1.1//EN"
 "http://www.w3.org/Graphics/SVG/1.1/DTD/svg11.dtd">
<!-- Generated by graphviz version 2.43.0 (0)
 -->
<!-- Title: features/communication/udp/UdpWorker.h Pages: 1 -->
<svg width="606pt" height="335pt"
 viewBox="0.00 0.00 606.00 335.00" xmlns="http://www.w3.org/2000/svg" xmlns:xlink="http://www.w3.org/1999/xlink">
<g id="graph0" class="graph" transform="scale(1 1) rotate(0) translate(4 331)">
<title>features/communication/udp/UdpWorker.h</title>
<!-- Node1 -->
<g id="Node000001" class="node">
<title>Node1</title>
<g id="a_Node000001"><a xlink:title="UDP socket worker running on a dedicated thread.">
<polygon fill="#999999" stroke="#666666" points="494,-327 358,-327 358,-297 494,-297 494,-327"/>
<text text-anchor="start" x="366" y="-315" font-family="Helvetica,sans-Serif" font-size="10.00">features/communication</text>
<text text-anchor="middle" x="426" y="-304" font-family="Helvetica,sans-Serif" font-size="10.00">/udp/UdpWorker.h</text>
</a>
</g>
</g>
<!-- Node2 -->
<g id="Node000002" class="node">
<title>Node2</title>
<g id="a_Node000002"><a xlink:title=" ">
<polygon fill="#e0e0e0" stroke="#999999" points="56,-19 0,-19 0,0 56,0 56,-19"/>
<text text-anchor="middle" x="28" y="-7" font-family="Helvetica,sans-Serif" font-size="10.00">QObject</text>
</a>
</g>
</g>
<!-- Node1&#45;&gt;Node2 -->
<g id="edge1_Node000001_Node000002" class="edge">
<title>Node1&#45;&gt;Node2</title>
<g id="a_edge1_Node000001_Node000002"><a xlink:title=" ">
<path fill="none" stroke="#63b8ff" d="M357.94,-306.45C240.2,-296.68 11,-268.55 11,-197.5 11,-197.5 11,-197.5 11,-135 11,-97.15 18.81,-53.41 23.84,-29.16"/>
<polygon fill="#63b8ff" stroke="#63b8ff" points="27.3,-29.71 25.98,-19.2 20.46,-28.24 27.3,-29.71"/>
</a>
</g>
</g>
<!-- Node3 -->
<g id="Node000003" class="node">
<title>Node3</title>
<g id="a_Node000003"><a xlink:title=" ">
<polygon fill="#e0e0e0" stroke="#999999" points="530,-261 454,-261 454,-242 530,-242 530,-261"/>
<text text-anchor="middle" x="492" y="-249" font-family="Helvetica,sans-Serif" font-size="10.00">QUdpSocket</text>
</a>
</g>
</g>
<!-- Node1&#45;&gt;Node3 -->
<g id="edge2_Node000001_Node000003" class="edge">
<title>Node1&#45;&gt;Node3</title>
<g id="a_edge2_Node000001_Node000003"><a xlink:title=" ">
<path fill="none" stroke="#63b8ff" d="M441.98,-296.84C451.75,-288.17 464.27,-277.08 474.34,-268.15"/>
<polygon fill="#63b8ff" stroke="#63b8ff" points="476.95,-270.52 482.11,-261.27 472.31,-265.28 476.95,-270.52"/>
</a>
</g>
</g>
<!-- Node4 -->
<g id="Node000004" class="node">
<title>Node4</title>
<g id="a_Node000004"><a xlink:title=" ">
<polygon fill="#e0e0e0" stroke="#999999" points="598,-261 548,-261 548,-242 598,-242 598,-261"/>
<text text-anchor="middle" x="573" y="-249" font-family="Helvetica,sans-Serif" font-size="10.00">chrono</text>
</a>
</g>
</g>
<!-- Node1&#45;&gt;Node4 -->
<g id="edge3_Node000001_Node000004" class="edge">
<title>Node1&#45;&gt;Node4</title>
<g id="a_edge3_Node000001_Node000004"><a xlink:title=" ">
<path fill="none" stroke="#63b8ff" d="M461.21,-296.99C485.74,-287.23 518.15,-274.33 541.76,-264.93"/>
<polygon fill="#63b8ff" stroke="#63b8ff" points="543.29,-268.09 551.29,-261.14 540.71,-261.58 543.29,-268.09"/>
</a>
</g>
</g>
<!-- Node5 -->
<g id="Node000005" class="node">
<title>Node5</title>
<g id="a_Node000005"><a xlink:href="UdpLogger_8h.html" target="_top" xlink:title="High&#45;frequency binary logger for UDP telemetry frames.">
<polygon fill="white" stroke="#666666" points="435.5,-261 284.5,-261 284.5,-242 435.5,-242 435.5,-261"/>
<text text-anchor="middle" x="360" y="-249" font-family="Helvetica,sans-Serif" font-size="10.00">frames_logger/UdpLogger.h</text>
</a>
</g>
</g>
<!-- Node1&#45;&gt;Node5 -->
<g id="edge4_Node000001_Node000005" class="edge">
<title>Node1&#45;&gt;Node5</title>
<g id="a_edge4_Node000001_Node000005"><a xlink:title=" ">
<path fill="none" stroke="#63b8ff" d="M410.02,-296.84C400.25,-288.17 387.73,-277.08 377.66,-268.15"/>
<polygon fill="#63b8ff" stroke="#63b8ff" points="379.69,-265.28 369.89,-261.27 375.05,-270.52 379.69,-265.28"/>
</a>
</g>
</g>
<!-- Node6 -->
<g id="Node000006" class="node">
<title>Node6</title>
<g id="a_Node000006"><a xlink:title=" ">
<polygon fill="#e0e0e0" stroke="#999999" points="89,-145.5 39,-145.5 39,-126.5 89,-126.5 89,-145.5"/>
<text text-anchor="middle" x="64" y="-133.5" font-family="Helvetica,sans-Serif" font-size="10.00">atomic</text>
</a>
</g>
</g>
<!-- Node5&#45;&gt;Node6 -->
<g id="edge5_Node000005_Node000006" class="edge">
<title>Node5&#45;&gt;Node6</title>
<g id="a_edge5_Node000005_Node000006"><a xlink:title=" ">
<path fill="none" stroke="#63b8ff" d="M336.79,-241.93C290.98,-224.96 185.77,-185.73 98,-151 96.63,-150.46 95.23,-149.9 93.81,-149.33"/>
<polygon fill="#63b8ff" stroke="#63b8ff" points="95.04,-146.05 84.46,-145.53 92.41,-152.54 95.04,-146.05"/>
</a>
</g>
</g>
<!-- Node7 -->
<g id="Node000007" class="node">
<title>Node7</title>
<g id="a_Node000007"><a xlink:title=" ">
<polygon fill="#e0e0e0" stroke="#999999" points="571,-19 521,-19 521,0 571,0 571,-19"/>
<text text-anchor="middle" x="546" y="-7" font-family="Helvetica,sans-Serif" font-size="10.00">cstdint</text>
</a>
</g>
</g>
<!-- Node5&#45;&gt;Node7 -->
<g id="edge6_Node000005_Node000007" class="edge">
<title>Node5&#45;&gt;Node7</title>
<g id="a_edge6_Node000005_Node000007"><a xlink:title=" ">
<path fill="none" stroke="#63b8ff" d="M419.42,-241.98C462.77,-234.54 516.54,-222.37 532,-206 577.93,-157.36 561.57,-68.13 551.51,-29.34"/>
<polygon fill="#63b8ff" stroke="#63b8ff" points="554.8,-28.13 548.78,-19.41 548.05,-29.98 554.8,-28.13"/>
</a>
</g>
</g>
<!-- Node8 -->
<g id="Node000008" class="node">
<title>Node8</title>
<g id="a_Node000008"><a xlink:title=" ">
<polygon fill="#e0e0e0" stroke="#999999" points="523,-206 475,-206 475,-187 523,-187 523,-206"/>
<text text-anchor="middle" x="499" y="-194" font-family="Helvetica,sans-Serif" font-size="10.00">thread</text>
</a>
</g>
</g>
<!-- Node5&#45;&gt;Node8 -->
<g id="edge7_Node000005_Node000008" class="edge">
<title>Node5&#45;&gt;Node8</title>
<g id="a_edge7_Node000005_Node000008"><a xlink:title=" ">
<path fill="none" stroke="#63b8ff" d="M382.33,-241.98C405.2,-233.27 440.96,-219.63 466.86,-209.75"/>
<polygon fill="#63b8ff" stroke="#63b8ff" points="468.16,-213 476.26,-206.17 465.67,-206.46 468.16,-213"/>
</a>
</g>
</g>
<!-- Node9 -->
<g id="Node000009" class="node">
<title>Node9</title>
<g id="a_Node000009"><a xlink:href="RingBuffer_8h.html" target="_top" xlink:title=" ">
<polygon fill="white" stroke="#666666" points="356,-206 280,-206 280,-187 356,-187 356,-206"/>
<text text-anchor="middle" x="318" y="-194" font-family="Helvetica,sans-Serif" font-size="10.00">RingBuffer.h</text>
</a>
</g>
</g>
<!-- Node5&#45;&gt;Node9 -->
<g id="edge8_Node000005_Node000009" class="edge">
<title>Node5&#45;&gt;Node9</title>
<g id="a_edge8_Node000005_Node000009"><a xlink:title=" ">
<path fill="none" stroke="#63b8ff" d="M353.06,-241.75C347.13,-234.26 338.43,-223.28 331.18,-214.13"/>
<polygon fill="#63b8ff" stroke="#63b8ff" points="333.76,-211.75 324.81,-206.09 328.27,-216.1 333.76,-211.75"/>
</a>
</g>
</g>
<!-- Node22 -->
<g id="Node000022" class="node">
<title>Node22</title>
<g id="a_Node000022"><a xlink:href="Writer_8h.html" target="_top" xlink:title=" ">
<polygon fill="white" stroke="#666666" points="456.5,-206 401.5,-206 401.5,-187 456.5,-187 456.5,-206"/>
<text text-anchor="middle" x="429" y="-194" font-family="Helvetica,sans-Serif" font-size="10.00">Writer.h</text>
</a>
</g>
</g>
<!-- Node5&#45;&gt;Node22 -->
<g id="edge25_Node000005_Node000022" class="edge">
<title>Node5&#45;&gt;Node22</title>
<g id="a_edge25_Node000005_Node000022"><a xlink:title=" ">
<path fill="none" stroke="#63b8ff" d="M371.09,-241.98C381.49,-234 397.26,-221.88 409.72,-212.31"/>
<polygon fill="#63b8ff" stroke="#63b8ff" points="411.91,-215.04 417.71,-206.17 407.65,-209.49 411.91,-215.04"/>
</a>
</g>
</g>
<!-- Node9&#45;&gt;Node6 -->
<g id="edge12_Node000009_Node000006" class="edge">
<title>Node9&#45;&gt;Node6</title>
<g id="a_edge12_Node000009_Node000006"><a xlink:title=" ">
<path fill="none" stroke="#63b8ff" d="M279.69,-190.03C235.36,-183.18 160.45,-169.98 98,-151 96.12,-150.43 94.2,-149.79 92.28,-149.12"/>
<polygon fill="#63b8ff" stroke="#63b8ff" points="93.42,-145.8 82.83,-145.5 90.92,-152.34 93.42,-145.8"/>
</a>
</g>
</g>
<!-- Node9&#45;&gt;Node7 -->
<g id="edge10_Node000009_Node000007" class="edge">
<title>Node9&#45;&gt;Node7</title>
<g id="a_edge10_Node000009_Node000007"><a xlink:title=" ">
<path fill="none" stroke="#63b8ff" d="M331.27,-186.84C344.41,-178.14 364.97,-164.16 382,-151 437.62,-108.01 499.74,-52.63 529,-26.06"/>
<polygon fill="#63b8ff" stroke="#63b8ff" points="531.63,-28.4 536.67,-19.08 526.92,-23.23 531.63,-28.4"/>
</a>
</g>
</g>
<!-- Node10 -->
<g id="Node000010" class="node">
<title>Node10</title>
<g id="a_Node000010"><a xlink:title=" ">
<polygon fill="#e0e0e0" stroke="#999999" points="163,-145.5 107,-145.5 107,-126.5 163,-126.5 163,-145.5"/>
<text text-anchor="middle" x="135" y="-133.5" font-family="Helvetica,sans-Serif" font-size="10.00">QDebug</text>
</a>
</g>
</g>
<!-- Node9&#45;&gt;Node10 -->
<g id="edge9_Node000009_Node000010" class="edge">
<title>Node9&#45;&gt;Node10</title>
<g id="a_edge9_Node000009_Node000010"><a xlink:title=" ">
<path fill="none" stroke="#63b8ff" d="M287.9,-186.95C258.25,-178.39 211.75,-164.56 172,-151 170.15,-150.37 168.25,-149.7 166.34,-149.02"/>
<polygon fill="#63b8ff" stroke="#63b8ff" points="167.42,-145.69 156.83,-145.53 165.01,-152.26 167.42,-145.69"/>
</a>
</g>
</g>
<!-- Node11 -->
<g id="Node000011" class="node">
<title>Node11</title>
<g id="a_Node000011"><a xlink:title=" ">
<polygon fill="#e0e0e0" stroke="#999999" points="484.5,-145.5 429.5,-145.5 429.5,-126.5 484.5,-126.5 484.5,-145.5"/>
<text text-anchor="middle" x="457" y="-133.5" font-family="Helvetica,sans-Serif" font-size="10.00">fstream</text>
</a>
</g>
</g>
<!-- Node9&#45;&gt;Node11 -->
<g id="edge11_Node000009_Node000011" class="edge">
<title>Node9&#45;&gt;Node11</title>
<g id="a_edge11_Node000009_Node000011"><a xlink:title=" ">
<path fill="none" stroke="#63b8ff" d="M338.21,-186.99C361.68,-177.12 400.61,-160.73 427.46,-149.43"/>
<polygon fill="#63b8ff" stroke="#63b8ff" points="428.9,-152.62 436.76,-145.52 426.19,-146.17 428.9,-152.62"/>
</a>
</g>
</g>
<!-- Node12 -->
<g id="Node000012" class="node">
<title>Node12</title>
<g id="a_Node000012"><a xlink:title=" ">
<polygon fill="#e0e0e0" stroke="#999999" points="245,-145.5 181,-145.5 181,-126.5 245,-126.5 245,-145.5"/>
<text text-anchor="middle" x="213" y="-133.5" font-family="Helvetica,sans-Serif" font-size="10.00">algorithm</text>
</a>
</g>
</g>
<!-- Node9&#45;&gt;Node12 -->
<g id="edge13_Node000009_Node000012" class="edge">
<title>Node9&#45;&gt;Node12</title>
<g id="a_edge13_Node000009_Node000012"><a xlink:title=" ">
<path fill="none" stroke="#63b8ff" d="M302.51,-186.87C285.37,-177.32 257.53,-161.81 237.44,-150.62"/>
<polygon fill="#63b8ff" stroke="#63b8ff" points="239,-147.48 228.56,-145.67 235.59,-153.59 239,-147.48"/>
</a>
</g>
</g>
<!-- Node13 -->
<g id="Node000013" class="node">
<title>Node13</title>
<g id="a_Node000013"><a xlink:href="Logger_8h.html" target="_top" xlink:title=" ">
<polygon fill="white" stroke="#666666" points="373,-151 263,-151 263,-121 373,-121 373,-151"/>
<text text-anchor="start" x="271" y="-139" font-family="Helvetica,sans-Serif" font-size="10.00">src/services/Logger</text>
<text text-anchor="middle" x="318" y="-128" font-family="Helvetica,sans-Serif" font-size="10.00">/Logger.h</text>
</a>
</g>
</g>
<!-- Node9&#45;&gt;Node13 -->
<g id="edge14_Node000009_Node000013" class="edge">
<title>Node9&#45;&gt;Node13</title>
<g id="a_edge14_Node000009_Node000013"><a xlink:title=" ">
<path fill="none" stroke="#63b8ff" d="M318,-186.87C318,-180.11 318,-170.35 318,-161.26"/>
<polygon fill="#63b8ff" stroke="#63b8ff" points="321.5,-161.11 318,-151.11 314.5,-161.11 321.5,-161.11"/>
</a>
</g>
</g>
<!-- Node14 -->
<g id="Node000014" class="node">
<title>Node14</title>
<g id="a_Node000014"><a xlink:title=" ">
<polygon fill="#e0e0e0" stroke="#999999" points="413.5,-79.5 354.5,-79.5 354.5,-60.5 413.5,-60.5 413.5,-79.5"/>
<text text-anchor="middle" x="384" y="-67.5" font-family="Helvetica,sans-Serif" font-size="10.00">QWidget</text>
</a>
</g>
</g>
<!-- Node13&#45;&gt;Node14 -->
<g id="edge15_Node000013_Node000014" class="edge">
<title>Node13&#45;&gt;Node14</title>
<g id="a_edge15_Node000013_Node000014"><a xlink:title=" ">
<path fill="none" stroke="#63b8ff" d="M332.65,-120.8C342.94,-110.82 356.72,-97.46 367.41,-87.09"/>
<polygon fill="#63b8ff" stroke="#63b8ff" points="370.14,-89.32 374.88,-79.84 365.26,-84.29 370.14,-89.32"/>
</a>
</g>
</g>
<!-- Node15 -->
<g id="Node000015" class="node">
<title>Node15</title>
<g id="a_Node000015"><a xlink:href="Messages_8h.html" target="_top" xlink:title=" ">
<polygon fill="white" stroke="#666666" points="336.5,-85 233.5,-85 233.5,-55 336.5,-55 336.5,-85"/>
<text text-anchor="start" x="241.5" y="-73" font-family="Helvetica,sans-Serif" font-size="10.00">src/core/Protocols</text>
<text text-anchor="middle" x="285" y="-62" font-family="Helvetica,sans-Serif" font-size="10.00">/Messages.h</text>
</a>
</g>
</g>
<!-- Node13&#45;&gt;Node15 -->
<g id="edge16_Node000013_Node000015" class="edge">
<title>Node13&#45;&gt;Node15</title>
<g id="a_edge16_Node000013_Node000015"><a xlink:title=" ">
<path fill="none" stroke="#63b8ff" d="M310.68,-120.8C306.66,-113.01 301.58,-103.16 297,-94.28"/>
<polygon fill="#63b8ff" stroke="#63b8ff" points="300,-92.45 292.3,-85.16 293.78,-95.66 300,-92.45"/>
</a>
</g>
</g>
<!-- Node15&#45;&gt;Node2 -->
<g id="edge23_Node000015_Node000002" class="edge">
<title>Node15&#45;&gt;Node2</title>
<g id="a_edge23_Node000015_Node000002"><a xlink:title=" ">
<path fill="none" stroke="#63b8ff" d="M233.3,-57.23C183.8,-45.96 110.29,-29.23 65.97,-19.14"/>
<polygon fill="#63b8ff" stroke="#63b8ff" points="66.7,-15.72 56.17,-16.91 65.15,-22.54 66.7,-15.72"/>
</a>
</g>
</g>
<!-- Node15&#45;&gt;Node7 -->
<g id="edge18_Node000015_Node000007" class="edge">
<title>Node15&#45;&gt;Node7</title>
<g id="a_edge18_Node000015_Node000007"><a xlink:title=" ">
<path fill="none" stroke="#63b8ff" d="M336.7,-56.9C339.51,-56.25 342.29,-55.62 345,-55 403.19,-41.77 470.98,-26.87 511.09,-18.1"/>
<polygon fill="#63b8ff" stroke="#63b8ff" points="511.89,-21.51 520.91,-15.96 510.39,-14.67 511.89,-21.51"/>
</a>
</g>
</g>
<!-- Node16 -->
<g id="Node000016" class="node">
<title>Node16</title>
<g id="a_Node000016"><a xlink:title=" ">
<polygon fill="#e0e0e0" stroke="#999999" points="343.5,-19 292.5,-19 292.5,0 343.5,0 343.5,-19"/>
<text text-anchor="middle" x="318" y="-7" font-family="Helvetica,sans-Serif" font-size="10.00">variant</text>
</a>
</g>
</g>
<!-- Node15&#45;&gt;Node16 -->
<g id="edge17_Node000015_Node000016" class="edge">
<title>Node15&#45;&gt;Node16</title>
<g id="a_edge17_Node000015_Node000016"><a xlink:title=" ">
<path fill="none" stroke="#63b8ff" d="M292.99,-54.84C297.53,-46.78 303.27,-36.62 308.1,-28.06"/>
<polygon fill="#63b8ff" stroke="#63b8ff" points="311.19,-29.7 313.06,-19.27 305.09,-26.26 311.19,-29.7"/>
</a>
</g>
</g>
<!-- Node17 -->
<g id="Node000017" class="node">
<title>Node17</title>
<g id="a_Node000017"><a xlink:title=" ">
<polygon fill="#e0e0e0" stroke="#999999" points="497,-19 453,-19 453,0 497,0 497,-19"/>
<text text-anchor="middle" x="475" y="-7" font-family="Helvetica,sans-Serif" font-size="10.00">string</text>
</a>
</g>
</g>
<!-- Node15&#45;&gt;Node17 -->
<g id="edge19_Node000015_Node000017" class="edge">
<title>Node15&#45;&gt;Node17</title>
<g id="a_edge19_Node000015_Node000017"><a xlink:title=" ">
<path fill="none" stroke="#63b8ff" d="M330.51,-54.99C365.23,-44.3 412.18,-29.84 443.01,-20.35"/>
<polygon fill="#63b8ff" stroke="#63b8ff" points="444.28,-23.62 452.81,-17.33 442.22,-16.93 444.28,-23.62"/>
</a>
</g>
</g>
<!-- Node18 -->
<g id="Node000018" class="node">
<title>Node18</title>
<g id="a_Node000018"><a xlink:title=" ">
<polygon fill="#e0e0e0" stroke="#999999" points="434.5,-19 361.5,-19 361.5,0 434.5,0 434.5,-19"/>
<text text-anchor="middle" x="398" y="-7" font-family="Helvetica,sans-Serif" font-size="10.00">QByteArray</text>
</a>
</g>
</g>
<!-- Node15&#45;&gt;Node18 -->
<g id="edge20_Node000015_Node000018" class="edge">
<title>Node15&#45;&gt;Node18</title>
<g id="a_edge20_Node000015_Node000018"><a xlink:title=" ">
<path fill="none" stroke="#63b8ff" d="M312.07,-54.99C330.25,-45.58 354.07,-33.24 372.02,-23.95"/>
<polygon fill="#63b8ff" stroke="#63b8ff" points="374.04,-26.84 381.31,-19.14 370.82,-20.63 374.04,-26.84"/>
</a>
</g>
</g>
<!-- Node19 -->
<g id="Node000019" class="node">
<title>Node19</title>
<g id="a_Node000019"><a xlink:title=" ">
<polygon fill="#e0e0e0" stroke="#999999" points="140.5,-19 91.5,-19 91.5,0 140.5,0 140.5,-19"/>
<text text-anchor="middle" x="116" y="-7" font-family="Helvetica,sans-Serif" font-size="10.00">QHash</text>
</a>
</g>
</g>
<!-- Node15&#45;&gt;Node19 -->
<g id="edge21_Node000015_Node000019" class="edge">
<title>Node15&#45;&gt;Node19</title>
<g id="a_edge21_Node000015_Node000019"><a xlink:title=" ">
<path fill="none" stroke="#63b8ff" d="M244.52,-54.99C215.82,-45.05 177.72,-31.86 150.47,-22.43"/>
<polygon fill="#63b8ff" stroke="#63b8ff" points="151.55,-19.1 140.96,-19.14 149.26,-25.72 151.55,-19.1"/>
</a>
</g>
</g>
<!-- Node20 -->
<g id="Node000020" class="node">
<title>Node20</title>
<g id="a_Node000020"><a xlink:title=" ">
<polygon fill="#e0e0e0" stroke="#999999" points="211.5,-19 158.5,-19 158.5,0 211.5,0 211.5,-19"/>
<text text-anchor="middle" x="185" y="-7" font-family="Helvetica,sans-Serif" font-size="10.00">QString</text>
</a>
</g>
</g>
<!-- Node15&#45;&gt;Node20 -->
<g id="edge22_Node000015_Node000020" class="edge">
<title>Node15&#45;&gt;Node20</title>
<g id="a_edge22_Node000015_Node000020"><a xlink:title=" ">
<path fill="none" stroke="#63b8ff" d="M261.05,-54.99C245.11,-45.66 224.27,-33.47 208.44,-24.21"/>
<polygon fill="#63b8ff" stroke="#63b8ff" points="210.17,-21.17 199.77,-19.14 206.63,-27.21 210.17,-21.17"/>
</a>
</g>
</g>
<!-- Node21 -->
<g id="Node000021" class="node">
<title>Node21</title>
<g id="a_Node000021"><a xlink:title=" ">
<polygon fill="#e0e0e0" stroke="#999999" points="274.5,-19 229.5,-19 229.5,0 274.5,0 274.5,-19"/>
<text text-anchor="middle" x="252" y="-7" font-family="Helvetica,sans-Serif" font-size="10.00">QMap</text>
</a>
</g>
</g>
<!-- Node15&#45;&gt;Node21 -->
<g id="edge24_Node000015_Node000021" class="edge">
<title>Node15&#45;&gt;Node21</title>
<g id="a_edge24_Node000015_Node000021"><a xlink:title=" ">
<path fill="none" stroke="#63b8ff" d="M277.01,-54.84C272.47,-46.78 266.73,-36.62 261.9,-28.06"/>
<polygon fill="#63b8ff" stroke="#63b8ff" points="264.91,-26.26 256.94,-19.27 258.81,-29.7 264.91,-26.26"/>
</a>
</g>
</g>
<!-- Node22&#45;&gt;Node7 -->
<g id="edge26_Node000022_Node000007" class="edge">
<title>Node22&#45;&gt;Node7</title>
<g id="a_edge26_Node000022_Node000007"><a xlink:title=" ">
<path fill="none" stroke="#63b8ff" d="M456.85,-187.23C475.16,-180.39 498.2,-168.85 512,-151 540.06,-114.7 545.38,-58.6 546.13,-29.48"/>
<polygon fill="#63b8ff" stroke="#63b8ff" points="549.64,-29.14 546.23,-19.11 542.64,-29.08 549.64,-29.14"/>
</a>
</g>
</g>
<!-- Node22&#45;&gt;Node11 -->
<g id="edge27_Node000022_Node000011" class="edge">
<title>Node22&#45;&gt;Node11</title>
<g id="a_edge27_Node000022_Node000011"><a xlink:title=" ">
<path fill="none" stroke="#63b8ff" d="M433.13,-186.87C437.14,-178.49 443.35,-165.51 448.44,-154.89"/>
<polygon fill="#63b8ff" stroke="#63b8ff" points="451.69,-156.2 452.85,-145.67 445.38,-153.18 451.69,-156.2"/>
</a>
</g>
</g>
<!-- Node22&#45;&gt;Node13 -->
<g id="edge29_Node000022_Node000013" class="edge">
<title>Node22&#45;&gt;Node13</title>
<g id="a_edge29_Node000022_Node000013"><a xlink:title=" ">
<path fill="none" stroke="#63b8ff" d="M412.62,-186.87C397.21,-178.75 373.61,-166.31 353.84,-155.89"/>
<polygon fill="#63b8ff" stroke="#63b8ff" points="355.26,-152.68 344.78,-151.11 352,-158.87 355.26,-152.68"/>
</a>
</g>
</g>
<!-- Node22&#45;&gt;Node17 -->
<g id="edge28_Node000022_Node000017" class="edge">
<title>Node22&#45;&gt;Node17</title>
<g id="a_edge28_Node000022_Node000017"><a xlink:title=" ">
<path fill="none" stroke="#63b8ff" d="M451.12,-186.95C466.2,-179.82 485.01,-168.06 494,-151 515.07,-111.04 496.16,-56.15 483.77,-28.29"/>
<polygon fill="#63b8ff" stroke="#63b8ff" points="486.84,-26.59 479.43,-19.02 480.5,-29.56 486.84,-26.59"/>
</a>
</g>
</g>
</g>
</svg>
