<?xml version="1.0" encoding="UTF-8" standalone="no"?>
<!DOCTYPE svg PUBLIC "-//W3C//DTD SVG 1.1//EN"
 "http://www.w3.org/Graphics/SVG/1.1/DTD/svg11.dtd">
<!-- Generated by graphviz version 2.43.0 (0)
 -->
<!-- Title: features/communication/udp/UdpWorker.cpp Pages: 1 -->
<svg width="889pt" height="390pt"
 viewBox="0.00 0.00 888.50 390.00" xmlns="http://www.w3.org/2000/svg" xmlns:xlink="http://www.w3.org/1999/xlink">
<g id="graph0" class="graph" transform="scale(1 1) rotate(0) translate(4 386)">
<title>features/communication/udp/UdpWorker.cpp</title>
<!-- Node1 -->
<g id="Node000001" class="node">
<title>Node1</title>
<g id="a_Node000001"><a xlink:title=" ">
<polygon fill="#999999" stroke="#666666" points="436.5,-382 300.5,-382 300.5,-352 436.5,-352 436.5,-382"/>
<text text-anchor="start" x="308.5" y="-370" font-family="Helvetica,sans-Serif" font-size="10.00">features/communication</text>
<text text-anchor="middle" x="368.5" y="-359" font-family="Helvetica,sans-Serif" font-size="10.00">/udp/UdpWorker.cpp</text>
</a>
</g>
</g>
<!-- Node2 -->
<g id="Node000002" class="node">
<title>Node2</title>
<g id="a_Node000002"><a xlink:href="UdpWorker_8h.html" target="_top" xlink:title="UDP socket worker running on a dedicated thread.">
<polygon fill="white" stroke="#666666" points="625.5,-316 547.5,-316 547.5,-297 625.5,-297 625.5,-316"/>
<text text-anchor="middle" x="586.5" y="-304" font-family="Helvetica,sans-Serif" font-size="10.00">UdpWorker.h</text>
</a>
</g>
</g>
<!-- Node1&#45;&gt;Node2 -->
<g id="edge1_Node000001_Node000002" class="edge">
<title>Node1&#45;&gt;Node2</title>
<g id="a_edge1_Node000001_Node000002"><a xlink:title=" ">
<path fill="none" stroke="#63b8ff" d="M420.72,-351.99C458.66,-341.8 509.35,-328.2 544.65,-318.73"/>
<polygon fill="#63b8ff" stroke="#63b8ff" points="545.87,-322.03 554.62,-316.05 544.06,-315.27 545.87,-322.03"/>
</a>
</g>
</g>
<!-- Node8 -->
<g id="Node000008" class="node">
<title>Node8</title>
<g id="a_Node000008"><a xlink:title=" ">
<polygon fill="#e0e0e0" stroke="#999999" points="548.5,-19 498.5,-19 498.5,0 548.5,0 548.5,-19"/>
<text text-anchor="middle" x="523.5" y="-7" font-family="Helvetica,sans-Serif" font-size="10.00">cstdint</text>
</a>
</g>
</g>
<!-- Node1&#45;&gt;Node8 -->
<g id="edge36_Node000001_Node000008" class="edge">
<title>Node1&#45;&gt;Node8</title>
<g id="a_edge36_Node000001_Node000008"><a xlink:title=" ">
<path fill="none" stroke="#63b8ff" d="M360.33,-351.95C332.51,-302.12 247.94,-132.66 336.5,-55 386.66,-11.01 418.64,-33.23 488.19,-19.1"/>
<polygon fill="#63b8ff" stroke="#63b8ff" points="489.26,-22.45 498.26,-16.85 487.74,-15.61 489.26,-22.45"/>
</a>
</g>
</g>
<!-- Node11 -->
<g id="Node000011" class="node">
<title>Node11</title>
<g id="a_Node000011"><a xlink:title=" ">
<polygon fill="#e0e0e0" stroke="#999999" points="880.5,-145.5 824.5,-145.5 824.5,-126.5 880.5,-126.5 880.5,-145.5"/>
<text text-anchor="middle" x="852.5" y="-133.5" font-family="Helvetica,sans-Serif" font-size="10.00">QDebug</text>
</a>
</g>
</g>
<!-- Node1&#45;&gt;Node11 -->
<g id="edge35_Node000001_Node000011" class="edge">
<title>Node1&#45;&gt;Node11</title>
<g id="a_edge35_Node000001_Node000011"><a xlink:title=" ">
<path fill="none" stroke="#63b8ff" d="M436.7,-360.2C552.85,-348.83 781.54,-319.46 833.5,-261 859.58,-231.66 858.35,-182.16 855.34,-155.44"/>
<polygon fill="#63b8ff" stroke="#63b8ff" points="858.81,-154.96 854.02,-145.51 851.87,-155.88 858.81,-154.96"/>
</a>
</g>
</g>
<!-- Node14 -->
<g id="Node000014" class="node">
<title>Node14</title>
<g id="a_Node000014"><a xlink:href="Logger_8h.html" target="_top" xlink:title="Tool that provide the ability to display and log errors and debug messages.">
<polygon fill="white" stroke="#666666" points="430.5,-151 320.5,-151 320.5,-121 430.5,-121 430.5,-151"/>
<text text-anchor="start" x="328.5" y="-139" font-family="Helvetica,sans-Serif" font-size="10.00">src/services/Logger</text>
<text text-anchor="middle" x="375.5" y="-128" font-family="Helvetica,sans-Serif" font-size="10.00">/Logger.h</text>
</a>
</g>
</g>
<!-- Node1&#45;&gt;Node14 -->
<g id="edge34_Node000001_Node000014" class="edge">
<title>Node1&#45;&gt;Node14</title>
<g id="a_edge34_Node000001_Node000014"><a xlink:title=" ">
<path fill="none" stroke="#63b8ff" d="M368.94,-351.68C370.11,-313.43 373.31,-208.61 374.77,-161.04"/>
<polygon fill="#63b8ff" stroke="#63b8ff" points="378.26,-161.13 375.07,-151.03 371.27,-160.92 378.26,-161.13"/>
</a>
</g>
</g>
<!-- Node24 -->
<g id="Node000024" class="node">
<title>Node24</title>
<g id="a_Node000024"><a xlink:href="UdpCodec_8h.html" target="_top" xlink:title=" ">
<polygon fill="white" stroke="#666666" points="116.5,-145.5 4.5,-145.5 4.5,-126.5 116.5,-126.5 116.5,-145.5"/>
<text text-anchor="middle" x="60.5" y="-133.5" font-family="Helvetica,sans-Serif" font-size="10.00">codecs/UdpCodec.h</text>
</a>
</g>
</g>
<!-- Node1&#45;&gt;Node24 -->
<g id="edge31_Node000001_Node000024" class="edge">
<title>Node1&#45;&gt;Node24</title>
<g id="a_edge31_Node000001_Node000024"><a xlink:title=" ">
<path fill="none" stroke="#63b8ff" d="M311.32,-351.96C259.17,-336.76 182.54,-308.15 130.5,-261 97.49,-231.09 76.27,-181.86 66.6,-155.32"/>
<polygon fill="#63b8ff" stroke="#63b8ff" points="69.86,-154.04 63.26,-145.75 63.25,-156.35 69.86,-154.04"/>
</a>
</g>
</g>
<!-- Node3 -->
<g id="Node000003" class="node">
<title>Node3</title>
<g id="a_Node000003"><a xlink:title=" ">
<polygon fill="#e0e0e0" stroke="#999999" points="127.5,-19 71.5,-19 71.5,0 127.5,0 127.5,-19"/>
<text text-anchor="middle" x="99.5" y="-7" font-family="Helvetica,sans-Serif" font-size="10.00">QObject</text>
</a>
</g>
</g>
<!-- Node2&#45;&gt;Node3 -->
<g id="edge2_Node000002_Node000003" class="edge">
<title>Node2&#45;&gt;Node3</title>
<g id="a_edge2_Node000002_Node000003"><a xlink:title=" ">
<path fill="none" stroke="#63b8ff" d="M547.28,-304.26C439.1,-299.79 144.5,-280.05 144.5,-197.5 144.5,-197.5 144.5,-197.5 144.5,-135 144.5,-94.78 123.47,-51.37 110.16,-27.92"/>
<polygon fill="#63b8ff" stroke="#63b8ff" points="113.1,-26.02 105.02,-19.17 107.07,-29.56 113.1,-26.02"/>
</a>
</g>
</g>
<!-- Node4 -->
<g id="Node000004" class="node">
<title>Node4</title>
<g id="a_Node000004"><a xlink:title=" ">
<polygon fill="#e0e0e0" stroke="#999999" points="756.5,-261 680.5,-261 680.5,-242 756.5,-242 756.5,-261"/>
<text text-anchor="middle" x="718.5" y="-249" font-family="Helvetica,sans-Serif" font-size="10.00">QUdpSocket</text>
</a>
</g>
</g>
<!-- Node2&#45;&gt;Node4 -->
<g id="edge3_Node000002_Node000004" class="edge">
<title>Node2&#45;&gt;Node4</title>
<g id="a_edge3_Node000002_Node000004"><a xlink:title=" ">
<path fill="none" stroke="#63b8ff" d="M607.71,-296.98C629.23,-288.34 662.78,-274.87 687.33,-265.02"/>
<polygon fill="#63b8ff" stroke="#63b8ff" points="688.93,-268.14 696.91,-261.17 686.32,-261.65 688.93,-268.14"/>
</a>
</g>
</g>
<!-- Node5 -->
<g id="Node000005" class="node">
<title>Node5</title>
<g id="a_Node000005"><a xlink:title=" ">
<polygon fill="#e0e0e0" stroke="#999999" points="824.5,-261 774.5,-261 774.5,-242 824.5,-242 824.5,-261"/>
<text text-anchor="middle" x="799.5" y="-249" font-family="Helvetica,sans-Serif" font-size="10.00">chrono</text>
</a>
</g>
</g>
<!-- Node2&#45;&gt;Node5 -->
<g id="edge4_Node000002_Node000005" class="edge">
<title>Node2&#45;&gt;Node5</title>
<g id="a_edge4_Node000002_Node000005"><a xlink:title=" ">
<path fill="none" stroke="#63b8ff" d="M620.82,-296.98C654.81,-288.54 708.63,-275.17 764.22,-261.32"/>
<polygon fill="#63b8ff" stroke="#63b8ff" points="765.39,-264.63 774.25,-258.82 763.7,-257.84 765.39,-264.63"/>
</a>
</g>
</g>
<!-- Node6 -->
<g id="Node000006" class="node">
<title>Node6</title>
<g id="a_Node000006"><a xlink:href="UdpLogger_8h.html" target="_top" xlink:title="High&#45;frequency binary logger for UDP telemetry frames.">
<polygon fill="white" stroke="#666666" points="662,-261 511,-261 511,-242 662,-242 662,-261"/>
<text text-anchor="middle" x="586.5" y="-249" font-family="Helvetica,sans-Serif" font-size="10.00">frames_logger/UdpLogger.h</text>
</a>
</g>
</g>
<!-- Node2&#45;&gt;Node6 -->
<g id="edge5_Node000002_Node000006" class="edge">
<title>Node2&#45;&gt;Node6</title>
<g id="a_edge5_Node000002_Node000006"><a xlink:title=" ">
<path fill="none" stroke="#63b8ff" d="M586.5,-296.75C586.5,-289.8 586.5,-279.85 586.5,-271.13"/>
<polygon fill="#63b8ff" stroke="#63b8ff" points="590,-271.09 586.5,-261.09 583,-271.09 590,-271.09"/>
</a>
</g>
</g>
<!-- Node7 -->
<g id="Node000007" class="node">
<title>Node7</title>
<g id="a_Node000007"><a xlink:title=" ">
<polygon fill="#e0e0e0" stroke="#999999" points="806.5,-145.5 756.5,-145.5 756.5,-126.5 806.5,-126.5 806.5,-145.5"/>
<text text-anchor="middle" x="781.5" y="-133.5" font-family="Helvetica,sans-Serif" font-size="10.00">atomic</text>
</a>
</g>
</g>
<!-- Node6&#45;&gt;Node7 -->
<g id="edge6_Node000006_Node000007" class="edge">
<title>Node6&#45;&gt;Node7</title>
<g id="a_edge6_Node000006_Node000007"><a xlink:title=" ">
<path fill="none" stroke="#63b8ff" d="M631.74,-241.99C659.33,-235.3 694.37,-224.03 721.5,-206 742.08,-192.32 759.82,-169.76 770.56,-154.18"/>
<polygon fill="#63b8ff" stroke="#63b8ff" points="773.69,-155.79 776.31,-145.52 767.86,-151.92 773.69,-155.79"/>
</a>
</g>
</g>
<!-- Node6&#45;&gt;Node8 -->
<g id="edge7_Node000006_Node000008" class="edge">
<title>Node6&#45;&gt;Node8</title>
<g id="a_edge7_Node000006_Node000008"><a xlink:title=" ">
<path fill="none" stroke="#63b8ff" d="M588.39,-241.81C592.64,-220.65 601.64,-165.01 589.5,-121 579.4,-84.41 553.65,-47.73 537.46,-27.18"/>
<polygon fill="#63b8ff" stroke="#63b8ff" points="539.99,-24.75 530.98,-19.18 534.55,-29.15 539.99,-24.75"/>
</a>
</g>
</g>
<!-- Node9 -->
<g id="Node000009" class="node">
<title>Node9</title>
<g id="a_Node000009"><a xlink:title=" ">
<polygon fill="#e0e0e0" stroke="#999999" points="816.5,-206 768.5,-206 768.5,-187 816.5,-187 816.5,-206"/>
<text text-anchor="middle" x="792.5" y="-194" font-family="Helvetica,sans-Serif" font-size="10.00">thread</text>
</a>
</g>
</g>
<!-- Node6&#45;&gt;Node9 -->
<g id="edge8_Node000006_Node000009" class="edge">
<title>Node6&#45;&gt;Node9</title>
<g id="a_edge8_Node000006_Node000009"><a xlink:title=" ">
<path fill="none" stroke="#63b8ff" d="M619.6,-241.98C657.81,-232.15 720.32,-216.07 758.79,-206.17"/>
<polygon fill="#63b8ff" stroke="#63b8ff" points="759.68,-209.56 768.49,-203.68 757.94,-202.78 759.68,-209.56"/>
</a>
</g>
</g>
<!-- Node10 -->
<g id="Node000010" class="node">
<title>Node10</title>
<g id="a_Node000010"><a xlink:href="RingBuffer_8h.html" target="_top" xlink:title=" ">
<polygon fill="white" stroke="#666666" points="712.5,-206 636.5,-206 636.5,-187 712.5,-187 712.5,-206"/>
<text text-anchor="middle" x="674.5" y="-194" font-family="Helvetica,sans-Serif" font-size="10.00">RingBuffer.h</text>
</a>
</g>
</g>
<!-- Node6&#45;&gt;Node10 -->
<g id="edge9_Node000006_Node000010" class="edge">
<title>Node6&#45;&gt;Node10</title>
<g id="a_edge9_Node000006_Node000010"><a xlink:title=" ">
<path fill="none" stroke="#63b8ff" d="M600.64,-241.98C614.29,-233.77 635.19,-221.18 651.28,-211.49"/>
<polygon fill="#63b8ff" stroke="#63b8ff" points="653.34,-214.33 660.1,-206.17 649.73,-208.33 653.34,-214.33"/>
</a>
</g>
</g>
<!-- Node23 -->
<g id="Node000023" class="node">
<title>Node23</title>
<g id="a_Node000023"><a xlink:href="Writer_8h.html" target="_top" xlink:title=" ">
<polygon fill="white" stroke="#666666" points="524,-206 469,-206 469,-187 524,-187 524,-206"/>
<text text-anchor="middle" x="496.5" y="-194" font-family="Helvetica,sans-Serif" font-size="10.00">Writer.h</text>
</a>
</g>
</g>
<!-- Node6&#45;&gt;Node23 -->
<g id="edge26_Node000006_Node000023" class="edge">
<title>Node6&#45;&gt;Node23</title>
<g id="a_edge26_Node000006_Node000023"><a xlink:title=" ">
<path fill="none" stroke="#63b8ff" d="M572.04,-241.98C558.08,-233.77 536.71,-221.18 520.25,-211.49"/>
<polygon fill="#63b8ff" stroke="#63b8ff" points="521.62,-208.23 511.22,-206.17 518.06,-214.26 521.62,-208.23"/>
</a>
</g>
</g>
<!-- Node10&#45;&gt;Node7 -->
<g id="edge13_Node000010_Node000007" class="edge">
<title>Node10&#45;&gt;Node7</title>
<g id="a_edge13_Node000010_Node000007"><a xlink:title=" ">
<path fill="none" stroke="#63b8ff" d="M690.29,-186.87C707.83,-177.28 736.38,-161.67 756.87,-150.47"/>
<polygon fill="#63b8ff" stroke="#63b8ff" points="758.55,-153.54 765.65,-145.67 755.19,-147.39 758.55,-153.54"/>
</a>
</g>
</g>
<!-- Node10&#45;&gt;Node8 -->
<g id="edge11_Node000010_Node000008" class="edge">
<title>Node10&#45;&gt;Node8</title>
<g id="a_edge11_Node000010_Node000008"><a xlink:title=" ">
<path fill="none" stroke="#63b8ff" d="M672.19,-186.65C664.85,-159.06 641.41,-75.24 622.5,-55 605.47,-36.78 579.59,-25.5 558.56,-18.86"/>
<polygon fill="#63b8ff" stroke="#63b8ff" points="559.27,-15.42 548.69,-15.96 557.3,-22.14 559.27,-15.42"/>
</a>
</g>
</g>
<!-- Node10&#45;&gt;Node11 -->
<g id="edge10_Node000010_Node000011" class="edge">
<title>Node10&#45;&gt;Node11</title>
<g id="a_edge10_Node000010_Node000011"><a xlink:title=" ">
<path fill="none" stroke="#63b8ff" d="M703.28,-186.93C731.88,-178.3 776.94,-164.37 815.5,-151 817.15,-150.43 818.84,-149.83 820.54,-149.22"/>
<polygon fill="#63b8ff" stroke="#63b8ff" points="822.09,-152.38 830.27,-145.64 819.68,-145.81 822.09,-152.38"/>
</a>
</g>
</g>
<!-- Node12 -->
<g id="Node000012" class="node">
<title>Node12</title>
<g id="a_Node000012"><a xlink:title=" ">
<polygon fill="#e0e0e0" stroke="#999999" points="580,-145.5 525,-145.5 525,-126.5 580,-126.5 580,-145.5"/>
<text text-anchor="middle" x="552.5" y="-133.5" font-family="Helvetica,sans-Serif" font-size="10.00">fstream</text>
</a>
</g>
</g>
<!-- Node10&#45;&gt;Node12 -->
<g id="edge12_Node000010_Node000012" class="edge">
<title>Node10&#45;&gt;Node12</title>
<g id="a_edge12_Node000010_Node000012"><a xlink:title=" ">
<path fill="none" stroke="#63b8ff" d="M656.76,-186.99C636.43,-177.25 602.89,-161.16 579.36,-149.88"/>
<polygon fill="#63b8ff" stroke="#63b8ff" points="580.79,-146.68 570.26,-145.52 577.76,-153 580.79,-146.68"/>
</a>
</g>
</g>
<!-- Node13 -->
<g id="Node000013" class="node">
<title>Node13</title>
<g id="a_Node000013"><a xlink:title=" ">
<polygon fill="#e0e0e0" stroke="#999999" points="738.5,-145.5 674.5,-145.5 674.5,-126.5 738.5,-126.5 738.5,-145.5"/>
<text text-anchor="middle" x="706.5" y="-133.5" font-family="Helvetica,sans-Serif" font-size="10.00">algorithm</text>
</a>
</g>
</g>
<!-- Node10&#45;&gt;Node13 -->
<g id="edge14_Node000010_Node000013" class="edge">
<title>Node10&#45;&gt;Node13</title>
<g id="a_edge14_Node000010_Node000013"><a xlink:title=" ">
<path fill="none" stroke="#63b8ff" d="M679.22,-186.87C683.85,-178.4 691.05,-165.24 696.89,-154.57"/>
<polygon fill="#63b8ff" stroke="#63b8ff" points="700.03,-156.12 701.76,-145.67 693.89,-152.76 700.03,-156.12"/>
</a>
</g>
</g>
<!-- Node10&#45;&gt;Node14 -->
<g id="edge15_Node000010_Node000014" class="edge">
<title>Node10&#45;&gt;Node14</title>
<g id="a_edge15_Node000010_Node000014"><a xlink:title=" ">
<path fill="none" stroke="#63b8ff" d="M636.33,-188.03C587.07,-178.39 500.6,-161.48 440.8,-149.78"/>
<polygon fill="#63b8ff" stroke="#63b8ff" points="441.19,-146.29 430.71,-147.8 439.85,-153.16 441.19,-146.29"/>
</a>
</g>
</g>
<!-- Node15 -->
<g id="Node000015" class="node">
<title>Node15</title>
<g id="a_Node000015"><a xlink:title=" ">
<polygon fill="#e0e0e0" stroke="#999999" points="405,-79.5 346,-79.5 346,-60.5 405,-60.5 405,-79.5"/>
<text text-anchor="middle" x="375.5" y="-67.5" font-family="Helvetica,sans-Serif" font-size="10.00">QWidget</text>
</a>
</g>
</g>
<!-- Node14&#45;&gt;Node15 -->
<g id="edge16_Node000014_Node000015" class="edge">
<title>Node14&#45;&gt;Node15</title>
<g id="a_edge16_Node000014_Node000015"><a xlink:title=" ">
<path fill="none" stroke="#63b8ff" d="M375.5,-120.8C375.5,-111.7 375.5,-99.79 375.5,-89.9"/>
<polygon fill="#63b8ff" stroke="#63b8ff" points="379,-89.84 375.5,-79.84 372,-89.84 379,-89.84"/>
</a>
</g>
</g>
<!-- Node16 -->
<g id="Node000016" class="node">
<title>Node16</title>
<g id="a_Node000016"><a xlink:href="Messages_8h.html" target="_top" xlink:title=" ">
<polygon fill="white" stroke="#666666" points="276,-85 173,-85 173,-55 276,-55 276,-85"/>
<text text-anchor="start" x="181" y="-73" font-family="Helvetica,sans-Serif" font-size="10.00">src/core/Protocols</text>
<text text-anchor="middle" x="224.5" y="-62" font-family="Helvetica,sans-Serif" font-size="10.00">/Messages.h</text>
</a>
</g>
</g>
<!-- Node14&#45;&gt;Node16 -->
<g id="edge17_Node000014_Node000016" class="edge">
<title>Node14&#45;&gt;Node16</title>
<g id="a_edge17_Node000014_Node000016"><a xlink:title=" ">
<path fill="none" stroke="#63b8ff" d="M342.36,-120.95C320.23,-111.58 290.93,-99.16 267.08,-89.05"/>
<polygon fill="#63b8ff" stroke="#63b8ff" points="268.13,-85.69 257.56,-85.01 265.4,-92.14 268.13,-85.69"/>
</a>
</g>
</g>
<!-- Node16&#45;&gt;Node3 -->
<g id="edge24_Node000016_Node000003" class="edge">
<title>Node16&#45;&gt;Node3</title>
<g id="a_edge24_Node000016_Node000003"><a xlink:title=" ">
<path fill="none" stroke="#63b8ff" d="M194.56,-54.99C174.08,-45.4 147.12,-32.79 127.15,-23.44"/>
<polygon fill="#63b8ff" stroke="#63b8ff" points="128.5,-20.21 117.96,-19.14 125.53,-26.55 128.5,-20.21"/>
</a>
</g>
</g>
<!-- Node16&#45;&gt;Node8 -->
<g id="edge19_Node000016_Node000008" class="edge">
<title>Node16&#45;&gt;Node8</title>
<g id="a_edge19_Node000016_Node000008"><a xlink:title=" ">
<path fill="none" stroke="#63b8ff" d="M276.35,-57.85C281.13,-56.87 285.9,-55.9 290.5,-55 375.59,-38.28 399.94,-37.91 488.36,-19.13"/>
<polygon fill="#63b8ff" stroke="#63b8ff" points="489.25,-22.52 498.29,-17 487.78,-15.67 489.25,-22.52"/>
</a>
</g>
</g>
<!-- Node17 -->
<g id="Node000017" class="node">
<title>Node17</title>
<g id="a_Node000017"><a xlink:title=" ">
<polygon fill="#e0e0e0" stroke="#999999" points="327,-19 276,-19 276,0 327,0 327,-19"/>
<text text-anchor="middle" x="301.5" y="-7" font-family="Helvetica,sans-Serif" font-size="10.00">variant</text>
</a>
</g>
</g>
<!-- Node16&#45;&gt;Node17 -->
<g id="edge18_Node000016_Node000017" class="edge">
<title>Node16&#45;&gt;Node17</title>
<g id="a_edge18_Node000016_Node000017"><a xlink:title=" ">
<path fill="none" stroke="#63b8ff" d="M243.14,-54.84C254.89,-45.91 270.03,-34.41 281.95,-25.35"/>
<polygon fill="#63b8ff" stroke="#63b8ff" points="284.12,-28.1 289.96,-19.27 279.88,-22.53 284.12,-28.1"/>
</a>
</g>
</g>
<!-- Node18 -->
<g id="Node000018" class="node">
<title>Node18</title>
<g id="a_Node000018"><a xlink:title=" ">
<polygon fill="#e0e0e0" stroke="#999999" points="480.5,-19 436.5,-19 436.5,0 480.5,0 480.5,-19"/>
<text text-anchor="middle" x="458.5" y="-7" font-family="Helvetica,sans-Serif" font-size="10.00">string</text>
</a>
</g>
</g>
<!-- Node16&#45;&gt;Node18 -->
<g id="edge20_Node000016_Node000018" class="edge">
<title>Node16&#45;&gt;Node18</title>
<g id="a_edge20_Node000016_Node000018"><a xlink:title=" ">
<path fill="none" stroke="#63b8ff" d="M276.32,-56.63C315.15,-47.27 369.84,-33.9 426.34,-19.25"/>
<polygon fill="#63b8ff" stroke="#63b8ff" points="427.37,-22.6 436.17,-16.7 425.61,-15.83 427.37,-22.6"/>
</a>
</g>
</g>
<!-- Node19 -->
<g id="Node000019" class="node">
<title>Node19</title>
<g id="a_Node000019"><a xlink:title=" ">
<polygon fill="#e0e0e0" stroke="#999999" points="418,-19 345,-19 345,0 418,0 418,-19"/>
<text text-anchor="middle" x="381.5" y="-7" font-family="Helvetica,sans-Serif" font-size="10.00">QByteArray</text>
</a>
</g>
</g>
<!-- Node16&#45;&gt;Node19 -->
<g id="edge21_Node000016_Node000019" class="edge">
<title>Node16&#45;&gt;Node19</title>
<g id="a_edge21_Node000016_Node000019"><a xlink:title=" ">
<path fill="none" stroke="#63b8ff" d="M262.11,-54.99C288.53,-45.14 323.54,-32.1 348.81,-22.68"/>
<polygon fill="#63b8ff" stroke="#63b8ff" points="350.17,-25.91 358.31,-19.14 347.72,-19.35 350.17,-25.91"/>
</a>
</g>
</g>
<!-- Node20 -->
<g id="Node000020" class="node">
<title>Node20</title>
<g id="a_Node000020"><a xlink:title=" ">
<polygon fill="#e0e0e0" stroke="#999999" points="195,-19 146,-19 146,0 195,0 195,-19"/>
<text text-anchor="middle" x="170.5" y="-7" font-family="Helvetica,sans-Serif" font-size="10.00">QHash</text>
</a>
</g>
</g>
<!-- Node16&#45;&gt;Node20 -->
<g id="edge22_Node000016_Node000020" class="edge">
<title>Node16&#45;&gt;Node20</title>
<g id="a_edge22_Node000016_Node000020"><a xlink:title=" ">
<path fill="none" stroke="#63b8ff" d="M211.43,-54.84C203.59,-46.35 193.59,-35.52 185.44,-26.69"/>
<polygon fill="#63b8ff" stroke="#63b8ff" points="187.95,-24.24 178.59,-19.27 182.8,-28.99 187.95,-24.24"/>
</a>
</g>
</g>
<!-- Node21 -->
<g id="Node000021" class="node">
<title>Node21</title>
<g id="a_Node000021"><a xlink:title=" ">
<polygon fill="#e0e0e0" stroke="#999999" points="53,-19 0,-19 0,0 53,0 53,-19"/>
<text text-anchor="middle" x="26.5" y="-7" font-family="Helvetica,sans-Serif" font-size="10.00">QString</text>
</a>
</g>
</g>
<!-- Node16&#45;&gt;Node21 -->
<g id="edge23_Node000016_Node000021" class="edge">
<title>Node16&#45;&gt;Node21</title>
<g id="a_edge23_Node000016_Node000021"><a xlink:title=" ">
<path fill="none" stroke="#63b8ff" d="M177.07,-54.99C142.08,-44.65 95.15,-30.78 63.04,-21.3"/>
<polygon fill="#63b8ff" stroke="#63b8ff" points="63.75,-17.86 53.17,-18.38 61.77,-24.57 63.75,-17.86"/>
</a>
</g>
</g>
<!-- Node22 -->
<g id="Node000022" class="node">
<title>Node22</title>
<g id="a_Node000022"><a xlink:title=" ">
<polygon fill="#e0e0e0" stroke="#999999" points="258,-19 213,-19 213,0 258,0 258,-19"/>
<text text-anchor="middle" x="235.5" y="-7" font-family="Helvetica,sans-Serif" font-size="10.00">QMap</text>
</a>
</g>
</g>
<!-- Node16&#45;&gt;Node22 -->
<g id="edge25_Node000016_Node000022" class="edge">
<title>Node16&#45;&gt;Node22</title>
<g id="a_edge25_Node000016_Node000022"><a xlink:title=" ">
<path fill="none" stroke="#63b8ff" d="M227.16,-54.84C228.61,-47.13 230.43,-37.49 231.99,-29.17"/>
<polygon fill="#63b8ff" stroke="#63b8ff" points="235.44,-29.74 233.85,-19.27 228.56,-28.45 235.44,-29.74"/>
</a>
</g>
</g>
<!-- Node23&#45;&gt;Node8 -->
<g id="edge27_Node000023_Node000008" class="edge">
<title>Node23&#45;&gt;Node8</title>
<g id="a_edge27_Node000023_Node000008"><a xlink:title=" ">
<path fill="none" stroke="#63b8ff" d="M497.8,-186.58C501.96,-158.07 515,-68.74 520.74,-29.41"/>
<polygon fill="#63b8ff" stroke="#63b8ff" points="524.23,-29.73 522.21,-19.33 517.3,-28.72 524.23,-29.73"/>
</a>
</g>
</g>
<!-- Node23&#45;&gt;Node12 -->
<g id="edge28_Node000023_Node000012" class="edge">
<title>Node23&#45;&gt;Node12</title>
<g id="a_edge28_Node000023_Node000012"><a xlink:title=" ">
<path fill="none" stroke="#63b8ff" d="M504.76,-186.87C513.28,-177.97 526.76,-163.89 537.23,-152.95"/>
<polygon fill="#63b8ff" stroke="#63b8ff" points="539.82,-155.31 544.2,-145.67 534.76,-150.47 539.82,-155.31"/>
</a>
</g>
</g>
<!-- Node23&#45;&gt;Node14 -->
<g id="edge30_Node000023_Node000014" class="edge">
<title>Node23&#45;&gt;Node14</title>
<g id="a_edge30_Node000023_Node000014"><a xlink:title=" ">
<path fill="none" stroke="#63b8ff" d="M478.91,-186.99C461.93,-178.79 435.67,-166.09 413.86,-155.55"/>
<polygon fill="#63b8ff" stroke="#63b8ff" points="415.35,-152.38 404.82,-151.18 412.3,-158.68 415.35,-152.38"/>
</a>
</g>
</g>
<!-- Node23&#45;&gt;Node18 -->
<g id="edge29_Node000023_Node000018" class="edge">
<title>Node23&#45;&gt;Node18</title>
<g id="a_edge29_Node000023_Node000018"><a xlink:title=" ">
<path fill="none" stroke="#63b8ff" d="M494.67,-186.58C488.8,-158.01 470.38,-68.36 462.33,-29.16"/>
<polygon fill="#63b8ff" stroke="#63b8ff" points="465.75,-28.42 460.31,-19.33 458.9,-29.83 465.75,-28.42"/>
</a>
</g>
</g>
<!-- Node24&#45;&gt;Node16 -->
<g id="edge33_Node000024_Node000016" class="edge">
<title>Node24&#45;&gt;Node16</title>
<g id="a_edge33_Node000024_Node000016"><a xlink:title=" ">
<path fill="none" stroke="#63b8ff" d="M82.62,-126.37C107.18,-116.78 147.51,-101.05 178.9,-88.8"/>
<polygon fill="#63b8ff" stroke="#63b8ff" points="180.29,-92.01 188.33,-85.12 177.74,-85.49 180.29,-92.01"/>
</a>
</g>
</g>
<!-- Node24&#45;&gt;Node21 -->
<g id="edge32_Node000024_Node000021" class="edge">
<title>Node24&#45;&gt;Node21</title>
<g id="a_edge32_Node000024_Node000021"><a xlink:title=" ">
<path fill="none" stroke="#63b8ff" d="M58.16,-126.44C52.7,-106.45 39.01,-56.32 31.55,-28.98"/>
<polygon fill="#63b8ff" stroke="#63b8ff" points="34.86,-27.84 28.85,-19.12 28.11,-29.69 34.86,-27.84"/>
</a>
</g>
</g>
</g>
</svg>
