<?xml version="1.0" encoding="UTF-8" standalone="no"?>
<!DOCTYPE svg PUBLIC "-//W3C//DTD SVG 1.1//EN"
 "http://www.w3.org/Graphics/SVG/1.1/DTD/svg11.dtd">
<!-- Generated by graphviz version 2.43.0 (0)
 -->
<!-- Title: features/communication/udp/frames_logger/Writer.h Pages: 1 -->
<svg width="2834pt" height="247pt"
 viewBox="0.00 0.00 2833.50 247.00" xmlns="http://www.w3.org/2000/svg" xmlns:xlink="http://www.w3.org/1999/xlink">
<g id="graph0" class="graph" transform="scale(1 1) rotate(0) translate(4 243)">
<title>features/communication/udp/frames_logger/Writer.h</title>
<!-- Node1 -->
<g id="Node000001" class="node">
<title>Node1</title>
<g id="a_Node000001"><a xlink:title=" ">
<polygon fill="#999999" stroke="#666666" points="2027.5,-239 1875.5,-239 1875.5,-209 2027.5,-209 2027.5,-239"/>
<text text-anchor="start" x="1883.5" y="-227" font-family="Helvetica,sans-Serif" font-size="10.00">features/communication</text>
<text text-anchor="middle" x="1951.5" y="-216" font-family="Helvetica,sans-Serif" font-size="10.00">/udp/frames_logger/Writer.h</text>
</a>
</g>
</g>
<!-- Node2 -->
<g id="Node000002" class="node">
<title>Node2</title>
<g id="a_Node000002"><a xlink:href="UdpLogger_8h.html" target="_top" xlink:title=" ">
<polygon fill="white" stroke="#666666" points="2039,-173 1864,-173 1864,-143 2039,-143 2039,-173"/>
<text text-anchor="start" x="1872" y="-161" font-family="Helvetica,sans-Serif" font-size="10.00">features/communication</text>
<text text-anchor="middle" x="1951.5" y="-150" font-family="Helvetica,sans-Serif" font-size="10.00">/udp/frames_logger/UdpLogger.h</text>
</a>
</g>
</g>
<!-- Node1&#45;&gt;Node2 -->
<g id="edge1_Node000001_Node000002" class="edge">
<title>Node1&#45;&gt;Node2</title>
<g id="a_edge1_Node000001_Node000002"><a xlink:title=" ">
<path fill="none" stroke="#63b8ff" d="M1951.5,-198.54C1951.5,-189.96 1951.5,-180.61 1951.5,-173.16"/>
<polygon fill="#63b8ff" stroke="#63b8ff" points="1948,-198.8 1951.5,-208.8 1955,-198.8 1948,-198.8"/>
</a>
</g>
</g>
<!-- Node3 -->
<g id="Node000003" class="node">
<title>Node3</title>
<g id="a_Node000003"><a xlink:href="UdpChannel_8h.html" target="_top" xlink:title="UDP Communicaton channel between the microcontroler and the HMI.">
<polygon fill="white" stroke="#666666" points="1459.5,-107 1323.5,-107 1323.5,-77 1459.5,-77 1459.5,-107"/>
<text text-anchor="start" x="1331.5" y="-95" font-family="Helvetica,sans-Serif" font-size="10.00">features/communication</text>
<text text-anchor="middle" x="1391.5" y="-84" font-family="Helvetica,sans-Serif" font-size="10.00">/udp/UdpChannel.h</text>
</a>
</g>
</g>
<!-- Node2&#45;&gt;Node3 -->
<g id="edge2_Node000002_Node000003" class="edge">
<title>Node2&#45;&gt;Node3</title>
<g id="a_edge2_Node000002_Node000003"><a xlink:title=" ">
<path fill="none" stroke="#63b8ff" d="M1853.67,-145.82C1740.86,-132.93 1558.33,-112.07 1459.81,-100.81"/>
<polygon fill="#63b8ff" stroke="#63b8ff" points="1853.36,-149.31 1863.69,-146.96 1854.15,-142.35 1853.36,-149.31"/>
</a>
</g>
</g>
<!-- Node19 -->
<g id="Node000019" class="node">
<title>Node19</title>
<g id="a_Node000019"><a xlink:href="UdpWorker_8h.html" target="_top" xlink:title=" ">
<polygon fill="white" stroke="#666666" points="2671.5,-107 2535.5,-107 2535.5,-77 2671.5,-77 2671.5,-107"/>
<text text-anchor="start" x="2543.5" y="-95" font-family="Helvetica,sans-Serif" font-size="10.00">features/communication</text>
<text text-anchor="middle" x="2603.5" y="-84" font-family="Helvetica,sans-Serif" font-size="10.00">/udp/UdpWorker.h</text>
</a>
</g>
</g>
<!-- Node2&#45;&gt;Node19 -->
<g id="edge18_Node000002_Node000019" class="edge">
<title>Node2&#45;&gt;Node19</title>
<g id="a_edge18_Node000002_Node000019"><a xlink:title=" ">
<path fill="none" stroke="#63b8ff" d="M2049.32,-147.4C2182.93,-134.28 2419.12,-111.1 2535.21,-99.7"/>
<polygon fill="#63b8ff" stroke="#63b8ff" points="2048.7,-143.94 2039.09,-148.4 2049.39,-150.91 2048.7,-143.94"/>
</a>
</g>
</g>
<!-- Node4 -->
<g id="Node000004" class="node">
<title>Node4</title>
<g id="a_Node000004"><a xlink:href="main_8cpp.html" target="_top" xlink:title=" ">
<polygon fill="white" stroke="#666666" points="83,-30 0,-30 0,-11 83,-11 83,-30"/>
<text text-anchor="middle" x="41.5" y="-18" font-family="Helvetica,sans-Serif" font-size="10.00">app/main.cpp</text>
</a>
</g>
</g>
<!-- Node3&#45;&gt;Node4 -->
<g id="edge3_Node000003_Node000004" class="edge">
<title>Node3&#45;&gt;Node4</title>
<g id="a_edge3_Node000003_Node000004"><a xlink:title=" ">
<path fill="none" stroke="#63b8ff" d="M1313.1,-91.39C1069.3,-92.07 326.8,-89.96 91.5,-41 80.37,-38.68 68.49,-34.15 59.11,-30.03"/>
<polygon fill="#63b8ff" stroke="#63b8ff" points="1313.3,-94.89 1323.29,-91.36 1313.28,-87.89 1313.3,-94.89"/>
</a>
</g>
</g>
<!-- Node5 -->
<g id="Node000005" class="node">
<title>Node5</title>
<g id="a_Node000005"><a xlink:href="UdpChannel_8cpp.html" target="_top" xlink:title=" ">
<polygon fill="white" stroke="#666666" points="2671.5,-35.5 2535.5,-35.5 2535.5,-5.5 2671.5,-5.5 2671.5,-35.5"/>
<text text-anchor="start" x="2543.5" y="-23.5" font-family="Helvetica,sans-Serif" font-size="10.00">features/communication</text>
<text text-anchor="middle" x="2603.5" y="-12.5" font-family="Helvetica,sans-Serif" font-size="10.00">/udp/UdpChannel.cpp</text>
</a>
</g>
</g>
<!-- Node3&#45;&gt;Node5 -->
<g id="edge4_Node000003_Node000005" class="edge">
<title>Node3&#45;&gt;Node5</title>
<g id="a_edge4_Node000003_Node000005"><a xlink:title=" ">
<path fill="none" stroke="#63b8ff" d="M1469.85,-89.63C1691.82,-85.41 2322.04,-71.07 2526.5,-41 2535.5,-39.68 2544.98,-37.74 2554.1,-35.59"/>
<polygon fill="#63b8ff" stroke="#63b8ff" points="1469.52,-86.13 1459.59,-89.82 1469.66,-93.13 1469.52,-86.13"/>
</a>
</g>
</g>
<!-- Node6 -->
<g id="Node000006" class="node">
<title>Node6</title>
<g id="a_Node000006"><a xlink:href="UdpChannelParametersViewModel_8cpp.html" target="_top" xlink:title=" ">
<polygon fill="white" stroke="#666666" points="268,-41 101,-41 101,0 268,0 268,-41"/>
<text text-anchor="start" x="109" y="-29" font-family="Helvetica,sans-Serif" font-size="10.00">features/communication</text>
<text text-anchor="start" x="109" y="-18" font-family="Helvetica,sans-Serif" font-size="10.00">/udp/ui/UdpChannelParameters</text>
<text text-anchor="middle" x="184.5" y="-7" font-family="Helvetica,sans-Serif" font-size="10.00">ViewModel.cpp</text>
</a>
</g>
</g>
<!-- Node3&#45;&gt;Node6 -->
<g id="edge5_Node000003_Node000006" class="edge">
<title>Node3&#45;&gt;Node6</title>
<g id="a_edge5_Node000003_Node000006"><a xlink:title=" ">
<path fill="none" stroke="#63b8ff" d="M1313.33,-91.82C1131.04,-92.8 663.93,-89.86 277.5,-41 274.39,-40.61 271.23,-40.16 268.04,-39.68"/>
<polygon fill="#63b8ff" stroke="#63b8ff" points="1313.38,-95.32 1323.36,-91.76 1313.34,-88.32 1313.38,-95.32"/>
</a>
</g>
</g>
<!-- Node7 -->
<g id="Node000007" class="node">
<title>Node7</title>
<g id="a_Node000007"><a xlink:href="CsvExporter_8cpp.html" target="_top" xlink:title=" ">
<polygon fill="white" stroke="#666666" points="404.5,-35.5 286.5,-35.5 286.5,-5.5 404.5,-5.5 404.5,-35.5"/>
<text text-anchor="start" x="294.5" y="-23.5" font-family="Helvetica,sans-Serif" font-size="10.00">features/file_export</text>
<text text-anchor="middle" x="345.5" y="-12.5" font-family="Helvetica,sans-Serif" font-size="10.00">/csv/CsvExporter.cpp</text>
</a>
</g>
</g>
<!-- Node3&#45;&gt;Node7 -->
<g id="edge6_Node000003_Node000007" class="edge">
<title>Node3&#45;&gt;Node7</title>
<g id="a_edge6_Node000003_Node000007"><a xlink:title=" ">
<path fill="none" stroke="#63b8ff" d="M1313.33,-89.3C1113.21,-84.59 586.06,-69.76 413.5,-41 405.5,-39.67 397.11,-37.73 389.06,-35.58"/>
<polygon fill="#63b8ff" stroke="#63b8ff" points="1313.38,-92.81 1323.46,-89.54 1313.55,-85.81 1313.38,-92.81"/>
</a>
</g>
</g>
<!-- Node8 -->
<g id="Node000008" class="node">
<title>Node8</title>
<g id="a_Node000008"><a xlink:href="ActuatorSwitchViewModel_8cpp.html" target="_top" xlink:title=" ">
<polygon fill="white" stroke="#666666" points="590,-35.5 423,-35.5 423,-5.5 590,-5.5 590,-35.5"/>
<text text-anchor="start" x="431" y="-23.5" font-family="Helvetica,sans-Serif" font-size="10.00">features/pid/actuator</text>
<text text-anchor="middle" x="506.5" y="-12.5" font-family="Helvetica,sans-Serif" font-size="10.00">/ActuatorSwitchViewModel.cpp</text>
</a>
</g>
</g>
<!-- Node3&#45;&gt;Node8 -->
<g id="edge7_Node000003_Node000008" class="edge">
<title>Node3&#45;&gt;Node8</title>
<g id="a_edge7_Node000003_Node000008"><a xlink:title=" ">
<path fill="none" stroke="#63b8ff" d="M1312.87,-89.84C1170,-86.88 858.51,-76.56 598.5,-41 588.15,-39.58 577.22,-37.66 566.65,-35.56"/>
<polygon fill="#63b8ff" stroke="#63b8ff" points="1313.21,-93.34 1323.28,-90.04 1313.35,-86.35 1313.21,-93.34"/>
</a>
</g>
</g>
<!-- Node9 -->
<g id="Node000009" class="node">
<title>Node9</title>
<g id="a_Node000009"><a xlink:href="InitialiseValveButtonViewModel_8cpp.html" target="_top" xlink:title=" ">
<polygon fill="white" stroke="#666666" points="785,-41 608,-41 608,0 785,0 785,-41"/>
<text text-anchor="start" x="616" y="-29" font-family="Helvetica,sans-Serif" font-size="10.00">features/pid/misc/initialise</text>
<text text-anchor="start" x="616" y="-18" font-family="Helvetica,sans-Serif" font-size="10.00">_valve/InitialiseValveButtonView</text>
<text text-anchor="middle" x="696.5" y="-7" font-family="Helvetica,sans-Serif" font-size="10.00">Model.cpp</text>
</a>
</g>
</g>
<!-- Node3&#45;&gt;Node9 -->
<g id="edge8_Node000003_Node000009" class="edge">
<title>Node3&#45;&gt;Node9</title>
<g id="a_edge8_Node000003_Node000009"><a xlink:title=" ">
<path fill="none" stroke="#63b8ff" d="M1313.11,-87.26C1198.69,-81.16 979.45,-67.06 794.5,-41 791.41,-40.56 788.27,-40.09 785.1,-39.59"/>
<polygon fill="#63b8ff" stroke="#63b8ff" points="1313.01,-90.76 1323.18,-87.79 1313.37,-83.77 1313.01,-90.76"/>
</a>
</g>
</g>
<!-- Node10 -->
<g id="Node000010" class="node">
<title>Node10</title>
<g id="a_Node000010"><a xlink:href="TestBenchModel_8cpp.html" target="_top" xlink:title=" ">
<polygon fill="white" stroke="#666666" points="985.5,-30 803.5,-30 803.5,-11 985.5,-11 985.5,-30"/>
<text text-anchor="middle" x="894.5" y="-18" font-family="Helvetica,sans-Serif" font-size="10.00">features/test/TestBenchModel.cpp</text>
</a>
</g>
</g>
<!-- Node3&#45;&gt;Node10 -->
<g id="edge9_Node000003_Node000010" class="edge">
<title>Node3&#45;&gt;Node10</title>
<g id="a_edge9_Node000003_Node000010"><a xlink:title=" ">
<path fill="none" stroke="#63b8ff" d="M1313.13,-82.71C1232.89,-73.84 1104.68,-58.66 994.5,-41 974.94,-37.86 953.35,-33.74 935.26,-30.09"/>
<polygon fill="#63b8ff" stroke="#63b8ff" points="1312.84,-86.19 1323.16,-83.81 1313.6,-79.24 1312.84,-86.19"/>
</a>
</g>
</g>
<!-- Node11 -->
<g id="Node000011" class="node">
<title>Node11</title>
<g id="a_Node000011"><a xlink:href="CountDownClockViewModel_8cpp.html" target="_top" xlink:title=" ">
<polygon fill="white" stroke="#666666" points="1193.5,-41 1003.5,-41 1003.5,0 1193.5,0 1193.5,-41"/>
<text text-anchor="start" x="1011.5" y="-29" font-family="Helvetica,sans-Serif" font-size="10.00">features/test/frames</text>
<text text-anchor="start" x="1011.5" y="-18" font-family="Helvetica,sans-Serif" font-size="10.00">/countdown_clock/CountDownClock</text>
<text text-anchor="middle" x="1098.5" y="-7" font-family="Helvetica,sans-Serif" font-size="10.00">ViewModel.cpp</text>
</a>
</g>
</g>
<!-- Node3&#45;&gt;Node11 -->
<g id="edge10_Node000003_Node000011" class="edge">
<title>Node3&#45;&gt;Node11</title>
<g id="a_edge10_Node000003_Node000011"><a xlink:title=" ">
<path fill="none" stroke="#63b8ff" d="M1322.25,-74.57C1279.84,-64.52 1225.34,-51.59 1180.74,-41.01"/>
<polygon fill="#63b8ff" stroke="#63b8ff" points="1321.67,-78.03 1332.21,-76.94 1323.28,-71.22 1321.67,-78.03"/>
</a>
</g>
</g>
<!-- Node12 -->
<g id="Node000012" class="node">
<title>Node12</title>
<g id="a_Node000012"><a xlink:href="EmergencyControlsViewModel_8cpp.html" target="_top" xlink:title=" ">
<polygon fill="white" stroke="#666666" points="1387.5,-41 1211.5,-41 1211.5,0 1387.5,0 1387.5,-41"/>
<text text-anchor="start" x="1219.5" y="-29" font-family="Helvetica,sans-Serif" font-size="10.00">features/test/frames</text>
<text text-anchor="start" x="1219.5" y="-18" font-family="Helvetica,sans-Serif" font-size="10.00">/emergency_controls/Emergency</text>
<text text-anchor="middle" x="1299.5" y="-7" font-family="Helvetica,sans-Serif" font-size="10.00">ControlsViewModel.cpp</text>
</a>
</g>
</g>
<!-- Node3&#45;&gt;Node12 -->
<g id="edge11_Node000003_Node000012" class="edge">
<title>Node3&#45;&gt;Node12</title>
<g id="a_edge11_Node000003_Node000012"><a xlink:title=" ">
<path fill="none" stroke="#63b8ff" d="M1364.73,-70.77C1352.34,-61.42 1337.69,-50.35 1325.41,-41.07"/>
<polygon fill="#63b8ff" stroke="#63b8ff" points="1362.79,-73.7 1372.88,-76.94 1367.01,-68.12 1362.79,-73.7"/>
</a>
</g>
</g>
<!-- Node13 -->
<g id="Node000013" class="node">
<title>Node13</title>
<g id="a_Node000013"><a xlink:href="TankPressureControlerViewModel_8cpp.html" target="_top" xlink:title=" ">
<polygon fill="white" stroke="#666666" points="1561.5,-41 1405.5,-41 1405.5,0 1561.5,0 1561.5,-41"/>
<text text-anchor="start" x="1413.5" y="-29" font-family="Helvetica,sans-Serif" font-size="10.00">features/test/frames</text>
<text text-anchor="start" x="1413.5" y="-18" font-family="Helvetica,sans-Serif" font-size="10.00">/tank_pressure/TankPressure</text>
<text text-anchor="middle" x="1483.5" y="-7" font-family="Helvetica,sans-Serif" font-size="10.00">ControlerViewModel.cpp</text>
</a>
</g>
</g>
<!-- Node3&#45;&gt;Node13 -->
<g id="edge12_Node000003_Node000013" class="edge">
<title>Node3&#45;&gt;Node13</title>
<g id="a_edge12_Node000003_Node000013"><a xlink:title=" ">
<path fill="none" stroke="#63b8ff" d="M1418.27,-70.77C1430.66,-61.42 1445.31,-50.35 1457.59,-41.07"/>
<polygon fill="#63b8ff" stroke="#63b8ff" points="1415.99,-68.12 1410.12,-76.94 1420.21,-73.7 1415.99,-68.12"/>
</a>
</g>
</g>
<!-- Node14 -->
<g id="Node000014" class="node">
<title>Node14</title>
<g id="a_Node000014"><a xlink:href="LogTerminalViewModel_8cpp.html" target="_top" xlink:title=" ">
<polygon fill="white" stroke="#666666" points="1777,-35.5 1580,-35.5 1580,-5.5 1777,-5.5 1777,-35.5"/>
<text text-anchor="start" x="1588" y="-23.5" font-family="Helvetica,sans-Serif" font-size="10.00">features/test/frames</text>
<text text-anchor="middle" x="1678.5" y="-12.5" font-family="Helvetica,sans-Serif" font-size="10.00">/terminal/LogTerminalViewModel.cpp</text>
</a>
</g>
</g>
<!-- Node3&#45;&gt;Node14 -->
<g id="edge13_Node000003_Node000014" class="edge">
<title>Node3&#45;&gt;Node14</title>
<g id="a_edge13_Node000003_Node000014"><a xlink:title=" ">
<path fill="none" stroke="#63b8ff" d="M1459.46,-74.54C1508.48,-62.67 1573.95,-46.82 1620.51,-35.54"/>
<polygon fill="#63b8ff" stroke="#63b8ff" points="1458.47,-71.18 1449.58,-76.94 1460.12,-77.98 1458.47,-71.18"/>
</a>
</g>
</g>
<!-- Node15 -->
<g id="Node000015" class="node">
<title>Node15</title>
<g id="a_Node000015"><a xlink:href="TestLauncherViewModel_8cpp.html" target="_top" xlink:title=" ">
<polygon fill="white" stroke="#666666" points="1947.5,-41 1795.5,-41 1795.5,0 1947.5,0 1947.5,-41"/>
<text text-anchor="start" x="1803.5" y="-29" font-family="Helvetica,sans-Serif" font-size="10.00">features/test/frames</text>
<text text-anchor="start" x="1803.5" y="-18" font-family="Helvetica,sans-Serif" font-size="10.00">/test_launcher/TestLauncher</text>
<text text-anchor="middle" x="1871.5" y="-7" font-family="Helvetica,sans-Serif" font-size="10.00">ViewModel.cpp</text>
</a>
</g>
</g>
<!-- Node3&#45;&gt;Node15 -->
<g id="edge14_Node000003_Node000015" class="edge">
<title>Node3&#45;&gt;Node15</title>
<g id="a_edge14_Node000003_Node000015"><a xlink:title=" ">
<path fill="none" stroke="#63b8ff" d="M1469.75,-83.33C1549.49,-74.98 1676.59,-60.21 1785.5,-41 1788.67,-40.44 1791.89,-39.84 1795.15,-39.22"/>
<polygon fill="#63b8ff" stroke="#63b8ff" points="1469.36,-79.85 1459.78,-84.36 1470.09,-86.81 1469.36,-79.85"/>
</a>
</g>
</g>
<!-- Node16 -->
<g id="Node000016" class="node">
<title>Node16</title>
<g id="a_Node000016"><a xlink:href="AppModels_8cpp.html" target="_top" xlink:title=" ">
<polygon fill="white" stroke="#666666" points="2129.5,-30 1965.5,-30 1965.5,-11 2129.5,-11 2129.5,-30"/>
<text text-anchor="middle" x="2047.5" y="-18" font-family="Helvetica,sans-Serif" font-size="10.00">mvvm/models/AppModels.cpp</text>
</a>
</g>
</g>
<!-- Node3&#45;&gt;Node16 -->
<g id="edge15_Node000003_Node000016" class="edge">
<title>Node3&#45;&gt;Node16</title>
<g id="a_edge15_Node000003_Node000016"><a xlink:title=" ">
<path fill="none" stroke="#63b8ff" d="M1469.95,-87.11C1579.39,-80.99 1783.88,-67.03 1956.5,-41 1975.19,-38.18 1995.81,-33.87 2012.68,-30.01"/>
<polygon fill="#63b8ff" stroke="#63b8ff" points="1469.45,-83.63 1459.66,-87.68 1469.84,-90.62 1469.45,-83.63"/>
</a>
</g>
</g>
<!-- Node17 -->
<g id="Node000017" class="node">
<title>Node17</title>
<g id="a_Node000017"><a xlink:href="AppViewModels_8cpp.html" target="_top" xlink:title=" ">
<polygon fill="white" stroke="#666666" points="2359.5,-30 2147.5,-30 2147.5,-11 2359.5,-11 2359.5,-30"/>
<text text-anchor="middle" x="2253.5" y="-18" font-family="Helvetica,sans-Serif" font-size="10.00">mvvm/viewmodels/AppViewModels.cpp</text>
</a>
</g>
</g>
<!-- Node3&#45;&gt;Node17 -->
<g id="edge16_Node000003_Node000017" class="edge">
<title>Node3&#45;&gt;Node17</title>
<g id="a_edge16_Node000003_Node000017"><a xlink:title=" ">
<path fill="none" stroke="#63b8ff" d="M1470.03,-88.36C1606.41,-83.19 1895.7,-69.64 2138.5,-41 2162.03,-38.22 2188.07,-33.91 2209.42,-30.05"/>
<polygon fill="#63b8ff" stroke="#63b8ff" points="1469.55,-84.87 1459.69,-88.74 1469.81,-91.87 1469.55,-84.87"/>
</a>
</g>
</g>
<!-- Node18 -->
<g id="Node000018" class="node">
<title>Node18</title>
<g id="a_Node000018"><a xlink:href="AppServices_8cpp.html" target="_top" xlink:title=" ">
<polygon fill="white" stroke="#666666" points="2517.5,-30 2377.5,-30 2377.5,-11 2517.5,-11 2517.5,-30"/>
<text text-anchor="middle" x="2447.5" y="-18" font-family="Helvetica,sans-Serif" font-size="10.00">services/AppServices.cpp</text>
</a>
</g>
</g>
<!-- Node3&#45;&gt;Node18 -->
<g id="edge17_Node000003_Node000018" class="edge">
<title>Node3&#45;&gt;Node18</title>
<g id="a_edge17_Node000003_Node000018"><a xlink:title=" ">
<path fill="none" stroke="#63b8ff" d="M1469.89,-88.92C1669.94,-83.3 2195.71,-66.51 2368.5,-41 2385.27,-38.52 2403.68,-34.08 2418.5,-30.07"/>
<polygon fill="#63b8ff" stroke="#63b8ff" points="1469.66,-85.43 1459.76,-89.2 1469.85,-92.42 1469.66,-85.43"/>
</a>
</g>
</g>
<!-- Node19&#45;&gt;Node5 -->
<g id="edge19_Node000019_Node000005" class="edge">
<title>Node19&#45;&gt;Node5</title>
<g id="a_edge19_Node000019_Node000005"><a xlink:title=" ">
<path fill="none" stroke="#63b8ff" d="M2603.5,-66.75C2603.5,-56.31 2603.5,-44.49 2603.5,-35.54"/>
<polygon fill="#63b8ff" stroke="#63b8ff" points="2600,-66.94 2603.5,-76.94 2607,-66.94 2600,-66.94"/>
</a>
</g>
</g>
<!-- Node20 -->
<g id="Node000020" class="node">
<title>Node20</title>
<g id="a_Node000020"><a xlink:href="UdpWorker_8cpp.html" target="_top" xlink:title=" ">
<polygon fill="white" stroke="#666666" points="2825.5,-35.5 2689.5,-35.5 2689.5,-5.5 2825.5,-5.5 2825.5,-35.5"/>
<text text-anchor="start" x="2697.5" y="-23.5" font-family="Helvetica,sans-Serif" font-size="10.00">features/communication</text>
<text text-anchor="middle" x="2757.5" y="-12.5" font-family="Helvetica,sans-Serif" font-size="10.00">/udp/UdpWorker.cpp</text>
</a>
</g>
</g>
<!-- Node19&#45;&gt;Node20 -->
<g id="edge20_Node000019_Node000020" class="edge">
<title>Node19&#45;&gt;Node20</title>
<g id="a_edge20_Node000019_Node000020"><a xlink:title=" ">
<path fill="none" stroke="#63b8ff" d="M2643.82,-72.81C2669.62,-61.16 2702.6,-46.28 2726.38,-35.54"/>
<polygon fill="#63b8ff" stroke="#63b8ff" points="2642.34,-69.63 2634.66,-76.94 2645.22,-76.01 2642.34,-69.63"/>
</a>
</g>
</g>
</g>
</svg>
