<?xml version="1.0" encoding="UTF-8" standalone="no"?>
<!DOCTYPE svg PUBLIC "-//W3C//DTD SVG 1.1//EN"
 "http://www.w3.org/Graphics/SVG/1.1/DTD/svg11.dtd">
<!-- Generated by graphviz version 2.43.0 (0)
 -->
<!-- Title: features/communication/udp/frames_logger/Writer.h Pages: 1 -->
<!--zoomable 247 -->

<svg id="main" version="1.1" xmlns="http://www.w3.org/2000/svg" xmlns:xlink="http://www.w3.org/1999/xlink" xml:space="preserve" onload="init(evt)">
<style type="text/css"><![CDATA[
.node, .edge {opacity: 0.7;}
.node.selected, .edge.selected {opacity: 1;}
.edge:hover path { stroke: red; }
.edge:hover polygon { stroke: red; fill: red; }
]]></style>

<defs>
  <circle id="rim" cx="0" cy="0" r="7"/>
  <circle id="rim2" cx="0" cy="0" r="3.5"/>
  <g id="zoomPlus">
    <use xlink:href="#rim" fill="#404040"><set attributeName="fill" to="#808080" begin="zoomplus.mouseover" end="zoomplus.mouseout"/></use>
    <path d="M-4,0h8M0,-4v8" fill="none" stroke="white" stroke-width="1.5" pointer-events="none"/>
  </g>
  <g id="zoomMin">
    <use xlink:href="#rim" fill="#404040"><set attributeName="fill" to="#808080" begin="zoomminus.mouseover" end="zoomminus.mouseout"/></use>
    <path d="M-4,0h8" fill="none" stroke="white" stroke-width="1.5" pointer-events="none"/>
  </g>
  <g id="arrowUp" transform="translate(30 24)">
    <use xlink:href="#rim"/>
    <path pointer-events="none" fill="none" stroke="white" stroke-width="1.5" d="M0,-3.0v7 M-2.5,-0.5L0,-3.0L2.5,-0.5"/>
  </g>
  <g id="arrowRight" transform="rotate(90) translate(36 -43)">
    <use xlink:href="#rim"/>
    <path pointer-events="none" fill="none" stroke="white" stroke-width="1.5" d="M0,-3.0v7 M-2.5,-0.5L0,-3.0L2.5,-0.5"/>
  </g>
  <g id="arrowDown" transform="rotate(180) translate(-30 -48)">
    <use xlink:href="#rim"/>
    <path pointer-events="none" fill="none" stroke="white" stroke-width="1.5" d="M0,-3.0v7 M-2.5,-0.5L0,-3.0L2.5,-0.5"/>
  </g>
  <g id="arrowLeft" transform="rotate(270) translate(-36 17)">
    <use xlink:href="#rim"/>
    <path pointer-events="none" fill="none" stroke="white" stroke-width="1.5" d="M0,-3.0v7 M-2.5,-0.5L0,-3.0L2.5,-0.5"/>
  </g>
  <g id="resetDef">
    <use xlink:href="#rim2" fill="#404040"><set attributeName="fill" to="#808080" begin="reset.mouseover" end="reset.mouseout"/></use>
  </g>
</defs>
<script type="application/ecmascript">
var viewWidth = 2834;
var viewHeight = 247;
var sectionId = 'dynsection-1';
</script>
<script type="application/ecmascript" xlink:href="svg.min.js"/>
<svg id="graph" class="graph">
<g id="viewport">
<title>features/communication/udp/frames_logger/Writer.h</title>
<!-- Node1 -->
<g id="Node000001" class="node">
<title>Node1</title>
<g id="a_Node000001"><a xlink:title=" ">
<polygon fill="#999999" stroke="#666666" points="1377.5,-239 1225.5,-239 1225.5,-209 1377.5,-209 1377.5,-239"/>
<text text-anchor="start" x="1233.5" y="-227" font-family="Helvetica,sans-Serif" font-size="10.00">features/communication</text>
<text text-anchor="middle" x="1301.5" y="-216" font-family="Helvetica,sans-Serif" font-size="10.00">/udp/frames_logger/Writer.h</text>
</a>
</g>
</g>
<!-- Node2 -->
<g id="Node000002" class="node">
<title>Node2</title>
<g id="a_Node000002"><a xlink:href="UdpLogger_8cpp.html" target="_top" xlink:title=" ">
<polygon fill="white" stroke="#666666" points="1305.5,-107 1119.5,-107 1119.5,-77 1305.5,-77 1305.5,-107"/>
<text text-anchor="start" x="1127.5" y="-95" font-family="Helvetica,sans-Serif" font-size="10.00">features/communication</text>
<text text-anchor="middle" x="1212.5" y="-84" font-family="Helvetica,sans-Serif" font-size="10.00">/udp/frames_logger/UdpLogger.cpp</text>
</a>
</g>
</g>
<!-- Node1&#45;&gt;Node2 -->
<g id="edge1_Node000001_Node000002" class="edge">
<title>Node1&#45;&gt;Node2</title>
<g id="a_edge1_Node000001_Node000002"><a xlink:title=" ">
<path fill="none" stroke="#63b8ff" d="M1286.06,-200.45C1267.69,-173.61 1237.56,-129.6 1222.18,-107.14"/>
<polygon fill="#63b8ff" stroke="#63b8ff" points="1283.27,-202.57 1291.81,-208.84 1289.04,-198.61 1283.27,-202.57"/>
</a>
</g>
</g>
<!-- Node3 -->
<g id="Node000003" class="node">
<title>Node3</title>
<g id="a_Node000003"><a xlink:href="UdpLogger_8h.html" target="_top" xlink:title="High&#45;frequency binary logger for UDP telemetry frames.">
<polygon fill="white" stroke="#666666" points="1463,-173 1288,-173 1288,-143 1463,-143 1463,-173"/>
<text text-anchor="start" x="1296" y="-161" font-family="Helvetica,sans-Serif" font-size="10.00">features/communication</text>
<text text-anchor="middle" x="1375.5" y="-150" font-family="Helvetica,sans-Serif" font-size="10.00">/udp/frames_logger/UdpLogger.h</text>
</a>
</g>
</g>
<!-- Node1&#45;&gt;Node3 -->
<g id="edge2_Node000001_Node000003" class="edge">
<title>Node1&#45;&gt;Node3</title>
<g id="a_edge2_Node000001_Node000003"><a xlink:title=" ">
<path fill="none" stroke="#63b8ff" d="M1325.55,-202.2C1336.53,-192.7 1349.26,-181.69 1359.12,-173.16"/>
<polygon fill="#63b8ff" stroke="#63b8ff" points="1323.2,-199.61 1317.92,-208.8 1327.78,-204.9 1323.2,-199.61"/>
</a>
</g>
</g>
<!-- Node3&#45;&gt;Node2 -->
<g id="edge22_Node000003_Node000002" class="edge">
<title>Node3&#45;&gt;Node2</title>
<g id="a_edge22_Node000003_Node000002"><a xlink:title=" ">
<path fill="none" stroke="#63b8ff" d="M1330.14,-139.19C1304.25,-129.02 1272.27,-116.47 1248.19,-107.01"/>
<polygon fill="#63b8ff" stroke="#63b8ff" points="1329.14,-142.56 1339.73,-142.95 1331.7,-136.04 1329.14,-142.56"/>
</a>
</g>
</g>
<!-- Node4 -->
<g id="Node000004" class="node">
<title>Node4</title>
<g id="a_Node000004"><a xlink:href="UdpChannel_8h.html" target="_top" xlink:title="UDP communication channel between the microcontroller and the HMI.">
<polygon fill="white" stroke="#666666" points="1459.5,-107 1323.5,-107 1323.5,-77 1459.5,-77 1459.5,-107"/>
<text text-anchor="start" x="1331.5" y="-95" font-family="Helvetica,sans-Serif" font-size="10.00">features/communication</text>
<text text-anchor="middle" x="1391.5" y="-84" font-family="Helvetica,sans-Serif" font-size="10.00">/udp/UdpChannel.h</text>
</a>
</g>
</g>
<!-- Node3&#45;&gt;Node4 -->
<g id="edge3_Node000003_Node000004" class="edge">
<title>Node3&#45;&gt;Node4</title>
<g id="a_edge3_Node000003_Node000004"><a xlink:title=" ">
<path fill="none" stroke="#63b8ff" d="M1381.54,-132.83C1383.71,-124.17 1386.08,-114.7 1387.96,-107.16"/>
<polygon fill="#63b8ff" stroke="#63b8ff" points="1378.08,-132.25 1379.05,-142.8 1384.87,-133.94 1378.08,-132.25"/>
</a>
</g>
</g>
<!-- Node20 -->
<g id="Node000020" class="node">
<title>Node20</title>
<g id="a_Node000020"><a xlink:href="UdpWorker_8h.html" target="_top" xlink:title="UDP socket worker running on a dedicated thread.">
<polygon fill="white" stroke="#666666" points="2671.5,-107 2535.5,-107 2535.5,-77 2671.5,-77 2671.5,-107"/>
<text text-anchor="start" x="2543.5" y="-95" font-family="Helvetica,sans-Serif" font-size="10.00">features/communication</text>
<text text-anchor="middle" x="2603.5" y="-84" font-family="Helvetica,sans-Serif" font-size="10.00">/udp/UdpWorker.h</text>
</a>
</g>
</g>
<!-- Node3&#45;&gt;Node20 -->
<g id="edge19_Node000003_Node000020" class="edge">
<title>Node3&#45;&gt;Node20</title>
<g id="a_edge19_Node000003_Node000020"><a xlink:title=" ">
<path fill="none" stroke="#63b8ff" d="M1473.46,-151.89C1714.12,-139.35 2329.69,-107.27 2535.4,-96.55"/>
<polygon fill="#63b8ff" stroke="#63b8ff" points="1473.13,-148.41 1463.32,-152.42 1473.49,-155.4 1473.13,-148.41"/>
</a>
</g>
</g>
<!-- Node5 -->
<g id="Node000005" class="node">
<title>Node5</title>
<g id="a_Node000005"><a xlink:href="main_8cpp.html" target="_top" xlink:title=" ">
<polygon fill="white" stroke="#666666" points="83,-30 0,-30 0,-11 83,-11 83,-30"/>
<text text-anchor="middle" x="41.5" y="-18" font-family="Helvetica,sans-Serif" font-size="10.00">app/main.cpp</text>
</a>
</g>
</g>
<!-- Node4&#45;&gt;Node5 -->
<g id="edge4_Node000004_Node000005" class="edge">
<title>Node4&#45;&gt;Node5</title>
<g id="a_edge4_Node000004_Node000005"><a xlink:title=" ">
<path fill="none" stroke="#63b8ff" d="M1313.17,-77.02C1028.07,-49.68 354.82,-94.55 91.5,-41 80.36,-38.73 68.48,-34.2 59.1,-30.07"/>
<polygon fill="#63b8ff" stroke="#63b8ff" points="1312.84,-80.5 1323.14,-78.02 1313.54,-73.54 1312.84,-80.5"/>
</a>
</g>
</g>
<!-- Node6 -->
<g id="Node000006" class="node">
<title>Node6</title>
<g id="a_Node000006"><a xlink:href="UdpChannel_8cpp.html" target="_top" xlink:title=" ">
<polygon fill="white" stroke="#666666" points="2671.5,-35.5 2535.5,-35.5 2535.5,-5.5 2671.5,-5.5 2671.5,-35.5"/>
<text text-anchor="start" x="2543.5" y="-23.5" font-family="Helvetica,sans-Serif" font-size="10.00">features/communication</text>
<text text-anchor="middle" x="2603.5" y="-12.5" font-family="Helvetica,sans-Serif" font-size="10.00">/udp/UdpChannel.cpp</text>
</a>
</g>
</g>
<!-- Node4&#45;&gt;Node6 -->
<g id="edge5_Node000004_Node000006" class="edge">
<title>Node4&#45;&gt;Node6</title>
<g id="a_edge5_Node000004_Node000006"><a xlink:title=" ">
<path fill="none" stroke="#63b8ff" d="M1469.85,-89.63C1691.82,-85.41 2322.04,-71.07 2526.5,-41 2535.5,-39.68 2544.98,-37.74 2554.1,-35.59"/>
<polygon fill="#63b8ff" stroke="#63b8ff" points="1469.52,-86.13 1459.59,-89.82 1469.66,-93.13 1469.52,-86.13"/>
</a>
</g>
</g>
<!-- Node7 -->
<g id="Node000007" class="node">
<title>Node7</title>
<g id="a_Node000007"><a xlink:href="UdpChannelParametersViewModel_8cpp.html" target="_top" xlink:title=" ">
<polygon fill="white" stroke="#666666" points="268,-41 101,-41 101,0 268,0 268,-41"/>
<text text-anchor="start" x="109" y="-29" font-family="Helvetica,sans-Serif" font-size="10.00">features/communication</text>
<text text-anchor="start" x="109" y="-18" font-family="Helvetica,sans-Serif" font-size="10.00">/udp/ui/UdpChannelParameters</text>
<text text-anchor="middle" x="184.5" y="-7" font-family="Helvetica,sans-Serif" font-size="10.00">ViewModel.cpp</text>
</a>
</g>
</g>
<!-- Node4&#45;&gt;Node7 -->
<g id="edge6_Node000004_Node000007" class="edge">
<title>Node4&#45;&gt;Node7</title>
<g id="a_edge6_Node000004_Node000007"><a xlink:title=" ">
<path fill="none" stroke="#63b8ff" d="M1312.93,-76.95C854.2,-28.62 731.96,-96.12 277.5,-41 274.39,-40.62 271.23,-40.19 268.04,-39.72"/>
<polygon fill="#63b8ff" stroke="#63b8ff" points="1312.83,-80.46 1323.14,-78.04 1313.57,-73.5 1312.83,-80.46"/>
</a>
</g>
</g>
<!-- Node8 -->
<g id="Node000008" class="node">
<title>Node8</title>
<g id="a_Node000008"><a xlink:href="CsvExporter_8cpp.html" target="_top" xlink:title=" ">
<polygon fill="white" stroke="#666666" points="404.5,-35.5 286.5,-35.5 286.5,-5.5 404.5,-5.5 404.5,-35.5"/>
<text text-anchor="start" x="294.5" y="-23.5" font-family="Helvetica,sans-Serif" font-size="10.00">features/file_export</text>
<text text-anchor="middle" x="345.5" y="-12.5" font-family="Helvetica,sans-Serif" font-size="10.00">/csv/CsvExporter.cpp</text>
</a>
</g>
</g>
<!-- Node4&#45;&gt;Node8 -->
<g id="edge7_Node000004_Node000008" class="edge">
<title>Node4&#45;&gt;Node8</title>
<g id="a_edge7_Node000004_Node000008"><a xlink:title=" ">
<path fill="none" stroke="#63b8ff" d="M1313.07,-76.96C914.36,-34.23 805.89,-104.16 413.5,-41 405.38,-39.69 396.85,-37.73 388.68,-35.55"/>
<polygon fill="#63b8ff" stroke="#63b8ff" points="1312.82,-80.46 1323.14,-78.06 1313.58,-73.5 1312.82,-80.46"/>
</a>
</g>
</g>
<!-- Node9 -->
<g id="Node000009" class="node">
<title>Node9</title>
<g id="a_Node000009"><a xlink:href="ActuatorSwitchViewModel_8cpp.html" target="_top" xlink:title=" ">
<polygon fill="white" stroke="#666666" points="590,-35.5 423,-35.5 423,-5.5 590,-5.5 590,-35.5"/>
<text text-anchor="start" x="431" y="-23.5" font-family="Helvetica,sans-Serif" font-size="10.00">features/pid/actuator</text>
<text text-anchor="middle" x="506.5" y="-12.5" font-family="Helvetica,sans-Serif" font-size="10.00">/ActuatorSwitchViewModel.cpp</text>
</a>
</g>
</g>
<!-- Node4&#45;&gt;Node9 -->
<g id="edge8_Node000004_Node000009" class="edge">
<title>Node4&#45;&gt;Node9</title>
<g id="a_edge8_Node000004_Node000009"><a xlink:title=" ">
<path fill="none" stroke="#63b8ff" d="M1312.74,-76.91C996.16,-41.31 911.06,-81.72 598.5,-41 587.98,-39.63 576.87,-37.7 566.14,-35.58"/>
<polygon fill="#63b8ff" stroke="#63b8ff" points="1312.8,-80.44 1323.13,-78.1 1313.6,-73.48 1312.8,-80.44"/>
</a>
</g>
</g>
<!-- Node10 -->
<g id="Node000010" class="node">
<title>Node10</title>
<g id="a_Node000010"><a xlink:href="InitialiseValveButtonViewModel_8cpp.html" target="_top" xlink:title=" ">
<polygon fill="white" stroke="#666666" points="785,-41 608,-41 608,0 785,0 785,-41"/>
<text text-anchor="start" x="616" y="-29" font-family="Helvetica,sans-Serif" font-size="10.00">features/pid/misc/initialise</text>
<text text-anchor="start" x="616" y="-18" font-family="Helvetica,sans-Serif" font-size="10.00">_valve/InitialiseValveButtonView</text>
<text text-anchor="middle" x="696.5" y="-7" font-family="Helvetica,sans-Serif" font-size="10.00">Model.cpp</text>
</a>
</g>
</g>
<!-- Node4&#45;&gt;Node10 -->
<g id="edge9_Node000004_Node000010" class="edge">
<title>Node4&#45;&gt;Node10</title>
<g id="a_edge9_Node000004_Node000010"><a xlink:title=" ">
<path fill="none" stroke="#63b8ff" d="M1313.1,-76.92C1082.88,-48.89 1020.87,-71.23 794.5,-41 791.4,-40.59 788.26,-40.14 785.09,-39.65"/>
<polygon fill="#63b8ff" stroke="#63b8ff" points="1312.77,-80.41 1323.13,-78.16 1313.63,-73.46 1312.77,-80.41"/>
</a>
</g>
</g>
<!-- Node11 -->
<g id="Node000011" class="node">
<title>Node11</title>
<g id="a_Node000011"><a xlink:href="TestBenchModel_8cpp.html" target="_top" xlink:title=" ">
<polygon fill="white" stroke="#666666" points="985.5,-30 803.5,-30 803.5,-11 985.5,-11 985.5,-30"/>
<text text-anchor="middle" x="894.5" y="-18" font-family="Helvetica,sans-Serif" font-size="10.00">features/test/TestBenchModel.cpp</text>
</a>
</g>
</g>
<!-- Node4&#45;&gt;Node11 -->
<g id="edge10_Node000004_Node000011" class="edge">
<title>Node4&#45;&gt;Node11</title>
<g id="a_edge10_Node000004_Node000011"><a xlink:title=" ">
<path fill="none" stroke="#63b8ff" d="M1313.15,-76.87C1171.19,-56.47 1132.79,-62.23 994.5,-41 974.57,-37.94 952.56,-33.74 934.27,-30.02"/>
<polygon fill="#63b8ff" stroke="#63b8ff" points="1312.71,-80.34 1323.11,-78.32 1313.71,-73.41 1312.71,-80.34"/>
</a>
</g>
</g>
<!-- Node12 -->
<g id="Node000012" class="node">
<title>Node12</title>
<g id="a_Node000012"><a xlink:href="CountDownClockViewModel_8cpp.html" target="_top" xlink:title=" ">
<polygon fill="white" stroke="#666666" points="1193.5,-41 1003.5,-41 1003.5,0 1193.5,0 1193.5,-41"/>
<text text-anchor="start" x="1011.5" y="-29" font-family="Helvetica,sans-Serif" font-size="10.00">features/test/frames</text>
<text text-anchor="start" x="1011.5" y="-18" font-family="Helvetica,sans-Serif" font-size="10.00">/countdown_clock/CountDownClock</text>
<text text-anchor="middle" x="1098.5" y="-7" font-family="Helvetica,sans-Serif" font-size="10.00">ViewModel.cpp</text>
</a>
</g>
</g>
<!-- Node4&#45;&gt;Node12 -->
<g id="edge11_Node000004_Node000012" class="edge">
<title>Node4&#45;&gt;Node12</title>
<g id="a_edge11_Node000004_Node000012"><a xlink:title=" ">
<path fill="none" stroke="#63b8ff" d="M1322.25,-74.57C1279.84,-64.52 1225.34,-51.59 1180.74,-41.01"/>
<polygon fill="#63b8ff" stroke="#63b8ff" points="1321.67,-78.03 1332.21,-76.94 1323.28,-71.22 1321.67,-78.03"/>
</a>
</g>
</g>
<!-- Node13 -->
<g id="Node000013" class="node">
<title>Node13</title>
<g id="a_Node000013"><a xlink:href="EmergencyControlsViewModel_8cpp.html" target="_top" xlink:title=" ">
<polygon fill="white" stroke="#666666" points="1387.5,-41 1211.5,-41 1211.5,0 1387.5,0 1387.5,-41"/>
<text text-anchor="start" x="1219.5" y="-29" font-family="Helvetica,sans-Serif" font-size="10.00">features/test/frames</text>
<text text-anchor="start" x="1219.5" y="-18" font-family="Helvetica,sans-Serif" font-size="10.00">/emergency_controls/Emergency</text>
<text text-anchor="middle" x="1299.5" y="-7" font-family="Helvetica,sans-Serif" font-size="10.00">ControlsViewModel.cpp</text>
</a>
</g>
</g>
<!-- Node4&#45;&gt;Node13 -->
<g id="edge12_Node000004_Node000013" class="edge">
<title>Node4&#45;&gt;Node13</title>
<g id="a_edge12_Node000004_Node000013"><a xlink:title=" ">
<path fill="none" stroke="#63b8ff" d="M1364.73,-70.77C1352.34,-61.42 1337.69,-50.35 1325.41,-41.07"/>
<polygon fill="#63b8ff" stroke="#63b8ff" points="1362.79,-73.7 1372.88,-76.94 1367.01,-68.12 1362.79,-73.7"/>
</a>
</g>
</g>
<!-- Node14 -->
<g id="Node000014" class="node">
<title>Node14</title>
<g id="a_Node000014"><a xlink:href="TankPressureControlerViewModel_8cpp.html" target="_top" xlink:title=" ">
<polygon fill="white" stroke="#666666" points="1561.5,-41 1405.5,-41 1405.5,0 1561.5,0 1561.5,-41"/>
<text text-anchor="start" x="1413.5" y="-29" font-family="Helvetica,sans-Serif" font-size="10.00">features/test/frames</text>
<text text-anchor="start" x="1413.5" y="-18" font-family="Helvetica,sans-Serif" font-size="10.00">/tank_pressure/TankPressure</text>
<text text-anchor="middle" x="1483.5" y="-7" font-family="Helvetica,sans-Serif" font-size="10.00">ControlerViewModel.cpp</text>
</a>
</g>
</g>
<!-- Node4&#45;&gt;Node14 -->
<g id="edge13_Node000004_Node000014" class="edge">
<title>Node4&#45;&gt;Node14</title>
<g id="a_edge13_Node000004_Node000014"><a xlink:title=" ">
<path fill="none" stroke="#63b8ff" d="M1418.27,-70.77C1430.66,-61.42 1445.31,-50.35 1457.59,-41.07"/>
<polygon fill="#63b8ff" stroke="#63b8ff" points="1415.99,-68.12 1410.12,-76.94 1420.21,-73.7 1415.99,-68.12"/>
</a>
</g>
</g>
<!-- Node15 -->
<g id="Node000015" class="node">
<title>Node15</title>
<g id="a_Node000015"><a xlink:href="LogTerminalViewModel_8cpp.html" target="_top" xlink:title=" ">
<polygon fill="white" stroke="#666666" points="1777,-35.5 1580,-35.5 1580,-5.5 1777,-5.5 1777,-35.5"/>
<text text-anchor="start" x="1588" y="-23.5" font-family="Helvetica,sans-Serif" font-size="10.00">features/test/frames</text>
<text text-anchor="middle" x="1678.5" y="-12.5" font-family="Helvetica,sans-Serif" font-size="10.00">/terminal/LogTerminalViewModel.cpp</text>
</a>
</g>
</g>
<!-- Node4&#45;&gt;Node15 -->
<g id="edge14_Node000004_Node000015" class="edge">
<title>Node4&#45;&gt;Node15</title>
<g id="a_edge14_Node000004_Node000015"><a xlink:title=" ">
<path fill="none" stroke="#63b8ff" d="M1459.46,-74.54C1508.48,-62.67 1573.95,-46.82 1620.51,-35.54"/>
<polygon fill="#63b8ff" stroke="#63b8ff" points="1458.47,-71.18 1449.58,-76.94 1460.12,-77.98 1458.47,-71.18"/>
</a>
</g>
</g>
<!-- Node16 -->
<g id="Node000016" class="node">
<title>Node16</title>
<g id="a_Node000016"><a xlink:href="TestLauncherViewModel_8cpp.html" target="_top" xlink:title=" ">
<polygon fill="white" stroke="#666666" points="1947.5,-41 1795.5,-41 1795.5,0 1947.5,0 1947.5,-41"/>
<text text-anchor="start" x="1803.5" y="-29" font-family="Helvetica,sans-Serif" font-size="10.00">features/test/frames</text>
<text text-anchor="start" x="1803.5" y="-18" font-family="Helvetica,sans-Serif" font-size="10.00">/test_launcher/TestLauncher</text>
<text text-anchor="middle" x="1871.5" y="-7" font-family="Helvetica,sans-Serif" font-size="10.00">ViewModel.cpp</text>
</a>
</g>
</g>
<!-- Node4&#45;&gt;Node16 -->
<g id="edge15_Node000004_Node000016" class="edge">
<title>Node4&#45;&gt;Node16</title>
<g id="a_edge15_Node000004_Node000016"><a xlink:title=" ">
<path fill="none" stroke="#63b8ff" d="M1469.75,-83.33C1549.49,-74.98 1676.59,-60.21 1785.5,-41 1788.67,-40.44 1791.89,-39.84 1795.15,-39.22"/>
<polygon fill="#63b8ff" stroke="#63b8ff" points="1469.36,-79.85 1459.78,-84.36 1470.09,-86.81 1469.36,-79.85"/>
</a>
</g>
</g>
<!-- Node17 -->
<g id="Node000017" class="node">
<title>Node17</title>
<g id="a_Node000017"><a xlink:href="AppModels_8cpp.html" target="_top" xlink:title=" ">
<polygon fill="white" stroke="#666666" points="2129.5,-30 1965.5,-30 1965.5,-11 2129.5,-11 2129.5,-30"/>
<text text-anchor="middle" x="2047.5" y="-18" font-family="Helvetica,sans-Serif" font-size="10.00">mvvm/models/AppModels.cpp</text>
</a>
</g>
</g>
<!-- Node4&#45;&gt;Node17 -->
<g id="edge16_Node000004_Node000017" class="edge">
<title>Node4&#45;&gt;Node17</title>
<g id="a_edge16_Node000004_Node000017"><a xlink:title=" ">
<path fill="none" stroke="#63b8ff" d="M1469.95,-87.11C1579.39,-80.99 1783.88,-67.03 1956.5,-41 1975.19,-38.18 1995.81,-33.87 2012.68,-30.01"/>
<polygon fill="#63b8ff" stroke="#63b8ff" points="1469.45,-83.63 1459.66,-87.68 1469.84,-90.62 1469.45,-83.63"/>
</a>
</g>
</g>
<!-- Node18 -->
<g id="Node000018" class="node">
<title>Node18</title>
<g id="a_Node000018"><a xlink:href="AppViewModels_8cpp.html" target="_top" xlink:title=" ">
<polygon fill="white" stroke="#666666" points="2359.5,-30 2147.5,-30 2147.5,-11 2359.5,-11 2359.5,-30"/>
<text text-anchor="middle" x="2253.5" y="-18" font-family="Helvetica,sans-Serif" font-size="10.00">mvvm/viewmodels/AppViewModels.cpp</text>
</a>
</g>
</g>
<!-- Node4&#45;&gt;Node18 -->
<g id="edge17_Node000004_Node000018" class="edge">
<title>Node4&#45;&gt;Node18</title>
<g id="a_edge17_Node000004_Node000018"><a xlink:title=" ">
<path fill="none" stroke="#63b8ff" d="M1470.03,-88.36C1606.41,-83.19 1895.7,-69.64 2138.5,-41 2162.03,-38.22 2188.07,-33.91 2209.42,-30.05"/>
<polygon fill="#63b8ff" stroke="#63b8ff" points="1469.55,-84.87 1459.69,-88.74 1469.81,-91.87 1469.55,-84.87"/>
</a>
</g>
</g>
<!-- Node19 -->
<g id="Node000019" class="node">
<title>Node19</title>
<g id="a_Node000019"><a xlink:href="AppServices_8cpp.html" target="_top" xlink:title=" ">
<polygon fill="white" stroke="#666666" points="2517.5,-30 2377.5,-30 2377.5,-11 2517.5,-11 2517.5,-30"/>
<text text-anchor="middle" x="2447.5" y="-18" font-family="Helvetica,sans-Serif" font-size="10.00">services/AppServices.cpp</text>
</a>
</g>
</g>
<!-- Node4&#45;&gt;Node19 -->
<g id="edge18_Node000004_Node000019" class="edge">
<title>Node4&#45;&gt;Node19</title>
<g id="a_edge18_Node000004_Node000019"><a xlink:title=" ">
<path fill="none" stroke="#63b8ff" d="M1469.89,-88.92C1669.94,-83.3 2195.71,-66.51 2368.5,-41 2385.27,-38.52 2403.68,-34.08 2418.5,-30.07"/>
<polygon fill="#63b8ff" stroke="#63b8ff" points="1469.66,-85.43 1459.76,-89.2 1469.85,-92.42 1469.66,-85.43"/>
</a>
</g>
</g>
<!-- Node20&#45;&gt;Node6 -->
<g id="edge20_Node000020_Node000006" class="edge">
<title>Node20&#45;&gt;Node6</title>
<g id="a_edge20_Node000020_Node000006"><a xlink:title=" ">
<path fill="none" stroke="#63b8ff" d="M2603.5,-66.75C2603.5,-56.31 2603.5,-44.49 2603.5,-35.54"/>
<polygon fill="#63b8ff" stroke="#63b8ff" points="2600,-66.94 2603.5,-76.94 2607,-66.94 2600,-66.94"/>
</a>
</g>
</g>
<!-- Node21 -->
<g id="Node000021" class="node">
<title>Node21</title>
<g id="a_Node000021"><a xlink:href="UdpWorker_8cpp.html" target="_top" xlink:title=" ">
<polygon fill="white" stroke="#666666" points="2825.5,-35.5 2689.5,-35.5 2689.5,-5.5 2825.5,-5.5 2825.5,-35.5"/>
<text text-anchor="start" x="2697.5" y="-23.5" font-family="Helvetica,sans-Serif" font-size="10.00">features/communication</text>
<text text-anchor="middle" x="2757.5" y="-12.5" font-family="Helvetica,sans-Serif" font-size="10.00">/udp/UdpWorker.cpp</text>
</a>
</g>
</g>
<!-- Node20&#45;&gt;Node21 -->
<g id="edge21_Node000020_Node000021" class="edge">
<title>Node20&#45;&gt;Node21</title>
<g id="a_edge21_Node000020_Node000021"><a xlink:title=" ">
<path fill="none" stroke="#63b8ff" d="M2643.82,-72.81C2669.62,-61.16 2702.6,-46.28 2726.38,-35.54"/>
<polygon fill="#63b8ff" stroke="#63b8ff" points="2642.34,-69.63 2634.66,-76.94 2645.22,-76.01 2642.34,-69.63"/>
</a>
</g>
</g>
</g>
</svg>

<g id="navigator" transform="translate(0 0)" fill="#404254">
  <rect fill="#f2f5e9" fill-opacity="0.5" stroke="#606060" stroke-width=".5" x="0" y="0" width="60" height="60"/>
  <use id="zoomplus" xlink:href="#zoomPlus" x="17" y="9" onmousedown="handleZoom(evt,'in')"/>
  <use id="zoomminus" xlink:href="#zoomMin" x="42" y="9" onmousedown="handleZoom(evt,'out')"/>
  <use id="reset" xlink:href="#resetDef" x="30" y="36" onmousedown="handleReset()"/>
   <use id="arrowup" xlink:href="#arrowUp" x="0" y="0" onmousedown="handlePan(0,-1)"/>
  <use id="arrowright" xlink:href="#arrowRight" x="0" y="0" onmousedown="handlePan(1,0)"/>
  <use id="arrowdown" xlink:href="#arrowDown" x="0" y="0" onmousedown="handlePan(0,1)"/>
  <use id="arrowleft" xlink:href="#arrowLeft" x="0" y="0" onmousedown="handlePan(-1,0)"/>
</g>
<svg viewBox="0 0 15 15" width="100%" height="30px" preserveAspectRatio="xMaxYMin meet">
 <g id="arrow_out" transform="scale(0.3 0.3)">
  <a xlink:href="Writer_8h__dep__incl_org.svg" target="_base">
   <rect id="button" ry="5" rx="5" y="6" x="6" height="38" width="38"
        fill="#f2f5e9" fill-opacity="0.5" stroke="#606060" stroke-width="1.0"/>
   <path id="arrow"
     d="M 11.500037,31.436501 C 11.940474,20.09759 22.043105,11.32322 32.158766,21.979434 L 37.068811,17.246167 C 37.068811,17.246167 37.088388,32 37.088388,32 L 22.160133,31.978069 C 22.160133,31.978069 26.997745,27.140456 26.997745,27.140456 C 18.528582,18.264221 13.291696,25.230495 11.500037,31.436501 z"
     style="fill:#404040;"/>
  </a>
 </g>
</svg>

<style type='text/css'>
<![CDATA[
[data-mouse-over-selected='false'] { opacity: 0.7; }
[data-mouse-over-selected='true']  { opacity: 1.0; }
]]>
</style>
<script type="application/ecmascript"><![CDATA[
document.addEventListener('DOMContentLoaded', (event) => {
  highlightEdges();
  highlightAdjacentNodes();
});
]]></script>
</svg>
